<?xml version="1.0" standalone="no"?>
<!DOCTYPE svg PUBLIC "-//W3C//DTD SVG 20010904//EN"
 "http://www.w3.org/TR/2001/REC-SVG-20010904/DTD/svg10.dtd">
<svg version="1.0" xmlns="http://www.w3.org/2000/svg"
 width="498.000000pt" height="500.000000pt" viewBox="0 0 498.000000 500.000000"
 preserveAspectRatio="xMidYMid meet">
<metadata>
Created by potrace 1.15, written by Peter Selinger 2001-2017
</metadata>
<g transform="translate(0.000000,500.000000) scale(0.100000,-0.100000)"
fill="#000000" stroke="none">
<path d="M2471 4977 c-15 -19 -3 -49 18 -45 9 2 16 13 16 27 0 29 -17 37 -34
18z"/>
<path d="M2336 4963 c-10 -26 9 -38 40 -24 26 11 26 12 8 26 -25 19 -40 19
-48 -2z"/>
<path d="M2607 4973 c-4 -3 -7 -15 -7 -25 0 -19 25 -24 49 -9 12 8 12 12 2 25
-14 17 -33 21 -44 9z"/>
<path d="M2204 4955 c-7 -18 3 -35 21 -35 18 0 26 15 19 34 -8 20 -33 21 -40
1z"/>
<path d="M2740 4955 c-15 -18 -5 -35 20 -35 10 0 22 5 25 10 7 11 -12 40 -25
40 -4 0 -13 -7 -20 -15z"/>
<path d="M2077 4943 c-24 -23 12 -55 38 -33 12 10 13 16 4 26 -12 15 -31 18
-42 7z"/>
<path d="M2870 4935 c-22 -26 7 -46 39 -26 12 8 12 12 2 25 -17 20 -25 20 -41
1z"/>
<path d="M1935 4910 c-3 -5 0 -18 7 -29 11 -18 14 -19 29 -5 10 9 15 22 12 30
-6 16 -39 19 -48 4z"/>
<path d="M2995 4910 c-3 -5 -1 -19 5 -30 9 -17 14 -19 26 -9 21 17 18 49 -5
49 -11 0 -23 -4 -26 -10z"/>
<path d="M1813 4874 c-9 -24 11 -38 37 -24 17 9 19 14 9 26 -15 19 -38 18 -46
-2z"/>
<path d="M3124 4875 c-13 -32 23 -48 47 -19 10 13 10 17 -2 25 -21 13 -39 11
-45 -6z"/>
<path d="M1687 4854 c-12 -12 -8 -42 6 -47 24 -9 44 10 31 30 -12 20 -27 26
-37 17z"/>
<path d="M3253 4834 c-9 -24 11 -38 37 -24 17 9 19 14 9 26 -15 19 -38 18 -46
-2z"/>
<path d="M3380 4800 c-12 -23 -6 -40 15 -40 19 0 27 17 20 40 -8 26 -21 25
-35 0z"/>
<path d="M1561 4797 c-8 -10 -7 -19 4 -33 15 -19 15 -19 30 0 11 14 12 23 4
33 -6 7 -15 13 -19 13 -4 0 -13 -6 -19 -13z"/>
<path d="M1439 4744 c-10 -12 -9 -18 3 -31 14 -14 19 -14 37 -1 17 12 19 17 9
25 -27 21 -36 22 -49 7z"/>
<path d="M3500 4744 c-11 -12 -10 -18 3 -32 16 -15 18 -15 34 0 13 14 14 20 3
32 -7 9 -16 16 -20 16 -4 0 -13 -7 -20 -16z"/>
<path d="M1314 4679 c-3 -6 1 -18 10 -27 15 -15 17 -15 32 0 19 19 11 38 -16
38 -10 0 -22 -5 -26 -11z"/>
<path d="M2027 4668 c-8 -13 -45 -72 -81 -133 -37 -60 -86 -127 -109 -147
l-42 -38 67 0 c64 0 103 15 56 22 -28 4 -26 29 4 71 19 26 24 28 82 25 l61 -3
3 -43 c3 -37 0 -44 -17 -49 -12 -3 -21 -9 -21 -14 0 -12 137 -11 145 1 3 6 0
10 -7 10 -35 1 -41 19 -57 167 l-16 148 -27 3 c-19 2 -31 -3 -41 -20z m32
-150 c1 -27 -1 -28 -49 -28 -27 0 -50 5 -50 10 0 9 25 53 68 120 l17 25 6 -50
c4 -27 8 -62 8 -77z"/>
<path d="M2713 4674 c-3 -8 1 -22 9 -30 13 -13 16 -13 27 0 7 9 11 23 7 31 -7
20 -35 19 -43 -1z"/>
<path d="M3617 4676 c-3 -8 1 -20 9 -27 11 -9 18 -8 34 6 16 14 17 20 8 27
-20 12 -45 9 -51 -6z"/>
<path d="M2541 4625 c-11 -19 -32 -40 -46 -45 -30 -11 -32 -26 -6 -33 18 -4
18 -7 1 -93 -13 -62 -15 -93 -8 -101 13 -16 60 -17 76 -1 19 19 14 26 -13 20
-30 -5 -30 -2 -7 97 17 71 19 75 50 83 36 10 34 28 -3 28 -21 0 -22 3 -15 35
11 48 -4 53 -29 10z"/>
<path d="M3741 4626 c-16 -19 -7 -46 14 -46 22 0 30 29 13 46 -13 13 -16 13
-27 0z"/>
<path d="M1204 4615 c-12 -31 23 -48 45 -21 10 12 8 17 -8 25 -26 14 -31 14
-37 -4z"/>
<path d="M2301 4572 c-50 -25 -74 -63 -79 -126 -4 -48 -1 -57 21 -80 28 -28
64 -33 115 -15 17 6 33 17 36 26 5 11 2 13 -11 8 -52 -21 -72 -23 -93 -8 -19
14 -22 23 -18 68 8 93 79 157 118 105 19 -25 40 -20 40 10 0 34 -73 41 -129
12z"/>
<path d="M3135 4571 c-57 -35 -78 -67 -83 -125 -4 -48 -1 -57 21 -80 33 -32
88 -35 136 -5 43 26 35 33 -23 17 -55 -15 -79 -5 -84 35 -3 23 3 27 64 47 99
33 126 68 84 110 -25 25 -75 26 -115 1z m75 -30 c0 -32 -33 -61 -74 -68 l-40
-6 26 44 c33 56 88 75 88 30z"/>
<path d="M2657 4573 c-12 -11 -8 -23 8 -23 20 0 19 -19 -5 -110 -14 -54 -16
-78 -8 -87 14 -18 53 -16 68 2 10 12 9 15 -8 15 -20 0 -20 1 4 93 13 50 24 98
24 105 0 13 -71 18 -83 5z"/>
<path d="M2797 4573 c-12 -11 -8 -23 8 -23 9 0 17 -14 21 -37 25 -142 30 -158
50 -161 16 -2 33 19 82 100 34 57 62 109 62 116 0 7 -14 12 -35 12 -24 0 -35
-5 -35 -15 0 -8 7 -15 16 -15 12 0 8 -15 -21 -67 -21 -38 -41 -72 -45 -77 -5
-4 -14 33 -21 83 l-13 91 -31 0 c-18 0 -35 -3 -38 -7z"/>
<path d="M1092 4550 c-15 -25 -8 -40 19 -40 19 0 24 15 13 44 -8 21 -17 20
-32 -4z"/>
<path d="M3850 4545 c-22 -27 12 -49 38 -23 8 8 9 15 1 25 -15 17 -24 16 -39
-2z"/>
<path d="M984 4476 c-7 -18 1 -46 13 -46 4 0 15 5 23 10 11 7 12 14 4 27 -15
24 -33 28 -40 9z"/>
<path d="M3954 4465 c-12 -29 15 -45 45 -26 12 8 12 12 2 25 -17 20 -40 21
-47 1z"/>
<path d="M877 4377 c-3 -7 1 -21 8 -30 11 -15 14 -15 25 -2 7 8 10 22 6 30 -7
18 -32 20 -39 2z"/>
<path d="M4055 4380 c-4 -7 -3 -16 3 -22 14 -14 47 -6 47 12 0 18 -40 26 -50
10z"/>
<path d="M784 4299 c-3 -6 -3 -22 1 -36 6 -24 7 -24 25 -8 10 9 16 23 14 30
-7 18 -32 27 -40 14z"/>
<path d="M4160 4295 c-17 -21 6 -61 26 -44 18 15 18 45 0 52 -8 3 -20 0 -26
-8z"/>
<path d="M4256 4209 c-14 -21 -14 -25 -1 -38 13 -14 17 -13 31 1 15 15 15 18
1 38 l-15 21 -16 -22z"/>
<path d="M683 4194 c-3 -8 1 -22 9 -30 13 -13 16 -13 27 0 7 9 11 23 7 31 -7
20 -35 19 -43 -1z"/>
<path d="M1305 4120 c-3 -5 3 -10 14 -10 27 0 26 -6 -9 -125 -23 -76 -37 -105
-58 -122 l-27 -23 58 0 c56 0 77 13 37 23 -19 5 -19 5 1 73 11 38 22 81 26 97
10 50 19 28 34 -80 12 -97 16 -108 34 -108 15 0 34 26 78 110 l58 110 -6 -90
c-6 -82 -9 -92 -33 -112 l-27 -22 68 -1 c38 0 67 4 67 10 0 6 -6 10 -14 10
-24 0 -25 11 -11 125 11 93 16 111 37 126 l23 19 -50 0 -50 0 -60 -117 -60
-117 -17 114 c-9 63 -17 116 -17 118 -3 7 -91 0 -96 -8z"/>
<path d="M600 4105 c-11 -13 -11 -19 3 -33 20 -19 41 -5 35 24 -4 24 -22 28
-38 9z"/>
<path d="M3807 4079 c-9 -17 -26 -33 -37 -36 -23 -6 -27 -23 -5 -23 19 0 19
-2 0 -91 -14 -63 -14 -75 -1 -87 16 -16 66 -9 66 9 0 7 -9 9 -21 6 -17 -5 -20
-2 -16 16 3 12 11 50 18 85 10 55 14 62 35 62 13 0 24 5 24 10 0 6 -10 10 -21
10 -19 0 -20 4 -15 35 8 43 -3 45 -27 4z"/>
<path d="M4342 4098 c-7 -9 -6 -19 4 -33 13 -17 16 -18 24 -5 20 31 -5 65 -28
38z"/>
<path d="M1755 4046 c-42 -19 -71 -54 -85 -103 -24 -79 26 -137 85 -99 22 14
26 14 53 -1 26 -15 32 -15 47 -3 17 14 16 15 -2 20 -20 5 -20 6 -3 79 10 41
16 80 13 87 -4 11 -55 35 -72 34 -3 -1 -19 -7 -36 -14z m65 -46 c0 -48 -30
-109 -60 -125 -25 -13 -29 -12 -44 4 -21 23 -20 33 5 84 30 60 38 67 70 67 25
0 29 -4 29 -30z"/>
<path d="M2038 4020 l-40 -40 4 30 c4 28 2 30 -28 30 -18 0 -36 -4 -39 -10 -3
-5 1 -10 9 -10 19 0 19 -7 1 -90 -19 -85 -18 -90 4 -90 14 0 20 10 25 38 7 47
59 128 86 135 25 6 26 -23 5 -103 -17 -65 -6 -87 39 -76 29 7 36 26 10 26 -12
0 -15 6 -12 23 3 12 11 51 19 86 13 59 12 64 -6 77 -27 20 -33 18 -77 -26z"/>
<path d="M2276 4050 c-59 -18 -96 -73 -96 -143 0 -23 5 -48 12 -55 15 -15 50
-15 82 0 22 9 29 8 45 -6 13 -11 27 -15 40 -11 24 7 28 25 6 25 -19 0 -19 20
0 90 21 78 19 87 -16 99 -36 12 -34 12 -73 1z m59 -59 c-12 -62 -32 -99 -64
-115 -29 -16 -31 -15 -47 8 -15 24 -14 28 14 83 20 40 36 59 53 64 41 10 51 0
44 -40z"/>
<path d="M2503 4044 c-59 -29 -93 -108 -73 -168 15 -47 48 -56 91 -25 l31 22
-7 -24 c-15 -55 -28 -79 -44 -80 -29 -2 -46 2 -62 17 -15 13 -17 13 -23 -1 -9
-24 -1 -32 43 -39 46 -7 84 7 105 39 14 21 56 197 56 234 0 12 -11 23 -31 30
-41 14 -48 14 -86 -5z m76 -20 c2 -2 -1 -28 -8 -59 -9 -39 -21 -61 -43 -80
-34 -29 -58 -21 -58 20 0 35 28 106 48 121 14 11 47 10 61 -2z"/>
<path d="M2752 4040 c-73 -33 -106 -137 -57 -185 13 -14 35 -25 49 -25 29 0
96 29 96 42 0 11 -7 10 -42 -8 -43 -22 -81 -6 -76 33 2 22 12 29 57 44 65 23
81 35 81 64 0 46 -49 62 -108 35z m63 -20 c11 -18 -24 -59 -58 -68 -17 -5 -33
-5 -35 -1 -4 9 27 60 43 71 15 11 43 10 50 -2z"/>
<path d="M3004 4024 l-34 -35 0 28 c0 27 -2 29 -35 25 -34 -4 -50 -22 -20 -22
11 0 14 -7 10 -22 -3 -13 -10 -45 -15 -73 -6 -27 -13 -58 -16 -67 -4 -13 0
-18 15 -18 15 0 23 12 35 54 19 65 82 141 96 116 5 -9 3 -43 -5 -80 -18 -82
-18 -90 -2 -90 7 0 30 36 52 81 61 128 101 129 72 2 -18 -79 -9 -101 37 -89
29 7 36 26 10 26 -14 0 -15 7 -10 38 20 111 20 135 1 148 -27 20 -34 18 -71
-23 l-34 -37 0 27 c0 23 -23 47 -46 47 -3 0 -22 -16 -40 -36z"/>
<path d="M3355 4046 c-17 -7 -43 -28 -58 -46 -24 -28 -28 -40 -25 -88 3 -49 6
-58 30 -71 23 -13 32 -13 74 0 26 8 49 20 52 27 3 10 -5 9 -34 -3 -45 -19 -72
-12 -80 21 -8 31 -1 38 51 54 60 18 85 37 85 65 0 23 -33 55 -55 55 -5 -1 -24
-7 -40 -14z m55 -31 c0 -25 -47 -65 -75 -65 -23 0 -25 2 -14 23 6 12 18 30 27
40 19 21 62 23 62 2z"/>
<path d="M3598 4020 l-40 -40 4 30 c4 29 3 30 -34 30 -21 0 -38 -4 -38 -10 0
-5 7 -10 15 -10 18 0 18 -7 0 -90 -18 -82 -18 -90 -2 -90 8 0 31 34 52 76 72
142 109 139 70 -5 -10 -40 -11 -58 -3 -68 14 -17 43 -16 58 2 10 12 10 15 -4
15 -20 0 -20 -3 1 93 16 77 16 80 -2 93 -27 20 -33 18 -77 -26z"/>
<path d="M517 4003 c-24 -23 12 -55 38 -33 12 10 13 16 4 26 -12 15 -31 18
-42 7z"/>
<path d="M4427 4003 c-24 -23 12 -55 38 -33 12 10 13 16 4 26 -12 15 -31 18
-42 7z"/>
<path d="M434 3885 c-13 -32 23 -48 47 -19 10 13 10 17 -2 25 -21 13 -39 11
-45 -6z"/>
<path d="M4502 3888 c-13 -13 2 -38 23 -38 21 0 36 25 23 38 -7 7 -17 12 -23
12 -6 0 -16 -5 -23 -12z"/>
<path d="M371 3786 c-16 -19 -7 -46 14 -46 22 0 30 29 13 46 -13 13 -16 13
-27 0z"/>
<path d="M4572 3778 c-13 -13 2 -38 23 -38 21 0 36 25 23 38 -7 7 -17 12 -23
12 -6 0 -16 -5 -23 -12z"/>
<path d="M300 3665 c-10 -12 -10 -18 0 -29 16 -20 42 -8 38 17 -4 26 -21 32
-38 12z"/>
<path d="M4636 3661 c-10 -16 5 -42 23 -39 21 4 21 42 -1 46 -9 2 -19 -1 -22
-7z"/>
<path d="M237 3536 c-9 -23 18 -39 43 -26 17 9 19 14 9 26 -15 18 -45 18 -52
0z"/>
<path d="M4695 3540 c-3 -5 -1 -19 6 -31 10 -19 12 -20 26 -6 9 9 13 23 10 31
-7 18 -32 21 -42 6z"/>
<path d="M4751 3421 c-8 -14 -7 -22 4 -31 22 -19 48 5 34 31 -5 10 -14 19 -19
19 -5 0 -14 -9 -19 -19z"/>
<path d="M190 3415 c-10 -12 -10 -18 0 -31 12 -13 15 -13 28 0 15 15 10 46 -6
46 -5 0 -15 -7 -22 -15z"/>
<path d="M142 3298 c-7 -7 -8 -17 -1 -30 12 -22 18 -22 43 -3 20 15 20 15 0
30 -23 18 -27 18 -42 3z"/>
<path d="M4800 3295 c-19 -22 5 -48 31 -34 10 5 19 14 19 19 0 5 -9 14 -19 19
-14 8 -22 7 -31 -4z"/>
<path d="M2194 3199 c-111 -89 -222 -197 -422 -412 -112 -122 -160 -167 -173
-164 -10 3 -26 -4 -36 -15 -18 -20 -17 -20 4 -14 18 6 28 -1 58 -46 l36 -53
-23 -15 c-66 -45 -133 -109 -212 -204 -48 -58 -92 -106 -97 -106 -12 0 25 74
59 118 13 17 20 32 16 32 -22 0 -119 -65 -200 -134 -49 -41 -90 -73 -92 -71
-7 7 27 61 77 124 28 35 51 68 51 73 0 14 -60 -23 -161 -98 -80 -59 -119 -77
-119 -55 0 5 51 46 114 90 63 44 117 85 120 90 19 30 -24 8 -144 -75 -82 -57
-137 -89 -139 -82 -6 17 93 103 163 141 74 40 90 70 19 33 -28 -14 -80 -45
-117 -70 -36 -25 -69 -46 -72 -46 -3 0 3 13 12 29 20 34 189 139 285 178 44
18 94 28 165 34 85 6 113 13 164 39 55 28 61 33 48 46 -13 13 -20 11 -59 -11
-29 -15 -75 -29 -125 -35 -43 -6 -116 -20 -162 -32 -91 -22 -114 -21 -232 13
-51 14 -104 21 -165 22 -80 0 -109 -6 -267 -53 -225 -67 -265 -93 -55 -35 196
54 285 69 358 61 60 -6 181 -46 186 -62 1 -5 -25 -27 -59 -49 -137 -88 -161
-123 -128 -191 39 -84 81 -90 180 -29 30 18 56 32 57 31 2 -2 -6 -24 -18 -50
-21 -48 -20 -76 3 -76 14 0 79 44 150 103 25 20 48 37 52 37 3 0 6 -20 6 -45
0 -45 0 -45 24 -33 13 7 56 51 95 98 120 142 158 178 264 248 138 93 189 120
352 192 218 97 293 119 447 131 116 10 141 9 198 -5 107 -27 169 -63 245 -141
78 -80 88 -96 103 -175 15 -81 203 -573 282 -737 38 -78 102 -200 143 -270 41
-70 93 -160 116 -199 70 -124 113 -148 415 -237 221 -65 246 -79 212 -115 -37
-41 -217 -61 -554 -62 -272 0 -292 9 -292 141 0 21 -9 63 -20 93 -19 49 -43
76 -217 243 -202 194 -245 245 -333 398 -121 208 -159 411 -121 648 12 74 8
137 -8 137 -5 0 -11 -41 -15 -92 -7 -105 -29 -204 -58 -263 -11 -22 -55 -87
-98 -145 -42 -58 -99 -136 -126 -175 -167 -240 -367 -464 -519 -580 -157 -119
-426 -252 -650 -320 -119 -36 -305 -75 -358 -75 -24 0 -28 -3 -19 -12 24 -24
275 18 437 74 243 83 539 247 716 396 54 45 101 82 103 82 3 0 12 -14 21 -30
11 -22 13 -35 6 -49 -16 -29 37 -97 81 -103 69 -11 79 21 11 35 -54 10 -70 29
-53 62 11 20 10 28 -4 50 -9 14 -21 25 -26 25 -6 0 -10 8 -10 18 0 15 14 21
82 32 45 7 94 13 110 12 33 -1 89 -31 96 -51 4 -11 -1 -10 -19 2 -31 22 -42
21 -34 -2 5 -15 -1 -20 -31 -25 -69 -13 -24 -18 53 -6 51 8 97 9 133 3 44 -7
65 -5 103 9 26 10 59 18 73 18 14 0 47 11 73 24 25 13 72 34 105 46 46 18 60
20 66 10 6 -10 -8 -21 -48 -42 -32 -15 -63 -28 -70 -28 -6 0 -29 -18 -51 -40
-36 -38 -71 -52 -71 -30 0 6 -13 10 -29 10 -41 0 -83 -38 -151 -139 -32 -47
-72 -98 -89 -113 -17 -14 -31 -33 -31 -42 0 -9 2 -16 4 -16 2 0 31 36 66 80
35 44 66 80 71 80 4 0 11 -25 14 -55 7 -50 4 -59 -28 -117 -19 -35 -51 -81
-70 -103 -29 -33 -37 -38 -50 -27 -9 8 -26 10 -42 6 -27 -7 -27 -7 -24 47 3
52 3 53 -30 61 l-32 9 23 19 c23 19 23 19 3 34 -11 9 -33 19 -48 23 -35 7 -44
27 -27 59 17 31 0 55 -25 34 -30 -25 -13 -97 28 -119 22 -11 25 -19 20 -47 -4
-27 -1 -37 18 -53 12 -10 28 -38 33 -62 l11 -44 56 -3 c55 -3 59 -2 118 48 37
31 71 70 85 99 14 26 32 53 40 60 9 7 21 31 26 52 6 22 30 61 54 88 24 27 58
70 76 95 24 36 48 55 110 86 44 22 84 40 90 40 14 0 289 -251 317 -288 40 -54
55 -96 60 -168 13 -163 75 -191 358 -163 61 6 187 12 280 13 147 2 176 5 215
22 74 34 96 79 58 117 -25 25 -69 41 -283 102 -199 58 -241 80 -311 170 -61
77 -178 264 -171 272 3 2 62 -3 133 -11 156 -18 184 -13 275 49 167 114 176
182 55 394 -81 141 -86 168 -53 292 33 121 114 473 120 519 3 20 3 49 0 64 -5
22 -17 -13 -48 -140 -23 -93 -54 -208 -69 -256 -30 -100 -41 -107 -115 -86
-67 20 -78 42 -96 203 -24 210 -42 336 -49 342 -16 16 -16 -19 -1 -211 19
-265 20 -259 -4 -251 -32 10 -54 -22 -46 -64 17 -80 -7 -224 -55 -331 -20 -45
-33 -96 -41 -164 -15 -129 -41 -231 -59 -231 -19 0 -215 465 -284 675 -32 96
-64 194 -73 217 -27 78 -157 223 -233 260 -108 53 -299 77 -397 50 -29 -8 -53
-11 -53 -8 0 3 40 32 88 64 83 55 208 164 198 174 -5 6 -79 -47 -228 -164 -89
-70 -126 -92 -220 -129 -157 -63 -360 -163 -442 -218 l-69 -46 -29 27 c-15 15
-28 37 -28 51 0 18 61 85 243 266 133 134 284 282 336 329 51 48 89 87 84 87
-5 0 -50 -32 -99 -71z m1596 -891 c43 -8 57 -15 50 -23 -5 -6 -12 -54 -16
-106 l-6 -94 76 -151 c110 -218 107 -245 -39 -343 -72 -48 -139 -71 -205 -71
-52 0 -32 17 28 25 66 8 137 36 110 42 -15 4 -208 -24 -302 -43 -57 -12 -15
15 67 42 154 51 187 79 187 162 0 40 -63 182 -80 182 -11 0 -64 -66 -115 -144
-22 -33 -48 -62 -59 -64 -16 -3 -17 1 -12 35 4 21 11 74 15 118 7 64 14 90 40
130 38 61 66 147 75 237 l7 66 36 -14 c19 -8 49 -14 67 -12 l31 3 -36 16 c-52
24 -119 68 -119 79 0 5 32 -7 71 -26 38 -19 97 -40 129 -46z m-1154 -343 c31
-112 97 -248 169 -343 30 -40 55 -76 55 -79 0 -18 -46 -53 -69 -53 -14 0 -46
-9 -70 -20 -51 -24 -80 -25 -126 -6 -63 27 -192 39 -328 32 -95 -4 -126 -3
-121 5 4 7 61 85 128 173 67 89 166 230 221 314 l100 151 8 -42 c5 -23 20 -82
33 -132z m1059 -216 c10 -45 -3 -54 -36 -23 -23 22 -34 26 -63 21 -20 -3 -36
-3 -36 0 0 16 53 94 72 107 21 15 23 14 39 -30 10 -25 21 -59 24 -75z m-44
-50 c11 -11 18 -26 16 -32 -4 -14 -100 -46 -141 -46 -15 -1 -46 -11 -67 -23
-48 -27 -61 -17 -26 20 14 15 29 40 33 55 4 19 11 26 21 23 35 -14 63 -17 63
-9 0 12 38 31 63 32 9 1 26 -8 38 -20z m-1157 -254 c105 -19 114 -31 37 -45
-49 -9 -105 9 -140 45 l-26 26 25 -5 c14 -4 61 -13 104 -21z m129 -195 c-26
-38 -51 -70 -55 -70 -12 0 -21 72 -11 89 12 19 71 51 96 51 15 0 9 -14 -30
-70z m-71 -109 c-8 -22 -21 10 -27 66 l-5 48 18 -50 c11 -27 17 -56 14 -64z"/>
<path d="M103 3171 c-9 -14 -9 -21 0 -30 26 -26 55 -4 37 29 -13 25 -22 25
-37 1z"/>
<path d="M4841 3176 c-16 -19 -7 -46 14 -46 22 0 30 29 13 46 -13 13 -16 13
-27 0z"/>
<path d="M4870 3040 c-14 -26 0 -46 24 -37 20 8 21 31 2 46 -12 10 -17 8 -26
-9z"/>
<path d="M77 3043 c-4 -3 -7 -15 -7 -25 0 -21 32 -25 49 -5 17 22 -22 50 -42
30z"/>
<path d="M46 2904 c-12 -31 21 -47 43 -21 8 10 7 17 -1 25 -17 17 -35 15 -42
-4z"/>
<path d="M4891 2906 c-19 -22 14 -50 39 -33 25 15 25 24 1 37 -25 13 -26 13
-40 -4z"/>
<path d="M29 2774 c-15 -18 0 -38 27 -32 25 5 28 25 6 37 -15 8 -23 7 -33 -5z"/>
<path d="M4917 2783 c-10 -10 -8 -41 3 -48 5 -3 18 0 29 7 19 11 19 14 4 30
-17 19 -26 22 -36 11z"/>
<path d="M14 2639 c-3 -6 0 -18 9 -26 12 -12 18 -13 35 -2 16 10 18 16 10 26
-13 16 -44 17 -54 2z"/>
<path d="M4920 2630 c0 -26 25 -36 45 -20 12 10 13 16 4 26 -18 22 -49 17 -49
-6z"/>
<path d="M18 2513 c-25 -6 -22 -30 3 -38 25 -8 44 7 36 29 -7 16 -9 17 -39 9z"/>
<path d="M4924 2505 c-4 -8 -1 -22 6 -30 11 -14 15 -14 32 2 18 16 18 18 2 30
-23 17 -33 16 -40 -2z"/>
<path d="M4924 2374 c-8 -33 6 -48 30 -31 16 12 17 16 5 35 -18 29 -27 28 -35
-4z"/>
<path d="M21 2376 c-18 -22 4 -62 25 -45 18 15 18 33 0 48 -10 9 -16 8 -25 -3z"/>
<path d="M25 2240 c-7 -11 11 -40 24 -40 3 0 12 4 20 9 12 8 12 12 2 25 -15
18 -37 21 -46 6z"/>
<path d="M4910 2231 c0 -27 15 -34 40 -21 17 9 19 14 9 26 -17 21 -49 18 -49
-5z"/>
<path d="M50 2106 c-10 -13 -10 -19 0 -31 7 -8 16 -15 20 -15 15 0 20 34 7 47
-12 12 -16 12 -27 -1z"/>
<path d="M4891 2107 c-8 -10 -7 -19 4 -33 13 -18 15 -18 31 -2 14 14 15 20 4
32 -15 19 -24 20 -39 3z"/>
<path d="M72 1978 c-8 -8 -9 -15 -1 -25 14 -16 31 -17 47 -1 9 9 7 14 -6 24
-21 17 -25 17 -40 2z"/>
<path d="M4861 1977 c-9 -11 -8 -17 4 -27 19 -16 47 -5 43 17 -4 23 -31 28
-47 10z"/>
<path d="M4841 1856 c-16 -19 -7 -46 14 -46 22 0 30 29 13 46 -13 13 -16 13
-27 0z"/>
<path d="M101 1847 c-8 -10 -7 -19 4 -33 13 -18 15 -18 31 -2 18 18 13 48 -9
48 -8 0 -20 -6 -26 -13z"/>
<path d="M4796 1724 c-6 -16 9 -44 24 -44 14 0 20 32 9 46 -15 18 -25 18 -33
-2z"/>
<path d="M141 1717 c-8 -10 -7 -19 4 -33 15 -19 15 -19 30 0 11 14 12 23 4 33
-6 7 -15 13 -19 13 -4 0 -13 -6 -19 -13z"/>
<path d="M191 1596 c-17 -20 7 -60 26 -44 17 14 17 33 -1 47 -10 9 -16 8 -25
-3z"/>
<path d="M4749 1594 c-10 -13 -10 -17 2 -25 32 -20 61 0 39 26 -16 19 -24 19
-41 -1z"/>
<path d="M240 1474 c-11 -12 -11 -18 2 -30 13 -13 19 -14 36 -3 20 12 20 15 5
31 -20 22 -27 22 -43 2z"/>
<path d="M4701 1476 c-18 -22 4 -62 25 -45 18 15 18 33 0 48 -10 9 -16 8 -25
-3z"/>
<path d="M300 1355 c-16 -19 8 -59 27 -43 17 14 17 45 -1 51 -8 3 -20 0 -26
-8z"/>
<path d="M4639 1354 c-10 -12 -9 -18 4 -31 13 -13 19 -14 31 -3 21 17 20 27
-3 39 -14 8 -22 7 -32 -5z"/>
<path d="M2355 1335 c-48 -12 -46 -12 49 -7 115 6 113 10 46 -88 l-41 -60 -40
21 c-23 11 -43 18 -46 15 -7 -7 59 -46 79 -46 18 0 118 141 118 166 0 18 -93
18 -165 -1z"/>
<path d="M367 1243 c-11 -10 -8 -41 4 -49 6 -3 18 1 27 9 13 13 13 19 2 31
-14 17 -23 20 -33 9z"/>
<path d="M4572 1238 c-13 -13 2 -38 23 -38 21 0 36 25 23 38 -7 7 -17 12 -23
12 -6 0 -16 -5 -23 -12z"/>
<path d="M1945 1215 c-5 -2 -27 -6 -47 -10 -21 -3 -38 -10 -38 -15 0 -21 146
-5 154 16 4 10 -3 14 -27 13 -18 0 -36 -2 -42 -4z"/>
<path d="M2307 1150 c12 -5 26 -17 31 -27 14 -25 26 -10 12 16 -7 14 -20 21
-38 20 -25 0 -26 -1 -5 -9z"/>
<path d="M440 1130 c-13 -25 3 -52 26 -43 18 7 18 37 0 52 -12 10 -17 8 -26
-9z"/>
<path d="M4503 1130 c-10 -16 -10 -22 4 -36 16 -15 18 -15 29 1 10 13 10 21 1
36 -15 24 -19 24 -34 -1z"/>
<path d="M1935 1085 l-60 -13 70 -1 c44 0 79 5 95 14 l25 14 -35 -1 c-19 0
-62 -6 -95 -13z"/>
<path d="M521 1026 c-16 -19 -7 -46 14 -46 22 0 30 29 13 46 -13 13 -16 13
-27 0z"/>
<path d="M4427 1023 c-24 -23 12 -55 38 -33 12 10 13 16 4 26 -12 15 -31 18
-42 7z"/>
<path d="M1924 973 c33 -17 140 -29 180 -19 14 3 26 13 26 21 0 12 -20 15
-117 15 -114 -1 -117 -1 -89 -17z"/>
<path d="M594 909 c-3 -6 1 -18 10 -27 15 -15 17 -15 32 0 9 9 13 21 10 27 -9
14 -43 14 -52 0z"/>
<path d="M4341 906 c-9 -10 -8 -16 4 -26 19 -16 41 1 32 24 -8 20 -21 20 -36
2z"/>
<path d="M2155 870 c-11 -5 -49 -9 -85 -10 l-65 -2 45 -14 c25 -8 65 -13 90
-12 38 3 45 6 48 26 4 24 -2 26 -33 12z"/>
<path d="M4254 814 c-8 -33 6 -48 30 -31 16 12 17 16 5 35 -18 29 -27 28 -35
-4z"/>
<path d="M690 815 c-19 -22 5 -48 31 -34 10 5 19 14 19 19 0 5 -9 14 -19 19
-14 8 -22 7 -31 -4z"/>
<path d="M787 723 c-11 -10 -8 -41 5 -49 17 -11 40 26 27 43 -13 14 -22 16
-32 6z"/>
<path d="M4153 714 c-3 -8 1 -22 9 -30 13 -13 16 -13 27 0 7 9 11 23 7 31 -7
20 -35 19 -43 -1z"/>
<path d="M877 626 c-9 -23 18 -39 43 -26 17 9 19 14 9 26 -15 18 -45 18 -52 0z"/>
<path d="M4057 626 c-3 -8 0 -22 7 -31 11 -15 13 -15 25 -1 15 18 8 46 -13 46
-7 0 -16 -6 -19 -14z"/>
<path d="M3961 556 c-16 -19 -7 -46 14 -46 22 0 30 29 13 46 -13 13 -16 13
-27 0z"/>
<path d="M993 553 c-16 -6 -17 -29 -3 -38 13 -8 50 3 50 15 0 13 -32 28 -47
23z"/>
<path d="M3850 475 c-15 -18 -6 -45 14 -45 20 0 29 16 21 40 -8 24 -18 25 -35
5z"/>
<path d="M1092 468 c-8 -8 -9 -15 -1 -25 15 -17 34 -17 48 1 10 12 8 17 -8 25
-24 14 -24 14 -39 -1z"/>
<path d="M1204 395 c-12 -30 16 -45 46 -25 13 9 12 12 -4 25 -25 19 -35 19
-42 0z"/>
<path d="M3734 395 c-12 -29 15 -45 45 -26 12 8 12 12 2 25 -17 20 -40 21 -47
1z"/>
<path d="M1322 340 c-15 -24 -5 -52 17 -48 20 4 26 41 9 56 -11 8 -17 6 -26
-8z"/>
<path d="M3621 327 c-8 -10 -7 -19 4 -33 15 -19 15 -19 30 0 11 14 12 23 4 33
-6 7 -15 13 -19 13 -4 0 -13 -6 -19 -13z"/>
<path d="M1439 274 c-10 -12 -9 -18 4 -31 13 -13 19 -14 31 -3 21 17 20 27 -3
39 -14 8 -22 7 -32 -5z"/>
<path d="M3495 270 c-7 -11 11 -40 24 -40 3 0 15 7 26 16 17 13 18 16 5 24
-20 13 -47 12 -55 0z"/>
<path d="M1561 216 c-14 -17 9 -39 33 -30 20 8 21 30 0 38 -21 8 -20 8 -33 -8z"/>
<path d="M3377 216 c-9 -24 18 -39 44 -25 22 11 22 12 4 25 -24 18 -41 18 -48
0z"/>
<path d="M1692 188 c-15 -15 -15 -45 -1 -54 6 -3 18 0 26 9 14 13 14 18 1 36
-11 16 -17 18 -26 9z"/>
<path d="M3263 183 c-15 -5 -17 -39 -3 -48 11 -7 50 11 50 23 0 12 -34 29 -47
25z"/>
<path d="M1810 134 c-11 -12 -11 -18 2 -30 13 -13 19 -14 36 -3 20 12 20 15 5
31 -20 22 -27 22 -43 2z"/>
<path d="M3131 136 c-14 -17 -5 -59 12 -53 23 7 32 36 16 52 -14 14 -17 14
-28 1z"/>
<path d="M1941 97 c-8 -10 -7 -19 4 -33 15 -19 15 -19 30 0 11 14 12 23 4 33
-6 7 -15 13 -19 13 -4 0 -13 -6 -19 -13z"/>
<path d="M2993 94 c-3 -8 1 -22 9 -30 13 -13 16 -13 27 0 7 9 11 23 7 31 -7
20 -35 19 -43 -1z"/>
<path d="M2871 86 c-16 -19 -7 -46 14 -46 22 0 30 29 13 46 -13 13 -16 13 -27
0z"/>
<path d="M2071 77 c-8 -10 -7 -19 4 -33 15 -19 15 -19 30 0 11 14 12 23 4 33
-6 7 -15 13 -19 13 -4 0 -13 -6 -19 -13z"/>
<path d="M2207 63 c-11 -10 -8 -41 5 -49 14 -9 38 23 31 42 -5 15 -25 19 -36
7z"/>
<path d="M2737 63 c-24 -23 12 -55 38 -33 12 10 13 16 4 26 -12 15 -31 18 -42
7z"/>
<path d="M2334 45 c-12 -29 15 -45 45 -26 12 8 12 12 2 25 -17 20 -40 21 -47
1z"/>
<path d="M2471 50 c-16 -9 -5 -50 14 -50 12 0 25 21 25 40 0 12 -25 19 -39 10z"/>
<path d="M2602 48 c-13 -13 2 -38 23 -38 21 0 36 25 23 38 -15 15 -31 15 -46
0z"/>
</g>
</svg>
