<svg version="1.0" xmlns="http://www.w3.org/2000/svg" viewBox="0 0 500.000000 499.000000"
 preserveAspectRatio="xMidYMid meet">
<metadata>
Created by potrace 1.15, written by Peter Selinger 2001-2017
</metadata>
<g transform="translate(0.000000,499.000000) scale(0.100000,-0.100000)"
fill="#000000" stroke="none">
<path d="M2347 4973 c-12 -11 -7 -41 7 -46 8 -3 22 0 32 8 15 11 16 15 5 29
-14 17 -33 21 -44 9z"/>
<path d="M2480 4970 c-12 -7 -12 -13 -4 -27 16 -26 39 -22 39 6 0 27 -13 35
-35 21z"/>
<path d="M2617 4973 c-12 -11 -7 -41 7 -46 8 -3 22 3 31 13 16 17 15 19 -4 29
-23 13 -26 13 -34 4z"/>
<path d="M2214 4955 c-12 -29 15 -45 46 -25 13 8 12 11 -5 24 -25 19 -34 20
-41 1z"/>
<path d="M2749 4954 c-15 -18 0 -38 27 -32 25 5 28 25 6 37 -15 8 -23 7 -33
-5z"/>
<path d="M2080 4935 c-23 -28 21 -50 48 -23 9 9 7 14 -6 24 -22 17 -27 17 -42
-1z"/>
<path d="M2881 4936 c-19 -22 4 -62 25 -45 17 14 15 50 -2 56 -6 2 -16 -3 -23
-11z"/>
<path d="M3005 4909 c-7 -20 7 -38 27 -39 15 0 27 37 16 48 -18 18 -36 14 -43
-9z"/>
<path d="M1943 4904 c-3 -8 1 -22 9 -30 13 -13 16 -13 27 0 7 9 11 23 7 31 -7
20 -35 19 -43 -1z"/>
<path d="M1820 4885 c-11 -13 -11 -19 3 -33 20 -19 41 -5 35 24 -4 24 -22 28
-38 9z"/>
<path d="M3140 4875 c-11 -13 -11 -19 4 -33 15 -15 18 -15 26 -2 22 33 -6 64
-30 35z"/>
<path d="M1691 4836 c-18 -21 11 -41 39 -26 17 9 19 14 9 26 -15 18 -33 18
-48 0z"/>
<path d="M3266 4833 c-4 -9 -1 -20 6 -25 18 -11 24 -10 39 8 10 13 10 17 -2
25 -21 13 -36 11 -43 -8z"/>
<path d="M1571 4796 c-10 -12 -10 -20 0 -37 11 -22 12 -22 25 -4 17 24 17 30
0 44 -10 9 -16 8 -25 -3z"/>
<path d="M3390 4795 c-10 -12 -10 -18 0 -30 15 -18 20 -18 44 0 20 15 20 15 0
30 -24 18 -29 18 -44 0z"/>
<path d="M2243 4745 c-12 -8 -39 -43 -59 -78 -91 -150 -164 -256 -183 -262
-10 -3 -25 -12 -31 -20 -11 -13 -1 -15 69 -15 64 0 81 3 81 14 0 9 -12 16 -30
18 l-31 3 30 48 31 47 69 0 c75 0 81 -5 81 -72 0 -23 -4 -28 -25 -28 -16 0
-25 -6 -25 -15 0 -13 14 -15 82 -13 54 2 83 7 86 16 2 7 -6 12 -22 12 -13 0
-27 4 -30 8 -3 5 -13 82 -22 173 -19 181 -26 196 -71 164z m10 -132 c3 -43 4
-79 3 -81 -2 -2 -29 -2 -60 0 l-56 3 45 78 c25 42 49 77 54 77 4 0 11 -35 14
-77z"/>
<path d="M2758 4753 c-22 -5 -24 -33 -3 -33 20 0 19 -12 -19 -192 l-33 -158
28 0 c22 0 29 5 29 20 0 33 28 90 44 90 8 0 25 -21 38 -46 28 -56 56 -77 92
-68 30 7 35 34 6 34 -14 0 -28 17 -50 60 -16 33 -30 61 -30 63 0 2 21 19 48
37 77 55 81 70 17 70 -32 0 -45 -4 -45 -14 0 -8 8 -16 17 -18 12 -2 0 -16 -42
-46 -38 -26 -61 -37 -63 -30 -1 7 8 60 21 118 14 58 22 108 20 113 -4 7 -46 8
-75 0z"/>
<path d="M1441 4736 c-18 -21 11 -41 38 -26 25 13 27 26 5 34 -23 9 -30 8 -43
-8z"/>
<path d="M3514 4735 c-4 -9 -2 -21 3 -26 14 -14 45 1 41 20 -4 22 -37 26 -44
6z"/>
<path d="M1320 4673 c0 -10 5 -25 10 -33 9 -13 12 -12 25 5 19 24 15 39 -13
43 -16 2 -22 -2 -22 -15z"/>
<path d="M3633 4674 c-8 -21 16 -35 40 -23 14 8 16 13 6 25 -15 19 -38 18 -46
-2z"/>
<path d="M1211 4626 c-16 -19 -7 -46 14 -46 22 0 30 29 13 46 -13 13 -16 13
-27 0z"/>
<path d="M2493 4621 c-63 -39 -55 -88 22 -132 56 -31 75 -60 55 -83 -28 -35
-110 -25 -110 14 0 30 -27 24 -33 -7 -7 -38 1 -44 69 -50 51 -4 64 -2 94 19
25 17 36 32 38 53 4 39 -13 61 -73 93 -39 21 -50 33 -50 51 0 18 8 27 28 34
38 12 77 -5 77 -34 0 -18 2 -19 15 -9 20 16 19 56 -1 64 -32 12 -100 5 -131
-13z"/>
<path d="M3753 4619 c-15 -15 -5 -39 16 -39 29 0 43 21 23 36 -21 17 -25 17
-39 3z"/>
<path d="M1099 4544 c-9 -11 -9 -18 -1 -26 14 -14 42 -3 42 16 0 20 -27 27
-41 10z"/>
<path d="M3863 4549 c-16 -16 -5 -39 17 -39 25 0 35 18 20 35 -15 18 -22 19
-37 4z"/>
<path d="M991 4476 c-16 -19 -7 -46 14 -46 22 0 30 29 13 46 -13 13 -16 13
-27 0z"/>
<path d="M3970 4465 c-6 -8 -9 -19 -5 -25 9 -15 41 -12 54 4 10 12 8 17 -8 25
-25 14 -26 14 -41 -4z"/>
<path d="M880 4370 c0 -16 5 -21 23 -18 12 2 22 10 22 18 0 8 -10 16 -22 18
-18 3 -23 -2 -23 -18z"/>
<path d="M4077 4383 c-4 -3 -7 -12 -7 -20 0 -16 46 -18 56 -2 11 19 -33 39
-49 22z"/>
<path d="M793 4303 c-7 -3 -13 -13 -13 -23 0 -10 6 -20 13 -23 14 -5 47 10 47
21 0 12 -34 29 -47 25z"/>
<path d="M4166 4292 c-15 -18 -15 -19 8 -30 32 -14 56 9 36 33 -16 19 -23 19
-44 -3z"/>
<path d="M4270 4205 c-12 -15 -7 -45 7 -45 21 1 35 19 28 39 -8 25 -18 27 -35
6z"/>
<path d="M687 4197 c-3 -8 -1 -20 3 -27 7 -11 13 -12 37 -1 27 12 27 13 8 27
-24 18 -41 18 -48 1z"/>
<path d="M2532 4099 c-12 -18 -11 -24 1 -37 19 -18 47 -9 47 16 0 17 -17 42
-30 42 -3 0 -11 -10 -18 -21z"/>
<path d="M593 4094 c-3 -8 2 -23 11 -32 16 -16 18 -16 31 1 7 11 11 25 8 33
-7 19 -42 18 -50 -2z"/>
<path d="M3260 4094 c-11 -12 -11 -18 2 -30 12 -13 20 -14 37 -5 26 14 27 27
2 41 -25 13 -26 13 -41 -6z"/>
<path d="M4354 4099 c-3 -6 1 -18 10 -27 15 -15 17 -15 34 1 15 16 15 19 2 27
-20 13 -37 12 -46 -1z"/>
<path d="M1123 4093 c-20 -2 -33 -10 -33 -18 0 -8 6 -12 13 -10 6 3 18 1 26
-4 11 -7 9 -30 -14 -137 -33 -158 -38 -172 -66 -176 -12 -2 -24 -9 -27 -15 -3
-10 19 -13 87 -13 74 0 91 3 91 15 0 10 -10 15 -30 15 -32 0 -36 9 -21 56 5
16 12 41 15 55 5 25 10 26 83 33 83 6 116 23 142 68 19 34 7 92 -24 112 -24
16 -179 29 -242 19z m171 -33 c14 -5 28 -20 32 -35 16 -63 -27 -105 -107 -105
l-42 0 7 38 c3 20 11 54 16 75 9 32 15 37 40 37 16 0 40 -4 54 -10z"/>
<path d="M523 4003 c-18 -7 -16 -43 3 -50 18 -7 35 14 31 36 -2 16 -16 22 -34
14z"/>
<path d="M4440 3995 c-23 -28 21 -50 48 -23 9 9 7 14 -6 24 -22 17 -27 17 -42
-1z"/>
<path d="M1520 3974 c-73 -32 -110 -86 -110 -162 0 -64 21 -91 78 -99 47 -6
127 18 136 42 7 18 7 18 -39 -1 -55 -22 -97 -15 -113 19 -18 37 -11 43 80 74
40 13 79 31 86 40 30 41 -3 103 -55 103 -16 -1 -44 -8 -63 -16z m71 -26 c4
-45 -20 -74 -74 -89 -21 -6 -41 -8 -43 -6 -8 8 17 61 38 85 23 24 77 31 79 10z"/>
<path d="M1863 3975 c-12 -8 -31 -31 -43 -51 -27 -43 -34 -39 -21 15 l9 41
-43 0 c-26 0 -47 -6 -55 -15 -10 -13 -9 -15 9 -15 26 0 26 -15 1 -135 -13 -64
-15 -92 -7 -97 18 -11 47 11 47 37 0 33 33 102 71 148 32 38 59 48 59 21 0 -9
7 -14 18 -12 12 2 18 14 20 41 3 33 1 37 -20 37 -13 0 -33 -7 -45 -15z"/>
<path d="M2125 3972 c-16 -10 -36 -31 -44 -45 -21 -39 -29 -33 -21 13 l7 41
-45 -3 c-47 -3 -67 -22 -33 -31 19 -5 19 -6 -4 -113 -17 -78 -20 -111 -12
-116 16 -10 47 10 47 31 0 39 35 115 70 152 65 69 78 47 50 -84 -11 -50 -20
-92 -20 -94 0 -2 11 -3 25 -3 19 0 26 6 31 28 12 60 36 111 70 150 65 76 84
50 53 -73 -12 -47 -19 -91 -15 -100 7 -20 60 -20 80 1 22 22 20 25 -9 18 -29
-7 -30 -16 6 125 17 67 17 77 4 98 -26 39 -68 26 -123 -35 l-32 -37 6 31 c4
21 1 36 -11 47 -21 22 -43 21 -80 -1z"/>
<path d="M2689 3967 c-28 -19 -34 -29 -34 -57 0 -31 6 -39 55 -72 63 -42 73
-74 30 -95 -39 -18 -80 -6 -80 24 0 38 -34 26 -38 -14 -3 -30 -2 -32 42 -38
88 -14 147 13 162 70 8 32 -13 56 -78 92 -57 31 -66 67 -22 83 39 15 74 3 74
-26 0 -26 10 -30 28 -12 54 54 -67 94 -139 45z"/>
<path d="M2962 3974 c-18 -9 -35 -27 -38 -40 -11 -44 3 -68 58 -100 61 -34 73
-64 35 -88 -24 -17 -86 -13 -88 5 -1 5 -2 15 -3 22 -3 27 -31 11 -34 -20 -3
-30 -1 -32 33 -39 80 -15 146 11 166 65 13 33 -10 65 -70 95 -51 26 -68 50
-51 71 28 34 100 23 100 -14 0 -14 5 -18 20 -14 24 6 26 35 5 53 -25 20 -96
23 -133 4z"/>
<path d="M3445 3976 c-80 -35 -124 -138 -90 -209 53 -112 237 -49 252 85 12
106 -67 166 -162 124z m83 -22 c27 -19 30 -78 6 -147 -24 -72 -69 -95 -114
-59 -29 23 -29 70 -1 143 28 72 65 94 109 63z"/>
<path d="M3830 3966 c-20 -13 -42 -35 -49 -50 -21 -38 -30 -32 -20 12 5 20 9
41 9 45 0 13 -93 3 -98 -10 -2 -8 5 -13 17 -13 26 0 26 4 1 -115 -25 -120 -25
-115 4 -115 20 0 25 7 31 37 10 54 49 127 85 157 60 50 69 29 40 -88 -18 -69
-20 -89 -10 -101 15 -18 61 -20 78 -3 18 18 14 31 -8 25 -25 -7 -25 6 0 103
24 91 24 104 4 124 -21 22 -44 20 -84 -8z"/>
<path d="M2464 3965 c-18 -14 -18 -14 9 -15 15 0 27 -3 27 -6 0 -3 -11 -51
-25 -106 -20 -77 -23 -103 -14 -114 17 -21 63 -17 85 7 19 22 19 22 -8 17 -34
-6 -34 -7 -3 112 14 52 25 101 25 108 0 17 -72 16 -96 -3z"/>
<path d="M3190 3965 c-10 -13 -9 -15 9 -15 26 0 26 0 0 -115 -12 -51 -19 -100
-16 -109 7 -18 49 -21 78 -6 29 16 24 33 -7 26 -22 -6 -25 -4 -20 9 3 8 15 55
26 103 12 48 23 95 26 105 5 14 -1 17 -39 17 -27 0 -49 -6 -57 -15z"/>
<path d="M434 3885 c-8 -20 4 -35 26 -35 25 0 35 17 20 35 -16 19 -39 19 -46
0z"/>
<path d="M4516 3891 c-8 -13 4 -41 18 -41 6 0 17 4 25 9 12 8 12 12 2 25 -15
18 -37 21 -45 7z"/>
<path d="M4589 3779 c-9 -17 -8 -23 2 -30 28 -17 44 -2 34 31 -8 26 -21 25
-36 -1z"/>
<path d="M366 3774 c-11 -30 13 -44 43 -25 12 8 12 12 2 25 -17 20 -37 20 -45
0z"/>
<path d="M297 3656 c-9 -23 18 -39 43 -26 17 9 19 14 9 26 -15 18 -45 18 -52
0z"/>
<path d="M4654 3655 c-4 -9 -2 -21 4 -27 15 -15 44 -1 40 19 -4 23 -36 29 -44
8z"/>
<path d="M235 3540 c-7 -12 12 -50 25 -50 13 0 32 38 25 50 -3 6 -15 10 -25
10 -10 0 -22 -4 -25 -10z"/>
<path d="M4715 3540 c-8 -12 3 -50 14 -50 15 0 33 30 27 45 -6 17 -32 20 -41
5z"/>
<path d="M187 3417 c-9 -23 8 -40 32 -32 25 8 28 30 5 39 -23 9 -31 7 -37 -7z"/>
<path d="M3179 3420 c-152 -25 -243 -119 -260 -265 -10 -93 -41 -154 -113
-225 -58 -56 -67 -78 -40 -100 27 -23 64 -95 67 -131 l3 -34 93 4 93 3 -12
-23 c-18 -34 -61 -79 -77 -79 -28 0 -11 -44 43 -111 38 -46 63 -69 78 -69 40
0 89 19 153 61 42 28 67 39 74 32 16 -16 22 -77 14 -138 -6 -53 -12 -63 -75
-131 -107 -115 -146 -220 -138 -365 l4 -67 -51 -11 c-130 -30 -246 -160 -263
-298 l-7 -56 -109 -55 -109 -54 -82 42 c-53 27 -101 44 -133 48 -61 5 -245
-12 -399 -38 -82 -14 -119 -17 -123 -9 -4 6 -10 72 -13 147 -3 75 -18 224 -32
331 -14 106 -24 195 -21 198 8 8 96 -57 96 -71 0 -8 -7 -30 -15 -49 -19 -45
-19 -127 -2 -170 8 -18 27 -48 43 -66 24 -29 29 -44 29 -90 0 -51 2 -56 26
-65 59 -20 172 85 143 132 -7 11 -29 19 -60 22 -27 3 -56 10 -65 15 -51 33
-63 111 -28 190 32 73 23 116 -60 291 -42 90 -69 158 -65 167 3 9 31 29 61 43
50 25 60 26 142 21 63 -5 92 -3 103 6 57 45 158 262 158 340 0 17 11 49 25 73
23 39 25 74 5 74 -5 0 -36 25 -69 56 -47 43 -70 76 -101 140 -45 95 -93 153
-159 192 -40 23 -57 27 -126 27 -64 0 -90 -5 -127 -23 -109 -55 -182 -151
-208 -277 -18 -83 -19 -252 -2 -292 20 -45 109 -83 199 -83 23 0 45 -4 48 -10
13 -21 -97 -170 -126 -170 -6 0 -10 12 -9 28 3 45 1 52 -20 52 -22 0 -54 -42
-47 -62 8 -24 -13 -47 -74 -79 -144 -77 -219 -229 -235 -476 -7 -121 5 -245
37 -363 25 -92 103 -243 144 -278 68 -57 277 -132 369 -132 49 0 129 18 294
66 l124 36 60 -17 c66 -18 194 -21 247 -6 25 8 42 7 68 -4 59 -25 131 -18 253
22 l111 36 82 -14 c103 -18 253 -16 379 5 54 9 122 16 151 16 80 0 112 26 154
124 116 274 129 533 36 720 -15 31 -57 82 -107 131 -112 108 -149 183 -162
331 -6 66 -4 74 21 114 16 25 42 80 58 125 27 71 31 92 31 195 1 109 -1 118
-30 180 -43 90 -102 153 -177 189 -70 33 -122 42 -188 31z m-9 -262 c25 -13
55 -39 68 -58 24 -36 25 -61 6 -167 -6 -32 -5 -33 25 -33 81 0 121 -49 121
-150 0 -40 6 -86 15 -107 8 -19 15 -48 15 -63 0 -33 28 -114 69 -200 l31 -65
-87 -5 c-49 -3 -94 -9 -102 -14 -12 -7 -13 3 -7 62 8 81 -5 147 -33 161 -14 8
-35 -2 -99 -45 -45 -30 -93 -54 -107 -54 -28 0 -93 53 -114 94 -13 23 -11 28
21 68 79 97 73 110 -49 118 l-88 5 -3 30 c-4 52 -11 71 -32 95 -11 13 -20 26
-20 30 0 3 19 31 41 61 23 30 59 92 81 137 35 74 45 86 81 103 56 25 113 24
167 -3z m-1062 -130 c28 -50 111 -140 146 -160 14 -8 13 -13 -10 -44 -20 -26
-27 -48 -29 -90 -2 -30 -6 -58 -10 -62 -4 -4 -34 -9 -68 -12 -58 -5 -60 -6
-43 -22 10 -10 32 -18 52 -18 20 0 37 -6 40 -14 3 -8 -14 -43 -38 -78 -24 -36
-48 -73 -54 -83 -9 -17 -16 -17 -85 -7 -79 13 -106 9 -175 -26 -44 -22 -94
-74 -119 -122 -9 -17 -18 -30 -20 -30 -3 0 -21 34 -40 76 l-36 76 50 54 c27
30 60 73 73 96 19 36 68 75 112 91 5 1 -5 18 -22 36 -36 40 -46 80 -32 132 13
47 45 79 78 79 16 0 22 4 19 14 -14 36 -18 105 -7 125 16 30 44 40 122 40 l66
1 30 -52z m-527 -575 c17 -55 59 -144 123 -262 31 -58 54 -106 53 -108 -8 -8
-41 40 -107 158 -69 121 -108 219 -95 239 10 16 13 13 26 -27z m234 -252 c76
-136 91 -229 54 -340 -20 -59 -20 -64 -5 -104 9 -23 31 -60 50 -82 31 -36 37
-39 80 -37 l46 2 -15 -29 c-16 -33 -65 -71 -89 -71 -19 0 -21 32 -4 59 10 17
7 25 -25 60 -71 79 -83 127 -53 216 21 62 14 96 -30 134 -19 17 -34 32 -34 34
0 2 14 2 30 -1 23 -3 30 0 30 12 0 14 -67 182 -88 221 -3 7 -1 7 6 0 6 -5 27
-39 47 -74z m-35 -32 c17 -38 30 -72 27 -75 -6 -6 -62 90 -72 124 -14 49 14
18 45 -49z m1733 -9 c64 -76 102 -262 93 -450 -7 -141 -46 -364 -67 -385 -41
-40 -465 -64 -546 -30 -49 21 -60 20 -181 -19 -148 -48 -152 -49 -152 -38 0 5
20 15 45 22 46 13 61 30 26 30 -10 0 -47 -9 -81 -20 -115 -37 -124 -18 -10 21
77 26 93 45 29 35 -61 -10 -40 8 51 43 171 67 400 109 523 96 38 -3 74 -8 81
-11 6 -2 17 0 25 5 11 7 10 30 -9 145 -18 108 -21 164 -18 274 3 132 5 141 36
205 53 107 107 134 155 77z m-1803 -199 c0 -13 -57 -19 -212 -25 -72 -2 -128
0 -128 5 0 5 21 10 48 10 49 2 257 14 280 17 6 1 12 -2 12 -7z m24 -233 c21
-196 25 -250 27 -316 3 -106 7 -109 110 -83 99 24 253 40 399 42 92 1 112 -2
161 -24 52 -23 83 -47 60 -47 -5 0 -29 8 -53 19 -24 10 -58 22 -76 26 -60 13
-32 -10 53 -44 47 -19 85 -38 85 -43 0 -15 -58 -8 -110 12 -53 21 -95 26 -86
11 3 -4 26 -14 51 -21 25 -7 48 -17 52 -23 8 -13 -82 -2 -155 20 -60 17 -65
16 -177 -25 -97 -36 -284 -75 -318 -67 -68 17 -252 286 -332 484 -19 49 -35
93 -35 98 0 8 198 34 316 42 19 1 22 -6 28 -61z"/>
<path d="M2973 3073 c-25 -10 -12 -22 30 -28 24 -4 55 -5 68 -3 22 4 21 6 -13
21 -37 17 -62 20 -85 10z"/>
<path d="M2927 2992 c-23 -25 -21 -75 3 -97 18 -16 20 -16 53 4 62 38 66 49
27 82 -41 33 -61 36 -83 11z m58 -12 c3 -5 -1 -10 -9 -10 -8 0 -20 -8 -25 -17
-9 -16 -10 -16 -11 4 0 27 32 44 45 23z"/>
<path d="M2006 3018 c-26 -36 -19 -41 24 -17 46 26 51 39 16 39 -14 0 -32 -10
-40 -22z"/>
<path d="M2045 2974 c-31 -16 -55 -41 -55 -56 0 -5 9 -4 21 2 17 10 23 7 40
-14 35 -45 79 -28 79 29 0 54 -30 67 -85 39z m38 -63 c-9 -12 -25 20 -18 36 7
16 9 15 15 -7 4 -14 5 -27 3 -29z"/>
<path d="M4764 3415 c-12 -29 15 -45 45 -26 12 8 12 12 2 25 -17 20 -40 21
-47 1z"/>
<path d="M2280 3379 c-62 -25 -91 -89 -55 -119 19 -16 29 -7 45 43 14 45 50
59 80 32 29 -26 25 -52 -15 -86 -28 -25 -35 -38 -34 -68 l1 -36 14 32 c9 21
28 39 51 50 29 14 39 25 41 47 10 89 -48 137 -128 105z"/>
<path d="M147 3303 c-12 -11 -8 -41 6 -46 7 -3 21 1 32 9 18 14 18 14 -1 29
-22 16 -28 18 -37 8z"/>
<path d="M4821 3296 c-16 -19 -8 -46 13 -46 20 0 29 31 13 47 -12 12 -16 12
-26 -1z"/>
<path d="M103 3171 c-9 -14 -9 -21 0 -30 26 -26 55 -4 37 29 -13 25 -22 25
-37 1z"/>
<path d="M4857 3173 c-11 -11 -8 -40 6 -51 19 -16 43 24 26 44 -13 15 -22 18
-32 7z"/>
<path d="M2305 3094 c-17 -17 -17 -18 4 -28 30 -13 52 8 30 30 -15 14 -18 14
-34 -2z"/>
<path d="M75 3040 c-7 -23 1 -40 20 -40 18 0 24 21 13 43 -12 23 -25 22 -33
-3z"/>
<path d="M4890 3034 c-11 -12 -11 -18 1 -29 12 -12 17 -12 33 0 16 12 17 17 6
30 -16 19 -24 19 -40 -1z"/>
<path d="M51 2916 c-16 -19 -7 -46 14 -46 22 0 30 29 13 46 -13 13 -16 13 -27
0z"/>
<path d="M4910 2904 c-11 -12 -10 -18 3 -31 15 -15 18 -15 37 2 19 17 19 19 2
31 -22 17 -27 17 -42 -2z"/>
<path d="M31 2776 c-18 -22 4 -62 25 -45 18 15 18 33 0 48 -10 9 -16 8 -25 -3z"/>
<path d="M4925 2770 c-3 -5 -1 -19 6 -31 10 -19 12 -20 26 -6 9 9 13 23 10 31
-7 18 -32 21 -42 6z"/>
<path d="M20 2645 c-9 -11 -11 -22 -4 -32 13 -21 25 -21 38 -1 8 14 7 21 -5
33 -14 15 -17 15 -29 0z"/>
<path d="M4940 2644 c-11 -12 -10 -18 3 -31 22 -23 52 0 36 28 -12 23 -22 24
-39 3z"/>
<path d="M18 2513 c-25 -6 -22 -30 3 -38 25 -8 44 7 36 29 -7 16 -9 17 -39 9z"/>
<path d="M4941 2507 c-16 -20 20 -52 37 -35 17 17 15 35 -4 42 -21 8 -20 8
-33 -7z"/>
<path d="M21 2376 c-18 -22 4 -62 25 -45 18 15 18 33 0 48 -10 9 -16 8 -25 -3z"/>
<path d="M4934 2369 c-3 -6 0 -18 9 -26 12 -12 18 -13 35 -2 16 10 18 16 10
26 -13 16 -44 17 -54 2z"/>
<path d="M24 2239 c-3 -6 1 -18 10 -27 15 -15 17 -15 34 1 15 16 15 19 2 27
-20 13 -37 12 -46 -1z"/>
<path d="M4932 2237 c-9 -10 -8 -18 3 -33 13 -16 16 -17 25 -4 21 31 -5 65
-28 37z"/>
<path d="M49 2104 c-10 -13 -10 -17 2 -25 8 -5 16 -9 19 -9 3 0 11 4 19 9 12
8 12 12 2 25 -8 9 -17 16 -21 16 -4 0 -13 -7 -21 -16z"/>
<path d="M4913 2109 c-6 -6 -9 -18 -6 -25 7 -18 37 -18 52 0 10 12 8 17 -8 25
-24 14 -24 14 -38 0z"/>
<path d="M67 1979 c-14 -8 -16 -14 -6 -25 14 -17 31 -18 47 -2 8 8 9 15 1 25
-14 15 -18 16 -42 2z"/>
<path d="M4880 1975 c-15 -18 -5 -35 21 -35 24 0 37 29 18 41 -19 12 -25 11
-39 -6z"/>
<path d="M102 1848 c-13 -13 2 -38 23 -38 21 0 36 25 23 38 -7 7 -17 12 -23
12 -6 0 -16 -5 -23 -12z"/>
<path d="M4857 1853 c-4 -3 -7 -15 -7 -25 0 -21 32 -25 49 -5 17 22 -22 50
-42 30z"/>
<path d="M141 1721 c-16 -28 14 -51 36 -28 13 13 14 19 3 31 -17 21 -27 20
-39 -3z"/>
<path d="M4814 1715 c-13 -32 23 -48 47 -19 10 13 10 17 -2 25 -21 13 -39 11
-45 -6z"/>
<path d="M190 1595 c-15 -18 -5 -35 20 -35 10 0 22 5 25 10 7 11 -12 40 -25
40 -4 0 -13 -7 -20 -15z"/>
<path d="M4770 1595 c-15 -18 -5 -35 20 -35 10 0 22 5 25 10 7 11 -12 40 -25
40 -4 0 -13 -7 -20 -15z"/>
<path d="M235 1470 c-7 -12 12 -50 25 -50 13 0 32 38 25 50 -3 6 -15 10 -25
10 -10 0 -22 -4 -25 -10z"/>
<path d="M4714 1465 c-10 -24 12 -42 34 -29 24 16 21 38 -6 42 -13 2 -25 -3
-28 -13z"/>
<path d="M300 1355 c-10 -12 -10 -18 0 -30 15 -18 20 -18 44 0 20 15 20 15 0
30 -24 18 -29 18 -44 0z"/>
<path d="M4659 1354 c-10 -12 -9 -18 4 -31 13 -13 19 -14 31 -3 21 17 20 27
-3 39 -14 8 -22 7 -32 -5z"/>
<path d="M371 1246 c-16 -19 -7 -46 14 -46 22 0 30 29 13 46 -13 13 -16 13
-27 0z"/>
<path d="M4593 1239 c-15 -15 -5 -39 16 -39 29 0 43 21 23 36 -21 17 -25 17
-39 3z"/>
<path d="M439 1124 c-10 -12 -9 -18 4 -31 13 -13 19 -14 31 -3 21 17 20 27 -3
39 -14 8 -22 7 -32 -5z"/>
<path d="M4516 1123 c-4 -9 0 -23 9 -32 13 -14 17 -14 32 1 13 14 14 20 3 32
-16 21 -36 20 -44 -1z"/>
<path d="M1416 1091 c-3 -5 3 -11 13 -14 18 -4 18 -9 -9 -102 -15 -54 -34
-103 -43 -110 -25 -18 -21 -25 16 -25 41 0 67 15 39 22 -19 5 -19 7 2 86 11
45 23 78 27 74 3 -4 12 -41 18 -82 7 -41 16 -79 21 -84 15 -15 40 13 81 96 22
43 41 78 44 78 2 0 1 -33 -2 -72 -4 -54 -10 -77 -24 -90 -10 -9 -19 -19 -19
-22 0 -3 25 -6 55 -6 30 0 55 5 55 10 0 6 -9 10 -21 10 -17 0 -20 5 -15 28 3
15 8 60 12 100 5 56 11 76 25 85 26 16 24 27 -7 27 -45 0 -63 -19 -109 -110
-25 -50 -47 -90 -49 -90 -2 0 -9 45 -16 100 l-12 100 -39 0 c-21 0 -40 -4 -43
-9z"/>
<path d="M2123 1080 c-72 -32 -109 -122 -80 -193 9 -19 24 -40 35 -46 29 -16
115 -14 138 3 24 18 13 31 -14 17 -38 -20 -90 -14 -108 14 -24 37 -15 114 19
158 41 54 111 60 123 11 8 -32 20 -30 27 4 11 53 -59 69 -140 32z"/>
<path d="M3584 1089 c-8 -14 11 -33 25 -25 11 7 4 36 -9 36 -5 0 -12 -5 -16
-11z"/>
<path d="M3340 1035 c-27 -27 -32 -38 -21 -44 10 -7 11 -19 1 -65 -14 -68 -7
-98 23 -94 11 2 22 9 25 16 2 8 -2 10 -14 5 -14 -5 -16 -2 -11 18 3 13 9 43
13 67 5 32 13 46 33 57 18 10 21 14 9 15 -11 0 -18 10 -20 31 l-3 30 -35 -36z"/>
<path d="M521 1021 c-19 -12 -6 -41 18 -41 26 0 36 17 21 35 -14 17 -20 18
-39 6z"/>
<path d="M2350 1023 c-30 -11 -70 -57 -76 -89 -19 -102 100 -140 156 -49 34
55 26 106 -21 130 -30 16 -35 17 -59 8z m55 -36 c11 -18 12 -31 5 -56 -22 -77
-69 -106 -91 -57 -22 48 14 136 56 136 8 0 21 -10 30 -23z"/>
<path d="M2953 1015 c-60 -26 -92 -115 -59 -160 19 -26 89 -27 113 -1 17 17
17 18 -7 11 -14 -4 -30 -10 -36 -12 -5 -2 -18 5 -29 16 -24 27 -8 47 53 64 55
17 72 47 42 77 -23 23 -34 24 -77 5z m47 -34 c0 -23 -16 -37 -53 -46 -33 -9
-34 3 -6 39 24 31 59 35 59 7z"/>
<path d="M3166 995 l-33 -35 5 28 c4 27 2 29 -27 24 -35 -5 -53 -22 -23 -22
19 0 19 -3 6 -62 -17 -79 -17 -88 -1 -88 7 0 28 33 47 73 22 46 42 73 54 75
16 3 18 0 12 -25 -3 -15 -9 -49 -12 -75 l-7 -48 32 0 c17 0 31 5 31 10 0 6 -7
10 -15 10 -18 0 -19 -3 2 77 15 63 15 67 -2 79 -27 20 -34 18 -69 -21z"/>
<path d="M4440 1015 c-15 -18 -5 -35 21 -35 24 0 37 29 18 41 -19 12 -25 11
-39 -6z"/>
<path d="M1751 1011 c-12 -7 -12 -13 -3 -24 7 -7 19 -46 28 -84 15 -66 15 -73
-1 -97 -19 -29 -45 -35 -45 -10 0 8 -4 12 -10 9 -5 -3 -10 -15 -10 -26 0 -32
45 -24 73 14 36 49 127 203 127 216 0 7 -10 9 -27 5 -36 -9 -39 -12 -19 -20
14 -5 13 -12 -12 -55 -27 -49 -42 -61 -42 -34 0 7 -5 37 -11 65 -11 50 -21 58
-48 41z"/>
<path d="M2518 1013 c-16 -2 -28 -9 -28 -14 0 -6 4 -8 9 -4 24 14 23 -15 -4
-132 -4 -16 -1 -23 9 -23 7 0 30 34 49 75 49 103 87 100 57 -5 -13 -46 -4 -70
26 -70 13 0 24 5 24 10 0 6 -6 10 -14 10 -12 0 -12 8 1 57 8 31 12 67 9 80 -9
35 -48 30 -82 -9 l-27 -33 6 33 c4 17 3 31 -1 31 -4 -1 -19 -4 -34 -6z"/>
<path d="M2736 1004 c-29 -28 -19 -48 48 -102 24 -19 19 -39 -10 -46 -17 -5
-32 -2 -43 9 -23 20 -31 19 -31 -5 0 -18 7 -20 55 -20 47 0 57 3 71 25 15 23
15 27 0 50 -9 13 -30 32 -47 40 -37 20 -36 49 3 53 18 2 31 -4 41 -18 13 -18
15 -19 21 -5 3 9 4 21 0 26 -9 15 -91 10 -108 -7z"/>
<path d="M3560 1010 c-29 -5 -32 -7 -18 -16 15 -8 16 -15 8 -44 -13 -45 -13
-107 0 -115 6 -3 20 -3 32 1 20 6 21 7 4 19 -16 12 -16 17 -1 75 21 79 18 86
-25 80z"/>
<path d="M3675 996 c-20 -30 -12 -50 31 -75 52 -31 43 -71 -16 -71 -11 0 -23
7 -28 16 -7 12 -11 13 -17 4 -13 -20 10 -31 61 -28 41 3 51 7 64 31 15 28 15
29 -33 70 -38 34 -45 45 -35 55 17 17 55 15 66 -4 6 -11 11 -13 16 -5 13 20
-4 31 -49 31 -36 0 -48 -5 -60 -24z"/>
<path d="M594 909 c-3 -6 0 -18 9 -26 12 -12 18 -13 35 -2 16 10 18 16 10 26
-13 16 -44 17 -54 2z"/>
<path d="M4353 904 c-9 -24 11 -38 36 -25 25 14 27 27 5 35 -25 9 -34 7 -41
-10z"/>
<path d="M4266 817 c-22 -16 -14 -37 14 -37 26 0 35 19 18 36 -12 12 -17 12
-32 1z"/>
<path d="M687 806 c-9 -23 12 -36 39 -24 28 13 30 23 8 32 -25 10 -41 7 -47
-8z"/>
<path d="M783 714 c-3 -8 1 -22 9 -30 13 -13 16 -13 28 0 10 13 10 19 0 31
-16 19 -29 19 -37 -1z"/>
<path d="M4175 720 c-8 -12 3 -50 14 -50 16 0 31 28 25 44 -7 18 -29 21 -39 6z"/>
<path d="M1750 650 c0 -5 7 -10 15 -10 8 0 15 -2 15 -4 0 -9 -40 -200 -43
-201 -1 -1 -11 -7 -22 -13 -17 -9 -10 -11 38 -12 31 0 57 4 57 10 0 6 -7 10
-15 10 -8 0 -15 2 -15 4 0 9 40 200 43 201 1 1 11 7 22 13 17 9 10 11 -37 12
-32 0 -58 -4 -58 -10z"/>
<path d="M4081 642 c-11 -21 -6 -52 9 -52 4 0 13 7 20 15 9 11 9 19 -3 36 -15
21 -15 21 -26 1z"/>
<path d="M887 633 c-24 -23 12 -55 38 -33 12 10 13 16 4 26 -12 15 -31 18 -42
7z"/>
<path d="M3416 615 c-3 -13 -16 -30 -27 -36 -15 -7 -18 -14 -10 -18 9 -6 8
-23 -2 -72 -7 -35 -12 -70 -9 -77 4 -14 48 -16 57 -2 3 6 -1 10 -10 10 -12 0
-14 8 -9 43 13 76 19 92 42 95 27 4 29 22 2 22 -16 0 -19 5 -13 30 7 36 -12
41 -21 5z"/>
<path d="M2831 596 c-22 -23 -28 -35 -20 -38 11 -4 11 -16 0 -71 -7 -36 -10
-71 -6 -76 8 -14 52 -14 60 -1 3 6 -1 10 -11 10 -14 0 -16 7 -10 52 9 64 21
88 46 88 11 0 20 5 20 10 0 6 -10 10 -21 10 -17 0 -20 5 -17 25 7 33 -2 32
-41 -9z"/>
<path d="M1961 563 c-20 -27 -20 -27 -21 -5 0 16 -6 22 -24 22 -21 0 -24 -4
-23 -37 1 -21 -2 -59 -7 -85 -12 -72 13 -63 48 17 30 68 51 94 66 79 8 -8 5
-31 -15 -121 -4 -16 -1 -23 9 -23 7 0 30 34 49 75 24 49 42 75 53 75 13 0 15
-6 10 -27 -3 -16 -9 -52 -13 -81 l-6 -53 29 7 c35 8 43 14 21 14 -21 0 -21 5
-1 86 14 56 15 67 3 75 -17 10 -48 2 -72 -19 -16 -14 -19 -14 -27 -2 -6 8 -10
18 -10 23 0 19 -50 5 -69 -20z"/>
<path d="M2290 570 c-24 -24 -31 -25 -24 -5 5 11 -1 15 -24 15 -17 0 -34 -4
-37 -10 -3 -5 1 -10 9 -10 9 0 16 -1 16 -3 0 -22 -44 -195 -52 -204 -8 -10 -1
-13 33 -13 33 0 40 3 31 12 -23 23 -14 48 16 48 37 0 88 33 107 69 41 81 -17
159 -75 101z m47 -62 c-10 -74 -63 -114 -96 -74 -13 15 12 68 52 113 29 33 51
12 44 -39z"/>
<path d="M2444 556 c-28 -28 -34 -42 -34 -75 0 -101 125 -112 166 -15 20 48
17 71 -11 99 -36 37 -79 33 -121 -9z m99 -7 c25 -35 -13 -129 -52 -129 -30 0
-44 26 -38 71 9 70 59 102 90 58z"/>
<path d="M2705 558 l-27 -33 6 28 c6 25 4 27 -23 27 -16 0 -33 -4 -36 -10 -3
-5 1 -10 10 -10 17 0 15 -28 -6 -109 -4 -19 -6 -38 -3 -42 8 -14 34 3 34 22 0
20 29 81 53 112 15 19 37 23 37 7 0 -5 5 -10 10 -10 6 0 10 11 10 25 0 36 -32
32 -65 -7z"/>
<path d="M2972 574 c-30 -21 -52 -66 -52 -107 0 -52 48 -85 78 -55 9 9 17 9
36 -1 17 -10 29 -10 42 -2 19 10 19 10 0 11 -14 0 -17 5 -12 23 25 100 28 130
15 138 -22 14 -83 10 -107 -7z m78 -24 c0 -37 -49 -120 -70 -120 -28 0 -35 40
-15 81 26 50 35 59 61 59 17 0 24 -6 24 -20z"/>
<path d="M3226 558 l-27 -33 7 28 c6 25 4 27 -25 27 -30 0 -43 -14 -20 -22 8
-3 7 -24 -4 -76 -13 -66 -13 -72 2 -72 10 0 23 18 35 48 22 54 53 102 67 102
12 0 11 -42 -2 -96 -14 -56 -4 -71 38 -56 19 7 22 11 9 11 -16 1 -18 6 -11 44
5 23 9 60 9 82 1 36 -2 40 -25 43 -20 2 -33 -5 -53 -30z"/>
<path d="M3970 550 c-12 -23 -6 -40 15 -40 19 0 27 17 20 40 -8 26 -21 25 -35
0z"/>
<path d="M990 545 c-15 -18 -5 -35 20 -35 10 0 22 5 25 10 7 11 -12 40 -25 40
-4 0 -13 -7 -20 -15z"/>
<path d="M1097 473 c-11 -10 -8 -41 4 -49 16 -9 43 21 36 40 -7 16 -28 21 -40
9z"/>
<path d="M3861 466 c-14 -17 11 -41 34 -32 20 7 19 32 -1 40 -21 8 -20 8 -33
-8z"/>
<path d="M3750 400 c-12 -23 -6 -40 15 -40 19 0 27 17 20 40 -8 26 -21 25 -35
0z"/>
<path d="M1206 394 c-8 -21 1 -34 23 -34 29 0 43 21 23 36 -23 18 -39 17 -46
-2z"/>
<path d="M1327 333 c-24 -23 12 -55 38 -33 12 10 13 16 4 26 -12 15 -31 18
-42 7z"/>
<path d="M3634 325 c-13 -32 23 -48 47 -19 10 13 10 17 -2 25 -21 13 -39 11
-45 -6z"/>
<path d="M1442 268 c-13 -13 2 -38 23 -38 21 0 36 25 23 38 -7 7 -17 12 -23
12 -6 0 -16 -5 -23 -12z"/>
<path d="M3515 270 c-8 -12 3 -50 14 -50 15 0 33 30 27 45 -6 17 -32 20 -41 5z"/>
<path d="M1571 227 c-14 -17 -4 -47 15 -47 22 0 29 29 12 46 -13 13 -16 13
-27 1z"/>
<path d="M3391 216 c-14 -17 9 -39 33 -30 20 8 21 30 0 38 -21 8 -20 8 -33 -8z"/>
<path d="M1691 178 c-11 -17 -10 -23 2 -35 18 -18 37 -9 37 16 0 31 -24 43
-39 19z"/>
<path d="M3273 183 c-18 -6 -16 -42 2 -49 16 -6 45 12 45 27 0 12 -33 27 -47
22z"/>
<path d="M1820 134 c-11 -12 -10 -18 3 -32 16 -15 18 -15 34 0 13 14 14 20 3
32 -16 20 -24 20 -40 0z"/>
<path d="M3141 136 c-18 -22 4 -62 25 -45 18 15 18 33 0 48 -10 9 -16 8 -25
-3z"/>
<path d="M1943 94 c-3 -8 1 -22 9 -30 13 -13 16 -13 27 0 7 9 11 23 7 31 -7
20 -35 19 -43 -1z"/>
<path d="M3001 97 c-9 -11 -8 -17 4 -27 19 -16 47 -5 43 17 -4 23 -31 28 -47
10z"/>
<path d="M2080 80 c-12 -23 -6 -40 15 -40 19 0 27 17 20 40 -8 26 -21 25 -35
0z"/>
<path d="M2881 86 c-16 -19 -7 -46 14 -46 22 0 30 29 13 46 -13 13 -16 13 -27
0z"/>
<path d="M2217 63 c-11 -10 -8 -41 5 -49 17 -11 40 26 27 43 -13 14 -22 16
-32 6z"/>
<path d="M2345 50 c-8 -24 1 -40 21 -40 20 0 29 27 14 45 -17 20 -27 19 -35
-5z"/>
<path d="M2747 63 c-24 -23 12 -55 38 -33 12 10 13 16 4 26 -12 15 -31 18 -42
7z"/>
<path d="M2481 50 c-16 -9 -5 -50 14 -50 12 0 25 21 25 40 0 12 -25 19 -39 10z"/>
<path d="M2612 48 c-13 -13 2 -38 23 -38 21 0 36 25 23 38 -15 15 -31 15 -46
0z"/>
</g>
</svg>
