<?xml version="1.0" standalone="no"?>
<!DOCTYPE svg PUBLIC "-//W3C//DTD SVG 20010904//EN"
 "http://www.w3.org/TR/2001/REC-SVG-20010904/DTD/svg10.dtd">
<svg version="1.0" xmlns="http://www.w3.org/2000/svg"
 width="497.000000pt" height="500.000000pt" viewBox="0 0 497.000000 500.000000"
 preserveAspectRatio="xMidYMid meet">
<metadata>
Created by potrace 1.15, written by Peter Selinger 2001-2017
</metadata>
<g transform="translate(0.000000,500.000000) scale(0.100000,-0.100000)"
fill="#000000" stroke="none">
<path d="M2465 4970 c-7 -23 1 -40 20 -40 8 0 17 5 20 10 9 15 -4 50 -20 50
-8 0 -16 -9 -20 -20z"/>
<path d="M2337 4973 c-11 -10 -8 -41 4 -49 6 -3 18 1 27 9 13 13 13 19 2 31
-14 17 -23 20 -33 9z"/>
<path d="M2600 4965 c-11 -13 -11 -19 3 -33 20 -19 41 -5 35 24 -4 24 -22 28
-38 9z"/>
<path d="M2204 4955 c-12 -29 15 -45 46 -25 13 8 12 11 -5 24 -25 19 -34 20
-41 1z"/>
<path d="M2734 4955 c-12 -30 16 -45 46 -25 13 9 12 12 -4 25 -25 19 -35 19
-42 0z"/>
<path d="M2073 4939 c-6 -6 -9 -18 -6 -25 7 -18 37 -18 52 0 10 12 8 17 -8 25
-24 14 -24 14 -38 0z"/>
<path d="M2865 4930 c-4 -12 -1 -28 6 -36 10 -12 14 -12 26 6 12 17 12 24 3
35 -17 20 -27 19 -35 -5z"/>
<path d="M2997 4923 c-12 -12 -7 -41 7 -46 19 -7 40 18 32 38 -6 15 -28 20
-39 8z"/>
<path d="M1935 4910 c-3 -5 -1 -19 5 -30 9 -17 14 -19 26 -9 21 17 18 49 -5
49 -11 0 -23 -4 -26 -10z"/>
<path d="M1807 4876 c-9 -23 18 -39 43 -26 17 9 19 14 9 26 -15 18 -45 18 -52
0z"/>
<path d="M3123 4874 c-9 -24 11 -38 37 -24 17 9 19 14 9 26 -15 19 -38 18 -46
-2z"/>
<path d="M1680 4844 c-11 -12 -10 -18 3 -32 16 -15 18 -15 34 0 13 14 14 20 3
32 -7 9 -16 16 -20 16 -4 0 -13 -7 -20 -16z"/>
<path d="M3251 4837 c-9 -11 -8 -17 3 -26 18 -15 48 -3 44 18 -4 21 -32 26
-47 8z"/>
<path d="M1560 4795 c-11 -13 -11 -19 3 -33 20 -19 41 -5 35 24 -4 24 -22 28
-38 9z"/>
<path d="M3381 4796 c-14 -16 -9 -46 7 -46 5 0 15 7 22 16 11 12 11 18 -2 30
-13 13 -16 13 -27 0z"/>
<path d="M1440 4745 c-19 -22 5 -48 31 -34 10 5 19 14 19 19 0 5 -9 14 -19 19
-14 8 -22 7 -31 -4z"/>
<path d="M3502 4748 c-27 -27 -3 -54 31 -36 22 11 22 25 -1 37 -13 7 -23 6
-30 -1z"/>
<path d="M1313 4675 c-8 -22 16 -36 40 -24 23 13 17 33 -11 37 -14 2 -25 -3
-29 -13z"/>
<path d="M3614 4679 c-3 -6 0 -17 8 -25 12 -12 17 -12 32 -1 11 8 16 19 12 25
-9 15 -43 15 -52 1z"/>
<path d="M1201 4617 c-8 -10 -7 -19 4 -33 15 -19 15 -19 30 0 11 14 12 23 4
33 -6 7 -15 13 -19 13 -4 0 -13 -6 -19 -13z"/>
<path d="M3734 4615 c-12 -31 23 -48 45 -21 10 12 8 17 -8 25 -26 14 -31 14
-37 -4z"/>
<path d="M1090 4545 c-15 -18 -5 -35 20 -35 10 0 22 5 25 10 7 11 -12 40 -25
40 -4 0 -13 -7 -20 -15z"/>
<path d="M3841 4547 c-8 -10 -7 -19 4 -33 13 -18 15 -18 31 -2 14 14 15 20 4
32 -15 19 -24 20 -39 3z"/>
<path d="M2404 4503 c-15 -16 -15 -18 1 -29 13 -9 23 -10 36 -3 24 12 24 21
-1 36 -16 10 -22 10 -36 -4z"/>
<path d="M3353 4507 c-39 -15 -52 -27 -29 -27 13 0 17 -7 14 -32 -3 -31 -6
-33 -50 -38 -86 -10 -148 -78 -148 -161 0 -83 63 -117 116 -64 30 30 34 31 34
5 0 -11 7 -23 15 -26 23 -9 65 4 65 20 0 9 -7 12 -19 9 -18 -4 -17 3 10 139
16 78 31 153 34 166 6 25 3 25 -42 9z m-43 -132 c11 -13 11 -26 1 -68 -20 -89
-93 -139 -119 -82 -10 21 -7 35 14 84 31 72 76 100 104 66z"/>
<path d="M1664 4502 c-6 -4 -43 -60 -82 -124 -87 -144 -101 -164 -129 -177
-40 -19 -25 -31 36 -31 63 0 88 14 45 24 l-25 7 23 40 c24 44 43 52 109 47
l44 -3 3 -43 c3 -37 0 -44 -17 -49 -12 -3 -21 -9 -21 -14 0 -12 137 -11 145 1
3 6 0 10 -7 10 -32 1 -39 20 -53 151 -8 74 -15 142 -15 152 0 18 -34 24 -56 9z
m15 -144 l1 -48 -50 0 c-27 0 -50 3 -50 6 0 3 19 38 42 77 42 71 42 72 49 42
4 -16 7 -51 8 -77z"/>
<path d="M987 4473 c-24 -23 12 -55 38 -33 12 10 13 16 4 26 -12 15 -31 18
-42 7z"/>
<path d="M2816 4464 c-9 -8 -16 -21 -16 -27 0 -7 -17 -23 -38 -37 -34 -23 -35
-25 -14 -28 26 -4 26 3 6 -99 -9 -45 -14 -89 -11 -97 8 -19 58 -21 75 -4 18
18 14 27 -10 20 -20 -5 -21 -3 -15 43 14 96 26 126 58 137 31 11 30 28 -2 28
-19 0 -20 4 -14 40 7 44 4 48 -19 24z"/>
<path d="M3952 4468 c-8 -8 -9 -15 -1 -25 15 -17 34 -17 48 1 10 12 8 17 -8
25 -24 14 -24 14 -39 -1z"/>
<path d="M1888 4381 c-29 -26 -31 -31 -20 -55 6 -14 34 -40 62 -57 27 -17 50
-37 50 -45 0 -23 -66 -47 -90 -34 -11 6 -20 15 -20 20 0 6 -7 10 -15 10 -25 0
-19 -47 8 -54 67 -18 142 6 153 48 10 42 0 60 -49 87 -64 34 -73 44 -58 62 19
24 69 26 88 5 21 -23 29 -23 36 3 4 15 -1 22 -19 30 -48 18 -92 11 -126 -20z"/>
<path d="M2138 4395 c-54 -30 -48 -84 12 -115 22 -11 45 -30 51 -42 10 -18 8
-24 -11 -40 -31 -25 -57 -23 -76 7 -19 29 -34 24 -34 -10 0 -27 17 -35 70 -35
53 0 86 17 100 51 17 41 4 67 -49 94 -55 27 -67 47 -45 70 22 21 61 19 76 -5
17 -27 38 -25 38 4 0 16 -7 26 -22 30 -38 10 -81 6 -110 -9z"/>
<path d="M2536 4389 c-48 -38 -33 -86 40 -122 37 -19 49 -51 27 -73 -23 -22
-76 -14 -88 14 -12 28 -29 23 -33 -10 -2 -19 2 -27 20 -32 68 -18 143 6 154
48 10 41 1 59 -45 85 -58 35 -72 57 -47 77 29 21 67 18 73 -6 7 -25 28 -26 37
-3 17 43 -90 60 -138 22z"/>
<path d="M2970 4391 c-52 -27 -80 -74 -80 -133 0 -39 5 -54 25 -73 31 -31 87
-33 134 -4 43 26 35 33 -23 17 -55 -15 -79 -5 -84 35 -3 23 3 27 63 47 77 26
95 41 95 80 0 51 -65 66 -130 31z m76 -45 c-7 -27 -51 -56 -86 -56 -26 0 -25
9 5 51 41 55 95 58 81 5z"/>
<path d="M2347 4393 c-12 -11 -8 -23 8 -23 19 0 19 8 -5 -96 -16 -66 -18 -90
-9 -100 14 -17 51 -18 67 -2 18 18 14 27 -9 21 -17 -5 -20 -2 -16 13 10 31 47
182 47 188 0 8 -75 8 -83 -1z"/>
<path d="M4061 4390 c-17 -10 -7 -40 12 -40 8 0 20 6 26 14 10 12 8 17 -6 25
-11 5 -25 6 -32 1z"/>
<path d="M875 4380 c-4 -7 -3 -16 3 -22 14 -14 47 -6 47 12 0 18 -40 26 -50
10z"/>
<path d="M781 4291 c-12 -21 -5 -31 19 -31 28 0 42 22 22 36 -23 18 -30 17
-41 -5z"/>
<path d="M4157 4303 c-4 -3 -7 -15 -7 -25 0 -20 26 -24 50 -8 13 9 12 12 -4
25 -22 17 -29 18 -39 8z"/>
<path d="M686 4201 c-9 -14 4 -41 19 -41 7 0 18 7 26 16 10 13 10 17 -2 25
-18 11 -36 11 -43 0z"/>
<path d="M4247 4203 c-25 -24 11 -49 40 -28 16 13 16 16 3 25 -17 11 -34 13
-43 3z"/>
<path d="M4341 4116 c-17 -20 -6 -49 16 -44 22 4 26 20 10 42 -12 16 -14 16
-26 2z"/>
<path d="M602 4108 c-17 -17 -15 -35 4 -42 17 -6 44 9 44 25 0 16 -36 29 -48
17z"/>
<path d="M517 4003 c-11 -10 -8 -41 5 -49 14 -9 38 23 31 42 -5 15 -25 19 -36
7z"/>
<path d="M4417 3996 c-3 -8 1 -22 8 -33 13 -16 16 -16 25 -3 5 8 9 22 7 30 -3
20 -33 25 -40 6z"/>
<path d="M3673 3931 c-9 -14 -9 -21 0 -30 26 -26 55 -4 37 29 -13 25 -22 25
-37 1z"/>
<path d="M2380 3925 c-19 -22 1 -39 35 -31 26 7 27 8 10 26 -22 24 -29 25 -45
5z"/>
<path d="M3885 3933 c-31 -8 -44 -22 -57 -65 -7 -25 -21 -44 -35 -51 -22 -10
-22 -11 -4 -23 18 -13 18 -16 -6 -131 -30 -146 -61 -189 -86 -119 -6 18 -27
-5 -27 -30 0 -22 4 -24 43 -24 30 0 50 6 65 20 24 22 26 29 56 174 21 98 22
100 54 108 40 11 42 28 2 28 -28 0 -30 2 -24 28 9 37 32 72 48 72 7 0 20 -10
28 -22 17 -26 38 -17 38 18 0 21 -4 24 -37 23 -21 -1 -47 -4 -58 -6z"/>
<path d="M1548 3924 c-15 -14 -8 -24 18 -24 19 0 24 -4 20 -17 -2 -10 -15 -67
-27 -128 -20 -94 -28 -114 -53 -137 l-30 -28 112 0 c72 0 124 5 145 14 51 21
96 75 114 135 14 51 14 57 -3 100 -28 67 -63 83 -188 89 -55 2 -104 1 -108 -4z
m213 -53 c24 -25 29 -38 29 -78 0 -60 -29 -123 -67 -151 -36 -25 -139 -34
-136 -11 5 36 47 226 54 247 7 18 16 22 50 22 32 0 47 -6 70 -29z"/>
<path d="M2187 3923 c-12 -11 -8 -23 8 -23 8 0 15 -2 15 -4 0 -7 -50 -242 -56
-264 -12 -41 43 -71 74 -40 18 18 14 30 -8 23 -11 -3 -20 -4 -20 -1 0 3 14 70
30 149 17 80 30 150 30 156 0 12 -62 16 -73 4z"/>
<path d="M434 3885 c-13 -32 23 -48 47 -19 10 13 10 17 -2 25 -21 13 -39 11
-45 -6z"/>
<path d="M4493 3884 c-3 -8 1 -22 9 -30 13 -13 16 -13 27 0 7 9 11 23 7 31 -7
20 -35 19 -43 -1z"/>
<path d="M1969 3806 c-62 -43 -86 -124 -54 -186 24 -46 92 -52 153 -14 35 22
26 33 -15 18 -69 -24 -103 -13 -103 32 0 18 10 26 53 40 92 30 107 41 107 77
0 18 -5 38 -12 45 -21 21 -90 14 -129 -12z m88 -12 c11 -29 -14 -62 -57 -75
-22 -7 -43 -9 -46 -6 -7 7 31 65 54 85 21 17 41 15 49 -4z"/>
<path d="M2657 3820 c-43 -8 -61 -20 -29 -20 12 0 22 -4 22 -9 0 -12 -74 -141
-81 -141 -3 0 -11 38 -18 85 l-13 85 -39 0 c-43 0 -49 -9 -20 -27 14 -9 22
-33 31 -97 7 -46 16 -90 20 -96 14 -23 45 0 79 58 55 92 93 163 90 166 -2 1
-21 -1 -42 -4z"/>
<path d="M2794 3811 c-50 -31 -78 -77 -78 -133 -1 -43 3 -53 28 -75 25 -21 36
-24 73 -19 24 3 53 10 63 16 28 15 26 34 -2 26 -13 -4 -40 -10 -60 -13 -34 -5
-38 -3 -48 22 -14 37 -3 48 71 70 60 18 89 43 89 77 0 47 -79 64 -136 29z m84
-23 c5 -24 -39 -67 -75 -74 -38 -8 -40 -1 -13 44 29 47 81 65 88 30z"/>
<path d="M3023 3820 c-47 -7 -69 -20 -35 -20 26 0 27 -17 7 -110 -19 -87 -19
-100 4 -100 15 0 22 12 31 50 19 80 110 192 110 135 0 -20 26 -19 34 1 26 67
-27 75 -85 12 l-38 -42 9 39 c5 22 8 40 7 40 -1 1 -21 -2 -44 -5z"/>
<path d="M2320 3810 c-13 -8 -13 -10 2 -10 28 0 29 -15 6 -110 -19 -79 -20
-92 -8 -100 21 -13 54 -12 68 2 18 18 14 30 -8 23 -11 -3 -20 -3 -20 0 0 7 37
155 46 188 4 14 -1 17 -33 17 -21 0 -45 -5 -53 -10z"/>
<path d="M3207 3814 c-3 -4 2 -14 12 -23 11 -10 24 -51 35 -109 20 -101 13
-142 -26 -163 -16 -9 -20 -7 -25 10 -8 33 -33 26 -33 -9 0 -27 3 -30 33 -30
43 0 58 16 149 170 98 165 97 160 48 160 -43 0 -49 -6 -24 -25 15 -10 13 -18
-22 -78 -24 -42 -41 -62 -45 -54 -4 6 -12 45 -19 85 -13 72 -13 72 -45 72 -17
0 -34 -3 -38 -6z"/>
<path d="M3610 3810 c-12 -8 -11 -10 8 -10 27 0 27 -1 1 -106 -20 -79 -21 -87
-6 -102 13 -12 23 -14 44 -6 33 11 44 35 12 27 -17 -5 -20 -2 -16 13 4 10 13
51 22 89 8 39 18 78 21 88 4 14 -1 17 -33 17 -21 0 -45 -5 -53 -10z"/>
<path d="M365 3780 c-8 -24 1 -40 21 -40 20 0 29 27 14 45 -17 20 -27 19 -35
-5z"/>
<path d="M4572 3788 c-17 -17 -15 -35 5 -42 22 -9 36 7 28 33 -7 24 -16 26
-33 9z"/>
<path d="M300 3664 c-11 -12 -11 -18 1 -30 13 -12 18 -12 34 0 16 12 17 16 6
30 -17 20 -25 20 -41 0z"/>
<path d="M4641 3666 c-16 -19 -8 -46 13 -46 20 0 29 31 13 47 -12 12 -16 12
-26 -1z"/>
<path d="M242 3549 c-12 -18 -11 -24 2 -37 15 -15 17 -15 32 0 13 13 14 19 2
37 -7 11 -15 21 -18 21 -3 0 -11 -10 -18 -21z"/>
<path d="M4697 3553 c-11 -10 -8 -41 4 -49 16 -9 41 20 33 39 -6 17 -25 22
-37 10z"/>
<path d="M4751 3431 c-16 -29 3 -58 25 -40 17 14 17 20 0 44 -13 18 -14 18
-25 -4z"/>
<path d="M184 3419 c-3 -6 1 -18 10 -27 15 -15 17 -15 32 0 19 19 11 38 -16
38 -10 0 -22 -5 -26 -11z"/>
<path d="M3060 3345 c-15 -18 -5 -35 20 -35 10 0 22 5 25 10 7 11 -12 40 -25
40 -4 0 -13 -7 -20 -15z"/>
<path d="M1858 3343 c-27 -7 -22 -23 7 -23 14 0 25 -3 25 -7 0 -4 -12 -63 -27
-131 -22 -102 -30 -126 -50 -139 -13 -8 -23 -19 -23 -24 0 -10 110 -12 134 -3
25 10 19 24 -10 24 -22 0 -25 3 -21 23 4 12 9 41 13 65 6 39 9 43 33 40 22 -3
29 -14 54 -80 l30 -78 38 0 c41 0 56 23 20 33 -12 3 -25 26 -39 67 -12 34 -20
66 -17 70 3 4 18 13 34 20 65 26 65 115 1 137 -34 11 -167 15 -202 6z m173
-33 c29 -16 25 -64 -7 -89 -35 -28 -108 -30 -100 -3 2 9 8 33 11 52 4 19 9 38
12 43 6 11 61 9 84 -3z"/>
<path d="M3787 3343 c-12 -11 -8 -23 8 -23 16 0 18 -12 9 -47 -5 -19 -13 -23
-49 -23 -81 0 -145 -71 -145 -160 0 -51 26 -90 60 -90 11 0 35 14 54 30 l35
31 3 -28 c3 -31 38 -44 64 -23 21 18 17 32 -7 25 -20 -7 -21 -4 -15 21 13 52
56 267 56 280 0 14 -60 20 -73 7z m-8 -127 c7 -8 9 -29 5 -54 -16 -103 -105
-159 -129 -82 -7 21 47 135 67 143 24 10 45 7 57 -7z"/>
<path d="M144 3303 c-14 -24 -7 -43 16 -43 10 0 20 6 23 13 5 14 -10 47 -21
47 -4 0 -12 -8 -18 -17z"/>
<path d="M4794 3296 c-8 -22 3 -49 19 -43 6 2 12 14 12 27 0 27 -22 39 -31 16z"/>
<path d="M3467 3245 c-72 -25 -107 -75 -107 -150 0 -36 6 -51 26 -72 23 -22
31 -25 72 -19 43 6 99 32 89 42 -2 2 -27 -1 -55 -7 -60 -14 -85 -2 -80 39 3
21 13 29 64 46 73 25 94 41 94 70 0 51 -44 72 -103 51z m51 -40 c4 -27 -35
-63 -76 -71 -40 -8 -40 2 -1 55 33 46 71 54 77 16z"/>
<path d="M2205 3207 c-111 -111 -38 -257 94 -189 53 26 53 45 1 27 -59 -21
-79 -19 -92 9 -17 38 -5 51 62 70 66 19 100 44 100 75 0 33 -28 51 -77 51 -40
0 -51 -5 -88 -43z m108 11 c13 -36 -45 -88 -98 -88 -14 0 -14 3 0 31 31 59 85
90 98 57z"/>
<path d="M2473 3231 c-66 -41 -96 -162 -53 -209 28 -30 56 -28 92 8 17 17 32
30 34 28 1 -2 -2 -26 -8 -53 -6 -34 -18 -57 -36 -72 l-27 -23 62 0 c62 0 94
16 54 27 -14 3 -20 11 -17 22 18 63 57 273 52 278 -4 4 -32 8 -64 10 -44 3
-64 0 -89 -16z m100 -46 c-4 -64 -23 -105 -57 -126 -42 -25 -51 -24 -65 9 -10
25 -9 37 12 84 27 61 48 79 87 75 23 -2 25 -6 23 -42z"/>
<path d="M2735 3243 c-33 -5 -59 -23 -33 -23 27 0 28 -11 8 -93 -10 -43 -16
-87 -13 -97 12 -44 66 -31 120 29 l23 26 -6 -28 c-12 -52 36 -76 72 -36 19 21
19 22 -3 15 -29 -9 -29 -2 -3 106 24 102 24 98 0 98 -14 0 -22 -11 -30 -42
-14 -53 -74 -144 -101 -151 -16 -4 -19 0 -19 26 0 18 7 57 15 87 16 61 19 91
8 89 -5 -1 -21 -4 -38 -6z"/>
<path d="M3255 3208 l-37 -43 7 38 7 37 -41 0 c-22 0 -41 -4 -41 -10 0 -5 7
-10 15 -10 8 0 15 -4 15 -9 0 -9 -24 -129 -35 -179 -5 -20 -2 -23 17 -20 17 2
24 14 33 48 12 48 34 89 69 128 23 26 46 29 46 6 0 -28 24 -9 31 24 6 30 5 32
-21 32 -21 0 -38 -11 -65 -42z"/>
<path d="M3000 3230 c0 -5 7 -10 15 -10 19 0 19 1 -5 -90 -25 -96 -25 -117 0
-125 26 -8 57 2 64 21 4 12 1 14 -14 9 -25 -8 -25 -2 4 113 l24 92 -44 0 c-24
0 -44 -4 -44 -10z"/>
<path d="M101 3171 c-13 -23 8 -45 33 -35 19 7 21 25 4 42 -17 17 -26 15 -37
-7z"/>
<path d="M4831 3167 c-9 -11 -8 -17 4 -27 19 -16 47 -5 43 17 -4 23 -31 28
-47 10z"/>
<path d="M77 3043 c-11 -10 -8 -41 5 -49 17 -11 40 26 27 43 -13 14 -22 16
-32 6z"/>
<path d="M4867 3043 c-11 -10 -8 -41 5 -49 17 -11 40 26 27 43 -13 14 -22 16
-32 6z"/>
<path d="M799 2982 c-83 -22 -113 -42 -150 -100 -38 -60 -37 -102 1 -180 38
-74 70 -103 197 -178 116 -68 108 -63 101 -69 -2 -3 -44 11 -92 30 -53 22
-127 42 -191 52 -99 15 -105 15 -142 -3 -55 -27 -68 -61 -68 -180 0 -98 1
-102 43 -187 53 -107 127 -189 237 -262 165 -110 262 -138 405 -116 117 18
193 61 258 146 30 39 57 71 62 73 11 4 153 -167 204 -247 24 -36 87 -149 141
-251 103 -196 275 -454 378 -566 107 -117 269 -233 482 -345 151 -80 288 -118
501 -138 107 -11 115 -10 225 18 244 61 354 154 367 308 6 80 -15 139 -68 187
-59 53 -109 74 -243 102 -120 25 -126 26 -412 19 -422 -10 -475 0 -699 132
-172 102 -295 222 -406 396 -41 65 -124 193 -184 285 -59 92 -110 171 -112
177 -5 13 521 -26 670 -50 293 -45 671 -247 847 -451 24 -28 80 -93 124 -145
129 -152 216 -233 287 -268 169 -83 300 -80 402 10 52 46 94 128 103 199 7 62
-22 161 -74 249 -70 118 -283 310 -422 380 -40 20 -230 84 -387 130 -245 72
-559 96 -1089 85 -237 -5 -353 -3 -410 6 -138 20 -130 12 -80 85 54 79 73 154
55 224 -39 156 -200 311 -410 397 -77 31 -244 64 -322 63 -34 0 -93 -8 -129
-17z m346 -56 c33 -9 107 -39 165 -68 87 -43 119 -66 186 -133 91 -90 114
-137 114 -235 0 -99 -89 -230 -157 -230 -25 0 -290 135 -504 257 -108 62 -232
154 -263 196 -38 51 -17 146 40 184 65 42 124 54 244 49 63 -2 142 -11 175
-20z m-342 -465 c201 -64 314 -109 422 -165 55 -29 116 -58 135 -64 19 -6 127
-23 239 -37 230 -28 535 -34 812 -14 339 24 785 -52 1029 -174 147 -74 348
-207 425 -282 98 -96 145 -189 145 -287 0 -84 -16 -124 -70 -176 -150 -146
-416 -61 -605 193 -71 97 -277 304 -350 352 -80 53 -167 99 -295 155 -230 101
-366 126 -880 163 -118 8 -234 20 -257 26 -38 10 -45 9 -72 -12 -16 -13 -51
-64 -77 -112 -28 -52 -62 -99 -81 -114 -45 -35 -188 -83 -246 -83 -102 0 -342
108 -439 199 -95 87 -169 262 -152 360 11 67 26 102 48 112 38 16 139 2 269
-40z m778 -394 c28 -28 64 -82 101 -155 66 -127 167 -293 244 -398 127 -173
267 -291 449 -380 209 -101 245 -105 757 -89 283 8 336 4 446 -37 76 -28 119
-69 137 -131 39 -130 -9 -229 -139 -291 -132 -63 -415 -88 -583 -53 -155 33
-391 142 -556 258 -243 170 -346 303 -606 784 -125 230 -250 424 -304 470 -26
22 -37 39 -34 50 11 26 42 16 88 -28z"/>
<path d="M825 2907 c-64 -31 -105 -109 -85 -163 15 -38 72 -97 140 -143 61
-41 357 -202 463 -252 75 -35 122 -34 155 1 27 29 64 153 56 187 -36 147 -220
299 -430 354 -103 27 -258 35 -299 16z m285 -63 c103 -26 219 -86 282 -146 77
-74 102 -126 103 -210 0 -85 -22 -113 -88 -112 -35 0 -79 21 -252 118 -237
133 -295 173 -336 229 -47 65 -36 109 36 136 39 14 170 7 255 -15z"/>
<path d="M561 2441 c-89 -89 28 -347 200 -442 25 -14 81 -40 124 -58 76 -32
82 -33 196 -30 112 4 119 5 160 34 56 39 99 101 106 152 5 36 2 42 -32 70 -34
28 -202 106 -505 234 -147 62 -216 73 -249 40z m317 -128 c92 -41 201 -88 242
-105 120 -48 140 -59 156 -90 13 -26 13 -32 -5 -72 -23 -53 -33 -59 -136 -80
-131 -26 -259 4 -373 88 -128 95 -223 263 -179 318 34 44 96 31 295 -59z"/>
<path d="M2485 2106 c39 -12 94 -35 124 -51 30 -15 107 -51 171 -79 210 -94
295 -166 552 -466 186 -216 280 -279 431 -288 l78 -5 48 50 c82 86 93 194 29
301 -95 157 -417 379 -680 466 -199 67 -325 86 -588 91 l-235 5 70 -24z m281
-22 c234 -23 440 -71 589 -139 180 -83 464 -304 519 -405 40 -74 48 -173 16
-213 -44 -56 -110 -71 -200 -47 -108 29 -157 65 -273 204 -131 156 -298 332
-359 377 -62 47 -205 120 -348 179 -102 42 -135 60 -114 60 6 0 82 -7 170 -16z"/>
<path d="M1960 1381 c0 -29 271 -353 381 -455 186 -174 509 -334 738 -367 196
-28 470 44 561 147 29 33 32 42 28 85 -6 59 -38 104 -106 148 -78 50 -225 64
-572 56 -298 -8 -345 -4 -485 42 -196 64 -320 137 -442 260 -91 92 -103 102
-103 84z m318 -290 c75 -37 309 -118 395 -137 81 -17 169 -18 292 -3 152 18
356 14 469 -10 88 -18 104 -25 139 -58 22 -21 46 -53 54 -72 13 -31 13 -36 -5
-60 -25 -34 -161 -106 -237 -126 -140 -36 -297 -29 -456 21 -155 48 -387 170
-503 262 -91 74 -229 212 -211 212 3 0 31 -13 63 -29z"/>
<path d="M45 2909 c-8 -26 6 -42 28 -33 20 7 22 25 5 42 -17 17 -26 15 -33 -9z"/>
<path d="M4884 2905 c-13 -32 23 -48 47 -19 10 13 10 17 -2 25 -21 13 -39 11
-45 -6z"/>
<path d="M30 2775 c-22 -26 7 -46 39 -26 12 8 12 12 2 25 -17 20 -25 20 -41 1z"/>
<path d="M4907 2783 c-11 -10 -8 -27 7 -48 13 -18 14 -18 25 4 10 17 10 26 0
37 -13 15 -22 18 -32 7z"/>
<path d="M4920 2655 c-9 -11 -11 -22 -4 -32 13 -21 25 -21 38 -1 8 14 7 21 -5
33 -14 15 -17 15 -29 0z"/>
<path d="M20 2645 c-15 -18 -5 -35 20 -35 10 0 22 5 25 10 7 11 -12 40 -25 40
-4 0 -13 -7 -20 -15z"/>
<path d="M10 2510 c-13 -9 -12 -12 4 -25 25 -19 32 -19 40 1 12 31 -13 44 -44
24z"/>
<path d="M4914 2505 c-4 -9 0 -24 10 -33 15 -15 18 -15 26 -2 6 8 9 22 7 30
-3 21 -36 25 -43 5z"/>
<path d="M21 2386 c-16 -19 -7 -46 14 -46 22 0 30 29 13 46 -13 13 -16 13 -27
0z"/>
<path d="M4914 2377 c-3 -9 0 -26 7 -38 11 -22 12 -22 26 -3 7 10 12 25 11 34
-4 20 -37 25 -44 7z"/>
<path d="M30 2245 c-15 -18 -5 -35 20 -35 10 0 22 5 25 10 7 11 -12 40 -25 40
-4 0 -13 -7 -20 -15z"/>
<path d="M4913 2253 c-16 -6 -17 -29 -3 -38 13 -8 50 3 50 15 0 13 -32 28 -47
23z"/>
<path d="M43 2114 c-3 -8 1 -22 9 -30 13 -13 16 -13 27 -1 14 17 4 47 -15 47
-8 0 -17 -7 -21 -16z"/>
<path d="M4885 2110 c-8 -27 6 -43 29 -34 22 8 17 48 -6 52 -10 2 -19 -5 -23
-18z"/>
<path d="M70 1985 c-19 -22 5 -48 31 -34 15 8 17 14 9 29 -13 24 -23 25 -40 5z"/>
<path d="M4852 1977 c-8 -10 -6 -16 10 -26 17 -11 23 -10 35 2 9 8 12 20 9 26
-10 15 -41 14 -54 -2z"/>
<path d="M113 1863 c-17 -6 -17 -39 0 -46 12 -4 55 19 46 26 -2 1 -11 8 -19
13 -8 6 -21 9 -27 7z"/>
<path d="M4830 1854 c-11 -12 -11 -18 2 -30 13 -13 19 -14 36 -3 20 12 20 15
5 31 -20 22 -27 22 -43 2z"/>
<path d="M140 1724 c-11 -12 -10 -18 3 -32 16 -15 18 -15 34 0 13 14 14 20 3
32 -7 9 -16 16 -20 16 -4 0 -13 -7 -20 -16z"/>
<path d="M4796 1733 c-3 -4 -6 -15 -6 -25 0 -21 32 -25 49 -5 8 11 5 16 -13
25 -13 6 -27 8 -30 5z"/>
<path d="M186 1603 c-9 -22 20 -51 35 -36 14 14 2 53 -16 53 -7 0 -16 -8 -19
-17z"/>
<path d="M4745 1599 c-7 -20 7 -38 28 -39 14 0 19 30 7 45 -17 21 -27 19 -35
-6z"/>
<path d="M240 1484 c-11 -12 -10 -18 3 -31 13 -13 19 -14 31 -4 12 10 13 16 3
32 -14 23 -21 24 -37 3z"/>
<path d="M4697 1483 c-24 -23 12 -55 38 -33 12 10 13 16 4 26 -12 15 -31 18
-42 7z"/>
<path d="M294 1355 c-9 -22 22 -53 37 -38 15 15 7 47 -14 51 -9 2 -20 -4 -23
-13z"/>
<path d="M4637 1363 c-24 -23 12 -55 38 -33 12 10 13 16 4 26 -12 15 -31 18
-42 7z"/>
<path d="M372 1258 c-27 -27 -5 -72 23 -48 18 15 19 21 2 43 -10 14 -15 15
-25 5z"/>
<path d="M4564 1239 c-3 -6 0 -17 8 -25 12 -12 17 -12 32 -1 11 8 16 19 12 25
-9 15 -43 15 -52 1z"/>
<path d="M4501 1136 c-13 -16 -4 -46 13 -46 13 0 36 20 36 32 0 4 -9 12 -19
17 -14 8 -22 7 -30 -3z"/>
<path d="M434 1125 c-13 -32 23 -48 47 -19 10 13 10 17 -2 25 -21 13 -39 11
-45 -6z"/>
<path d="M520 1025 c-19 -22 5 -48 31 -34 24 12 24 21 0 36 -15 10 -22 9 -31
-2z"/>
<path d="M4420 1025 c-15 -18 -5 -35 20 -35 10 0 22 5 25 10 7 11 -12 40 -25
40 -4 0 -13 -7 -20 -15z"/>
<path d="M591 917 c-9 -11 -8 -17 4 -27 19 -16 47 -5 43 17 -4 23 -31 28 -47
10z"/>
<path d="M4337 923 c-4 -3 -7 -15 -7 -25 0 -21 32 -25 49 -5 17 22 -22 50 -42
30z"/>
<path d="M685 819 c-8 -24 9 -41 32 -32 16 6 17 25 1 41 -17 17 -26 15 -33 -9z"/>
<path d="M4247 823 c-12 -12 -7 -31 10 -37 9 -4 23 0 32 9 14 14 14 17 1 25
-18 11 -34 13 -43 3z"/>
<path d="M784 726 c-8 -22 3 -49 19 -43 6 2 12 14 12 27 0 27 -22 39 -31 16z"/>
<path d="M4157 733 c-24 -23 12 -55 38 -33 12 10 13 16 4 26 -12 15 -31 18
-42 7z"/>
<path d="M880 640 c-12 -23 -6 -40 15 -40 19 0 27 17 20 40 -8 26 -21 25 -35
0z"/>
<path d="M4055 640 c-9 -15 5 -52 18 -47 6 2 15 11 21 20 8 13 7 20 -4 27 -19
12 -27 12 -35 0z"/>
<path d="M3956 563 c-9 -9 -7 -36 4 -53 8 -13 11 -12 24 5 9 11 16 23 16 27 0
11 -36 28 -44 21z"/>
<path d="M980 543 c0 -10 5 -25 10 -33 8 -13 11 -12 24 5 19 25 15 39 -12 43
-16 2 -22 -2 -22 -15z"/>
<path d="M1090 481 c-13 -25 -6 -41 20 -41 26 0 32 25 10 45 -17 16 -19 15
-30 -4z"/>
<path d="M3845 480 c-7 -23 1 -40 20 -40 21 0 27 17 15 40 -14 25 -27 26 -35
0z"/>
<path d="M1213 413 c-15 -5 -17 -39 -3 -48 9 -6 50 15 50 25 0 10 -35 27 -47
23z"/>
<path d="M3734 405 c-7 -17 2 -45 13 -45 4 0 17 7 27 15 20 15 20 15 0 30 -24
18 -33 19 -40 0z"/>
<path d="M1314 335 c-12 -29 15 -45 45 -26 12 8 12 12 2 25 -17 20 -40 21 -47
1z"/>
<path d="M3616 333 c-10 -26 9 -38 40 -24 26 11 26 12 8 26 -25 19 -40 19 -48
-2z"/>
<path d="M3500 290 c-14 -26 -7 -50 15 -50 23 0 29 26 12 51 l-15 21 -12 -22z"/>
<path d="M1437 283 c-24 -23 12 -55 38 -33 12 10 13 16 4 26 -12 15 -31 18
-42 7z"/>
<path d="M1560 225 c-11 -13 -11 -19 4 -33 15 -15 18 -15 26 -2 22 33 -6 64
-30 35z"/>
<path d="M3383 233 c-16 -6 -17 -39 -2 -49 6 -3 18 1 27 10 14 14 14 18 2 30
-8 7 -21 12 -27 9z"/>
<path d="M1681 176 c-18 -21 11 -41 39 -26 17 9 19 14 9 26 -15 18 -33 18 -48
0z"/>
<path d="M3245 180 c-7 -11 12 -50 25 -50 12 0 23 37 15 50 -8 13 -32 13 -40
0z"/>
<path d="M1809 144 c-10 -12 -9 -18 3 -31 14 -14 19 -14 37 -1 17 12 19 17 9
25 -27 21 -36 22 -49 7z"/>
<path d="M3123 134 c-9 -24 11 -38 36 -25 25 14 27 27 5 35 -25 9 -34 7 -41
-10z"/>
<path d="M1940 105 c-10 -12 -10 -18 0 -31 12 -13 15 -13 28 0 15 15 10 46 -6
46 -5 0 -15 -7 -22 -15z"/>
<path d="M2991 107 c-8 -10 -7 -19 4 -33 15 -18 15 -18 29 -1 26 34 -6 66 -33
34z"/>
<path d="M2070 84 c-11 -12 -11 -18 1 -30 13 -12 18 -12 34 0 16 12 17 16 6
30 -17 20 -25 20 -41 0z"/>
<path d="M2867 93 c-12 -11 -8 -40 7 -52 12 -10 17 -8 26 9 16 29 -12 65 -33
43z"/>
<path d="M2204 66 c-8 -22 3 -49 19 -43 6 2 12 14 12 27 0 27 -22 39 -31 16z"/>
<path d="M2600 65 c-15 -18 -6 -45 14 -45 20 0 29 16 21 40 -8 24 -18 25 -35
5z"/>
<path d="M2731 67 c-8 -10 -7 -19 4 -33 15 -19 15 -19 30 0 11 14 12 23 4 33
-6 7 -15 13 -19 13 -4 0 -13 -6 -19 -13z"/>
<path d="M2337 63 c-11 -11 -8 -40 6 -51 19 -16 43 24 26 44 -13 15 -22 18
-32 7z"/>
<path d="M2460 51 c0 -21 13 -41 26 -41 8 0 14 4 14 9 0 5 3 16 6 25 5 12 0
16 -20 16 -14 0 -26 -4 -26 -9z"/>
</g>
</svg>
