<?xml version="1.0" standalone="no"?>
<!DOCTYPE svg PUBLIC "-//W3C//DTD SVG 20010904//EN"
 "http://www.w3.org/TR/2001/REC-SVG-20010904/DTD/svg10.dtd">
<svg version="1.0" xmlns="http://www.w3.org/2000/svg"
 width="500.000000pt" height="499.000000pt" viewBox="0 0 500.000000 499.000000"
 preserveAspectRatio="xMidYMid meet">
<metadata>
Created by potrace 1.15, written by Peter Selinger 2001-2017
</metadata>
<g transform="translate(0.000000,499.000000) scale(0.100000,-0.100000)"
fill="#000000" stroke="none">
<path d="M2347 4973 c-12 -11 -7 -41 7 -46 8 -3 22 0 32 8 15 11 16 15 5 29
-14 17 -33 21 -44 9z"/>
<path d="M2476 4971 c-8 -12 4 -41 16 -41 5 0 19 5 30 11 21 11 21 12 3 25
-22 16 -41 18 -49 5z"/>
<path d="M2617 4973 c-12 -11 -8 -41 6 -46 7 -3 22 2 32 10 20 14 20 14 1 29
-22 16 -30 17 -39 7z"/>
<path d="M2751 4966 c-17 -20 -6 -49 16 -44 22 4 26 20 10 42 -12 16 -14 16
-26 2z"/>
<path d="M2214 4955 c-12 -30 16 -45 46 -25 13 9 12 12 -4 25 -25 19 -35 19
-42 0z"/>
<path d="M2080 4935 c-23 -28 21 -50 48 -23 9 9 7 14 -6 24 -22 17 -27 17 -42
-1z"/>
<path d="M2881 4936 c-10 -12 -10 -19 2 -36 12 -18 16 -18 26 -6 14 17 11 48
-5 53 -6 2 -17 -3 -23 -11z"/>
<path d="M1943 4904 c-3 -8 1 -22 9 -30 13 -13 16 -13 27 0 7 9 11 23 7 31 -7
20 -35 19 -43 -1z"/>
<path d="M3004 4909 c-3 -6 0 -18 9 -26 12 -12 18 -13 35 -2 16 10 18 16 10
26 -13 16 -44 17 -54 2z"/>
<path d="M3140 4884 c-11 -12 -10 -18 3 -32 21 -21 42 -3 32 27 -8 25 -18 27
-35 5z"/>
<path d="M1817 4877 c-3 -8 -1 -20 3 -27 7 -11 13 -12 37 -1 27 12 27 13 8 27
-24 18 -41 18 -48 1z"/>
<path d="M1691 4836 c-18 -21 11 -41 39 -26 17 9 19 14 9 26 -15 18 -33 18
-48 0z"/>
<path d="M3266 4834 c-8 -21 -8 -21 10 -28 24 -9 47 13 33 30 -15 19 -35 18
-43 -2z"/>
<path d="M1570 4795 c-19 -22 5 -48 31 -34 10 5 19 14 19 19 0 5 -9 14 -19 19
-14 8 -22 7 -31 -4z"/>
<path d="M3391 4796 c-9 -11 -9 -19 1 -35 11 -19 14 -19 30 -4 13 12 15 20 7
34 -12 23 -22 24 -38 5z"/>
<path d="M1440 4744 c-11 -12 -10 -18 3 -32 16 -15 18 -15 34 0 13 14 14 20 3
32 -7 9 -16 16 -20 16 -4 0 -13 -7 -20 -16z"/>
<path d="M3514 4735 c-4 -9 -2 -21 3 -26 14 -14 45 1 41 20 -4 22 -37 26 -44
6z"/>
<path d="M1320 4673 c0 -10 5 -25 10 -33 9 -13 12 -12 25 5 19 24 15 39 -13
43 -16 2 -22 -2 -22 -15z"/>
<path d="M3633 4674 c-3 -8 1 -22 10 -31 14 -14 16 -13 26 6 7 12 9 26 6 31
-10 15 -35 12 -42 -6z"/>
<path d="M1211 4626 c-16 -19 -7 -46 14 -46 22 0 30 29 13 46 -13 13 -16 13
-27 0z"/>
<path d="M3750 4615 c-23 -28 21 -50 48 -23 9 9 7 14 -6 24 -22 17 -27 17 -42
-1z"/>
<path d="M1100 4545 c-19 -22 5 -48 31 -34 24 12 24 21 0 36 -15 10 -22 9 -31
-2z"/>
<path d="M3860 4545 c-15 -18 -5 -35 20 -35 10 0 22 5 25 10 7 11 -12 40 -25
40 -4 0 -13 -7 -20 -15z"/>
<path d="M1374 4502 c-139 -66 -180 -246 -73 -323 28 -20 46 -24 101 -24 56 0
71 4 90 22 30 30 20 36 -32 18 -58 -21 -96 -19 -120 5 -31 31 -42 69 -35 120
14 100 84 174 160 168 39 -3 40 -4 45 -47 5 -43 6 -44 23 -27 19 19 23 81 6
91 -6 4 -36 9 -67 11 -42 4 -68 0 -98 -14z"/>
<path d="M990 4465 c-15 -18 -5 -35 20 -35 10 0 22 5 25 10 7 11 -12 40 -25
40 -4 0 -13 -7 -20 -15z"/>
<path d="M3966 4465 c-3 -9 0 -25 8 -36 11 -17 15 -18 25 -5 7 8 11 23 9 33
-4 23 -34 29 -42 8z"/>
<path d="M1655 4396 c-60 -27 -95 -85 -95 -157 0 -70 59 -101 113 -59 l26 20
6 -20 c5 -17 14 -21 43 -18 38 3 58 28 23 28 -26 0 -26 -1 -1 88 22 79 25 108
11 116 -23 14 -98 15 -126 2z m78 -59 c-3 -55 -23 -99 -55 -121 -32 -23 -53
-20 -66 10 -10 22 -8 34 15 82 27 56 62 85 93 79 11 -2 14 -15 13 -50z"/>
<path d="M1950 4399 c-86 -35 -129 -150 -79 -213 16 -20 29 -26 61 -26 41 0
108 25 108 41 0 11 4 12 -51 -5 -41 -13 -50 -13 -68 1 -40 28 -24 55 49 81 94
33 121 71 80 112 -21 21 -60 25 -100 9z m64 -34 c3 -8 -5 -26 -17 -40 -23 -26
-83 -50 -92 -36 -2 5 9 27 25 50 31 43 72 56 84 26z"/>
<path d="M2170 4397 c-33 -17 -52 -55 -39 -80 6 -10 30 -30 55 -45 24 -15 47
-36 50 -46 15 -45 -80 -63 -102 -19 -8 17 -13 20 -22 11 -17 -17 -15 -45 4
-52 31 -12 110 -6 132 10 31 21 45 60 32 85 -6 10 -28 28 -49 38 -20 11 -44
27 -51 36 -13 15 -11 20 9 36 32 26 59 24 73 -6 9 -19 14 -22 25 -14 48 40
-51 79 -117 46z"/>
<path d="M2430 4391 c-81 -42 -117 -163 -64 -215 22 -22 64 -20 90 5 l22 21
12 -22 c9 -16 19 -20 42 -18 35 3 49 25 20 30 -19 3 -19 5 4 98 13 52 23 96
24 97 0 0 -14 6 -31 12 -46 16 -79 14 -119 -8z m88 -14 c13 -15 -5 -96 -29
-134 -29 -47 -77 -54 -98 -15 -8 15 -4 33 18 78 34 71 83 103 109 71z"/>
<path d="M2780 4395 c-14 -7 -32 -25 -40 -39 -19 -37 -29 -32 -20 10 l8 35
-41 -3 c-38 -3 -68 -28 -33 -28 20 0 20 -16 -3 -118 -16 -74 -16 -84 -3 -89
18 -7 42 22 42 50 0 29 39 103 71 133 25 24 29 25 35 11 9 -25 33 -20 40 7 11
45 -10 57 -56 31z"/>
<path d="M2941 4391 c-72 -38 -108 -164 -61 -211 25 -25 88 -27 136 -4 34 16
49 42 17 29 -82 -33 -122 -23 -123 31 0 17 12 25 67 43 82 27 93 36 93 72 0
57 -61 76 -129 40z m79 -31 c0 -24 -42 -70 -64 -70 -8 0 -22 -3 -32 -7 -14 -5
-16 -3 -10 13 18 49 51 84 79 84 21 0 27 -5 27 -20z"/>
<path d="M3192 4393 c-61 -30 -101 -110 -87 -174 14 -63 72 -79 116 -33 l24
26 5 -24 c7 -30 60 -38 81 -12 13 16 11 17 -14 12 -22 -4 -27 -2 -23 11 8 27
46 179 46 184 0 9 -62 27 -89 27 -14 0 -41 -8 -59 -17z m91 -17 c7 -17 -9 -90
-27 -125 -17 -31 -58 -56 -80 -48 -8 3 -18 17 -22 31 -8 34 38 133 68 146 34
13 55 12 61 -4z"/>
<path d="M3475 4403 c-52 -9 -65 -14 -65 -23 0 -6 7 -10 15 -10 19 0 19 -16
-4 -117 l-18 -83 22 0 c18 0 25 8 33 43 13 50 63 131 90 146 30 16 34 -9 15
-94 -19 -90 -14 -107 29 -103 32 3 53 28 24 28 -20 0 -20 6 1 107 14 67 15 84
4 97 -26 31 -74 12 -116 -44 -27 -37 -30 -33 -15 19 11 40 12 38 -15 34z"/>
<path d="M882 4373 c4 -21 36 -29 51 -14 9 9 8 14 -3 21 -25 16 -52 12 -48 -7z"/>
<path d="M4075 4380 c-9 -15 4 -30 25 -30 24 0 36 20 19 31 -19 12 -36 11 -44
-1z"/>
<path d="M791 4306 c-17 -20 -6 -49 16 -44 22 4 26 20 10 42 -12 16 -14 16
-26 2z"/>
<path d="M4174 4303 c-14 -24 -7 -43 16 -43 26 0 33 15 18 40 -16 25 -20 25
-34 3z"/>
<path d="M692 4203 c-18 -35 12 -59 36 -30 7 8 7 17 -2 30 -16 21 -23 21 -34
0z"/>
<path d="M4263 4194 c-3 -8 1 -22 9 -30 13 -13 16 -13 27 0 7 9 11 23 7 31 -7
20 -35 19 -43 -1z"/>
<path d="M4360 4105 c-10 -12 -10 -18 0 -31 11 -13 15 -13 27 -1 13 13 8 47
-7 47 -4 0 -13 -7 -20 -15z"/>
<path d="M595 4100 c-10 -17 20 -44 40 -36 9 3 15 14 13 23 -4 21 -43 30 -53
13z"/>
<path d="M520 3995 c-22 -26 7 -46 39 -26 12 8 12 12 2 25 -17 20 -25 20 -41
1z"/>
<path d="M4440 3994 c-11 -12 -10 -18 4 -32 16 -16 18 -16 31 2 11 14 12 23 4
33 -15 17 -24 16 -39 -3z"/>
<path d="M1955 3935 c-5 -2 -22 -6 -37 -9 -29 -7 -58 -49 -58 -86 0 -15 -6
-20 -25 -20 -30 0 -34 -25 -5 -33 11 -3 18 -11 16 -19 -2 -7 -14 -62 -27 -122
-21 -99 -37 -136 -59 -136 -5 0 -12 9 -15 21 -9 27 -29 19 -33 -14 -3 -25 -1
-27 38 -27 78 0 88 14 123 185 21 107 23 110 51 115 41 7 46 30 7 30 -17 0
-31 4 -31 9 0 24 21 61 41 72 19 10 25 8 39 -11 l18 -23 11 21 c19 36 14 52
-16 51 -16 0 -32 -2 -38 -4z"/>
<path d="M3124 3915 c-17 -13 -17 -14 -1 -15 18 0 21 -11 11 -47 -5 -18 -14
-23 -43 -23 -70 -1 -129 -50 -150 -125 -27 -97 48 -166 110 -100 30 31 39 31
39 0 0 -20 5 -25 24 -25 34 0 56 10 56 25 0 8 -8 11 -21 8 -17 -5 -19 -2 -15
18 3 13 19 86 35 162 l28 137 -27 0 c-14 0 -35 -7 -46 -15z m-15 -119 c24 -29
-9 -131 -51 -160 -32 -23 -57 -20 -70 9 -10 22 -7 35 18 86 34 72 76 98 103
65z"/>
<path d="M1025 3911 c-4 -7 5 -14 23 -17 l29 -6 -29 -126 c-24 -108 -32 -130
-56 -149 l-27 -23 78 0 c45 0 77 4 77 10 0 6 -8 10 -18 10 -28 0 -30 6 -18 68
l12 57 69 6 c99 8 135 37 135 108 0 53 -29 66 -155 69 -74 3 -115 0 -120 -7z
m207 -34 c4 -7 8 -22 8 -35 0 -43 -17 -60 -76 -72 -30 -7 -57 -10 -59 -8 -5 4
21 113 30 128 9 15 86 5 97 -13z"/>
<path d="M440 3895 c-15 -18 -6 -45 14 -45 20 0 29 16 21 40 -8 24 -18 25 -35
5z"/>
<path d="M4522 3898 c-17 -17 -15 -35 5 -42 22 -9 36 7 28 33 -7 24 -16 26
-33 9z"/>
<path d="M3436 3856 c-14 -19 -35 -38 -46 -41 -26 -8 -26 -25 0 -25 22 0 21
-11 -7 -123 -11 -45 -11 -62 -2 -73 14 -17 61 -18 77 -2 19 19 14 26 -13 20
-30 -5 -30 -2 -6 98 17 70 20 75 50 82 34 9 33 28 -1 28 -18 0 -20 4 -15 35 7
44 -4 44 -37 1z"/>
<path d="M1480 3823 c-8 -3 -29 -21 -47 -41 l-32 -37 6 38 6 38 -38 -3 c-37
-3 -64 -28 -31 -28 20 0 20 -2 1 -87 -9 -37 -18 -78 -20 -90 -4 -19 -1 -23 19
-23 20 0 25 6 31 38 7 41 41 104 76 141 20 21 23 22 34 7 18 -24 32 -20 38 11
8 41 -3 50 -43 36z"/>
<path d="M1634 3816 c-85 -37 -122 -181 -57 -223 34 -22 118 -13 146 17 l22
22 -30 -8 c-16 -4 -48 -8 -70 -8 -38 -1 -40 1 -43 30 -3 31 -1 33 63 54 74 25
95 41 95 75 0 51 -59 70 -126 41z m76 -36 c0 -10 -8 -27 -17 -38 -18 -20 -82
-46 -91 -37 -10 9 36 80 59 92 27 14 49 7 49 -17z"/>
<path d="M2070 3819 c-35 -14 -59 -38 -81 -81 -57 -111 21 -192 136 -144 19 8
35 20 35 27 0 7 -7 8 -17 4 -10 -4 -37 -10 -60 -12 -39 -5 -43 -3 -53 22 -6
14 -8 30 -5 35 3 5 34 18 70 30 88 29 119 75 77 113 -21 19 -64 21 -102 6z
m65 -20 c20 -32 -16 -73 -84 -94 -22 -7 -23 -5 -17 21 14 56 82 105 101 73z"/>
<path d="M2385 3819 c-11 -6 -29 -23 -40 -40 -26 -38 -36 -37 -24 3 5 18 9 34
9 35 0 6 -59 3 -74 -3 -22 -8 -20 -24 3 -24 18 0 18 -3 -2 -95 -16 -76 -18
-98 -8 -108 10 -9 15 -8 27 7 8 11 14 28 14 38 0 25 33 88 65 127 29 34 45 40
45 16 0 -25 29 -17 36 9 10 43 -9 55 -51 35z"/>
<path d="M2587 3788 l-40 -42 7 37 c7 36 6 37 -23 37 -35 0 -61 -9 -61 -21 0
-5 9 -9 21 -9 13 0 19 -5 16 -13 -17 -46 -38 -180 -28 -190 14 -14 41 9 41 37
0 33 48 123 77 146 24 18 27 19 38 3 16 -22 35 -8 35 28 0 43 -34 38 -83 -13z"/>
<path d="M2774 3816 c-84 -37 -123 -178 -61 -221 27 -19 77 -19 122 -1 51 22
43 36 -11 20 -52 -15 -78 -7 -89 27 -9 28 -1 35 70 59 68 24 95 44 95 75 0 49
-61 69 -126 41z m71 -43 c-8 -36 -15 -42 -61 -58 -49 -17 -54 -6 -20 45 21 32
32 40 57 40 29 0 31 -2 24 -27z"/>
<path d="M3600 3812 c-47 -24 -85 -97 -76 -148 10 -51 46 -84 93 -84 95 0 166
106 129 193 -24 58 -79 73 -146 39z m94 -24 c9 -12 16 -33 16 -45 0 -31 -36
-125 -52 -135 -39 -24 -92 12 -83 56 2 12 6 37 10 57 12 77 76 115 109 67z"/>
<path d="M366 3774 c-11 -30 13 -44 43 -25 12 8 12 12 2 25 -17 20 -37 20 -45
0z"/>
<path d="M4590 3775 c-15 -18 -5 -35 20 -35 10 0 22 5 25 10 7 11 -12 40 -25
40 -4 0 -13 -7 -20 -15z"/>
<path d="M4659 3666 c-17 -35 2 -59 27 -34 15 15 15 18 1 39 l-16 22 -12 -27z"/>
<path d="M297 3656 c-9 -23 18 -39 43 -26 17 9 19 14 9 26 -15 18 -45 18 -52
0z"/>
<path d="M240 3544 c-11 -12 -10 -18 3 -32 16 -15 18 -15 34 0 13 14 14 20 3
32 -7 9 -16 16 -20 16 -4 0 -13 -7 -20 -16z"/>
<path d="M4714 3535 c-13 -32 23 -48 47 -19 10 13 10 17 -2 25 -21 13 -39 11
-45 -6z"/>
<path d="M4770 3424 c-11 -12 -10 -18 3 -32 21 -21 42 -3 32 27 -8 25 -18 27
-35 5z"/>
<path d="M190 3415 c-10 -12 -10 -18 0 -31 12 -13 15 -13 28 0 15 15 10 46 -6
46 -5 0 -15 -7 -22 -15z"/>
<path d="M1374 3346 c-18 -14 -18 -16 -2 -32 14 -15 18 -15 37 -2 20 14 20 15
3 31 -16 15 -21 15 -38 3z"/>
<path d="M596 3298 c-18 -29 -61 -98 -96 -153 -34 -55 -66 -101 -70 -103 -4
-1 -16 -9 -26 -17 -17 -13 -12 -14 49 -15 64 0 89 12 47 23 -26 7 -25 16 3 58
21 32 27 34 85 37 48 2 62 0 62 -11 0 -8 3 -28 6 -45 5 -25 2 -31 -15 -37 -42
-13 -19 -25 49 -25 40 0 70 4 70 10 0 6 -6 10 -14 10 -26 0 -34 25 -45 135
-20 182 -20 185 -47 185 -18 0 -33 -13 -58 -52z m47 -70 c3 -40 4 -74 2 -76
-2 -2 -26 -2 -53 0 l-51 3 42 72 c23 40 45 72 48 73 4 0 9 -33 12 -72z"/>
<path d="M2280 3335 c-10 -13 -9 -15 10 -15 16 0 20 -4 16 -16 -3 -9 -6 -24
-6 -35 0 -15 -7 -19 -37 -19 -76 0 -144 -59 -159 -136 -18 -95 57 -152 117
-88 l24 26 5 -24 c7 -28 60 -38 80 -14 11 14 9 16 -9 16 -11 0 -21 4 -21 10 0
5 14 74 30 153 17 80 30 147 30 151 0 13 -68 5 -80 -9z m-2 -121 c11 -19 -1
-82 -23 -125 -27 -51 -78 -65 -96 -26 -33 72 82 217 119 151z"/>
<path d="M2618 3342 c-52 -3 -63 -18 -23 -28 18 -4 24 -11 21 -23 -3 -9 -17
-66 -31 -128 -22 -93 -31 -114 -52 -128 -13 -9 -22 -19 -19 -23 4 -3 55 -5
115 -5 140 2 191 25 231 103 42 84 28 171 -34 209 -32 20 -115 29 -208 23z
m173 -51 c25 -25 29 -37 29 -82 0 -64 -31 -134 -69 -153 -63 -33 -131 -31
-131 3 0 22 49 241 56 253 3 4 23 8 45 8 31 0 47 -7 70 -29z"/>
<path d="M3213 3343 c-18 -7 -16 -23 2 -23 20 0 19 -15 -11 -161 -15 -70 -24
-134 -21 -144 5 -11 16 -15 39 -13 34 3 52 28 20 28 -20 0 -16 28 42 288 7 31
7 32 -26 31 -18 0 -39 -3 -45 -6z"/>
<path d="M3404 3339 c-3 -6 1 -18 10 -27 15 -15 17 -15 32 0 19 19 11 38 -16
38 -10 0 -22 -5 -26 -11z"/>
<path d="M141 3291 c-8 -14 -6 -22 9 -36 17 -16 19 -16 29 4 15 26 14 29 -9
41 -15 8 -21 6 -29 -9z"/>
<path d="M1766 3282 c-8 -15 -26 -34 -40 -42 -29 -15 -34 -30 -11 -30 19 0 19
-12 -1 -104 -9 -41 -14 -82 -11 -90 7 -18 49 -21 78 -6 27 15 24 32 -6 24 -30
-8 -31 0 -9 97 14 63 19 72 45 81 35 12 38 28 5 28 -23 0 -24 3 -19 35 7 43
-10 47 -31 7z"/>
<path d="M4821 3296 c-16 -19 -8 -46 13 -46 20 0 29 31 13 47 -12 12 -16 12
-26 -1z"/>
<path d="M858 3235 c-55 -30 -48 -83 17 -120 54 -32 64 -54 35 -77 -31 -25
-55 -22 -78 10 l-21 27 -9 -25 c-13 -33 8 -50 64 -50 53 0 88 15 104 45 21 39
5 69 -50 99 -59 32 -72 53 -45 72 27 20 63 17 77 -6 17 -27 38 -25 38 4 0 16
-7 26 -22 30 -38 10 -81 6 -110 -9z"/>
<path d="M1096 3229 c-17 -13 -26 -30 -26 -49 0 -29 19 -49 79 -82 32 -18 40
-45 19 -66 -19 -19 -63 -14 -83 8 -24 27 -45 25 -45 -4 0 -18 7 -25 26 -29 47
-9 114 0 134 18 44 40 33 83 -30 115 -68 35 -72 69 -8 85 21 5 29 2 38 -14 14
-27 40 -27 40 -1 0 41 -99 54 -144 19z"/>
<path d="M1496 3229 c-17 -13 -26 -30 -26 -49 0 -29 19 -49 79 -82 44 -24 41
-54 -5 -67 -39 -11 -60 -7 -68 15 -9 24 -36 16 -36 -10 0 -26 21 -36 80 -36
46 0 82 19 98 53 18 37 4 59 -58 93 -46 25 -65 55 -42 67 30 17 63 16 79 -3
22 -26 43 -26 43 0 0 41 -99 54 -144 19z"/>
<path d="M1941 3233 c-75 -37 -110 -158 -61 -211 28 -29 93 -30 140 0 36 21
28 38 -9 19 -30 -17 -88 -14 -95 5 -15 39 -6 52 47 70 93 30 107 40 107 79 0
55 -59 72 -129 38z m78 -17 c27 -32 -30 -86 -90 -86 -16 0 -17 4 -7 30 10 31
51 70 73 70 7 0 18 -6 24 -14z"/>
<path d="M3014 3236 c-84 -37 -123 -178 -61 -221 27 -19 77 -19 122 -1 45 19
47 38 3 25 -58 -16 -87 -12 -100 16 -15 32 -8 38 72 67 80 29 104 60 77 102
-20 30 -61 34 -113 12z m70 -21 c11 -29 -15 -64 -60 -79 -32 -11 -44 -12 -44
-3 0 22 40 78 63 87 31 12 34 12 41 -5z"/>
<path d="M3819 3227 c-40 -26 -79 -98 -79 -145 0 -46 37 -82 85 -82 42 0 105
24 105 41 0 7 -6 8 -17 3 -10 -4 -37 -9 -60 -12 -38 -4 -44 -1 -55 22 -15 35
-2 47 74 70 81 24 108 66 68 106 -27 27 -79 26 -121 -3z m80 -50 c-12 -26 -21
-32 -71 -47 -38 -12 -41 0 -12 44 30 43 63 60 82 42 10 -10 11 -18 1 -39z"/>
<path d="M4119 3208 l-38 -42 9 37 c8 36 7 37 -20 37 -34 0 -60 -9 -60 -21 0
-5 7 -9 15 -9 19 0 18 -5 -4 -112 l-18 -88 22 0 c18 0 24 10 38 58 10 35 30
73 53 101 33 38 39 41 49 27 15 -20 31 -20 39 0 26 67 -27 75 -85 12z"/>
<path d="M1310 3230 c-12 -8 -11 -11 8 -16 13 -4 21 -12 19 -18 -15 -40 -39
-166 -34 -180 8 -20 60 -21 77 -1 10 13 9 15 -9 15 -11 0 -21 3 -21 6 0 6 37
156 46 187 4 14 -1 17 -33 17 -21 0 -45 -5 -53 -10z"/>
<path d="M3353 3233 c-20 -7 -15 -23 6 -23 19 0 19 -1 0 -72 -31 -120 -23
-149 36 -134 29 7 34 26 6 26 -19 0 -18 4 8 105 l28 105 -36 -1 c-20 0 -42 -3
-48 -6z"/>
<path d="M3496 3231 c-4 -5 1 -14 9 -19 11 -5 21 -41 32 -105 14 -87 18 -97
37 -97 16 0 36 25 84 104 34 57 62 109 62 116 0 15 -62 9 -68 -7 -2 -7 4 -13
13 -13 13 0 9 -14 -22 -70 -21 -38 -41 -70 -45 -70 -7 0 -10 15 -26 115 -7 47
-9 50 -39 53 -17 2 -34 -1 -37 -7z"/>
<path d="M4240 3231 c-25 -7 -25 -8 -3 -15 25 -8 26 -12 48 -116 20 -98 19
-112 -6 -144 -25 -31 -49 -34 -49 -5 0 29 -24 18 -28 -13 -2 -19 2 -27 17 -31
50 -13 58 -4 184 205 26 42 51 88 57 102 9 25 8 26 -25 26 -38 0 -53 -14 -29
-28 15 -8 12 -17 -21 -77 -43 -77 -47 -75 -65 33 -14 78 -18 81 -80 63z"/>
<path d="M106 3167 c-15 -11 -15 -15 -2 -32 12 -16 16 -17 30 -6 32 27 6 63
-28 38z"/>
<path d="M4859 3164 c-16 -20 2 -38 30 -29 26 8 27 17 2 32 -16 10 -22 9 -32
-3z"/>
<path d="M77 3043 c-4 -3 -7 -15 -7 -25 0 -21 32 -25 49 -5 17 22 -22 50 -42
30z"/>
<path d="M4891 3036 c-10 -12 -10 -20 0 -37 11 -22 12 -22 25 -4 17 24 17 30
0 44 -10 9 -16 8 -25 -3z"/>
<path d="M45 2910 c-9 -15 4 -50 20 -50 18 0 28 30 14 46 -14 17 -25 18 -34 4z"/>
<path d="M4910 2904 c-11 -12 -10 -18 3 -31 15 -15 18 -15 37 2 19 17 19 19 2
31 -22 17 -27 17 -42 -2z"/>
<path d="M2480 2834 c-177 -20 -339 -65 -470 -131 -341 -173 -581 -486 -661
-863 -30 -139 -32 -373 -5 -500 112 -525 512 -909 1035 -996 136 -22 357 -15
481 16 512 126 876 516 957 1024 24 154 14 366 -25 516 -120 464 -490 815
-960 909 -95 20 -283 33 -352 25z m329 -209 c122 -32 231 -77 327 -135 79 -48
174 -119 174 -130 0 -4 -53 -54 -117 -111 -65 -57 -305 -268 -533 -469 -228
-201 -533 -470 -679 -598 l-265 -232 -34 52 c-101 157 -170 369 -179 553 -4
102 -2 120 30 248 38 147 103 296 175 401 145 210 401 373 692 437 119 26 270
20 409 -16z m696 -521 c134 -242 179 -464 136 -670 -81 -393 -276 -654 -605
-814 -294 -142 -562 -148 -872 -19 -123 51 -319 179 -311 202 4 12 77 78 546
491 286 251 396 349 801 705 183 161 245 210 252 200 4 -8 29 -50 53 -95z"/>
<path d="M1865 2031 c-33 -14 -58 -50 -58 -82 0 -39 28 -76 91 -118 28 -19 50
-36 49 -37 -1 -2 -34 6 -72 17 -124 35 -161 14 -151 -85 13 -124 159 -249 291
-250 60 0 129 35 159 82 l19 29 41 -48 c23 -26 44 -48 49 -48 17 -2 5 29 -29
73 -20 26 -34 49 -31 52 11 11 38 -12 62 -53 33 -55 44 -51 16 6 -12 22 -21
42 -21 45 0 3 31 2 69 -1 41 -3 71 -2 74 4 9 14 -192 34 -215 22 -9 -5 -27
-27 -40 -50 -29 -51 -90 -89 -145 -89 -96 0 -227 82 -264 165 -21 46 -25 115
-7 133 7 7 27 12 44 12 38 0 254 -73 303 -103 52 -31 370 -63 385 -38 3 5 -45
10 -108 12 -63 2 -117 7 -121 10 -3 4 3 22 14 40 41 66 21 139 -56 209 -68 64
-141 92 -243 97 -47 1 -94 -1 -105 -6z m214 -32 c87 -30 163 -97 183 -161 9
-32 8 -43 -13 -85 -35 -71 -49 -69 -227 32 -139 79 -202 128 -202 159 0 26 33
56 78 70 53 17 101 13 181 -15z"/>
<path d="M1900 1999 c-13 -5 -28 -15 -32 -22 -15 -23 -8 -64 15 -84 30 -28
272 -163 292 -163 51 0 79 62 55 120 -20 47 -105 118 -162 135 -70 21 -139 27
-168 14z m152 -35 c109 -31 191 -132 154 -189 -9 -14 -24 -25 -33 -25 -18 0
-197 98 -250 137 -37 27 -50 58 -33 78 17 20 89 19 162 -1z"/>
<path d="M1772 1778 c-18 -18 -15 -64 7 -106 50 -97 181 -159 279 -132 46 12
82 50 82 86 0 27 -28 43 -203 118 -112 48 -145 54 -165 34z m155 -54 c138 -57
183 -82 183 -102 0 -77 -146 -89 -240 -21 -63 46 -108 131 -79 150 24 15 45
10 136 -27z"/>
<path d="M2876 1661 c-3 -3 32 -15 77 -24 115 -25 291 -113 361 -180 69 -67
95 -130 75 -183 -29 -75 -112 -99 -195 -55 -53 28 -71 45 -133 123 -65 81
-159 159 -235 194 -78 36 -92 25 -20 -15 93 -53 166 -115 254 -217 86 -99 130
-130 203 -140 49 -7 87 8 127 51 20 21 25 37 25 78 -1 134 -138 266 -340 326
-104 31 -194 50 -199 42z"/>
<path d="M2834 1623 c4 -4 52 -17 107 -30 169 -37 330 -135 382 -231 34 -63
34 -85 0 -112 -57 -45 -134 -5 -243 125 -82 98 -152 157 -228 192 -78 37 -85
22 -7 -16 67 -33 138 -97 265 -237 89 -98 171 -128 225 -81 33 28 44 91 23
132 -46 86 -265 220 -410 249 -83 17 -126 20 -114 9z"/>
<path d="M2460 1301 c0 -12 78 -82 120 -108 19 -12 64 -31 100 -44 58 -20 86
-22 265 -23 273 -2 315 -17 315 -111 0 -50 -24 -79 -89 -108 -158 -70 -432 5
-589 161 -37 37 -87 97 -111 134 -46 69 -79 85 -39 20 96 -159 242 -277 420
-339 237 -83 492 34 412 188 -30 58 -79 70 -323 79 -159 5 -228 12 -260 24
-46 17 -170 95 -191 121 -14 17 -30 20 -30 6z"/>
<path d="M2440 1279 c0 -16 95 -133 159 -194 65 -63 195 -139 284 -167 95 -29
202 -22 282 16 70 35 87 65 59 104 -42 56 -77 64 -287 67 -165 2 -201 5 -258
23 -76 25 -173 85 -212 131 -15 18 -27 27 -27 20z m215 -160 l80 -32 205 -1
c218 -2 236 -5 266 -51 22 -34 13 -50 -47 -80 -62 -32 -165 -43 -236 -26 -90
22 -243 106 -313 171 -36 34 -58 59 -50 56 8 -3 51 -19 95 -37z"/>
<path d="M30 2775 c-19 -22 5 -48 31 -34 10 5 19 14 19 19 0 5 -9 14 -19 19
-14 8 -22 7 -31 -4z"/>
<path d="M4925 2770 c-3 -5 -1 -19 6 -31 10 -19 12 -20 26 -6 9 9 13 23 10 31
-7 18 -32 21 -42 6z"/>
<path d="M21 2648 c-11 -17 -10 -23 2 -35 18 -18 37 -9 37 16 0 31 -24 43 -39
19z"/>
<path d="M4936 2641 c-8 -13 4 -41 18 -41 6 0 19 6 28 14 13 10 15 15 6 24
-14 14 -45 16 -52 3z"/>
<path d="M18 2513 c-25 -6 -22 -30 3 -38 25 -8 44 7 36 29 -7 16 -9 17 -39 9z"/>
<path d="M4945 2506 c-19 -14 -19 -15 -1 -35 l19 -21 15 21 c12 18 12 23 0 35
-12 12 -17 12 -33 0z"/>
<path d="M19 2374 c-10 -12 -9 -18 3 -31 14 -14 19 -14 37 -1 17 12 19 17 9
25 -27 21 -36 22 -49 7z"/>
<path d="M4934 2369 c-3 -6 0 -18 9 -26 12 -12 19 -13 36 -3 18 9 20 14 10 26
-14 17 -45 19 -55 3z"/>
<path d="M4930 2244 c-11 -12 -10 -18 3 -32 21 -21 42 -3 32 27 -8 25 -18 27
-35 5z"/>
<path d="M26 2233 c-4 -9 -1 -23 7 -30 12 -12 16 -12 26 1 16 19 8 46 -13 46
-7 0 -17 -8 -20 -17z"/>
<path d="M53 2113 c-18 -7 -16 -32 2 -39 23 -9 48 15 34 32 -12 15 -16 16 -36
7z"/>
<path d="M4909 2104 c-10 -13 -10 -17 2 -25 20 -13 35 -11 48 5 10 12 8 17 -8
25 -25 14 -26 14 -42 -5z"/>
<path d="M70 1974 c-11 -12 -10 -18 3 -32 16 -15 18 -15 34 0 13 14 14 20 3
32 -7 9 -16 16 -20 16 -4 0 -13 -7 -20 -16z"/>
<path d="M4880 1975 c-15 -18 -5 -35 21 -35 24 0 37 29 18 41 -19 12 -25 11
-39 -6z"/>
<path d="M101 1852 c-7 -13 -6 -23 1 -30 28 -28 63 3 38 33 -16 20 -27 19 -39
-3z"/>
<path d="M4857 1853 c-12 -11 -8 -41 6 -46 7 -3 21 1 31 9 16 11 17 16 6 29
-13 16 -32 20 -43 8z"/>
<path d="M141 1721 c-16 -28 14 -51 36 -28 13 13 14 19 3 31 -17 21 -27 20
-39 -3z"/>
<path d="M4817 1723 c-24 -23 12 -55 38 -33 12 10 13 16 4 26 -12 15 -31 18
-42 7z"/>
<path d="M193 1599 c-16 -16 -5 -39 17 -39 25 0 35 18 20 35 -15 18 -22 19
-37 4z"/>
<path d="M4770 1595 c-15 -18 -5 -35 20 -35 10 0 22 5 25 10 7 11 -12 40 -25
40 -4 0 -13 -7 -20 -15z"/>
<path d="M4720 1481 c-10 -20 -4 -51 10 -51 19 0 31 29 20 49 -13 26 -17 26
-30 2z"/>
<path d="M240 1474 c-11 -12 -11 -18 2 -30 13 -13 20 -14 38 -4 21 11 21 12 4
31 -21 23 -28 24 -44 3z"/>
<path d="M4660 1355 c-19 -22 5 -48 31 -34 10 5 19 14 19 19 0 5 -9 14 -19 19
-14 8 -22 7 -31 -4z"/>
<path d="M295 1350 c-7 -11 11 -40 24 -40 3 0 15 7 26 16 17 13 18 16 5 24
-20 13 -47 12 -55 0z"/>
<path d="M4592 1248 c-17 -17 -15 -35 5 -42 22 -9 36 7 28 33 -7 24 -16 26
-33 9z"/>
<path d="M366 1234 c-11 -30 13 -44 43 -25 12 8 12 12 2 25 -17 20 -37 20 -45
0z"/>
<path d="M441 1128 c-11 -17 -10 -23 2 -35 18 -18 37 -9 37 16 0 31 -24 43
-39 19z"/>
<path d="M4516 1123 c-4 -9 0 -23 9 -32 13 -14 17 -14 32 1 13 14 14 20 3 32
-16 21 -36 20 -44 -1z"/>
<path d="M514 1015 c-8 -20 4 -35 26 -35 25 0 35 17 20 35 -16 19 -39 19 -46
0z"/>
<path d="M4440 1015 c-15 -18 -5 -35 20 -35 10 0 22 5 25 10 7 11 -12 40 -25
40 -4 0 -13 -7 -20 -15z"/>
<path d="M594 909 c-3 -6 0 -18 9 -26 12 -12 18 -13 35 -2 16 10 18 16 10 26
-13 16 -44 17 -54 2z"/>
<path d="M4354 905 c-4 -9 -2 -21 4 -27 15 -15 44 -1 40 19 -4 23 -36 29 -44
8z"/>
<path d="M690 820 c-13 -25 3 -52 26 -43 18 7 18 37 0 52 -12 10 -17 8 -26 -9z"/>
<path d="M4269 814 c-15 -18 0 -38 27 -32 25 5 28 25 6 37 -15 8 -23 7 -33 -5z"/>
<path d="M785 720 c-8 -12 3 -50 14 -50 5 0 14 7 21 15 10 12 10 18 0 30 -14
17 -26 19 -35 5z"/>
<path d="M4173 714 c-9 -24 11 -38 37 -24 17 9 19 14 9 26 -15 19 -38 18 -46
-2z"/>
<path d="M4076 635 c-6 -17 2 -45 14 -45 4 0 13 7 20 15 10 12 10 18 0 30 -7
8 -16 15 -20 15 -4 0 -10 -7 -14 -15z"/>
<path d="M887 633 c-24 -23 12 -55 38 -33 12 10 13 16 4 26 -12 15 -31 18 -42
7z"/>
<path d="M990 545 c-15 -18 -5 -35 20 -35 10 0 22 5 25 10 7 11 -12 40 -25 40
-4 0 -13 -7 -20 -15z"/>
<path d="M3973 549 c-6 -6 -9 -18 -6 -25 7 -18 37 -18 52 0 10 12 8 17 -8 25
-24 14 -24 14 -38 0z"/>
<path d="M1101 476 c-16 -19 -7 -46 14 -46 22 0 30 29 13 46 -13 13 -16 13
-27 0z"/>
<path d="M3861 466 c-14 -17 11 -41 34 -32 20 7 19 32 -1 40 -21 8 -20 8 -33
-8z"/>
<path d="M3750 400 c-12 -23 -6 -40 14 -40 24 0 36 23 22 43 -17 22 -23 22
-36 -3z"/>
<path d="M1210 395 c-23 -28 21 -50 48 -23 9 9 7 14 -6 24 -22 17 -27 17 -42
-1z"/>
<path d="M1325 330 c-8 -12 3 -50 14 -50 15 0 33 30 27 45 -6 17 -32 20 -41 5z"/>
<path d="M3635 330 c-8 -12 3 -50 14 -50 15 0 33 30 27 45 -6 17 -32 20 -41 5z"/>
<path d="M1440 274 c-11 -12 -11 -18 2 -30 16 -16 48 -9 48 10 0 13 -20 36
-31 36 -4 0 -12 -7 -19 -16z"/>
<path d="M3517 283 c-11 -10 -8 -41 4 -49 6 -3 18 1 27 9 13 13 13 19 2 31
-14 17 -23 20 -33 9z"/>
<path d="M1571 226 c-14 -16 -4 -46 14 -46 19 0 27 17 20 40 -7 23 -18 25 -34
6z"/>
<path d="M3390 215 c-11 -13 -11 -19 3 -33 20 -19 41 -5 35 24 -4 24 -22 28
-38 9z"/>
<path d="M1692 179 c-12 -18 -11 -24 2 -37 22 -22 41 -2 32 32 -8 32 -17 33
-34 5z"/>
<path d="M3273 183 c-18 -6 -16 -42 2 -49 16 -6 45 12 45 27 0 12 -33 27 -47
22z"/>
<path d="M1820 134 c-11 -12 -10 -18 3 -32 16 -15 18 -15 34 0 13 14 14 20 3
32 -16 20 -24 20 -40 0z"/>
<path d="M3140 134 c-11 -12 -10 -18 3 -32 16 -15 18 -15 34 0 13 14 14 20 3
32 -16 20 -24 20 -40 0z"/>
<path d="M1944 99 c-3 -6 1 -18 10 -27 15 -15 17 -15 32 0 19 19 11 38 -16 38
-10 0 -22 -5 -26 -11z"/>
<path d="M3003 94 c-3 -8 1 -22 9 -30 13 -13 16 -13 27 0 7 9 11 23 7 31 -7
20 -35 19 -43 -1z"/>
<path d="M2080 75 c-23 -28 21 -50 48 -23 9 9 7 14 -6 24 -22 17 -27 17 -42
-1z"/>
<path d="M2874 76 c-3 -8 0 -24 6 -36 9 -17 14 -19 26 -9 19 15 18 45 -2 53
-22 8 -24 8 -30 -8z"/>
<path d="M2213 54 c-8 -20 9 -36 30 -28 21 8 22 30 1 38 -22 8 -24 8 -31 -10z"/>
<path d="M2745 60 c-8 -12 3 -50 14 -50 15 0 33 30 27 45 -6 17 -32 20 -41 5z"/>
<path d="M2347 53 c-24 -23 12 -55 38 -33 12 10 13 16 4 26 -12 15 -31 18 -42
7z"/>
<path d="M2612 48 c-13 -13 2 -38 23 -38 21 0 36 25 23 38 -15 15 -31 15 -46
0z"/>
<path d="M2470 41 c0 -37 32 -55 44 -25 10 27 7 34 -19 34 -14 0 -25 -4 -25
-9z"/>
</g>
</svg>
