<?xml version="1.0" standalone="no"?>
<!DOCTYPE svg PUBLIC "-//W3C//DTD SVG 20010904//EN"
 "http://www.w3.org/TR/2001/REC-SVG-20010904/DTD/svg10.dtd">
<svg version="1.0" xmlns="http://www.w3.org/2000/svg"
 width="500.000000pt" height="500.000000pt" viewBox="0 0 500.000000 500.000000"
 preserveAspectRatio="xMidYMid meet">
<metadata>
Created by potrace 1.15, written by Peter Selinger 2001-2017
</metadata>
<g transform="translate(0.000000,500.000000) scale(0.100000,-0.100000)"
fill="#000000" stroke="none">
<path d="M2350 4976 c-16 -30 -2 -53 24 -43 19 8 20 27 3 51 -12 16 -14 16
-27 -8z"/>
<path d="M2616 4975 c-7 -20 3 -45 19 -45 19 0 27 17 20 40 -7 24 -30 26 -39
5z"/>
<path d="M2474 4969 c-3 -6 0 -18 9 -26 12 -12 18 -13 35 -2 16 10 18 16 10
26 -13 16 -44 17 -54 2z"/>
<path d="M2214 4955 c-13 -32 23 -48 47 -19 10 13 10 17 -2 25 -21 13 -39 11
-45 -6z"/>
<path d="M2747 4956 c-9 -24 18 -39 44 -25 22 11 22 12 4 25 -24 18 -41 18
-48 0z"/>
<path d="M2090 4945 c-12 -15 -8 -45 8 -45 4 0 16 6 26 13 16 12 16 14 -2 30
-17 16 -21 16 -32 2z"/>
<path d="M2887 4953 c-11 -10 -8 -41 4 -49 6 -3 18 1 27 9 13 13 13 19 2 31
-14 17 -23 20 -33 9z"/>
<path d="M1950 4915 c-11 -13 -11 -19 3 -33 20 -19 41 -5 35 24 -4 24 -22 28
-38 9z"/>
<path d="M3011 4916 c-15 -18 11 -40 39 -31 25 8 26 21 1 35 -25 13 -26 13
-40 -4z"/>
<path d="M1821 4887 c-8 -10 -7 -18 2 -31 11 -15 15 -15 32 -2 16 12 17 16 6
30 -16 19 -25 20 -40 3z"/>
<path d="M3153 4893 c-15 -5 -17 -39 -3 -48 9 -6 50 15 50 25 0 10 -35 27 -47
23z"/>
<path d="M1697 4848 c-16 -12 -16 -15 -1 -36 l16 -23 15 21 c13 19 13 24 1 36
-11 12 -17 12 -31 2z"/>
<path d="M3264 4839 c-3 -6 1 -18 10 -27 16 -16 18 -16 31 2 8 10 12 23 9 27
-7 13 -42 11 -50 -2z"/>
<path d="M3400 4805 c-16 -29 -3 -49 23 -39 20 7 21 23 3 46 -12 16 -14 16
-26 -7z"/>
<path d="M1566 4794 c-4 -10 0 -24 9 -33 14 -14 17 -14 25 -1 6 8 9 22 7 30
-3 21 -33 24 -41 4z"/>
<path d="M1451 4756 c-16 -19 -7 -46 14 -46 22 0 30 29 13 46 -13 13 -16 13
-27 0z"/>
<path d="M3520 4745 c-11 -13 -11 -19 3 -33 20 -19 41 -5 35 24 -4 24 -22 28
-38 9z"/>
<path d="M1324 4685 c-12 -29 15 -45 45 -26 12 8 12 12 2 25 -17 20 -40 21
-47 1z"/>
<path d="M3640 4685 c-15 -18 -5 -35 20 -35 10 0 22 5 25 10 7 11 -12 40 -25
40 -4 0 -13 -7 -20 -15z"/>
<path d="M1204 4619 c-3 -6 0 -18 9 -26 12 -12 18 -13 35 -2 16 10 18 16 10
26 -13 16 -44 17 -54 2z"/>
<path d="M3754 4615 c-13 -32 23 -48 47 -19 10 13 10 17 -2 25 -21 13 -39 11
-45 -6z"/>
<path d="M1094 4545 c-12 -29 15 -45 45 -26 12 8 12 12 2 25 -17 20 -40 21
-47 1z"/>
<path d="M3864 4545 c-13 -32 23 -48 47 -19 10 13 10 17 -2 25 -21 13 -39 11
-45 -6z"/>
<path d="M987 4466 c-3 -8 0 -20 8 -26 19 -16 59 8 43 27 -14 17 -45 17 -51
-1z"/>
<path d="M3970 4461 c0 -27 15 -34 40 -21 17 9 19 14 9 26 -17 21 -49 18 -49
-5z"/>
<path d="M4081 4396 c-16 -19 -7 -46 14 -46 22 0 30 29 13 46 -13 13 -16 13
-27 0z"/>
<path d="M887 4393 c-11 -10 -8 -41 4 -49 6 -3 18 1 27 9 13 13 13 19 2 31
-14 17 -23 20 -33 9z"/>
<path d="M784 4295 c-9 -23 15 -48 32 -34 19 15 18 35 -2 43 -22 8 -24 8 -30
-9z"/>
<path d="M4174 4295 c-4 -9 0 -24 10 -33 15 -15 18 -15 26 -2 6 8 9 22 7 30
-3 21 -36 25 -43 5z"/>
<path d="M4276 4214 c-11 -29 -6 -44 13 -44 26 0 34 15 21 40 -13 24 -26 26
-34 4z"/>
<path d="M692 4207 c-6 -7 -6 -21 -1 -36 9 -23 10 -23 29 -6 25 23 25 32 1 44
-13 8 -22 7 -29 -2z"/>
<path d="M4080 4174 c0 -12 7 -27 16 -35 21 -18 54 -84 54 -109 0 -12 11 -40
25 -63 20 -36 25 -57 26 -132 2 -53 -3 -106 -10 -129 -7 -21 -11 -53 -8 -71 4
-23 -1 -43 -19 -71 -16 -27 -22 -48 -18 -69 4 -27 -3 -38 -73 -107 -43 -43
-97 -91 -120 -107 -22 -16 -44 -35 -48 -41 -3 -6 -31 -29 -61 -51 -30 -22 -60
-52 -67 -67 -6 -15 -31 -49 -54 -76 -24 -26 -45 -58 -47 -70 -3 -11 -12 -52
-22 -91 -9 -38 -20 -102 -24 -141 -3 -38 -10 -75 -14 -82 -12 -20 13 -90 41
-112 36 -28 42 -16 9 19 -33 35 -38 91 -10 122 14 16 15 23 6 45 -19 40 -14
68 19 114 24 33 30 49 25 72 -7 36 3 57 61 124 23 28 43 58 43 67 0 29 44 65
100 81 42 12 59 22 72 45 9 16 35 39 58 51 30 15 46 32 59 63 10 23 33 53 51
65 28 21 31 28 26 57 -5 26 -1 42 19 71 26 39 30 60 16 83 -9 13 4 65 32 134
16 36 15 39 -4 58 -15 15 -19 28 -15 45 3 13 9 34 12 47 4 16 -3 36 -20 62
-14 21 -26 50 -26 65 0 18 -12 38 -36 61 -20 19 -44 48 -55 64 -17 26 -19 27
-19 9z"/>
<path d="M4365 4109 c-9 -28 9 -46 29 -30 12 10 13 18 5 32 -13 25 -26 24 -34
-2z"/>
<path d="M600 4104 c-11 -12 -10 -18 3 -31 15 -15 18 -15 37 2 19 17 19 19 2
31 -22 17 -27 17 -42 -2z"/>
<path d="M4240 4063 c0 -53 3 -63 20 -68 33 -10 42 -40 29 -86 -11 -34 -10
-44 4 -69 16 -27 16 -32 -10 -114 -22 -73 -24 -90 -14 -110 11 -20 10 -29 -7
-62 -10 -21 -25 -63 -32 -92 -9 -37 -20 -58 -40 -72 -25 -17 -27 -25 -23 -58
7 -50 -14 -72 -67 -72 -31 0 -43 -6 -57 -26 -45 -63 -64 -81 -102 -93 -29 -8
-41 -17 -41 -31 0 -11 -18 -31 -43 -49 -53 -36 -73 -65 -83 -117 -4 -21 -15
-50 -25 -63 -10 -12 -21 -38 -24 -57 -3 -19 -8 -50 -11 -70 -5 -33 -3 -35 15
-29 12 3 21 2 21 -3 0 -12 -27 -72 -43 -95 -10 -15 -7 -22 29 -52 36 -30 59
-68 78 -128 4 -13 12 -16 25 -12 17 5 121 -37 121 -49 0 -2 -11 -29 -25 -60
-19 -44 -29 -56 -43 -52 -91 24 -115 14 -126 -53 -6 -39 -8 -41 -41 -41 -19 0
-35 -3 -35 -7 0 -5 31 -28 68 -53 36 -25 94 -71 129 -103 54 -51 63 -65 74
-114 11 -47 14 -52 21 -33 11 29 -6 82 -43 137 -16 23 -29 44 -29 47 0 3 15 6
33 6 17 0 51 11 74 24 24 14 44 22 47 18 2 -4 9 -24 16 -46 10 -32 14 -36 26
-25 10 11 11 23 2 57 -10 41 -9 45 18 73 26 28 27 29 6 29 -17 0 -22 8 -27 38
-3 20 -13 52 -20 70 -17 37 -41 45 -31 10 18 -60 17 -84 -6 -128 -29 -56 -78
-90 -131 -90 -32 0 -46 7 -78 39 -46 46 -52 72 -10 42 39 -28 50 -26 21 4 -29
31 -23 38 19 24 42 -15 51 -5 13 15 -50 26 -47 36 9 33 l51 -2 14 47 c23 75
77 105 133 74 31 -17 116 -165 131 -228 32 -130 -32 -268 -138 -298 -20 -5
-49 -10 -63 -10 -39 0 -54 -22 -40 -61 16 -47 13 -77 -10 -102 -20 -22 -20
-22 -35 -2 -15 19 -15 19 -12 -10 2 -23 9 -31 26 -33 13 -2 21 -9 19 -15 -6
-20 -42 -19 -62 3 -19 21 -45 27 -45 10 0 -5 16 -28 36 -50 27 -30 35 -46 30
-63 -8 -35 -88 -154 -93 -139 -9 26 -41 33 -73 17 -44 -23 -119 -35 -170 -27
-44 6 -43 6 39 18 77 12 113 26 99 39 -3 4 -43 -1 -88 -9 -91 -18 -146 -20
-154 -8 -3 5 24 14 59 21 35 7 70 20 76 27 11 13 0 14 -78 8 -93 -7 -143 -1
-143 16 0 6 24 11 53 11 l52 1 -40 9 c-22 4 -62 8 -89 8 -27 1 -46 4 -42 8 3
4 29 6 57 4 35 -2 49 1 44 8 -3 6 -13 11 -21 11 -8 0 -14 7 -14 15 0 12 -14
15 -64 15 -74 0 -92 12 -102 66 -10 54 0 114 31 182 25 57 30 62 69 71 33 7
35 9 14 10 -16 1 -28 6 -28 11 0 15 59 49 98 56 41 8 42 24 1 24 -27 0 -30 3
-24 23 12 38 45 86 75 107 15 11 67 34 116 51 106 37 126 50 149 93 18 33 18
34 -3 61 -22 27 -30 79 -14 89 5 3 29 -3 55 -12 25 -9 49 -14 52 -10 11 11
-15 48 -34 48 -24 0 -42 22 -50 63 -10 49 -37 47 -44 -3 -7 -56 -22 -70 -73
-70 -49 0 -68 -15 -95 -75 -25 -54 -24 -84 6 -127 l25 -37 -22 -6 c-64 -21
-111 -63 -180 -163 -88 -127 -111 -147 -176 -155 -64 -8 -99 -26 -167 -87 -30
-27 -71 -53 -92 -59 -21 -6 -79 -22 -130 -36 -86 -23 -93 -24 -129 -9 -25 11
-51 14 -80 9 -29 -4 -126 9 -325 45 -155 27 -296 50 -313 50 -61 -1 -1 -19
200 -60 447 -91 481 -102 531 -165 35 -44 82 -160 83 -203 0 -18 -7 -47 -16
-63 l-15 -30 29 15 c85 44 51 190 -75 327 -32 34 -50 60 -40 56 10 -4 23 -7
28 -7 5 0 28 -17 51 -38 30 -26 57 -69 96 -150 30 -62 56 -111 58 -109 14 14
-60 172 -114 245 -14 18 -23 35 -20 37 2 3 51 16 109 31 82 20 114 33 154 64
124 94 239 148 220 103 -34 -83 -41 -172 -19 -264 5 -23 -3 -33 -70 -89 -42
-35 -74 -65 -72 -67 2 -3 32 14 65 36 33 23 62 37 65 32 3 -5 -1 -14 -10 -21
-22 -19 -50 -61 -59 -89 -6 -18 3 -13 37 23 25 25 52 46 61 46 15 0 14 -5 -7
-39 -14 -21 -32 -55 -40 -75 -17 -42 -40 -54 -163 -85 -68 -18 -108 -21 -235
-19 -196 2 -484 -27 -753 -76 -44 -9 -109 -20 -145 -27 -36 -6 -69 -16 -75
-21 -17 -18 145 -1 405 43 144 23 296 42 370 46 l125 5 -25 -25 c-19 -19 -93
-47 -285 -110 -143 -47 -269 -87 -280 -90 -16 -4 -14 -5 7 -6 28 -1 346 92
528 154 107 37 165 44 211 27 74 -29 199 -219 199 -303 0 -47 -15 -64 -106
-117 -112 -64 -651 -342 -665 -342 -7 0 -9 -3 -6 -6 10 -10 50 8 360 158 186
91 302 142 330 145 103 11 106 12 146 66 33 45 55 60 152 110 100 51 132 61
259 87 219 44 338 114 447 262 27 37 51 57 89 74 74 33 91 72 58 135 -15 29
-14 32 15 77 46 73 70 150 102 325 17 89 35 190 41 223 9 48 9 77 -1 131 -13
65 -12 72 9 119 54 122 56 233 4 309 -19 28 -22 40 -14 55 5 10 10 31 10 45 0
14 4 35 10 45 11 21 113 75 182 96 96 29 103 100 21 199 -19 21 -43 65 -54 96
-25 69 -63 93 -149 94 -72 0 -78 -21 -21 -73 41 -37 46 -48 43 -109 l-2 -33
-58 0 c-47 0 -67 -6 -105 -30 l-47 -29 6 43 c5 36 3 47 -15 65 -13 13 -30 20
-44 17 -12 -3 -43 -8 -69 -11 -51 -7 -63 2 -54 40 6 25 45 46 142 79 71 23
113 69 123 134 4 29 15 60 23 70 28 31 57 98 79 183 18 68 22 113 23 234 1
144 0 153 -28 220 -16 39 -35 79 -43 90 -11 17 -13 12 -13 -42z m97 -874 c46
-17 82 -59 98 -116 9 -31 30 -70 50 -92 19 -21 35 -47 35 -57 0 -35 -29 -64
-63 -64 -21 0 -41 -10 -63 -31 -26 -25 -44 -33 -83 -37 -56 -5 -61 -13 -61
-95 0 -53 1 -53 -76 -21 l-33 14 48 45 c73 69 76 111 9 174 -32 31 -32 32 -14
46 26 19 133 19 166 0 28 -16 80 -20 80 -6 0 4 -18 20 -40 35 -38 25 -39 27
-42 93 -3 68 -3 68 -41 86 -56 28 -32 50 30 26z m-387 -184 c13 -14 27 -25 31
-25 4 0 10 11 13 25 9 34 22 31 36 -7 l13 -33 6 30 c11 52 36 37 39 -23 3 -51
4 -53 47 -73 23 -11 51 -29 60 -39 15 -17 15 -20 -1 -51 -28 -54 -119 -135
-189 -169 -72 -34 -79 -54 -20 -56 27 -1 43 -8 55 -25 l18 -23 7 37 c9 49 49
81 89 73 77 -16 147 -98 148 -175 0 -22 -12 -77 -28 -122 l-28 -81 -64 67
c-83 86 -95 93 -176 104 -69 10 -141 40 -163 69 -18 24 -16 145 2 189 32 77
77 104 189 112 50 4 81 11 84 19 2 8 -10 12 -42 12 -49 0 -108 20 -137 46 -10
9 -41 28 -70 43 -53 27 -74 51 -44 51 9 0 30 -7 46 -16 37 -19 42 -15 43 31 1
42 5 43 36 10z m-70 -121 c22 -15 40 -30 40 -34 0 -4 -24 -26 -52 -48 l-53
-41 -17 22 c-10 12 -18 26 -18 31 0 11 49 96 56 96 2 0 22 -12 44 -26z m-300
-543 c0 -6 15 -7 34 -4 19 3 42 1 52 -5 15 -9 12 -12 -24 -23 -23 -7 -42 -16
-42 -21 0 -5 8 -7 18 -4 46 13 82 17 82 9 0 -5 -24 -21 -52 -35 -43 -22 -48
-27 -28 -27 14 -1 40 8 58 19 17 11 32 16 32 11 0 -12 -68 -71 -81 -71 -6 0
-26 15 -45 34 -34 34 -43 71 -28 110 7 17 24 22 24 7z m606 -632 c-15 -82 -57
-184 -97 -240 -18 -25 -26 -29 -48 -24 -34 9 -36 12 -21 30 7 9 8 15 2 15 -6
0 -19 -12 -30 -27 -11 -16 -23 -25 -26 -22 -3 3 9 52 27 110 l33 104 39 5 40
5 -3 43 c-3 41 -1 47 45 88 47 44 48 44 51 19 2 -13 -4 -61 -12 -106z m-129 4
c-21 -22 -32 -11 -17 17 9 16 15 19 23 11 8 -8 7 -16 -6 -28z m13 -318 c44
-23 50 -62 15 -92 -19 -17 -35 -23 -51 -19 -19 5 -31 -5 -79 -69 -116 -154
-228 -228 -362 -240 -129 -12 -229 -50 -404 -154 l-37 -22 -11 63 c-20 117
-98 233 -199 298 -25 16 -33 13 201 72 32 8 42 16 57 51 26 59 69 97 116 103
27 4 35 3 25 -4 -10 -8 -7 -11 15 -16 35 -7 156 -26 167 -26 20 0 -6 -18 -35
-24 -32 -6 -114 -54 -106 -61 2 -2 34 7 72 21 59 21 85 24 202 25 74 0 138 -3
144 -6 5 -3 26 13 47 36 21 23 52 50 68 61 37 22 115 24 155 3z m-1072 -336
c106 -121 129 -184 97 -269 -9 -25 -19 -55 -22 -67 -3 -13 -12 -23 -20 -23
-17 0 -15 18 11 87 25 68 8 121 -79 247 -41 58 -71 106 -66 106 4 0 40 -36 79
-81z"/>
<path d="M516 4001 c-9 -14 4 -41 19 -41 7 0 18 7 26 16 10 13 10 17 -2 25
-18 11 -36 11 -43 0z"/>
<path d="M4435 4000 c-11 -17 18 -42 39 -34 9 4 16 14 14 23 -4 19 -43 27 -53
11z"/>
<path d="M4532 3898 c-16 -16 -15 -33 2 -47 22 -18 44 25 24 45 -11 11 -16 12
-26 2z"/>
<path d="M435 3890 c-3 -5 -1 -19 5 -30 9 -17 14 -19 26 -9 21 17 18 49 -5 49
-11 0 -23 -4 -26 -10z"/>
<path d="M932 3798 c-17 -17 -15 -48 4 -55 8 -3 23 2 32 11 15 15 15 18 -4 36
-15 16 -22 18 -32 8z"/>
<path d="M2442 3798 c-17 -17 -15 -48 4 -55 8 -3 22 1 31 9 12 13 13 19 1 37
-15 24 -20 25 -36 9z"/>
<path d="M3052 3798 c-17 -17 -15 -48 4 -55 8 -3 23 2 32 11 15 15 15 18 -4
36 -15 16 -22 18 -32 8z"/>
<path d="M4599 3787 c-11 -24 -11 -30 1 -37 9 -5 19 -5 27 2 16 13 16 20 -1
43 -14 19 -15 19 -27 -8z"/>
<path d="M1080 3785 c-10 -12 -10 -18 0 -30 16 -19 34 -19 51 1 11 14 10 18
-6 30 -24 18 -30 18 -45 -1z"/>
<path d="M1216 3784 c-6 -16 9 -54 22 -54 29 0 42 54 16 64 -24 9 -31 7 -38
-10z"/>
<path d="M1380 3784 c-10 -11 -11 -20 -4 -32 15 -23 28 -24 41 -3 10 15 9 22
-6 35 -17 15 -19 15 -31 0z"/>
<path d="M1524 3785 c-15 -39 30 -62 57 -29 11 14 10 18 -6 30 -25 18 -44 18
-51 -1z"/>
<path d="M1674 3786 c-7 -19 14 -58 28 -54 23 8 32 36 19 52 -17 20 -40 21
-47 2z"/>
<path d="M1840 3785 c-15 -18 -6 -45 13 -45 8 0 20 7 27 15 10 12 10 18 0 30
-16 19 -24 19 -40 0z"/>
<path d="M1980 3785 c-10 -12 -10 -18 0 -30 25 -30 67 -7 49 27 -12 22 -32 23
-49 3z"/>
<path d="M2140 3785 c-10 -12 -10 -18 0 -30 16 -19 34 -19 50 0 11 13 10 18
-6 30 -24 18 -29 18 -44 0z"/>
<path d="M2292 3788 c-31 -31 5 -63 38 -33 19 17 19 19 2 31 -21 17 -25 17
-40 2z"/>
<path d="M2590 3785 c-10 -12 -10 -18 0 -30 16 -19 34 -19 51 1 11 14 10 18
-6 30 -24 18 -30 18 -45 -1z"/>
<path d="M2734 3785 c-7 -17 12 -45 31 -45 7 0 19 7 26 16 11 14 10 18 -6 30
-25 18 -44 18 -51 -1z"/>
<path d="M2897 3782 c-15 -16 -15 -21 -2 -38 14 -19 14 -19 35 2 20 20 20 21
2 37 -18 16 -20 16 -35 -1z"/>
<path d="M3190 3785 c-10 -12 -10 -18 0 -30 16 -19 34 -19 51 1 11 14 10 18
-6 30 -24 18 -30 18 -45 -1z"/>
<path d="M3347 3782 c-15 -16 -15 -21 -3 -37 12 -16 16 -17 30 -6 20 16 21 35
3 50 -11 8 -18 7 -30 -7z"/>
<path d="M3501 3786 c-12 -15 -5 -46 11 -46 5 0 18 5 29 11 20 10 20 11 3 30
-20 23 -28 24 -43 5z"/>
<path d="M3650 3785 c-10 -12 -10 -18 0 -30 16 -19 34 -19 51 1 11 14 10 18
-6 30 -24 18 -30 18 -45 -1z"/>
<path d="M3794 3785 c-7 -17 12 -45 31 -45 7 0 19 7 26 16 11 14 10 18 -6 30
-25 18 -44 18 -51 -1z"/>
<path d="M363 3774 c-3 -8 1 -22 9 -30 13 -13 16 -13 27 0 7 9 11 23 7 31 -7
20 -35 19 -43 -1z"/>
<path d="M302 3670 c-14 -23 -8 -40 12 -40 24 0 36 23 22 43 -17 22 -18 21
-34 -3z"/>
<path d="M4662 3673 c-18 -34 9 -58 36 -31 7 7 8 17 1 30 -12 23 -26 23 -37 1z"/>
<path d="M243 3549 c-6 -6 -9 -18 -6 -25 7 -18 37 -18 52 0 10 12 8 17 -8 25
-24 14 -24 14 -38 0z"/>
<path d="M4720 3545 c-15 -17 -5 -35 20 -35 22 0 33 23 17 39 -15 15 -22 14
-37 -4z"/>
<path d="M1577 3476 c-103 -28 -172 -121 -172 -232 0 -69 17 -102 73 -140 62
-42 162 -39 212 8 30 28 12 35 -41 14 -146 -59 -226 72 -143 236 28 55 66 85
121 94 61 9 86 -8 81 -57 -3 -32 0 -39 14 -39 17 0 23 11 33 71 l7 37 -52 11
c-62 13 -72 13 -133 -3z"/>
<path d="M2603 3473 c-20 -7 -15 -20 8 -26 24 -6 25 11 -22 -205 -16 -73 -29
-137 -29 -142 0 -6 11 -10 24 -10 24 0 36 16 36 48 0 47 89 182 119 182 16 0
14 -68 -4 -126 -23 -75 -20 -101 11 -108 17 -5 35 -1 50 9 29 19 31 29 4 22
-26 -7 -26 22 -1 122 37 142 -26 172 -124 59 -31 -37 -36 -39 -31 -18 3 14 14
64 25 113 l19 87 -37 -1 c-20 0 -42 -3 -48 -6z"/>
<path d="M190 3425 c-19 -22 5 -48 31 -34 10 5 19 14 19 19 0 5 -9 14 -19 19
-14 8 -22 7 -31 -4z"/>
<path d="M826 3400 c-14 -22 -37 -42 -51 -46 -30 -7 -34 -34 -5 -34 24 0 25 7
-1 -114 -21 -96 -21 -100 -3 -113 21 -16 34 -16 68 -3 37 14 34 38 -3 32 l-29
-4 19 88 c25 116 24 112 55 116 37 4 44 28 8 28 -26 0 -27 1 -21 45 4 25 3 45
-2 45 -5 0 -20 -18 -35 -40z"/>
<path d="M2175 3400 c-14 -22 -36 -42 -50 -46 -30 -7 -34 -34 -5 -34 24 0 24
6 0 -108 -10 -52 -16 -100 -13 -108 7 -20 44 -27 76 -15 37 14 36 39 -2 33
l-29 -4 19 88 c25 116 24 112 55 116 37 4 44 28 8 28 -26 0 -27 1 -21 45 8 56
-5 58 -38 5z"/>
<path d="M4783 3433 c-17 -6 -17 -38 0 -51 20 -17 44 25 25 43 -7 7 -19 11
-25 8z"/>
<path d="M1047 3355 c-104 -36 -153 -161 -91 -234 34 -41 79 -49 136 -23 57
25 95 71 103 125 15 102 -56 165 -148 132z m78 -35 c36 -40 -9 -199 -59 -208
-65 -13 -95 39 -70 124 8 29 24 64 35 78 25 32 68 34 94 6z"/>
<path d="M1887 3356 c-77 -28 -117 -89 -117 -178 0 -42 5 -59 20 -73 30 -27
75 -23 110 10 29 27 30 28 30 7 0 -41 80 -54 94 -15 5 12 1 14 -19 11 -14 -3
-25 -2 -25 1 0 4 11 50 25 102 13 51 25 100 25 107 0 28 -92 46 -143 28z m80
-32 c10 -27 -17 -123 -44 -154 -41 -49 -63 -57 -85 -30 -21 26 -22 40 -7 95
21 74 117 138 136 89z"/>
<path d="M2365 3337 c-70 -39 -105 -140 -70 -206 17 -34 33 -41 90 -41 49 0
91 16 99 36 7 18 -3 18 -47 -1 -47 -19 -53 -19 -77 5 -39 39 -19 145 36 189
36 28 78 25 82 -7 2 -15 9 -22 20 -20 21 4 29 48 10 59 -26 17 -102 9 -143
-14z"/>
<path d="M4821 3302 c-8 -15 -7 -23 5 -33 18 -15 38 0 32 27 -5 25 -25 28 -37
6z"/>
<path d="M142 3298 c-13 -13 2 -38 23 -38 21 0 36 25 23 38 -7 7 -17 12 -23
12 -6 0 -16 -5 -23 -12z"/>
<path d="M103 3164 c-9 -24 11 -38 36 -25 25 14 27 27 5 35 -25 9 -34 7 -41
-10z"/>
<path d="M4861 3167 c-9 -11 -8 -17 3 -26 18 -15 48 -3 44 18 -4 21 -32 26
-47 8z"/>
<path d="M77 3053 c-10 -10 -8 -41 3 -48 5 -3 19 -1 31 5 20 11 20 12 3 31
-18 20 -27 23 -37 12z"/>
<path d="M4893 3034 c-9 -24 11 -38 36 -25 25 14 27 27 5 35 -25 9 -34 7 -41
-10z"/>
<path d="M4915 2909 c-7 -20 7 -38 28 -39 14 0 19 30 7 45 -17 21 -27 19 -35
-6z"/>
<path d="M47 2913 c-12 -12 -7 -31 10 -37 9 -4 23 0 32 9 14 14 14 17 1 25
-18 11 -34 13 -43 3z"/>
<path d="M838 2823 c-25 -6 -22 -33 3 -33 17 0 20 -4 15 -27 -3 -16 -19 -91
-36 -167 -16 -77 -30 -144 -30 -148 0 -4 11 -8 24 -8 24 0 36 16 36 51 0 47
81 169 111 169 24 0 25 -33 4 -113 -19 -74 -19 -103 1 -111 26 -10 41 -7 65
15 l24 20 -27 -5 c-33 -8 -33 -9 -8 89 31 122 25 155 -29 155 -17 0 -40 -16
-73 -50 -38 -39 -47 -45 -43 -28 45 203 45 198 8 197 -16 -1 -36 -3 -45 -6z"/>
<path d="M2323 2823 c-7 -2 -13 -11 -13 -19 0 -9 5 -12 10 -9 23 14 20 -32 -9
-169 -17 -80 -28 -152 -25 -160 3 -8 24 -19 48 -25 109 -27 205 58 206 182 0
90 -70 117 -135 50 -19 -20 -35 -33 -35 -30 0 9 30 150 36 170 4 14 -1 17 -33
16 -21 0 -44 -3 -50 -6z m153 -178 c17 -27 11 -62 -27 -136 -21 -43 -70 -69
-94 -49 -47 39 31 206 97 210 4 0 15 -11 24 -25z"/>
<path d="M1590 2806 c0 -10 9 -16 25 -16 32 0 32 -16 0 -168 -34 -155 -32
-152 -61 -152 -15 0 -24 -6 -24 -16 0 -14 16 -16 133 -12 158 4 193 18 216 85
13 37 13 43 -3 68 -10 15 -27 30 -37 32 -22 6 -26 23 -6 23 7 0 25 13 40 28
35 37 36 80 1 113 -24 22 -34 24 -155 27 -112 3 -129 2 -129 -12z m225 -30
c22 -16 25 -71 4 -91 -14 -14 -125 -42 -134 -34 -2 3 3 35 11 72 l16 67 42 0
c23 0 51 -6 61 -14z m-23 -162 c21 -13 28 -55 14 -89 -18 -43 -42 -55 -109
-55 l-55 0 14 68 c17 80 33 96 88 87 22 -3 43 -8 48 -11z"/>
<path d="M30 2784 c-11 -12 -10 -18 3 -32 21 -21 42 -3 32 27 -8 25 -18 27
-35 5z"/>
<path d="M684 2751 c-14 -22 -39 -44 -55 -50 -32 -11 -39 -31 -11 -31 10 0 21
-2 24 -5 3 -3 -3 -40 -13 -83 -25 -105 -25 -139 2 -147 37 -12 88 9 89 37 0 4
-14 3 -31 -2 l-31 -9 7 37 c3 20 13 67 21 105 15 64 17 67 45 67 19 0 29 5 29
15 0 9 -9 15 -25 15 -23 0 -24 2 -18 45 3 25 3 45 0 45 -4 0 -18 -18 -33 -39z"/>
<path d="M4937 2783 c-24 -23 12 -55 38 -33 12 10 13 16 4 26 -12 15 -31 18
-42 7z"/>
<path d="M1215 2696 c-106 -47 -144 -224 -54 -255 35 -12 135 11 159 36 13 14
13 15 -4 9 -10 -3 -38 -11 -63 -17 -38 -10 -46 -9 -64 7 -12 11 -19 28 -17 43
3 20 14 28 69 46 103 35 109 40 109 85 0 29 -5 42 -19 50 -27 14 -80 12 -116
-4z m82 -22 c13 -34 -11 -68 -61 -87 -27 -10 -51 -15 -54 -13 -10 11 11 60 38
87 31 32 67 38 77 13z"/>
<path d="M2035 2691 c-66 -41 -95 -92 -95 -167 0 -85 75 -123 129 -65 l27 29
11 -29 c12 -31 38 -38 74 -19 26 15 24 30 -5 30 l-25 0 25 91 c13 50 24 99 24
110 0 40 -111 54 -165 20z m103 -18 c11 -21 -10 -115 -34 -150 -24 -38 -59
-56 -83 -43 -29 15 -31 56 -5 127 25 70 99 109 122 66z"/>
<path d="M2593 2700 c-28 -11 -30 -30 -4 -30 27 0 30 -7 52 -113 25 -121 24
-140 -7 -176 -30 -36 -44 -39 -51 -11 -10 38 -42 14 -43 -32 0 -16 62 -19 85
-4 27 18 230 350 222 363 -9 14 -87 3 -87 -13 0 -8 9 -14 21 -14 11 0 19 -3
17 -8 -15 -35 -84 -152 -89 -152 -7 0 -9 9 -30 133 -10 63 -13 67 -38 66 -14
0 -36 -4 -48 -9z"/>
<path d="M4950 2655 c-9 -11 -11 -22 -4 -32 13 -21 25 -21 38 -1 8 14 7 21 -5
33 -14 15 -17 15 -29 0z"/>
<path d="M20 2645 c-11 -13 -11 -19 3 -33 20 -19 41 -5 35 24 -4 24 -22 28
-38 9z"/>
<path d="M4951 2518 c-11 -17 -10 -23 2 -35 18 -18 37 -9 37 16 0 31 -24 43
-39 19z"/>
<path d="M5 2510 c-9 -14 1 -27 24 -33 20 -5 36 17 25 34 -7 12 -41 11 -49 -1z"/>
<path d="M4945 2380 c-8 -24 1 -40 21 -40 20 0 29 27 14 45 -17 20 -27 19 -35
-5z"/>
<path d="M14 2375 c-4 -9 0 -24 10 -33 15 -15 18 -15 26 -2 6 8 9 22 7 30 -3
21 -36 25 -43 5z"/>
<path d="M30 2245 c-22 -26 7 -46 39 -26 12 8 12 12 2 25 -17 20 -25 20 -41 1z"/>
<path d="M4941 2246 c-10 -12 -10 -20 0 -37 11 -22 12 -22 25 -4 17 24 17 30
0 44 -10 9 -16 8 -25 -3z"/>
<path d="M4914 2116 c-8 -21 13 -46 32 -39 20 8 13 47 -9 51 -9 2 -20 -4 -23
-12z"/>
<path d="M45 2110 c-4 -7 -3 -16 3 -22 14 -14 47 -6 47 12 0 18 -40 26 -50 10z"/>
<path d="M3597 2113 c-12 -11 -8 -20 11 -26 9 -3 34 -12 55 -21 33 -14 37 -14
37 -1 0 37 -78 73 -103 48z"/>
<path d="M3536 2051 c-2 -3 13 -17 35 -29 29 -17 39 -19 39 -9 0 8 -6 19 -12
24 -18 14 -57 23 -62 14z"/>
<path d="M3490 2001 c0 -21 13 -41 26 -41 17 0 17 10 0 33 -14 19 -26 22 -26
8z"/>
<path d="M70 1984 c-11 -12 -11 -18 1 -30 13 -12 18 -12 34 0 16 12 17 16 6
30 -17 20 -25 20 -41 0z"/>
<path d="M4882 1977 c-8 -10 -6 -16 10 -26 17 -11 23 -10 35 2 9 8 12 20 9 26
-10 15 -41 14 -54 -2z"/>
<path d="M3657 1889 c23 -12 60 -41 83 -65 46 -50 54 -54 45 -21 -11 33 -45
67 -90 88 -56 26 -92 24 -38 -2z"/>
<path d="M4860 1859 c-10 -17 -9 -24 3 -36 8 -9 20 -12 26 -9 16 10 14 41 -3
55 -12 10 -17 8 -26 -10z"/>
<path d="M109 1854 c-16 -20 2 -38 30 -29 26 8 27 21 2 34 -14 8 -22 7 -32 -5z"/>
<path d="M142 1727 c-9 -10 -7 -19 4 -36 l16 -22 15 21 c12 16 12 24 3 35 -15
18 -24 19 -38 2z"/>
<path d="M4821 1721 c-12 -21 -5 -31 19 -31 28 0 42 22 22 36 -23 18 -30 17
-41 -5z"/>
<path d="M4782 1618 c-26 -26 -7 -62 26 -51 15 6 15 23 -2 45 -10 13 -15 15
-24 6z"/>
<path d="M184 1599 c-3 -6 1 -18 10 -27 15 -15 17 -15 32 0 19 19 11 38 -16
38 -10 0 -22 -5 -26 -11z"/>
<path d="M241 1481 c-16 -28 14 -51 36 -28 13 13 14 19 3 31 -17 21 -27 20
-39 -3z"/>
<path d="M4721 1481 c-8 -14 -7 -22 4 -31 22 -19 48 5 34 31 -5 10 -14 19 -19
19 -5 0 -14 -9 -19 -19z"/>
<path d="M302 1363 c-18 -34 9 -58 36 -31 7 7 8 17 1 30 -12 23 -26 23 -37 1z"/>
<path d="M4662 1358 c-13 -13 2 -38 23 -38 21 0 36 25 23 38 -7 7 -17 12 -23
12 -6 0 -16 -5 -23 -12z"/>
<path d="M363 1235 c-8 -22 16 -36 40 -24 23 13 17 33 -11 37 -14 2 -25 -3
-29 -13z"/>
<path d="M4593 1235 c-8 -22 16 -36 40 -24 23 13 17 33 -11 37 -14 2 -25 -3
-29 -13z"/>
<path d="M440 1135 c-11 -13 -11 -19 3 -33 20 -19 41 -5 35 24 -4 24 -22 28
-38 9z"/>
<path d="M4533 1143 c-18 -7 -16 -42 3 -50 8 -3 22 1 30 9 13 13 12 16 -3 30
-10 8 -24 13 -30 11z"/>
<path d="M520 1029 c-10 -17 -9 -24 3 -36 8 -9 20 -12 26 -9 16 10 14 41 -3
55 -12 10 -17 8 -26 -10z"/>
<path d="M4453 1033 c-17 -6 -16 -38 1 -52 21 -18 44 25 24 44 -7 7 -19 11
-25 8z"/>
<path d="M4362 920 c-14 -22 -8 -40 12 -40 22 0 36 22 25 42 -13 23 -21 23
-37 -2z"/>
<path d="M602 918 c-13 -13 2 -38 23 -38 21 0 36 25 23 38 -7 7 -17 12 -23 12
-6 0 -16 -5 -23 -12z"/>
<path d="M687 817 c-3 -7 2 -22 10 -32 14 -20 14 -20 28 -1 11 14 12 23 4 33
-14 17 -35 17 -42 0z"/>
<path d="M4274 815 c-4 -9 -2 -21 3 -26 14 -14 45 1 41 20 -4 22 -37 26 -44 6z"/>
<path d="M786 724 c-12 -31 13 -44 44 -24 13 9 12 12 -4 25 -25 19 -32 19 -40
-1z"/>
<path d="M4180 725 c-11 -13 -11 -19 3 -33 20 -19 41 -5 35 24 -4 24 -22 28
-38 9z"/>
<path d="M4081 641 c-14 -26 12 -50 34 -31 11 9 12 16 2 31 -15 24 -24 24 -36
0z"/>
<path d="M893 643 c-16 -6 -17 -39 -2 -49 6 -3 18 1 27 10 14 14 14 18 2 30
-8 7 -21 12 -27 9z"/>
<path d="M3983 563 c-7 -3 -13 -13 -13 -23 0 -10 6 -20 13 -23 15 -5 47 10 47
23 0 13 -32 28 -47 23z"/>
<path d="M984 549 c-3 -6 1 -18 10 -27 15 -15 17 -15 32 0 19 19 11 38 -16 38
-10 0 -22 -5 -26 -11z"/>
<path d="M1102 488 c-19 -19 -15 -48 8 -48 26 0 37 27 18 46 -11 11 -16 12
-26 2z"/>
<path d="M3870 475 c-6 -8 -9 -19 -5 -25 8 -13 42 -13 50 0 7 11 -12 40 -25
40 -4 0 -13 -7 -20 -15z"/>
<path d="M1205 400 c-7 -11 12 -50 24 -50 10 0 21 24 21 46 0 16 -36 19 -45 4z"/>
<path d="M3750 393 c0 -10 5 -25 10 -33 9 -13 12 -12 25 5 19 24 15 39 -13 43
-16 2 -22 -2 -22 -15z"/>
<path d="M1325 340 c-9 -15 4 -50 20 -50 20 0 30 40 14 51 -18 11 -26 11 -34
-1z"/>
<path d="M3640 335 c-22 -26 7 -46 39 -26 12 8 12 12 2 25 -17 20 -25 20 -41
1z"/>
<path d="M1447 283 c-24 -23 12 -55 38 -33 12 10 13 16 4 26 -12 15 -31 18
-42 7z"/>
<path d="M3513 274 c-10 -26 13 -39 44 -25 27 12 27 13 8 27 -25 18 -44 18
-52 -2z"/>
<path d="M1569 224 c-16 -20 2 -38 30 -29 26 8 27 21 2 34 -14 8 -22 7 -32 -5z"/>
<path d="M3401 226 c-16 -19 -8 -46 13 -46 20 0 29 31 13 47 -12 12 -16 12
-26 -1z"/>
<path d="M3270 184 c-11 -12 -10 -18 3 -31 22 -23 52 0 36 28 -12 23 -22 24
-39 3z"/>
<path d="M1692 178 c-13 -13 2 -38 23 -38 21 0 36 25 23 38 -7 7 -17 12 -23
12 -6 0 -16 -5 -23 -12z"/>
<path d="M1817 136 c-9 -23 18 -39 43 -26 17 9 19 14 9 26 -15 18 -45 18 -52
0z"/>
<path d="M3143 134 c-9 -24 11 -38 37 -24 17 9 19 14 9 26 -15 19 -38 18 -46
-2z"/>
<path d="M1952 108 c-8 -8 -9 -15 -1 -25 15 -17 34 -17 48 1 10 12 8 17 -8 25
-24 14 -24 14 -39 -1z"/>
<path d="M3012 108 c-8 -8 -9 -15 -1 -25 14 -17 34 -17 48 0 11 15 -3 37 -24
37 -6 0 -16 -5 -23 -12z"/>
<path d="M2087 93 c-10 -10 -8 -41 3 -48 5 -3 18 0 29 7 19 11 19 14 4 30 -17
19 -26 22 -36 11z"/>
<path d="M2881 86 c-9 -11 -9 -19 1 -35 16 -26 20 -26 35 -1 10 15 10 22 -3
35 -19 18 -19 18 -33 1z"/>
<path d="M2221 70 c-17 -10 -7 -40 12 -40 8 0 20 6 26 14 10 12 8 17 -6 25
-11 5 -25 6 -32 1z"/>
<path d="M2750 65 c-6 -8 -9 -19 -5 -25 8 -13 42 -13 50 0 7 11 -12 40 -25 40
-4 0 -13 -7 -20 -15z"/>
<path d="M2350 54 c-11 -12 -11 -18 1 -30 13 -12 18 -12 34 0 16 12 17 16 6
30 -17 20 -25 20 -41 0z"/>
<path d="M2617 63 c-12 -11 -8 -40 8 -53 12 -10 17 -7 27 15 10 22 9 28 -3 36
-17 11 -24 11 -32 2z"/>
<path d="M2476 51 c-10 -16 6 -42 23 -39 9 2 17 13 19 26 3 16 -2 22 -17 22
-11 0 -22 -4 -25 -9z"/>
</g>
</svg>
