<?xml version="1.0" standalone="no"?>
<!DOCTYPE svg PUBLIC "-//W3C//DTD SVG 20010904//EN"
 "http://www.w3.org/TR/2001/REC-SVG-20010904/DTD/svg10.dtd">
<svg version="1.0" xmlns="http://www.w3.org/2000/svg"
 width="499.000000pt" height="500.000000pt" viewBox="0 0 499.000000 500.000000"
 preserveAspectRatio="xMidYMid meet">
<metadata>
Created by potrace 1.15, written by Peter Selinger 2001-2017
</metadata>
<g transform="translate(0.000000,500.000000) scale(0.100000,-0.100000)"
fill="#000000" stroke="none">
<path d="M2340 4974 c-11 -12 -10 -18 3 -31 22 -23 52 0 36 28 -12 23 -22 24
-39 3z"/>
<path d="M2610 4975 c-11 -13 -11 -19 3 -33 20 -19 41 -5 35 24 -4 24 -22 28
-38 9z"/>
<path d="M2473 4964 c-3 -8 1 -22 10 -31 14 -14 16 -13 26 6 7 12 9 26 6 31
-10 15 -35 12 -42 -6z"/>
<path d="M2741 4961 c-8 -14 -7 -22 4 -31 22 -19 48 5 34 31 -5 10 -14 19 -19
19 -5 0 -14 -9 -19 -19z"/>
<path d="M2210 4955 c-10 -12 -10 -18 0 -31 12 -13 15 -13 28 0 15 15 10 46
-6 46 -5 0 -15 -7 -22 -15z"/>
<path d="M2882 4958 c-15 -15 -15 -45 -1 -54 6 -3 18 0 26 9 14 13 14 18 1 36
-11 16 -17 18 -26 9z"/>
<path d="M2074 4935 c-13 -32 23 -48 47 -19 10 13 10 17 -2 25 -21 13 -39 11
-45 -6z"/>
<path d="M1953 4923 c-16 -6 -17 -39 -2 -49 6 -3 18 1 27 10 14 14 14 18 2 30
-8 7 -21 12 -27 9z"/>
<path d="M3001 4917 c-8 -10 -7 -19 3 -32 12 -16 16 -17 30 -6 20 17 21 37 0
45 -21 8 -20 8 -33 -7z"/>
<path d="M1820 4885 c-9 -11 -11 -22 -4 -32 13 -21 25 -21 38 -1 8 14 7 21 -5
33 -14 15 -17 15 -29 0z"/>
<path d="M3133 4884 c-3 -8 1 -22 9 -30 13 -13 16 -13 28 0 10 13 10 19 0 31
-16 19 -29 19 -37 -1z"/>
<path d="M3262 4849 c-15 -23 -8 -39 18 -39 25 0 32 25 11 44 -15 14 -18 13
-29 -5z"/>
<path d="M1689 4844 c-15 -18 0 -38 27 -32 25 5 28 25 6 37 -15 8 -23 7 -33
-5z"/>
<path d="M3390 4805 c-16 -29 -3 -49 23 -39 20 7 21 23 3 46 -12 16 -14 16
-26 -7z"/>
<path d="M1567 4803 c-24 -23 12 -55 38 -33 12 10 13 16 4 26 -12 15 -31 18
-42 7z"/>
<path d="M1440 4750 c-13 -25 -5 -40 20 -40 10 0 22 4 25 10 7 12 -12 50 -25
50 -5 0 -14 -9 -20 -20z"/>
<path d="M3511 4751 c-16 -11 -6 -51 14 -51 16 0 29 35 20 50 -8 12 -16 12
-34 1z"/>
<path d="M1323 4689 c-6 -6 -9 -18 -6 -25 7 -18 37 -18 52 0 10 12 8 17 -8 25
-24 14 -24 14 -38 0z"/>
<path d="M3630 4685 c-22 -26 7 -46 39 -26 12 8 12 12 2 25 -17 20 -25 20 -41
1z"/>
<path d="M3747 4633 c-11 -10 -8 -41 4 -49 6 -3 18 1 27 9 13 13 13 19 2 31
-14 17 -23 20 -33 9z"/>
<path d="M1204 4615 c-13 -32 23 -48 47 -19 10 13 10 17 -2 25 -21 13 -39 11
-45 -6z"/>
<path d="M1091 4546 c-14 -17 11 -41 34 -32 20 7 19 32 -1 40 -21 8 -20 8 -33
-8z"/>
<path d="M3857 4553 c-24 -23 12 -55 38 -33 12 10 13 16 4 26 -12 15 -31 18
-42 7z"/>
<path d="M2090 4507 c-26 -8 -30 -11 -16 -15 21 -5 20 -28 -13 -169 -10 -44
-15 -86 -11 -93 14 -23 92 -23 128 0 60 37 87 133 50 177 -16 20 -66 15 -88
-7 -11 -11 -22 -20 -24 -20 -2 0 3 26 10 58 21 90 23 88 -36 69z m110 -137 c9
-16 5 -32 -17 -78 -25 -50 -32 -57 -60 -60 -31 -3 -33 -1 -33 28 0 32 21 82
48 113 20 23 49 22 62 -3z"/>
<path d="M1517 4503 c-13 -13 -7 -23 14 -23 17 0 20 -5 16 -22 -3 -13 -15 -66
-27 -119 -17 -77 -25 -98 -41 -102 -41 -11 -18 -27 39 -26 112 1 174 14 193
38 28 35 25 89 -6 103 l-24 11 29 27 c38 35 39 71 4 99 -22 17 -41 21 -109 21
-45 0 -85 -3 -88 -7z m146 -22 c31 -12 40 -36 25 -64 -16 -31 -27 -37 -71 -37
l-39 0 7 43 c11 65 27 77 78 58z m2 -141 c19 -15 19 -50 2 -74 -12 -17 -105
-40 -116 -30 -2 2 2 31 9 65 l13 61 39 -5 c21 -3 45 -11 53 -17z"/>
<path d="M2655 4500 c-3 -5 1 -10 9 -10 27 0 28 -19 4 -131 -19 -96 -26 -112
-45 -120 -47 -17 -23 -29 60 -29 130 0 177 20 192 82 5 21 1 33 -18 52 l-24
24 28 21 c37 27 37 59 1 94 -26 25 -34 27 -114 27 -48 0 -90 -4 -93 -10z m172
-32 c38 -31 -6 -88 -68 -88 -34 0 -40 3 -36 18 3 9 8 30 12 47 4 16 12 33 18
37 14 9 56 1 74 -14z m-33 -118 c35 -13 37 -73 4 -94 -24 -15 -108 -29 -108
-18 1 10 20 95 25 110 5 14 44 16 79 2z"/>
<path d="M983 4464 c-3 -8 1 -22 9 -30 13 -13 16 -13 27 0 7 9 11 23 7 31 -7
20 -35 19 -43 -1z"/>
<path d="M3960 4461 c0 -27 15 -34 40 -21 17 9 19 14 9 26 -17 21 -49 18 -49
-5z"/>
<path d="M1865 4420 c-31 -12 -74 -63 -84 -98 -13 -43 4 -101 32 -112 15 -6
31 -3 54 10 28 16 33 17 44 4 14 -17 61 -15 67 4 2 7 -2 10 -12 6 -21 -8 -21
18 1 103 15 63 15 67 -2 79 -21 15 -69 17 -100 4z m69 -25 c3 -8 4 -21 2 -27
-3 -7 -7 -25 -10 -40 -8 -36 -53 -88 -77 -88 -11 0 -24 11 -30 24 -9 19 -6 33
15 75 32 62 86 92 100 56z"/>
<path d="M2987 4412 c-15 -9 -37 -36 -48 -60 -38 -77 -5 -147 68 -145 66 2
117 61 117 137 1 71 -73 108 -137 68z m78 -22 c22 -24 17 -96 -9 -135 -24 -37
-76 -32 -87 8 -7 28 13 108 34 135 14 18 41 15 62 -8z"/>
<path d="M3283 4395 c-42 -42 -45 -43 -33 -10 11 30 0 39 -40 30 -32 -7 -41
-25 -14 -25 12 0 15 -6 11 -22 -17 -70 -29 -149 -24 -155 15 -14 34 9 46 55 7
28 27 67 45 88 29 34 35 37 50 25 14 -11 17 -10 25 10 19 51 -17 53 -66 4z"/>
<path d="M2298 4413 c-21 -5 -24 -23 -4 -23 15 0 32 -61 43 -150 4 -36 1 -50
-17 -72 -25 -33 -40 -36 -40 -8 0 13 -5 18 -15 14 -19 -8 -19 -43 0 -50 40
-16 61 6 138 135 93 157 95 161 69 161 -27 0 -52 -10 -52 -21 0 -5 7 -9 16 -9
12 0 8 -13 -18 -60 -18 -33 -35 -60 -38 -60 -4 0 -13 33 -21 72 -15 74 -22 82
-61 71z"/>
<path d="M3398 4413 c-22 -5 -24 -23 -3 -23 18 0 18 -7 0 -90 -18 -83 -18 -92
1 -88 8 2 23 26 33 55 19 57 65 123 85 123 22 0 24 -21 10 -75 -7 -27 -13 -63
-14 -78 0 -26 3 -28 32 -25 17 2 33 9 36 16 2 7 -2 10 -12 6 -20 -8 -20 -3 0
85 9 39 14 78 10 86 -10 26 -58 17 -94 -17 l-35 -33 6 33 c6 28 4 32 -16 31
-12 -1 -30 -3 -39 -6z"/>
<path d="M883 4389 c-16 -16 -5 -39 18 -39 24 0 37 29 18 41 -18 11 -23 11
-36 -2z"/>
<path d="M4071 4391 c-16 -10 -8 -41 11 -41 7 0 19 4 27 9 12 8 12 12 2 25
-15 18 -21 19 -40 7z"/>
<path d="M781 4301 c-14 -26 12 -50 34 -31 11 9 12 17 4 31 -5 10 -14 19 -19
19 -5 0 -14 -9 -19 -19z"/>
<path d="M4165 4300 c-8 -24 1 -40 21 -40 20 0 29 27 14 45 -17 20 -27 19 -35
-5z"/>
<path d="M690 4204 c-11 -12 -11 -18 1 -30 13 -12 18 -12 34 0 16 12 17 16 6
30 -17 20 -25 20 -41 0z"/>
<path d="M4260 4205 c-16 -19 8 -59 27 -43 17 14 17 45 -1 51 -8 3 -20 0 -26
-8z"/>
<path d="M600 4104 c-11 -12 -10 -18 3 -32 16 -15 18 -15 34 0 13 14 14 20 3
32 -7 9 -16 16 -20 16 -4 0 -13 -7 -20 -16z"/>
<path d="M4353 4109 c-16 -16 -5 -39 17 -39 25 0 35 18 20 35 -15 18 -22 19
-37 4z"/>
<path d="M1043 4009 c-39 -11 -73 -53 -73 -89 0 -30 29 -61 77 -79 72 -29 83
-84 22 -114 -29 -14 -42 -15 -67 -6 -26 9 -32 16 -32 41 0 39 -22 32 -31 -10
-9 -44 11 -57 85 -57 75 1 111 22 127 75 16 51 0 76 -66 106 -66 28 -83 55
-60 90 12 19 24 24 55 24 34 0 42 -4 55 -30 18 -34 35 -39 35 -11 0 11 3 26 6
34 9 25 -80 42 -133 26z"/>
<path d="M2988 4010 c-89 -28 -138 -93 -138 -184 0 -50 4 -60 34 -94 33 -35
37 -37 99 -37 78 0 102 17 114 79 6 27 16 44 31 52 32 16 16 24 -50 24 -45 0
-58 -3 -58 -15 0 -8 9 -15 20 -15 23 0 25 -13 9 -59 -32 -91 -149 -48 -149 56
0 83 45 155 109 173 44 12 81 -8 81 -45 0 -28 24 -34 34 -9 10 27 7 62 -8 67
-29 11 -102 16 -128 7z"/>
<path d="M514 3999 c-3 -6 0 -17 8 -25 12 -12 17 -12 33 1 17 13 18 16 5 25
-20 13 -37 13 -46 -1z"/>
<path d="M1263 4003 c-26 -5 -31 -23 -7 -23 10 0 14 -6 10 -17 -19 -68 -48
-234 -43 -247 8 -21 51 -21 68 1 13 15 12 16 -8 11 -29 -8 -29 -7 2 136 34
157 35 150 -22 139z"/>
<path d="M1973 4003 c-25 -5 -31 -20 -10 -25 11 -2 8 -28 -11 -125 -13 -68
-22 -129 -18 -138 7 -20 50 -19 67 2 13 15 12 16 -8 11 -29 -8 -29 -6 2 139
33 157 35 147 -22 136z"/>
<path d="M3855 4003 c-31 -8 -42 -23 -16 -23 16 0 21 -5 17 -17 -19 -68 -48
-234 -43 -247 8 -20 51 -21 67 -1 10 13 9 15 -9 15 -11 0 -21 3 -21 8 0 4 13
67 29 140 30 142 31 138 -24 125z"/>
<path d="M4427 3996 c-3 -8 0 -19 7 -25 18 -15 48 -3 44 18 -4 21 -44 27 -51
7z"/>
<path d="M2506 3979 c-20 -16 -26 -29 -26 -60 0 -32 -7 -47 -40 -83 -45 -49
-49 -72 -19 -110 24 -30 58 -34 112 -11 31 13 36 13 47 0 14 -17 56 -20 64 -6
4 5 -6 18 -21 29 l-26 19 46 60 c25 33 43 63 40 67 -10 10 -61 7 -68 -4 -3 -6
1 -13 9 -16 14 -5 13 -11 -6 -45 -12 -21 -24 -39 -27 -39 -3 0 -17 20 -30 45
l-24 45 42 39 c22 21 41 44 41 52 0 42 -70 53 -114 18z m53 -65 c-20 -24 -39
-17 -39 16 0 23 6 33 23 39 19 7 22 5 25 -16 2 -13 -2 -31 -9 -39z m-28 -121
l30 -52 -37 -7 c-32 -6 -40 -3 -56 16 -23 28 -23 58 -1 82 23 25 30 21 64 -39z"/>
<path d="M3729 3957 c-8 -15 -28 -37 -45 -47 -21 -14 -24 -20 -11 -20 21 0 22
-24 3 -105 -16 -66 -9 -85 29 -85 12 0 29 7 36 17 13 15 11 16 -15 9 -24 -6
-27 -4 -22 9 3 9 11 45 18 81 10 54 15 65 35 70 25 7 32 24 9 24 -10 0 -16 13
-18 38 l-3 37 -16 -28z"/>
<path d="M1396 3899 c-110 -87 -44 -243 79 -187 33 15 65 76 65 123 0 74 -84
111 -144 64z m97 -19 c12 -20 -9 -124 -29 -145 -22 -22 -61 -19 -75 6 -13 25
-8 69 15 123 14 33 19 37 47 34 18 -2 36 -10 42 -18z"/>
<path d="M3243 3900 c-40 -24 -63 -67 -63 -120 0 -72 60 -101 131 -64 38 19
30 31 -10 14 -36 -14 -68 -6 -76 21 -8 23 10 49 34 49 32 1 98 38 103 58 15
55 -56 81 -119 42z m77 -16 c0 -28 -19 -52 -51 -63 -18 -6 -36 -11 -41 -11
-12 0 29 77 44 83 26 11 48 7 48 -9z"/>
<path d="M3503 3883 l-35 -38 7 33 c6 31 6 32 -29 32 -19 0 -38 -4 -41 -10 -3
-5 1 -10 9 -10 20 0 20 -16 1 -105 -8 -38 -15 -71 -15 -72 0 -2 8 -3 19 -3 14
0 21 11 29 43 14 56 66 127 92 127 24 0 24 5 4 -81 -9 -38 -13 -77 -10 -85 7
-19 57 -15 64 5 3 10 0 12 -13 7 -14 -5 -16 -2 -13 16 3 13 11 50 18 84 7 33
10 68 7 77 -11 30 -56 20 -94 -20z"/>
<path d="M440 3895 c-19 -22 5 -48 31 -34 10 5 19 14 19 19 0 5 -9 14 -19 19
-14 8 -22 7 -31 -4z"/>
<path d="M1580 3901 c0 -5 6 -11 14 -14 7 -3 16 -28 20 -59 13 -102 18 -118
35 -118 10 0 29 22 46 55 17 30 33 55 36 55 4 0 10 -27 13 -61 7 -60 8 -60 29
-46 23 15 116 162 117 185 0 14 -39 16 -60 2 -13 -8 -12 -10 3 -10 24 0 22
-12 -15 -78 l-33 -57 -8 65 c-5 36 -10 71 -13 78 -4 15 -34 16 -34 2 0 -17
-54 -140 -62 -140 -3 0 -9 34 -13 75 l-7 75 -34 0 c-19 0 -34 -4 -34 -9z"/>
<path d="M2045 3900 c-3 -5 1 -10 10 -10 20 0 30 -27 46 -122 11 -68 11 -79
-4 -102 -19 -28 -47 -35 -47 -11 0 22 -18 18 -25 -6 -7 -21 7 -39 31 -39 25 0
57 40 129 165 79 136 81 146 17 130 -27 -7 -27 -7 -5 -16 l23 -8 -31 -53 c-17
-29 -35 -57 -39 -62 -5 -4 -14 26 -21 68 l-13 76 -32 0 c-18 0 -36 -4 -39 -10z"/>
<path d="M3947 3903 c-4 -3 0 -14 8 -23 8 -9 22 -54 32 -99 13 -68 14 -86 3
-106 -16 -31 -41 -40 -52 -20 -11 19 -28 10 -28 -15 0 -23 33 -35 58 -21 20
11 172 258 172 279 0 14 -39 16 -60 2 -13 -8 -12 -10 3 -10 24 0 21 -17 -15
-80 l-32 -55 -9 40 c-25 110 -27 115 -51 115 -12 0 -26 -3 -29 -7z"/>
<path d="M4516 3897 c-16 -12 -17 -16 -5 -35 18 -29 27 -28 35 4 8 33 -6 48
-30 31z"/>
<path d="M367 3783 c-25 -24 11 -49 40 -28 16 13 16 16 3 25 -17 11 -34 13
-43 3z"/>
<path d="M4577 3776 c-9 -24 18 -39 42 -24 25 15 26 24 5 32 -25 10 -41 7 -47
-8z"/>
<path d="M300 3665 c-23 -28 21 -50 48 -23 9 9 7 14 -6 24 -22 17 -27 17 -42
-1z"/>
<path d="M4651 3666 c-10 -12 -10 -20 0 -37 11 -22 12 -22 25 -4 17 24 17 30
0 44 -10 9 -16 8 -25 -3z"/>
<path d="M243 3549 c-6 -6 -9 -18 -6 -25 7 -18 37 -18 52 0 10 12 8 17 -8 25
-24 14 -24 14 -38 0z"/>
<path d="M4710 3544 c-11 -12 -11 -18 1 -30 13 -12 18 -12 34 0 16 12 17 16 6
30 -17 20 -25 20 -41 0z"/>
<path d="M4761 3432 c-11 -21 2 -42 26 -42 17 0 17 35 -1 49 -12 10 -17 8 -25
-7z"/>
<path d="M187 3427 c-3 -8 -2 -20 3 -27 11 -18 42 -4 38 17 -4 22 -34 29 -41
10z"/>
<path d="M2314 3402 c-123 -43 -214 -129 -344 -323 -90 -134 -115 -197 -114
-289 1 -110 51 -199 151 -266 31 -22 61 -42 66 -45 5 -4 17 -31 26 -60 l18
-54 49 -3 c30 -2 57 -10 69 -21 30 -27 60 -41 90 -41 15 0 41 -10 58 -22 26
-19 46 -23 109 -24 43 0 81 -3 84 -7 4 -4 -84 -7 -195 -7 l-203 0 26 31 c36
43 35 61 -2 38 -19 -12 -35 -6 -102 37 -14 9 -3 -4 23 -29 29 -27 44 -47 38
-51 -18 -11 -79 24 -100 57 -12 18 -21 26 -21 18 0 -7 14 -31 31 -53 17 -21
29 -41 26 -44 -12 -13 -62 24 -80 58 -16 32 -17 43 -7 72 6 19 20 46 31 60 26
33 10 34 -20 2 -52 -55 -48 -142 9 -190 l29 -24 -31 -6 c-17 -3 -43 -6 -59 -6
-26 0 -47 -15 -36 -26 3 -3 101 2 218 10 292 21 465 7 734 -58 158 -39 276
-82 479 -177 103 -49 191 -89 194 -89 20 0 265 -216 400 -353 89 -91 162 -159
162 -152 0 24 -321 338 -452 443 -220 175 -400 266 -668 337 -74 20 -146 40
-160 44 l-25 8 26 13 c20 9 39 10 75 2 27 -6 50 -10 51 -8 1 1 -22 15 -53 30
l-55 28 -61 -27 c-50 -23 -70 -26 -111 -22 -51 7 -77 20 -77 42 0 17 145 154
176 165 14 6 70 10 124 10 109 0 116 5 97 65 -14 42 -24 53 -85 92 -52 33 -71
57 -58 70 10 10 167 -43 268 -89 l87 -41 63 16 c147 37 225 49 285 44 41 -3
64 -1 66 7 3 8 10 8 26 -1 19 -12 21 -10 26 15 8 36 19 55 34 60 10 3 11 -2 5
-19 -13 -36 -9 -85 14 -186 25 -111 40 -141 100 -205 60 -64 47 -80 -31 -39
-54 29 -80 30 -36 3 12 -8 18 -17 13 -22 -5 -5 -65 -24 -133 -44 -68 -20 -125
-37 -125 -38 -25 -42 -43 -62 -71 -75 -38 -18 -44 -30 -20 -39 9 -4 41 14 81
45 37 28 73 51 81 51 8 0 69 16 136 35 67 19 135 35 152 35 17 0 39 6 50 14
14 9 71 15 180 19 88 4 219 16 290 27 72 11 133 20 138 20 4 0 7 5 7 10 0 15
-49 12 -264 -15 -216 -27 -283 -30 -336 -12 -47 16 -48 47 -2 59 17 5 32 13
32 19 0 6 -8 8 -17 5 -10 -3 -39 -8 -65 -11 -41 -6 -47 -5 -53 15 -5 16 0 30
22 52 22 25 24 29 8 23 -63 -25 -70 -21 -97 52 l-26 68 65 3 c54 2 63 5 53 17
-8 10 -8 19 0 34 13 26 14 26 -54 -4 l-56 -25 0 30 c0 23 6 33 25 40 14 6 37
15 51 20 38 15 23 23 -21 11 -34 -9 -36 -9 -30 12 4 12 9 30 11 40 3 10 15 17
28 17 17 0 33 15 61 56 20 31 75 95 121 141 97 97 139 119 422 223 94 34 172
66 172 70 0 11 -312 -91 -391 -127 -147 -67 -261 -157 -347 -271 -45 -60 -64
-78 -89 -83 -18 -3 -51 -23 -73 -42 -22 -20 -50 -39 -62 -42 -109 -25 -373
-75 -397 -75 -17 0 -71 20 -119 44 -48 24 -118 53 -157 66 -38 12 -79 25 -90
29 -18 7 -19 19 -20 228 l0 220 -35 68 c-41 82 -109 141 -197 176 -81 31 -237
37 -309 11z m288 -31 c111 -43 211 -168 225 -282 3 -28 0 -130 -7 -227 -15
-215 -13 -221 89 -318 39 -36 71 -72 71 -78 0 -9 -17 -10 -62 -5 -103 12 -149
-3 -232 -78 -64 -58 -116 -83 -180 -90 -43 -4 -61 -1 -104 21 -28 14 -59 26
-67 26 -14 0 -13 5 5 30 19 27 20 31 5 36 -10 4 -26 -3 -44 -20 -33 -31 -38
-32 -67 -5 -18 17 -26 19 -42 10 -34 -18 -51 -13 -58 17 -14 55 -36 83 -104
127 -107 71 -161 175 -146 279 9 56 64 170 132 273 66 99 251 273 316 297 60
22 195 15 270 -13z"/>
<path d="M2083 3094 c-21 -9 -15 -26 7 -19 54 17 168 -53 197 -122 7 -18 13
-53 13 -78 0 -25 3 -45 8 -45 10 1 115 150 109 156 -3 3 -22 -15 -42 -40 -21
-26 -41 -46 -45 -46 -4 0 -10 15 -14 32 -10 49 -51 104 -98 132 -43 25 -112
40 -135 30z"/>
<path d="M2473 3009 c-20 -12 -38 -37 -48 -64 -25 -65 -13 -76 24 -22 33 48
58 61 106 55 42 -5 63 -43 73 -128 l8 -75 18 34 c14 26 17 46 12 79 -16 115
-110 174 -193 121z"/>
<path d="M2462 2918 c-13 -13 -16 -41 -6 -51 4 -3 15 5 26 18 11 14 26 25 33
25 20 0 45 -28 45 -51 0 -16 -3 -18 -19 -9 -31 16 -37 -8 -10 -36 l24 -25 17
21 c40 49 4 120 -61 120 -20 0 -42 -5 -49 -12z"/>
<path d="M2139 2713 c-17 -15 -38 -42 -45 -60 -23 -53 -16 -61 12 -13 14 25
37 57 52 73 33 35 23 35 -19 0z"/>
<path d="M2298 2718 c-9 -7 -48 -51 -87 -97 -67 -79 -87 -118 -58 -109 15 6
177 195 177 208 0 14 -13 12 -32 -2z"/>
<path d="M2273 2564 c-26 -25 -39 -41 -28 -35 21 10 93 81 83 81 -3 0 -28 -20
-55 -46z"/>
<path d="M141 3297 c-8 -10 -7 -19 4 -33 13 -18 15 -18 31 -2 14 14 15 20 4
32 -15 19 -24 20 -39 3z"/>
<path d="M4805 3300 c-8 -12 3 -50 14 -50 5 0 14 7 21 15 10 12 10 18 0 30
-14 17 -26 19 -35 5z"/>
<path d="M107 3183 c-11 -10 -8 -41 4 -49 6 -3 18 1 27 9 13 13 13 19 2 31
-14 17 -23 20 -33 9z"/>
<path d="M4843 3164 c-3 -8 1 -22 9 -30 13 -13 16 -13 27 0 7 9 11 23 7 31 -7
20 -35 19 -43 -1z"/>
<path d="M77 3053 c-10 -10 -8 -41 3 -48 5 -3 19 -1 31 5 20 11 20 12 3 31
-18 20 -27 23 -37 12z"/>
<path d="M4874 3039 c-3 -6 1 -18 10 -27 15 -15 17 -15 32 0 19 19 11 38 -16
38 -10 0 -22 -5 -26 -11z"/>
<path d="M43 2904 c-3 -8 1 -22 9 -30 13 -13 16 -13 27 0 7 9 11 23 7 31 -7
20 -35 19 -43 -1z"/>
<path d="M4894 2909 c-3 -6 0 -18 9 -26 12 -12 19 -13 36 -3 18 9 20 14 10 26
-14 17 -45 19 -55 3z"/>
<path d="M30 2775 c-11 -13 -11 -19 4 -33 15 -15 18 -15 26 -2 22 33 -6 64
-30 35z"/>
<path d="M4918 2778 c-8 -21 2 -38 22 -38 26 0 43 23 28 38 -16 16 -45 15 -50
0z"/>
<path d="M16 2644 c-3 -9 -4 -20 0 -25 8 -14 40 -11 53 5 10 12 8 17 -8 25
-27 15 -38 14 -45 -5z"/>
<path d="M4931 2647 c-8 -10 -7 -19 4 -33 13 -18 15 -18 31 -2 14 14 15 20 4
32 -15 19 -24 20 -39 3z"/>
<path d="M4 2509 c-3 -6 -2 -15 4 -21 15 -15 46 -5 50 15 3 12 -3 17 -22 17
-14 0 -28 -5 -32 -11z"/>
<path d="M4934 2505 c-4 -9 -2 -21 3 -26 14 -14 45 1 41 20 -4 22 -37 26 -44
6z"/>
<path d="M20 2386 c-16 -30 -2 -53 24 -43 19 8 20 27 3 51 -12 16 -14 16 -27
-8z"/>
<path d="M4932 2378 c-13 -13 2 -38 23 -38 21 0 36 25 23 38 -7 7 -17 12 -23
12 -6 0 -16 -5 -23 -12z"/>
<path d="M30 2245 c-10 -12 -10 -18 0 -31 12 -13 15 -13 28 0 15 15 10 46 -6
46 -5 0 -15 -7 -22 -15z"/>
<path d="M4922 2248 c-8 -8 -9 -15 -1 -25 14 -16 31 -17 47 -1 9 9 7 14 -6 24
-21 17 -25 17 -40 2z"/>
<path d="M1813 2199 c-13 -4 -23 -16 -23 -26 0 -24 30 -102 50 -133 10 -14 21
-36 25 -50 15 -48 88 -185 144 -270 32 -47 70 -107 86 -135 52 -91 108 -140
229 -201 297 -151 357 -196 370 -274 4 -23 13 -54 20 -69 8 -14 24 -73 36
-131 19 -89 21 -121 15 -220 -7 -117 3 -212 41 -390 40 -183 42 -67 4 190 -25
169 -25 200 1 286 41 138 51 158 110 216 72 70 186 128 323 164 l100 26 44
-21 c109 -53 243 -219 343 -426 77 -159 93 -161 23 -4 -69 156 -159 284 -306
435 -70 72 -128 137 -128 144 0 6 -22 33 -50 60 -28 27 -50 57 -50 69 0 36
-40 123 -85 186 -42 58 -114 131 -266 266 -45 40 -98 102 -133 153 -62 93 -87
116 -124 116 -39 0 -61 -18 -72 -61 -17 -62 -4 -113 41 -165 36 -41 50 -87 32
-97 -16 -8 -186 23 -231 43 -26 12 -73 41 -104 66 -31 24 -88 58 -125 75 -115
51 -126 58 -180 109 -73 68 -116 87 -160 69z m165 -105 c19 -20 88 -67 155
-106 67 -39 141 -84 165 -100 80 -55 170 -89 256 -98 50 -5 85 -4 93 2 6 5 15
27 18 50 7 37 4 43 -33 82 -50 52 -67 101 -52 154 20 76 69 59 130 -45 57 -98
119 -169 215 -245 137 -108 184 -170 233 -309 29 -83 30 -86 11 -97 -29 -18
-23 -32 14 -32 17 0 48 -10 67 -22 l35 -22 -50 -9 c-84 -14 -95 -17 -95 -26 0
-11 36 -21 85 -22 22 0 49 -4 59 -8 22 -8 22 -9 -134 -61 -145 -49 -202 -83
-286 -174 -41 -43 -74 -83 -74 -88 0 -4 -4 -8 -10 -8 -24 0 9 138 50 207 11
19 19 38 16 40 -5 6 -65 -58 -66 -69 0 -5 -4 -8 -10 -8 -15 0 -12 51 5 80 24
41 17 59 -10 28 -29 -33 -41 -35 -50 -8 -11 36 -88 86 -285 188 -244 125 -270
148 -374 322 -73 124 -156 288 -156 310 0 5 44 -39 99 -98 115 -125 139 -148
147 -139 11 10 -15 43 -175 220 -83 93 -151 175 -151 182 0 7 6 15 12 17 19 7
108 -48 146 -88z"/>
<path d="M49 2114 c-15 -18 0 -38 27 -32 25 5 28 25 6 37 -15 8 -23 7 -33 -5z"/>
<path d="M1640 2074 c-257 -137 -450 -289 -609 -479 -119 -143 -119 -143 79
42 254 237 381 333 536 403 117 54 118 55 122 74 5 26 -17 19 -128 -40z"/>
<path d="M4895 2109 c-4 -5 1 -19 11 -30 17 -19 17 -19 31 1 8 11 11 25 8 30
-8 13 -42 13 -50 -1z"/>
<path d="M71 1989 c-11 -18 -10 -24 1 -35 12 -12 17 -12 33 0 20 15 20 15 0
35 l-20 21 -14 -21z"/>
<path d="M4875 1984 c-20 -15 -20 -15 0 -30 17 -12 21 -12 34 1 13 13 13 17 1
29 -13 13 -18 13 -35 0z"/>
<path d="M104 1855 c-12 -30 16 -45 46 -25 13 9 12 12 -4 25 -25 19 -35 19
-42 0z"/>
<path d="M4852 1858 c-16 -16 -15 -33 2 -47 22 -18 44 25 24 45 -11 11 -16 12
-26 2z"/>
<path d="M143 1729 c-15 -15 -5 -39 17 -39 26 0 43 23 28 38 -15 15 -31 15
-45 1z"/>
<path d="M4810 1725 c-22 -26 7 -46 39 -26 12 8 12 12 2 25 -17 20 -25 20 -41
1z"/>
<path d="M184 1599 c-3 -6 1 -18 10 -27 15 -15 17 -15 32 0 19 19 11 38 -16
38 -10 0 -22 -5 -26 -11z"/>
<path d="M4754 1599 c-3 -6 0 -18 9 -26 12 -12 18 -13 35 -2 16 10 18 16 10
26 -13 16 -44 17 -54 2z"/>
<path d="M4710 1485 c-15 -18 -6 -45 14 -45 20 0 29 16 21 40 -8 24 -18 25
-35 5z"/>
<path d="M240 1474 c-11 -12 -10 -18 4 -32 16 -16 18 -16 31 2 11 14 12 23 4
33 -15 17 -24 16 -39 -3z"/>
<path d="M301 1368 c-11 -17 -10 -23 2 -35 18 -18 37 -9 37 16 0 31 -24 43
-39 19z"/>
<path d="M4644 1359 c-3 -6 1 -18 10 -27 15 -15 17 -15 34 1 15 16 15 19 2 27
-20 13 -37 12 -46 -1z"/>
<path d="M371 1256 c-17 -20 -6 -49 16 -44 22 4 26 20 10 42 -12 16 -14 16
-26 2z"/>
<path d="M4581 1246 c-9 -11 -8 -18 5 -30 15 -16 18 -16 35 0 18 16 18 18 1
30 -22 17 -27 17 -41 0z"/>
<path d="M440 1141 c-10 -19 -9 -26 3 -38 29 -30 49 6 23 42 -13 18 -14 18
-26 -4z"/>
<path d="M4510 1134 c-11 -12 -10 -18 3 -32 16 -15 18 -15 34 0 13 14 14 20 3
32 -7 9 -16 16 -20 16 -4 0 -13 -7 -20 -16z"/>
<path d="M3200 1091 c0 -11 39 -41 53 -41 13 0 -12 29 -35 41 -12 6 -18 6 -18
0z"/>
<path d="M3087 1063 c-4 -3 -7 -25 -7 -47 l0 -40 17 24 c9 14 18 27 20 29 2 3
14 -6 28 -19 31 -29 33 -10 4 31 -19 27 -47 37 -62 22z"/>
<path d="M520 1035 c-9 -11 -11 -22 -4 -32 13 -21 25 -21 38 -1 8 14 7 21 -5
33 -14 15 -17 15 -29 0z"/>
<path d="M4437 1033 c-4 -3 -7 -15 -7 -25 0 -20 26 -24 50 -8 13 9 12 12 -4
25 -22 17 -29 18 -39 8z"/>
<path d="M2946 958 c-17 -43 -29 -138 -17 -138 5 0 12 21 16 46 11 77 17 83
36 38 14 -32 18 -36 24 -21 8 20 -21 107 -36 107 -6 0 -16 -15 -23 -32z"/>
<path d="M4350 924 c-11 -12 -10 -18 3 -32 21 -21 42 -3 32 27 -8 25 -18 27
-35 5z"/>
<path d="M600 920 c-13 -8 -13 -11 1 -26 14 -13 21 -14 40 -4 22 12 22 13 4
26 -22 16 -25 17 -45 4z"/>
<path d="M4261 828 c-11 -17 -10 -23 2 -35 18 -18 37 -9 37 16 0 31 -24 43
-39 19z"/>
<path d="M687 816 c-9 -23 18 -39 43 -26 17 9 19 14 9 26 -15 18 -45 18 -52 0z"/>
<path d="M784 725 c-12 -29 15 -45 45 -26 12 8 12 12 2 25 -17 20 -40 21 -47
1z"/>
<path d="M4165 730 c-9 -15 4 -50 20 -50 16 0 29 35 20 50 -3 5 -12 10 -20 10
-8 0 -17 -5 -20 -10z"/>
<path d="M4071 646 c-16 -19 -7 -46 14 -46 22 0 30 29 13 46 -13 13 -16 13
-27 0z"/>
<path d="M884 635 c-12 -31 23 -48 45 -21 10 12 8 17 -8 25 -26 14 -31 14 -37
-4z"/>
<path d="M992 568 c-16 -16 -15 -33 2 -47 21 -18 41 11 26 38 -13 25 -12 25
-28 9z"/>
<path d="M3967 563 c-12 -11 -8 -41 6 -46 7 -3 21 1 32 9 18 14 18 14 -1 29
-22 16 -28 18 -37 8z"/>
<path d="M1091 477 c-8 -10 -7 -19 4 -33 13 -18 15 -18 31 -2 14 14 15 20 4
32 -15 19 -24 20 -39 3z"/>
<path d="M3857 483 c-11 -11 -8 -40 6 -51 9 -8 16 -6 25 8 19 31 -7 67 -31 43z"/>
<path d="M1213 413 c-16 -6 -17 -25 -1 -41 12 -12 48 1 48 18 0 13 -32 28 -47
23z"/>
<path d="M3753 413 c-7 -3 -13 -13 -13 -23 0 -10 6 -20 13 -23 14 -5 47 10 47
21 0 12 -34 29 -47 25z"/>
<path d="M1322 338 c-13 -13 2 -38 23 -38 21 0 36 25 23 38 -7 7 -17 12 -23
12 -6 0 -16 -5 -23 -12z"/>
<path d="M3625 340 c-9 -15 4 -50 20 -50 16 0 29 35 20 50 -3 5 -12 10 -20 10
-8 0 -17 -5 -20 -10z"/>
<path d="M1440 285 c-25 -30 10 -61 38 -33 7 7 8 17 1 30 -12 22 -23 23 -39 3z"/>
<path d="M3504 275 c-13 -32 23 -48 47 -19 10 13 10 17 -2 25 -21 13 -39 11
-45 -6z"/>
<path d="M1571 231 c-16 -10 -8 -41 11 -41 7 0 19 4 27 9 12 8 12 12 2 25 -15
18 -21 19 -40 7z"/>
<path d="M3380 225 c-22 -27 12 -49 38 -23 8 8 9 15 1 25 -15 17 -24 16 -39
-2z"/>
<path d="M1686 183 c-9 -21 14 -45 33 -34 8 5 11 16 6 30 -8 25 -30 28 -39 4z"/>
<path d="M3260 184 c-11 -12 -10 -18 3 -31 22 -23 52 0 36 28 -12 23 -22 24
-39 3z"/>
<path d="M1820 145 c-15 -18 -7 -45 13 -45 14 0 44 28 36 33 -2 1 -11 8 -20
15 -13 10 -19 9 -29 -3z"/>
<path d="M3141 151 c-15 -9 -12 -42 4 -48 6 -2 19 3 29 10 17 12 17 13 -1 29
-11 11 -24 14 -32 9z"/>
<path d="M1947 113 c-24 -23 12 -55 38 -33 12 10 13 16 4 26 -12 15 -31 18
-42 7z"/>
<path d="M3002 108 c-8 -8 -9 -15 -1 -25 14 -17 34 -17 48 0 11 15 -3 37 -24
37 -6 0 -16 -5 -23 -12z"/>
<path d="M2080 85 c-19 -23 5 -48 31 -32 24 15 24 24 0 36 -14 8 -22 7 -31 -4z"/>
<path d="M2870 85 c-10 -13 -10 -19 5 -35 18 -20 18 -20 32 0 12 17 12 24 3
35 -16 19 -24 19 -40 0z"/>
<path d="M2204 65 c-12 -29 15 -45 45 -26 12 8 12 12 2 25 -17 20 -40 21 -47
1z"/>
<path d="M2611 66 c-16 -19 -7 -46 14 -46 22 0 30 29 13 46 -13 13 -16 13 -27
0z"/>
<path d="M2740 65 c-23 -28 21 -50 48 -23 9 9 7 14 -6 24 -22 17 -27 17 -42
-1z"/>
<path d="M2340 55 c-9 -11 -9 -19 3 -35 l15 -21 16 22 c11 17 13 26 4 36 -14
17 -23 16 -38 -2z"/>
<path d="M2472 38 c5 -34 38 -37 38 -4 0 20 -5 26 -21 26 -15 0 -20 -5 -17
-22z"/>
</g>
</svg>
