<?xml version="1.0" standalone="no"?>
<!DOCTYPE svg PUBLIC "-//W3C//DTD SVG 20010904//EN"
 "http://www.w3.org/TR/2001/REC-SVG-20010904/DTD/svg10.dtd">
<svg version="1.0" xmlns="http://www.w3.org/2000/svg"
 width="499.000000pt" height="500.000000pt" viewBox="0 0 499.000000 500.000000"
 preserveAspectRatio="xMidYMid meet">
<metadata>
Created by potrace 1.15, written by Peter Selinger 2001-2017
</metadata>
<g transform="translate(0.000000,500.000000) scale(0.100000,-0.100000)"
fill="#000000" stroke="none">
<path d="M2341 4971 c-16 -28 14 -51 36 -28 13 13 14 19 3 31 -17 21 -27 20
-39 -3z"/>
<path d="M2481 4976 c-10 -12 -6 -46 6 -46 12 0 43 22 43 30 0 18 -37 30 -49
16z"/>
<path d="M2606 4971 c-8 -12 4 -41 16 -41 5 0 19 5 30 11 21 11 21 12 3 25
-22 16 -41 18 -49 5z"/>
<path d="M2741 4961 c-8 -14 -7 -22 4 -31 22 -19 48 5 34 31 -5 10 -14 19 -19
19 -5 0 -14 -9 -19 -19z"/>
<path d="M2204 4959 c-3 -6 0 -18 9 -26 12 -12 19 -13 38 -3 22 12 22 13 4 26
-23 17 -41 18 -51 3z"/>
<path d="M2073 4934 c-3 -8 1 -22 9 -30 13 -13 16 -13 27 0 7 9 11 23 7 31 -7
20 -35 19 -43 -1z"/>
<path d="M2873 4934 c-9 -24 11 -38 37 -24 17 9 19 14 9 26 -15 19 -38 18 -46
-2z"/>
<path d="M3006 4924 c-11 -29 -6 -44 14 -44 25 0 36 25 20 45 -16 19 -26 19
-34 -1z"/>
<path d="M1953 4923 c-16 -6 -17 -39 -2 -49 6 -3 18 1 27 10 14 14 14 18 2 30
-8 7 -21 12 -27 9z"/>
<path d="M1820 4885 c-9 -11 -11 -22 -4 -32 13 -21 25 -21 38 -1 8 14 7 21 -5
33 -14 15 -17 15 -29 0z"/>
<path d="M3143 4893 c-15 -5 -17 -39 -3 -48 9 -6 50 15 50 25 0 10 -35 27 -47
23z"/>
<path d="M1690 4844 c-11 -12 -10 -18 4 -32 16 -16 18 -16 31 2 11 14 12 23 4
33 -15 17 -24 16 -39 -3z"/>
<path d="M3268 4849 c-21 -12 -12 -39 12 -39 26 0 35 19 19 35 -10 10 -19 11
-31 4z"/>
<path d="M1567 4803 c-24 -23 12 -55 38 -33 12 10 13 16 4 26 -12 15 -31 18
-42 7z"/>
<path d="M3387 4803 c-24 -23 12 -55 38 -33 12 10 13 16 4 26 -12 15 -31 18
-42 7z"/>
<path d="M3511 4756 c-16 -19 -7 -46 14 -46 22 0 30 29 13 46 -13 13 -16 13
-27 0z"/>
<path d="M1440 4745 c-6 -8 -9 -19 -5 -25 9 -15 41 -12 54 4 10 12 8 17 -8 25
-25 14 -26 14 -41 -4z"/>
<path d="M1322 4693 c-18 -35 12 -59 36 -30 7 8 7 17 -2 30 -16 21 -23 21 -34
0z"/>
<path d="M3630 4685 c-15 -18 -5 -35 20 -35 10 0 22 5 25 10 7 11 -12 40 -25
40 -4 0 -13 -7 -20 -15z"/>
<path d="M1205 4620 c-8 -12 3 -50 14 -50 15 0 33 30 27 45 -6 17 -32 20 -41
5z"/>
<path d="M3742 4608 c4 -28 19 -32 43 -13 17 13 18 16 5 25 -27 18 -52 12 -48
-12z"/>
<path d="M1094 4545 c-12 -31 23 -48 45 -21 10 12 8 17 -8 25 -26 14 -31 14
-37 -4z"/>
<path d="M3857 4553 c-24 -23 12 -55 38 -33 12 10 13 16 4 26 -12 15 -31 18
-42 7z"/>
<path d="M3972 4488 c-15 -15 -15 -45 -1 -54 6 -3 18 0 26 9 14 13 14 18 1 36
-11 16 -17 18 -26 9z"/>
<path d="M985 4469 c-10 -30 11 -48 32 -27 13 14 14 20 3 32 -17 22 -27 20
-35 -5z"/>
<path d="M880 4384 c-11 -12 -10 -18 4 -32 16 -16 18 -16 31 2 11 14 12 23 4
33 -15 17 -24 16 -39 -3z"/>
<path d="M4064 4385 c-12 -29 15 -45 45 -26 12 8 12 12 2 25 -17 20 -40 21
-47 1z"/>
<path d="M4165 4300 c-8 -24 1 -40 21 -40 20 0 29 27 14 45 -17 20 -27 19 -35
-5z"/>
<path d="M787 4303 c-24 -23 12 -55 38 -33 12 10 13 16 4 26 -12 15 -31 18
-42 7z"/>
<path d="M4260 4210 c-13 -24 -5 -40 20 -40 23 0 31 21 15 43 -16 22 -22 21
-35 -3z"/>
<path d="M690 4205 c-17 -21 6 -61 26 -44 18 15 18 45 0 52 -8 3 -20 0 -26 -8z"/>
<path d="M1083 4174 c-28 -7 -30 -24 -3 -24 25 0 25 -9 -3 -135 -18 -82 -26
-102 -45 -110 -37 -16 -25 -25 37 -25 58 0 86 12 56 24 -15 6 -19 44 -9 83 5
18 16 23 63 29 63 7 106 26 115 49 13 36 6 75 -17 90 -24 15 -153 28 -194 19z
m157 -43 c25 -48 -7 -91 -70 -91 -22 0 -40 2 -40 5 0 2 5 27 11 55 11 50 11
50 49 50 29 0 42 -5 50 -19z"/>
<path d="M1360 4170 c-24 -8 -24 -9 -4 -15 l20 -6 -23 -107 c-33 -158 -30
-181 23 -168 26 7 33 26 9 26 -19 0 -19 -5 10 140 14 68 25 127 25 131 0 11
-26 10 -60 -1z"/>
<path d="M2500 4160 c0 -5 9 -10 20 -10 25 0 25 -10 -3 -135 -18 -82 -26 -102
-45 -110 -43 -19 -21 -25 93 -25 l114 0 11 41 c15 54 5 61 -28 21 -24 -28 -33
-32 -75 -32 -41 0 -48 3 -43 18 3 9 14 60 26 112 11 52 24 96 29 98 4 1 17 9
27 17 17 13 12 14 -53 15 -42 0 -73 -4 -73 -10z"/>
<path d="M3255 4160 c-3 -5 3 -10 14 -10 26 0 27 -26 6 -120 -20 -90 -19 -107
9 -135 33 -33 85 -41 129 -20 50 23 64 50 89 166 17 78 26 103 40 107 36 9 17
22 -32 22 -27 0 -50 -4 -50 -10 0 -5 9 -10 20 -10 19 0 20 -4 14 -37 -4 -21
-17 -74 -29 -118 -25 -93 -46 -113 -108 -101 -49 9 -55 35 -32 153 15 82 20
96 41 103 13 5 24 12 24 15 0 10 -129 5 -135 -5z"/>
<path d="M3010 4105 c-31 -32 -39 -45 -27 -45 20 0 20 0 2 -75 -8 -33 -14 -70
-15 -82 0 -26 31 -39 60 -23 27 14 26 30 -1 23 -19 -5 -21 -3 -16 18 3 13 11
50 17 82 9 45 15 57 30 57 10 0 22 5 25 10 3 6 -4 10 -16 10 -19 0 -21 4 -16
35 3 19 5 35 3 35 -1 0 -22 -20 -46 -45z"/>
<path d="M601 4106 c-10 -12 -10 -19 2 -36 12 -18 16 -18 26 -6 14 17 11 48
-5 53 -6 2 -17 -3 -23 -11z"/>
<path d="M4352 4108 c-8 -8 -9 -15 -1 -25 14 -16 31 -17 47 -1 9 9 7 14 -6 24
-21 17 -25 17 -40 2z"/>
<path d="M1545 4086 c-68 -29 -110 -117 -83 -173 18 -38 68 -51 114 -30 43 21
46 41 3 23 -41 -17 -68 -10 -75 21 -8 30 -1 37 51 53 60 18 85 37 85 65 0 23
-33 55 -55 55 -5 -1 -24 -7 -40 -14z m55 -31 c0 -25 -47 -65 -75 -65 -23 0
-25 2 -14 23 6 12 18 30 27 40 19 21 62 23 62 2z"/>
<path d="M1750 4082 c-73 -36 -107 -145 -60 -192 25 -25 41 -25 71 -1 23 18
24 18 49 -1 15 -11 33 -16 43 -12 21 8 22 24 2 24 -19 0 -19 20 0 90 21 78 19
87 -16 99 -42 14 -48 14 -89 -7z m75 -22 c4 -6 -1 -35 -9 -65 -23 -76 -76
-110 -104 -65 -10 17 -8 28 14 73 15 28 32 55 38 59 16 11 54 10 61 -2z"/>
<path d="M1990 4082 c-25 -12 -36 -25 -38 -44 -3 -23 5 -33 42 -60 47 -32 59
-61 30 -72 -28 -11 -62 -6 -68 9 -9 23 -26 18 -26 -9 0 -41 63 -49 118 -16 25
15 32 27 32 50 0 24 -8 35 -40 55 -50 31 -60 53 -34 72 25 18 46 13 60 -15
l11 -22 11 24 c10 22 8 25 -20 35 -39 14 -37 14 -78 -7z"/>
<path d="M2225 4086 c-93 -42 -122 -174 -45 -206 23 -10 38 -9 71 1 24 8 44
20 47 27 3 9 -3 10 -23 2 -14 -5 -39 -10 -55 -10 -23 0 -31 5 -36 26 -8 31 -1
38 51 54 60 18 85 37 85 65 0 23 -33 55 -55 55 -5 -1 -23 -7 -40 -14z m53 -28
c5 -25 -42 -68 -73 -68 -23 0 -25 2 -14 23 31 59 79 84 87 45z"/>
<path d="M2822 4080 c-82 -37 -107 -162 -41 -199 22 -12 34 -13 65 -3 22 7 46
16 54 21 26 17 6 21 -35 7 -50 -18 -78 -6 -73 31 2 22 12 29 57 44 29 10 60
24 67 30 21 17 17 56 -8 73 -28 20 -34 20 -86 -4z m59 -12 c3 -28 -3 -44 -23
-60 -19 -17 -68 -25 -68 -12 0 9 42 68 55 76 16 12 35 9 36 -4z"/>
<path d="M3642 4085 c-59 -26 -56 -78 8 -114 49 -27 52 -60 6 -76 -24 -8 -31
-6 -46 13 -23 28 -30 28 -30 -3 0 -20 6 -25 34 -30 63 -12 116 18 116 66 0 23
-9 34 -40 54 -47 29 -58 49 -40 70 18 21 46 19 64 -6 14 -21 14 -21 25 -1 9
18 7 22 -21 31 -38 13 -35 13 -76 -4z"/>
<path d="M514 3999 c-3 -6 0 -17 8 -25 12 -12 17 -12 33 1 17 13 18 16 5 25
-20 13 -37 13 -46 -1z"/>
<path d="M4427 3996 c-9 -23 18 -39 42 -26 25 13 27 26 5 34 -25 10 -41 7 -47
-8z"/>
<path d="M436 3894 c-9 -23 19 -53 35 -37 15 15 7 47 -12 51 -9 2 -19 -5 -23
-14z"/>
<path d="M4505 3890 c-6 -10 15 -50 26 -50 8 0 19 26 19 46 0 16 -36 19 -45 4z"/>
<path d="M367 3783 c-24 -23 12 -55 38 -33 12 10 13 16 4 26 -12 15 -31 18
-42 7z"/>
<path d="M4577 3776 c-3 -8 0 -20 8 -26 19 -16 59 8 43 27 -14 17 -45 17 -51
-1z"/>
<path d="M302 3670 c-14 -23 -8 -40 13 -40 19 0 27 17 20 40 -8 25 -17 25 -33
0z"/>
<path d="M4651 3676 c-16 -19 -7 -46 14 -46 22 0 30 29 13 46 -13 13 -16 13
-27 0z"/>
<path d="M2207 3673 c-14 -13 -7 -33 11 -33 26 0 34 11 21 27 -13 14 -22 16
-32 6z"/>
<path d="M3915 3673 c-46 -10 -49 -13 -31 -26 16 -12 15 -20 -8 -132 -30 -141
-31 -147 -10 -143 8 2 23 26 33 55 20 59 65 123 87 123 18 0 18 -38 0 -106 -7
-29 -10 -57 -6 -64 9 -14 62 -9 67 7 3 7 -3 9 -16 6 -19 -5 -19 -4 2 76 16 61
19 86 11 99 -20 31 -49 25 -87 -18 -41 -45 -43 -41 -22 45 8 33 14 66 15 73 0
12 -1 13 -35 5z"/>
<path d="M1827 3663 c-13 -12 -7 -23 13 -23 24 0 25 9 -2 -118 -18 -84 -26
-107 -45 -119 -43 -28 -26 -35 75 -31 84 3 104 7 144 30 106 63 110 219 7 255
-36 13 -181 17 -192 6z m185 -34 c9 -5 22 -25 27 -45 19 -70 -11 -138 -73
-168 -32 -15 -106 -23 -106 -11 0 17 42 204 51 224 8 20 14 22 47 16 20 -4 44
-11 54 -16z"/>
<path d="M3748 3598 c-43 -46 -43 -48 -24 -48 11 0 11 -12 -1 -76 -8 -42 -12
-83 -9 -91 7 -18 68 -14 74 6 3 9 -2 11 -17 6 -26 -8 -26 4 -6 89 14 58 26 75
55 77 9 0 6 5 -8 12 -19 8 -23 17 -20 39 3 15 2 28 -1 27 -3 0 -23 -19 -43
-41z"/>
<path d="M2329 3575 c-15 -8 -30 -22 -33 -31 -8 -22 17 -60 53 -78 33 -18 46
-43 31 -61 -19 -23 -50 -25 -72 -3 -24 24 -50 9 -28 -17 10 -12 27 -15 63 -13
40 2 54 8 70 29 26 35 16 63 -34 95 -45 28 -52 60 -15 70 29 7 46 -1 46 -22 0
-8 4 -14 9 -14 11 0 25 39 18 47 -13 13 -84 12 -108 -2z"/>
<path d="M2549 3567 c-46 -31 -71 -81 -65 -132 2 -21 13 -45 22 -52 27 -20 88
-16 115 7 27 22 22 25 -16 8 -19 -8 -31 -8 -50 0 -21 10 -25 19 -25 52 0 23 7
54 15 70 25 49 78 67 90 30 8 -24 23 -26 32 -4 8 21 -22 44 -57 44 -15 0 -42
-10 -61 -23z"/>
<path d="M2754 3571 c-19 -11 -38 -36 -48 -62 -32 -80 -1 -139 74 -139 66 0
110 53 110 134 0 36 -5 48 -26 65 -33 26 -70 27 -110 2z m81 -21 c13 -15 16
-30 13 -65 -7 -62 -31 -95 -68 -95 -41 0 -57 38 -40 95 24 83 58 106 95 65z"/>
<path d="M3231 3573 c-45 -22 -71 -67 -71 -124 0 -56 21 -79 73 -79 43 0 87
15 87 31 0 7 -7 8 -17 4 -37 -16 -79 -17 -92 -1 -23 28 -8 50 49 71 74 27 80
32 80 65 0 49 -47 63 -109 33z m67 -25 c5 -24 -30 -57 -66 -64 l-34 -7 21 41
c25 49 72 67 79 30z"/>
<path d="M3514 3580 c-12 -4 -31 -21 -43 -37 l-22 -28 5 33 c5 28 3 32 -17 31
-12 0 -31 -4 -42 -8 -18 -7 -18 -8 -1 -18 17 -9 17 -14 1 -92 -9 -46 -14 -85
-11 -88 12 -13 35 8 41 39 9 42 28 78 61 117 24 29 27 30 39 15 11 -16 13 -16
24 4 11 21 8 43 -7 41 -4 0 -16 -4 -28 -9z"/>
<path d="M4184 3576 c-37 -16 -61 -47 -74 -98 -11 -38 0 -86 23 -100 24 -16
92 -8 117 13 20 17 21 20 5 14 -48 -16 -81 -17 -94 -1 -24 29 -8 50 52 72 76
27 98 62 61 98 -19 19 -49 20 -90 2z m58 -36 c-1 -13 -7 -29 -13 -36 -11 -14
-67 -29 -76 -20 -7 7 34 73 50 80 25 10 42 0 39 -24z"/>
<path d="M2151 3571 c-11 -7 -10 -10 4 -18 16 -10 16 -14 1 -75 -25 -100 -23
-110 21 -106 20 2 39 9 41 17 3 10 0 12 -12 8 -21 -8 -21 18 -1 93 21 80 20
90 -12 90 -16 0 -34 -4 -42 -9z"/>
<path d="M2940 3571 c-25 -7 -25 -8 -3 -15 13 -4 24 -18 27 -34 3 -15 11 -55
17 -90 9 -48 15 -62 26 -58 8 4 16 6 18 6 8 0 117 191 112 196 -3 3 -21 3 -39
-1 -28 -7 -31 -9 -16 -19 16 -9 14 -15 -15 -68 -17 -32 -34 -58 -38 -58 -3 0
-12 34 -18 75 -13 80 -15 82 -71 66z"/>
<path d="M240 3545 c-9 -11 -9 -18 3 -35 14 -20 14 -20 32 0 15 16 15 22 5 35
-16 19 -24 19 -40 0z"/>
<path d="M4704 3546 c-3 -8 0 -25 7 -37 11 -22 12 -22 25 -4 18 25 18 41 -2
49 -22 8 -24 8 -30 -8z"/>
<path d="M741 3360 c-18 -55 -36 -100 -41 -100 -5 0 -22 42 -38 93 l-29 92 5
-91 c6 -108 -6 -150 -74 -269 -91 -160 -104 -257 -50 -378 14 -32 26 -70 26
-85 0 -33 7 -42 43 -65 19 -13 27 -26 27 -47 0 -51 21 -134 45 -175 50 -86
154 -153 217 -140 27 6 30 5 24 -10 -21 -56 -27 -117 -24 -241 3 -126 6 -144
30 -196 49 -104 143 -186 239 -207 36 -8 60 -7 104 4 32 9 59 14 60 13 1 -2
22 -34 47 -73 54 -83 104 -133 213 -210 99 -71 139 -91 240 -126 l80 -27 6
-77 c9 -106 58 -203 148 -294 36 -37 89 -96 116 -131 86 -110 190 -162 319
-163 85 0 133 23 239 114 83 71 93 77 101 59 6 -12 3 -32 -6 -57 -18 -45 -9
-80 24 -91 13 -4 76 -7 142 -6 112 2 120 3 143 27 24 23 25 31 24 121 -2 98
-16 157 -50 204 -10 15 -26 50 -36 77 -47 140 -117 175 -235 118 -47 -23 -69
-27 -150 -28 -99 -1 -132 -11 -150 -45 -18 -33 -30 -23 -30 24 0 50 10 61 65
70 93 16 160 80 171 165 6 44 9 48 54 69 51 23 69 53 84 135 8 42 9 43 79 51
l47 6 31 -67 c29 -63 30 -71 24 -147 -8 -96 10 -154 57 -188 27 -19 36 -20 87
-11 42 8 79 7 148 -3 102 -15 104 -15 186 39 70 46 92 87 102 194 6 66 5 72
-14 83 -15 8 -32 8 -59 0 -45 -12 -182 -13 -201 -1 -22 14 12 95 53 126 81 61
107 211 57 323 -45 101 -166 180 -290 190 -51 4 -83 14 -141 44 -99 51 -180
60 -295 30 -44 -11 -86 -22 -94 -24 -8 -2 -19 13 -29 42 -36 108 -113 176
-324 285 -64 33 -114 63 -112 66 2 4 23 12 48 18 24 6 72 30 107 53 80 54 92
85 59 153 -28 58 -78 95 -183 136 -201 77 -388 77 -553 0 -35 -16 -65 -27 -67
-23 -2 4 -9 26 -17 49 -7 23 -39 74 -71 114 -33 39 -59 79 -59 88 0 24 -161
174 -216 202 -27 13 -66 36 -88 52 -25 17 -52 27 -75 27 -47 0 -82 10 -75 21
7 12 -12 11 -73 -5 -28 -8 -54 -12 -56 -9 -3 2 -1 20 5 39 18 68 4 72 -36 12
-21 -32 -41 -58 -44 -58 -3 0 -2 32 1 70 3 39 3 70 -1 70 -4 0 -22 -45 -41
-100z m344 -97 c130 -32 211 -88 296 -205 28 -39 68 -90 89 -112 74 -82 93
-152 62 -231 -11 -27 -23 -69 -27 -93 -5 -31 -25 -67 -72 -129 -74 -98 -91
-114 -153 -147 -47 -25 -87 -24 -185 3 -47 13 -95 -5 -121 -44 -39 -59 -110
-70 -192 -29 -67 33 -85 60 -117 175 -14 52 -28 101 -31 110 -2 9 -16 21 -29
27 -20 9 -25 19 -25 46 0 20 -10 61 -22 93 -24 66 -30 201 -10 270 19 65 86
157 145 197 60 41 115 62 207 80 69 14 89 13 185 -11z m973 -439 c148 -30 287
-104 312 -164 12 -28 11 -37 -1 -59 -30 -52 -174 -111 -274 -111 -51 0 -69 5
-108 30 -26 16 -55 43 -66 60 l-18 31 -17 -26 c-11 -17 -25 -25 -44 -24 -15 0
-21 3 -14 6 6 2 12 17 12 32 0 25 -2 26 -39 23 -21 -2 -42 1 -45 7 -13 21 -21
11 -21 -29 -1 -26 4 -40 12 -40 6 0 23 -5 37 -11 21 -10 23 -15 15 -30 -25
-47 -112 -4 -125 61 -8 35 -24 30 -24 -7 0 -19 15 -41 50 -75 40 -39 46 -48
29 -48 -60 0 -120 61 -127 130 -6 67 -22 64 -22 -5 0 -49 4 -59 36 -95 34 -37
35 -40 14 -40 -33 0 -97 69 -105 113 -17 87 70 205 180 246 110 41 233 50 353
25z m-138 -300 c0 -47 45 -78 150 -104 179 -43 246 -68 309 -116 62 -46 151
-156 191 -233 21 -42 21 -46 6 -78 -18 -37 -22 -98 -6 -88 6 3 10 15 10 25 0
11 14 35 30 54 24 27 44 37 103 52 39 9 107 17 149 17 69 0 87 -5 165 -41 64
-30 100 -40 133 -40 118 3 220 -69 254 -177 40 -127 27 -232 -30 -260 -40 -19
-50 -34 -52 -72 -4 -62 -20 -97 -62 -138 -22 -22 -40 -43 -40 -47 0 -5 24 5
53 21 67 38 116 47 171 31 38 -10 47 -10 69 5 28 18 78 17 85 -2 2 -9 -9 -13
-37 -13 -45 0 -55 -16 -16 -26 25 -6 45 -31 45 -54 0 -8 -9 -10 -27 -5 -16 3
-38 9 -50 12 -35 8 -27 -11 12 -30 50 -24 43 -77 -9 -77 -12 0 -39 -11 -61
-25 -52 -32 -121 -33 -192 -3 -51 21 -54 21 -88 5 -48 -23 -67 -21 -94 7 -30
32 -37 91 -17 140 21 51 20 73 -6 123 -21 39 -22 46 -10 114 7 40 14 74 16 76
2 2 23 -2 48 -8 25 -7 53 -9 64 -5 15 7 9 11 -28 20 -66 18 -123 59 -158 114
-23 36 -30 42 -30 25 0 -12 16 -42 35 -67 19 -26 35 -54 35 -64 0 -20 -25 -60
-48 -79 -24 -20 -93 -15 -131 8 -40 24 -48 19 -31 -21 29 -70 3 -168 -50 -190
-20 -8 -38 -9 -65 -1 l-37 10 6 -38 c12 -79 -76 -183 -168 -196 -25 -4 -47
-13 -49 -19 -3 -7 -1 -34 4 -60 12 -64 -1 -86 -47 -86 -51 0 -38 -21 22 -35
68 -16 108 -39 140 -80 18 -24 30 -33 37 -26 15 15 -10 67 -50 102 -33 28 -35
33 -23 55 17 31 64 32 145 4 l59 -20 40 39 c50 47 76 61 114 61 57 0 90 -44
106 -141 4 -20 17 -47 30 -60 52 -54 60 -76 62 -185 1 -92 -1 -106 -17 -114
-10 -6 -24 -10 -32 -10 -15 0 -37 41 -37 70 0 11 -4 20 -9 20 -11 0 -21 -25
-21 -56 0 -13 -4 -24 -10 -24 -5 0 -10 10 -10 23 0 12 -4 28 -9 35 -12 19 -31
-8 -28 -41 3 -37 -16 -38 -28 -1 -14 42 -30 41 -30 -1 0 -26 -4 -35 -16 -35
-22 0 -30 33 -16 69 8 22 8 39 -2 69 -14 43 -12 91 9 163 13 44 7 111 -9 93
-4 -5 -16 -38 -26 -74 -24 -84 -40 -116 -84 -167 -20 -24 -51 -61 -70 -84 -82
-96 -206 -113 -361 -47 -58 25 -104 70 -198 193 -120 156 -183 299 -168 379 6
32 28 61 75 99 12 10 19 22 16 28 -10 15 -45 0 -84 -33 -30 -27 -40 -30 -82
-26 -58 6 -198 71 -284 133 -114 81 -173 156 -272 347 -21 39 -53 188 -53 246
0 6 -5 12 -11 12 -17 0 -5 -215 15 -269 20 -55 14 -61 -66 -61 -104 0 -205 67
-251 169 -20 42 -21 62 -20 237 1 203 9 242 56 292 55 60 121 67 213 23 90
-42 103 -71 23 -47 -27 8 -52 11 -60 6 -15 -10 -10 -13 42 -24 15 -3 37 -15
50 -27 l24 -20 -30 4 c-16 3 -48 9 -69 13 -56 10 -38 -10 27 -32 76 -24 80
-30 73 -89 -5 -50 -31 -85 -62 -85 -21 0 -17 34 6 55 28 25 25 34 -15 51 -45
19 -45 19 -39 -16 14 -69 -17 -101 -110 -115 -42 -7 -47 -10 -33 -20 14 -10
29 -10 75 1 31 8 77 14 102 14 56 0 85 19 101 67 13 40 7 138 -12 203 l-12 41
71 65 c39 36 90 94 113 130 23 35 43 64 44 64 2 0 17 -22 34 -49 18 -27 44
-57 59 -67 71 -46 203 1 248 89 25 47 84 62 84 21z"/>
<path d="M1041 3084 c-19 -8 -32 -17 -29 -20 6 -5 129 24 137 32 11 11 -78 1
-108 -12z"/>
<path d="M1280 2961 c-34 -35 -57 -50 -95 -60 -27 -7 -58 -15 -67 -18 -10 -2
-18 -9 -18 -15 0 -18 101 1 145 27 35 20 105 93 105 109 0 18 -31 -1 -70 -43z"/>
<path d="M744 2838 c-31 -30 -53 -58 -47 -61 11 -7 120 100 110 109 -3 4 -32
-18 -63 -48z"/>
<path d="M905 2745 c-42 -37 -129 -75 -170 -75 -34 0 -41 -18 -10 -26 51 -13
174 41 215 93 41 52 21 56 -35 8z"/>
<path d="M1164 2755 c11 -8 24 -15 29 -15 5 0 4 -7 -3 -15 -7 -8 -21 -15 -31
-15 -10 0 -21 -5 -24 -11 -5 -7 6 -9 30 -7 68 6 75 70 9 76 -28 2 -28 2 -10
-13z"/>
<path d="M1017 2670 c-10 -38 43 -66 71 -38 13 13 17 48 5 48 -3 0 -15 -8 -25
-17 -18 -16 -19 -16 -25 5 -7 27 -19 28 -26 2z"/>
<path d="M1286 2641 c-10 -11 -34 -23 -53 -27 -18 -3 -48 -20 -65 -36 -18 -17
-43 -34 -57 -39 -18 -7 -21 -13 -13 -21 9 -9 33 0 97 33 94 48 119 69 113 94
-3 15 -5 15 -22 -4z"/>
<path d="M1258 2524 c-29 -15 -37 -34 -15 -34 20 0 50 25 46 38 -3 7 -13 6
-31 -4z"/>
<path d="M1693 2308 c-44 -30 -52 -45 -31 -66 20 -20 49 -13 79 19 33 36 36
54 12 68 -14 7 -29 1 -60 -21z m42 -28 c-10 -11 -27 -20 -38 -20 -19 0 -20 1
-2 20 10 11 27 20 38 20 19 0 20 -1 2 -20z"/>
<path d="M1382 1951 c-18 -32 -21 -45 -12 -61 19 -36 63 -16 76 35 17 69 -29
88 -64 26z m53 9 c7 -12 -22 -70 -35 -70 -13 0 -13 36 0 61 12 21 25 25 35 9z"/>
<path d="M2150 1844 c-48 -21 -68 -41 -96 -96 -35 -68 -34 -155 2 -197 18 -21
35 -31 55 -31 37 0 48 23 47 96 -2 77 6 99 42 114 63 26 122 -21 101 -81 -17
-50 -13 -85 14 -118 29 -34 56 -45 85 -36 29 9 25 34 -12 72 -26 27 -31 39
-29 71 9 101 6 127 -19 159 -48 60 -120 77 -190 47z"/>
<path d="M2513 1499 c-27 -10 -53 -47 -53 -77 0 -37 27 -79 56 -86 61 -16 112
34 100 97 -10 53 -57 83 -103 66z"/>
<path d="M190 3424 c-11 -12 -11 -18 1 -30 13 -12 18 -12 34 0 16 12 17 16 6
30 -17 20 -25 20 -41 0z"/>
<path d="M4759 3424 c-17 -21 3 -38 36 -30 27 7 26 19 -5 36 -13 7 -21 6 -31
-6z"/>
<path d="M4811 3306 c-14 -16 -9 -46 7 -46 5 0 15 7 22 16 11 12 11 18 -2 30
-13 13 -16 13 -27 0z"/>
<path d="M142 3298 c-13 -13 2 -38 23 -38 21 0 36 25 23 38 -7 7 -17 12 -23
12 -6 0 -16 -5 -23 -12z"/>
<path d="M103 3164 c-9 -24 11 -38 37 -24 17 9 19 14 9 26 -15 19 -38 18 -46
-2z"/>
<path d="M4005 3170 c-48 -11 -72 -28 -82 -57 -16 -48 -2 -74 61 -108 73 -41
80 -48 73 -77 -8 -30 -46 -51 -89 -50 -37 1 -58 23 -51 52 7 26 -13 26 -27 -1
-20 -36 -9 -62 30 -71 94 -21 180 25 180 96 0 39 -20 60 -89 90 -52 24 -65 60
-31 88 32 26 100 22 100 -6 0 -6 5 -18 10 -26 9 -13 11 -13 20 0 16 24 12 58
-7 63 -43 12 -70 14 -98 7z"/>
<path d="M4847 3173 c-24 -23 12 -55 38 -33 12 10 13 16 4 26 -12 15 -31 18
-42 7z"/>
<path d="M3043 3163 c-26 -5 -31 -23 -7 -23 10 0 14 -6 10 -17 -18 -65 -46
-237 -39 -244 4 -4 26 -11 48 -14 96 -14 184 116 129 193 -20 29 -46 28 -83
-4 -35 -29 -35 -30 -17 54 15 68 16 66 -41 55z m111 -145 c7 -19 3 -38 -17
-82 -21 -46 -30 -56 -50 -56 -39 0 -50 21 -37 71 12 45 62 103 83 97 6 -3 16
-16 21 -30z"/>
<path d="M3500 3130 c-26 -50 -5 -56 34 -9 31 37 33 49 6 49 -13 0 -27 -14
-40 -40z"/>
<path d="M2470 3150 c0 -5 7 -10 15 -10 20 0 19 -14 -7 -137 -19 -93 -25 -106
-47 -116 -22 -10 -10 -12 77 -15 114 -3 147 7 171 49 18 32 8 75 -19 84 -27 9
-25 17 10 37 40 23 41 68 4 97 -23 18 -41 21 -115 21 -53 0 -89 -4 -89 -10z
m164 -26 c37 -36 9 -83 -53 -91 l-44 -6 6 47 c4 26 9 52 13 57 9 15 61 10 78
-7z m-20 -127 c11 -8 19 -26 19 -42 0 -40 -35 -65 -88 -65 l-43 0 10 48 c5 26
11 53 13 60 6 16 66 16 89 -1z"/>
<path d="M2789 3053 c-97 -82 -61 -247 39 -177 21 15 25 15 41 0 23 -21 45
-20 62 1 13 15 12 16 -8 11 -28 -7 -28 -4 -3 92 18 70 18 76 3 88 -31 22 -98
15 -134 -15z m95 -35 c-2 -54 -23 -97 -57 -115 -29 -14 -31 -14 -48 8 -17 22
-16 25 12 80 29 59 40 69 74 66 16 -2 20 -9 19 -39z"/>
<path d="M3605 3055 c-14 -13 -25 -31 -25 -39 0 -14 54 -66 68 -66 4 0 13 -9
20 -21 11 -18 11 -23 -5 -35 -27 -20 -61 -17 -74 8 -11 20 -12 20 -22 3 -13
-25 15 -45 64 -45 29 0 43 7 63 31 14 17 26 35 26 40 0 13 -46 59 -58 59 -6 0
-17 11 -26 25 -16 24 -16 26 8 37 20 9 30 8 51 -6 23 -15 26 -15 32 0 15 40
-84 48 -122 9z"/>
<path d="M4235 3070 c-54 -22 -95 -111 -75 -164 17 -46 75 -59 131 -30 41 21
30 28 -20 13 -47 -14 -71 -2 -71 36 0 19 9 26 53 40 28 10 60 24 70 33 20 17
22 53 5 70 -14 14 -63 15 -93 2z m59 -19 c13 -21 -14 -59 -49 -71 -43 -14 -51
-10 -35 22 27 51 68 75 84 49z"/>
<path d="M74 3046 c-9 -37 10 -56 33 -33 16 16 16 18 -4 39 l-22 21 -7 -27z"/>
<path d="M3240 3063 c0 -3 6 -14 14 -22 8 -9 21 -53 30 -99 16 -86 14 -105
-20 -132 -14 -12 -18 -12 -30 4 -13 18 -14 18 -22 -5 -8 -20 -6 -25 11 -32 11
-4 28 -5 38 -2 18 6 179 263 179 285 0 13 -40 13 -60 0 -13 -8 -12 -10 3 -10
9 0 17 -5 17 -10 0 -11 -59 -120 -65 -120 -2 0 -9 26 -15 58 -18 91 -19 92
-51 92 -16 0 -29 -3 -29 -7z"/>
<path d="M4398 3064 c-3 -3 5 -16 18 -29 37 -37 31 -69 -23 -120 -50 -49 -51
-61 -4 -50 30 6 44 25 19 25 -6 0 -1 11 12 25 31 33 37 32 57 -10 18 -38 31
-46 62 -38 24 6 28 23 6 23 -15 0 -45 48 -45 73 0 7 18 30 40 50 47 42 51 60
13 55 -18 -2 -27 -8 -25 -17 3 -14 -25 -51 -39 -51 -4 0 -13 16 -20 35 -10 28
-18 35 -39 35 -15 0 -29 -3 -32 -6z"/>
<path d="M4873 3034 c-3 -8 1 -22 9 -30 13 -13 16 -13 27 0 7 9 11 23 7 31 -7
20 -35 19 -43 -1z"/>
<path d="M47 2913 c-23 -22 14 -53 39 -32 11 9 11 15 3 25 -12 15 -31 18 -42
7z"/>
<path d="M4897 2906 c-6 -15 11 -36 29 -36 21 0 35 25 22 38 -16 16 -45 15
-51 -2z"/>
<path d="M30 2775 c-10 -12 -10 -18 0 -31 12 -13 15 -13 28 0 15 15 10 46 -6
46 -5 0 -15 -7 -22 -15z"/>
<path d="M4921 2777 c-8 -10 -7 -19 4 -33 15 -19 15 -19 30 0 11 14 12 23 4
33 -6 7 -15 13 -19 13 -4 0 -13 -6 -19 -13z"/>
<path d="M20 2655 c-15 -18 -6 -45 14 -45 20 0 29 16 21 40 -8 24 -18 25 -35
5z"/>
<path d="M4937 2653 c-11 -10 -8 -41 4 -48 5 -4 19 1 30 10 18 17 18 19 1 31
-20 15 -26 17 -35 7z"/>
<path d="M5 2510 c-4 -7 -3 -16 3 -22 14 -14 47 -6 47 12 0 18 -40 26 -50 10z"/>
<path d="M4937 2513 c-24 -23 12 -55 38 -33 12 10 13 16 4 26 -12 15 -31 18
-42 7z"/>
<path d="M13 2374 c-10 -26 13 -39 44 -25 27 12 27 13 8 27 -25 18 -44 18 -52
-2z"/>
<path d="M4927 2376 c-3 -8 1 -22 9 -33 14 -17 14 -17 29 1 11 14 12 23 4 33
-15 17 -35 17 -42 -1z"/>
<path d="M30 2245 c-11 -13 -11 -19 4 -33 15 -15 18 -15 26 -2 22 33 -6 64
-30 35z"/>
<path d="M4921 2246 c-16 -19 11 -40 39 -31 20 6 21 8 4 26 -20 23 -28 24 -43
5z"/>
<path d="M45 2110 c-4 -7 -3 -16 3 -22 14 -14 47 -6 47 12 0 18 -40 26 -50 10z"/>
<path d="M4897 2106 c-9 -24 18 -39 42 -24 25 15 26 24 5 32 -25 10 -41 7 -47
-8z"/>
<path d="M69 1984 c-10 -12 -9 -18 3 -30 13 -13 19 -14 37 -2 27 17 26 22 -3
36 -19 9 -27 8 -37 -4z"/>
<path d="M4870 1980 c-13 -8 -13 -11 3 -27 16 -16 18 -16 33 -1 28 27 -1 50
-36 28z"/>
<path d="M113 1863 c-20 -7 -16 -43 5 -43 33 0 44 15 25 32 -10 8 -24 13 -30
11z"/>
<path d="M4850 1855 c-25 -30 10 -61 38 -33 17 17 15 26 -7 37 -14 8 -22 7
-31 -4z"/>
<path d="M143 1731 c-10 -15 -9 -22 2 -31 22 -19 48 5 34 31 -12 24 -21 24
-36 0z"/>
<path d="M4811 1727 c-13 -17 -5 -47 14 -47 19 0 28 32 12 47 -12 12 -16 12
-26 0z"/>
<path d="M4760 1605 c-11 -13 -11 -19 3 -33 20 -19 41 -5 35 24 -4 24 -22 28
-38 9z"/>
<path d="M184 1599 c-3 -6 1 -18 10 -27 15 -15 17 -15 32 0 19 19 11 38 -16
38 -10 0 -22 -5 -26 -11z"/>
<path d="M234 1475 c-8 -19 3 -35 25 -35 26 0 44 23 29 38 -17 17 -47 15 -54
-3z"/>
<path d="M4703 1474 c-8 -22 11 -37 36 -29 25 8 28 30 5 39 -25 9 -34 7 -41
-10z"/>
<path d="M294 1359 c-3 -6 0 -18 9 -26 12 -12 19 -13 38 -3 22 12 22 13 4 26
-23 17 -41 18 -51 3z"/>
<path d="M4646 1361 c-9 -14 4 -41 19 -41 7 0 18 7 26 16 10 13 10 17 -2 25
-18 11 -36 11 -43 0z"/>
<path d="M4585 1240 c-16 -17 -16 -19 3 -29 15 -8 23 -6 35 7 15 16 15 19 -2
29 -15 10 -22 8 -36 -7z"/>
<path d="M363 1234 c-3 -8 1 -22 9 -30 13 -13 16 -13 27 0 7 9 11 23 7 31 -7
20 -35 19 -43 -1z"/>
<path d="M441 1136 c-14 -16 -4 -46 14 -46 19 0 27 17 20 40 -7 23 -18 25 -34
6z"/>
<path d="M4512 1127 c-9 -10 -8 -18 3 -33 13 -16 16 -17 25 -4 21 31 -5 65
-28 37z"/>
<path d="M4437 1029 c-18 -26 -10 -43 19 -37 23 4 27 20 11 42 -13 18 -15 18
-30 -5z"/>
<path d="M520 1025 c-9 -11 -11 -22 -4 -32 13 -21 25 -21 38 -1 8 14 7 21 -5
33 -14 15 -17 15 -29 0z"/>
<path d="M595 920 c-8 -13 13 -40 30 -40 7 0 18 6 24 14 10 12 8 17 -8 25 -25
14 -38 14 -46 1z"/>
<path d="M4351 916 c-14 -17 9 -39 33 -30 19 7 20 16 4 32 -15 15 -23 15 -37
-2z"/>
<path d="M690 824 c-11 -12 -10 -18 3 -32 21 -21 42 -3 32 27 -8 25 -18 27
-35 5z"/>
<path d="M4261 817 c-9 -11 -8 -17 3 -26 18 -15 48 -3 44 18 -4 21 -32 26 -47
8z"/>
<path d="M785 719 c-10 -30 11 -48 32 -27 13 14 14 20 3 32 -17 22 -27 20 -35
-5z"/>
<path d="M4164 726 c-3 -8 0 -24 6 -36 l12 -22 15 21 c12 17 12 25 3 36 -16
19 -29 19 -36 1z"/>
<path d="M881 636 c-9 -11 -8 -18 5 -30 15 -16 18 -16 36 1 18 16 18 18 2 30
-23 16 -29 16 -43 -1z"/>
<path d="M4070 634 c-11 -12 -11 -18 1 -29 12 -12 17 -12 33 0 16 12 17 17 6
30 -16 19 -24 19 -40 -1z"/>
<path d="M3973 563 c-15 -5 -17 -39 -3 -48 11 -7 50 11 50 23 0 12 -34 29 -47
25z"/>
<path d="M984 549 c-3 -6 1 -18 10 -27 15 -15 17 -15 34 1 15 16 15 19 2 27
-20 13 -37 12 -46 -1z"/>
<path d="M1098 483 c-20 -22 -9 -47 17 -41 24 4 28 20 12 42 -12 17 -13 17
-29 -1z"/>
<path d="M3860 475 c-6 -8 -9 -19 -5 -25 8 -13 42 -13 50 0 7 11 -12 40 -25
40 -4 0 -13 -7 -20 -15z"/>
<path d="M1212 418 c-27 -27 -5 -72 23 -48 18 15 19 21 2 43 -10 14 -15 15
-25 5z"/>
<path d="M3752 418 c-15 -15 -15 -45 -1 -54 6 -3 18 0 26 9 14 13 14 18 1 36
-11 16 -17 18 -26 9z"/>
<path d="M1322 343 c-18 -34 9 -58 36 -31 7 7 8 17 1 30 -12 23 -26 23 -37 1z"/>
<path d="M3630 335 c-17 -21 1 -39 29 -30 25 8 28 30 5 39 -21 8 -20 8 -34 -9z"/>
<path d="M1433 274 c-3 -8 2 -23 11 -32 15 -15 17 -15 33 0 13 14 14 20 3 32
-16 20 -39 20 -47 0z"/>
<path d="M3503 274 c-8 -22 11 -37 36 -29 25 8 28 30 5 39 -25 9 -34 7 -41
-10z"/>
<path d="M1565 230 c-7 -23 1 -40 20 -40 21 0 27 17 13 40 -16 25 -25 25 -33
0z"/>
<path d="M3391 226 c-14 -16 -9 -46 7 -46 5 0 15 7 22 16 11 12 11 18 -2 30
-13 13 -16 13 -27 0z"/>
<path d="M1685 179 c-7 -20 7 -38 27 -39 13 0 19 20 13 40 -8 26 -32 26 -40
-1z"/>
<path d="M3254 179 c-3 -6 0 -18 9 -26 12 -12 19 -13 38 -3 22 12 22 13 4 26
-23 17 -41 18 -51 3z"/>
<path d="M1813 134 c-3 -8 1 -22 9 -30 13 -13 16 -13 27 0 7 9 11 23 7 31 -7
20 -35 19 -43 -1z"/>
<path d="M3131 137 c-8 -10 -7 -19 4 -33 15 -19 15 -19 30 0 11 14 12 23 4 33
-6 7 -15 13 -19 13 -4 0 -13 -6 -19 -13z"/>
<path d="M1947 113 c-11 -10 -8 -41 4 -49 6 -3 18 1 27 9 13 13 13 19 2 31
-14 17 -23 20 -33 9z"/>
<path d="M3002 108 c-8 -8 -9 -15 -1 -25 14 -17 34 -17 48 0 11 15 -3 37 -24
37 -6 0 -16 -5 -23 -12z"/>
<path d="M2872 86 c-9 -20 -8 -27 4 -37 12 -10 18 -9 32 4 15 16 15 18 -4 37
l-20 21 -12 -25z"/>
<path d="M2081 87 c-26 -26 -4 -55 29 -37 25 13 25 22 1 37 -14 9 -21 9 -30 0z"/>
<path d="M2210 65 c-9 -10 -8 -19 1 -36 11 -22 12 -22 25 -4 8 10 14 24 14 31
0 18 -27 25 -40 9z"/>
<path d="M2344 63 c-14 -23 -7 -43 16 -43 23 0 31 21 15 43 -15 21 -18 21 -31
0z"/>
<path d="M2740 65 c-19 -22 1 -39 35 -31 26 7 27 8 10 26 -22 24 -29 25 -45 5z"/>
<path d="M2611 56 c-19 -22 4 -62 25 -45 17 14 15 50 -2 56 -6 2 -16 -3 -23
-11z"/>
<path d="M2470 40 c0 -11 7 -23 15 -27 19 -7 22 -4 27 22 2 14 -3 21 -19 23
-18 3 -23 -2 -23 -18z"/>
</g>
</svg>
