<?xml version="1.0" standalone="no"?>
<!DOCTYPE svg PUBLIC "-//W3C//DTD SVG 20010904//EN"
 "http://www.w3.org/TR/2001/REC-SVG-20010904/DTD/svg10.dtd">
<svg version="1.0" xmlns="http://www.w3.org/2000/svg"
 width="499.000000pt" height="500.000000pt" viewBox="0 0 499.000000 500.000000"
 preserveAspectRatio="xMidYMid meet">
<metadata>
Created by potrace 1.15, written by Peter Selinger 2001-2017
</metadata>
<g transform="translate(0.000000,500.000000) scale(0.100000,-0.100000)"
fill="#000000" stroke="none">
<path d="M2341 4976 c-9 -11 -9 -19 1 -35 16 -27 22 -26 36 3 7 17 7 27 -1 35
-15 15 -22 14 -36 -3z"/>
<path d="M2477 4983 c-11 -10 -8 -41 4 -49 16 -9 41 20 33 39 -6 17 -25 22
-37 10z"/>
<path d="M2611 4976 c-18 -22 4 -62 25 -45 18 15 18 33 0 48 -10 9 -16 8 -25
-3z"/>
<path d="M2210 4965 c-15 -18 -5 -35 20 -35 10 0 22 5 25 10 7 11 -12 40 -25
40 -4 0 -13 -7 -20 -15z"/>
<path d="M2739 4964 c-21 -25 19 -45 51 -24 13 8 12 11 -5 24 -25 19 -30 19
-46 0z"/>
<path d="M2074 4945 c-12 -29 15 -45 45 -26 12 8 12 12 2 25 -17 20 -40 21
-47 1z"/>
<path d="M2877 4953 c-24 -23 12 -55 38 -33 12 10 13 16 4 26 -12 15 -31 18
-42 7z"/>
<path d="M1941 4917 c-8 -11 -6 -18 8 -31 15 -14 20 -14 30 -3 13 17 5 47 -14
47 -7 0 -18 -6 -24 -13z"/>
<path d="M3001 4916 c-18 -21 11 -41 38 -26 25 13 27 26 5 34 -23 9 -30 8 -43
-8z"/>
<path d="M1815 4889 c-8 -26 6 -42 28 -33 20 7 22 25 5 42 -17 17 -26 15 -33
-9z"/>
<path d="M3131 4892 c-8 -15 -7 -23 5 -33 18 -15 38 0 32 27 -5 25 -25 28 -37
6z"/>
<path d="M1690 4855 c-12 -15 -7 -45 7 -45 21 1 35 19 28 39 -8 25 -18 27 -35
6z"/>
<path d="M3261 4851 c-10 -7 -11 -13 -2 -30 15 -26 28 -27 36 -1 10 33 -6 48
-34 31z"/>
<path d="M3392 4818 c-16 -16 -15 -45 2 -51 23 -9 39 18 26 42 -13 25 -12 25
-28 9z"/>
<path d="M1567 4813 c-12 -11 -8 -40 7 -52 12 -10 17 -8 26 9 16 29 -12 65
-33 43z"/>
<path d="M1434 4749 c-3 -6 0 -18 9 -26 12 -12 19 -13 36 -3 18 9 20 14 10 26
-14 17 -45 19 -55 3z"/>
<path d="M3504 4745 c-13 -32 23 -48 47 -19 10 13 10 17 -2 25 -21 13 -39 11
-45 -6z"/>
<path d="M3629 4697 c-14 -31 -2 -52 24 -41 21 8 22 24 3 49 -14 19 -15 19
-27 -8z"/>
<path d="M1320 4694 c-11 -12 -10 -18 3 -32 16 -15 18 -15 34 0 13 14 14 20 3
32 -7 9 -16 16 -20 16 -4 0 -13 -7 -20 -16z"/>
<path d="M1204 4625 c-12 -30 16 -45 46 -25 13 9 12 12 -4 25 -25 19 -35 19
-42 0z"/>
<path d="M3744 4625 c-12 -31 23 -48 45 -21 10 12 8 17 -8 25 -26 14 -31 14
-37 -4z"/>
<path d="M3862 4568 c-16 -16 -15 -45 2 -51 23 -9 39 18 26 42 -13 25 -12 25
-28 9z"/>
<path d="M1103 4563 c-18 -6 -16 -40 1 -46 8 -3 20 1 27 9 10 12 9 18 -2 28
-8 8 -20 12 -26 9z"/>
<path d="M984 4475 c-12 -29 15 -45 45 -26 12 8 12 12 2 25 -17 20 -40 21 -47
1z"/>
<path d="M3961 4477 c-8 -10 -7 -19 4 -33 13 -18 15 -18 31 -2 14 14 15 20 4
32 -15 19 -24 20 -39 3z"/>
<path d="M874 4389 c-3 -6 1 -18 10 -27 15 -15 17 -15 32 0 19 19 11 38 -16
38 -10 0 -22 -5 -26 -11z"/>
<path d="M4064 4389 c-3 -6 0 -17 8 -25 12 -12 17 -12 32 -1 11 8 16 19 12 25
-9 15 -43 15 -52 1z"/>
<path d="M4172 4318 c-21 -21 -15 -50 10 -46 27 4 32 18 16 41 -11 14 -16 15
-26 5z"/>
<path d="M793 4313 c-17 -6 -17 -39 0 -46 7 -3 20 1 30 8 16 11 16 13 -1 27
-9 9 -23 13 -29 11z"/>
<path d="M687 4206 c-3 -8 1 -22 8 -33 13 -16 16 -16 25 -3 5 8 9 22 7 30 -3
20 -33 25 -40 6z"/>
<path d="M4255 4210 c-7 -11 12 -50 25 -50 12 0 23 37 15 50 -8 13 -32 13 -40
0z"/>
<path d="M1373 4183 c-25 -5 -30 -19 -10 -26 9 -3 7 -30 -11 -118 -30 -154
-30 -161 10 -157 17 2 34 9 36 17 3 10 0 12 -12 8 -21 -8 -21 -3 9 143 14 68
25 127 25 131 0 9 -8 9 -47 2z"/>
<path d="M1068 4174 c-14 -13 -8 -24 12 -24 11 0 20 -2 20 -4 0 -8 -41 -202
-46 -218 -3 -10 -12 -18 -19 -18 -8 0 -17 -4 -20 -10 -4 -6 19 -10 61 -10 68
0 68 0 47 20 -18 16 -20 25 -12 57 5 21 9 41 9 44 0 4 27 9 60 11 76 5 114 31
118 80 5 56 -22 72 -132 76 -50 2 -94 0 -98 -4z m162 -34 c11 -11 20 -26 20
-34 0 -29 -35 -57 -79 -63 l-43 -6 7 44 c4 24 11 52 17 62 12 23 53 22 78 -3z"/>
<path d="M2507 4173 c-12 -12 -7 -22 8 -17 26 10 27 -22 5 -118 -29 -127 -28
-125 -50 -131 -11 -3 -20 -10 -20 -16 0 -14 216 -9 230 5 12 13 24 84 14 84
-5 -1 -18 -15 -29 -33 -18 -29 -26 -32 -73 -35 -48 -3 -53 -1 -49 15 3 10 13
56 22 103 22 107 31 130 50 130 9 0 13 5 10 10 -7 11 -108 14 -118 3z"/>
<path d="M3522 4154 c-9 -6 -39 -57 -67 -113 -27 -56 -52 -101 -55 -101 -4 0
-12 50 -20 110 l-13 110 -48 0 c-27 0 -49 -4 -49 -10 0 -5 9 -10 19 -10 18 0
17 -7 -14 -112 -22 -72 -41 -119 -54 -129 -31 -25 -26 -29 29 -29 53 0 60 5
33 25 -15 11 -15 18 7 96 13 46 26 90 30 98 4 8 13 -33 19 -90 7 -57 14 -110
17 -117 10 -33 42 -1 91 92 62 117 74 133 68 85 -2 -19 -7 -60 -10 -92 -5 -42
-12 -61 -26 -70 -32 -20 -22 -27 41 -27 33 0 60 4 60 10 0 6 -7 10 -15 10 -18
0 -19 47 -5 160 8 58 15 79 32 91 21 16 21 17 -16 21 -20 2 -45 -1 -54 -8z"/>
<path d="M3006 4110 c-33 -31 -36 -39 -23 -46 14 -8 14 -16 2 -74 -18 -84 -18
-99 0 -106 20 -8 65 4 65 17 0 6 -9 8 -20 4 -26 -8 -26 -5 5 132 3 12 17 26
32 31 l28 11 -23 7 c-20 6 -23 12 -18 35 7 37 0 35 -48 -11z"/>
<path d="M594 4105 c-4 -9 0 -24 10 -33 15 -15 18 -15 26 -2 6 8 9 22 7 30 -3
21 -36 25 -43 5z"/>
<path d="M4346 4103 c-4 -9 -1 -23 7 -30 12 -12 16 -12 26 1 16 19 8 46 -13
46 -7 0 -17 -8 -20 -17z"/>
<path d="M1522 4080 c-41 -25 -77 -99 -67 -138 10 -41 34 -62 70 -62 40 0 95
19 95 32 0 6 -8 7 -17 3 -42 -16 -79 -17 -92 -1 -24 28 -8 48 59 75 56 23 65
30 68 54 2 16 -2 35 -9 43 -17 20 -68 17 -107 -6z m74 -14 c9 -24 -14 -54 -52
-66 -19 -7 -38 -10 -41 -7 -7 8 34 74 50 81 23 9 38 6 43 -8z"/>
<path d="M1734 4081 c-80 -49 -88 -201 -10 -201 12 0 31 6 42 14 16 13 21 12
36 -1 19 -17 59 -14 66 6 3 10 0 12 -12 8 -20 -8 -20 2 0 93 16 70 16 74 -1
87 -27 19 -85 16 -121 -6z m92 -15 c9 -23 -15 -93 -42 -126 -31 -36 -56 -38
-73 -6 -11 20 -9 30 13 74 14 28 34 55 43 61 26 15 53 13 59 -3z"/>
<path d="M1977 4084 c-41 -22 -35 -70 13 -102 48 -32 58 -52 34 -69 -24 -18
-63 -17 -70 2 -9 21 -24 19 -24 -4 0 -14 9 -21 38 -26 45 -7 87 6 101 34 17
32 14 41 -36 87 -46 42 -47 44 -30 61 17 17 19 17 49 0 25 -14 33 -15 39 -5
13 20 11 25 -13 32 -37 9 -71 6 -101 -10z"/>
<path d="M2202 4080 c-34 -21 -71 -87 -72 -126 0 -37 37 -74 74 -74 41 0 96
18 96 32 0 6 -8 7 -17 3 -42 -16 -79 -17 -92 -1 -23 28 -8 50 49 71 30 11 61
24 68 28 15 10 16 59 0 75 -18 18 -69 14 -106 -8z m72 -9 c13 -21 -14 -59 -49
-71 -20 -7 -39 -10 -42 -7 -7 8 34 74 50 81 20 8 35 7 41 -3z"/>
<path d="M2809 4077 c-46 -31 -71 -81 -65 -132 2 -21 13 -45 22 -52 24 -18 79
-16 115 3 41 21 30 29 -16 13 -43 -16 -69 -4 -73 34 -3 23 2 27 52 41 60 18
86 38 86 66 0 50 -65 65 -121 27z m76 -6 c11 -19 -19 -61 -52 -72 -43 -14 -48
-9 -29 30 22 42 66 65 81 42z"/>
<path d="M3712 4070 c-73 -33 -106 -137 -57 -185 13 -14 33 -25 44 -25 28 0
101 30 101 41 0 11 3 11 -45 -5 -45 -16 -69 -8 -78 24 -6 24 0 29 73 55 42 16
57 26 65 49 8 24 6 31 -14 47 -29 23 -35 23 -89 -1z m62 -18 c11 -17 -21 -58
-54 -68 -43 -15 -48 -4 -20 41 21 34 61 48 74 27z"/>
<path d="M521 4016 c-17 -20 -6 -49 16 -44 22 4 26 20 10 42 -12 16 -14 16
-26 2z"/>
<path d="M4430 4005 c-15 -18 -5 -35 20 -35 10 0 22 5 25 10 7 11 -12 40 -25
40 -4 0 -13 -7 -20 -15z"/>
<path d="M441 3901 c-13 -8 -13 -14 -2 -38 12 -27 13 -27 27 -8 25 34 7 66
-25 46z"/>
<path d="M4512 3897 c-16 -19 2 -40 27 -32 25 8 28 30 5 39 -21 8 -20 8 -32
-7z"/>
<path d="M4582 3793 c-11 -22 -5 -43 13 -43 19 0 27 17 20 40 -8 25 -21 26
-33 3z"/>
<path d="M364 3785 c-12 -29 15 -45 45 -26 12 8 12 12 2 25 -17 20 -40 21 -47
1z"/>
<path d="M296 3664 c-4 -10 0 -24 9 -33 14 -14 17 -14 25 -1 6 8 9 22 7 30 -3
21 -33 24 -41 4z"/>
<path d="M2202 3663 c4 -20 18 -26 37 -14 18 12 5 31 -20 31 -14 0 -19 -6 -17
-17z"/>
<path d="M3893 3673 c-26 -5 -31 -23 -8 -23 19 0 20 8 -14 -142 l-28 -128 24
0 c17 0 23 6 23 23 1 37 35 101 71 131 l34 29 3 -27 c2 -14 -4 -50 -12 -80 -9
-30 -16 -59 -16 -64 0 -15 36 -25 60 -17 26 8 26 25 1 25 -20 0 -20 1 0 70 23
85 24 106 3 114 -33 13 -54 5 -83 -31 -35 -42 -37 -35 -16 52 8 33 15 63 15
68 0 7 -19 7 -57 0z"/>
<path d="M4643 3664 c-3 -8 1 -22 9 -30 13 -13 16 -13 27 0 7 9 11 23 7 31 -7
20 -35 19 -43 -1z"/>
<path d="M1820 3661 c0 -6 6 -11 14 -11 30 0 28 -19 -19 -227 -3 -15 -13 -23
-25 -23 -11 0 -20 -5 -20 -11 0 -7 35 -10 109 -7 92 2 114 6 137 24 49 36 67
70 72 132 4 55 2 62 -26 93 l-30 34 -106 3 c-72 3 -106 0 -106 -7z m195 -36
c49 -48 20 -176 -47 -211 -26 -14 -108 -20 -108 -8 0 9 40 207 46 227 9 28 79
23 109 -8z"/>
<path d="M3747 3602 c-29 -29 -35 -41 -24 -45 13 -5 12 -15 -1 -81 -8 -41 -12
-82 -9 -90 8 -21 51 -20 68 1 13 15 12 16 -8 11 -30 -8 -30 -2 2 139 3 14 14
23 33 26 26 4 26 5 5 12 -15 5 -23 17 -25 37 l-3 29 -38 -39z"/>
<path d="M2185 3582 c-33 -4 -60 -22 -32 -22 21 0 21 1 1 -86 -10 -39 -14 -79
-11 -88 8 -20 50 -21 67 -1 10 12 10 15 -4 15 -20 0 -20 25 0 102 19 75 17 84
-21 80z"/>
<path d="M2315 3565 c-14 -13 -25 -29 -25 -35 0 -12 32 -45 75 -76 25 -18 28
-25 19 -40 -17 -29 -59 -30 -78 -2 -14 19 -18 21 -26 8 -16 -25 -6 -35 40 -38
61 -5 85 4 98 33 15 32 5 53 -43 89 -19 15 -35 33 -35 41 0 24 48 30 70 10 19
-17 20 -17 26 0 16 41 -82 50 -121 10z"/>
<path d="M2544 3571 c-63 -38 -83 -133 -38 -178 21 -21 32 -24 62 -20 20 4 45
15 56 27 l20 20 -30 -12 c-41 -15 -80 -4 -88 25 -7 31 11 94 35 118 24 24 65
25 78 2 9 -16 12 -16 20 -3 26 39 -59 55 -115 21z"/>
<path d="M2741 3565 c-79 -67 -58 -195 32 -195 66 0 117 60 117 137 0 78 -85
111 -149 58z m108 -49 c-1 -50 -20 -106 -41 -119 -24 -16 -67 0 -74 28 -8 32
23 121 48 139 16 11 26 12 44 4 20 -9 24 -18 23 -52z"/>
<path d="M3208 3560 c-80 -66 -67 -190 20 -190 30 0 92 26 92 39 0 6 -16 3
-37 -5 -46 -20 -83 -6 -83 30 0 21 8 27 53 41 62 21 87 41 87 70 0 54 -74 63
-132 15z m88 -1 c10 -17 -29 -62 -61 -71 -36 -9 -40 -6 -25 24 28 53 68 75 86
47z"/>
<path d="M3479 3553 l-32 -38 6 33 c6 31 6 32 -28 32 -18 0 -37 -4 -40 -10 -3
-5 1 -10 9 -10 19 0 20 -7 1 -95 -19 -87 -19 -85 4 -85 14 0 21 10 26 38 3 20
20 58 37 85 29 46 50 58 63 36 5 -6 12 -4 21 8 41 55 -19 60 -67 6z"/>
<path d="M4156 3560 c-89 -78 -61 -203 41 -187 20 4 44 14 52 23 15 15 14 16
-2 10 -67 -23 -97 -14 -97 29 0 19 9 26 48 39 64 22 92 43 92 70 0 55 -78 65
-134 16z m89 0 c11 -17 -16 -51 -52 -66 -44 -19 -49 -14 -29 25 23 43 66 65
81 41z"/>
<path d="M2930 3570 c-13 -8 -12 -10 3 -10 20 0 32 -26 41 -95 16 -116 34
-115 106 7 30 50 57 95 58 100 5 12 -56 10 -63 -2 -3 -5 1 -10 9 -10 21 0 21
0 -21 -72 l-37 -63 -15 78 c-14 72 -16 77 -40 77 -14 0 -33 -5 -41 -10z"/>
<path d="M241 3546 c-18 -21 11 -41 39 -26 17 9 19 14 9 26 -15 18 -33 18 -48
0z"/>
<path d="M4707 3553 c-24 -23 12 -55 38 -33 12 10 13 16 4 26 -12 15 -31 18
-42 7z"/>
<path d="M745 3378 c-41 -135 -53 -139 -80 -28 -9 39 -20 72 -24 74 -3 2 -6
-42 -6 -98 0 -99 -1 -104 -38 -172 -90 -166 -110 -213 -115 -282 -4 -59 0 -78
27 -146 17 -42 31 -88 31 -101 0 -33 10 -55 25 -55 23 0 42 -35 49 -90 10 -86
34 -145 77 -193 47 -54 110 -87 166 -87 l41 0 -15 -51 c-11 -37 -14 -88 -11
-197 3 -135 5 -152 30 -205 32 -69 116 -155 183 -187 38 -18 57 -21 108 -17
34 3 74 9 88 12 22 6 29 0 61 -52 101 -161 256 -276 479 -356 l64 -23 6 -78
c9 -100 55 -198 132 -276 30 -30 77 -84 105 -119 104 -130 195 -183 324 -189
65 -4 85 0 131 21 30 13 78 47 108 73 30 27 68 59 86 72 30 21 32 22 38 3 3
-10 1 -30 -5 -45 -14 -37 -13 -81 3 -93 24 -19 69 -24 174 -17 146 10 152 16
151 150 0 101 -13 154 -46 202 -11 15 -32 60 -47 100 -49 126 -111 151 -231
94 -51 -23 -70 -27 -143 -25 -91 2 -132 -11 -151 -47 -19 -36 -31 -22 -28 32
l3 52 65 16 c107 26 152 70 165 162 6 40 11 48 39 59 53 21 74 48 92 119 17
66 19 68 53 74 77 13 80 11 112 -60 28 -62 30 -71 23 -148 -6 -71 -4 -89 14
-129 28 -64 66 -83 132 -66 39 10 63 10 113 1 123 -23 175 -10 257 64 44 40
56 70 64 165 8 88 -1 97 -84 79 -54 -12 -185 -9 -197 4 -13 13 25 87 67 131
56 60 74 108 73 195 -1 125 -67 220 -196 281 -43 20 -77 29 -113 29 -39 0 -69
9 -135 41 -72 36 -96 43 -164 47 -58 3 -99 -1 -145 -13 -114 -30 -104 -33
-123 28 -32 102 -114 170 -352 290 l-89 46 29 11 c122 47 215 115 215 156 0
24 -29 87 -53 112 -29 31 -134 84 -222 112 -48 15 -106 24 -185 27 -131 6
-205 -8 -302 -57 -41 -21 -60 -26 -62 -18 -19 66 -44 113 -84 159 -26 30 -58
76 -71 103 -28 55 -86 107 -219 200 -86 59 -98 65 -162 71 -53 5 -67 10 -63
21 6 17 9 17 -51 -1 -77 -23 -79 -23 -71 35 4 28 3 50 -2 50 -4 0 -23 -25 -41
-55 -18 -30 -36 -55 -39 -55 -3 0 -3 32 0 70 3 40 2 70 -3 70 -5 0 -21 -37
-35 -82z m331 -109 c147 -38 201 -74 292 -194 25 -33 67 -84 94 -114 81 -92
97 -155 65 -258 -8 -27 -20 -67 -26 -89 -13 -47 -111 -186 -163 -229 -18 -15
-51 -36 -73 -46 -40 -18 -43 -17 -120 2 -43 11 -89 18 -102 14 -13 -3 -48 -28
-78 -55 -38 -35 -64 -50 -83 -50 -95 0 -179 67 -206 163 -9 31 -23 82 -32 113
-12 41 -22 57 -40 64 -19 8 -24 17 -24 43 0 19 -8 58 -19 88 -72 210 2 417
182 507 52 26 178 61 223 61 16 1 66 -8 110 -20z m1016 -448 c87 -22 223 -88
254 -122 69 -76 21 -139 -140 -188 -123 -38 -192 -25 -266 49 l-41 41 -28 -21
c-32 -22 -51 -26 -51 -10 0 6 5 10 10 10 6 0 10 11 10 24 0 23 -3 24 -35 19
-21 -3 -41 -1 -50 7 -13 10 -15 9 -15 -8 0 -11 -3 -27 -6 -36 -4 -10 1 -18 12
-22 11 -3 30 -10 43 -15 23 -9 23 -10 6 -29 -37 -41 -97 -15 -116 50 -13 43
-29 44 -29 3 0 -18 14 -40 45 -70 l45 -43 -28 0 c-59 0 -112 67 -112 142 0 31
-3 39 -10 28 -5 -8 -10 -37 -10 -64 0 -43 4 -53 39 -87 42 -42 38 -48 -15 -23
-102 48 -105 176 -8 276 19 20 55 46 79 58 104 51 287 64 417 31z m-172 -295
c0 -53 35 -73 199 -116 171 -45 223 -67 287 -123 52 -45 127 -144 160 -209 23
-46 24 -50 9 -79 -9 -17 -15 -45 -13 -62 3 -27 5 -29 12 -12 30 78 73 106 195
125 108 17 177 7 259 -37 50 -26 78 -35 111 -34 72 2 156 -27 206 -71 38 -33
48 -52 70 -119 40 -127 30 -215 -28 -249 -50 -30 -57 -39 -57 -76 0 -49 -25
-102 -68 -148 -20 -21 -32 -37 -27 -34 6 2 35 16 67 31 49 24 68 28 145 27 48
-1 103 0 122 2 22 2 36 -2 39 -10 3 -10 -4 -13 -24 -12 -42 3 -54 1 -54 -9 0
-5 13 -11 29 -14 17 -4 32 -14 36 -26 10 -32 -1 -40 -42 -30 -49 11 -53 11
-53 -1 0 -5 11 -12 25 -16 60 -15 57 -67 -6 -84 -22 -6 -55 -20 -72 -31 -41
-24 -110 -24 -162 1 -48 23 -85 25 -111 5 -27 -20 -49 -18 -79 8 -35 29 -45
99 -21 145 21 41 20 65 -4 112 -22 44 -24 95 -6 155 13 43 7 41 101 28 51 -7
37 8 -30 32 -34 12 -68 36 -107 76 -63 64 -77 58 -26 -10 39 -54 41 -93 4
-129 -36 -36 -106 -38 -153 -4 -28 20 -33 21 -33 7 0 -9 5 -25 11 -37 25 -47
6 -143 -36 -178 -16 -13 -60 -16 -94 -5 -17 5 -19 0 -19 -45 0 -85 -67 -158
-169 -184 l-48 -12 4 -68 c4 -75 -3 -86 -52 -86 -42 0 -28 -23 19 -32 66 -11
97 -28 141 -75 l43 -46 0 31 c0 24 -11 43 -45 79 l-46 47 23 18 c38 30 65 32
129 8 l60 -23 42 32 c74 55 98 65 155 62 29 -1 58 -49 66 -111 5 -35 16 -60
42 -91 52 -63 56 -73 59 -180 3 -78 0 -102 -12 -114 -34 -34 -73 -1 -73 63 -1
26 -1 26 -15 8 -8 -11 -15 -33 -15 -49 0 -16 -4 -26 -10 -22 -5 3 -10 19 -10
36 0 18 -5 29 -14 29 -18 0 -27 -26 -20 -56 10 -40 -23 -30 -36 11 -14 43 -33
35 -28 -11 4 -35 1 -38 -26 -28 -19 7 -20 33 -4 69 9 21 8 35 -5 73 -16 43
-16 52 -2 105 16 63 20 147 6 147 -4 0 -14 -21 -21 -48 -31 -122 -59 -173
-153 -278 -77 -86 -191 -109 -327 -65 -64 21 -84 34 -136 85 -81 82 -199 250
-236 336 -55 132 -48 197 27 254 34 26 39 46 10 46 -8 0 -31 -15 -51 -32 -31
-28 -45 -33 -83 -32 -99 2 -311 122 -416 236 -61 66 -134 184 -165 266 -11 29
-25 95 -32 147 -6 52 -15 95 -19 95 -27 0 -21 -154 11 -265 l18 -64 -35 -7
c-88 -16 -176 18 -245 95 -67 74 -77 119 -74 326 3 191 15 238 78 295 28 26
40 30 88 30 58 0 143 -32 169 -63 17 -21 5 -22 -53 -6 -26 7 -42 7 -49 0 -7
-7 4 -14 36 -22 25 -6 54 -20 64 -32 17 -20 17 -20 -2 -13 -34 12 -105 19
-105 10 0 -5 27 -17 59 -27 33 -11 62 -26 66 -35 9 -23 -5 -101 -22 -117 -8
-8 -23 -15 -34 -15 -25 0 -25 32 1 55 27 24 25 29 -13 43 -46 17 -45 17 -40
-32 4 -36 1 -47 -17 -64 -13 -12 -36 -23 -51 -27 -16 -3 -43 -8 -60 -11 -23
-4 -28 -9 -20 -17 8 -8 28 -7 74 3 34 7 78 13 97 12 104 -6 142 78 106 233 -8
33 -17 67 -21 76 -4 12 3 20 25 29 42 17 81 58 147 152 30 43 58 78 61 78 4
-1 16 -20 28 -43 31 -64 76 -90 146 -85 69 5 127 40 160 98 22 38 34 46 71 49
12 1 17 -6 17 -23z"/>
<path d="M1066 3095 c-45 -16 -77 -42 -36 -30 14 5 47 14 74 21 26 7 51 15 54
18 11 11 -53 5 -92 -9z"/>
<path d="M1318 3004 c-54 -70 -132 -114 -199 -114 -10 0 -21 -4 -24 -10 -10
-15 81 -12 120 5 41 16 147 113 139 126 -8 14 -22 11 -36 -7z"/>
<path d="M770 2868 c-33 -23 -94 -95 -74 -87 18 7 117 99 112 104 -3 3 -20 -5
-38 -17z"/>
<path d="M910 2753 c-32 -32 -113 -71 -167 -79 -44 -6 -55 -17 -27 -28 41 -16
187 44 225 92 36 47 12 59 -31 15z"/>
<path d="M1156 2771 c-3 -4 7 -14 22 -21 l27 -13 -37 -16 c-45 -19 -49 -31
-10 -31 33 0 52 16 52 45 0 34 -39 60 -54 36z"/>
<path d="M1016 2674 c-12 -32 42 -66 69 -44 20 17 20 54 0 46 -8 -3 -22 -9
-30 -12 -10 -4 -15 0 -15 10 0 21 -16 21 -24 0z"/>
<path d="M1287 2646 c-3 -8 -24 -20 -46 -26 -22 -6 -58 -26 -81 -45 -23 -19
-48 -35 -56 -35 -8 0 -14 -4 -14 -10 0 -21 45 -9 116 31 81 44 104 63 104 85
0 18 -16 18 -23 0z"/>
<path d="M1258 2528 c-16 -5 -28 -16 -28 -24 0 -19 13 -18 41 5 29 24 23 31
-13 19z"/>
<path d="M1675 2305 c-29 -28 -32 -50 -8 -64 33 -18 109 42 96 75 -9 23 -61
17 -88 -11z m69 -10 c-9 -22 -37 -35 -53 -25 -10 6 -6 12 15 24 37 19 45 20
38 1z"/>
<path d="M1412 1993 c-7 -3 -22 -22 -33 -44 -15 -30 -17 -44 -9 -59 13 -25 32
-25 54 -1 37 40 28 118 -12 104z m22 -31 c2 -4 -2 -22 -10 -40 -15 -36 -34
-35 -34 2 0 32 31 59 44 38z"/>
<path d="M2119 1831 c-120 -76 -120 -311 0 -311 30 0 41 30 41 109 0 83 18
111 73 111 65 0 79 -29 62 -127 -9 -50 8 -84 55 -108 23 -12 35 -13 50 -5 29
15 25 35 -16 75 -27 28 -34 42 -30 58 4 12 9 42 12 67 15 129 -129 206 -247
131z"/>
<path d="M2505 1498 c-30 -16 -45 -39 -45 -69 0 -87 83 -123 139 -62 30 34 24
88 -14 121 -29 24 -50 27 -80 10z"/>
<path d="M190 3425 c-22 -26 7 -46 39 -26 12 8 12 12 2 25 -17 20 -25 20 -41
1z"/>
<path d="M4761 3431 c-12 -8 -12 -12 -2 -25 8 -9 20 -16 28 -16 19 0 29 30 12
41 -17 11 -21 11 -38 0z"/>
<path d="M142 3288 c4 -27 18 -31 43 -12 17 13 18 16 5 24 -28 18 -52 12 -48
-12z"/>
<path d="M4803 3294 c-9 -24 11 -38 36 -25 25 14 27 27 5 35 -25 9 -34 7 -41
-10z"/>
<path d="M109 3174 c-16 -20 2 -38 30 -29 26 8 27 21 2 34 -14 8 -22 7 -32 -5z"/>
<path d="M4850 3176 c-10 -13 -10 -19 0 -32 12 -14 15 -14 29 0 14 15 14 17 0
32 -14 14 -17 14 -29 0z"/>
<path d="M3518 3163 c-21 -25 -41 -64 -35 -70 15 -14 77 51 77 82 0 12 -28 4
-42 -12z"/>
<path d="M3975 3167 c-51 -23 -66 -55 -52 -108 5 -19 21 -33 54 -49 88 -40
100 -64 58 -105 -46 -47 -133 -24 -119 31 5 19 3 23 -10 18 -16 -6 -33 -70
-22 -81 10 -10 112 -16 141 -9 38 10 75 53 75 88 0 45 -15 63 -68 86 -58 25
-75 43 -70 74 8 56 101 62 120 8 5 -17 14 -30 18 -30 14 0 23 61 12 72 -17 17
-104 20 -137 5z"/>
<path d="M2485 3161 c-29 -7 -29 -7 -7 -15 27 -9 27 -16 -1 -141 -18 -82 -26
-102 -46 -111 -36 -18 -12 -23 95 -20 116 5 130 9 149 47 20 38 19 55 -5 79
l-21 21 26 30 c30 36 32 69 7 92 -21 19 -148 31 -197 18z m153 -33 c36 -36 -2
-88 -63 -88 l-42 0 10 50 c9 49 10 50 46 50 20 0 42 -5 49 -12z m-20 -130 c14
-14 16 -57 4 -76 -9 -13 -64 -32 -96 -32 -17 0 -18 5 -13 50 3 28 9 55 12 60
9 14 79 12 93 -2z"/>
<path d="M3025 3160 c-19 -9 -19 -9 2 -16 17 -5 22 -12 18 -28 -26 -113 -38
-176 -39 -205 -1 -31 2 -35 32 -43 47 -13 97 6 130 50 35 46 39 135 8 158 -25
18 -54 10 -85 -24 l-24 -27 7 35 c21 105 20 110 -5 109 -13 0 -33 -4 -44 -9z
m130 -131 c8 -23 -19 -104 -43 -131 -18 -22 -45 -23 -61 -4 -28 34 35 156 80
156 10 0 21 -9 24 -21z"/>
<path d="M2814 3076 c-57 -25 -92 -96 -80 -161 9 -48 39 -63 82 -40 30 16 33
16 57 0 22 -14 29 -14 49 -3 l23 13 -22 3 c-27 4 -27 -1 -4 94 13 57 15 80 7
87 -21 17 -80 21 -112 7z m74 -28 c10 -53 -45 -148 -86 -148 -35 0 -42 40 -16
92 35 69 93 101 102 56z"/>
<path d="M3617 3070 c-44 -35 -34 -76 26 -113 15 -10 27 -26 27 -36 0 -32 -58
-43 -80 -16 -16 19 -36 4 -27 -19 5 -12 20 -16 57 -16 41 0 56 5 75 25 14 13
25 29 25 35 0 10 -26 38 -81 84 -26 22 -24 34 7 48 23 11 29 10 46 -12 16 -20
21 -21 29 -9 17 28 12 34 -41 44 -28 5 -41 2 -63 -15z"/>
<path d="M4234 3070 c-42 -21 -84 -80 -84 -118 0 -64 53 -102 114 -82 19 6 40
18 46 26 16 18 11 18 -34 -1 -47 -20 -79 -6 -74 32 2 22 12 29 57 44 29 10 60
24 67 30 21 17 17 56 -8 73 -29 20 -35 20 -84 -4z m61 -20 c11 -18 -24 -59
-58 -68 -40 -11 -43 -4 -16 42 21 36 60 49 74 26z"/>
<path d="M3405 3073 c-28 -7 -43 -23 -22 -23 23 0 22 -6 -17 -74 -37 -65 -36
-66 -56 37 -11 54 -13 57 -41 57 -32 0 -36 -6 -15 -29 19 -22 46 -169 36 -196
-4 -11 -16 -27 -25 -35 -15 -12 -19 -12 -30 3 -17 24 -25 21 -25 -8 0 -21 5
-25 29 -25 22 0 36 9 54 33 35 46 147 242 147 255 0 12 -2 13 -35 5z"/>
<path d="M4412 3073 l-23 -4 26 -30 c34 -41 32 -71 -7 -105 -18 -15 -39 -35
-46 -45 -12 -18 -10 -19 29 -19 36 0 40 2 29 16 -11 13 -9 19 13 41 l26 26 16
-41 c9 -22 22 -42 28 -45 16 -6 57 10 57 22 0 6 -6 8 -14 5 -15 -6 -46 41 -46
68 0 8 18 32 40 53 50 49 51 62 5 57 -29 -3 -33 -7 -24 -18 9 -11 6 -18 -12
-33 l-24 -20 -18 39 c-10 22 -21 39 -25 39 -4 -1 -17 -4 -30 -6z"/>
<path d="M77 3053 c-11 -10 -8 -41 4 -48 5 -4 19 1 29 10 16 15 17 19 5 31
-15 15 -28 18 -38 7z"/>
<path d="M4873 3044 c-3 -8 1 -22 9 -30 13 -13 16 -13 27 0 7 9 11 23 7 31 -7
20 -35 19 -43 -1z"/>
<path d="M47 2923 c-11 -10 -8 -27 7 -48 13 -18 14 -18 25 4 10 17 10 26 0 37
-13 15 -22 18 -32 7z"/>
<path d="M4900 2915 c-9 -11 -9 -18 3 -35 14 -20 14 -20 32 0 15 16 15 22 5
35 -16 19 -24 19 -40 0z"/>
<path d="M24 2779 c-3 -6 0 -17 8 -25 12 -12 17 -12 32 -1 11 8 16 19 12 25
-9 15 -43 15 -52 1z"/>
<path d="M4914 2779 c-3 -6 0 -18 9 -26 12 -12 18 -13 35 -2 16 10 18 16 10
26 -13 16 -44 17 -54 2z"/>
<path d="M14 2649 c-3 -6 0 -18 9 -26 12 -12 19 -13 36 -3 18 9 20 14 10 26
-14 17 -45 19 -55 3z"/>
<path d="M4927 2647 c-3 -8 -1 -20 3 -27 7 -11 14 -12 35 -2 22 10 25 15 15
27 -15 19 -46 19 -53 2z"/>
<path d="M4931 2518 c-12 -19 -11 -23 5 -35 15 -11 20 -11 32 1 11 11 12 17 0
35 -16 26 -20 26 -37 -1z"/>
<path d="M18 2523 c-25 -6 -22 -30 3 -38 25 -8 44 7 36 29 -7 16 -9 17 -39 9z"/>
<path d="M19 2384 c-10 -12 -9 -18 3 -31 14 -14 19 -14 37 -1 17 12 19 17 9
25 -27 21 -36 22 -49 7z"/>
<path d="M4924 2379 c-3 -6 0 -18 9 -26 12 -12 18 -13 35 -2 16 10 18 16 10
26 -13 16 -44 17 -54 2z"/>
<path d="M30 2255 c-11 -13 -11 -19 2 -32 17 -16 38 -10 38 11 0 8 -6 19 -14
25 -10 9 -16 8 -26 -4z"/>
<path d="M4920 2245 c-11 -13 -11 -19 3 -33 20 -19 41 -5 35 24 -4 24 -22 28
-38 9z"/>
<path d="M50 2116 c-10 -13 -10 -19 0 -31 7 -8 16 -15 20 -15 15 0 20 34 7 47
-12 12 -16 12 -27 -1z"/>
<path d="M4900 2114 c-11 -12 -10 -18 3 -32 16 -15 18 -15 34 0 13 14 14 20 3
32 -7 9 -16 16 -20 16 -4 0 -13 -7 -20 -16z"/>
<path d="M71 1986 c-9 -11 -9 -19 1 -35 7 -12 15 -21 18 -21 3 0 11 9 18 21
10 16 10 24 1 35 -6 8 -15 14 -19 14 -4 0 -13 -6 -19 -14z"/>
<path d="M4870 1985 c-15 -18 -5 -35 21 -35 24 0 37 29 18 41 -19 12 -25 11
-39 -6z"/>
<path d="M101 1862 c-7 -13 -6 -23 1 -30 28 -28 63 3 38 33 -16 20 -27 19 -39
-3z"/>
<path d="M4847 1863 c-12 -11 -8 -41 6 -46 7 -3 22 2 32 10 20 14 20 14 1 29
-22 16 -30 17 -39 7z"/>
<path d="M137 1726 c-6 -15 11 -36 29 -36 21 0 35 25 22 38 -16 16 -45 15 -51
-2z"/>
<path d="M4805 1730 c-8 -12 3 -50 14 -50 5 0 14 7 21 15 10 12 10 18 0 30
-14 17 -26 19 -35 5z"/>
<path d="M189 1604 c-15 -18 0 -38 27 -32 25 5 28 25 6 37 -15 8 -23 7 -33 -5z"/>
<path d="M4759 1604 c-11 -14 -10 -18 6 -30 13 -10 22 -11 32 -3 18 16 16 26
-6 38 -14 8 -22 7 -32 -5z"/>
<path d="M236 1481 c-8 -12 4 -41 16 -41 5 0 18 5 29 11 16 8 18 13 8 25 -13
16 -45 19 -53 5z"/>
<path d="M4703 1474 c-3 -8 1 -22 9 -30 13 -13 16 -13 27 0 7 9 11 23 7 31 -7
20 -35 19 -43 -1z"/>
<path d="M4651 1372 c-6 -11 -11 -25 -11 -30 0 -16 33 -24 42 -10 11 18 10 21
-6 43 -13 18 -14 18 -25 -3z"/>
<path d="M297 1356 c-9 -23 18 -39 43 -26 17 9 19 14 9 26 -15 18 -45 18 -52
0z"/>
<path d="M367 1253 c-12 -11 -8 -40 7 -52 12 -10 17 -8 26 9 16 29 -12 65 -33
43z"/>
<path d="M4582 1248 c-8 -8 -9 -15 -1 -25 15 -17 34 -17 48 1 10 12 8 17 -8
25 -24 14 -24 14 -39 -1z"/>
<path d="M4510 1134 c-11 -12 -10 -18 3 -32 16 -15 18 -15 34 0 13 14 14 20 3
32 -7 9 -16 16 -20 16 -4 0 -13 -7 -20 -16z"/>
<path d="M434 1125 c-4 -9 0 -24 10 -33 15 -15 18 -15 26 -2 6 8 9 22 7 30 -3
21 -36 25 -43 5z"/>
<path d="M517 1033 c-12 -11 -8 -40 7 -52 12 -10 17 -8 26 9 18 34 -8 68 -33
43z"/>
<path d="M4431 1021 c-12 -21 -5 -31 21 -31 23 0 36 29 17 41 -20 13 -27 11
-38 -10z"/>
<path d="M595 920 c-3 -5 -1 -19 6 -31 10 -19 12 -20 26 -6 9 9 13 23 10 31
-7 18 -32 21 -42 6z"/>
<path d="M4344 915 c-13 -32 23 -48 47 -19 10 13 10 17 -2 25 -21 13 -39 11
-45 -6z"/>
<path d="M684 819 c-3 -6 0 -18 9 -26 12 -12 18 -13 35 -2 16 10 18 16 10 26
-13 16 -44 17 -54 2z"/>
<path d="M4254 819 c-3 -6 0 -17 8 -25 12 -12 17 -12 32 -1 11 8 16 19 12 25
-9 15 -43 15 -52 1z"/>
<path d="M787 733 c-11 -10 -8 -41 4 -49 6 -3 18 1 27 9 13 13 13 19 2 31 -14
17 -23 20 -33 9z"/>
<path d="M4167 733 c-24 -23 12 -55 38 -33 12 10 13 16 4 26 -12 15 -31 18
-42 7z"/>
<path d="M4071 646 c-14 -16 -4 -46 14 -46 19 0 27 17 20 40 -7 23 -18 25 -34
6z"/>
<path d="M884 636 c-8 -22 3 -49 19 -43 6 2 12 14 12 27 0 27 -22 39 -31 16z"/>
<path d="M3966 564 c-11 -28 -6 -44 13 -44 24 0 32 21 16 43 -15 21 -21 21
-29 1z"/>
<path d="M984 549 c-3 -6 0 -17 8 -25 12 -12 17 -12 32 -1 11 8 16 19 12 25
-9 15 -43 15 -52 1z"/>
<path d="M3853 481 c-9 -14 -9 -21 0 -30 26 -26 55 -4 37 29 -13 25 -22 25
-37 1z"/>
<path d="M1091 477 c-8 -10 -7 -19 4 -33 13 -18 15 -18 31 -2 14 14 15 20 4
32 -15 19 -24 20 -39 3z"/>
<path d="M1207 413 c-12 -11 -8 -40 7 -52 12 -10 17 -8 26 9 16 29 -12 65 -33
43z"/>
<path d="M3747 413 c-12 -11 -8 -41 6 -46 7 -3 21 1 32 9 18 14 18 14 -1 29
-22 16 -28 18 -37 8z"/>
<path d="M1321 336 c-18 -21 11 -41 39 -26 17 9 19 14 9 26 -15 18 -33 18 -48
0z"/>
<path d="M3624 335 c-13 -32 23 -48 47 -19 10 13 10 17 -2 25 -21 13 -39 11
-45 -6z"/>
<path d="M1437 276 c-9 -23 18 -39 43 -26 17 9 19 14 9 26 -15 18 -45 18 -52
0z"/>
<path d="M3504 275 c-13 -32 23 -48 47 -19 10 13 10 17 -2 25 -21 13 -39 11
-45 -6z"/>
<path d="M1564 225 c-7 -18 3 -35 22 -35 20 0 30 30 13 41 -20 12 -29 11 -35
-6z"/>
<path d="M3391 231 c-16 -10 -8 -41 11 -41 7 0 19 4 27 9 12 8 12 12 2 25 -15
18 -21 19 -40 7z"/>
<path d="M1691 191 c-16 -29 3 -58 25 -40 17 14 17 20 0 44 -13 18 -14 18 -25
-4z"/>
<path d="M3260 185 c-11 -13 -11 -19 3 -33 20 -19 41 -5 35 24 -4 24 -22 28
-38 9z"/>
<path d="M1816 142 c-15 -18 -15 -20 2 -35 14 -13 21 -14 30 -5 16 16 15 33
-1 47 -11 8 -18 7 -31 -7z"/>
<path d="M3131 142 c-8 -15 -7 -23 5 -33 18 -15 38 0 32 27 -5 25 -25 28 -37
6z"/>
<path d="M1942 108 c-13 -13 2 -38 23 -38 21 0 36 25 23 38 -7 7 -17 12 -23
12 -6 0 -16 -5 -23 -12z"/>
<path d="M3002 108 c-8 -8 -9 -15 -1 -25 14 -17 34 -17 48 0 11 15 -3 37 -24
37 -6 0 -16 -5 -23 -12z"/>
<path d="M2082 88 c-27 -27 -7 -47 32 -32 21 8 20 21 -2 33 -13 7 -23 6 -30
-1z"/>
<path d="M2870 85 c-10 -13 -10 -19 5 -35 18 -20 18 -20 32 0 12 17 12 24 3
35 -16 19 -24 19 -40 0z"/>
<path d="M2204 65 c-12 -29 15 -45 45 -26 12 8 12 12 2 25 -17 20 -40 21 -47
1z"/>
<path d="M2740 65 c-11 -13 -11 -19 3 -33 20 -19 41 -5 35 24 -4 24 -22 28
-38 9z"/>
<path d="M2341 56 c-10 -12 -10 -19 2 -36 12 -18 16 -18 26 -6 14 17 11 48 -5
53 -6 2 -17 -3 -23 -11z"/>
<path d="M2606 54 c-11 -30 13 -44 43 -25 12 8 12 12 2 25 -17 20 -37 20 -45
0z"/>
<path d="M2467 54 c-10 -10 12 -44 28 -44 9 0 15 10 15 25 0 18 -5 25 -18 25
-10 0 -22 -3 -25 -6z"/>
</g>
</svg>
