<?xml version="1.0" standalone="no"?>
<!DOCTYPE svg PUBLIC "-//W3C//DTD SVG 20010904//EN"
 "http://www.w3.org/TR/2001/REC-SVG-20010904/DTD/svg10.dtd">
<svg version="1.0" xmlns="http://www.w3.org/2000/svg"
 width="498.000000pt" height="500.000000pt" viewBox="0 0 498.000000 500.000000"
 preserveAspectRatio="xMidYMid meet">
<metadata>
Created by potrace 1.15, written by Peter Selinger 2001-2017
</metadata>
<g transform="translate(0.000000,500.000000) scale(0.100000,-0.100000)"
fill="#000000" stroke="none">
<path d="M2339 4977 c-14 -31 -2 -52 24 -41 21 8 22 24 3 49 -14 19 -15 19
-27 -8z"/>
<path d="M2469 4974 c-10 -12 -9 -18 4 -31 13 -13 19 -14 31 -3 21 17 20 27
-3 39 -14 8 -22 7 -32 -5z"/>
<path d="M2600 4960 c0 -26 25 -36 45 -20 12 10 13 16 4 26 -18 22 -49 17 -49
-6z"/>
<path d="M2207 4963 c-24 -23 12 -55 38 -33 12 10 13 16 4 26 -12 15 -31 18
-42 7z"/>
<path d="M2733 4954 c-3 -8 1 -22 9 -30 13 -13 16 -13 28 0 10 13 10 19 0 31
-16 19 -29 19 -37 -1z"/>
<path d="M2067 4936 c-3 -8 0 -20 8 -26 19 -16 59 8 43 27 -14 17 -45 17 -51
-1z"/>
<path d="M2863 4934 c-3 -8 1 -22 9 -30 13 -13 16 -13 27 0 7 9 11 23 7 31 -7
20 -35 19 -43 -1z"/>
<path d="M1940 4915 c-11 -13 -11 -19 3 -33 20 -19 41 -5 35 24 -4 24 -22 28
-38 9z"/>
<path d="M3000 4915 c-15 -18 -5 -35 20 -35 10 0 22 5 25 10 7 11 -12 40 -25
40 -4 0 -13 -7 -20 -15z"/>
<path d="M1814 4885 c-7 -17 2 -45 13 -45 4 0 17 7 27 15 20 15 20 15 0 30
-24 18 -33 19 -40 0z"/>
<path d="M3123 4884 c-3 -8 1 -22 9 -30 13 -13 16 -13 27 -1 14 17 4 47 -15
47 -8 0 -17 -7 -21 -16z"/>
<path d="M1685 4850 c-8 -24 1 -40 21 -40 22 0 28 27 11 45 -20 20 -24 19 -32
-5z"/>
<path d="M3263 4853 c-17 -6 -16 -38 1 -52 21 -18 44 25 24 44 -7 7 -19 11
-25 8z"/>
<path d="M1560 4805 c-11 -13 -11 -19 3 -33 20 -19 41 -5 35 24 -4 24 -22 28
-38 9z"/>
<path d="M3374 4795 c-4 -9 0 -24 10 -33 15 -15 18 -15 26 -2 6 8 9 22 7 30
-3 21 -36 25 -43 5z"/>
<path d="M3500 4755 c-16 -20 -6 -45 20 -45 23 0 28 31 6 49 -10 9 -16 8 -26
-4z"/>
<path d="M1440 4745 c-15 -18 -5 -35 20 -35 10 0 22 5 25 10 7 11 -12 40 -25
40 -4 0 -13 -7 -20 -15z"/>
<path d="M1321 4691 c-18 -12 -7 -41 17 -41 30 0 44 21 24 36 -20 16 -23 16
-41 5z"/>
<path d="M3620 4685 c-23 -28 21 -50 48 -23 9 9 7 14 -6 24 -22 17 -27 17 -42
-1z"/>
<path d="M1197 4617 c-3 -7 2 -22 10 -32 14 -19 15 -19 28 -2 7 11 11 25 8 33
-7 18 -39 18 -46 1z"/>
<path d="M3733 4614 c-9 -24 11 -38 36 -25 25 14 27 27 5 35 -25 9 -34 7 -41
-10z"/>
<path d="M1091 4546 c-14 -17 9 -39 33 -30 20 8 21 30 0 38 -21 8 -20 8 -33
-8z"/>
<path d="M3845 4550 c-8 -12 3 -50 14 -50 15 0 33 30 27 45 -6 17 -32 20 -41
5z"/>
<path d="M2488 4512 c-25 -2 -38 -8 -38 -18 0 -8 7 -14 15 -14 11 0 14 -7 10
-22 -3 -13 -17 -79 -31 -147 -23 -112 -24 -125 -10 -139 12 -12 22 -14 43 -6
32 11 46 40 14 29 -11 -3 -21 -2 -21 3 0 5 14 76 30 158 17 81 29 151 28 154
-2 3 -20 4 -40 2z"/>
<path d="M1803 4503 c-22 -8 -14 -23 12 -23 14 0 25 -3 25 -7 0 -5 -12 -65
-27 -135 -23 -107 -31 -129 -50 -139 -13 -7 -20 -16 -15 -21 14 -14 135 -5
140 10 2 7 -6 12 -23 12 -23 0 -26 3 -22 23 3 12 16 71 28 131 21 98 26 111
51 125 15 9 28 19 28 24 0 8 -127 8 -147 0z"/>
<path d="M2130 4495 c-11 -13 -8 -15 14 -15 33 0 33 -6 1 -151 -23 -105 -40
-139 -67 -139 -4 0 -8 -5 -8 -10 0 -16 142 -8 148 8 2 7 -6 12 -22 12 -14 0
-26 1 -26 3 1 1 7 27 14 57 l13 55 78 11 c65 9 82 15 102 38 46 54 22 126 -49
140 -62 12 -185 7 -198 -9z m198 -27 c13 -13 16 -66 4 -85 -11 -17 -58 -33
-97 -33 l-33 0 9 43 c20 93 16 87 62 87 24 0 48 -5 55 -12z"/>
<path d="M983 4464 c-9 -24 11 -38 36 -25 25 14 27 27 5 35 -25 9 -34 7 -41
-10z"/>
<path d="M3953 4464 c-9 -24 11 -38 36 -25 25 14 27 27 5 35 -25 9 -34 7 -41
-10z"/>
<path d="M2642 4390 c-63 -39 -97 -132 -68 -188 25 -49 64 -55 102 -17 l25 25
9 -25 c10 -27 37 -32 71 -15 27 15 24 32 -5 24 l-25 -6 15 64 c8 34 19 79 24
98 8 29 7 37 -7 48 -26 19 -103 15 -141 -8z m103 -10 c3 -5 -2 -37 -11 -70
-27 -96 -96 -141 -118 -78 -8 22 -5 38 14 79 14 28 33 57 44 65 24 16 62 18
71 4z"/>
<path d="M2910 4403 c-31 -6 -51 -23 -27 -23 21 0 21 -13 -2 -122 l-18 -88 22
0 c18 0 24 10 38 58 25 91 90 168 112 132 3 -5 -1 -39 -10 -75 -8 -37 -15 -77
-15 -90 0 -28 30 -41 60 -25 25 14 26 30 1 23 -19 -5 -19 -3 0 83 24 108 17
137 -33 132 -24 -2 -40 -14 -67 -48 -36 -47 -37 -46 -19 29 4 16 -8 20 -42 14z"/>
<path d="M882 4388 c-8 -8 -9 -15 -1 -25 15 -17 34 -17 48 1 10 12 8 17 -8 25
-24 14 -24 14 -39 -1z"/>
<path d="M4061 4391 c-16 -10 -8 -41 11 -41 7 0 19 4 27 9 12 8 12 12 2 25
-15 18 -21 19 -40 7z"/>
<path d="M4155 4300 c-8 -24 1 -40 21 -40 20 0 29 27 14 45 -17 20 -27 19 -35
-5z"/>
<path d="M783 4294 c-9 -25 11 -38 38 -24 22 12 22 13 4 26 -24 18 -34 18 -42
-2z"/>
<path d="M4250 4210 c-13 -24 -5 -40 20 -40 23 0 31 21 15 43 -16 22 -22 21
-35 -3z"/>
<path d="M690 4204 c-11 -12 -11 -18 1 -30 13 -12 18 -12 34 0 16 12 17 16 6
30 -17 20 -25 20 -41 0z"/>
<path d="M603 4113 c-18 -7 -16 -28 3 -43 12 -11 18 -10 31 3 13 13 14 19 3
31 -13 17 -17 18 -37 9z"/>
<path d="M4340 4105 c-11 -13 -11 -19 2 -32 17 -16 38 -10 38 11 0 8 -6 19
-14 25 -10 9 -16 8 -26 -4z"/>
<path d="M521 4007 c-26 -26 -4 -55 29 -37 25 13 25 22 1 37 -14 9 -21 9 -30
0z"/>
<path d="M4413 4003 c-18 -7 -16 -16 8 -31 15 -10 24 -10 34 -2 29 24 -4 49
-42 33z"/>
<path d="M3127 3922 c-9 -10 -23 -34 -32 -55 -8 -20 -24 -41 -36 -47 -19 -11
-19 -12 -3 -24 19 -14 18 -26 -17 -179 -14 -60 -26 -90 -39 -97 -15 -8 -20 -6
-25 10 -9 28 -32 25 -37 -4 -5 -27 7 -36 51 -36 35 0 65 22 79 57 6 15 21 75
32 133 21 104 29 120 63 120 9 0 17 5 17 10 0 6 -12 10 -26 10 -24 0 -26 2
-20 33 6 29 37 67 56 67 5 0 12 -9 15 -21 9 -27 29 -19 33 14 3 26 2 27 -46
27 -34 0 -54 -5 -65 -18z"/>
<path d="M3898 3927 c-16 -6 -28 -15 -28 -20 0 -5 7 -6 16 -3 14 5 16 1 10
-25 -3 -17 -6 -35 -6 -40 0 -5 -21 -9 -46 -9 -57 0 -77 -11 -114 -62 -24 -33
-30 -51 -30 -93 0 -28 6 -60 14 -70 21 -28 71 -24 106 10 l30 29 0 -26 c0 -31
29 -45 60 -28 27 14 26 33 -1 25 -20 -7 -21 -4 -15 21 4 15 18 82 32 148 13
67 27 129 30 139 6 20 -15 21 -58 4z m-25 -164 c-2 -57 -29 -111 -65 -129 -38
-20 -58 -5 -58 42 0 74 45 137 95 132 29 -3 30 -5 28 -45z"/>
<path d="M1530 3915 c0 -9 9 -15 25 -15 31 0 31 3 -4 -145 -24 -105 -31 -122
-54 -135 -15 -8 -27 -18 -27 -22 0 -12 186 -9 236 3 53 14 84 48 84 94 0 31
-20 58 -50 67 -10 3 -4 10 17 23 42 25 57 59 41 93 -20 42 -53 52 -165 52 -85
0 -103 -3 -103 -15z m191 -25 c29 -16 25 -64 -7 -89 -35 -28 -108 -30 -100 -3
2 9 8 33 11 52 4 19 9 38 12 43 6 11 61 9 84 -3z m-28 -141 c45 -24 50 -67 12
-104 -19 -20 -34 -25 -75 -25 -28 0 -50 5 -50 11 0 10 18 90 26 117 4 15 58
16 87 1z"/>
<path d="M440 3895 c-9 -11 -11 -22 -4 -32 13 -21 25 -21 38 -1 8 14 7 21 -5
33 -14 15 -17 15 -29 0z"/>
<path d="M4500 3894 c-11 -12 -11 -18 2 -30 13 -13 19 -14 36 -3 20 12 20 15
5 31 -20 22 -27 22 -43 2z"/>
<path d="M1005 3870 c-8 -16 -30 -37 -47 -46 -29 -15 -30 -17 -12 -27 10 -5
20 -10 21 -11 1 -1 -5 -30 -12 -66 -22 -100 -20 -128 9 -136 26 -6 66 10 66
27 0 7 -10 9 -26 5 -24 -6 -26 -5 -21 16 3 13 12 52 19 87 11 56 16 66 40 75
33 12 37 26 7 26 -19 0 -21 4 -16 40 6 47 -6 52 -28 10z"/>
<path d="M2935 3880 c-3 -11 -22 -33 -42 -49 -32 -26 -33 -30 -15 -35 20 -7
20 -7 1 -89 -10 -45 -16 -90 -13 -99 5 -18 46 -24 78 -12 23 9 20 24 -4 24
-24 0 -26 31 -8 111 10 43 17 54 40 63 34 13 36 23 6 28 -20 3 -23 8 -20 41 4
39 -12 51 -23 17z"/>
<path d="M2183 3829 c-79 -23 -134 -132 -102 -203 24 -52 130 -55 174 -6 22
24 18 25 -28 5 -51 -21 -74 -19 -92 9 -24 35 -11 50 65 75 67 21 90 40 90 73
0 40 -52 62 -107 47z m53 -34 c10 -24 -22 -62 -61 -75 -20 -7 -39 -9 -42 -6
-10 10 31 78 52 86 30 13 45 12 51 -5z"/>
<path d="M2696 3829 c-91 -25 -86 -94 11 -143 44 -22 50 -36 23 -58 -31 -25
-74 -23 -93 5 -17 25 -25 21 -29 -14 -3 -21 2 -25 43 -33 59 -11 119 14 134
57 13 38 0 56 -63 90 -55 30 -65 50 -33 67 30 16 60 12 73 -10 18 -28 38 -25
38 5 0 19 -7 26 -27 31 -16 3 -32 7 -38 8 -5 2 -23 -1 -39 -5z"/>
<path d="M3560 3829 c-43 -9 -95 -64 -109 -114 -13 -50 5 -105 41 -123 30 -14
97 -7 125 13 28 21 10 27 -40 13 -54 -14 -80 0 -75 40 2 20 14 28 68 48 68 24
90 44 90 80 0 38 -40 56 -100 43z m46 -34 c10 -24 -22 -62 -61 -75 -45 -15
-51 -10 -31 28 27 52 80 79 92 47z"/>
<path d="M1149 3803 c-116 -98 -42 -273 88 -206 78 41 110 146 62 207 -30 38
-104 37 -150 -1z m119 -25 c24 -51 -28 -178 -73 -178 -21 0 -55 36 -55 58 1
33 21 107 36 130 22 33 74 27 92 -10z"/>
<path d="M1905 3823 c-37 -6 -58 -23 -27 -23 18 0 21 -4 17 -22 -11 -50 -35
-170 -35 -179 0 -5 9 -9 20 -9 14 0 22 11 31 42 15 59 42 108 74 138 25 23 27
24 37 7 8 -14 13 -16 24 -6 22 18 18 59 -5 59 -33 0 -51 -11 -77 -49 l-26 -36
7 43 c4 23 3 41 -2 41 -4 -1 -21 -4 -38 -6z"/>
<path d="M2420 3823 c-24 -9 -61 -46 -76 -75 -18 -34 -18 -119 0 -143 19 -26
70 -24 101 5 19 18 25 20 25 8 0 -25 23 -38 55 -30 16 5 31 14 33 20 3 9 -4
11 -21 7 l-25 -7 25 101 c14 56 23 105 19 108 -9 9 -117 14 -136 6z m84 -22
c4 -5 1 -32 -5 -60 -23 -107 -119 -165 -118 -71 0 34 23 97 45 121 18 20 68
26 78 10z"/>
<path d="M3270 3808 c-43 -30 -70 -82 -70 -135 0 -77 59 -110 138 -77 60 25
70 50 12 29 -59 -21 -79 -19 -92 9 -17 38 -5 51 61 71 61 18 101 45 101 68 0
7 -7 23 -16 35 -21 31 -89 30 -134 0z m90 -19 c0 -36 -19 -58 -60 -70 -22 -7
-43 -10 -46 -7 -7 8 41 85 58 91 29 12 48 7 48 -14z"/>
<path d="M364 3775 c-4 -9 -2 -21 3 -26 14 -14 45 1 41 20 -4 22 -37 26 -44 6z"/>
<path d="M4567 3776 c-3 -8 0 -20 8 -26 19 -16 59 8 43 27 -14 17 -45 17 -51
-1z"/>
<path d="M300 3665 c-15 -18 -5 -35 20 -35 10 0 22 5 25 10 7 11 -12 40 -25
40 -4 0 -13 -7 -20 -15z"/>
<path d="M4641 3666 c-14 -16 -4 -46 14 -46 16 0 29 35 20 50 -9 14 -20 13
-34 -4z"/>
<path d="M240 3545 c-23 -28 21 -50 48 -23 9 9 7 14 -6 24 -22 17 -27 17 -42
-1z"/>
<path d="M4700 3544 c-11 -12 -11 -18 1 -30 13 -12 18 -12 34 0 16 12 17 16 6
30 -17 20 -25 20 -41 0z"/>
<path d="M189 3424 c-15 -18 0 -38 27 -32 25 5 28 25 6 37 -15 8 -23 7 -33 -5z"/>
<path d="M4750 3425 c-20 -24 5 -47 35 -33 26 12 25 22 -5 38 -13 7 -21 6 -30
-5z"/>
<path d="M142 3298 c-13 -13 2 -38 23 -38 21 0 36 25 23 38 -7 7 -17 12 -23
12 -6 0 -16 -5 -23 -12z"/>
<path d="M4797 3303 c-24 -23 12 -55 38 -33 12 10 13 16 4 26 -12 15 -31 18
-42 7z"/>
<path d="M3260 3266 c0 -3 22 -34 49 -70 135 -178 216 -374 261 -633 14 -80
18 -69 -59 -167 -43 -54 -61 -106 -70 -200 -6 -59 -7 -61 -33 -58 -20 2 -26
-1 -22 -11 5 -13 -23 -33 -33 -23 -3 2 -8 57 -13 123 -8 110 -15 153 -27 153
-3 0 -13 -10 -23 -22 l-19 -23 -7 33 c-8 40 -27 41 -56 2 -16 -22 -27 -28 -41
-24 -13 4 -29 -4 -53 -27 -34 -33 -47 -65 -85 -212 -16 -65 -31 -71 -153 -64
-148 8 -292 41 -404 91 -53 24 -108 46 -122 50 l-25 7 25 -20 c47 -38 245
-130 335 -156 50 -14 129 -29 178 -32 48 -3 87 -8 87 -11 0 -14 -96 -132 -105
-128 -114 52 -143 60 -216 60 -64 0 -86 -5 -143 -32 -37 -18 -86 -46 -107 -63
l-40 -32 -22 20 c-57 52 -143 34 -227 -47 -55 -53 -60 -61 -60 -102 0 -165
114 -328 229 -328 22 0 31 -7 41 -30 7 -17 42 -57 77 -89 l64 -58 -48 -6 c-26
-3 -154 -15 -283 -27 -129 -12 -244 -26 -255 -31 -31 -14 400 -1 660 21 127
11 352 26 500 35 310 18 315 19 315 44 0 37 71 160 130 224 65 71 169 151 240
187 80 39 111 79 124 155 12 71 54 155 77 155 16 0 31 -52 30 -110 0 -50 -29
-235 -64 -417 -8 -40 -11 -73 -7 -73 13 0 31 53 67 190 28 106 36 162 40 256
l5 122 32 -13 c17 -7 57 -18 89 -25 68 -14 69 6 -10 -195 -131 -333 -196 -436
-387 -623 l-135 -132 -283 -139 c-156 -76 -373 -181 -483 -232 -151 -71 -193
-95 -173 -97 15 -2 74 16 135 41 175 72 788 381 848 427 89 68 247 240 314
340 84 126 116 192 196 405 37 99 71 185 76 191 5 6 28 16 51 24 94 28 234
118 276 178 11 15 37 72 57 127 57 150 55 180 -28 387 -37 91 -74 199 -83 240
-21 92 -37 114 -52 67 -6 -19 -12 -45 -14 -59 l-3 -25 -14 24 c-7 14 -17 66
-21 118 -4 51 -9 96 -13 99 -13 13 -25 -8 -37 -66 -12 -58 -22 -71 -35 -50
-13 21 -25 8 -25 -27 0 -34 -1 -35 -18 -20 -25 22 -32 21 -32 -4 0 -19 -4 -21
-37 -15 -154 27 -167 23 -286 -99 l-82 -85 -75 -6 c-58 -5 -78 -3 -87 7 -6 8
-32 71 -58 139 -25 69 -66 166 -90 216 -63 131 -180 284 -217 284 -5 0 -8 -2
-8 -4z m889 -486 c39 -11 285 -195 335 -250 55 -61 80 -139 80 -250 1 -159
-37 -230 -170 -325 -65 -47 -134 -75 -181 -75 -21 0 -18 6 32 54 43 42 55 61
55 85 0 43 -38 84 -74 79 l-28 -3 26 -28 c31 -34 32 -51 6 -95 -29 -47 -109
-82 -199 -86 -61 -3 -71 -2 -76 14 -3 10 -19 23 -34 30 -62 25 -101 -22 -141
-170 -22 -80 -36 -96 -168 -184 -158 -104 -262 -201 -297 -278 -14 -31 -32
-62 -41 -69 -34 -28 -736 -63 -807 -40 -74 25 -127 89 -127 153 0 27 14 50 71
118 100 119 107 122 234 95 38 -8 70 -13 71 -12 2 1 4 16 6 32 3 33 -7 37
-115 50 l-47 6 46 55 c26 30 44 57 41 60 -10 10 -42 -14 -103 -78 -34 -34 -93
-91 -132 -126 -41 -36 -86 -87 -105 -120 -29 -51 -37 -57 -69 -60 -31 -3 -40
2 -67 35 -45 55 -93 183 -89 241 3 45 4 47 32 45 23 -2 27 1 23 16 -3 15 2 20
24 25 23 4 29 11 29 31 0 14 5 25 10 25 6 0 10 -16 10 -36 0 -28 3 -35 18 -32
9 2 19 14 20 28 4 28 19 50 35 50 19 0 -1 -95 -37 -170 -37 -77 -43 -104 -26
-130 7 -11 13 -6 25 25 65 161 155 273 261 323 113 52 269 29 326 -49 29 -40
88 -190 88 -225 0 -63 -61 -144 -141 -187 -26 -15 -30 -20 -18 -28 22 -14 32
-11 83 22 26 17 49 29 52 26 3 -3 -4 -24 -16 -46 -21 -43 -20 -61 6 -61 22 0
51 75 59 152 3 37 10 70 14 72 4 3 32 -1 62 -9 78 -21 147 -18 245 10 47 14
108 25 134 25 59 0 88 9 68 21 -7 5 -25 9 -40 9 -37 0 -35 9 9 46 22 18 33 35
29 42 -11 19 -32 14 -78 -17 -63 -43 -133 -68 -226 -81 -133 -20 -188 2 -211
82 -7 24 -22 67 -34 96 -19 47 -19 56 -8 90 18 49 66 109 102 128 19 9 52 14
94 12 96 -3 101 14 13 46 l-48 18 0 54 c0 30 5 54 10 54 6 0 10 -5 10 -11 0
-26 20 6 21 34 1 18 4 43 8 57 7 21 9 17 20 -32 7 -32 16 -58 21 -58 9 0 39
122 41 162 0 22 1 22 9 3 5 -11 9 -53 9 -93 1 -57 4 -74 17 -79 21 -8 31 10
39 69 11 80 23 64 28 -39 3 -54 8 -111 12 -128 5 -27 -2 -39 -85 -127 -73 -78
-101 -101 -141 -115 -54 -19 -60 -28 -26 -36 12 -4 30 -12 40 -19 17 -13 17
-16 2 -52 -19 -45 -14 -54 18 -33 16 10 30 35 41 75 20 72 69 127 148 169 47
25 63 28 148 28 88 0 100 -3 158 -33 63 -33 78 -29 47 15 -28 39 -105 57 -227
50 -125 -7 -124 -10 -33 88 36 38 58 55 61 47 23 -53 127 -122 184 -122 25 1
25 1 -5 16 -105 55 -153 116 -162 206 -9 90 9 134 88 210 61 60 69 72 69 105
0 75 5 80 83 93 90 15 117 29 157 80 33 41 101 82 175 106 50 16 53 16 94 4z"/>
<path d="M3981 2618 c-13 -36 -23 -268 -11 -268 5 0 12 10 15 23 6 29 25 209
25 242 0 31 -18 33 -29 3z"/>
<path d="M3843 2558 c-21 -27 -35 -91 -29 -131 9 -52 52 -132 83 -153 14 -8
26 -14 28 -12 2 2 -12 35 -32 73 -34 68 -35 73 -30 153 6 79 1 96 -20 70z"/>
<path d="M4150 2041 c0 -5 7 -11 15 -15 24 -9 18 -33 -17 -65 -32 -30 -32 -31
-10 -31 26 0 82 50 82 74 0 16 -37 46 -57 46 -7 0 -13 -4 -13 -9z"/>
<path d="M4842 3188 c-15 -15 -15 -45 -1 -54 6 -3 18 0 26 9 14 13 14 18 1 36
-11 16 -17 18 -26 9z"/>
<path d="M102 3168 c-7 -10 -6 -19 4 -33 15 -20 15 -20 30 0 8 10 13 24 11 30
-5 15 -33 17 -45 3z"/>
<path d="M81 3046 c-13 -16 -7 -56 9 -56 19 0 30 37 17 55 -12 15 -14 15 -26
1z"/>
<path d="M4866 3043 c-4 -9 -1 -23 7 -30 12 -12 16 -12 26 0 13 17 5 47 -14
47 -7 0 -16 -8 -19 -17z"/>
<path d="M43 2904 c-3 -8 1 -22 9 -30 13 -13 16 -13 27 0 7 9 11 23 7 31 -7
20 -35 19 -43 -1z"/>
<path d="M4891 2907 c-8 -10 -7 -19 4 -33 15 -19 15 -19 30 0 11 14 12 23 4
33 -6 7 -15 13 -19 13 -4 0 -13 -6 -19 -13z"/>
<path d="M26 2781 c-7 -11 3 -41 14 -41 19 0 40 13 40 25 0 21 -44 33 -54 16z"/>
<path d="M4908 2778 c-13 -35 27 -53 51 -24 10 12 8 17 -8 25 -26 14 -38 14
-43 -1z"/>
<path d="M20 2655 c-15 -18 -6 -45 14 -45 20 0 29 16 21 40 -8 24 -18 25 -35
5z"/>
<path d="M4921 2651 c-7 -13 -6 -23 3 -36 11 -16 13 -16 29 -1 14 14 14 20 4
36 -15 25 -24 25 -36 1z"/>
<path d="M4921 2511 c-16 -28 14 -51 36 -28 13 13 14 19 3 31 -17 21 -27 20
-39 -3z"/>
<path d="M5 2510 c-4 -7 -3 -16 3 -22 14 -14 47 -6 47 12 0 18 -40 26 -50 10z"/>
<path d="M20 2385 c-15 -18 -6 -45 14 -45 20 0 29 16 21 40 -8 24 -18 25 -35
5z"/>
<path d="M4920 2375 c-21 -26 3 -42 37 -26 27 12 27 13 8 27 -24 18 -30 18
-45 -1z"/>
<path d="M30 2245 c-22 -26 7 -46 39 -26 12 8 12 12 2 25 -17 20 -25 20 -41 1z"/>
<path d="M4912 2248 c-8 -8 -9 -15 -1 -25 14 -16 31 -17 47 -1 9 9 7 14 -6 24
-21 17 -25 17 -40 2z"/>
<path d="M45 2110 c-3 -5 -1 -19 6 -31 10 -19 12 -20 26 -6 9 9 13 23 10 31
-7 18 -32 21 -42 6z"/>
<path d="M4885 2110 c-3 -5 -1 -19 6 -31 l11 -21 20 20 c11 11 17 25 14 31 -9
14 -43 14 -51 1z"/>
<path d="M70 1984 c-11 -12 -11 -18 1 -30 13 -12 18 -12 34 0 16 12 17 16 6
30 -17 20 -25 20 -41 0z"/>
<path d="M4865 1986 c-19 -14 -19 -16 -2 -33 16 -16 18 -16 34 0 15 15 16 19
2 32 -13 13 -17 13 -34 1z"/>
<path d="M4842 1868 c-15 -15 -15 -45 -1 -54 6 -3 18 0 26 9 14 13 14 18 1 36
-11 16 -17 18 -26 9z"/>
<path d="M113 1863 c-16 -6 -17 -29 -3 -38 12 -7 50 3 50 13 0 12 -34 29 -47
25z"/>
<path d="M141 1727 c-8 -10 -7 -19 4 -33 13 -18 15 -18 31 -2 14 14 15 20 4
32 -15 19 -24 20 -39 3z"/>
<path d="M4801 1727 c-13 -17 -5 -47 14 -47 19 0 28 32 12 47 -12 12 -16 12
-26 0z"/>
<path d="M181 1597 c-9 -11 -8 -17 3 -26 18 -15 48 -3 44 18 -4 21 -32 26 -47
8z"/>
<path d="M4744 1599 c-3 -6 0 -18 9 -26 12 -12 19 -13 36 -3 18 9 20 14 10 26
-14 17 -45 19 -55 3z"/>
<path d="M240 1474 c-11 -12 -10 -18 4 -32 16 -16 18 -16 31 2 11 14 12 23 4
33 -15 17 -24 16 -39 -3z"/>
<path d="M4695 1480 c-9 -15 5 -52 18 -47 6 2 15 11 21 20 8 13 7 20 -4 27
-19 12 -27 12 -35 0z"/>
<path d="M296 1353 c-11 -26 10 -38 41 -24 27 12 27 13 8 27 -25 19 -41 18
-49 -3z"/>
<path d="M4637 1363 c-24 -23 12 -55 38 -33 12 10 13 16 4 26 -12 15 -31 18
-42 7z"/>
<path d="M4570 1244 c-11 -12 -10 -18 3 -31 15 -15 18 -15 37 2 19 17 19 19 2
31 -22 17 -27 17 -42 -2z"/>
<path d="M363 1234 c-9 -24 11 -38 36 -25 25 14 27 27 5 35 -25 9 -34 7 -41
-10z"/>
<path d="M434 1125 c-13 -32 23 -48 47 -19 10 13 10 17 -2 25 -21 13 -39 11
-45 -6z"/>
<path d="M4502 1127 c-16 -19 11 -58 28 -41 14 14 10 46 -6 51 -6 2 -16 -2
-22 -10z"/>
<path d="M523 1033 c-17 -6 -17 -38 0 -52 15 -12 37 3 37 25 0 16 -22 32 -37
27z"/>
<path d="M4433 1033 c-16 -6 -17 -39 -2 -49 6 -3 18 1 27 10 14 14 14 18 2 30
-8 7 -21 12 -27 9z"/>
<path d="M593 914 c-8 -22 11 -37 36 -29 25 8 28 30 5 39 -25 9 -34 7 -41 -10z"/>
<path d="M4341 916 c-14 -17 9 -39 33 -30 19 7 20 16 4 32 -15 15 -23 15 -37
-2z"/>
<path d="M684 815 c-4 -9 0 -24 10 -33 15 -15 18 -15 26 -2 6 8 9 22 7 30 -3
21 -36 25 -43 5z"/>
<path d="M4247 816 c-3 -8 0 -19 7 -25 18 -15 48 -3 44 18 -4 21 -44 27 -51 7z"/>
<path d="M784 726 c-8 -22 3 -49 19 -43 6 2 12 14 12 27 0 27 -22 39 -31 16z"/>
<path d="M4160 725 c-22 -26 7 -46 39 -26 12 8 12 12 2 25 -17 20 -25 20 -41
1z"/>
<path d="M881 636 c-10 -12 -10 -19 2 -36 12 -18 16 -18 26 -6 14 17 11 48 -5
53 -6 2 -17 -3 -23 -11z"/>
<path d="M4056 633 c-4 -9 -1 -23 7 -30 11 -11 16 -11 32 1 16 12 17 16 6 30
-17 21 -37 20 -45 -1z"/>
<path d="M3963 563 c-7 -3 -13 -13 -13 -23 0 -10 6 -20 13 -23 15 -5 47 10 47
23 0 13 -32 28 -47 23z"/>
<path d="M980 543 c0 -10 5 -25 10 -33 8 -13 11 -12 24 5 19 25 15 39 -12 43
-16 2 -22 -2 -22 -15z"/>
<path d="M1090 475 c-23 -28 15 -47 50 -25 13 8 12 11 -5 24 -25 19 -30 19
-45 1z"/>
<path d="M3853 483 c-17 -6 -16 -38 1 -52 12 -10 17 -8 25 8 6 11 8 27 5 35
-6 17 -11 18 -31 9z"/>
<path d="M1200 393 c0 -10 5 -25 10 -33 8 -13 11 -12 23 5 18 24 11 45 -14 45
-11 0 -19 -7 -19 -17z"/>
<path d="M3733 394 c-3 -8 1 -22 9 -30 13 -13 16 -13 27 0 7 9 11 23 7 31 -7
20 -35 19 -43 -1z"/>
<path d="M1321 346 c-16 -19 -7 -46 14 -46 22 0 30 29 13 46 -13 13 -16 13
-27 0z"/>
<path d="M3620 335 c-23 -28 21 -50 48 -23 9 9 7 14 -6 24 -22 17 -27 17 -42
-1z"/>
<path d="M1440 285 c-15 -18 -6 -45 14 -45 20 0 29 16 21 40 -8 24 -18 25 -35
5z"/>
<path d="M3500 275 c-11 -13 -11 -19 3 -33 20 -19 41 -5 35 24 -4 24 -22 28
-38 9z"/>
<path d="M1561 226 c-10 -12 -10 -19 2 -36 12 -18 16 -18 26 -6 14 17 11 48
-5 53 -6 2 -17 -3 -23 -11z"/>
<path d="M3379 224 c-15 -18 0 -38 27 -32 25 5 28 25 6 37 -15 8 -23 7 -33 -5z"/>
<path d="M1687 183 c-24 -23 12 -55 38 -33 12 10 13 16 4 26 -12 15 -31 18
-42 7z"/>
<path d="M3257 183 c-11 -10 -8 -41 4 -49 6 -3 18 1 27 9 13 13 13 19 2 31
-14 17 -23 20 -33 9z"/>
<path d="M1810 144 c-11 -12 -10 -18 3 -31 22 -23 52 0 36 28 -12 23 -22 24
-39 3z"/>
<path d="M3124 135 c-13 -32 23 -48 47 -19 10 13 10 17 -2 25 -21 13 -39 11
-45 -6z"/>
<path d="M3001 116 c-16 -19 -8 -46 13 -46 20 0 29 31 13 47 -12 12 -16 12
-26 -1z"/>
<path d="M1942 108 c-8 -8 -9 -15 -1 -25 14 -16 31 -17 47 -1 9 9 7 14 -6 24
-21 17 -25 17 -40 2z"/>
<path d="M2070 81 c-14 -28 11 -47 39 -29 27 17 26 22 -4 36 -21 10 -26 9 -35
-7z"/>
<path d="M2205 70 c-7 -23 1 -40 20 -40 21 0 27 17 13 40 -16 25 -25 25 -33 0z"/>
<path d="M2860 71 c0 -28 24 -45 40 -26 16 20 6 45 -20 45 -13 0 -20 -7 -20
-19z"/>
<path d="M2731 66 c-9 -10 -7 -19 7 -37 l19 -23 12 23 c10 17 10 26 0 37 -14
18 -23 18 -38 0z"/>
<path d="M2343 63 c-16 -6 -17 -25 -1 -41 12 -12 48 1 48 18 0 13 -32 28 -47
23z"/>
<path d="M2600 55 c-10 -13 -10 -19 5 -35 18 -20 18 -20 32 0 12 17 12 24 3
35 -16 19 -24 19 -40 0z"/>
<path d="M2460 51 c0 -37 32 -55 44 -25 10 27 7 34 -19 34 -14 0 -25 -4 -25
-9z"/>
</g>
</svg>
