<?xml version="1.0" standalone="no"?>
<!DOCTYPE svg PUBLIC "-//W3C//DTD SVG 20010904//EN"
 "http://www.w3.org/TR/2001/REC-SVG-20010904/DTD/svg10.dtd">
<svg version="1.0" xmlns="http://www.w3.org/2000/svg"
 width="499.000000pt" height="500.000000pt" viewBox="0 0 499.000000 500.000000"
 preserveAspectRatio="xMidYMid meet">
<metadata>
Created by potrace 1.15, written by Peter Selinger 2001-2017
</metadata>
<g transform="translate(0.000000,500.000000) scale(0.100000,-0.100000)"
fill="#000000" stroke="none">
<path d="M2340 4975 c-23 -28 21 -50 48 -23 9 9 7 14 -6 24 -22 17 -27 17 -42
-1z"/>
<path d="M2477 4983 c-24 -23 12 -55 38 -33 12 10 13 16 4 26 -12 15 -31 18
-42 7z"/>
<path d="M2611 4976 c-19 -22 4 -62 25 -45 17 14 15 50 -2 56 -6 2 -16 -3 -23
-11z"/>
<path d="M2206 4964 c-4 -10 -2 -22 3 -27 14 -14 43 0 39 20 -4 24 -34 28 -42
7z"/>
<path d="M2742 4968 c-8 -8 -9 -15 -1 -25 13 -15 28 -16 49 -3 13 8 12 11 -5
24 -24 19 -28 19 -43 4z"/>
<path d="M2076 4944 c-5 -14 9 -54 19 -54 2 0 9 9 15 21 9 15 8 24 -1 35 -15
18 -25 18 -33 -2z"/>
<path d="M2877 4953 c-11 -10 -8 -41 4 -49 6 -3 18 1 27 9 13 13 13 19 2 31
-14 17 -23 20 -33 9z"/>
<path d="M1945 4920 c-8 -12 3 -50 14 -50 15 0 33 30 27 45 -6 17 -32 20 -41
5z"/>
<path d="M3007 4923 c-12 -12 -7 -31 10 -37 9 -4 23 0 32 9 14 14 14 17 1 25
-18 11 -34 13 -43 3z"/>
<path d="M1821 4903 c-14 -26 -4 -56 16 -49 8 3 17 6 19 6 9 0 3 27 -10 45
-13 18 -14 18 -25 -2z"/>
<path d="M3137 4893 c-24 -23 12 -55 38 -33 12 10 13 16 4 26 -12 15 -31 18
-42 7z"/>
<path d="M1687 4846 c-10 -25 19 -40 44 -23 21 15 21 15 1 26 -28 15 -39 14
-45 -3z"/>
<path d="M3261 4847 c-9 -11 -8 -17 3 -26 18 -15 48 -3 44 18 -4 21 -32 26
-47 8z"/>
<path d="M1564 4804 c-8 -32 14 -50 34 -30 12 11 12 17 0 35 -17 28 -26 27
-34 -5z"/>
<path d="M3392 4808 c-27 -27 -3 -54 31 -36 22 11 22 25 -1 37 -13 7 -23 6
-30 -1z"/>
<path d="M1440 4754 c-11 -12 -10 -18 3 -32 16 -15 18 -15 34 0 13 14 14 20 3
32 -7 9 -16 16 -20 16 -4 0 -13 -7 -20 -16z"/>
<path d="M3503 4744 c-3 -8 1 -22 9 -30 13 -13 16 -13 27 0 7 9 11 23 7 31 -7
20 -35 19 -43 -1z"/>
<path d="M1321 4691 c-16 -28 14 -51 36 -28 13 13 14 19 3 31 -17 21 -27 20
-39 -3z"/>
<path d="M3624 4689 c-3 -6 1 -18 10 -27 15 -15 17 -15 32 0 19 19 11 38 -16
38 -10 0 -22 -5 -26 -11z"/>
<path d="M1213 4633 c-16 -6 -17 -29 -3 -38 13 -8 50 3 50 15 0 13 -32 28 -47
23z"/>
<path d="M3747 4633 c-11 -10 -8 -41 4 -49 6 -3 18 1 27 9 13 13 13 19 2 31
-14 17 -23 20 -33 9z"/>
<path d="M1102 4568 c-16 -16 -15 -45 2 -51 8 -3 20 0 26 8 16 20 -11 60 -28
43z"/>
<path d="M3859 4554 c-10 -12 -10 -18 3 -30 13 -13 16 -12 32 5 17 19 17 20
-2 30 -15 8 -23 7 -33 -5z"/>
<path d="M986 4474 c-11 -30 13 -44 43 -25 12 8 12 12 2 25 -17 20 -37 20 -45
0z"/>
<path d="M3967 4483 c-11 -10 -8 -41 4 -49 6 -3 18 1 27 9 13 13 13 19 2 31
-14 17 -23 20 -33 9z"/>
<path d="M4070 4395 c-19 -22 5 -48 31 -34 10 5 19 14 19 19 0 5 -9 14 -19 19
-14 8 -22 7 -31 -4z"/>
<path d="M882 4387 c-7 -8 -6 -18 4 -31 14 -20 14 -20 28 0 14 18 6 44 -14 44
-4 0 -12 -6 -18 -13z"/>
<path d="M1285 4336 c-61 -28 -87 -56 -115 -119 -53 -120 -8 -243 97 -263 44
-8 135 11 165 36 35 28 19 31 -46 9 -71 -24 -106 -18 -141 23 -21 25 -25 40
-25 92 0 117 74 216 161 216 60 0 69 -7 69 -56 0 -32 4 -44 14 -44 19 0 22 6
30 62 l7 47 -38 10 c-62 17 -124 13 -178 -13z"/>
<path d="M4173 4313 c-17 -6 -16 -38 1 -52 21 -18 44 25 24 44 -7 7 -19 11
-25 8z"/>
<path d="M780 4291 c0 -10 6 -24 14 -30 12 -10 17 -8 26 9 13 25 6 40 -21 40
-12 0 -19 -7 -19 -19z"/>
<path d="M1635 4229 c-37 -10 -79 -49 -102 -92 -24 -45 -23 -129 1 -156 27
-29 77 -28 115 4 l30 26 3 -23 c4 -33 71 -39 88 -8 10 19 9 20 -14 14 -33 -8
-33 -3 -1 111 14 49 25 93 25 98 0 12 -65 37 -92 36 -13 0 -36 -5 -53 -10z
m85 -45 c0 -36 -33 -126 -57 -154 -54 -65 -108 -21 -84 68 16 63 36 91 74 107
35 15 67 5 67 -21z"/>
<path d="M1953 4229 c-46 -13 -100 -71 -114 -121 -22 -83 9 -148 70 -148 36 0
128 28 137 41 11 18 -2 20 -32 4 -42 -22 -101 -20 -114 4 -23 44 -13 58 58 81
95 30 112 43 112 85 0 56 -42 75 -117 54z m63 -34 c14 -36 -5 -63 -57 -80 -56
-19 -64 -16 -55 18 14 57 97 103 112 62z"/>
<path d="M2193 4223 c-70 -35 -63 -96 17 -139 58 -31 76 -68 45 -91 -36 -25
-105 -7 -105 28 0 21 -28 7 -33 -16 -6 -33 16 -45 82 -45 85 0 127 33 119 95
-2 23 -15 36 -61 63 -32 18 -61 40 -64 48 -10 26 17 45 61 42 34 -2 42 -7 44
-25 5 -35 32 -29 32 7 0 24 -6 33 -26 40 -36 14 -74 11 -111 -7z"/>
<path d="M2493 4221 c-90 -42 -136 -187 -77 -245 24 -25 77 -20 104 9 13 14
28 25 33 25 6 0 7 -3 4 -6 -3 -4 -2 -15 4 -25 11 -22 58 -26 77 -7 19 19 14
29 -12 22 l-24 -6 27 110 c27 106 27 109 9 121 -35 22 -100 23 -145 2z m98
-28 c5 -80 -54 -193 -101 -193 -59 0 -51 132 11 184 36 31 88 35 90 9z"/>
<path d="M2894 4230 c-12 -4 -35 -28 -53 -52 l-32 -43 6 48 7 47 -40 0 c-23 0
-45 -6 -52 -15 -10 -13 -9 -15 9 -15 27 0 27 -18 1 -130 -25 -109 -25 -112 2
-108 15 2 26 13 32 33 24 83 39 114 76 155 40 45 48 46 64 5 7 -19 28 13 29
46 2 36 -12 45 -49 29z"/>
<path d="M3080 4229 c-79 -32 -128 -111 -117 -191 7 -49 35 -78 76 -78 36 0
128 28 137 41 11 18 -2 20 -32 4 -42 -22 -101 -20 -114 4 -24 45 -14 59 57 81
94 29 113 43 113 85 0 55 -55 80 -120 54z m70 -53 c0 -28 -24 -50 -73 -66 -53
-17 -59 -11 -37 37 31 70 110 91 110 29z"/>
<path d="M3355 4226 c-68 -31 -107 -94 -109 -173 -1 -64 21 -93 72 -93 25 0
41 8 62 30 l29 31 3 -28 c3 -24 8 -28 40 -31 29 -2 39 1 48 18 10 19 9 20 -14
14 -31 -8 -31 -11 -1 106 14 52 25 99 25 103 0 12 -66 37 -97 37 -15 -1 -41
-7 -58 -14z m91 -69 c-12 -73 -41 -125 -81 -144 -36 -17 -37 -17 -52 2 -18 25
-11 95 15 139 23 41 78 69 105 55 16 -9 18 -17 13 -52z"/>
<path d="M3720 4191 l-49 -49 6 44 c6 43 5 44 -23 44 -39 0 -74 -10 -74 -21 0
-5 9 -9 20 -9 13 0 20 -7 20 -19 0 -10 -9 -63 -20 -116 -11 -53 -20 -98 -20
-100 0 -1 11 0 25 3 20 3 28 14 40 55 27 90 83 167 122 167 17 0 16 -39 -3
-112 -8 -33 -14 -72 -12 -87 3 -23 7 -26 43 -26 29 0 41 4 43 17 2 12 -2 15
-17 11 -26 -7 -26 1 -1 97 25 96 25 126 1 140 -34 18 -51 11 -101 -39z"/>
<path d="M4261 4211 c-8 -14 -7 -22 4 -31 22 -19 48 5 34 31 -5 10 -14 19 -19
19 -5 0 -14 -9 -19 -19z"/>
<path d="M686 4211 c-8 -13 4 -41 18 -41 6 0 17 4 25 9 12 8 12 12 2 25 -15
18 -37 21 -45 7z"/>
<path d="M594 4105 c-4 -9 0 -24 10 -33 15 -15 18 -15 26 -2 6 8 9 22 7 30 -3
21 -36 25 -43 5z"/>
<path d="M4344 4109 c-3 -6 1 -18 10 -27 15 -15 17 -15 32 0 19 19 11 38 -16
38 -10 0 -22 -5 -26 -11z"/>
<path d="M514 4005 c-12 -29 15 -45 45 -26 12 8 12 12 2 25 -17 20 -40 21 -47
1z"/>
<path d="M4437 4013 c-4 -3 -7 -15 -7 -25 0 -22 32 -24 49 -4 10 12 8 17 -8
25 -23 13 -26 13 -34 4z"/>
<path d="M4511 3902 c-8 -15 -7 -23 5 -33 18 -15 38 0 32 27 -5 25 -25 28 -37
6z"/>
<path d="M434 3895 c-8 -20 4 -35 26 -35 25 0 35 17 20 35 -16 19 -39 19 -46
0z"/>
<path d="M4583 3791 c-9 -14 -9 -21 0 -30 26 -26 53 -2 35 32 -11 22 -20 22
-35 -2z"/>
<path d="M371 3791 c-13 -8 -13 -14 -2 -38 12 -27 13 -27 27 -8 25 34 7 66
-25 46z"/>
<path d="M2256 3692 c-18 -21 -5 -42 25 -42 25 0 43 25 27 37 -28 21 -36 22
-52 5z"/>
<path d="M2843 3693 c-18 -7 -16 -23 1 -23 8 0 17 -3 20 -8 2 -4 -11 -79 -30
-167 -18 -88 -34 -166 -34 -172 0 -7 11 -13 24 -13 21 0 26 7 36 52 15 74 83
178 116 178 19 0 18 -38 -2 -126 -10 -39 -14 -79 -11 -88 8 -21 70 -22 87 -1
10 13 9 15 -9 15 -26 0 -27 20 -5 116 18 75 14 118 -11 128 -25 9 -66 -12
-107 -57 l-39 -42 6 30 c4 17 13 56 21 88 21 89 20 97 -18 96 -18 0 -39 -3
-45 -6z"/>
<path d="M1810 3675 c0 -9 9 -15 25 -15 32 0 32 -9 -1 -169 -28 -134 -35 -151
-65 -151 -11 0 -19 -7 -19 -15 0 -12 18 -15 100 -15 173 0 238 28 255 108 6
29 3 37 -27 65 l-34 32 30 20 c57 39 60 112 6 140 -42 22 -270 22 -270 0z
m221 -25 c25 -14 26 -71 2 -92 -18 -16 -112 -40 -124 -32 -6 3 -2 31 16 112 5
18 12 22 46 22 22 0 49 -5 60 -10z m-17 -169 c18 -15 21 -73 6 -101 -12 -22
-67 -40 -121 -40 l-36 0 16 81 15 81 53 -4 c28 -3 59 -10 67 -17z"/>
<path d="M302 3667 c-9 -10 -8 -18 3 -33 13 -16 16 -17 25 -4 21 31 -5 65 -28
37z"/>
<path d="M4643 3664 c-8 -22 11 -37 36 -29 25 8 28 30 5 39 -25 9 -34 7 -41
-10z"/>
<path d="M2694 3624 c-15 -19 -40 -42 -56 -50 -34 -18 -36 -34 -5 -34 l24 0
-21 -104 c-17 -89 -18 -107 -6 -121 15 -18 61 -15 87 6 22 19 15 29 -17 23
-16 -4 -30 -4 -30 -1 0 6 26 136 35 175 4 15 13 22 29 22 13 0 29 7 36 15 11
13 8 15 -19 15 l-32 0 7 45 c3 25 4 45 1 45 -3 0 -18 -16 -33 -36z"/>
<path d="M2198 3573 c-10 -2 -18 -10 -18 -18 0 -9 7 -11 22 -7 18 4 20 2 15
-19 -21 -80 -39 -188 -34 -202 8 -21 56 -22 83 -3 24 18 13 31 -15 16 -27 -14
-27 -9 4 110 33 126 32 130 -7 129 -18 -1 -41 -3 -50 -6z"/>
<path d="M2378 3573 c-32 -5 -38 -23 -8 -23 25 0 25 -12 0 -131 -24 -116 -24
-109 3 -109 19 0 26 12 50 80 19 53 41 93 64 118 35 37 36 37 46 15 5 -13 14
-23 18 -23 12 0 29 35 29 59 0 17 -6 21 -30 21 -31 0 -58 -20 -93 -70 l-17
-25 6 48 c7 52 7 51 -68 40z"/>
<path d="M241 3546 c-18 -21 11 -41 39 -26 17 9 19 14 9 26 -15 18 -33 18 -48
0z"/>
<path d="M4704 3545 c-4 -9 0 -24 10 -33 15 -15 18 -15 26 -2 6 8 9 22 7 30
-3 21 -36 25 -43 5z"/>
<path d="M186 3424 c-11 -30 13 -44 43 -25 12 8 12 12 2 25 -17 20 -37 20 -45
0z"/>
<path d="M4767 3433 c-14 -14 -7 -43 11 -43 30 0 44 21 24 36 -20 15 -26 17
-35 7z"/>
<path d="M4806 3303 c-4 -9 -1 -23 7 -30 12 -12 16 -12 26 0 13 17 5 47 -14
47 -7 0 -16 -8 -19 -17z"/>
<path d="M137 3298 c-2 -8 1 -22 9 -33 14 -18 14 -18 29 1 8 10 13 24 11 29
-4 16 -43 18 -49 3z"/>
<path d="M3252 3179 c-107 -53 -177 -164 -154 -246 6 -21 26 -100 46 -176 36
-139 63 -203 110 -266 14 -19 26 -39 26 -44 0 -6 -53 -65 -119 -132 -95 -97
-126 -137 -155 -196 -37 -76 -66 -173 -66 -219 0 -36 -17 -54 -77 -78 -210
-84 -377 -303 -358 -469 4 -33 3 -53 -4 -53 -15 0 -40 41 -52 85 -12 44 -35
75 -56 75 -22 0 -15 16 21 44 69 52 122 215 113 346 -3 41 -14 100 -26 130
-39 104 -165 239 -313 337 -38 25 -68 51 -68 58 0 7 10 34 21 60 30 67 35 183
15 325 -13 96 -21 122 -45 155 -40 56 -108 89 -193 93 -58 4 -76 0 -122 -22
-66 -32 -132 -102 -141 -148 -9 -46 31 -301 55 -356 11 -25 35 -66 53 -91 l34
-47 -74 -79 c-87 -95 -157 -185 -185 -238 -25 -49 -58 -179 -58 -228 0 -108
90 -278 217 -410 46 -47 83 -93 83 -101 0 -15 -91 -98 -108 -98 -5 0 -2 29 6
64 21 87 8 107 -86 135 -85 26 -148 66 -197 125 -44 53 -43 53 -144 11 -59
-25 -70 -26 -153 -20 -122 10 -168 -4 -234 -70 -62 -62 -84 -120 -84 -223 0
-87 21 -178 58 -245 55 -102 247 -198 368 -184 77 8 163 59 250 147 43 44 84
80 89 80 6 0 31 -21 55 -46 99 -101 222 -157 450 -206 89 -19 117 -20 450 -14
195 3 409 9 476 13 l121 6 7 -94 c3 -52 13 -116 21 -144 14 -47 15 -41 10 120
-3 94 -13 276 -21 405 -14 215 -18 332 -22 823 -1 92 -6 167 -11 167 -4 0 -11
-37 -15 -82 -10 -117 -19 -152 -39 -156 -75 -15 -58 171 29 338 44 84 99 148
182 210 78 59 123 74 209 68 54 -3 71 -10 130 -50 136 -94 189 -163 293 -383
57 -120 62 -146 35 -175 -18 -20 -45 -27 -45 -12 0 22 -30 185 -34 190 -14 14
-16 -15 -6 -154 19 -301 57 -956 61 -1079 l1 -30 9 35 c5 19 8 163 7 320 l-3
285 27 56 c40 85 52 162 45 302 -7 130 -28 229 -70 320 -58 128 -174 263 -290
340 -31 21 -57 43 -57 49 0 5 22 43 49 84 57 84 87 160 96 236 4 29 13 86 22
126 19 90 13 142 -22 192 -35 50 -88 84 -179 115 -107 36 -184 34 -264 -6z
m254 -24 c27 -8 71 -28 97 -45 135 -85 107 -277 -50 -347 -30 -12 -56 -23 -58
-23 -3 0 -5 11 -5 25 0 62 -88 88 -135 40 -14 -13 -25 -29 -25 -36 0 -20 -66
-3 -110 28 -53 37 -84 102 -85 174 0 47 5 62 35 104 51 71 103 95 205 95 45 0
104 -7 131 -15z m-1464 -210 c59 -41 84 -94 69 -145 -16 -55 -44 -85 -106
-116 -50 -24 -63 -26 -138 -22 -94 5 -139 24 -167 71 -38 61 -19 143 44 193
53 42 92 54 178 51 67 -2 82 -6 120 -32z m1396 -167 c7 -7 12 -23 12 -36 0
-31 -71 -162 -88 -162 -16 0 8 61 43 106 30 39 31 44 6 44 -26 0 -34 15 -21
40 12 23 30 26 48 8z m232 -36 c-14 -24 -113 -102 -131 -102 -4 0 -12 13 -17
30 -11 30 -10 30 66 75 83 48 109 47 82 -3z m-398 -8 c46 -15 86 -31 90 -37 7
-12 -11 -57 -24 -57 -22 0 -137 73 -152 95 -20 31 -16 31 86 -1z m-1162 -54
c0 -11 -7 -36 -15 -56 -12 -29 -18 -34 -39 -28 -13 3 -27 1 -30 -5 -4 -6 -16
-11 -27 -11 -21 0 -25 -10 -8 -27 7 -7 -3 -13 -37 -18 -25 -3 -52 -9 -60 -12
-9 -3 -11 2 -7 16 6 22 -1 24 -87 25 -28 1 -39 8 -64 43 -16 24 -27 45 -24 48
8 8 61 -14 74 -30 13 -17 98 -20 174 -7 74 13 83 18 109 52 25 35 41 38 41 10z
m1391 -42 c5 -22 9 -47 7 -56 -5 -25 -58 34 -58 64 0 66 32 62 51 -8z m-1359
-71 c-23 -146 -51 -199 -122 -234 -79 -40 -122 -31 -203 46 -37 34 -124 187
-113 198 3 3 19 -7 37 -21 52 -44 104 -66 157 -66 109 0 201 60 224 146 11 40
14 43 22 24 6 -13 5 -46 -2 -93z m1186 18 c-6 -62 -71 -35 -104 44 -22 53 -18
54 46 19 56 -30 61 -36 58 -63z m297 48 c-9 -39 -42 -81 -78 -99 -46 -24 -177
-20 -177 6 0 5 11 22 25 39 l26 30 38 -41 c40 -44 71 -47 71 -8 0 34 18 58 58
79 47 25 45 26 37 -6z m-201 -143 c116 -15 116 -33 0 -38 -68 -4 -78 -2 -100
19 -26 24 -32 44 -11 36 8 -3 58 -11 111 -17z m-1289 -182 c14 -6 25 -15 25
-19 0 -8 -159 -213 -168 -216 -4 -1 -51 39 -105 90 -77 72 -97 96 -91 110 11
31 43 35 107 15 63 -19 102 -15 157 17 31 18 42 18 75 3z m210 -170 c76 -83
106 -130 136 -214 l20 -59 -57 -52 c-32 -28 -61 -50 -65 -47 -4 2 -11 19 -14
37 -10 42 -53 127 -65 127 -14 0 -14 0 17 -66 21 -47 28 -78 31 -149 6 -120
-26 -287 -65 -344 -2 -3 -16 7 -31 22 -40 38 -93 57 -163 57 -70 0 -119 -21
-220 -94 -35 -25 -66 -46 -70 -46 -16 0 -75 172 -99 292 -8 43 -8 77 0 135 23
159 23 161 6 138 -17 -20 -36 -78 -36 -108 0 -15 -9 -12 -57 19 -94 58 -99 75
-59 174 40 97 164 270 194 270 6 0 59 -45 119 -100 59 -55 113 -100 120 -100
6 0 57 54 113 120 l102 120 38 -30 c22 -17 69 -63 105 -102z m155 -368 c0 -77
-110 -295 -135 -269 -1 2 5 55 14 118 17 109 19 115 54 147 47 43 67 44 67 4z
m-921 0 c60 -30 77 -59 84 -142 4 -40 13 -97 21 -125 8 -29 11 -53 6 -53 -15
0 -80 80 -106 132 -30 59 -54 138 -54 181 0 32 0 32 49 7z m2361 5 c0 -47 -32
-301 -39 -308 -13 -13 -38 216 -28 255 7 26 42 68 57 68 6 0 10 -7 10 -15z
m-895 -42 c3 -9 8 -70 11 -136 4 -94 2 -118 -8 -115 -13 5 -70 276 -62 290 7
11 51 -20 59 -39z m-1677 -243 c3 -18 15 -31 45 -45 51 -24 59 -54 23 -83 -15
-11 -26 -22 -26 -26 0 -11 35 7 61 31 l27 25 53 -18 c107 -34 109 -35 109 -60
0 -32 -41 -142 -75 -200 -38 -65 -113 -144 -152 -160 -71 -30 -183 -4 -219 50
-13 21 -15 39 -10 80 3 30 9 61 12 70 5 13 1 13 -23 4 -43 -16 -98 -2 -127 32
-50 60 -55 196 -9 242 11 10 43 22 73 27 30 5 89 21 130 34 90 30 104 30 108
-3z m1038 -78 c5 -4 16 -23 24 -42 35 -88 91 -162 223 -297 95 -97 138 -147
134 -158 -8 -18 -92 -57 -167 -76 -72 -18 -427 -19 -524 -1 -135 25 -256 107
-256 174 0 65 87 120 190 120 54 0 143 -32 373 -136 55 -25 87 -32 87 -21 0 3
-16 22 -36 42 -44 44 -86 132 -113 241 -26 99 -27 138 -3 151 20 12 53 14 68
3z"/>
<path d="M1106 1425 c-24 -24 -21 -97 5 -126 18 -21 20 -21 14 -4 -14 42 -17
93 -5 114 15 29 7 37 -14 16z"/>
<path d="M1190 1374 c0 -69 11 -77 30 -20 7 23 7 41 1 60 -18 46 -31 29 -31
-40z"/>
<path d="M1226 1081 c-9 -13 22 -41 45 -41 25 0 59 17 59 30 0 6 -10 5 -24 -1
-18 -9 -29 -8 -49 6 -15 9 -28 12 -31 6z"/>
<path d="M1325 1013 c-26 -24 -27 -28 -11 -31 23 -5 49 20 44 42 -2 14 -8 12
-33 -11z"/>
<path d="M113 3183 c-16 -6 -17 -29 -3 -38 12 -7 50 3 50 13 0 12 -34 29 -47
25z"/>
<path d="M4845 3170 c-4 -6 -1 -17 5 -25 9 -11 17 -12 32 -4 15 8 17 13 7 25
-14 16 -35 18 -44 4z"/>
<path d="M75 3050 c-4 -12 -1 -28 6 -36 12 -14 14 -14 25 1 10 13 10 21 1 36
-15 24 -24 24 -32 -1z"/>
<path d="M4879 3044 c-10 -12 -9 -18 4 -31 13 -13 19 -14 31 -3 21 17 20 27
-3 39 -14 8 -22 7 -32 -5z"/>
<path d="M53 2923 c-17 -6 -16 -25 1 -48 13 -18 14 -18 26 4 10 19 9 26 -2 36
-7 7 -19 11 -25 8z"/>
<path d="M4900 2914 c-11 -12 -10 -18 3 -31 15 -15 18 -15 37 2 19 17 19 19 2
31 -22 17 -27 17 -42 -2z"/>
<path d="M24 2779 c-3 -6 1 -18 10 -27 15 -15 17 -15 32 0 19 19 11 38 -16 38
-10 0 -22 -5 -26 -11z"/>
<path d="M4921 2777 c-8 -10 -7 -19 4 -33 14 -19 14 -19 29 1 22 31 -8 61 -33
32z"/>
<path d="M23 2661 c-16 -25 -6 -53 16 -49 21 4 25 29 9 51 -12 16 -14 16 -25
-2z"/>
<path d="M4937 2653 c-4 -3 -7 -15 -7 -25 0 -21 32 -25 49 -5 17 22 -22 50
-42 30z"/>
<path d="M4934 2514 c-8 -32 14 -50 34 -30 11 11 11 18 3 35 -16 28 -29 26
-37 -5z"/>
<path d="M18 2523 c-25 -6 -22 -30 3 -38 25 -8 44 7 36 29 -7 16 -9 17 -39 9z"/>
<path d="M13 2374 c-3 -8 1 -22 9 -30 13 -13 16 -13 27 0 7 9 11 23 7 31 -7
20 -35 19 -43 -1z"/>
<path d="M4927 2376 c-3 -8 1 -22 9 -33 14 -17 14 -17 28 0 18 23 10 47 -14
47 -10 0 -20 -6 -23 -14z"/>
<path d="M32 2258 c-17 -17 -15 -35 4 -42 31 -12 47 21 21 43 -10 8 -17 7 -25
-1z"/>
<path d="M4921 2247 c-8 -10 -7 -19 4 -33 15 -19 15 -19 30 0 11 14 12 23 4
33 -6 7 -15 13 -19 13 -4 0 -13 -6 -19 -13z"/>
<path d="M4904 2123 c-14 -24 -7 -43 16 -43 26 0 33 15 18 40 -16 25 -20 25
-34 3z"/>
<path d="M50 2115 c-22 -26 7 -46 39 -26 12 8 12 12 2 25 -17 20 -25 20 -41 1z"/>
<path d="M70 1991 c-13 -26 -13 -28 6 -35 26 -10 46 12 31 35 -15 24 -24 24
-37 0z"/>
<path d="M4873 1985 c-16 -13 -16 -16 -3 -25 20 -14 44 -8 48 11 4 23 -22 31
-45 14z"/>
<path d="M101 1857 c-8 -10 -7 -19 4 -33 13 -18 15 -18 31 -2 14 14 15 20 4
32 -15 19 -24 20 -39 3z"/>
<path d="M4847 1863 c-12 -11 -7 -41 7 -46 8 -3 22 0 32 8 15 11 16 15 5 29
-14 17 -33 21 -44 9z"/>
<path d="M142 1728 c-13 -13 2 -38 23 -38 21 0 36 25 23 38 -7 7 -17 12 -23
12 -6 0 -16 -5 -23 -12z"/>
<path d="M4810 1725 c-22 -26 7 -46 39 -26 12 8 12 12 2 25 -17 20 -25 20 -41
1z"/>
<path d="M4761 1608 c-12 -19 -11 -23 4 -34 21 -16 35 -10 35 15 0 32 -24 43
-39 19z"/>
<path d="M189 1604 c-10 -12 -9 -18 4 -31 13 -13 19 -14 31 -3 21 17 20 27 -3
39 -14 8 -22 7 -32 -5z"/>
<path d="M240 1484 c-11 -12 -10 -18 3 -32 16 -15 18 -15 34 0 13 14 14 20 3
32 -7 9 -16 16 -20 16 -4 0 -13 -7 -20 -16z"/>
<path d="M4704 1475 c-13 -32 23 -48 47 -19 10 13 10 17 -2 25 -21 13 -39 11
-45 -6z"/>
<path d="M295 1360 c-7 -11 12 -50 25 -50 12 0 23 37 15 50 -8 13 -32 13 -40
0z"/>
<path d="M4646 1361 c-9 -14 4 -41 19 -41 17 0 38 27 30 40 -8 12 -42 13 -49
1z"/>
<path d="M372 1248 c-28 -28 1 -57 34 -33 15 11 16 15 5 29 -16 19 -23 20 -39
4z"/>
<path d="M4578 1246 c-20 -15 -6 -36 23 -36 21 0 31 24 16 39 -14 14 -18 14
-39 -3z"/>
<path d="M441 1138 c-11 -17 -10 -23 2 -35 18 -18 37 -9 37 16 0 31 -24 43
-39 19z"/>
<path d="M4510 1134 c-11 -12 -10 -18 3 -32 16 -15 18 -15 34 0 13 14 14 20 3
32 -7 9 -16 16 -20 16 -4 0 -13 -7 -20 -16z"/>
<path d="M520 1035 c-9 -11 -11 -22 -4 -32 13 -21 25 -21 38 -1 8 14 7 21 -5
33 -14 15 -17 15 -29 0z"/>
<path d="M4437 1033 c-4 -3 -7 -15 -7 -25 0 -19 25 -24 48 -9 11 6 10 11 -3
25 -18 17 -28 20 -38 9z"/>
<path d="M4350 925 c-16 -19 -5 -47 17 -43 11 2 18 12 18 27 0 29 -17 37 -35
16z"/>
<path d="M595 920 c-7 -11 12 -50 25 -50 12 0 23 37 15 50 -8 13 -32 13 -40 0z"/>
<path d="M690 825 c-11 -13 -11 -19 3 -33 20 -19 41 -5 35 24 -4 24 -22 28
-38 9z"/>
<path d="M4257 816 c-3 -8 1 -20 9 -27 12 -10 18 -9 31 3 8 9 12 21 9 27 -10
16 -43 14 -49 -3z"/>
<path d="M787 733 c-11 -10 -8 -41 4 -49 6 -3 18 1 27 9 13 13 13 19 2 31 -14
17 -23 20 -33 9z"/>
<path d="M4165 730 c-8 -12 3 -50 14 -50 15 0 33 30 27 45 -6 17 -32 20 -41 5z"/>
<path d="M881 641 c-8 -14 -7 -22 4 -31 22 -19 48 5 34 31 -5 10 -14 19 -19
19 -5 0 -14 -9 -19 -19z"/>
<path d="M4071 646 c-14 -16 -4 -46 14 -46 19 0 27 17 20 40 -7 23 -18 25 -34
6z"/>
<path d="M3972 568 c-21 -21 -15 -50 10 -46 27 4 32 18 16 41 -11 14 -16 15
-26 5z"/>
<path d="M983 544 c-3 -8 1 -22 9 -30 13 -13 16 -13 27 0 7 9 11 23 7 31 -7
20 -35 19 -43 -1z"/>
<path d="M1094 475 c-12 -30 16 -45 46 -25 13 9 12 12 -4 25 -25 19 -35 19
-42 0z"/>
<path d="M3854 475 c-12 -29 15 -45 45 -26 12 8 12 12 2 25 -17 20 -40 21 -47
1z"/>
<path d="M3744 404 c-9 -34 10 -54 32 -32 13 13 14 19 2 37 -17 28 -26 27 -34
-5z"/>
<path d="M1213 413 c-16 -6 -17 -25 -1 -41 12 -12 48 1 48 18 0 13 -32 28 -47
23z"/>
<path d="M3630 345 c-15 -18 -6 -45 14 -45 20 0 29 16 21 40 -8 24 -18 25 -35
5z"/>
<path d="M1322 338 c-8 -8 -9 -15 -1 -25 15 -17 34 -17 48 1 10 12 8 17 -8 25
-24 14 -24 14 -39 -1z"/>
<path d="M1442 278 c-13 -13 2 -38 23 -38 21 0 36 25 23 38 -7 7 -17 12 -23
12 -6 0 -16 -5 -23 -12z"/>
<path d="M3513 283 c-18 -7 -16 -28 3 -44 13 -10 17 -10 25 2 18 28 1 54 -28
42z"/>
<path d="M1564 225 c-12 -31 23 -48 45 -21 10 12 8 17 -8 25 -26 14 -31 14
-37 -4z"/>
<path d="M3389 224 c-16 -20 2 -38 30 -29 26 8 27 21 2 34 -14 8 -22 7 -32 -5z"/>
<path d="M1684 175 c-4 -9 0 -24 10 -33 15 -15 18 -15 26 -2 6 8 9 22 7 30 -3
21 -36 25 -43 5z"/>
<path d="M3257 176 c-9 -23 18 -39 43 -26 17 9 19 14 9 26 -15 18 -45 18 -52
0z"/>
<path d="M3142 158 c-15 -15 -16 -45 -1 -54 6 -3 17 0 24 7 11 11 11 18 1 37
-9 17 -14 20 -24 10z"/>
<path d="M1820 145 c-9 -11 -11 -22 -4 -32 13 -21 25 -21 38 -1 8 14 7 21 -5
33 -14 15 -17 15 -29 0z"/>
<path d="M1945 110 c-8 -12 3 -50 14 -50 5 0 14 7 21 15 10 12 10 18 0 30 -14
17 -26 19 -35 5z"/>
<path d="M3002 108 c-8 -8 -9 -15 -1 -25 14 -17 34 -17 48 0 11 15 -3 37 -24
37 -6 0 -16 -5 -23 -12z"/>
<path d="M2083 93 c-16 -6 -17 -25 -1 -41 11 -11 48 1 48 16 0 12 -34 29 -47
25z"/>
<path d="M2881 87 c-27 -27 -4 -55 29 -35 25 16 25 20 1 35 -14 9 -21 9 -30 0z"/>
<path d="M2740 70 c-13 -24 -5 -40 20 -40 23 0 31 21 15 43 -16 22 -22 21 -35
-3z"/>
<path d="M2210 65 c-22 -26 7 -46 39 -26 12 8 12 12 2 25 -17 20 -25 20 -41 1z"/>
<path d="M2340 55 c-23 -28 15 -47 50 -25 13 8 12 11 -5 24 -25 19 -30 19 -45
1z"/>
<path d="M2611 56 c-19 -22 4 -62 25 -45 17 14 15 50 -2 56 -6 2 -16 -3 -23
-11z"/>
<path d="M2472 38 c5 -34 38 -37 38 -4 0 20 -5 26 -21 26 -15 0 -20 -5 -17
-22z"/>
</g>
</svg>
