<?xml version="1.0" standalone="no"?>
<!DOCTYPE svg PUBLIC "-//W3C//DTD SVG 20010904//EN"
 "http://www.w3.org/TR/2001/REC-SVG-20010904/DTD/svg10.dtd">
<svg version="1.0" xmlns="http://www.w3.org/2000/svg"
 width="499.000000pt" height="500.000000pt" viewBox="0 0 499.000000 500.000000"
 preserveAspectRatio="xMidYMid meet">
<metadata>
Created by potrace 1.15, written by Peter Selinger 2001-2017
</metadata>
<g transform="translate(0.000000,500.000000) scale(0.100000,-0.100000)"
fill="#000000" stroke="none">
<path d="M2340 4975 c-23 -28 21 -50 48 -23 9 9 7 14 -6 24 -22 17 -27 17 -42
-1z"/>
<path d="M2467 4979 c-14 -8 -16 -14 -6 -25 23 -28 64 -10 52 24 -6 15 -22 15
-46 1z"/>
<path d="M2611 4976 c-18 -22 4 -62 25 -45 18 15 18 33 0 48 -10 9 -16 8 -25
-3z"/>
<path d="M2210 4965 c-15 -18 -5 -35 20 -35 10 0 22 5 25 10 7 11 -12 40 -25
40 -4 0 -13 -7 -20 -15z"/>
<path d="M2742 4968 c-8 -8 -9 -15 -1 -25 13 -15 28 -16 49 -3 13 8 12 11 -5
24 -24 19 -28 19 -43 4z"/>
<path d="M2074 4945 c-12 -29 15 -45 45 -26 12 8 12 12 2 25 -17 20 -40 21
-47 1z"/>
<path d="M2877 4953 c-11 -10 -8 -41 4 -49 6 -3 18 1 27 9 13 13 13 19 2 31
-14 17 -23 20 -33 9z"/>
<path d="M1942 4918 c-7 -10 -6 -19 4 -33 15 -20 15 -20 30 0 8 10 13 24 11
30 -5 15 -33 17 -45 3z"/>
<path d="M3001 4916 c-18 -21 11 -41 38 -26 25 13 27 26 5 34 -23 9 -30 8 -43
-8z"/>
<path d="M1817 4893 c-24 -23 12 -55 38 -33 12 10 13 16 4 26 -12 15 -31 18
-42 7z"/>
<path d="M3132 4888 c-13 -13 2 -38 23 -38 21 0 36 25 23 38 -7 7 -17 12 -23
12 -6 0 -16 -5 -23 -12z"/>
<path d="M1684 4849 c-3 -6 0 -18 9 -26 14 -14 17 -14 37 0 22 15 22 15 2 26
-26 14 -39 14 -48 0z"/>
<path d="M3262 4847 c-9 -10 -8 -18 3 -33 13 -16 16 -17 25 -4 21 31 -5 65
-28 37z"/>
<path d="M1573 4813 c-17 -6 -17 -39 0 -46 12 -4 55 19 46 26 -2 1 -11 8 -19
13 -8 6 -21 9 -27 7z"/>
<path d="M3380 4804 c-11 -12 -10 -18 3 -32 16 -15 18 -15 34 0 13 14 14 20 3
32 -7 9 -16 16 -20 16 -4 0 -13 -7 -20 -16z"/>
<path d="M1440 4754 c-11 -12 -10 -18 3 -32 16 -15 18 -15 34 0 13 14 14 20 3
32 -7 9 -16 16 -20 16 -4 0 -13 -7 -20 -16z"/>
<path d="M3504 4745 c-13 -32 23 -48 47 -19 10 13 10 17 -2 25 -21 13 -39 11
-45 -6z"/>
<path d="M1314 4689 c-3 -6 0 -18 9 -26 12 -12 19 -13 36 -3 18 9 20 14 10 26
-14 17 -45 19 -55 3z"/>
<path d="M3624 4689 c-3 -6 1 -18 10 -27 15 -15 17 -15 34 1 15 16 15 19 2 27
-20 13 -37 12 -46 -1z"/>
<path d="M1213 4633 c-17 -6 -17 -38 0 -51 20 -17 44 25 25 43 -7 7 -19 11
-25 8z"/>
<path d="M3744 4625 c-12 -31 23 -48 45 -21 10 12 8 17 -8 25 -26 14 -31 14
-37 -4z"/>
<path d="M1091 4546 c-17 -20 16 -39 42 -24 15 7 16 12 6 24 -15 18 -33 18
-48 0z"/>
<path d="M3854 4549 c-3 -6 0 -17 8 -25 13 -13 16 -13 27 0 7 8 10 20 6 26 -8
13 -32 13 -41 -1z"/>
<path d="M991 4476 c-16 -19 -8 -46 13 -46 20 0 29 31 13 47 -12 12 -16 12
-26 -1z"/>
<path d="M3961 4471 c-12 -21 -5 -31 19 -31 28 0 42 22 22 36 -23 18 -30 17
-41 -5z"/>
<path d="M877 4386 c-3 -8 0 -20 8 -26 19 -16 59 8 43 27 -14 17 -45 17 -51
-1z"/>
<path d="M4063 4384 c-3 -8 1 -22 9 -30 13 -13 16 -13 27 0 7 9 11 23 7 31 -7
20 -35 19 -43 -1z"/>
<path d="M782 4306 c-12 -27 -7 -36 19 -36 28 0 33 20 12 41 -19 20 -20 20
-31 -5z"/>
<path d="M1526 4296 c-17 -79 8 -227 68 -403 49 -140 54 -178 28 -192 -22 -12
-122 -15 -159 -5 -12 3 -24 16 -27 28 -2 11 -2 -10 1 -48 3 -38 10 -80 15 -92
14 -31 5 -50 -34 -74 -43 -26 -63 -25 -123 5 l-50 26 34 -28 c18 -16 45 -37
59 -49 33 -27 24 -68 -20 -92 -66 -36 -96 -71 -118 -138 -35 -105 -91 -154
-176 -154 -20 0 -110 25 -199 55 -90 30 -175 55 -190 55 -38 0 -98 -65 -119
-127 -28 -87 -46 -223 -46 -352 1 -329 25 -363 494 -687 71 -49 174 -130 227
-181 147 -138 201 -176 262 -184 54 -7 127 1 185 20 30 9 33 8 27 -7 -17 -41
-12 -47 45 -52 l55 -5 -47 -25 c-27 -13 -48 -28 -48 -32 0 -4 18 -8 40 -8 41
0 49 -7 28 -28 -6 -6 -9 -14 -6 -18 4 -3 72 4 152 16 l146 21 54 -35 c29 -19
66 -50 81 -70 58 -77 85 -200 67 -311 -6 -33 -8 -62 -7 -64 12 -11 29 99 30
183 0 89 2 100 20 107 23 9 274 39 329 39 l37 0 -18 -31 c-40 -68 -252 -240
-358 -290 -28 -13 -54 -30 -58 -36 -4 -7 -34 -31 -65 -52 -31 -22 -94 -77
-140 -123 l-83 -85 -72 75 c-84 86 -212 186 -387 302 -173 114 -294 212 -494
400 l-80 75 93 -108 c114 -132 246 -245 446 -379 313 -212 453 -325 481 -388
l18 -39 18 42 c28 62 53 84 293 260 436 319 460 346 474 531 12 151 64 241
196 341 71 53 125 110 125 132 0 16 38 46 49 38 35 -21 -9 -139 -103 -279 -25
-38 -44 -71 -42 -74 7 -7 146 207 172 266 13 28 30 52 37 52 16 0 47 -31 47
-47 0 -5 18 -26 40 -46 27 -24 40 -44 40 -62 0 -14 9 -38 20 -53 17 -23 21
-45 23 -122 2 -91 1 -98 -35 -170 -40 -81 -111 -168 -342 -418 -80 -87 -224
-254 -321 -372 -97 -118 -216 -258 -264 -310 -95 -104 -93 -106 13 -18 136
114 206 189 301 323 131 184 171 233 361 438 138 148 169 177 193 177 100 0
334 -98 514 -216 121 -80 112 -60 -11 24 -141 96 -341 188 -469 217 -18 3 -33
9 -33 11 0 3 11 20 24 37 27 35 80 147 94 200 20 71 -32 252 -89 312 -22 23
-39 45 -39 51 0 16 -40 48 -90 73 -25 13 -75 45 -111 72 -82 60 -151 92 -282
131 -121 35 -250 46 -327 28 -29 -7 -108 -35 -174 -62 -67 -28 -155 -63 -196
-80 -41 -16 -85 -38 -96 -49 l-22 -20 -26 53 c-51 105 -145 253 -175 277 -28
21 -34 23 -56 11 -20 -11 -34 -11 -79 0 -108 26 -232 2 -338 -63 -40 -25 -55
-29 -95 -25 -27 3 -59 2 -73 -1 -24 -7 -24 -7 13 -30 20 -12 37 -27 37 -32 0
-15 -33 -10 -68 11 -42 26 -50 25 -26 -3 11 -12 26 -30 34 -40 12 -17 11 -18
-13 -12 -42 11 -32 -4 19 -27 43 -18 46 -22 40 -49 -3 -17 2 -66 10 -110 9
-44 14 -82 11 -85 -10 -10 -433 301 -503 371 -76 75 -104 130 -126 245 -28
147 4 446 56 523 44 66 153 69 336 11 63 -19 98 -25 141 -22 84 6 124 36 174
133 30 59 54 90 92 120 28 22 63 62 79 90 15 28 45 70 67 94 40 44 44 67 22
122 -12 31 21 49 94 49 39 0 72 5 79 12 25 25 13 103 -39 249 -48 135 -52 152
-58 269 -6 102 -8 118 -15 86z m198 -1926 c14 -17 31 -50 38 -73 6 -23 26 -56
44 -74 71 -71 81 -181 31 -328 -20 -60 -31 -75 -73 -108 -77 -59 -164 -98
-232 -104 -88 -8 -126 2 -174 47 -23 22 -47 40 -53 40 -22 0 -116 109 -141
163 -33 73 -41 159 -21 228 22 74 71 144 121 174 85 49 260 70 333 40 46 -19
50 -19 56 5 8 30 41 25 71 -10z m882 -115 c162 -29 366 -112 414 -170 17 -21
-4 -67 -56 -125 -42 -46 -81 -69 -174 -100 -147 -49 -237 -113 -285 -201 -31
-57 -38 -129 -21 -198 l9 -34 -90 5 c-72 3 -101 9 -146 32 -61 30 -72 46 -32
46 60 0 121 39 197 127 60 68 59 82 -6 180 l-45 67 27 12 c15 6 104 37 197 69
157 54 178 59 280 63 123 5 118 20 -7 21 -100 1 -155 -11 -318 -72 -126 -46
-143 -50 -247 -55 -73 -3 -113 -1 -113 6 0 5 12 13 28 17 77 18 225 69 212 72
-9 2 -87 -14 -174 -37 -120 -30 -162 -38 -177 -30 -10 6 -19 15 -19 19 0 11
99 49 238 91 57 17 102 34 99 36 -6 6 -146 -29 -265 -67 -51 -16 -100 -29
-110 -29 -22 0 -48 17 -40 26 4 4 74 31 155 60 165 59 171 73 8 19 -115 -39
-195 -54 -195 -38 0 18 19 27 215 106 261 105 283 109 441 82z m-656 -240 c0
-37 229 -125 326 -125 37 0 72 -26 125 -92 54 -68 52 -98 -7 -166 -52 -59
-107 -92 -156 -92 -18 0 -77 5 -131 12 -94 12 -245 2 -303 -18 -16 -6 -15 -3
5 19 14 15 22 29 19 32 -2 3 -28 -2 -57 -11 -61 -18 -81 -11 -29 10 77 33 68
56 -23 56 -65 0 -55 17 16 25 73 10 78 21 13 30 -64 9 -45 19 55 30 76 8 88
17 50 34 -39 18 -20 25 33 12 69 -17 100 -44 123 -104 l20 -52 0 49 c1 41 3
47 16 36 8 -7 26 -9 42 -6 17 4 61 -3 113 -19 108 -31 140 -32 82 -1 l-44 22
41 19 c23 10 40 20 38 22 -2 2 -33 -4 -68 -13 -38 -10 -82 -14 -109 -11 -70 8
-161 47 -197 83 -22 21 -33 27 -33 17 0 -12 -8 -14 -37 -8 -21 4 -39 8 -40 9
-3 3 62 210 71 224 9 16 46 -3 46 -23z m832 -222 c-56 -66 -77 -118 -103 -255
-21 -114 -23 -118 -47 -118 -40 0 -106 36 -125 69 -21 36 -22 77 -2 124 18 43
104 139 152 168 38 24 155 70 162 64 2 -2 -15 -25 -37 -52z m-972 -38 c11 -13
7 -15 -26 -15 -35 0 -37 1 -18 15 24 18 29 18 44 0z m464 -334 l49 -18 -33
-12 c-47 -16 -55 -14 -68 14 -20 43 -18 43 52 16z"/>
<path d="M1670 2375 c0 -20 30 -79 37 -72 7 7 -16 75 -28 82 -5 4 -9 -1 -9
-10z"/>
<path d="M1509 2273 c-20 -21 -43 -49 -53 -63 -17 -26 -22 -60 -8 -60 15 0 74
64 93 102 35 68 21 77 -32 21z"/>
<path d="M1381 2224 c-23 -26 -41 -52 -41 -58 0 -11 29 20 71 77 32 43 15 32
-30 -19z"/>
<path d="M1546 2209 c-15 -22 -26 -42 -24 -45 3 -2 18 14 33 36 15 22 26 42
24 44 -2 3 -17 -14 -33 -35z"/>
<path d="M1510 2091 c0 -5 7 -11 15 -15 22 -8 18 -26 -5 -26 -11 0 -20 -4 -20
-9 0 -19 16 -19 39 -2 17 13 22 23 16 39 -6 21 -45 32 -45 13z"/>
<path d="M1603 1966 c-44 -88 -44 -109 0 -56 29 34 50 90 45 121 -2 14 -16 -5
-45 -65z"/>
<path d="M1245 1970 c-9 -28 -15 -54 -12 -56 3 -3 13 18 22 46 9 28 15 54 12
56 -3 3 -13 -18 -22 -46z"/>
<path d="M1322 1976 c-17 -20 -36 -52 -41 -73 -13 -47 -13 -46 0 -80 11 -27
13 -23 45 77 18 57 32 106 30 108 -2 1 -17 -13 -34 -32z"/>
<path d="M1475 1988 c8 -22 7 -23 -13 -5 -21 20 -36 10 -26 -17 6 -16 50 -33
60 -23 3 2 6 17 7 33 1 20 -3 29 -16 32 -16 3 -18 0 -12 -20z"/>
<path d="M1673 1960 c-6 -14 -14 -36 -18 -50 l-7 -25 22 21 c15 15 20 30 18
50 l-4 29 -11 -25z"/>
<path d="M1366 1912 c-5 -18 -5 -36 -2 -39 7 -7 19 43 13 59 -2 7 -7 -2 -11
-20z"/>
<path d="M4167 4303 c-25 -24 11 -49 40 -28 16 13 16 16 3 25 -17 11 -34 13
-43 3z"/>
<path d="M3390 4283 c-63 -11 -168 -74 -221 -131 -277 -299 -75 -771 331 -774
225 -1 419 165 449 387 32 229 -97 440 -310 506 -58 18 -181 24 -249 12z m284
-71 c90 -42 149 -100 193 -189 32 -65 37 -86 41 -162 7 -145 -43 -264 -145
-347 -208 -169 -527 -97 -642 146 -23 50 -26 67 -26 175 0 109 2 125 27 177
35 75 104 148 177 187 79 42 121 51 223 47 71 -3 98 -9 152 -34z"/>
<path d="M3422 4028 c-23 -29 -38 -54 -34 -55 4 -1 18 -4 32 -7 25 -5 26 -9
28 -78 0 -42 -5 -93 -14 -120 -12 -35 -13 -52 -4 -67 16 -31 47 -26 65 9 9 17
40 46 69 66 42 27 62 35 91 32 37 -3 38 -2 58 50 11 29 18 54 16 57 -3 2 -33
-3 -67 -12 -60 -15 -63 -17 -57 -42 4 -23 -2 -30 -51 -63 -31 -21 -61 -35 -65
-32 -5 3 -9 50 -9 104 l0 98 30 7 c17 4 30 10 30 14 0 11 -61 91 -70 91 -4 0
-26 -24 -48 -52z"/>
<path d="M686 4204 c-11 -30 13 -44 43 -25 12 8 12 12 2 25 -17 20 -37 20 -45
0z"/>
<path d="M4260 4205 c-21 -26 3 -42 37 -26 27 12 27 13 8 27 -24 18 -30 18
-45 -1z"/>
<path d="M4350 4114 c-11 -12 -11 -18 1 -29 20 -20 43 -4 34 24 -8 25 -18 27
-35 5z"/>
<path d="M603 4109 c-16 -16 -5 -39 18 -39 24 0 37 29 18 41 -18 11 -23 11
-36 -2z"/>
<path d="M522 4018 c-16 -16 -15 -33 2 -47 21 -18 41 11 26 38 -13 25 -12 25
-28 9z"/>
<path d="M4430 4005 c-15 -18 -5 -35 20 -35 10 0 22 5 25 10 7 11 -12 40 -25
40 -4 0 -13 -7 -20 -15z"/>
<path d="M441 3901 c-19 -12 -6 -41 18 -41 26 0 36 17 21 35 -14 17 -20 18
-39 6z"/>
<path d="M4510 3895 c-15 -18 -5 -35 20 -35 10 0 22 5 25 10 7 11 -12 40 -25
40 -4 0 -13 -7 -20 -15z"/>
<path d="M372 3788 c-27 -27 -3 -54 31 -36 22 11 22 25 -1 37 -13 7 -23 6 -30
-1z"/>
<path d="M4580 3785 c-23 -28 21 -50 48 -23 9 9 7 14 -6 24 -22 17 -27 17 -42
-1z"/>
<path d="M1945 3769 c-65 -19 -124 -106 -125 -182 0 -45 21 -89 52 -111 42
-30 164 -15 175 21 3 9 -5 9 -31 -2 -48 -20 -78 -19 -108 5 -94 73 21 300 128
251 18 -8 24 -19 24 -41 0 -32 14 -40 24 -14 3 9 6 28 6 44 0 23 -5 29 -31 34
-40 8 -76 6 -114 -5z"/>
<path d="M2391 3761 c-11 -7 -11 -10 3 -18 15 -8 14 -20 -10 -137 -21 -106
-23 -130 -12 -137 20 -13 44 -11 58 6 10 13 9 15 -9 15 -17 0 -20 5 -16 23 3
12 16 75 29 140 l23 117 -26 0 c-14 0 -32 -4 -40 -9z"/>
<path d="M300 3665 c-11 -13 -11 -19 4 -33 15 -15 18 -15 26 -2 22 33 -6 64
-30 35z"/>
<path d="M2166 3660 c-55 -35 -82 -121 -56 -171 12 -22 46 -25 84 -7 21 9 29
8 44 -5 24 -22 46 -22 63 0 13 15 12 16 -8 11 -28 -7 -28 -4 -3 92 14 54 16
78 8 87 -16 20 -98 16 -132 -7z m83 1 c21 -14 -2 -111 -34 -141 -29 -27 -59
-23 -63 9 -5 33 25 108 51 126 25 17 27 18 46 6z"/>
<path d="M2596 3648 l-26 -33 0 28 c0 24 -4 27 -35 27 -19 0 -35 -4 -35 -10 0
-5 7 -10 15 -10 11 0 14 -7 10 -22 -3 -13 -11 -54 -19 -91 -13 -67 -13 -68 7
-65 15 2 23 15 32 51 14 54 38 92 74 116 l24 16 -6 -65 c-4 -36 -10 -77 -13
-92 -5 -23 -3 -28 14 -28 15 0 21 9 25 36 12 72 88 169 103 130 3 -8 -1 -47
-9 -86 -16 -80 -11 -89 41 -74 20 5 23 8 10 11 -21 5 -22 18 -4 99 15 72 8 94
-34 94 -21 0 -35 -9 -52 -32 l-23 -33 -5 30 c-4 25 -10 31 -36 33 -26 3 -37
-3 -58 -30z"/>
<path d="M4643 3664 c-3 -8 1 -22 9 -30 13 -13 16 -13 27 0 7 9 11 23 7 31 -7
20 -35 19 -43 -1z"/>
<path d="M242 3548 c-8 -8 -9 -15 -1 -25 15 -17 34 -17 48 1 10 12 8 17 -8 25
-24 14 -24 14 -39 -1z"/>
<path d="M4704 3545 c-12 -29 15 -45 45 -26 12 8 12 12 2 25 -17 20 -40 21
-47 1z"/>
<path d="M190 3425 c-15 -18 -5 -35 20 -35 10 0 22 5 25 10 7 11 -12 40 -25
40 -4 0 -13 -7 -20 -15z"/>
<path d="M4760 3425 c-15 -18 -5 -35 20 -35 10 0 22 5 25 10 7 11 -12 40 -25
40 -4 0 -13 -7 -20 -15z"/>
<path d="M137 3296 c-9 -23 18 -39 42 -26 25 13 27 26 5 34 -25 10 -41 7 -47
-8z"/>
<path d="M4807 3303 c-24 -23 12 -55 38 -33 12 10 13 16 4 26 -12 15 -31 18
-42 7z"/>
<path d="M2430 3257 c-24 -7 -29 -12 -17 -14 17 -5 22 -28 11 -57 -4 -11 -19
-16 -43 -16 -99 0 -169 -125 -108 -196 25 -29 52 -28 82 3 15 14 18 13 40 -7
20 -19 26 -20 47 -9 l23 14 -23 3 c-16 2 -21 9 -18 20 5 17 56 261 56 268 0 6
-10 4 -50 -9z m-25 -166 c-8 -48 -48 -101 -76 -101 -59 0 -27 152 33 162 37 6
51 -14 43 -61z"/>
<path d="M3042 3258 c-19 -19 5 -40 30 -27 15 8 17 13 7 25 -14 17 -21 18 -37
2z"/>
<path d="M3545 3255 c-22 -7 -32 -13 -22 -14 22 -1 22 -17 -3 -136 -11 -53
-20 -107 -20 -120 0 -25 23 -39 51 -30 23 8 25 25 4 25 -20 0 -19 9 10 146 14
65 25 123 23 129 -2 9 -12 9 -43 0z"/>
<path d="M4090 3257 c-23 -7 -29 -12 -17 -14 9 -3 17 -6 17 -9 0 -2 -11 -57
-25 -121 -14 -65 -25 -125 -25 -134 0 -20 26 -32 51 -24 23 8 25 25 4 25 -19
0 -20 -9 11 136 14 68 24 129 22 137 -2 11 -11 11 -38 4z"/>
<path d="M4242 3257 c-7 -8 -7 -17 3 -30 11 -15 14 -15 25 -2 13 15 7 45 -8
45 -5 0 -14 -6 -20 -13z"/>
<path d="M2667 3253 c-13 -13 -7 -23 14 -23 17 0 20 -5 16 -22 -3 -13 -15 -67
-27 -121 -19 -87 -25 -100 -48 -110 -24 -10 -14 -12 72 -15 82 -2 105 1 140
18 62 29 90 72 94 145 7 102 -39 135 -184 135 -39 0 -74 -3 -77 -7z m191 -49
c50 -57 13 -178 -64 -210 -36 -15 -94 -19 -94 -6 0 41 46 230 59 240 23 19 72
7 99 -24z"/>
<path d="M4355 3190 c-31 -32 -37 -43 -26 -49 12 -8 12 -21 -2 -88 -14 -72
-14 -79 1 -91 16 -12 48 -8 67 9 5 5 -1 9 -16 9 l-26 0 17 78 c13 61 20 78 36
80 29 6 42 22 17 22 -18 0 -22 7 -25 36 l-3 35 -40 -41z"/>
<path d="M4852 3188 c-15 -15 -15 -45 -1 -54 6 -3 18 0 26 9 14 13 14 18 1 36
-11 16 -17 18 -26 9z"/>
<path d="M107 3183 c-12 -12 -7 -41 7 -46 22 -9 41 19 26 38 -14 16 -23 19
-33 8z"/>
<path d="M1840 3169 c-56 -22 -91 -77 -92 -142 -1 -67 53 -94 102 -52 12 11
19 10 37 -5 13 -10 32 -16 43 -13 23 6 27 23 5 23 -8 0 -15 8 -15 18 0 10 7
44 15 75 20 79 20 83 -16 96 -38 13 -46 13 -79 0z m64 -27 c2 -4 0 -29 -5 -54
-18 -82 -86 -128 -110 -74 -9 18 -7 32 11 67 12 24 27 50 32 57 11 13 64 17
72 4z"/>
<path d="M2109 3140 l-38 -39 6 36 c5 32 4 35 -11 30 -10 -4 -26 -7 -37 -7
-10 0 -19 -4 -19 -10 0 -5 7 -10 15 -10 11 0 14 -7 10 -22 -29 -128 -33 -158
-16 -158 10 1 31 31 56 82 39 78 66 110 81 95 4 -4 0 -43 -10 -88 -10 -45 -16
-82 -14 -84 14 -12 47 -13 64 0 19 14 18 14 -3 15 -13 0 -23 1 -23 3 0 1 9 36
20 77 24 91 24 85 4 104 -24 25 -44 19 -85 -24z"/>
<path d="M3224 3144 l-34 -35 0 28 c0 27 -2 29 -35 25 -35 -4 -50 -22 -19 -22
12 0 15 -6 11 -22 -17 -70 -29 -149 -24 -155 12 -11 37 7 37 27 0 30 37 104
66 131 47 44 53 -5 18 -138 -4 -16 -2 -23 8 -23 8 0 32 36 53 81 22 45 48 85
57 90 33 18 33 23 12 -127 -7 -45 5 -57 45 -47 24 6 28 23 6 23 -19 0 -19 3 2
96 16 74 16 77 -2 90 -29 21 -45 17 -81 -23 l-34 -37 0 31 c0 29 -14 43 -42
43 -6 0 -26 -16 -44 -36z"/>
<path d="M3013 3163 c-33 -4 -47 -23 -18 -23 18 0 18 0 0 -75 -8 -33 -14 -70
-15 -82 0 -26 34 -40 56 -23 12 11 12 14 0 24 -12 9 -12 21 4 81 21 76 24 106
13 103 -5 0 -23 -3 -40 -5z"/>
<path d="M3643 3163 c-28 -5 -28 -7 -4 -41 11 -15 25 -62 32 -104 13 -76 12
-78 -11 -103 -27 -29 -40 -32 -40 -9 0 23 -24 11 -28 -14 -3 -18 2 -22 25 -22
15 0 33 4 39 8 18 11 164 258 164 276 0 12 -7 14 -32 9 -43 -8 -47 -12 -20
-20 22 -5 22 -5 -9 -62 -18 -31 -35 -60 -39 -64 -4 -5 -14 26 -22 69 -14 80
-17 84 -55 77z"/>
<path d="M4213 3163 c-33 -4 -47 -23 -18 -23 19 0 19 -11 0 -80 -8 -30 -15
-65 -15 -77 0 -26 34 -40 56 -22 13 11 13 14 1 21 -13 7 -12 20 8 98 15 60 19
89 11 88 -6 0 -26 -3 -43 -5z"/>
<path d="M3860 3075 c0 -11 13 -15 54 -15 39 0 55 4 60 15 4 12 -5 15 -54 15
-47 0 -60 -3 -60 -15z"/>
<path d="M74 3044 c-9 -34 10 -54 32 -32 13 13 14 19 2 37 -17 28 -26 27 -34
-5z"/>
<path d="M4874 3035 c-10 -24 12 -42 34 -29 24 16 21 38 -6 42 -13 2 -25 -3
-28 -13z"/>
<path d="M4900 2914 c-11 -12 -10 -18 3 -32 16 -15 18 -15 34 0 13 14 14 20 3
32 -7 9 -16 16 -20 16 -4 0 -13 -7 -20 -16z"/>
<path d="M47 2913 c-23 -22 14 -53 39 -32 11 9 11 15 3 25 -12 15 -31 18 -42
7z"/>
<path d="M30 2775 c-10 -12 -10 -18 0 -31 12 -13 15 -13 28 0 15 15 10 46 -6
46 -5 0 -15 -7 -22 -15z"/>
<path d="M4922 2777 c-9 -10 -8 -18 3 -33 13 -16 16 -17 25 -4 21 31 -5 65
-28 37z"/>
<path d="M2896 2755 c-10 -27 -7 -35 15 -35 15 0 20 5 17 22 -4 27 -23 35 -32
13z"/>
<path d="M2595 2740 c-3 -5 1 -10 9 -10 21 0 20 -29 -5 -149 -19 -86 -25 -101
-48 -112 -25 -13 -24 -14 31 -17 64 -3 111 13 71 24 -26 7 -28 21 -12 77 9 32
14 37 39 37 22 0 28 -4 24 -15 -4 -9 0 -15 9 -15 9 0 17 14 21 38 4 20 9 45
12 55 8 27 -15 20 -26 -8 -7 -18 -17 -25 -35 -25 -28 0 -30 8 -14 63 10 36 11
37 59 37 45 0 50 -3 56 -25 3 -14 10 -25 15 -25 10 0 14 8 23 53 l6 27 -114 0
c-66 0 -117 -4 -121 -10z"/>
<path d="M3685 2740 c-3 -5 1 -10 9 -10 26 0 27 -16 5 -122 -17 -78 -28 -108
-45 -125 l-24 -22 33 -6 c47 -9 90 -3 95 14 3 8 0 11 -5 8 -5 -3 -15 -2 -22 3
-20 12 4 107 29 115 22 7 120 4 120 -4 -2 -39 -26 -97 -48 -117 l-27 -24 64 2
c41 2 66 8 69 16 2 6 -3 12 -12 12 -20 0 -20 8 4 124 16 79 25 101 47 121 l28
24 -62 1 c-34 0 -65 -4 -68 -10 -3 -5 1 -10 9 -10 19 0 22 -44 6 -84 -9 -24
-14 -26 -75 -26 -71 0 -72 1 -55 62 6 22 19 39 30 43 11 4 20 11 20 16 0 12
-117 12 -125 -1z"/>
<path d="M3428 2679 c-42 -44 -45 -49 -22 -49 10 0 14 -6 10 -17 -16 -60 -28
-134 -22 -148 7 -20 67 -17 74 4 3 9 -2 11 -17 6 -25 -8 -26 -4 -5 85 13 60
18 69 42 75 l27 7 -23 11 c-19 8 -23 17 -20 39 6 36 1 35 -44 -13z"/>
<path d="M3235 2661 c-58 -25 -56 -74 2 -112 51 -32 56 -65 12 -74 -27 -6 -36
-3 -50 14 -14 18 -18 18 -23 5 -10 -27 -7 -34 19 -44 37 -14 95 1 118 32 26
34 16 62 -33 89 -44 25 -56 45 -39 65 18 22 60 18 66 -6 3 -11 9 -20 13 -20 9
0 24 39 18 45 -9 10 -85 14 -103 6z"/>
<path d="M4069 2656 c-36 -21 -58 -58 -65 -109 -5 -37 -2 -48 19 -72 27 -32
74 -38 116 -15 55 29 80 134 44 179 -23 28 -80 36 -114 17z m77 -32 c15 -22
15 -32 5 -80 -15 -64 -46 -93 -80 -74 -28 14 -35 51 -21 97 27 84 64 107 96
57z"/>
<path d="M4613 2635 l-35 -35 4 30 c5 32 -4 36 -49 24 -26 -7 -31 -24 -8 -24
18 0 18 2 0 -80 -8 -36 -14 -73 -15 -82 0 -28 29 -21 41 10 47 124 77 165 104
142 15 -13 25 -3 25 27 0 34 -26 29 -67 -12z"/>
<path d="M20 2645 c-23 -28 21 -50 48 -23 9 9 7 14 -6 24 -22 17 -27 17 -42
-1z"/>
<path d="M2863 2653 c-25 -5 -32 -23 -9 -23 11 0 10 -15 -7 -81 -19 -78 -19
-83 -3 -95 19 -13 55 -6 54 11 0 6 -4 9 -9 8 -14 -4 -11 24 11 107 11 41 20
76 20 78 0 3 -29 0 -57 -5z"/>
<path d="M2990 2650 c-13 -9 -13 -11 -1 -19 12 -8 12 -20 2 -83 -16 -90 -16
-92 3 -96 10 -2 17 7 21 25 9 42 24 74 52 116 24 35 53 50 53 27 0 -19 17 -10
28 15 11 23 10 25 -15 25 -17 0 -40 -12 -60 -32 l-33 -32 6 32 c6 29 4 32 -17
32 -13 0 -31 -5 -39 -10z"/>
<path d="M4275 2650 c-27 -7 -28 -8 -9 -15 21 -6 21 -8 6 -79 -18 -86 -13
-106 27 -106 22 0 37 10 59 38 l30 37 -1 -35 c-2 -32 1 -35 27 -38 16 -2 33 1
39 7 8 8 5 11 -11 11 -12 0 -22 2 -22 4 0 7 30 138 36 159 4 12 0 17 -13 17
-14 0 -28 -18 -48 -59 -37 -79 -70 -119 -85 -105 -8 8 -5 33 8 92 21 91 23 89
-43 72z"/>
<path d="M4930 2644 c-11 -12 -10 -18 3 -32 16 -15 18 -15 34 0 13 14 14 20 3
32 -7 9 -16 16 -20 16 -4 0 -13 -7 -20 -16z"/>
<path d="M4935 2520 c-18 -19 -18 -22 -2 -37 16 -16 18 -16 33 -1 15 14 15 19
2 37 l-15 21 -18 -20z"/>
<path d="M4 2508 c-6 -10 20 -38 37 -38 10 0 20 30 13 41 -8 13 -41 11 -50 -3z"/>
<path d="M14 2377 c-3 -9 0 -26 7 -38 11 -22 12 -22 26 -3 7 10 12 25 11 34
-4 20 -37 25 -44 7z"/>
<path d="M4930 2375 c-23 -28 21 -50 48 -23 9 9 7 14 -6 24 -22 17 -27 17 -42
-1z"/>
<path d="M29 2244 c-15 -18 0 -38 27 -32 25 5 28 25 6 37 -15 8 -23 7 -33 -5z"/>
<path d="M4920 2245 c-15 -18 -5 -35 20 -35 10 0 22 5 25 10 7 11 -12 40 -25
40 -4 0 -13 -7 -20 -15z"/>
<path d="M4900 2114 c-11 -12 -10 -18 3 -32 16 -15 18 -15 34 0 13 14 14 20 3
32 -7 9 -16 16 -20 16 -4 0 -13 -7 -20 -16z"/>
<path d="M44 2109 c-3 -6 1 -18 10 -27 15 -15 17 -15 34 1 15 16 15 19 2 27
-20 13 -37 12 -46 -1z"/>
<path d="M70 1984 c-11 -12 -10 -18 3 -31 22 -23 52 0 36 28 -12 23 -22 24
-39 3z"/>
<path d="M4870 1980 c-13 -8 -13 -11 3 -27 16 -16 18 -16 33 -1 28 27 -1 50
-36 28z"/>
<path d="M97 1846 c-3 -8 3 -22 13 -31 17 -16 19 -15 30 4 6 12 8 26 5 31 -9
15 -42 12 -48 -4z"/>
<path d="M4844 1845 c-13 -32 23 -48 47 -19 10 13 10 17 -2 25 -21 13 -39 11
-45 -6z"/>
<path d="M740 1816 c0 -12 55 -87 99 -136 27 -30 19 -14 -25 45 -74 101 -74
101 -74 91z"/>
<path d="M140 1725 c-10 -12 -10 -18 0 -30 15 -18 20 -18 44 0 20 15 20 15 0
30 -24 18 -29 18 -44 0z"/>
<path d="M4803 1714 c-9 -24 11 -38 36 -25 25 14 27 27 5 35 -25 9 -34 7 -41
-10z"/>
<path d="M4762 1608 c-17 -17 -15 -35 4 -42 31 -12 47 21 21 43 -10 8 -17 7
-25 -1z"/>
<path d="M185 1600 c-7 -11 11 -40 24 -40 3 0 12 4 20 9 12 8 12 12 2 25 -15
18 -37 21 -46 6z"/>
<path d="M240 1475 c-9 -11 -9 -18 3 -35 14 -20 14 -20 32 0 15 16 15 22 5 35
-16 19 -24 19 -40 0z"/>
<path d="M4713 1483 c-17 -6 -16 -28 0 -42 10 -8 19 -7 32 3 16 12 17 16 6 30
-14 17 -18 18 -38 9z"/>
<path d="M303 1359 c-15 -15 -5 -39 16 -39 29 0 43 21 23 36 -21 17 -25 17
-39 3z"/>
<path d="M4650 1355 c-9 -11 -9 -19 3 -36 15 -21 15 -21 26 -1 11 21 6 52 -9
52 -4 0 -13 -7 -20 -15z"/>
<path d="M365 1240 c-8 -12 3 -50 14 -50 15 0 33 30 27 45 -6 17 -32 20 -41 5z"/>
<path d="M4581 1236 c-9 -10 -8 -16 3 -25 20 -17 60 7 44 26 -14 17 -33 17
-47 -1z"/>
<path d="M4510 1135 c-15 -18 -6 -45 14 -45 20 0 29 16 21 40 -8 24 -18 25
-35 5z"/>
<path d="M440 1124 c-11 -12 -11 -18 1 -30 13 -12 18 -12 34 0 16 12 17 16 6
30 -17 20 -25 20 -41 0z"/>
<path d="M4431 1021 c-8 -14 -7 -22 4 -31 22 -19 48 5 34 31 -5 10 -14 19 -19
19 -5 0 -14 -9 -19 -19z"/>
<path d="M515 1020 c-8 -12 3 -50 14 -50 15 0 33 30 27 45 -6 17 -32 20 -41 5z"/>
<path d="M602 919 c-15 -24 0 -51 24 -42 18 6 18 37 1 51 -10 8 -16 6 -25 -9z"/>
<path d="M4352 918 c-27 -27 -6 -56 28 -38 25 13 26 26 2 39 -13 7 -23 6 -30
-1z"/>
<path d="M690 814 c-11 -12 -11 -18 1 -30 13 -12 18 -12 34 0 16 12 17 16 6
30 -17 20 -25 20 -41 0z"/>
<path d="M4260 815 c-11 -13 -11 -19 3 -33 20 -19 41 -5 35 24 -4 24 -22 28
-38 9z"/>
<path d="M783 714 c-9 -24 11 -38 37 -24 17 9 19 14 9 26 -15 19 -38 18 -46
-2z"/>
<path d="M4167 723 c-25 -24 11 -49 40 -28 16 13 16 16 3 25 -17 11 -34 13
-43 3z"/>
<path d="M887 633 c-11 -10 -8 -41 4 -48 16 -10 40 27 27 42 -12 14 -21 16
-31 6z"/>
<path d="M4064 625 c-10 -24 12 -42 34 -29 24 16 21 38 -6 42 -13 2 -25 -3
-28 -13z"/>
<path d="M985 550 c-9 -15 4 -50 20 -50 20 0 30 40 14 51 -18 11 -26 11 -34
-1z"/>
<path d="M3962 548 c-13 -13 2 -38 23 -38 21 0 36 25 23 38 -7 7 -17 12 -23
12 -6 0 -16 -5 -23 -12z"/>
<path d="M1087 466 c-3 -8 1 -22 8 -33 13 -17 15 -17 31 -1 9 9 14 24 11 32
-8 20 -43 21 -50 2z"/>
<path d="M3855 470 c-8 -12 3 -50 14 -50 15 0 33 30 27 45 -6 17 -32 20 -41 5z"/>
<path d="M1204 396 c-3 -8 0 -24 6 -36 l12 -22 15 21 c12 17 12 25 3 36 -16
19 -29 19 -36 1z"/>
<path d="M3747 403 c-4 -3 -7 -15 -7 -25 0 -22 32 -24 49 -4 10 12 8 17 -8 25
-23 13 -26 13 -34 4z"/>
<path d="M1320 335 c-11 -13 -11 -19 3 -33 20 -19 41 -5 35 24 -4 24 -22 28
-38 9z"/>
<path d="M3624 325 c-13 -32 23 -48 47 -19 10 13 10 17 -2 25 -21 13 -39 11
-45 -6z"/>
<path d="M1442 278 c-16 -16 -15 -33 4 -49 14 -11 18 -10 30 6 18 25 18 32 -4
44 -13 7 -23 6 -30 -1z"/>
<path d="M3504 275 c-18 -13 -18 -15 -2 -31 18 -18 48 -13 48 9 0 26 -25 38
-46 22z"/>
<path d="M1567 233 c-11 -10 -8 -41 3 -48 19 -12 41 15 29 36 -10 20 -21 24
-32 12z"/>
<path d="M3387 223 c-23 -22 14 -53 39 -32 11 9 11 15 3 25 -12 15 -31 18 -42
7z"/>
<path d="M1692 178 c-27 -27 -3 -54 31 -36 22 11 22 25 -1 37 -13 7 -23 6 -30
-1z"/>
<path d="M3260 175 c-17 -21 6 -61 26 -44 18 15 18 45 0 52 -8 3 -20 0 -26 -8z"/>
<path d="M1822 148 c-16 -16 -15 -45 2 -51 23 -9 39 18 26 42 -13 25 -12 25
-28 9z"/>
<path d="M3132 136 c-9 -19 -8 -27 4 -37 21 -17 38 3 30 35 -8 33 -20 33 -34
2z"/>
<path d="M1946 109 c-14 -21 -14 -25 -1 -38 13 -14 17 -13 31 1 15 15 15 18 1
38 l-15 21 -16 -22z"/>
<path d="M3000 105 c-11 -13 -11 -19 3 -33 20 -19 41 -5 35 24 -4 24 -22 28
-38 9z"/>
<path d="M2870 80 c-13 -25 -5 -40 20 -40 10 0 22 4 25 10 7 12 -12 50 -25 50
-5 0 -14 -9 -20 -20z"/>
<path d="M2074 75 c-12 -29 15 -45 45 -26 12 8 12 12 2 25 -17 20 -40 21 -47
1z"/>
<path d="M2210 65 c-11 -13 -11 -19 2 -32 17 -16 38 -10 38 11 0 8 -6 19 -14
25 -10 9 -16 8 -26 -4z"/>
<path d="M2740 65 c-16 -19 -5 -47 17 -43 11 2 18 12 18 27 0 29 -17 37 -35
16z"/>
<path d="M2339 44 c-10 -13 -10 -17 2 -25 20 -13 35 -11 48 5 10 12 8 17 -8
25 -25 14 -26 14 -42 -5z"/>
<path d="M2472 48 c-8 -8 -8 -17 -1 -30 14 -26 39 -23 39 6 0 27 -22 40 -38
24z"/>
<path d="M2606 44 c-12 -31 21 -47 43 -21 8 10 7 17 -1 25 -17 17 -35 15 -42
-4z"/>
</g>
</svg>
