<?xml version="1.0" standalone="no"?>
<!DOCTYPE svg PUBLIC "-//W3C//DTD SVG 20010904//EN"
 "http://www.w3.org/TR/2001/REC-SVG-20010904/DTD/svg10.dtd">
<svg version="1.0" xmlns="http://www.w3.org/2000/svg"
 width="496.000000pt" height="500.000000pt" viewBox="0 0 496.000000 500.000000"
 preserveAspectRatio="xMidYMid meet">
<metadata>
Created by potrace 1.15, written by Peter Selinger 2001-2017
</metadata>
<g transform="translate(0.000000,500.000000) scale(0.100000,-0.100000)"
fill="#000000" stroke="none">
<path d="M2462 4979 c-12 -18 -11 -24 2 -37 14 -15 18 -15 31 -1 14 14 14 18
-2 38 l-18 22 -13 -22z"/>
<path d="M2330 4970 c-12 -23 -6 -40 15 -40 19 0 27 17 20 40 -8 26 -21 25
-35 0z"/>
<path d="M2597 4973 c-24 -23 12 -55 38 -33 12 10 13 16 4 26 -12 15 -31 18
-42 7z"/>
<path d="M2194 4955 c-12 -29 15 -45 45 -26 12 8 12 12 2 25 -17 20 -40 21
-47 1z"/>
<path d="M2730 4956 c-10 -13 -10 -19 0 -31 7 -8 16 -15 20 -15 15 0 20 34 7
47 -12 12 -16 12 -27 -1z"/>
<path d="M2064 4935 c-13 -32 23 -48 47 -19 10 13 10 17 -2 25 -21 13 -39 11
-45 -6z"/>
<path d="M2862 4937 c-16 -19 2 -40 27 -32 25 8 28 30 5 39 -21 8 -20 8 -32
-7z"/>
<path d="M1943 4923 c-17 -6 -16 -38 1 -52 21 -18 44 25 24 44 -7 7 -19 11
-25 8z"/>
<path d="M2990 4915 c-6 -8 -9 -19 -5 -25 9 -14 40 -13 54 3 8 11 5 16 -13 25
-19 8 -27 8 -36 -3z"/>
<path d="M1803 4874 c-3 -8 1 -22 9 -30 13 -13 16 -13 27 0 7 9 11 23 7 31 -7
20 -35 19 -43 -1z"/>
<path d="M3114 4875 c-4 -9 -2 -21 4 -27 15 -15 44 -1 40 19 -4 23 -36 29 -44
8z"/>
<path d="M3252 4858 c-19 -19 -14 -48 7 -48 27 0 35 16 18 40 -10 15 -16 17
-25 8z"/>
<path d="M1675 4840 c-17 -27 33 -42 54 -16 9 11 8 15 -5 20 -23 9 -42 7 -49
-4z"/>
<path d="M1554 4795 c-12 -29 15 -45 45 -26 12 8 12 12 2 25 -17 20 -40 21
-47 1z"/>
<path d="M3370 4795 c-6 -8 -9 -19 -5 -25 9 -15 41 -12 54 4 10 12 8 17 -8 25
-25 14 -26 14 -41 -4z"/>
<path d="M1434 4744 c-8 -32 14 -50 34 -30 11 11 11 18 3 35 -16 28 -29 26
-37 -5z"/>
<path d="M3490 4745 c-15 -18 -5 -35 20 -35 10 0 22 5 25 10 7 11 -12 40 -25
40 -4 0 -13 -7 -20 -15z"/>
<path d="M1323 4693 c-16 -6 -17 -29 -3 -38 13 -8 50 3 50 15 0 13 -32 28 -47
23z"/>
<path d="M3610 4685 c-6 -8 -9 -19 -5 -25 9 -14 40 -13 54 3 8 11 5 16 -13 25
-19 8 -27 8 -36 -3z"/>
<path d="M3725 4619 c-10 -30 11 -48 32 -27 13 14 14 20 3 32 -17 22 -27 20
-35 -5z"/>
<path d="M1197 4616 c-3 -8 1 -22 8 -33 13 -17 14 -17 29 2 10 14 11 24 4 32
-14 17 -35 16 -41 -1z"/>
<path d="M1091 4556 c-16 -19 -7 -46 14 -46 22 0 30 29 13 46 -13 13 -16 13
-27 0z"/>
<path d="M3834 4546 c-3 -8 0 -24 6 -36 11 -21 12 -21 25 -3 19 24 18 40 -1
47 -22 8 -24 8 -30 -8z"/>
<path d="M2042 4480 c-41 -9 -53 -20 -24 -20 12 0 22 -2 22 -4 0 -3 -11 -56
-25 -120 -30 -138 -31 -159 -9 -154 11 2 21 21 29 51 13 51 62 120 89 125 21
4 21 -28 1 -94 -8 -27 -15 -54 -15 -61 0 -21 33 -32 60 -20 24 9 24 10 4 16
l-21 6 20 84 c19 81 19 85 1 98 -29 21 -44 16 -85 -29 l-38 -42 14 64 c8 36
17 75 20 88 6 24 6 24 -43 12z"/>
<path d="M981 4466 c-18 -21 11 -41 39 -26 17 9 19 14 9 26 -15 18 -33 18 -48
0z"/>
<path d="M1712 4438 c-6 -23 -9 -45 -6 -48 3 -3 18 10 32 28 19 22 36 32 55
32 33 0 34 -9 4 -140 -18 -78 -26 -97 -44 -105 -38 -16 -26 -25 35 -25 64 0
99 13 63 25 -11 3 -21 14 -21 24 0 33 39 204 48 213 5 5 22 8 38 6 21 -2 29
-9 30 -23 1 -11 2 -24 3 -29 3 -24 31 21 31 50 l0 34 -129 0 -129 0 -10 -42z"/>
<path d="M3947 4473 c-24 -23 12 -55 38 -33 12 10 13 16 4 26 -12 15 -31 18
-42 7z"/>
<path d="M2758 4413 c-41 -42 -46 -53 -24 -53 11 0 11 -10 0 -62 -24 -112 -14
-138 44 -117 27 10 29 29 2 22 -24 -6 -24 -2 -8 85 11 58 15 65 42 75 26 9 28
11 10 17 -12 4 -21 19 -24 39 l-5 32 -37 -38z"/>
<path d="M880 4385 c-9 -10 -8 -19 1 -36 11 -22 12 -22 25 -4 8 10 14 24 14
31 0 18 -27 25 -40 9z"/>
<path d="M2320 4382 c-99 -49 -108 -205 -13 -205 37 0 93 21 93 35 0 6 -8 7
-17 3 -10 -5 -32 -10 -50 -13 -24 -3 -34 1 -42 16 -16 31 -5 48 42 61 65 19
87 37 87 71 0 16 -3 31 -7 33 -27 15 -63 14 -93 -1z m60 -29 c0 -26 -12 -40
-43 -52 -53 -20 -58 -14 -27 37 22 36 70 46 70 15z"/>
<path d="M2531 4383 c-48 -25 -73 -63 -78 -120 -8 -74 27 -101 89 -69 23 12
29 12 39 0 13 -16 69 -19 69 -4 0 6 -7 10 -16 10 -12 0 -15 6 -11 23 22 91 30
148 22 156 -21 20 -80 22 -114 4z m72 -50 c-2 -53 -27 -101 -60 -116 -21 -9
-27 -8 -38 7 -11 15 -10 27 6 74 21 61 42 84 74 80 17 -3 20 -10 18 -45z"/>
<path d="M3153 4393 c-34 -7 -80 -55 -92 -97 -23 -85 21 -137 98 -116 21 5 45
18 52 27 12 15 12 16 -6 9 -11 -4 -37 -10 -57 -13 -33 -5 -38 -3 -43 20 -9 36
-2 44 61 64 41 12 59 24 65 41 9 24 -3 62 -21 62 -4 0 -14 2 -22 4 -7 2 -23 1
-35 -1z m38 -56 c-9 -24 -45 -47 -73 -47 -23 0 -22 8 2 45 33 50 89 52 71 2z"/>
<path d="M4053 4393 c-16 -6 -17 -29 -3 -38 13 -8 50 3 50 15 0 13 -32 28 -47
23z"/>
<path d="M2890 4380 c-31 -5 -33 -7 -17 -16 18 -10 18 -14 2 -93 -9 -46 -14
-85 -11 -88 12 -13 35 8 41 39 8 38 46 108 69 128 13 10 19 10 30 1 12 -10 17
-8 25 8 16 28 14 31 -18 31 -21 0 -37 -9 -56 -32 l-27 -33 5 28 c5 33 2 35
-43 27z"/>
<path d="M4145 4300 c-8 -24 1 -40 21 -40 20 0 29 27 14 45 -17 20 -27 19 -35
-5z"/>
<path d="M779 4294 c-10 -12 -9 -18 3 -31 19 -18 38 -10 38 17 0 24 -25 33
-41 14z"/>
<path d="M683 4194 c-3 -8 1 -22 9 -30 13 -13 16 -13 27 0 7 9 11 23 7 31 -7
20 -35 19 -43 -1z"/>
<path d="M4234 4199 c-3 -6 1 -18 10 -27 15 -15 17 -15 32 0 19 19 11 38 -16
38 -10 0 -22 -5 -26 -11z"/>
<path d="M4331 4116 c-16 -19 -7 -46 14 -46 22 0 30 29 13 46 -13 13 -16 13
-27 0z"/>
<path d="M603 4113 c-17 -6 -17 -38 0 -52 15 -12 37 3 37 25 0 16 -22 32 -37
27z"/>
<path d="M511 3996 c-18 -21 11 -41 39 -26 17 9 19 14 9 26 -15 18 -33 18 -48
0z"/>
<path d="M4407 3996 c-3 -8 0 -19 7 -25 18 -15 48 -3 44 18 -4 21 -44 27 -51
7z"/>
<path d="M1110 3980 c-43 -10 -80 -52 -80 -90 0 -29 47 -80 74 -80 24 0 66
-41 66 -64 0 -44 -63 -76 -113 -57 -21 8 -27 17 -27 42 0 46 -24 31 -28 -18
l-3 -41 57 -8 c102 -12 181 49 157 123 -7 20 -25 36 -66 56 -69 34 -85 58 -62
93 12 19 24 24 55 24 34 0 42 -4 55 -30 20 -40 32 -38 37 5 3 31 1 36 -19 40
-54 11 -70 12 -103 5z"/>
<path d="M1747 3963 c-8 -10 -19 -31 -22 -46 -5 -18 -17 -32 -34 -38 -25 -10
-25 -11 -6 -21 11 -6 21 -12 22 -13 5 -3 -39 -200 -48 -217 -12 -22 -39 -23
-39 -2 0 23 -24 11 -28 -13 -3 -23 29 -36 66 -26 32 8 49 47 72 160 20 97 29
113 63 113 10 0 15 5 12 10 -3 6 -15 10 -26 10 -23 0 -25 27 -3 58 18 26 39
28 53 5 9 -16 12 -16 21 -3 20 31 11 40 -38 40 -34 0 -54 -5 -65 -17z"/>
<path d="M1900 3960 c-11 -11 -22 -31 -26 -45 -3 -14 -18 -32 -33 -40 -14 -8
-21 -14 -16 -15 34 -2 35 -16 14 -121 -23 -114 -41 -147 -64 -115 -16 21 -35
14 -35 -14 0 -39 87 -32 109 9 6 10 20 66 31 122 19 102 28 119 63 119 10 0
15 5 12 10 -3 6 -15 10 -26 10 -23 0 -25 27 -3 58 18 26 39 28 53 5 7 -14 12
-15 22 -6 6 6 9 19 6 27 -9 24 -82 21 -107 -4z"/>
<path d="M3682 3940 c-16 -31 -18 -40 -7 -40 17 0 65 50 65 67 0 29 -37 11
-58 -27z"/>
<path d="M2656 3961 c-3 -5 3 -11 14 -14 11 -3 18 -11 15 -19 -3 -7 -18 -57
-35 -111 -19 -64 -38 -105 -52 -117 l-23 -19 52 -1 c28 0 55 5 58 10 3 6 -3
10 -14 10 -12 0 -21 5 -21 12 0 12 37 152 47 178 8 20 20 -34 28 -126 4 -39
11 -77 15 -85 14 -22 45 15 97 117 27 52 50 94 54 94 3 0 1 -37 -3 -82 -6 -63
-13 -87 -30 -105 l-21 -23 61 0 c35 0 62 4 62 10 0 6 -9 10 -19 10 -16 0 -18
6 -15 38 22 194 22 192 46 212 l23 19 -47 1 -47 0 -63 -117 -63 -118 -12 85
c-6 47 -12 100 -12 118 -1 31 -2 32 -45 32 -25 0 -47 -4 -50 -9z"/>
<path d="M2412 3926 c-6 -14 -23 -33 -38 -42 -23 -16 -24 -19 -10 -30 15 -10
15 -18 1 -85 -9 -40 -13 -79 -11 -86 6 -14 34 -17 60 -7 23 9 20 26 -4 19 -24
-8 -24 -3 -6 84 13 61 26 81 54 81 6 0 12 5 12 10 0 6 -10 10 -21 10 -19 0
-21 4 -16 35 7 40 -5 46 -21 11z"/>
<path d="M1317 3902 c-29 -29 -35 -41 -24 -45 13 -5 12 -15 -1 -81 -8 -41 -12
-82 -9 -90 8 -21 51 -20 68 0 12 15 11 16 -9 10 -26 -9 -27 0 -9 89 10 45 18
62 35 70 25 11 29 25 8 25 -9 0 -16 12 -18 31 l-3 30 -38 -39z"/>
<path d="M437 3893 c-12 -12 -7 -31 10 -37 9 -4 23 0 32 9 14 14 14 17 1 25
-18 11 -34 13 -43 3z"/>
<path d="M4483 3884 c-3 -8 1 -22 9 -30 13 -13 16 -13 27 0 7 9 11 23 7 31 -7
20 -35 19 -43 -1z"/>
<path d="M1478 3875 c-40 -22 -68 -75 -68 -128 0 -70 47 -101 92 -60 17 15 19
15 37 -1 22 -20 62 -18 69 3 3 10 0 12 -12 8 -21 -8 -21 9 1 97 16 66 16 69
-2 82 -24 18 -83 17 -117 -1z m87 -15 c12 -20 -24 -118 -51 -139 -34 -27 -40
-26 -59 3 -15 23 -15 28 9 75 14 27 34 54 43 60 23 13 50 14 58 1z"/>
<path d="M2164 3880 c-12 -5 -35 -25 -50 -46 -22 -29 -29 -48 -29 -84 0 -26 6
-54 14 -63 17 -22 59 -22 83 0 17 15 19 15 37 -1 22 -20 62 -18 69 2 3 9 -3
12 -14 10 -22 -4 -22 12 2 107 14 55 13 61 -3 72 -19 15 -77 16 -109 3z m76
-42 c-1 -43 -33 -114 -58 -127 -31 -16 -41 -14 -54 14 -9 20 -6 33 16 79 25
52 38 62 79 65 13 1 17 -7 17 -31z"/>
<path d="M3376 3854 l-33 -36 5 31 c4 29 2 31 -26 31 -33 0 -51 -15 -28 -23
11 -5 11 -19 -4 -91 -17 -83 -17 -86 1 -86 13 0 21 12 30 42 16 61 65 128 92
128 10 0 4 -86 -9 -142 -5 -20 -2 -28 8 -28 7 0 33 38 56 85 32 64 47 85 62
85 24 0 25 -13 5 -99 -9 -39 -12 -68 -7 -73 14 -14 65 -5 70 11 3 10 0 12 -13
7 -16 -6 -17 -2 -10 46 4 29 8 73 9 98 1 41 -1 45 -25 48 -19 2 -34 -6 -58
-33 l-31 -36 0 30 c0 28 -14 41 -46 41 -8 0 -30 -16 -48 -36z"/>
<path d="M3790 3870 c-32 -32 -26 -67 15 -91 39 -23 62 -56 48 -69 -18 -18
-59 -21 -72 -6 -19 23 -33 20 -29 -6 2 -19 10 -24 42 -26 108 -9 145 75 55
126 -30 18 -39 29 -37 45 5 33 63 37 72 5 l7 -23 11 23 c9 19 9 25 -3 33 -26
16 -88 10 -109 -11z"/>
<path d="M3035 3871 c-20 -8 -20 -8 2 -15 20 -7 21 -8 7 -64 -7 -31 -13 -70
-14 -85 0 -54 59 -48 102 10 l28 36 -3 -39 c-2 -35 1 -39 24 -42 15 -2 31 4
40 14 13 16 12 17 -8 12 -28 -7 -28 -2 -4 92 19 72 19 90 1 90 -5 0 -28 -36
-52 -81 -69 -130 -99 -128 -68 4 l17 77 -26 -1 c-14 0 -35 -4 -46 -8z"/>
<path d="M364 3775 c-4 -9 -2 -21 4 -27 15 -15 44 -1 40 19 -4 23 -36 29 -44
8z"/>
<path d="M4557 3776 c-3 -8 1 -20 9 -27 12 -10 18 -9 31 3 8 9 12 21 9 27 -10
16 -43 14 -49 -3z"/>
<path d="M4625 3670 c-7 -23 1 -40 20 -40 21 0 27 17 15 40 -14 25 -27 26 -35
0z"/>
<path d="M300 3665 c-15 -18 -5 -35 20 -35 10 0 22 5 25 10 7 11 -12 40 -25
40 -4 0 -13 -7 -20 -15z"/>
<path d="M239 3549 c-9 -17 -8 -24 4 -36 12 -13 16 -12 30 2 14 13 14 20 4 35
-15 25 -24 25 -38 -1z"/>
<path d="M4683 3544 c-3 -8 1 -22 8 -29 12 -12 17 -12 33 1 20 14 20 14 0 29
-25 19 -33 19 -41 -1z"/>
<path d="M2015 3467 c-39 -13 -42 -16 -26 -26 11 -7 9 -31 -13 -131 -31 -145
-31 -140 -8 -140 14 0 22 13 31 51 9 35 26 63 55 92 l41 42 3 -32 c2 -17 -4
-55 -12 -84 -14 -46 -14 -55 -2 -67 9 -9 24 -12 40 -8 29 7 36 26 10 26 -12 0
-15 6 -12 23 3 12 11 51 19 86 13 59 12 64 -6 77 -28 20 -34 18 -77 -26 -21
-23 -38 -38 -38 -35 0 3 7 37 16 76 9 38 14 73 12 78 -2 4 -16 4 -33 -2z"/>
<path d="M2280 3466 c-10 -13 -10 -19 0 -32 12 -14 15 -14 29 0 14 15 14 17 0
32 -14 14 -17 14 -29 0z"/>
<path d="M2925 3462 c-91 -43 -137 -150 -102 -235 18 -41 37 -57 83 -67 43
-10 129 12 138 35 7 18 7 18 -37 0 -52 -21 -84 -19 -112 10 -20 19 -25 34 -25
76 0 60 30 132 64 154 59 39 116 23 116 -31 0 -13 4 -24 10 -24 12 0 32 72 22
82 -4 4 -32 10 -62 13 -42 4 -65 1 -95 -13z"/>
<path d="M1408 3463 c-23 -6 -24 -23 -2 -23 12 0 15 -6 10 -22 -3 -13 -6 -26
-6 -30 0 -5 -15 -8 -33 -8 -69 0 -137 -65 -137 -132 0 -40 16 -76 39 -83 21
-6 60 9 74 29 5 7 14 3 26 -14 18 -22 21 -23 48 -10 27 13 27 14 5 18 -17 3
-21 8 -17 25 3 12 16 75 29 140 l23 117 -21 -1 c-11 -1 -29 -3 -38 -6z m-18
-108 c10 -12 10 -25 0 -62 -13 -56 -44 -93 -77 -93 -34 0 -39 38 -12 99 28 67
62 88 89 56z"/>
<path d="M2388 3463 c-22 -6 -24 -23 -2 -23 10 0 14 -6 10 -17 -16 -57 -47
-237 -42 -249 7 -19 50 -18 66 1 10 13 9 15 -9 15 -26 0 -26 -13 7 148 28 131
28 132 8 131 -12 -1 -29 -3 -38 -6z"/>
<path d="M3538 3463 c-22 -5 -24 -23 -3 -23 19 0 20 11 -10 -126 -30 -139 -30
-144 -5 -144 14 0 20 7 20 23 1 47 70 157 100 157 15 0 12 -48 -6 -110 -14
-47 -14 -54 -1 -68 10 -9 24 -12 41 -8 28 7 36 26 11 26 -19 0 -19 9 2 99 16
70 16 74 0 86 -26 18 -53 8 -87 -34 -34 -40 -36 -32 -15 54 8 33 15 63 15 68
0 7 -33 8 -62 0z"/>
<path d="M450 3450 c0 -5 9 -10 20 -10 25 0 25 1 -1 -118 -24 -109 -33 -132
-54 -132 -8 0 -15 -4 -15 -10 0 -6 28 -10 65 -10 37 0 65 4 65 10 0 6 -6 10
-14 10 -24 0 -27 15 -14 69 l11 51 70 0 69 0 -7 -32 c-12 -54 -24 -78 -42 -85
-15 -6 -15 -7 3 -14 28 -11 102 -11 109 1 3 6 -3 10 -14 10 -26 0 -26 1 1 133
18 95 24 110 45 118 38 14 27 19 -44 19 -63 0 -65 -1 -50 -18 18 -19 21 -42
11 -79 -6 -21 -12 -23 -75 -23 -38 0 -69 3 -69 6 0 3 5 25 11 50 8 32 16 44
30 44 11 0 19 5 19 10 0 6 -28 10 -65 10 -37 0 -65 -4 -65 -10z"/>
<path d="M3422 3415 c-7 -14 -23 -30 -37 -37 -28 -13 -33 -28 -9 -28 9 0 14
-6 11 -12 -2 -7 -10 -46 -17 -86 -12 -63 -11 -75 1 -83 20 -13 33 -11 55 7 19
15 18 15 -3 11 -27 -6 -28 1 -10 88 11 51 17 62 42 75 29 14 29 15 6 18 -21 3
-23 8 -18 38 7 40 -5 45 -21 9z"/>
<path d="M4040 3416 c-8 -15 -28 -35 -44 -43 -29 -15 -30 -16 -9 -24 20 -7 20
-9 7 -71 -18 -87 -18 -106 6 -113 21 -7 60 10 60 26 0 6 -7 6 -20 -1 -27 -15
-27 -4 5 138 4 15 13 22 30 22 14 0 25 5 25 10 0 6 -9 10 -19 10 -16 0 -20 8
-23 37 l-3 37 -15 -28z"/>
<path d="M184 3419 c-3 -6 0 -17 8 -25 12 -12 17 -12 32 -1 11 8 16 19 12 25
-9 15 -43 15 -52 1z"/>
<path d="M4734 3419 c-3 -6 1 -18 10 -27 15 -15 17 -15 32 0 19 19 11 38 -16
38 -10 0 -22 -5 -26 -11z"/>
<path d="M860 3372 c-48 -24 -80 -75 -80 -128 0 -47 17 -70 56 -80 28 -7 95
15 101 33 3 8 -9 7 -36 -4 -38 -15 -42 -15 -61 2 -36 33 -25 50 48 77 65 24
67 26 70 61 3 32 0 38 -23 47 -34 13 -34 13 -75 -8z m60 -30 c0 -26 -21 -48
-57 -60 -40 -13 -42 -3 -13 46 23 37 70 46 70 14z"/>
<path d="M1085 3378 c-41 -14 -65 -37 -81 -75 -20 -47 -18 -99 6 -123 25 -25
41 -25 71 -1 23 18 24 18 50 -1 23 -17 30 -18 50 -7 l24 14 -22 3 c-27 4 -27
8 -8 87 21 84 19 92 -16 104 -37 13 -35 13 -74 -1z m60 -18 c10 -17 -15 -107
-37 -135 -25 -31 -61 -33 -75 -2 -25 54 82 185 112 137z"/>
<path d="M2550 3368 c-78 -40 -108 -145 -54 -187 32 -25 64 -27 104 -6 42 22
37 37 -5 19 -39 -16 -68 -8 -79 22 -9 24 9 38 72 59 29 9 57 25 63 36 14 27 2
58 -28 70 -30 11 -21 13 -73 -13z m60 -26 c0 -26 -21 -48 -57 -60 -40 -13 -42
-4 -12 44 23 38 69 49 69 16z"/>
<path d="M3200 3384 c-59 -20 -110 -83 -110 -137 0 -69 44 -104 93 -73 23 15
27 15 55 -1 30 -17 32 -17 49 0 16 16 16 17 -5 17 -26 0 -26 -3 -2 90 15 59
17 78 7 86 -15 14 -66 25 -87 18z m45 -25 c13 -20 -6 -99 -31 -129 -32 -37
-71 -41 -80 -6 -14 59 84 179 111 135z"/>
<path d="M3830 3368 c-76 -40 -105 -134 -55 -183 30 -31 68 -32 114 -4 42 26
35 34 -13 14 -47 -20 -79 -6 -74 32 2 22 12 29 58 45 79 26 99 59 60 98 -25
25 -36 25 -90 -2z m60 -32 c0 -28 -17 -44 -59 -56 -37 -10 -38 -3 -10 44 26
44 69 51 69 12z"/>
<path d="M4193 3370 c-75 -34 -108 -136 -58 -185 28 -29 63 -32 105 -10 42 22
37 37 -5 19 -46 -19 -78 -5 -73 33 2 21 13 29 63 47 47 17 62 27 69 49 18 52
-36 77 -101 47z m57 -34 c0 -28 -17 -44 -59 -56 -37 -10 -39 -1 -10 46 26 42
69 48 69 10z"/>
<path d="M1638 3373 c-28 -4 -40 -23 -14 -23 16 0 23 -22 32 -113 8 -78 23
-85 61 -27 52 82 50 81 59 20 14 -85 32 -78 98 39 31 54 56 101 56 103 0 2
-16 2 -35 0 -34 -4 -50 -22 -20 -22 11 0 7 -15 -17 -65 -36 -73 -40 -70 -52
28 -6 47 -11 57 -27 57 -13 0 -19 -7 -19 -22 0 -13 -13 -45 -29 -72 -32 -55
-35 -52 -46 47 -3 31 -9 56 -13 56 -4 -1 -19 -4 -34 -6z"/>
<path d="M2258 3372 c-36 -3 -55 -22 -22 -22 10 0 14 -6 10 -17 -28 -99 -35
-147 -25 -159 15 -18 43 -18 59 1 10 12 10 15 -4 15 -20 0 -20 5 5 102 11 44
19 81 17 82 -2 0 -20 0 -40 -2z"/>
<path d="M4378 3372 c-29 -3 -37 -17 -16 -24 9 -3 9 -22 -1 -79 -8 -41 -16
-80 -18 -86 -3 -8 3 -13 15 -13 15 0 22 9 27 33 9 41 37 96 65 125 18 19 24
21 37 11 12 -10 16 -10 24 2 33 52 -27 54 -71 2 l-32 -38 7 32 c7 35 2 40 -37
35z"/>
<path d="M142 3303 c-18 -34 9 -58 36 -31 7 7 8 17 1 30 -12 23 -26 23 -37 1z"/>
<path d="M4787 3303 c-11 -10 -8 -41 5 -49 17 -11 40 26 27 43 -13 14 -22 16
-32 6z"/>
<path d="M4821 3172 c-8 -15 -7 -23 5 -33 18 -15 38 0 32 27 -5 25 -25 28 -37
6z"/>
<path d="M101 3166 c-18 -21 11 -41 38 -26 25 13 27 26 5 34 -23 9 -30 8 -43
-8z"/>
<path d="M1406 3022 c-175 -289 -242 -596 -215 -993 11 -165 10 -213 -6 -420
-19 -251 -16 -396 10 -509 17 -72 15 -66 78 -235 24 -66 73 -206 107 -310 34
-105 68 -199 76 -210 22 -29 17 -11 -28 119 -37 109 -42 133 -46 241 -6 155
-10 151 135 135 259 -28 652 -135 847 -231 112 -56 216 -134 239 -181 10 -20
29 -94 43 -165 15 -70 31 -134 37 -141 22 -28 26 8 12 130 -22 201 -11 229
164 392 226 210 469 341 740 397 51 10 120 19 152 19 51 0 63 -4 93 -30 23
-21 36 -43 41 -69 6 -38 -29 -353 -42 -375 -4 -6 1 -5 10 2 9 8 23 48 33 90 9
42 28 120 41 172 40 150 36 228 -31 588 -31 166 -56 316 -56 332 0 17 9 72 20
123 54 256 54 582 -1 796 -23 88 -98 224 -172 309 -50 58 -67 72 -67 54 0 -4
25 -37 55 -72 141 -166 198 -385 198 -755 -1 -150 -4 -181 -26 -267 -44 -167
-126 -308 -219 -375 -79 -56 -371 -201 -478 -237 -172 -57 -558 -116 -763
-116 -344 0 -651 133 -913 396 -90 90 -107 112 -153 205 -73 148 -102 270
-108 444 -5 125 -2 152 21 255 38 170 70 259 147 413 38 75 67 137 65 137 -3
0 -21 -26 -40 -58z m-121 -1209 c25 -49 67 -118 94 -154 53 -72 222 -214 333
-281 83 -49 259 -121 360 -147 242 -62 588 -53 908 24 328 80 637 245 777 418
31 37 50 34 62 -10 59 -220 114 -591 94 -635 -10 -22 -11 -21 -37 20 -17 28
-33 42 -47 42 -46 0 -239 -32 -332 -56 -254 -63 -549 -225 -706 -389 -102
-105 -180 -122 -286 -60 -115 67 -175 95 -252 121 -117 38 -298 82 -390 94
-45 6 -162 29 -260 50 -98 22 -190 40 -205 40 -29 0 -48 -23 -48 -59 0 -14 -6
-21 -20 -21 -21 0 -20 -3 -64 175 -44 177 -49 230 -41 505 4 140 6 290 5 333
0 42 1 77 4 77 3 0 26 -39 51 -87z"/>
<path d="M3727 1488 l-37 -33 16 -60 c9 -32 14 -72 12 -87 -3 -15 -2 -28 2
-28 15 0 80 78 79 95 0 16 -3 14 -10 -7 -6 -14 -17 -29 -26 -32 -19 -8 -20 -8
-28 27 -6 21 -4 27 9 27 9 0 16 8 16 20 0 11 -4 20 -10 20 -5 0 -10 -5 -10
-11 0 -5 -4 -7 -10 -4 -15 9 -12 51 5 65 12 10 18 10 30 0 16 -13 18 -6 7 23
-7 16 -11 14 -45 -15z"/>
<path d="M1298 1417 c24 -25 26 -48 15 -160 -5 -60 -8 -67 -24 -62 -42 14 -15
-13 38 -38 57 -27 82 -28 48 -3 -13 9 -19 26 -19 49 0 47 6 51 49 37 20 -7 47
-9 61 -6 20 5 24 13 24 42 0 19 -5 44 -10 55 -9 16 -176 109 -197 109 -3 0 3
-10 15 -23z m120 -67 c43 -41 17 -105 -33 -82 -21 10 -25 18 -25 57 0 37 3 45
18 45 10 0 28 -9 40 -20z"/>
<path d="M3627 1409 c-11 -6 -25 -27 -33 -46 -18 -42 -8 -60 42 -69 38 -7 42
-19 18 -52 -13 -18 -19 -21 -30 -11 -19 15 -25 9 -18 -19 6 -20 8 -20 34 -7
32 17 55 65 46 99 -5 19 -14 25 -39 28 -27 2 -32 7 -32 28 0 19 5 25 23 24 15
0 22 5 22 18 0 20 -7 22 -33 7z"/>
<path d="M3480 1306 c-5 -15 -10 -44 -11 -64 0 -20 -4 -59 -9 -87 -9 -57 -7
-63 15 -45 11 9 12 16 4 26 -15 19 -3 49 26 62 24 11 25 10 25 -18 0 -33 7
-37 35 -17 17 13 17 16 -9 53 -14 21 -26 42 -26 46 0 4 -9 22 -20 40 l-19 32
-11 -28z m24 -52 c10 -26 7 -42 -9 -48 -12 -4 -15 3 -15 29 0 36 13 47 24 19z"/>
<path d="M1550 1312 c0 -5 7 -12 15 -16 12 -4 15 -25 15 -95 0 -100 -5 -121
-28 -121 -11 0 -13 -3 -5 -11 14 -14 103 -40 103 -29 0 4 -5 10 -10 12 -15 5
-23 70 -11 88 9 13 12 13 24 0 8 -8 22 -37 32 -65 23 -64 32 -75 63 -75 24 0
24 1 8 19 -10 11 -24 40 -32 66 -13 46 -13 48 11 77 14 16 25 33 25 37 0 23
-39 53 -106 81 -106 44 -104 43 -104 32z m124 -63 c35 -27 35 -66 0 -75 -38
-10 -58 15 -50 60 8 42 14 43 50 15z"/>
<path d="M3327 1248 c-36 -16 -46 -25 -41 -37 15 -37 25 -99 22 -138 -4 -48 1
-49 75 -11 43 22 53 39 38 65 -10 17 -10 17 -11 -3 0 -24 -29 -54 -53 -54 -13
0 -17 9 -17 36 0 28 3 35 15 30 11 -4 15 2 15 26 0 30 -1 30 -19 14 -18 -16
-19 -16 -25 9 -11 44 31 74 62 43 9 -9 12 -6 12 15 0 32 -10 33 -73 5z"/>
<path d="M1810 1221 c0 -7 7 -14 15 -17 12 -5 15 -26 15 -105 0 -81 -3 -99
-15 -99 -8 0 -15 -4 -15 -8 0 -11 60 -32 90 -32 23 0 23 0 5 20 -15 16 -20 42
-23 110 -4 86 -4 90 17 90 35 0 23 19 -20 30 -22 6 -47 14 -55 17 -8 3 -14 0
-14 -6z"/>
<path d="M1965 1174 c5 -10 26 -69 48 -131 50 -144 67 -153 103 -53 9 25 27
68 40 96 13 28 24 54 24 57 0 4 -13 7 -30 7 -31 0 -37 -9 -20 -26 10 -10 -22
-128 -40 -147 -4 -4 -17 27 -30 70 -12 43 -25 84 -27 91 -3 6 2 12 11 12 30 0
16 18 -20 24 -19 4 -43 10 -51 13 -13 5 -15 3 -8 -13z"/>
<path d="M3138 1183 c-22 -5 -22 -12 -3 -33 10 -11 16 -42 17 -97 l3 -80 58
19 c42 15 57 25 57 38 0 10 -4 22 -10 25 -5 3 -10 -3 -10 -13 0 -13 -10 -24
-29 -30 -27 -10 -29 -8 -35 20 -3 17 -6 59 -6 94 0 65 -2 68 -42 57z"/>
<path d="M2958 1143 c-30 -5 -37 -17 -15 -26 19 -7 32 -164 16 -183 -10 -12
-6 -13 22 -8 44 9 44 9 31 39 -20 45 -15 62 23 75 28 9 36 18 41 46 10 53 1
64 -48 63 -24 -1 -55 -4 -70 -6z m86 -35 c8 -13 6 -22 -8 -37 -30 -33 -46 -26
-46 20 0 36 3 40 21 37 12 -2 27 -11 33 -20z"/>
<path d="M2235 1048 c-15 -46 -34 -92 -42 -103 -22 -33 -16 -45 25 -45 34 1
36 2 18 15 -16 12 -18 19 -8 40 14 31 53 34 82 5 24 -24 25 -39 3 -55 -14 -10
-8 -13 37 -19 57 -8 72 -2 47 17 -9 6 -34 59 -56 117 -52 139 -66 143 -106 28z
m71 -55 c-5 -5 -66 6 -66 12 0 1 7 20 16 41 l17 39 19 -44 c10 -24 16 -46 14
-48z"/>
<path d="M2773 1098 c3 -11 -1 -34 -9 -51 l-16 -30 -19 29 c-10 16 -16 37 -13
47 4 14 -1 17 -35 17 -40 0 -53 -11 -30 -26 6 -3 24 -27 40 -52 31 -49 39
-108 17 -130 -9 -9 -3 -12 30 -12 48 0 48 1 25 36 -15 24 -15 29 6 95 13 41
31 75 44 84 21 15 21 15 -12 15 -29 0 -33 -3 -28 -22z"/>
<path d="M2458 1080 c-28 -29 -30 -35 -26 -90 3 -49 10 -66 33 -90 16 -16 42
-32 59 -36 34 -6 86 9 86 26 0 6 -9 6 -26 0 -37 -14 -52 -12 -73 9 -44 44 -47
169 -5 185 36 14 64 6 76 -21 l12 -28 4 29 c5 36 -10 46 -66 46 -35 0 -49 -6
-74 -30z"/>
<path d="M4857 3053 c-11 -10 -8 -41 5 -49 17 -11 40 26 27 43 -13 14 -22 16
-32 6z"/>
<path d="M77 3043 c-11 -10 -8 -41 4 -48 16 -10 40 27 27 42 -12 14 -21 16
-31 6z"/>
<path d="M1546 2964 c-10 -26 -7 -34 14 -34 11 0 20 4 20 9 0 17 -12 41 -20
41 -4 0 -11 -7 -14 -16z"/>
<path d="M3530 2957 c-25 -7 -30 -11 -17 -15 14 -3 17 -10 13 -25 -3 -12 -6
-28 -6 -34 0 -8 -14 -13 -37 -13 -73 0 -133 -60 -133 -132 0 -70 58 -102 106
-57 l22 21 7 -21 c8 -25 60 -30 69 -6 4 10 -1 15 -15 15 -15 0 -18 5 -14 23
21 87 51 257 46 256 -3 0 -22 -6 -41 -12z m-28 -146 c-5 -80 -59 -142 -97
-111 -20 17 -19 39 4 93 21 49 44 68 76 64 17 -2 20 -8 17 -46z"/>
<path d="M1973 2953 c-20 -8 -15 -23 7 -23 25 0 25 -12 -2 -134 -18 -82 -26
-100 -45 -109 -39 -17 -26 -27 35 -27 65 0 80 7 54 26 -16 12 -16 18 5 121 19
92 27 111 50 130 l28 23 -60 -1 c-33 0 -66 -3 -72 -6z"/>
<path d="M3038 2889 c-42 -43 -45 -49 -25 -49 12 0 12 -11 1 -67 -21 -107 -20
-113 20 -113 19 0 39 7 47 17 13 15 11 16 -13 9 -35 -8 -35 -10 -3 131 3 12
17 26 32 31 l28 11 -23 7 c-19 5 -23 12 -20 35 3 16 2 29 -1 28 -3 0 -23 -18
-43 -40z"/>
<path d="M43 2904 c-3 -8 1 -22 9 -30 13 -13 16 -13 27 0 7 9 11 23 7 31 -7
20 -35 19 -43 -1z"/>
<path d="M4874 2905 c-13 -32 23 -48 47 -19 10 13 10 17 -2 25 -21 13 -39 11
-45 -6z"/>
<path d="M1656 2859 c-39 -31 -32 -66 22 -102 47 -32 55 -63 20 -76 -26 -10
-49 -4 -61 16 -12 19 -27 16 -27 -6 0 -26 12 -32 60 -33 82 -1 123 68 65 109
-67 47 -70 51 -59 70 16 26 50 28 64 4 14 -27 26 -27 33 0 4 15 -1 22 -19 30
-39 14 -69 11 -98 -12z"/>
<path d="M2245 2867 c-10 -5 -29 -22 -42 -36 l-24 -26 6 33 c7 34 -2 39 -53
26 -20 -6 -21 -8 -6 -18 15 -11 15 -19 -1 -95 -9 -45 -14 -85 -11 -88 13 -14
34 9 44 49 13 51 65 128 87 128 19 0 19 -38 1 -106 -7 -29 -10 -57 -6 -64 9
-15 62 -9 68 8 2 7 -2 10 -12 6 -21 -8 -20 9 0 91 9 36 14 71 11 78 -7 19 -40
27 -62 14z"/>
<path d="M2419 2865 c-15 -8 -30 -22 -33 -31 -8 -22 16 -58 53 -80 41 -24 47
-45 21 -66 -28 -23 -35 -23 -61 3 -16 16 -23 18 -29 9 -30 -49 81 -64 129 -18
38 35 28 58 -54 122 -25 21 -28 26 -16 40 19 23 62 21 68 -4 3 -11 9 -20 13
-20 10 0 24 39 17 47 -13 13 -84 12 -108 -2z"/>
<path d="M2651 2862 c-46 -23 -72 -61 -78 -113 -6 -56 17 -90 64 -91 36 -1 93
20 93 34 0 6 -8 7 -17 3 -10 -5 -32 -10 -50 -13 -24 -3 -34 1 -42 16 -11 21
-5 52 10 52 4 0 33 9 64 21 52 19 55 22 55 54 0 54 -39 68 -99 37z m56 -13
c16 -16 -3 -54 -34 -68 -26 -12 -53 -15 -53 -6 0 15 32 65 47 74 23 13 27 13
40 0z"/>
<path d="M2901 2844 l-41 -36 6 31 c6 27 4 31 -14 31 -27 0 -52 -10 -52 -21 0
-5 6 -9 14 -9 11 0 10 -15 -4 -86 -16 -75 -16 -86 -3 -91 17 -7 33 13 33 40 0
37 66 137 90 137 4 0 11 -6 13 -12 7 -17 28 11 24 31 -4 27 -26 22 -66 -15z"/>
<path d="M3212 2860 c-93 -57 -97 -200 -5 -202 36 -1 93 20 93 34 0 6 -8 7
-17 3 -10 -5 -32 -10 -50 -13 -25 -3 -34 1 -43 18 -17 32 -7 45 45 60 52 14
95 44 95 66 0 22 -37 54 -62 54 -13 0 -38 -9 -56 -20z m63 -11 c15 -23 -5 -58
-41 -69 -44 -15 -50 -10 -30 29 22 42 58 62 71 40z"/>
<path d="M1498 2863 c-22 -5 -24 -23 -3 -23 19 0 19 -11 0 -80 -8 -30 -15 -65
-15 -78 0 -21 4 -23 37 -20 35 3 61 28 29 28 -9 0 -16 8 -16 18 0 16 18 89 34
140 7 19 4 22 -21 21 -15 -1 -36 -3 -45 -6z"/>
<path d="M30 2780 c-14 -26 0 -46 24 -37 20 8 21 31 2 46 -12 10 -17 8 -26 -9z"/>
<path d="M4897 2783 c-24 -23 12 -55 38 -33 12 10 13 16 4 26 -12 15 -31 18
-42 7z"/>
<path d="M4910 2655 c-9 -11 -11 -22 -4 -32 13 -21 25 -21 38 -1 8 14 7 21 -5
33 -14 15 -17 15 -29 0z"/>
<path d="M21 2647 c-15 -19 -3 -49 18 -45 9 2 16 13 16 27 0 29 -17 37 -34 18z"/>
<path d="M4910 2515 c-11 -13 -11 -19 3 -33 20 -19 41 -5 35 24 -4 24 -22 28
-38 9z"/>
<path d="M4 2508 c-4 -6 1 -17 12 -25 15 -11 20 -11 32 1 8 8 11 19 8 25 -9
14 -43 14 -52 -1z"/>
<path d="M14 2375 c-3 -8 1 -24 9 -36 l15 -21 12 22 c6 12 9 28 6 36 -7 18
-35 18 -42 -1z"/>
<path d="M4904 2377 c-3 -9 0 -26 7 -38 11 -22 12 -22 26 -3 7 10 12 25 11 34
-4 20 -37 25 -44 7z"/>
<path d="M2655 2296 c-15 -22 -15 -29 -4 -42 27 -33 145 2 124 36 -5 7 -19 10
-38 6 -21 -4 -36 -1 -48 10 -16 14 -19 14 -34 -10z"/>
<path d="M4901 2256 c-17 -20 -6 -49 16 -44 22 4 26 20 10 42 -12 16 -14 16
-26 2z"/>
<path d="M30 2245 c-11 -13 -11 -19 4 -33 15 -15 18 -15 26 -2 22 33 -6 64
-30 35z"/>
<path d="M2704 2143 c13 -85 25 -228 33 -388 9 -202 21 -155 22 90 1 155 -10
264 -30 309 -18 38 -32 32 -25 -11z"/>
<path d="M45 2111 c-3 -6 -1 -20 6 -33 11 -21 12 -21 25 -3 8 11 13 24 11 30
-5 14 -34 18 -42 6z"/>
<path d="M4874 2109 c-3 -6 0 -17 8 -25 12 -12 17 -12 32 -1 11 8 16 19 12 25
-9 15 -43 15 -52 1z"/>
<path d="M65 1980 c-6 -10 11 -50 22 -50 12 0 31 34 26 47 -6 15 -39 17 -48 3z"/>
<path d="M4842 1977 c-16 -19 24 -43 43 -27 8 6 11 18 8 26 -6 18 -37 18 -51
1z"/>
<path d="M113 1863 c-18 -6 -16 -43 1 -43 20 0 46 11 46 19 0 11 -34 28 -47
24z"/>
<path d="M4820 1854 c-11 -12 -11 -18 2 -30 13 -13 19 -14 36 -3 20 12 20 15
5 31 -20 22 -27 22 -43 2z"/>
<path d="M141 1731 c-14 -26 12 -50 34 -31 11 9 12 16 2 31 -15 24 -24 24 -36
0z"/>
<path d="M4793 1733 c-7 -3 -13 -13 -13 -24 0 -23 32 -26 49 -5 10 12 9 17 -6
24 -10 5 -24 7 -30 5z"/>
<path d="M184 1599 c-3 -6 1 -18 10 -27 15 -15 17 -15 32 0 19 19 11 38 -16
38 -10 0 -22 -5 -26 -11z"/>
<path d="M4734 1599 c-3 -6 1 -18 10 -27 15 -15 17 -15 34 1 15 16 15 19 2 27
-20 13 -37 12 -46 -1z"/>
<path d="M4685 1479 c-10 -30 11 -48 32 -27 13 14 14 20 3 32 -17 22 -27 20
-35 -5z"/>
<path d="M243 1483 c-18 -7 -16 -28 3 -44 14 -11 18 -10 30 6 10 13 11 22 3
32 -12 14 -16 15 -36 6z"/>
<path d="M4625 1360 c-8 -24 1 -40 21 -40 20 0 29 27 14 45 -17 20 -27 19 -35
-5z"/>
<path d="M296 1353 c-11 -26 10 -38 41 -24 27 12 27 13 8 27 -25 19 -41 18
-49 -3z"/>
<path d="M4560 1244 c-11 -12 -11 -18 1 -30 13 -12 18 -12 34 0 16 12 17 16 6
30 -17 20 -25 20 -41 0z"/>
<path d="M360 1231 c0 -10 6 -24 14 -30 12 -10 17 -8 26 9 13 25 6 40 -21 40
-12 0 -19 -7 -19 -19z"/>
<path d="M4490 1141 c-10 -19 -9 -26 4 -40 15 -14 18 -14 26 -1 13 20 12 23
-4 45 -13 18 -14 18 -26 -4z"/>
<path d="M433 1124 c-3 -8 1 -22 9 -30 13 -13 16 -13 27 0 7 9 11 23 7 31 -7
20 -35 19 -43 -1z"/>
<path d="M522 1038 c-15 -15 -15 -45 -1 -54 6 -3 18 0 26 9 14 13 14 18 1 36
-11 16 -17 18 -26 9z"/>
<path d="M4412 1030 c-14 -23 -8 -40 13 -40 19 0 27 17 20 40 -8 25 -17 25
-33 0z"/>
<path d="M600 925 c-15 -18 -6 -45 14 -45 20 0 29 16 21 40 -8 24 -18 25 -35
5z"/>
<path d="M4324 919 c-3 -6 1 -18 9 -27 13 -13 19 -13 32 -2 12 10 13 16 4 26
-14 17 -35 18 -45 3z"/>
<path d="M4242 829 c-15 -24 0 -51 24 -42 18 6 18 37 1 51 -10 8 -16 6 -25 -9z"/>
<path d="M685 819 c-10 -30 11 -48 32 -27 13 14 14 20 3 32 -17 22 -27 20 -35
-5z"/>
<path d="M780 725 c-21 -25 2 -42 36 -26 26 11 26 12 8 26 -24 18 -29 18 -44
0z"/>
<path d="M4145 730 c-9 -15 4 -50 20 -50 16 0 29 35 20 50 -3 5 -12 10 -20 10
-8 0 -17 -5 -20 -10z"/>
<path d="M880 645 c-15 -18 -6 -45 14 -45 20 0 29 16 21 40 -8 24 -18 25 -35
5z"/>
<path d="M4044 635 c-4 -9 0 -24 10 -33 15 -15 18 -15 26 -2 6 8 9 22 7 30 -3
21 -36 25 -43 5z"/>
<path d="M3947 563 c-11 -11 -8 -40 6 -51 19 -16 43 24 26 44 -13 15 -22 18
-32 7z"/>
<path d="M977 554 c-7 -8 10 -44 21 -44 4 0 16 7 27 16 17 13 18 16 5 24 -17
11 -44 13 -53 4z"/>
<path d="M1090 475 c-15 -18 -5 -35 20 -35 10 0 22 5 25 10 7 11 -12 40 -25
40 -4 0 -13 -7 -20 -15z"/>
<path d="M3837 483 c-12 -11 -8 -40 7 -52 12 -10 17 -8 26 9 18 34 -8 68 -33
43z"/>
<path d="M3732 418 c-27 -27 -5 -72 23 -48 18 15 19 21 2 43 -10 14 -15 15
-25 5z"/>
<path d="M1199 404 c-10 -12 -9 -18 3 -30 13 -13 19 -14 37 -2 27 17 26 22 -3
36 -19 9 -27 8 -37 -4z"/>
<path d="M1315 340 c-8 -24 1 -40 21 -40 20 0 29 27 14 45 -17 20 -27 19 -35
-5z"/>
<path d="M3612 343 c-18 -35 12 -59 36 -30 7 8 7 17 -2 30 -16 21 -23 21 -34
0z"/>
<path d="M1433 281 c-9 -14 -9 -21 0 -30 27 -27 61 4 37 34 -16 20 -23 19 -37
-4z"/>
<path d="M3483 274 c-10 -26 12 -39 43 -25 21 9 24 14 14 26 -16 20 -49 19
-57 -1z"/>
<path d="M1554 225 c-12 -31 23 -48 45 -21 10 12 8 17 -8 25 -26 14 -31 14
-37 -4z"/>
<path d="M3371 231 c-16 -10 -8 -41 11 -41 7 0 19 4 27 9 12 8 12 12 2 25 -15
18 -21 19 -40 7z"/>
<path d="M1674 175 c-10 -24 12 -42 34 -29 24 16 21 38 -6 42 -13 2 -25 -3
-28 -13z"/>
<path d="M3240 173 c0 -10 5 -25 10 -33 9 -13 12 -12 25 5 19 24 15 39 -13 43
-16 2 -22 -2 -22 -15z"/>
<path d="M3121 151 c-16 -29 3 -58 25 -40 17 14 17 20 0 44 -13 18 -14 18 -25
-4z"/>
<path d="M1811 146 c-13 -16 -4 -46 13 -46 13 0 36 20 36 32 0 4 -9 12 -19 17
-14 8 -22 7 -30 -3z"/>
<path d="M1935 110 c-8 -12 3 -50 14 -50 5 0 14 7 21 15 10 12 10 18 0 30 -14
17 -26 19 -35 5z"/>
<path d="M2984 105 c-4 -9 0 -24 10 -33 15 -15 18 -15 26 -2 6 8 9 22 7 30 -3
21 -36 25 -43 5z"/>
<path d="M2072 98 c-21 -21 -15 -50 10 -46 27 4 32 18 16 41 -11 14 -16 15
-26 5z"/>
<path d="M2860 85 c-19 -22 5 -48 31 -34 10 5 19 14 19 19 0 5 -9 14 -19 19
-14 8 -22 7 -31 -4z"/>
<path d="M2194 65 c-12 -29 15 -45 45 -26 12 8 12 12 2 25 -17 20 -40 21 -47
1z"/>
<path d="M2593 61 c-9 -14 -9 -21 0 -30 27 -27 61 4 37 34 -16 20 -23 19 -37
-4z"/>
<path d="M2731 71 c-14 -9 -7 -51 8 -51 15 0 33 30 27 45 -6 17 -15 19 -35 6z"/>
<path d="M2331 56 c-10 -12 -10 -19 2 -36 12 -18 16 -18 26 -6 14 17 11 48 -5
53 -6 2 -17 -3 -23 -11z"/>
<path d="M2457 54 c-10 -10 12 -44 28 -44 9 0 15 10 15 25 0 18 -5 25 -18 25
-10 0 -22 -3 -25 -6z"/>
</g>
</svg>
