<?xml version="1.0" standalone="no"?>
<!DOCTYPE svg PUBLIC "-//W3C//DTD SVG 20010904//EN"
 "http://www.w3.org/TR/2001/REC-SVG-20010904/DTD/svg10.dtd">
<svg version="1.0" xmlns="http://www.w3.org/2000/svg"
 width="499.000000pt" height="500.000000pt" viewBox="0 0 499.000000 500.000000"
 preserveAspectRatio="xMidYMid meet">
<metadata>
Created by potrace 1.15, written by Peter Selinger 2001-2017
</metadata>
<g transform="translate(0.000000,500.000000) scale(0.100000,-0.100000)"
fill="#000000" stroke="none">
<path d="M2340 4974 c-11 -12 -11 -18 1 -30 13 -12 18 -12 34 0 16 12 17 16 6
30 -17 20 -25 20 -41 0z"/>
<path d="M2472 4978 c-8 -8 -9 -15 -1 -25 15 -17 34 -17 48 1 10 12 8 17 -8
25 -24 14 -24 14 -39 -1z"/>
<path d="M2606 4973 c-4 -9 -1 -23 7 -30 11 -11 16 -11 32 1 16 12 17 16 6 30
-17 21 -37 20 -45 -1z"/>
<path d="M2209 4964 c-15 -18 0 -38 27 -32 25 5 28 25 6 37 -15 8 -23 7 -33
-5z"/>
<path d="M2740 4965 c-23 -28 21 -50 48 -23 9 9 7 14 -6 24 -22 17 -27 17 -42
-1z"/>
<path d="M2872 4945 c-10 -21 -9 -27 4 -32 22 -8 37 11 29 36 -9 28 -19 27
-33 -4z"/>
<path d="M2074 4945 c-12 -29 15 -45 45 -26 12 8 12 12 2 25 -17 20 -40 21
-47 1z"/>
<path d="M1936 4914 c-9 -23 7 -37 34 -29 13 4 20 13 18 23 -4 23 -44 28 -52
6z"/>
<path d="M3000 4920 c-13 -8 -13 -11 1 -26 14 -13 20 -14 37 -3 16 10 18 16
10 26 -12 15 -27 16 -48 3z"/>
<path d="M1817 4893 c-24 -23 12 -55 38 -33 12 10 13 16 4 26 -12 15 -31 18
-42 7z"/>
<path d="M3131 4886 c-18 -22 11 -41 40 -25 22 11 22 12 4 25 -24 17 -30 17
-44 0z"/>
<path d="M1690 4855 c-12 -15 -7 -45 7 -45 21 1 35 19 28 39 -8 25 -18 27 -35
6z"/>
<path d="M3257 4846 c-3 -8 1 -20 9 -27 12 -10 18 -9 32 5 15 15 15 18 2 26
-21 14 -37 12 -43 -4z"/>
<path d="M3384 4804 c-9 -35 12 -56 31 -30 11 14 11 22 2 37 -16 26 -25 24
-33 -7z"/>
<path d="M1567 4813 c-11 -11 -8 -40 6 -51 19 -16 43 24 26 44 -13 15 -22 18
-32 7z"/>
<path d="M1434 4749 c-3 -6 0 -18 9 -26 12 -12 19 -13 36 -3 18 9 20 14 10 26
-14 17 -45 19 -55 3z"/>
<path d="M3503 4744 c-9 -24 11 -38 37 -24 17 9 19 14 9 26 -15 19 -38 18 -46
-2z"/>
<path d="M1314 4689 c-3 -6 0 -18 9 -26 12 -12 18 -13 35 -2 16 10 18 16 10
26 -13 16 -44 17 -54 2z"/>
<path d="M3625 4690 c-8 -13 3 -50 15 -50 13 0 32 39 25 50 -8 13 -32 13 -40
0z"/>
<path d="M1204 4625 c-12 -30 16 -45 46 -25 13 9 12 12 -4 25 -25 19 -35 19
-42 0z"/>
<path d="M3741 4626 c-10 -12 -10 -19 2 -36 12 -18 16 -18 26 -6 14 17 11 48
-5 53 -6 2 -17 -3 -23 -11z"/>
<path d="M3848 4553 c-10 -12 -9 -18 7 -29 20 -15 45 -3 45 21 0 19 -38 25
-52 8z"/>
<path d="M1086 4551 c-3 -4 2 -15 12 -24 15 -14 19 -14 37 -1 17 13 18 16 5
24 -19 12 -47 13 -54 1z"/>
<path d="M991 4476 c-14 -16 -9 -46 7 -46 5 0 15 7 22 16 11 12 11 18 -2 30
-13 13 -16 13 -27 0z"/>
<path d="M3960 4475 c-23 -28 21 -50 48 -23 9 9 7 14 -6 24 -22 17 -27 17 -42
-1z"/>
<path d="M1815 4446 c-59 -26 -115 -110 -115 -171 0 -43 27 -94 62 -115 53
-32 157 -22 172 16 7 17 9 17 -48 -2 -81 -28 -126 8 -126 99 1 86 63 167 131
167 33 0 49 -17 49 -54 0 -27 2 -29 15 -16 8 9 17 29 21 46 5 27 3 32 -18 37
-39 11 -111 7 -143 -7z"/>
<path d="M2717 4453 c-14 -13 -7 -33 11 -33 26 0 34 11 21 27 -13 14 -22 16
-32 6z"/>
<path d="M3310 4453 c-8 -2 -22 -7 -30 -9 -13 -5 -13 -7 1 -14 15 -9 14 -20
-7 -122 -32 -156 -32 -158 11 -158 19 0 35 5 35 10 0 6 -7 10 -15 10 -20 0
-19 3 14 152 15 71 26 130 23 133 -6 6 -11 5 -32 -2z"/>
<path d="M882 4387 c-7 -8 -7 -17 3 -30 11 -15 14 -15 25 -2 13 15 7 45 -8 45
-5 0 -14 -6 -20 -13z"/>
<path d="M4060 4386 c0 -20 24 -36 39 -26 8 4 11 15 8 24 -8 20 -47 21 -47 2z"/>
<path d="M2075 4356 c-50 -22 -85 -71 -85 -119 1 -78 53 -111 123 -77 l42 20
-47 -4 c-36 -3 -51 1 -64 15 -25 27 -12 43 50 62 49 16 86 45 86 69 0 15 -40
48 -57 48 -10 -1 -32 -7 -48 -14z m55 -33 c0 -26 -12 -40 -43 -52 -53 -20 -61
-9 -26 40 23 33 69 41 69 12z"/>
<path d="M2853 4355 c-18 -8 -42 -29 -53 -47 -26 -43 -27 -118 -2 -141 26 -23
84 -22 113 3 l24 20 -27 -11 c-61 -26 -98 11 -84 85 13 66 90 116 103 66 7
-26 27 -21 31 7 5 33 -49 42 -105 18z"/>
<path d="M3064 4356 c-60 -26 -98 -117 -75 -178 12 -33 52 -38 89 -12 22 15
24 15 36 -1 14 -19 67 -18 73 2 3 7 -3 9 -16 6 -25 -6 -25 -6 -1 87 11 41 20
78 20 82 0 8 -57 28 -79 28 -9 -1 -30 -7 -47 -14z m76 -44 c-1 -73 -69 -152
-105 -122 -20 17 -19 43 4 89 22 42 37 57 66 63 28 6 35 1 35 -30z"/>
<path d="M2238 4353 c-21 -5 -24 -19 -6 -25 10 -4 9 -22 -4 -84 -9 -43 -14
-82 -12 -86 11 -18 34 -6 39 20 8 40 58 134 78 146 13 8 20 7 27 -4 9 -13 11
-13 20 0 32 49 -24 55 -70 8 l-30 -33 6 33 c7 33 -1 38 -48 25z"/>
<path d="M2423 4353 c-28 -5 -30 -23 -4 -23 16 0 21 -12 31 -72 16 -100 19
-110 38 -106 14 3 136 197 129 205 -2 1 -20 0 -42 -4 -34 -5 -36 -8 -20 -19
16 -12 15 -17 -16 -74 -32 -57 -34 -59 -41 -34 -4 14 -10 50 -14 80 -7 56 -8
57 -61 47z"/>
<path d="M2650 4340 c0 -5 7 -10 15 -10 18 0 18 -9 0 -85 -22 -92 -21 -97 22
-93 20 2 38 9 41 16 2 7 -2 10 -12 6 -21 -8 -21 22 -1 96 21 78 21 80 -25 80
-22 0 -40 -4 -40 -10z"/>
<path d="M782 4306 c-12 -27 -7 -36 19 -36 28 0 33 20 12 41 -19 20 -20 20
-31 -5z"/>
<path d="M4161 4301 c-16 -29 15 -43 49 -21 13 8 12 11 -5 24 -26 20 -32 20
-44 -3z"/>
<path d="M684 4205 c-4 -9 0 -24 10 -33 15 -15 18 -15 26 -2 6 8 9 22 7 30 -3
21 -36 25 -43 5z"/>
<path d="M4254 4205 c-13 -32 23 -48 47 -19 10 13 10 17 -2 25 -21 13 -39 11
-45 -6z"/>
<path d="M602 4118 c-17 -17 -15 -35 5 -42 21 -8 36 6 31 30 -4 22 -20 28 -36
12z"/>
<path d="M4344 4109 c-3 -6 1 -18 9 -27 13 -13 19 -13 32 -2 12 10 13 16 4 26
-14 17 -35 18 -45 3z"/>
<path d="M517 4013 c-11 -10 -8 -41 4 -49 6 -3 18 1 27 9 13 13 13 19 2 31
-14 17 -23 20 -33 9z"/>
<path d="M4431 4006 c-10 -12 -10 -19 2 -36 12 -18 16 -18 26 -6 14 17 11 48
-5 53 -6 2 -17 -3 -23 -11z"/>
<path d="M2071 3946 c-14 -17 -7 -36 14 -36 22 0 29 20 13 36 -13 13 -16 13
-27 0z"/>
<path d="M2875 3940 c-8 -13 3 -30 20 -30 20 0 30 21 14 31 -18 11 -26 11 -34
-1z"/>
<path d="M3820 3943 c-34 -6 -50 -23 -22 -23 18 0 21 -4 17 -22 -39 -183 -46
-231 -36 -241 7 -7 34 -12 61 -12 38 0 54 5 75 25 57 53 73 132 35 170 -25 25
-30 25 -74 -5 -31 -21 -37 -22 -32 -8 2 10 7 34 11 53 4 19 9 43 11 53 5 17 1
18 -46 10z m104 -136 c8 -12 6 -30 -8 -69 -10 -29 -23 -59 -28 -65 -14 -17
-53 -16 -67 1 -17 21 5 90 41 128 29 31 45 33 62 5z"/>
<path d="M865 3930 c-3 -5 3 -10 14 -10 26 0 26 -8 -1 -137 -19 -90 -25 -106
-45 -114 -13 -5 -23 -13 -23 -20 0 -12 233 -10 245 3 10 9 25 81 19 88 -3 3
-19 -12 -36 -32 -27 -34 -35 -38 -77 -38 -26 0 -50 2 -53 5 -3 3 0 29 7 58 10
45 15 52 37 55 21 3 27 -2 31 -20 3 -21 5 -19 20 14 18 40 22 78 9 78 -5 0
-14 -11 -20 -25 -7 -15 -20 -25 -33 -25 -20 0 -21 4 -16 46 6 60 15 67 70 59
41 -6 47 -10 53 -38 6 -29 7 -30 20 -12 8 10 14 31 14 47 l0 28 -114 0 c-66 0
-117 -4 -121 -10z"/>
<path d="M441 3906 c-16 -19 -7 -46 14 -46 22 0 30 29 13 46 -13 13 -16 13
-27 0z"/>
<path d="M2723 3897 c-7 -15 -26 -35 -42 -45 -25 -14 -27 -18 -13 -28 13 -10
14 -19 4 -69 -7 -32 -12 -71 -12 -87 0 -24 4 -28 29 -28 16 0 34 7 42 16 11
13 9 14 -13 9 l-25 -6 15 79 c15 75 17 81 46 90 29 10 30 11 9 17 -16 5 -23
16 -25 43 l-3 37 -12 -28z"/>
<path d="M4504 3897 c-3 -9 0 -26 7 -38 11 -22 12 -22 26 -3 7 10 12 25 11 34
-4 20 -37 25 -44 7z"/>
<path d="M1460 3853 c-24 -9 -61 -46 -76 -75 -19 -36 -18 -103 2 -122 19 -20
26 -20 70 -1 32 13 37 13 51 0 19 -20 47 -19 64 1 12 15 11 16 -10 9 -22 -7
-23 -6 -16 36 4 24 13 63 20 85 7 23 9 47 5 54 -8 13 -86 23 -110 13z m68 -35
c6 -30 -18 -95 -45 -122 -30 -30 -49 -30 -69 -1 -11 17 -9 27 13 73 24 51 51
73 83 69 8 -1 16 -10 18 -19z"/>
<path d="M1755 3853 c-6 -5 -21 -21 -33 -37 l-22 -29 0 32 c0 32 -7 36 -48 25
-19 -5 -20 -8 -8 -18 13 -10 12 -22 -4 -94 l-18 -83 21 3 c14 2 23 13 27 33 8
38 36 91 61 116 41 41 52 16 33 -72 -17 -82 -17 -79 5 -79 14 0 21 10 26 38
12 68 79 151 102 128 4 -3 1 -35 -5 -70 -19 -100 -17 -108 20 -104 17 2 34 9
36 17 3 10 0 12 -13 7 -16 -6 -17 -2 -11 31 4 21 10 63 13 94 5 52 4 57 -15
63 -26 9 -54 -5 -81 -39 l-20 -26 -3 33 c-2 27 -8 33 -28 36 -14 1 -30 -1 -35
-5z"/>
<path d="M2252 3823 l-35 -38 5 33 c4 28 2 32 -18 32 -12 0 -30 -3 -38 -6 -15
-6 -15 -8 -2 -18 13 -10 13 -20 1 -86 -19 -96 -19 -99 4 -93 13 3 21 17 25 43
7 43 63 123 89 128 22 4 22 -21 1 -100 -9 -38 -12 -64 -6 -70 14 -14 65 -6 70
11 3 10 0 12 -12 8 -21 -8 -21 14 0 98 13 52 14 68 4 80 -21 25 -51 17 -88
-22z"/>
<path d="M2452 3835 c-43 -36 -62 -75 -62 -124 0 -38 19 -71 41 -71 5 0 26 7
45 15 32 13 37 13 51 -1 18 -17 54 -15 61 4 2 7 -2 10 -12 6 -21 -8 -21 15 2
98 11 37 16 72 12 79 -5 6 -30 14 -57 16 -42 5 -53 2 -81 -22z m93 -5 c14 -23
-17 -110 -47 -135 -34 -28 -45 -28 -64 1 -24 35 40 144 85 144 11 0 23 -5 26
-10z"/>
<path d="M2985 3829 c-61 -54 -67 -135 -13 -173 55 -39 137 -1 159 74 32 107
-63 172 -146 99z m95 1 c39 -24 -2 -162 -51 -168 -40 -5 -56 34 -40 100 6 28
16 57 22 65 13 15 47 17 69 3z"/>
<path d="M3284 3823 l-36 -38 7 33 c6 30 5 32 -23 32 -35 0 -45 -9 -31 -27 11
-12 2 -90 -17 -155 -4 -13 0 -18 14 -18 15 0 22 11 30 43 12 47 67 127 87 127
24 0 26 -17 9 -84 -9 -36 -14 -73 -10 -81 7 -19 57 -17 64 3 2 8 -2 10 -14 5
-14 -5 -16 -2 -12 18 3 13 11 51 18 85 7 33 10 68 7 77 -11 29 -53 20 -93 -20z"/>
<path d="M3488 3844 c-21 -11 -28 -22 -28 -44 0 -23 9 -35 45 -60 25 -17 45
-37 45 -43 0 -37 -63 -50 -86 -19 -12 15 -15 15 -23 2 -15 -23 7 -40 51 -40
103 0 132 67 53 122 -33 23 -45 38 -43 53 4 29 53 33 68 5 13 -23 30 -18 30
10 0 32 -64 41 -112 14z"/>
<path d="M1158 3843 c-10 -2 -18 -8 -18 -13 0 -5 6 -7 14 -4 17 7 46 -33 46
-63 0 -13 -18 -39 -45 -64 -49 -46 -55 -59 -26 -59 34 0 53 11 41 25 -7 8 -2
19 16 36 15 13 28 20 30 14 16 -42 47 -76 66 -73 25 4 37 28 14 28 -8 0 -20 9
-26 19 -20 37 -11 67 30 105 22 20 40 41 40 46 0 6 -16 10 -35 10 -36 0 -43
-8 -25 -26 7 -7 3 -18 -14 -33 l-23 -22 -17 40 c-16 41 -25 45 -68 34z"/>
<path d="M2015 3840 c-19 -8 -19 -9 3 -9 26 -1 26 3 3 -93 -10 -42 -15 -82
-11 -88 9 -15 62 -9 68 8 2 6 -3 12 -11 12 -14 0 -14 7 -1 63 30 124 30 117
-2 116 -16 0 -38 -4 -49 -9z"/>
<path d="M2820 3840 c-13 -8 -12 -10 3 -10 21 0 21 -18 2 -90 -24 -91 -16
-110 40 -96 27 7 34 26 10 26 -19 0 -19 19 4 108 l19 72 -31 0 c-18 0 -39 -5
-47 -10z"/>
<path d="M4017 3843 c-16 -4 -16 -6 2 -21 13 -11 25 -45 35 -96 20 -98 20 -98
-4 -124 -20 -21 -53 -31 -47 -14 5 16 -19 9 -25 -8 -5 -14 -1 -20 18 -24 13
-4 33 -2 42 3 19 10 172 260 172 280 0 12 -14 14 -48 5 -20 -6 -21 -8 -6 -18
15 -11 13 -18 -16 -69 -17 -31 -33 -57 -35 -57 -2 0 -9 26 -15 58 -20 99 -20
99 -73 85z"/>
<path d="M371 3796 c-16 -19 -7 -46 14 -46 22 0 30 29 13 46 -13 13 -16 13
-27 0z"/>
<path d="M4580 3785 c-15 -18 -5 -35 20 -35 10 0 22 5 25 10 7 11 -12 40 -25
40 -4 0 -13 -7 -20 -15z"/>
<path d="M300 3675 c-11 -13 -11 -19 3 -33 20 -19 41 -5 35 24 -4 24 -22 28
-38 9z"/>
<path d="M4647 3673 c-11 -10 -8 -41 5 -49 17 -11 40 26 27 43 -13 14 -22 16
-32 6z"/>
<path d="M235 3550 c-7 -12 12 -50 25 -50 13 0 28 32 23 48 -5 14 -39 16 -48
2z"/>
<path d="M4702 3547 c-7 -8 -6 -18 4 -32 15 -19 16 -19 29 -2 24 33 -7 66 -33
34z"/>
<path d="M4761 3436 c-16 -19 -7 -46 14 -46 22 0 30 29 13 46 -13 13 -16 13
-27 0z"/>
<path d="M190 3425 c-11 -13 -11 -19 4 -33 15 -15 18 -15 26 -2 22 33 -6 64
-30 35z"/>
<path d="M2580 3430 c-24 -8 -24 -8 -4 -15 l21 -7 -25 -122 c-14 -68 -22 -130
-19 -139 8 -22 51 -22 68 0 13 15 12 16 -8 11 -29 -8 -29 -5 2 138 14 64 25
122 25 130 0 15 -21 17 -60 4z"/>
<path d="M845 3420 c-3 -5 3 -10 14 -10 12 0 21 -4 21 -9 0 -4 -14 -55 -30
-112 -23 -79 -37 -109 -58 -126 l-27 -23 58 0 c31 0 57 4 57 10 0 6 -9 10 -21
10 -15 0 -19 5 -15 18 3 9 15 54 27 100 21 79 39 106 39 60 0 -12 5 -62 11
-110 11 -82 13 -89 33 -86 16 2 36 32 79 116 32 63 60 112 61 110 4 -4 -12
-152 -19 -185 -3 -13 -12 -23 -20 -23 -7 0 -17 -4 -20 -10 -4 -6 18 -10 59
-10 64 0 87 12 45 23 -14 4 -19 11 -16 24 3 10 8 58 12 107 6 78 10 92 32 112
l26 24 -49 0 -49 0 -60 -114 c-33 -63 -61 -113 -62 -112 -2 1 -7 38 -13 82
-20 155 -15 144 -65 144 -24 0 -47 -4 -50 -10z"/>
<path d="M2830 3420 c0 -5 7 -10 15 -10 20 0 19 -14 -7 -137 -19 -90 -25 -106
-45 -114 -38 -14 -27 -19 42 -19 37 0 65 4 65 10 0 6 -9 10 -20 10 -20 0 -20
13 0 90 9 37 44 38 58 3 5 -15 17 -46 25 -68 13 -35 19 -40 51 -43 39 -3 48
11 17 28 -27 14 -60 112 -40 119 25 8 69 59 69 80 0 12 -9 30 -20 41 -17 17
-33 20 -115 20 -57 0 -95 -4 -95 -10z m165 -26 c17 -17 13 -49 -10 -73 -7 -7
-31 -14 -52 -15 -36 -1 -38 0 -35 28 7 58 19 76 51 76 16 0 37 -7 46 -16z"/>
<path d="M4293 3364 c-26 -26 -37 -44 -28 -44 18 0 18 -16 0 -100 -15 -71 -9
-90 30 -90 12 0 29 7 36 16 11 14 10 16 -6 14 -11 -1 -23 -2 -26 -1 -4 0 1 36
10 79 14 66 19 77 39 80 27 4 29 18 2 25 -16 4 -19 11 -14 36 4 17 5 31 3 30
-2 0 -23 -21 -46 -45z"/>
<path d="M1505 3360 c-28 -29 -34 -40 -22 -40 20 0 20 7 2 -81 -9 -40 -13 -80
-10 -91 8 -23 48 -24 66 -2 12 15 11 16 -9 10 -22 -7 -23 -6 -16 31 19 104 29
128 52 131 28 4 29 22 1 22 -19 0 -21 4 -15 30 7 40 -2 38 -49 -10z"/>
<path d="M1257 3320 c-47 -41 -64 -93 -47 -144 14 -44 48 -56 85 -32 23 15 27
15 50 0 14 -9 32 -13 45 -9 26 8 26 25 -1 25 -15 0 -19 5 -15 18 20 66 38 154
32 159 -3 4 -30 8 -59 11 -49 4 -57 1 -90 -28z m107 1 c10 -15 -24 -110 -46
-131 -30 -28 -66 -26 -74 4 -5 22 21 89 48 124 12 14 64 16 72 3z"/>
<path d="M1673 3329 c-33 -21 -63 -81 -63 -125 0 -32 42 -74 75 -74 26 0 95
25 95 34 0 3 -26 4 -57 3 -56 -2 -58 -1 -61 24 -3 23 3 28 45 44 26 9 58 24
71 31 24 16 29 53 10 72 -18 18 -79 14 -115 -9z m75 -1 c16 -21 -5 -58 -44
-74 -20 -8 -38 -13 -41 -11 -6 7 22 61 42 81 20 19 29 20 43 4z"/>
<path d="M1942 3318 l-32 -33 0 28 c0 23 -4 27 -29 27 -17 0 -33 -4 -36 -10
-3 -5 1 -10 9 -10 19 0 19 2 1 -80 -19 -88 -19 -100 5 -100 13 0 20 7 20 20 0
29 26 88 56 128 24 31 27 32 44 17 16 -15 18 -15 24 0 20 53 -14 60 -62 13z"/>
<path d="M2140 3313 l-32 -38 6 33 c5 31 4 32 -29 32 -18 0 -37 -4 -40 -10 -3
-5 1 -10 9 -10 20 0 20 -18 1 -95 -19 -79 -19 -85 5 -85 11 0 20 7 20 15 0 24
71 145 91 156 17 9 19 6 19 -23 0 -18 -7 -55 -15 -83 -13 -42 -13 -51 -1 -63
16 -16 66 -9 66 9 0 6 -7 9 -15 5 -19 -7 -19 3 1 90 20 85 15 104 -25 104 -22
0 -38 -10 -61 -37z"/>
<path d="M2352 3330 c-80 -49 -84 -200 -5 -200 11 0 26 7 33 15 16 19 34 19
50 0 7 -9 22 -15 33 -13 24 4 35 28 13 28 -20 0 -20 1 0 89 13 57 14 74 4 86
-18 22 -89 19 -128 -5z m90 -44 c-4 -48 -24 -89 -54 -110 -30 -21 -35 -20 -53
8 -15 23 -15 27 6 68 31 62 49 79 78 76 24 -3 26 -7 23 -42z"/>
<path d="M3140 3313 c-83 -84 -50 -198 52 -179 19 3 43 13 54 22 18 15 18 15
-6 10 -14 -3 -34 -8 -46 -12 -25 -7 -54 18 -54 46 0 13 14 23 48 34 26 9 58
23 70 32 45 31 16 84 -45 84 -28 0 -44 -8 -73 -37z m94 8 c13 -21 -13 -57 -48
-68 -20 -6 -38 -8 -41 -4 -2 4 7 24 21 44 23 35 56 48 68 28z"/>
<path d="M3366 3329 c-80 -63 -74 -216 8 -195 14 3 30 15 36 26 12 22 7 25
-20 10 -16 -8 -22 -6 -35 13 -14 22 -14 28 4 69 24 56 46 78 78 78 25 0 26 -1
20 -51 -4 -28 -11 -57 -17 -64 -6 -8 -12 -36 -14 -64 -1 -32 -9 -57 -21 -70
-18 -21 -18 -21 35 -21 46 0 51 2 36 13 -16 12 -16 19 9 131 19 90 22 122 14
132 -18 22 -102 18 -133 -7z"/>
<path d="M3874 3331 c-62 -38 -83 -133 -39 -176 28 -29 63 -32 106 -9 41 21
30 29 -17 14 -35 -12 -39 -11 -56 10 -30 38 -22 48 60 75 61 19 82 48 63 84
-15 27 -74 28 -117 2z m76 -26 c0 -25 -25 -47 -67 -60 -29 -8 -30 7 -2 51 26
43 69 48 69 9z"/>
<path d="M4072 3330 c-24 -23 -29 -54 -9 -69 6 -6 27 -22 45 -37 37 -29 41
-49 13 -64 -32 -16 -51 -12 -63 16 l-12 25 -14 -26 c-7 -15 -12 -29 -9 -31 2
-3 27 -7 55 -11 45 -5 53 -3 76 20 37 37 33 60 -19 103 -48 39 -55 58 -27 72
20 11 44 5 55 -14 11 -19 24 -18 31 3 9 22 -10 33 -60 33 -27 0 -47 -7 -62
-20z"/>
<path d="M3576 3331 c-3 -5 0 -11 7 -14 11 -4 11 -18 -2 -79 -8 -41 -12 -82
-8 -91 11 -28 47 -19 89 23 37 37 40 38 34 14 -12 -45 35 -74 64 -39 10 13 9
15 -9 15 -23 0 -23 -5 -1 90 4 19 11 47 14 63 5 22 3 27 -11 27 -12 -1 -31
-26 -57 -81 -65 -131 -102 -126 -67 9 l19 72 -33 0 c-19 0 -36 -4 -39 -9z"/>
<path d="M142 3288 c4 -27 18 -31 43 -12 17 13 18 16 5 24 -28 18 -52 12 -48
-12z"/>
<path d="M4800 3291 c0 -27 15 -34 40 -21 17 9 19 14 9 26 -17 21 -49 18 -49
-5z"/>
<path d="M113 3183 c-16 -6 -17 -39 -2 -49 6 -3 18 1 27 10 14 14 14 18 2 30
-8 7 -21 12 -27 9z"/>
<path d="M4836 3165 c-3 -9 0 -18 9 -21 21 -8 47 3 43 19 -7 18 -45 20 -52 2z"/>
<path d="M77 3053 c-11 -10 -8 -41 4 -48 5 -4 19 1 30 11 19 17 19 19 3 31
-20 15 -28 16 -37 6z"/>
<path d="M4881 3051 c-8 -5 -11 -17 -6 -30 8 -26 17 -26 39 -2 17 18 17 20 -1
30 -11 5 -25 6 -32 2z"/>
<path d="M50 2915 c-22 -26 7 -46 39 -26 12 8 12 12 2 25 -17 20 -25 20 -41 1z"/>
<path d="M4900 2914 c-11 -12 -10 -18 3 -32 16 -15 18 -15 34 0 13 14 14 20 3
32 -7 9 -16 16 -20 16 -4 0 -13 -7 -20 -16z"/>
<path d="M2345 2854 c-103 -15 -242 -50 -317 -80 -397 -158 -677 -490 -769
-914 -30 -136 -33 -361 -6 -489 83 -391 312 -701 646 -875 368 -191 786 -195
1155 -10 663 332 885 1180 474 1815 -68 106 -215 259 -318 331 -132 93 -308
168 -475 203 -77 17 -326 28 -390 19z m369 -208 c161 -41 297 -104 425 -198
l84 -62 -49 -45 c-28 -25 -157 -140 -288 -255 -259 -227 -241 -217 -302 -168
l-22 17 40 195 c36 177 39 200 29 250 -6 30 -19 61 -28 68 -24 18 -60 15 -82
-7 -21 -21 -72 -172 -131 -386 -49 -180 -63 -215 -89 -215 -36 0 -124 161
-208 380 -14 36 -34 89 -45 118 -35 89 -105 123 -127 61 -27 -79 -9 -205 75
-514 l54 -200 -19 -135 c-11 -74 -23 -160 -27 -190 -5 -43 -13 -61 -38 -85
-56 -54 -326 -290 -335 -293 -27 -9 -134 204 -176 350 -48 169 -56 264 -30
403 44 247 137 445 283 605 105 115 306 236 489 294 117 37 158 44 275 45 90
1 127 -4 242 -33z m-130 -212 c8 -3 20 -21 26 -39 9 -27 5 -62 -24 -206 -44
-217 -47 -226 -92 -307 -21 -37 -47 -100 -59 -141 -11 -41 -27 -78 -36 -84
-22 -14 -75 14 -144 74 -31 27 -65 49 -76 49 -10 0 -37 -16 -59 -36 -22 -20
-42 -35 -44 -33 -2 2 -24 77 -49 166 -94 335 -118 486 -83 522 15 14 19 12 50
-19 24 -26 41 -59 60 -122 57 -188 177 -418 226 -433 51 -16 80 19 100 120 18
95 141 456 162 477 20 20 20 20 42 12z m789 -242 c42 -64 103 -192 130 -274
95 -283 70 -520 -85 -820 -137 -263 -337 -421 -678 -534 -78 -25 -98 -28 -235
-28 -133 -1 -162 2 -254 27 -57 15 -137 41 -177 58 -76 32 -224 121 -288 174
l-37 30 147 130 c80 72 152 131 158 133 16 4 124 -122 142 -164 7 -17 16 -60
19 -95 5 -53 3 -71 -14 -104 -47 -88 -15 -108 184 -113 170 -4 321 16 406 54
68 31 73 47 38 115 -26 52 -41 181 -29 254 5 30 25 90 44 133 47 104 56 153
57 295 0 129 -8 183 -41 268 -21 52 -21 53 -2 72 40 39 477 426 483 426 4 1
18 -16 32 -37z m-769 -325 c9 -16 1 -28 -64 -87 -41 -38 -77 -64 -79 -59 -1 6
2 31 9 57 21 88 103 141 134 89z m-360 -157 c31 -27 69 -56 87 -65 l31 -17
-33 -35 c-52 -53 -69 -60 -90 -34 -24 30 -29 27 -29 -21 0 -41 -4 -47 -82
-120 -45 -43 -85 -78 -89 -78 -16 0 17 228 43 298 21 57 71 122 94 122 8 0 38
-22 68 -50z m605 -36 c45 -149 26 -396 -41 -534 -31 -62 -32 -70 -33 -190 0
-69 4 -142 8 -163 8 -36 7 -39 -22 -50 -43 -16 -38 -26 9 -20 46 6 53 -8 16
-32 -79 -52 -489 -62 -541 -13 -6 5 -10 61 -10 126 0 109 -2 121 -29 177 -16
32 -50 79 -74 103 -38 37 -43 45 -31 57 51 49 243 215 250 215 4 0 26 -16 49
-35 23 -19 43 -35 44 -35 2 0 17 7 35 16 18 9 46 14 62 12 18 -3 28 -1 26 6
-2 6 -32 11 -70 11 -55 0 -69 4 -91 24 -32 30 -32 35 -1 55 24 16 27 16 54 -4
34 -23 93 -26 111 -5 11 13 16 12 43 -11 22 -19 37 -24 56 -19 51 13 68 31 74
82 3 26 20 78 37 114 23 51 28 71 21 90 -8 23 -9 22 -20 -16 -6 -22 -11 -45
-11 -52 0 -7 -13 -22 -30 -35 -25 -18 -30 -28 -30 -66 0 -56 -14 -82 -45 -82
-41 0 -55 25 -54 93 1 34 4 72 7 84 8 25 182 184 197 179 5 -1 20 -38 34 -82z
m-260 -156 c-1 -63 -12 -91 -40 -107 -27 -15 -79 -9 -79 9 0 6 17 26 39 45 21
19 44 49 51 65 18 43 30 37 29 -12z"/>
<path d="M2600 988 c-32 -12 -90 -23 -137 -26 -98 -5 -101 -22 -4 -22 75 0
150 19 196 50 38 25 16 24 -55 -2z"/>
<path d="M24 2779 c-3 -6 0 -17 8 -25 12 -12 17 -12 32 -1 11 8 16 19 12 25
-9 15 -43 15 -52 1z"/>
<path d="M4916 2781 c-9 -14 4 -41 19 -41 21 0 36 25 23 38 -14 14 -35 16 -42
3z"/>
<path d="M4925 2650 c-8 -24 1 -40 21 -40 20 0 29 27 14 45 -17 20 -27 19 -35
-5z"/>
<path d="M14 2649 c-3 -6 0 -18 9 -26 12 -12 18 -13 35 -2 16 10 18 16 10 26
-13 16 -44 17 -54 2z"/>
<path d="M18 2523 c-25 -6 -22 -30 3 -38 25 -8 44 7 36 29 -7 16 -9 17 -39 9z"/>
<path d="M4930 2515 c-20 -24 5 -48 34 -33 31 16 31 17 10 33 -24 18 -29 18
-44 0z"/>
<path d="M20 2390 c-13 -25 3 -52 26 -43 18 7 18 37 0 52 -12 10 -17 8 -26 -9z"/>
<path d="M4929 2387 c-14 -31 -2 -52 24 -41 21 8 22 24 3 49 -14 19 -15 19
-27 -8z"/>
<path d="M30 2254 c-11 -12 -10 -18 3 -32 21 -21 42 -3 32 27 -8 25 -18 27
-35 5z"/>
<path d="M4917 2253 c-23 -22 14 -53 39 -32 11 9 11 15 3 25 -12 15 -31 18
-42 7z"/>
<path d="M44 2115 c-4 -9 -2 -21 4 -27 15 -15 44 -1 40 19 -4 23 -36 29 -44 8z"/>
<path d="M4900 2115 c-15 -18 -5 -35 20 -35 10 0 22 5 25 10 7 11 -12 40 -25
40 -4 0 -13 -7 -20 -15z"/>
<path d="M4875 1990 c-10 -33 6 -48 34 -31 10 7 11 13 2 30 -15 26 -28 27 -36
1z"/>
<path d="M72 1988 c-8 -8 -9 -15 -1 -25 14 -16 31 -17 47 -1 9 9 7 14 -6 24
-21 17 -25 17 -40 2z"/>
<path d="M4840 1860 c-12 -23 -6 -40 15 -40 19 0 27 17 20 40 -8 26 -21 25
-35 0z"/>
<path d="M102 1858 c-8 -8 -9 -15 -1 -25 15 -17 34 -17 48 1 10 12 8 17 -8 25
-24 14 -24 14 -39 -1z"/>
<path d="M141 1727 c-8 -10 -7 -19 4 -33 13 -18 15 -18 31 -2 14 14 15 20 4
32 -15 19 -24 20 -39 3z"/>
<path d="M4804 1726 c-8 -22 3 -49 19 -43 6 2 12 14 12 27 0 27 -22 39 -31 16z"/>
<path d="M4762 1618 c-16 -16 -15 -33 2 -47 21 -18 41 11 26 38 -13 25 -12 25
-28 9z"/>
<path d="M189 1604 c-15 -18 0 -38 27 -32 25 5 28 25 6 37 -15 8 -23 7 -33 -5z"/>
<path d="M4707 1493 c-11 -10 -8 -41 4 -49 6 -3 18 1 27 9 13 13 13 19 2 31
-14 17 -23 20 -33 9z"/>
<path d="M235 1480 c-7 -12 12 -50 25 -50 17 0 30 36 18 48 -15 15 -35 15 -43
2z"/>
<path d="M297 1356 c-3 -8 0 -20 8 -26 19 -16 59 8 43 27 -14 17 -45 17 -51
-1z"/>
<path d="M4643 1354 c-3 -8 1 -22 10 -31 14 -14 16 -13 26 6 7 12 9 26 6 31
-10 15 -35 12 -42 -6z"/>
<path d="M364 1245 c-12 -29 15 -45 45 -26 12 8 12 12 2 25 -17 20 -40 21 -47
1z"/>
<path d="M4581 1251 c-19 -12 -6 -41 18 -41 26 0 36 17 21 35 -14 17 -20 18
-39 6z"/>
<path d="M4510 1135 c-9 -11 -11 -22 -4 -32 13 -21 25 -21 38 -1 8 14 7 21 -5
33 -14 15 -17 15 -29 0z"/>
<path d="M434 1129 c-3 -6 1 -18 10 -27 15 -15 17 -15 32 0 9 9 13 21 10 27
-9 14 -43 14 -52 0z"/>
<path d="M514 1025 c-8 -20 4 -35 26 -35 25 0 35 17 20 35 -16 19 -39 19 -46
0z"/>
<path d="M4430 1025 c-15 -18 -5 -35 20 -35 10 0 22 5 25 10 7 11 -12 40 -25
40 -4 0 -13 -7 -20 -15z"/>
<path d="M594 919 c-3 -6 0 -18 9 -26 12 -12 18 -13 35 -2 16 10 18 16 10 26
-13 16 -44 17 -54 2z"/>
<path d="M4347 923 c-23 -22 14 -53 39 -32 11 9 11 15 3 25 -12 15 -31 18 -42
7z"/>
<path d="M690 830 c-13 -25 3 -52 26 -43 18 7 18 37 0 52 -12 10 -17 8 -26 -9z"/>
<path d="M4244 818 c-4 -6 1 -17 12 -25 15 -11 20 -11 32 1 8 8 11 19 8 25 -9
14 -43 14 -52 -1z"/>
<path d="M785 729 c-9 -28 9 -46 29 -30 12 10 13 18 5 32 -13 25 -26 24 -34
-2z"/>
<path d="M4167 733 c-24 -23 12 -55 38 -33 12 10 13 16 4 26 -12 15 -31 18
-42 7z"/>
<path d="M877 636 c-6 -15 11 -36 29 -36 6 0 17 6 23 14 10 12 8 17 -8 25 -26
15 -38 14 -44 -3z"/>
<path d="M4067 643 c-24 -23 12 -55 38 -33 12 10 13 16 4 26 -12 15 -31 18
-42 7z"/>
<path d="M3960 560 c-14 -26 0 -46 24 -37 20 8 21 31 2 46 -12 10 -17 8 -26
-9z"/>
<path d="M980 542 c0 -10 5 -23 11 -29 15 -15 43 11 35 32 -8 22 -46 19 -46
-3z"/>
<path d="M1090 474 c-11 -12 -10 -18 3 -32 16 -15 18 -15 34 0 13 14 14 20 3
32 -7 9 -16 16 -20 16 -4 0 -13 -7 -20 -16z"/>
<path d="M3850 475 c-15 -18 -5 -35 21 -35 24 0 37 29 18 41 -19 12 -25 11
-39 -6z"/>
<path d="M1213 413 c-16 -6 -17 -25 -1 -41 12 -12 48 1 48 18 0 13 -32 28 -47
23z"/>
<path d="M3740 404 c-11 -12 -11 -18 1 -29 13 -13 18 -13 37 1 22 15 22 17 5
30 -23 17 -28 17 -43 -2z"/>
<path d="M3624 346 c-7 -18 1 -46 13 -46 4 0 15 5 23 10 11 7 12 14 4 27 -15
24 -33 28 -40 9z"/>
<path d="M1317 336 c-9 -23 18 -39 43 -26 17 9 19 14 9 26 -15 18 -45 18 -52
0z"/>
<path d="M3505 279 c-10 -30 11 -48 32 -27 13 14 14 20 3 32 -17 22 -27 20
-35 -5z"/>
<path d="M1433 274 c-3 -8 2 -23 11 -32 16 -16 18 -16 31 2 11 14 12 23 4 33
-15 18 -38 16 -46 -3z"/>
<path d="M1564 235 c-8 -21 3 -45 20 -45 22 0 28 17 16 40 -13 24 -28 26 -36
5z"/>
<path d="M3384 225 c-12 -31 23 -48 45 -21 10 12 8 17 -8 25 -26 14 -31 14
-37 -4z"/>
<path d="M3256 185 c-6 -16 2 -45 13 -45 19 1 33 20 26 39 -7 24 -30 28 -39 6z"/>
<path d="M1684 175 c-13 -32 23 -48 47 -19 10 13 10 17 -2 25 -21 13 -39 11
-45 -6z"/>
<path d="M1816 141 c-14 -16 -15 -20 -2 -30 11 -9 20 -10 35 -1 26 13 26 22 2
37 -15 10 -22 9 -35 -6z"/>
<path d="M3136 144 c-13 -12 -14 -19 -5 -30 14 -17 20 -17 43 -1 16 12 16 14
-2 30 -18 17 -21 17 -36 1z"/>
<path d="M3000 115 c-16 -19 -5 -47 17 -43 11 2 18 12 18 27 0 29 -17 37 -35
16z"/>
<path d="M1942 108 c-13 -13 2 -38 23 -38 21 0 36 25 23 38 -7 7 -17 12 -23
12 -6 0 -16 -5 -23 -12z"/>
<path d="M2076 94 c-11 -29 -6 -44 13 -44 27 0 34 15 19 40 -15 24 -24 25 -32
4z"/>
<path d="M2870 85 c-17 -21 6 -61 26 -44 18 15 18 45 0 52 -8 3 -20 0 -26 -8z"/>
<path d="M2207 73 c-24 -23 12 -55 38 -33 12 10 13 16 4 26 -12 15 -31 18 -42
7z"/>
<path d="M2740 65 c-6 -8 -9 -19 -5 -25 8 -13 42 -13 50 0 7 11 -12 40 -25 40
-4 0 -13 -7 -20 -15z"/>
<path d="M2341 56 c-19 -22 4 -62 25 -45 17 14 15 50 -2 56 -6 2 -16 -3 -23
-11z"/>
<path d="M2604 55 c-12 -29 15 -45 45 -26 12 8 12 12 2 25 -17 20 -40 21 -47
1z"/>
<path d="M2466 51 c-8 -13 20 -45 32 -37 20 12 14 46 -7 46 -11 0 -22 -4 -25
-9z"/>
</g>
</svg>
