<?xml version="1.0" standalone="no"?>
<!DOCTYPE svg PUBLIC "-//W3C//DTD SVG 20010904//EN"
 "http://www.w3.org/TR/2001/REC-SVG-20010904/DTD/svg10.dtd">
<svg version="1.0" xmlns="http://www.w3.org/2000/svg"
 width="500.000000pt" height="499.000000pt" viewBox="0 0 500.000000 499.000000"
 preserveAspectRatio="xMidYMid meet">
<metadata>
Created by potrace 1.15, written by Peter Selinger 2001-2017
</metadata>
<g transform="translate(0.000000,499.000000) scale(0.100000,-0.100000)"
fill="#000000" stroke="none">
<path d="M2350 4965 c-25 -30 10 -61 38 -33 17 17 15 26 -7 37 -14 8 -22 7
-31 -4z"/>
<path d="M2480 4964 c-11 -12 -10 -18 3 -32 16 -15 18 -15 34 0 13 14 14 20 3
32 -7 9 -16 16 -20 16 -4 0 -13 -7 -20 -16z"/>
<path d="M2617 4973 c-11 -10 -8 -41 4 -49 6 -3 18 1 27 9 13 13 13 19 2 31
-14 17 -23 20 -33 9z"/>
<path d="M2214 4945 c-4 -8 0 -22 7 -31 12 -14 14 -14 26 2 9 13 10 21 2 31
-15 17 -28 17 -35 -2z"/>
<path d="M2746 4943 c-4 -9 -1 -23 7 -30 12 -12 16 -12 26 1 16 19 8 46 -13
46 -7 0 -17 -8 -20 -17z"/>
<path d="M2081 4931 c-15 -28 10 -47 38 -29 19 11 19 14 4 30 -21 23 -30 23
-42 -1z"/>
<path d="M2881 4931 c-16 -28 14 -51 36 -28 13 13 14 19 3 31 -17 21 -27 20
-39 -3z"/>
<path d="M1950 4905 c-11 -13 -11 -19 4 -33 15 -15 18 -15 26 -2 22 33 -6 64
-30 35z"/>
<path d="M3013 4913 c-18 -7 -16 -28 3 -43 12 -11 18 -10 31 3 13 13 14 19 3
31 -13 17 -17 18 -37 9z"/>
<path d="M1823 4879 c-15 -15 -5 -39 16 -39 29 0 43 21 23 36 -21 17 -25 17
-39 3z"/>
<path d="M3135 4874 c-18 -14 -18 -14 0 -28 23 -17 45 -10 45 14 0 24 -22 31
-45 14z"/>
<path d="M3270 4840 c-14 -26 0 -46 24 -37 20 8 21 31 2 46 -12 10 -17 8 -26
-9z"/>
<path d="M1692 4838 c-8 -8 -9 -15 -1 -25 13 -15 28 -16 49 -3 13 8 12 11 -5
24 -24 19 -28 19 -43 4z"/>
<path d="M1571 4801 c-14 -26 1 -53 25 -44 18 7 18 24 0 48 -13 18 -14 18 -25
-4z"/>
<path d="M3395 4790 c-8 -13 3 -50 15 -50 5 0 14 8 19 18 15 27 -18 58 -34 32z"/>
<path d="M3515 4740 c-8 -24 1 -40 21 -40 20 0 29 27 14 45 -17 20 -27 19 -35
-5z"/>
<path d="M1442 4738 c-8 -8 -9 -15 -1 -25 13 -15 28 -16 48 -4 12 8 12 12 2
25 -16 19 -33 20 -49 4z"/>
<path d="M1325 4680 c-8 -24 1 -40 21 -40 20 0 29 27 14 45 -17 20 -27 19 -35
-5z"/>
<path d="M3637 4683 c-24 -23 12 -55 38 -33 12 10 13 16 4 26 -12 15 -31 18
-42 7z"/>
<path d="M1204 4609 c-3 -6 1 -18 10 -27 15 -15 17 -15 34 1 15 16 15 19 2 27
-20 13 -37 12 -46 -1z"/>
<path d="M3747 4606 c-9 -24 18 -39 42 -24 25 15 26 24 5 32 -25 10 -41 7 -47
-8z"/>
<path d="M1100 4545 c-12 -15 -7 -45 7 -45 21 1 35 19 28 39 -8 25 -18 27 -35
6z"/>
<path d="M3861 4541 c-16 -28 14 -51 36 -28 13 13 14 19 3 31 -17 21 -27 20
-39 -3z"/>
<path d="M989 4464 c-10 -12 -9 -18 4 -31 13 -13 19 -14 31 -3 21 17 20 27 -3
39 -14 8 -22 7 -32 -5z"/>
<path d="M3971 4461 c-15 -27 12 -49 37 -30 9 7 19 15 21 16 5 4 -31 32 -41
33 -4 0 -12 -9 -17 -19z"/>
<path d="M885 4380 c-8 -12 3 -50 14 -50 5 0 14 7 21 15 10 12 10 18 0 30 -14
17 -26 19 -35 5z"/>
<path d="M4077 4383 c-24 -23 12 -55 38 -33 12 10 13 16 4 26 -12 15 -31 18
-42 7z"/>
<path d="M1780 4370 c0 -5 9 -10 20 -10 25 0 25 -7 -1 -122 -15 -67 -29 -101
-47 -120 l-26 -28 67 0 c38 0 67 4 67 10 0 6 -10 10 -21 10 -17 0 -20 4 -15
23 3 12 9 39 12 60 5 26 12 37 24 37 24 0 35 -16 56 -82 17 -55 19 -58 50 -58
39 0 52 15 25 29 -11 6 -28 35 -39 63 l-20 53 31 15 c18 8 38 28 45 44 13 25
12 31 -5 55 -19 25 -25 26 -122 29 -65 2 -101 -1 -101 -8z m164 -16 c18 -7 21
-46 6 -74 -12 -22 -76 -38 -91 -23 -7 7 -6 26 2 57 10 41 14 46 39 46 16 0 35
-3 44 -6z"/>
<path d="M3257 4312 c-25 -25 -34 -41 -26 -44 10 -3 10 -19 -1 -80 -7 -42 -10
-84 -7 -92 8 -20 51 -21 67 -1 10 13 9 15 -9 15 -24 0 -25 10 -8 95 11 50 17
61 35 63 24 4 31 22 8 22 -9 0 -16 12 -18 31 l-3 30 -38 -39z"/>
<path d="M2154 4299 c-94 -26 -136 -167 -62 -209 23 -12 32 -12 74 1 26 8 49
20 52 27 2 8 -8 8 -38 -3 -53 -19 -83 -6 -78 32 2 21 11 28 46 38 61 19 92 41
92 69 0 39 -36 58 -86 45z m41 -29 c11 -17 -16 -51 -50 -66 -19 -8 -37 -14
-40 -14 -12 0 -3 26 21 57 24 32 57 43 69 23z"/>
<path d="M2363 4298 c-79 -20 -125 -143 -75 -200 22 -25 47 -22 77 9 l25 28 0
-30 c0 -17 -9 -45 -21 -64 -11 -18 -19 -34 -17 -35 2 -2 25 -1 51 2 40 3 45 6
31 16 -15 11 -14 21 10 131 18 82 23 122 16 130 -14 17 -59 23 -97 13z m54
-64 c-5 -48 -28 -87 -64 -111 -20 -13 -23 -12 -38 10 -15 24 -15 28 6 76 23
55 40 70 78 71 22 0 23 -3 18 -46z"/>
<path d="M2866 4295 c-47 -16 -61 -28 -80 -69 -23 -50 -20 -93 9 -121 28 -29
63 -32 105 -10 42 22 38 37 -5 19 -46 -19 -52 -18 -71 12 -22 32 -10 45 64 69
60 19 82 48 63 82 -14 27 -41 33 -85 18z m44 -40 c0 -25 -25 -47 -67 -60 -29
-8 -29 4 -2 49 26 45 69 51 69 11z"/>
<path d="M784 4285 c-13 -32 23 -48 47 -19 10 13 10 17 -2 25 -21 13 -39 11
-45 -6z"/>
<path d="M2570 4293 c-47 -7 -57 -14 -33 -23 21 -9 21 -10 7 -62 -20 -77 -18
-115 6 -123 25 -8 52 7 85 47 l26 33 -7 -37 c-6 -34 -4 -38 21 -44 18 -5 32
-2 43 10 15 15 15 16 -6 16 -18 0 -21 4 -17 23 27 117 34 152 30 155 -12 13
-34 -14 -69 -82 -35 -68 -66 -99 -83 -82 -3 3 3 42 15 86 11 44 17 82 13 83
-3 2 -17 1 -31 0z"/>
<path d="M3043 4285 c-41 -29 -28 -77 28 -106 40 -20 50 -44 27 -67 -18 -18
-55 -14 -71 8 -15 22 -27 17 -27 -11 0 -33 84 -39 124 -8 41 32 36 73 -14 104
-49 31 -60 53 -35 71 25 19 32 18 52 -6 23 -26 35 -25 31 3 -3 19 -10 22 -48
25 -29 2 -53 -3 -67 -13z"/>
<path d="M4173 4284 c-3 -8 1 -22 9 -30 13 -13 16 -13 27 0 7 9 11 23 7 31 -7
20 -35 19 -43 -1z"/>
<path d="M692 4197 c-7 -8 -7 -19 2 -36 l13 -24 16 24 c12 17 14 26 5 36 -13
16 -23 16 -36 0z"/>
<path d="M4270 4195 c-15 -18 -5 -35 20 -35 10 0 22 5 25 10 7 11 -12 40 -25
40 -4 0 -13 -7 -20 -15z"/>
<path d="M603 4099 c-15 -15 -5 -39 16 -39 29 0 43 21 23 36 -21 17 -25 17
-39 3z"/>
<path d="M4355 4100 c-7 -11 11 -40 24 -40 3 0 12 4 20 9 12 8 12 12 2 25 -15
18 -37 21 -46 6z"/>
<path d="M522 4008 c-16 -16 -15 -33 2 -47 21 -18 41 11 26 38 -13 25 -12 25
-28 9z"/>
<path d="M4447 3995 c-14 -13 -14 -20 -4 -35 15 -25 19 -25 35 1 12 18 11 24
-1 36 -12 13 -16 12 -30 -2z"/>
<path d="M441 3886 c-19 -22 4 -62 25 -45 17 14 15 50 -2 56 -6 2 -16 -3 -23
-11z"/>
<path d="M3662 3888 c-16 -16 -15 -35 2 -41 23 -9 38 16 23 37 -10 13 -15 14
-25 4z"/>
<path d="M4521 3887 c-8 -10 -7 -19 4 -33 13 -18 15 -18 31 -2 14 14 15 20 4
32 -15 19 -24 20 -39 3z"/>
<path d="M995 3876 c-120 -56 -154 -231 -56 -289 40 -23 108 -22 150 4 44 27
35 33 -20 14 -84 -30 -129 3 -129 93 0 68 23 117 70 150 58 39 110 25 110 -30
0 -15 4 -28 10 -28 10 0 34 79 26 87 -13 13 -133 13 -161 -1z"/>
<path d="M1588 3874 c-24 -10 -48 -32 -67 -60 -95 -145 -6 -279 156 -235 37
10 44 16 53 49 5 20 10 42 10 49 0 7 10 18 23 25 20 12 18 13 -33 18 -30 3
-61 4 -67 2 -22 -7 -14 -22 12 -22 22 0 24 -3 19 -32 -11 -56 -30 -78 -70 -78
-41 0 -83 36 -85 72 -8 115 52 208 133 208 29 0 58 -31 58 -63 0 -37 25 -10
28 30 3 35 0 41 -20 47 -40 10 -112 6 -150 -10z"/>
<path d="M2917 3876 c-3 -7 -1 -18 5 -24 13 -13 38 -4 38 13 0 7 -7 16 -16 19
-21 8 -21 8 -27 -8z"/>
<path d="M1230 3873 c-23 -8 -40 -34 -40 -60 0 -31 12 -29 33 7 15 24 25 30
53 30 19 0 34 -2 34 -4 0 -2 -12 -54 -26 -117 -23 -103 -34 -128 -56 -129 -5
0 -8 -4 -8 -10 0 -13 117 -13 125 -1 3 5 -4 12 -15 16 -25 8 -25 6 3 135 l23
105 34 0 c31 0 35 -3 38 -28 4 -34 22 -31 35 6 17 52 8 57 -110 56 -59 0 -115
-3 -123 -6z"/>
<path d="M1998 3873 c-24 -6 -23 -23 1 -23 18 0 17 -7 -15 -112 -23 -79 -40
-118 -56 -130 -23 -17 -23 -18 30 -18 28 0 52 5 52 10 0 6 -7 10 -16 10 -13 0
-15 7 -10 32 11 56 49 173 52 163 2 -5 10 -56 18 -113 8 -57 17 -106 20 -109
15 -15 40 16 85 106 74 147 77 145 55 -36 -4 -30 -11 -44 -25 -48 -38 -12 -18
-25 41 -25 47 0 60 3 60 15 0 8 -7 15 -15 15 -18 0 -19 24 -5 140 8 66 15 88
30 99 31 21 24 31 -25 31 l-45 0 -57 -115 c-32 -63 -60 -115 -63 -115 -4 0
-12 48 -19 107 -7 59 -15 111 -17 115 -5 8 -46 9 -76 1z"/>
<path d="M3038 3805 c-41 -35 -46 -45 -23 -45 16 0 15 -7 -6 -90 -20 -80 0
-117 51 -90 26 14 26 30 0 23 -26 -7 -26 -3 5 133 3 13 16 25 32 29 25 7 26 8
8 15 -11 4 -22 18 -25 32 l-5 26 -37 -33z"/>
<path d="M2424 3791 c-32 -14 -73 -68 -80 -108 -8 -45 10 -82 50 -101 37 -18
72 -8 113 33 29 29 33 40 33 83 0 33 -6 57 -17 71 -21 24 -68 35 -99 22z m61
-31 c32 -36 6 -152 -37 -166 -25 -8 -57 13 -64 42 -6 24 18 105 39 132 14 18
41 15 62 -8z"/>
<path d="M2698 3761 l-41 -41 6 36 c6 36 6 36 -25 30 -39 -8 -47 -15 -29 -25
11 -7 10 -23 -4 -90 -10 -45 -15 -84 -12 -87 13 -14 36 6 42 38 10 43 27 77
59 111 47 51 56 31 34 -75 -14 -70 -6 -86 39 -70 17 6 21 11 11 11 -22 1 -22
16 -1 97 28 104 -9 134 -79 65z"/>
<path d="M3214 3791 c-58 -25 -97 -115 -72 -168 29 -60 105 -64 158 -8 33 35
41 132 13 157 -24 22 -71 30 -99 19z m61 -31 c14 -16 17 -30 12 -69 -9 -76
-36 -109 -79 -95 -32 10 -41 50 -22 108 24 75 55 94 89 56z"/>
<path d="M3866 3788 c-11 -6 -30 -23 -43 -37 l-24 -26 3 30 c2 19 -1 30 -9 29
-7 -1 -24 -2 -38 -2 -26 -2 -36 -22 -10 -22 18 0 18 -9 0 -85 -31 -126 -6
-128 57 -5 64 125 103 116 63 -16 -8 -27 -15 -53 -15 -57 0 -14 44 -25 63 -15
21 11 23 30 2 22 -19 -8 -19 5 2 93 13 59 14 75 3 87 -15 19 -28 20 -54 4z"/>
<path d="M4064 3790 c-11 -4 -34 -24 -52 -44 -27 -31 -32 -45 -32 -86 0 -82
48 -111 103 -62 15 14 17 13 17 -2 0 -9 -7 -32 -14 -51 -12 -29 -20 -35 -44
-35 -16 0 -35 7 -42 15 -17 20 -27 19 -33 -4 -6 -24 10 -31 67 -31 49 0 79 18
94 57 11 27 52 203 52 222 0 10 -55 31 -79 30 -9 0 -25 -4 -37 -9z m66 -50 c0
-88 -74 -164 -108 -110 -10 16 -9 27 3 58 28 65 43 82 75 82 27 0 30 -3 30
-30z"/>
<path d="M4591 3778 c-12 -19 -11 -23 5 -35 24 -17 38 -2 30 31 -8 32 -17 33
-35 4z"/>
<path d="M372 3778 c-27 -27 -3 -54 31 -36 22 11 22 25 -1 37 -13 7 -23 6 -30
-1z"/>
<path d="M2898 3782 c-36 -3 -55 -22 -22 -22 10 0 14 -6 10 -17 -3 -10 -12
-47 -21 -83 -15 -60 -15 -65 0 -76 19 -14 56 -5 63 14 2 7 -3 10 -12 6 -21 -8
-20 1 5 98 11 44 19 81 17 82 -2 0 -20 0 -40 -2z"/>
<path d="M3413 3783 c-26 -5 -31 -23 -7 -23 12 0 15 -6 11 -22 -17 -70 -29
-149 -24 -155 15 -14 34 9 46 55 15 62 73 133 92 115 10 -10 15 -9 25 5 20 26
17 32 -15 32 -21 0 -37 -9 -56 -32 l-27 -33 4 33 c5 34 2 35 -49 25z"/>
<path d="M3623 3783 c-26 -5 -31 -23 -7 -23 10 0 14 -6 10 -17 -3 -10 -12 -47
-21 -83 -16 -61 -16 -65 1 -77 22 -16 26 -16 50 2 17 13 17 14 2 15 -22 0 -22
8 2 100 11 41 20 78 20 83 0 7 -19 7 -57 0z"/>
<path d="M303 3659 c-6 -6 -9 -18 -6 -25 7 -18 37 -18 52 0 10 12 8 17 -8 25
-24 14 -24 14 -38 0z"/>
<path d="M4656 3654 c-11 -30 13 -44 43 -25 12 8 12 12 2 25 -17 20 -37 20
-45 0z"/>
<path d="M242 3538 c-8 -8 -9 -15 -1 -25 15 -17 34 -17 48 1 10 12 8 17 -8 25
-24 14 -24 14 -39 -1z"/>
<path d="M4714 3535 c-3 -8 1 -24 9 -36 l15 -21 12 22 c6 12 9 28 6 36 -7 18
-35 18 -42 -1z"/>
<path d="M4771 3421 c-8 -14 -7 -22 5 -32 20 -16 38 2 29 30 -8 26 -21 27 -34
2z"/>
<path d="M189 3414 c-10 -12 -9 -18 3 -31 19 -18 38 -10 38 17 0 24 -25 33
-41 14z"/>
<path d="M140 3281 c0 -27 15 -34 40 -21 17 9 19 14 9 26 -17 21 -49 18 -49
-5z"/>
<path d="M4813 3284 c-3 -8 1 -22 9 -30 13 -13 16 -13 27 0 7 9 11 23 7 31 -7
20 -35 19 -43 -1z"/>
<path d="M2695 3211 c11 -6 94 -39 185 -74 268 -105 540 -234 540 -255 0 -4
-30 -21 -66 -36 -36 -16 -79 -40 -95 -53 -34 -29 -37 -63 -14 -162 9 -35 14
-65 13 -66 -2 -2 -52 -21 -113 -43 -60 -22 -297 -110 -525 -195 -827 -309
-933 -348 -940 -340 -4 4 -24 66 -45 138 -45 154 -73 231 -125 340 -48 100
-191 320 -219 334 -49 27 -42 11 43 -103 130 -172 227 -389 275 -609 25 -116
26 -145 5 -168 -14 -16 -15 -30 -5 -119 6 -55 11 -107 11 -116 0 -10 7 -13 25
-8 24 6 25 5 25 -44 0 -40 -5 -57 -25 -78 -13 -14 -27 -41 -29 -58 -15 -105
-26 -222 -26 -277 0 -76 -22 -161 -91 -346 -49 -134 -70 -205 -54 -191 7 7 39
78 70 158 7 19 47 118 89 220 65 158 79 185 98 188 21 2 587 -93 593 -100 1
-2 -69 -129 -156 -283 -87 -154 -180 -329 -205 -390 -26 -60 -57 -121 -70
-136 -29 -31 -30 -34 -4 -36 13 -1 25 8 35 26 8 16 49 51 92 78 137 88 207
119 508 223 265 91 370 146 540 284 l70 56 5 -38 c5 -33 10 -40 59 -63 65 -32
143 -49 222 -49 l57 0 57 65 c55 62 86 78 101 54 8 -13 -52 -76 -131 -136 -94
-72 -488 -258 -710 -336 -139 -49 -159 -57 -152 -63 3 -3 120 33 261 79 295
99 465 177 649 300 148 99 255 199 332 311 54 80 58 88 57 143 0 44 12 95 53
218 29 88 65 205 81 259 l28 99 -27 51 c-14 28 -33 92 -42 141 -24 135 -63
271 -100 352 -19 41 -31 81 -28 92 3 13 -13 59 -42 118 -42 86 -59 109 -139
187 l-91 88 -290 143 c-302 149 -412 194 -530 214 -38 7 -79 15 -90 17 l-20 4
20 -9z m859 -400 c14 -14 29 -43 35 -70 5 -25 9 -47 8 -48 -5 -5 -275 -103
-284 -103 -6 0 -16 27 -22 59 -18 90 2 129 85 172 54 27 144 22 178 -10z m164
-264 c3 -22 -1 -27 -17 -27 -15 0 -21 6 -21 23 0 46 33 49 38 4z m-164 -26 c9
-14 -4 -41 -19 -41 -15 0 -24 19 -17 38 5 14 28 16 36 3z m-199 -91 c7 -24 -1
-40 -20 -40 -17 0 -34 30 -28 48 7 19 41 14 48 -8z m533 -144 c53 -146 68
-205 87 -325 9 -64 19 -98 30 -103 8 -5 15 -21 15 -36 0 -32 -91 -379 -121
-456 -32 -87 -44 -97 -105 -90 l-52 7 14 33 c8 18 11 39 9 46 -8 19 -110 73
-174 92 -118 34 -188 14 -236 -68 -19 -32 -34 -46 -48 -46 -40 -1 -557 73
-557 79 0 3 62 47 137 96 231 152 314 250 392 465 31 84 88 190 103 190 4 0
15 -11 23 -24 26 -40 66 -50 138 -36 148 28 192 74 190 197 -2 64 1 75 20 88
13 9 37 14 57 13 l35 -3 43 -119z m-743 73 c0 -7 -8 -15 -17 -17 -18 -3 -25
18 -11 32 10 10 28 1 28 -15z m549 -20 c12 -61 7 -99 -16 -122 -32 -32 -183
-81 -207 -67 -25 13 -82 118 -70 126 14 8 262 92 275 93 6 1 14 -13 18 -30z
m-766 -56 c-5 -26 -38 -29 -38 -4 0 15 6 21 21 21 14 0 19 -5 17 -17z m362
-52 c0 -6 -4 -12 -9 -15 -18 -12 -51 -98 -70 -184 -44 -201 -147 -323 -411
-487 -132 -81 -184 -105 -231 -105 -45 0 -687 83 -779 101 -96 18 -90 12 -90
93 0 86 7 95 90 118 172 49 445 137 930 302 300 102 551 185 558 185 6 1 12
-3 12 -8z m64 -13 c-11 -37 -56 -98 -70 -98 -21 0 -18 10 22 67 38 55 61 69
48 31z m-669 -9 c7 -20 -7 -38 -28 -39 -11 0 -20 28 -13 45 8 22 34 18 41 -6z
m-235 -93 c0 -18 -15 -36 -31 -36 -12 0 -19 7 -19 20 0 15 7 20 25 20 14 0 25
-2 25 -4z m630 -412 c-44 -45 -131 -114 -144 -114 -4 0 34 36 84 80 101 89
128 104 60 34z m-270 -200 c-19 -22 -90 -62 -125 -69 -19 -4 -1 10 50 39 89
51 93 52 75 30z m767 -89 c94 -29 123 -48 123 -79 0 -44 -16 -47 -178 -28 -83
10 -154 21 -158 24 -11 11 91 108 114 108 11 0 56 -11 99 -25z m-1110 -111 c9
-23 -11 -38 -26 -20 -13 16 -7 36 10 36 5 0 12 -7 16 -16z m273 -34 c0 -13 -7
-20 -20 -20 -19 0 -27 20 -13 33 13 14 33 6 33 -13z m208 -43 c2 -11 -3 -17
-16 -17 -20 0 -36 23 -24 34 11 12 37 1 40 -17z m229 -12 c2 -6 -3 -20 -11
-30 -14 -19 -16 -19 -32 -3 -15 14 -15 20 -4 33 14 17 41 17 47 0z m213 -59
c0 -8 -5 -18 -11 -22 -14 -8 -33 11 -25 25 10 16 36 13 36 -3z m-1060 -66
c-32 -40 -40 -47 -40 -32 0 12 62 84 67 78 3 -3 -9 -23 -27 -46z m1244 41 c9
-15 -23 -36 -36 -23 -5 5 -7 15 -4 21 9 13 33 14 40 2z m-849 -51 c143 -23
266 -43 273 -45 36 -13 -92 -153 -183 -201 -33 -18 -150 -66 -260 -108 -110
-43 -253 -98 -318 -123 -65 -25 -148 -65 -184 -89 -36 -24 -67 -44 -69 -44
-13 0 7 39 102 197 201 336 305 470 356 458 13 -3 140 -23 283 -45z m985 5 c0
-18 -5 -25 -20 -25 -20 0 -28 28 -13 43 15 16 33 6 33 -18z m-678 -122 c-34
-44 -72 -79 -72 -69 0 12 92 117 98 112 2 -3 -9 -22 -26 -43z m339 17 c73 -12
136 -23 139 -26 10 -11 -83 -84 -122 -96 -31 -9 -53 -9 -95 0 -66 14 -127 43
-131 63 -4 23 36 79 56 79 11 0 79 -9 153 -20z"/>
<path d="M4859 3167 c-11 -24 -11 -30 1 -37 9 -5 19 -5 27 2 16 13 16 20 -1
43 -14 19 -15 19 -27 -8z"/>
<path d="M102 3157 c-18 -21 19 -38 43 -20 17 12 18 15 5 23 -21 13 -36 12
-48 -3z"/>
<path d="M74 3034 c-9 -35 12 -56 31 -30 11 14 11 22 2 37 -16 26 -25 24 -33
-7z"/>
<path d="M4884 3029 c-3 -6 1 -18 10 -27 15 -15 17 -15 32 0 19 19 11 38 -16
38 -10 0 -22 -5 -26 -11z"/>
<path d="M51 2916 c-17 -20 -6 -49 16 -44 22 4 26 20 10 42 -12 16 -14 16 -26
2z"/>
<path d="M4917 2913 c-11 -10 -8 -41 4 -49 6 -3 18 1 27 9 13 13 13 19 2 31
-14 17 -23 20 -33 9z"/>
<path d="M30 2774 c-11 -12 -10 -18 3 -32 21 -21 42 -3 32 27 -8 25 -18 27
-35 5z"/>
<path d="M4931 2767 c-8 -10 -7 -19 4 -33 15 -19 15 -19 30 0 11 14 12 23 4
33 -6 7 -15 13 -19 13 -4 0 -13 -6 -19 -13z"/>
<path d="M13 2634 c-10 -26 13 -39 44 -25 27 12 27 13 8 27 -25 18 -44 18 -52
-2z"/>
<path d="M4943 2639 c-6 -6 -9 -18 -6 -25 7 -18 37 -18 52 0 10 12 8 17 -8 25
-24 14 -24 14 -38 0z"/>
<path d="M4953 2513 c-16 -6 -17 -25 -1 -41 12 -12 48 1 48 18 0 13 -32 28
-47 23z"/>
<path d="M4 2499 c-8 -13 15 -30 36 -26 8 1 16 10 18 20 3 12 -3 17 -22 17
-14 0 -28 -5 -32 -11z"/>
<path d="M22 2380 c-14 -24 -5 -53 15 -46 8 3 17 6 19 6 10 0 3 39 -9 48 -9 8
-16 6 -25 -8z"/>
<path d="M4937 2366 c-3 -8 1 -22 9 -33 14 -17 14 -17 29 1 11 14 12 23 4 33
-15 17 -35 17 -42 -1z"/>
<path d="M30 2235 c-10 -12 -10 -18 0 -31 12 -13 15 -13 28 0 15 15 10 46 -6
46 -5 0 -15 -7 -22 -15z"/>
<path d="M4934 2235 c-12 -31 23 -48 45 -21 10 12 8 17 -8 25 -26 14 -31 14
-37 -4z"/>
<path d="M4914 2113 c-14 -24 -7 -43 16 -43 26 0 33 15 18 40 -16 25 -20 25
-34 3z"/>
<path d="M51 2107 c-13 -17 -5 -47 14 -47 19 0 28 32 12 47 -12 12 -16 12 -26
0z"/>
<path d="M70 1975 c-9 -11 -9 -18 3 -35 14 -20 14 -20 32 0 15 16 15 22 5 35
-16 19 -24 19 -40 0z"/>
<path d="M4886 1974 c-4 -10 -2 -22 3 -27 14 -14 43 0 39 20 -4 24 -34 28 -42
7z"/>
<path d="M101 1847 c-8 -10 -7 -19 4 -33 13 -18 15 -18 31 -2 14 14 15 20 4
32 -15 19 -24 20 -39 3z"/>
<path d="M4863 1853 c-7 -3 -13 -13 -13 -23 0 -10 6 -20 13 -23 15 -5 47 10
47 23 0 13 -32 28 -47 23z"/>
<path d="M141 1721 c-16 -28 14 -51 36 -28 13 13 14 19 3 31 -17 21 -27 20
-39 -3z"/>
<path d="M4815 1720 c-9 -15 4 -50 20 -50 20 0 30 40 14 51 -18 11 -26 11 -34
-1z"/>
<path d="M190 1594 c-11 -12 -10 -18 3 -32 16 -15 18 -15 34 0 13 14 14 20 3
32 -7 9 -16 16 -20 16 -4 0 -13 -7 -20 -16z"/>
<path d="M4769 1594 c-11 -14 -10 -18 5 -29 14 -11 22 -11 37 -2 17 10 17 13
2 29 -20 22 -27 22 -44 2z"/>
<path d="M234 1469 c-3 -6 0 -18 9 -26 12 -12 19 -13 36 -3 18 9 20 14 10 26
-14 17 -45 19 -55 3z"/>
<path d="M4714 1465 c-10 -24 12 -42 34 -29 24 16 21 38 -6 42 -13 2 -25 -3
-28 -13z"/>
<path d="M301 1359 c-11 -18 -10 -24 3 -37 15 -15 17 -15 33 1 16 16 16 18 -2
37 -20 20 -20 20 -34 -1z"/>
<path d="M4660 1361 c-10 -19 -9 -26 3 -38 29 -30 49 6 23 42 -13 18 -14 18
-26 -4z"/>
<path d="M366 1234 c-11 -30 13 -44 43 -25 12 8 12 12 2 25 -17 20 -37 20 -45
0z"/>
<path d="M4592 1238 c-13 -13 2 -38 23 -38 21 0 36 25 23 38 -7 7 -17 12 -23
12 -6 0 -16 -5 -23 -12z"/>
<path d="M441 1128 c-11 -17 -10 -23 2 -35 18 -18 37 -9 37 16 0 31 -24 43
-39 19z"/>
<path d="M4520 1124 c-11 -12 -10 -18 3 -32 16 -15 18 -15 34 0 13 14 14 20 3
32 -7 9 -16 16 -20 16 -4 0 -13 -7 -20 -16z"/>
<path d="M514 1015 c-8 -20 4 -35 26 -35 25 0 35 17 20 35 -16 19 -39 19 -46
0z"/>
<path d="M4440 1015 c-10 -13 -10 -19 5 -35 18 -20 18 -20 32 0 12 17 12 24 3
35 -16 19 -24 19 -40 0z"/>
<path d="M600 914 c-11 -12 -10 -18 3 -32 16 -15 18 -15 34 0 13 14 14 20 3
32 -7 9 -16 16 -20 16 -4 0 -13 -7 -20 -16z"/>
<path d="M4354 905 c-10 -24 12 -42 34 -29 24 16 21 38 -6 42 -13 2 -25 -3
-28 -13z"/>
<path d="M692 816 c-12 -27 1 -48 24 -39 18 7 18 37 1 52 -11 8 -16 5 -25 -13z"/>
<path d="M4271 817 c-14 -17 -4 -47 15 -47 22 0 29 29 12 46 -13 13 -16 13
-27 1z"/>
<path d="M784 715 c-12 -29 15 -45 45 -26 12 8 12 12 2 25 -17 20 -40 21 -47
1z"/>
<path d="M4174 715 c-13 -32 23 -48 47 -19 10 13 10 17 -2 25 -21 13 -39 11
-45 -6z"/>
<path d="M4075 629 c-10 -30 11 -48 32 -27 13 14 14 20 3 32 -17 22 -27 20
-35 -5z"/>
<path d="M885 630 c-8 -12 3 -50 14 -50 16 0 31 28 25 44 -7 18 -29 21 -39 6z"/>
<path d="M990 550 c-14 -26 0 -46 24 -37 20 8 21 31 2 46 -12 10 -17 8 -26 -9z"/>
<path d="M3976 554 c-10 -26 -7 -44 7 -44 23 0 37 21 26 42 -12 22 -25 23 -33
2z"/>
<path d="M1096 464 c-11 -30 13 -44 43 -25 12 8 12 12 2 25 -17 20 -37 20 -45
0z"/>
<path d="M3861 467 c-9 -11 -8 -17 4 -27 19 -16 47 -5 43 17 -4 23 -31 28 -47
10z"/>
<path d="M1210 395 c-23 -28 21 -50 48 -23 9 9 7 14 -6 24 -22 17 -27 17 -42
-1z"/>
<path d="M3757 403 c-14 -14 -7 -43 11 -43 30 0 44 21 24 36 -20 15 -26 17
-35 7z"/>
<path d="M1327 333 c-24 -23 12 -55 38 -33 12 10 13 16 4 26 -12 15 -31 18
-42 7z"/>
<path d="M3635 330 c-8 -12 3 -50 14 -50 15 0 33 30 27 45 -6 17 -32 20 -41 5z"/>
<path d="M1437 266 c-3 -8 2 -21 12 -30 16 -15 20 -15 31 -1 7 8 10 22 6 30
-7 19 -42 20 -49 1z"/>
<path d="M3514 265 c-13 -32 23 -48 47 -19 10 13 10 17 -2 25 -21 13 -39 11
-45 -6z"/>
<path d="M1564 215 c-12 -29 15 -45 45 -26 12 8 12 12 2 25 -17 20 -40 21 -47
1z"/>
<path d="M3397 223 c-11 -10 -8 -41 4 -49 6 -3 18 1 27 9 13 13 13 19 2 31
-14 17 -23 20 -33 9z"/>
<path d="M3270 175 c-9 -11 -11 -22 -4 -32 13 -21 25 -21 38 -1 8 14 7 21 -5
33 -14 15 -17 15 -29 0z"/>
<path d="M1685 170 c-6 -10 15 -50 26 -50 8 0 19 26 19 46 0 16 -36 19 -45 4z"/>
<path d="M1820 134 c-11 -12 -10 -18 3 -32 16 -15 18 -15 34 0 13 14 14 20 3
32 -16 20 -24 20 -40 0z"/>
<path d="M3140 134 c-11 -12 -11 -18 2 -30 13 -13 19 -14 36 -3 20 12 20 15 5
31 -20 22 -27 22 -43 2z"/>
<path d="M1944 99 c-3 -6 1 -18 10 -27 15 -15 17 -15 32 0 19 19 11 38 -16 38
-10 0 -22 -5 -26 -11z"/>
<path d="M3006 101 c-8 -13 4 -41 18 -41 6 0 19 6 28 14 13 10 15 15 6 24 -14
14 -45 16 -52 3z"/>
<path d="M2083 79 c-15 -15 -5 -39 16 -39 29 0 43 21 23 36 -21 17 -25 17 -39
3z"/>
<path d="M2880 75 c-23 -28 21 -50 48 -23 9 9 7 14 -6 24 -22 17 -27 17 -42
-1z"/>
<path d="M2217 73 c-11 -10 -8 -41 3 -48 19 -12 41 15 29 36 -10 20 -21 24
-32 12z"/>
<path d="M2345 50 c-8 -24 1 -40 21 -40 20 0 29 27 14 45 -17 20 -27 19 -35
-5z"/>
<path d="M2611 52 c-7 -13 -6 -23 1 -30 28 -28 63 3 38 33 -16 20 -27 19 -39
-3z"/>
<path d="M2745 60 c-8 -12 3 -50 14 -50 15 0 33 30 27 45 -6 17 -32 20 -41 5z"/>
<path d="M2481 50 c-16 -9 -5 -50 14 -50 12 0 25 21 25 40 0 12 -25 19 -39 10z"/>
</g>
</svg>
