<?xml version="1.0" standalone="no"?>
<!DOCTYPE svg PUBLIC "-//W3C//DTD SVG 20010904//EN"
 "http://www.w3.org/TR/2001/REC-SVG-20010904/DTD/svg10.dtd">
<svg version="1.0" xmlns="http://www.w3.org/2000/svg"
 width="499.000000pt" height="500.000000pt" viewBox="0 0 499.000000 500.000000"
 preserveAspectRatio="xMidYMid meet">
<metadata>
Created by potrace 1.15, written by Peter Selinger 2001-2017
</metadata>
<g transform="translate(0.000000,500.000000) scale(0.100000,-0.100000)"
fill="#000000" stroke="none">
<path d="M2340 4974 c-11 -12 -11 -18 1 -30 13 -12 18 -12 34 0 16 12 17 16 6
30 -17 20 -25 20 -41 0z"/>
<path d="M2470 4974 c-11 -12 -10 -18 4 -32 16 -16 18 -16 31 2 11 14 12 23 4
33 -15 17 -24 16 -39 -3z"/>
<path d="M2603 4974 c-3 -8 1 -22 9 -30 12 -12 17 -12 33 0 16 12 17 16 6 30
-17 20 -40 21 -48 0z"/>
<path d="M2206 4964 c-4 -10 -2 -22 3 -27 14 -14 43 0 39 20 -4 24 -34 28 -42
7z"/>
<path d="M2740 4965 c-15 -18 -5 -35 20 -35 10 0 22 5 25 10 7 11 -12 40 -25
40 -4 0 -13 -7 -20 -15z"/>
<path d="M2077 4953 c-24 -23 12 -55 38 -33 12 10 13 16 4 26 -12 15 -31 18
-42 7z"/>
<path d="M2877 4953 c-14 -14 -7 -43 11 -43 30 0 44 21 24 36 -20 15 -26 17
-35 7z"/>
<path d="M3000 4924 c-11 -12 -10 -18 3 -32 16 -15 18 -15 34 0 13 14 14 20 3
32 -7 9 -16 16 -20 16 -4 0 -13 -7 -20 -16z"/>
<path d="M1942 4918 c-7 -9 -6 -18 4 -32 14 -20 14 -20 29 0 8 10 13 24 11 29
-4 16 -32 17 -44 3z"/>
<path d="M1817 4903 c-11 -10 -8 -41 4 -49 6 -3 18 1 27 9 13 13 13 19 2 31
-14 17 -23 20 -33 9z"/>
<path d="M3132 4887 c-7 -8 -7 -18 -2 -27 7 -12 13 -12 37 -1 27 12 27 13 8
27 -23 17 -30 17 -43 1z"/>
<path d="M3260 4854 c-11 -12 -10 -18 3 -32 21 -21 42 -3 32 27 -8 25 -18 27
-35 5z"/>
<path d="M1684 4845 c-13 -32 23 -48 47 -19 10 13 10 17 -2 25 -21 13 -39 11
-45 -6z"/>
<path d="M1567 4813 c-12 -11 -8 -41 6 -46 7 -3 21 1 32 9 18 14 18 14 -1 29
-22 16 -28 18 -37 8z"/>
<path d="M3387 4813 c-11 -10 -8 -41 4 -48 5 -4 19 1 30 10 18 17 18 19 1 31
-20 15 -26 17 -35 7z"/>
<path d="M3512 4768 c-15 -15 -15 -45 -1 -54 6 -3 18 0 26 9 14 13 14 18 1 36
-11 16 -17 18 -26 9z"/>
<path d="M1433 4744 c-3 -8 2 -23 11 -32 15 -15 17 -15 30 3 7 11 12 25 9 32
-7 18 -42 16 -50 -3z"/>
<path d="M1314 4689 c-3 -6 0 -18 9 -26 12 -12 18 -13 35 -2 16 10 18 16 10
26 -13 16 -44 17 -54 2z"/>
<path d="M3623 4684 c-9 -24 11 -38 36 -25 25 14 27 27 5 35 -25 9 -34 7 -41
-10z"/>
<path d="M3740 4630 c-14 -26 0 -46 24 -37 20 8 21 31 2 46 -12 10 -17 8 -26
-9z"/>
<path d="M1207 4633 c-11 -11 -8 -40 6 -51 19 -16 43 24 26 44 -13 15 -22 18
-32 7z"/>
<path d="M1091 4558 c-12 -19 -11 -23 4 -34 21 -16 35 -10 35 15 0 32 -24 43
-39 19z"/>
<path d="M3851 4556 c-9 -11 -8 -18 5 -31 15 -15 18 -15 32 -1 13 12 13 18 2
30 -15 20 -24 20 -39 2z"/>
<path d="M991 4476 c-14 -16 -9 -46 7 -46 5 0 15 7 22 16 11 12 11 18 -2 30
-13 13 -16 13 -27 0z"/>
<path d="M3961 4481 c-19 -12 -6 -41 18 -41 26 0 36 17 21 35 -14 17 -20 18
-39 6z"/>
<path d="M882 4387 c-7 -8 -7 -17 3 -30 11 -15 14 -15 25 -2 13 15 7 45 -8 45
-5 0 -14 -6 -20 -13z"/>
<path d="M4064 4385 c-8 -19 12 -36 33 -28 19 7 12 37 -10 41 -9 2 -20 -4 -23
-13z"/>
<path d="M3135 4322 c-52 -8 -67 -14 -100 -44 -20 -17 -43 -44 -51 -59 -18
-36 -18 -122 1 -158 18 -35 70 -61 124 -61 66 0 89 16 107 76 10 35 22 55 35
59 10 4 19 11 19 16 0 13 -84 11 -117 -3 l-28 -12 28 -4 c27 -3 29 -5 22 -40
-13 -73 -68 -94 -122 -48 -25 21 -28 31 -28 83 0 100 55 173 131 173 36 0 54
-16 54 -47 0 -37 27 -27 35 13 3 20 4 39 1 42 -8 8 -87 18 -111 14z"/>
<path d="M4162 4310 c-15 -25 -8 -40 18 -40 10 0 21 4 25 10 6 9 -15 50 -25
50 -3 0 -11 -9 -18 -20z"/>
<path d="M793 4313 c-17 -6 -17 -39 0 -46 12 -4 55 19 46 26 -2 1 -11 8 -19
13 -8 6 -21 9 -27 7z"/>
<path d="M2475 4306 c-84 -38 -131 -166 -90 -245 30 -59 129 -77 191 -36 32
21 26 29 -10 15 -43 -16 -94 -12 -115 9 -38 38 -35 135 6 198 45 68 169 70
148 3 -4 -14 -2 -20 9 -20 21 0 34 69 15 81 -21 13 -120 10 -154 -5z"/>
<path d="M1680 4300 c0 -5 6 -10 14 -10 27 0 28 -20 5 -126 -18 -86 -26 -108
-45 -121 -34 -22 -24 -29 37 -24 51 3 52 4 31 20 l-21 16 20 94 c10 52 21 96
23 98 4 4 47 -86 88 -179 21 -49 40 -65 56 -45 5 7 19 62 32 122 25 122 34
145 55 145 8 0 15 5 15 10 0 6 -22 10 -50 10 -50 0 -64 -11 -34 -28 15 -9 15
-15 0 -88 -10 -44 -20 -87 -23 -97 -3 -13 -21 16 -55 91 -52 114 -59 122 -120
122 -16 0 -28 -4 -28 -10z"/>
<path d="M2686 4283 c-4 -16 -9 -36 -12 -45 -9 -29 13 -21 33 12 14 24 24 30
50 30 38 0 38 3 18 -92 -27 -125 -34 -145 -55 -151 -11 -3 -20 -10 -20 -16 0
-12 70 -15 108 -5 27 8 29 24 2 24 -16 0 -19 5 -15 23 13 56 45 207 45 211 0
7 42 15 55 10 7 -3 16 -17 19 -30 9 -36 30 -24 34 19 l3 37 -129 0 -130 0 -6
-27z"/>
<path d="M2064 4211 c-61 -37 -80 -152 -31 -186 12 -8 38 -15 58 -15 94 0 152
145 81 200 -31 25 -68 25 -108 1z m86 -16 c17 -20 8 -106 -14 -139 -24 -37
-73 -36 -87 2 -11 29 1 88 27 130 17 25 55 29 74 7z"/>
<path d="M686 4211 c-8 -13 4 -41 18 -41 6 0 17 4 25 9 12 8 12 12 2 25 -15
18 -37 21 -45 7z"/>
<path d="M4257 4213 c-24 -23 12 -55 38 -33 12 10 13 16 4 26 -12 15 -31 18
-42 7z"/>
<path d="M594 4105 c-10 -24 12 -42 34 -29 24 16 21 38 -6 42 -13 2 -25 -3
-28 -13z"/>
<path d="M4344 4109 c-3 -6 1 -18 10 -27 15 -15 17 -15 34 1 15 16 15 19 2 27
-20 13 -37 12 -46 -1z"/>
<path d="M517 4013 c-4 -3 -7 -15 -7 -25 0 -20 26 -24 50 -8 13 9 12 12 -4 25
-22 17 -29 18 -39 8z"/>
<path d="M4430 4005 c-15 -18 -5 -35 20 -35 10 0 22 5 25 10 7 11 -12 40 -25
40 -4 0 -13 -7 -20 -15z"/>
<path d="M441 3906 c-16 -19 -7 -46 14 -46 22 0 30 29 13 46 -13 13 -16 13
-27 0z"/>
<path d="M4510 3895 c-22 -27 12 -49 38 -23 8 8 9 15 1 25 -15 17 -24 16 -39
-2z"/>
<path d="M2315 3800 c-4 -7 -3 -16 3 -22 14 -14 45 -2 40 15 -6 16 -34 21 -43
7z"/>
<path d="M3045 3800 c-4 -7 -3 -16 3 -22 14 -14 45 -2 40 15 -6 16 -34 21 -43
7z"/>
<path d="M364 3785 c-12 -29 15 -45 45 -26 12 8 12 12 2 25 -17 20 -40 21 -47
1z"/>
<path d="M1380 3790 c0 -5 9 -10 20 -10 11 0 20 -1 20 -2 0 -2 -15 -54 -34
-116 -24 -78 -41 -118 -58 -132 l-23 -19 52 -1 c28 0 55 5 58 10 3 6 -3 10
-14 10 -26 0 -26 6 4 114 24 87 35 113 35 85 0 -16 17 -137 25 -186 4 -24 11
-33 25 -33 15 0 33 27 75 110 30 61 56 110 58 110 1 0 0 -39 -4 -86 -6 -70
-11 -90 -30 -110 l-22 -24 61 0 c35 0 62 4 62 10 0 6 -7 10 -15 10 -18 0 -19
22 -5 144 9 71 15 92 33 107 l22 18 -40 1 c-22 0 -45 -4 -51 -8 -7 -4 -35 -53
-64 -109 -52 -102 -70 -123 -70 -81 0 12 -5 61 -11 110 l-12 88 -48 0 c-27 0
-49 -4 -49 -10z"/>
<path d="M4580 3785 c-22 -26 7 -46 39 -26 12 8 12 12 2 25 -17 20 -25 20 -41
1z"/>
<path d="M2427 3732 c-30 -31 -34 -39 -22 -47 12 -9 12 -19 0 -75 -18 -83 -18
-99 0 -106 21 -8 65 4 65 17 0 6 -9 9 -20 6 -20 -5 -21 -2 -14 41 12 81 27
117 52 120 28 4 29 22 1 22 -18 0 -21 5 -17 30 3 17 2 30 -2 30 -3 0 -23 -17
-43 -38z"/>
<path d="M1795 3698 c-31 -24 -55 -74 -55 -113 0 -35 50 -85 85 -85 38 0 83
26 100 60 22 43 20 115 -5 140 -27 27 -89 27 -125 -2z m101 -33 c15 -59 -20
-145 -59 -145 -51 1 -65 39 -42 110 27 80 85 100 101 35z"/>
<path d="M2090 3683 l-33 -37 5 32 c4 30 3 32 -28 32 -18 0 -36 -4 -39 -10 -3
-5 1 -10 9 -10 19 0 19 -7 1 -90 -19 -85 -18 -90 4 -90 15 0 21 10 26 40 8 45
61 123 88 128 21 4 22 -23 2 -98 -17 -65 -6 -87 39 -76 28 7 36 26 11 26 -19
0 -19 8 1 83 20 78 13 107 -25 107 -21 0 -38 -10 -61 -37z"/>
<path d="M2581 3695 c-16 -14 -35 -42 -41 -61 -37 -111 62 -179 146 -101 31
28 37 41 42 86 4 44 1 55 -18 76 -32 34 -88 34 -129 0z m99 -10 c15 -19 7 -92
-15 -135 -20 -38 -68 -42 -86 -8 -14 26 4 119 27 143 20 19 58 19 74 0z"/>
<path d="M2882 3688 l-32 -33 0 28 c0 24 -4 27 -35 27 -19 0 -35 -4 -35 -10 0
-5 7 -10 15 -10 18 0 18 2 0 -80 -8 -36 -14 -73 -15 -82 0 -20 29 -25 34 -5
17 59 41 108 66 137 28 33 31 34 41 16 11 -18 12 -18 25 5 19 33 17 39 -9 39
-12 0 -37 -15 -55 -32z"/>
<path d="M3165 3713 c-34 -5 -59 -23 -32 -23 24 0 23 -21 -8 -157 -4 -18 -1
-23 14 -23 19 0 31 18 31 48 0 30 69 122 90 122 24 0 24 -6 4 -87 -9 -35 -13
-70 -10 -78 7 -19 50 -19 66 0 10 13 9 15 -9 15 -25 0 -25 -2 -5 66 34 117 -3
160 -77 88 l-38 -37 6 36 c3 20 4 36 2 36 -2 -1 -17 -4 -34 -6z"/>
<path d="M3415 3689 c-92 -81 -48 -239 47 -169 l31 23 -7 -34 c-14 -72 -49
-95 -95 -63 -19 14 -25 14 -32 3 -15 -23 -11 -28 35 -34 89 -14 120 23 154
183 24 109 18 122 -53 122 -35 0 -52 -6 -80 -31z m102 -34 c-9 -59 -29 -98
-60 -112 -21 -10 -28 -9 -42 7 -14 16 -15 24 -6 52 22 67 48 98 82 98 l32 0
-6 -45z"/>
<path d="M2260 3700 c-12 -8 -11 -10 6 -10 l21 0 -19 -82 c-10 -45 -16 -88
-14 -95 7 -18 51 -16 66 2 10 12 10 15 -4 15 -20 0 -20 8 4 100 11 41 20 76
20 78 0 7 -67 0 -80 -8z"/>
<path d="M3002 3701 c-11 -7 -11 -9 1 -14 12 -4 11 -17 -5 -82 -11 -43 -17
-84 -14 -91 6 -15 33 -18 60 -8 20 8 21 24 1 24 -19 0 -19 9 5 100 11 41 20
76 20 78 0 6 -57 1 -68 -7z"/>
<path d="M4647 3683 c-11 -10 -8 -41 4 -49 6 -3 18 1 27 9 13 13 13 19 2 31
-14 17 -23 20 -33 9z"/>
<path d="M297 3666 c-9 -23 18 -39 43 -26 17 9 19 14 9 26 -15 18 -45 18 -52
0z"/>
<path d="M235 3550 c-7 -12 12 -50 25 -50 17 0 30 36 18 48 -15 15 -35 15 -43
2z"/>
<path d="M4707 3553 c-24 -23 12 -55 38 -33 12 10 13 16 4 26 -12 15 -31 18
-42 7z"/>
<path d="M190 3425 c-22 -26 7 -46 39 -26 12 8 12 12 2 25 -17 20 -25 20 -41
1z"/>
<path d="M4761 3427 c-13 -17 -5 -47 14 -47 19 0 28 32 12 47 -12 12 -16 12
-26 0z"/>
<path d="M142 3288 c4 -27 18 -31 43 -12 17 13 18 16 5 24 -28 18 -52 12 -48
-12z"/>
<path d="M4803 3294 c-8 -21 13 -42 28 -27 13 13 5 43 -11 43 -6 0 -13 -7 -17
-16z"/>
<path d="M109 3174 c-16 -20 2 -38 30 -29 26 8 27 21 2 34 -14 8 -22 7 -32 -5z"/>
<path d="M4837 3166 c-3 -8 1 -20 9 -27 12 -10 18 -9 31 3 8 9 12 21 9 27 -10
16 -43 14 -49 -3z"/>
<path d="M2325 3139 c-187 -25 -391 -101 -546 -205 -92 -61 -225 -187 -294
-280 -107 -142 -187 -319 -227 -504 -26 -115 -30 -354 -9 -470 92 -514 470
-905 983 -1017 115 -25 389 -25 506 1 540 116 920 537 993 1101 35 272 -51
603 -224 853 -178 259 -463 444 -777 507 -95 19 -314 27 -405 14z m314 -184
c170 -33 341 -107 486 -210 44 -31 84 -60 88 -65 5 -4 -146 -144 -335 -311
-189 -167 -402 -355 -474 -419 -71 -63 -163 -144 -204 -180 -41 -36 -97 -86
-125 -111 -27 -25 -126 -112 -220 -194 -93 -81 -184 -161 -201 -177 l-31 -29
-27 44 c-155 266 -217 536 -171 752 32 149 107 331 189 454 118 176 311 317
552 400 177 62 316 75 473 46z m785 -565 c81 -154 135 -354 136 -500 0 -249
-158 -606 -344 -778 -151 -139 -388 -248 -626 -287 -88 -15 -116 -16 -180 -6
-107 16 -300 76 -382 117 -84 42 -268 163 -268 176 0 10 38 46 246 229 77 68
291 257 475 419 184 162 377 331 429 375 52 44 149 130 215 190 66 61 143 129
170 153 l50 42 17 -23 c9 -12 37 -60 62 -107z"/>
<path d="M2472 2888 l-2 -58 -75 0 c-75 0 -75 0 -76 28 0 15 -4 36 -9 47 -6
15 -9 8 -9 -27 l-1 -48 -74 0 c-68 0 -74 2 -81 23 l-7 22 -7 -25 c-6 -22 -14
-26 -61 -31 l-55 -6 58 -1 57 -2 0 -158 c0 -87 -2 -161 -4 -163 -2 -2 -38 -3
-80 -1 l-75 4 -4 151 -3 152 -2 -152 -2 -153 -26 0 c-17 0 -28 6 -31 20 -7 27
-17 25 -31 -6 -10 -20 -18 -25 -40 -22 -27 3 -27 3 -33 98 l-5 95 -2 -97 -2
-97 -82 -3 -83 -3 -3 -167 -2 -167 -73 -4 -72 -3 73 -2 72 -2 0 -165 0 -166
-57 3 c-55 3 -58 5 -79 41 -18 33 -21 52 -18 123 1 46 -1 86 -5 89 -11 6 -20
-218 -11 -280 6 -43 7 -46 14 -24 8 27 3 27 114 13 l42 -5 0 -149 0 -149 -37
-4 -38 -4 38 -1 37 -2 0 -65 c0 -37 4 -65 10 -65 6 0 10 28 10 65 l0 64 78 3
77 3 3 148 c2 145 3 147 25 147 12 0 33 7 45 16 l22 15 0 -84 c0 -90 8 -147
20 -147 4 0 13 30 20 68 19 105 24 114 31 47 l6 -60 1 70 c3 84 10 98 44 90
14 -4 41 0 63 9 47 20 55 20 55 1 0 -8 5 -15 10 -15 6 0 10 6 10 14 0 8 8 17
18 19 16 4 16 5 0 6 -10 0 -18 8 -18 17 0 13 7 15 35 10 22 -4 35 -3 35 4 0 6
-16 18 -35 27 l-35 17 0 128 0 128 75 0 75 0 2 -112 2 -113 5 110 6 110 75 0
75 0 3 -33 c4 -39 22 -33 22 9 0 27 2 29 39 29 67 0 71 10 71 186 0 147 1 154
20 154 19 0 20 -7 20 -125 0 -77 4 -125 10 -125 6 0 10 48 10 125 l0 125 75 0
75 0 0 -57 c0 -31 3 -54 6 -50 3 3 6 29 7 56 l0 51 66 2 66 2 -62 3 -63 4 0
164 0 164 63 4 62 3 -62 2 c-60 2 -63 3 -63 27 0 14 -4 25 -10 25 -5 0 -10 -9
-10 -20 0 -18 -7 -20 -79 -20 l-80 0 -4 48 -3 47 -2 -47 -2 -48 -80 0 -79 0
-4 58 -3 57 -2 -57z m-174 -240 l-3 -163 -70 0 -70 0 -3 163 -2 162 75 0 75 0
-2 -162z m172 3 c0 -181 5 -171 -91 -171 l-59 0 0 165 0 165 75 0 75 0 0 -159z
m170 -5 c0 -151 -1 -164 -17 -162 -10 2 -20 11 -21 22 -7 33 -19 36 -30 7 -9
-28 -15 -30 -74 -24 -5 1 -8 73 -8 161 l0 160 75 0 75 0 0 -164z m170 2 l0
-163 -67 2 c-38 1 -71 2 -75 2 -5 1 -8 73 -8 161 l0 160 75 0 75 0 0 -162z
m-1020 -343 l0 -165 -75 0 -75 0 0 165 0 165 75 0 75 0 0 -165z m75 8 c-4 -87
-9 -161 -12 -165 -8 -14 -41 -8 -47 8 -8 20 -8 278 0 298 4 10 18 16 36 16
l30 0 -7 -157z m95 -8 l0 -165 -25 0 -25 0 0 165 0 165 25 0 25 0 0 -165z
m168 3 l-3 -163 -72 -3 -73 -3 0 166 0 165 75 0 75 0 -2 -162z m170 0 l-3
-163 -72 -3 -73 -3 0 166 0 165 75 0 75 0 -2 -162z m170 0 l-3 -163 -72 -3
-73 -3 0 166 0 165 75 0 75 0 -2 -162z m100 0 l-3 -163 -37 -3 -38 -3 0 165 0
166 40 0 40 0 -2 -162z m-778 -332 l0 -153 -42 -7 c-24 -4 -58 -9 -75 -12
l-33 -6 0 166 0 166 75 0 75 0 0 -154z m62 69 c-4 -131 -14 -245 -21 -245 -25
0 -31 32 -31 170 0 81 3 150 7 154 4 4 16 6 27 4 19 -3 21 -9 18 -83z m108
-80 c0 -158 -1 -165 -20 -165 -19 0 -20 7 -20 165 0 158 1 165 20 165 19 0 20
-7 20 -165z m170 34 l0 -131 -37 -34 c-28 -26 -46 -34 -75 -34 l-38 0 0 165 0
165 75 0 75 0 0 -131z m-240 -66 c0 -86 -3 -124 -10 -117 -9 9 -3 244 7 244 1
0 3 -57 3 -127z m-112 -155 c8 -8 12 -59 12 -165 l0 -153 -75 0 -75 0 0 154
c0 144 1 154 18 149 10 -2 34 2 53 10 43 19 52 20 67 5z"/>
<path d="M3310 2450 c-24 -18 -25 -23 -28 -165 l-4 -146 -54 2 -54 2 0 84 c0
49 -4 83 -10 83 -6 0 -10 -35 -10 -85 l0 -85 -68 0 c-40 0 -73 5 -80 12 -10
10 -16 8 -29 -5 -11 -11 -13 -17 -5 -17 9 0 12 -41 12 -160 0 -88 -2 -160 -5
-160 -2 0 -20 7 -39 16 -33 16 -36 16 -70 -4 l-36 -21 0 104 c0 63 -4 105 -10
105 -6 0 -10 -42 -10 -105 l0 -106 -77 3 c-72 3 -76 4 -80 27 -5 37 -13 38
-13 3 0 -29 -2 -31 -19 -21 -38 25 -71 -15 -71 -87 0 -42 -19 -52 -55 -28 -34
22 -49 8 -35 -33 6 -16 10 -68 8 -114 l-3 -84 -75 0 -75 0 -6 50 -6 50 -1 -52
-2 -52 -57 -4 -58 -3 58 -2 57 -2 0 -165 0 -165 -75 0 -75 0 0 145 c0 90 -4
145 -10 145 -6 0 -10 -55 -10 -145 l0 -146 -77 3 -78 3 -6 70 -5 70 -2 -72 -2
-72 -82 -4 -83 -3 83 -2 82 -2 0 -55 c0 -30 5 -55 10 -55 6 0 10 23 10 50 l0
50 75 0 75 0 0 -90 c0 -53 4 -90 10 -90 6 0 10 37 10 90 l0 90 75 0 75 0 0
-115 c0 -70 4 -115 10 -115 6 0 10 45 10 115 l0 115 75 0 75 0 0 -130 c0 -80
4 -130 10 -130 6 0 10 50 10 130 l0 130 75 0 75 0 0 -115 c0 -70 4 -115 10
-115 6 0 10 45 10 115 l0 115 75 0 75 0 0 -90 c0 -53 4 -90 10 -90 6 0 10 37
10 90 l0 90 75 0 75 0 0 -50 c0 -27 5 -50 10 -50 6 0 10 25 10 55 l0 55 85 0
85 0 2 168 3 167 73 1 72 2 0 -74 c0 -43 4 -74 10 -74 6 0 10 31 10 74 l0 75
43 4 42 4 -42 1 -43 2 0 39 c0 22 9 55 19 73 11 18 25 60 31 93 16 80 34 107
68 103 24 -3 28 -8 32 -48 4 -33 7 -40 13 -27 4 10 7 32 7 48 0 17 5 39 10 49
7 13 7 21 0 25 -6 4 -10 60 -11 133 0 70 -4 136 -9 147 -5 12 -9 -40 -9 -137
l-1 -158 -65 0 c-44 0 -67 4 -70 13 -2 6 -6 80 -10 164 l-6 152 73 4 73 3 -72
2 -73 2 -2 164 -3 165 -25 -19z m-162 -477 l3 -153 -76 0 -75 0 0 155 0 156
73 -3 72 -3 3 -152z m129 90 c-4 -38 -7 -107 -7 -155 l0 -88 -27 0 c-16 0 -38
3 -50 6 -23 6 -23 9 -23 155 l0 149 56 0 57 0 -6 -67z m43 -139 c0 -81 -4
-123 -10 -119 -6 4 -10 55 -10 119 0 99 4 126 17 126 2 0 3 -57 3 -126z m-510
-142 c0 -30 -59 -75 -122 -93 l-28 -8 0 55 0 54 75 0 c41 0 75 -3 75 -8z m148
-2 c22 0 22 -1 22 -160 l0 -160 -75 0 -75 0 0 136 c0 77 5 144 11 155 13 24
47 40 74 34 11 -3 30 -5 43 -5z m182 -5 c6 -4 10 -71 10 -161 l0 -154 -75 0
-75 0 0 159 c0 143 2 160 18 165 20 6 108 -1 122 -9z m180 -156 l0 -159 -75 0
-75 0 0 163 0 162 75 -3 75 -4 0 -159z m73 163 c3 -4 -3 -23 -14 -42 l-18 -35
-1 43 c0 30 4 42 14 42 8 0 17 -3 19 -8z m-753 -72 c0 -40 -4 -70 -10 -70 -6
0 -10 30 -10 70 0 40 4 70 10 70 6 0 10 -30 10 -70z m-21 -232 c1 -15 -9 -18
-64 -18 l-65 0 0 94 0 94 35 12 c37 12 54 34 56 72 1 22 37 -218 38 -254z
m191 112 l0 -130 -75 0 -75 0 0 78 c0 49 5 85 13 96 10 13 91 65 135 85 1 0 2
-57 2 -129z m-347 -149 c4 -1 7 -73 7 -161 l0 -160 -75 0 -75 0 0 159 0 160
48 3 c41 3 63 2 95 -1z m177 -156 l0 -165 -75 0 -75 0 0 160 0 159 73 4 c39 1
73 4 75 5 1 1 2 -72 2 -163z m170 0 l0 -165 -75 0 -75 0 0 165 0 165 75 0 75
0 0 -165z m170 0 l0 -165 -75 0 -75 0 0 158 c0 87 2 161 5 164 3 3 37 6 75 7
l70 2 0 -166z m170 -5 l0 -160 -75 0 -75 0 0 160 0 160 75 0 75 0 0 -160z"/>
<path d="M77 3053 c-11 -10 -8 -41 4 -48 5 -4 19 1 30 10 18 17 18 19 1 31
-20 15 -26 17 -35 7z"/>
<path d="M4881 3047 c-27 -27 -4 -55 29 -35 25 16 25 20 1 35 -14 9 -21 9 -30
0z"/>
<path d="M50 2915 c-15 -18 -5 -35 20 -35 10 0 22 5 25 10 7 11 -12 40 -25 40
-4 0 -13 -7 -20 -15z"/>
<path d="M4900 2914 c-11 -12 -10 -18 3 -32 16 -15 18 -15 34 0 13 14 14 20 3
32 -7 9 -16 16 -20 16 -4 0 -13 -7 -20 -16z"/>
<path d="M31 2781 c-10 -7 -11 -13 -1 -31 11 -20 13 -21 27 -7 9 9 13 23 10
31 -7 18 -16 20 -36 7z"/>
<path d="M4914 2775 c-10 -24 12 -42 34 -29 24 16 21 38 -6 42 -13 2 -25 -3
-28 -13z"/>
<path d="M23 2661 c-16 -25 -6 -53 16 -49 21 4 25 29 9 51 -12 16 -14 16 -25
-2z"/>
<path d="M4927 2653 c-24 -23 12 -55 38 -33 12 10 13 16 4 26 -12 15 -31 18
-42 7z"/>
<path d="M18 2523 c-25 -6 -22 -30 3 -38 25 -8 44 7 36 29 -7 16 -9 17 -39 9z"/>
<path d="M4930 2514 c-11 -12 -11 -18 2 -30 13 -13 19 -14 36 -3 20 12 20 15
5 31 -20 22 -27 22 -43 2z"/>
<path d="M14 2379 c-3 -6 1 -18 10 -27 15 -15 17 -15 32 0 19 19 11 38 -16 38
-10 0 -22 -5 -26 -11z"/>
<path d="M4924 2375 c-13 -32 23 -48 47 -19 10 13 10 17 -2 25 -21 13 -39 11
-45 -6z"/>
<path d="M32 2258 c-17 -17 -15 -35 4 -42 31 -12 47 21 21 43 -10 8 -17 7 -25
-1z"/>
<path d="M4917 2253 c-24 -23 12 -55 38 -33 12 10 13 16 4 26 -12 15 -31 18
-42 7z"/>
<path d="M50 2115 c-22 -26 7 -46 39 -26 12 8 12 12 2 25 -17 20 -25 20 -41 1z"/>
<path d="M4893 2114 c-7 -19 20 -49 36 -40 16 11 13 43 -5 50 -22 8 -24 8 -31
-10z"/>
<path d="M70 1990 c-10 -18 -9 -24 1 -31 19 -12 25 -11 38 4 8 11 6 18 -8 31
-19 17 -20 17 -31 -4z"/>
<path d="M4868 1986 c-17 -12 -17 -14 0 -29 16 -15 21 -15 37 -3 16 12 17 16
6 30 -16 19 -21 19 -43 2z"/>
<path d="M4840 1859 c-9 -15 -8 -24 1 -35 11 -13 14 -13 27 -1 9 9 11 23 7 36
-8 27 -21 27 -35 0z"/>
<path d="M101 1856 c-15 -18 11 -40 39 -31 25 8 26 21 1 35 -25 13 -26 13 -40
-4z"/>
<path d="M132 1728 c-8 -8 -9 -15 -1 -25 14 -17 45 -17 51 0 12 32 -24 51 -50
25z"/>
<path d="M4807 1733 c-4 -3 -7 -15 -7 -25 0 -22 32 -24 49 -4 10 12 8 17 -8
25 -23 13 -26 13 -34 4z"/>
<path d="M192 1603 c-15 -26 4 -59 24 -42 18 15 18 33 0 48 -12 10 -17 9 -24
-6z"/>
<path d="M4759 1604 c-10 -12 -9 -18 4 -31 13 -13 19 -14 31 -3 21 17 20 27
-3 39 -14 8 -22 7 -32 -5z"/>
<path d="M240 1484 c-11 -12 -10 -18 3 -32 16 -15 18 -15 34 0 13 14 14 20 3
32 -7 9 -16 16 -20 16 -4 0 -13 -7 -20 -16z"/>
<path d="M4707 1493 c-11 -10 -8 -41 4 -49 6 -3 18 1 27 9 13 13 13 19 2 31
-14 17 -23 20 -33 9z"/>
<path d="M297 1356 c-9 -23 18 -39 43 -26 17 9 19 14 9 26 -15 18 -45 18 -52
0z"/>
<path d="M4640 1351 c0 -27 15 -34 40 -21 17 9 19 14 9 26 -17 21 -49 18 -49
-5z"/>
<path d="M373 1253 c-17 -6 -17 -28 0 -41 8 -7 18 -6 31 4 16 11 17 16 6 29
-13 16 -17 17 -37 8z"/>
<path d="M4581 1246 c-9 -11 -10 -20 -1 -35 6 -12 13 -21 15 -21 10 0 24 40
19 54 -8 20 -18 20 -33 2z"/>
<path d="M4513 1143 c-18 -6 -16 -42 2 -49 16 -6 45 12 45 27 0 12 -33 27 -47
22z"/>
<path d="M433 1124 c-3 -8 1 -22 9 -30 13 -13 16 -13 27 0 7 9 11 23 7 31 -7
20 -35 19 -43 -1z"/>
<path d="M520 1035 c-9 -11 -11 -22 -4 -32 13 -21 25 -21 38 -1 8 14 7 21 -5
33 -14 15 -17 15 -29 0z"/>
<path d="M4430 1025 c-23 -28 21 -50 48 -23 9 9 7 14 -6 24 -22 17 -27 17 -42
-1z"/>
<path d="M600 925 c-16 -19 -5 -47 17 -43 11 2 18 12 18 27 0 29 -17 37 -35
16z"/>
<path d="M4343 914 c-3 -8 1 -22 9 -30 13 -13 16 -13 28 0 10 13 10 19 0 31
-16 19 -29 19 -37 -1z"/>
<path d="M687 816 c-9 -23 18 -39 43 -26 17 9 19 14 9 26 -15 18 -45 18 -52 0z"/>
<path d="M4253 814 c-8 -21 16 -35 40 -23 14 8 16 13 6 25 -15 19 -38 18 -46
-2z"/>
<path d="M784 725 c-12 -31 23 -48 45 -21 10 12 8 17 -8 25 -26 14 -31 14 -37
-4z"/>
<path d="M4164 725 c-12 -31 23 -48 45 -21 10 12 8 17 -8 25 -26 14 -31 14
-37 -4z"/>
<path d="M883 639 c-6 -6 -9 -18 -6 -25 7 -18 37 -18 52 0 10 12 8 17 -8 25
-24 14 -24 14 -38 0z"/>
<path d="M4067 643 c-24 -23 12 -55 38 -33 12 10 13 16 4 26 -12 15 -31 18
-42 7z"/>
<path d="M3962 559 c-17 -27 2 -56 24 -38 18 14 18 33 1 47 -10 8 -16 6 -25
-9z"/>
<path d="M984 549 c-3 -6 0 -17 8 -25 12 -12 17 -12 33 1 17 13 18 16 5 25
-20 13 -37 13 -46 -1z"/>
<path d="M1093 479 c-27 -27 13 -51 47 -29 13 8 12 11 -5 24 -24 19 -28 19
-42 5z"/>
<path d="M3850 475 c-15 -18 -5 -35 21 -35 24 0 37 29 18 41 -19 12 -25 11
-39 -6z"/>
<path d="M3741 401 c-15 -27 12 -49 37 -30 9 7 19 15 21 16 5 4 -31 32 -41 33
-4 0 -12 -9 -17 -19z"/>
<path d="M1200 391 c0 -10 6 -24 14 -30 12 -10 17 -8 26 9 13 25 6 40 -21 40
-12 0 -19 -7 -19 -19z"/>
<path d="M1320 335 c-11 -13 -11 -19 3 -33 20 -19 41 -5 35 24 -4 24 -22 28
-38 9z"/>
<path d="M3627 343 c-24 -23 12 -55 38 -33 12 10 13 16 4 26 -12 15 -31 18
-42 7z"/>
<path d="M1436 274 c-3 -9 -4 -20 0 -25 8 -14 40 -11 53 5 10 12 8 17 -8 25
-27 15 -38 14 -45 -5z"/>
<path d="M3504 275 c-13 -32 23 -48 47 -19 10 13 10 17 -2 25 -21 13 -39 11
-45 -6z"/>
<path d="M1565 230 c-7 -23 1 -40 20 -40 21 0 27 17 15 40 -14 25 -27 26 -35
0z"/>
<path d="M3381 227 c-8 -10 -7 -19 4 -33 13 -18 15 -18 31 -2 14 14 15 20 4
32 -15 19 -24 20 -39 3z"/>
<path d="M1685 180 c-8 -12 3 -50 14 -50 5 0 14 7 21 15 10 12 10 18 0 30 -14
17 -26 19 -35 5z"/>
<path d="M3253 174 c-10 -26 13 -39 44 -25 27 12 27 13 8 27 -25 18 -44 18
-52 -2z"/>
<path d="M1816 141 c-15 -17 -15 -19 0 -31 11 -10 20 -11 32 -4 23 15 24 28 3
41 -15 10 -22 9 -35 -6z"/>
<path d="M3121 137 c-9 -11 -8 -17 4 -27 19 -16 47 -5 43 17 -4 23 -31 28 -47
10z"/>
<path d="M3000 115 c-11 -13 -11 -19 3 -33 20 -19 41 -5 35 24 -4 24 -22 28
-38 9z"/>
<path d="M1941 107 c-8 -10 -7 -19 4 -33 13 -18 15 -18 31 -2 14 14 15 20 4
32 -15 19 -24 20 -39 3z"/>
<path d="M2074 84 c-9 -34 10 -54 32 -32 13 13 14 19 2 37 -17 28 -26 27 -34
-5z"/>
<path d="M2870 85 c-20 -24 5 -47 35 -33 26 12 25 22 -5 38 -13 7 -21 6 -30
-5z"/>
<path d="M2205 70 c-8 -24 1 -40 21 -40 20 0 29 27 14 45 -17 20 -27 19 -35
-5z"/>
<path d="M2740 70 c-12 -7 -12 -13 0 -34 10 -20 16 -23 27 -15 29 25 5 69 -27
49z"/>
<path d="M2340 55 c-6 -8 -9 -19 -5 -25 8 -13 42 -13 50 0 7 11 -12 40 -25 40
-4 0 -13 -7 -20 -15z"/>
<path d="M2607 63 c-12 -11 -8 -40 7 -52 12 -10 17 -8 26 9 16 29 -12 65 -33
43z"/>
<path d="M2467 54 c-10 -10 12 -44 28 -44 9 0 15 10 15 25 0 18 -5 25 -18 25
-10 0 -22 -3 -25 -6z"/>
</g>
</svg>
