<?xml version="1.0" standalone="no"?>
<!DOCTYPE svg PUBLIC "-//W3C//DTD SVG 20010904//EN"
 "http://www.w3.org/TR/2001/REC-SVG-20010904/DTD/svg10.dtd">
<svg version="1.0" xmlns="http://www.w3.org/2000/svg"
 width="500.000000pt" height="500.000000pt" viewBox="0 0 500.000000 500.000000"
 preserveAspectRatio="xMidYMid meet">
<metadata>
Created by potrace 1.15, written by Peter Selinger 2001-2017
</metadata>
<g transform="translate(0.000000,500.000000) scale(0.100000,-0.100000)"
fill="#000000" stroke="none">
<path d="M2352 4978 c-16 -16 -15 -33 2 -47 22 -18 44 25 24 45 -11 11 -16 12
-26 2z"/>
<path d="M2476 4981 c-8 -12 4 -41 16 -41 5 0 19 5 30 11 21 11 21 12 3 25
-22 16 -41 18 -49 5z"/>
<path d="M2617 4983 c-11 -11 -8 -40 6 -51 19 -16 43 24 26 44 -13 15 -22 18
-32 7z"/>
<path d="M2221 4966 c-14 -16 -9 -46 7 -46 21 0 32 26 19 44 -12 16 -14 16
-26 2z"/>
<path d="M2751 4966 c-16 -19 -8 -46 13 -46 20 0 29 31 13 47 -12 12 -16 12
-26 -1z"/>
<path d="M2080 4950 c-12 -23 -6 -40 15 -40 19 0 27 17 20 40 -8 26 -21 25
-35 0z"/>
<path d="M2880 4945 c-11 -13 -11 -19 3 -33 20 -19 41 -5 35 24 -4 24 -22 28
-38 9z"/>
<path d="M3012 4928 c-17 -17 -15 -35 5 -42 21 -8 36 6 31 30 -4 22 -20 28
-36 12z"/>
<path d="M1943 4914 c-3 -8 1 -22 9 -30 13 -13 16 -13 27 0 7 9 11 23 7 31 -7
20 -35 19 -43 -1z"/>
<path d="M1817 4887 c-3 -8 -1 -20 3 -27 7 -11 13 -12 37 -1 27 12 27 13 8 27
-24 18 -41 18 -48 1z"/>
<path d="M3136 4883 c-11 -26 10 -38 41 -24 27 12 27 13 8 27 -25 19 -41 18
-49 -3z"/>
<path d="M1691 4846 c-18 -21 11 -41 39 -26 17 9 19 14 9 26 -15 18 -33 18
-48 0z"/>
<path d="M3261 4851 c-12 -8 -12 -12 -2 -25 15 -18 21 -19 39 -8 15 10 6 42
-12 42 -6 0 -17 -4 -25 -9z"/>
<path d="M1570 4805 c-19 -22 5 -48 31 -34 10 5 19 14 19 19 0 5 -9 14 -19 19
-14 8 -22 7 -31 -4z"/>
<path d="M3391 4801 c-15 -27 12 -49 37 -30 9 7 19 15 21 16 5 4 -31 32 -41
33 -4 0 -12 -9 -17 -19z"/>
<path d="M1441 4746 c-18 -21 11 -41 38 -26 25 13 27 26 5 34 -23 9 -30 8 -43
-8z"/>
<path d="M3514 4745 c-4 -9 -2 -21 3 -26 14 -14 45 1 41 20 -4 22 -37 26 -44
6z"/>
<path d="M1327 4703 c-11 -10 -8 -41 4 -49 6 -3 18 1 27 9 13 13 13 19 2 31
-14 17 -23 20 -33 9z"/>
<path d="M3637 4703 c-11 -10 -8 -41 4 -49 6 -3 18 1 27 9 13 13 13 19 2 31
-14 17 -23 20 -33 9z"/>
<path d="M3750 4631 c-18 -35 13 -58 39 -28 8 11 6 18 -8 31 -19 17 -20 17
-31 -3z"/>
<path d="M1211 4631 c-19 -12 -6 -41 18 -41 26 0 36 17 21 35 -14 17 -20 18
-39 6z"/>
<path d="M1102 4568 c-16 -16 -15 -45 2 -51 23 -9 39 18 26 42 -13 25 -12 25
-28 9z"/>
<path d="M3861 4556 c-9 -11 -9 -19 1 -35 16 -26 20 -26 35 -1 10 15 10 22 -3
35 -19 18 -19 18 -33 1z"/>
<path d="M985 4480 c-8 -24 1 -40 21 -40 20 0 29 27 14 45 -17 20 -27 19 -35
-5z"/>
<path d="M3966 4474 c-9 -23 19 -53 35 -37 15 15 7 47 -12 51 -9 2 -19 -5 -23
-14z"/>
<path d="M872 4388 c-17 -17 17 -39 41 -26 15 7 16 12 6 24 -14 17 -31 18 -47
2z"/>
<path d="M4074 4389 c-3 -6 0 -17 7 -24 12 -12 17 -11 34 1 17 13 18 16 5 24
-20 13 -37 12 -46 -1z"/>
<path d="M4182 4318 c-21 -21 -15 -50 10 -46 27 4 32 18 16 41 -11 14 -16 15
-26 5z"/>
<path d="M792 4308 c-28 -28 0 -56 31 -33 22 16 21 22 -1 34 -13 7 -23 6 -30
-1z"/>
<path d="M690 4215 c-11 -13 -11 -19 3 -33 20 -19 41 -5 35 24 -4 24 -22 28
-38 9z"/>
<path d="M4264 4205 c-13 -32 23 -48 47 -19 10 13 10 17 -2 25 -21 13 -39 11
-45 -6z"/>
<path d="M596 4111 c-10 -16 5 -41 24 -41 19 0 34 25 24 41 -3 5 -14 9 -24 9
-10 0 -21 -4 -24 -9z"/>
<path d="M4354 4109 c-3 -6 1 -18 10 -27 15 -15 17 -15 34 1 15 16 15 19 2 27
-20 13 -37 12 -46 -1z"/>
<path d="M521 4016 c-16 -19 -7 -46 14 -46 22 0 30 29 13 46 -13 13 -16 13
-27 0z"/>
<path d="M4440 4005 c-11 -13 -11 -19 3 -33 20 -19 41 -5 35 24 -4 24 -22 28
-38 9z"/>
<path d="M440 3905 c-15 -18 -6 -45 14 -45 20 0 29 16 21 40 -8 24 -18 25 -35
5z"/>
<path d="M4523 3899 c-13 -13 -6 -39 11 -39 6 0 17 4 25 9 12 8 12 12 2 25
-16 19 -23 20 -38 5z"/>
<path d="M1152 3839 c-12 -18 -11 -24 2 -37 15 -15 17 -15 32 0 13 13 14 19 2
37 -7 11 -15 21 -18 21 -3 0 -11 -10 -18 -21z"/>
<path d="M1602 3839 c-12 -18 -11 -24 2 -37 15 -15 17 -15 32 0 13 13 14 19 2
37 -7 11 -15 21 -18 21 -3 0 -11 -10 -18 -21z"/>
<path d="M1755 3840 c-17 -18 -17 -22 -4 -36 17 -16 49 -9 49 10 0 7 -6 20
-13 30 -12 16 -14 16 -32 -4z"/>
<path d="M1911 3846 c-18 -21 -9 -51 14 -51 24 0 32 36 12 53 -11 10 -17 9
-26 -2z"/>
<path d="M3123 3849 c-18 -18 -16 -48 3 -56 8 -3 22 1 30 9 13 13 13 17 -3 37
-14 18 -20 20 -30 10z"/>
<path d="M3566 3838 c-14 -19 -14 -24 -2 -37 8 -7 22 -11 30 -8 20 8 21 41 2
56 -11 10 -17 7 -30 -11z"/>
<path d="M3871 3836 c-21 -39 11 -65 38 -32 9 11 9 19 -1 35 -16 27 -22 26
-37 -3z"/>
<path d="M4022 3839 c-12 -18 -11 -24 2 -37 15 -15 17 -15 32 0 13 13 14 19 2
37 -7 11 -15 21 -18 21 -3 0 -11 -10 -18 -21z"/>
<path d="M1451 3836 c-26 -31 18 -63 47 -34 9 9 8 16 -5 30 -19 22 -27 22 -42
4z"/>
<path d="M2060 3835 c-16 -19 -6 -45 18 -45 27 0 46 24 30 37 -27 21 -36 22
-48 8z"/>
<path d="M2365 3833 c-15 -14 -15 -17 -1 -32 12 -12 21 -13 33 -5 25 15 26 28
4 41 -16 10 -23 10 -36 -4z"/>
<path d="M2503 3839 c-14 -14 12 -73 27 -64 23 14 30 44 14 59 -18 19 -26 20
-41 5z"/>
<path d="M2662 3838 c-16 -16 -15 -33 4 -48 12 -11 18 -10 32 3 15 16 15 18
-4 37 -15 16 -22 18 -32 8z"/>
<path d="M2961 3841 c-18 -12 -5 -51 18 -51 10 0 25 7 32 16 11 14 10 18 -6
30 -22 16 -25 17 -44 5z"/>
<path d="M3270 3835 c-16 -19 -6 -45 18 -45 27 0 46 24 30 37 -27 21 -36 22
-48 8z"/>
<path d="M996 3831 c-10 -16 5 -41 24 -41 10 0 23 7 31 16 10 13 10 17 -2 25
-18 11 -46 12 -53 0z"/>
<path d="M1302 3827 c-9 -10 -7 -19 4 -36 l16 -22 15 21 c26 36 -7 71 -35 37z"/>
<path d="M2204 3829 c-3 -6 -1 -22 7 -35 12 -23 14 -23 31 -7 22 20 23 39 2
47 -23 9 -32 7 -40 -5z"/>
<path d="M2810 3830 c-12 -7 -12 -13 -4 -27 6 -10 17 -18 24 -18 7 0 18 8 24
18 8 14 8 20 -4 27 -8 5 -17 10 -20 10 -3 0 -12 -5 -20 -10z"/>
<path d="M3410 3825 c-10 -13 -10 -19 5 -35 18 -20 18 -20 32 0 27 38 -8 70
-37 35z"/>
<path d="M3714 3825 c-8 -19 3 -35 25 -35 26 0 44 23 29 38 -17 17 -47 15 -54
-3z"/>
<path d="M4590 3790 c-12 -23 -6 -40 15 -40 19 0 27 17 20 40 -8 26 -21 25
-35 0z"/>
<path d="M366 3784 c-11 -30 13 -44 43 -25 12 8 12 12 2 25 -17 20 -37 20 -45
0z"/>
<path d="M301 3672 c-8 -15 -7 -23 5 -33 18 -15 38 0 32 27 -5 25 -25 28 -37
6z"/>
<path d="M4654 3665 c-13 -32 23 -48 47 -19 10 13 10 17 -2 25 -21 13 -39 11
-45 -6z"/>
<path d="M237 3547 c-3 -9 1 -23 9 -34 14 -17 14 -17 29 2 8 10 14 24 12 30
-6 16 -44 18 -50 2z"/>
<path d="M4713 3544 c-3 -8 1 -22 9 -30 13 -13 16 -13 27 0 7 9 11 23 7 31 -7
20 -35 19 -43 -1z"/>
<path d="M1456 3529 c-97 -23 -165 -93 -186 -194 -20 -99 25 -182 111 -205 59
-16 170 12 183 46 7 18 -3 18 -47 -1 -120 -50 -202 24 -176 158 19 105 82 170
164 170 58 0 68 -8 63 -54 -3 -32 0 -39 14 -39 21 0 24 5 32 62 l7 47 -48 6
c-26 4 -55 8 -63 10 -8 1 -32 -1 -54 -6z"/>
<path d="M3448 3526 c-112 -30 -179 -116 -181 -233 -2 -77 22 -120 86 -152 45
-22 51 -23 109 -11 34 8 72 23 87 36 30 27 18 30 -32 9 -119 -50 -202 24 -177
157 17 87 63 145 131 167 68 22 112 -9 96 -69 -4 -15 0 -20 13 -20 23 0 26 5
35 57 5 34 3 43 -12 51 -33 17 -107 21 -155 8z"/>
<path d="M2558 3523 c-22 -5 -24 -33 -3 -33 21 0 19 -17 -15 -178 -36 -172
-36 -174 -8 -170 17 2 26 16 40 63 22 72 80 155 108 155 26 0 26 -20 0 -122
-16 -62 -18 -83 -9 -94 17 -21 63 -17 85 7 19 22 19 22 -8 15 -34 -8 -35 -7
-6 112 16 69 19 97 12 110 -25 40 -89 20 -134 -41 -35 -48 -36 -44 -10 68 11
47 20 92 20 100 0 15 -33 18 -72 8z"/>
<path d="M4413 3520 c-29 -12 -30 -30 -2 -30 17 0 20 -4 15 -22 -3 -13 -6 -31
-6 -40 0 -15 -9 -18 -47 -18 -98 0 -173 -79 -173 -184 0 -36 5 -52 25 -71 32
-33 67 -31 110 6 l35 31 0 -26 c0 -31 22 -43 58 -30 32 11 44 40 13 31 -27 -7
-28 -8 14 183 19 89 35 165 35 171 0 11 -47 11 -77 -1z m-24 -139 c19 -12 9
-101 -16 -143 -27 -46 -70 -75 -91 -62 -35 22 -37 56 -7 123 36 80 74 107 114
82z"/>
<path d="M2054 3451 c-14 -22 -39 -44 -55 -50 -34 -12 -39 -31 -8 -31 24 0 24
-1 -1 -136 -8 -39 -11 -78 -7 -87 10 -25 69 -22 93 5 l19 21 -32 -6 c-39 -8
-39 -6 -18 90 9 37 18 78 20 90 3 14 14 23 32 25 35 4 43 28 9 28 -25 0 -25 2
-19 45 3 25 3 45 0 45 -4 0 -18 -18 -33 -39z"/>
<path d="M2395 3450 c-14 -22 -36 -42 -49 -46 -32 -8 -43 -34 -14 -34 23 0 23
0 -3 -148 -11 -63 -11 -74 1 -82 26 -16 66 -11 86 12 l19 21 -32 -6 c-18 -4
-33 -2 -33 3 0 8 24 128 35 177 3 14 14 23 32 25 35 4 43 28 9 28 -25 0 -25 2
-19 45 3 25 3 45 -1 45 -3 0 -17 -18 -31 -40z"/>
<path d="M688 3445 c-14 -22 -34 -38 -50 -42 -32 -6 -38 -33 -8 -33 24 0 24
-2 1 -115 -12 -59 -15 -96 -9 -107 10 -20 49 -24 79 -8 27 15 24 33 -6 28 -30
-6 -31 1 -9 108 17 82 24 94 62 94 13 0 22 6 22 15 0 10 -10 15 -26 15 -25 0
-26 2 -21 40 6 49 -6 51 -35 5z"/>
<path d="M4770 3434 c-11 -12 -10 -18 3 -32 21 -21 42 -3 32 27 -8 25 -18 27
-35 5z"/>
<path d="M186 3423 c-9 -22 7 -36 33 -28 25 8 28 30 5 39 -24 9 -31 7 -38 -11z"/>
<path d="M882 3393 c-93 -45 -121 -178 -51 -237 59 -50 163 -18 206 64 66 125
-31 234 -155 173z m103 -23 c24 -27 22 -84 -5 -148 -27 -62 -56 -80 -98 -60
-33 16 -38 46 -22 125 19 90 81 132 125 83z"/>
<path d="M1681 3401 c-38 -7 -55 -31 -22 -31 25 0 25 4 2 -101 -19 -91 -15
-123 17 -133 30 -10 69 13 104 58 l30 41 -6 -35 c-3 -19 -2 -41 3 -48 11 -18
83 -12 89 7 3 10 -2 13 -22 9 -21 -4 -26 -2 -22 11 18 64 49 222 44 227 -16
15 -48 -9 -58 -44 -15 -59 -93 -176 -118 -180 -28 -4 -28 17 -2 118 11 41 20
83 20 93 0 18 -3 18 -59 8z"/>
<path d="M2930 3399 c-62 -25 -110 -99 -110 -171 0 -53 43 -98 94 -98 43 0
112 26 120 46 7 17 6 17 -37 -1 -49 -20 -80 -19 -101 4 -35 39 -18 62 67 90
43 15 82 33 87 41 15 23 12 67 -6 84 -17 18 -75 20 -114 5z m75 -30 c4 -5 2
-23 -5 -39 -9 -21 -24 -33 -58 -44 -25 -9 -49 -16 -53 -16 -13 0 12 63 34 88
21 23 71 30 82 11z"/>
<path d="M3722 3393 c-42 -20 -69 -55 -83 -105 -37 -140 106 -213 211 -108 60
60 67 154 15 206 -29 29 -93 32 -143 7z m103 -23 c36 -39 0 -191 -50 -210 -51
-20 -89 15 -87 81 1 36 41 127 61 139 26 15 57 11 76 -10z"/>
<path d="M3996 3401 c-35 -7 -47 -31 -17 -31 25 0 25 -3 1 -110 -25 -111 -25
-120 3 -120 18 0 24 8 34 48 13 57 66 148 95 163 16 8 22 7 33 -8 17 -22 30
-10 38 35 6 30 5 32 -23 32 -31 0 -45 -11 -93 -70 -20 -24 -27 -29 -24 -15 3
11 8 35 12 53 7 35 3 37 -59 23z"/>
<path d="M153 3313 c-15 -5 -17 -39 -3 -48 9 -6 50 15 50 25 0 10 -35 27 -47
23z"/>
<path d="M4814 3295 c-7 -18 3 -35 21 -35 15 0 28 27 19 41 -8 14 -34 11 -40
-6z"/>
<path d="M4856 3184 c-11 -29 -6 -44 13 -44 26 0 34 15 21 40 -13 24 -26 26
-34 4z"/>
<path d="M109 3174 c-16 -20 2 -38 30 -29 26 8 27 21 2 34 -14 8 -22 7 -32 -5z"/>
<path d="M77 3053 c-12 -11 -8 -41 6 -46 6 -2 20 2 29 10 15 13 15 17 3 29
-15 15 -28 18 -38 7z"/>
<path d="M4883 3044 c-3 -8 1 -22 9 -30 13 -13 16 -13 27 0 7 9 11 23 7 31 -7
20 -35 19 -43 -1z"/>
<path d="M50 2915 c-22 -26 7 -46 39 -26 12 8 12 12 2 25 -17 20 -25 20 -41 1z"/>
<path d="M4910 2914 c-11 -12 -10 -18 3 -32 16 -15 18 -15 34 0 13 14 14 20 3
32 -7 9 -16 16 -20 16 -4 0 -13 -7 -20 -16z"/>
<path d="M32 2789 c-10 -16 -11 -24 -1 -35 11 -13 14 -13 27 -1 9 9 11 23 7
36 -8 26 -17 27 -33 0z"/>
<path d="M4932 2789 c-15 -24 0 -51 24 -42 18 6 18 37 1 51 -10 8 -16 6 -25
-9z"/>
<path d="M2835 2764 c-90 -12 -154 -28 -195 -49 -58 -29 -169 -146 -201 -211
-67 -137 12 -318 160 -371 28 -10 50 -22 48 -27 -2 -5 -34 -20 -72 -33 -39
-14 -211 -76 -384 -139 -173 -63 -318 -114 -322 -114 -4 0 -37 37 -73 83 -99
126 -140 158 -253 196 -217 73 -505 -46 -606 -251 -51 -103 -68 -188 -38 -188
5 0 25 13 46 30 21 17 80 44 134 62 131 43 257 45 377 5 79 -26 133 -65 120
-86 -13 -21 -143 -91 -213 -116 -138 -48 -290 -55 -424 -21 -48 13 -49 13 -49
-11 0 -13 9 -42 20 -66 51 -106 143 -195 269 -259 60 -31 72 -33 161 -33 81 1
109 6 190 34 127 44 168 69 265 162 61 58 89 79 109 79 28 0 198 -59 381 -133
127 -51 386 -167 399 -178 5 -5 -2 -13 -16 -18 -42 -16 -129 -111 -156 -169
-21 -47 -24 -65 -20 -136 5 -96 31 -159 89 -217 45 -45 84 -66 204 -109 201
-71 364 -44 503 83 50 47 67 76 82 142 14 62 -8 151 -55 223 -43 64 -181 157
-360 243 -226 108 -845 452 -845 469 0 4 105 65 233 135 127 71 291 161 362
201 72 39 173 93 225 119 126 63 277 164 324 215 50 56 66 97 66 170 0 139
-94 243 -245 269 -74 12 -200 20 -240 15z m269 -79 c59 -22 163 -117 175 -161
17 -61 -43 -174 -131 -246 -85 -70 -200 -137 -558 -326 -83 -44 -198 -106
-503 -273 -98 -53 -170 -116 -270 -235 -83 -100 -168 -160 -286 -204 -107 -41
-260 -35 -368 15 -82 37 -213 170 -213 215 0 16 4 16 52 4 77 -20 168 -17 302
11 135 28 217 63 294 125 70 56 69 80 -8 132 -90 61 -180 90 -296 95 -141 7
-230 -20 -337 -101 -26 -20 -47 -33 -47 -30 0 24 94 188 133 230 87 96 241
150 402 142 67 -4 90 -10 143 -38 68 -36 150 -118 183 -183 l21 -39 -21 -49
c-11 -27 -17 -49 -14 -49 8 0 471 167 763 275 290 108 317 126 204 138 -92 9
-141 41 -198 126 -84 126 -75 209 37 324 61 63 122 102 182 118 56 15 305 4
359 -16z m-948 -1131 c49 -31 121 -72 159 -92 39 -19 147 -81 241 -138 188
-113 333 -188 452 -235 99 -39 159 -78 216 -139 53 -56 106 -160 106 -205 0
-43 -59 -153 -100 -185 -47 -36 -81 -47 -198 -60 -178 -21 -293 18 -396 134
-81 91 -90 108 -89 181 0 92 34 151 126 216 67 48 104 68 152 84 25 9 23 10
-397 176 -297 117 -518 214 -518 229 0 7 132 88 146 89 6 1 51 -24 100 -55z"/>
<path d="M2828 2640 c-68 -11 -97 -25 -167 -80 -84 -67 -121 -171 -91 -257 12
-32 42 -58 107 -92 82 -41 249 -21 353 42 76 47 159 140 173 195 16 63 -50
145 -141 177 -59 20 -161 26 -234 15z m172 -40 c57 -16 130 -67 144 -102 20
-48 3 -82 -72 -144 -87 -71 -137 -95 -227 -105 -121 -13 -225 30 -240 101 -18
80 108 224 218 250 47 11 137 11 177 0z"/>
<path d="M1793 1690 c-12 -5 -29 -20 -38 -33 -30 -46 23 -106 71 -79 16 9 15
10 -4 16 -24 8 -26 14 -13 35 8 12 14 13 36 3 32 -15 45 -8 45 23 0 39 -47 55
-97 35z"/>
<path d="M2777 1016 c-51 -14 -108 -61 -134 -110 -53 -101 29 -259 157 -301
135 -43 266 -44 355 -1 66 33 102 93 90 153 -19 100 -110 205 -213 243 -71 27
-190 35 -255 16z m228 -50 c64 -30 140 -98 165 -147 11 -22 20 -58 20 -84 0
-64 -35 -98 -115 -115 -138 -29 -332 38 -380 131 -77 148 137 297 310 215z"/>
<path d="M4940 2654 c-11 -12 -10 -18 3 -31 22 -23 52 0 36 28 -12 23 -22 24
-39 3z"/>
<path d="M14 2649 c-3 -6 0 -18 9 -26 12 -12 18 -13 35 -2 16 10 18 16 10 26
-13 16 -44 17 -54 2z"/>
<path d="M18 2523 c-25 -6 -22 -30 3 -38 25 -8 44 7 36 29 -7 16 -9 17 -39 9z"/>
<path d="M4946 2515 c-16 -16 -16 -19 0 -36 17 -19 17 -19 32 2 13 18 13 23 0
36 -13 13 -17 12 -32 -2z"/>
<path d="M20 2385 c-9 -11 -11 -22 -4 -32 13 -21 25 -21 38 -1 8 14 7 21 -5
33 -14 15 -17 15 -29 0z"/>
<path d="M4937 2376 c-3 -8 0 -20 8 -26 19 -16 59 8 43 27 -14 17 -45 17 -51
-1z"/>
<path d="M27 2253 c-12 -12 -7 -31 10 -37 9 -4 23 0 32 9 14 14 14 17 1 25
-18 11 -34 13 -43 3z"/>
<path d="M4927 2246 c-9 -24 18 -39 44 -25 22 11 22 12 4 25 -24 18 -41 18
-48 0z"/>
<path d="M50 2115 c-22 -26 7 -46 39 -26 12 8 12 12 2 25 -17 20 -25 20 -41 1z"/>
<path d="M4910 2115 c-6 -8 -9 -19 -5 -25 9 -15 41 -12 54 4 10 12 8 17 -8 25
-25 14 -26 14 -41 -4z"/>
<path d="M73 1989 c-6 -6 -9 -18 -6 -25 7 -18 37 -18 52 0 10 12 8 17 -8 25
-24 14 -24 14 -38 0z"/>
<path d="M4880 1985 c-15 -18 -5 -35 20 -35 10 0 22 5 25 10 7 11 -12 40 -25
40 -4 0 -13 -7 -20 -15z"/>
<path d="M102 1858 c-13 -13 2 -38 23 -38 21 0 36 25 23 38 -7 7 -17 12 -23
12 -6 0 -16 -5 -23 -12z"/>
<path d="M4857 1863 c-12 -11 -8 -41 6 -46 7 -3 22 2 32 10 20 14 20 14 1 29
-22 16 -30 17 -39 7z"/>
<path d="M141 1731 c-16 -28 14 -51 36 -28 13 13 14 19 3 31 -17 21 -27 20
-39 -3z"/>
<path d="M4817 1733 c-24 -23 12 -55 38 -33 12 10 13 16 4 26 -12 15 -31 18
-42 7z"/>
<path d="M191 1606 c-18 -22 4 -62 25 -45 18 15 18 33 0 48 -10 9 -16 8 -25
-3z"/>
<path d="M4769 1604 c-11 -14 -10 -18 6 -30 13 -10 22 -11 32 -3 18 16 16 26
-6 38 -14 8 -22 7 -32 -5z"/>
<path d="M234 1479 c-3 -6 0 -18 9 -26 12 -12 19 -13 36 -3 18 9 20 14 10 26
-14 17 -45 19 -55 3z"/>
<path d="M4713 1474 c-3 -8 1 -22 9 -30 13 -13 16 -13 27 0 7 9 11 23 7 31 -7
20 -35 19 -43 -1z"/>
<path d="M301 1368 c-11 -17 -10 -23 2 -35 18 -18 37 -9 37 16 0 31 -24 43
-39 19z"/>
<path d="M4654 1355 c-4 -9 -2 -21 4 -27 15 -15 44 -1 40 19 -4 23 -36 29 -44
8z"/>
<path d="M370 1245 c-15 -18 -5 -35 20 -35 10 0 22 5 25 10 7 11 -12 40 -25
40 -4 0 -13 -7 -20 -15z"/>
<path d="M4590 1245 c-15 -18 -5 -35 20 -35 10 0 22 5 25 10 7 11 -12 40 -25
40 -4 0 -13 -7 -20 -15z"/>
<path d="M4520 1134 c-11 -12 -10 -18 3 -32 16 -15 18 -15 34 0 13 14 14 20 3
32 -7 9 -16 16 -20 16 -4 0 -13 -7 -20 -16z"/>
<path d="M434 1129 c-3 -6 1 -18 10 -27 15 -15 17 -15 32 0 9 9 13 21 10 27
-9 14 -43 14 -52 0z"/>
<path d="M520 1025 c-9 -11 -11 -22 -4 -32 13 -21 25 -21 38 -1 8 14 7 21 -5
33 -14 15 -17 15 -29 0z"/>
<path d="M4440 1025 c-10 -13 -9 -19 6 -36 l18 -20 12 23 c20 37 -10 64 -36
33z"/>
<path d="M601 921 c-16 -28 14 -51 36 -28 13 13 14 19 3 31 -17 21 -27 20 -39
-3z"/>
<path d="M4355 919 c-7 -20 7 -38 27 -39 13 0 19 20 13 40 -8 26 -32 26 -40
-1z"/>
<path d="M687 816 c-3 -8 0 -20 8 -26 19 -16 59 8 43 27 -14 17 -45 17 -51 -1z"/>
<path d="M4264 819 c-3 -6 0 -17 8 -25 12 -12 17 -12 32 -1 11 8 16 19 12 25
-9 15 -43 15 -52 1z"/>
<path d="M4175 730 c-8 -24 1 -40 21 -40 20 0 29 27 14 45 -17 20 -27 19 -35
-5z"/>
<path d="M787 733 c-24 -23 12 -55 38 -33 12 10 13 16 4 26 -12 15 -31 18 -42
7z"/>
<path d="M887 643 c-24 -23 12 -55 38 -33 12 10 13 16 4 26 -12 15 -31 18 -42
7z"/>
<path d="M4077 643 c-24 -23 12 -55 38 -33 12 10 13 16 4 26 -12 15 -31 18
-42 7z"/>
<path d="M990 555 c-19 -22 5 -48 31 -34 10 5 19 14 19 19 0 5 -9 14 -19 19
-14 8 -22 7 -31 -4z"/>
<path d="M3971 556 c-9 -11 -8 -18 5 -30 15 -16 18 -16 35 0 18 16 18 18 1 30
-22 17 -27 17 -41 0z"/>
<path d="M1101 486 c-16 -19 -7 -46 14 -46 22 0 30 29 13 46 -13 13 -16 13
-27 0z"/>
<path d="M3861 476 c-14 -17 11 -41 34 -32 20 7 19 32 -1 40 -21 8 -20 8 -33
-8z"/>
<path d="M3749 409 c-9 -17 -8 -24 4 -36 12 -13 16 -12 30 2 14 13 14 20 4 35
-15 25 -24 25 -38 -1z"/>
<path d="M1210 405 c-19 -22 5 -48 31 -34 10 5 19 14 19 19 0 5 -9 14 -19 19
-14 8 -22 7 -31 -4z"/>
<path d="M1327 343 c-24 -23 12 -55 38 -33 12 10 13 16 4 26 -12 15 -31 18
-42 7z"/>
<path d="M3637 343 c-11 -10 -8 -41 4 -49 6 -3 18 1 27 9 13 13 13 19 2 31
-14 17 -23 20 -33 9z"/>
<path d="M1441 282 c-7 -13 -6 -23 1 -30 28 -28 63 3 38 33 -16 20 -27 19 -39
-3z"/>
<path d="M3517 293 c-11 -10 -8 -41 4 -49 6 -3 18 1 27 9 13 13 13 19 2 31
-14 17 -23 20 -33 9z"/>
<path d="M1567 233 c-24 -23 12 -55 38 -33 12 10 13 16 4 26 -12 15 -31 18
-42 7z"/>
<path d="M3390 224 c-11 -12 -10 -18 3 -31 22 -23 52 0 36 28 -12 23 -22 24
-39 3z"/>
<path d="M3265 180 c-6 -20 0 -40 13 -40 20 1 34 19 27 39 -8 27 -32 27 -40 1z"/>
<path d="M1684 179 c-3 -6 0 -18 9 -26 12 -12 19 -13 36 -3 18 9 20 14 10 26
-14 17 -45 19 -55 3z"/>
<path d="M3142 149 c-17 -27 2 -56 24 -38 18 14 18 33 1 47 -10 8 -16 6 -25
-9z"/>
<path d="M1820 145 c-11 -13 -11 -19 3 -33 20 -19 41 -5 35 24 -4 24 -22 28
-38 9z"/>
<path d="M1950 115 c-15 -18 -6 -45 14 -45 20 0 29 16 21 40 -8 24 -18 25 -35
5z"/>
<path d="M3001 107 c-9 -11 -8 -17 4 -27 19 -16 47 -5 43 17 -4 23 -31 28 -47
10z"/>
<path d="M2080 84 c-11 -12 -11 -18 1 -30 13 -12 18 -12 34 0 16 12 17 16 6
30 -17 20 -25 20 -41 0z"/>
<path d="M2880 85 c-9 -11 -11 -22 -4 -32 13 -21 25 -21 38 -1 8 14 7 21 -5
33 -14 15 -17 15 -29 0z"/>
<path d="M2210 64 c-11 -12 -10 -18 4 -32 16 -16 18 -16 31 2 11 14 12 23 4
33 -15 17 -24 16 -39 -3z"/>
<path d="M2612 63 c-12 -24 -4 -43 18 -43 25 0 33 15 20 40 -13 25 -26 26 -38
3z"/>
<path d="M2751 71 c-16 -10 -8 -41 11 -41 7 0 19 4 27 9 12 8 12 12 2 25 -15
18 -21 19 -40 7z"/>
<path d="M2353 63 c-17 -6 -17 -38 0 -51 20 -17 44 25 25 43 -7 7 -19 11 -25
8z"/>
<path d="M2470 51 c0 -37 32 -55 44 -25 10 27 7 34 -19 34 -14 0 -25 -4 -25
-9z"/>
</g>
</svg>
