<?xml version="1.0" standalone="no"?>
<!DOCTYPE svg PUBLIC "-//W3C//DTD SVG 20010904//EN"
 "http://www.w3.org/TR/2001/REC-SVG-20010904/DTD/svg10.dtd">
<svg version="1.0" xmlns="http://www.w3.org/2000/svg"
 width="500.000000pt" height="500.000000pt" viewBox="0 0 500.000000 500.000000"
 preserveAspectRatio="xMidYMid meet">
<metadata>
Created by potrace 1.15, written by Peter Selinger 2001-2017
</metadata>
<g transform="translate(0.000000,500.000000) scale(0.100000,-0.100000)"
fill="#000000" stroke="none">
<path d="M2346 4974 c-5 -14 9 -54 19 -54 2 0 9 9 15 21 9 15 8 24 -1 35 -15
18 -25 18 -33 -2z"/>
<path d="M2482 4982 c-17 -11 -4 -42 18 -42 10 0 23 6 29 14 10 12 8 17 -8 25
-23 13 -23 13 -39 3z"/>
<path d="M2617 4983 c-12 -11 -8 -41 6 -46 7 -3 22 2 32 10 20 14 20 14 1 29
-22 16 -30 17 -39 7z"/>
<path d="M2221 4966 c-14 -16 -9 -46 7 -46 5 0 15 7 22 16 11 12 11 18 -2 30
-13 13 -16 13 -27 0z"/>
<path d="M2750 4965 c-15 -18 -5 -35 20 -35 10 0 22 5 25 10 7 11 -12 40 -25
40 -4 0 -13 -7 -20 -15z"/>
<path d="M2880 4950 c-14 -26 0 -46 24 -37 20 8 21 31 2 46 -12 10 -17 8 -26
-9z"/>
<path d="M2082 4948 c-7 -9 -7 -20 2 -36 11 -20 14 -21 25 -8 14 17 11 48 -5
53 -6 2 -16 -2 -22 -9z"/>
<path d="M3010 4924 c-11 -12 -10 -18 3 -32 16 -15 18 -15 34 0 13 14 14 20 3
32 -7 9 -16 16 -20 16 -4 0 -13 -7 -20 -16z"/>
<path d="M1945 4920 c-3 -5 -1 -19 6 -31 10 -19 12 -20 26 -6 9 9 13 23 10 31
-7 18 -32 21 -42 6z"/>
<path d="M3140 4895 c-11 -13 -11 -19 3 -33 20 -19 41 -5 35 24 -4 24 -22 28
-38 9z"/>
<path d="M1817 4886 c-9 -24 18 -39 44 -25 22 11 22 12 4 25 -24 18 -41 18
-48 0z"/>
<path d="M1692 4847 c-9 -10 -8 -18 3 -33 15 -19 15 -19 30 1 8 10 14 24 12
30 -6 16 -33 17 -45 2z"/>
<path d="M3271 4846 c-14 -17 9 -39 33 -30 20 8 21 30 0 38 -21 8 -20 8 -33
-8z"/>
<path d="M1571 4806 c-18 -22 4 -62 25 -45 18 15 18 33 0 48 -10 9 -16 8 -25
-3z"/>
<path d="M3397 4813 c-12 -11 -8 -41 6 -46 7 -3 21 1 32 9 18 14 18 14 -1 29
-22 16 -28 18 -37 8z"/>
<path d="M1441 4751 c-13 -23 8 -45 33 -35 19 7 21 25 4 42 -17 17 -26 15 -37
-7z"/>
<path d="M3517 4753 c-24 -23 12 -55 38 -33 12 10 13 16 4 26 -12 15 -31 18
-42 7z"/>
<path d="M1327 4703 c-11 -10 -8 -41 4 -49 6 -3 18 1 27 9 13 13 13 19 2 31
-14 17 -23 20 -33 9z"/>
<path d="M3636 4691 c-7 -11 3 -41 13 -41 4 0 16 7 27 15 16 13 17 16 4 25
-19 12 -37 13 -44 1z"/>
<path d="M3752 4630 c-14 -23 -8 -40 12 -40 24 0 36 23 22 43 -17 22 -18 21
-34 -3z"/>
<path d="M1210 4625 c-17 -21 6 -61 26 -44 18 15 18 45 0 52 -8 3 -20 0 -26
-8z"/>
<path d="M1100 4555 c-19 -22 5 -48 31 -34 10 5 19 14 19 19 0 5 -9 14 -19 19
-14 8 -22 7 -31 -4z"/>
<path d="M3855 4554 c-19 -14 -19 -14 1 -29 25 -19 31 -19 44 5 14 27 -17 44
-45 24z"/>
<path d="M991 4476 c-18 -22 4 -62 25 -45 18 15 18 33 0 48 -10 9 -16 8 -25
-3z"/>
<path d="M3973 4479 c-27 -27 13 -51 47 -29 13 8 12 11 -5 24 -24 19 -28 19
-42 5z"/>
<path d="M880 4381 c0 -24 13 -33 35 -25 23 9 14 38 -13 42 -16 3 -22 -2 -22
-17z"/>
<path d="M4074 4389 c-3 -6 0 -17 8 -25 12 -12 17 -12 33 1 17 13 18 16 5 25
-20 13 -37 13 -46 -1z"/>
<path d="M1783 4344 c-12 -3 -24 -12 -27 -21 -5 -11 -1 -14 13 -10 45 11 46
-4 12 -159 -30 -142 -42 -169 -68 -160 -9 4 -23 -14 -23 -30 0 -9 207 -3 250
7 103 23 172 111 174 221 1 43 -4 64 -20 85 -39 52 -77 66 -188 69 -55 1 -111
0 -123 -2z m222 -48 c58 -38 55 -165 -5 -238 -38 -45 -105 -73 -155 -64 -32 6
-36 10 -31 29 3 12 17 78 31 147 17 79 33 130 43 138 21 17 83 10 117 -12z"/>
<path d="M2677 4343 c-13 -12 -7 -23 13 -23 17 0 19 -5 14 -27 -14 -63 -15
-65 -40 -59 -63 16 -146 -38 -178 -116 -21 -50 -20 -86 4 -125 25 -42 74 -45
118 -8 l30 25 6 -25 c5 -20 13 -25 39 -25 31 0 57 14 57 32 0 4 -10 7 -22 5
-27 -2 -28 -19 15 191 l34 162 -42 0 c-23 0 -45 -3 -48 -7z m-8 -147 c14 -17
6 -76 -17 -121 -38 -77 -90 -98 -117 -46 -14 27 -13 33 11 88 14 32 33 66 41
76 19 21 66 22 82 3z"/>
<path d="M791 4307 c-26 -26 -2 -53 32 -35 22 11 22 20 -2 35 -14 9 -21 9 -30
0z"/>
<path d="M4177 4313 c-11 -11 -8 -40 6 -51 19 -16 43 24 26 44 -13 15 -22 18
-32 7z"/>
<path d="M3036 4271 c-14 -22 -36 -41 -50 -45 -31 -8 -34 -26 -6 -33 24 -6 24
-3 0 -113 -11 -49 -17 -96 -14 -104 9 -24 77 -21 100 5 19 21 19 21 -17 14
l-35 -7 20 101 20 100 34 6 c37 7 39 28 3 33 -21 3 -23 7 -17 43 8 50 -7 50
-38 0z"/>
<path d="M2265 4226 c-68 -29 -124 -129 -109 -193 18 -77 74 -97 133 -48 l30
26 3 -23 c2 -18 10 -24 36 -26 32 -3 62 11 62 29 0 5 -11 7 -25 3 -30 -8 -30
-11 0 106 14 52 25 100 25 107 0 13 -61 33 -100 33 -14 -1 -39 -7 -55 -14z
m95 -45 c0 -37 -31 -121 -56 -151 -32 -38 -70 -40 -86 -6 -13 29 2 102 29 143
34 51 113 61 113 14z"/>
<path d="M3231 4218 c-77 -41 -112 -139 -76 -208 20 -38 43 -50 97 -50 101 0
180 108 149 203 -25 73 -94 96 -170 55z m109 -27 c23 -44 -4 -169 -43 -196
-43 -30 -87 -11 -100 42 -8 36 30 147 57 165 23 16 75 8 86 -11z"/>
<path d="M686 4211 c-8 -12 4 -41 16 -41 5 0 19 5 30 11 21 11 21 12 3 25 -22
16 -41 18 -49 5z"/>
<path d="M4261 4207 c-9 -11 -8 -17 4 -27 19 -16 47 -5 43 17 -4 23 -31 28
-47 10z"/>
<path d="M595 4110 c-7 -12 12 -50 25 -50 13 0 28 32 23 48 -5 14 -39 16 -48
2z"/>
<path d="M4354 4109 c-9 -16 20 -41 39 -33 21 8 22 30 1 38 -23 9 -32 7 -40
-5z"/>
<path d="M523 4013 c-18 -7 -16 -43 3 -50 18 -7 35 14 31 36 -2 16 -16 22 -34
14z"/>
<path d="M4443 4009 c-16 -16 -5 -39 17 -39 25 0 35 18 20 35 -15 18 -22 19
-37 4z"/>
<path d="M434 3895 c-13 -32 32 -49 55 -21 10 12 8 17 -8 25 -27 15 -41 14
-47 -4z"/>
<path d="M4516 3901 c-10 -15 5 -41 23 -41 29 0 43 21 23 36 -20 16 -39 18
-46 5z"/>
<path d="M4591 3792 c-7 -13 -6 -23 1 -30 27 -27 54 -3 36 31 -11 22 -25 22
-37 -1z"/>
<path d="M371 3791 c-16 -10 -8 -41 11 -41 7 0 19 4 27 9 12 8 12 12 2 25 -15
18 -21 19 -40 7z"/>
<path d="M1128 3698 c-20 -5 -55 -25 -77 -45 -107 -91 -122 -259 -28 -325 62
-44 210 -29 238 24 10 18 9 20 -7 13 -106 -42 -154 -43 -194 0 -43 46 -37 162
12 235 33 48 70 72 120 77 58 7 83 -15 73 -64 -5 -28 -3 -33 13 -33 15 0 21 9
26 38 4 20 9 44 12 54 4 13 -6 19 -46 27 -59 13 -91 13 -142 -1z"/>
<path d="M3128 3696 c-53 -19 -82 -40 -114 -81 -103 -136 -46 -315 102 -315
63 0 160 38 142 55 -2 3 -30 -3 -61 -12 -68 -19 -110 -11 -139 28 -67 90 7
284 116 304 22 5 51 4 65 -2 23 -8 26 -14 24 -51 -1 -35 1 -42 16 -42 12 0 20
10 24 29 3 16 9 40 12 53 6 23 3 26 -39 37 -58 14 -102 13 -148 -3z"/>
<path d="M2237 3693 c-12 -11 -8 -23 8 -23 21 0 19 -20 -15 -182 -37 -172 -37
-180 -8 -176 17 2 25 14 33 48 22 86 85 180 120 180 19 0 19 -27 -1 -106 -26
-105 -13 -136 52 -120 29 8 32 26 4 26 -25 0 -25 0 0 102 25 106 25 114 -4
133 -22 15 -27 15 -54 1 -17 -9 -44 -32 -61 -53 -36 -44 -38 -36 -11 75 11 46
20 87 20 93 0 10 -73 13 -83 2z"/>
<path d="M4093 3693 c-20 -7 -15 -20 8 -26 17 -5 20 -11 15 -29 -3 -13 -6 -31
-6 -40 0 -15 -9 -18 -54 -18 -65 0 -110 -27 -143 -85 -29 -51 -31 -133 -5
-166 27 -32 75 -30 111 5 l28 27 7 -25 c8 -31 35 -40 70 -25 31 14 36 40 6 32
-11 -3 -20 0 -20 6 0 6 16 84 35 174 19 89 35 165 35 170 0 8 -68 8 -87 0z
m-14 -142 c10 -7 12 -21 8 -55 -9 -62 -39 -117 -76 -139 -29 -17 -31 -17 -51
3 -11 11 -20 29 -20 40 0 28 48 133 67 148 20 14 52 16 72 3z"/>
<path d="M300 3665 c-11 -13 -11 -19 4 -33 15 -15 18 -15 26 -2 22 33 -6 64
-30 35z"/>
<path d="M4654 3665 c-4 -9 -2 -21 4 -27 15 -15 44 -1 40 19 -4 23 -36 29 -44
8z"/>
<path d="M1748 3625 c-11 -20 -33 -42 -49 -51 -34 -17 -38 -34 -9 -34 24 0 24
-4 1 -108 -21 -90 -19 -118 9 -127 22 -7 61 8 79 29 12 14 10 15 -18 10 -38
-8 -38 -5 -14 111 17 82 18 84 50 90 39 7 44 25 7 25 -26 0 -27 1 -21 45 8 55
-6 59 -35 10z"/>
<path d="M2103 3648 c-4 -7 -13 -22 -18 -33 -6 -11 -25 -27 -42 -35 -36 -17
-44 -40 -13 -40 24 0 24 -3 0 -113 -21 -94 -19 -113 12 -123 23 -7 74 12 82
32 4 10 -2 12 -24 7 -36 -7 -35 -8 -13 108 16 87 17 87 50 94 39 7 44 25 7 25
-26 0 -27 1 -21 45 6 44 -3 59 -20 33z"/>
<path d="M2631 3572 c-58 -23 -102 -77 -108 -136 -10 -86 14 -126 76 -126 51
0 131 28 131 46 0 12 -4 13 -22 3 -77 -41 -136 -19 -129 48 0 6 33 21 71 32
77 24 110 49 110 84 0 28 -9 41 -37 56 -28 14 -39 14 -92 -7z m67 -42 c4 -36
-17 -59 -71 -75 -53 -16 -56 -11 -31 41 31 64 96 86 102 34z"/>
<path d="M3420 3568 c-121 -61 -134 -233 -20 -257 49 -10 97 3 132 36 79 74
75 194 -7 229 -45 19 -53 18 -105 -8z m87 -16 c27 -17 34 -62 18 -117 -20 -69
-49 -105 -82 -105 -34 0 -63 26 -63 56 0 45 22 124 41 149 20 25 61 33 86 17z"/>
<path d="M1353 3573 c-18 -7 -16 -23 1 -23 25 0 26 -14 5 -94 -25 -99 -23
-140 10 -144 42 -6 70 8 105 53 l34 46 -1 -48 c-2 -46 -1 -48 28 -51 17 -2 39
4 50 12 19 15 19 15 -7 16 -16 0 -28 3 -28 8 0 4 11 53 25 110 30 123 30 122
7 122 -22 0 -42 -19 -42 -40 0 -50 -97 -190 -131 -190 -15 0 -10 59 11 140 11
41 20 78 20 83 0 8 -68 8 -87 0z"/>
<path d="M3668 3573 c-22 -5 -24 -23 -4 -23 26 0 27 -17 6 -111 -26 -121 -26
-131 3 -127 17 2 25 13 33 49 15 58 36 100 75 144 36 40 45 43 52 15 6 -25 37
-16 37 10 0 10 3 25 6 34 5 13 -1 16 -26 16 -24 0 -41 -9 -66 -36 -19 -19 -34
-40 -34 -45 0 -5 -5 -9 -11 -9 -6 0 -8 8 -5 18 21 70 20 72 -15 71 -19 -1 -42
-3 -51 -6z"/>
<path d="M237 3547 c-3 -9 1 -23 9 -34 14 -17 14 -17 29 2 8 10 14 24 12 30
-6 16 -44 18 -50 2z"/>
<path d="M4714 3545 c-13 -32 23 -48 47 -19 10 13 10 17 -2 25 -21 13 -39 11
-45 -6z"/>
<path d="M4771 3431 c-8 -14 -7 -22 5 -32 20 -16 38 2 29 30 -8 26 -21 27 -34
2z"/>
<path d="M193 3429 c-13 -13 -6 -39 11 -39 6 0 17 4 25 9 12 8 12 12 2 25 -16
19 -23 20 -38 5z"/>
<path d="M137 3298 c-2 -8 2 -23 10 -33 14 -20 14 -20 29 0 8 10 13 24 11 30
-5 15 -44 18 -50 3z"/>
<path d="M4814 3299 c-3 -6 1 -18 10 -27 15 -15 17 -15 32 0 19 19 11 38 -16
38 -10 0 -22 -5 -26 -11z"/>
<path d="M113 3183 c-16 -6 -17 -29 -3 -38 13 -8 50 3 50 15 0 13 -32 28 -47
23z"/>
<path d="M4860 3175 c-19 -22 5 -48 31 -34 10 5 19 14 19 19 0 5 -9 14 -19 19
-14 8 -22 7 -31 -4z"/>
<path d="M75 3050 c-4 -12 -1 -28 6 -36 12 -14 14 -14 25 1 10 13 10 21 1 36
-15 24 -24 24 -32 -1z"/>
<path d="M4890 3044 c-11 -12 -11 -18 1 -30 13 -12 18 -12 34 0 16 12 17 16 6
30 -17 20 -25 20 -41 0z"/>
<path d="M51 2926 c-16 -19 -7 -46 14 -46 22 0 30 29 13 46 -13 13 -16 13 -27
0z"/>
<path d="M4917 2922 c-15 -16 -15 -21 -3 -38 14 -18 16 -18 32 -2 15 14 15 18
2 37 -14 20 -15 20 -31 3z"/>
<path d="M32 2789 c-17 -27 2 -56 24 -38 18 14 18 33 1 47 -10 8 -16 6 -25 -9z"/>
<path d="M4933 2787 c-10 -21 -9 -28 3 -38 12 -10 18 -9 30 3 13 13 13 17 -3
37 l-19 23 -11 -25z"/>
<path d="M2798 2760 c-118 -21 -178 -50 -252 -121 -94 -89 -128 -154 -128
-244 1 -97 33 -161 111 -219 34 -24 75 -47 92 -51 41 -9 33 -24 -26 -46 -250
-91 -718 -259 -725 -259 -4 0 -31 31 -59 69 -118 159 -245 231 -412 231 -89 0
-159 -19 -251 -67 -124 -65 -197 -148 -236 -268 -43 -132 -37 -148 35 -95 70
52 173 82 299 88 102 4 120 2 203 -23 89 -27 140 -62 127 -84 -13 -21 -143
-91 -213 -116 -139 -48 -289 -56 -421 -21 -51 13 -52 13 -52 -9 0 -33 55 -137
101 -189 53 -60 179 -142 249 -163 80 -23 183 -13 306 32 120 44 157 67 256
163 74 71 79 74 115 70 77 -11 730 -273 767 -308 4 -5 -5 -15 -20 -23 -48 -25
-121 -105 -150 -162 -23 -48 -26 -64 -23 -133 3 -66 10 -90 39 -148 29 -58 45
-76 96 -110 78 -52 235 -105 334 -111 123 -9 231 31 328 121 80 74 107 160 78
258 -36 126 -126 204 -386 336 -340 172 -870 465 -870 481 0 3 15 14 33 25
106 62 635 352 757 415 247 129 371 223 407 310 50 115 -8 264 -126 326 -77
39 -282 64 -383 45z m272 -67 c30 -7 71 -24 90 -37 51 -34 110 -96 117 -124
10 -43 -5 -103 -41 -158 -68 -102 -203 -190 -656 -428 -47 -24 -125 -67 -175
-95 -49 -28 -157 -86 -240 -128 -159 -83 -191 -109 -400 -334 -108 -116 -281
-188 -423 -175 -171 16 -305 94 -374 220 -28 51 -24 57 28 39 91 -31 389 12
510 73 51 26 154 113 154 130 -1 32 -116 104 -224 139 -76 25 -95 27 -188 23
-123 -6 -188 -28 -279 -94 -53 -39 -60 -42 -54 -22 16 50 92 176 134 221 115
124 386 177 529 103 100 -51 202 -166 202 -228 0 -16 -7 -44 -14 -63 -8 -19
-14 -35 -12 -35 25 0 961 345 994 366 31 21 28 44 -6 44 -16 0 -52 7 -81 16
-64 19 -114 66 -158 151 -58 107 -40 184 67 293 67 67 135 106 212 119 65 12
214 3 288 -16z m-910 -1141 c52 -32 142 -83 200 -114 58 -31 157 -88 220 -128
127 -79 339 -187 469 -239 72 -29 95 -45 155 -105 78 -77 126 -161 126 -219 0
-46 -51 -144 -95 -183 -42 -37 -82 -50 -206 -65 -172 -20 -294 21 -390 132
-86 99 -89 105 -89 180 0 103 33 157 140 232 47 32 97 61 113 64 15 3 30 9 32
13 5 7 -338 148 -585 240 -96 36 -340 150 -340 159 0 6 140 91 150 91 3 0 48
-26 100 -58z"/>
<path d="M2810 2641 c-126 -42 -229 -139 -245 -232 -16 -94 13 -147 107 -195
89 -45 246 -27 365 43 56 32 148 133 163 178 24 71 -38 155 -139 190 -53 18
-214 29 -251 16z m197 -46 c101 -30 170 -106 145 -160 -14 -31 -133 -129 -190
-156 -24 -12 -77 -25 -117 -30 -95 -10 -164 8 -213 57 -30 30 -34 39 -29 71 4
20 23 61 43 91 83 119 222 168 361 127z"/>
<path d="M1775 1675 c-14 -13 -25 -35 -25 -49 0 -32 40 -61 71 -51 l22 7 -24
19 c-29 22 -19 34 29 34 28 0 37 4 40 19 10 47 -73 62 -113 21z"/>
<path d="M2775 1016 c-62 -18 -128 -84 -145 -146 -9 -34 -8 -50 4 -86 39 -114
111 -170 255 -199 143 -29 284 -1 332 66 75 106 -23 287 -189 349 -72 28 -190
35 -257 16z m233 -51 c30 -14 77 -49 107 -79 102 -105 108 -194 15 -246 -39
-22 -56 -25 -135 -24 -260 3 -411 195 -251 318 83 63 173 73 264 31z"/>
<path d="M21 2658 c-11 -17 -10 -23 2 -35 18 -18 37 -9 37 16 0 31 -24 43 -39
19z"/>
<path d="M4942 2648 c-13 -13 2 -38 23 -38 21 0 36 25 23 38 -7 7 -17 12 -23
12 -6 0 -16 -5 -23 -12z"/>
<path d="M4952 2528 c-16 -16 -15 -45 2 -51 23 -9 39 18 26 42 -13 25 -12 25
-28 9z"/>
<path d="M18 2523 c-25 -6 -22 -30 3 -38 25 -8 44 7 36 29 -7 16 -9 17 -39 9z"/>
<path d="M20 2390 c-13 -25 3 -52 26 -43 18 7 18 37 0 52 -12 10 -17 8 -26 -9z"/>
<path d="M4937 2378 c-2 -8 2 -23 10 -33 14 -20 14 -20 29 0 8 10 13 24 11 30
-5 15 -44 18 -50 3z"/>
<path d="M4931 2251 c-8 -14 -7 -22 4 -31 22 -19 48 5 34 31 -5 10 -14 19 -19
19 -5 0 -14 -9 -19 -19z"/>
<path d="M25 2250 c-7 -11 11 -40 24 -40 3 0 12 4 20 9 12 8 12 12 2 25 -15
18 -37 21 -46 6z"/>
<path d="M50 2116 c-10 -13 -10 -19 0 -31 7 -8 16 -15 20 -15 15 0 20 34 7 47
-12 12 -16 12 -27 -1z"/>
<path d="M4913 2119 c-6 -6 -9 -18 -6 -25 7 -18 37 -18 52 0 10 12 8 17 -8 25
-24 14 -24 14 -38 0z"/>
<path d="M71 1992 c-15 -28 13 -52 35 -30 13 13 12 16 -5 32 -19 17 -20 17
-30 -2z"/>
<path d="M4879 1984 c-10 -13 -10 -17 2 -25 8 -5 20 -9 27 -9 19 0 27 31 11
41 -19 12 -25 11 -40 -7z"/>
<path d="M102 1858 c-13 -13 2 -38 23 -38 21 0 36 25 23 38 -7 7 -17 12 -23
12 -6 0 -16 -5 -23 -12z"/>
<path d="M4857 1863 c-12 -11 -8 -40 7 -52 12 -10 17 -8 26 9 16 29 -12 65
-33 43z"/>
<path d="M137 1726 c-6 -15 11 -36 29 -36 21 0 35 25 22 38 -16 16 -45 15 -51
-2z"/>
<path d="M4815 1730 c-8 -12 3 -50 14 -50 15 0 33 30 27 45 -6 17 -32 20 -41
5z"/>
<path d="M190 1605 c-15 -18 -5 -35 20 -35 10 0 22 5 25 10 7 11 -12 40 -25
40 -4 0 -13 -7 -20 -15z"/>
<path d="M4770 1605 c-11 -14 -10 -19 7 -37 l21 -20 7 22 c5 14 2 27 -7 37
-13 12 -16 12 -28 -2z"/>
<path d="M242 1478 c-7 -7 -8 -17 -1 -30 13 -24 26 -23 40 3 9 17 8 23 -2 30
-18 11 -23 11 -37 -3z"/>
<path d="M4714 1475 c-10 -24 12 -42 34 -29 24 16 21 38 -6 42 -13 2 -25 -3
-28 -13z"/>
<path d="M297 1356 c-9 -23 18 -39 43 -26 17 9 19 14 9 26 -15 18 -45 18 -52
0z"/>
<path d="M4654 1359 c-3 -6 1 -18 10 -27 15 -15 17 -15 32 0 19 19 11 38 -16
38 -10 0 -22 -5 -26 -11z"/>
<path d="M370 1245 c-15 -18 -5 -35 20 -35 10 0 22 5 25 10 7 11 -12 40 -25
40 -4 0 -13 -7 -20 -15z"/>
<path d="M4592 1247 c-9 -10 -7 -19 5 -36 l16 -24 13 24 c19 36 -10 66 -34 36z"/>
<path d="M441 1138 c-11 -17 -10 -23 2 -35 18 -18 37 -9 37 16 0 31 -24 43
-39 19z"/>
<path d="M4520 1134 c-11 -12 -10 -18 3 -32 16 -15 18 -15 34 0 13 14 14 20 3
32 -7 9 -16 16 -20 16 -4 0 -13 -7 -20 -16z"/>
<path d="M523 1033 c-17 -6 -16 -28 0 -42 10 -8 19 -7 32 3 16 12 17 16 6 30
-14 17 -18 18 -38 9z"/>
<path d="M4440 1024 c-11 -12 -10 -18 3 -32 16 -15 18 -15 34 0 13 14 14 20 3
32 -7 9 -16 16 -20 16 -4 0 -13 -7 -20 -16z"/>
<path d="M600 924 c-11 -12 -10 -18 3 -31 22 -23 52 0 36 28 -12 23 -22 24
-39 3z"/>
<path d="M4361 916 c-9 -10 -8 -16 4 -26 13 -11 19 -11 32 2 16 17 10 38 -11
38 -8 0 -19 -6 -25 -14z"/>
<path d="M687 823 c-10 -9 -8 -15 8 -37 15 -20 15 -20 29 0 21 27 -13 61 -37
37z"/>
<path d="M4264 819 c-3 -6 0 -17 8 -25 12 -12 17 -12 32 -1 11 8 16 19 12 25
-9 15 -43 15 -52 1z"/>
<path d="M787 733 c-24 -23 12 -55 38 -33 12 10 13 16 4 26 -12 15 -31 18 -42
7z"/>
<path d="M4175 730 c-8 -12 3 -50 14 -50 15 0 33 30 27 45 -6 17 -32 20 -41 5z"/>
<path d="M887 643 c-24 -23 12 -55 38 -33 12 10 13 16 4 26 -12 15 -31 18 -42
7z"/>
<path d="M4077 643 c-24 -23 12 -55 38 -33 12 10 13 16 4 26 -12 15 -31 18
-42 7z"/>
<path d="M3976 565 c-10 -28 -7 -45 9 -45 22 0 30 29 13 47 -14 13 -16 13 -22
-2z"/>
<path d="M990 555 c-19 -22 5 -48 31 -34 10 5 19 14 19 19 0 5 -9 14 -19 19
-14 8 -22 7 -31 -4z"/>
<path d="M1101 486 c-16 -19 -7 -46 14 -46 22 0 30 29 13 46 -13 13 -16 13
-27 0z"/>
<path d="M3861 477 c-8 -10 -7 -19 4 -33 13 -18 15 -18 31 -2 14 14 15 20 4
32 -15 19 -24 20 -39 3z"/>
<path d="M1210 405 c-17 -21 6 -61 26 -44 18 15 18 45 0 52 -8 3 -20 0 -26 -8z"/>
<path d="M3750 404 c-11 -12 -11 -18 2 -30 14 -14 17 -14 32 1 13 13 14 20 5
31 -15 18 -24 18 -39 -2z"/>
<path d="M1325 340 c-8 -12 3 -50 14 -50 5 0 14 7 21 15 10 12 10 18 0 30 -14
17 -26 19 -35 5z"/>
<path d="M3634 335 c-13 -32 23 -48 47 -19 10 13 10 17 -2 25 -21 13 -39 11
-45 -6z"/>
<path d="M1441 277 c-8 -10 -7 -19 4 -33 13 -18 15 -18 31 -2 18 18 13 48 -9
48 -8 0 -20 -6 -26 -13z"/>
<path d="M3515 280 c-8 -12 3 -50 14 -50 15 0 33 30 27 45 -6 17 -32 20 -41 5z"/>
<path d="M1564 225 c-12 -29 15 -45 45 -26 12 8 12 12 2 25 -17 20 -40 21 -47
1z"/>
<path d="M3394 225 c-7 -18 3 -35 22 -35 20 0 30 30 13 41 -20 12 -29 11 -35
-6z"/>
<path d="M1687 176 c-9 -23 18 -39 43 -26 17 9 19 14 9 26 -15 18 -45 18 -52
0z"/>
<path d="M3263 174 c-3 -8 1 -22 9 -30 13 -13 16 -13 27 0 7 9 11 23 7 31 -7
20 -35 19 -43 -1z"/>
<path d="M1820 145 c-12 -23 -12 -28 0 -35 20 -13 26 -12 39 4 9 10 7 19 -7
36 l-18 22 -14 -27z"/>
<path d="M3135 140 c-3 -5 -1 -19 6 -31 10 -19 12 -20 26 -6 9 9 13 23 10 31
-7 18 -32 21 -42 6z"/>
<path d="M1947 106 c-8 -19 16 -38 37 -30 20 8 21 30 0 38 -24 9 -31 7 -37 -8z"/>
<path d="M3006 111 c-9 -14 4 -41 19 -41 17 0 38 27 30 40 -8 12 -42 13 -49 1z"/>
<path d="M2080 90 c-13 -25 3 -52 26 -43 18 7 18 37 0 52 -12 10 -17 8 -26 -9z"/>
<path d="M2880 84 c-11 -12 -11 -18 1 -29 13 -13 18 -13 37 1 22 15 22 17 5
30 -23 17 -28 17 -43 -2z"/>
<path d="M2751 76 c-16 -19 -7 -46 14 -46 22 0 30 29 13 46 -13 13 -16 13 -27
0z"/>
<path d="M2217 73 c-11 -10 -8 -41 4 -49 6 -3 18 1 27 9 13 13 13 19 2 31 -14
17 -23 20 -33 9z"/>
<path d="M2351 56 c-10 -12 -10 -20 0 -37 11 -22 12 -22 25 -4 17 24 17 30 0
44 -10 9 -16 8 -25 -3z"/>
<path d="M2611 56 c-15 -18 11 -40 39 -31 25 8 26 21 1 35 -25 13 -26 13 -40
-4z"/>
<path d="M2476 51 c-10 -16 6 -42 23 -39 9 2 17 13 19 26 3 16 -2 22 -17 22
-11 0 -22 -4 -25 -9z"/>
</g>
</svg>
