<?xml version="1.0" standalone="no"?>
<!DOCTYPE svg PUBLIC "-//W3C//DTD SVG 20010904//EN"
 "http://www.w3.org/TR/2001/REC-SVG-20010904/DTD/svg10.dtd">
<svg version="1.0" xmlns="http://www.w3.org/2000/svg"
 width="499.000000pt" height="500.000000pt" viewBox="0 0 499.000000 500.000000"
 preserveAspectRatio="xMidYMid meet">
<metadata>
Created by potrace 1.15, written by Peter Selinger 2001-2017
</metadata>
<g transform="translate(0.000000,500.000000) scale(0.100000,-0.100000)"
fill="#000000" stroke="none">
<path d="M2470 4974 c-11 -12 -10 -18 3 -31 22 -23 52 0 36 28 -12 23 -22 24
-39 3z"/>
<path d="M2611 4976 c-16 -19 -7 -46 14 -46 22 0 30 29 13 46 -13 13 -16 13
-27 0z"/>
<path d="M2341 4966 c-10 -12 -10 -19 2 -36 12 -18 16 -18 26 -6 14 17 11 48
-5 53 -6 2 -17 -3 -23 -11z"/>
<path d="M2740 4960 c-14 -26 0 -46 24 -37 20 8 21 31 2 46 -12 10 -17 8 -26
-9z"/>
<path d="M2211 4957 c-13 -17 -5 -47 14 -47 19 0 28 32 12 47 -12 12 -16 12
-26 0z"/>
<path d="M2874 4943 c-20 -33 7 -58 34 -31 7 7 8 17 1 30 -12 23 -21 23 -35 1z"/>
<path d="M2066 4935 c-18 -14 -18 -15 8 -26 31 -14 50 -2 40 24 -8 21 -23 21
-48 2z"/>
<path d="M1937 4908 c-2 -8 1 -22 9 -33 14 -18 14 -18 29 1 8 10 13 24 11 29
-4 16 -43 18 -49 3z"/>
<path d="M2995 4910 c-7 -11 11 -40 24 -40 3 0 15 7 26 16 17 13 18 16 5 24
-20 13 -47 12 -55 0z"/>
<path d="M1817 4893 c-11 -10 -8 -41 4 -49 6 -3 18 1 27 9 13 13 13 19 2 31
-14 17 -23 20 -33 9z"/>
<path d="M3131 4877 c-8 -10 -7 -18 2 -31 12 -16 14 -16 26 -2 14 16 9 46 -7
46 -5 0 -15 -6 -21 -13z"/>
<path d="M1684 4839 c-3 -6 0 -18 9 -26 14 -14 17 -14 37 0 22 15 22 15 2 26
-26 14 -39 14 -48 0z"/>
<path d="M3254 4835 c-4 -9 0 -24 10 -33 15 -15 18 -15 26 -2 6 8 9 22 7 30
-3 21 -36 25 -43 5z"/>
<path d="M1567 4803 c-11 -10 -8 -41 4 -49 6 -3 18 1 27 9 13 13 13 19 2 31
-14 17 -23 20 -33 9z"/>
<path d="M3387 4803 c-11 -10 -8 -41 4 -49 6 -3 18 1 27 9 13 13 13 19 2 31
-14 17 -23 20 -33 9z"/>
<path d="M1440 4745 c-9 -10 -9 -19 0 -35 11 -20 13 -21 30 -5 20 18 17 40 -5
49 -7 2 -19 -1 -25 -9z"/>
<path d="M3510 4745 c-12 -15 -8 -45 8 -45 4 0 16 6 26 13 16 12 16 14 -2 30
-17 16 -21 16 -32 2z"/>
<path d="M3632 4698 c-15 -15 -15 -45 -1 -54 6 -3 18 0 26 9 14 13 14 18 1 36
-11 16 -17 18 -26 9z"/>
<path d="M1314 4679 c-3 -6 0 -18 9 -26 12 -12 18 -13 35 -2 16 10 18 16 10
26 -13 16 -44 17 -54 2z"/>
<path d="M1211 4626 c-16 -19 -7 -46 14 -46 22 0 30 29 13 46 -13 13 -16 13
-27 0z"/>
<path d="M3742 4623 c-11 -22 -5 -43 13 -43 19 0 27 17 20 40 -8 25 -21 26
-33 3z"/>
<path d="M1095 4543 c-15 -15 -15 -17 -1 -25 17 -9 56 -2 56 10 0 4 -9 13 -20
19 -15 10 -22 10 -35 -4z"/>
<path d="M3851 4546 c-14 -17 11 -41 34 -32 20 7 19 32 -1 40 -21 8 -20 8 -33
-8z"/>
<path d="M984 4465 c-12 -29 15 -45 45 -26 12 8 12 12 2 25 -17 20 -40 21 -47
1z"/>
<path d="M3954 4465 c-9 -22 22 -53 37 -38 15 15 7 47 -14 51 -9 2 -20 -4 -23
-13z"/>
<path d="M875 4380 c-4 -7 -3 -16 3 -22 14 -14 47 -6 47 12 0 18 -40 26 -50
10z"/>
<path d="M4062 4373 c4 -22 43 -25 43 -3 0 8 -11 16 -23 18 -19 3 -23 0 -20
-15z"/>
<path d="M787 4303 c-14 -14 -7 -43 11 -43 30 0 44 21 24 36 -20 15 -26 17
-35 7z"/>
<path d="M4160 4294 c-11 -12 -10 -18 3 -32 16 -15 18 -15 34 0 13 14 14 20 3
32 -7 9 -16 16 -20 16 -4 0 -13 -7 -20 -16z"/>
<path d="M1752 4208 c-28 -28 2 -57 39 -38 24 13 24 19 2 36 -22 17 -26 17
-41 2z"/>
<path d="M2680 4205 c-7 -8 -10 -22 -6 -30 7 -19 40 -19 56 0 11 13 10 18 -6
30 -24 18 -29 18 -44 0z"/>
<path d="M2900 4208 c-16 -8 -33 -33 -45 -65 -16 -41 -26 -53 -47 -57 -32 -6
-38 -26 -9 -26 11 0 22 -4 25 -8 6 -9 -40 -246 -56 -284 -12 -33 -47 -38 -55
-8 -8 29 -30 24 -36 -7 -6 -33 6 -43 50 -43 42 0 90 41 103 88 5 20 19 85 31
145 20 100 23 108 48 113 53 11 57 14 41 24 -8 6 -25 10 -37 10 -26 0 -27 5
-12 49 17 48 62 67 74 31 9 -28 33 -25 41 5 4 14 4 28 1 32 -13 12 -93 13
-117 1z"/>
<path d="M684 4195 c-13 -32 23 -48 47 -19 10 13 10 17 -2 25 -21 13 -39 11
-45 -6z"/>
<path d="M2027 4203 c-13 -13 -7 -23 14 -23 19 0 21 -4 15 -31 -3 -17 -6 -38
-6 -46 0 -10 -8 -12 -34 -7 -94 17 -186 -74 -186 -184 0 -83 78 -123 130 -67
28 30 40 32 40 6 0 -10 7 -21 15 -25 23 -9 73 4 79 21 5 12 1 14 -19 9 -14 -4
-25 -4 -25 -1 0 2 16 80 35 172 19 92 35 171 35 175 0 10 -84 11 -93 1z m-12
-137 c15 -11 17 -22 12 -65 -8 -64 -31 -105 -73 -127 -28 -15 -35 -16 -49 -4
-39 33 3 171 60 199 27 13 28 13 50 -3z"/>
<path d="M4254 4195 c-13 -32 23 -48 47 -19 10 13 10 17 -2 25 -21 13 -39 11
-45 -6z"/>
<path d="M1170 4185 c0 -9 9 -15 25 -15 14 0 25 -5 25 -10 0 -24 -73 -267 -86
-287 -8 -13 -23 -23 -34 -23 -11 0 -20 -5 -20 -10 0 -7 27 -10 73 -8 42 2 71
7 69 13 -2 6 -10 9 -18 7 -8 -2 -17 4 -21 13 -7 20 57 259 67 248 4 -4 13 -55
19 -113 19 -172 19 -172 50 -168 23 3 36 22 103 153 42 83 77 141 77 130 0
-11 -6 -71 -13 -134 -14 -110 -22 -130 -53 -131 -7 0 -13 -4 -13 -10 0 -6 35
-10 85 -10 69 0 85 3 85 15 0 9 -9 15 -25 15 -30 0 -30 6 -15 161 14 139 16
146 45 153 46 12 26 26 -38 26 l-62 0 -74 -147 c-84 -168 -81 -169 -100 2 -18
155 -11 145 -87 145 -50 0 -64 -3 -64 -15z"/>
<path d="M3491 4135 c-11 -20 -29 -38 -38 -42 -10 -3 -24 -11 -32 -17 -11 -9
-10 -12 8 -16 27 -6 26 -2 5 -116 -9 -50 -14 -99 -11 -108 8 -21 70 -21 91 0
23 22 20 26 -14 19 -35 -8 -35 -8 -15 82 9 37 18 78 20 90 3 14 15 24 35 28
37 8 40 35 5 35 -24 0 -25 2 -19 40 8 50 -7 52 -35 5z"/>
<path d="M4350 4105 c-19 -22 5 -48 31 -34 24 12 24 21 0 36 -15 10 -22 9 -31
-2z"/>
<path d="M594 4095 c-10 -24 12 -42 34 -29 24 16 21 38 -6 42 -13 2 -25 -3
-28 -13z"/>
<path d="M2364 4092 c-17 -2 -23 -12 -26 -45 -5 -38 -54 -136 -69 -137 -4 0
-10 30 -14 68 -10 105 -13 112 -45 112 -34 0 -60 -9 -60 -21 0 -5 9 -9 19 -9
21 0 26 -16 36 -115 11 -106 14 -115 41 -115 19 0 30 13 59 70 20 39 40 68 45
65 4 -3 12 -35 15 -71 7 -63 8 -65 33 -62 22 2 37 23 94 123 37 66 68 124 68
128 0 13 -83 3 -88 -10 -2 -8 5 -13 18 -13 26 0 24 -7 -26 -98 -19 -34 -39
-60 -44 -57 -4 3 -11 37 -15 76 -10 99 -16 115 -41 111z"/>
<path d="M3075 4086 c-68 -31 -109 -95 -108 -171 1 -40 5 -53 27 -72 33 -28
96 -31 145 -5 49 24 54 46 7 27 -55 -23 -93 -19 -113 11 -24 37 -9 53 72 79
79 26 110 55 100 94 -12 50 -67 65 -130 37z m69 -21 c12 -12 13 -22 5 -45 -8
-23 -21 -32 -60 -45 -28 -10 -53 -14 -56 -11 -11 10 19 66 49 91 34 29 41 30
62 10z"/>
<path d="M3685 4086 c-62 -27 -95 -85 -95 -162 0 -37 6 -51 30 -76 29 -28 35
-30 86 -26 58 5 101 34 130 90 17 33 18 98 2 133 -23 50 -92 68 -153 41z m86
-25 c28 -22 29 -75 4 -150 -15 -47 -43 -71 -80 -71 -24 0 -55 42 -55 74 1 49
42 139 70 153 32 16 34 16 61 -6z"/>
<path d="M1683 4083 c-20 -8 -15 -23 7 -23 25 0 25 -5 -4 -116 -27 -105 -22
-124 29 -124 24 0 37 6 45 20 10 19 9 20 -14 14 -15 -3 -26 -2 -26 2 0 5 13
60 29 122 l29 112 -42 -1 c-22 0 -47 -3 -53 -6z"/>
<path d="M2610 4075 c-10 -13 -9 -15 9 -15 26 0 26 -7 0 -115 -11 -48 -18 -93
-15 -101 8 -20 80 -18 97 2 12 15 10 16 -20 9 -29 -6 -32 -5 -27 11 3 11 14
57 26 104 12 47 23 93 26 103 5 14 -1 17 -39 17 -27 0 -49 -6 -57 -15z"/>
<path d="M4430 4005 c-15 -18 -6 -45 14 -45 20 0 29 16 21 40 -8 24 -18 25
-35 5z"/>
<path d="M523 4003 c-18 -7 -16 -32 2 -39 23 -9 48 15 34 32 -12 15 -16 16
-36 7z"/>
<path d="M434 3885 c-13 -32 23 -48 47 -19 10 13 10 17 -2 25 -21 13 -39 11
-45 -6z"/>
<path d="M4504 3885 c-12 -29 15 -45 45 -26 12 8 12 12 2 25 -17 20 -40 21
-47 1z"/>
<path d="M367 3783 c-11 -10 -8 -41 4 -49 6 -3 18 1 27 9 13 13 13 19 2 31
-14 17 -23 20 -33 9z"/>
<path d="M4576 3774 c-11 -30 13 -44 43 -25 12 8 12 12 2 25 -17 20 -37 20
-45 0z"/>
<path d="M4647 3673 c-11 -10 -8 -41 4 -49 6 -3 18 1 27 9 13 13 13 19 2 31
-14 17 -23 20 -33 9z"/>
<path d="M300 3655 c-10 -12 -10 -18 0 -31 12 -13 15 -13 28 0 15 15 10 46 -6
46 -5 0 -15 -7 -22 -15z"/>
<path d="M1045 3554 c-117 -43 -188 -201 -136 -306 28 -57 63 -81 125 -86 60
-5 149 24 154 50 3 15 -3 14 -57 -4 -72 -25 -113 -18 -144 23 -60 81 -7 255
90 295 79 33 132 8 118 -57 -6 -25 -4 -29 14 -29 15 0 22 9 26 34 10 53 3 79
-25 87 -42 12 -123 8 -165 -7z"/>
<path d="M3023 3545 c-84 -42 -134 -125 -134 -221 0 -121 82 -183 210 -156 48
10 98 38 87 49 -2 3 -31 -3 -64 -12 -77 -22 -121 -10 -147 39 -25 45 -17 148
16 206 28 50 91 90 140 90 45 0 59 -15 59 -62 0 -26 4 -38 14 -38 19 0 23 7
31 61 7 46 6 47 -26 58 -56 19 -130 14 -186 -14z"/>
<path d="M240 3544 c-11 -12 -10 -18 3 -32 16 -15 18 -15 34 0 13 14 14 20 3
32 -7 9 -16 16 -20 16 -4 0 -13 -7 -20 -16z"/>
<path d="M2163 3553 c-20 -8 -15 -23 7 -23 11 0 20 -6 20 -13 0 -7 -15 -85
-34 -174 -18 -89 -31 -164 -28 -168 3 -3 13 -5 23 -5 12 0 23 16 35 53 33 103
82 177 116 177 17 0 17 -42 -2 -115 -25 -99 -25 -103 5 -117 19 -9 29 -8 50 6
30 20 33 36 5 29 -26 -7 -26 15 0 117 21 83 19 104 -11 120 -27 15 -61 -2
-102 -51 -20 -23 -38 -41 -40 -38 -2 2 7 47 19 99 13 52 24 98 24 103 0 8 -68
8 -87 0z"/>
<path d="M4013 3553 c-20 -8 -15 -23 7 -23 21 0 24 -10 14 -58 -6 -29 -9 -31
-54 -30 -91 0 -155 -61 -167 -160 -12 -107 68 -151 145 -80 l22 21 0 -21 c0
-29 31 -45 64 -32 31 12 37 45 6 35 -11 -3 -20 -5 -20 -3 0 2 16 79 35 171 19
92 35 172 35 177 0 10 -65 13 -87 3z m2 -153 c7 -11 -13 -95 -32 -133 -8 -15
-30 -35 -49 -45 -35 -16 -36 -16 -56 8 -23 28 -19 52 20 125 30 55 65 79 93
64 10 -5 21 -13 24 -19z"/>
<path d="M4701 3536 c-18 -21 11 -41 38 -26 25 13 27 26 5 34 -23 9 -30 8 -43
-8z"/>
<path d="M1675 3480 c-14 -22 -36 -42 -50 -46 -30 -7 -33 -24 -5 -31 11 -3 20
-7 20 -8 0 -2 -9 -46 -20 -99 -11 -53 -17 -102 -14 -110 9 -22 34 -28 71 -15
42 14 46 41 4 33 l-28 -6 20 100 c19 100 20 101 50 104 39 4 49 28 12 28 -27
0 -27 1 -23 45 3 25 2 45 -3 45 -5 0 -20 -18 -34 -40z"/>
<path d="M2015 3480 c-14 -22 -36 -42 -50 -46 -30 -7 -34 -34 -5 -34 11 0 20
-2 20 -4 0 -2 -9 -47 -20 -100 -11 -53 -17 -102 -14 -110 13 -33 73 -28 104 9
13 15 10 16 -25 9 -32 -6 -37 -4 -32 9 3 8 13 53 23 101 17 85 17 86 50 92 41
8 44 21 7 26 -16 2 -27 8 -27 13 1 6 4 25 7 43 9 44 -7 41 -38 -8z"/>
<path d="M2555 3431 c-47 -21 -92 -70 -101 -109 -3 -15 -8 -33 -10 -41 -8 -25
16 -91 38 -102 40 -22 165 5 176 38 2 9 -6 9 -32 -2 -39 -16 -84 -19 -104 -7
-7 5 -14 22 -15 38 -2 28 1 30 80 57 67 24 83 34 93 57 13 32 2 63 -30 80 -27
14 -49 12 -95 -9z m75 -37 c0 -42 -17 -60 -65 -74 -51 -14 -60 -11 -50 19 22
70 115 114 115 55z"/>
<path d="M3344 3431 c-58 -26 -87 -72 -92 -142 -4 -54 -2 -60 26 -89 25 -25
38 -30 78 -30 136 0 212 171 113 254 -36 31 -69 32 -125 7z m101 -34 c17 -27
7 -115 -20 -166 -29 -57 -107 -51 -120 8 -7 34 15 123 40 159 22 31 79 31 100
-1z"/>
<path d="M1288 3433 c-24 -6 -23 -19 3 -26 15 -4 20 -11 15 -22 -3 -9 -13 -53
-23 -99 -20 -96 -13 -116 40 -116 23 0 41 11 73 45 l42 46 -5 -40 c-7 -47 9
-59 59 -45 39 12 52 38 14 28 -32 -8 -32 -5 -1 116 14 52 25 101 25 108 0 18
-41 11 -50 -8 -4 -8 -17 -35 -28 -60 -31 -68 -85 -144 -105 -148 -23 -5 -23
33 3 134 11 44 20 82 20 87 0 7 -53 8 -82 0z"/>
<path d="M3584 3425 c-19 -14 -18 -14 4 -15 27 0 27 -4 2 -125 -25 -120 -25
-115 4 -115 20 0 25 7 31 38 11 58 38 114 79 157 l38 40 12 -24 c12 -21 14
-22 29 -6 10 9 17 27 17 41 0 20 -5 24 -30 24 -31 0 -58 -20 -93 -70 l-17 -25
6 48 6 47 -34 0 c-19 0 -43 -7 -54 -15z"/>
<path d="M184 3419 c-3 -6 1 -18 10 -27 15 -15 17 -15 34 1 15 16 15 19 2 27
-20 13 -37 12 -46 -1z"/>
<path d="M4757 3423 c-24 -23 12 -55 38 -33 12 10 13 16 4 26 -12 15 -31 18
-42 7z"/>
<path d="M140 3295 c-10 -12 -10 -19 1 -32 7 -10 15 -20 16 -22 4 -5 32 31 33
41 0 4 -9 12 -19 17 -14 8 -22 7 -31 -4z"/>
<path d="M4804 3296 c-9 -24 3 -47 21 -40 18 7 16 45 -2 52 -7 2 -16 -3 -19
-12z"/>
<path d="M101 3167 c-8 -10 -7 -19 4 -33 13 -18 15 -18 31 -2 14 14 15 20 4
32 -15 19 -24 20 -39 3z"/>
<path d="M4840 3164 c-11 -12 -10 -18 4 -32 16 -16 18 -16 31 2 11 14 12 23 4
33 -15 17 -24 16 -39 -3z"/>
<path d="M77 3043 c-4 -3 -7 -15 -7 -25 0 -21 32 -25 49 -5 17 22 -22 50 -42
30z"/>
<path d="M4868 3036 c-17 -12 -17 -14 1 -30 17 -16 20 -16 35 0 13 12 14 19 5
30 -14 17 -19 17 -41 0z"/>
<path d="M44 2905 c-12 -29 15 -45 45 -26 12 8 12 12 2 25 -17 20 -40 21 -47
1z"/>
<path d="M4900 2904 c-11 -12 -11 -18 1 -30 13 -12 18 -12 34 0 16 12 17 16 6
30 -17 20 -25 20 -41 0z"/>
<path d="M29 2774 c-15 -18 0 -38 27 -32 25 5 28 25 6 37 -15 8 -23 7 -33 -5z"/>
<path d="M4922 2778 c-27 -27 -3 -54 31 -36 22 11 22 25 -1 37 -13 7 -23 6
-30 -1z"/>
<path d="M2795 2749 c-22 -5 -76 -21 -121 -34 -74 -23 -85 -30 -147 -94 -84
-86 -117 -154 -117 -236 0 -110 76 -217 185 -262 25 -10 45 -21 45 -25 0 -7
-32 -20 -439 -168 -167 -60 -314 -110 -326 -110 -17 0 -40 22 -88 83 -69 88
-105 120 -176 157 -156 79 -327 70 -489 -27 -122 -72 -192 -165 -227 -300 -25
-97 -21 -101 55 -49 96 66 283 107 393 87 148 -27 238 -69 224 -105 -24 -62
-246 -148 -417 -162 -69 -6 -198 10 -254 32 -12 5 -13 -2 -5 -38 21 -93 99
-190 216 -268 136 -91 235 -100 415 -40 122 41 168 68 258 156 41 40 87 77
101 82 20 8 52 0 172 -43 168 -62 386 -151 532 -220 94 -44 99 -47 77 -59 -42
-23 -131 -118 -154 -165 -32 -64 -32 -195 -1 -262 47 -103 126 -161 293 -213
152 -48 252 -45 367 11 71 35 148 103 176 157 45 86 20 222 -57 313 -42 50
-194 148 -328 212 -168 79 -414 211 -653 349 -110 64 -202 117 -205 120 -3 2
4 9 15 15 57 35 632 351 768 423 262 139 359 211 405 299 64 126 -1 295 -136
352 -89 37 -266 53 -357 32z m185 -50 c127 -16 209 -58 264 -137 66 -95 -5
-231 -181 -350 -63 -43 -346 -200 -588 -327 -189 -99 -472 -262 -532 -307 -28
-22 -79 -75 -112 -118 -80 -102 -124 -139 -235 -195 -105 -52 -181 -67 -291
-54 -157 17 -283 99 -349 226 -9 18 -16 34 -16 37 0 2 21 -3 47 -11 93 -29
377 10 506 70 70 32 159 113 155 141 -4 31 -113 98 -211 131 -145 49 -305 34
-433 -41 -22 -13 -49 -33 -59 -44 -31 -34 -36 -22 -14 33 64 165 175 263 341
302 82 19 214 19 268 0 67 -24 136 -81 190 -158 52 -74 60 -104 35 -147 -20
-35 -19 -40 13 -31 35 11 682 246 836 305 148 56 199 96 123 96 -69 0 -132 28
-180 79 -128 137 -124 251 15 389 106 105 216 135 408 111z m-837 -1150 c45
-28 139 -82 210 -120 70 -38 158 -89 195 -113 96 -61 272 -156 372 -200 47
-21 113 -51 148 -67 131 -60 260 -228 249 -326 -7 -63 -64 -151 -120 -187 -37
-23 -67 -31 -154 -42 -229 -28 -352 26 -477 210 -21 32 -26 50 -26 101 0 95
35 155 130 222 41 29 95 61 118 70 l44 16 -25 14 c-28 14 -412 167 -611 244
-71 27 -167 70 -213 95 l-85 46 73 44 c41 24 77 44 82 44 4 0 44 -23 90 -51z"/>
<path d="M2789 2627 c-45 -13 -79 -33 -152 -91 -62 -49 -77 -82 -77 -169 0
-67 3 -79 27 -108 85 -100 281 -106 440 -12 61 35 150 136 163 182 16 61 -4
109 -63 148 -27 18 -65 37 -85 43 -59 18 -201 22 -253 7z m248 -55 c126 -65
143 -141 46 -213 -130 -98 -179 -118 -286 -121 -53 -2 -73 3 -123 27 -48 24
-61 37 -70 65 -14 42 -5 72 40 138 34 50 107 106 160 122 52 16 186 5 233 -18z"/>
<path d="M1760 1660 c-11 -11 -20 -29 -20 -40 0 -23 33 -60 53 -59 6 0 21 4
32 9 19 9 19 9 -3 16 -38 11 -23 40 20 36 39 -3 58 19 37 44 -18 22 -95 18
-119 -6z"/>
<path d="M2760 1005 c-135 -42 -179 -201 -89 -325 34 -46 76 -70 180 -99 120
-33 218 -27 317 22 37 18 44 28 59 74 16 50 16 56 0 107 -33 102 -123 189
-231 221 -62 19 -176 18 -236 0z m262 -58 c51 -30 134 -115 148 -152 6 -15 10
-46 10 -70 0 -61 -29 -92 -105 -111 -160 -42 -378 51 -401 170 -7 41 21 109
59 144 63 59 206 68 289 19z"/>
<path d="M20 2645 c-14 -17 -5 -45 17 -52 18 -6 27 37 11 54 -13 12 -16 12
-28 -2z"/>
<path d="M4923 2634 c-3 -8 1 -22 9 -30 13 -13 16 -13 27 0 7 9 11 23 7 31 -7
20 -35 19 -43 -1z"/>
<path d="M18 2513 c-25 -6 -22 -30 3 -38 25 -8 44 7 36 29 -7 16 -9 17 -39 9z"/>
<path d="M4933 2509 c-15 -15 -5 -39 16 -39 29 0 43 21 23 36 -21 17 -25 17
-39 3z"/>
<path d="M21 2376 c-18 -22 4 -62 25 -45 18 15 18 33 0 48 -10 9 -16 8 -25 -3z"/>
<path d="M4932 2378 c-27 -27 -3 -54 31 -36 22 11 22 25 -1 37 -13 7 -23 6
-30 -1z"/>
<path d="M26 2234 c-4 -10 -2 -22 3 -27 14 -14 43 0 39 20 -4 24 -34 28 -42 7z"/>
<path d="M4917 2243 c-12 -12 -7 -31 10 -37 9 -4 23 0 32 9 14 14 14 17 1 25
-18 11 -34 13 -43 3z"/>
<path d="M46 2103 c-4 -9 -1 -20 6 -25 16 -10 20 -10 37 1 12 8 12 12 2 25
-17 21 -37 20 -45 -1z"/>
<path d="M4894 2105 c-4 -9 0 -24 10 -33 15 -15 18 -15 26 -2 6 8 9 22 7 30
-3 21 -36 25 -43 5z"/>
<path d="M71 1977 c-8 -10 -7 -19 4 -33 15 -19 15 -19 30 0 11 14 12 23 4 33
-6 7 -15 13 -19 13 -4 0 -13 -6 -19 -13z"/>
<path d="M4867 1979 c-14 -8 -16 -14 -6 -25 14 -17 31 -18 47 -2 8 8 9 15 1
25 -14 15 -18 16 -42 2z"/>
<path d="M101 1847 c-8 -10 -7 -19 4 -33 13 -18 15 -18 31 -2 18 18 13 48 -9
48 -8 0 -20 -6 -26 -13z"/>
<path d="M4840 1844 c-11 -12 -11 -18 1 -29 13 -13 18 -13 38 2 23 15 23 17 6
30 -24 17 -30 16 -45 -3z"/>
<path d="M137 1716 c-9 -23 18 -39 43 -26 17 9 19 14 9 26 -15 18 -45 18 -52
0z"/>
<path d="M4803 1714 c-9 -24 11 -38 37 -24 17 9 19 14 9 26 -15 19 -38 18 -46
-2z"/>
<path d="M190 1595 c-15 -18 -5 -35 20 -35 10 0 22 5 25 10 7 11 -12 40 -25
40 -4 0 -13 -7 -20 -15z"/>
<path d="M4760 1595 c-15 -18 -5 -35 20 -35 10 0 22 5 25 10 7 11 -12 40 -25
40 -4 0 -13 -7 -20 -15z"/>
<path d="M240 1474 c-11 -12 -11 -18 2 -30 13 -13 19 -14 36 -3 20 12 20 15 5
31 -20 22 -27 22 -43 2z"/>
<path d="M4707 1483 c-11 -10 -8 -41 4 -49 6 -3 18 1 27 9 13 13 13 19 2 31
-14 17 -23 20 -33 9z"/>
<path d="M300 1354 c-11 -12 -11 -18 2 -30 13 -13 19 -14 36 -3 20 12 20 15 5
31 -20 22 -27 22 -43 2z"/>
<path d="M4647 1363 c-12 -11 -8 -41 6 -46 7 -3 21 1 32 9 18 14 18 14 -1 29
-22 16 -28 18 -37 8z"/>
<path d="M364 1235 c-12 -29 15 -45 45 -26 12 8 12 12 2 25 -17 20 -40 21 -47
1z"/>
<path d="M4583 1243 c-18 -7 -16 -28 3 -44 13 -10 17 -10 25 2 18 28 1 54 -28
42z"/>
<path d="M440 1125 c-19 -22 5 -48 31 -34 10 5 19 14 19 19 0 5 -9 14 -19 19
-14 8 -22 7 -31 -4z"/>
<path d="M4503 1124 c-3 -8 1 -22 9 -30 12 -12 16 -12 33 1 20 15 20 15 1 30
-25 19 -35 19 -43 -1z"/>
<path d="M517 1023 c-11 -10 -8 -41 4 -49 16 -9 43 21 36 40 -7 16 -28 21 -40
9z"/>
<path d="M4430 1015 c-21 -26 3 -42 37 -26 27 12 27 13 8 27 -24 18 -30 18
-45 -1z"/>
<path d="M600 915 c-11 -13 -11 -19 3 -33 20 -19 41 -5 35 24 -4 24 -22 28
-38 9z"/>
<path d="M4344 905 c-7 -18 3 -35 21 -35 15 0 28 27 19 41 -8 14 -34 11 -40
-6z"/>
<path d="M690 815 c-19 -22 5 -48 31 -34 10 5 19 14 19 19 0 5 -9 14 -19 19
-14 8 -22 7 -31 -4z"/>
<path d="M4260 815 c-19 -22 5 -48 31 -34 10 5 19 14 19 19 0 5 -9 14 -19 19
-14 8 -22 7 -31 -4z"/>
<path d="M787 723 c-11 -10 -8 -41 5 -49 17 -11 40 26 27 43 -13 14 -22 16
-32 6z"/>
<path d="M4165 720 c-8 -13 3 -50 15 -50 13 0 32 39 25 50 -8 13 -32 13 -40 0z"/>
<path d="M877 626 c-9 -23 18 -39 43 -26 17 9 19 14 9 26 -15 18 -45 18 -52 0z"/>
<path d="M4067 633 c-24 -23 12 -55 38 -33 12 10 13 16 4 26 -12 15 -31 18
-42 7z"/>
<path d="M991 556 c-16 -19 -7 -46 14 -46 22 0 30 29 13 46 -13 13 -16 13 -27
0z"/>
<path d="M3962 552 c-17 -11 -4 -42 17 -42 29 0 43 21 23 36 -20 16 -23 16
-40 6z"/>
<path d="M1087 466 c-3 -8 1 -22 8 -33 13 -17 15 -17 31 -1 14 14 15 20 4 32
-16 20 -36 20 -43 2z"/>
<path d="M3851 466 c-14 -17 9 -39 33 -30 20 8 21 30 0 38 -21 8 -20 8 -33 -8z"/>
<path d="M1204 395 c-12 -30 16 -45 46 -25 13 9 12 12 -4 25 -25 19 -35 19
-42 0z"/>
<path d="M3740 395 c-6 -8 -9 -19 -5 -25 9 -15 41 -12 54 4 10 12 8 17 -8 25
-25 14 -26 14 -41 -4z"/>
<path d="M3627 343 c-11 -10 -8 -41 4 -49 6 -3 18 1 27 9 13 13 13 19 2 31
-14 17 -23 20 -33 9z"/>
<path d="M1315 330 c-7 -12 12 -50 25 -50 17 0 30 36 18 48 -15 15 -35 15 -43
2z"/>
<path d="M3511 276 c-13 -16 -6 -56 9 -56 5 0 14 10 21 21 8 17 8 24 -3 36
-13 12 -16 12 -27 -1z"/>
<path d="M1435 270 c-11 -17 18 -42 39 -34 9 4 16 14 14 23 -4 19 -43 27 -53
11z"/>
<path d="M1564 215 c-4 -9 -2 -21 3 -26 14 -14 45 1 41 20 -4 22 -37 26 -44 6z"/>
<path d="M3381 217 c-8 -10 -7 -19 4 -33 15 -19 15 -19 30 0 11 14 12 23 4 33
-6 7 -15 13 -19 13 -4 0 -13 -6 -19 -13z"/>
<path d="M1692 188 c-16 -16 -15 -33 2 -47 21 -18 41 11 26 38 -13 25 -12 25
-28 9z"/>
<path d="M3260 175 c-9 -11 -11 -22 -4 -32 13 -21 25 -21 38 -1 8 14 7 21 -5
33 -14 15 -17 15 -29 0z"/>
<path d="M3131 138 c-11 -17 -10 -23 2 -35 18 -18 37 -9 37 16 0 31 -24 43
-39 19z"/>
<path d="M1817 143 c-12 -11 -7 -41 7 -46 8 -3 22 1 33 9 17 14 17 14 -1 29
-22 17 -29 18 -39 8z"/>
<path d="M1945 110 c-18 -19 -18 -22 -2 -37 16 -16 18 -16 33 -1 15 14 15 19
2 37 l-15 21 -18 -20z"/>
<path d="M3000 105 c-11 -13 -11 -19 3 -33 20 -19 41 -5 35 24 -4 24 -22 28
-38 9z"/>
<path d="M2077 83 c-4 -3 -7 -15 -7 -25 0 -22 32 -24 49 -4 10 12 8 17 -8 25
-23 13 -26 13 -34 4z"/>
<path d="M2870 75 c-23 -28 21 -50 48 -23 9 9 7 14 -6 24 -22 17 -27 17 -42
-1z"/>
<path d="M2207 63 c-24 -23 12 -55 38 -33 12 10 13 16 4 26 -12 15 -31 18 -42
7z"/>
<path d="M2736 53 c-11 -26 10 -38 41 -24 27 12 27 13 8 27 -25 19 -41 18 -49
-3z"/>
<path d="M2336 44 c-11 -30 13 -44 43 -25 12 8 12 12 2 25 -17 20 -37 20 -45
0z"/>
<path d="M2471 46 c-8 -9 -7 -18 3 -31 15 -21 36 -12 36 15 0 22 -25 33 -39
16z"/>
<path d="M2607 53 c-24 -23 12 -55 38 -33 12 10 13 16 4 26 -12 15 -31 18 -42
7z"/>
</g>
</svg>
