<?xml version="1.0" standalone="no"?>
<!DOCTYPE svg PUBLIC "-//W3C//DTD SVG 20010904//EN"
 "http://www.w3.org/TR/2001/REC-SVG-20010904/DTD/svg10.dtd">
<svg version="1.0" xmlns="http://www.w3.org/2000/svg"
 width="499.000000pt" height="500.000000pt" viewBox="0 0 499.000000 500.000000"
 preserveAspectRatio="xMidYMid meet">
<metadata>
Created by potrace 1.15, written by Peter Selinger 2001-2017
</metadata>
<g transform="translate(0.000000,500.000000) scale(0.100000,-0.100000)"
fill="#000000" stroke="none">
<path d="M2342 4978 c-16 -16 -15 -26 6 -37 12 -6 23 -5 37 5 19 14 19 14 -1
29 -23 18 -27 18 -42 3z"/>
<path d="M2477 4983 c-24 -23 12 -55 38 -33 12 10 13 16 4 26 -12 15 -31 18
-42 7z"/>
<path d="M2610 4974 c-11 -12 -11 -18 1 -30 13 -12 18 -12 34 0 16 12 17 16 6
30 -17 20 -25 20 -41 0z"/>
<path d="M2206 4964 c-4 -10 -2 -22 3 -27 14 -14 43 0 39 20 -4 24 -34 28 -42
7z"/>
<path d="M2742 4968 c-8 -8 -9 -15 -1 -25 13 -15 28 -16 49 -3 13 8 12 11 -5
24 -24 19 -28 19 -43 4z"/>
<path d="M2081 4956 c-16 -19 -7 -46 14 -46 22 0 30 29 13 46 -13 13 -16 13
-27 0z"/>
<path d="M2874 4945 c-12 -29 15 -45 45 -26 12 8 12 12 2 25 -17 20 -40 21
-47 1z"/>
<path d="M3001 4921 c-16 -28 14 -51 36 -28 13 13 14 19 3 31 -17 21 -27 20
-39 -3z"/>
<path d="M1943 4914 c-3 -8 1 -22 9 -30 13 -13 16 -13 27 0 7 9 11 23 7 31 -7
20 -35 19 -43 -1z"/>
<path d="M1817 4895 c-7 -16 1 -45 12 -45 3 0 13 5 21 10 11 7 12 14 4 27 -14
23 -30 27 -37 8z"/>
<path d="M3137 4893 c-24 -23 12 -55 38 -33 12 10 13 16 4 26 -12 15 -31 18
-42 7z"/>
<path d="M3260 4854 c-11 -12 -10 -18 3 -31 22 -23 52 0 36 28 -12 23 -22 24
-39 3z"/>
<path d="M1683 4844 c-3 -8 1 -22 9 -30 13 -13 16 -13 27 0 7 9 11 23 7 31 -7
20 -35 19 -43 -1z"/>
<path d="M3392 4818 c-16 -16 -15 -33 2 -47 21 -18 41 11 26 38 -13 25 -12 25
-28 9z"/>
<path d="M1567 4813 c-11 -11 -8 -40 6 -51 19 -16 43 24 26 44 -13 15 -22 18
-32 7z"/>
<path d="M1434 4749 c-3 -6 0 -18 9 -26 12 -12 19 -13 36 -3 18 9 20 14 10 26
-14 17 -45 19 -55 3z"/>
<path d="M3503 4744 c-3 -8 1 -22 9 -30 13 -13 16 -13 27 0 7 9 11 23 7 31 -7
20 -35 19 -43 -1z"/>
<path d="M1317 4686 c-3 -8 1 -22 8 -33 13 -17 14 -17 28 2 8 10 13 25 10 32
-7 17 -39 17 -46 -1z"/>
<path d="M3624 4689 c-3 -6 0 -18 9 -26 14 -14 17 -14 37 0 22 15 22 15 2 26
-26 14 -39 14 -48 0z"/>
<path d="M3751 4636 c-17 -20 -6 -49 16 -44 22 4 26 20 10 42 -12 16 -14 16
-26 2z"/>
<path d="M1204 4625 c-12 -30 16 -45 46 -25 13 9 12 12 -4 25 -25 19 -35 19
-42 0z"/>
<path d="M3862 4568 c-16 -16 -15 -45 2 -51 23 -9 39 18 26 42 -13 25 -12 25
-28 9z"/>
<path d="M1090 4546 c0 -24 26 -38 40 -22 6 9 9 20 5 26 -9 15 -45 12 -45 -4z"/>
<path d="M991 4486 c-16 -19 -7 -46 14 -46 22 0 30 29 13 46 -13 13 -16 13
-27 0z"/>
<path d="M3967 4483 c-4 -3 -7 -15 -7 -25 0 -20 26 -24 50 -8 13 9 12 12 -4
25 -22 17 -29 18 -39 8z"/>
<path d="M4070 4395 c-9 -11 -11 -22 -4 -32 13 -21 25 -21 38 -1 8 14 7 21 -5
33 -14 15 -17 15 -29 0z"/>
<path d="M875 4390 c-11 -17 18 -42 39 -34 9 4 16 14 14 23 -4 19 -43 27 -53
11z"/>
<path d="M1640 4325 c0 -9 10 -15 26 -15 17 0 24 -4 21 -12 -2 -7 -21 -71 -41
-142 -44 -152 -50 -166 -76 -166 -11 0 -20 -6 -20 -13 0 -13 11 -13 118 -8 23
1 32 21 9 21 -34 0 -35 22 -6 133 35 134 40 149 44 145 2 -2 11 -69 21 -150
l17 -148 28 0 c27 0 34 10 104 148 l76 147 -6 -70 c-14 -181 -16 -187 -46
-199 -49 -18 -32 -26 56 -26 69 0 85 3 85 15 0 10 -10 15 -26 15 l-27 0 7 68
c20 203 28 241 49 244 11 2 22 9 25 16 3 9 -13 12 -57 12 l-61 0 -72 -145
c-40 -80 -76 -145 -79 -145 -4 0 -9 21 -12 48 -3 26 -11 91 -18 145 l-11 97
-64 0 c-50 0 -64 -3 -64 -15z"/>
<path d="M792 4318 c-19 -19 -14 -48 7 -48 27 0 35 16 18 40 -10 15 -16 17
-25 8z"/>
<path d="M4172 4308 c-27 -27 -3 -54 31 -36 22 11 22 25 -1 37 -13 7 -23 6
-30 -1z"/>
<path d="M3165 4279 c-9 -17 -32 -40 -51 -51 -35 -20 -37 -38 -5 -38 18 0 17
-4 -2 -98 -11 -54 -18 -106 -14 -115 12 -31 107 -18 107 15 0 4 -13 5 -30 2
-39 -8 -39 -18 5 174 4 15 13 22 29 22 13 0 29 6 35 14 10 12 6 15 -17 21 -28
6 -30 8 -25 46 7 48 -10 52 -32 8z"/>
<path d="M2614 4220 c-17 -11 -37 -31 -44 -45 -26 -48 -35 -22 -14 43 3 10 -8
12 -43 10 -26 -2 -48 -9 -51 -15 -2 -7 3 -13 12 -13 21 0 20 -18 -4 -135 -11
-53 -20 -99 -20 -102 0 -2 10 -3 21 -1 26 4 31 13 53 91 12 38 30 71 55 97 65
68 76 50 49 -80 -22 -110 -22 -112 4 -108 17 2 26 15 39 60 9 31 26 73 38 92
22 36 66 76 82 76 14 0 11 -48 -7 -126 -21 -90 -16 -106 33 -102 26 2 39 8 41
20 2 12 -2 15 -17 11 -25 -6 -26 -10 3 107 24 98 22 124 -11 137 -23 9 -82
-26 -110 -67 l-25 -35 5 31 c7 36 -15 74 -41 74 -9 0 -31 -9 -48 -20z"/>
<path d="M3385 4233 c-31 -8 -83 -51 -99 -81 -23 -46 -27 -91 -11 -129 20 -49
42 -62 96 -63 85 0 149 63 157 154 4 53 3 57 -31 91 -35 35 -59 41 -112 28z
m73 -35 c27 -27 7 -155 -31 -195 -42 -46 -107 -17 -107 48 0 38 26 118 46 140
19 21 73 26 92 7z"/>
<path d="M2130 4215 c-10 -13 -9 -15 9 -15 26 0 26 -7 1 -114 -24 -101 -18
-126 32 -126 24 0 41 10 75 46 l44 46 -6 -34 c-9 -45 11 -62 59 -52 21 3 36
12 36 20 0 10 -7 13 -24 8 l-24 -6 24 104 c13 56 26 111 28 121 4 14 -1 18
-21 15 -22 -2 -29 -12 -45 -58 -35 -103 -118 -199 -131 -150 -3 11 5 62 18
115 l22 95 -42 0 c-26 0 -48 -6 -55 -15z"/>
<path d="M687 4206 c-3 -8 1 -22 8 -33 13 -16 16 -16 25 -3 5 8 9 22 7 30 -3
20 -33 25 -40 6z"/>
<path d="M4255 4210 c-7 -11 12 -50 25 -50 12 0 23 37 15 50 -8 13 -32 13 -40
0z"/>
<path d="M594 4105 c-10 -24 12 -42 34 -29 24 16 21 38 -6 42 -13 2 -25 -3
-28 -13z"/>
<path d="M4344 4109 c-3 -6 1 -18 10 -27 15 -15 17 -15 32 0 19 19 11 38 -16
38 -10 0 -22 -5 -26 -11z"/>
<path d="M520 4005 c-22 -27 12 -49 38 -23 8 8 9 15 1 25 -15 17 -24 16 -39
-2z"/>
<path d="M4437 4013 c-4 -3 -7 -15 -7 -25 0 -23 38 -25 47 -2 8 21 -24 43 -40
27z"/>
<path d="M441 3906 c-16 -19 -7 -46 14 -46 22 0 30 29 13 46 -13 13 -16 13
-27 0z"/>
<path d="M4513 3899 c-6 -6 -9 -18 -6 -25 7 -18 37 -18 52 0 10 12 8 17 -8 25
-24 14 -24 14 -38 0z"/>
<path d="M4583 3791 c-9 -14 -9 -21 0 -30 26 -26 53 -2 35 32 -11 22 -20 22
-35 -2z"/>
<path d="M366 3784 c-11 -30 13 -44 43 -25 12 8 12 12 2 25 -17 20 -37 20 -45
0z"/>
<path d="M1123 3696 c-100 -32 -154 -105 -160 -220 -5 -82 13 -122 69 -156 55
-33 176 -21 214 22 21 22 10 23 -46 3 -53 -19 -83 -19 -119 0 -40 20 -55 63
-49 140 9 110 84 195 171 195 48 0 69 -23 61 -66 -5 -30 -4 -34 14 -34 17 0
21 9 27 51 4 27 5 53 2 56 -9 8 -80 23 -112 22 -16 0 -49 -6 -72 -13z"/>
<path d="M3122 3695 c-91 -28 -154 -108 -167 -211 -12 -96 61 -184 153 -184
59 0 117 18 139 43 20 23 28 23 -68 -3 -54 -16 -92 -8 -125 25 -21 21 -24 34
-24 93 0 123 63 210 159 220 57 5 75 -11 69 -63 -3 -28 -1 -35 13 -35 18 0 24
11 34 71 6 34 5 36 -33 47 -50 15 -95 14 -150 -3z"/>
<path d="M4155 3704 c-5 -1 -27 -5 -47 -9 -40 -6 -53 -25 -18 -25 21 0 24 -9
14 -59 -6 -29 -9 -31 -51 -31 -25 0 -60 -7 -78 -16 -95 -45 -128 -216 -49
-253 29 -13 79 3 104 34 14 17 15 16 20 -6 6 -26 28 -34 66 -25 30 8 32 26 3
26 -18 0 -21 4 -16 28 3 15 20 94 37 175 32 150 33 166 15 161z m-77 -181 c8
-79 -48 -173 -102 -173 -35 0 -42 34 -22 103 22 76 50 109 90 105 27 -3 31 -7
34 -35z"/>
<path d="M2233 3693 c-18 -7 -16 -23 1 -23 8 0 17 -4 21 -9 3 -5 -11 -84 -30
-176 -19 -92 -35 -169 -35 -171 0 -2 11 -4 24 -4 24 0 36 16 36 49 0 48 88
181 120 181 17 0 16 -40 -1 -106 -10 -38 -18 -79 -18 -91 -2 -42 60 -54 90
-17 11 14 10 15 -11 12 -29 -4 -29 6 -4 103 8 31 14 73 14 93 0 80 -86 63
-146 -30 -9 -13 -18 -23 -21 -21 -2 2 6 42 17 88 28 119 27 129 -12 128 -18 0
-39 -3 -45 -6z"/>
<path d="M297 3666 c-9 -23 18 -39 43 -26 17 9 19 14 9 26 -15 18 -45 18 -52
0z"/>
<path d="M4643 3664 c-3 -8 1 -22 9 -30 13 -13 16 -13 27 0 7 9 11 23 7 31 -7
20 -35 19 -43 -1z"/>
<path d="M1745 3620 c-14 -22 -36 -42 -50 -46 -30 -7 -33 -34 -4 -34 15 0 19
-5 15 -17 -17 -64 -38 -184 -33 -197 10 -24 54 -31 82 -12 35 23 31 37 -6 29
-30 -6 -32 -4 -26 18 3 13 13 59 22 102 16 74 18 77 45 77 38 0 48 28 12 32
-25 3 -27 6 -24 46 2 23 1 42 -2 42 -3 0 -17 -18 -31 -40z"/>
<path d="M2085 3620 c-14 -22 -36 -42 -50 -46 -30 -7 -33 -34 -4 -34 15 0 19
-5 15 -17 -17 -64 -38 -184 -33 -197 10 -24 54 -31 82 -12 34 22 31 37 -5 30
-33 -7 -34 -5 -21 46 5 19 15 60 21 91 10 51 14 57 40 63 35 7 40 23 8 28 -20
3 -23 8 -20 46 2 23 1 42 -2 42 -3 0 -17 -18 -31 -40z"/>
<path d="M2615 3566 c-59 -28 -92 -74 -101 -136 -8 -62 8 -98 51 -116 42 -17
88 -11 134 17 39 23 42 45 4 25 -55 -27 -90 -29 -113 -6 -38 38 -24 62 56 90
88 31 104 44 104 85 0 61 -58 79 -135 41z m82 -22 c14 -36 -10 -67 -66 -85
l-53 -19 6 32 c13 64 96 116 113 72z"/>
<path d="M3427 3576 c-46 -17 -61 -29 -88 -73 -27 -43 -30 -120 -6 -156 22
-34 79 -50 128 -37 74 20 119 81 119 162 0 50 -18 82 -60 103 -35 18 -44 18
-93 1z m81 -28 c28 -28 3 -177 -35 -205 -44 -34 -103 -1 -103 58 0 31 24 104
46 136 16 26 71 32 92 11z"/>
<path d="M1363 3573 c-36 -5 -46 -23 -13 -23 25 0 25 -16 4 -106 -18 -79 -15
-123 8 -138 24 -15 79 15 113 63 l26 36 -3 -35 c-1 -20 2 -41 6 -48 8 -13 44
-16 70 -6 24 9 20 33 -4 27 -14 -4 -20 0 -20 10 0 15 34 172 46 210 4 12 0 17
-14 17 -26 0 -39 -18 -56 -72 -21 -71 -87 -158 -120 -158 -12 0 -5 78 14 150
11 41 20 76 20 78 0 2 -31 0 -77 -5z"/>
<path d="M3654 3565 c-19 -14 -18 -14 4 -15 27 0 27 -9 2 -124 -25 -114 -25
-118 2 -114 15 2 26 13 32 33 25 86 40 116 78 156 40 43 41 44 51 22 17 -38
30 -30 42 25 6 30 5 32 -22 32 -35 0 -53 -13 -89 -60 l-26 -35 7 48 6 47 -33
0 c-19 0 -43 -7 -54 -15z"/>
<path d="M241 3546 c-18 -21 11 -41 39 -26 17 9 19 14 9 26 -15 18 -33 18 -48
0z"/>
<path d="M4704 3545 c-13 -32 23 -48 47 -19 10 13 10 17 -2 25 -21 13 -39 11
-45 -6z"/>
<path d="M190 3425 c-17 -21 1 -39 29 -30 25 8 28 30 5 39 -21 8 -20 8 -34 -9z"/>
<path d="M4760 3425 c-11 -13 -11 -19 3 -33 20 -19 41 -5 35 24 -4 24 -22 28
-38 9z"/>
<path d="M142 3288 c4 -27 18 -31 43 -12 17 13 18 16 5 24 -28 18 -52 12 -48
-12z"/>
<path d="M4804 3295 c-4 -9 -2 -21 4 -27 15 -15 44 -1 40 19 -4 23 -36 29 -44
8z"/>
<path d="M4852 3188 c-16 -16 -15 -45 2 -51 23 -9 39 18 26 42 -13 25 -12 25
-28 9z"/>
<path d="M113 3183 c-16 -6 -17 -29 -3 -38 12 -7 50 3 50 13 0 12 -34 29 -47
25z"/>
<path d="M77 3053 c-11 -10 -8 -41 4 -48 5 -4 19 1 29 10 16 15 17 19 5 31
-15 15 -28 18 -38 7z"/>
<path d="M4876 3043 c-4 -9 -1 -23 7 -30 12 -12 16 -12 26 1 16 19 8 46 -13
46 -7 0 -17 -8 -20 -17z"/>
<path d="M50 2915 c-22 -26 7 -46 39 -26 12 8 12 12 2 25 -17 20 -25 20 -41 1z"/>
<path d="M4900 2914 c-11 -12 -10 -18 3 -31 15 -15 18 -15 37 2 19 17 19 19 2
31 -22 17 -27 17 -42 -2z"/>
<path d="M24 2779 c-3 -6 1 -18 10 -27 15 -15 17 -15 32 0 19 19 11 38 -16 38
-10 0 -22 -5 -26 -11z"/>
<path d="M4917 2776 c-3 -8 0 -20 8 -26 19 -16 59 8 43 27 -14 17 -45 17 -51
-1z"/>
<path d="M2801 2760 c-141 -20 -224 -64 -302 -162 -68 -85 -92 -149 -87 -222
9 -108 81 -207 176 -242 26 -10 51 -21 55 -25 10 -8 26 -1 -436 -169 l-338
-123 -27 27 c-15 14 -50 57 -77 94 -85 113 -198 172 -346 180 -100 5 -164 -10
-272 -65 -129 -64 -213 -168 -253 -310 -26 -93 -17 -102 54 -55 67 46 119 65
237 88 71 14 96 15 148 6 100 -19 210 -59 230 -84 19 -22 18 -23 -10 -46 -42
-34 -180 -100 -248 -117 -94 -25 -258 -31 -330 -12 -33 9 -68 19 -77 22 -16 6
-17 3 -12 -26 20 -104 142 -244 274 -314 74 -40 76 -40 180 -39 96 0 113 4
205 38 124 48 157 69 254 162 56 53 86 74 104 74 48 0 380 -129 674 -262 l112
-51 -44 -29 c-139 -92 -194 -235 -145 -377 43 -127 109 -185 276 -241 192 -64
338 -49 466 48 35 26 76 68 93 96 26 43 30 59 30 120 0 60 -5 82 -33 137 -20
43 -48 79 -75 101 -69 57 -206 141 -297 184 -179 83 -487 250 -767 417 -68 40
-90 57 -80 65 15 12 643 358 802 441 312 165 400 250 400 391 0 137 -94 239
-245 268 -83 17 -198 21 -269 12z m250 -64 c78 -18 142 -58 189 -117 48 -61
50 -84 11 -164 -36 -77 -129 -164 -254 -238 -119 -71 -379 -213 -487 -267
-113 -57 -461 -254 -530 -301 -62 -42 -114 -95 -185 -187 -88 -114 -281 -212
-420 -212 -131 0 -256 50 -341 134 -59 60 -110 145 -77 131 34 -14 196 -18
267 -5 117 20 228 50 281 76 57 29 145 110 145 135 0 34 -141 115 -252 145
-69 18 -189 18 -261 -1 -70 -18 -119 -42 -180 -89 -26 -20 -47 -31 -47 -26 0
20 68 145 106 197 82 110 217 167 394 168 96 0 110 -2 165 -29 70 -35 150
-112 185 -178 25 -47 25 -48 8 -95 -9 -26 -15 -49 -13 -51 5 -6 939 334 986
359 9 5 19 18 22 29 4 17 0 20 -31 20 -64 0 -113 20 -162 66 -97 91 -129 201
-83 290 47 89 146 176 241 210 49 17 251 18 323 0z m-888 -1150 c57 -35 132
-78 168 -96 35 -18 127 -71 204 -118 183 -111 348 -198 442 -233 105 -39 176
-84 240 -154 102 -109 126 -199 77 -291 -56 -107 -107 -137 -265 -155 -184
-21 -303 19 -404 139 -74 85 -89 121 -82 193 9 102 56 162 192 243 32 20 67
36 77 36 34 0 18 17 -39 43 -63 28 -357 144 -572 226 -148 57 -293 129 -289
143 3 9 126 86 140 87 4 1 54 -28 111 -63z"/>
<path d="M2813 2639 c-59 -11 -111 -40 -172 -95 -64 -58 -81 -94 -81 -173 0
-82 12 -103 84 -145 l61 -37 100 3 c112 4 174 26 266 94 62 45 129 137 129
176 0 71 -51 128 -145 161 -51 18 -187 27 -242 16z m181 -40 c53 -13 138 -76
150 -110 16 -46 -1 -75 -77 -135 -134 -105 -237 -132 -359 -94 -133 41 -146
127 -35 247 81 88 200 123 321 92z"/>
<path d="M1773 1680 c-27 -11 -39 -50 -24 -79 14 -25 53 -37 77 -23 16 9 15
10 -5 17 -14 4 -21 13 -19 23 3 13 12 16 41 14 41 -4 59 17 37 43 -14 16 -72
19 -107 5z"/>
<path d="M2791 1019 c-130 -25 -207 -160 -152 -267 51 -99 112 -142 238 -168
153 -32 290 -1 341 76 44 66 18 171 -63 255 -90 92 -226 131 -364 104z m224
-59 c106 -51 186 -166 171 -246 -10 -52 -41 -78 -114 -94 -124 -26 -260 9
-343 89 -47 45 -49 50 -49 100 0 83 48 143 138 172 48 15 143 5 197 -21z"/>
<path d="M13 2644 c-10 -26 13 -39 44 -25 27 12 27 13 8 27 -25 18 -44 18 -52
-2z"/>
<path d="M4931 2647 c-8 -10 -7 -19 4 -33 13 -18 15 -18 31 -2 14 14 15 20 4
32 -15 19 -24 20 -39 3z"/>
<path d="M4934 2514 c-8 -32 14 -50 34 -30 12 11 12 17 0 35 -17 28 -26 27
-34 -5z"/>
<path d="M18 2523 c-25 -6 -22 -30 3 -38 25 -8 44 7 36 29 -7 16 -9 17 -39 9z"/>
<path d="M13 2374 c-3 -8 1 -22 9 -30 13 -13 16 -13 27 0 7 9 11 23 7 31 -7
20 -35 19 -43 -1z"/>
<path d="M4927 2376 c-9 -23 18 -39 43 -26 17 9 19 14 9 26 -15 18 -45 18 -52
0z"/>
<path d="M27 2253 c-12 -12 -7 -31 10 -37 9 -4 23 0 32 9 14 14 14 17 1 25
-18 11 -34 13 -43 3z"/>
<path d="M4922 2248 c-8 -8 -9 -15 -1 -25 15 -17 34 -17 48 1 10 12 8 17 -8
25 -24 14 -24 14 -39 -1z"/>
<path d="M44 2115 c-4 -9 -2 -21 4 -27 15 -15 44 -1 40 19 -4 23 -36 29 -44 8z"/>
<path d="M4900 2114 c-11 -12 -10 -18 3 -32 16 -15 18 -15 34 0 13 14 14 20 3
32 -7 9 -16 16 -20 16 -4 0 -13 -7 -20 -16z"/>
<path d="M70 1985 c-10 -12 -10 -19 1 -32 7 -10 15 -20 16 -22 4 -5 32 31 33
41 0 4 -9 12 -19 17 -14 8 -22 7 -31 -4z"/>
<path d="M4873 1985 c-17 -13 -17 -14 2 -29 14 -10 24 -11 32 -4 32 26 -1 57
-34 33z"/>
<path d="M111 1866 c-16 -19 -7 -46 14 -46 22 0 30 29 13 46 -13 13 -16 13
-27 0z"/>
<path d="M4845 1859 c-4 -13 -2 -27 7 -36 13 -12 16 -12 27 1 9 11 10 20 1 35
-14 27 -27 27 -35 0z"/>
<path d="M142 1728 c-13 -13 2 -38 23 -38 21 0 36 25 23 38 -7 7 -17 12 -23
12 -6 0 -16 -5 -23 -12z"/>
<path d="M4810 1725 c-22 -26 7 -46 39 -26 12 8 12 12 2 25 -17 20 -25 20 -41
1z"/>
<path d="M186 1604 c-8 -21 11 -45 30 -37 20 7 14 47 -7 51 -9 2 -19 -5 -23
-14z"/>
<path d="M4754 1598 c-4 -6 1 -17 12 -25 15 -11 20 -11 32 1 8 8 11 19 8 25
-9 14 -43 14 -52 -1z"/>
<path d="M4705 1479 c-7 -20 7 -38 28 -39 14 0 19 30 7 45 -17 21 -27 19 -35
-6z"/>
<path d="M236 1481 c-10 -16 5 -41 24 -41 26 0 43 23 28 38 -14 14 -45 16 -52
3z"/>
<path d="M294 1359 c-3 -6 0 -18 9 -26 12 -12 19 -13 36 -3 18 9 20 14 10 26
-14 17 -45 19 -55 3z"/>
<path d="M4644 1355 c-4 -9 -2 -21 4 -27 15 -15 44 -1 40 19 -4 23 -36 29 -44
8z"/>
<path d="M373 1253 c-17 -6 -16 -38 1 -52 21 -18 44 25 24 44 -7 7 -19 11 -25
8z"/>
<path d="M4581 1246 c-9 -11 -8 -18 5 -30 15 -16 18 -16 35 0 18 16 18 18 1
30 -22 17 -27 17 -41 0z"/>
<path d="M440 1135 c-11 -13 -11 -19 3 -33 20 -19 41 -5 35 24 -4 24 -22 28
-38 9z"/>
<path d="M4510 1134 c-11 -12 -10 -18 3 -32 16 -15 18 -15 34 0 13 14 14 20 3
32 -7 9 -16 16 -20 16 -4 0 -13 -7 -20 -16z"/>
<path d="M520 1035 c-9 -11 -11 -22 -4 -32 13 -21 25 -21 38 -1 8 14 7 21 -5
33 -14 15 -17 15 -29 0z"/>
<path d="M4425 1020 c-17 -18 -16 -19 10 -26 34 -8 54 9 35 31 -16 20 -23 19
-45 -5z"/>
<path d="M4350 924 c-11 -12 -10 -18 3 -32 21 -21 42 -3 32 27 -8 25 -18 27
-35 5z"/>
<path d="M601 916 c-18 -22 11 -41 40 -25 22 11 22 12 4 25 -24 17 -30 17 -44
0z"/>
<path d="M687 816 c-3 -8 0 -20 8 -26 19 -16 59 8 43 27 -14 17 -45 17 -51 -1z"/>
<path d="M4257 816 c-3 -8 1 -20 9 -27 12 -10 18 -9 31 3 8 9 12 21 9 27 -10
16 -43 14 -49 -3z"/>
<path d="M4171 736 c-16 -19 -7 -46 14 -46 22 0 30 29 13 46 -13 13 -16 13
-27 0z"/>
<path d="M784 725 c-12 -31 23 -48 45 -21 10 12 8 17 -8 25 -26 14 -31 14 -37
-4z"/>
<path d="M884 646 c-8 -22 3 -49 19 -43 6 2 12 14 12 27 0 27 -22 39 -31 16z"/>
<path d="M4066 634 c-11 -30 13 -44 43 -25 12 8 12 12 2 25 -17 20 -37 20 -45
0z"/>
<path d="M3972 568 c-16 -16 -15 -45 2 -51 23 -9 39 18 26 42 -13 25 -12 25
-28 9z"/>
<path d="M984 549 c-3 -6 0 -17 8 -25 12 -12 17 -12 33 1 17 13 18 16 5 25
-20 13 -37 13 -46 -1z"/>
<path d="M1088 476 c-13 -10 -15 -15 -6 -24 27 -27 71 -5 48 23 -15 18 -20 18
-42 1z"/>
<path d="M3856 474 c-12 -32 21 -47 43 -20 10 12 8 17 -8 25 -26 14 -28 14
-35 -5z"/>
<path d="M1213 413 c-16 -6 -17 -25 -1 -41 12 -12 48 1 48 18 0 13 -32 28 -47
23z"/>
<path d="M3753 413 c-15 -5 -17 -39 -3 -48 11 -7 50 11 50 23 0 12 -34 29 -47
25z"/>
<path d="M1321 337 c-8 -10 -7 -19 4 -33 13 -18 15 -18 31 -2 14 14 15 20 4
32 -15 19 -24 20 -39 3z"/>
<path d="M3629 334 c-10 -12 -9 -18 5 -32 15 -15 18 -15 26 -2 5 8 10 20 10
26 0 19 -28 24 -41 8z"/>
<path d="M1443 279 c-15 -15 -5 -39 17 -39 26 0 43 23 28 38 -15 15 -31 15
-45 1z"/>
<path d="M3503 274 c-8 -22 11 -37 36 -29 25 8 28 30 5 39 -25 9 -34 7 -41
-10z"/>
<path d="M1573 233 c-16 -6 -17 -39 -2 -49 6 -3 18 1 27 10 14 14 14 18 2 30
-8 7 -21 12 -27 9z"/>
<path d="M3393 233 c-16 -6 -17 -29 -3 -38 13 -8 50 3 50 15 0 13 -32 28 -47
23z"/>
<path d="M1684 175 c-13 -32 23 -48 47 -19 10 13 10 17 -2 25 -21 13 -39 11
-45 -6z"/>
<path d="M3254 179 c-3 -6 0 -18 9 -26 12 -12 19 -13 38 -3 22 12 22 13 4 26
-23 17 -41 18 -51 3z"/>
<path d="M1820 145 c-15 -18 -7 -45 13 -45 8 0 20 6 26 13 8 11 6 18 -8 31
-16 15 -20 15 -31 1z"/>
<path d="M3131 137 c-8 -10 -7 -19 4 -33 15 -19 15 -19 30 0 11 14 12 23 4 33
-6 7 -15 13 -19 13 -4 0 -13 -6 -19 -13z"/>
<path d="M1947 113 c-11 -10 -8 -41 4 -49 6 -3 18 1 27 9 13 13 13 19 2 31
-14 17 -23 20 -33 9z"/>
<path d="M3000 104 c-11 -12 -10 -18 4 -32 16 -16 18 -16 31 2 11 14 12 23 4
33 -15 17 -24 16 -39 -3z"/>
<path d="M2082 88 c-27 -27 -6 -56 28 -38 25 13 26 26 2 39 -13 7 -23 6 -30
-1z"/>
<path d="M2870 85 c-10 -13 -9 -19 6 -36 17 -19 19 -19 31 -3 17 24 16 31 -6
43 -14 8 -22 7 -31 -4z"/>
<path d="M2211 76 c-16 -19 -7 -46 14 -46 22 0 30 29 13 46 -13 13 -16 13 -27
0z"/>
<path d="M2740 65 c-9 -11 -9 -19 3 -35 l15 -21 16 22 c11 17 13 26 4 36 -14
17 -23 16 -38 -2z"/>
<path d="M2340 55 c-19 -22 1 -39 35 -31 26 7 27 8 10 26 -22 24 -29 25 -45 5z"/>
<path d="M2611 56 c-19 -22 4 -62 25 -45 17 14 15 50 -2 56 -6 2 -16 -3 -23
-11z"/>
<path d="M2470 40 c0 -11 7 -23 15 -27 19 -7 22 -4 27 22 2 14 -3 21 -19 23
-18 3 -23 -2 -23 -18z"/>
</g>
</svg>
