<?xml version="1.0" standalone="no"?>
<!DOCTYPE svg PUBLIC "-//W3C//DTD SVG 20010904//EN"
 "http://www.w3.org/TR/2001/REC-SVG-20010904/DTD/svg10.dtd">
<svg version="1.0" xmlns="http://www.w3.org/2000/svg"
 width="500.000000pt" height="499.000000pt" viewBox="0 0 500.000000 499.000000"
 preserveAspectRatio="xMidYMid meet">
<metadata>
Created by potrace 1.15, written by Peter Selinger 2001-2017
</metadata>
<g transform="translate(0.000000,499.000000) scale(0.100000,-0.100000)"
fill="#000000" stroke="none">
<path d="M2345 4960 c-7 -23 1 -40 20 -40 8 0 17 5 20 10 9 15 -4 50 -20 50
-8 0 -16 -9 -20 -20z"/>
<path d="M2479 4964 c-10 -12 -9 -18 4 -31 13 -13 19 -14 31 -3 21 17 20 27
-3 39 -14 8 -22 7 -32 -5z"/>
<path d="M2617 4963 c-24 -23 12 -55 38 -33 12 10 13 16 4 26 -12 15 -31 18
-42 7z"/>
<path d="M2217 4953 c-24 -23 12 -55 38 -33 12 10 13 16 4 26 -12 15 -31 18
-42 7z"/>
<path d="M2744 4949 c-3 -6 1 -18 10 -27 15 -15 17 -15 34 1 15 16 15 19 2 27
-20 13 -37 12 -46 -1z"/>
<path d="M2077 4928 c-2 -8 2 -23 10 -33 12 -17 15 -18 23 -5 6 8 9 22 7 30
-3 19 -33 25 -40 8z"/>
<path d="M2877 4926 c-9 -23 18 -39 43 -26 17 9 19 14 9 26 -15 18 -45 18 -52
0z"/>
<path d="M3010 4915 c-15 -18 -6 -45 13 -45 25 0 37 23 23 43 -16 21 -20 21
-36 2z"/>
<path d="M1951 4906 c-14 -16 -4 -46 14 -46 16 0 29 35 20 50 -9 14 -20 13
-34 -4z"/>
<path d="M1821 4871 c-16 -29 9 -45 38 -25 21 15 21 17 4 30 -24 18 -30 17
-42 -5z"/>
<path d="M3141 4877 c-14 -17 -4 -47 15 -47 22 0 29 29 12 46 -13 13 -16 13
-27 1z"/>
<path d="M1691 4831 c-12 -21 -5 -31 19 -31 28 0 42 22 22 36 -23 18 -30 17
-41 -5z"/>
<path d="M3269 4834 c-15 -18 0 -38 27 -32 25 5 28 25 6 37 -15 8 -23 7 -33
-5z"/>
<path d="M1564 4785 c-4 -9 0 -24 10 -33 15 -15 18 -15 26 -2 6 8 9 22 7 30
-3 21 -36 25 -43 5z"/>
<path d="M3397 4793 c-24 -23 12 -55 38 -33 12 10 13 16 4 26 -12 15 -31 18
-42 7z"/>
<path d="M1444 4743 c-14 -24 -7 -43 17 -43 25 0 35 25 19 45 -16 19 -23 19
-36 -2z"/>
<path d="M3515 4740 c-7 -23 1 -40 20 -40 21 0 27 17 15 40 -14 25 -27 26 -35
0z"/>
<path d="M1325 4680 c-8 -24 1 -40 21 -40 20 0 29 27 14 45 -17 20 -27 19 -35
-5z"/>
<path d="M3641 4686 c-16 -19 -7 -46 14 -46 22 0 30 29 13 46 -13 13 -16 13
-27 0z"/>
<path d="M1204 4605 c-4 -9 0 -24 10 -33 15 -15 18 -15 26 -2 6 8 9 22 7 30
-3 21 -36 25 -43 5z"/>
<path d="M3747 4606 c-9 -24 18 -39 42 -24 25 15 26 24 5 32 -25 10 -41 7 -47
-8z"/>
<path d="M1095 4540 c-8 -24 1 -40 21 -40 20 0 29 27 14 45 -17 20 -27 19 -35
-5z"/>
<path d="M3864 4535 c-4 -9 -2 -21 3 -26 14 -14 45 1 41 20 -4 22 -37 26 -44
6z"/>
<path d="M3971 4469 c-11 -18 -10 -24 3 -37 15 -15 17 -15 33 1 16 16 16 18
-2 37 -20 20 -20 20 -34 -1z"/>
<path d="M987 4463 c-12 -12 -7 -31 10 -37 19 -8 48 17 39 33 -8 12 -39 15
-49 4z"/>
<path d="M884 4375 c-7 -18 3 -35 22 -35 20 0 30 30 13 41 -20 12 -29 11 -35
-6z"/>
<path d="M4075 4380 c-8 -12 3 -50 14 -50 15 0 33 30 27 45 -6 17 -32 20 -41
5z"/>
<path d="M787 4293 c-24 -23 12 -55 38 -33 12 10 13 16 4 26 -12 15 -31 18
-42 7z"/>
<path d="M1793 4293 c-23 -9 -15 -36 8 -30 12 3 22 0 26 -9 5 -15 -41 -253
-58 -293 -7 -16 -15 -22 -29 -18 -16 4 -30 -10 -30 -30 0 -3 58 -4 128 -1 113
3 135 7 178 29 121 62 163 237 74 312 -16 14 -52 30 -80 36 -51 11 -194 14
-217 4z m212 -37 c114 -48 65 -271 -68 -307 -46 -12 -111 -4 -104 14 2 7 17
72 32 146 16 73 35 139 43 147 17 18 54 18 97 0z"/>
<path d="M2697 4293 c-13 -12 -7 -23 13 -23 17 0 19 -5 14 -32 -10 -58 -12
-61 -43 -55 -64 13 -145 -38 -170 -106 -16 -42 -13 -119 5 -145 22 -31 74 -30
113 4 l31 26 10 -26 c10 -28 24 -31 64 -16 34 12 34 32 1 24 -19 -5 -24 -3
-21 7 3 8 19 82 36 164 17 83 34 158 36 168 5 14 -1 17 -39 17 -24 0 -47 -3
-50 -7z m-16 -133 c23 -13 24 -40 5 -105 -28 -91 -100 -135 -129 -78 -13 24
-12 32 10 87 29 70 39 85 68 96 27 11 24 11 46 0z"/>
<path d="M4175 4290 c-8 -12 3 -50 14 -50 15 0 33 30 27 45 -6 17 -32 20 -41
5z"/>
<path d="M691 4197 c-8 -10 -7 -18 2 -31 11 -15 15 -15 32 -2 16 12 17 16 6
30 -16 19 -25 20 -40 3z"/>
<path d="M4270 4195 c-23 -28 21 -50 48 -23 9 9 7 14 -6 24 -22 17 -27 17 -42
-1z"/>
<path d="M2285 4171 c-73 -34 -105 -85 -105 -172 0 -85 65 -117 128 -64 l30
25 6 -25 c5 -20 13 -25 39 -25 31 0 57 14 57 32 0 5 -12 5 -26 2 -22 -6 -25
-4 -21 12 15 50 47 184 47 197 0 14 -60 37 -96 37 -11 0 -37 -9 -59 -19z m92
-27 c12 -33 -18 -127 -52 -161 -35 -35 -69 -43 -79 -17 -10 26 -7 94 5 117 34
66 110 103 126 61z"/>
<path d="M4080 4154 c0 -9 13 -31 30 -50 16 -18 32 -51 35 -71 6 -39 14 -59
41 -103 26 -44 4 -332 -30 -382 -12 -19 -16 -36 -11 -57 6 -27 -1 -37 -72
-108 -43 -43 -120 -112 -172 -153 -121 -96 -131 -106 -131 -130 0 -10 -6 -23
-12 -27 -7 -5 -28 -25 -47 -45 -27 -29 -38 -54 -53 -120 -21 -95 -41 -225 -41
-280 -1 -42 29 -91 59 -97 16 -3 15 1 -8 25 -38 41 -44 77 -20 118 13 21 17
38 11 47 -17 28 -9 82 18 122 19 27 26 49 25 73 -3 41 8 64 58 118 20 23 43
58 50 79 12 39 40 58 104 72 15 3 45 24 65 47 20 22 53 49 74 59 25 13 37 26
37 41 0 12 19 40 45 64 39 38 44 47 39 73 -5 22 0 38 16 61 12 17 22 43 21 58
-3 76 -1 93 22 149 23 58 24 60 6 72 -22 13 -24 48 -7 85 9 22 7 31 -15 64
-15 21 -27 50 -27 65 0 19 -17 45 -55 87 -32 35 -55 53 -55 44z"/>
<path d="M600 4100 c-14 -26 0 -46 24 -37 20 8 21 31 2 46 -12 10 -17 8 -26
-9z"/>
<path d="M4230 4053 c0 -56 1 -59 30 -70 34 -13 39 -43 19 -103 -10 -28 -9
-34 5 -42 22 -12 20 -44 -9 -135 -22 -70 -23 -79 -9 -94 14 -15 13 -21 -5 -58
-12 -22 -26 -63 -32 -91 -8 -35 -20 -60 -40 -77 -25 -23 -28 -31 -23 -63 5
-32 2 -40 -17 -54 -13 -9 -38 -16 -56 -16 -35 0 -58 -18 -84 -67 -12 -21 -31
-35 -68 -48 -38 -14 -51 -24 -51 -39 -1 -13 -17 -32 -41 -49 -47 -32 -79 -81
-79 -121 0 -15 -11 -41 -25 -58 -17 -20 -25 -42 -25 -68 0 -21 -4 -50 -10 -64
-9 -25 -8 -26 15 -20 l24 6 -15 -46 c-9 -25 -20 -46 -25 -46 -23 0 -5 -40 30
-68 27 -21 46 -49 59 -84 16 -43 24 -52 40 -50 11 2 43 -8 71 -22 l50 -26 -22
-47 c-34 -74 -31 -71 -87 -60 -62 12 -75 3 -85 -58 -6 -45 -6 -45 -48 -46 -36
0 -39 -2 -23 -12 50 -33 156 -114 194 -151 50 -47 72 -84 72 -120 0 -14 5 -28
10 -31 16 -10 12 63 -6 98 -10 18 -28 47 -42 65 l-24 32 29 0 c16 0 52 11 78
25 54 27 60 24 71 -33 11 -56 29 -31 26 35 -3 55 -1 61 23 77 29 19 26 37 -5
29 -17 -5 -20 0 -20 26 0 33 -28 111 -39 111 -4 0 -7 -33 -7 -72 1 -62 -3 -78
-23 -104 -52 -71 -143 -81 -201 -23 -41 42 -41 68 0 39 35 -25 39 -16 8 17
-19 20 -19 23 -4 23 9 0 26 -5 37 -11 42 -22 40 -2 -2 24 l-44 28 57 -6 56 -6
16 56 c14 46 22 58 50 72 32 15 68 13 91 -4 15 -11 58 -80 89 -141 58 -114 55
-222 -7 -304 -41 -53 -79 -76 -148 -86 -60 -8 -60 -9 -45 -97 5 -32 2 -45 -15
-65 -20 -24 -21 -24 -35 -6 -19 26 -30 12 -16 -19 7 -15 20 -25 33 -25 12 0
19 -5 17 -12 -7 -21 -43 -20 -63 2 -19 21 -45 27 -45 10 0 -5 17 -28 37 -51
l37 -41 -32 -63 c-18 -35 -42 -71 -53 -81 -19 -17 -20 -17 -33 1 -14 19 -19
18 -91 -9 -38 -14 -185 -23 -172 -10 3 3 38 10 78 14 42 5 78 14 87 24 24 24
13 26 -53 10 -33 -7 -91 -13 -130 -13 -67 1 -68 1 -30 11 22 5 57 14 78 19 68
18 40 29 -72 29 -63 0 -112 4 -116 10 -4 6 14 10 47 11 76 1 32 17 -49 18 -35
1 -63 5 -63 10 0 6 24 7 57 4 41 -5 54 -3 49 5 -4 7 -14 12 -22 12 -8 0 -14 6
-14 14 0 16 -60 30 -98 22 -49 -10 -72 25 -72 108 0 54 26 144 53 180 7 9 37
23 67 31 l55 14 -50 -5 -50 -5 33 31 c19 18 48 32 72 36 47 8 53 24 9 24 -29
0 -31 2 -24 28 9 36 50 89 87 112 17 10 65 30 106 45 94 33 116 48 144 92 19
33 20 37 5 48 -22 16 -37 58 -30 84 6 25 4 25 64 4 26 -10 51 -15 54 -11 12
12 -19 46 -47 52 -23 4 -29 13 -39 51 -14 57 -36 59 -45 4 -9 -53 -26 -69 -74
-67 -47 2 -67 -13 -91 -67 -26 -56 -24 -108 5 -141 l23 -28 -56 -27 c-63 -30
-77 -44 -149 -149 -78 -114 -116 -146 -181 -153 -58 -7 -105 -33 -175 -97 -36
-34 -58 -43 -161 -70 -65 -17 -122 -33 -126 -36 -5 -3 -23 3 -40 12 -24 12
-46 15 -81 11 -35 -5 -127 8 -326 43 -265 48 -366 60 -332 41 8 -5 150 -36
314 -71 165 -34 318 -69 340 -77 61 -24 95 -60 133 -140 42 -91 52 -153 29
-188 -20 -30 -8 -32 28 -4 60 48 15 199 -93 311 -60 61 -61 67 -8 44 49 -20
100 -86 148 -192 23 -52 46 -94 50 -94 20 0 -52 155 -107 232 l-34 47 38 10
c20 6 69 17 109 26 58 13 86 27 145 71 73 54 194 121 203 112 3 -2 -4 -30 -15
-61 -22 -63 -26 -166 -9 -217 11 -31 10 -34 -22 -58 -41 -32 -129 -117 -111
-107 7 4 36 22 64 41 29 18 54 32 56 29 2 -2 -9 -21 -26 -43 -28 -34 -52 -92
-39 -92 3 0 14 16 26 35 19 32 65 65 76 53 7 -7 -61 -132 -82 -150 -37 -32
-181 -61 -313 -64 -69 -1 -130 2 -136 7 -7 6 -29 6 -56 0 -25 -6 -119 -17
-209 -26 -90 -9 -202 -22 -249 -30 -203 -33 -376 -67 -385 -77 -16 -17 132 -1
396 42 246 41 485 68 497 56 21 -22 -31 -47 -254 -121 -131 -45 -264 -89 -294
-98 l-55 -16 45 5 c48 5 306 80 480 139 141 48 178 56 223 46 67 -16 146 -101
199 -218 46 -101 39 -131 -44 -185 -51 -34 -113 -67 -503 -268 -99 -51 -182
-95 -185 -98 -19 -18 83 28 330 148 279 135 357 167 387 156 27 -11 79 20 96
57 18 37 42 53 182 126 78 40 128 55 289 85 151 29 265 99 372 227 43 53 79
86 103 96 74 31 101 83 66 129 -20 27 -19 39 10 82 42 64 75 169 100 321 14
80 29 162 35 181 13 44 13 155 0 199 -7 25 -5 44 6 75 44 115 54 153 54 196 0
53 -14 103 -41 141 -15 21 -17 35 -10 77 4 28 13 58 20 66 18 21 132 83 178
95 47 13 57 20 72 49 17 33 -2 91 -49 149 -22 26 -46 66 -52 88 -15 53 -25 65
-73 86 -57 26 -145 24 -145 -3 0 -6 20 -29 45 -52 39 -37 45 -48 45 -82 0 -53
-9 -63 -56 -62 -53 0 -81 -9 -121 -39 l-33 -24 0 55 c0 70 -13 78 -100 66 -35
-5 -67 -7 -72 -4 -4 3 -8 18 -8 33 0 24 7 31 48 49 26 11 58 23 72 27 88 26
150 90 150 153 0 19 8 46 19 60 58 84 85 174 102 345 8 85 8 134 0 179 -13 73
-56 192 -77 208 -12 11 -14 4 -14 -47z m113 -877 c44 -18 64 -43 87 -110 11
-32 36 -76 55 -97 40 -44 41 -49 20 -89 -13 -25 -22 -30 -53 -30 -29 0 -43 -7
-64 -30 -18 -21 -35 -30 -56 -30 -17 0 -42 -4 -56 -10 -22 -8 -26 -16 -26 -52
0 -24 -3 -53 -6 -65 -5 -20 -8 -20 -37 -9 -18 7 -41 16 -51 20 -17 6 -13 13
32 56 44 42 52 55 52 86 0 30 -7 44 -39 75 -39 36 -39 37 -21 54 27 24 114 25
167 1 24 -11 50 -16 60 -12 15 6 12 13 -25 45 -41 34 -43 39 -37 74 11 55 0
81 -40 100 -64 31 -30 52 38 23z m-318 -186 c8 -35 25 -30 25 6 0 48 25 19 28
-32 3 -49 3 -49 60 -79 81 -43 81 -63 1 -150 -46 -49 -80 -74 -131 -98 -78
-36 -88 -62 -26 -62 21 -1 43 -6 50 -13 18 -18 28 -15 28 8 0 29 44 70 75 70
73 0 165 -101 165 -180 0 -27 -45 -176 -56 -189 -2 -3 -39 30 -82 71 -63 62
-86 77 -118 82 -202 31 -245 76 -213 227 21 96 92 148 205 150 56 1 99 13 74
22 -8 3 -37 8 -64 11 -28 3 -69 18 -94 34 -24 15 -64 38 -90 52 -71 39 -64 72
7 35 34 -17 41 -12 41 32 0 42 12 42 44 1 14 -18 26 -28 26 -21 0 24 20 64 29
58 5 -3 12 -19 16 -35z m-150 -112 c25 -17 45 -34 44 -37 0 -8 -110 -94 -113
-90 -2 2 -11 19 -20 37 -16 32 -16 34 4 50 12 10 23 30 23 45 1 15 5 27 9 27
4 0 28 -14 53 -32z m-256 -550 c52 5 61 -14 12 -29 -22 -7 -41 -16 -41 -21 0
-5 8 -7 18 -4 46 13 82 17 82 9 0 -5 -21 -20 -47 -33 -32 -16 -42 -25 -31 -27
9 -2 35 5 57 17 48 24 53 12 10 -24 -41 -35 -71 -33 -103 5 -26 30 -34 77 -19
115 5 14 8 15 17 3 7 -8 24 -13 45 -11z m576 -555 c-11 -91 -34 -171 -70 -242
-49 -96 -56 -104 -89 -95 -23 5 -27 10 -21 31 6 25 6 25 -19 -3 -13 -16 -27
-26 -30 -23 -7 7 43 177 57 197 5 6 25 12 43 12 l34 0 0 55 c0 46 4 57 25 72
14 10 35 26 47 36 11 9 23 17 25 17 3 0 1 -26 -2 -57z m-146 -74 c-20 -12 -21
-5 -7 27 13 28 13 28 16 5 2 -13 -2 -27 -9 -32z m8 -308 c45 -21 60 -49 43
-81 -11 -20 -52 -36 -81 -32 -10 2 -36 -24 -68 -67 -115 -155 -235 -234 -370
-245 -99 -8 -206 -46 -326 -114 -55 -31 -103 -58 -106 -60 -3 -1 -9 21 -12 50
-12 118 -87 239 -184 299 -42 26 -49 22 107 63 l114 31 31 54 c30 56 65 84
120 97 26 6 28 5 17 -8 -11 -14 -4 -17 60 -28 40 -6 87 -15 103 -19 l30 -8
-44 -12 c-46 -13 -114 -52 -127 -72 -4 -6 -3 -10 2 -7 82 39 116 50 181 58 76
8 236 6 252 -4 4 -3 30 18 57 46 77 79 125 93 201 59z m-984 -442 c36 -61 38
-128 6 -205 -38 -94 -55 -61 -18 36 27 72 19 97 -71 235 -39 58 -70 108 -70
111 0 14 129 -134 153 -177z"/>
<path d="M4361 4096 c-9 -11 -10 -20 -1 -35 6 -12 13 -21 15 -21 10 0 24 40
19 54 -8 20 -18 20 -33 2z"/>
<path d="M521 4001 c-16 -29 3 -58 25 -40 17 14 17 20 0 44 -13 18 -14 18 -25
-4z"/>
<path d="M4441 3998 c-12 -19 -11 -23 5 -35 15 -11 20 -11 32 1 11 11 12 17 0
35 -16 26 -20 26 -37 -1z"/>
<path d="M440 3885 c-17 -21 6 -61 26 -44 18 15 18 45 0 52 -8 3 -20 0 -26 -8z"/>
<path d="M4520 3885 c-10 -12 -10 -18 0 -31 12 -13 15 -13 28 0 15 15 10 46
-6 46 -5 0 -15 -7 -22 -15z"/>
<path d="M372 3778 c-27 -27 -3 -54 31 -36 22 11 22 25 -1 37 -13 7 -23 6 -30
-1z"/>
<path d="M4590 3775 c-11 -13 -11 -19 3 -33 20 -19 41 -5 35 24 -4 24 -22 28
-38 9z"/>
<path d="M302 3660 c-14 -23 -8 -40 12 -40 24 0 36 23 22 43 -17 22 -18 21
-34 -3z"/>
<path d="M4660 3655 c-22 -26 7 -46 39 -26 12 8 12 12 2 25 -17 20 -25 20 -41
1z"/>
<path d="M1870 3639 c-87 -39 -137 -110 -147 -204 -11 -101 57 -185 150 -185
49 0 134 28 141 46 5 13 2 15 -16 10 -120 -34 -154 -29 -188 26 -24 40 -25 86
-4 158 29 97 119 160 193 133 23 -8 26 -14 25 -51 -1 -34 3 -42 17 -42 13 0
20 13 28 50 6 28 11 53 11 55 0 9 -78 25 -120 25 -25 0 -65 -10 -90 -21z"/>
<path d="M2910 3635 c-10 -13 -9 -15 9 -15 28 0 27 -12 -9 -187 -36 -174 -36
-173 -6 -173 19 0 24 6 29 38 12 74 87 192 122 192 21 0 19 -41 -4 -129 -11
-41 -17 -80 -14 -87 6 -17 65 -18 81 -2 18 18 15 27 -8 21 -25 -7 -25 -2 1
102 12 46 19 96 15 109 -13 52 -81 37 -132 -29 -15 -20 -29 -34 -31 -32 -2 3
5 45 17 96 11 50 20 95 20 101 0 16 -76 12 -90 -5z"/>
<path d="M1145 3570 c-14 -22 -36 -42 -50 -46 -30 -8 -33 -34 -4 -34 17 0 20
-5 16 -22 -29 -124 -39 -190 -30 -199 15 -15 70 -14 88 1 24 20 18 30 -16 23
-27 -5 -31 -4 -26 13 3 10 14 56 23 102 13 62 21 82 34 82 9 0 25 7 36 15 18
14 18 14 -7 15 -35 0 -37 4 -29 50 9 51 -3 51 -35 0z"/>
<path d="M2494 3570 c-15 -22 -37 -43 -50 -46 -29 -8 -32 -34 -3 -34 15 0 19
-5 15 -17 -2 -10 -13 -57 -22 -105 -20 -99 -16 -112 36 -110 31 1 60 17 60 33
0 5 -14 6 -31 2 -28 -5 -30 -4 -25 18 9 35 36 170 36 175 0 2 11 4 24 4 13 0
29 6 35 14 10 12 7 15 -16 18 -26 3 -28 5 -25 46 2 23 1 42 -2 42 -3 0 -18
-18 -32 -40z"/>
<path d="M242 3538 c-8 -8 -9 -15 -1 -25 15 -17 34 -17 48 1 10 12 8 17 -8 25
-24 14 -24 14 -39 -1z"/>
<path d="M4714 3535 c-8 -20 4 -35 26 -35 25 0 35 17 20 35 -16 19 -39 19 -46
0z"/>
<path d="M1368 3530 c-72 -22 -118 -88 -118 -171 0 -122 176 -137 244 -20 38
66 21 158 -36 187 -30 15 -49 16 -90 4z m76 -42 c20 -28 20 -65 0 -125 -17
-54 -45 -83 -79 -83 -54 0 -69 59 -40 158 9 28 23 56 33 61 30 18 70 13 86
-11z"/>
<path d="M2205 3528 c-101 -35 -158 -183 -98 -250 24 -27 79 -23 109 7 30 31
32 31 36 3 3 -20 9 -23 43 -23 29 0 41 4 43 17 2 12 -2 15 -17 11 -27 -7 -26
-1 4 116 13 52 22 98 19 103 -6 9 -72 28 -94 27 -8 0 -28 -5 -45 -11z m78 -63
c-6 -85 -53 -165 -99 -165 -60 0 -55 120 7 182 22 23 36 29 61 26 32 -3 33 -5
31 -43z"/>
<path d="M2680 3508 c-54 -37 -73 -71 -78 -137 -4 -54 -2 -62 21 -85 21 -20
36 -26 72 -26 48 0 105 23 105 41 0 7 -7 8 -17 4 -38 -15 -88 -16 -106 -3 -40
30 -9 170 44 198 33 18 73 9 77 -17 4 -26 12 -29 30 -11 17 17 15 45 -4 52
-37 14 -111 6 -144 -16z"/>
<path d="M4771 3422 c-8 -15 -7 -23 4 -32 16 -13 35 -6 35 14 0 8 -6 19 -14
25 -12 10 -17 8 -25 -7z"/>
<path d="M185 3413 c-17 -12 -18 -15 -5 -23 21 -14 44 -8 48 11 4 23 -20 30
-43 12z"/>
<path d="M4820 3295 c-13 -15 -7 -45 8 -45 17 0 33 27 26 44 -8 20 -18 20 -34
1z"/>
<path d="M137 3287 c-3 -9 1 -23 9 -34 14 -17 14 -17 29 2 8 10 14 24 12 30
-6 16 -44 18 -50 2z"/>
<path d="M104 3159 c-3 -6 0 -17 8 -25 12 -12 17 -12 33 1 17 13 18 16 5 25
-20 13 -37 13 -46 -1z"/>
<path d="M4853 3154 c-3 -8 1 -22 9 -30 13 -13 16 -13 27 0 7 9 11 23 7 31 -7
20 -35 19 -43 -1z"/>
<path d="M81 3036 c-10 -11 -11 -23 -5 -37 9 -20 10 -20 27 -2 14 16 15 22 4
37 -12 16 -14 16 -26 2z"/>
<path d="M4881 3031 c-12 -8 -12 -12 -2 -25 17 -20 37 -20 45 0 11 30 -13 44
-43 25z"/>
<path d="M920 2985 c-10 -12 -9 -15 4 -15 9 0 19 -6 22 -13 4 -11 -32 -203
-61 -325 -5 -21 -2 -23 21 -20 24 3 29 9 39 55 17 74 84 173 118 173 17 0 15
-47 -4 -124 -23 -86 -23 -88 -4 -102 20 -15 51 -10 75 12 12 12 11 14 -8 14
-27 0 -28 10 -2 112 22 85 20 112 -10 128 -28 15 -62 -2 -104 -51 -41 -48 -43
-42 -21 58 9 37 18 78 20 91 5 20 2 22 -34 22 -22 0 -44 -6 -51 -15z"/>
<path d="M2397 2993 c-12 -11 -8 -23 7 -23 31 0 31 0 -23 -243 l-19 -88 23
-15 c31 -20 104 -20 143 0 95 49 133 192 65 246 -32 25 -56 19 -104 -27 l-36
-34 18 83 c10 46 19 89 19 96 0 13 -81 18 -93 5z m161 -165 c7 -7 12 -22 12
-35 0 -35 -39 -126 -62 -145 -28 -24 -75 -24 -83 1 -11 36 16 112 55 152 38
41 58 47 78 27z"/>
<path d="M1687 2984 c-15 -15 -6 -24 23 -24 17 0 30 -2 30 -5 0 -26 -63 -291
-71 -301 -6 -8 -20 -14 -30 -14 -11 0 -19 -7 -19 -16 0 -15 14 -16 118 -11
132 6 184 18 218 52 41 41 31 106 -19 132 -28 14 -29 16 -11 26 44 23 64 50
64 87 0 64 -22 74 -169 78 -69 2 -130 0 -134 -4z m215 -35 c51 -27 24 -104
-39 -114 -21 -3 -48 -8 -60 -11 -16 -3 -23 0 -23 10 0 33 23 121 34 128 12 9
61 1 88 -13z m-17 -165 c32 -13 30 -87 -4 -118 -10 -9 -45 -19 -79 -22 -69 -8
-71 -5 -53 66 5 19 12 48 16 64 6 28 7 28 56 22 27 -4 56 -9 64 -12z"/>
<path d="M775 2920 c-14 -22 -36 -42 -50 -46 -30 -7 -34 -34 -5 -34 24 0 24
10 -1 -105 -12 -52 -19 -101 -16 -109 9 -22 56 -29 83 -11 31 20 31 37 -1 29
-23 -6 -25 -4 -24 27 1 19 8 63 17 99 15 59 20 65 46 70 40 7 46 30 8 30 -29
0 -29 1 -24 45 2 25 2 45 -2 45 -3 0 -17 -18 -31 -40z"/>
<path d="M52 2918 c-21 -21 -15 -50 10 -46 27 4 32 18 16 41 -11 14 -16 15
-26 5z"/>
<path d="M4910 2890 c0 -28 28 -37 48 -16 15 15 15 18 2 26 -26 17 -50 12 -50
-10z"/>
<path d="M1327 2876 c-90 -33 -144 -134 -116 -214 19 -55 63 -65 157 -37 31 9
52 22 52 30 0 12 -5 12 -35 -1 -19 -7 -50 -14 -70 -14 -29 0 -37 5 -46 27 -5
14 -8 32 -5 39 2 6 36 21 76 33 103 32 134 71 93 119 -24 28 -60 34 -106 18z
m61 -42 c4 -29 -26 -63 -73 -79 -48 -16 -53 -8 -28 42 28 58 94 82 101 37z"/>
<path d="M2154 2879 c-41 -12 -100 -77 -115 -129 -16 -52 -3 -107 32 -132 24
-18 28 -19 63 -4 20 8 39 22 42 31 8 21 24 19 24 -4 0 -10 6 -23 13 -29 18
-15 71 0 75 20 2 12 -2 15 -17 11 -26 -7 -26 -4 4 113 13 54 22 100 20 104 -5
8 -87 31 -102 29 -4 0 -22 -5 -39 -10z m80 -54 c-4 -91 -54 -175 -104 -175
-30 0 -40 15 -40 61 0 76 60 152 115 147 26 -3 30 -7 29 -33z"/>
<path d="M2683 2873 c-7 -2 -13 -11 -13 -19 0 -9 4 -13 8 -10 20 12 34 -17 52
-105 26 -123 25 -146 -6 -186 -30 -40 -41 -41 -50 -8 -8 32 -26 28 -35 -8 -9
-33 -4 -37 42 -37 31 0 42 6 62 33 44 58 197 320 197 336 0 12 -32 14 -67 5
-29 -8 -30 -34 -2 -34 25 0 24 -3 -29 -94 -22 -37 -42 -64 -45 -59 -3 4 -10
37 -16 73 -22 127 -19 120 -54 119 -18 0 -38 -3 -44 -6z"/>
<path d="M4931 2771 c-14 -26 12 -50 34 -31 11 9 12 17 4 31 -5 10 -14 19 -19
19 -5 0 -14 -9 -19 -19z"/>
<path d="M24 2769 c-3 -6 1 -18 10 -27 15 -15 17 -15 34 1 15 16 15 19 2 27
-20 13 -37 12 -46 -1z"/>
<path d="M20 2645 c-15 -18 -6 -45 14 -45 20 0 29 16 21 40 -8 24 -18 25 -35
5z"/>
<path d="M4943 2639 c-6 -6 -9 -18 -6 -25 7 -18 37 -18 52 0 10 12 8 17 -8 25
-24 14 -24 14 -38 0z"/>
<path d="M4952 2518 c-16 -16 -15 -45 2 -51 23 -9 39 18 26 42 -13 25 -12 25
-28 9z"/>
<path d="M4 2499 c-8 -13 15 -30 36 -26 8 1 16 10 18 20 3 12 -3 17 -22 17
-14 0 -28 -5 -32 -11z"/>
<path d="M17 2373 c-24 -24 12 -50 43 -31 14 9 16 16 8 25 -11 14 -40 17 -51
6z"/>
<path d="M4937 2366 c-3 -8 1 -22 9 -33 14 -17 14 -17 29 1 11 14 12 23 4 33
-15 17 -35 17 -42 -1z"/>
<path d="M26 2234 c-8 -21 -8 -21 9 -28 20 -7 45 3 45 19 0 12 -21 25 -40 25
-4 0 -11 -7 -14 -16z"/>
<path d="M4934 2235 c-12 -29 15 -45 46 -25 13 8 12 11 -5 24 -25 19 -34 20
-41 1z"/>
<path d="M51 2106 c-10 -12 -10 -20 0 -37 11 -22 12 -22 25 -4 17 24 17 30 0
44 -10 9 -16 8 -25 -3z"/>
<path d="M4912 2107 c-9 -10 -7 -19 4 -36 l16 -22 15 21 c12 16 12 24 3 35
-15 18 -24 19 -38 2z"/>
<path d="M3585 2100 c-3 -6 4 -14 17 -19 13 -5 40 -17 61 -26 l39 -16 -7 23
c-4 13 -14 29 -23 36 -19 14 -78 16 -87 2z"/>
<path d="M3537 2043 c-3 -5 12 -19 34 -31 38 -22 51 -16 31 15 -9 15 -58 27
-65 16z"/>
<path d="M3490 1999 c0 -17 20 -49 31 -49 5 0 3 14 -6 30 -16 31 -25 38 -25
19z"/>
<path d="M72 1978 c-8 -8 -8 -17 -1 -30 8 -15 13 -16 32 -7 32 17 32 18 11 34
-23 18 -27 18 -42 3z"/>
<path d="M4886 1974 c-4 -10 -2 -22 3 -27 14 -14 43 0 39 20 -4 24 -34 28 -42
7z"/>
<path d="M3610 1906 c0 -2 20 -14 45 -26 24 -12 66 -45 91 -73 44 -49 47 -50
40 -22 -7 34 -65 91 -113 111 -31 14 -63 18 -63 10z"/>
<path d="M101 1846 c-15 -18 11 -40 39 -31 25 8 26 21 1 35 -25 13 -26 13 -40
-4z"/>
<path d="M4863 1853 c-7 -3 -13 -13 -13 -23 0 -10 6 -20 13 -23 15 -5 47 10
47 23 0 13 -32 28 -47 23z"/>
<path d="M141 1721 c-16 -28 14 -51 36 -28 13 13 14 19 3 31 -17 21 -27 20
-39 -3z"/>
<path d="M4820 1715 c-22 -26 7 -46 39 -26 12 8 12 12 2 25 -17 20 -25 20 -41
1z"/>
<path d="M189 1594 c-10 -12 -9 -18 4 -31 13 -13 19 -14 31 -3 21 17 20 27 -3
39 -14 8 -22 7 -32 -5z"/>
<path d="M4770 1594 c-11 -12 -11 -18 2 -30 13 -13 19 -14 36 -3 20 12 20 15
5 31 -20 22 -27 22 -43 2z"/>
<path d="M4721 1476 c-14 -16 -4 -46 14 -46 19 0 27 17 20 40 -7 23 -18 25
-34 6z"/>
<path d="M234 1469 c-3 -6 0 -18 9 -26 12 -12 19 -13 36 -3 18 9 20 14 10 26
-14 17 -45 19 -55 3z"/>
<path d="M301 1359 c-11 -18 -10 -24 3 -37 15 -15 17 -15 33 1 16 16 16 18 -2
37 -20 20 -20 20 -34 -1z"/>
<path d="M4654 1349 c-3 -6 1 -18 10 -27 15 -15 17 -15 32 0 19 19 11 38 -16
38 -10 0 -22 -5 -26 -11z"/>
<path d="M367 1243 c-12 -11 -8 -40 7 -52 12 -10 17 -8 26 9 16 29 -12 65 -33
43z"/>
<path d="M4590 1235 c-23 -28 21 -50 48 -23 9 9 7 14 -6 24 -22 17 -27 17 -42
-1z"/>
<path d="M4520 1125 c-8 -10 -8 -19 2 -34 15 -25 24 -26 32 -5 15 38 -10 67
-34 39z"/>
<path d="M435 1120 c-3 -5 -1 -19 5 -30 9 -17 14 -19 26 -9 21 17 18 49 -5 49
-11 0 -23 -4 -26 -10z"/>
<path d="M517 1024 c-12 -12 -8 -41 7 -53 17 -14 39 9 34 36 -3 18 -29 29 -41
17z"/>
<path d="M4443 1019 c-16 -16 -5 -39 18 -39 24 0 37 29 18 41 -18 11 -23 11
-36 -2z"/>
<path d="M4360 915 c-10 -12 -10 -18 0 -29 16 -20 42 -8 38 17 -4 26 -21 32
-38 12z"/>
<path d="M594 909 c-3 -6 0 -18 9 -26 12 -12 19 -13 36 -3 18 9 20 14 10 26
-14 17 -45 19 -55 3z"/>
<path d="M692 816 c-8 -19 -8 -27 3 -36 8 -6 19 -9 25 -5 14 9 13 40 -3 54
-11 8 -16 5 -25 -13z"/>
<path d="M4270 816 c-10 -13 -10 -19 0 -32 12 -14 15 -14 29 0 14 15 14 17 0
32 -14 14 -17 14 -29 0z"/>
<path d="M787 723 c-24 -23 12 -55 38 -33 12 10 13 16 4 26 -12 15 -31 18 -42
7z"/>
<path d="M4177 723 c-24 -23 12 -55 38 -33 12 10 13 16 4 26 -12 15 -31 18
-42 7z"/>
<path d="M887 633 c-24 -23 12 -55 38 -33 12 10 13 16 4 26 -12 15 -31 18 -42
7z"/>
<path d="M4073 624 c-3 -8 1 -22 9 -30 13 -13 16 -13 27 0 7 9 11 23 7 31 -7
20 -35 19 -43 -1z"/>
<path d="M990 545 c-17 -21 6 -61 26 -44 18 15 18 45 0 52 -8 3 -20 0 -26 -8z"/>
<path d="M3977 553 c-12 -11 -7 -41 7 -46 8 -3 22 3 31 13 16 17 15 19 -4 29
-23 13 -26 13 -34 4z"/>
<path d="M1096 464 c-11 -30 13 -44 43 -25 12 8 12 12 2 25 -17 20 -37 20 -45
0z"/>
<path d="M3861 467 c-9 -11 -8 -17 4 -27 19 -16 47 -5 43 17 -4 23 -31 28 -47
10z"/>
<path d="M1210 395 c-16 -19 8 -59 27 -43 17 14 17 45 -1 51 -8 3 -20 0 -26
-8z"/>
<path d="M3757 403 c-14 -14 -7 -43 11 -43 30 0 44 21 24 36 -20 15 -26 17
-35 7z"/>
<path d="M1325 330 c-8 -12 3 -50 14 -50 15 0 33 30 27 45 -6 17 -32 20 -41 5z"/>
<path d="M3635 330 c-8 -12 3 -50 14 -50 15 0 33 30 27 45 -6 17 -32 20 -41 5z"/>
<path d="M3517 283 c-11 -10 -8 -41 4 -49 6 -3 18 1 27 9 13 13 13 19 2 31
-14 17 -23 20 -33 9z"/>
<path d="M1442 268 c-13 -13 2 -38 23 -38 21 0 36 25 23 38 -7 7 -17 12 -23
12 -6 0 -16 -5 -23 -12z"/>
<path d="M1564 215 c-12 -29 15 -45 45 -26 12 8 12 12 2 25 -17 20 -40 21 -47
1z"/>
<path d="M3397 223 c-24 -23 12 -55 38 -33 12 10 13 16 4 26 -12 15 -31 18
-42 7z"/>
<path d="M1695 180 c-17 -19 -17 -22 -3 -36 28 -28 52 9 30 44 -7 9 -13 8 -27
-8z"/>
<path d="M3269 174 c-10 -12 -9 -18 4 -31 13 -13 19 -14 31 -3 21 17 20 27 -3
39 -14 8 -22 7 -32 -5z"/>
<path d="M1820 139 c-10 -17 -9 -24 3 -36 8 -9 20 -12 26 -9 16 10 14 41 -3
55 -12 10 -17 8 -26 -10z"/>
<path d="M3140 134 c-11 -12 -10 -18 3 -32 16 -15 18 -15 34 0 13 14 14 20 3
32 -16 20 -24 20 -40 0z"/>
<path d="M1943 94 c-3 -8 1 -22 9 -30 13 -13 16 -13 27 0 7 9 11 23 7 31 -7
20 -35 19 -43 -1z"/>
<path d="M3004 99 c-3 -6 0 -18 9 -26 12 -12 18 -13 35 -2 16 10 18 16 10 26
-13 16 -44 17 -54 2z"/>
<path d="M2083 79 c-15 -15 -5 -39 16 -39 29 0 43 21 23 36 -21 17 -25 17 -39
3z"/>
<path d="M2880 80 c-12 -7 -12 -13 0 -34 10 -20 16 -23 27 -15 29 25 5 69 -27
49z"/>
<path d="M2217 73 c-11 -10 -8 -41 3 -48 19 -12 41 15 29 36 -10 20 -21 24
-32 12z"/>
<path d="M2743 54 c-3 -8 1 -22 9 -30 13 -13 16 -13 27 0 7 9 11 23 7 31 -7
20 -35 19 -43 -1z"/>
<path d="M2344 45 c-12 -29 15 -45 45 -26 12 8 12 12 2 25 -17 20 -40 21 -47
1z"/>
<path d="M2481 50 c-16 -9 -5 -50 14 -50 12 0 25 21 25 40 0 12 -25 19 -39 10z"/>
<path d="M2612 48 c-13 -13 2 -38 23 -38 21 0 36 25 23 38 -15 15 -31 15 -46
0z"/>
</g>
</svg>
