<?xml version="1.0" standalone="no"?>
<!DOCTYPE svg PUBLIC "-//W3C//DTD SVG 20010904//EN"
 "http://www.w3.org/TR/2001/REC-SVG-20010904/DTD/svg10.dtd">
<svg version="1.0" xmlns="http://www.w3.org/2000/svg"
 width="500.000000pt" height="498.000000pt" viewBox="0 0 500.000000 498.000000"
 preserveAspectRatio="xMidYMid meet">
<metadata>
Created by potrace 1.15, written by Peter Selinger 2001-2017
</metadata>
<g transform="translate(0.000000,498.000000) scale(0.100000,-0.100000)"
fill="#000000" stroke="none">
<path d="M2347 4963 c-11 -11 -8 -40 6 -51 19 -16 43 24 26 44 -13 15 -22 18
-32 7z"/>
<path d="M2476 4961 c-8 -12 4 -41 16 -41 5 0 19 5 30 11 21 11 21 12 3 25
-22 16 -41 18 -49 5z"/>
<path d="M2617 4963 c-12 -11 -8 -41 6 -46 7 -3 22 2 32 10 20 14 20 14 1 29
-22 16 -30 17 -39 7z"/>
<path d="M2222 4948 c-16 -16 -15 -33 1 -46 20 -17 40 20 24 42 -10 13 -15 14
-25 4z"/>
<path d="M2749 4944 c-15 -18 0 -38 27 -32 25 5 28 25 6 37 -15 8 -23 7 -33
-5z"/>
<path d="M2080 4925 c-23 -28 21 -50 48 -23 9 9 7 14 -6 24 -22 17 -27 17 -42
-1z"/>
<path d="M2880 4925 c-22 -26 7 -46 39 -26 12 8 12 12 2 25 -17 20 -25 20 -41
1z"/>
<path d="M1945 4900 c-3 -5 -1 -19 6 -31 10 -19 12 -20 26 -6 9 9 13 23 10 31
-7 18 -32 21 -42 6z"/>
<path d="M3003 4894 c-3 -8 2 -23 11 -32 15 -15 17 -15 30 3 10 14 11 24 4 32
-14 18 -37 16 -45 -3z"/>
<path d="M1817 4866 c-9 -24 18 -39 44 -25 22 11 22 12 4 25 -24 18 -41 18
-48 0z"/>
<path d="M3140 4865 c-10 -12 -10 -18 0 -31 12 -13 15 -13 28 0 15 15 10 46
-6 46 -5 0 -15 -7 -22 -15z"/>
<path d="M1690 4834 c-11 -12 -10 -18 3 -32 16 -15 18 -15 34 0 13 14 14 20 3
32 -7 9 -16 16 -20 16 -4 0 -13 -7 -20 -16z"/>
<path d="M3260 4830 c-13 -8 -13 -11 3 -27 16 -16 18 -16 33 -1 28 27 -1 50
-36 28z"/>
<path d="M1570 4785 c-19 -22 5 -48 31 -34 10 5 19 14 19 19 0 5 -9 14 -19 19
-14 8 -22 7 -31 -4z"/>
<path d="M3390 4784 c-11 -12 -10 -18 3 -31 15 -15 18 -15 37 2 19 17 19 19 2
31 -22 17 -27 17 -42 -2z"/>
<path d="M3522 4748 c-16 -16 -15 -45 2 -51 8 -3 20 0 26 8 16 20 -11 60 -28
43z"/>
<path d="M1440 4734 c-11 -12 -10 -18 3 -32 16 -15 18 -15 34 0 13 14 14 20 3
32 -7 9 -16 16 -20 16 -4 0 -13 -7 -20 -16z"/>
<path d="M1324 4665 c-6 -15 2 -35 14 -35 4 0 16 7 27 16 17 13 18 16 5 24
-22 14 -40 12 -46 -5z"/>
<path d="M3633 4664 c-3 -8 1 -22 10 -31 14 -14 16 -13 26 6 7 12 9 26 6 31
-10 15 -35 12 -42 -6z"/>
<path d="M1210 4605 c-22 -26 7 -46 39 -26 12 8 12 12 2 25 -17 20 -25 20 -41
1z"/>
<path d="M3753 4609 c-6 -6 -9 -18 -6 -25 7 -18 37 -18 52 0 10 12 8 17 -8 25
-24 14 -24 14 -38 0z"/>
<path d="M1099 4534 c-16 -20 2 -38 30 -29 26 8 27 21 2 34 -14 8 -22 7 -32
-5z"/>
<path d="M3860 4534 c-11 -12 -10 -18 3 -32 16 -15 18 -15 34 0 13 14 14 20 3
32 -7 9 -16 16 -20 16 -4 0 -13 -7 -20 -16z"/>
<path d="M986 4454 c-11 -30 13 -44 43 -25 12 8 12 12 2 25 -17 20 -37 20 -45
0z"/>
<path d="M3968 4458 c-13 -35 27 -53 51 -24 10 12 8 17 -8 25 -26 14 -38 14
-43 -1z"/>
<path d="M892 4388 c-19 -19 -14 -48 7 -48 27 0 35 16 18 40 -10 15 -16 17
-25 8z"/>
<path d="M4082 4388 c-21 -21 -15 -50 10 -46 27 4 32 18 16 41 -11 14 -16 15
-26 5z"/>
<path d="M2053 4383 c-28 -5 -30 -19 -4 -26 18 -4 18 -8 -6 -118 -13 -63 -28
-115 -32 -117 -5 -1 -17 -9 -27 -17 -17 -13 -9 -14 71 -15 112 0 152 11 192
52 91 95 63 220 -53 239 -52 8 -104 9 -141 2z m167 -41 c33 -27 38 -97 11
-150 -26 -51 -58 -73 -116 -80 -41 -4 -45 -3 -45 17 0 20 35 191 45 219 7 19
79 15 105 -6z"/>
<path d="M2601 4381 c-11 -7 -11 -10 2 -17 14 -8 13 -21 -8 -119 -14 -60 -25
-120 -25 -132 0 -27 32 -38 62 -21 l23 13 -22 3 c-13 2 -23 6 -23 10 0 4 13
67 28 140 l28 132 -25 0 c-14 0 -32 -4 -40 -9z"/>
<path d="M2420 4291 c-41 -21 -80 -83 -80 -126 0 -66 57 -99 123 -72 19 8 38
21 42 28 6 9 3 10 -11 4 -10 -4 -36 -10 -56 -13 -33 -3 -39 -1 -47 19 -12 31
-4 38 67 65 44 16 59 27 67 49 8 23 6 30 -14 46 -29 24 -47 24 -91 0z m64 -19
c10 -17 -21 -57 -52 -66 -43 -12 -48 -4 -22 38 21 34 61 49 74 28z"/>
<path d="M2765 4292 c-42 -27 -64 -54 -75 -92 -13 -44 -2 -88 26 -106 20 -14
26 -14 58 1 31 15 37 15 58 1 21 -14 27 -14 44 -1 17 13 17 14 2 15 -22 0 -22
12 -2 102 9 38 12 74 8 78 -5 5 -27 12 -49 15 -30 4 -48 1 -70 -13z m81 -16
c9 -23 -15 -93 -42 -126 -31 -36 -60 -39 -75 -6 -9 19 -6 33 15 75 31 61 88
93 102 57z"/>
<path d="M793 4293 c-16 -6 -17 -29 -3 -38 13 -8 50 3 50 15 0 13 -32 28 -47
23z"/>
<path d="M2963 4293 c-26 -5 -30 -18 -9 -26 8 -3 20 -43 31 -97 17 -90 17 -92
-2 -118 -23 -31 -43 -39 -43 -18 0 9 -7 16 -15 16 -9 0 -15 -9 -15 -25 0 -21
5 -25 29 -25 22 0 37 9 54 33 32 42 147 236 147 248 0 12 -57 12 -65 0 -3 -5
3 -11 13 -13 17 -3 16 -9 -17 -68 l-35 -64 -14 59 c-7 33 -15 70 -18 83 -2 12
-8 21 -12 21 -4 -1 -17 -4 -29 -6z"/>
<path d="M4177 4293 c-4 -3 -7 -15 -7 -25 0 -20 26 -24 50 -8 13 9 12 12 -4
25 -22 17 -29 18 -39 8z"/>
<path d="M684 4189 c-3 -6 0 -18 9 -26 12 -12 19 -13 38 -3 22 12 22 13 4 26
-23 17 -41 18 -51 3z"/>
<path d="M4267 4193 c-12 -12 -7 -31 10 -37 19 -8 48 17 39 33 -8 12 -39 15
-49 4z"/>
<path d="M4359 4094 c-15 -18 0 -38 27 -32 25 5 28 25 6 37 -15 8 -23 7 -33
-5z"/>
<path d="M595 4090 c-6 -10 11 -50 22 -50 12 0 31 34 26 47 -6 15 -39 17 -48
3z"/>
<path d="M513 3984 c-3 -8 1 -22 9 -30 13 -13 16 -13 27 0 7 9 11 23 7 31 -7
20 -35 19 -43 -1z"/>
<path d="M4442 3987 c-16 -19 11 -58 28 -41 14 14 10 46 -6 51 -6 2 -16 -2
-22 -10z"/>
<path d="M434 3879 c-3 -6 1 -18 10 -27 15 -15 17 -15 32 0 19 19 11 38 -16
38 -10 0 -22 -5 -26 -11z"/>
<path d="M1821 3877 c-9 -11 -8 -17 5 -28 13 -11 17 -10 25 2 17 28 -9 51 -30
26z"/>
<path d="M2188 3883 c-29 -4 -39 -23 -13 -23 18 0 20 14 -10 -126 -30 -142
-30 -144 -5 -144 13 0 20 7 20 19 0 47 66 151 96 151 18 0 18 -28 -2 -102 -9
-38 -12 -64 -6 -70 13 -13 65 -6 70 11 3 10 -2 11 -18 6 -17 -5 -21 -4 -17 6
3 8 13 46 23 86 14 59 15 75 4 87 -22 27 -57 19 -86 -19 -15 -20 -28 -34 -31
-32 -2 2 3 36 12 76 8 40 15 74 15 77 0 4 -6 4 -52 -3z"/>
<path d="M2464 3879 c-10 -17 12 -32 36 -24 17 5 19 10 9 21 -14 17 -35 18
-45 3z"/>
<path d="M3835 3875 c-16 -7 -24 -14 -17 -14 7 -1 12 -14 12 -31 0 -27 -3 -30
-30 -30 -92 0 -162 -89 -139 -175 12 -44 49 -56 92 -31 27 15 31 15 48 0 11
-10 25 -13 38 -9 24 7 28 25 6 25 -19 0 -19 -2 10 134 34 159 35 156 -20 131z
m-25 -130 c0 -49 -23 -100 -55 -121 -25 -17 -27 -16 -47 4 l-21 21 23 53 c29
70 37 78 71 78 26 0 29 -3 29 -35z"/>
<path d="M4514 3875 c-4 -9 0 -24 10 -33 15 -15 18 -15 26 -2 6 8 9 22 7 30
-3 21 -36 25 -43 5z"/>
<path d="M1145 3870 c-3 -5 1 -10 9 -10 18 0 23 -16 30 -105 14 -158 16 -166
40 -163 15 2 33 26 66 88 l45 85 10 -85 c9 -73 13 -85 30 -88 16 -2 32 21 85
125 43 85 73 131 88 138 36 16 26 25 -27 25 -52 0 -76 -14 -41 -23 19 -5 18
-11 -24 -96 -25 -50 -46 -97 -49 -104 -9 -25 -15 1 -22 96 -7 95 -7 98 14 104
42 11 19 23 -44 23 -63 0 -86 -12 -45 -23 30 -8 25 -38 -22 -130 -40 -79 -42
-81 -49 -52 -4 17 -7 62 -8 102 0 39 -4 78 -7 87 -7 18 -69 23 -79 6z"/>
<path d="M1590 3774 c-61 -52 -80 -134 -39 -175 18 -18 29 -21 71 -16 46 6 85
24 74 34 -2 2 -23 -1 -46 -8 -40 -12 -44 -12 -61 10 -26 31 -15 48 44 66 77
25 106 65 71 99 -24 25 -78 20 -114 -10z m80 -16 c0 -31 -11 -45 -43 -57 -55
-21 -62 -7 -21 46 29 39 64 45 64 11z"/>
<path d="M1958 3785 c-40 -22 -68 -75 -68 -128 0 -71 45 -99 98 -61 18 12 22
13 22 1 0 -31 -23 -77 -41 -82 -22 -7 -59 2 -59 16 0 5 -7 9 -15 9 -20 0 -19
-36 1 -44 25 -9 83 -7 105 4 28 16 44 54 69 169 21 100 21 106 4 118 -23 17
-82 16 -116 -2z m80 -47 c4 -44 -19 -91 -54 -115 -26 -16 -27 -16 -45 6 -17
21 -17 25 -2 64 18 48 58 89 82 85 11 -2 17 -15 19 -40z"/>
<path d="M2642 3763 l-35 -38 5 28 c6 33 -8 43 -48 33 -24 -6 -25 -8 -10 -19
15 -11 16 -18 1 -85 -19 -92 -19 -92 5 -92 13 0 20 7 20 20 0 45 68 150 97
150 17 0 16 -32 -2 -105 -10 -35 -12 -62 -7 -67 14 -14 65 -5 70 11 3 10 0 12
-12 8 -20 -8 -20 2 0 92 13 57 14 74 4 86 -21 25 -51 17 -88 -22z"/>
<path d="M2858 3785 c-57 -32 -89 -128 -59 -183 14 -26 51 -29 86 -6 29 19 32
8 14 -45 -14 -38 -49 -50 -84 -27 -31 20 -32 20 -38 -3 -5 -22 16 -31 73 -31
70 0 83 21 120 190 20 90 20 95 4 107 -23 17 -82 16 -116 -2z m82 -40 c0 -47
-22 -98 -51 -119 -31 -21 -36 -20 -54 7 -14 22 -13 28 9 79 26 57 35 66 74 67
19 1 22 -4 22 -34z"/>
<path d="M3200 3763 c-35 -32 -43 -47 -47 -86 -9 -81 38 -121 95 -81 21 15 25
15 41 0 23 -21 45 -20 62 1 13 15 12 16 -9 10 -23 -5 -23 -4 -16 36 3 23 12
61 19 83 7 23 9 48 5 54 -4 7 -30 15 -58 18 -47 4 -53 2 -92 -35z m103 -26
c-3 -52 -29 -102 -59 -116 -32 -14 -31 -15 -49 13 -15 22 -14 27 10 72 29 56
51 76 80 72 16 -2 20 -10 18 -41z"/>
<path d="M3512 3763 l-35 -38 5 33 c4 28 2 32 -18 32 -12 0 -30 -3 -38 -6 -15
-6 -15 -8 -2 -18 14 -10 14 -19 1 -81 -19 -89 -19 -95 4 -95 15 0 21 10 26 40
8 44 68 130 92 130 13 0 14 -8 9 -42 -21 -133 -22 -128 12 -128 17 0 34 5 38
12 5 8 2 9 -9 5 -22 -8 -22 14 -1 98 13 52 14 68 4 80 -21 25 -51 17 -88 -22z"/>
<path d="M1770 3780 c-13 -8 -12 -10 3 -10 21 0 21 -14 1 -95 -9 -36 -14 -71
-10 -80 7 -19 50 -19 66 0 10 12 10 15 -4 15 -21 0 -20 24 3 110 l20 70 -32 0
c-18 0 -39 -5 -47 -10z"/>
<path d="M2412 3781 c-11 -6 -9 -9 7 -14 19 -5 19 -7 5 -68 -26 -107 -25 -114
15 -114 19 0 36 6 39 13 2 6 -3 12 -12 12 -20 0 -20 -1 4 90 11 41 20 78 20
83 0 10 -62 9 -78 -2z"/>
<path d="M363 3764 c-8 -22 11 -37 36 -29 25 8 28 30 5 39 -25 9 -34 7 -41
-10z"/>
<path d="M4591 3766 c-18 -22 11 -41 40 -25 22 11 22 12 4 25 -24 17 -30 17
-44 0z"/>
<path d="M4661 3666 c-17 -20 -6 -49 16 -44 22 4 26 20 10 42 -12 16 -14 16
-26 2z"/>
<path d="M301 3652 c-15 -28 5 -44 35 -30 23 11 23 12 8 30 -21 23 -31 23 -43
0z"/>
<path d="M244 3535 c-18 -13 -18 -15 -1 -32 16 -17 18 -17 37 2 19 20 19 21 1
32 -15 9 -23 9 -37 -2z"/>
<path d="M4722 3538 c-27 -27 -3 -54 31 -36 22 11 22 25 -1 37 -13 7 -23 6
-30 -1z"/>
<path d="M190 3415 c-10 -12 -10 -18 0 -29 16 -20 42 -8 38 17 -4 26 -21 32
-38 12z"/>
<path d="M4764 3409 c-3 -6 0 -18 9 -26 14 -14 17 -14 37 0 22 15 22 15 2 26
-26 14 -39 14 -48 0z"/>
<path d="M2815 3370 c-4 -6 -1 -18 6 -26 12 -14 14 -14 26 2 7 9 10 21 7 25
-7 12 -31 11 -39 -1z"/>
<path d="M1230 3360 c0 -5 9 -10 20 -10 11 0 20 -1 20 -2 0 -2 -15 -55 -33
-118 -26 -90 -38 -117 -55 -125 -12 -5 -22 -13 -22 -17 0 -12 98 -10 105 2 3
6 -3 10 -14 10 -12 0 -21 5 -21 10 0 17 53 201 56 197 4 -3 33 -199 34 -219 0
-5 9 -8 20 -8 15 0 33 25 75 110 30 61 58 110 61 110 7 0 -7 -150 -17 -177 -5
-13 -15 -23 -24 -23 -8 0 -15 -4 -15 -10 0 -6 26 -10 59 -10 33 0 63 5 66 10
3 6 -1 10 -10 10 -25 0 -27 21 -15 127 10 85 14 101 37 121 l25 23 -52 -3 -52
-3 -58 -114 c-57 -110 -59 -112 -64 -80 -9 48 -26 172 -26 187 0 8 -17 12 -50
12 -27 0 -50 -4 -50 -10z"/>
<path d="M144 3285 c-12 -30 16 -45 46 -25 13 9 12 12 -4 25 -25 19 -35 19
-42 0z"/>
<path d="M1682 3280 c-34 -15 -47 -29 -63 -66 -23 -51 -20 -103 8 -125 19 -16
92 -16 122 1 37 19 23 28 -23 15 -53 -16 -80 -3 -74 35 2 18 15 27 57 41 29
10 60 24 67 30 21 17 17 56 -8 73 -28 20 -34 20 -86 -4z m63 -20 c11 -17 -16
-51 -52 -66 -42 -18 -49 -14 -33 18 27 52 68 75 85 48z"/>
<path d="M1913 3289 c-64 -18 -110 -107 -92 -174 11 -38 33 -45 84 -25 20 7
32 6 50 -6 14 -9 33 -13 45 -9 23 7 27 25 5 25 -19 0 -19 19 0 95 19 79 19 83
-7 90 -44 12 -53 13 -85 4z m61 -27 c10 -16 -24 -117 -45 -134 -28 -23 -56
-23 -69 1 -14 27 -14 30 20 89 26 44 35 52 60 52 16 0 31 -4 34 -8z"/>
<path d="M2155 3293 c-32 -8 -55 -34 -55 -64 0 -21 10 -34 43 -56 50 -34 55
-63 13 -78 -24 -8 -31 -6 -48 15 -15 19 -21 21 -28 10 -13 -22 -1 -38 36 -45
63 -11 114 18 114 67 0 22 -7 33 -32 46 -17 9 -40 25 -51 36 -16 15 -17 20 -6
31 24 23 69 23 69 0 0 -8 7 -15 15 -15 15 0 21 35 8 43 -16 9 -59 14 -78 10z"/>
<path d="M3035 3289 c-11 -6 -33 -25 -48 -43 l-28 -31 6 33 c6 31 6 32 -29 32
-34 0 -49 -14 -24 -22 9 -3 9 -22 -1 -79 -8 -41 -16 -80 -18 -86 -3 -8 3 -13
16 -13 14 0 22 8 26 28 15 72 85 166 108 143 6 -6 4 -33 -5 -73 -21 -94 -11
-113 47 -88 19 8 18 9 -4 9 -19 1 -22 5 -17 24 30 106 34 136 19 156 -16 24
-20 25 -48 10z"/>
<path d="M3235 3292 c-30 -6 -83 -61 -96 -99 -12 -38 -5 -79 18 -105 21 -24
44 -23 77 3 22 17 26 18 26 4 0 -32 -29 -83 -50 -90 -15 -5 -31 0 -51 14 -16
12 -29 17 -29 12 0 -5 -3 -16 -6 -24 -4 -11 6 -16 39 -21 53 -8 90 5 112 38
26 39 65 232 51 250 -12 15 -61 25 -91 18z m55 -53 c0 -46 -28 -104 -60 -122
-29 -17 -29 -17 -45 6 -14 21 -14 28 0 67 18 51 32 69 60 80 30 11 45 1 45
-31z"/>
<path d="M4814 3285 c-12 -29 15 -45 45 -26 12 8 12 12 2 25 -17 20 -40 21
-47 1z"/>
<path d="M2583 3283 c-36 -5 -40 -10 -19 -27 13 -9 12 -22 -4 -93 -18 -81 -17
-83 1 -83 12 0 21 10 25 28 10 42 49 115 74 137 17 15 23 17 29 6 11 -18 31
-5 31 20 0 34 -44 24 -79 -18 l-30 -38 6 38 c3 20 4 36 2 35 -2 0 -19 -3 -36
-5z"/>
<path d="M2795 3283 c-34 -5 -59 -23 -32 -23 21 0 21 -18 2 -90 -8 -30 -15
-63 -15 -72 0 -23 34 -32 62 -16 20 10 21 13 6 16 -23 4 -23 21 2 107 22 77
23 86 13 84 -5 -1 -21 -4 -38 -6z"/>
<path d="M2295 3270 c-3 -5 1 -10 9 -10 19 0 20 -17 1 -94 -23 -99 17 -129 81
-60 l34 35 0 -30 c0 -32 23 -47 54 -35 20 8 21 24 1 24 -19 0 -19 11 0 80 33
122 8 134 -50 23 -39 -74 -67 -105 -81 -90 -6 6 0 48 23 145 5 20 1 22 -30 22
-20 0 -39 -4 -42 -10z"/>
<path d="M3898 3205 c-151 -41 -269 -151 -317 -293 -29 -84 -29 -215 0 -299
89 -266 407 -384 660 -247 263 143 308 527 85 732 -110 102 -287 146 -428 107z
m198 -36 c215 -39 363 -253 326 -470 -29 -167 -143 -292 -307 -335 -243 -65
-497 114 -513 363 -14 212 103 383 298 435 77 20 116 22 196 7z"/>
<path d="M3938 2961 c-21 -27 -38 -51 -38 -54 0 -3 14 -8 31 -12 l31 -7 -6
-91 c-2 -51 -8 -109 -12 -131 -5 -27 -3 -41 7 -47 25 -15 38 -10 61 25 40 61
168 126 168 85 0 -6 5 -9 11 -7 10 3 61 119 55 125 -3 3 -115 -25 -127 -33 -5
-3 -7 -15 -4 -27 5 -19 -3 -29 -47 -59 -70 -50 -78 -42 -78 77 l0 93 35 6 c19
4 35 9 35 12 0 11 -66 93 -75 93 -5 0 -27 -22 -47 -48z"/>
<path d="M103 3154 c-9 -24 11 -38 37 -24 17 9 19 14 9 26 -15 19 -38 18 -46
-2z"/>
<path d="M4855 3160 c-8 -13 3 -50 15 -50 5 0 14 8 19 18 15 27 -18 58 -34 32z"/>
<path d="M4891 3037 c-11 -15 -6 -47 9 -47 4 0 13 7 20 16 11 12 11 18 -2 30
-13 13 -16 13 -27 1z"/>
<path d="M70 3020 c0 -26 25 -36 45 -20 12 10 13 16 4 26 -18 22 -49 17 -49
-6z"/>
<path d="M50 2905 c-12 -15 -7 -45 7 -45 21 1 35 19 28 39 -8 25 -18 27 -35 6z"/>
<path d="M4908 2898 c-8 -21 2 -38 22 -38 26 0 43 23 28 38 -16 16 -45 15 -50
0z"/>
<path d="M30 2765 c-11 -13 -11 -19 4 -33 15 -15 18 -15 26 -2 22 33 -6 64
-30 35z"/>
<path d="M4930 2765 c-11 -13 -11 -19 3 -33 20 -19 41 -5 35 24 -4 24 -22 28
-38 9z"/>
<path d="M4940 2640 c-10 -18 -9 -25 2 -36 12 -13 17 -12 31 4 16 18 16 20 -2
36 -19 17 -20 17 -31 -4z"/>
<path d="M20 2634 c-11 -12 -11 -18 1 -30 13 -12 18 -12 34 0 16 12 17 16 6
30 -17 20 -25 20 -41 0z"/>
<path d="M4945 2510 c-18 -19 -18 -22 -2 -37 16 -16 18 -16 33 -1 15 14 15 19
2 37 l-15 21 -18 -20z"/>
<path d="M11 2501 c-17 -11 -8 -27 18 -34 12 -3 22 1 25 10 11 29 -13 43 -43
24z"/>
<path d="M20 2375 c-16 -19 -5 -47 17 -43 11 2 18 12 18 27 0 29 -17 37 -35
16z"/>
<path d="M4940 2365 c-21 -26 3 -42 37 -26 27 12 27 13 8 27 -24 18 -30 18
-45 -1z"/>
<path d="M26 2234 c-4 -10 -2 -22 3 -27 14 -14 43 0 39 20 -4 24 -34 28 -42 7z"/>
<path d="M1896 2229 c-14 -11 -26 -29 -26 -39 0 -23 -75 -168 -100 -194 -18
-19 -19 -18 -61 23 -23 22 -45 41 -49 41 -18 0 -60 -78 -60 -111 0 -19 -4 -48
-9 -65 -6 -21 -5 -36 5 -49 8 -10 14 -27 14 -37 0 -25 77 -146 101 -158 10 -6
31 -7 45 -4 26 7 27 6 18 -22 -5 -16 -9 -55 -9 -86 0 -53 3 -60 39 -97 21 -21
53 -47 72 -57 102 -55 -42 -37 -261 33 -215 69 -451 184 -584 285 -21 16 -26
17 -33 4 -4 -8 -5 -20 -2 -28 8 -20 207 -133 374 -214 l147 -71 6 -54 c9 -71
8 -141 -1 -155 -4 -7 -72 -13 -180 -17 -191 -7 -219 -15 -253 -70 -39 -63
-149 -292 -155 -323 -7 -39 22 -70 75 -78 61 -9 511 -9 1806 -2 l1240 7 22 25
22 24 -43 123 c-83 232 -95 260 -115 281 -18 18 -39 21 -188 28 -93 5 -173 10
-179 12 -6 3 -14 34 -17 71 -3 49 -10 73 -25 88 l-21 20 -5 -34 c-3 -19 -7
-63 -10 -98 -4 -35 -7 -65 -9 -67 -1 -1 -103 -7 -227 -13 -388 -19 -1466 -2
-1657 25 l-33 5 0 88 0 89 150 -44 c105 -30 185 -47 263 -54 62 -6 162 -18
222 -26 62 -9 220 -18 360 -21 258 -5 390 6 623 53 111 23 386 126 584 220 97
46 181 84 186 84 5 0 37 20 70 44 33 25 77 54 99 65 21 11 31 20 22 21 -9 0
-72 -27 -140 -61 -109 -54 -358 -154 -364 -147 -1 2 1 35 4 75 8 90 26 117
115 164 79 42 73 49 -37 49 l-72 0 47 45 c43 41 45 46 28 55 -29 16 -52 12
-91 -15 -20 -13 -39 -21 -43 -18 -3 4 -3 42 0 86 8 91 0 94 -36 18 -13 -28
-26 -51 -29 -50 -3 0 -20 21 -36 46 -17 26 -48 60 -69 77 -35 29 -44 31 -129
34 -82 3 -95 7 -119 29 -33 31 -57 27 -77 -14 -13 -27 -22 -33 -50 -33 -58 0
-120 -37 -154 -92 -16 -26 -33 -48 -36 -48 -4 0 -36 27 -72 59 -118 106 -243
111 -283 10 l-17 -41 -52 6 c-55 7 -77 25 -77 62 0 15 10 26 30 34 55 23 32
60 -54 85 -69 19 -118 8 -109 -26 3 -12 -1 -21 -12 -25 -22 -9 -35 -44 -24
-66 5 -9 22 -19 39 -23 25 -6 50 -30 50 -48 0 -18 -36 -10 -93 18 -40 20 -96
38 -141 46 -74 11 -116 34 -116 63 0 8 13 43 30 78 36 75 36 82 8 102 -29 21
-40 20 -72 -5z m51 -36 c4 -9 -5 -36 -19 -62 -14 -25 -29 -60 -32 -78 -7 -32
-4 -38 39 -68 19 -13 19 -14 -8 -24 -58 -22 -97 -11 -97 29 0 15 15 59 34 96
18 38 38 81 45 97 12 30 28 35 38 10z m443 -126 c0 -25 -21 -34 -65 -29 -33 3
-53 -1 -79 -16 -27 -16 -36 -18 -40 -7 -7 20 18 36 77 51 70 17 107 17 107 1z
m797 -19 c21 -20 33 -22 104 -20 79 2 79 2 119 -35 32 -30 56 -73 111 -198 92
-208 96 -223 73 -272 -23 -46 -62 -73 -167 -114 -69 -27 -96 -33 -167 -33 -98
-1 -141 16 -219 89 -45 41 -81 65 -99 65 -5 0 -4 -22 2 -51 7 -33 7 -56 0 -67
-5 -9 -44 -34 -86 -56 -66 -33 -88 -39 -162 -43 -166 -11 -257 34 -272 132
-14 98 24 169 116 215 33 17 67 41 76 55 9 14 22 25 29 25 7 0 18 7 25 15 14
17 66 20 75 5 3 -5 -3 -10 -14 -10 -12 0 -21 -4 -21 -10 0 -5 18 -10 40 -10
l40 0 -32 -29 c-37 -33 -32 -53 6 -27 46 29 51 17 11 -25 -24 -24 -76 -57
-130 -83 -49 -24 -99 -53 -109 -65 l-19 -21 54 3 c43 1 61 -3 86 -21 41 -29
51 -28 58 6 11 51 19 57 69 54 50 -4 59 7 24 31 l-23 15 21 23 c68 76 54 160
-32 191 -24 8 -34 17 -31 28 3 8 11 36 18 63 7 26 19 47 25 47 12 0 64 -55 64
-68 1 -43 24 -149 39 -183 20 -48 85 -128 95 -118 4 3 -12 42 -35 86 -71 136
-64 261 17 333 30 26 42 30 94 30 52 0 60 2 60 19 0 54 28 66 67 29z m-1462
-104 c50 -69 54 -86 40 -163 -7 -39 -6 -43 11 -39 11 2 22 17 29 40 14 52 56
91 135 127 180 83 341 0 315 -163 -10 -55 -23 -78 -94 -166 -34 -41 -61 -78
-61 -82 0 -4 10 -8 23 -8 18 0 40 22 89 88 36 48 70 96 75 107 20 40 23 91 8
140 -8 27 -12 51 -10 54 3 2 15 -5 28 -17 26 -25 47 -28 65 -10 19 19 14 33
-15 46 -24 10 -17 11 49 9 l77 -2 61 -65 60 -65 -23 -20 c-13 -11 -57 -48 -99
-81 -89 -73 -118 -123 -118 -205 0 -58 10 -80 63 -136 l31 -33 -105 0 c-109 0
-247 18 -339 46 -66 19 -129 54 -181 101 -31 28 -39 42 -39 70 0 88 64 142
217 184 94 26 106 34 92 61 -9 16 -17 18 -51 13 l-40 -7 4 36 c3 31 1 36 -17
36 -14 0 -27 -14 -45 -52 -14 -29 -37 -61 -51 -71 -34 -24 -150 -44 -186 -31
-35 12 -73 77 -73 127 0 24 -5 40 -15 43 -24 10 -18 21 15 28 39 7 38 28 -2
60 -30 23 -31 26 -11 26 13 0 24 8 28 20 3 11 7 20 9 20 1 0 24 -30 51 -66z
m973 50 c31 -21 55 -71 48 -100 -5 -18 -13 -24 -35 -24 -21 0 -37 -10 -56 -32
-21 -25 -28 -29 -36 -17 -13 21 -12 25 21 63 37 41 27 52 -23 26 -46 -25 -57
-25 -57 -2 0 11 16 28 41 41 29 16 38 26 30 34 -7 7 -18 7 -36 -1 -36 -17 -41
-15 -20 8 22 25 90 27 123 4z m-859 -53 c12 -8 12 -12 2 -25 -18 -22 -26 -20
-45 9 -16 24 -16 25 6 25 13 0 29 -4 37 -9z m1259 -557 c34 -15 62 -30 62 -33
0 -4 -54 -16 -120 -27 -66 -11 -120 -17 -120 -14 0 6 102 99 110 100 3 0 33
-12 68 -26z m830 -283 c23 -12 136 -363 120 -372 -2 -2 -1167 -15 -1175 -14 0
0 -15 83 -32 185 -19 116 -27 188 -21 194 23 23 1065 30 1108 7z m-1141 -5 c6
-6 53 -311 53 -345 l0 -41 -102 0 c-57 0 -174 3 -260 7 l-158 6 0 179 c0 109
-4 178 -10 178 -6 0 -11 -70 -12 -177 l-3 -178 -210 -8 c-115 -4 -404 -6 -642
-5 -491 3 -477 1 -453 74 18 54 96 210 132 262 17 24 38 46 48 50 16 6 1611 4
1617 -2z"/>
<path d="M3235 1973 c-13 -31 -19 -283 -7 -283 18 0 22 15 38 145 12 98 13
129 3 141 -15 19 -25 18 -34 -3z"/>
<path d="M3178 1920 c-19 -44 -32 -110 -21 -110 13 0 46 104 41 126 -4 15 -8
12 -20 -16z"/>
<path d="M3323 1915 c7 -39 26 -89 32 -84 6 7 -16 93 -28 104 -6 7 -8 0 -4
-20z"/>
<path d="M3204 1578 c-8 -25 -17 -34 -39 -38 -29 -6 -30 -6 -8 -18 32 -18 51
-15 68 12 12 18 13 30 6 50 -13 33 -16 33 -27 -6z"/>
<path d="M3080 1566 c0 -51 83 -116 148 -116 54 0 111 66 97 111 -9 27 -21 23
-35 -11 -13 -32 -55 -60 -87 -60 -31 0 -79 36 -93 69 -15 37 -30 40 -30 7z"/>
<path d="M2509 1056 c-28 -16 -64 -64 -55 -73 3 -3 21 8 41 26 43 37 101 43
129 12 20 -22 7 -37 -42 -47 -43 -9 -56 -27 -48 -69 8 -40 12 -42 40 -16 12
11 41 30 66 43 56 29 66 69 26 107 -32 30 -117 39 -157 17z"/>
<path d="M2522 828 c-7 -7 -12 -20 -12 -29 0 -33 67 -40 95 -9 15 16 15 22 5
35 -15 18 -71 20 -88 3z"/>
<path d="M4933 2239 c-16 -16 -5 -39 17 -39 25 0 35 18 20 35 -15 18 -22 19
-37 4z"/>
<path d="M4911 2109 c-11 -18 -10 -24 3 -37 15 -15 17 -15 33 1 16 16 16 18
-2 37 -20 20 -20 20 -34 -1z"/>
<path d="M43 2094 c-3 -8 1 -22 9 -30 13 -13 16 -13 27 0 7 9 11 23 7 31 -7
20 -35 19 -43 -1z"/>
<path d="M64 1969 c-3 -6 0 -18 9 -26 12 -12 19 -13 36 -3 18 9 20 14 10 26
-14 17 -45 19 -55 3z"/>
<path d="M4874 1969 c-3 -6 1 -18 10 -27 15 -15 17 -15 32 0 19 19 11 38 -16
38 -10 0 -22 -5 -26 -11z"/>
<path d="M4854 1844 c-9 -34 10 -54 32 -32 13 13 14 19 2 37 -17 28 -26 27
-34 -5z"/>
<path d="M109 1844 c-16 -20 2 -38 30 -29 26 8 27 17 2 32 -16 10 -22 9 -32
-3z"/>
<path d="M143 1719 c-15 -15 -5 -39 17 -39 26 0 43 23 28 38 -15 15 -31 15
-45 1z"/>
<path d="M4819 1714 c-16 -20 2 -38 30 -29 26 8 27 21 2 34 -14 8 -22 7 -32
-5z"/>
<path d="M190 1595 c-11 -13 -11 -19 3 -33 20 -19 41 -5 35 24 -4 24 -22 28
-38 9z"/>
<path d="M4764 1589 c-3 -6 1 -18 10 -27 15 -15 17 -15 32 0 19 19 11 38 -16
38 -10 0 -22 -5 -26 -11z"/>
<path d="M4715 1470 c-8 -24 1 -40 21 -40 20 0 29 27 14 45 -17 20 -27 19 -35
-5z"/>
<path d="M238 1468 c-8 -21 2 -38 22 -38 26 0 43 23 28 38 -16 16 -45 15 -50
0z"/>
<path d="M4659 1356 c-11 -23 -10 -29 2 -37 20 -12 29 -11 35 6 3 8 -1 24 -10
36 l-15 22 -12 -27z"/>
<path d="M300 1354 c-11 -12 -10 -18 3 -31 22 -23 52 0 36 28 -12 23 -22 24
-39 3z"/>
<path d="M4590 1240 c-10 -18 -9 -24 1 -31 20 -13 29 -11 36 7 3 8 -1 22 -10
31 -14 14 -16 13 -27 -7z"/>
<path d="M373 1243 c-16 -6 -17 -25 -1 -41 12 -12 48 1 48 18 0 13 -32 28 -47
23z"/>
<path d="M4519 1124 c-10 -12 -9 -18 4 -31 13 -13 19 -14 31 -3 21 17 20 27
-3 39 -14 8 -22 7 -32 -5z"/>
<path d="M435 1120 c-7 -11 12 -50 25 -50 12 0 23 37 15 50 -8 13 -32 13 -40
0z"/>
<path d="M520 1025 c-9 -11 -11 -22 -4 -32 13 -21 25 -21 38 -1 8 14 7 21 -5
33 -14 15 -17 15 -29 0z"/>
<path d="M4440 1015 c-15 -18 -5 -35 20 -35 10 0 22 5 25 10 7 11 -12 40 -25
40 -4 0 -13 -7 -20 -15z"/>
<path d="M595 910 c-6 -10 11 -50 22 -50 15 0 31 35 21 47 -12 15 -34 17 -43
3z"/>
<path d="M4354 905 c-4 -9 -2 -21 4 -27 15 -15 44 -1 40 19 -4 23 -36 29 -44
8z"/>
<path d="M687 806 c-9 -23 18 -39 43 -26 17 9 19 14 9 26 -15 18 -45 18 -52 0z"/>
<path d="M4261 806 c-10 -12 -8 -17 7 -25 15 -8 23 -7 32 4 13 16 6 35 -14 35
-8 0 -19 -6 -25 -14z"/>
<path d="M787 723 c-24 -23 12 -55 38 -33 12 10 13 16 4 26 -12 15 -31 18 -42
7z"/>
<path d="M4177 723 c-24 -23 12 -55 38 -33 12 10 13 16 4 26 -12 15 -31 18
-42 7z"/>
<path d="M887 633 c-24 -23 12 -55 38 -33 12 10 13 16 4 26 -12 15 -31 18 -42
7z"/>
<path d="M4077 633 c-24 -23 12 -55 38 -33 12 10 13 16 4 26 -12 15 -31 18
-42 7z"/>
<path d="M3971 546 c-10 -12 -10 -19 2 -36 12 -18 16 -18 26 -6 14 17 11 48
-5 53 -6 2 -17 -3 -23 -11z"/>
<path d="M985 540 c-3 -5 -1 -19 6 -31 10 -19 12 -20 26 -6 9 9 13 23 10 31
-7 18 -32 21 -42 6z"/>
<path d="M1097 473 c-24 -23 12 -55 38 -33 12 10 13 16 4 26 -12 15 -31 18
-42 7z"/>
<path d="M3861 466 c-14 -17 11 -41 34 -32 20 7 19 32 -1 40 -21 8 -20 8 -33
-8z"/>
<path d="M3750 400 c-12 -23 -6 -40 15 -40 19 0 27 17 20 40 -8 26 -21 25 -35
0z"/>
<path d="M1210 395 c-23 -28 21 -50 48 -23 9 9 7 14 -6 24 -22 17 -27 17 -42
-1z"/>
<path d="M3637 343 c-11 -10 -8 -41 4 -49 6 -3 18 1 27 9 13 13 13 19 2 31
-14 17 -23 20 -33 9z"/>
<path d="M1324 325 c-13 -32 23 -48 47 -19 10 13 10 17 -2 25 -21 13 -39 11
-45 -6z"/>
<path d="M1437 266 c-3 -8 1 -22 8 -33 13 -17 15 -17 31 -1 9 9 14 24 11 32
-8 20 -43 21 -50 2z"/>
<path d="M3514 265 c-13 -32 23 -48 47 -19 10 13 10 17 -2 25 -21 13 -39 11
-45 -6z"/>
<path d="M1565 219 c-7 -20 7 -38 28 -39 14 0 19 30 7 45 -17 21 -27 19 -35
-6z"/>
<path d="M3387 219 c-14 -8 -16 -14 -6 -25 14 -17 31 -18 47 -2 8 8 9 15 1 25
-14 15 -18 16 -42 2z"/>
<path d="M3271 186 c-16 -19 -10 -51 8 -51 8 0 19 8 25 17 8 14 7 21 -5 33
-14 14 -17 14 -28 1z"/>
<path d="M1685 170 c-7 -11 12 -50 24 -50 10 0 21 24 21 46 0 16 -36 19 -45 4z"/>
<path d="M1820 134 c-11 -12 -10 -18 3 -32 16 -15 18 -15 34 0 13 14 14 20 3
32 -16 20 -24 20 -40 0z"/>
<path d="M3140 134 c-11 -12 -10 -18 3 -32 16 -15 18 -15 34 0 13 14 14 20 3
32 -16 20 -24 20 -40 0z"/>
<path d="M1940 100 c-13 -8 -13 -11 2 -26 20 -20 51 -11 46 13 -4 21 -27 27
-48 13z"/>
<path d="M3004 99 c-3 -6 1 -18 10 -27 15 -15 17 -15 32 0 19 19 11 38 -16 38
-10 0 -22 -5 -26 -11z"/>
<path d="M2081 86 c-16 -19 -7 -46 14 -46 22 0 30 29 13 46 -13 13 -16 13 -27
0z"/>
<path d="M2874 76 c-3 -8 0 -24 6 -36 9 -17 14 -19 26 -9 19 15 18 45 -2 53
-22 8 -24 8 -30 -8z"/>
<path d="M2214 55 c-7 -18 3 -35 22 -35 20 0 30 30 13 41 -20 12 -29 11 -35
-6z"/>
<path d="M2611 52 c-7 -13 -6 -23 1 -30 28 -28 63 3 38 33 -16 20 -27 19 -39
-3z"/>
<path d="M2743 54 c-3 -8 1 -22 9 -30 13 -13 16 -13 27 0 7 9 11 23 7 31 -7
20 -35 19 -43 -1z"/>
<path d="M2347 53 c-24 -23 12 -55 38 -33 12 10 13 16 4 26 -12 15 -31 18 -42
7z"/>
<path d="M2481 50 c-16 -9 -5 -50 14 -50 12 0 25 21 25 40 0 12 -25 19 -39 10z"/>
</g>
</svg>
