<?xml version="1.0" standalone="no"?>
<!DOCTYPE svg PUBLIC "-//W3C//DTD SVG 20010904//EN"
 "http://www.w3.org/TR/2001/REC-SVG-20010904/DTD/svg10.dtd">
<svg version="1.0" xmlns="http://www.w3.org/2000/svg"
 width="497.000000pt" height="500.000000pt" viewBox="0 0 497.000000 500.000000"
 preserveAspectRatio="xMidYMid meet">
<metadata>
Created by potrace 1.15, written by Peter Selinger 2001-2017
</metadata>
<g transform="translate(0.000000,500.000000) scale(0.100000,-0.100000)"
fill="#000000" stroke="none">
<path d="M2469 4977 c-14 -31 -1 -54 25 -44 20 8 20 27 2 52 -14 19 -15 19
-27 -8z"/>
<path d="M2337 4973 c-11 -10 -8 -41 4 -49 6 -3 18 1 27 9 13 13 13 19 2 31
-14 17 -23 20 -33 9z"/>
<path d="M2603 4969 c-6 -6 -9 -18 -6 -25 7 -18 37 -18 52 0 10 12 8 17 -8 25
-24 14 -24 14 -38 0z"/>
<path d="M2736 4964 c-11 -29 -6 -44 13 -44 26 0 34 15 21 40 -13 24 -26 26
-34 4z"/>
<path d="M2213 4963 c-16 -6 -17 -39 -2 -49 6 -3 17 0 25 8 12 11 12 17 2 30
-7 9 -19 14 -25 11z"/>
<path d="M2073 4939 c-6 -6 -9 -18 -6 -25 7 -18 37 -18 52 0 10 12 8 17 -8 25
-24 14 -24 14 -38 0z"/>
<path d="M2864 4935 c-12 -29 15 -45 45 -26 12 8 12 12 2 25 -17 20 -40 21
-47 1z"/>
<path d="M1935 4910 c-3 -5 -1 -19 6 -31 10 -19 12 -20 26 -6 9 9 13 23 10 31
-7 18 -32 21 -42 6z"/>
<path d="M2993 4905 c-8 -22 16 -36 40 -24 23 13 17 33 -11 37 -14 2 -25 -3
-29 -13z"/>
<path d="M1810 4871 c0 -27 15 -34 40 -21 17 9 19 14 9 26 -17 21 -49 18 -49
-5z"/>
<path d="M3123 4874 c-3 -8 1 -22 10 -31 14 -14 16 -13 27 7 10 18 9 24 -1 31
-20 13 -29 11 -36 -7z"/>
<path d="M1681 4837 c-8 -11 -6 -18 8 -31 19 -17 20 -17 31 3 18 35 -13 58
-39 28z"/>
<path d="M3251 4837 c-9 -11 -8 -17 3 -26 18 -15 48 -3 44 18 -4 21 -32 26
-47 8z"/>
<path d="M1560 4795 c-15 -18 -5 -35 20 -35 10 0 22 5 25 10 7 11 -12 40 -25
40 -4 0 -13 -7 -20 -15z"/>
<path d="M3381 4800 c-21 -12 -5 -42 21 -38 12 2 23 8 25 15 6 16 -30 34 -46
23z"/>
<path d="M1441 4747 c-15 -15 -14 -32 2 -46 16 -13 37 4 37 30 0 21 -24 31
-39 16z"/>
<path d="M3502 4748 c-27 -27 -3 -54 31 -36 22 11 22 25 -1 37 -13 7 -23 6
-30 -1z"/>
<path d="M3622 4698 c-16 -16 -15 -45 2 -51 15 -6 36 11 36 29 0 21 -25 35
-38 22z"/>
<path d="M1315 4680 c-3 -5 -1 -19 6 -31 10 -19 12 -20 26 -6 9 9 13 23 10 31
-7 18 -32 21 -42 6z"/>
<path d="M1204 4623 c-20 -33 7 -58 34 -31 7 7 8 17 1 30 -12 23 -21 23 -35 1z"/>
<path d="M3733 4621 c-10 -15 -9 -22 2 -31 22 -19 48 5 34 31 -12 24 -21 24
-36 0z"/>
<path d="M1090 4545 c-15 -18 -5 -35 20 -35 10 0 22 5 25 10 7 11 -12 40 -25
40 -4 0 -13 -7 -20 -15z"/>
<path d="M3844 4545 c-7 -18 3 -35 22 -35 20 0 30 30 13 41 -20 12 -29 11 -35
-6z"/>
<path d="M981 4467 c-8 -10 -7 -19 4 -33 13 -18 15 -18 31 -2 14 14 15 20 4
32 -15 19 -24 20 -39 3z"/>
<path d="M3949 4464 c-10 -13 -10 -17 2 -25 20 -13 35 -11 48 5 10 12 8 17 -8
25 -25 14 -26 14 -42 -5z"/>
<path d="M881 4396 c-16 -19 -7 -46 14 -46 22 0 30 29 13 46 -13 13 -16 13
-27 0z"/>
<path d="M4063 4393 c-16 -6 -17 -29 -3 -38 13 -8 50 3 50 15 0 13 -32 28 -47
23z"/>
<path d="M780 4295 c-15 -18 -5 -35 20 -35 10 0 22 5 25 10 7 11 -12 40 -25
40 -4 0 -13 -7 -20 -15z"/>
<path d="M4154 4295 c-12 -30 16 -45 46 -25 13 9 12 12 -4 25 -25 19 -35 19
-42 0z"/>
<path d="M683 4194 c-3 -8 1 -22 9 -30 13 -13 16 -13 27 0 7 9 11 23 7 31 -7
20 -35 19 -43 -1z"/>
<path d="M4243 4194 c-3 -8 1 -22 9 -30 13 -13 16 -13 27 0 7 9 11 23 7 31 -7
20 -35 19 -43 -1z"/>
<path d="M4341 4116 c-17 -20 -6 -49 16 -44 22 4 26 20 10 42 -12 16 -14 16
-26 2z"/>
<path d="M600 4105 c-9 -11 -11 -22 -4 -32 13 -21 25 -21 38 -1 8 14 7 21 -5
33 -14 15 -17 15 -29 0z"/>
<path d="M4422 4009 c-12 -18 -11 -24 1 -36 29 -29 49 6 25 40 -12 16 -14 16
-26 -4z"/>
<path d="M512 3998 c-13 -13 2 -38 23 -38 21 0 36 25 23 38 -7 7 -17 12 -23
12 -6 0 -16 -5 -23 -12z"/>
<path d="M2424 3956 c-16 -14 -40 -33 -53 -44 l-25 -19 32 -39 c39 -48 442
-617 439 -620 -1 -2 -101 -12 -222 -23 -121 -12 -316 -30 -434 -41 -117 -12
-215 -19 -217 -17 -2 2 86 172 196 377 110 206 199 379 197 384 -6 18 -49 -57
-219 -384 -94 -180 -180 -330 -199 -351 -32 -34 -39 -36 -114 -43 -44 -3 -286
-26 -538 -50 -424 -40 -460 -44 -480 -64 l-21 -22 17 -192 c98 -1086 114
-1229 135 -1251 26 -26 -24 -28 637 34 292 27 940 87 1440 134 1391 130 1282
118 1307 143 21 21 21 24 9 144 -6 68 -36 388 -66 712 -49 543 -55 591 -74
610 l-21 20 -528 -48 c-844 -77 -770 -73 -791 -50 -11 10 -106 143 -212 294
-106 151 -204 290 -218 309 l-25 33 49 -3 c45 -4 50 -2 64 23 14 24 14 28 -3
47 -24 26 -28 26 -62 -3z m1710 -632 c9 -4 21 -14 26 -23 5 -10 25 -195 45
-412 20 -217 47 -512 60 -657 29 -302 30 -336 12 -351 -13 -10 -567 -65 -1772
-176 -330 -30 -643 -59 -695 -65 -291 -31 -850 -79 -863 -74 -9 3 -18 12 -21
21 -3 8 -33 312 -66 676 -33 364 -62 674 -65 688 -4 17 1 34 12 48 20 23 59
28 983 111 184 16 452 41 595 55 339 33 699 66 1235 115 239 22 444 41 455 44
35 6 43 6 59 0z"/>
<path d="M3657 3075 c-71 -7 -130 -15 -132 -17 -2 -2 -1 -30 2 -61 5 -45 9
-57 20 -53 8 4 21 6 29 6 9 0 14 11 14 30 0 19 7 33 21 40 38 21 46 7 53 -92
4 -51 9 -112 12 -135 6 -39 4 -44 -20 -54 -15 -7 -26 -20 -26 -31 0 -18 6 -19
55 -14 30 3 80 9 110 12 45 4 55 9 55 24 0 13 -8 20 -27 22 -32 3 -35 17 -48
191 l-7 97 26 0 c20 0 32 -9 47 -34 15 -25 25 -33 39 -29 21 6 25 27 14 82 -6
30 -8 31 -58 30 -28 -1 -109 -7 -179 -14z"/>
<path d="M3208 3035 c-55 -18 -112 -72 -129 -122 -19 -58 -7 -145 25 -187 85
-112 292 -100 363 21 55 94 22 228 -69 274 -53 27 -131 33 -190 14z m97 -41
c22 -9 39 -46 59 -129 15 -60 15 -76 4 -110 -25 -77 -101 -86 -142 -16 -14 25
-20 58 -24 131 -4 93 -4 98 19 114 24 17 56 20 84 10z"/>
<path d="M2903 3003 c-24 -3 -33 -9 -33 -23 0 -10 9 -21 19 -25 21 -6 27 -26
36 -120 l6 -60 -103 108 c-88 92 -108 108 -129 103 -13 -3 -45 -8 -70 -11 -40
-5 -46 -9 -42 -25 3 -11 14 -20 24 -20 25 0 26 -3 38 -143 11 -122 8 -147 -15
-147 -8 0 -14 -9 -14 -20 0 -18 7 -20 54 -20 30 0 61 3 70 6 24 9 20 42 -6 46
-16 2 -24 12 -29 38 -12 64 -20 170 -12 169 4 0 51 -50 103 -110 52 -61 103
-114 112 -119 9 -6 31 -7 49 -3 l32 6 -7 76 c-21 242 -21 248 3 256 12 3 21
15 21 26 0 20 -23 22 -107 12z"/>
<path d="M1748 2896 c-91 -33 -144 -112 -135 -201 15 -142 110 -206 261 -175
146 30 211 191 125 310 -52 72 -157 99 -251 66z m131 -74 c23 -60 42 -158 36
-188 -7 -41 -33 -71 -66 -79 -21 -5 -34 0 -58 22 -25 23 -32 40 -41 93 -14 91
-12 142 5 167 29 41 105 32 124 -15z"/>
<path d="M1210 2846 c-58 -6 -104 -14 -102 -18 1 -5 2 -15 2 -23 0 -9 9 -15
24 -15 31 0 35 -16 43 -161 6 -113 5 -117 -16 -124 -12 -3 -21 -15 -21 -26 0
-24 31 -25 183 -4 73 9 122 22 149 37 119 66 117 265 -2 326 -50 25 -90 26
-260 8z m172 -47 c30 -16 48 -71 48 -149 0 -66 -2 -74 -29 -101 -22 -21 -39
-29 -65 -29 -22 0 -36 5 -37 13 0 6 -6 68 -13 137 -9 89 -9 127 -2 132 16 11
75 9 98 -3z"/>
<path d="M3715 2426 c-99 -10 -110 -13 -110 -31 0 -12 9 -21 25 -25 29 -7 34
-28 45 -182 l8 -97 -27 -7 c-17 -4 -26 -13 -26 -26 0 -20 4 -20 98 -14 135 10
230 31 259 58 17 16 23 32 23 65 0 50 -24 80 -70 90 -30 6 -42 23 -16 23 22 0
56 49 56 80 0 15 -9 38 -19 51 -23 28 -74 31 -246 15z m133 -68 c18 -38 -1
-78 -39 -78 -25 0 -28 4 -34 44 -4 25 -4 50 0 56 13 20 59 7 73 -22z m10 -134
c17 -11 22 -25 22 -58 0 -51 -13 -66 -57 -66 -32 0 -33 1 -33 43 0 23 -3 52
-6 64 -4 15 -1 22 13 26 32 8 38 7 61 -9z"/>
<path d="M3300 2390 c-151 -21 -150 -20 -150 -41 0 -14 7 -19 25 -19 30 0 31
-6 45 -154 10 -112 5 -136 -26 -136 -8 0 -14 -11 -14 -26 0 -19 4 -24 18 -20
9 2 56 8 105 12 73 5 87 9 87 24 0 9 -11 22 -24 28 -19 8 -24 20 -29 64 -3 29
-1 57 3 61 9 10 47 -38 86 -112 l28 -53 51 6 c27 3 58 6 68 6 27 0 23 48 -5
52 -14 2 -35 26 -64 72 l-42 69 34 32 c40 38 44 72 11 110 -18 22 -32 27 -82
30 -33 2 -89 0 -125 -5z m84 -56 c19 -18 21 -75 4 -92 -20 -20 -55 -14 -62 11
-10 38 -7 85 7 90 22 10 35 7 51 -9z"/>
<path d="M3017 2361 c-26 -3 -47 -9 -47 -13 0 -5 0 -15 0 -23 0 -8 9 -15 19
-15 23 0 28 -19 37 -156 l6 -101 -27 -21 c-34 -27 -79 -28 -104 -3 -18 18 -24
48 -37 189 -6 69 -6 73 15 79 14 4 21 13 21 30 0 24 -2 25 -47 19 -27 -3 -74
-8 -106 -12 -45 -5 -57 -10 -53 -21 3 -8 6 -19 6 -24 0 -4 6 -6 13 -3 24 9 34
-19 45 -127 5 -60 17 -120 27 -138 20 -40 67 -61 135 -61 67 0 115 21 140 62
22 34 22 66 3 236 -5 48 -4 54 16 59 14 3 21 13 21 29 0 26 2 25 -83 15z"/>
<path d="M2430 2304 c-69 -7 -133 -13 -142 -13 -14 -1 -18 -10 -18 -40 0 -55
8 -71 36 -71 17 0 24 6 24 19 0 36 12 51 40 51 33 0 36 -11 46 -165 6 -99 6
-100 -20 -123 -40 -34 -24 -45 58 -37 121 10 146 16 146 31 0 8 -13 20 -30 25
-35 13 -37 18 -45 134 -3 50 -9 105 -12 123 -5 30 -4 32 26 32 27 0 34 -5 47
-36 12 -29 18 -34 37 -28 12 3 23 7 23 8 1 0 -1 25 -3 54 l-6 52 -41 -1 c-22
-1 -97 -7 -166 -15z"/>
<path d="M1986 2265 c-64 -23 -91 -57 -91 -116 0 -67 27 -91 127 -114 68 -15
108 -36 108 -57 0 -24 -42 -48 -86 -48 -49 0 -73 17 -74 53 0 12 -8 17 -31 17
l-31 0 7 -47 c3 -27 14 -54 23 -60 23 -19 148 -15 202 5 89 34 118 127 58 186
-27 26 -49 36 -115 50 -46 10 -86 22 -89 27 -12 21 7 57 36 69 38 16 75 2 92
-35 7 -16 19 -25 35 -25 21 0 23 4 23 49 0 46 -1 49 -31 55 -51 10 -121 6
-163 -9z"/>
<path d="M1780 2244 c-8 -1 -50 -6 -92 -9 -66 -6 -78 -10 -78 -25 0 -11 10
-19 29 -23 31 -7 28 6 47 -204 6 -71 6 -73 -20 -84 -15 -7 -26 -20 -26 -32 0
-17 5 -18 48 -13 26 3 75 8 110 12 52 5 62 9 62 25 0 12 -7 19 -20 19 -10 0
-24 8 -29 18 -7 14 -31 207 -31 255 0 4 11 12 25 17 15 6 25 17 25 30 0 19
-12 23 -50 14z"/>
<path d="M1248 2198 c-114 -10 -118 -11 -118 -34 0 -17 6 -23 27 -26 25 -3 29
-8 35 -53 4 -27 9 -90 10 -140 3 -87 2 -90 -19 -93 -15 -2 -23 -10 -23 -23 0
-16 7 -19 48 -19 74 0 249 28 281 44 41 22 79 71 87 112 11 57 -1 142 -23 172
-48 65 -109 77 -305 60z m165 -58 c43 -34 61 -138 36 -209 -12 -35 -53 -61
-97 -61 l-29 0 -12 136 c-14 151 -13 154 45 154 17 0 43 -9 57 -20z"/>
<path d="M437 3893 c-24 -23 12 -55 38 -33 12 10 13 16 4 26 -12 15 -31 18
-42 7z"/>
<path d="M4496 3891 c-9 -14 4 -41 19 -41 7 0 18 7 26 16 10 13 10 17 -2 25
-18 11 -36 11 -43 0z"/>
<path d="M4572 3788 c-17 -17 -15 -35 5 -42 22 -9 36 7 28 33 -7 24 -16 26
-33 9z"/>
<path d="M364 3775 c-4 -9 -2 -21 4 -27 15 -15 44 -1 40 19 -4 23 -36 29 -44
8z"/>
<path d="M300 3665 c-19 -22 1 -39 35 -31 26 7 27 8 10 26 -22 24 -29 25 -45
5z"/>
<path d="M4643 3673 c-18 -6 -16 -43 1 -43 20 0 46 11 46 19 0 11 -34 28 -47
24z"/>
<path d="M240 3544 c-11 -12 -11 -18 2 -30 13 -13 19 -14 36 -3 20 12 20 15 5
31 -20 22 -27 22 -43 2z"/>
<path d="M4703 3553 c-15 -5 -17 -39 -3 -48 9 -6 50 15 50 25 0 10 -35 27 -47
23z"/>
<path d="M187 3416 c-3 -8 1 -20 9 -27 12 -10 18 -9 31 3 8 9 12 21 9 27 -10
16 -43 14 -49 -3z"/>
<path d="M4743 3414 c-9 -24 11 -38 36 -25 25 14 27 27 5 35 -25 9 -34 7 -41
-10z"/>
<path d="M140 3295 c-10 -13 -10 -19 5 -35 18 -20 18 -20 32 0 12 17 12 24 3
35 -16 19 -24 19 -40 0z"/>
<path d="M4793 3294 c-8 -21 13 -42 28 -27 13 13 5 43 -11 43 -6 0 -13 -7 -17
-16z"/>
<path d="M101 3171 c-13 -23 8 -45 33 -35 19 7 21 25 4 42 -17 17 -26 15 -37
-7z"/>
<path d="M4830 3164 c-11 -12 -10 -18 4 -32 16 -16 18 -16 31 2 11 14 12 23 4
33 -15 17 -24 16 -39 -3z"/>
<path d="M71 3037 c-8 -10 -7 -19 4 -33 15 -19 15 -19 30 0 11 14 12 23 4 33
-6 7 -15 13 -19 13 -4 0 -13 -6 -19 -13z"/>
<path d="M4867 3043 c-11 -10 -8 -41 5 -49 17 -11 40 26 27 43 -13 14 -22 16
-32 6z"/>
<path d="M45 2909 c-8 -26 6 -42 28 -33 20 7 22 25 5 42 -17 17 -26 15 -33 -9z"/>
<path d="M4883 2904 c-3 -8 1 -22 9 -30 13 -13 16 -13 27 0 7 9 11 23 7 31 -7
20 -35 19 -43 -1z"/>
<path d="M22 2778 c-8 -8 -9 -15 -1 -25 22 -26 55 -10 43 21 -7 19 -25 21 -42
4z"/>
<path d="M4904 2776 c-3 -8 0 -24 6 -36 l12 -22 15 21 c12 17 12 25 3 36 -16
19 -29 19 -36 1z"/>
<path d="M20 2650 c-13 -25 -6 -40 21 -40 23 0 26 32 5 49 -12 10 -17 8 -26
-9z"/>
<path d="M4920 2655 c-9 -11 -11 -22 -4 -32 13 -21 25 -21 38 -1 8 14 7 21 -5
33 -14 15 -17 15 -29 0z"/>
<path d="M4920 2514 c-11 -12 -10 -18 3 -32 21 -21 42 -3 32 27 -8 25 -18 27
-35 5z"/>
<path d="M10 2510 c-13 -9 -12 -12 4 -25 25 -19 32 -19 40 1 12 31 -13 44 -44
24z"/>
<path d="M4915 2380 c-8 -24 1 -40 21 -40 20 0 29 27 14 45 -17 20 -27 19 -35
-5z"/>
<path d="M14 2375 c-3 -8 1 -24 9 -36 l15 -21 12 22 c6 12 9 28 6 36 -7 18
-35 18 -42 -1z"/>
<path d="M4911 2256 c-17 -20 -6 -49 16 -44 22 4 26 20 10 42 -12 16 -14 16
-26 2z"/>
<path d="M29 2244 c-15 -18 0 -38 27 -32 25 5 28 25 6 37 -15 8 -23 7 -33 -5z"/>
<path d="M44 2109 c-3 -6 0 -17 8 -25 12 -12 17 -12 32 -1 11 8 16 19 12 25
-9 15 -43 15 -52 1z"/>
<path d="M4884 2109 c-3 -6 1 -18 10 -27 15 -15 17 -15 32 0 19 19 11 38 -16
38 -10 0 -22 -5 -26 -11z"/>
<path d="M61 1976 c-10 -12 -8 -17 9 -26 26 -14 46 0 37 24 -8 20 -31 21 -46
2z"/>
<path d="M4851 1976 c-10 -12 -8 -17 10 -26 17 -10 24 -9 36 3 9 8 12 20 9 26
-10 16 -41 14 -55 -3z"/>
<path d="M113 1863 c-18 -6 -16 -43 1 -43 20 0 46 11 46 19 0 11 -34 28 -47
24z"/>
<path d="M4830 1855 c-10 -12 -10 -18 0 -30 15 -18 20 -18 44 0 20 15 20 15 0
30 -24 18 -29 18 -44 0z"/>
<path d="M143 1729 c-6 -6 -9 -18 -6 -25 7 -18 37 -18 52 0 10 12 8 17 -8 25
-24 14 -24 14 -38 0z"/>
<path d="M4790 1710 c0 -20 15 -25 44 -14 13 5 14 9 5 20 -18 21 -49 17 -49
-6z"/>
<path d="M184 1599 c-3 -6 1 -18 10 -27 15 -15 17 -15 32 0 19 19 11 38 -16
38 -10 0 -22 -5 -26 -11z"/>
<path d="M4747 1603 c-12 -12 -7 -31 10 -37 9 -4 23 0 32 9 14 14 14 17 1 25
-18 11 -34 13 -43 3z"/>
<path d="M4695 1479 c-10 -30 11 -48 32 -27 13 14 14 20 3 32 -17 22 -27 20
-35 -5z"/>
<path d="M234 1475 c-13 -32 32 -49 55 -21 10 12 8 17 -8 25 -27 15 -41 14
-47 -4z"/>
<path d="M300 1365 c-15 -18 -6 -45 14 -45 20 0 29 16 21 40 -8 24 -18 25 -35
5z"/>
<path d="M4635 1360 c-7 -23 1 -40 20 -40 18 0 28 30 14 46 -16 19 -27 17 -34
-6z"/>
<path d="M4570 1250 c-15 -28 5 -57 26 -39 18 15 18 33 0 48 -12 10 -17 8 -26
-9z"/>
<path d="M367 1243 c-25 -24 11 -49 40 -28 16 13 16 16 3 25 -17 11 -34 13
-43 3z"/>
<path d="M440 1135 c-15 -18 -6 -45 14 -45 20 0 29 16 21 40 -8 24 -18 25 -35
5z"/>
<path d="M4501 1136 c-13 -16 -4 -46 14 -46 12 0 41 28 34 33 -2 1 -11 8 -20
15 -13 10 -19 9 -28 -2z"/>
<path d="M523 1033 c-15 -5 -17 -39 -3 -48 12 -7 50 12 50 25 0 13 -32 28 -47
23z"/>
<path d="M4420 1025 c-8 -10 -8 -19 2 -34 15 -25 24 -26 32 -5 15 38 -10 67
-34 39z"/>
<path d="M4340 925 c-15 -19 3 -47 26 -38 18 7 18 27 0 42 -10 9 -16 8 -26 -4z"/>
<path d="M593 914 c-3 -8 1 -22 9 -30 13 -13 16 -13 27 0 7 9 11 23 7 31 -7
20 -35 19 -43 -1z"/>
<path d="M683 814 c-3 -8 1 -22 9 -30 13 -13 16 -13 27 0 7 9 11 23 7 31 -7
20 -35 19 -43 -1z"/>
<path d="M4247 823 c-12 -12 -7 -31 10 -37 9 -4 23 0 32 9 14 14 14 17 1 25
-18 11 -34 13 -43 3z"/>
<path d="M782 733 c-18 -35 12 -59 36 -30 7 8 7 17 -2 30 -16 21 -23 21 -34 0z"/>
<path d="M4157 733 c-24 -23 12 -55 38 -33 12 10 13 16 4 26 -12 15 -31 18
-42 7z"/>
<path d="M881 636 c-10 -12 -10 -19 2 -36 12 -18 16 -18 26 -6 14 17 11 48 -5
53 -6 2 -17 -3 -23 -11z"/>
<path d="M4055 640 c-8 -12 3 -50 14 -50 15 0 33 30 27 45 -6 17 -32 20 -41 5z"/>
<path d="M3950 555 c-10 -12 -10 -18 0 -30 15 -18 20 -18 44 0 20 15 20 15 0
30 -24 18 -29 18 -44 0z"/>
<path d="M980 541 c0 -25 24 -33 47 -16 16 13 16 16 3 25 -25 16 -50 12 -50
-9z"/>
<path d="M1090 481 c-13 -25 -6 -41 20 -41 26 0 32 25 10 45 -17 16 -19 15
-30 -4z"/>
<path d="M3851 486 c-17 -20 -6 -49 16 -44 22 4 26 20 10 42 -12 16 -14 16
-26 2z"/>
<path d="M1207 413 c-11 -10 -8 -41 4 -49 6 -3 18 1 27 9 13 13 13 19 2 31
-14 17 -23 20 -33 9z"/>
<path d="M3734 405 c-7 -17 2 -45 13 -45 4 0 17 7 27 15 20 15 20 15 0 30 -24
18 -33 19 -40 0z"/>
<path d="M1314 335 c-4 -9 0 -24 10 -33 15 -15 18 -15 26 -2 6 8 9 22 7 30 -3
21 -36 25 -43 5z"/>
<path d="M3613 334 c-8 -22 11 -37 36 -29 25 8 28 30 5 39 -25 9 -34 7 -41
-10z"/>
<path d="M1434 275 c-13 -32 23 -48 47 -19 10 13 10 17 -2 25 -21 13 -39 11
-45 -6z"/>
<path d="M3494 275 c-13 -32 23 -48 47 -19 10 13 10 17 -2 25 -21 13 -39 11
-45 -6z"/>
<path d="M1560 225 c-22 -26 7 -46 39 -26 12 8 12 12 2 25 -17 20 -25 20 -41
1z"/>
<path d="M3374 225 c-7 -18 3 -35 21 -35 18 0 26 15 19 34 -8 20 -33 21 -40 1z"/>
<path d="M1685 190 c-17 -19 -18 -22 -2 -37 15 -15 19 -15 31 -3 12 12 12 19
2 38 l-12 23 -19 -21z"/>
<path d="M3244 179 c-3 -6 0 -18 9 -26 12 -12 19 -13 36 -3 18 9 20 14 10 26
-14 17 -45 19 -55 3z"/>
<path d="M1805 140 c-7 -11 12 -50 25 -50 12 0 23 37 15 50 -8 13 -32 13 -40
0z"/>
<path d="M3123 134 c-9 -24 11 -38 37 -24 17 9 19 14 9 26 -15 19 -38 18 -46
-2z"/>
<path d="M1941 106 c-14 -17 9 -39 33 -30 20 8 21 30 0 38 -21 8 -20 8 -33 -8z"/>
<path d="M2997 113 c-24 -23 12 -55 38 -33 12 10 13 16 4 26 -12 15 -31 18
-42 7z"/>
<path d="M2070 85 c-19 -22 5 -48 31 -34 10 5 19 14 19 19 0 5 -9 14 -19 19
-14 8 -22 7 -31 -4z"/>
<path d="M2865 79 c-9 -27 12 -41 37 -26 23 15 23 24 -1 37 -27 14 -29 13 -36
-11z"/>
<path d="M2203 69 c-16 -16 -5 -39 17 -39 25 0 35 18 20 35 -15 18 -22 19 -37
4z"/>
<path d="M2600 65 c-16 -19 -6 -45 19 -45 24 0 32 21 16 43 -15 21 -19 21 -35
2z"/>
<path d="M2731 66 c-15 -18 11 -40 39 -31 25 8 26 21 1 35 -25 13 -26 13 -40
-4z"/>
<path d="M2337 63 c-11 -11 -8 -40 6 -51 19 -16 43 24 26 44 -13 15 -22 18
-32 7z"/>
<path d="M2460 51 c0 -21 13 -41 26 -41 8 0 14 4 14 9 0 5 3 16 6 25 5 12 0
16 -20 16 -14 0 -26 -4 -26 -9z"/>
</g>
</svg>
