<?xml version="1.0" standalone="no"?>
<!DOCTYPE svg PUBLIC "-//W3C//DTD SVG 20010904//EN"
 "http://www.w3.org/TR/2001/REC-SVG-20010904/DTD/svg10.dtd">
<svg version="1.0" xmlns="http://www.w3.org/2000/svg"
 width="499.000000pt" height="500.000000pt" viewBox="0 0 499.000000 500.000000"
 preserveAspectRatio="xMidYMid meet">
<metadata>
Created by potrace 1.15, written by Peter Selinger 2001-2017
</metadata>
<g transform="translate(0.000000,500.000000) scale(0.100000,-0.100000)"
fill="#000000" stroke="none">
<path d="M2352 4988 c-15 -15 -15 -45 -1 -54 6 -3 18 0 26 9 14 13 14 18 1 36
-11 16 -17 18 -26 9z"/>
<path d="M2480 4975 c-19 -22 5 -48 31 -34 10 5 19 14 19 19 0 5 -9 14 -19 19
-14 8 -22 7 -31 -4z"/>
<path d="M2607 4966 c-9 -23 18 -39 43 -26 17 9 19 14 9 26 -15 18 -45 18 -52
0z"/>
<path d="M2207 4956 c-9 -23 18 -39 43 -26 17 9 19 14 9 26 -15 18 -45 18 -52
0z"/>
<path d="M2747 4963 c-24 -23 12 -55 38 -33 12 10 13 16 4 26 -12 15 -31 18
-42 7z"/>
<path d="M2076 4941 c-9 -14 4 -41 19 -41 17 0 38 27 30 40 -8 12 -42 13 -49
1z"/>
<path d="M2873 4934 c-3 -8 1 -22 9 -30 13 -13 16 -13 27 0 7 9 11 23 7 31 -7
20 -35 19 -43 -1z"/>
<path d="M3011 4926 c-16 -19 -7 -46 14 -46 22 0 30 29 13 46 -13 13 -16 13
-27 0z"/>
<path d="M1951 4921 c-14 -9 -7 -51 8 -51 15 0 33 30 27 45 -6 17 -15 19 -35
6z"/>
<path d="M1821 4886 c-18 -22 4 -62 25 -45 18 15 18 33 0 48 -10 9 -16 8 -25
-3z"/>
<path d="M3140 4885 c-19 -22 5 -48 31 -34 10 5 19 14 19 19 0 5 -9 14 -19 19
-14 8 -22 7 -31 -4z"/>
<path d="M1695 4846 c-16 -12 -17 -16 -6 -30 18 -21 28 -20 40 3 15 27 -9 46
-34 27z"/>
<path d="M3269 4844 c-15 -18 0 -38 27 -32 25 5 28 25 6 37 -15 8 -23 7 -33
-5z"/>
<path d="M1567 4803 c-24 -23 12 -55 38 -33 12 10 13 16 4 26 -12 15 -31 18
-42 7z"/>
<path d="M3390 4795 c-11 -13 -11 -19 4 -33 15 -15 18 -15 26 -2 22 33 -6 64
-30 35z"/>
<path d="M1440 4744 c-11 -12 -10 -18 3 -32 16 -15 18 -15 34 0 13 14 14 20 3
32 -7 9 -16 16 -20 16 -4 0 -13 -7 -20 -16z"/>
<path d="M3510 4745 c-15 -18 -5 -35 21 -35 24 0 37 29 18 41 -19 12 -25 11
-39 -6z"/>
<path d="M1327 4693 c-11 -10 -8 -41 4 -49 6 -3 18 1 27 9 13 13 13 19 2 31
-14 17 -23 20 -33 9z"/>
<path d="M3637 4693 c-4 -3 -7 -15 -7 -25 0 -22 32 -24 49 -4 10 12 8 17 -8
25 -23 13 -26 13 -34 4z"/>
<path d="M3751 4626 c-11 -13 -6 -46 8 -46 19 1 33 20 26 39 -7 24 -18 27 -34
7z"/>
<path d="M1205 4620 c-8 -12 3 -50 14 -50 15 0 33 30 27 45 -6 17 -32 20 -41
5z"/>
<path d="M1101 4556 c-16 -19 -7 -46 14 -46 22 0 30 29 13 46 -13 13 -16 13
-27 0z"/>
<path d="M3861 4546 c-14 -17 9 -39 33 -30 19 7 20 16 4 32 -15 15 -23 15 -37
-2z"/>
<path d="M2452 4497 c-25 -11 -80 -107 -62 -107 31 0 100 75 100 109 0 13 -8
13 -38 -2z"/>
<path d="M2965 4491 c-71 -32 -95 -78 -71 -134 12 -29 27 -42 89 -71 79 -37
94 -56 83 -102 -9 -34 -50 -57 -101 -57 -57 0 -75 15 -75 65 0 32 -3 39 -17
36 -22 -4 -42 -93 -25 -110 19 -19 162 -22 204 -5 45 19 78 69 78 118 0 44
-19 63 -103 104 -69 34 -83 50 -73 89 14 57 138 76 152 22 3 -12 4 -28 2 -36
-2 -8 5 -16 14 -18 12 -2 19 4 22 20 3 13 7 35 10 50 6 25 3 27 -45 37 -69 15
-98 14 -144 -8z"/>
<path d="M1317 4483 c-14 -13 -6 -23 17 -23 14 0 27 -4 30 -8 5 -8 -46 -260
-59 -294 -4 -10 -18 -18 -31 -18 -15 0 -24 -6 -24 -16 0 -14 16 -16 133 -12
142 4 167 11 221 65 66 65 86 179 43 244 -37 56 -75 69 -208 69 -64 0 -119 -3
-122 -7z m254 -52 c25 -26 29 -37 29 -88 -1 -125 -72 -203 -186 -203 -34 0
-44 4 -44 16 0 21 59 284 66 295 3 5 28 9 55 9 42 0 55 -5 80 -29z"/>
<path d="M984 4465 c-13 -32 23 -48 47 -19 10 13 10 17 -2 25 -21 13 -39 11
-45 -6z"/>
<path d="M3963 4464 c-10 -26 13 -40 43 -24 24 13 24 15 8 27 -24 17 -43 16
-51 -3z"/>
<path d="M2611 4434 c-12 -15 -21 -30 -21 -34 0 -4 -16 -15 -35 -24 -39 -19
-46 -36 -15 -36 24 0 25 -14 5 -95 -8 -33 -14 -77 -15 -97 0 -33 4 -39 27 -44
28 -7 73 11 81 33 2 9 -5 11 -27 7 -36 -8 -36 -9 -16 88 23 108 23 108 56 108
19 0 29 5 29 15 0 9 -10 15 -26 15 -24 0 -25 2 -18 45 3 25 4 45 1 45 -3 0
-15 -12 -26 -26z"/>
<path d="M884 4385 c-12 -31 23 -48 45 -21 10 12 8 17 -8 25 -26 14 -31 14
-37 -4z"/>
<path d="M4071 4386 c-14 -17 11 -41 34 -32 20 7 19 32 -1 40 -21 8 -20 8 -33
-8z"/>
<path d="M1790 4358 c-57 -39 -75 -72 -75 -138 0 -44 5 -63 20 -80 46 -52 119
-49 184 6 67 57 79 157 26 210 -33 33 -108 33 -155 2z m112 -15 c22 -20 23
-63 4 -127 -19 -63 -41 -86 -83 -86 -29 0 -36 5 -49 35 -13 31 -13 42 1 89 28
96 79 132 127 89z"/>
<path d="M2073 4373 c-33 -4 -48 -33 -18 -33 8 0 15 -9 15 -19 0 -17 -19 -119
-35 -188 -5 -20 -1 -23 23 -23 27 0 30 4 35 39 7 55 45 127 85 162 18 16 37
29 42 29 17 0 15 -46 -4 -123 -15 -58 -18 -82 -10 -95 16 -24 41 -26 72 -6
l27 18 -26 6 -26 5 22 94 c28 114 22 141 -27 141 -25 0 -42 -10 -80 -50 -42
-43 -48 -47 -43 -25 18 86 24 77 -52 68z"/>
<path d="M3300 4372 c-67 -31 -110 -98 -110 -173 0 -52 19 -84 56 -93 27 -7
68 12 90 42 9 13 12 11 18 -11 7 -31 44 -44 75 -27 31 16 27 38 -5 32 -24 -4
-26 -3 -19 19 5 13 18 63 30 110 l22 87 -24 11 c-26 12 -109 14 -133 3z m84
-67 c-2 -57 -32 -125 -66 -149 -28 -20 -33 -20 -52 0 -35 35 -6 151 46 189 13
8 34 14 48 13 23 -3 25 -7 24 -53z"/>
<path d="M3523 4370 c-28 -11 -30 -30 -4 -30 11 0 22 -4 25 -9 6 -9 34 -140
43 -197 6 -37 -18 -88 -47 -104 -17 -9 -22 -7 -30 15 -5 14 -14 25 -19 25 -9
0 -24 -60 -17 -68 10 -10 75 -5 90 7 14 12 166 260 200 328 19 37 14 42 -36
36 -40 -5 -55 -33 -18 -33 18 0 16 -8 -23 -80 -23 -44 -45 -80 -48 -80 -3 0
-14 45 -24 100 -17 97 -18 100 -44 99 -14 0 -36 -4 -48 -9z"/>
<path d="M4170 4300 c-12 -23 -6 -40 15 -40 19 0 27 17 20 40 -8 26 -21 25
-35 0z"/>
<path d="M787 4303 c-24 -23 12 -55 38 -33 12 10 13 16 4 26 -12 15 -31 18
-42 7z"/>
<path d="M4272 4218 c-27 -27 -5 -72 23 -48 18 15 19 21 2 43 -10 14 -15 15
-25 5z"/>
<path d="M689 4204 c-10 -12 -9 -18 4 -31 13 -13 19 -14 31 -3 21 17 20 27 -3
39 -14 8 -22 7 -32 -5z"/>
<path d="M600 4104 c-11 -12 -10 -18 3 -32 16 -15 18 -15 34 0 13 14 14 20 3
32 -7 9 -16 16 -20 16 -4 0 -13 -7 -20 -16z"/>
<path d="M4354 4105 c-12 -30 16 -45 46 -25 13 9 12 12 -4 25 -25 19 -35 19
-42 0z"/>
<path d="M519 4007 c-14 -31 -1 -54 25 -44 20 8 20 27 2 52 -14 19 -15 19 -27
-8z"/>
<path d="M4439 4007 c-14 -31 -2 -52 24 -41 21 8 22 24 3 49 -14 19 -15 19
-27 -8z"/>
<path d="M433 3884 c-3 -8 1 -22 9 -30 13 -13 16 -13 27 0 7 9 11 23 7 31 -7
20 -35 19 -43 -1z"/>
<path d="M4515 3890 c-8 -13 3 -50 15 -50 13 0 32 39 25 50 -8 13 -32 13 -40
0z"/>
<path d="M365 3780 c-7 -23 1 -40 20 -40 8 0 17 5 20 10 9 15 -4 50 -20 50 -8
0 -16 -9 -20 -20z"/>
<path d="M4583 3774 c-3 -8 1 -22 9 -30 13 -13 16 -13 27 0 7 9 11 23 7 31 -7
20 -35 19 -43 -1z"/>
<path d="M300 3661 c-13 -25 2 -35 37 -26 24 6 25 7 8 25 -23 25 -32 25 -45 1z"/>
<path d="M4657 3673 c-4 -3 -7 -15 -7 -25 0 -18 16 -23 45 -12 14 6 14 8 -1
25 -18 20 -27 23 -37 12z"/>
<path d="M244 3545 c-18 -13 -18 -15 -3 -30 14 -14 20 -15 38 -3 26 16 26 20
2 35 -15 9 -23 9 -37 -2z"/>
<path d="M4714 3545 c-7 -17 2 -45 13 -45 4 0 17 7 27 15 20 15 20 15 0 30
-24 18 -33 19 -40 0z"/>
<path d="M181 3417 c-9 -11 -8 -17 3 -26 18 -15 48 -3 44 18 -4 21 -32 26 -47
8z"/>
<path d="M4765 3420 c-8 -13 3 -50 15 -50 13 0 32 39 25 50 -8 13 -32 13 -40
0z"/>
<path d="M142 3297 c-9 -10 -7 -19 4 -36 l16 -22 15 21 c12 16 12 24 3 35 -15
18 -24 19 -38 2z"/>
<path d="M4817 3303 c-4 -3 -7 -15 -7 -25 0 -22 32 -24 49 -4 10 12 8 17 -8
25 -23 13 -26 13 -34 4z"/>
<path d="M670 3249 c-10 -17 -9 -24 4 -37 15 -15 17 -15 33 1 13 13 15 21 7
34 -16 26 -31 26 -44 2z"/>
<path d="M1280 3249 c-10 -17 -9 -24 4 -37 15 -15 17 -15 33 1 13 13 15 21 7
34 -16 26 -31 26 -44 2z"/>
<path d="M2482 3249 c-12 -18 -11 -24 2 -37 15 -15 18 -15 33 1 13 13 15 21 7
34 -16 25 -28 25 -42 2z"/>
<path d="M2634 3244 c-9 -37 10 -52 36 -29 19 17 19 19 4 37 -23 25 -32 23
-40 -8z"/>
<path d="M3090 3249 c-10 -17 -9 -24 4 -37 15 -15 17 -15 33 1 13 13 15 21 7
34 -16 26 -31 26 -44 2z"/>
<path d="M3242 3249 c-12 -18 -11 -24 2 -37 15 -15 18 -15 33 1 13 13 15 21 7
34 -16 25 -28 25 -42 2z"/>
<path d="M520 3245 c-10 -12 -10 -18 0 -30 7 -8 18 -15 25 -15 7 0 18 7 25 15
10 12 10 18 0 30 -7 8 -18 15 -25 15 -7 0 -18 -7 -25 -15z"/>
<path d="M814 3245 c-7 -17 12 -45 29 -45 6 0 19 7 29 16 17 16 17 18 0 30
-23 18 -51 17 -58 -1z"/>
<path d="M983 3253 c-18 -7 -16 -28 2 -43 13 -10 19 -10 35 5 19 17 19 19 2
31 -18 14 -21 15 -39 7z"/>
<path d="M1129 3244 c-9 -11 -10 -20 -3 -32 16 -24 28 -24 42 -1 10 16 10 24
1 35 -15 18 -23 18 -40 -2z"/>
<path d="M1430 3244 c-11 -12 -10 -18 3 -31 15 -15 18 -15 37 2 19 17 19 19 2
31 -22 17 -27 17 -42 -2z"/>
<path d="M1567 3248 c-6 -18 11 -48 27 -48 7 0 21 9 30 19 17 19 17 20 -3 30
-26 15 -48 14 -54 -1z"/>
<path d="M1730 3244 c-11 -12 -11 -18 2 -30 12 -13 20 -14 37 -5 26 14 27 27
2 41 -25 13 -26 13 -41 -6z"/>
<path d="M1880 3245 c-10 -12 -10 -18 0 -30 7 -8 18 -15 25 -15 7 0 18 7 25
15 10 12 10 18 0 30 -7 8 -18 15 -25 15 -7 0 -18 -7 -25 -15z"/>
<path d="M2032 3248 c-7 -7 -8 -17 -1 -30 12 -22 32 -23 49 -3 23 28 -21 60
-48 33z"/>
<path d="M2185 3240 c-9 -28 13 -54 31 -39 19 15 18 45 -2 53 -22 8 -22 8 -29
-14z"/>
<path d="M2331 3246 c-9 -11 -10 -20 -1 -35 13 -25 23 -26 41 -5 9 11 10 20 3
32 -15 22 -29 25 -43 8z"/>
<path d="M2790 3244 c-11 -12 -10 -18 3 -31 15 -15 18 -15 37 2 20 18 20 20 4
32 -23 17 -29 16 -44 -3z"/>
<path d="M2940 3244 c-11 -12 -11 -18 2 -30 12 -13 20 -14 37 -5 26 14 27 27
2 41 -25 13 -26 13 -41 -6z"/>
<path d="M3392 3248 c-16 -16 -15 -33 1 -47 21 -17 55 23 37 44 -15 18 -22 19
-38 3z"/>
<path d="M3540 3244 c-11 -12 -11 -18 2 -30 12 -13 20 -14 37 -5 26 14 27 27
2 41 -25 13 -26 13 -41 -6z"/>
<path d="M3686 3247 c-17 -13 -17 -14 -1 -30 20 -21 29 -21 45 -2 10 12 10 18
0 30 -15 18 -21 19 -44 2z"/>
<path d="M3838 3246 c-17 -12 -17 -14 2 -31 16 -15 22 -15 35 -5 19 16 19 36
-1 44 -19 7 -15 8 -36 -8z"/>
<path d="M3995 3240 c-6 -19 9 -50 24 -50 3 0 12 10 20 22 12 19 11 23 -5 35
-24 18 -32 16 -39 -7z"/>
<path d="M4149 3244 c-9 -11 -10 -20 -3 -32 16 -24 28 -24 42 -1 10 16 10 24
1 35 -15 18 -23 18 -40 -2z"/>
<path d="M4302 3248 c-16 -16 -15 -33 4 -48 22 -19 54 12 38 37 -14 22 -27 26
-42 11z"/>
<path d="M4446 3243 c-4 -9 0 -23 8 -32 14 -13 18 -13 36 4 19 17 19 19 2 31
-23 18 -39 17 -46 -3z"/>
<path d="M4850 3170 c-8 -15 -9 -25 -2 -32 17 -17 44 -1 40 24 -4 30 -24 34
-38 8z"/>
<path d="M107 3173 c-24 -23 12 -55 38 -33 12 10 13 16 4 26 -12 15 -31 18
-42 7z"/>
<path d="M77 3043 c-24 -23 12 -55 38 -33 12 10 13 16 4 26 -12 15 -31 18 -42
7z"/>
<path d="M4887 3043 c-24 -23 12 -55 38 -33 12 10 13 16 4 26 -12 15 -31 18
-42 7z"/>
<path d="M47 2913 c-24 -23 12 -55 38 -33 12 10 13 16 4 26 -12 15 -31 18 -42
7z"/>
<path d="M4903 2904 c-8 -22 11 -37 36 -29 25 8 28 30 5 39 -25 9 -34 7 -41
-10z"/>
<path d="M30 2775 c-15 -18 -5 -35 20 -35 10 0 22 5 25 10 7 11 -12 40 -25 40
-4 0 -13 -7 -20 -15z"/>
<path d="M4926 2774 c-4 -9 -1 -23 5 -31 10 -11 15 -11 30 3 14 13 16 20 8 31
-15 18 -36 17 -43 -3z"/>
<path d="M3131 2690 c-70 -17 -118 -75 -106 -129 8 -37 33 -59 108 -96 69 -34
83 -50 73 -89 -10 -39 -61 -68 -113 -63 -58 6 -76 23 -70 64 5 27 3 33 -13 33
-14 0 -20 -11 -25 -51 -4 -27 -5 -52 -3 -55 12 -11 118 -24 153 -18 82 13 135
64 135 130 0 44 -17 61 -106 108 -64 33 -80 46 -82 66 -5 40 38 73 92 73 57 0
80 -17 72 -55 -5 -23 -2 -28 14 -28 11 0 20 3 20 8 0 4 4 24 9 45 8 34 7 39
-12 46 -38 14 -111 20 -146 11z"/>
<path d="M1563 2683 c-21 -8 -15 -33 8 -33 15 0 19 -5 15 -17 -3 -10 -19 -85
-36 -167 -32 -161 -31 -176 19 -176 27 0 51 16 51 33 0 4 -10 7 -22 5 -13 -2
-22 2 -21 7 0 6 17 86 37 179 20 92 36 170 36 172 0 6 -73 3 -87 -3z"/>
<path d="M1170 2666 c0 -10 9 -16 25 -16 32 0 32 -19 0 -171 -31 -145 -32
-149 -61 -149 -15 0 -24 -6 -24 -15 0 -13 14 -15 87 -13 58 2 88 7 91 16 2 8
-7 12 -27 12 -35 0 -38 13 -18 90 l12 45 88 11 c96 13 120 26 137 79 12 38 3
71 -30 100 -19 17 -39 20 -151 23 -112 3 -129 2 -129 -12z m223 -28 c9 -7 19
-27 23 -44 10 -49 -26 -82 -100 -90 -54 -7 -58 -6 -53 12 3 10 9 37 13 59 11
64 20 75 62 75 21 0 46 -6 55 -12z"/>
<path d="M4941 2651 c-16 -29 3 -58 25 -40 17 14 17 20 0 44 -13 18 -14 18
-25 -4z"/>
<path d="M20 2644 c-11 -12 -10 -18 3 -32 16 -15 18 -15 34 0 13 14 14 20 3
32 -7 9 -16 16 -20 16 -4 0 -13 -7 -20 -16z"/>
<path d="M1766 2548 c-68 -40 -103 -112 -90 -186 7 -36 46 -72 78 -71 38 1
129 34 134 48 4 11 0 12 -14 6 -11 -4 -39 -12 -63 -18 -40 -10 -45 -9 -63 13
-34 43 -21 60 67 89 63 20 83 32 95 54 13 24 13 30 0 55 -21 37 -88 42 -144
10z m94 -33 c0 -14 -9 -34 -19 -44 -19 -19 -90 -45 -99 -36 -2 2 1 20 8 39 14
42 43 66 82 66 23 0 28 -4 28 -25z"/>
<path d="M2043 2545 c-55 -33 -85 -94 -81 -166 2 -43 8 -55 30 -72 32 -24 69
-17 102 18 l22 24 11 -30 c12 -31 38 -38 74 -19 28 15 24 33 -6 26 -14 -4 -25
-5 -25 -2 0 2 11 47 25 100 31 119 31 120 0 134 -43 20 -106 14 -152 -13z
m111 -52 c-2 -62 -36 -130 -77 -153 -27 -14 -29 -14 -48 9 -15 18 -18 32 -13
60 15 83 65 144 114 139 23 -3 25 -7 24 -55z"/>
<path d="M2363 2560 c-12 -5 -29 -20 -39 -34 -26 -41 -12 -71 51 -107 56 -31
75 -60 55 -83 -28 -35 -110 -25 -110 14 0 30 -27 24 -33 -7 -7 -37 -4 -41 49
-49 86 -13 154 25 154 87 0 29 -16 46 -77 79 -24 13 -46 33 -49 44 -15 46 81
64 101 18 12 -28 29 -23 33 10 2 19 -2 27 -20 32 -32 8 -89 6 -115 -4z"/>
<path d="M2655 2556 c-60 -27 -105 -99 -105 -168 0 -44 26 -85 57 -92 48 -11
178 32 159 51 -2 2 -22 -4 -46 -12 -56 -20 -73 -19 -94 4 -35 39 -18 62 67 90
43 15 82 33 87 41 15 23 12 67 -6 84 -19 19 -78 20 -119 2z m77 -45 c-1 -14
-9 -32 -17 -41 -15 -17 -85 -43 -93 -35 -8 8 8 52 29 79 16 21 28 26 53 24 26
-3 31 -7 28 -27z"/>
<path d="M3418 2550 c-81 -43 -120 -179 -68 -235 13 -14 32 -25 42 -25 28 0
74 27 83 47 7 16 9 15 14 -6 4 -13 14 -29 22 -34 21 -13 65 -1 73 19 5 13 1
15 -19 10 -14 -4 -25 -3 -25 1 0 5 11 51 25 103 30 117 30 114 0 128 -38 18
-105 14 -147 -8z m110 -28 c6 -38 -26 -128 -57 -161 -35 -37 -55 -39 -77 -6
-30 46 14 162 70 185 34 15 61 7 64 -18z"/>
<path d="M3676 2561 c-36 -8 -45 -28 -14 -33 20 -3 25 -14 45 -113 25 -119 24
-138 -8 -178 -25 -32 -49 -35 -49 -6 0 31 -34 20 -38 -13 -3 -22 2 -27 27 -33
38 -8 66 7 95 53 50 80 186 316 186 324 0 5 -10 6 -22 4 -68 -14 -78 -17 -78
-26 0 -6 11 -10 25 -10 l26 0 -37 -67 c-20 -38 -43 -74 -50 -82 -12 -14 -15
-6 -41 139 -9 47 -17 52 -67 41z"/>
<path d="M4940 2515 c-15 -18 -6 -45 14 -45 20 0 29 16 21 40 -8 24 -18 25
-35 5z"/>
<path d="M13 2513 c-21 -8 -15 -30 9 -37 27 -6 43 7 35 28 -6 16 -21 19 -44 9z"/>
<path d="M20 2380 c-14 -26 0 -46 24 -37 20 8 21 31 2 46 -12 10 -17 8 -26 -9z"/>
<path d="M4937 2383 c-12 -11 -8 -40 7 -52 12 -10 17 -8 26 9 16 29 -12 65
-33 43z"/>
<path d="M4932 2258 c-16 -16 -15 -33 2 -47 10 -9 16 -8 26 3 16 21 -10 62
-28 44z"/>
<path d="M24 2239 c-3 -6 0 -17 8 -25 12 -12 17 -12 32 -1 11 8 16 19 12 25
-9 15 -43 15 -52 1z"/>
<path d="M50 2114 c-11 -12 -10 -18 3 -32 21 -21 42 -3 32 27 -8 25 -18 27
-35 5z"/>
<path d="M4903 2104 c-3 -8 1 -22 9 -30 13 -13 16 -13 27 0 7 9 11 23 7 31 -7
20 -35 19 -43 -1z"/>
<path d="M72 1978 c-8 -8 -9 -15 -1 -25 15 -17 34 -17 48 1 10 12 8 17 -8 25
-24 14 -24 14 -39 -1z"/>
<path d="M4878 1976 c-13 -10 -15 -15 -6 -24 24 -24 68 -1 47 25 -14 16 -19
16 -41 -1z"/>
<path d="M101 1846 c-18 -21 11 -41 39 -26 17 9 19 14 9 26 -15 18 -33 18 -48
0z"/>
<path d="M4846 1844 c-3 -9 -4 -20 0 -25 8 -14 40 -11 53 5 10 12 8 17 -8 25
-27 15 -38 14 -45 -5z"/>
<path d="M4814 1726 c-8 -22 3 -49 19 -43 6 2 12 14 12 27 0 27 -22 39 -31 16z"/>
<path d="M142 1718 c-7 -10 -6 -19 4 -33 15 -20 15 -20 30 0 8 10 13 24 11 30
-5 15 -33 17 -45 3z"/>
<path d="M193 1599 c-16 -16 -5 -39 17 -39 25 0 35 18 20 35 -15 18 -22 19
-37 4z"/>
<path d="M4764 1595 c-12 -29 15 -45 45 -26 12 8 12 12 2 25 -17 20 -40 21
-47 1z"/>
<path d="M241 1479 c-11 -18 -10 -24 3 -37 15 -15 17 -15 33 1 16 16 16 18 -2
37 -20 20 -20 20 -34 -1z"/>
<path d="M4717 1483 c-10 -10 -8 -41 3 -48 5 -3 19 -1 31 5 20 11 20 12 3 31
-18 20 -27 23 -37 12z"/>
<path d="M825 1440 c-17 -18 -17 -22 -4 -36 9 -8 23 -12 32 -8 20 7 22 37 4
53 -11 8 -18 6 -32 -9z"/>
<path d="M2035 1440 c-17 -18 -17 -22 -4 -36 9 -8 23 -12 32 -8 20 7 22 37 4
53 -11 8 -18 6 -32 -9z"/>
<path d="M2642 1448 c-14 -14 -16 -45 -3 -52 16 -10 41 5 41 24 0 26 -23 43
-38 28z"/>
<path d="M522 1438 c-16 -16 -15 -33 3 -48 12 -10 18 -10 30 0 20 17 19 37 -3
49 -13 7 -23 6 -30 -1z"/>
<path d="M674 1435 c-18 -13 -18 -15 -1 -32 13 -13 21 -15 34 -7 25 16 27 31
5 43 -14 7 -24 6 -38 -4z"/>
<path d="M981 1436 c-14 -17 -6 -56 12 -56 7 0 18 9 24 19 10 15 9 22 -6 35
-16 15 -20 15 -30 2z"/>
<path d="M1131 1437 c-15 -15 -14 -32 5 -48 14 -11 18 -10 30 6 18 24 18 28
-5 42 -14 9 -21 9 -30 0z"/>
<path d="M1274 1435 c-15 -39 30 -62 57 -29 11 14 10 18 -6 30 -25 18 -44 18
-51 -1z"/>
<path d="M1431 1436 c-13 -15 -6 -56 8 -56 4 0 15 8 25 18 15 18 15 20 -2 36
-17 14 -21 15 -31 2z"/>
<path d="M1580 1435 c-10 -12 -10 -18 0 -30 15 -19 21 -19 46 -1 19 15 19 15
-1 30 -25 19 -30 19 -45 1z"/>
<path d="M1724 1435 c-15 -39 29 -62 56 -30 11 13 10 18 -6 30 -25 19 -43 19
-50 0z"/>
<path d="M1882 1438 c-16 -16 -15 -33 4 -48 22 -19 54 12 38 37 -14 22 -27 26
-42 11z"/>
<path d="M2192 1438 c-29 -29 -4 -58 34 -37 23 12 23 14 7 31 -19 21 -25 22
-41 6z"/>
<path d="M2330 1435 c-10 -12 -10 -18 0 -30 16 -19 34 -19 51 1 11 14 10 18
-6 30 -24 18 -30 18 -45 -1z"/>
<path d="M2485 1434 c-15 -15 -15 -18 -1 -33 12 -12 21 -13 33 -5 25 16 27 31
4 43 -15 9 -23 7 -36 -5z"/>
<path d="M2790 1434 c-10 -11 -11 -20 -4 -32 16 -24 31 -25 43 -4 8 15 6 23
-8 36 -17 15 -19 15 -31 0z"/>
<path d="M2934 1435 c-15 -39 29 -62 56 -30 11 13 10 18 -6 30 -25 19 -43 19
-50 0z"/>
<path d="M3092 1438 c-16 -16 -15 -33 4 -48 22 -19 54 12 38 37 -14 22 -27 26
-42 11z"/>
<path d="M3234 1435 c-7 -17 12 -45 31 -45 7 0 19 7 26 16 11 14 10 18 -6 30
-25 18 -44 18 -51 -1z"/>
<path d="M3390 1435 c-10 -12 -10 -18 0 -30 16 -19 34 -19 50 0 11 13 10 18
-6 30 -24 18 -29 18 -44 0z"/>
<path d="M3540 1435 c-10 -12 -10 -18 0 -30 16 -19 34 -19 51 1 11 14 10 18
-6 30 -24 18 -30 18 -45 -1z"/>
<path d="M3694 1435 c-18 -13 -18 -15 -1 -32 13 -13 21 -15 34 -7 25 16 27 31
5 43 -14 7 -24 6 -38 -4z"/>
<path d="M3834 1435 c-7 -17 12 -45 31 -45 7 0 19 7 26 16 11 14 10 18 -6 30
-25 18 -44 18 -51 -1z"/>
<path d="M4001 1436 c-13 -16 -5 -46 13 -46 7 0 21 6 32 14 19 15 19 15 -1 30
-25 19 -30 19 -44 2z"/>
<path d="M4152 1438 c-16 -16 -15 -33 3 -48 12 -10 18 -10 30 0 20 17 19 37
-3 49 -13 7 -23 6 -30 -1z"/>
<path d="M4294 1435 c-15 -39 30 -62 57 -29 11 14 10 18 -6 30 -25 18 -44 18
-51 -1z"/>
<path d="M4450 1435 c-14 -17 -7 -45 12 -45 7 0 22 7 32 15 20 15 20 15 0 30
-24 18 -29 18 -44 0z"/>
<path d="M4656 1364 c-11 -29 -6 -44 13 -44 27 0 34 15 19 40 -15 24 -24 25
-32 4z"/>
<path d="M300 1355 c-19 -22 1 -39 35 -31 26 7 27 8 10 26 -22 24 -29 25 -45
5z"/>
<path d="M364 1235 c-4 -9 0 -24 10 -33 15 -15 18 -15 26 -2 6 8 9 22 7 30 -3
21 -36 25 -43 5z"/>
<path d="M4587 1243 c-24 -23 12 -55 38 -33 12 10 13 16 4 26 -12 15 -31 18
-42 7z"/>
<path d="M440 1125 c-19 -22 5 -48 31 -34 10 5 19 14 19 19 0 5 -9 14 -19 19
-14 8 -22 7 -31 -4z"/>
<path d="M4514 1125 c-4 -8 -1 -22 6 -30 11 -14 15 -14 31 1 14 13 16 20 8 31
-15 17 -38 17 -45 -2z"/>
<path d="M515 1020 c-9 -15 4 -50 20 -50 16 0 29 35 20 50 -3 5 -12 10 -20 10
-8 0 -17 -5 -20 -10z"/>
<path d="M4434 1015 c-4 -9 0 -24 10 -33 15 -15 18 -15 26 -2 6 8 9 22 7 30
-3 21 -36 25 -43 5z"/>
<path d="M594 909 c-3 -6 1 -18 10 -27 15 -15 17 -15 32 0 9 9 13 21 10 27 -9
14 -43 14 -52 0z"/>
<path d="M4350 906 c0 -20 24 -36 39 -26 8 4 11 15 8 24 -8 20 -47 21 -47 2z"/>
<path d="M690 820 c-15 -28 5 -57 26 -39 18 15 18 33 0 48 -12 10 -17 8 -26
-9z"/>
<path d="M4271 826 c-17 -20 -6 -49 16 -44 22 4 26 20 10 42 -12 16 -14 16
-26 2z"/>
<path d="M783 714 c-9 -24 11 -38 37 -24 17 9 19 14 9 26 -15 19 -38 18 -46
-2z"/>
<path d="M4167 716 c-9 -23 18 -39 43 -26 17 9 19 14 9 26 -15 18 -45 18 -52
0z"/>
<path d="M885 630 c-8 -13 3 -50 15 -50 5 0 14 8 19 18 15 27 -18 58 -34 32z"/>
<path d="M4070 621 c0 -27 15 -34 40 -21 17 9 19 14 9 26 -17 21 -49 18 -49
-5z"/>
<path d="M991 551 c-16 -10 -8 -41 11 -41 7 0 19 4 27 9 12 8 12 12 2 25 -15
18 -21 19 -40 7z"/>
<path d="M3963 544 c-10 -26 13 -39 44 -25 27 12 27 13 8 27 -25 18 -44 18
-52 -2z"/>
<path d="M1095 470 c-8 -12 3 -50 14 -50 15 0 33 30 27 45 -6 17 -32 20 -41 5z"/>
<path d="M3854 465 c-4 -9 0 -24 10 -33 15 -15 18 -15 26 -2 6 8 9 22 7 30 -3
21 -36 25 -43 5z"/>
<path d="M1211 406 c-16 -19 -7 -46 14 -46 22 0 30 29 13 46 -13 13 -16 13
-27 0z"/>
<path d="M3751 401 c-19 -12 -6 -41 18 -41 26 0 36 17 21 35 -14 17 -20 18
-39 6z"/>
<path d="M1320 320 c0 -26 25 -36 45 -20 12 10 13 16 4 26 -18 22 -49 17 -49
-6z"/>
<path d="M3630 321 c0 -27 15 -34 40 -21 17 9 19 14 9 26 -17 21 -49 18 -49
-5z"/>
<path d="M3505 273 c-20 -14 -20 -14 0 -29 24 -18 39 -13 43 13 4 26 -18 35
-43 16z"/>
<path d="M1435 270 c-7 -12 12 -50 25 -50 13 0 32 38 25 50 -3 6 -15 10 -25
10 -10 0 -22 -4 -25 -10z"/>
<path d="M1564 219 c-3 -6 1 -18 10 -27 15 -15 17 -15 34 1 15 16 15 19 2 27
-20 13 -37 12 -46 -1z"/>
<path d="M3383 214 c-8 -22 11 -37 36 -29 25 8 28 30 5 39 -25 9 -34 7 -41
-10z"/>
<path d="M1689 174 c-10 -12 -9 -18 4 -31 13 -13 19 -14 31 -3 21 17 20 27 -3
39 -14 8 -22 7 -32 -5z"/>
<path d="M3273 183 c-15 -5 -17 -39 -3 -48 11 -7 50 11 50 23 0 12 -34 29 -47
25z"/>
<path d="M3142 148 c-16 -16 -15 -33 2 -47 21 -18 41 11 26 38 -13 25 -12 25
-28 9z"/>
<path d="M1820 134 c-11 -12 -11 -18 1 -30 13 -12 18 -12 34 0 16 12 17 16 6
30 -17 20 -25 20 -41 0z"/>
<path d="M1950 105 c-9 -11 -11 -22 -4 -32 13 -21 25 -21 38 -1 8 14 7 21 -5
33 -14 15 -17 15 -29 0z"/>
<path d="M3004 95 c-13 -32 23 -48 47 -19 10 13 10 17 -2 25 -21 13 -39 11
-45 -6z"/>
<path d="M2081 81 c-16 -10 -8 -41 11 -41 7 0 19 4 27 9 12 8 12 12 2 25 -15
18 -21 19 -40 7z"/>
<path d="M2877 83 c-12 -11 -8 -40 8 -53 12 -10 17 -7 27 15 10 22 9 28 -3 36
-17 11 -24 11 -32 2z"/>
<path d="M2210 64 c-11 -12 -10 -18 3 -32 21 -21 42 -3 32 27 -8 25 -18 27
-35 5z"/>
<path d="M2347 63 c-11 -10 -8 -41 3 -48 19 -12 41 15 29 36 -10 20 -21 24
-32 12z"/>
<path d="M2741 57 c-8 -10 -7 -19 3 -32 12 -16 16 -17 30 -6 20 17 21 37 0 45
-21 8 -20 8 -33 -7z"/>
<path d="M2474 49 c-9 -15 6 -49 22 -49 8 0 14 4 14 9 0 5 3 16 6 24 6 16 -32
31 -42 16z"/>
<path d="M2612 48 c-8 -8 -9 -15 -1 -25 15 -17 34 -17 48 1 10 12 8 17 -8 25
-24 14 -24 14 -39 -1z"/>
</g>
</svg>
