<?xml version="1.0" standalone="no"?>
<!DOCTYPE svg PUBLIC "-//W3C//DTD SVG 20010904//EN"
 "http://www.w3.org/TR/2001/REC-SVG-20010904/DTD/svg10.dtd">
<svg version="1.0" xmlns="http://www.w3.org/2000/svg"
 width="500.000000pt" height="500.000000pt" viewBox="0 0 500.000000 500.000000"
 preserveAspectRatio="xMidYMid meet">
<metadata>
Created by potrace 1.15, written by Peter Selinger 2001-2017
</metadata>
<g transform="translate(0.000000,500.000000) scale(0.100000,-0.100000)"
fill="#000000" stroke="none">
<path d="M2350 4975 c-9 -11 -9 -18 3 -35 14 -20 14 -20 32 0 15 16 15 22 5
35 -16 19 -24 19 -40 0z"/>
<path d="M2487 4983 c-24 -23 12 -55 38 -33 12 10 13 16 4 26 -12 15 -31 18
-42 7z"/>
<path d="M2621 4976 c-10 -12 -10 -19 2 -36 12 -18 16 -18 26 -6 14 17 11 48
-5 53 -6 2 -17 -3 -23 -11z"/>
<path d="M2220 4965 c-15 -18 -5 -35 20 -35 10 0 22 5 25 10 7 11 -12 40 -25
40 -4 0 -13 -7 -20 -15z"/>
<path d="M2761 4966 c-14 -16 -9 -46 7 -46 21 0 32 26 19 44 -12 16 -14 16
-26 2z"/>
<path d="M2891 4956 c-16 -19 -7 -46 14 -46 22 0 30 29 13 46 -13 13 -16 13
-27 0z"/>
<path d="M2084 4945 c-12 -29 15 -45 45 -26 12 8 12 12 2 25 -17 20 -40 21
-47 1z"/>
<path d="M3022 4928 c-16 -16 -15 -35 1 -41 23 -9 40 8 32 32 -7 24 -16 26
-33 9z"/>
<path d="M1952 4917 c-7 -8 -6 -18 4 -32 15 -19 16 -19 29 -2 24 33 -7 66 -33
34z"/>
<path d="M3151 4896 c-14 -16 -9 -46 7 -46 5 0 15 7 22 16 11 12 11 18 -2 30
-13 13 -16 13 -27 0z"/>
<path d="M1827 4893 c-24 -23 12 -55 38 -33 12 10 13 16 4 26 -12 15 -31 18
-42 7z"/>
<path d="M1695 4849 c-8 -26 6 -42 28 -33 20 7 22 25 5 42 -17 17 -26 15 -33
-9z"/>
<path d="M3273 4844 c-3 -8 1 -22 9 -30 13 -13 16 -13 27 0 7 9 11 23 7 31 -7
20 -35 19 -43 -1z"/>
<path d="M1572 4809 c-15 -24 0 -51 24 -42 18 6 18 37 1 51 -10 8 -16 6 -25
-9z"/>
<path d="M3402 4809 c-12 -18 -12 -24 0 -35 20 -20 42 -2 34 30 -8 32 -17 33
-34 5z"/>
<path d="M3521 4751 c-16 -28 14 -51 36 -28 13 13 14 19 3 31 -17 21 -27 20
-39 -3z"/>
<path d="M1444 4745 c-4 -8 -1 -22 6 -30 11 -14 15 -14 31 1 14 13 16 20 8 31
-15 17 -38 17 -45 -2z"/>
<path d="M3647 4703 c-11 -10 -8 -41 4 -49 6 -3 18 1 27 9 13 13 13 19 2 31
-14 17 -23 20 -33 9z"/>
<path d="M1326 4691 c-8 -13 4 -41 18 -41 6 0 19 7 29 15 18 13 18 14 -2 24
-24 13 -38 14 -45 2z"/>
<path d="M3762 4629 c-21 -33 12 -56 37 -26 8 11 7 18 -7 30 -16 15 -19 15
-30 -4z"/>
<path d="M1213 4629 c-27 -27 13 -51 47 -29 13 8 12 11 -5 24 -24 19 -28 19
-42 5z"/>
<path d="M1094 4549 c-3 -6 1 -18 10 -27 15 -15 17 -15 32 0 19 19 11 38 -16
38 -10 0 -22 -5 -26 -11z"/>
<path d="M3864 4549 c-3 -6 1 -18 10 -27 15 -15 17 -15 32 0 19 19 11 38 -16
38 -10 0 -22 -5 -26 -11z"/>
<path d="M3980 4480 c-13 -25 -5 -40 21 -40 19 0 24 15 13 44 -8 22 -21 20
-34 -4z"/>
<path d="M990 4475 c-23 -28 21 -50 48 -23 9 9 7 14 -6 24 -22 17 -27 17 -42
-1z"/>
<path d="M4092 4408 c-15 -15 -15 -45 -1 -54 6 -3 18 0 26 9 14 13 14 18 1 36
-11 16 -17 18 -26 9z"/>
<path d="M883 4384 c-9 -24 11 -38 37 -24 17 9 19 14 9 26 -15 19 -38 18 -46
-2z"/>
<path d="M787 4303 c-25 -24 11 -49 40 -28 16 13 16 16 3 25 -17 11 -34 13
-43 3z"/>
<path d="M4181 4296 c-18 -21 11 -41 39 -26 17 9 19 14 9 26 -15 18 -33 18
-48 0z"/>
<path d="M4280 4215 c-15 -18 -6 -45 14 -45 20 0 29 16 21 40 -8 24 -18 25
-35 5z"/>
<path d="M697 4213 c-14 -14 -7 -43 11 -43 30 0 44 21 24 36 -20 15 -26 17
-35 7z"/>
<path d="M603 4109 c-15 -15 -5 -39 17 -39 26 0 43 23 28 38 -15 15 -31 15
-45 1z"/>
<path d="M4365 4110 c-7 -11 11 -40 24 -40 3 0 12 4 20 9 12 8 12 12 2 25 -15
18 -37 21 -46 6z"/>
<path d="M1615 4076 c-11 -8 -31 -12 -45 -10 -32 6 -39 0 -80 -61 -18 -27 -59
-82 -89 -121 l-56 -71 -80 5 c-120 7 -349 -15 -462 -43 -92 -24 -101 -28 -140
-72 -48 -53 -48 -46 -2 -183 112 -340 357 -969 393 -1009 34 -37 122 -56 256
-56 107 1 134 4 185 25 78 31 115 67 115 115 0 19 23 136 51 258 66 290 159
756 159 798 0 47 -43 116 -77 123 -67 15 -188 25 -195 18 -16 -16 20 -33 88
-43 101 -14 104 -38 13 -84 -26 -13 -75 -29 -110 -35 -68 -10 -179 -14 -179
-5 0 12 214 260 229 266 9 4 48 10 87 14 l71 7 161 -169 162 -168 40 45 c71
80 72 72 -21 164 -46 45 -144 129 -218 186 -109 85 -140 104 -170 105 -20 1
-43 5 -51 9 -9 3 -24 0 -35 -8z m-19 -85 c1 -35 -2 -41 -33 -58 -32 -17 -123
-122 -221 -255 -27 -37 -50 -58 -62 -58 -11 0 -20 2 -20 5 0 6 157 216 238
318 30 38 64 72 75 77 12 5 22 9 22 9 0 1 1 -17 1 -38z m164 20 c0 -5 -7 -14
-15 -21 -13 -10 -19 -10 -34 4 -18 17 -20 16 -26 -3 -11 -37 -55 -21 -55 20 0
5 29 9 65 9 36 0 65 -4 65 -9z m180 -147 c74 -63 141 -127 149 -141 12 -24 12
-28 -9 -45 -27 -22 -53 -11 -80 35 -11 18 -64 74 -120 126 -55 51 -100 101
-100 111 0 17 8 30 19 30 3 0 67 -52 141 -116z m-636 -82 c4 -7 -58 -96 -106
-151 -20 -23 -22 -24 -152 -17 -72 4 -175 9 -229 11 -54 3 -103 7 -108 10 -17
11 -9 54 14 69 12 8 54 20 92 26 39 7 93 18 122 26 28 8 111 19 185 23 73 4
143 9 155 10 12 0 24 -2 27 -7z m476 -154 c0 -30 -61 -359 -79 -423 -160 -587
-169 -617 -211 -657 -23 -22 -41 -27 -104 -33 -117 -11 -172 0 -262 51 -43 24
-82 50 -86 57 -4 6 -17 41 -29 77 -12 36 -53 144 -91 240 -69 173 -130 342
-125 345 1 1 38 -2 82 -7 124 -13 427 20 607 67 137 35 254 93 232 115 -18 18
-68 27 -103 18 -32 -9 -32 -10 -16 -28 17 -19 17 -20 -8 -29 -174 -66 -619
-123 -727 -92 -24 7 -24 8 15 27 l40 19 -42 3 c-62 5 -86 -11 -77 -51 6 -27 5
-30 -9 -19 -17 14 -113 259 -104 268 3 3 63 -2 134 -10 71 -9 196 -16 279 -16
102 0 154 -4 162 -12 9 -9 16 -7 31 6 13 12 54 22 133 32 62 8 163 25 223 38
133 29 135 29 135 14z"/>
<path d="M1111 3453 c-26 -27 -53 -65 -60 -83 l-11 -34 26 25 c38 34 107 129
100 137 -4 3 -28 -17 -55 -45z"/>
<path d="M1203 3478 c-47 -52 -79 -128 -54 -128 15 0 101 113 101 133 0 24
-22 21 -47 -5z"/>
<path d="M1035 3160 c-48 -77 -75 -100 -75 -62 0 9 14 35 31 55 33 40 30 61
-7 47 -20 -8 -43 -47 -58 -97 -9 -28 24 -63 59 -63 20 0 35 17 81 85 52 81 62
115 32 115 -7 0 -35 -36 -63 -80z"/>
<path d="M520 4005 c-19 -22 5 -48 31 -34 10 5 19 14 19 19 0 5 -9 14 -19 19
-14 8 -22 7 -31 -4z"/>
<path d="M4451 4001 c-16 -28 14 -51 36 -28 13 13 14 19 3 31 -17 21 -27 20
-39 -3z"/>
<path d="M440 3894 c-11 -12 -10 -18 3 -31 15 -15 18 -15 37 2 19 17 19 19 2
31 -22 17 -27 17 -42 -2z"/>
<path d="M4530 3895 c-10 -12 -10 -18 0 -31 12 -13 15 -13 28 0 15 15 10 46
-6 46 -5 0 -15 -7 -22 -15z"/>
<path d="M370 3790 c-15 -28 5 -57 26 -39 18 15 18 33 0 48 -12 10 -17 8 -26
-9z"/>
<path d="M4605 3784 c-14 -15 -15 -19 -2 -32 13 -13 18 -13 36 0 21 15 21 15
2 32 -17 16 -20 16 -36 0z"/>
<path d="M4671 3676 c-16 -19 -7 -46 14 -46 22 0 30 29 13 46 -13 13 -16 13
-27 0z"/>
<path d="M301 3661 c-16 -29 15 -43 49 -21 13 8 12 11 -5 24 -26 20 -32 20
-44 -3z"/>
<path d="M3057 3572 c-19 -20 -7 -42 23 -42 30 0 42 22 23 42 -9 10 -19 18
-23 18 -4 0 -14 -8 -23 -18z"/>
<path d="M2109 3566 c-16 -17 -10 -26 21 -26 17 0 30 -2 30 -5 0 -25 -63 -292
-72 -302 -6 -7 -19 -13 -29 -13 -11 0 -19 -7 -19 -15 0 -13 24 -15 155 -15
173 0 168 -2 181 80 6 37 5 42 -11 39 -10 -2 -22 -20 -29 -39 l-11 -35 -82 -3
c-46 -2 -83 0 -83 3 0 3 7 37 16 76 15 66 17 69 45 69 26 0 29 -4 29 -30 0
-20 5 -30 15 -30 14 0 27 35 41 113 5 32 4 36 -11 31 -9 -4 -21 -17 -26 -30
-6 -18 -16 -24 -40 -24 -31 0 -31 0 -24 43 4 23 13 52 21 65 14 21 22 23 77
20 l62 -3 -1 -37 c-1 -30 2 -38 17 -38 13 0 20 11 26 48 4 26 8 51 8 55 0 11
-294 14 -306 3z"/>
<path d="M241 3546 c-9 -11 -8 -18 5 -30 15 -16 18 -16 36 1 18 16 18 18 2 30
-23 16 -29 16 -43 -1z"/>
<path d="M4730 3544 c-11 -12 -11 -18 1 -29 13 -13 18 -13 37 1 22 15 22 17 5
30 -23 17 -28 17 -43 -2z"/>
<path d="M2866 3501 c-14 -22 -38 -43 -55 -49 -38 -13 -40 -32 -5 -32 18 0 25
-4 21 -14 -14 -35 -39 -187 -34 -200 10 -24 54 -30 82 -12 34 22 31 37 -6 29
-28 -5 -30 -4 -25 18 8 30 36 169 36 173 0 2 14 6 30 10 36 7 40 26 5 26 -23
0 -24 2 -18 45 3 25 3 45 -1 45 -3 0 -17 -17 -30 -39z"/>
<path d="M2582 3460 c-40 -9 -99 -63 -118 -107 -29 -67 -8 -157 40 -169 27 -6
84 19 93 42 8 20 23 17 23 -5 0 -30 27 -46 58 -35 33 12 44 45 13 37 -13 -3
-21 -1 -21 7 0 10 33 147 46 192 8 29 -74 51 -134 38z m66 -36 c19 -33 -17
-144 -56 -174 -70 -56 -109 15 -63 116 30 65 97 98 119 58z"/>
<path d="M3330 3452 c-18 -8 -43 -33 -57 -54 -14 -21 -28 -37 -29 -35 -2 2 0
25 5 51 l9 48 -47 -7 c-25 -4 -49 -9 -54 -12 -13 -8 3 -22 18 -16 13 4 18 -5
17 -27 0 -7 -32 -161 -39 -187 -4 -20 -1 -23 21 -23 28 0 31 4 40 62 11 64 92
168 131 168 10 0 5 -58 -12 -128 -12 -53 -14 -78 -6 -90 15 -25 46 -26 74 -3
l24 20 -26 1 c-29 0 -29 1 3 135 23 94 -4 130 -72 97z"/>
<path d="M3597 3455 c-78 -27 -120 -89 -120 -174 0 -47 4 -58 27 -78 35 -30
57 -29 96 3 17 15 33 25 35 23 2 -3 -1 -26 -7 -52 -12 -56 -40 -80 -90 -75
-25 2 -34 8 -36 26 -2 12 -7 22 -11 22 -15 0 -33 -29 -29 -47 7 -37 146 -36
187 1 21 19 32 54 64 202 16 72 21 117 15 127 -5 9 -25 21 -46 27 -44 12 -38
12 -85 -5z m67 -21 c20 -8 20 -36 1 -100 -17 -59 -62 -107 -95 -102 -36 5 -41
37 -16 112 29 84 60 109 110 90z"/>
<path d="M3011 3451 c-14 -4 -27 -13 -29 -20 -3 -9 2 -11 17 -6 27 8 27 4 -3
-115 -13 -52 -21 -101 -19 -108 9 -22 51 -25 81 -6 l27 19 -28 3 c-21 3 -27 8
-23 20 3 9 14 55 26 102 12 47 23 93 26 103 4 13 0 17 -23 16 -15 -1 -39 -4
-52 -8z"/>
<path d="M4786 3431 c-16 -17 -16 -20 0 -35 23 -24 48 -3 32 28 -6 11 -12 22
-13 24 -1 1 -9 -6 -19 -17z"/>
<path d="M190 3425 c-19 -22 5 -48 31 -34 10 5 19 14 19 19 0 5 -9 14 -19 19
-14 8 -22 7 -31 -4z"/>
<path d="M146 3304 c-11 -29 -6 -44 14 -44 25 0 36 25 20 45 -16 19 -26 19
-34 -1z"/>
<path d="M4830 3295 c-22 -26 7 -46 39 -26 12 8 12 12 2 25 -17 20 -25 20 -41
1z"/>
<path d="M101 3172 c-7 -13 -6 -23 1 -30 28 -28 63 3 38 33 -16 20 -27 19 -39
-3z"/>
<path d="M4870 3165 c-22 -26 7 -46 39 -26 12 8 12 12 2 25 -17 20 -25 20 -41
1z"/>
<path d="M80 3045 c-15 -18 -7 -45 13 -45 8 0 20 6 26 13 8 11 6 18 -8 31 -16
15 -20 15 -31 1z"/>
<path d="M4900 3035 c-11 -13 -11 -19 4 -33 15 -15 18 -15 26 -2 22 33 -6 64
-30 35z"/>
<path d="M3775 2948 c-33 -15 -66 -28 -72 -28 -7 0 -20 -11 -29 -25 -14 -21
-16 -43 -11 -123 7 -121 15 -144 92 -262 110 -168 127 -214 126 -355 0 -108
-15 -180 -78 -370 -52 -160 -86 -231 -154 -330 -69 -100 -125 -151 -194 -178
-52 -20 -60 -27 -66 -55 -7 -36 -1 -48 15 -28 6 7 31 20 56 29 132 49 301 261
412 519 71 165 113 364 107 509 -4 80 -7 88 -52 164 -27 44 -75 112 -108 150
-75 87 -109 153 -116 221 -6 58 6 84 38 84 13 0 20 -13 29 -52 17 -84 65 -140
155 -182 41 -20 109 -52 149 -71 160 -76 256 -252 306 -560 l23 -140 -22 -115
c-54 -280 -131 -420 -289 -523 -98 -64 -172 -93 -338 -132 -82 -20 -156 -40
-164 -45 -32 -21 13 -31 115 -27 82 3 120 10 212 41 130 43 194 86 292 196
215 242 274 468 227 867 -9 73 -25 161 -37 195 -25 77 -100 201 -137 226 -15
11 -92 49 -172 86 -182 84 -209 98 -223 114 -6 8 -15 62 -21 121 l-11 108 -60
-29z"/>
<path d="M3115 2925 c-5 -2 -22 -6 -37 -9 -35 -8 -37 -26 -3 -26 22 0 25 -3
19 -27 -14 -63 -12 -61 -54 -56 -102 14 -204 -120 -170 -222 20 -60 64 -71
124 -30 37 25 38 25 43 5 5 -18 12 -21 46 -18 23 2 42 9 45 16 3 9 -3 13 -19
10 -17 -2 -23 2 -22 12 3 19 62 297 70 328 5 21 -10 28 -42 17z m-60 -149 c18
-13 19 -19 8 -70 -14 -68 -43 -110 -83 -124 -23 -9 -33 -8 -45 4 -19 19 -19
19 5 97 13 43 30 73 47 86 30 25 43 26 68 7z"/>
<path d="M45 2910 c-8 -12 3 -50 14 -50 15 0 33 30 27 45 -6 17 -32 20 -41 5z"/>
<path d="M4927 2913 c-4 -3 -7 -15 -7 -25 0 -21 32 -25 49 -5 17 22 -22 50
-42 30z"/>
<path d="M2315 2796 c-65 -28 -112 -115 -102 -188 11 -81 69 -102 131 -48 l35
31 3 -28 c2 -22 9 -29 31 -31 28 -3 57 12 57 30 0 6 -11 7 -24 4 l-24 -6 22
88 c13 48 26 97 30 110 6 19 2 25 -28 37 -43 18 -91 19 -131 1z m94 -24 c13
-24 -5 -103 -33 -144 -29 -43 -71 -65 -93 -47 -23 20 -13 108 18 153 37 54 89
73 108 38z"/>
<path d="M2678 2760 l-48 -49 7 45 6 45 -43 -3 c-40 -3 -72 -28 -36 -28 10 0
16 -9 16 -24 0 -23 -24 -151 -36 -188 -4 -14 1 -18 24 -18 27 0 30 4 35 39 9
73 80 181 118 181 24 0 25 -30 3 -126 -10 -39 -14 -79 -11 -88 8 -21 60 -21
81 0 22 22 20 27 -9 20 -30 -8 -30 -8 -5 85 32 120 25 159 -29 159 -17 0 -40
-16 -73 -50z"/>
<path d="M4946 2784 c-10 -26 -7 -44 8 -44 24 0 36 23 22 43 -16 21 -22 21
-30 1z"/>
<path d="M30 2775 c-15 -18 -5 -35 20 -35 10 0 22 5 25 10 7 11 -12 40 -25 40
-4 0 -13 -7 -20 -15z"/>
<path d="M19 2644 c-10 -12 -9 -18 3 -31 14 -14 19 -14 37 -1 17 12 19 17 9
25 -27 21 -36 22 -49 7z"/>
<path d="M4950 2631 c0 -24 13 -33 35 -25 23 9 14 38 -13 42 -16 3 -22 -2 -22
-17z"/>
<path d="M4961 2516 c-16 -19 -7 -46 14 -46 22 0 30 29 13 46 -13 13 -16 13
-27 0z"/>
<path d="M13 2513 c-20 -8 -15 -31 8 -38 25 -8 44 7 36 29 -6 16 -21 19 -44 9z"/>
<path d="M20 2380 c-14 -26 0 -46 24 -37 20 8 21 31 2 46 -12 10 -17 8 -26 -9z"/>
<path d="M4954 2374 c-8 -33 6 -48 30 -31 16 12 17 16 5 35 -18 29 -27 28 -35
-4z"/>
<path d="M2090 2265 c-7 -8 -10 -22 -6 -30 7 -19 40 -19 56 0 11 13 10 18 -6
30 -24 18 -29 18 -44 0z"/>
<path d="M2932 2268 c-30 -30 0 -59 38 -38 21 11 21 12 4 31 -20 22 -26 23
-42 7z"/>
<path d="M1361 2262 c-34 -10 -39 -32 -7 -32 13 0 27 -4 30 -8 6 -11 -54 -284
-67 -299 -5 -7 -18 -13 -28 -13 -11 0 -19 -7 -19 -15 0 -12 18 -15 106 -15
134 0 183 12 238 61 57 50 80 109 74 184 -5 59 -28 94 -81 121 -31 17 -208 28
-246 16z m198 -38 c50 -20 66 -55 58 -134 -9 -105 -66 -167 -162 -177 -44 -5
-56 -3 -61 10 -8 21 44 265 62 295 17 26 48 28 103 6z"/>
<path d="M2557 2263 c-12 -11 -8 -23 8 -23 21 0 19 -22 -15 -187 -36 -174 -36
-175 -8 -171 17 2 25 13 33 44 10 41 30 74 45 74 4 0 15 -18 25 -40 10 -23 29
-52 41 -65 20 -21 26 -23 52 -14 38 13 53 42 17 33 -21 -5 -27 1 -54 55 -17
33 -31 63 -31 65 0 3 25 24 55 47 79 59 71 87 -15 54 -33 -13 -34 -14 -12 -21
20 -6 18 -10 -35 -50 -35 -25 -59 -38 -61 -31 -1 7 8 63 22 125 l24 112 -42 0
c-24 0 -46 -3 -49 -7z"/>
<path d="M24 2239 c-3 -6 1 -18 10 -27 15 -15 17 -15 32 0 19 19 11 38 -16 38
-10 0 -22 -5 -26 -11z"/>
<path d="M4940 2231 c0 -27 15 -34 40 -21 17 9 19 14 9 26 -17 21 -49 18 -49
-5z"/>
<path d="M2375 2151 c-23 -10 -85 -70 -85 -83 0 -4 -4 -8 -9 -8 -5 0 -5 16 0
38 5 20 9 40 9 45 0 8 -62 10 -84 1 -20 -8 -21 -24 -2 -24 26 0 27 -17 6 -111
-26 -120 -26 -131 1 -127 17 2 26 17 40 64 21 69 52 118 92 148 21 16 30 17
39 8 10 -10 8 -31 -10 -100 -28 -109 -28 -110 4 -123 20 -7 32 -6 50 6 29 19
31 35 4 28 -25 -7 -25 0 2 116 l21 94 -23 19 c-25 20 -26 20 -55 9z"/>
<path d="M3201 2143 c-18 -9 -47 -35 -63 -57 l-29 -41 7 53 7 52 -31 0 c-36 0
-62 -9 -62 -21 0 -5 7 -9 15 -9 20 0 19 -35 -5 -144 -11 -50 -20 -92 -20 -94
0 -2 12 -2 27 0 24 3 29 9 35 45 12 74 71 165 116 178 20 6 22 3 22 -27 0 -18
-7 -58 -15 -88 -20 -74 -19 -97 5 -110 15 -8 27 -8 47 2 36 18 41 37 8 31 -30
-6 -30 -8 -5 87 25 97 26 136 1 150 -24 12 -19 13 -60 -7z"/>
<path d="M3464 2149 c-42 -12 -100 -78 -114 -129 -31 -115 47 -183 129 -114
34 28 37 22 20 -39 -21 -77 -88 -103 -127 -50 -23 31 -42 24 -42 -18 l0 -29
70 0 c81 0 120 16 138 55 10 21 72 281 72 300 0 20 -102 38 -146 24z m81 -75
c-9 -65 -30 -108 -65 -137 -35 -30 -55 -26 -75 13 -13 26 -12 33 16 95 23 52
37 69 62 80 50 21 71 5 62 -51z"/>
<path d="M1768 2143 c-22 -5 -24 -23 -3 -23 20 0 19 -35 -5 -140 -24 -104 -24
-100 -2 -100 24 0 42 19 42 45 0 32 44 116 79 155 l33 34 17 -23 c20 -26 35
-15 43 32 5 25 3 27 -28 27 -23 0 -40 -7 -53 -22 -11 -13 -29 -34 -41 -48
l-21 -25 6 30 c3 17 8 38 11 48 4 14 -1 17 -28 16 -18 -1 -41 -3 -50 -6z"/>
<path d="M2045 2142 c-30 -6 -43 -22 -17 -22 28 0 28 -11 0 -128 -24 -100 -21
-114 26 -114 25 0 56 17 56 32 0 4 -11 5 -24 3 l-24 -5 29 113 c16 63 29 117
29 120 0 6 -41 7 -75 1z"/>
<path d="M2868 2143 c-24 -6 -23 -23 2 -23 25 0 25 -6 0 -100 -27 -101 -26
-128 3 -135 26 -7 77 10 77 25 0 6 -10 8 -25 4 -14 -3 -25 -2 -25 2 0 5 13 60
29 122 l29 112 -37 -1 c-20 -1 -44 -3 -53 -6z"/>
<path d="M51 2116 c-16 -19 -7 -46 14 -46 22 0 30 29 13 46 -13 13 -16 13 -27
0z"/>
<path d="M4927 2113 c-24 -23 12 -55 38 -33 12 10 13 16 4 26 -12 15 -31 18
-42 7z"/>
<path d="M72 1978 c-8 -8 -9 -15 -1 -25 15 -17 34 -17 48 1 10 12 8 17 -8 25
-24 14 -24 14 -39 -1z"/>
<path d="M4896 1977 c-16 -12 -16 -14 -2 -26 20 -17 49 -6 44 16 -4 22 -20 26
-42 10z"/>
<path d="M4217 1960 c-3 -8 -9 -56 -15 -107 -8 -66 -21 -115 -46 -175 -36 -83
-25 -82 19 2 52 101 80 241 55 280 -8 13 -9 13 -13 0z"/>
<path d="M105 1849 c-8 -26 6 -42 28 -33 20 7 22 25 5 42 -17 17 -26 15 -33
-9z"/>
<path d="M4873 1853 c-17 -6 -16 -25 1 -48 13 -18 14 -18 26 4 10 19 9 26 -2
36 -7 7 -19 11 -25 8z"/>
<path d="M147 1723 c-24 -23 12 -55 38 -33 12 10 13 16 4 26 -12 15 -31 18
-42 7z"/>
<path d="M4830 1715 c-22 -26 7 -46 39 -26 12 8 12 12 2 25 -17 20 -25 20 -41
1z"/>
<path d="M189 1594 c-15 -18 0 -38 27 -32 25 5 28 25 6 37 -15 8 -23 7 -33 -5z"/>
<path d="M4787 1599 c-22 -13 -22 -26 1 -38 12 -6 23 -5 35 3 16 12 16 14 -1
29 -12 11 -22 13 -35 6z"/>
<path d="M237 1466 c-6 -15 11 -36 29 -36 21 0 35 25 22 38 -16 16 -45 15 -51
-2z"/>
<path d="M4723 1464 c-3 -8 1 -22 9 -30 13 -13 16 -13 27 0 7 9 11 23 7 31 -7
20 -35 19 -43 -1z"/>
<path d="M301 1346 c-18 -21 11 -41 39 -26 17 9 19 14 9 26 -15 18 -33 18 -48
0z"/>
<path d="M4664 1345 c-13 -32 23 -48 47 -19 10 13 10 17 -2 25 -21 13 -39 11
-45 -6z"/>
<path d="M370 1234 c-11 -12 -11 -18 1 -30 13 -12 18 -12 34 0 16 12 17 16 6
30 -17 20 -25 20 -41 0z"/>
<path d="M4601 1236 c-9 -11 -8 -18 5 -30 15 -16 18 -16 35 0 18 16 18 18 1
30 -22 17 -27 17 -41 0z"/>
<path d="M3437 1139 c-43 -38 -57 -57 -57 -78 0 -31 18 -58 40 -62 30 -5 91
14 100 30 10 19 -7 161 -19 161 -4 0 -33 -23 -64 -51z"/>
<path d="M440 1125 c-11 -13 -11 -19 3 -33 20 -19 41 -5 35 24 -4 24 -22 28
-38 9z"/>
<path d="M4526 1114 c-4 -10 0 -24 9 -33 14 -14 17 -14 25 -1 6 8 9 22 7 30
-3 21 -33 24 -41 4z"/>
<path d="M520 1015 c-9 -11 -11 -22 -4 -32 13 -21 25 -21 38 -1 8 14 7 21 -5
33 -14 15 -17 15 -29 0z"/>
<path d="M4457 1012 c-14 -15 -15 -21 -4 -36 12 -16 14 -16 30 2 14 15 15 21
4 36 -12 16 -14 16 -30 -2z"/>
<path d="M601 911 c-16 -28 14 -51 36 -28 13 13 14 19 3 31 -17 21 -27 20 -39
-3z"/>
<path d="M4365 910 c-7 -11 11 -40 24 -40 3 0 12 4 20 9 12 8 12 12 2 25 -15
18 -37 21 -46 6z"/>
<path d="M697 823 c-11 -10 -8 -41 4 -49 6 -3 18 1 27 9 13 13 13 19 2 31 -14
17 -23 20 -33 9z"/>
<path d="M4273 804 c-3 -8 1 -22 9 -30 13 -13 16 -13 27 0 7 9 11 23 7 31 -7
20 -35 19 -43 -1z"/>
<path d="M790 720 c-14 -26 0 -46 24 -37 20 8 21 31 2 46 -12 10 -17 8 -26 -9z"/>
<path d="M4191 726 c-17 -20 -6 -49 16 -44 22 4 26 20 10 42 -12 16 -14 16
-26 2z"/>
<path d="M883 624 c-3 -8 1 -22 9 -30 12 -12 16 -12 33 1 20 15 20 15 1 30
-25 19 -35 19 -43 -1z"/>
<path d="M4084 625 c-8 -20 4 -35 26 -35 28 0 36 21 15 37 -24 17 -34 17 -41
-2z"/>
<path d="M987 536 c-9 -23 18 -39 43 -26 17 9 19 14 9 26 -15 18 -45 18 -52 0z"/>
<path d="M3975 540 c-9 -14 14 -52 28 -47 7 2 13 16 15 30 3 21 -1 27 -17 27
-11 0 -23 -4 -26 -10z"/>
<path d="M1100 471 c-10 -19 -9 -26 4 -39 14 -15 18 -15 31 -1 14 14 14 18 -3
39 l-19 24 -13 -23z"/>
<path d="M3876 464 c-16 -15 -16 -18 -2 -33 15 -14 18 -14 33 2 16 15 16 18 2
33 -15 14 -18 14 -33 -2z"/>
<path d="M1207 386 c-9 -23 18 -39 43 -26 17 9 19 14 9 26 -15 18 -45 18 -52
0z"/>
<path d="M3757 386 c-9 -23 18 -39 43 -26 17 9 19 14 9 26 -15 18 -45 18 -52
0z"/>
<path d="M3646 334 c-11 -29 -6 -44 13 -44 27 0 34 15 19 40 -15 24 -24 25
-32 4z"/>
<path d="M1331 326 c-19 -22 4 -62 25 -45 17 14 15 50 -2 56 -6 2 -16 -3 -23
-11z"/>
<path d="M1452 278 c-15 -15 -15 -31 -1 -45 15 -15 39 -5 39 17 0 26 -23 43
-38 28z"/>
<path d="M3524 273 c-14 -23 -7 -43 16 -43 23 0 31 21 15 43 -15 21 -18 21
-31 0z"/>
<path d="M1573 204 c-9 -24 11 -38 37 -24 17 9 19 14 9 26 -15 19 -38 18 -46
-2z"/>
<path d="M3394 208 c-4 -6 1 -17 11 -24 23 -17 60 3 43 23 -13 16 -44 17 -54
1z"/>
<path d="M1695 169 c-4 -13 -2 -27 7 -36 13 -12 16 -12 27 1 9 11 10 20 1 35
-14 27 -27 27 -35 0z"/>
<path d="M3277 173 c-11 -10 -8 -41 4 -49 6 -3 18 1 27 9 13 13 13 19 2 31
-14 17 -23 20 -33 9z"/>
<path d="M1824 133 c-14 -24 -7 -43 16 -43 25 0 33 15 20 40 -13 25 -22 25
-36 3z"/>
<path d="M3151 136 c-16 -19 -7 -46 14 -46 22 0 30 29 13 46 -13 13 -16 13
-27 0z"/>
<path d="M1953 94 c-3 -8 1 -22 8 -29 12 -12 17 -11 34 1 20 15 20 15 1 30
-25 18 -35 18 -43 -2z"/>
<path d="M3020 95 c-19 -22 5 -48 31 -34 10 5 19 14 19 19 0 5 -9 14 -19 19
-14 8 -22 7 -31 -4z"/>
<path d="M2084 65 c-8 -20 3 -48 18 -43 6 2 16 12 22 21 8 13 7 20 -4 27 -21
14 -30 12 -36 -5z"/>
<path d="M2884 65 c-13 -32 23 -48 47 -19 10 13 10 17 -2 25 -21 13 -39 11
-45 -6z"/>
<path d="M2213 44 c-3 -8 1 -22 9 -30 13 -13 16 -13 27 0 7 9 11 23 7 31 -7
20 -35 19 -43 -1z"/>
<path d="M2751 46 c-18 -21 11 -41 39 -26 17 9 19 14 9 26 -15 18 -33 18 -48
0z"/>
<path d="M2353 39 c-15 -15 -5 -39 17 -39 22 0 32 24 17 39 -6 6 -14 11 -17
11 -3 0 -11 -5 -17 -11z"/>
<path d="M2484 35 c-7 -18 3 -35 20 -35 14 0 28 35 18 44 -10 11 -33 6 -38 -9z"/>
<path d="M2614 39 c-3 -6 0 -18 9 -26 12 -12 18 -13 35 -2 16 10 18 16 10 26
-13 16 -44 17 -54 2z"/>
</g>
</svg>
