<?xml version="1.0" standalone="no"?>
<!DOCTYPE svg PUBLIC "-//W3C//DTD SVG 20010904//EN"
 "http://www.w3.org/TR/2001/REC-SVG-20010904/DTD/svg10.dtd">
<svg version="1.0" xmlns="http://www.w3.org/2000/svg"
 width="500.000000pt" height="500.000000pt" viewBox="0 0 500.000000 500.000000"
 preserveAspectRatio="xMidYMid meet">
<metadata>
Created by potrace 1.15, written by Peter Selinger 2001-2017
</metadata>
<g transform="translate(0.000000,500.000000) scale(0.100000,-0.100000)"
fill="#000000" stroke="none">
<path d="M2352 4988 c-15 -15 -15 -45 -1 -54 6 -3 18 0 26 9 14 13 14 18 1 36
-11 16 -17 18 -26 9z"/>
<path d="M2479 4974 c-10 -12 -9 -18 4 -31 13 -13 19 -14 31 -3 21 17 20 27
-3 39 -14 8 -22 7 -32 -5z"/>
<path d="M2610 4974 c-11 -12 -10 -18 3 -31 22 -23 52 0 36 28 -12 23 -22 24
-39 3z"/>
<path d="M2749 4966 c-14 -31 -2 -50 24 -40 21 8 21 23 2 48 -14 18 -15 18
-26 -8z"/>
<path d="M2217 4973 c-11 -10 -8 -41 4 -49 17 -10 32 12 24 35 -6 21 -16 26
-28 14z"/>
<path d="M2077 4937 c-3 -8 -1 -20 4 -28 10 -17 44 0 44 22 0 19 -41 24 -48 6z"/>
<path d="M2876 4941 c-9 -14 4 -41 19 -41 7 0 18 7 26 16 10 13 10 17 -2 25
-18 11 -36 11 -43 0z"/>
<path d="M1951 4921 c-14 -9 -7 -51 8 -51 15 0 33 30 27 45 -6 17 -15 19 -35
6z"/>
<path d="M3010 4915 c-22 -26 7 -46 39 -26 12 8 12 12 2 25 -17 20 -25 20 -41
1z"/>
<path d="M1820 4885 c-19 -22 5 -48 31 -34 10 5 19 14 19 19 0 5 -9 14 -19 19
-14 8 -22 7 -31 -4z"/>
<path d="M3140 4885 c-19 -22 5 -48 31 -34 10 5 19 14 19 19 0 5 -9 14 -19 19
-14 8 -22 7 -31 -4z"/>
<path d="M1690 4845 c-23 -28 21 -50 48 -23 9 9 7 14 -6 24 -22 17 -27 17 -42
-1z"/>
<path d="M3269 4844 c-16 -20 2 -38 30 -29 26 8 27 21 2 34 -14 8 -22 7 -32
-5z"/>
<path d="M1564 4795 c-12 -29 15 -45 45 -26 12 8 12 12 2 25 -17 20 -40 21
-47 1z"/>
<path d="M3386 4801 c-8 -12 4 -41 16 -41 5 0 19 5 30 11 21 11 21 12 3 25
-22 16 -41 18 -49 5z"/>
<path d="M1440 4745 c-9 -11 -9 -18 3 -35 14 -20 14 -20 32 0 15 16 15 22 5
35 -16 19 -24 19 -40 0z"/>
<path d="M3510 4744 c-11 -12 -10 -18 4 -32 16 -16 18 -16 31 2 11 14 12 23 4
33 -15 17 -24 16 -39 -3z"/>
<path d="M1321 4687 c-8 -10 -7 -19 4 -33 13 -18 15 -18 31 -2 14 14 15 20 4
32 -15 19 -24 20 -39 3z"/>
<path d="M3631 4687 c-8 -10 -7 -19 4 -33 13 -18 15 -18 31 -2 14 14 15 20 4
32 -15 19 -24 20 -39 3z"/>
<path d="M1204 4615 c-13 -32 23 -48 47 -19 10 13 10 17 -2 25 -21 13 -39 11
-45 -6z"/>
<path d="M3743 4614 c-3 -8 1 -22 9 -30 13 -13 16 -13 27 0 7 9 11 23 7 31 -7
20 -35 19 -43 -1z"/>
<path d="M1093 4544 c-3 -8 1 -22 9 -30 13 -13 16 -13 28 0 10 13 10 19 0 31
-16 19 -29 19 -37 -1z"/>
<path d="M3854 4545 c-4 -9 0 -24 10 -33 15 -15 18 -15 26 -2 6 8 9 22 7 30
-3 21 -36 25 -43 5z"/>
<path d="M3969 4477 c-14 -31 -1 -54 25 -44 20 8 20 27 2 52 -14 19 -15 19
-27 -8z"/>
<path d="M983 4464 c-3 -8 1 -22 9 -30 13 -13 16 -13 27 0 7 9 11 23 7 31 -7
20 -35 19 -43 -1z"/>
<path d="M884 4385 c-12 -31 23 -48 45 -21 10 12 8 17 -8 25 -26 14 -31 14
-37 -4z"/>
<path d="M3964 4193 c0 -148 -5 -238 -18 -313 -155 -938 -186 -1187 -161
-1300 7 -31 2 -28 -76 52 -93 95 -147 133 -255 178 -103 43 -189 58 -369 66
l-157 7 -104 -54 c-92 -47 -107 -58 -122 -92 -14 -32 -28 -45 -77 -68 -34 -16
-73 -42 -89 -58 l-28 -29 -66 19 c-37 10 -89 30 -116 44 -76 38 -133 31 -191
-25 -16 -16 -55 -40 -85 -53 -77 -34 -170 -107 -220 -173 -24 -30 -60 -69 -79
-85 l-36 -30 39 7 39 7 -22 -32 c-13 -18 -41 -43 -62 -57 -21 -13 -39 -25 -39
-27 0 -1 25 0 55 1 30 2 55 1 55 -3 0 -21 -25 -45 -57 -57 l-38 -13 55 -5 c53
-6 54 -6 28 -18 -43 -18 -33 -24 31 -16 54 6 59 5 66 -14 6 -22 131 -142 146
-142 5 0 9 -5 9 -10 0 -27 -195 53 -305 125 -105 69 -130 111 -122 199 3 33
18 106 32 161 50 198 27 251 -118 270 -39 5 -57 15 -106 61 -59 54 -85 64
-122 43 -17 -9 -27 -4 -64 30 -25 23 -50 41 -57 41 -7 0 -37 -11 -66 -25 -30
-14 -59 -22 -64 -19 -6 4 -19 25 -29 48 -31 71 -83 105 -131 87 -13 -5 -56
-33 -94 -62 -89 -67 -240 -141 -302 -147 -37 -3 -56 1 -82 17 -41 24 -79 26
-143 7 -47 -14 -111 -59 -100 -69 3 -4 27 5 53 18 57 29 116 40 149 28 22 -9
21 -10 -18 -22 -47 -14 -55 -30 -12 -23 19 3 30 -1 34 -12 5 -12 0 -16 -19
-16 -14 0 -23 -4 -19 -10 4 -6 10 -8 14 -5 5 2 15 -1 24 -8 11 -8 19 -43 27
-109 6 -54 16 -112 21 -130 11 -41 12 -88 0 -88 -16 0 -83 -31 -78 -36 3 -3
21 -1 40 4 49 14 65 1 42 -34 -15 -23 -15 -26 -2 -21 9 3 27 -3 40 -14 l25
-19 -5 43 c-3 23 -13 93 -24 156 -23 138 -23 212 -1 270 16 42 21 46 83 66 87
30 195 84 297 151 47 30 91 54 100 52 9 -2 26 -19 39 -38 80 -126 95 -135 166
-101 55 27 68 26 95 -2 30 -32 28 -50 -13 -124 -46 -83 -30 -81 19 3 67 114
82 118 161 43 49 -46 58 -51 112 -55 32 -3 67 -7 79 -9 51 -10 58 -124 18
-285 -31 -125 -34 -193 -11 -236 22 -42 124 -119 213 -160 127 -59 235 -86
374 -91 143 -6 224 9 298 55 24 15 55 34 68 42 22 14 27 13 52 -2 60 -39 118
-61 157 -60 268 3 336 16 408 73 37 30 39 30 109 21 87 -11 155 -1 219 33 27
14 50 25 52 25 2 0 9 -82 16 -182 15 -216 25 -276 58 -341 13 -27 22 -51 20
-53 -6 -6 -393 106 -527 151 -58 20 -141 45 -185 56 -100 24 -269 37 -279 20
-5 -8 11 -11 56 -11 48 0 120 -17 308 -70 135 -39 335 -94 445 -122 110 -28
221 -60 246 -73 78 -37 82 -36 36 9 -97 93 -143 234 -157 472 -10 167 -25 260
-60 366 -37 111 -99 227 -148 278 -43 44 -52 49 -107 55 -103 11 -156 24 -234
59 -42 19 -105 43 -141 55 -133 44 -121 58 52 63 74 2 132 8 138 14 8 8 -5 8
-47 3 -58 -9 -136 -3 -162 11 -11 6 -3 14 30 31 39 22 56 24 164 23 104 0 139
-5 263 -36 168 -43 253 -80 318 -140 60 -55 146 -168 214 -283 30 -49 98 -158
151 -241 167 -259 196 -333 225 -579 18 -153 37 -231 70 -296 27 -54 29 -76
11 -100 -13 -16 -283 -197 -332 -222 -112 -56 -350 -98 -595 -104 -229 -6
-291 4 -430 67 -136 61 -195 68 -403 47 -94 -10 -209 -17 -255 -17 -140 0
-275 40 -379 111 -106 73 -196 177 -162 188 8 2 28 19 46 38 69 73 52 228 -30
257 -55 20 -115 -36 -104 -96 4 -20 4 -20 6 5 2 43 19 67 47 67 43 0 63 -18
79 -72 31 -105 11 -168 -54 -168 -24 0 -37 -11 -80 -70 -38 -52 -78 -90 -161
-151 -60 -44 -110 -83 -110 -85 0 -12 202 135 243 177 l47 50 96 -81 c198
-168 307 -210 540 -210 57 0 104 -4 104 -9 0 -25 -169 -144 -312 -221 -96 -51
-122 -69 -74 -50 30 11 142 68 216 110 32 18 45 23 32 11 -18 -16 -293 -169
-437 -245 -44 -23 -24 -19 50 9 145 54 418 218 549 329 86 73 99 77 242 74
l126 -3 -80 -100 c-89 -112 -167 -184 -322 -300 -158 -118 -161 -126 -10 -24
115 76 226 166 329 263 82 78 84 79 51 31 -49 -71 -193 -210 -286 -276 -72
-52 -175 -113 -359 -214 -38 -21 -64 -40 -57 -43 13 -4 266 133 372 203 133
87 358 310 419 417 22 39 31 40 97 13 161 -65 390 -83 639 -50 157 20 374 74
447 111 64 32 228 155 269 201 42 49 44 69 10 145 -32 69 -93 345 -105 472 -4
43 -16 87 -33 120 -38 76 -148 268 -211 371 -30 50 -66 114 -79 143 -58 131
-108 549 -70 580 14 12 17 10 22 -15 18 -82 99 -292 110 -281 2 2 -10 42 -26
88 -44 123 -58 205 -65 386 -7 170 -3 214 21 214 8 0 15 -2 15 -5 0 -26 33
-238 42 -265 34 -110 161 -370 175 -357 2 3 -16 45 -40 93 -87 177 -111 257
-132 447 -21 192 -19 283 10 456 35 216 40 286 25 396 -8 63 -9 100 -3 106 16
16 33 -13 43 -73 4 -30 29 -110 55 -179 48 -127 144 -333 152 -325 3 2 -30 91
-72 197 -50 126 -89 242 -112 338 -38 159 -51 194 -73 199 -13 2 -15 -28 -16
-205z m-1187 -1470 c2 -6 -10 -13 -27 -15 -33 -5 -40 5 -12 21 20 12 34 10 39
-6z m181 -69 c73 -36 232 -187 232 -220 0 -13 -16 -42 -35 -63 -43 -47 -110
-74 -166 -65 -25 4 -44 2 -54 -6 -9 -7 -26 -9 -45 -5 -47 10 -62 -8 -54 -63 5
-35 4 -44 -7 -40 -8 3 -21 18 -29 34 -8 16 -16 31 -18 34 -2 2 -7 -2 -12 -10
-5 -8 -3 -24 6 -42 19 -36 3 -36 -32 0 -25 26 -26 26 -19 3 12 -39 -12 -15
-25 25 -19 56 0 103 54 142 56 40 94 48 159 32 29 -6 63 -10 77 -8 22 3 21 5
-15 17 -57 19 -60 25 -35 61 12 17 20 33 17 36 -3 3 -22 -2 -42 -10 -50 -21
-78 -20 -126 5 -23 11 -43 18 -47 15 -8 -8 27 -44 49 -51 29 -9 23 -23 -18
-44 -54 -28 -103 -82 -109 -122 -5 -30 4 -64 40 -150 5 -11 -4 -24 -30 -44
-35 -27 -38 -27 -50 -10 -10 13 -12 38 -7 89 5 64 2 83 -31 183 -46 143 -47
180 -5 221 91 89 259 114 377 56z m-648 -23 c0 -5 -7 -12 -16 -15 -8 -3 -12
-10 -9 -16 4 -6 11 -8 16 -5 19 12 123 -15 157 -41 34 -26 92 -131 92 -166 0
-10 9 -41 20 -70 17 -46 18 -66 11 -158 -11 -158 -36 -195 -160 -246 -91 -38
-276 -27 -372 21 -106 54 -193 182 -192 281 0 65 53 183 100 224 45 40 137 98
167 106 17 4 26 14 28 32 2 19 13 32 38 44 36 19 120 25 120 9z m947 -88 c85
-7 79 -1 162 -154 l51 -97 -31 -11 c-76 -26 -147 -3 -178 58 -27 53 -26 80 4
126 32 46 27 54 -15 24 l-31 -24 -34 40 c-38 44 -44 60 -19 51 10 -4 50 -9 91
-13z m-1 -268 l29 -23 -21 -24 c-24 -26 -48 -68 -42 -74 3 -2 22 14 43 36 22
22 42 40 46 40 4 0 19 -20 33 -45 34 -58 50 -58 28 0 -9 24 -14 46 -11 49 2 2
31 8 65 11 l61 7 17 -81 c10 -45 16 -88 13 -95 -8 -21 -107 -65 -163 -72 -100
-12 -210 39 -234 110 -14 43 9 105 52 141 34 28 25 34 -12 8 -43 -30 -70 -67
-76 -105 -6 -37 -7 -37 -48 -32 -46 6 -94 -8 -102 -31 -10 -25 0 -27 41 -9 48
20 90 12 127 -23 32 -31 39 -92 13 -113 -24 -20 -210 -36 -238 -21 -17 9 -30
9 -51 2 -15 -6 -45 -11 -66 -11 -73 0 -128 100 -85 156 13 18 14 17 15 -16 0
-35 23 -80 40 -80 5 0 3 15 -5 34 -10 23 -12 43 -6 58 8 21 9 20 30 -20 25
-49 42 -59 74 -44 22 10 21 10 -8 23 l-30 14 53 3 c83 5 64 37 -23 37 -65 0
-74 25 -18 53 45 23 65 45 82 89 13 32 13 32 85 31 86 0 158 30 203 87 l28 34
15 -40 c9 -22 29 -51 46 -64z m-612 -271 c9 -20 14 -39 11 -42 -10 -10 -45 31
-45 55 0 34 14 28 34 -13z"/>
<path d="M2195 2599 c-12 -19 2 -21 32 -5 l28 15 -27 1 c-15 0 -30 -5 -33 -11z"/>
<path d="M2196 2507 c-15 -32 -2 -165 17 -184 16 -16 17 -16 16 7 -2 66 -26
194 -33 177z"/>
<path d="M2067 2426 c-4 -10 -7 -34 -6 -54 l1 -37 9 45 c10 48 7 75 -4 46z"/>
<path d="M2414 2335 c16 -44 27 -129 21 -169 -6 -32 -4 -38 5 -29 31 30 19
176 -18 205 -14 11 -15 10 -8 -7z"/>
<path d="M2300 2305 c-15 -18 0 -21 18 -3 9 9 12 7 12 -10 0 -12 5 -22 11 -22
17 0 6 44 -12 48 -9 1 -22 -4 -29 -13z"/>
<path d="M2490 2260 c0 -16 5 -30 10 -30 6 0 10 14 10 30 0 17 -4 30 -10 30
-5 0 -10 -13 -10 -30z"/>
<path d="M2348 2181 c4 -27 2 -29 -18 -24 -17 4 -21 2 -18 -8 2 -8 14 -15 26
-17 29 -4 51 40 32 63 -19 23 -27 18 -22 -14z"/>
<path d="M2236 2134 c-12 -31 -6 -134 10 -174 21 -53 34 -51 22 3 -5 23 -10
75 -10 115 -1 69 -9 90 -22 56z"/>
<path d="M2080 2094 c0 -18 34 -121 43 -129 7 -7 8 -4 4 8 -4 10 -14 42 -23
72 -13 48 -24 69 -24 49z"/>
<path d="M4071 4386 c-14 -17 11 -41 34 -32 20 7 19 32 -1 40 -21 8 -20 8 -33
-8z"/>
<path d="M787 4303 c-24 -23 12 -55 38 -33 12 10 13 16 4 26 -12 15 -31 18
-42 7z"/>
<path d="M4170 4295 c-21 -26 3 -42 37 -26 27 12 27 13 8 27 -24 18 -30 18
-45 -1z"/>
<path d="M4272 4218 c-16 -16 -15 -45 2 -51 23 -9 39 18 26 42 -13 25 -12 25
-28 9z"/>
<path d="M685 4200 c-7 -11 12 -50 25 -50 12 0 23 37 15 50 -8 13 -32 13 -40
0z"/>
<path d="M2235 4193 c-52 -9 -66 -15 -96 -40 -62 -53 -86 -149 -53 -218 17
-36 65 -65 108 -65 33 0 106 29 106 42 0 6 -8 7 -17 3 -68 -26 -127 -17 -148
25 -45 88 28 230 119 230 29 0 56 -24 56 -51 0 -23 15 -25 24 -3 14 38 7 64
-21 69 -47 10 -57 11 -78 8z"/>
<path d="M2455 4167 c-81 -46 -116 -175 -67 -245 30 -42 87 -58 151 -42 59 15
68 23 76 71 4 23 15 45 26 52 10 6 19 15 19 20 0 13 -113 3 -118 -10 -2 -8 5
-13 17 -13 22 0 22 -7 4 -73 -5 -18 -40 -37 -69 -37 -9 0 -29 13 -45 29 -24
25 -29 38 -29 78 1 99 58 173 135 173 46 0 55 -10 55 -57 0 -21 3 -23 14 -14
20 17 29 73 14 83 -7 4 -42 8 -78 8 -49 0 -75 -6 -105 -23z"/>
<path d="M1800 4170 c0 -5 9 -10 20 -10 25 0 25 -2 -4 -130 -18 -79 -29 -108
-45 -118 -11 -8 -21 -17 -21 -21 0 -3 54 -5 120 -3 119 3 121 4 130 28 6 14
10 35 10 47 -1 22 -1 22 -20 -3 -11 -14 -25 -31 -30 -37 -6 -8 -34 -13 -67
-13 -53 0 -55 1 -49 23 3 12 9 39 12 60 6 33 10 37 36 37 25 0 28 -3 23 -20
-8 -25 10 -27 20 -2 14 34 22 92 13 92 -6 0 -12 -9 -15 -20 -6 -21 -40 -37
-54 -23 -9 9 5 81 19 95 5 5 30 7 56 3 40 -6 46 -10 46 -31 0 -32 18 -31 30 2
21 53 20 54 -110 54 -73 0 -120 -4 -120 -10z"/>
<path d="M2835 4170 c-3 -5 2 -10 13 -10 10 0 21 -2 24 -5 3 -4 -5 -56 -18
-118 -13 -62 -24 -113 -24 -115 0 -1 -12 -7 -27 -13 -45 -18 -7 -25 104 -19
115 6 153 26 184 94 36 79 16 156 -46 182 -40 16 -200 19 -210 4z m200 -30 c8
-7 17 -27 21 -46 11 -57 -4 -105 -46 -146 -33 -33 -44 -38 -84 -38 -34 0 -46
4 -46 15 0 16 38 200 46 224 5 17 86 10 109 -9z"/>
<path d="M3443 4114 c-26 -26 -37 -44 -28 -44 18 0 18 5 -1 -87 -8 -41 -13
-81 -10 -89 7 -19 61 -18 77 3 13 15 11 16 -13 9 -33 -8 -32 -11 -14 78 14 66
26 86 54 86 6 0 12 5 12 10 0 6 -10 10 -21 10 -19 0 -20 4 -15 35 4 19 6 35 4
34 -2 0 -22 -21 -45 -45z"/>
<path d="M601 4106 c-19 -22 4 -62 25 -45 17 14 15 50 -2 56 -6 2 -16 -3 -23
-11z"/>
<path d="M4350 4105 c-15 -17 -5 -35 20 -35 22 0 33 23 17 39 -15 15 -22 14
-37 -4z"/>
<path d="M3201 4075 c-79 -67 -58 -195 32 -195 69 0 117 54 117 133 0 82 -83
117 -149 62z m99 -20 c11 -20 11 -35 1 -77 -14 -64 -26 -78 -62 -78 -40 0 -55
38 -39 95 25 85 72 113 100 60z"/>
<path d="M3585 4075 c-14 -13 -25 -29 -25 -35 0 -12 42 -54 81 -82 20 -13 22
-20 13 -35 -16 -27 -59 -29 -77 -3 -13 19 -15 19 -28 4 -34 -41 76 -61 125
-23 41 33 34 63 -25 105 -32 24 -48 42 -45 51 3 8 6 17 6 19 0 2 13 4 30 4 19
0 33 -7 40 -20 13 -23 30 -18 30 10 0 38 -88 43 -125 5z"/>
<path d="M520 4009 c-14 -24 -6 -49 14 -49 19 0 28 28 16 51 -13 24 -17 24
-30 -2z"/>
<path d="M4433 3994 c-3 -8 1 -22 9 -30 13 -13 16 -13 27 0 7 9 11 23 7 31 -7
20 -35 19 -43 -1z"/>
<path d="M437 3893 c-24 -24 12 -50 43 -31 14 9 16 16 8 25 -11 14 -40 17 -51
6z"/>
<path d="M4514 3885 c-13 -32 23 -48 47 -19 10 13 10 17 -2 25 -21 13 -39 11
-45 -6z"/>
<path d="M365 3780 c-7 -23 1 -40 20 -40 8 0 17 5 20 10 9 15 -4 50 -20 50 -8
0 -16 -9 -20 -20z"/>
<path d="M4586 3783 c-9 -22 20 -51 35 -36 14 14 2 53 -16 53 -7 0 -16 -8 -19
-17z"/>
<path d="M2384 3680 c-17 -7 -44 -54 -44 -76 0 -14 23 2 45 31 31 39 30 56 -1
45z"/>
<path d="M300 3665 c-19 -22 1 -39 35 -31 26 7 27 8 10 26 -22 24 -29 25 -45
5z"/>
<path d="M3553 3673 c-26 -5 -31 -23 -8 -23 8 0 15 -6 15 -14 0 -13 -33 -179
-46 -230 -5 -22 -3 -26 14 -26 16 0 23 8 28 35 3 20 14 40 24 45 14 8 20 2 35
-31 21 -46 42 -61 73 -52 25 6 30 23 7 23 -8 0 -26 21 -41 46 l-28 47 25 19
c81 63 89 80 32 71 -46 -7 -52 -11 -33 -23 8 -5 12 -11 10 -13 -27 -21 -78
-57 -82 -57 -4 0 3 39 13 87 10 48 19 91 19 95 0 8 -18 9 -57 1z"/>
<path d="M4657 3673 c-4 -3 -7 -15 -7 -25 0 -20 25 -24 50 -8 13 8 12 11 -5
24 -23 17 -29 19 -38 9z"/>
<path d="M1310 3660 c0 -5 9 -10 20 -10 11 0 20 -1 20 -2 0 -2 -15 -54 -34
-116 -24 -78 -41 -118 -58 -132 l-23 -19 52 -1 c28 0 55 5 58 10 3 6 -3 10
-14 10 -12 0 -21 5 -21 12 0 18 52 199 56 195 3 -2 34 -209 34 -224 0 -2 9 -3
19 -3 15 0 34 29 80 118 65 126 70 125 51 -7 -6 -43 -16 -71 -31 -87 l-22 -24
61 0 c33 0 64 5 67 10 3 6 -3 10 -14 10 -25 0 -26 14 -10 144 9 71 15 93 32
107 22 18 22 18 -25 19 l-47 0 -59 -111 c-33 -61 -62 -107 -64 -103 -3 5 -11
55 -18 112 l-12 102 -49 0 c-27 0 -49 -4 -49 -10z"/>
<path d="M2770 3660 c0 -5 6 -10 14 -10 26 0 27 -17 6 -117 -29 -133 -29 -133
-51 -133 -10 0 -19 -4 -19 -10 0 -13 164 -13 212 1 26 7 43 19 53 39 21 41 19
56 -12 85 -15 14 -22 25 -15 25 12 0 52 56 52 73 0 4 -11 19 -25 32 -22 23
-32 25 -120 25 -57 0 -95 -4 -95 -10z m174 -26 c20 -19 20 -34 0 -62 -12 -17
-25 -22 -59 -22 l-44 0 6 33 c3 17 10 40 15 50 11 22 61 23 82 1z m-16 -126
c16 -16 15 -60 0 -81 -15 -20 -118 -37 -118 -19 0 6 5 33 12 61 l11 51 42 0
c22 0 46 -5 53 -12z"/>
<path d="M2167 3558 c-26 -27 -37 -34 -33 -21 20 63 -45 73 -94 16 l-32 -38 6
33 c5 31 4 32 -29 32 -18 0 -37 -4 -40 -10 -3 -5 1 -10 9 -10 20 0 20 -18 1
-95 -19 -78 -18 -85 3 -85 14 0 23 14 35 58 16 58 56 112 82 112 18 0 19 -25
1 -107 l-14 -63 24 0 c19 0 24 5 24 27 0 52 76 170 96 150 10 -10 7 -63 -7
-120 -9 -40 -9 -51 2 -58 21 -13 45 -11 59 6 10 13 9 15 -9 15 -17 0 -21 5
-17 18 13 46 28 143 23 155 -3 8 -16 17 -28 20 -18 5 -32 -3 -62 -35z"/>
<path d="M702 3574 c-32 -22 -52 -67 -52 -118 0 -36 5 -48 26 -65 53 -42 124
-16 156 56 24 54 18 105 -15 128 -28 19 -86 19 -115 -1z m80 -11 c23 -21 24
-86 0 -133 -14 -28 -23 -35 -47 -35 -45 0 -60 38 -39 102 13 42 44 83 62 83 3
0 14 -7 24 -17z"/>
<path d="M935 3583 c-34 -5 -59 -23 -32 -23 9 0 17 -6 17 -13 0 -16 -19 -125
-26 -149 -4 -13 0 -18 15 -18 14 0 21 9 26 33 9 43 50 112 77 132 21 14 23 14
29 -2 3 -10 0 -40 -7 -68 -25 -93 -12 -122 44 -94 l27 13 -23 4 c-19 3 -23 8
-18 25 18 67 29 136 23 150 -12 32 -62 21 -97 -20 l-31 -38 6 38 c4 20 6 36 4
36 -2 -1 -17 -4 -34 -6z"/>
<path d="M1725 3582 c-33 -4 -60 -22 -32 -22 21 0 21 -16 3 -95 -24 -100 17
-128 83 -56 l37 40 -4 -33 c-4 -38 8 -51 44 -42 26 7 33 26 9 26 -8 0 -15 4
-15 9 0 13 29 136 36 155 4 11 0 16 -12 16 -13 0 -31 -24 -59 -77 -66 -126
-99 -128 -70 -3 10 44 16 81 14 83 -2 1 -17 1 -34 -1z"/>
<path d="M2468 3579 c-51 -29 -42 -74 22 -110 41 -23 50 -45 28 -67 -19 -19
-56 -14 -73 11 -13 19 -17 20 -25 7 -18 -28 -10 -39 34 -45 49 -8 78 3 102 40
19 29 9 51 -41 89 -19 15 -35 33 -35 41 0 24 48 30 70 10 19 -17 20 -17 26 0
4 10 1 21 -7 26 -19 12 -80 11 -101 -2z"/>
<path d="M3097 3569 c-54 -41 -75 -129 -41 -177 18 -26 36 -28 75 -5 27 16 29
16 48 -1 21 -19 52 -19 59 2 2 6 -4 12 -13 12 -13 0 -16 6 -13 23 3 12 11 50
19 85 11 55 11 64 -1 72 -27 17 -103 11 -133 -11z m99 -13 c8 -21 -13 -90 -37
-120 -25 -31 -64 -34 -79 -6 -8 15 -6 29 11 62 12 24 28 51 37 61 18 20 60 23
68 3z"/>
<path d="M3339 3552 c-35 -36 -39 -45 -39 -91 0 -70 25 -96 83 -87 43 7 67 21
67 39 0 7 -4 7 -12 -1 -7 -7 -26 -12 -43 -12 -40 0 -55 16 -55 60 0 41 29 93
61 111 19 10 25 9 40 -10 22 -28 41 -27 37 2 -3 19 -10 22 -51 25 -45 3 -51 0
-88 -36z"/>
<path d="M242 3549 c-12 -18 -11 -24 2 -37 15 -15 17 -15 32 0 13 13 14 19 2
37 -7 11 -15 21 -18 21 -3 0 -11 -10 -18 -21z"/>
<path d="M4714 3545 c-7 -17 2 -45 13 -45 4 0 17 7 27 15 20 15 20 15 0 30
-24 18 -33 19 -40 0z"/>
<path d="M4772 3438 c-16 -16 -15 -33 2 -47 10 -9 16 -8 26 3 16 21 -10 62
-28 44z"/>
<path d="M190 3425 c-10 -12 -10 -18 0 -29 16 -20 42 -8 38 17 -4 26 -21 32
-38 12z"/>
<path d="M140 3295 c-10 -13 -10 -19 5 -35 18 -20 18 -20 32 0 12 17 12 24 3
35 -16 19 -24 19 -40 0z"/>
<path d="M4814 3296 c-8 -22 3 -49 19 -43 6 2 12 14 12 27 0 27 -22 39 -31 16z"/>
<path d="M107 3173 c-24 -23 12 -55 38 -33 12 10 13 16 4 26 -12 15 -31 18
-42 7z"/>
<path d="M4853 3169 c-16 -16 -5 -39 17 -39 25 0 35 18 20 35 -15 18 -22 19
-37 4z"/>
<path d="M80 3045 c-15 -18 -7 -45 13 -45 8 0 20 6 26 13 8 11 6 18 -8 31 -16
15 -20 15 -31 1z"/>
<path d="M4891 3046 c-14 -16 -9 -46 7 -46 21 0 32 26 19 44 -12 16 -14 16
-26 2z"/>
<path d="M47 2913 c-24 -23 12 -55 38 -33 12 10 13 16 4 26 -12 15 -31 18 -42
7z"/>
<path d="M4913 2913 c-18 -7 -16 -28 3 -44 13 -10 17 -10 25 2 18 28 1 54 -28
42z"/>
<path d="M30 2775 c-9 -11 -9 -19 3 -36 l15 -21 12 22 c20 38 -4 67 -30 35z"/>
<path d="M4923 2774 c-3 -8 1 -22 9 -30 12 -12 17 -12 33 0 16 12 17 16 6 30
-17 20 -40 21 -48 0z"/>
<path d="M20 2650 c-13 -25 3 -52 26 -43 18 7 18 37 0 52 -12 10 -17 8 -26 -9z"/>
<path d="M4940 2645 c-9 -11 -11 -22 -4 -32 13 -21 25 -21 38 -1 8 14 7 21 -5
33 -14 15 -17 15 -29 0z"/>
<path d="M13 2513 c-21 -8 -15 -30 9 -37 27 -6 43 7 35 28 -6 16 -21 19 -44 9z"/>
<path d="M4942 2512 c-14 -9 -6 -42 10 -42 5 0 19 5 30 11 21 11 21 12 3 25
-22 16 -25 17 -43 6z"/>
<path d="M4107 2385 c26 -52 49 -93 51 -91 4 5 -86 186 -93 186 -3 0 16 -43
42 -95z"/>
<path d="M21 2386 c-16 -19 -7 -46 14 -46 22 0 30 29 13 46 -13 13 -16 13 -27
0z"/>
<path d="M4940 2375 c-15 -18 -5 -35 20 -35 10 0 22 5 25 10 7 11 -12 40 -25
40 -4 0 -13 -7 -20 -15z"/>
<path d="M24 2239 c-3 -6 0 -17 8 -25 12 -12 17 -12 32 -1 11 8 16 19 12 25
-9 15 -43 15 -52 1z"/>
<path d="M4924 2239 c-3 -6 1 -18 9 -27 13 -13 19 -13 32 -2 12 10 13 16 4 26
-14 17 -35 18 -45 3z"/>
<path d="M44 2105 c-4 -9 0 -24 10 -33 15 -15 18 -15 26 -2 6 8 9 22 7 30 -3
21 -36 25 -43 5z"/>
<path d="M4907 2113 c-24 -23 12 -55 38 -33 12 10 13 16 4 26 -12 15 -31 18
-42 7z"/>
<path d="M67 1976 c-6 -15 11 -36 29 -36 6 0 17 6 23 14 10 12 8 17 -8 25 -26
15 -38 14 -44 -3z"/>
<path d="M4880 1975 c-22 -27 12 -49 38 -23 8 8 9 15 1 25 -15 17 -24 16 -39
-2z"/>
<path d="M101 1846 c-10 -12 -8 -17 9 -26 28 -15 57 5 39 26 -15 18 -33 18
-48 0z"/>
<path d="M4846 1844 c-3 -9 -4 -20 0 -25 8 -14 40 -11 53 5 10 12 8 17 -8 25
-27 15 -38 14 -45 -5z"/>
<path d="M620 1816 c0 -7 11 -29 24 -49 14 -20 30 -46 37 -58 11 -21 10 -22
-30 -16 -52 7 -53 -6 -1 -22 39 -12 50 -24 30 -36 -19 -12 -11 -26 9 -15 27
14 56 13 70 -4 9 -11 3 -21 -30 -50 -22 -21 -39 -40 -36 -42 2 -2 24 4 48 15
50 23 60 20 34 -9 -10 -11 -16 -23 -13 -25 3 -3 17 9 32 27 14 18 31 39 37 45
14 19 133 -42 125 -63 -3 -9 -6 -19 -6 -23 0 -5 -19 -17 -42 -27 -63 -28 -292
-27 -400 3 -43 12 -78 17 -78 12 0 -4 37 -20 83 -35 71 -24 98 -28 207 -28
144 0 228 15 258 47 11 12 28 40 39 62 21 46 58 64 139 64 65 1 98 -10 209
-72 99 -56 198 -143 247 -219 l31 -50 -44 -39 c-24 -21 -123 -100 -219 -174
-181 -139 -270 -215 -253 -215 5 0 59 39 119 86 60 47 152 117 205 155 157
111 279 266 279 353 0 51 -12 37 -34 -39 l-18 -61 -71 72 c-176 175 -392 267
-554 235 -132 -26 -169 -26 -217 3 -25 14 -75 64 -117 115 -70 86 -99 108 -99
77z"/>
<path d="M142 1718 c-7 -10 -6 -19 4 -33 15 -20 15 -20 30 0 8 10 13 24 11 30
-5 15 -33 17 -45 3z"/>
<path d="M4813 1714 c-3 -8 1 -22 10 -31 13 -14 16 -13 22 6 11 35 -19 59 -32
25z"/>
<path d="M186 1594 c-4 -10 -2 -22 3 -27 14 -14 43 0 39 20 -4 24 -34 28 -42
7z"/>
<path d="M4764 1595 c-12 -29 15 -45 45 -26 12 8 12 12 2 25 -17 20 -40 21
-47 1z"/>
<path d="M4714 1476 c-9 -37 10 -56 33 -33 16 16 16 18 -4 39 l-22 21 -7 -27z"/>
<path d="M240 1474 c-11 -12 -10 -18 3 -31 15 -15 18 -15 37 2 19 17 19 19 2
31 -22 17 -27 17 -42 -2z"/>
<path d="M295 1355 c-17 -13 -18 -16 -5 -25 27 -18 52 -12 48 12 -4 28 -19 32
-43 13z"/>
<path d="M4663 1363 c-17 -6 -17 -38 0 -51 20 -17 44 25 25 43 -7 7 -19 11
-25 8z"/>
<path d="M4591 1246 c-16 -19 -7 -46 14 -46 22 0 30 29 13 46 -13 13 -16 13
-27 0z"/>
<path d="M364 1235 c-4 -9 0 -24 10 -33 15 -15 18 -15 26 -2 6 8 9 22 7 30 -3
21 -36 25 -43 5z"/>
<path d="M440 1125 c-19 -22 5 -48 31 -34 10 5 19 14 19 19 0 5 -9 14 -19 19
-14 8 -22 7 -31 -4z"/>
<path d="M4513 1124 c-3 -8 1 -22 8 -29 12 -12 17 -12 33 0 16 12 17 17 6 30
-16 20 -39 19 -47 -1z"/>
<path d="M514 1015 c-12 -29 15 -45 45 -26 12 8 12 12 2 25 -17 20 -40 21 -47
1z"/>
<path d="M4434 1015 c-12 -29 15 -45 45 -26 12 8 12 12 2 25 -17 20 -40 21
-47 1z"/>
<path d="M600 915 c-10 -12 -10 -18 0 -29 16 -20 42 -8 38 17 -4 26 -21 32
-38 12z"/>
<path d="M4350 901 c0 -27 19 -36 37 -18 18 18 9 37 -18 37 -12 0 -19 -7 -19
-19z"/>
<path d="M4271 826 c-17 -20 -6 -49 16 -44 22 4 26 20 10 42 -12 16 -14 16
-26 2z"/>
<path d="M690 814 c-11 -12 -11 -18 1 -30 13 -12 18 -12 34 0 16 12 17 16 6
30 -17 20 -25 20 -41 0z"/>
<path d="M787 723 c-24 -23 12 -55 38 -33 12 10 13 16 4 26 -12 15 -31 18 -42
7z"/>
<path d="M4167 716 c-3 -8 1 -22 9 -33 14 -17 14 -17 28 0 18 23 10 47 -14 47
-10 0 -20 -6 -23 -14z"/>
<path d="M885 630 c-8 -13 3 -50 15 -50 5 0 14 8 19 18 15 27 -18 58 -34 32z"/>
<path d="M4070 621 c0 -27 15 -34 40 -21 17 9 19 14 9 26 -17 21 -49 18 -49
-5z"/>
<path d="M990 550 c-11 -7 -12 -13 -1 -37 12 -27 13 -27 27 -8 8 10 14 24 14
31 0 16 -24 24 -40 14z"/>
<path d="M3963 544 c-10 -26 13 -39 44 -25 27 12 27 13 8 27 -25 18 -44 18
-52 -2z"/>
<path d="M1095 470 c-8 -24 1 -40 21 -40 20 0 29 27 14 45 -17 20 -27 19 -35
-5z"/>
<path d="M1720 466 c-61 -23 -129 -56 -135 -66 -9 -15 -6 -14 96 35 92 43 109
56 39 31z"/>
<path d="M3854 465 c-4 -9 0 -24 10 -33 15 -15 18 -15 26 -2 6 8 9 22 7 30 -3
21 -36 25 -43 5z"/>
<path d="M1203 394 c-7 -19 20 -49 36 -40 16 11 13 43 -5 50 -22 8 -24 8 -31
-10z"/>
<path d="M3746 395 c-3 -9 0 -25 8 -36 11 -17 15 -18 25 -5 7 8 11 23 9 33 -4
23 -34 29 -42 8z"/>
<path d="M3631 331 c-16 -28 14 -51 36 -28 13 13 14 19 3 31 -17 21 -27 20
-39 -3z"/>
<path d="M1317 327 c-3 -7 2 -22 10 -32 14 -19 15 -19 28 -2 7 11 11 25 8 33
-7 18 -39 18 -46 1z"/>
<path d="M3509 274 c-10 -12 -9 -18 3 -30 13 -13 19 -14 37 -2 27 17 26 22 -3
36 -19 9 -27 8 -37 -4z"/>
<path d="M1435 270 c-7 -12 12 -50 25 -50 13 0 32 38 25 50 -3 6 -15 10 -25
10 -10 0 -22 -4 -25 -10z"/>
<path d="M1567 223 c-24 -23 12 -55 38 -33 12 10 13 16 4 26 -12 15 -31 18
-42 7z"/>
<path d="M3390 215 c-11 -13 -11 -19 4 -33 15 -15 18 -15 26 -2 22 33 -6 64
-30 35z"/>
<path d="M1689 174 c-10 -12 -9 -18 4 -31 13 -13 19 -14 31 -3 21 17 20 27 -3
39 -14 8 -22 7 -32 -5z"/>
<path d="M3273 183 c-15 -5 -17 -39 -3 -48 11 -7 50 11 50 23 0 12 -34 29 -47
25z"/>
<path d="M1820 135 c-9 -11 -11 -22 -4 -32 13 -21 25 -21 38 -1 8 14 7 21 -5
33 -14 15 -17 15 -29 0z"/>
<path d="M3142 138 c-27 -27 -3 -54 31 -36 22 11 22 25 -1 37 -13 7 -23 6 -30
-1z"/>
<path d="M1949 104 c-10 -12 -9 -18 4 -31 13 -13 19 -14 31 -3 21 16 20 23 -3
37 -16 10 -22 9 -32 -3z"/>
<path d="M3004 95 c-13 -32 23 -48 47 -19 10 13 10 17 -2 25 -21 13 -39 11
-45 -6z"/>
<path d="M2080 75 c-22 -26 7 -46 39 -26 12 8 12 12 2 25 -17 20 -25 20 -41 1z"/>
<path d="M2880 75 c-22 -26 7 -46 39 -26 12 8 12 12 2 25 -17 20 -25 20 -41 1z"/>
<path d="M2211 62 c-8 -15 -7 -23 5 -33 18 -15 38 0 32 27 -5 25 -25 28 -37 6z"/>
<path d="M2741 62 c-7 -13 -6 -23 1 -30 28 -28 63 3 38 33 -16 20 -27 19 -39
-3z"/>
<path d="M2341 51 c-16 -28 14 -51 36 -28 13 13 14 19 3 31 -17 21 -27 20 -39
-3z"/>
<path d="M2612 48 c-8 -8 -9 -15 -1 -25 15 -17 34 -17 48 1 10 12 8 17 -8 25
-24 14 -24 14 -39 -1z"/>
<path d="M2470 41 c0 -21 13 -41 26 -41 8 0 14 4 14 9 0 5 3 16 6 25 5 12 0
16 -20 16 -14 0 -26 -4 -26 -9z"/>
</g>
</svg>
