<?xml version="1.0" standalone="no"?>
<!DOCTYPE svg PUBLIC "-//W3C//DTD SVG 20010904//EN"
 "http://www.w3.org/TR/2001/REC-SVG-20010904/DTD/svg10.dtd">
<svg version="1.0" xmlns="http://www.w3.org/2000/svg"
 width="500.000000pt" height="500.000000pt" viewBox="0 0 500.000000 500.000000"
 preserveAspectRatio="xMidYMid meet">
<metadata>
Created by potrace 1.15, written by Peter Selinger 2001-2017
</metadata>
<g transform="translate(0.000000,500.000000) scale(0.100000,-0.100000)"
fill="#000000" stroke="none">
<path d="M2351 4971 c-8 -14 -7 -22 4 -31 22 -19 48 5 34 31 -5 10 -14 19 -19
19 -5 0 -14 -9 -19 -19z"/>
<path d="M2493 4983 c-15 -5 -17 -39 -3 -48 12 -7 50 12 50 25 0 13 -32 28
-47 23z"/>
<path d="M2620 4964 c-11 -12 -10 -18 3 -32 16 -15 18 -15 31 3 10 14 11 24 4
32 -14 17 -23 16 -38 -3z"/>
<path d="M2757 4973 c-11 -10 -8 -41 3 -48 19 -12 41 15 29 36 -10 20 -21 24
-32 12z"/>
<path d="M2220 4955 c-10 -12 -10 -18 0 -31 12 -13 15 -13 28 0 15 15 10 46
-6 46 -5 0 -15 -7 -22 -15z"/>
<path d="M2090 4945 c-15 -18 -7 -45 13 -45 14 0 44 28 36 33 -2 1 -11 8 -20
15 -13 10 -19 9 -29 -3z"/>
<path d="M2885 4940 c-8 -12 3 -50 14 -50 15 0 33 30 27 45 -6 17 -32 20 -41
5z"/>
<path d="M1950 4915 c-15 -18 -5 -35 21 -35 24 0 37 29 18 41 -19 12 -25 11
-39 -6z"/>
<path d="M3020 4915 c-22 -26 7 -46 39 -26 12 8 12 12 2 25 -17 20 -25 20 -41
1z"/>
<path d="M1832 4888 c-28 -28 0 -56 31 -33 22 16 21 22 -1 34 -13 7 -23 6 -30
-1z"/>
<path d="M3152 4888 c-27 -27 -3 -54 31 -36 22 11 22 25 -1 37 -13 7 -23 6
-30 -1z"/>
<path d="M1701 4856 c-16 -19 -7 -46 14 -46 22 0 30 29 13 46 -13 13 -16 13
-27 0z"/>
<path d="M3275 4840 c-9 -15 4 -30 25 -30 24 0 36 20 19 31 -19 12 -36 11 -44
-1z"/>
<path d="M1574 4795 c-12 -31 23 -48 45 -21 10 12 8 17 -8 25 -26 14 -31 14
-37 -4z"/>
<path d="M3400 4795 c-14 -17 -5 -35 19 -35 26 0 44 23 29 38 -16 16 -33 15
-48 -3z"/>
<path d="M1450 4745 c-15 -18 -5 -35 20 -35 10 0 22 5 25 10 7 11 -12 40 -25
40 -4 0 -13 -7 -20 -15z"/>
<path d="M3527 4753 c-11 -10 -8 -41 4 -49 6 -3 18 1 27 9 13 13 13 19 2 31
-14 17 -23 20 -33 9z"/>
<path d="M1331 4696 c-16 -19 -7 -46 14 -46 22 0 30 29 13 46 -13 13 -16 13
-27 0z"/>
<path d="M3647 4693 c-4 -3 -7 -15 -7 -25 0 -20 26 -24 50 -8 13 9 12 12 -4
25 -22 17 -29 18 -39 8z"/>
<path d="M2891 4620 c-70 -25 -124 -63 -166 -115 -42 -51 -49 -66 -86 -172
-39 -110 -69 -164 -133 -232 -65 -69 -125 -106 -256 -161 -223 -94 -386 -243
-490 -450 -67 -133 -102 -271 -130 -510 -14 -126 -18 -140 -34 -140 -27 0 -44
-30 -81 -140 -20 -61 -41 -108 -46 -105 -4 3 -31 39 -60 80 -77 112 -94 112
-189 -7 -38 -47 -78 -86 -97 -94 -50 -21 -119 -18 -144 7 -23 23 -69 19 -69
-6 0 -19 0 -19 -67 1 -80 23 -75 11 9 -20 87 -31 88 -31 88 -7 0 11 5 23 10
26 6 3 10 4 10 1 0 -3 10 -49 21 -102 18 -80 19 -98 8 -105 -25 -15 -29 -10
-29 35 0 64 -13 92 -20 42 -4 -28 -13 -45 -33 -60 -26 -19 -45 -21 -235 -26
-197 -5 -202 -5 -115 -14 51 -4 155 -7 230 -7 222 3 427 -5 450 -18 30 -15 74
-14 117 4 45 19 72 8 81 -34 7 -31 -3 -59 -29 -80 -12 -10 -22 -10 -50 0 -30
11 -40 10 -74 -5 -34 -16 -83 -18 -473 -19 -244 -1 -388 -5 -329 -8 58 -4 247
-7 420 -8 324 -2 391 -7 418 -34 20 -21 28 -118 12 -157 -14 -33 -9 -32 -190
-54 -154 -19 -590 -97 -590 -106 0 -4 42 -1 93 6 50 7 225 32 387 54 162 23
311 46 330 51 19 6 75 14 123 19 60 5 104 16 137 32 l50 25 4 -31 c3 -17 12
-94 21 -171 9 -77 21 -164 26 -192 14 -70 81 -171 126 -189 69 -29 183 -45
363 -51 161 -4 211 -10 381 -44 108 -21 217 -39 243 -39 47 0 106 22 106 40 0
19 51 42 147 66 145 35 253 92 339 178 88 89 109 130 109 216 0 101 -53 203
-124 240 -44 22 -51 35 -51 94 0 120 -80 297 -179 395 -77 77 -155 121 -266
152 -44 12 -82 23 -84 25 -2 1 6 15 17 29 31 39 35 75 18 149 -24 101 -62 169
-137 245 -80 81 -92 102 -113 210 -10 47 -24 103 -32 125 -22 64 -18 113 11
142 46 46 70 32 147 -83 59 -89 72 -103 96 -103 15 1 38 7 52 15 14 8 39 14
57 15 18 0 58 11 88 25 47 20 66 24 113 19 68 -7 79 1 112 86 24 60 68 124
149 212 46 50 62 60 122 78 38 12 80 31 94 43 38 34 95 152 95 197 0 93 -71
241 -158 328 -79 79 -147 116 -317 174 -120 41 -271 49 -354 18z m420 -522
c45 -25 82 -81 104 -159 25 -90 16 -118 -56 -181 -63 -55 -100 -113 -126 -200
-17 -57 -31 -65 -84 -48 -34 12 -44 11 -75 -3 -44 -21 -68 -11 -84 38 -6 19
-15 35 -20 35 -17 0 -19 -32 -5 -60 8 -16 15 -34 15 -40 0 -19 -34 -10 -63 18
l-30 27 7 -28 c9 -36 -8 -57 -43 -57 -37 0 -55 22 -146 175 -43 72 -84 136
-91 144 -24 26 -26 4 -4 -39 l22 -43 -48 -48 -47 -48 -29 40 c-37 51 -94 92
-198 143 -94 45 -159 52 -235 24 -22 -9 -49 -19 -60 -22 -13 -5 -8 4 15 24 19
18 100 64 180 102 164 80 233 122 305 184 27 24 53 44 57 44 14 0 48 -62 59
-108 7 -23 17 -46 23 -50 20 -13 176 -50 181 -43 2 4 -12 13 -31 20 -38 14
-52 46 -35 80 31 57 141 100 177 70 14 -11 15 -26 10 -86 -4 -40 -4 -73 0 -73
8 0 37 33 76 87 75 104 182 135 279 81z m-966 -547 c20 -10 41 -39 62 -81 31
-60 34 -77 47 -240 38 -459 42 -779 16 -1285 -11 -203 -11 -251 1 -310 l14
-70 95 -6 c93 -7 225 -30 238 -43 3 -4 0 -11 -8 -16 -19 -12 -17 -13 78 -44
45 -15 82 -32 82 -37 0 -5 -11 -14 -24 -20 -18 -9 -44 -6 -114 10 -93 22 -150
28 -122 12 8 -5 58 -19 110 -31 109 -26 121 -31 95 -40 -10 -4 -68 4 -128 17
-150 32 -160 23 -15 -12 66 -16 114 -33 109 -38 -11 -11 -393 51 -459 75 -66
25 -104 56 -125 105 -25 57 -66 243 -83 373 -8 63 -53 282 -99 486 -109 480
-119 539 -112 723 4 124 9 158 31 226 44 131 123 232 202 260 42 15 62 12 109
-14z m-755 -764 c0 -6 -7 -44 -15 -82 -16 -76 -20 -251 -6 -259 8 -5 21 78 37
232 4 34 11 62 15 62 10 0 15 -30 33 -205 25 -235 27 -286 17 -390 -12 -116
-23 -132 -116 -161 -45 -14 -63 -16 -102 -6 -44 10 -50 9 -71 -11 l-23 -22 6
75 c6 64 3 81 -14 114 -11 22 -19 41 -18 43 2 1 16 -11 32 -27 18 -19 31 -45
35 -72 l6 -43 13 27 c12 23 11 31 -9 63 -23 37 -20 48 15 59 16 5 25 -3 44
-39 13 -25 28 -45 32 -45 12 0 12 3 -7 50 -21 53 -11 63 17 16 11 -20 25 -33
30 -30 15 9 10 30 -12 50 -12 10 -30 38 -41 62 -17 38 -18 51 -8 145 12 112
53 310 77 369 15 37 33 51 33 25z m-228 -86 c19 -22 51 -64 72 -95 32 -46 36
-60 29 -81 -8 -26 -9 -25 -62 39 -29 36 -56 66 -60 66 -4 0 -15 -32 -25 -71
-11 -39 -25 -77 -33 -85 -20 -20 -10 -31 50 -48 86 -25 128 -66 67 -66 -16 0
-45 -8 -65 -17 -31 -15 -40 -15 -73 -3 -20 8 -80 17 -132 20 l-95 5 -21 85
-22 85 62 5 c76 6 94 18 186 119 40 45 76 81 81 81 4 0 23 -18 41 -39z m34
-202 c15 -30 19 -69 7 -69 -5 0 -21 11 -37 23 -26 21 -28 27 -22 61 6 32 9 36
22 25 9 -7 22 -25 30 -40z m544 -95 c7 -17 15 -24 25 -20 52 21 51 22 28 -14
-17 -27 -19 -38 -11 -62 12 -35 6 -43 -21 -28 -18 9 -22 7 -31 -15 -12 -31
-30 -24 -30 10 0 18 -7 26 -25 31 -33 8 -32 19 5 34 24 10 31 20 36 51 8 46
11 48 24 13z m982 -146 c2 -16 13 -26 36 -33 37 -11 40 -20 11 -35 -17 -10
-20 -17 -14 -51 7 -41 -3 -51 -25 -24 -18 21 -31 19 -63 -11 -35 -33 -41 -27
-22 19 20 47 19 54 -5 62 -28 9 -25 18 13 35 17 8 36 25 42 38 5 12 13 22 17
22 3 0 8 -10 10 -22z"/>
<path d="M2840 4033 c-27 -18 -40 -33 -40 -46 0 -5 13 1 29 12 38 27 71 27 78
1 8 -30 28 -18 28 16 0 26 -4 29 -35 32 -21 2 -45 -4 -60 -15z"/>
<path d="M3190 3956 c0 -2 23 -18 50 -36 28 -18 59 -45 71 -61 22 -31 27 -33
48 -20 13 8 13 12 0 27 -34 42 -169 114 -169 90z"/>
<path d="M3097 3862 c-14 -3 -4 -11 32 -27 28 -13 51 -27 51 -30 0 -3 -9 -22
-20 -42 -22 -42 -13 -63 26 -63 29 0 40 16 23 36 -6 8 -9 17 -5 21 3 4 13 -3
22 -15 20 -29 34 -28 34 4 0 20 4 24 19 19 30 -9 37 15 10 37 -58 46 -141 72
-192 60z"/>
<path d="M2262 2575 c-7 -8 -27 -15 -44 -15 -30 0 -31 -1 -13 -14 17 -13 18
-19 9 -55 -12 -45 -4 -53 20 -19 14 20 18 20 43 8 15 -8 31 -16 36 -18 4 -2 2
9 -3 24 -9 22 -7 31 10 49 25 27 25 35 0 28 -12 -3 -22 1 -26 11 -8 20 -15 20
-32 1z"/>
<path d="M2835 1430 c50 -16 95 -28 100 -26 20 7 -91 49 -140 52 -48 4 -46 3
40 -26z"/>
<path d="M1204 4619 c-3 -6 0 -18 9 -26 12 -12 19 -13 36 -3 18 9 20 14 10 26
-14 17 -45 19 -55 3z"/>
<path d="M3754 4619 c-3 -6 0 -18 9 -26 14 -14 17 -14 37 0 22 15 22 15 2 26
-26 14 -39 14 -48 0z"/>
<path d="M1100 4555 c-15 -18 -6 -45 14 -45 20 0 29 16 21 40 -8 24 -18 25
-35 5z"/>
<path d="M3870 4544 c-11 -12 -10 -18 4 -32 16 -16 18 -16 31 2 11 14 12 23 4
33 -15 17 -24 16 -39 -3z"/>
<path d="M990 4464 c-11 -12 -10 -18 3 -32 16 -15 18 -15 31 3 10 14 11 24 4
32 -14 17 -23 16 -38 -3z"/>
<path d="M3974 4465 c-4 -9 0 -24 10 -33 15 -15 18 -15 26 -2 6 8 9 22 7 30
-3 21 -36 25 -43 5z"/>
<path d="M893 4393 c-16 -6 -17 -39 -2 -49 6 -3 18 1 27 10 14 14 14 18 2 30
-8 7 -21 12 -27 9z"/>
<path d="M4084 4385 c-12 -31 23 -48 45 -21 10 12 8 17 -8 25 -26 14 -31 14
-37 -4z"/>
<path d="M786 4294 c-11 -30 13 -44 43 -25 12 8 12 12 2 25 -17 20 -37 20 -45
0z"/>
<path d="M4184 4295 c-12 -30 16 -45 46 -25 13 9 12 12 -4 25 -25 19 -35 19
-42 0z"/>
<path d="M691 4209 c-11 -18 -10 -24 3 -37 15 -15 17 -15 33 1 16 16 16 18 -2
37 -20 20 -20 20 -34 -1z"/>
<path d="M4274 4199 c-3 -6 1 -18 10 -27 15 -15 17 -15 32 0 19 19 11 38 -16
38 -10 0 -22 -5 -26 -11z"/>
<path d="M600 4105 c-10 -12 -10 -18 0 -30 15 -18 20 -18 44 0 20 15 20 15 0
30 -24 18 -29 18 -44 0z"/>
<path d="M4369 4104 c-15 -18 0 -38 27 -32 25 5 28 25 6 37 -15 8 -23 7 -33
-5z"/>
<path d="M4451 4002 c-7 -13 -6 -23 1 -30 27 -27 54 -3 36 31 -11 22 -25 22
-37 -1z"/>
<path d="M514 3995 c-12 -29 15 -45 45 -26 12 8 12 12 2 25 -17 20 -40 21 -47
1z"/>
<path d="M435 3890 c-7 -11 12 -50 25 -50 12 0 23 37 15 50 -8 13 -32 13 -40
0z"/>
<path d="M4531 3886 c-9 -10 -8 -16 4 -26 13 -11 19 -11 32 2 16 17 10 38 -11
38 -8 0 -19 -6 -25 -14z"/>
<path d="M364 3775 c-4 -9 0 -24 10 -33 15 -15 18 -15 26 -2 6 8 9 22 7 30 -3
21 -36 25 -43 5z"/>
<path d="M4601 3777 c-8 -10 -7 -19 4 -33 15 -19 15 -19 30 0 11 14 12 23 4
33 -6 7 -15 13 -19 13 -4 0 -13 -6 -19 -13z"/>
<path d="M306 3664 c-13 -12 -14 -19 -5 -30 14 -17 20 -17 43 -1 16 12 16 14
-2 30 -18 17 -21 17 -36 1z"/>
<path d="M4669 3664 c-10 -12 -9 -18 4 -31 13 -13 19 -14 31 -3 21 17 20 27
-3 39 -14 8 -22 7 -32 -5z"/>
<path d="M241 3536 c-18 -21 11 -41 38 -26 25 13 27 26 5 34 -23 9 -30 8 -43
-8z"/>
<path d="M4724 3539 c-3 -6 1 -18 10 -27 15 -15 17 -15 32 0 19 19 11 38 -16
38 -10 0 -22 -5 -26 -11z"/>
<path d="M190 3424 c-11 -12 -10 -18 3 -32 21 -21 42 -3 32 27 -8 25 -18 27
-35 5z"/>
<path d="M4777 3416 c-6 -15 11 -36 29 -36 6 0 17 6 23 14 10 12 8 17 -8 25
-26 15 -38 14 -44 -3z"/>
<path d="M145 3299 c-8 -12 2 -59 13 -59 4 0 13 9 20 21 10 16 10 24 1 35 -14
17 -25 18 -34 3z"/>
<path d="M1281 3303 c-1 -7 -16 -19 -33 -26 -32 -13 -32 -14 -11 -25 15 -9 20
-18 16 -34 -5 -19 -3 -21 8 -10 7 6 21 12 31 12 11 0 18 7 18 19 0 11 5 23 10
26 17 10 11 25 -9 25 -11 0 -22 6 -24 13 -4 9 -6 9 -6 0z"/>
<path d="M4830 3295 c-19 -22 5 -48 31 -34 10 5 19 14 19 19 0 5 -9 14 -19 19
-14 8 -22 7 -31 -4z"/>
<path d="M4871 3176 c-16 -19 -7 -46 14 -46 22 0 30 29 13 46 -13 13 -16 13
-27 0z"/>
<path d="M104 3165 c-12 -30 16 -45 46 -25 13 9 12 12 -4 25 -25 19 -35 19
-42 0z"/>
<path d="M827 3031 c-3 -16 -14 -36 -23 -46 -13 -13 -14 -19 -5 -24 8 -5 10
-18 5 -34 -7 -29 10 -38 20 -11 4 11 14 15 29 12 20 -4 23 -1 19 17 -2 12 4
27 12 35 15 12 14 14 -6 24 -13 6 -24 22 -26 34 -5 31 -18 27 -25 -7z"/>
<path d="M77 3043 c-11 -10 -8 -41 4 -49 6 -3 18 1 27 9 13 13 13 19 2 31 -14
17 -23 20 -33 9z"/>
<path d="M4900 3034 c-11 -12 -10 -18 3 -32 16 -15 18 -15 34 0 13 14 14 20 3
32 -7 9 -16 16 -20 16 -4 0 -13 -7 -20 -16z"/>
<path d="M1434 2989 c-12 -25 -21 -30 -40 -26 -27 5 -28 3 -14 -24 8 -13 7
-25 0 -39 -10 -18 -8 -19 19 -14 17 4 31 1 36 -6 5 -7 15 1 31 24 29 42 29 42
6 48 -15 4 -18 12 -14 37 6 39 -3 40 -24 0z"/>
<path d="M1122 2945 c-4 -6 -20 -19 -37 -28 -30 -16 -30 -16 -6 -23 20 -6 22
-11 18 -40 -7 -39 3 -45 18 -11 7 15 18 21 33 20 19 -2 21 1 16 22 -3 14 -2
31 4 38 8 9 4 15 -14 24 -19 9 -26 8 -32 -2z"/>
<path d="M51 2916 c-16 -19 -7 -46 14 -46 22 0 30 29 13 46 -13 13 -16 13 -27
0z"/>
<path d="M4922 2908 c-7 -7 -8 -17 -1 -30 12 -22 18 -22 44 -2 20 15 20 15 1
30 -24 17 -29 17 -44 2z"/>
<path d="M3582 2853 c-7 -7 -22 -13 -32 -13 -22 0 -27 -16 -7 -23 9 -3 9 -11
0 -35 -12 -35 -8 -39 21 -17 17 13 22 13 42 0 31 -20 37 -19 24 4 -13 26 -13
37 4 53 11 12 9 16 -13 29 -22 13 -29 13 -39 2z"/>
<path d="M3217 2817 c-12 -19 -26 -27 -47 -27 -35 0 -48 -16 -19 -23 18 -5 20
-10 14 -39 -6 -27 -5 -31 6 -20 18 17 45 15 76 -5 l26 -18 -6 34 c-4 20 -3 39
4 47 8 10 8 14 0 14 -6 0 -17 14 -24 32 l-13 31 -17 -26z"/>
<path d="M24 2769 c-3 -6 1 -18 10 -27 15 -15 17 -15 32 0 19 19 11 38 -16 38
-10 0 -22 -5 -26 -11z"/>
<path d="M4940 2761 c0 -27 15 -34 40 -21 17 9 19 14 9 26 -17 21 -49 18 -49
-5z"/>
<path d="M464 2695 c24 -19 205 -79 213 -71 4 3 4 6 0 6 -3 0 -57 18 -119 40
-62 22 -104 33 -94 25z"/>
<path d="M14 2635 c-4 -9 0 -24 10 -33 15 -15 18 -15 26 -2 6 8 9 22 7 30 -3
21 -36 25 -43 5z"/>
<path d="M4957 2643 c-11 -10 -8 -41 4 -49 6 -3 18 1 27 9 13 13 13 19 2 31
-14 17 -23 20 -33 9z"/>
<path d="M3780 2500 c0 -25 -4 -30 -25 -30 -30 0 -33 -16 -5 -25 11 -4 23 -20
28 -38 l9 -32 17 33 c17 34 34 40 54 20 17 -17 25 -3 12 22 -6 12 -9 33 -6 46
6 22 5 23 -20 12 -22 -10 -28 -10 -39 5 -18 25 -25 21 -25 -13z"/>
<path d="M18 2513 c-25 -6 -22 -30 3 -38 25 -8 44 7 36 29 -7 16 -9 17 -39 9z"/>
<path d="M4963 2513 c-17 -6 -16 -38 1 -52 21 -18 44 25 24 44 -7 7 -19 11
-25 8z"/>
<path d="M3456 2430 c-4 -21 -13 -34 -26 -37 -15 -4 -19 -10 -14 -22 4 -9 8
-28 8 -43 1 -29 10 -36 22 -17 3 6 19 9 34 5 25 -5 28 -2 32 27 3 18 8 39 12
48 5 12 1 15 -16 15 -15 -1 -24 6 -26 19 -7 35 -19 37 -26 5z"/>
<path d="M14 2369 c-3 -6 0 -18 9 -26 12 -12 19 -13 36 -3 18 9 20 14 10 26
-14 17 -45 19 -55 3z"/>
<path d="M4954 2365 c-4 -9 -2 -21 3 -26 14 -14 45 1 41 20 -4 22 -37 26 -44
6z"/>
<path d="M26 2233 c-9 -22 7 -36 33 -28 25 8 28 30 5 39 -24 9 -31 7 -38 -11z"/>
<path d="M3710 2240 c0 -6 -11 -22 -24 -35 -15 -15 -21 -27 -15 -31 6 -3 8
-18 4 -32 -6 -26 -6 -26 13 -8 16 14 24 15 41 6 19 -9 21 -8 21 13 0 12 5 28
12 35 9 9 8 12 -5 12 -10 0 -22 11 -27 25 -10 26 -20 33 -20 15z"/>
<path d="M4944 2235 c-12 -31 23 -48 45 -21 10 12 8 17 -8 25 -26 14 -31 14
-37 -4z"/>
<path d="M50 2105 c-15 -18 -5 -35 20 -35 10 0 22 5 25 10 7 11 -12 40 -25 40
-4 0 -13 -7 -20 -15z"/>
<path d="M4926 2104 c-12 -31 13 -44 44 -24 13 9 12 12 -4 25 -25 19 -32 19
-40 -1z"/>
<path d="M70 1975 c-10 -12 -10 -19 1 -32 7 -10 15 -20 16 -22 4 -5 32 31 33
41 0 4 -9 12 -19 17 -14 8 -22 7 -31 -4z"/>
<path d="M4895 1974 c-18 -13 -18 -15 -2 -31 16 -16 18 -16 34 0 15 15 15 19
3 31 -13 13 -18 13 -35 0z"/>
<path d="M104 1845 c-12 -30 16 -45 46 -25 13 9 12 12 -4 25 -25 19 -35 19
-42 0z"/>
<path d="M4872 1848 c-27 -27 -6 -56 28 -38 25 13 26 26 2 39 -13 7 -23 6 -30
-1z"/>
<path d="M147 1723 c-4 -3 -7 -15 -7 -25 0 -21 32 -25 49 -5 17 22 -22 50 -42
30z"/>
<path d="M4831 1717 c-13 -17 -5 -47 14 -47 19 0 28 32 12 47 -12 12 -16 12
-26 0z"/>
<path d="M4780 1594 c-11 -12 -10 -18 3 -31 22 -23 52 0 36 28 -12 23 -22 24
-39 3z"/>
<path d="M184 1589 c-3 -6 1 -18 10 -27 15 -15 17 -15 32 0 19 19 11 38 -16
38 -10 0 -22 -5 -26 -11z"/>
<path d="M241 1471 c-13 -23 8 -45 33 -35 19 7 21 25 4 42 -17 17 -26 15 -37
-7z"/>
<path d="M4724 1465 c-4 -9 0 -24 10 -33 15 -15 18 -15 26 -2 6 8 9 22 7 30
-3 21 -36 25 -43 5z"/>
<path d="M297 1346 c-3 -8 1 -22 9 -33 14 -17 14 -17 29 1 11 14 12 23 4 33
-15 17 -35 17 -42 -1z"/>
<path d="M4664 1345 c-4 -9 0 -24 10 -33 15 -15 18 -15 26 -2 6 8 9 22 7 30
-3 21 -36 25 -43 5z"/>
<path d="M2216 1254 c-8 -22 -8 -22 12 -33 14 -7 25 -6 41 5 21 15 21 17 4 30
-24 18 -50 17 -57 -2z"/>
<path d="M2513 1263 c-21 -8 -15 -33 8 -33 15 0 19 -4 15 -16 -3 -9 -6 -27 -6
-40 0 -22 -4 -24 -46 -24 -86 0 -148 -49 -175 -138 -32 -111 58 -185 132 -108
l23 24 13 -29 c13 -31 39 -37 74 -19 25 14 24 30 -1 30 -11 0 -20 6 -20 13 0
6 16 86 35 177 19 91 35 166 35 168 0 4 -75 1 -87 -5z m-13 -148 c26 -31 -17
-162 -59 -185 -37 -19 -69 -12 -79 18 -7 21 -3 40 20 91 16 35 36 70 46 77 23
18 57 17 72 -1z"/>
<path d="M3593 1263 c-18 -7 -16 -23 1 -23 8 0 17 -4 21 -9 3 -5 -8 -73 -25
-151 -16 -77 -30 -154 -30 -169 0 -45 53 -57 86 -20 19 22 19 22 -8 17 -35 -6
-35 -10 1 154 17 73 33 150 37 171 l6 37 -38 -1 c-22 0 -45 -3 -51 -6z"/>
<path d="M1450 1245 c0 -9 9 -15 25 -15 32 0 32 -11 -2 -170 -29 -134 -35
-150 -64 -150 -11 0 -19 -7 -19 -15 0 -13 24 -15 154 -15 l154 0 10 28 c6 15
14 42 17 60 6 27 4 32 -13 32 -15 0 -21 -9 -26 -35 -5 -26 -14 -39 -32 -45
-26 -10 -137 -14 -146 -5 -2 3 2 36 10 75 11 48 21 71 32 75 28 9 50 -5 50
-31 0 -14 6 -24 14 -24 10 0 18 20 26 58 6 31 13 63 15 70 3 7 -4 12 -15 12
-13 0 -20 -7 -20 -19 0 -26 -25 -44 -50 -36 -22 7 -25 31 -10 84 12 43 24 51
77 51 61 0 73 -7 73 -46 0 -27 4 -34 20 -34 12 0 20 7 20 18 0 9 3 34 6 55 l7
37 -157 0 c-132 0 -156 -2 -156 -15z"/>
<path d="M371 1236 c-18 -22 4 -62 25 -45 18 15 18 33 0 48 -10 9 -16 8 -25
-3z"/>
<path d="M4597 1233 c-10 -9 -8 -15 8 -37 15 -19 15 -19 29 -1 8 11 12 25 9
32 -5 14 -35 18 -46 6z"/>
<path d="M1853 1143 c-33 -4 -48 -33 -18 -33 21 0 19 -24 -13 -175 -23 -111
-31 -131 -50 -140 -38 -17 -18 -30 51 -33 54 -2 67 0 67 12 0 8 -9 18 -20 21
-20 6 -25 29 -14 59 4 11 19 16 48 16 87 0 176 92 176 183 0 46 -18 85 -42 93
-28 9 -85 -14 -109 -44 l-21 -27 4 35 c3 38 -1 40 -59 33z m172 -102 c-24 -96
-79 -160 -125 -146 -16 5 -20 15 -20 52 0 59 39 129 83 148 29 13 33 12 50 -7
12 -15 16 -30 12 -47z"/>
<path d="M2173 1143 c-25 -5 -32 -33 -8 -33 20 0 19 -16 -5 -112 -26 -100 -22
-118 30 -118 29 0 42 5 50 20 10 18 8 19 -15 10 -32 -12 -32 -2 0 121 13 51
25 100 25 107 0 12 -31 14 -77 5z"/>
<path d="M2681 1141 c-31 -8 -40 -31 -12 -31 25 0 25 3 1 -90 -23 -87 -25
-121 -8 -138 25 -25 61 -13 110 38 l48 49 -7 -44 -6 -45 46 0 c32 0 47 5 51
16 5 13 1 15 -20 11 -22 -4 -25 -2 -20 17 30 122 48 217 43 222 -3 3 -15 3
-26 -1 -13 -4 -25 -23 -35 -59 -22 -76 -89 -166 -123 -166 -18 0 -16 42 7 130
11 41 20 81 20 88 0 13 -29 14 -69 3z"/>
<path d="M2998 1143 c-22 -5 -24 -33 -3 -33 20 0 19 -26 -5 -134 -11 -50 -20
-91 -20 -93 0 -2 11 -3 25 -3 19 0 26 7 31 28 16 75 61 160 98 184 19 13 36 9
36 -8 0 -9 7 -14 18 -12 12 2 18 14 20 41 3 35 2 37 -27 37 -23 0 -39 -11 -70
-47 l-41 -48 6 48 c7 47 7 47 -22 46 -16 -1 -37 -3 -46 -6z"/>
<path d="M3315 1134 c-60 -31 -87 -68 -99 -137 -9 -51 8 -101 40 -116 36 -16
49 -14 82 14 36 30 42 31 42 5 0 -36 81 -39 94 -3 5 12 1 14 -19 11 -31 -6
-31 -5 0 110 14 51 25 97 25 101 0 30 -117 41 -165 15z m99 -21 c11 -28 -14
-121 -41 -154 -35 -41 -63 -51 -85 -31 -21 18 -22 41 -7 97 21 74 115 137 133
88z"/>
<path d="M441 1116 c-18 -21 11 -41 39 -26 17 9 19 14 9 26 -15 18 -33 18 -48
0z"/>
<path d="M4524 1119 c-3 -6 1 -18 10 -27 15 -15 17 -15 32 0 19 19 11 38 -16
38 -10 0 -22 -5 -26 -11z"/>
<path d="M520 1015 c-16 -19 -5 -47 17 -43 11 2 18 12 18 27 0 29 -17 37 -35
16z"/>
<path d="M4455 1014 c-14 -14 -14 -19 -2 -31 15 -15 47 -8 47 12 0 7 -6 18
-14 24 -11 9 -18 8 -31 -5z"/>
<path d="M602 908 c-8 -8 -9 -15 -1 -25 14 -16 31 -17 47 -1 9 9 7 14 -6 24
-21 17 -25 17 -40 2z"/>
<path d="M4366 904 c-3 -9 -6 -20 -6 -25 0 -12 31 -11 49 0 12 8 12 12 2 25
-17 20 -37 20 -45 0z"/>
<path d="M693 811 c-10 -15 -9 -22 2 -31 22 -19 48 5 34 31 -12 24 -21 24 -36
0z"/>
<path d="M4276 803 c-4 -9 -1 -23 7 -30 12 -12 16 -12 26 1 16 19 8 46 -13 46
-7 0 -17 -8 -20 -17z"/>
<path d="M4191 726 c-17 -20 -6 -49 16 -44 22 4 26 20 10 42 -12 16 -14 16
-26 2z"/>
<path d="M790 715 c-9 -11 -11 -22 -4 -32 13 -21 25 -21 38 -1 8 14 7 21 -5
33 -14 15 -17 15 -29 0z"/>
<path d="M4091 636 c-16 -19 -7 -46 14 -46 22 0 30 29 13 46 -13 13 -16 13
-27 0z"/>
<path d="M892 628 c-16 -16 -15 -33 2 -47 22 -18 44 25 24 45 -11 11 -17 12
-26 2z"/>
<path d="M990 544 c-11 -12 -10 -18 3 -31 22 -23 52 0 36 28 -12 23 -22 24
-39 3z"/>
<path d="M3981 536 c-9 -10 -8 -16 3 -25 20 -17 60 7 44 26 -14 17 -33 17 -47
-1z"/>
<path d="M1094 455 c-4 -8 -1 -22 6 -30 16 -19 40 -2 40 26 0 23 -38 26 -46 4z"/>
<path d="M3867 458 c-2 -8 2 -23 10 -33 14 -20 14 -20 29 0 8 10 13 24 11 30
-5 15 -44 18 -50 3z"/>
<path d="M1207 386 c-3 -8 1 -22 9 -33 14 -17 14 -17 29 1 11 14 12 23 4 33
-15 17 -35 17 -42 -1z"/>
<path d="M3757 387 c-3 -8 -1 -20 3 -27 7 -11 14 -12 35 -2 22 10 25 15 15 27
-15 19 -46 19 -53 2z"/>
<path d="M3644 324 c-8 -32 14 -50 34 -30 12 11 12 17 0 35 -17 28 -26 27 -34
-5z"/>
<path d="M1331 326 c-18 -22 4 -62 25 -45 18 15 18 33 0 48 -10 9 -16 8 -25
-3z"/>
<path d="M1450 264 c-11 -12 -11 -18 1 -30 13 -12 18 -12 34 0 16 12 17 16 6
30 -17 20 -25 20 -41 0z"/>
<path d="M3524 265 c-7 -17 2 -45 13 -45 4 0 17 8 28 16 20 15 20 15 1 30 -25
18 -35 18 -42 -1z"/>
<path d="M1567 206 c-3 -8 1 -20 9 -27 12 -10 18 -9 31 3 8 9 12 21 9 27 -10
16 -43 14 -49 -3z"/>
<path d="M3397 206 c-3 -8 0 -20 8 -26 19 -16 59 8 43 27 -14 17 -45 17 -51
-1z"/>
<path d="M1703 173 c-17 -6 -17 -38 0 -51 20 -17 44 25 25 43 -7 7 -19 11 -25
8z"/>
<path d="M3273 164 c-3 -8 1 -22 9 -30 12 -12 17 -12 33 0 16 12 17 16 6 30
-17 20 -40 21 -48 0z"/>
<path d="M1824 133 c-14 -24 -7 -43 16 -43 25 0 33 15 20 40 -13 25 -22 25
-36 3z"/>
<path d="M3143 124 c-3 -8 1 -22 8 -29 12 -12 17 -12 33 0 16 12 17 17 6 30
-16 20 -39 19 -47 -1z"/>
<path d="M1954 95 c-7 -17 2 -45 13 -45 4 0 17 7 27 15 20 15 20 15 0 30 -24
18 -33 19 -40 0z"/>
<path d="M3023 103 c-17 -6 -16 -38 1 -52 21 -18 44 25 24 44 -7 7 -19 11 -25
8z"/>
<path d="M2085 70 c-8 -12 3 -50 14 -50 5 0 14 7 21 15 10 12 10 18 0 30 -14
17 -26 19 -35 5z"/>
<path d="M2887 73 c-24 -23 12 -55 38 -33 12 10 13 16 4 26 -12 15 -31 18 -42
7z"/>
<path d="M2220 54 c-11 -12 -11 -18 1 -29 20 -20 43 -4 34 24 -8 25 -18 27
-35 5z"/>
<path d="M2751 46 c-18 -21 11 -41 39 -26 17 9 19 14 9 26 -15 18 -33 18 -48
0z"/>
<path d="M2347 36 c-9 -23 18 -39 43 -26 17 9 19 14 9 26 -15 18 -45 18 -52 0z"/>
<path d="M2484 35 c-7 -18 3 -35 20 -35 14 0 28 35 18 44 -10 11 -33 6 -38 -9z"/>
<path d="M2614 39 c-3 -6 0 -18 9 -26 12 -12 18 -13 35 -2 16 10 18 16 10 26
-13 16 -44 17 -54 2z"/>
</g>
</svg>
