<?xml version="1.0" standalone="no"?>
<!DOCTYPE svg PUBLIC "-//W3C//DTD SVG 20010904//EN"
 "http://www.w3.org/TR/2001/REC-SVG-20010904/DTD/svg10.dtd">
<svg version="1.0" xmlns="http://www.w3.org/2000/svg"
 width="500.000000pt" height="500.000000pt" viewBox="0 0 500.000000 500.000000"
 preserveAspectRatio="xMidYMid meet">
<metadata>
Created by potrace 1.15, written by Peter Selinger 2001-2017
</metadata>
<g transform="translate(0.000000,500.000000) scale(0.100000,-0.100000)"
fill="#000000" stroke="none">
<path d="M2482 4978 c-16 -16 -15 -33 2 -47 22 -18 44 25 24 45 -11 11 -16 12
-26 2z"/>
<path d="M2610 4974 c-11 -12 -10 -18 3 -32 16 -15 18 -15 34 0 13 14 14 20 3
32 -7 9 -16 16 -20 16 -4 0 -13 -7 -20 -16z"/>
<path d="M2214 4966 c-8 -22 3 -49 19 -43 6 2 12 14 12 27 0 27 -22 39 -31 16z"/>
<path d="M2342 4967 c-7 -8 -6 -18 4 -32 15 -19 16 -19 29 -2 24 33 -7 66 -33
34z"/>
<path d="M2744 4959 c-3 -6 1 -18 9 -27 13 -13 19 -13 32 -2 12 10 13 16 4 26
-14 17 -35 18 -45 3z"/>
<path d="M2881 4952 c-22 -41 9 -67 33 -29 8 12 7 21 -6 33 -15 15 -17 15 -27
-4z"/>
<path d="M2079 4944 c-10 -12 -9 -18 4 -31 13 -13 19 -14 31 -3 21 17 20 27
-3 39 -14 8 -22 7 -32 -5z"/>
<path d="M1951 4921 c-14 -9 -7 -51 8 -51 15 0 33 30 27 45 -6 17 -15 19 -35
6z"/>
<path d="M3010 4915 c-22 -26 7 -46 39 -26 12 8 12 12 2 25 -17 20 -25 20 -41
1z"/>
<path d="M1821 4886 c-18 -22 4 -62 25 -45 18 15 18 33 0 48 -10 9 -16 8 -25
-3z"/>
<path d="M3129 4884 c-11 -14 -10 -18 6 -30 16 -12 21 -12 34 0 12 12 12 18 1
30 -16 20 -24 20 -41 0z"/>
<path d="M1693 4849 c-15 -15 -5 -39 16 -39 29 0 43 21 23 36 -21 17 -25 17
-39 3z"/>
<path d="M3269 4844 c-16 -20 2 -38 30 -29 26 8 27 21 2 34 -14 8 -22 7 -32
-5z"/>
<path d="M1569 4806 c-17 -35 2 -59 27 -34 15 15 15 18 1 39 l-16 22 -12 -27z"/>
<path d="M3386 4793 c-11 -26 10 -38 41 -24 27 12 27 13 8 27 -25 19 -41 18
-49 -3z"/>
<path d="M1442 4748 c-8 -8 -9 -15 -1 -25 15 -17 34 -17 48 1 10 12 8 17 -8
25 -24 14 -24 14 -39 -1z"/>
<path d="M3510 4745 c-15 -18 -5 -35 21 -35 24 0 37 29 18 41 -19 12 -25 11
-39 -6z"/>
<path d="M3634 4693 c-20 -33 2 -55 34 -34 12 7 12 12 1 30 -17 26 -21 26 -35
4z"/>
<path d="M1324 4685 c-12 -30 16 -45 46 -25 13 9 12 12 -4 25 -25 19 -35 19
-42 0z"/>
<path d="M3752 4629 c-15 -24 0 -51 24 -42 17 6 18 24 2 46 -12 16 -14 16 -26
-4z"/>
<path d="M1207 4623 c-12 -12 -7 -31 10 -37 9 -4 23 0 32 9 14 14 14 17 1 25
-18 11 -34 13 -43 3z"/>
<path d="M1095 4550 c-8 -24 1 -40 21 -40 20 0 29 27 14 45 -17 20 -27 19 -35
-5z"/>
<path d="M3854 4549 c-3 -6 1 -18 10 -27 15 -15 17 -15 32 0 19 19 11 38 -16
38 -10 0 -22 -5 -26 -11z"/>
<path d="M991 4481 c-16 -29 3 -58 25 -40 17 14 17 20 0 44 -13 18 -14 18 -25
-4z"/>
<path d="M3964 4465 c-13 -32 23 -48 47 -19 10 13 10 17 -2 25 -21 13 -39 11
-45 -6z"/>
<path d="M887 4393 c-4 -3 -7 -15 -7 -25 0 -23 38 -25 47 -2 8 21 -24 43 -40
27z"/>
<path d="M4070 4384 c-11 -12 -10 -18 4 -32 16 -16 18 -16 31 2 11 14 12 23 4
33 -15 17 -24 16 -39 -3z"/>
<path d="M787 4303 c-24 -23 12 -55 38 -33 12 10 13 16 4 26 -12 15 -31 18
-42 7z"/>
<path d="M4166 4293 c-11 -26 10 -38 41 -24 27 12 27 13 8 27 -25 19 -41 18
-49 -3z"/>
<path d="M690 4205 c-17 -21 6 -61 26 -44 18 15 18 45 0 52 -8 3 -20 0 -26 -8z"/>
<path d="M4273 4213 c-18 -6 -16 -43 1 -43 22 0 46 11 46 21 0 12 -33 27 -47
22z"/>
<path d="M600 4104 c-11 -12 -10 -18 3 -31 15 -15 18 -15 37 2 19 17 19 19 2
31 -22 17 -27 17 -42 -2z"/>
<path d="M4354 4105 c-12 -30 16 -45 46 -25 13 9 12 12 -4 25 -25 19 -35 19
-42 0z"/>
<path d="M1896 4048 c-58 -162 -48 -247 43 -352 23 -27 49 -59 58 -72 22 -34
73 -175 73 -203 0 -13 -15 -63 -34 -110 -19 -48 -37 -104 -41 -126 -4 -22 -16
-68 -27 -103 -25 -75 -20 -128 17 -197 19 -37 25 -61 23 -100 -2 -45 3 -61 39
-121 22 -38 64 -98 92 -133 l51 -64 0 -77 c0 -42 3 -125 6 -183 l7 -106 -45
-44 c-34 -34 -52 -65 -77 -131 -30 -80 -50 -102 -66 -76 -3 5 2 40 11 77 22
88 21 161 -4 209 -11 22 -31 87 -46 146 -26 109 -51 167 -105 248 -17 25 -31
55 -31 67 0 12 15 68 34 125 94 282 57 598 -85 719 -194 164 -276 238 -290
264 -10 17 -22 57 -27 90 -19 117 -32 135 -131 183 -76 36 -98 42 -154 42 -84
0 -104 -18 -52 -49 19 -11 35 -28 35 -37 0 -14 -10 -15 -78 -9 -74 6 -81 5
-105 -17 -14 -12 -29 -36 -33 -52 -7 -31 -6 -31 48 6 32 22 71 23 89 2 23 -28
16 -122 -13 -179 -33 -62 -76 -103 -204 -193 -178 -125 -254 -254 -254 -434 0
-194 87 -351 268 -486 40 -29 76 -61 79 -69 3 -8 -12 -47 -33 -87 -38 -69 -39
-73 -39 -171 0 -154 46 -267 159 -393 31 -34 56 -71 56 -81 0 -10 -11 -44 -25
-75 -37 -84 -54 -297 -32 -419 28 -157 97 -257 226 -325 l62 -34 -7 -43 c-13
-91 36 -158 133 -181 127 -30 277 -12 379 46 43 25 63 30 120 30 98 1 144 14
177 50 36 40 37 93 2 144 -14 20 -25 41 -25 46 0 5 49 60 110 122 128 132 155
177 155 263 0 86 -38 150 -127 216 -37 28 -68 53 -68 57 0 16 58 103 95 142
24 25 48 63 55 85 6 22 25 75 41 117 16 43 29 90 29 104 0 15 10 56 22 91 20
60 20 70 8 151 -22 157 -35 191 -96 249 -37 35 -59 66 -68 95 -7 24 -27 65
-44 91 -40 63 -56 134 -48 209 8 81 29 120 103 195 64 64 68 74 63 148 -3 49
-38 150 -64 186 -42 57 -63 102 -75 157 -12 56 -46 128 -84 175 -19 25 -22 40
-21 108 1 43 -2 79 -5 79 -7 0 -32 -89 -38 -140 -4 -28 4 -53 37 -115 23 -44
50 -106 60 -138 10 -32 36 -86 59 -120 48 -75 70 -132 78 -209 l6 -58 -55 -52
c-74 -72 -123 -173 -113 -232 4 -22 8 -71 9 -107 1 -63 3 -68 44 -112 34 -38
42 -54 42 -85 0 -46 11 -61 71 -95 62 -35 79 -65 89 -155 4 -42 13 -90 19
-105 17 -44 13 -64 -19 -100 -25 -29 -30 -43 -30 -84 0 -27 -9 -81 -20 -119
-12 -38 -24 -80 -28 -93 -4 -13 -27 -39 -52 -56 -37 -26 -46 -38 -50 -71 -8
-53 -15 -62 -58 -74 -25 -6 -78 -46 -162 -119 -69 -61 -127 -110 -130 -110 -3
0 -25 26 -50 58 -25 32 -48 57 -51 55 -3 -2 -4 -18 -2 -36 3 -23 1 -28 -5 -18
-14 23 -22 90 -11 90 5 0 14 11 21 24 6 14 24 30 40 37 39 16 72 0 95 -46 l19
-36 39 58 c40 58 66 77 118 88 26 5 27 8 27 61 0 73 20 113 74 146 36 22 48
36 66 85 19 50 21 70 15 141 -3 45 -3 87 1 94 8 13 6 136 -3 186 -4 24 -28 54
-89 114 -100 98 -119 132 -110 199 5 39 2 60 -19 108 -28 68 -32 120 -11 179
8 23 19 66 25 96 11 62 30 106 66 155 35 48 32 86 -17 204 -37 88 -53 112
-114 177 -93 98 -98 115 -75 253 19 114 13 146 -13 75z m-361 -482 c48 -28
225 -191 225 -208 0 -4 -28 -8 -62 -8 -69 0 -138 -15 -138 -30 0 -6 44 -10
101 -10 148 0 207 -35 173 -102 -18 -35 -51 -57 -128 -85 l-61 -23 63 3 c51 3
70 9 107 35 25 18 50 32 54 32 23 0 -8 -312 -41 -419 -39 -129 -127 -245 -220
-289 -123 -60 -342 -26 -570 89 -42 21 -79 43 -82 48 -4 5 5 18 19 29 28 23
26 27 -25 36 -78 14 -140 79 -140 146 1 46 22 72 65 79 39 6 47 19 23 35 -39
24 -113 -45 -125 -118 -6 -36 -6 -36 -25 -19 -11 10 -30 36 -42 58 -18 35 -21
54 -19 162 4 277 55 371 260 476 170 87 288 118 438 114 90 -2 105 -5 150 -31z
m294 -1075 c40 -50 69 -117 77 -175 8 -53 2 -56 -56 -26 -64 33 -126 42 -189
29 -86 -18 -107 -32 -136 -97 -19 -43 -45 -76 -104 -129 -90 -82 -77 -84 -150
24 -34 51 -41 70 -41 110 l0 48 -16 -30 c-21 -41 -27 -46 -65 -54 l-34 -7 57
-43 c70 -53 96 -87 133 -174 39 -94 56 -90 115 25 48 94 102 148 147 148 34 0
83 -51 83 -86 0 -55 -143 -274 -191 -294 -39 -17 -129 -8 -201 20 -78 29 -153
87 -211 162 -68 91 -90 153 -91 263 -1 77 3 98 26 147 47 102 107 117 289 73
95 -22 130 -26 209 -23 109 5 163 25 232 89 55 49 78 49 117 0z m-17 -253 c54
-23 114 -84 124 -125 4 -16 17 -46 28 -68 46 -89 17 -199 -61 -231 -29 -13
-37 -12 -62 0 -37 20 -41 32 -41 130 0 56 -5 88 -15 103 -8 12 -54 45 -101 74
l-86 53 31 15 c35 16 38 23 16 41 -22 18 -18 28 13 32 45 6 104 -3 154 -24z
m-72 -302 c6 -56 16 -100 29 -121 l20 -34 -33 -25 c-59 -45 -78 -115 -55 -206
3 -12 -10 -15 -73 -16 -166 -3 -250 -30 -328 -105 -44 -43 -94 -137 -88 -166
2 -12 22 9 59 63 47 66 67 85 116 111 147 79 342 58 420 -44 26 -33 28 -44 28
-122 0 -71 -5 -94 -24 -131 -35 -66 -64 -101 -115 -140 -26 -18 -46 -37 -46
-40 0 -4 43 -19 95 -35 52 -15 102 -36 111 -46 15 -17 15 -20 0 -43 -27 -42
-69 -76 -103 -82 -17 -3 -88 -2 -158 3 -118 9 -128 11 -153 37 -37 37 -34 87
16 264 51 180 63 201 130 227 28 11 52 23 52 26 0 4 -20 12 -45 18 -32 8 -49
19 -59 39 l-15 27 -1 -42 c0 -32 -8 -50 -36 -84 -45 -54 -53 -74 -69 -173 -7
-43 -18 -82 -25 -86 -31 -19 -135 25 -190 80 -122 122 -144 385 -51 603 24 55
29 56 133 27 88 -24 149 -25 195 -3 39 18 101 97 183 231 30 49 59 87 63 83 4
-5 12 -47 17 -95z m493 -389 c71 -35 92 -73 84 -149 -11 -114 -73 -191 -237
-298 -122 -79 -133 -89 -119 -107 7 -7 34 -25 61 -40 27 -15 56 -40 64 -56 14
-26 14 -30 -3 -43 -23 -18 -77 -28 -107 -20 -13 3 -48 30 -78 59 -45 44 -65
57 -113 68 l-58 14 59 69 c33 37 74 74 92 81 23 10 38 27 51 57 10 24 53 84
94 133 l76 90 -32 16 c-22 12 -36 29 -44 56 l-11 38 -1 -38 c-1 -21 -7 -53
-15 -71 -15 -36 -86 -136 -97 -136 -3 0 -16 34 -28 74 -17 58 -20 80 -11 95 5
11 59 48 118 81 97 55 111 61 154 57 25 -2 71 -16 101 -30z"/>
<path d="M1302 3279 c-61 -12 -156 -65 -197 -111 -19 -21 -35 -43 -35 -49 0
-10 80 30 223 111 31 17 57 38 57 46 0 8 -1 14 -2 13 -2 -1 -22 -5 -46 -10z"/>
<path d="M1312 3036 c-79 -55 -139 -73 -191 -57 -45 13 -101 15 -101 3 0 -23
58 -37 149 -37 79 0 103 4 137 22 80 43 134 113 86 113 -10 0 -46 -20 -80 -44z"/>
<path d="M1760 3045 l-35 -13 31 -1 c16 -1 39 6 50 14 25 19 3 19 -46 0z"/>
<path d="M1260 2902 c-70 -25 -73 -27 -40 -30 46 -5 102 13 125 38 24 27 9 25
-85 -8z"/>
<path d="M1666 2904 c-12 -8 -44 -14 -79 -14 -59 0 -60 0 -43 -19 39 -43 130
-33 142 16 8 31 4 35 -20 17z"/>
<path d="M887 2824 c-23 -13 -27 -21 -26 -57 l1 -42 14 33 c8 18 22 35 32 38
54 17 56 19 30 31 -18 8 -30 7 -51 -3z"/>
<path d="M1705 2740 c-33 -36 -98 -61 -158 -59 -58 2 -97 -15 -78 -34 13 -13
116 -10 160 4 70 23 139 77 126 99 -10 16 -30 12 -50 -10z"/>
<path d="M1640 2595 l-45 -24 36 -1 c32 0 69 23 69 43 0 11 -13 7 -60 -18z"/>
<path d="M514 3995 c-13 -32 23 -48 47 -19 10 13 10 17 -2 25 -21 13 -39 11
-45 -6z"/>
<path d="M4434 3995 c-10 -24 12 -42 34 -29 24 16 21 38 -6 42 -13 2 -25 -3
-28 -13z"/>
<path d="M4513 3894 c-3 -8 1 -22 9 -30 13 -13 16 -13 27 -1 14 17 4 47 -15
47 -8 0 -17 -7 -21 -16z"/>
<path d="M434 3885 c-4 -8 -1 -22 6 -30 16 -19 40 -2 40 26 0 23 -38 26 -46 4z"/>
<path d="M363 3774 c-3 -8 1 -22 9 -30 13 -13 16 -13 27 0 7 9 11 23 7 31 -7
20 -35 19 -43 -1z"/>
<path d="M4587 3783 c-12 -12 -7 -31 10 -37 9 -4 23 0 32 9 14 14 14 17 1 25
-18 11 -34 13 -43 3z"/>
<path d="M3661 3756 c-16 -28 -8 -46 20 -46 24 0 36 27 22 48 -15 25 -28 24
-42 -2z"/>
<path d="M3287 3753 c-12 -11 -8 -23 7 -23 8 0 17 -4 21 -9 3 -5 -8 -69 -24
-143 -45 -211 -45 -208 -23 -208 26 0 38 17 46 65 13 68 100 184 123 161 10
-9 5 -56 -11 -121 -22 -80 -20 -101 5 -108 24 -7 64 6 75 24 5 9 1 11 -14 7
-12 -4 -24 -3 -26 1 -3 4 6 49 19 100 24 97 22 132 -9 144 -9 4 -26 3 -39 -2
-25 -10 -87 -69 -87 -82 0 -5 -4 -9 -9 -9 -7 0 17 132 35 193 5 14 -1 17 -39
17 -24 0 -47 -3 -50 -7z"/>
<path d="M2896 3713 c-4 -21 -9 -46 -12 -55 -4 -13 0 -18 15 -18 13 0 21 6 21
18 0 38 29 62 76 62 24 0 44 -2 44 -5 0 -26 -63 -291 -71 -301 -6 -8 -20 -14
-30 -14 -22 0 -26 -15 -6 -23 28 -11 157 -2 157 11 0 6 -9 12 -20 12 -11 0
-23 6 -26 14 -6 17 52 286 66 300 11 11 67 13 77 2 4 -3 7 -22 6 -41 -1 -28 3
-35 18 -35 13 0 20 10 24 38 4 20 9 45 12 55 4 16 -9 17 -170 17 l-175 0 -6
-37z"/>
<path d="M302 3669 c-15 -24 -8 -39 19 -39 22 0 26 32 6 48 -10 8 -16 6 -25
-9z"/>
<path d="M4657 3673 c-11 -10 -8 -41 4 -49 6 -3 18 1 27 9 13 13 13 19 2 31
-14 17 -23 20 -33 9z"/>
<path d="M3851 3640 c-36 -9 -68 -36 -71 -60 -5 -38 4 -52 55 -85 67 -42 77
-61 46 -87 -39 -31 -108 -18 -94 18 3 9 -2 14 -16 14 -17 0 -21 -6 -21 -29 0
-34 14 -41 80 -41 65 0 96 13 114 49 22 42 7 75 -46 102 -46 23 -78 47 -78 60
0 17 33 39 60 39 20 0 35 -8 46 -25 13 -20 19 -23 30 -14 46 38 -26 79 -105
59z"/>
<path d="M3608 3633 c-10 -2 -18 -11 -18 -18 0 -8 6 -12 14 -9 24 9 24 -8 0
-106 -13 -52 -23 -101 -24 -108 0 -20 46 -33 75 -20 30 14 34 39 5 31 -26 -7
-25 0 5 117 14 52 25 101 25 108 0 12 -45 15 -82 5z"/>
<path d="M239 3549 c-9 -17 -8 -25 5 -37 15 -15 17 -15 32 0 13 13 14 19 2 37
-16 26 -24 26 -39 0z"/>
<path d="M4711 3546 c-9 -11 -9 -19 1 -35 7 -12 15 -21 18 -21 3 0 11 9 18 21
10 16 10 24 1 35 -6 8 -15 14 -19 14 -4 0 -13 -6 -19 -14z"/>
<path d="M186 3423 c-4 -9 -1 -23 7 -30 12 -12 16 -12 26 1 16 19 8 46 -13 46
-7 0 -17 -8 -20 -17z"/>
<path d="M4763 3414 c-9 -24 11 -38 36 -25 25 14 27 27 5 35 -25 9 -34 7 -41
-10z"/>
<path d="M142 3297 c-9 -10 -7 -19 4 -36 l16 -22 15 21 c12 16 12 24 3 35 -15
18 -24 19 -38 2z"/>
<path d="M4812 3297 c-16 -19 11 -58 28 -41 14 14 10 46 -6 51 -6 2 -16 -2
-22 -10z"/>
<path d="M102 3168 c-13 -13 2 -38 23 -38 21 0 36 25 23 38 -7 7 -17 12 -23
12 -6 0 -16 -5 -23 -12z"/>
<path d="M4847 3166 c-8 -21 19 -54 33 -40 7 7 10 20 8 30 -4 23 -33 30 -41
10z"/>
<path d="M2952 3098 c-8 -8 -9 -15 -1 -25 15 -17 44 -17 58 1 10 12 8 17 -8
25 -25 14 -34 14 -49 -1z"/>
<path d="M80 3045 c-15 -18 -7 -45 13 -45 8 0 20 6 26 13 8 11 6 18 -8 31 -16
15 -20 15 -31 1z"/>
<path d="M4887 3043 c-24 -23 12 -55 38 -33 12 10 13 16 4 26 -12 15 -31 18
-42 7z"/>
<path d="M2916 2981 c-34 -7 -46 -28 -18 -33 19 -3 19 -5 -4 -98 -13 -52 -23
-101 -24 -108 0 -22 46 -37 75 -24 30 14 33 32 5 32 -25 0 -25 4 5 120 14 52
25 101 25 108 0 13 -16 14 -64 3z"/>
<path d="M3103 2970 c-27 -16 -33 -26 -33 -54 0 -36 3 -40 80 -89 59 -39 49
-87 -19 -87 -40 0 -62 15 -54 36 3 9 -2 14 -17 14 -18 0 -21 -5 -18 -32 3 -30
7 -33 47 -41 75 -15 146 17 151 68 5 45 -2 56 -54 85 -64 36 -79 52 -70 74 14
36 104 32 104 -4 0 -13 7 -20 20 -20 24 0 27 32 4 54 -22 23 -101 21 -141 -4z"/>
<path d="M3493 2980 c-28 -12 -30 -30 -3 -30 25 0 25 -5 0 -116 -25 -113 -25
-114 4 -114 21 0 26 7 36 52 18 85 76 168 117 168 17 0 16 -49 -2 -125 -21
-85 -20 -97 8 -93 17 2 25 13 34 51 19 79 88 177 124 177 15 0 10 -62 -10
-134 -11 -38 -17 -75 -14 -83 7 -19 47 -27 72 -13 27 14 27 30 1 30 -25 0 -25
-4 2 108 24 101 20 124 -22 130 -32 5 -68 -17 -96 -58 l-24 -35 0 36 c0 42
-15 59 -51 59 -26 0 -53 -22 -94 -75 -14 -19 -15 -17 -9 28 6 47 6 47 -22 46
-16 0 -39 -4 -51 -9z"/>
<path d="M3963 2983 c-28 -5 -30 -33 -3 -33 22 0 22 0 49 -135 17 -81 17 -94
4 -128 -13 -32 -38 -57 -57 -57 -3 0 -6 8 -6 18 0 24 -8 32 -26 25 -8 -3 -14
-18 -14 -34 0 -22 6 -30 26 -35 14 -4 35 -2 48 4 26 12 226 339 226 370 0 13
-83 -1 -88 -15 -2 -8 5 -13 17 -13 12 0 21 -4 21 -9 0 -10 -80 -151 -85 -151
-3 0 -14 49 -41 178 -4 22 -18 25 -71 15z"/>
<path d="M43 2904 c-3 -8 1 -22 9 -30 13 -13 16 -13 27 0 7 9 11 23 7 31 -7
20 -35 19 -43 -1z"/>
<path d="M4911 2911 c-16 -11 -6 -51 14 -51 16 0 29 35 20 50 -8 12 -16 12
-34 1z"/>
<path d="M4931 2786 c-16 -19 -7 -46 14 -46 22 0 30 29 13 46 -13 13 -16 13
-27 0z"/>
<path d="M30 2775 c-11 -13 -11 -19 4 -33 15 -15 18 -15 26 -2 22 33 -6 64
-30 35z"/>
<path d="M21 2646 c-18 -22 4 -62 25 -45 18 15 18 33 0 48 -10 9 -16 8 -25 -3z"/>
<path d="M4940 2645 c-25 -30 10 -61 38 -33 17 17 15 26 -7 37 -14 8 -22 7
-31 -4z"/>
<path d="M13 2513 c-21 -8 -15 -30 9 -36 22 -6 41 9 35 28 -4 12 -26 16 -44 8z"/>
<path d="M4942 2512 c-14 -9 -6 -42 10 -42 5 0 19 5 30 11 21 11 21 12 3 25
-22 16 -25 17 -43 6z"/>
<path d="M2969 2431 c-16 -16 -32 -44 -36 -61 -4 -23 -14 -35 -34 -42 -33 -11
-39 -28 -11 -28 10 0 21 -2 24 -6 12 -11 -52 -279 -71 -298 -20 -19 -41 -15
-41 10 0 25 -29 15 -36 -12 -8 -31 7 -44 51 -44 68 0 94 40 125 195 12 61 24
120 27 133 5 20 11 22 63 22 33 0 61 -3 63 -7 2 -5 -5 -52 -16 -105 -11 -53
-17 -104 -14 -113 10 -24 74 -20 87 5 10 19 9 20 -14 14 -15 -3 -26 -3 -26 0
0 8 40 196 46 219 5 15 -4 17 -86 17 l-92 0 7 33 c4 17 18 43 32 55 l26 24 14
-26 c17 -33 29 -33 37 -1 9 37 0 45 -50 45 -37 0 -51 -6 -75 -29z"/>
<path d="M3132 2437 c-9 -10 -7 -19 5 -36 l16 -24 18 24 c13 17 15 27 7 36
-14 17 -33 16 -46 0z"/>
<path d="M3850 2381 c-13 -22 -38 -46 -59 -57 l-36 -18 28 -4 c15 -2 27 -6 27
-10 0 -3 -9 -50 -21 -104 -17 -79 -19 -102 -9 -113 14 -17 53 -20 81 -5 31 17
23 32 -13 25 -25 -6 -30 -4 -25 8 3 8 13 54 23 101 16 82 18 87 47 94 41 11
47 32 9 32 -29 0 -29 1 -22 40 10 54 -4 59 -30 11z"/>
<path d="M4941 2386 c-16 -19 -7 -46 14 -46 22 0 30 29 13 46 -13 13 -16 13
-27 0z"/>
<path d="M21 2381 c-19 -12 -6 -41 18 -41 26 0 36 17 21 35 -14 17 -20 18 -39
6z"/>
<path d="M3300 2333 c-53 -8 -70 -14 -70 -23 0 -6 9 -10 20 -10 11 0 20 -6 20
-14 0 -8 -9 -58 -20 -111 -11 -53 -20 -99 -20 -101 0 -2 11 -4 25 -4 19 0 26
7 31 28 12 57 26 89 57 134 36 54 56 66 73 44 23 -31 44 -12 44 40 0 19 -5 24
-27 24 -19 0 -39 -14 -71 -47 l-44 -48 7 48 c4 26 6 46 4 46 -2 -1 -15 -3 -29
-6z"/>
<path d="M3549 2317 c-37 -24 -50 -67 -28 -93 6 -8 33 -26 60 -40 26 -15 50
-33 53 -40 14 -37 -31 -68 -84 -58 -23 5 -30 12 -30 30 0 27 -24 33 -34 8 -13
-35 -6 -51 25 -58 81 -16 149 6 169 54 18 44 5 66 -65 105 -36 20 -65 40 -65
45 0 18 40 50 60 50 12 0 32 -12 45 -26 26 -28 45 -25 45 6 0 44 -95 55 -151
17z"/>
<path d="M24 2239 c-3 -6 0 -17 8 -25 12 -12 17 -12 32 -1 11 8 16 19 12 25
-9 15 -43 15 -52 1z"/>
<path d="M4924 2239 c-3 -6 0 -17 8 -25 12 -12 17 -12 33 1 17 13 18 16 5 25
-20 13 -37 13 -46 -1z"/>
<path d="M44 2109 c-3 -6 1 -18 10 -27 15 -15 17 -15 34 1 15 16 15 19 2 27
-20 13 -37 12 -46 -1z"/>
<path d="M4904 2105 c-4 -9 0 -24 10 -33 15 -15 18 -15 26 -2 6 8 9 22 7 30
-3 21 -36 25 -43 5z"/>
<path d="M70 1984 c-11 -12 -10 -18 3 -31 22 -23 52 0 36 28 -12 23 -22 24
-39 3z"/>
<path d="M4876 1974 c-12 -31 21 -47 43 -21 8 10 7 17 -1 25 -17 17 -35 15
-42 -4z"/>
<path d="M101 1846 c-18 -21 11 -41 39 -26 17 9 19 14 9 26 -15 18 -33 18 -48
0z"/>
<path d="M4846 1844 c-4 -10 0 -24 9 -33 14 -14 17 -14 25 -1 6 8 9 22 7 30
-3 21 -33 24 -41 4z"/>
<path d="M2896 1785 c-4 -10 1 -15 14 -15 26 0 26 -3 -11 -176 -35 -166 -34
-171 39 -181 54 -7 83 1 123 34 68 57 91 172 44 218 -33 34 -58 31 -105 -11
-22 -20 -40 -32 -40 -28 0 5 9 46 19 92 l19 82 -48 0 c-33 0 -50 -5 -54 -15z
m176 -169 c9 -20 6 -36 -12 -83 -27 -70 -62 -105 -99 -101 -22 2 -27 9 -29 37
-5 47 23 115 59 146 38 32 66 32 81 1z"/>
<path d="M3547 1793 c-13 -12 -7 -23 13 -23 11 0 20 -3 20 -6 0 -8 -60 -287
-65 -302 -3 -7 4 -21 15 -32 32 -32 116 -28 167 9 41 29 70 77 74 121 5 55 -2
91 -21 110 -30 30 -64 25 -104 -15 -20 -19 -37 -35 -40 -35 -2 0 5 37 15 83
10 45 19 85 19 90 0 9 -84 10 -93 0z m167 -169 c11 -29 6 -56 -20 -114 -29
-64 -71 -94 -103 -73 -20 14 -19 79 3 122 36 68 104 106 120 65z"/>
<path d="M147 1732 c-15 -16 -15 -21 -3 -38 14 -18 16 -18 32 -2 15 14 15 18
2 37 -14 20 -15 20 -31 3z"/>
<path d="M4814 1715 c-6 -15 2 -35 14 -35 4 0 16 7 27 16 17 13 18 16 5 24
-22 14 -40 12 -46 -5z"/>
<path d="M3290 1679 c-42 -17 -89 -70 -106 -121 -38 -115 41 -193 125 -123
l30 26 3 -23 c4 -33 71 -39 88 -8 10 19 9 20 -14 14 -32 -8 -32 -7 -1 110 14
52 25 97 25 101 0 11 -68 35 -97 34 -15 0 -39 -5 -53 -10z m72 -20 c17 -9 19
-17 14 -52 -12 -72 -41 -125 -80 -144 -47 -22 -61 -9 -60 56 1 55 32 114 72
136 33 18 29 17 54 4z"/>
<path d="M3827 1673 c-12 -11 -8 -23 8 -23 21 0 30 -27 51 -142 14 -79 15
-102 5 -127 -25 -58 -71 -78 -71 -30 0 29 -27 23 -33 -8 -3 -16 -3 -31 0 -35
6 -11 61 -10 83 2 21 11 220 341 220 365 0 7 -39 6 -67 -1 -28 -8 -30 -24 -3
-24 11 0 20 -3 20 -6 0 -13 -82 -154 -90 -154 -4 0 -15 43 -25 95 l-17 95 -37
0 c-21 0 -41 -3 -44 -7z"/>
<path d="M191 1596 c-14 -17 9 -39 33 -30 19 7 20 16 4 32 -15 15 -23 15 -37
-2z"/>
<path d="M4764 1595 c-12 -29 15 -45 45 -26 12 8 12 12 2 25 -17 20 -40 21
-47 1z"/>
<path d="M240 1474 c-11 -12 -10 -18 3 -31 15 -15 18 -15 37 2 19 17 19 19 2
31 -22 17 -27 17 -42 -2z"/>
<path d="M4714 1475 c-7 -17 2 -45 13 -45 4 0 17 7 27 15 20 15 20 15 0 30
-24 18 -33 19 -40 0z"/>
<path d="M4099 1454 c-13 -16 -4 -44 19 -52 18 -6 36 37 21 54 -15 18 -23 18
-40 -2z"/>
<path d="M300 1360 c-13 -25 -5 -40 21 -40 19 0 24 15 13 44 -8 22 -21 20 -34
-4z"/>
<path d="M4657 1363 c-12 -11 -7 -41 7 -46 8 -3 22 3 31 13 16 17 15 19 -4 29
-23 13 -26 13 -34 4z"/>
<path d="M365 1240 c-8 -24 1 -40 21 -40 20 0 29 27 14 45 -17 20 -27 19 -35
-5z"/>
<path d="M4584 1235 c-4 -9 0 -24 10 -33 15 -15 18 -15 26 -2 6 8 9 22 7 30
-3 21 -36 25 -43 5z"/>
<path d="M440 1125 c-19 -22 5 -48 31 -34 10 5 19 14 19 19 0 5 -9 14 -19 19
-14 8 -22 7 -31 -4z"/>
<path d="M4523 1133 c-17 -6 -17 -38 0 -51 20 -17 44 25 25 43 -7 7 -19 11
-25 8z"/>
<path d="M4440 1025 c-15 -18 -6 -45 14 -45 20 0 29 16 21 40 -8 24 -18 25
-35 5z"/>
<path d="M514 1015 c-12 -29 15 -45 45 -26 12 8 12 12 2 25 -17 20 -40 21 -47
1z"/>
<path d="M595 910 c-6 -10 15 -50 26 -50 8 0 19 26 19 46 0 16 -36 19 -45 4z"/>
<path d="M4353 904 c-3 -8 -1 -20 5 -26 15 -15 43 8 35 28 -7 19 -32 18 -40
-2z"/>
<path d="M690 814 c-11 -12 -11 -18 1 -29 13 -13 18 -13 37 1 22 15 22 17 5
30 -23 17 -28 17 -43 -2z"/>
<path d="M4270 815 c-19 -23 5 -48 31 -32 10 6 19 14 19 17 0 3 -9 11 -19 17
-15 10 -22 9 -31 -2z"/>
<path d="M785 719 c-10 -30 11 -48 32 -27 13 14 14 20 3 32 -17 22 -27 20 -35
-5z"/>
<path d="M4167 716 c-9 -23 18 -39 43 -26 17 9 19 14 9 26 -15 18 -45 18 -52
0z"/>
<path d="M880 620 c0 -26 25 -36 45 -20 12 10 13 16 4 26 -18 22 -49 17 -49
-6z"/>
<path d="M4073 624 c-9 -24 11 -38 37 -24 17 9 19 14 9 26 -15 19 -38 18 -46
-2z"/>
<path d="M991 551 c-16 -10 -8 -41 11 -41 7 0 19 4 27 9 12 8 12 12 2 25 -15
18 -21 19 -40 7z"/>
<path d="M3964 545 c-12 -29 15 -45 45 -26 12 8 12 12 2 25 -17 20 -40 21 -47
1z"/>
<path d="M1097 473 c-24 -23 12 -55 38 -33 12 10 13 16 4 26 -12 15 -31 18
-42 7z"/>
<path d="M3854 465 c-4 -9 0 -24 10 -33 15 -15 18 -15 26 -2 6 8 9 22 7 30 -3
21 -36 25 -43 5z"/>
<path d="M3750 405 c-15 -18 -6 -45 14 -45 20 0 29 16 21 40 -8 24 -18 25 -35
5z"/>
<path d="M1204 395 c-8 -20 4 -35 26 -35 25 0 35 17 20 35 -16 19 -39 19 -46
0z"/>
<path d="M1327 343 c-11 -10 -8 -41 4 -49 6 -3 18 1 27 9 13 13 13 19 2 31
-14 17 -23 20 -33 9z"/>
<path d="M3631 327 c-8 -10 -7 -19 4 -33 15 -19 15 -19 30 0 11 14 12 23 4 33
-6 7 -15 13 -19 13 -4 0 -13 -6 -19 -13z"/>
<path d="M1446 277 c-15 -11 -17 -17 -7 -35 15 -28 27 -28 42 -1 8 17 8 24 -3
35 -12 12 -17 12 -32 1z"/>
<path d="M3509 274 c-19 -24 11 -50 40 -35 27 15 27 25 -3 39 -19 9 -27 8 -37
-4z"/>
<path d="M1567 223 c-24 -23 12 -55 38 -33 12 10 13 16 4 26 -12 15 -31 18
-42 7z"/>
<path d="M3390 215 c-11 -13 -11 -19 4 -33 15 -15 18 -15 26 -2 22 33 -6 64
-30 35z"/>
<path d="M3272 188 c-15 -15 -15 -45 -1 -54 6 -3 18 0 26 9 14 13 14 18 1 36
-11 16 -17 18 -26 9z"/>
<path d="M1689 174 c-10 -12 -9 -18 4 -31 13 -13 19 -14 31 -3 21 17 20 27 -3
39 -14 8 -22 7 -32 -5z"/>
<path d="M1822 148 c-26 -26 -7 -62 26 -51 16 6 16 38 -1 52 -10 8 -17 7 -25
-1z"/>
<path d="M3141 141 c-16 -29 3 -58 25 -40 17 14 17 20 0 44 -13 18 -14 18 -25
-4z"/>
<path d="M3004 105 c-8 -21 2 -45 20 -45 17 0 28 24 20 45 -4 8 -13 15 -20 15
-8 0 -17 -7 -20 -15z"/>
<path d="M1930 95 c-10 -12 -7 -17 14 -26 31 -14 53 -1 43 25 -8 20 -41 21
-57 1z"/>
<path d="M2875 80 c-8 -24 1 -40 21 -40 20 0 29 27 14 45 -17 20 -27 19 -35
-5z"/>
<path d="M2080 75 c-22 -26 7 -46 39 -26 12 8 12 12 2 25 -17 20 -25 20 -41 1z"/>
<path d="M2207 56 c-8 -19 16 -38 37 -30 20 8 21 30 0 38 -24 9 -31 7 -37 -8z"/>
<path d="M2741 57 c-8 -10 -7 -19 3 -32 12 -16 16 -17 30 -6 20 17 21 37 0 45
-21 8 -20 8 -33 -7z"/>
<path d="M2347 53 c-24 -23 12 -55 38 -33 12 10 13 16 4 26 -12 15 -31 18 -42
7z"/>
<path d="M2612 48 c-8 -8 -9 -15 -1 -25 15 -17 34 -17 48 1 10 12 8 17 -8 25
-24 14 -24 14 -39 -1z"/>
<path d="M2470 41 c0 -21 13 -41 26 -41 8 0 14 4 14 9 0 5 3 16 6 25 5 12 0
16 -20 16 -14 0 -26 -4 -26 -9z"/>
</g>
</svg>
