<?xml version="1.0" standalone="no"?>
<!DOCTYPE svg PUBLIC "-//W3C//DTD SVG 20010904//EN"
 "http://www.w3.org/TR/2001/REC-SVG-20010904/DTD/svg10.dtd">
<svg version="1.0" xmlns="http://www.w3.org/2000/svg"
 width="496.000000pt" height="500.000000pt" viewBox="0 0 496.000000 500.000000"
 preserveAspectRatio="xMidYMid meet">
<metadata>
Created by potrace 1.15, written by Peter Selinger 2001-2017
</metadata>
<g transform="translate(0.000000,500.000000) scale(0.100000,-0.100000)"
fill="#000000" stroke="none">
<path d="M2330 4975 c-16 -19 8 -59 27 -43 17 14 17 45 -1 51 -8 3 -20 0 -26
-8z"/>
<path d="M2462 4978 c-8 -8 -9 -15 -1 -25 15 -17 34 -17 48 1 10 12 8 17 -8
25 -24 14 -24 14 -39 -1z"/>
<path d="M2593 4974 c-3 -8 1 -22 9 -30 12 -12 17 -12 33 0 16 12 17 16 6 30
-17 20 -40 21 -48 0z"/>
<path d="M2201 4966 c-18 -22 4 -62 25 -45 18 15 18 33 0 48 -10 9 -16 8 -25
-3z"/>
<path d="M2730 4965 c-15 -18 -5 -35 20 -35 10 0 22 5 25 10 7 11 -12 40 -25
40 -4 0 -13 -7 -20 -15z"/>
<path d="M2064 4945 c-12 -29 15 -45 45 -26 12 8 12 12 2 25 -17 20 -40 21
-47 1z"/>
<path d="M2860 4945 c-15 -18 -5 -35 20 -35 10 0 22 5 25 10 7 11 -12 40 -25
40 -4 0 -13 -7 -20 -15z"/>
<path d="M1933 4914 c-3 -8 1 -22 9 -30 13 -13 16 -13 27 0 7 9 11 23 7 31 -7
20 -35 19 -43 -1z"/>
<path d="M2984 4919 c-3 -6 1 -18 10 -27 15 -15 17 -15 32 0 19 19 11 38 -16
38 -10 0 -22 -5 -26 -11z"/>
<path d="M1806 4891 c-9 -14 4 -41 19 -41 7 0 18 7 26 16 10 13 10 17 -2 25
-18 11 -36 11 -43 0z"/>
<path d="M3120 4885 c-10 -12 -10 -18 0 -31 12 -13 15 -13 28 0 15 15 10 46
-6 46 -5 0 -15 -7 -22 -15z"/>
<path d="M1681 4846 c-9 -10 -8 -16 3 -25 20 -17 60 7 44 26 -14 17 -33 17
-47 -1z"/>
<path d="M3240 4850 c-13 -8 -13 -11 2 -26 14 -14 20 -15 32 -5 16 13 11 41
-8 41 -6 0 -18 -5 -26 -10z"/>
<path d="M1563 4813 c-16 -6 -17 -25 -1 -41 12 -12 48 1 48 18 0 13 -32 28
-47 23z"/>
<path d="M3370 4804 c-11 -12 -10 -18 3 -32 16 -15 18 -15 34 0 13 14 14 20 3
32 -7 9 -16 16 -20 16 -4 0 -13 -7 -20 -16z"/>
<path d="M1427 4746 c-3 -8 2 -21 12 -30 16 -15 20 -15 31 -1 7 8 10 22 6 30
-7 19 -42 20 -49 1z"/>
<path d="M3485 4750 c-3 -5 -1 -19 5 -30 9 -17 14 -19 26 -9 21 17 18 49 -5
49 -11 0 -23 -4 -26 -10z"/>
<path d="M1317 4693 c-25 -24 11 -49 40 -28 16 13 16 16 3 25 -17 11 -34 13
-43 3z"/>
<path d="M3605 4690 c-3 -5 -1 -19 5 -31 11 -20 12 -20 31 -3 14 13 16 20 8
31 -13 15 -35 17 -44 3z"/>
<path d="M1200 4630 c-14 -26 0 -46 24 -37 20 8 21 31 2 46 -12 10 -17 8 -26
-9z"/>
<path d="M3724 4625 c-12 -31 23 -48 45 -21 10 12 8 17 -8 25 -26 14 -31 14
-37 -4z"/>
<path d="M1090 4561 c-14 -27 -1 -47 24 -38 20 8 20 18 2 42 -13 18 -14 18
-26 -4z"/>
<path d="M3840 4555 c-10 -12 -10 -18 0 -29 13 -17 36 -12 44 10 8 21 -29 37
-44 19z"/>
<path d="M982 4483 c-18 -35 12 -59 36 -30 7 8 7 17 -2 30 -16 21 -23 21 -34
0z"/>
<path d="M3944 4475 c-12 -30 16 -45 46 -25 13 9 12 12 -4 25 -25 19 -35 19
-42 0z"/>
<path d="M874 4389 c-3 -6 1 -18 10 -27 15 -15 17 -15 34 1 15 16 15 19 2 27
-20 13 -37 12 -46 -1z"/>
<path d="M4044 4389 c-3 -6 0 -17 8 -25 12 -12 17 -12 33 1 17 13 18 16 5 25
-20 13 -37 13 -46 -1z"/>
<path d="M780 4305 c-19 -22 5 -48 31 -34 10 5 19 14 19 19 0 5 -9 14 -19 19
-14 8 -22 7 -31 -4z"/>
<path d="M4152 4308 c-27 -27 -3 -54 31 -36 22 11 22 25 -1 37 -13 7 -23 6
-30 -1z"/>
<path d="M3458 4253 c-22 -5 -24 -23 -3 -23 19 0 19 1 -10 -140 -14 -66 -23
-125 -20 -130 11 -18 75 -8 75 11 0 5 -9 9 -21 9 -15 0 -19 5 -15 18 3 9 15
62 26 117 11 55 22 110 25 123 4 18 1 22 -17 21 -13 -1 -31 -3 -40 -6z"/>
<path d="M1620 4240 c0 -5 9 -10 20 -10 25 0 25 -18 0 -135 -16 -73 -25 -94
-47 -112 l-28 -23 59 0 c59 0 59 0 41 20 -18 20 -18 24 -1 115 10 52 21 95 25
95 3 0 29 -51 57 -113 70 -156 82 -156 113 0 26 130 35 153 56 153 8 0 15 5
15 10 0 6 -22 10 -50 10 -53 0 -60 -5 -34 -24 15 -11 14 -20 -2 -104 -9 -51
-20 -92 -23 -92 -3 0 -26 44 -50 98 -24 53 -50 103 -59 110 -19 14 -92 16 -92
2z"/>
<path d="M2330 4240 c0 -5 9 -10 20 -10 11 0 20 -2 20 -4 0 -6 -38 -191 -46
-220 -4 -17 -13 -26 -25 -26 -10 0 -19 -4 -19 -10 0 -6 28 -10 65 -10 37 0 65
4 65 10 0 6 -9 10 -20 10 -23 0 -24 2 -8 69 10 47 14 51 40 51 25 0 28 -3 23
-21 -5 -15 -3 -20 6 -17 15 5 44 96 34 106 -3 3 -16 -6 -28 -22 -30 -37 -59
-28 -50 17 10 53 21 67 54 67 41 0 69 -16 69 -40 0 -11 7 -20 15 -20 8 0 15 8
15 18 0 9 3 27 6 40 6 22 6 22 -115 22 -74 0 -121 -4 -121 -10z"/>
<path d="M685 4210 c-8 -12 3 -50 14 -50 15 0 33 30 27 45 -6 17 -32 20 -41 5z"/>
<path d="M3067 4182 c-29 -29 -35 -41 -24 -45 13 -5 12 -15 -1 -81 -8 -41 -12
-82 -9 -90 8 -21 51 -20 68 1 13 15 12 16 -8 11 -27 -7 -28 0 -10 87 11 51 17
62 42 75 28 13 28 15 8 18 -16 2 -23 11 -25 33 l-3 30 -38 -39z"/>
<path d="M4234 4205 c-4 -9 0 -24 10 -33 15 -15 18 -15 26 -2 6 8 9 22 7 30
-3 21 -36 25 -43 5z"/>
<path d="M2002 4154 c-43 -30 -66 -105 -48 -160 7 -23 45 -44 79 -44 69 0 130
94 107 164 -6 20 -20 41 -30 46 -28 15 -83 12 -108 -6z m88 -23 c15 -29 12
-82 -8 -121 -14 -28 -23 -35 -47 -35 -44 0 -59 37 -41 99 8 26 20 53 26 61 18
21 57 18 70 -4z"/>
<path d="M2622 4156 c-38 -21 -62 -66 -62 -118 0 -61 35 -93 93 -85 48 7 66
21 90 76 34 77 3 141 -68 141 -16 -1 -40 -6 -53 -14z m83 -84 c0 -67 -21 -102
-60 -102 -47 0 -60 55 -31 125 23 54 43 69 70 51 17 -11 21 -24 21 -74z"/>
<path d="M2860 4144 c-63 -54 -80 -132 -35 -174 20 -19 31 -22 66 -17 23 3 49
13 58 23 15 16 15 16 -4 10 -55 -20 -73 -19 -90 7 -21 33 -15 42 43 61 62 21
92 42 92 66 0 53 -78 67 -130 24z m80 -16 c0 -13 -4 -28 -8 -34 -8 -12 -73
-36 -79 -30 -6 6 27 69 41 78 23 16 46 8 46 -14z"/>
<path d="M3210 4132 c-44 -44 -59 -96 -40 -142 16 -38 51 -48 86 -25 24 16 27
16 44 0 13 -12 28 -15 45 -11 30 8 34 26 5 26 -22 0 -22 4 7 110 14 50 13 55
-3 67 -10 7 -38 13 -62 13 -38 0 -50 -5 -82 -38z m110 -14 c-1 -74 -62 -156
-96 -127 -18 15 -18 39 3 91 22 59 31 68 64 68 26 0 29 -3 29 -32z"/>
<path d="M594 4105 c-13 -32 23 -48 47 -19 10 13 10 17 -2 25 -21 13 -39 11
-45 -6z"/>
<path d="M4321 4106 c-9 -10 -8 -16 4 -26 13 -11 19 -11 32 2 16 17 10 38 -11
38 -8 0 -19 -6 -25 -14z"/>
<path d="M511 4007 c-8 -10 -7 -19 4 -33 13 -18 15 -18 31 -2 14 14 15 20 4
32 -15 19 -24 20 -39 3z"/>
<path d="M4410 4005 c-15 -18 -5 -35 20 -35 10 0 22 5 25 10 7 11 -12 40 -25
40 -4 0 -13 -7 -20 -15z"/>
<path d="M441 3906 c-16 -19 -7 -46 14 -46 22 0 30 29 13 46 -13 13 -16 13
-27 0z"/>
<path d="M4490 3905 c-15 -18 -6 -45 14 -45 20 0 29 16 21 40 -8 24 -18 25
-35 5z"/>
<path d="M364 3785 c-4 -9 -2 -21 4 -27 15 -15 44 -1 40 19 -4 23 -36 29 -44
8z"/>
<path d="M4560 3785 c-15 -18 -5 -35 20 -35 10 0 22 5 25 10 7 11 -12 40 -25
40 -4 0 -13 -7 -20 -15z"/>
<path d="M1080 3741 c-41 -22 -59 -68 -42 -106 7 -15 34 -36 67 -52 30 -15 58
-36 61 -46 10 -32 -27 -72 -70 -75 -45 -4 -69 13 -63 45 3 18 0 23 -11 21 -9
-2 -19 -18 -23 -36 -8 -42 9 -52 90 -52 49 0 65 4 89 25 35 29 48 74 32 104
-6 12 -37 34 -69 51 -32 16 -61 36 -65 45 -12 33 29 75 72 75 23 0 52 -30 52
-54 0 -29 24 -12 31 23 6 28 4 34 -18 42 -39 15 -95 11 -133 -10z"/>
<path d="M1815 3755 c-5 -2 -22 -6 -37 -9 -29 -7 -39 -26 -13 -26 11 0 14 -7
11 -22 -46 -217 -50 -240 -35 -249 20 -12 32 -11 55 6 19 14 18 14 -3 15 -13
0 -23 2 -23 3 0 2 13 66 29 143 17 76 29 139 28 140 -1 1 -6 0 -12 -1z"/>
<path d="M3845 3745 c-34 -11 -37 -14 -19 -20 16 -5 19 -13 16 -36 -4 -26 -8
-29 -41 -29 -45 0 -95 -30 -116 -69 -22 -43 -20 -106 5 -131 25 -25 41 -25 74
1 l26 21 18 -22 c13 -17 24 -21 40 -16 25 8 30 26 7 26 -19 0 -20 -6 11 144
14 70 24 130 22 135 -2 4 -21 2 -43 -4z m-26 -108 c16 -20 -11 -117 -39 -139
-29 -23 -57 -23 -70 1 -7 15 -5 31 11 68 33 78 69 104 98 70z"/>
<path d="M2567 3743 c-16 -4 -17 -6 -3 -16 13 -11 12 -25 -9 -127 -13 -63 -24
-123 -25 -132 0 -25 47 -35 68 -14 15 15 15 16 -6 16 -12 0 -22 3 -22 8 0 4
13 67 28 140 28 131 28 132 8 131 -12 -1 -29 -3 -39 -6z"/>
<path d="M2260 3730 c0 -5 7 -10 15 -10 20 0 19 -27 -5 -140 -23 -105 -26
-110 -45 -110 -8 0 -17 -4 -20 -10 -4 -6 38 -10 119 -10 137 0 127 -5 141 70
l6 35 -33 -38 c-30 -34 -37 -37 -85 -37 -58 0 -58 0 -42 66 9 36 15 44 34 44
17 0 25 -7 28 -22 3 -20 6 -18 21 16 9 21 16 50 14 65 l-4 26 -14 -27 c-9 -19
-21 -28 -37 -28 -23 0 -24 2 -18 43 4 23 9 45 12 50 2 4 26 7 53 7 46 0 49 -2
55 -31 9 -40 29 -32 33 14 l3 37 -115 0 c-71 0 -116 -4 -116 -10z"/>
<path d="M3160 3709 c0 -7 -16 -27 -36 -45 -23 -22 -30 -34 -20 -34 20 0 20
-2 1 -91 -12 -54 -12 -75 -4 -85 16 -19 44 -18 60 3 13 15 12 16 -8 11 -27 -7
-27 -12 -6 84 15 70 19 78 40 78 29 0 30 16 2 23 -18 5 -20 11 -14 36 4 20 3
31 -4 31 -6 0 -11 -5 -11 -11z"/>
<path d="M4625 3669 c-10 -30 11 -48 32 -27 13 14 14 20 3 32 -17 22 -27 20
-35 -5z"/>
<path d="M296 3663 c-6 -15 8 -32 25 -33 13 0 31 29 24 40 -10 16 -42 12 -49
-7z"/>
<path d="M1566 3655 c-50 -17 -62 -30 -82 -80 -34 -90 7 -156 75 -121 28 15
33 15 55 1 19 -13 29 -14 45 -5 27 14 27 24 1 17 -24 -6 -24 -2 -4 75 22 85
17 111 -23 119 -17 3 -47 1 -67 -6z m48 -11 c44 -17 -14 -164 -65 -164 -10 0
-22 8 -28 17 -12 23 20 111 50 136 24 19 22 19 43 11z"/>
<path d="M2756 3660 c-57 -17 -96 -73 -96 -139 0 -65 44 -92 114 -69 22 7 41
19 44 26 3 9 -3 10 -23 2 -46 -17 -74 -12 -87 16 -14 29 -6 38 52 54 50 14 80
38 80 63 0 44 -33 62 -84 47z m44 -30 c0 -30 -26 -60 -57 -66 -19 -4 -36 -4
-38 -2 -3 2 7 21 21 41 17 26 32 37 49 37 14 0 25 -4 25 -10z"/>
<path d="M4024 3658 c-41 -10 -91 -68 -100 -113 -7 -39 11 -76 47 -96 25 -13
78 -5 105 16 17 14 15 15 -31 9 -52 -6 -64 0 -78 38 -5 13 5 20 46 34 72 23
97 40 97 68 0 39 -36 58 -86 44z m43 -35 c7 -19 -43 -63 -72 -63 -23 0 -25 2
-14 23 20 38 42 58 63 55 11 -2 21 -8 23 -15z"/>
<path d="M1315 3638 c-57 -45 -72 -132 -29 -175 21 -21 32 -24 62 -20 19 4 42
13 50 21 13 13 10 14 -25 9 -54 -7 -77 16 -70 69 6 48 30 85 64 101 23 10 28
9 41 -11 18 -27 28 -28 35 -3 10 38 -83 44 -128 9z"/>
<path d="M1969 3633 c-30 -25 -31 -26 -25 -5 7 20 4 22 -28 22 -19 0 -38 -4
-41 -10 -3 -5 1 -10 9 -10 20 0 20 5 -5 -120 -12 -58 -28 -113 -37 -122 -14
-17 -12 -18 39 -18 48 1 52 2 36 15 -11 8 -17 23 -15 36 2 18 11 24 38 27 80
9 130 59 130 132 0 78 -43 101 -101 53z m61 -24 c10 -17 6 -31 -17 -77 -25
-50 -32 -57 -58 -57 -39 0 -44 28 -16 83 37 72 70 91 91 51z"/>
<path d="M2938 3645 c-56 -31 -84 -144 -45 -182 21 -21 87 -24 111 -4 22 19
14 24 -18 11 -44 -16 -66 2 -66 56 0 56 23 102 58 115 23 9 29 7 45 -12 15
-19 20 -20 28 -8 5 7 7 19 6 24 -6 16 -90 16 -119 0z"/>
<path d="M3285 3653 c-34 -5 -59 -23 -32 -23 20 0 21 -15 2 -100 -18 -83 -18
-80 3 -80 13 0 21 13 30 46 13 47 66 134 82 134 5 0 12 -5 16 -12 5 -7 11 -5
21 7 19 27 16 35 -11 35 -15 0 -36 -14 -57 -37 l-32 -38 6 38 c3 20 5 36 4 36
-1 -1 -15 -4 -32 -6z"/>
<path d="M3492 3644 c-32 -22 -52 -67 -52 -118 0 -36 5 -48 26 -65 32 -25 55
-26 98 -6 63 30 94 138 52 184 -23 26 -91 29 -124 5z m79 -4 c22 -12 25 -62 8
-123 -17 -62 -78 -76 -99 -23 -12 34 14 120 43 141 26 18 23 18 48 5z"/>
<path d="M241 3556 c-13 -16 -4 -46 14 -46 7 0 18 7 25 15 10 12 10 18 0 30
-15 19 -24 19 -39 1z"/>
<path d="M4687 3563 c-11 -10 -8 -41 4 -49 6 -3 18 1 27 9 13 13 13 19 2 31
-14 17 -23 20 -33 9z"/>
<path d="M190 3425 c-10 -12 -10 -18 0 -31 12 -13 15 -13 28 0 15 15 10 46 -6
46 -5 0 -15 -7 -22 -15z"/>
<path d="M4737 3433 c-24 -23 12 -55 38 -33 12 10 13 16 4 26 -12 15 -31 18
-42 7z"/>
<path d="M137 3303 c-10 -9 -8 -15 8 -37 15 -19 15 -19 29 -1 8 11 12 25 9 32
-5 14 -35 18 -46 6z"/>
<path d="M4783 3294 c-9 -24 11 -38 35 -23 16 10 18 16 10 26 -14 18 -37 16
-45 -3z"/>
<path d="M104 3183 c-14 -24 -7 -43 16 -43 25 0 33 15 20 40 -13 25 -22 25
-36 3z"/>
<path d="M4820 3174 c-11 -12 -10 -18 3 -32 16 -15 18 -15 34 0 13 14 14 20 3
32 -7 9 -16 16 -20 16 -4 0 -13 -7 -20 -16z"/>
<path d="M2305 3139 c-322 -44 -627 -222 -821 -478 -77 -101 -175 -295 -204
-402 -71 -262 -67 -527 11 -763 261 -788 1190 -1103 1885 -641 162 108 329
303 419 490 135 279 161 604 73 910 -126 438 -498 780 -948 870 -95 19 -324
27 -415 14z m404 -204 c57 -15 140 -42 183 -60 68 -29 221 -123 296 -183 l23
-18 -158 -140 c-87 -77 -336 -298 -553 -490 -701 -622 -874 -774 -881 -774
-11 0 -98 153 -129 228 -70 165 -105 394 -81 517 65 327 235 611 446 747 140
90 302 162 440 193 97 23 288 13 414 -20z m674 -492 c61 -103 83 -156 117
-289 63 -243 62 -345 -5 -549 -86 -263 -222 -459 -402 -578 -138 -92 -301
-163 -443 -193 -245 -52 -582 36 -828 217 -68 50 -81 64 -70 74 7 6 153 135
323 286 484 428 810 718 1039 921 116 103 213 188 217 188 3 0 26 -35 52 -77z"/>
<path d="M2094 2720 c-32 -13 -39 -30 -12 -30 21 -1 22 -2 6 -14 -10 -7 -18
-16 -18 -18 0 -12 71 -38 103 -38 20 0 47 -4 62 -10 22 -8 24 -13 15 -30 -13
-25 -42 -27 -38 -2 3 14 -7 18 -60 23 -47 4 -69 12 -88 30 -23 21 -26 22 -23
5 2 -11 19 -26 36 -35 18 -9 33 -21 33 -27 0 -7 -14 -44 -31 -84 l-30 -72 59
-173 c49 -140 71 -187 117 -256 86 -126 96 -120 39 23 -38 95 -40 121 -10 126
25 5 38 -10 45 -55 4 -27 13 -41 29 -48 14 -6 26 -22 29 -38 7 -36 28 -29 28
9 0 20 -7 32 -22 39 -17 7 -21 15 -17 32 3 12 -1 36 -10 54 -19 39 -19 39 -2
39 8 0 38 -27 67 -60 29 -33 56 -60 60 -60 13 0 11 27 -3 50 -11 17 -10 22 1
29 15 10 6 48 -30 126 -10 22 -34 82 -53 134 -20 53 -47 107 -63 123 -22 24
-28 39 -28 76 l0 47 -75 3 c-113 4 -130 35 -34 62 31 9 41 16 32 21 -17 11
-87 10 -114 -1z m196 -226 c20 -21 130 -274 130 -299 0 -12 -5 -15 -16 -11 -9
3 -39 9 -68 12 -56 7 -83 -2 -123 -39 -13 -11 -26 -18 -29 -15 -3 4 -24 73
-46 153 l-40 148 19 26 c11 14 31 32 44 39 32 17 107 9 129 -14z"/>
<path d="M2575 1810 c-3 -5 0 -20 6 -32 40 -75 241 -369 353 -517 166 -220
155 -206 162 -198 18 17 -54 135 -180 293 -48 60 -139 189 -203 287 -63 97
-119 177 -124 177 -4 0 -11 -4 -14 -10z"/>
<path d="M2500 1746 c0 -2 7 -20 15 -39 8 -20 15 -55 15 -78 0 -42 13 -49 34
-17 15 25 -22 138 -46 138 -10 0 -18 -2 -18 -4z"/>
<path d="M2410 1661 c0 -8 97 -164 300 -484 52 -81 96 -144 98 -139 1 5 -21
47 -50 93 -29 47 -116 187 -193 312 -127 205 -155 245 -155 218z"/>
<path d="M2580 1608 c0 -7 4 -29 9 -48 6 -19 15 -54 21 -77 16 -64 30 -52 30
25 0 53 -4 72 -17 84 -30 25 -43 30 -43 16z"/>
<path d="M2677 1433 c3 -21 9 -51 13 -68 l8 -30 1 27 c1 15 6 30 12 34 8 4 10
-8 8 -40 -5 -51 5 -62 14 -17 10 47 -21 131 -48 131 -10 0 -12 -9 -8 -37z"/>
<path d="M2765 1317 c-3 -7 6 -44 19 -82 25 -72 31 -71 17 3 -13 64 7 50 26
-18 10 -38 19 -56 24 -48 9 15 10 14 38 -32 11 -19 21 -29 21 -21 0 7 -15 34
-33 60 -18 25 -46 70 -62 99 -28 52 -42 63 -50 39z"/>
<path d="M71 3047 c-8 -10 -7 -19 3 -33 14 -18 15 -18 35 0 17 16 18 20 6 32
-17 18 -29 18 -44 1z"/>
<path d="M4863 3053 c-17 -6 -17 -38 0 -51 20 -17 44 25 25 43 -7 7 -19 11
-25 8z"/>
<path d="M51 2926 c-16 -19 -7 -46 14 -46 22 0 30 29 13 46 -13 13 -16 13 -27
0z"/>
<path d="M4880 2914 c-11 -12 -10 -18 3 -32 16 -15 18 -15 34 0 13 14 14 20 3
32 -7 9 -16 16 -20 16 -4 0 -13 -7 -20 -16z"/>
<path d="M30 2790 c-15 -28 5 -57 26 -39 18 15 18 33 0 48 -12 10 -17 8 -26
-9z"/>
<path d="M4900 2795 c-12 -14 -5 -55 9 -55 20 0 32 29 21 49 -13 25 -14 25
-30 6z"/>
<path d="M16 2643 c-4 -9 -1 -23 7 -30 12 -12 16 -12 26 1 16 19 8 46 -13 46
-7 0 -17 -8 -20 -17z"/>
<path d="M4905 2650 c-8 -12 3 -50 14 -50 15 0 33 30 27 45 -6 17 -32 20 -41
5z"/>
<path d="M18 2523 c-25 -6 -22 -30 3 -38 25 -8 44 7 36 29 -7 16 -9 17 -39 9z"/>
<path d="M4911 2516 c-10 -12 -10 -19 2 -36 12 -18 16 -18 26 -6 14 17 11 48
-5 53 -6 2 -17 -3 -23 -11z"/>
<path d="M20 2390 c-13 -25 3 -52 26 -43 18 7 18 37 0 52 -12 10 -17 8 -26 -9z"/>
<path d="M4903 2374 c-3 -8 1 -22 9 -30 13 -13 16 -13 27 0 7 9 11 23 7 31 -7
20 -35 19 -43 -1z"/>
<path d="M24 2249 c-3 -6 1 -18 10 -27 15 -15 17 -15 34 1 15 16 15 19 2 27
-20 13 -37 12 -46 -1z"/>
<path d="M4894 2249 c-3 -6 1 -18 9 -27 13 -13 19 -13 32 -2 12 10 13 16 4 26
-14 17 -35 18 -45 3z"/>
<path d="M44 2115 c-4 -9 -2 -21 4 -27 15 -15 44 -1 40 19 -4 23 -36 29 -44 8z"/>
<path d="M4875 2120 c-11 -18 6 -51 23 -48 21 4 28 38 10 49 -17 11 -26 11
-33 -1z"/>
<path d="M4855 1989 c-8 -25 6 -42 28 -33 13 5 14 10 5 30 -14 30 -25 31 -33
3z"/>
<path d="M70 1985 c-6 -8 -9 -19 -5 -25 9 -15 41 -12 54 4 10 12 8 17 -8 25
-25 14 -26 14 -41 -4z"/>
<path d="M103 1861 c-15 -23 5 -45 31 -35 19 7 21 25 4 42 -16 16 -21 15 -35
-7z"/>
<path d="M4820 1855 c-10 -12 -10 -18 0 -30 15 -18 20 -18 44 0 20 15 20 15 0
30 -24 18 -29 18 -44 0z"/>
<path d="M137 1726 c-6 -15 11 -36 29 -36 21 0 35 25 22 38 -16 16 -45 15 -51
-2z"/>
<path d="M4784 1725 c-12 -31 23 -48 45 -21 10 12 8 17 -8 25 -26 14 -31 14
-37 -4z"/>
<path d="M189 1604 c-15 -18 0 -38 27 -32 25 5 28 25 6 37 -15 8 -23 7 -33 -5z"/>
<path d="M4740 1605 c-19 -22 5 -48 31 -34 10 5 19 14 19 19 0 5 -9 14 -19 19
-14 8 -22 7 -31 -4z"/>
<path d="M4687 1493 c-11 -10 -8 -41 4 -49 6 -3 18 1 27 9 13 13 13 19 2 31
-14 17 -23 20 -33 9z"/>
<path d="M236 1481 c-8 -13 4 -41 18 -41 22 0 39 18 33 34 -7 17 -42 22 -51 7z"/>
<path d="M294 1359 c-3 -6 0 -18 9 -26 12 -12 18 -13 35 -2 16 10 18 16 10 26
-13 16 -44 17 -54 2z"/>
<path d="M4620 1351 c0 -25 24 -33 47 -16 16 13 16 16 3 25 -25 16 -50 12 -50
-9z"/>
<path d="M364 1245 c-12 -30 16 -45 46 -25 13 9 12 12 -4 25 -25 19 -35 19
-42 0z"/>
<path d="M4560 1245 c-15 -18 -5 -35 20 -35 10 0 22 5 25 10 7 11 -12 40 -25
40 -4 0 -13 -7 -20 -15z"/>
<path d="M4490 1134 c-11 -12 -10 -18 3 -32 16 -15 18 -15 34 0 13 14 14 20 3
32 -7 9 -16 16 -20 16 -4 0 -13 -7 -20 -16z"/>
<path d="M433 1124 c-3 -8 1 -22 9 -30 13 -13 16 -13 27 0 7 9 11 23 7 31 -7
20 -35 19 -43 -1z"/>
<path d="M4410 1030 c-13 -25 -5 -40 21 -40 19 0 24 15 13 44 -8 22 -21 20
-34 -4z"/>
<path d="M517 1033 c-4 -3 -7 -15 -7 -25 0 -19 25 -24 48 -9 11 6 10 11 -3 25
-18 17 -28 20 -38 9z"/>
<path d="M593 914 c-3 -8 1 -22 9 -30 13 -13 16 -13 27 0 7 9 11 23 7 31 -7
20 -35 19 -43 -1z"/>
<path d="M4326 921 c-10 -16 5 -42 23 -39 21 4 21 42 -1 46 -9 2 -19 -1 -22
-7z"/>
<path d="M687 823 c-25 -24 11 -49 40 -28 16 13 16 16 3 25 -17 11 -34 13 -43
3z"/>
<path d="M4234 819 c-3 -6 0 -17 8 -25 12 -12 17 -12 32 -1 11 8 16 19 12 25
-9 15 -43 15 -52 1z"/>
<path d="M780 725 c-21 -25 2 -42 36 -26 26 11 26 12 8 26 -24 18 -29 18 -44
0z"/>
<path d="M4144 725 c-4 -9 0 -24 10 -33 15 -15 18 -15 26 -2 6 8 9 22 7 30 -3
21 -36 25 -43 5z"/>
<path d="M880 635 c-10 -12 -10 -18 0 -31 12 -13 15 -13 28 0 15 15 10 46 -6
46 -5 0 -15 -7 -22 -15z"/>
<path d="M4046 633 c-9 -22 7 -36 33 -28 25 8 28 30 5 39 -24 9 -31 7 -38 -11z"/>
<path d="M983 561 c-12 -20 0 -41 23 -41 20 0 24 27 5 44 -15 14 -18 14 -28
-3z"/>
<path d="M3951 566 c-17 -20 -6 -49 16 -44 22 4 26 20 10 42 -12 16 -14 16
-26 2z"/>
<path d="M1086 474 c-11 -30 13 -44 43 -25 12 8 12 12 2 25 -17 20 -37 20 -45
0z"/>
<path d="M3834 475 c-12 -29 15 -45 45 -26 12 8 12 12 2 25 -17 20 -40 21 -47
1z"/>
<path d="M1200 404 c-11 -12 -11 -18 1 -29 13 -13 18 -13 37 1 22 15 22 17 5
30 -23 17 -28 17 -43 -2z"/>
<path d="M3727 413 c-11 -11 -8 -40 6 -51 19 -16 43 24 26 44 -13 15 -22 18
-32 7z"/>
<path d="M1315 340 c-8 -24 1 -40 21 -40 20 0 29 27 14 45 -17 20 -27 19 -35
-5z"/>
<path d="M3607 336 c-8 -21 19 -54 33 -40 7 7 10 20 8 30 -4 23 -33 30 -41 10z"/>
<path d="M1431 282 c-7 -13 -6 -23 1 -30 28 -28 63 3 38 33 -16 20 -27 19 -39
-3z"/>
<path d="M3493 283 c-18 -7 -16 -28 3 -44 13 -10 17 -10 25 2 18 28 1 54 -28
42z"/>
<path d="M1563 233 c-18 -7 -16 -28 3 -44 13 -10 17 -10 25 2 18 28 1 54 -28
42z"/>
<path d="M3372 228 c-7 -7 -12 -15 -12 -19 0 -14 32 -19 52 -8 19 10 19 11 1
24 -22 18 -26 18 -41 3z"/>
<path d="M1674 179 c-3 -6 1 -18 10 -27 15 -15 17 -15 32 0 9 9 13 21 10 27
-9 14 -43 14 -52 0z"/>
<path d="M3240 170 c0 -26 25 -36 45 -20 12 10 13 16 4 26 -18 22 -49 17 -49
-6z"/>
<path d="M3120 151 c-10 -20 -4 -51 10 -51 19 0 31 29 20 49 -13 26 -17 26
-30 2z"/>
<path d="M1811 146 c-13 -16 -4 -46 13 -46 13 0 36 20 36 32 0 4 -9 12 -19 17
-14 8 -22 7 -30 -3z"/>
<path d="M1933 104 c-3 -8 1 -22 9 -30 13 -13 16 -13 27 0 7 9 11 23 7 31 -7
20 -35 19 -43 -1z"/>
<path d="M2984 105 c-13 -32 23 -48 47 -19 10 13 10 17 -2 25 -21 13 -39 11
-45 -6z"/>
<path d="M2066 94 c-11 -29 -6 -44 13 -44 26 0 34 15 21 40 -13 24 -26 26 -34
4z"/>
<path d="M2860 85 c-17 -21 6 -61 26 -44 18 15 18 45 0 52 -8 3 -20 0 -26 -8z"/>
<path d="M2201 76 c-16 -19 -7 -46 14 -46 22 0 30 29 13 46 -13 13 -16 13 -27
0z"/>
<path d="M2731 76 c-16 -19 -7 -46 14 -46 22 0 30 29 13 46 -13 13 -16 13 -27
0z"/>
<path d="M2331 56 c-10 -12 -10 -19 2 -36 12 -18 16 -18 26 -6 14 17 11 48 -5
53 -6 2 -17 -3 -23 -11z"/>
<path d="M2597 63 c-12 -11 -8 -40 7 -52 12 -10 17 -8 25 8 18 32 -8 68 -32
44z"/>
<path d="M2457 54 c-10 -10 12 -44 28 -44 9 0 15 10 15 25 0 18 -5 25 -18 25
-10 0 -22 -3 -25 -6z"/>
</g>
</svg>
