<?xml version="1.0" standalone="no"?>
<!DOCTYPE svg PUBLIC "-//W3C//DTD SVG 20010904//EN"
 "http://www.w3.org/TR/2001/REC-SVG-20010904/DTD/svg10.dtd">
<svg version="1.0" xmlns="http://www.w3.org/2000/svg"
 width="500.000000pt" height="500.000000pt" viewBox="0 0 500.000000 500.000000"
 preserveAspectRatio="xMidYMid meet">
<metadata>
Created by potrace 1.15, written by Peter Selinger 2001-2017
</metadata>
<g transform="translate(0.000000,500.000000) scale(0.100000,-0.100000)"
fill="#000000" stroke="none">
<path d="M2349 4977 c-14 -31 -1 -54 25 -44 20 8 20 27 2 52 -14 19 -15 19
-27 -8z"/>
<path d="M2479 4974 c-10 -12 -9 -18 3 -30 13 -13 19 -14 37 -2 27 17 26 22
-3 36 -19 9 -27 8 -37 -4z"/>
<path d="M2614 4965 c-13 -32 23 -48 47 -19 10 13 10 17 -2 25 -21 13 -39 11
-45 -6z"/>
<path d="M2215 4960 c-8 -12 3 -50 14 -50 5 0 14 7 21 15 10 12 10 18 0 30
-14 17 -26 19 -35 5z"/>
<path d="M2747 4956 c-9 -24 18 -39 44 -25 22 11 22 12 4 25 -24 18 -41 18
-48 0z"/>
<path d="M2085 4940 c-8 -13 3 -50 15 -50 5 0 14 8 19 18 15 27 -18 58 -34 32z"/>
<path d="M2880 4931 c0 -27 15 -34 40 -21 17 9 19 14 9 26 -17 21 -49 18 -49
-5z"/>
<path d="M1950 4915 c-11 -13 -11 -19 3 -33 20 -19 41 -5 35 24 -4 24 -22 28
-38 9z"/>
<path d="M3011 4916 c-15 -18 11 -40 39 -31 25 8 26 21 1 35 -25 13 -26 13
-40 -4z"/>
<path d="M1824 4885 c-7 -17 2 -45 13 -45 4 0 17 7 27 15 20 15 20 15 0 30
-24 18 -33 19 -40 0z"/>
<path d="M3153 4893 c-16 -6 -17 -39 -2 -49 6 -3 18 1 27 10 14 14 14 18 2 30
-8 7 -21 12 -27 9z"/>
<path d="M1703 4853 c-16 -6 -17 -29 -3 -38 12 -7 50 3 50 13 0 12 -34 29 -47
25z"/>
<path d="M3267 4843 c-10 -15 10 -35 29 -31 26 5 24 32 -3 36 -11 2 -23 -1
-26 -5z"/>
<path d="M1566 4801 c-7 -11 3 -41 14 -41 19 0 40 13 40 25 0 21 -44 33 -54
16z"/>
<path d="M3395 4800 c-8 -12 3 -50 14 -50 16 0 31 28 25 44 -7 18 -29 21 -39
6z"/>
<path d="M1447 4753 c-11 -10 -8 -38 4 -50 9 -9 15 -8 25 2 19 18 18 41 -2 49
-19 7 -19 7 -27 -1z"/>
<path d="M3520 4745 c-15 -18 -5 -35 20 -35 10 0 22 5 25 10 7 11 -12 40 -25
40 -4 0 -13 -7 -20 -15z"/>
<path d="M3640 4691 c-18 -35 13 -58 39 -28 8 11 6 18 -8 31 -19 17 -20 17
-31 -3z"/>
<path d="M1327 4693 c-12 -11 -8 -40 7 -52 12 -10 17 -8 26 9 16 29 -12 65
-33 43z"/>
<path d="M1205 4620 c-3 -5 -1 -19 6 -31 10 -19 12 -20 26 -6 9 9 13 23 10 31
-7 18 -32 21 -42 6z"/>
<path d="M3754 4615 c-13 -32 23 -48 47 -19 10 13 10 17 -2 25 -21 13 -39 11
-45 -6z"/>
<path d="M3871 4556 c-16 -19 -7 -46 14 -46 22 0 30 29 13 46 -13 13 -16 13
-27 0z"/>
<path d="M1097 4553 c-23 -22 14 -53 39 -32 11 9 11 15 3 25 -12 15 -31 18
-42 7z"/>
<path d="M988 4475 c-10 -22 -9 -28 3 -36 8 -5 19 -7 24 -6 17 6 17 43 1 56
-13 11 -17 9 -28 -14z"/>
<path d="M3974 4465 c-13 -32 23 -48 47 -19 10 13 10 17 -2 25 -21 13 -39 11
-45 -6z"/>
<path d="M891 4386 c-14 -16 -9 -46 7 -46 5 0 15 7 22 16 11 12 11 18 -2 30
-13 13 -16 13 -27 0z"/>
<path d="M4074 4385 c-9 -22 22 -53 37 -38 15 15 7 47 -14 51 -9 2 -20 -4 -23
-13z"/>
<path d="M1658 4332 c-24 -5 -23 -18 3 -25 15 -4 19 -11 15 -24 -3 -10 -15
-61 -26 -112 -23 -106 -25 -111 -46 -111 -8 0 -14 -4 -14 -10 0 -5 23 -10 50
-10 28 0 50 5 50 10 0 6 -7 10 -15 10 -8 0 -15 9 -15 19 0 29 31 175 39 184 4
4 32 -44 61 -108 69 -149 80 -151 110 -17 35 157 40 172 55 172 8 0 17 5 20
10 4 6 -15 10 -51 10 l-57 0 20 -22 c11 -13 19 -27 18 -33 -2 -5 -11 -45 -20
-89 -9 -43 -21 -74 -25 -70 -5 5 -25 47 -45 94 -20 47 -43 92 -51 101 -16 18
-48 27 -76 21z"/>
<path d="M3488 4333 c-22 -6 -24 -23 -2 -23 12 0 15 -6 11 -22 -27 -112 -48
-231 -43 -243 7 -19 50 -19 66 0 10 13 9 15 -9 15 -17 0 -20 5 -16 23 3 12 14
67 25 122 11 55 23 108 26 118 5 17 -16 21 -58 10z"/>
<path d="M2366 4314 l21 -15 -22 -107 c-23 -118 -29 -132 -51 -132 -8 0 -14
-4 -14 -10 0 -6 28 -10 65 -10 37 0 65 4 65 10 0 6 -9 10 -20 10 -23 0 -24 2
-9 70 10 46 13 50 39 50 22 0 29 -5 32 -22 3 -22 4 -23 15 -3 6 11 14 40 18
65 7 40 6 43 -9 31 -9 -7 -16 -20 -16 -27 0 -13 -46 -31 -56 -22 -2 3 1 28 7
57 11 51 11 51 49 51 54 0 70 -8 70 -36 0 -13 4 -24 9 -24 13 0 17 8 26 48 l7
32 -124 -1 c-111 0 -121 -1 -102 -15z"/>
<path d="M785 4300 c-9 -15 4 -50 20 -50 18 0 28 30 14 46 -14 17 -25 18 -34
4z"/>
<path d="M3120 4296 c0 -8 -17 -28 -37 -45 -26 -22 -32 -31 -20 -31 21 0 21
-1 0 -96 -14 -65 -14 -77 -2 -85 22 -13 55 -11 69 6 11 13 8 15 -14 15 -23 0
-25 3 -19 33 20 101 28 122 51 125 28 4 29 22 2 22 -18 0 -20 4 -14 35 4 23 2
35 -5 35 -6 0 -11 -6 -11 -14z"/>
<path d="M4173 4294 c-10 -26 13 -39 44 -25 27 12 27 13 8 27 -25 18 -44 18
-52 -2z"/>
<path d="M2926 4249 c-64 -18 -114 -98 -101 -159 12 -56 67 -74 131 -44 44 21
37 30 -10 14 -44 -14 -76 0 -76 35 0 19 9 26 53 40 63 21 87 41 87 70 0 37
-37 57 -84 44z m33 -23 c19 -23 -6 -64 -48 -76 -19 -5 -37 -8 -39 -6 -10 10
52 96 69 96 3 0 12 -6 18 -14z"/>
<path d="M2016 4229 c-40 -32 -59 -76 -53 -123 18 -134 197 -78 197 62 0 52
-29 82 -79 82 -24 0 -48 -8 -65 -21z m85 -10 c18 -18 20 -29 16 -64 -12 -82
-40 -115 -87 -100 -29 9 -35 50 -16 111 23 73 51 89 87 53z"/>
<path d="M2636 4235 c-60 -46 -75 -136 -30 -182 21 -21 32 -25 66 -20 46 6 75
29 94 74 20 46 17 86 -7 117 -16 21 -29 26 -62 26 -23 0 -51 -7 -61 -15z m73
-5 c10 -5 21 -16 25 -25 9 -23 -12 -116 -31 -137 -18 -21 -53 -24 -71 -6 -26
26 -3 137 35 166 20 15 20 14 42 2z"/>
<path d="M3258 4234 c-35 -18 -68 -82 -68 -129 0 -60 57 -96 94 -60 8 8 19 15
24 15 5 0 15 -7 22 -15 7 -8 20 -15 30 -15 10 0 23 7 30 15 10 13 9 15 -9 15
-20 0 -21 4 -15 38 4 20 13 57 20 82 12 40 12 46 -3 58 -23 16 -92 15 -125 -4z
m92 -21 c0 -10 -5 -36 -11 -58 -20 -74 -79 -110 -107 -65 -10 17 -9 27 9 63
30 60 48 77 81 77 20 0 28 -5 28 -17z"/>
<path d="M687 4196 c-3 -8 1 -20 9 -27 11 -9 18 -8 34 6 16 14 17 20 8 27 -20
12 -45 9 -51 -6z"/>
<path d="M4270 4191 c0 -26 25 -33 44 -12 19 21 12 31 -21 31 -16 0 -23 -6
-23 -19z"/>
<path d="M601 4106 c-9 -11 -9 -19 1 -35 7 -12 15 -21 18 -21 3 0 11 9 18 21
10 16 10 24 1 35 -6 8 -15 14 -19 14 -4 0 -13 -6 -19 -14z"/>
<path d="M4364 4105 c-12 -29 15 -45 46 -25 13 8 12 11 -5 24 -25 19 -34 20
-41 1z"/>
<path d="M510 4000 c-13 -8 -13 -11 2 -26 20 -20 51 -11 46 13 -4 21 -27 27
-48 13z"/>
<path d="M4447 4003 c-24 -23 12 -55 38 -33 12 10 13 16 4 26 -12 15 -31 18
-42 7z"/>
<path d="M434 3889 c-3 -6 0 -18 9 -26 12 -12 18 -13 35 -2 16 10 18 16 10 26
-13 16 -44 17 -54 2z"/>
<path d="M4524 3885 c-13 -32 23 -48 47 -19 10 13 10 17 -2 25 -21 13 -39 11
-45 -6z"/>
<path d="M1345 3825 c-22 -7 -32 -13 -22 -14 9 -1 17 -7 17 -15 0 -12 -32
-175 -45 -234 -7 -29 35 -52 60 -32 21 17 19 29 -3 23 -17 -4 -17 5 10 133 16
76 27 141 26 144 -2 4 -21 1 -43 -5z"/>
<path d="M2378 3831 c-47 -10 -65 -25 -73 -61 -11 -48 3 -69 65 -100 67 -34
87 -59 70 -90 -14 -26 -42 -40 -82 -40 -40 0 -58 15 -58 48 0 36 -24 21 -28
-18 -4 -42 8 -50 87 -50 58 0 65 2 97 34 45 45 46 84 3 120 -17 14 -36 26 -43
26 -22 0 -66 40 -66 61 0 32 37 61 73 57 26 -2 34 -9 42 -36 5 -18 14 -31 19
-29 10 3 31 66 24 72 -9 8 -98 12 -130 6z"/>
<path d="M3494 3826 c-25 -9 -29 -14 -21 -27 7 -11 2 -50 -15 -133 -28 -131
-23 -155 25 -142 29 7 37 26 12 26 -20 0 -19 4 10 144 14 66 24 125 23 131 -2
9 -11 9 -34 1z"/>
<path d="M3631 3826 c-17 -20 13 -43 34 -26 12 10 13 16 4 26 -6 8 -15 14 -19
14 -4 0 -13 -6 -19 -14z"/>
<path d="M1032 3824 c-10 -5 -9 -9 4 -19 17 -12 17 -19 -6 -126 -21 -96 -29
-116 -47 -124 -47 -20 -20 -28 85 -23 114 6 143 16 161 55 16 36 13 52 -15 78
-24 23 -25 24 -6 34 11 6 25 24 32 41 12 29 11 33 -14 58 -23 24 -35 27 -104
29 -42 1 -83 0 -90 -3z m156 -37 c17 -13 15 -47 -5 -69 -11 -12 -30 -18 -60
-18 -37 0 -44 3 -40 18 3 9 8 30 12 47 4 16 12 33 18 37 14 8 56 0 75 -15z
m-22 -125 c18 -12 24 -41 12 -67 -12 -28 -19 -31 -83 -41 -47 -7 -48 -6 -42
17 4 13 10 41 13 62 6 36 8 37 48 37 22 0 46 -4 52 -8z"/>
<path d="M2051 3821 c-11 -7 -9 -10 8 -16 15 -4 20 -12 17 -22 -3 -8 -6 -20
-6 -28 0 -8 -19 -14 -52 -17 -44 -5 -57 -11 -85 -42 -28 -30 -33 -43 -33 -86
0 -37 5 -55 20 -70 25 -25 41 -25 74 1 l26 21 18 -22 c13 -17 24 -21 40 -16
12 4 22 14 22 21 0 9 -6 12 -16 8 -18 -6 -16 6 17 159 10 48 19 95 19 103 0
17 -46 21 -69 6z m-1 -106 c17 -20 -13 -119 -42 -140 -30 -20 -55 -19 -68 5
-8 15 -4 32 15 77 14 31 31 61 38 65 19 12 43 9 57 -7z"/>
<path d="M365 3780 c-7 -23 1 -40 20 -40 8 0 17 5 20 10 9 15 -4 50 -20 50 -8
0 -16 -9 -20 -20z"/>
<path d="M4594 3775 c-4 -9 -2 -21 4 -27 15 -15 44 -1 40 19 -4 23 -36 29 -44
8z"/>
<path d="M1493 3735 c-18 -7 -42 -29 -53 -47 -26 -42 -27 -118 -2 -141 50 -45
132 -22 163 47 25 55 24 90 -3 120 -29 32 -64 39 -105 21z m61 -21 c33 -33 10
-155 -33 -169 -27 -8 -59 10 -63 37 -5 31 17 106 38 129 21 23 38 24 58 3z"/>
<path d="M1750 3743 c-53 -20 -97 -99 -85 -152 15 -69 99 -89 154 -37 46 44
59 133 24 167 -20 20 -69 32 -93 22z m52 -30 c21 -19 23 -59 6 -115 -14 -47
-40 -65 -73 -50 -33 15 -39 45 -20 105 24 74 51 93 87 60z"/>
<path d="M2615 3732 c-42 -27 -64 -54 -75 -92 -13 -45 -2 -88 27 -107 23 -15
27 -15 59 2 32 17 35 17 53 1 13 -11 27 -15 40 -11 24 7 28 25 6 25 -19 0 -19
16 1 96 15 57 15 67 2 80 -24 25 -79 27 -113 6z m81 -16 c10 -25 -25 -124 -48
-141 -31 -21 -55 -19 -68 5 -15 28 29 126 62 140 33 13 48 12 54 -4z"/>
<path d="M2899 3710 l-39 -40 6 30 c6 29 5 30 -30 30 -20 0 -36 -4 -36 -10 0
-5 6 -10 14 -10 13 0 9 -38 -19 -157 -4 -18 -1 -23 14 -23 14 0 21 11 29 43
13 50 47 104 81 126 l24 16 -6 -60 c-4 -33 -10 -75 -13 -92 -5 -28 -3 -33 14
-33 15 0 21 9 26 43 8 47 45 111 76 127 30 16 33 -3 16 -85 -8 -38 -12 -73
-10 -77 7 -11 46 -10 64 2 12 8 11 10 -6 10 -21 0 -21 1 -5 81 11 58 12 85 4
97 -18 29 -43 25 -79 -13 -33 -36 -34 -36 -34 -11 0 22 -24 46 -46 46 -4 0
-24 -18 -45 -40z"/>
<path d="M3314 3740 c-12 -5 -29 -19 -38 -32 l-16 -22 0 27 c0 25 -2 26 -32
20 -41 -7 -61 -23 -30 -23 18 0 21 -4 17 -22 -3 -13 -14 -63 -24 -111 -11 -49
-27 -97 -37 -108 -17 -19 -16 -19 37 -19 48 1 52 2 36 14 -12 10 -16 21 -12
38 5 20 13 25 42 26 69 3 133 66 133 132 0 58 -35 95 -76 80z m32 -56 c7 -26
-18 -95 -44 -120 -20 -21 -59 -17 -65 5 -5 21 25 95 50 123 24 26 51 23 59 -8z"/>
<path d="M3854 3740 c-11 -4 -33 -23 -49 -42 l-28 -33 6 39 c6 36 5 38 -16 32
-12 -3 -30 -6 -39 -6 -10 0 -18 -4 -18 -10 0 -5 7 -10 15 -10 18 0 18 3 0 -94
-8 -44 -13 -81 -11 -84 12 -12 35 10 41 40 8 37 33 82 65 116 43 46 56 17 31
-73 -16 -58 -17 -68 -4 -80 16 -17 24 -18 47 -9 21 8 21 24 0 24 -12 0 -15 6
-12 23 3 12 11 50 18 84 11 51 11 64 1 77 -15 18 -17 18 -47 6z"/>
<path d="M4034 3736 c-57 -26 -92 -96 -80 -162 10 -51 43 -64 92 -34 l37 24
-7 -30 c-17 -69 -56 -92 -103 -59 -19 13 -22 13 -27 -1 -9 -23 -1 -31 40 -37
55 -9 98 13 116 59 24 62 54 222 43 233 -18 17 -79 21 -111 7z m67 -83 c-19
-75 -66 -114 -99 -81 -17 17 -15 32 9 88 23 54 62 79 88 55 11 -11 12 -22 2
-62z"/>
<path d="M3603 3733 c-33 -4 -47 -23 -18 -23 18 0 18 0 0 -75 -8 -33 -14 -70
-15 -82 0 -29 36 -41 58 -19 15 15 15 16 -1 16 -9 0 -17 1 -17 3 0 1 9 36 20
77 21 80 25 111 13 108 -5 0 -23 -3 -40 -5z"/>
<path d="M302 3669 c-15 -24 -8 -39 18 -39 28 0 35 20 14 41 -19 18 -20 18
-32 -2z"/>
<path d="M4661 3661 c-16 -29 15 -43 49 -21 13 8 12 11 -5 24 -26 20 -32 20
-44 -3z"/>
<path d="M242 3549 c-12 -18 -11 -24 2 -37 15 -15 17 -15 32 0 13 13 14 19 2
37 -7 11 -15 21 -18 21 -3 0 -11 -10 -18 -21z"/>
<path d="M4721 3546 c-9 -11 -9 -19 1 -35 7 -12 15 -21 18 -21 3 0 11 9 18 21
10 16 10 24 1 35 -6 8 -15 14 -19 14 -4 0 -13 -6 -19 -14z"/>
<path d="M184 3419 c-3 -6 1 -18 10 -27 15 -15 17 -15 32 0 19 19 11 38 -16
38 -10 0 -22 -5 -26 -11z"/>
<path d="M4773 3414 c-3 -8 1 -22 10 -31 14 -14 16 -13 26 6 7 12 9 26 6 31
-10 15 -35 12 -42 -6z"/>
<path d="M137 3299 c-14 -8 -16 -14 -6 -25 15 -18 45 -18 52 0 5 13 -10 36
-22 36 -4 0 -14 -5 -24 -11z"/>
<path d="M4821 3296 c-9 -10 -8 -16 4 -26 19 -16 41 1 32 24 -8 20 -21 20 -36
2z"/>
<path d="M103 3171 c-9 -14 -9 -21 0 -30 27 -27 61 4 37 34 -16 20 -23 19 -37
-4z"/>
<path d="M4854 3165 c-9 -22 22 -53 37 -38 15 15 7 47 -14 51 -9 2 -20 -4 -23
-13z"/>
<path d="M2271 3125 c-532 -94 -949 -527 -1021 -1063 -19 -136 -8 -350 24
-477 81 -325 271 -587 550 -761 134 -84 275 -139 436 -171 116 -23 365 -22
475 1 330 71 600 246 785 507 224 317 290 734 174 1101 -131 416 -462 731
-881 840 -105 27 -137 31 -288 34 -118 2 -195 -1 -254 -11z m305 -166 c171
-24 344 -81 468 -156 73 -44 185 -125 186 -135 0 -6 -167 -154 -735 -653 -260
-228 -495 -435 -723 -637 -73 -65 -136 -118 -141 -118 -4 0 -36 51 -69 113
-114 210 -165 421 -143 590 14 104 52 248 91 341 61 146 192 326 293 405 165
126 397 226 582 251 88 11 106 11 191 -1z m862 -581 c149 -296 173 -501 91
-763 -82 -263 -225 -472 -403 -589 -226 -150 -474 -227 -685 -213 -208 13
-488 127 -646 263 -38 33 -39 35 -21 49 11 8 31 25 45 38 77 68 612 539 656
577 118 102 541 476 704 622 97 86 179 157 182 157 3 1 38 -63 77 -141z"/>
<path d="M2480 2699 c0 -6 -14 -31 -31 -56 -17 -24 -33 -62 -36 -83 -4 -30
-15 -46 -44 -70 -29 -23 -39 -38 -39 -60 0 -55 25 -42 35 19 2 12 11 15 34 13
29 -3 31 -2 31 32 0 41 12 51 40 36 19 -10 20 -19 18 -105 -2 -65 1 -98 10
-106 8 -9 12 -49 12 -126 0 -63 4 -113 9 -113 5 0 19 12 30 26 18 23 21 41 21
125 0 97 -1 99 -32 135 l-33 37 -3 154 c-2 85 -8 153 -13 153 -5 0 -9 -5 -9
-11z"/>
<path d="M2307 2361 c-2 -11 -2 -117 1 -235 5 -231 9 -244 51 -190 19 24 21
40 21 178 0 153 -12 219 -45 252 -18 18 -22 18 -28 -5z"/>
<path d="M2534 1745 c-14 -22 -16 -76 -18 -464 0 -242 2 -442 5 -445 3 -4 14
-4 23 0 14 6 16 49 16 470 0 255 -2 464 -5 464 -2 0 -12 -11 -21 -25z"/>
<path d="M2338 1578 l-28 -27 0 -345 0 -346 25 -6 c14 -4 28 -4 31 -2 2 3 3
173 2 379 l-3 374 -27 -27z"/>
<path d="M77 3043 c-24 -23 12 -55 38 -33 12 10 13 16 4 26 -12 15 -31 18 -42
7z"/>
<path d="M4892 3038 c-13 -13 2 -38 23 -38 21 0 36 25 23 38 -7 7 -17 12 -23
12 -6 0 -16 -5 -23 -12z"/>
<path d="M44 2905 c-13 -32 23 -48 47 -19 10 13 10 17 -2 25 -21 13 -39 11
-45 -6z"/>
<path d="M4914 2905 c-12 -29 15 -45 45 -26 12 8 12 12 2 25 -17 20 -40 21
-47 1z"/>
<path d="M30 2780 c-14 -26 0 -46 24 -37 20 8 21 31 2 46 -12 10 -17 8 -26 -9z"/>
<path d="M4941 2776 c-10 -12 -10 -20 0 -37 11 -22 12 -22 25 -4 17 24 17 30
0 44 -10 9 -16 8 -25 -3z"/>
<path d="M4952 2658 c-16 -16 -15 -45 2 -51 23 -9 39 18 26 42 -13 25 -12 25
-28 9z"/>
<path d="M20 2644 c-11 -12 -11 -18 2 -30 13 -13 19 -14 36 -3 20 12 20 15 5
31 -20 22 -27 22 -43 2z"/>
<path d="M13 2513 c-20 -8 -15 -31 8 -38 25 -8 44 7 36 29 -6 16 -21 19 -44 9z"/>
<path d="M4940 2510 c-13 -8 -13 -11 2 -26 20 -20 51 -11 46 13 -4 21 -27 27
-48 13z"/>
<path d="M21 2386 c-16 -19 -7 -46 14 -46 22 0 30 29 13 46 -13 13 -16 13 -27
0z"/>
<path d="M4951 2386 c-16 -19 -7 -46 14 -46 22 0 30 29 13 46 -13 13 -16 13
-27 0z"/>
<path d="M4942 2258 c-16 -16 -15 -33 2 -47 21 -18 41 11 26 38 -13 25 -12 25
-28 9z"/>
<path d="M24 2239 c-3 -6 0 -17 8 -25 12 -12 17 -12 32 -1 11 8 16 19 12 25
-9 15 -43 15 -52 1z"/>
<path d="M47 2113 c-24 -23 12 -55 38 -33 12 10 13 16 4 26 -12 15 -31 18 -42
7z"/>
<path d="M4914 2105 c-13 -32 23 -48 47 -19 10 13 10 17 -2 25 -21 13 -39 11
-45 -6z"/>
<path d="M72 1978 c-13 -13 2 -38 23 -38 21 0 36 25 23 38 -7 7 -17 12 -23 12
-6 0 -16 -5 -23 -12z"/>
<path d="M4887 1979 c-14 -8 -16 -14 -6 -25 14 -17 31 -18 47 -2 8 8 9 15 1
25 -14 15 -18 16 -42 2z"/>
<path d="M4860 1855 c-15 -18 -6 -45 14 -45 20 0 29 16 21 40 -8 24 -18 25
-35 5z"/>
<path d="M101 1846 c-10 -12 -8 -17 9 -26 28 -15 57 5 39 26 -15 18 -33 18
-48 0z"/>
<path d="M145 1723 c-14 -14 -15 -18 -2 -30 12 -12 19 -13 36 -4 26 14 26 23
1 38 -15 10 -22 10 -35 -4z"/>
<path d="M4822 1727 c-16 -19 11 -58 28 -41 14 14 10 46 -6 51 -6 2 -16 -2
-22 -10z"/>
<path d="M190 1594 c-11 -12 -10 -18 3 -32 21 -21 42 -3 32 27 -8 25 -18 27
-35 5z"/>
<path d="M4774 1595 c-12 -29 15 -45 45 -26 12 8 12 12 2 25 -17 20 -40 21
-47 1z"/>
<path d="M240 1474 c-11 -12 -10 -18 3 -31 15 -15 18 -15 37 2 19 17 19 19 2
31 -22 17 -27 17 -42 -2z"/>
<path d="M4720 1475 c-10 -12 -10 -18 0 -30 15 -18 20 -18 44 0 20 15 20 15 0
30 -24 18 -29 18 -44 0z"/>
<path d="M4664 1363 c-14 -23 -7 -43 16 -43 23 0 31 21 15 43 -15 21 -18 21
-31 0z"/>
<path d="M300 1355 c-10 -13 -9 -19 5 -35 17 -19 19 -19 31 -2 18 23 17 30 -5
41 -14 8 -22 7 -31 -4z"/>
<path d="M370 1245 c-15 -18 -6 -45 14 -45 20 0 29 16 21 40 -8 24 -18 25 -35
5z"/>
<path d="M4597 1243 c-24 -23 12 -55 38 -33 12 10 13 16 4 26 -12 15 -31 18
-42 7z"/>
<path d="M440 1124 c-11 -12 -10 -18 3 -32 16 -15 18 -15 34 0 13 14 14 20 3
32 -7 9 -16 16 -20 16 -4 0 -13 -7 -20 -16z"/>
<path d="M4524 1125 c-4 -8 -1 -22 6 -30 11 -14 15 -14 31 1 14 13 16 20 8 31
-15 17 -38 17 -45 -2z"/>
<path d="M521 1021 c-16 -11 -6 -51 14 -51 16 0 29 35 20 50 -8 12 -16 12 -34
1z"/>
<path d="M4447 1023 c-24 -23 12 -55 38 -33 12 10 13 16 4 26 -12 15 -31 18
-42 7z"/>
<path d="M595 910 c-6 -9 15 -50 25 -50 10 0 31 41 25 50 -4 6 -15 10 -25 10
-10 0 -21 -4 -25 -10z"/>
<path d="M4357 907 c-3 -8 -1 -20 4 -28 10 -17 44 0 44 22 0 19 -41 24 -48 6z"/>
<path d="M694 814 c-8 -33 6 -48 30 -31 16 12 17 16 5 35 -18 29 -27 28 -35
-4z"/>
<path d="M4277 823 c-11 -10 -8 -41 4 -49 6 -3 18 1 27 9 13 13 13 19 2 31
-14 17 -23 20 -33 9z"/>
<path d="M785 719 c-10 -30 11 -48 32 -27 13 14 14 20 3 32 -17 22 -27 20 -35
-5z"/>
<path d="M4175 720 c-7 -11 12 -50 25 -50 12 0 23 37 15 50 -8 13 -32 13 -40
0z"/>
<path d="M885 630 c-8 -12 3 -50 14 -50 15 0 33 30 27 45 -6 17 -32 20 -41 5z"/>
<path d="M4075 630 c-7 -11 12 -50 25 -50 12 0 23 37 15 50 -8 13 -32 13 -40
0z"/>
<path d="M990 545 c-10 -12 -10 -18 0 -30 17 -20 27 -19 40 5 14 26 -21 48
-40 25z"/>
<path d="M3974 546 c-3 -8 0 -24 6 -36 11 -21 12 -21 25 -3 19 24 18 40 -1 47
-22 8 -24 8 -30 -8z"/>
<path d="M1095 470 c-8 -12 3 -50 14 -50 15 0 33 30 27 45 -6 17 -32 20 -41 5z"/>
<path d="M3866 464 c-13 -33 21 -47 45 -18 10 13 10 17 -2 25 -21 13 -36 11
-43 -7z"/>
<path d="M1210 400 c-14 -26 0 -46 24 -37 20 8 21 31 2 46 -12 10 -17 8 -26
-9z"/>
<path d="M3761 406 c-16 -19 -7 -46 14 -46 22 0 30 29 13 46 -13 13 -16 13
-27 0z"/>
<path d="M1324 325 c-13 -32 23 -48 47 -19 10 13 10 17 -2 25 -21 13 -39 11
-45 -6z"/>
<path d="M3636 324 c-4 -10 0 -24 9 -33 14 -14 17 -14 25 -1 6 8 9 22 7 30 -3
21 -33 24 -41 4z"/>
<path d="M1450 275 c-9 -11 -11 -22 -4 -32 13 -21 25 -21 38 -1 8 14 7 21 -5
33 -14 15 -17 15 -29 0z"/>
<path d="M3519 274 c-10 -12 -9 -18 4 -31 13 -13 19 -14 31 -3 21 17 20 27 -3
39 -14 8 -22 7 -32 -5z"/>
<path d="M1570 224 c-11 -12 -10 -18 3 -32 21 -21 42 -3 32 27 -8 25 -18 27
-35 5z"/>
<path d="M3397 223 c-23 -22 14 -53 39 -32 11 9 11 15 3 25 -12 15 -31 18 -42
7z"/>
<path d="M1692 179 c-12 -18 -11 -24 3 -38 15 -15 17 -15 30 3 11 14 11 22 2
37 -15 24 -19 24 -35 -2z"/>
<path d="M3269 174 c-10 -12 -9 -18 3 -31 14 -14 19 -14 37 -1 17 12 19 17 9
25 -27 21 -36 22 -49 7z"/>
<path d="M1820 134 c-11 -12 -11 -18 2 -30 13 -13 19 -14 36 -3 20 12 20 15 5
31 -20 22 -27 22 -43 2z"/>
<path d="M3147 143 c-10 -10 -8 -41 3 -48 5 -3 18 0 29 7 19 11 19 14 4 30
-17 19 -26 22 -36 11z"/>
<path d="M1947 96 c-9 -23 18 -39 43 -26 17 9 19 14 9 26 -15 18 -45 18 -52 0z"/>
<path d="M3005 100 c-7 -11 12 -50 24 -50 10 0 21 24 21 46 0 16 -36 19 -45 4z"/>
<path d="M2082 83 c-12 -24 -4 -43 18 -43 10 0 20 6 23 13 5 15 -10 47 -23 47
-5 0 -13 -8 -18 -17z"/>
<path d="M2880 74 c-11 -12 -10 -18 4 -32 16 -16 18 -16 31 2 11 14 12 23 4
33 -15 17 -24 16 -39 -3z"/>
<path d="M2215 60 c-8 -24 1 -40 21 -40 20 0 29 27 14 45 -17 20 -27 19 -35
-5z"/>
<path d="M2750 65 c-15 -18 -6 -45 14 -45 20 0 29 16 21 40 -8 24 -18 25 -35
5z"/>
<path d="M2344 45 c-12 -29 15 -45 45 -26 12 8 12 12 2 25 -17 20 -40 21 -47
1z"/>
<path d="M2614 45 c-12 -29 15 -45 45 -26 12 8 12 12 2 25 -17 20 -40 21 -47
1z"/>
<path d="M2476 41 c-8 -13 20 -45 32 -37 20 12 14 46 -7 46 -11 0 -22 -4 -25
-9z"/>
</g>
</svg>
