<?xml version="1.0" standalone="no"?>
<!DOCTYPE svg PUBLIC "-//W3C//DTD SVG 20010904//EN"
 "http://www.w3.org/TR/2001/REC-SVG-20010904/DTD/svg10.dtd">
<svg version="1.0" xmlns="http://www.w3.org/2000/svg"
 width="500.000000pt" height="500.000000pt" viewBox="0 0 500.000000 500.000000"
 preserveAspectRatio="xMidYMid meet">
<metadata>
Created by potrace 1.15, written by Peter Selinger 2001-2017
</metadata>
<g transform="translate(0.000000,500.000000) scale(0.100000,-0.100000)"
fill="#000000" stroke="none">
<path d="M2347 4983 c-4 -3 -7 -15 -7 -25 0 -20 44 -26 55 -8 14 22 -30 52
-48 33z"/>
<path d="M2476 4981 c-10 -15 5 -41 23 -41 29 0 43 21 23 36 -20 16 -39 18
-46 5z"/>
<path d="M2617 4983 c-11 -11 -8 -40 6 -51 19 -16 43 24 26 44 -13 15 -22 18
-32 7z"/>
<path d="M2214 4965 c-12 -29 15 -45 46 -25 13 8 12 11 -5 24 -25 19 -34 20
-41 1z"/>
<path d="M2749 4964 c-15 -18 0 -38 27 -32 25 5 28 25 6 37 -15 8 -23 7 -33
-5z"/>
<path d="M2080 4945 c-6 -8 -9 -19 -5 -25 9 -15 41 -12 54 4 10 12 8 17 -8 25
-25 14 -26 14 -41 -4z"/>
<path d="M2880 4945 c-15 -18 -5 -35 20 -35 10 0 22 5 25 10 7 11 -12 40 -25
40 -4 0 -13 -7 -20 -15z"/>
<path d="M3012 4928 c-7 -7 -12 -17 -12 -24 0 -19 32 -26 48 -10 13 12 13 18
2 30 -15 19 -22 20 -38 4z"/>
<path d="M1943 4914 c-3 -8 1 -22 9 -30 13 -13 16 -13 27 0 7 9 11 23 7 31 -7
20 -35 19 -43 -1z"/>
<path d="M1822 4887 c-7 -8 -7 -18 -2 -27 7 -12 13 -12 37 -1 27 12 27 13 8
27 -23 17 -30 17 -43 1z"/>
<path d="M3140 4885 c-21 -26 3 -42 37 -26 27 12 27 13 8 27 -24 18 -30 18
-45 -1z"/>
<path d="M1690 4854 c-11 -12 -10 -18 3 -32 16 -15 18 -15 34 0 13 14 14 20 3
32 -7 9 -16 16 -20 16 -4 0 -13 -7 -20 -16z"/>
<path d="M3265 4849 c-7 -20 7 -38 28 -39 14 0 19 30 7 45 -17 21 -27 19 -35
-6z"/>
<path d="M3393 4811 c-9 -15 -9 -23 2 -37 13 -18 15 -18 30 -3 14 14 15 20 3
38 -16 26 -20 26 -35 2z"/>
<path d="M1571 4806 c-18 -22 4 -62 25 -45 18 15 18 33 0 48 -10 9 -16 8 -25
-3z"/>
<path d="M3521 4766 c-16 -19 -10 -50 10 -54 23 -4 32 26 15 49 -11 17 -15 18
-25 5z"/>
<path d="M1443 4744 c-9 -24 11 -38 36 -25 25 14 27 27 5 35 -25 9 -34 7 -41
-10z"/>
<path d="M1324 4685 c-13 -32 23 -48 47 -19 10 13 10 17 -2 25 -21 13 -39 11
-45 -6z"/>
<path d="M3635 4690 c-8 -12 3 -50 14 -50 15 0 33 30 27 45 -6 17 -32 20 -41
5z"/>
<path d="M1210 4625 c-17 -21 6 -61 26 -44 18 15 18 45 0 52 -8 3 -20 0 -26
-8z"/>
<path d="M3756 4628 c-13 -8 -15 -13 -5 -24 14 -17 33 -18 47 -1 16 18 -18 38
-42 25z"/>
<path d="M1102 4568 c-16 -16 -15 -45 2 -51 23 -9 39 18 26 42 -13 25 -12 25
-28 9z"/>
<path d="M3873 4563 c-17 -6 -16 -40 1 -46 15 -6 36 11 36 29 0 14 -20 23 -37
17z"/>
<path d="M2113 4513 c-18 -7 -16 -23 2 -23 20 0 19 -10 -10 -147 -14 -65 -25
-128 -25 -140 0 -29 33 -47 60 -33 25 13 26 32 3 28 -11 -2 -17 3 -16 12 2 15
49 247 58 288 5 19 2 22 -27 21 -18 0 -39 -3 -45 -6z"/>
<path d="M1447 4504 c-10 -11 3 -24 24 -24 24 0 24 -2 -7 -146 -23 -105 -30
-123 -50 -133 -43 -19 -26 -31 45 -31 49 0 72 4 81 15 11 13 8 15 -19 15 -27
0 -31 3 -26 23 3 12 14 65 25 117 11 52 22 105 25 116 3 13 16 24 30 28 46 12
16 26 -54 26 -37 0 -71 -3 -74 -6z"/>
<path d="M1777 4503 c-14 -13 -6 -23 18 -23 14 0 25 -3 25 -7 0 -5 -12 -64
-27 -132 -24 -113 -29 -126 -55 -140 -15 -9 -28 -19 -28 -23 0 -5 33 -8 74 -8
53 0 77 4 86 15 11 13 8 15 -19 15 -31 0 -32 1 -25 38 17 90 14 86 90 93 75 6
107 20 123 56 22 48 11 87 -30 108 -29 15 -219 22 -232 8z m201 -35 c18 -18
14 -66 -7 -87 -18 -18 -106 -39 -117 -29 -4 5 10 85 21 116 6 16 87 16 103 0z"/>
<path d="M3970 4480 c-13 -24 -5 -40 20 -40 23 0 31 21 15 43 -16 22 -22 21
-35 -3z"/>
<path d="M989 4474 c-15 -18 0 -38 27 -32 25 5 28 25 6 37 -15 8 -23 7 -33 -5z"/>
<path d="M3025 4458 c-3 -13 -22 -34 -43 -47 -35 -23 -35 -24 -14 -32 18 -7
21 -14 16 -36 -3 -16 -10 -44 -14 -63 -4 -19 -11 -47 -14 -62 -4 -17 -1 -32
10 -42 21 -21 37 -20 65 5 l24 21 -23 -5 c-32 -7 -34 7 -14 92 16 71 24 81 67
96 18 7 17 8 -9 17 -25 9 -28 14 -23 44 4 25 2 34 -8 34 -8 0 -17 -10 -20 -22z"/>
<path d="M2330 4413 c-85 -32 -139 -158 -94 -221 20 -29 70 -29 100 -1 l22 21
7 -22 c5 -17 13 -21 43 -18 19 2 38 9 40 17 3 10 -1 12 -17 8 -11 -3 -21 -3
-21 -1 0 2 9 42 20 89 11 47 20 92 20 99 0 25 -80 44 -120 29z m60 -23 c22
-14 -2 -115 -36 -151 -39 -40 -61 -43 -79 -8 -14 26 -13 32 12 86 17 34 38 63
53 70 30 15 31 15 50 3z"/>
<path d="M2634 4376 c-48 -47 -49 -47 -35 2 9 31 8 32 -19 32 -34 0 -60 -9
-60 -21 0 -5 7 -9 15 -9 18 0 18 -17 0 -100 -20 -90 -19 -110 4 -110 14 0 21
10 26 37 16 86 97 195 117 159 5 -9 2 -42 -7 -81 -20 -87 -19 -112 3 -117 23
-6 62 8 62 23 0 6 -7 9 -15 5 -19 -7 -19 9 2 111 14 67 15 84 4 97 -22 27 -51
18 -97 -28z"/>
<path d="M3205 4413 c-32 -8 -73 -53 -91 -99 -30 -79 11 -144 92 -144 82 0
150 98 125 179 -6 21 -17 44 -25 50 -17 14 -73 22 -101 14z m66 -34 c26 -26
23 -71 -9 -142 -21 -48 -42 -58 -86 -41 -34 13 -14 151 26 187 26 22 43 22 69
-4z"/>
<path d="M880 4381 c0 -24 13 -33 35 -25 23 9 14 38 -13 42 -16 3 -22 -2 -22
-17z"/>
<path d="M4073 4384 c-3 -8 1 -22 9 -30 13 -13 16 -13 27 0 7 9 11 23 7 31 -7
20 -35 19 -43 -1z"/>
<path d="M4171 4304 l-22 -16 21 -15 c20 -14 23 -14 38 1 14 14 15 18 1 31
-13 13 -17 13 -38 -1z"/>
<path d="M785 4300 c-8 -13 3 -50 15 -50 13 0 32 39 25 50 -8 13 -32 13 -40 0z"/>
<path d="M693 4209 c-6 -6 -9 -18 -6 -25 7 -18 37 -18 52 0 10 12 8 17 -8 25
-24 14 -24 14 -38 0z"/>
<path d="M4264 4205 c-4 -9 0 -24 10 -33 15 -15 18 -15 26 -2 6 8 9 22 7 30
-3 21 -36 25 -43 5z"/>
<path d="M594 4105 c-8 -19 3 -35 25 -35 26 0 44 23 29 38 -17 17 -47 15 -54
-3z"/>
<path d="M4360 4105 c-10 -12 -10 -18 0 -31 12 -13 15 -13 28 0 15 15 10 46
-6 46 -5 0 -15 -7 -22 -15z"/>
<path d="M520 4004 c-11 -12 -11 -18 1 -30 13 -12 18 -12 34 0 16 12 17 16 6
30 -17 20 -25 20 -41 0z"/>
<path d="M4442 4008 c-16 -16 -15 -26 6 -37 12 -6 23 -5 37 5 19 14 19 14 -1
29 -23 18 -27 18 -42 3z"/>
<path d="M2443 3933 c-18 -7 -16 -23 2 -23 19 0 20 16 -16 -156 -16 -81 -26
-150 -22 -155 19 -18 69 -14 77 7 5 13 2 15 -15 11 -19 -5 -20 -3 -13 36 3 23
17 89 30 147 31 135 31 140 -3 139 -16 0 -34 -3 -40 -6z"/>
<path d="M3954 3925 c-18 -13 -18 -14 -1 -15 15 0 18 -7 15 -37 -3 -38 -3 -38
-50 -39 -81 -2 -148 -75 -148 -161 0 -81 65 -111 122 -56 l28 27 0 -27 c0 -25
3 -27 39 -27 25 0 41 5 45 15 4 10 -1 15 -14 15 -11 0 -20 3 -20 6 0 3 14 73
30 156 17 82 30 152 30 154 0 11 -58 2 -76 -11z m-6 -149 c5 -38 -24 -112 -51
-131 -32 -22 -62 -19 -75 9 -9 20 -6 34 18 84 30 63 40 72 80 69 20 -2 26 -8
28 -31z"/>
<path d="M907 3923 c-14 -13 -6 -23 18 -23 31 0 31 3 -4 -145 -24 -105 -31
-122 -54 -135 -15 -8 -27 -18 -27 -22 0 -9 121 -11 144 -2 25 9 19 24 -9 24
-29 0 -29 -1 -14 73 12 57 26 72 60 62 14 -5 18 -12 13 -31 -8 -30 9 -32 23
-1 15 30 33 110 27 117 -3 3 -18 -10 -33 -29 -35 -42 -67 -40 -63 4 5 46 22
83 41 88 10 2 36 2 57 -2 35 -6 39 -9 42 -39 4 -42 28 -42 37 1 4 17 9 40 11
50 5 16 -6 17 -129 17 -73 0 -137 -3 -140 -7z"/>
<path d="M3007 3923 c-14 -13 -6 -23 18 -23 31 0 31 -1 0 -141 -21 -91 -31
-118 -50 -134 -14 -12 -25 -24 -25 -28 0 -4 31 -7 69 -7 49 0 72 4 81 15 11
13 8 15 -19 15 -26 0 -31 3 -28 18 3 9 11 41 17 70 11 49 14 52 42 52 27 0 30
-3 26 -25 -3 -14 -2 -28 2 -30 13 -8 27 18 34 60 4 22 9 48 12 58 9 28 -16 19
-34 -13 -11 -20 -25 -30 -41 -30 -23 0 -23 2 -17 46 8 65 19 74 82 74 l54 0 0
-35 c0 -59 36 -36 47 29 l6 36 -135 0 c-74 0 -138 -3 -141 -7z"/>
<path d="M440 3895 c-23 -28 21 -50 48 -23 9 9 7 14 -6 24 -22 17 -27 17 -42
-1z"/>
<path d="M4520 3894 c-11 -13 -10 -19 8 -36 l21 -21 6 26 c11 43 -10 62 -35
31z"/>
<path d="M1241 3819 c-97 -50 -109 -198 -17 -229 94 -31 202 89 163 182 -27
65 -78 81 -146 47z m81 -11 c8 -7 18 -24 21 -38 7 -29 -18 -124 -39 -145 -23
-22 -71 -19 -84 5 -19 36 9 151 43 175 26 18 38 19 59 3z"/>
<path d="M1798 3800 c-22 -22 -42 -40 -43 -40 -2 0 1 14 6 32 5 17 8 33 6 34
-6 7 -87 -10 -87 -17 0 -5 7 -9 15 -9 18 0 18 -17 0 -100 -20 -91 -19 -110 5
-110 14 0 21 9 26 38 10 57 43 119 77 148 30 25 31 25 38 6 4 -11 -1 -57 -10
-102 -16 -70 -16 -83 -4 -87 20 -8 29 4 47 67 17 62 68 130 97 130 24 0 25
-29 3 -112 -8 -33 -13 -66 -10 -73 8 -22 45 -24 69 -3 l22 20 -24 -6 c-21 -4
-22 -2 -17 22 19 90 29 161 23 175 -4 11 -18 17 -41 17 -26 0 -41 -8 -65 -35
-36 -41 -40 -43 -34 -12 5 26 -19 57 -44 57 -8 0 -33 -18 -55 -40z"/>
<path d="M2656 3830 c-34 -11 -73 -45 -92 -82 -19 -37 -18 -122 2 -142 24 -25
71 -20 99 10 24 25 25 26 25 6 0 -12 7 -25 16 -30 22 -12 61 -3 68 15 5 12 1
14 -14 10 -25 -7 -25 6 0 103 11 41 20 80 20 87 0 7 -17 17 -37 22 -43 12 -48
12 -87 1z m62 -19 c12 -7 12 -19 2 -67 -20 -94 -94 -149 -122 -89 -10 22 -7
34 17 85 19 41 37 62 54 69 34 12 34 12 49 2z"/>
<path d="M3382 3833 c-36 -7 -100 -77 -108 -117 -14 -75 21 -129 82 -129 44 0
95 21 101 40 3 9 -9 8 -47 -3 -48 -14 -53 -14 -71 2 -22 19 -25 52 -6 59 54
19 124 46 134 53 24 15 26 59 4 81 -20 20 -40 23 -89 14z m53 -33 c12 -20 -23
-66 -61 -78 -20 -6 -41 -9 -46 -6 -4 3 6 25 22 50 22 31 38 44 55 44 13 0 27
-4 30 -10z"/>
<path d="M3613 3819 c-87 -43 -117 -154 -58 -212 19 -20 92 -23 130 -5 36 16
31 31 -7 22 -60 -14 -81 -10 -94 15 -7 13 -10 29 -8 36 3 6 36 21 74 34 70 22
90 40 90 80 0 23 -35 51 -65 51 -11 0 -39 -9 -62 -21z m77 -27 c0 -30 -29 -61
-67 -71 -20 -6 -39 -9 -41 -7 -5 6 25 61 43 80 23 22 65 21 65 -2z"/>
<path d="M1475 3823 c-33 -8 -42 -23 -13 -23 l25 0 -20 -100 c-11 -55 -17
-104 -13 -107 14 -15 39 15 51 60 19 74 91 165 103 129 5 -17 29 -15 36 4 22
58 -23 59 -82 2 -46 -44 -45 -45 -26 22 4 16 1 20 -18 19 -13 -1 -32 -3 -43
-6z"/>
<path d="M2128 3823 c-25 -6 -23 -23 2 -23 22 0 22 4 -6 -113 -21 -83 -11
-104 46 -98 8 1 32 21 53 44 l39 42 -7 -37 c-6 -31 -4 -38 15 -48 17 -9 26 -8
46 5 31 20 31 29 0 21 l-24 -6 24 93 c29 114 29 119 3 115 -15 -2 -25 -17 -38
-56 -20 -58 -69 -125 -95 -130 -22 -5 -21 33 3 126 l19 72 -31 -1 c-18 -1 -40
-3 -49 -6z"/>
<path d="M370 3784 c-11 -12 -11 -18 1 -30 13 -12 18 -12 34 0 16 12 17 16 6
30 -17 20 -25 20 -41 0z"/>
<path d="M4590 3785 c-23 -28 21 -50 48 -23 9 9 7 14 -6 24 -22 17 -27 17 -42
-1z"/>
<path d="M302 3673 c-18 -34 9 -58 36 -31 7 7 8 17 1 30 -12 23 -26 23 -37 1z"/>
<path d="M4660 3675 c-15 -18 -6 -45 14 -45 20 0 29 16 21 40 -8 24 -18 25
-35 5z"/>
<path d="M4721 3556 c-16 -19 -7 -46 14 -46 22 0 30 29 13 46 -13 13 -16 13
-27 0z"/>
<path d="M242 3548 c-8 -8 -9 -15 -1 -25 15 -17 34 -17 48 1 10 12 8 17 -8 25
-24 14 -24 14 -39 -1z"/>
<path d="M2350 3456 c0 -7 133 -201 168 -243 46 -57 137 -116 219 -143 177
-58 248 -146 272 -335 7 -55 15 -83 30 -99 23 -25 26 -47 11 -77 -13 -24 -34
-24 -86 0 -36 16 -45 27 -62 73 -10 29 -23 71 -26 92 -12 62 -57 99 -144 121
-96 23 -169 16 -231 -22 -56 -35 -85 -77 -112 -162 -40 -127 -33 -266 21 -371
24 -48 25 -68 2 -98 l-18 -24 -31 69 c-68 150 -87 248 -88 443 l0 155 -32 40
c-41 51 -414 404 -471 446 -26 19 -42 26 -42 17 0 -24 100 -127 303 -310 111
-100 206 -188 211 -197 5 -8 10 -82 11 -165 2 -132 6 -166 33 -269 17 -65 51
-162 75 -215 25 -53 52 -122 61 -152 21 -76 73 -120 140 -120 13 0 35 -13 49
-30 32 -36 63 -44 129 -37 42 5 57 2 98 -21 48 -27 49 -27 82 -10 18 10 55 22
83 28 60 13 82 32 95 80 10 37 12 38 66 45 31 4 60 3 64 -2 4 -4 10 -37 13
-72 l5 -64 -68 -72 c-37 -39 -76 -87 -85 -106 -10 -19 -19 -36 -21 -38 -2 -2
-26 11 -54 28 -63 39 -93 38 -184 -6 -37 -18 -73 -33 -80 -33 -6 0 -17 -9 -24
-20 -7 -11 -21 -20 -31 -20 -10 0 -21 -9 -24 -20 -3 -12 -14 -20 -26 -20 -14
0 -23 -8 -27 -26 -5 -19 -12 -24 -25 -21 -14 4 -21 -3 -31 -29 -6 -19 -18 -34
-26 -34 -12 0 -13 13 -8 68 8 85 -7 110 -71 119 -38 5 -42 3 -57 -26 -9 -17
-23 -31 -31 -31 -8 0 -15 -7 -15 -15 0 -9 -11 -20 -25 -25 -14 -5 -28 -18 -32
-27 -3 -10 -11 -24 -16 -31 -13 -16 -16 -101 -5 -108 4 -3 8 -14 8 -25 0 -11
7 -22 15 -25 8 -4 15 -19 15 -34 0 -16 5 -32 10 -35 6 -3 10 -19 10 -34 0 -21
6 -30 21 -34 18 -5 21 -11 16 -36 -6 -27 -4 -31 14 -31 18 0 20 -4 15 -25 -6
-22 -3 -25 19 -25 16 0 25 -6 25 -15 0 -8 2 -15 4 -15 2 0 19 -7 38 -15 l35
-14 38 54 c57 84 61 85 76 20 7 -30 18 -60 26 -66 7 -6 13 -22 13 -34 0 -12 7
-28 15 -35 18 -15 20 -44 3 -57 -7 -6 -80 -22 -163 -37 -199 -35 -305 -59
-305 -68 0 -11 -10 -13 290 46 151 29 457 89 680 132 223 43 406 78 407 79 1
1 -3 17 -9 38 -9 30 -8 47 11 104 32 99 88 177 205 289 108 104 107 103 145
242 7 24 21 52 32 63 55 55 84 -10 75 -166 -3 -60 -13 -139 -21 -175 -8 -36
-15 -78 -15 -95 0 -35 32 -145 42 -145 18 0 19 53 2 100 -16 44 -17 59 -6 137
7 49 14 120 18 158 9 115 5 109 88 133 41 12 77 22 81 22 11 0 -3 -119 -31
-260 -27 -142 -42 -192 -76 -270 -35 -77 -210 -293 -304 -374 -130 -112 -477
-337 -807 -525 -71 -40 -126 -76 -123 -78 11 -11 113 41 291 147 99 59 254
149 345 200 l165 93 161 163 c169 170 250 276 297 390 40 93 84 253 97 346 28
193 17 169 87 193 144 50 238 128 273 226 29 84 37 234 17 304 -23 75 -84 251
-95 271 -8 14 -10 13 -16 -10 -10 -40 -23 -31 -36 23 -6 27 -17 57 -25 67 -11
16 -13 15 -20 -14 -3 -18 -10 -32 -15 -32 -10 0 -25 46 -35 102 -3 21 -10 40
-16 44 -7 4 -8 -23 -3 -82 5 -58 4 -85 -3 -81 -6 4 -27 31 -48 62 -21 30 -42
55 -47 55 -11 0 -2 -32 19 -73 8 -16 13 -31 11 -33 -2 -2 -32 6 -67 16 -75 24
-121 25 -195 6 -74 -20 -87 -28 -135 -85 -54 -64 -100 -92 -151 -93 -56 -1
-70 -16 -59 -70 11 -58 12 -56 -11 -63 -11 -4 -33 -17 -49 -31 l-29 -24 -7 42
c-25 172 -54 225 -136 249 -24 7 -63 30 -87 51 -54 50 -110 73 -220 94 -48 8
-93 21 -100 28 -6 6 -21 45 -32 85 -50 178 -132 271 -292 331 -103 38 -171 92
-249 198 -77 103 -128 162 -141 162 -4 0 -8 -2 -8 -4z m311 -636 c41 -11 134
-78 165 -118 11 -15 28 -48 38 -74 21 -58 58 -95 107 -108 73 -20 109 5 109
76 l0 37 73 -6 c101 -7 151 -24 200 -68 l42 -37 -51 -54 c-29 -30 -61 -72 -72
-94 -35 -71 -70 -204 -53 -204 16 0 28 25 55 113 22 73 35 96 71 132 25 26 60
49 84 56 38 11 44 10 69 -8 38 -29 39 -49 3 -56 -64 -13 -147 -120 -166 -214
-5 -26 -3 -33 9 -33 8 0 22 15 31 33 26 55 99 159 121 174 36 23 61 -8 79 -99
23 -112 5 -168 -52 -168 -12 0 -14 7 -9 36 4 19 10 42 13 50 3 8 1 14 -5 14
-11 0 -32 -53 -32 -84 -1 -12 -7 -34 -14 -51 l-14 -30 -12 33 c-7 17 -18 32
-26 32 -19 0 -9 -83 18 -157 18 -50 46 -76 35 -34 -4 15 2 22 26 30 17 6 32 9
35 6 8 -8 -16 -54 -56 -107 l-37 -49 -78 5 c-43 3 -82 8 -88 11 -5 4 -9 54 -8
113 0 102 3 108 24 47 14 -38 15 0 2 80 -9 59 -16 81 -28 83 -12 2 -20 -10
-29 -43 -12 -43 -49 -85 -74 -85 -6 0 -28 5 -48 10 -38 11 -58 28 -142 119
-46 50 -52 53 -87 48 -27 -4 -51 2 -85 19 -26 13 -59 24 -73 24 -13 0 -35 9
-47 21 -19 17 -38 21 -125 25 -56 2 -108 9 -116 15 -18 15 -50 124 -58 196 -8
67 10 154 49 240 25 54 51 77 114 99 45 16 66 17 113 4z m1589 -266 c57 -18
139 -72 228 -149 123 -108 145 -151 146 -285 1 -59 -4 -84 -21 -116 -32 -61
-165 -191 -218 -215 -41 -18 -241 -69 -272 -69 -7 0 -19 13 -27 28 -27 52
-103 69 -131 30 -8 -13 -29 -66 -45 -118 -32 -104 -41 -116 -218 -312 -101
-111 -124 -147 -157 -248 -19 -57 -26 -66 -56 -77 -39 -13 -677 -153 -700
-153 -28 0 -108 186 -116 270 -6 66 20 99 137 175 106 68 122 94 45 71 -84
-26 -175 -116 -226 -226 -39 -82 -75 -130 -97 -130 -46 0 -149 156 -192 292
-27 83 -17 128 30 148 17 7 39 28 51 47 18 29 26 34 53 31 l31 -3 1 -88 c1
-49 7 -94 13 -100 8 -8 32 10 88 64 89 86 146 127 235 169 124 59 248 28 248
-61 0 -12 14 -46 30 -76 48 -85 45 -105 -64 -338 -19 -40 -21 -51 -9 -53 21
-5 43 17 43 45 0 13 16 45 35 70 19 25 35 56 35 68 0 13 7 25 15 29 11 4 14
13 9 31 -3 14 -2 25 2 25 5 0 15 4 23 9 12 8 13 12 1 25 -21 27 -5 29 68 8 69
-20 70 -20 123 0 30 10 77 27 104 36 47 16 81 44 83 67 2 16 -38 6 -115 -31
-39 -19 -79 -31 -87 -28 -9 3 -22 1 -29 -4 -8 -7 -18 -7 -27 -2 -8 5 -24 7
-36 4 -49 -12 -181 95 -152 124 8 8 7 17 -4 34 -14 21 -12 27 22 83 48 80 69
89 167 75 42 -5 79 -12 81 -15 11 -10 -33 -46 -67 -55 -20 -6 -47 -19 -61 -31
l-25 -21 35 6 c19 3 44 8 56 11 18 6 22 1 28 -25 3 -17 11 -30 17 -28 6 2 25
30 42 63 25 47 39 61 63 67 17 4 37 15 44 23 14 17 150 22 150 5 0 -5 8 -10
19 -10 10 0 35 -7 54 -15 20 -8 60 -15 88 -15 45 0 50 2 39 15 -7 9 -19 14
-25 11 -7 -2 -39 9 -71 25 -33 16 -75 32 -94 35 -19 3 -49 10 -67 15 -34 11
-87 -7 -142 -48 -35 -25 -26 -3 44 109 l60 97 40 -38 c42 -40 92 -69 159 -91
21 -7 56 -28 77 -47 33 -30 39 -32 39 -16 0 37 -34 66 -134 113 -55 26 -111
58 -123 71 -36 39 -55 96 -48 141 9 53 77 152 116 168 29 12 31 16 25 49 -3
20 -9 46 -12 59 -6 21 -4 22 20 16 55 -14 95 4 177 82 131 122 194 140 329 98z
m-1704 -322 c7 -4 14 -52 17 -112 4 -58 9 -120 13 -137 6 -32 5 -33 -28 -33
-21 0 -41 7 -51 18 -21 23 -57 137 -57 180 0 56 68 110 106 84z m126 -19 c9
-10 19 -38 23 -62 4 -24 20 -89 36 -144 16 -56 27 -102 25 -104 -2 -2 -19 -6
-38 -9 -54 -9 -85 24 -112 120 -21 70 -22 84 -11 136 6 31 15 62 19 68 11 18
41 14 58 -5z m128 -54 c35 -20 38 -25 43 -76 6 -57 34 -122 70 -161 17 -18 19
-27 11 -40 -14 -21 -86 -28 -102 -10 -22 27 -84 212 -84 249 1 38 7 59 19 59
3 0 22 -10 43 -21z m170 -77 c19 -29 48 -77 64 -107 29 -53 29 -55 11 -75 -29
-32 -59 -25 -100 23 -66 75 -89 146 -64 201 16 35 46 21 89 -42z m600 -74 c0
-3 -20 -13 -45 -21 -25 -9 -45 -14 -45 -11 0 15 32 64 47 73 14 7 21 5 30 -12
7 -12 12 -25 13 -29z"/>
<path d="M2512 2617 c-35 -67 -40 -87 -18 -87 17 0 71 129 59 141 -4 4 -23
-20 -41 -54z"/>
<path d="M2577 2582 c-20 -22 -22 -52 -4 -52 13 0 37 40 37 60 0 16 -15 12
-33 -8z"/>
<path d="M2650 2525 c-10 -12 -10 -19 -1 -28 9 -9 14 -9 21 3 22 34 4 54 -20
25z"/>
<path d="M2716 2494 c-10 -26 4 -37 25 -18 10 9 16 21 13 25 -9 15 -31 10 -38
-7z"/>
<path d="M2792 2465 c-25 -18 -29 -35 -8 -35 17 0 39 26 34 40 -2 6 -12 4 -26
-5z"/>
<path d="M2881 2434 c-15 -31 -19 -50 -12 -57 7 -7 17 6 32 37 15 31 20 49 13
56 -7 7 -18 -5 -33 -36z"/>
<path d="M2933 2405 c-8 -21 1 -28 26 -20 12 4 18 12 14 21 -7 19 -32 18 -40
-1z"/>
<path d="M3016 2385 c-10 -26 -7 -32 15 -38 17 -5 20 -1 17 21 -4 30 -23 40
-32 17z"/>
<path d="M3078 2370 c-18 -40 -15 -51 8 -28 9 8 14 26 12 39 -4 22 -6 22 -20
-11z"/>
<path d="M3130 2365 c-6 -19 -10 -43 -8 -52 4 -16 5 -16 15 2 15 29 24 85 14
85 -5 0 -15 -16 -21 -35z"/>
<path d="M3326 2069 c-6 -36 8 -119 19 -119 3 0 5 36 5 80 0 85 -13 107 -24
39z"/>
<path d="M3370 2043 c0 -61 6 -93 19 -93 9 0 1 134 -10 145 -5 5 -9 -15 -9
-52z"/>
<path d="M4053 2448 c3 -13 11 -58 18 -100 6 -43 16 -78 21 -78 5 0 7 15 4 33
-3 17 -8 55 -11 82 -3 28 -8 58 -11 68 -8 25 -27 21 -21 -5z"/>
<path d="M3924 2365 c-18 -44 -18 -108 1 -144 14 -29 74 -85 82 -78 2 3 -11
28 -29 57 -30 49 -33 59 -31 127 1 40 0 73 -3 73 -3 0 -12 -16 -20 -35z"/>
<path d="M4270 2030 c0 -5 4 -10 9 -10 19 0 61 -51 61 -74 0 -29 -46 -68 -118
-100 -44 -20 -55 -36 -24 -36 31 0 140 59 163 88 27 35 20 88 -16 120 -26 22
-75 30 -75 12z"/>
<path d="M4178 1999 c-24 -14 -23 -32 2 -24 23 7 60 -10 60 -28 0 -7 -25 -25
-56 -41 -40 -19 -54 -30 -46 -38 24 -24 120 29 136 75 18 49 -45 86 -96 56z"/>
<path d="M4771 3432 c-8 -15 -7 -23 4 -32 16 -13 35 -6 35 14 0 8 -6 19 -14
25 -12 10 -17 8 -25 -7z"/>
<path d="M186 3424 c-4 -10 -2 -22 3 -27 14 -14 43 0 39 20 -4 24 -34 28 -42
7z"/>
<path d="M137 3296 c-6 -15 11 -36 29 -36 21 0 35 25 22 38 -16 16 -45 15 -51
-2z"/>
<path d="M4814 3295 c-13 -32 23 -48 47 -19 10 13 10 17 -2 25 -21 13 -39 11
-45 -6z"/>
<path d="M107 3173 c-25 -24 11 -49 40 -28 16 13 16 16 3 25 -17 11 -34 13
-43 3z"/>
<path d="M4853 3164 c-9 -24 11 -38 37 -24 17 9 19 14 9 26 -15 19 -38 18 -46
-2z"/>
<path d="M77 3053 c-10 -10 -8 -41 3 -48 5 -3 19 -1 31 5 20 11 20 12 3 31
-18 20 -27 23 -37 12z"/>
<path d="M4890 3045 c-10 -12 -10 -18 0 -31 11 -13 15 -13 27 -1 13 13 8 47
-7 47 -4 0 -13 -7 -20 -15z"/>
<path d="M47 2913 c-12 -12 -7 -31 10 -37 9 -4 23 0 32 9 14 14 14 17 1 25
-18 11 -34 13 -43 3z"/>
<path d="M4912 2908 c-7 -7 -8 -17 -1 -30 13 -24 26 -23 40 3 9 17 8 23 -2 30
-18 11 -23 11 -37 -3z"/>
<path d="M26 2781 c-9 -14 4 -41 19 -41 7 0 18 7 26 16 10 13 10 17 -2 25 -18
11 -36 11 -43 0z"/>
<path d="M4928 2778 c-13 -35 27 -53 51 -24 10 12 8 17 -8 25 -26 14 -38 14
-43 -1z"/>
<path d="M20 2645 c-6 -8 -9 -19 -5 -25 9 -15 41 -12 54 4 10 12 8 17 -8 25
-25 14 -26 14 -41 -4z"/>
<path d="M4942 2648 c-7 -7 -8 -17 -1 -30 12 -22 18 -22 43 -3 20 15 20 15 0
30 -23 18 -27 18 -42 3z"/>
<path d="M4944 2515 c-8 -21 2 -45 20 -45 19 0 29 29 15 46 -15 18 -28 18 -35
-1z"/>
<path d="M4 2508 c-6 -10 20 -38 37 -38 10 0 20 30 13 41 -8 13 -41 11 -50 -3z"/>
<path d="M4942 2383 c-18 -34 9 -58 36 -31 7 7 8 17 1 30 -12 23 -26 23 -37 1z"/>
<path d="M14 2375 c-3 -8 1 -24 9 -36 l15 -21 12 22 c6 12 9 28 6 36 -7 18
-35 18 -42 -1z"/>
<path d="M29 2244 c-10 -12 -9 -18 3 -31 19 -18 38 -10 38 17 0 24 -25 33 -41
14z"/>
<path d="M4932 2248 c-15 -15 -3 -38 18 -38 10 0 23 6 29 13 8 11 5 16 -13 25
-16 7 -27 7 -34 0z"/>
<path d="M43 2114 c-3 -8 1 -22 9 -30 13 -13 16 -13 27 -1 14 17 4 47 -15 47
-8 0 -17 -7 -21 -16z"/>
<path d="M4907 2106 c-9 -23 18 -39 43 -26 17 9 19 14 9 26 -15 18 -45 18 -52
0z"/>
<path d="M71 1976 c-18 -21 11 -41 39 -26 17 9 19 14 9 26 -15 18 -33 18 -48
0z"/>
<path d="M4880 1980 c-13 -8 -13 -11 2 -26 20 -20 51 -11 46 13 -4 21 -27 27
-48 13z"/>
<path d="M112 1868 c-14 -14 -16 -44 -3 -52 4 -3 16 1 26 8 16 12 17 15 3 34
-11 17 -17 19 -26 10z"/>
<path d="M4854 1845 c-13 -32 23 -48 47 -19 10 13 10 17 -2 25 -21 13 -39 11
-45 -6z"/>
<path d="M140 1725 c-10 -12 -10 -18 0 -30 15 -18 20 -18 45 1 20 15 20 15 1
30 -25 18 -31 18 -46 -1z"/>
<path d="M4814 1715 c-7 -18 3 -35 21 -35 15 0 28 27 19 41 -8 14 -34 11 -40
-6z"/>
<path d="M187 1596 c-8 -19 16 -38 37 -30 19 7 20 16 4 32 -16 16 -35 15 -41
-2z"/>
<path d="M4761 1597 c-9 -11 -8 -17 4 -27 19 -16 47 -5 43 17 -4 23 -31 28
-47 10z"/>
<path d="M240 1474 c-11 -12 -10 -18 3 -31 15 -15 18 -15 37 2 20 18 20 20 4
32 -23 17 -29 16 -44 -3z"/>
<path d="M4713 1474 c-3 -8 1 -22 9 -30 12 -12 17 -12 33 0 16 12 17 16 6 30
-17 20 -40 21 -48 0z"/>
<path d="M300 1355 c-10 -13 -9 -19 6 -36 l18 -20 12 23 c20 37 -10 64 -36 33z"/>
<path d="M4654 1355 c-8 -20 4 -35 26 -35 25 0 35 17 20 35 -16 19 -39 19 -46
0z"/>
<path d="M363 1234 c-10 -26 13 -39 43 -25 26 11 26 12 8 26 -25 19 -43 19
-51 -1z"/>
<path d="M4591 1237 c-9 -11 -8 -17 3 -26 18 -15 48 -3 44 18 -4 21 -32 26
-47 8z"/>
<path d="M440 1124 c-11 -12 -11 -18 1 -30 13 -12 18 -12 34 0 16 12 17 16 6
30 -17 20 -25 20 -41 0z"/>
<path d="M4514 1125 c-8 -20 4 -35 26 -35 25 0 35 17 20 35 -16 19 -39 19 -46
0z"/>
<path d="M514 1015 c-12 -29 15 -45 45 -26 12 8 12 12 2 25 -17 20 -40 21 -47
1z"/>
<path d="M4431 1016 c-10 -12 -8 -17 9 -26 28 -15 57 5 39 26 -15 18 -33 18
-48 0z"/>
<path d="M600 914 c-11 -12 -11 -18 2 -30 13 -13 19 -14 36 -3 20 12 20 15 5
31 -20 22 -27 22 -43 2z"/>
<path d="M4356 911 c-10 -16 5 -42 23 -39 21 4 21 42 -1 46 -9 2 -19 -1 -22
-7z"/>
<path d="M690 815 c-23 -28 15 -47 50 -25 13 8 12 11 -5 24 -25 19 -30 19 -45
1z"/>
<path d="M4270 815 c-11 -13 -11 -19 3 -33 20 -19 41 -5 35 24 -4 24 -22 28
-38 9z"/>
<path d="M783 714 c-9 -24 11 -38 36 -25 25 14 27 27 5 35 -25 9 -34 7 -41
-10z"/>
<path d="M4175 720 c-8 -12 3 -50 14 -50 15 0 33 30 27 45 -6 17 -32 20 -41 5z"/>
<path d="M884 625 c-13 -32 23 -48 47 -19 10 13 10 17 -2 25 -21 13 -39 11
-45 -6z"/>
<path d="M4073 624 c-3 -8 1 -22 9 -30 13 -13 16 -13 27 0 7 9 11 23 7 31 -7
20 -35 19 -43 -1z"/>
<path d="M991 556 c-16 -19 -7 -46 14 -46 22 0 30 29 13 46 -13 13 -16 13 -27
0z"/>
<path d="M3972 548 c-8 -8 -9 -15 -1 -25 15 -17 34 -17 48 1 10 12 8 17 -8 25
-24 14 -24 14 -39 -1z"/>
<path d="M1101 476 c-16 -19 -7 -46 14 -46 22 0 30 29 13 46 -13 13 -16 13
-27 0z"/>
<path d="M3864 465 c-4 -9 -2 -21 4 -27 15 -15 44 -1 40 19 -4 23 -36 29 -44
8z"/>
<path d="M1211 406 c-16 -19 -7 -46 14 -46 22 0 30 29 13 46 -13 13 -16 13
-27 0z"/>
<path d="M3753 399 c-6 -6 -9 -18 -6 -25 7 -18 37 -18 52 0 10 12 8 17 -8 25
-24 14 -24 14 -38 0z"/>
<path d="M3642 348 c-15 -15 -15 -45 -1 -54 6 -3 18 0 26 9 14 13 14 18 1 36
-11 16 -17 18 -26 9z"/>
<path d="M1320 320 c0 -26 25 -36 45 -20 12 10 13 16 4 26 -18 22 -49 17 -49
-6z"/>
<path d="M1446 271 c-15 -17 -15 -19 0 -31 11 -10 20 -11 32 -4 23 15 24 28 3
41 -15 10 -22 9 -35 -6z"/>
<path d="M3523 283 c-18 -6 -16 -42 2 -49 16 -6 45 12 45 27 0 12 -33 27 -47
22z"/>
<path d="M1570 225 c-11 -13 -11 -19 2 -32 17 -16 38 -10 38 11 0 8 -6 19 -14
25 -10 9 -16 8 -26 -4z"/>
<path d="M3391 221 c-8 -14 -7 -22 4 -31 22 -19 48 5 34 31 -5 10 -14 19 -19
19 -5 0 -14 -9 -19 -19z"/>
<path d="M1690 174 c-11 -12 -11 -18 2 -30 13 -13 19 -14 36 -3 20 12 20 15 5
31 -20 22 -27 22 -43 2z"/>
<path d="M3270 175 c-9 -11 -11 -22 -4 -32 13 -21 25 -21 38 -1 8 14 7 21 -5
33 -14 15 -17 15 -29 0z"/>
<path d="M1820 134 c-11 -12 -10 -18 3 -32 16 -15 18 -15 34 0 13 14 14 20 3
32 -16 20 -24 20 -40 0z"/>
<path d="M3141 136 c-18 -22 4 -62 25 -45 18 15 18 33 0 48 -10 9 -16 8 -25
-3z"/>
<path d="M1944 99 c-3 -6 1 -18 10 -27 15 -15 17 -15 32 0 19 19 11 38 -16 38
-10 0 -22 -5 -26 -11z"/>
<path d="M3004 99 c-3 -6 1 -18 10 -27 15 -15 17 -15 32 0 19 19 11 38 -16 38
-10 0 -22 -5 -26 -11z"/>
<path d="M2881 86 c-16 -19 -7 -46 14 -46 22 0 30 29 13 46 -13 13 -16 13 -27
0z"/>
<path d="M2080 75 c-11 -13 -11 -19 3 -33 20 -19 41 -5 35 24 -4 24 -22 28
-38 9z"/>
<path d="M2217 63 c-11 -10 -8 -41 5 -49 17 -11 40 26 27 43 -13 14 -22 16
-32 6z"/>
<path d="M2345 50 c-8 -24 1 -40 21 -40 20 0 29 27 14 45 -17 20 -27 19 -35
-5z"/>
<path d="M2744 55 c-9 -23 15 -48 32 -34 19 15 18 35 -2 43 -22 8 -24 8 -30
-9z"/>
<path d="M2612 48 c-13 -13 2 -38 23 -38 21 0 36 25 23 38 -15 15 -31 15 -46
0z"/>
<path d="M2470 41 c0 -37 32 -55 44 -25 10 27 7 34 -19 34 -14 0 -25 -4 -25
-9z"/>
</g>
</svg>
