<?xml version="1.0" standalone="no"?>
<!DOCTYPE svg PUBLIC "-//W3C//DTD SVG 20010904//EN"
 "http://www.w3.org/TR/2001/REC-SVG-20010904/DTD/svg10.dtd">
<svg version="1.0" xmlns="http://www.w3.org/2000/svg"
 width="499.000000pt" height="500.000000pt" viewBox="0 0 499.000000 500.000000"
 preserveAspectRatio="xMidYMid meet">
<metadata>
Created by potrace 1.15, written by Peter Selinger 2001-2017
</metadata>
<g transform="translate(0.000000,500.000000) scale(0.100000,-0.100000)"
fill="#000000" stroke="none">
<path d="M2345 4969 c-9 -26 12 -41 37 -28 21 11 23 20 6 37 -18 18 -36 14
-43 -9z"/>
<path d="M2480 4980 c-12 -7 -12 -13 -4 -27 16 -26 39 -22 39 6 0 27 -13 35
-35 21z"/>
<path d="M2617 4983 c-12 -11 -8 -41 6 -46 7 -3 22 2 32 10 20 14 20 14 1 29
-22 16 -30 17 -39 7z"/>
<path d="M2214 4965 c-8 -20 4 -35 26 -35 28 0 35 19 14 35 -24 18 -33 18 -40
0z"/>
<path d="M2750 4965 c-15 -18 -5 -35 20 -35 10 0 22 5 25 10 7 11 -12 40 -25
40 -4 0 -13 -7 -20 -15z"/>
<path d="M2081 4941 c-6 -10 -7 -21 -4 -25 11 -11 40 -6 52 8 10 12 8 17 -8
25 -26 15 -29 14 -40 -8z"/>
<path d="M2880 4945 c-6 -8 -9 -19 -5 -25 9 -15 41 -12 54 4 10 12 8 17 -8 25
-25 14 -26 14 -41 -4z"/>
<path d="M1943 4914 c-3 -8 1 -22 9 -30 13 -13 16 -13 27 0 7 9 11 23 7 31 -7
20 -35 19 -43 -1z"/>
<path d="M3004 4916 c-3 -9 1 -23 11 -32 15 -15 17 -15 30 2 8 11 13 24 11 29
-5 17 -46 18 -52 1z"/>
<path d="M1822 4887 c-7 -8 -7 -18 -2 -27 7 -12 13 -12 37 -1 27 12 27 13 8
27 -23 17 -30 17 -43 1z"/>
<path d="M3140 4885 c-21 -26 3 -42 37 -26 27 12 27 13 8 27 -24 18 -30 18
-45 -1z"/>
<path d="M1691 4851 c-16 -28 14 -51 36 -28 13 13 14 19 3 31 -17 21 -27 20
-39 -3z"/>
<path d="M3271 4846 c-14 -17 9 -39 33 -30 20 8 21 30 0 38 -21 8 -20 8 -33
-8z"/>
<path d="M1570 4804 c-11 -12 -10 -18 3 -32 16 -15 18 -15 34 0 13 14 14 20 3
32 -7 9 -16 16 -20 16 -4 0 -13 -7 -20 -16z"/>
<path d="M3403 4813 c-15 -5 -17 -39 -3 -48 11 -7 50 11 50 23 0 12 -34 29
-47 25z"/>
<path d="M1442 4747 c-7 -8 -6 -18 4 -32 13 -18 15 -18 30 -3 19 18 12 48 -9
48 -8 0 -19 -6 -25 -13z"/>
<path d="M3517 4753 c-24 -23 12 -55 38 -33 12 10 13 16 4 26 -12 15 -31 18
-42 7z"/>
<path d="M1325 4690 c-8 -12 3 -50 14 -50 15 0 33 30 27 45 -6 17 -32 20 -41
5z"/>
<path d="M3635 4690 c-8 -12 3 -50 14 -50 15 0 33 30 27 45 -6 17 -32 20 -41
5z"/>
<path d="M1210 4625 c-16 -19 8 -59 27 -43 17 14 17 45 -1 51 -8 3 -20 0 -26
-8z"/>
<path d="M3757 4633 c-4 -3 -7 -15 -7 -25 0 -22 32 -24 49 -4 10 12 8 17 -8
25 -23 13 -26 13 -34 4z"/>
<path d="M3872 4568 c-16 -16 -15 -45 2 -51 23 -9 39 18 26 42 -13 25 -12 25
-28 9z"/>
<path d="M1093 4544 c-3 -8 1 -22 9 -30 13 -13 16 -13 27 0 7 9 11 23 7 31 -7
20 -35 19 -43 -1z"/>
<path d="M2728 4533 c-24 -6 -23 -20 3 -28 15 -5 19 -12 15 -28 -3 -12 -6 -30
-6 -39 0 -15 -9 -18 -53 -18 -98 0 -167 -76 -167 -186 0 -34 6 -51 25 -69 32
-33 53 -31 103 5 l42 30 0 -25 c0 -29 36 -43 69 -25 27 14 27 30 1 30 -11 0
-20 5 -20 10 0 6 16 83 35 173 19 89 35 165 35 170 0 7 -53 8 -82 0z m-24
-139 c37 -14 5 -147 -46 -189 -37 -32 -53 -32 -75 1 -16 24 -15 29 2 82 29 85
73 124 119 106z"/>
<path d="M1387 4523 c-14 -13 -6 -23 18 -23 33 0 33 -19 -1 -174 -29 -130 -36
-146 -65 -146 -11 0 -19 -7 -19 -15 0 -12 16 -15 85 -15 69 0 85 3 85 15 0 10
-10 15 -26 15 -26 0 -26 2 -20 43 4 23 11 59 17 80 9 34 13 37 46 37 34 0 35
-1 30 -30 -5 -24 -3 -30 11 -30 14 0 21 14 30 58 15 74 15 82 -2 82 -8 0 -17
-11 -20 -25 -5 -21 -12 -25 -42 -25 l-36 0 7 38 c13 71 26 87 74 90 25 2 55 1
69 -3 22 -5 24 -10 19 -40 -5 -29 -3 -35 13 -35 14 0 21 12 29 50 6 28 11 53
11 55 0 8 -306 6 -313 -2z"/>
<path d="M990 4474 c-11 -12 -11 -18 1 -30 13 -12 18 -12 34 0 16 12 17 16 6
30 -17 20 -25 20 -41 0z"/>
<path d="M3977 4483 c-12 -11 -8 -41 6 -46 7 -3 21 1 32 9 18 14 18 14 -1 29
-22 16 -28 18 -37 8z"/>
<path d="M2077 4416 c-50 -18 -85 -51 -108 -101 -36 -78 -14 -156 46 -168 35
-6 142 22 149 39 7 18 -3 18 -49 -2 -46 -19 -82 -11 -97 21 -17 37 -4 52 59
70 98 29 113 40 113 84 0 60 -44 82 -113 57z m61 -46 c4 -36 -16 -58 -70 -74
-55 -16 -60 -9 -33 44 31 60 97 79 103 30z"/>
<path d="M2361 4415 c-77 -24 -121 -83 -123 -163 -2 -94 37 -122 136 -97 59
15 85 29 74 40 -3 3 -25 -2 -49 -10 -53 -19 -86 -13 -101 20 -17 38 -4 52 76
75 42 13 80 28 85 34 21 25 22 62 4 83 -25 29 -51 34 -102 18z m57 -51 c4 -37
-10 -49 -72 -68 -50 -15 -53 -12 -32 38 28 68 98 88 104 30z"/>
<path d="M2975 4423 c-79 -19 -135 -85 -135 -162 0 -109 88 -152 187 -91 58
35 88 110 71 176 -14 53 -71 89 -123 77z m61 -48 c14 -22 15 -33 4 -91 -15
-76 -43 -116 -83 -116 -58 0 -77 49 -52 137 10 31 26 66 36 76 28 28 75 25 95
-6z"/>
<path d="M3344 4420 c-11 -4 -37 -27 -58 -51 l-36 -43 6 47 7 47 -35 0 c-19 0
-43 -7 -54 -15 -19 -14 -19 -15 4 -21 27 -8 27 -23 2 -134 -24 -106 -25 -100
4 -100 15 0 26 7 29 18 3 9 10 37 17 62 14 54 70 135 99 143 19 5 21 1 21 -36
-1 -23 -7 -69 -15 -102 -20 -80 -19 -85 9 -85 22 0 26 7 36 54 13 61 73 155
108 167 20 8 22 5 22 -24 0 -18 -7 -57 -15 -87 -19 -71 -19 -106 1 -114 28
-11 51 -6 69 14 18 19 17 20 -7 20 -25 0 -25 1 -17 43 5 23 15 67 22 98 15 61
9 94 -20 101 -29 8 -55 -6 -96 -51 l-37 -41 0 40 c0 29 -5 42 -19 50 -22 11
-19 11 -47 0z"/>
<path d="M1728 4413 c-22 -5 -24 -33 -3 -33 8 0 15 -9 15 -19 0 -17 -19 -119
-35 -188 -4 -19 -1 -23 19 -23 25 0 29 6 41 68 10 47 82 152 106 152 11 0 19
-7 19 -16 0 -9 7 -14 17 -12 12 2 20 16 24 41 6 36 5 37 -27 37 -26 0 -40 -9
-73 -47 l-40 -48 6 48 c6 47 6 47 -23 46 -16 -1 -37 -3 -46 -6z"/>
<path d="M4079 4397 c-14 -31 -2 -52 24 -41 21 8 22 24 3 49 -14 19 -15 19
-27 -8z"/>
<path d="M884 4385 c-13 -32 23 -48 47 -19 10 13 10 17 -2 25 -21 13 -39 11
-45 -6z"/>
<path d="M783 4294 c-9 -24 11 -38 37 -24 17 9 19 14 9 26 -15 19 -38 18 -46
-2z"/>
<path d="M4162 4297 c-8 -10 -6 -16 10 -26 17 -11 23 -10 35 2 9 8 12 20 9 26
-10 15 -41 14 -54 -2z"/>
<path d="M4270 4210 c-12 -23 -6 -40 15 -40 19 0 27 17 20 40 -8 26 -21 25
-35 0z"/>
<path d="M693 4209 c-15 -15 -5 -39 16 -39 29 0 43 21 23 36 -21 17 -25 17
-39 3z"/>
<path d="M600 4105 c-6 -8 -9 -19 -5 -25 9 -15 41 -12 54 4 10 12 8 17 -8 25
-25 14 -26 14 -41 -4z"/>
<path d="M4350 4105 c-12 -14 -11 -18 1 -26 22 -14 44 -6 44 16 0 25 -28 31
-45 10z"/>
<path d="M522 4018 c-16 -16 -15 -33 2 -47 21 -18 41 11 26 38 -13 25 -12 25
-28 9z"/>
<path d="M4452 4018 c-15 -15 -15 -45 -1 -54 6 -3 18 0 26 9 14 13 14 18 1 36
-11 16 -17 18 -26 9z"/>
<path d="M440 3894 c-11 -12 -10 -18 3 -31 15 -15 18 -15 37 2 19 17 19 19 2
31 -22 17 -27 17 -42 -2z"/>
<path d="M4521 3896 c-9 -11 -9 -19 1 -35 17 -27 26 -26 34 3 10 41 -12 60
-35 32z"/>
<path d="M1244 3872 c-18 -18 -31 -42 -48 -94 -3 -11 -15 -18 -31 -18 -16 0
-25 -6 -25 -15 0 -8 9 -15 20 -15 13 0 20 -7 20 -18 0 -35 -47 -257 -59 -280
-15 -29 -51 -30 -51 -1 0 14 -5 19 -17 17 -13 -2 -18 -13 -18 -33 0 -28 3 -30
38 -33 45 -4 80 16 100 56 8 15 24 81 37 147 13 66 27 126 33 133 5 6 22 12
38 12 19 0 29 5 29 15 0 10 -10 15 -34 15 -33 0 -34 1 -26 28 15 50 21 59 46
71 22 10 26 8 36 -14 15 -33 33 -27 33 11 0 28 -2 29 -50 32 -39 2 -55 -2 -71
-16z"/>
<path d="M1527 3874 c-14 -14 -7 -24 18 -24 33 0 32 -6 -11 -164 -36 -131 -55
-169 -79 -160 -7 3 -15 -2 -18 -10 -5 -14 5 -16 68 -16 60 0 75 3 75 15 0 8
-9 15 -19 15 -11 0 -22 4 -25 8 -6 10 56 262 64 262 3 0 14 -67 24 -150 l19
-150 26 0 c23 0 33 15 100 145 41 80 76 143 78 141 6 -6 -16 -227 -23 -238 -3
-5 -17 -13 -30 -18 -48 -19 -24 -30 61 -30 69 0 85 3 85 15 0 9 -9 15 -25 15
-30 0 -31 8 -11 184 13 115 21 135 54 136 6 0 12 7 12 15 0 19 -88 21 -112 3
-9 -7 -49 -76 -90 -153 -58 -111 -74 -135 -77 -115 -2 14 -11 81 -20 150 l-16
125 -60 3 c-34 2 -64 0 -68 -4z"/>
<path d="M4076 3806 c-11 -20 -31 -39 -47 -45 -33 -11 -39 -31 -9 -31 11 0 20
-2 20 -4 0 -2 -9 -49 -21 -105 -16 -80 -18 -105 -9 -117 14 -16 53 -18 81 -4
31 17 23 32 -12 25 -27 -6 -30 -5 -26 11 3 11 14 56 23 102 16 78 19 83 48 90
40 11 46 32 8 32 -29 0 -29 1 -22 40 9 51 -8 54 -34 6z"/>
<path d="M370 3785 c-9 -11 -11 -22 -4 -32 13 -21 25 -21 38 -1 8 14 7 21 -5
33 -14 15 -17 15 -29 0z"/>
<path d="M4603 3793 c-15 -5 -17 -39 -3 -48 9 -6 50 15 50 25 0 10 -35 27 -47
23z"/>
<path d="M910 3759 c-62 -25 -100 -85 -100 -158 0 -70 28 -102 96 -108 57 -6
103 19 141 76 39 58 25 163 -26 191 -24 12 -78 12 -111 -1z m85 -34 c29 -28
30 -33 10 -110 -29 -113 -118 -143 -141 -48 -10 37 25 141 54 164 32 25 48 24
77 -6z"/>
<path d="M2088 3750 c-94 -50 -114 -211 -31 -249 89 -41 199 29 211 134 12
110 -78 168 -180 115z m100 -16 c27 -19 30 -78 6 -148 -28 -83 -101 -101 -130
-31 -17 43 20 164 56 182 32 16 41 16 68 -3z"/>
<path d="M2353 3763 c-38 -5 -68 -33 -35 -33 28 0 31 -6 53 -127 10 -58 20
-107 21 -108 13 -11 53 24 84 72 43 67 104 177 104 186 0 4 -20 7 -45 7 -33 0
-45 -4 -45 -15 0 -8 9 -15 20 -15 11 0 20 -2 20 -5 0 -3 -21 -42 -47 -87 -53
-92 -53 -93 -72 45 -7 48 -16 86 -20 85 -3 0 -20 -3 -38 -5z"/>
<path d="M2698 3750 c-44 -24 -72 -61 -88 -118 -22 -84 15 -142 92 -142 42 0
101 21 113 40 12 19 0 21 -38 5 -54 -22 -84 -19 -104 11 -24 37 -9 54 73 80
97 32 129 79 84 124 -26 26 -83 26 -132 0z m76 -6 c16 -6 21 -39 10 -68 -6
-16 -101 -52 -111 -42 -11 11 28 82 55 99 32 20 27 18 46 11z"/>
<path d="M2943 3763 c-29 -3 -43 -9 -43 -19 0 -8 7 -14 15 -14 20 0 19 -35 -4
-140 -20 -89 -16 -114 16 -94 9 6 22 33 28 62 13 54 32 90 73 135 54 57 67 26
42 -100 -17 -83 -18 -103 -2 -103 20 1 33 21 46 68 15 60 72 149 100 158 36
12 40 -11 16 -106 -15 -61 -19 -95 -13 -101 14 -14 86 -7 91 9 3 9 -3 11 -23
6 -30 -7 -30 -17 6 125 17 67 17 77 4 98 -9 13 -22 23 -31 23 -26 0 -71 -28
-97 -61 l-25 -32 1 37 c2 71 -54 76 -117 10 l-44 -45 5 45 c3 25 4 45 2 44 -2
-1 -23 -3 -46 -5z"/>
<path d="M3475 3755 c-70 -33 -105 -87 -105 -163 0 -43 5 -58 25 -77 13 -14
35 -25 48 -25 33 0 125 28 133 41 11 18 -2 20 -34 3 -48 -23 -94 -15 -110 20
-18 37 -8 47 83 75 74 24 95 41 95 78 0 54 -69 79 -135 48z m75 -38 c0 -36
-27 -66 -71 -77 -23 -6 -43 -9 -45 -7 -8 8 17 61 38 85 13 13 33 22 50 22 22
0 28 -4 28 -23z"/>
<path d="M3798 3720 l-48 -49 7 45 6 45 -43 -3 c-40 -3 -72 -28 -36 -28 21 0
20 -17 -4 -130 -11 -51 -20 -95 -20 -97 0 -3 12 -3 27 -1 23 3 28 10 38 54 13
59 45 115 82 144 57 44 66 16 34 -106 -12 -47 -15 -77 -9 -88 12 -21 62 -21
82 0 22 22 20 27 -9 20 -30 -8 -31 -4 -5 94 23 87 25 121 8 138 -25 25 -61 13
-110 -38z"/>
<path d="M302 3670 c-14 -23 -8 -40 12 -40 24 0 36 23 22 43 -17 22 -18 21
-34 -3z"/>
<path d="M4660 3670 c-12 -23 -6 -40 15 -40 19 0 27 17 20 40 -8 26 -21 25
-35 0z"/>
<path d="M240 3550 c-13 -25 -5 -40 20 -40 10 0 22 4 25 10 7 12 -12 50 -25
50 -5 0 -14 -9 -20 -20z"/>
<path d="M4720 3545 c-17 -21 6 -61 26 -44 18 15 18 45 0 52 -8 3 -20 0 -26
-8z"/>
<path d="M186 3424 c-4 -10 -2 -22 3 -27 14 -14 43 0 39 20 -4 24 -34 28 -42
7z"/>
<path d="M4770 3411 c0 -25 21 -32 45 -14 17 12 18 15 5 23 -25 16 -50 12 -50
-9z"/>
<path d="M147 3303 c-24 -23 12 -55 38 -33 12 10 13 16 4 26 -12 15 -31 18
-42 7z"/>
<path d="M4820 3295 c-21 -25 2 -42 36 -26 26 11 26 12 8 26 -24 18 -29 18
-44 0z"/>
<path d="M2370 3281 c-153 -47 -232 -216 -166 -356 12 -27 43 -72 68 -100 60
-67 65 -78 73 -166 6 -65 4 -83 -14 -123 -22 -51 -189 -263 -346 -441 -99
-113 -134 -169 -135 -217 0 -15 -23 -72 -52 -128 -28 -55 -48 -103 -44 -107
13 -14 97 40 145 93 37 40 52 66 61 106 16 66 26 78 180 198 69 54 145 119
170 144 24 25 49 46 55 46 11 0 28 -28 87 -143 51 -101 53 -148 9 -242 -25
-54 -35 -100 -56 -245 -39 -278 -34 -406 24 -668 17 -76 21 -121 19 -240 -2
-129 0 -157 21 -227 13 -44 27 -111 31 -149 4 -38 14 -73 21 -78 8 -5 32 -6
54 -3 22 3 103 9 180 13 109 5 147 11 168 25 29 19 34 39 15 55 -7 5 -58 23
-113 38 -118 34 -156 57 -169 103 -10 35 -1 148 29 381 13 100 14 140 6 198
-6 40 -11 79 -11 87 0 14 188 135 230 147 15 5 65 0 125 -12 55 -11 150 -27
210 -35 128 -19 187 -43 280 -114 73 -56 80 -59 181 -63 53 -3 84 -10 123 -31
89 -46 111 -36 126 56 4 28 22 55 69 105 140 149 102 168 -112 55 -35 -18 -73
-33 -85 -33 -58 1 -199 79 -287 159 -25 23 -122 81 -220 132 -96 50 -177 93
-179 94 -1 2 11 21 27 42 75 94 83 209 23 327 -50 98 -147 175 -221 176 -40 1
-47 11 -54 87 l-7 73 33 20 c18 11 71 35 118 52 85 33 85 33 275 33 105 1 196
2 203 3 21 4 13 18 -20 34 l-33 16 83 40 c46 23 89 43 95 46 8 3 7 8 -3 15
-23 16 -118 13 -269 -9 -125 -19 -163 -20 -479 -13 l-344 8 -24 28 c-13 15
-24 38 -24 51 0 19 4 22 24 19 18 -4 34 5 65 36 47 47 51 67 16 83 -31 14 -32
28 -2 28 27 0 57 28 57 54 0 27 19 56 36 56 22 0 10 32 -39 105 -42 61 -46 80
-32 158 6 32 3 42 -15 63 -48 50 -182 78 -260 55z m210 -193 c20 -14 49 -51
71 -92 32 -59 35 -71 23 -80 -8 -6 -18 -31 -22 -56 l-8 -45 -63 2 c-75 2 -76
-9 -3 -52 28 -16 51 -33 52 -37 0 -3 -18 -20 -40 -38 -45 -36 -50 -35 -134 32
-27 21 -51 36 -54 34 -2 -3 18 -31 47 -61 45 -50 71 -98 59 -110 -2 -2 -32 3
-66 13 l-62 16 0 49 c0 27 -11 83 -26 124 -14 42 -24 93 -22 112 3 35 4 36 41
35 42 -1 42 -1 22 30 -13 20 -13 27 1 69 17 49 28 62 59 70 48 12 93 6 125
-15z m980 -557 c0 -5 -25 -24 -56 -41 -48 -28 -55 -36 -50 -56 6 -21 4 -22
-31 -18 -21 3 -60 10 -86 15 -76 14 -92 12 -266 -38 -149 -42 -166 -45 -195
-33 -17 7 -61 23 -98 36 -106 36 -158 67 -178 105 -8 14 29 16 393 16 234 -1
429 4 467 10 87 14 100 15 100 4z m-1113 -33 c34 -32 31 -92 -7 -150 -40 -60
-206 -219 -305 -292 -158 -117 -183 -142 -190 -190 -4 -24 -14 -55 -24 -69
-19 -30 -111 -113 -111 -100 0 12 69 192 87 227 8 16 82 111 163 210 80 100
177 222 214 271 38 50 75 96 84 103 24 19 63 14 89 -10z m672 -955 c-45 -56
-136 -109 -243 -142 -85 -26 -97 -21 -18 7 32 12 100 51 152 87 95 65 137 84
109 48z m201 -73 c48 -22 92 -40 98 -40 6 0 48 -32 94 -70 80 -69 275 -180
313 -180 10 0 54 23 99 50 153 94 195 86 93 -19 -73 -74 -82 -89 -92 -148 -3
-23 -13 -44 -20 -47 -8 -3 -31 7 -52 21 -58 40 -97 53 -156 53 -70 0 -136 33
-220 110 l-65 60 -114 0 c-142 0 -344 30 -336 50 2 4 37 35 79 68 43 33 92 79
110 102 39 48 39 48 169 -10z m-651 -390 c16 -74 14 -153 -9 -282 -35 -201
-41 -294 -23 -339 23 -59 60 -84 160 -108 90 -23 122 -35 112 -45 -3 -4 -84
-13 -179 -21 -191 -17 -200 -15 -200 40 0 18 -9 62 -20 97 -34 109 -44 210
-31 302 9 58 9 89 2 109 -6 16 -22 74 -36 130 -14 56 -28 110 -31 120 -5 15 3
17 63 18 37 0 86 6 108 14 68 22 72 20 84 -35z"/>
<path d="M2499 3053 c-13 -15 -11 -16 11 -10 14 4 33 7 43 7 10 0 15 5 12 10
-10 16 -51 12 -66 -7z"/>
<path d="M2522 2998 c-7 -7 -12 -19 -12 -27 0 -11 3 -12 12 -3 9 9 17 5 35
-15 29 -30 52 -19 34 15 -9 17 -8 23 6 31 15 8 10 10 -22 11 -23 0 -46 -5 -53
-12z"/>
<path d="M102 3167 c-7 -8 -6 -18 4 -32 13 -18 15 -18 30 -3 19 18 12 48 -9
48 -8 0 -19 -6 -25 -13z"/>
<path d="M4856 3164 c-12 -31 21 -47 43 -21 8 10 7 17 -1 25 -17 17 -35 15
-42 -4z"/>
<path d="M77 3043 c-24 -23 12 -55 38 -33 12 10 13 16 4 26 -12 15 -31 18 -42
7z"/>
<path d="M4890 3035 c-11 -13 -11 -19 4 -33 15 -15 18 -15 26 -2 22 33 -6 64
-30 35z"/>
<path d="M4914 2915 c-9 -21 3 -45 21 -45 21 0 30 27 15 45 -16 19 -29 19 -36
0z"/>
<path d="M47 2913 c-24 -23 12 -55 38 -33 12 10 13 16 4 26 -12 15 -31 18 -42
7z"/>
<path d="M30 2775 c-15 -18 -5 -35 20 -35 10 0 22 5 25 10 7 11 -12 40 -25 40
-4 0 -13 -7 -20 -15z"/>
<path d="M4937 2783 c-12 -11 -8 -41 6 -46 6 -2 20 2 29 11 17 14 17 16 0 28
-20 15 -26 17 -35 7z"/>
<path d="M20 2644 c-11 -12 -11 -18 2 -30 13 -13 19 -14 36 -3 20 12 20 15 5
31 -20 22 -27 22 -43 2z"/>
<path d="M4945 2640 c-8 -13 3 -50 15 -50 13 0 32 39 25 50 -8 13 -32 13 -40
0z"/>
<path d="M18 2513 c-25 -6 -22 -30 3 -38 25 -8 44 7 36 29 -7 16 -9 17 -39 9z"/>
<path d="M4943 2504 c-3 -8 1 -22 9 -30 13 -13 16 -13 27 0 7 9 11 23 7 31 -7
20 -35 19 -43 -1z"/>
<path d="M3902 2448 c-16 -16 -17 -152 -1 -142 18 11 49 87 49 122 0 24 -4 32
-18 32 -10 0 -23 -5 -30 -12z"/>
<path d="M3756 2376 c-7 -47 -38 -96 -61 -96 -8 0 -16 -4 -20 -9 -8 -13 51 4
80 23 31 20 50 78 35 106 -17 31 -27 24 -34 -24z"/>
<path d="M20 2375 c-15 -18 -5 -35 20 -35 10 0 22 5 25 10 7 11 -12 40 -25 40
-4 0 -13 -7 -20 -15z"/>
<path d="M4945 2379 c-8 -12 2 -59 13 -59 4 0 13 9 20 21 10 16 10 24 1 35
-14 17 -25 18 -34 3z"/>
<path d="M4937 2253 c-11 -10 -8 -41 3 -48 19 -12 41 15 29 36 -10 20 -21 24
-32 12z"/>
<path d="M24 2239 c-3 -6 1 -18 10 -27 15 -15 17 -15 32 0 19 19 11 38 -16 38
-10 0 -22 -5 -26 -11z"/>
<path d="M53 2109 c-13 -13 -6 -39 11 -39 6 0 17 4 25 9 12 8 12 12 2 25 -16
19 -23 20 -38 5z"/>
<path d="M4917 2113 c-24 -23 12 -55 38 -33 12 10 13 16 4 26 -12 15 -31 18
-42 7z"/>
<path d="M1440 2047 c-50 -16 -120 -89 -120 -125 0 -16 3 -31 6 -35 13 -12 33
6 39 36 10 47 52 96 99 117 45 20 31 24 -24 7z"/>
<path d="M4890 1980 c-14 -26 0 -46 24 -37 20 8 21 31 2 46 -12 10 -17 8 -26
-9z"/>
<path d="M72 1978 c-8 -8 -9 -15 -1 -25 14 -16 31 -17 47 -1 9 9 7 14 -6 24
-21 17 -25 17 -40 2z"/>
<path d="M1502 1928 c-66 -69 -86 -188 -31 -188 17 0 19 8 19 64 0 58 3 69 35
110 40 53 25 62 -23 14z"/>
<path d="M102 1848 c-13 -13 2 -38 23 -38 21 0 36 25 23 38 -7 7 -17 12 -23
12 -6 0 -16 -5 -23 -12z"/>
<path d="M4857 1853 c-11 -10 -8 -27 7 -48 13 -18 14 -18 25 4 10 17 10 26 0
37 -13 15 -22 18 -32 7z"/>
<path d="M141 1721 c-16 -28 14 -51 36 -28 13 13 14 19 3 31 -17 21 -27 20
-39 -3z"/>
<path d="M4814 1715 c-4 -9 0 -24 10 -33 15 -15 18 -15 26 -2 6 8 9 22 7 30
-3 21 -36 25 -43 5z"/>
<path d="M189 1594 c-15 -18 0 -38 27 -32 25 5 28 25 6 37 -15 8 -23 7 -33 -5z"/>
<path d="M4765 1590 c-6 -10 15 -50 27 -50 10 0 20 38 13 50 -8 13 -32 13 -40
0z"/>
<path d="M240 1474 c-11 -12 -10 -18 3 -32 16 -15 18 -15 34 0 13 14 14 20 3
32 -7 9 -16 16 -20 16 -4 0 -13 -7 -20 -16z"/>
<path d="M4713 1464 c-3 -8 1 -22 9 -30 13 -13 16 -13 27 0 7 9 11 23 7 31 -7
20 -35 19 -43 -1z"/>
<path d="M297 1346 c-9 -23 18 -39 43 -26 17 9 19 14 9 26 -15 18 -45 18 -52
0z"/>
<path d="M4654 1349 c-3 -6 1 -18 10 -27 15 -15 17 -15 32 0 19 19 11 38 -16
38 -10 0 -22 -5 -26 -11z"/>
<path d="M373 1243 c-16 -6 -17 -25 -1 -41 12 -12 48 1 48 18 0 13 -32 28 -47
23z"/>
<path d="M4595 1236 c-16 -11 -16 -13 -1 -29 14 -14 20 -14 36 -4 25 15 25 19
1 34 -15 9 -23 9 -36 -1z"/>
<path d="M440 1125 c-11 -13 -11 -19 3 -33 20 -19 41 -5 35 24 -4 24 -22 28
-38 9z"/>
<path d="M4520 1124 c-11 -12 -10 -18 3 -32 16 -15 18 -15 34 0 13 14 14 20 3
32 -7 9 -16 16 -20 16 -4 0 -13 -7 -20 -16z"/>
<path d="M518 1015 c-10 -22 -9 -28 3 -36 8 -5 19 -7 24 -6 17 6 17 43 1 56
-13 11 -17 9 -28 -14z"/>
<path d="M4453 1023 c-18 -6 -16 -40 1 -46 8 -3 20 1 27 9 10 12 9 18 -2 28
-8 8 -20 12 -26 9z"/>
<path d="M4360 915 c-15 -18 -6 -45 14 -45 20 0 29 16 21 40 -8 24 -18 25 -35
5z"/>
<path d="M602 908 c-8 -8 -9 -15 -1 -25 15 -17 34 -17 48 1 10 12 8 17 -8 25
-24 14 -24 14 -39 -1z"/>
<path d="M691 813 c-12 -24 2 -48 24 -40 10 4 15 15 13 29 -4 28 -24 34 -37
11z"/>
<path d="M4271 806 c-14 -17 9 -39 33 -30 20 8 21 30 0 38 -21 8 -20 8 -33 -8z"/>
<path d="M791 726 c-17 -20 -6 -49 16 -44 22 4 26 20 10 42 -12 16 -14 16 -26
2z"/>
<path d="M4181 726 c-17 -20 -6 -49 16 -44 22 4 26 20 10 42 -12 16 -14 16
-26 2z"/>
<path d="M884 625 c-7 -17 2 -45 14 -45 4 0 17 7 28 15 19 15 19 15 0 30 -11
8 -24 15 -28 15 -5 0 -11 -7 -14 -15z"/>
<path d="M4083 633 c-17 -6 -16 -28 0 -42 10 -8 19 -7 32 3 16 12 17 16 6 30
-14 17 -18 18 -38 9z"/>
<path d="M3971 541 c-8 -14 -7 -22 5 -32 14 -11 18 -10 30 6 10 13 11 22 3 32
-16 18 -26 16 -38 -6z"/>
<path d="M984 535 c-4 -9 0 -24 10 -33 15 -15 18 -15 26 -2 6 8 9 22 7 30 -3
21 -36 25 -43 5z"/>
<path d="M1100 465 c-19 -22 5 -48 31 -34 24 12 24 21 0 36 -15 10 -22 9 -31
-2z"/>
<path d="M3870 465 c-12 -15 -8 -45 8 -45 4 0 16 6 26 13 16 12 16 14 -2 30
-17 16 -21 16 -32 2z"/>
<path d="M1204 389 c-3 -6 0 -18 9 -26 12 -12 19 -13 38 -3 22 12 22 13 4 26
-23 17 -41 18 -51 3z"/>
<path d="M3753 384 c-9 -24 11 -38 37 -24 17 9 19 14 9 26 -15 19 -38 18 -46
-2z"/>
<path d="M1333 333 c-17 -6 -17 -28 0 -41 12 -10 47 6 47 21 0 10 -34 25 -47
20z"/>
<path d="M3635 319 c-9 -26 12 -41 37 -28 23 13 23 26 -1 39 -27 14 -29 13
-36 -11z"/>
<path d="M1443 264 c-3 -8 1 -22 9 -30 12 -12 17 -12 33 0 16 12 17 16 6 30
-17 20 -40 21 -48 0z"/>
<path d="M3513 264 c-3 -8 1 -22 9 -30 12 -12 17 -12 33 0 16 12 17 16 6 30
-17 20 -40 21 -48 0z"/>
<path d="M1563 204 c-3 -8 1 -22 9 -30 13 -13 16 -13 27 0 7 9 11 23 7 31 -7
20 -35 19 -43 -1z"/>
<path d="M3390 201 c0 -24 13 -33 35 -25 23 9 14 38 -13 42 -16 3 -22 -2 -22
-17z"/>
<path d="M1690 165 c-11 -13 -11 -19 3 -33 20 -19 41 -5 35 24 -4 24 -22 28
-38 9z"/>
<path d="M3270 165 c-9 -10 -8 -19 1 -36 11 -22 12 -22 25 -4 8 10 14 24 14
31 0 18 -27 25 -40 9z"/>
<path d="M3140 130 c-12 -23 -6 -40 15 -40 19 0 27 17 20 40 -8 26 -21 25 -35
0z"/>
<path d="M1820 124 c-11 -12 -10 -18 4 -32 16 -16 18 -16 31 2 11 14 12 23 4
33 -15 17 -24 16 -39 -3z"/>
<path d="M1950 100 c-13 -25 3 -52 26 -43 18 7 18 37 0 52 -12 10 -17 8 -26
-9z"/>
<path d="M3011 96 c-9 -11 -9 -19 1 -35 17 -27 26 -26 34 3 10 41 -12 60 -35
32z"/>
<path d="M2076 63 c-11 -26 10 -38 41 -24 27 12 27 13 8 27 -25 19 -41 18 -49
-3z"/>
<path d="M2876 64 c-8 -21 -8 -21 10 -28 8 -3 25 -1 37 5 20 11 20 12 2 25
-25 18 -41 18 -49 -2z"/>
<path d="M2217 63 c-12 -11 -8 -41 7 -46 21 -8 37 13 25 35 -10 19 -21 23 -32
11z"/>
<path d="M2747 53 c-12 -12 -7 -31 10 -37 9 -4 23 0 32 9 14 14 14 17 1 25
-18 11 -34 13 -43 3z"/>
<path d="M2344 35 c-13 -32 23 -48 47 -19 10 13 10 17 -2 25 -21 13 -39 11
-45 -6z"/>
<path d="M2476 41 c-10 -16 5 -41 26 -41 14 0 19 6 16 22 -3 24 -32 36 -42 19z"/>
<path d="M2611 36 c-18 -21 11 -41 39 -26 17 9 19 14 9 26 -15 18 -33 18 -48
0z"/>
</g>
</svg>
