<?xml version="1.0" standalone="no"?>
<!DOCTYPE svg PUBLIC "-//W3C//DTD SVG 20010904//EN"
 "http://www.w3.org/TR/2001/REC-SVG-20010904/DTD/svg10.dtd">
<svg version="1.0" xmlns="http://www.w3.org/2000/svg"
 width="500.000000pt" height="500.000000pt" viewBox="0 0 500.000000 500.000000"
 preserveAspectRatio="xMidYMid meet">
<metadata>
Created by potrace 1.15, written by Peter Selinger 2001-2017
</metadata>
<g transform="translate(0.000000,500.000000) scale(0.100000,-0.100000)"
fill="#000000" stroke="none">
<path d="M2350 4975 c-10 -12 -10 -18 0 -30 15 -18 20 -18 44 0 20 15 20 15 0
30 -24 18 -29 18 -44 0z"/>
<path d="M2487 4983 c-24 -23 12 -55 38 -33 12 10 13 16 4 26 -12 15 -31 18
-42 7z"/>
<path d="M2620 4974 c-11 -12 -10 -18 3 -32 16 -15 18 -15 34 0 13 14 14 20 3
32 -7 9 -16 16 -20 16 -4 0 -13 -7 -20 -16z"/>
<path d="M2219 4964 c-15 -18 0 -38 27 -32 25 5 28 25 6 37 -15 8 -23 7 -33
-5z"/>
<path d="M2754 4965 c-12 -29 15 -45 46 -25 13 8 12 11 -5 24 -25 19 -34 20
-41 1z"/>
<path d="M2091 4956 c-16 -19 -7 -46 14 -46 22 0 30 29 13 46 -13 13 -16 13
-27 0z"/>
<path d="M2887 4953 c-11 -10 -8 -27 7 -48 13 -18 14 -18 25 4 10 17 10 26 0
37 -13 15 -22 18 -32 7z"/>
<path d="M1952 4918 c-7 -9 -6 -18 4 -32 14 -20 14 -20 29 0 8 10 13 24 11 29
-4 16 -32 17 -44 3z"/>
<path d="M3017 4923 c-12 -12 -7 -31 10 -37 9 -4 23 0 32 9 14 14 14 17 1 25
-18 11 -34 13 -43 3z"/>
<path d="M1825 4889 c-10 -30 11 -48 32 -27 13 14 14 20 3 32 -17 22 -27 20
-35 -5z"/>
<path d="M3144 4885 c-12 -29 15 -45 45 -26 12 8 12 12 2 25 -17 20 -40 21
-47 1z"/>
<path d="M3282 4858 c-24 -24 -9 -54 22 -42 19 7 21 28 3 43 -10 8 -17 7 -25
-1z"/>
<path d="M1693 4844 c-3 -8 1 -22 9 -30 13 -13 16 -13 27 0 7 9 11 23 7 31 -7
20 -35 19 -43 -1z"/>
<path d="M1571 4801 c-8 -14 -7 -22 4 -31 13 -10 19 -9 35 5 19 17 19 19 2 31
-23 18 -30 17 -41 -5z"/>
<path d="M3400 4804 c-11 -12 -11 -18 2 -30 13 -13 19 -14 36 -3 20 12 20 15
5 31 -20 22 -27 22 -43 2z"/>
<path d="M1444 4749 c-3 -6 1 -18 10 -27 15 -15 17 -15 32 0 19 19 11 38 -16
38 -10 0 -22 -5 -26 -11z"/>
<path d="M3521 4747 c-9 -11 -8 -17 3 -26 18 -15 48 -3 44 18 -4 21 -32 26
-47 8z"/>
<path d="M1325 4690 c-6 -20 0 -40 13 -40 20 1 34 19 27 39 -8 27 -32 27 -40
1z"/>
<path d="M3643 4684 c-9 -24 11 -38 37 -24 17 9 19 14 9 26 -15 19 -38 18 -46
-2z"/>
<path d="M1212 4629 c-15 -23 -8 -39 18 -39 25 0 32 25 11 44 -15 14 -18 13
-29 -5z"/>
<path d="M2005 4633 c20 -54 18 -70 -17 -94 l-33 -24 40 -5 c33 -4 43 -11 56
-37 17 -35 29 -34 29 3 0 25 18 35 49 27 25 -6 26 -1 5 38 -12 24 -13 37 -5
61 17 48 13 52 -22 25 l-34 -25 -29 23 c-35 29 -49 31 -39 8z"/>
<path d="M3760 4630 c-14 -26 0 -46 24 -37 20 8 21 31 2 46 -12 10 -17 8 -26
-9z"/>
<path d="M1094 4549 c-3 -6 1 -18 10 -27 15 -15 17 -15 32 0 19 19 11 38 -16
38 -10 0 -22 -5 -26 -11z"/>
<path d="M3864 4549 c-3 -6 1 -18 10 -27 15 -15 17 -15 32 0 19 19 11 38 -16
38 -10 0 -22 -5 -26 -11z"/>
<path d="M2472 4515 c-193 -42 -302 -93 -393 -184 -79 -79 -138 -191 -168
-321 -62 -265 -27 -412 139 -585 48 -49 95 -104 104 -122 24 -48 20 -100 -20
-230 -20 -65 -40 -133 -46 -151 -6 -22 -19 -36 -41 -46 -144 -60 -234 -133
-274 -222 -30 -65 -111 -277 -129 -334 -39 -126 -158 -747 -140 -729 3 3 13
46 21 95 51 295 130 625 181 758 71 186 154 266 275 266 102 0 167 -67 226
-236 27 -76 28 -87 26 -254 0 -96 -8 -260 -17 -365 -33 -398 -38 -497 -27
-508 11 -11 331 7 413 25 56 11 156 74 182 113 10 15 21 45 23 67 3 21 10 41
14 44 5 3 51 -20 101 -51 94 -56 217 -102 379 -140 86 -20 120 -16 137 17 44
90 113 262 123 308 14 67 6 314 -14 413 -8 37 -10 67 -6 67 5 0 28 -19 51 -43
87 -86 201 -149 379 -206 154 -50 215 -98 226 -178 8 -58 -12 -113 -63 -179
-109 -139 -110 -216 -4 -268 54 -26 70 -48 52 -76 -17 -28 -15 -32 15 -28 33
4 59 44 50 79 -4 15 -23 33 -52 49 -86 46 -86 74 4 166 81 84 111 136 118 210
7 69 -16 133 -69 190 -60 65 -120 98 -266 148 -246 84 -338 149 -406 287 -43
87 -74 226 -60 267 7 20 27 36 77 59 43 21 71 42 78 57 9 18 9 60 1 156 -12
150 -24 178 -101 236 -39 31 -52 35 -84 31 -48 -7 -74 -29 -98 -84 -13 -30
-29 -48 -54 -60 -34 -16 -36 -16 -63 4 -15 12 -25 27 -23 35 24 83 24 84 -2
179 -18 65 -29 136 -35 231 l-8 136 -36 40 -36 40 5 108 c3 60 12 132 20 159
46 161 45 156 33 204 -17 70 -51 120 -134 199 -84 80 -180 134 -278 157 -78
18 -222 18 -306 0z m603 -560 c51 -26 57 -52 33 -146 -18 -70 -18 -98 -3 -161
6 -22 -9 -55 -86 -188 -52 -88 -137 -225 -189 -303 -104 -155 -109 -159 -189
-137 -22 6 -70 31 -106 55 -36 25 -65 41 -65 37 0 -4 20 -27 44 -51 l43 -42
-38 -89 c-50 -116 -80 -235 -86 -341 -5 -72 -2 -93 15 -132 35 -78 123 -160
297 -275 167 -110 333 -258 370 -331 10 -19 25 -78 35 -130 l18 -96 1 114 c1
67 11 177 26 270 37 235 68 530 61 581 -3 25 -9 58 -13 75 -6 29 -6 29 18 14
50 -33 94 -41 132 -26 l34 15 6 -132 c5 -124 28 -239 66 -340 17 -42 41 -217
41 -290 0 -86 -23 -192 -61 -280 -27 -60 -79 -195 -79 -203 0 -13 -262 47
-360 82 -56 20 -123 59 -177 103 l-43 34 0 78 c0 80 -24 179 -60 250 -26 52
-94 124 -166 178 -34 27 -77 66 -95 88 -17 21 -83 143 -145 270 -96 196 -120
237 -161 275 -26 24 -59 51 -73 60 l-25 16 22 49 c22 48 43 127 78 286 15 73
18 78 58 101 105 62 117 114 53 239 -35 70 -37 78 -25 104 16 33 55 50 92 40
16 -4 45 -31 73 -67 l47 -61 14 33 c7 18 22 39 33 46 11 8 20 24 20 36 0 23
31 110 56 158 35 68 103 124 184 150 14 5 72 7 130 6 81 -2 114 -7 145 -22z
m106 -357 c6 -11 14 -87 19 -171 6 -117 13 -164 29 -205 25 -62 26 -95 6 -152
-8 -23 -12 -46 -9 -51 3 -5 23 -18 45 -29 21 -11 39 -23 39 -26 0 -3 -7 -18
-15 -34 -9 -17 -11 -30 -6 -30 5 0 12 11 15 24 3 13 25 45 49 72 50 55 72 53
63 -5 -5 -31 -4 -33 6 -13 14 27 24 28 38 2 9 -16 15 -18 30 -10 10 5 28 10
40 10 19 0 18 -4 -15 -46 -36 -48 -42 -68 -25 -79 9 -6 -30 -86 -73 -149 -19
-26 -24 -28 -70 -23 -68 6 -94 35 -103 117 -5 48 -12 65 -32 80 -35 28 -60 25
-116 -15 -97 -68 -155 -67 -253 6 -29 22 -61 39 -72 39 -26 0 -71 21 -71 33 0
5 9 11 20 14 25 7 354 530 411 656 10 21 15 25 26 15 8 -6 19 -20 24 -30z
m367 -474 c33 -23 27 -29 -30 -30 -29 0 -63 -4 -76 -8 -18 -7 -21 -5 -16 8 8
20 51 45 79 46 11 0 31 -7 43 -16z m26 -54 c25 -9 63 -56 53 -66 -8 -9 -137
30 -137 41 0 31 38 43 84 25z m-926 -81 c28 -9 30 -14 25 -40 -7 -35 22 -62
83 -78 22 -6 52 -20 67 -31 99 -78 244 -79 309 -1 32 38 45 26 57 -46 40 -263
40 -270 -19 -603 -22 -124 -40 -245 -40 -268 l0 -44 -64 79 c-105 129 -217
225 -370 316 -96 57 -184 141 -212 202 -39 83 -29 202 32 385 47 141 61 154
132 129z m976 -25 c18 -17 19 -24 8 -42 -7 -10 -15 -8 -35 8 -15 12 -27 28
-27 36 0 19 35 18 54 -2z m-5 -98 c12 -13 25 -41 28 -63 6 -46 -14 -75 -69
-98 -37 -15 -38 -15 -37 7 1 31 17 78 18 56 2 -27 20 -21 27 8 7 26 -2 50 -32
92 -16 21 -16 22 13 22 18 0 38 -9 52 -24z"/>
<path d="M2886 3821 c-43 -16 -85 -36 -94 -45 -22 -22 -7 -20 63 9 43 18 79
25 128 25 65 0 67 1 57 20 -15 28 -58 25 -154 -9z"/>
<path d="M2980 3781 c0 -6 5 -13 10 -16 6 -3 10 -12 10 -19 0 -10 -23 -15 -77
-18 -83 -5 -159 -35 -197 -77 -17 -19 -17 -21 -2 -21 9 0 43 14 76 30 33 17
64 30 70 30 15 0 3 -36 -22 -72 l-19 -27 56 -16 c53 -16 56 -16 84 4 53 38 78
142 45 189 -16 23 -34 29 -34 13z m12 -98 c7 -30 -7 -68 -26 -71 -14 -3 -17 0
-12 13 3 9 6 30 6 46 0 32 25 41 32 12z"/>
<path d="M3038 3243 c-48 -70 -85 -129 -83 -132 3 -2 6 -2 8 0 47 61 167 243
165 249 -2 5 -42 -48 -90 -117z"/>
<path d="M3095 2996 c-47 -68 -87 -90 -153 -81 l-47 6 25 -21 c29 -26 80 -23
124 5 26 17 102 132 93 141 -2 2 -21 -20 -42 -50z"/>
<path d="M990 4475 c-23 -28 21 -50 48 -23 9 9 7 14 -6 24 -22 17 -27 17 -42
-1z"/>
<path d="M3980 4475 c-19 -22 1 -39 35 -31 26 7 27 8 10 26 -22 24 -29 25 -45
5z"/>
<path d="M883 4384 c-9 -24 11 -38 37 -24 17 9 19 14 9 26 -15 19 -38 18 -46
-2z"/>
<path d="M4083 4384 c-9 -24 11 -38 37 -24 17 9 19 14 9 26 -15 19 -38 18 -46
-2z"/>
<path d="M4186 4309 c-14 -21 -14 -25 -1 -38 13 -14 17 -13 31 1 15 15 15 18
1 38 l-15 21 -16 -22z"/>
<path d="M787 4303 c-25 -24 11 -49 40 -28 16 13 16 16 3 25 -17 11 -34 13
-43 3z"/>
<path d="M3440 4212 c-14 -37 -42 -56 -70 -47 -37 12 -45 -7 -14 -31 l29 -24
-18 -49 c-24 -69 -21 -72 21 -23 l37 44 27 -21 c35 -28 50 -27 42 4 -9 37 2
70 31 85 27 14 35 33 10 24 -31 -12 -64 5 -74 39 l-9 32 -12 -33z"/>
<path d="M692 4213 c-12 -24 -4 -43 18 -43 23 0 31 21 15 43 -15 21 -22 21
-33 0z"/>
<path d="M1497 4181 c5 -34 3 -40 -18 -46 -47 -15 -53 -28 -17 -39 28 -9 34
-18 42 -53 6 -24 13 -43 18 -43 4 0 8 4 8 8 0 5 6 16 13 26 10 14 17 15 41 6
38 -14 42 -7 17 28 -27 38 -27 40 7 75 l27 29 -41 -7 c-38 -6 -43 -4 -64 24
-29 42 -39 39 -33 -8z"/>
<path d="M4276 4203 c-10 -26 9 -38 40 -24 26 11 26 12 8 26 -25 19 -40 19
-48 -2z"/>
<path d="M603 4109 c-15 -15 -5 -39 17 -39 26 0 43 23 28 38 -15 15 -31 15
-45 1z"/>
<path d="M4366 4111 c-8 -13 4 -41 18 -41 6 0 17 4 25 9 12 8 12 12 2 25 -15
18 -37 21 -45 7z"/>
<path d="M515 4005 c-20 -15 -20 -15 0 -30 17 -14 21 -14 34 0 14 13 14 17 0
30 -13 14 -17 14 -34 0z"/>
<path d="M4455 4003 c-14 -14 -15 -18 -2 -30 12 -12 18 -13 36 -1 26 16 26 20
1 35 -15 10 -22 10 -35 -4z"/>
<path d="M4530 3900 c-14 -26 0 -46 24 -37 20 8 21 31 2 46 -12 10 -17 8 -26
-9z"/>
<path d="M440 3895 c-20 -24 4 -47 36 -33 23 11 23 12 8 30 -21 22 -28 22 -44
3z"/>
<path d="M370 3785 c-9 -11 -11 -22 -4 -32 13 -21 25 -21 38 -1 8 14 7 21 -5
33 -14 15 -17 15 -29 0z"/>
<path d="M4605 3784 c-14 -15 -15 -19 -2 -32 13 -13 18 -13 36 0 21 15 21 15
2 32 -17 16 -20 16 -36 0z"/>
<path d="M3488 3708 c-3 -39 -6 -44 -38 -54 l-35 -12 43 -13 c36 -10 42 -16
38 -33 -2 -12 -8 -39 -12 -61 -6 -35 -5 -39 8 -27 9 7 21 26 28 42 7 17 15 30
19 30 3 0 23 -11 44 -25 42 -29 43 -28 22 11 -20 39 -19 63 5 101 l19 33 -42
-6 c-39 -5 -43 -4 -60 25 -25 42 -35 39 -39 -11z"/>
<path d="M302 3670 c-14 -23 -8 -40 12 -40 24 0 36 23 22 43 -17 22 -18 21
-34 -3z"/>
<path d="M4671 3666 c-14 -16 -4 -46 14 -46 16 0 29 35 20 50 -9 14 -20 13
-34 -4z"/>
<path d="M241 3546 c-9 -11 -8 -18 5 -30 15 -16 18 -16 36 1 18 16 18 18 2 30
-23 16 -29 16 -43 -1z"/>
<path d="M4730 3550 c-11 -7 -12 -13 -1 -37 12 -27 13 -27 27 -8 8 10 14 24
14 31 0 16 -24 24 -40 14z"/>
<path d="M1448 3468 c-23 -25 -33 -29 -55 -23 l-28 7 23 -25 24 -25 -27 -42
c-15 -23 -24 -44 -22 -47 3 -3 19 5 36 18 l31 23 28 -27 c38 -36 45 -34 37 11
-7 43 2 54 50 67 l30 8 -32 7 c-42 9 -61 26 -65 55 -3 23 -3 23 -30 -7z"/>
<path d="M4784 3433 c-14 -24 -7 -43 16 -43 28 0 32 15 12 39 -16 20 -18 21
-28 4z"/>
<path d="M190 3425 c-19 -22 5 -48 31 -34 10 5 19 14 19 19 0 5 -9 14 -19 19
-14 8 -22 7 -31 -4z"/>
<path d="M4831 3306 c-16 -19 -7 -46 14 -46 22 0 30 29 13 46 -13 13 -16 13
-27 0z"/>
<path d="M142 3298 c-13 -13 2 -38 23 -38 21 0 36 25 23 38 -7 7 -17 12 -23
12 -6 0 -16 -5 -23 -12z"/>
<path d="M1837 3274 c-4 -4 -7 -18 -7 -31 0 -39 -19 -63 -63 -82 l-42 -18 38
-13 c36 -11 38 -14 33 -44 -4 -20 -1 -39 8 -51 13 -18 14 -17 31 16 31 60 34
62 73 39 43 -26 51 -20 23 16 -26 33 -27 54 -1 87 29 37 26 50 -10 32 -38 -20
-37 -20 -58 20 -10 20 -21 33 -25 29z"/>
<path d="M102 3167 c-7 -8 -6 -18 4 -32 13 -18 15 -18 30 -3 19 18 12 48 -9
48 -8 0 -19 -6 -25 -13z"/>
<path d="M4870 3165 c-22 -26 7 -46 39 -26 12 8 12 12 2 25 -17 20 -25 20 -41
1z"/>
<path d="M77 3043 c-11 -10 -8 -41 4 -49 6 -3 18 1 27 9 13 13 13 19 2 31 -14
17 -23 20 -33 9z"/>
<path d="M4891 3037 c-9 -11 -8 -17 4 -27 19 -16 47 -5 43 17 -4 23 -31 28
-47 10z"/>
<path d="M45 2909 c-7 -20 7 -38 28 -39 14 0 19 30 7 45 -17 21 -27 19 -35 -6z"/>
<path d="M4927 2913 c-4 -3 -7 -15 -7 -25 0 -21 32 -25 49 -5 17 22 -22 50
-42 30z"/>
<path d="M30 2775 c-15 -18 -5 -35 20 -35 10 0 22 5 25 10 7 11 -12 40 -25 40
-4 0 -13 -7 -20 -15z"/>
<path d="M4945 2779 c-8 -12 2 -59 13 -59 4 0 13 9 20 21 10 16 10 24 1 35
-14 17 -25 18 -34 3z"/>
<path d="M21 2646 c-18 -22 4 -62 25 -45 18 15 18 33 0 48 -10 9 -16 8 -25 -3z"/>
<path d="M4955 2640 c-8 -13 3 -50 15 -50 13 0 32 39 25 50 -8 13 -32 13 -40
0z"/>
<path d="M13 2513 c-20 -8 -15 -31 8 -38 25 -8 44 7 36 29 -6 16 -21 19 -44 9z"/>
<path d="M4954 2505 c-4 -9 -2 -21 4 -27 15 -15 44 -1 40 19 -4 23 -36 29 -44
8z"/>
<path d="M20 2380 c-14 -26 0 -46 24 -37 20 8 21 31 2 46 -12 10 -17 8 -26 -9z"/>
<path d="M4955 2379 c-8 -12 2 -59 13 -59 4 0 13 9 20 21 10 16 10 24 1 35
-14 17 -25 18 -34 3z"/>
<path d="M30 2244 c-11 -12 -10 -18 3 -32 21 -21 42 -3 32 27 -8 25 -18 27
-35 5z"/>
<path d="M4940 2231 c0 -27 15 -34 40 -21 17 9 19 14 9 26 -17 21 -49 18 -49
-5z"/>
<path d="M46 2104 c-8 -21 -8 -21 9 -28 20 -7 45 3 45 19 0 12 -21 25 -40 25
-4 0 -11 -7 -14 -16z"/>
<path d="M4927 2113 c-24 -23 12 -55 38 -33 12 10 13 16 4 26 -12 15 -31 18
-42 7z"/>
<path d="M73 1979 c-15 -15 -5 -39 16 -39 29 0 43 21 23 36 -21 17 -25 17 -39
3z"/>
<path d="M4896 1974 c-4 -10 -2 -22 3 -27 14 -14 43 0 39 20 -4 24 -34 28 -42
7z"/>
<path d="M103 1851 c-9 -14 -9 -21 0 -30 27 -27 61 4 37 34 -16 20 -23 19 -37
-4z"/>
<path d="M4870 1855 c-9 -11 -11 -22 -4 -32 13 -21 25 -21 38 -1 8 14 7 21 -5
33 -14 15 -17 15 -29 0z"/>
<path d="M147 1723 c-24 -23 12 -55 38 -33 12 10 13 16 4 26 -12 15 -31 18
-42 7z"/>
<path d="M4825 1720 c-9 -15 4 -50 20 -50 16 0 29 35 20 50 -3 5 -12 10 -20
10 -8 0 -17 -5 -20 -10z"/>
<path d="M4781 1598 c-12 -19 -11 -23 4 -34 21 -16 35 -10 35 15 0 32 -24 43
-39 19z"/>
<path d="M189 1594 c-15 -18 0 -38 27 -32 25 5 28 25 6 37 -15 8 -23 7 -33 -5z"/>
<path d="M237 1466 c-6 -15 11 -36 29 -36 21 0 35 25 22 38 -16 16 -45 15 -51
-2z"/>
<path d="M4724 1465 c-4 -9 -2 -21 4 -27 15 -15 54 1 50 20 -4 23 -46 28 -54
7z"/>
<path d="M4670 1361 c-10 -19 -9 -26 3 -38 29 -30 49 6 23 42 -13 18 -14 18
-26 -4z"/>
<path d="M300 1354 c-11 -12 -10 -18 3 -32 16 -15 18 -15 34 0 13 14 14 20 3
32 -7 9 -16 16 -20 16 -4 0 -13 -7 -20 -16z"/>
<path d="M3800 1270 c-15 -28 -6 -50 20 -50 30 0 36 28 12 52 l-20 20 -12 -22z"/>
<path d="M1152 1261 c-94 -33 -150 -108 -159 -210 -4 -45 0 -65 19 -101 34
-66 72 -83 175 -76 100 7 112 11 119 45 20 88 26 102 50 113 43 20 26 28 -61
28 -84 0 -112 -13 -59 -26 25 -6 26 -9 21 -56 -8 -61 -19 -76 -64 -84 -49 -9
-95 15 -118 62 -35 74 2 213 69 257 41 27 113 41 143 28 22 -10 25 -17 21 -52
-3 -35 -1 -39 17 -37 17 3 20 12 23 55 3 58 4 58 -88 68 -40 4 -69 0 -108 -14z"/>
<path d="M3028 1263 c-22 -5 -23 -22 -3 -29 15 -6 20 -40 9 -68 -4 -12 -20
-16 -54 -16 -107 0 -192 -116 -161 -219 7 -24 20 -42 36 -49 38 -18 51 -15 89
18 l34 30 6 -25 c5 -19 13 -25 35 -25 56 0 85 25 38 32 l-24 3 33 155 c19 85
36 165 39 178 5 20 2 22 -27 21 -18 -1 -41 -3 -50 -6z m-20 -145 c16 -16 15
-34 -3 -95 -27 -90 -106 -137 -133 -79 -9 20 -7 36 12 83 13 32 33 68 44 80
22 25 61 30 80 11z"/>
<path d="M3508 1258 c-9 -7 -46 -62 -83 -123 -99 -162 -144 -225 -159 -225 -8
0 -19 -7 -26 -15 -11 -13 -2 -15 69 -15 65 0 81 3 81 15 0 10 -10 15 -30 15
-37 0 -37 4 -2 55 28 40 28 40 100 43 68 3 72 2 78 -22 10 -42 1 -71 -23 -74
-13 -2 -23 -10 -23 -18 0 -11 18 -14 85 -14 69 0 85 3 85 15 0 9 -9 15 -24 15
-14 0 -27 3 -29 8 -3 4 -13 81 -22 172 -9 91 -19 168 -22 173 -7 11 -37 8 -55
-5z m15 -150 l6 -68 -60 0 c-33 0 -59 4 -57 8 2 5 23 43 48 86 50 87 53 85 63
-26z"/>
<path d="M371 1236 c-18 -22 4 -62 25 -45 18 15 18 33 0 48 -10 9 -16 8 -25
-3z"/>
<path d="M4600 1230 c-15 -28 21 -47 43 -22 15 16 15 19 -3 30 -26 16 -27 15
-40 -8z"/>
<path d="M1836 1149 c-38 -11 -76 -48 -76 -73 1 -29 17 -47 71 -79 55 -31 66
-53 42 -79 -25 -28 -97 -22 -101 10 -5 30 -28 28 -36 -3 -9 -36 -3 -42 48 -49
88 -13 156 25 156 87 0 28 -14 42 -79 77 -48 26 -61 51 -41 75 26 31 115 8 95
-25 -3 -6 3 -10 14 -10 17 0 21 6 21 29 0 20 -6 31 -17 34 -46 13 -70 14 -97
6z"/>
<path d="M1505 1131 c-80 -49 -117 -150 -80 -221 25 -48 75 -51 122 -7 13 11
24 19 25 16 2 -2 8 -13 14 -24 15 -27 46 -30 75 -6 l24 20 -27 1 c-33 0 -33 0
-9 92 34 128 33 124 5 136 -38 18 -115 15 -149 -7z m104 -15 c9 -11 9 -27 -3
-71 -17 -64 -36 -98 -70 -120 -46 -30 -73 4 -62 79 14 88 97 158 135 112z"/>
<path d="M2244 1131 c-88 -54 -122 -185 -62 -241 31 -28 62 -25 103 11 l35 31
0 -26 c0 -30 36 -44 69 -26 27 14 27 30 1 30 -25 0 -25 -5 5 110 14 52 25 98
25 101 0 3 -11 11 -25 17 -40 18 -116 15 -151 -7z m111 -21 c11 -34 -24 -131
-60 -167 -38 -38 -47 -40 -70 -16 -21 20 -17 81 9 134 28 60 107 92 121 49z"/>
<path d="M2512 1139 c-24 -9 -22 -29 4 -29 18 0 17 -27 -1 -110 -8 -36 -18
-77 -21 -92 -6 -26 -4 -28 25 -28 28 0 31 3 31 33 1 65 79 187 121 187 25 0
25 -34 1 -120 -10 -36 -16 -73 -14 -82 5 -27 48 -33 80 -12 l27 19 -27 3 c-33
4 -33 -2 -8 92 31 119 25 150 -30 150 -26 0 -79 -42 -107 -86 -11 -16 -12 -10
-7 34 l7 52 -29 -1 c-16 0 -39 -4 -52 -10z"/>
<path d="M3743 1140 c-28 -12 -30 -30 -3 -30 25 0 25 -6 0 -104 -11 -43 -20
-89 -20 -101 0 -39 55 -48 86 -14 19 22 19 22 -8 17 -31 -6 -32 -18 4 127 10
44 21 88 24 98 4 14 -1 17 -28 16 -18 0 -43 -4 -55 -9z"/>
<path d="M3918 1143 c-25 -6 -23 -33 2 -33 16 0 19 -5 15 -22 -3 -13 -12 -57
-20 -98 -9 -41 -18 -83 -21 -93 -5 -15 -1 -18 22 -15 25 3 29 9 41 57 15 57
33 91 72 134 29 32 39 33 57 10 16 -22 29 -10 37 35 6 31 5 32 -25 32 -24 0
-41 -10 -76 -47 -28 -31 -42 -41 -39 -28 19 77 20 75 -15 74 -18 -1 -41 -3
-50 -6z"/>
<path d="M4532 1128 c-28 -28 3 -57 39 -37 21 11 18 23 -10 38 -12 7 -22 6
-29 -1z"/>
<path d="M436 1113 c-4 -9 0 -23 9 -32 14 -14 17 -14 25 -1 5 8 10 23 10 33 0
22 -36 23 -44 0z"/>
<path d="M520 1019 c-10 -17 -9 -24 3 -36 8 -9 20 -12 26 -9 16 10 14 41 -3
55 -12 10 -17 8 -26 -10z"/>
<path d="M4450 1010 c-8 -15 -6 -21 9 -29 26 -14 50 12 31 34 -17 20 -27 19
-40 -5z"/>
<path d="M602 908 c-8 -8 -9 -15 -1 -25 15 -17 34 -17 48 1 10 12 8 17 -8 25
-24 14 -24 14 -39 -1z"/>
<path d="M4370 906 c-10 -13 -10 -19 0 -32 12 -14 15 -14 29 0 14 15 14 17 0
32 -14 14 -17 14 -29 0z"/>
<path d="M697 823 c-11 -10 -8 -41 4 -49 6 -3 18 1 27 9 13 13 13 19 2 31 -14
17 -23 20 -33 9z"/>
<path d="M4273 804 c-3 -8 1 -22 9 -30 13 -13 16 -13 27 0 7 9 11 23 7 31 -7
20 -35 19 -43 -1z"/>
<path d="M789 714 c-15 -18 0 -38 27 -32 25 5 28 25 6 37 -15 8 -23 7 -33 -5z"/>
<path d="M4187 723 c-11 -11 -8 -40 6 -51 19 -16 43 24 26 44 -13 15 -22 18
-32 7z"/>
<path d="M883 624 c-3 -8 1 -22 9 -30 12 -12 16 -12 33 1 20 15 20 15 1 30
-25 19 -35 19 -43 -1z"/>
<path d="M4087 633 c-11 -10 -8 -27 7 -48 13 -18 14 -18 25 4 10 17 10 26 0
37 -13 15 -22 18 -32 7z"/>
<path d="M987 536 c-9 -23 18 -39 43 -26 17 9 19 14 9 26 -15 18 -45 18 -52 0z"/>
<path d="M3974 539 c-3 -6 0 -18 9 -26 12 -12 19 -13 36 -3 18 9 20 14 10 26
-14 17 -45 19 -55 3z"/>
<path d="M3876 464 c-16 -15 -16 -18 -2 -33 15 -14 18 -14 33 2 16 15 16 18 2
33 -15 14 -18 14 -33 -2z"/>
<path d="M1094 459 c-3 -6 1 -18 10 -27 15 -15 17 -15 32 0 19 19 11 38 -16
38 -10 0 -22 -5 -26 -11z"/>
<path d="M1210 394 c-11 -12 -10 -18 3 -31 22 -23 52 0 36 28 -12 23 -22 24
-39 3z"/>
<path d="M3755 390 c-7 -11 12 -50 25 -50 12 0 23 37 15 50 -8 13 -32 13 -40
0z"/>
<path d="M1330 330 c-15 -28 5 -57 26 -39 18 15 18 33 0 48 -12 10 -17 8 -26
-9z"/>
<path d="M3653 333 c-17 -6 -17 -39 0 -46 12 -4 55 19 46 26 -2 1 -11 8 -19
13 -8 6 -21 9 -27 7z"/>
<path d="M3523 271 c-9 -14 -9 -21 0 -30 26 -26 53 -2 35 32 -11 22 -20 22
-35 -2z"/>
<path d="M1450 264 c-11 -12 -11 -18 1 -30 13 -12 18 -12 34 0 16 12 17 16 6
30 -17 20 -25 20 -41 0z"/>
<path d="M1571 218 c-12 -19 -11 -23 4 -34 21 -16 35 -10 35 15 0 32 -24 43
-39 19z"/>
<path d="M3400 215 c-10 -12 -10 -18 0 -29 16 -20 42 -8 38 17 -4 26 -21 32
-38 12z"/>
<path d="M1703 173 c-17 -6 -16 -38 1 -52 21 -18 44 25 24 44 -7 7 -19 11 -25
8z"/>
<path d="M3273 164 c-3 -8 1 -22 9 -30 12 -12 17 -12 33 0 16 12 17 16 6 30
-17 20 -40 21 -48 0z"/>
<path d="M1821 127 c-8 -11 -7 -18 7 -30 15 -13 20 -14 36 -2 16 12 17 17 6
30 -15 19 -34 19 -49 2z"/>
<path d="M3143 124 c-3 -8 1 -22 8 -29 12 -12 17 -12 33 0 16 12 17 17 6 30
-16 20 -39 19 -47 -1z"/>
<path d="M3022 108 c-16 -16 -15 -33 2 -47 21 -18 41 11 26 38 -13 25 -12 25
-28 9z"/>
<path d="M1963 103 c-16 -6 -17 -25 -1 -41 11 -11 48 1 48 16 0 12 -34 29 -47
25z"/>
<path d="M2087 73 c-24 -23 12 -55 38 -33 12 10 13 16 4 26 -12 15 -31 18 -42
7z"/>
<path d="M2222 59 c-15 -24 0 -51 24 -42 17 6 18 24 2 46 -12 16 -14 16 -26
-4z"/>
<path d="M2883 73 c-18 -7 -16 -30 3 -37 21 -8 45 11 37 30 -5 14 -18 17 -40
7z"/>
<path d="M2620 44 c-12 -22 -12 -27 0 -34 8 -6 20 -8 25 -7 16 5 17 43 2 55
-11 9 -17 6 -27 -14z"/>
<path d="M2751 46 c-18 -21 11 -41 39 -26 17 9 19 14 9 26 -15 18 -33 18 -48
0z"/>
<path d="M2347 36 c-9 -23 18 -39 43 -26 17 9 19 14 9 26 -15 18 -45 18 -52 0z"/>
<path d="M2484 35 c-7 -18 3 -35 20 -35 14 0 28 35 18 44 -10 11 -33 6 -38 -9z"/>
</g>
</svg>
