<?xml version="1.0" standalone="no"?>
<!DOCTYPE svg PUBLIC "-//W3C//DTD SVG 20010904//EN"
 "http://www.w3.org/TR/2001/REC-SVG-20010904/DTD/svg10.dtd">
<svg version="1.0" xmlns="http://www.w3.org/2000/svg"
 width="497.000000pt" height="500.000000pt" viewBox="0 0 497.000000 500.000000"
 preserveAspectRatio="xMidYMid meet">
<metadata>
Created by potrace 1.15, written by Peter Selinger 2001-2017
</metadata>
<g transform="translate(0.000000,500.000000) scale(0.100000,-0.100000)"
fill="#000000" stroke="none">
<path d="M2332 4978 c-16 -16 -15 -26 6 -37 12 -6 23 -5 37 5 19 14 19 14 -1
29 -23 18 -27 18 -42 3z"/>
<path d="M2467 4983 c-11 -11 -8 -40 6 -51 9 -8 16 -6 25 8 19 31 -7 67 -31
43z"/>
<path d="M2599 4974 c-11 -14 -10 -18 6 -30 16 -12 21 -12 34 0 12 12 12 18 1
30 -16 20 -24 20 -41 0z"/>
<path d="M2203 4969 c-16 -16 -5 -39 17 -39 25 0 35 18 20 35 -15 18 -22 19
-37 4z"/>
<path d="M2733 4969 c-15 -15 -5 -39 16 -39 29 0 43 21 23 36 -21 17 -25 17
-39 3z"/>
<path d="M2069 4944 c-10 -12 -9 -18 5 -32 15 -15 18 -15 26 -2 5 8 10 20 10
26 0 19 -28 24 -41 8z"/>
<path d="M2867 4953 c-4 -3 -7 -15 -7 -25 0 -20 25 -24 50 -8 13 8 12 11 -5
24 -23 17 -29 19 -38 9z"/>
<path d="M1933 4914 c-3 -8 1 -22 9 -30 13 -13 16 -13 27 0 7 9 11 23 7 31 -7
20 -35 19 -43 -1z"/>
<path d="M2991 4916 c-19 -23 20 -40 45 -21 17 13 17 16 4 25 -21 14 -36 12
-49 -4z"/>
<path d="M1810 4885 c-11 -13 -11 -19 4 -33 15 -15 18 -15 26 -2 22 33 -6 64
-30 35z"/>
<path d="M3121 4886 c-18 -22 11 -41 40 -25 22 11 22 12 4 25 -24 17 -30 17
-44 0z"/>
<path d="M1681 4846 c-18 -21 11 -41 39 -26 17 9 19 14 9 26 -15 18 -33 18
-48 0z"/>
<path d="M3247 4846 c-3 -8 1 -20 9 -27 12 -10 18 -9 32 5 15 15 15 18 2 26
-21 14 -37 12 -43 -4z"/>
<path d="M1560 4805 c-19 -22 5 -48 31 -34 10 5 19 14 19 19 0 5 -9 14 -19 19
-14 8 -22 7 -31 -4z"/>
<path d="M3374 4805 c-7 -17 2 -45 13 -45 4 0 17 7 27 15 20 15 20 15 0 30
-24 18 -33 19 -40 0z"/>
<path d="M1434 4745 c-13 -32 23 -48 47 -19 10 13 10 17 -2 25 -21 13 -39 11
-45 -6z"/>
<path d="M3493 4744 c-9 -24 11 -38 37 -24 17 9 19 14 9 26 -15 19 -38 18 -46
-2z"/>
<path d="M3617 4703 c-11 -10 -8 -41 4 -49 6 -3 18 1 27 9 13 13 13 19 2 31
-14 17 -23 20 -33 9z"/>
<path d="M1313 4684 c-3 -8 1 -22 9 -30 13 -13 16 -13 27 0 7 9 11 23 7 31 -7
20 -35 19 -43 -1z"/>
<path d="M1200 4626 c-8 -11 -8 -19 2 -35 11 -19 14 -19 30 -4 23 21 23 30 -1
42 -14 8 -22 7 -31 -3z"/>
<path d="M3730 4625 c-23 -28 21 -50 48 -23 9 9 7 14 -6 24 -22 17 -27 17 -42
-1z"/>
<path d="M2040 4588 c-21 -9 -22 -12 -7 -15 11 -3 16 -11 13 -21 -18 -66 -47
-234 -43 -247 8 -20 51 -19 68 2 13 15 12 16 -8 11 -28 -7 -29 -13 6 150 31
143 30 146 -29 120z"/>
<path d="M1735 4580 c-3 -5 3 -10 14 -10 26 0 26 -12 1 -135 -15 -73 -26 -101
-42 -116 l-23 -18 47 -1 c25 0 53 -3 62 -6 21 -8 21 15 0 30 -12 10 -14 22 -9
58 l7 45 61 7 c68 7 103 25 117 62 12 30 -2 69 -29 83 -25 14 -198 14 -206 1z
m166 -20 c23 -13 26 -62 3 -84 -9 -10 -33 -16 -60 -16 -39 0 -45 3 -40 18 3 9
8 31 12 47 4 17 9 33 11 38 6 10 51 9 74 -3z"/>
<path d="M1083 4544 c-3 -8 1 -22 9 -30 13 -13 16 -13 27 0 7 9 11 23 7 31 -7
20 -35 19 -43 -1z"/>
<path d="M3835 4550 c-6 -10 15 -50 26 -50 8 0 19 26 19 46 0 16 -36 19 -45 4z"/>
<path d="M2193 4490 c-41 -25 -63 -68 -63 -124 0 -51 24 -76 73 -76 32 0 98
31 80 37 -7 2 -21 0 -32 -6 -33 -18 -61 -13 -73 14 -12 26 2 55 27 55 8 0 34
9 59 20 39 16 46 23 46 48 0 15 -5 33 -12 40 -18 18 -69 14 -105 -8z m77 -16
c0 -28 -19 -52 -51 -63 -17 -6 -35 -8 -40 -5 -10 6 16 52 40 72 21 17 51 15
51 -4z"/>
<path d="M2408 4495 c-83 -46 -93 -206 -12 -205 10 0 28 7 38 15 17 13 22 12
46 -2 29 -16 60 -12 60 8 0 6 -7 9 -15 5 -19 -7 -19 3 2 93 17 71 17 74 -2 87
-24 18 -82 17 -117 -1z m87 -47 c-9 -54 -29 -92 -57 -112 -30 -21 -35 -20 -53
8 -15 23 -15 27 6 68 31 61 48 78 81 78 29 0 30 -1 23 -42z"/>
<path d="M2640 4490 c-32 -32 -26 -67 15 -91 48 -29 62 -56 38 -75 -27 -20
-61 -17 -68 6 -8 24 -25 17 -25 -11 0 -20 21 -25 85 -21 31 2 65 33 65 60 0 8
-21 34 -47 58 -39 37 -44 45 -33 58 16 21 39 20 62 -1 17 -15 20 -15 28 -3 14
22 12 27 -12 34 -45 12 -88 6 -108 -14z"/>
<path d="M2884 4500 c-31 -12 -74 -68 -75 -98 -3 -82 15 -112 68 -112 34 0
100 27 90 36 -3 3 -23 0 -46 -7 -47 -14 -71 -2 -71 36 0 20 10 27 64 45 35 11
67 28 70 36 22 56 -33 91 -100 64z m62 -24 c10 -25 -15 -55 -53 -65 -20 -6
-39 -8 -41 -6 -3 3 7 23 22 45 27 41 62 53 72 26z"/>
<path d="M3951 4486 c-16 -19 -7 -46 14 -46 22 0 30 29 13 46 -13 13 -16 13
-27 0z"/>
<path d="M981 4471 c-12 -21 -5 -31 19 -31 28 0 42 22 22 36 -23 18 -30 17
-41 -5z"/>
<path d="M874 4389 c-3 -6 1 -18 10 -27 15 -15 17 -15 34 1 15 16 15 19 2 27
-20 13 -37 12 -46 -1z"/>
<path d="M4047 4393 c-10 -9 -8 -15 8 -37 15 -20 15 -20 29 0 21 27 -13 61
-37 37z"/>
<path d="M782 4309 c-15 -24 0 -51 24 -42 18 6 18 37 1 51 -10 8 -16 6 -25 -9z"/>
<path d="M4152 4309 c-12 -18 -12 -24 0 -35 12 -12 17 -12 32 -1 17 12 17 14
-1 35 l-18 23 -13 -22z"/>
<path d="M685 4210 c-8 -24 1 -40 21 -40 20 0 29 27 14 45 -17 20 -27 19 -35
-5z"/>
<path d="M4245 4209 c-9 -28 9 -46 29 -30 12 10 13 18 5 32 -13 25 -26 24 -34
-2z"/>
<path d="M594 4105 c-13 -32 23 -48 47 -19 10 13 10 17 -2 25 -21 13 -39 11
-45 -6z"/>
<path d="M4331 4106 c-18 -21 11 -41 39 -26 17 9 19 14 9 26 -15 18 -33 18
-48 0z"/>
<path d="M1978 4083 c-32 -39 -49 -73 -36 -73 23 1 78 59 78 82 0 14 -27 8
-42 -9z"/>
<path d="M2948 4087 c-37 -9 -52 -27 -23 -27 19 0 19 6 -10 -134 -20 -90 -23
-122 -14 -132 15 -18 43 -18 59 1 10 12 9 15 -8 15 -19 0 -19 3 10 141 16 78
28 142 26 144 -2 1 -20 -3 -40 -8z"/>
<path d="M1140 4082 c-34 -5 -50 -22 -21 -22 22 0 23 -3 18 -47 -3 -27 -13
-81 -23 -121 -14 -62 -21 -75 -43 -85 -22 -10 -12 -12 73 -15 88 -2 105 0 145
20 116 59 121 244 8 263 -46 7 -128 11 -157 7z m159 -41 c18 -14 25 -30 28
-67 6 -67 -19 -112 -77 -141 -50 -26 -100 -30 -100 -9 0 16 38 204 45 224 7
18 77 14 104 -7z"/>
<path d="M2795 4081 c-18 -7 -18 -8 -1 -18 17 -9 17 -15 -7 -134 -26 -128 -24
-149 13 -149 10 0 23 7 30 15 10 12 9 15 -7 15 -20 0 -20 1 3 118 13 64 26
127 29 140 4 18 1 22 -17 21 -13 0 -32 -4 -43 -8z"/>
<path d="M3443 4075 c-13 -9 -46 -63 -75 -120 -28 -58 -53 -104 -54 -102 -1 1
-8 43 -14 92 -17 144 -13 135 -70 135 -28 0 -50 -4 -50 -10 0 -5 9 -10 20 -10
25 0 26 2 -10 -121 -23 -79 -37 -109 -58 -126 l-27 -23 58 0 c31 0 57 4 57 10
0 6 -9 10 -20 10 -11 0 -20 3 -20 8 2 29 59 204 63 192 3 -8 11 -61 17 -118
12 -96 14 -103 34 -100 16 2 36 31 79 116 32 63 60 112 61 110 2 -1 -2 -42 -8
-90 -9 -69 -16 -92 -35 -112 l-24 -26 61 0 c33 0 64 5 67 10 3 6 -4 10 -16 10
-19 0 -21 4 -15 43 3 23 8 75 12 115 5 57 11 76 27 87 24 17 22 21 -13 30 -16
3 -33 0 -47 -10z"/>
<path d="M2286 4053 c-4 -16 -9 -36 -12 -46 -5 -16 -3 -17 14 -8 12 6 24 20
27 31 7 21 45 36 68 27 11 -4 9 -28 -12 -122 -22 -100 -30 -119 -49 -126 -37
-14 -25 -19 48 -19 40 0 70 4 70 10 0 6 -9 10 -20 10 -25 0 -25 12 1 135 23
113 24 115 49 115 34 0 50 -12 50 -36 0 -33 18 -30 26 4 3 15 7 33 10 40 2 9
-28 12 -130 12 l-134 0 -6 -27z"/>
<path d="M2083 4014 c-26 -26 -37 -44 -28 -44 19 0 19 -18 0 -99 -12 -48 -13
-67 -4 -77 15 -18 41 -18 65 2 18 15 18 15 -9 11 -26 -4 -27 -3 -21 30 19 99
30 128 52 131 28 4 29 22 2 22 -18 0 -20 4 -14 35 3 19 5 35 3 34 -2 0 -23
-21 -46 -45z"/>
<path d="M519 4004 c-10 -12 -9 -18 3 -30 13 -13 16 -13 31 4 15 16 15 19 -3
29 -14 10 -21 9 -31 -3z"/>
<path d="M4417 4013 c-12 -11 -8 -40 7 -52 12 -10 17 -8 26 9 16 29 -12 65
-33 43z"/>
<path d="M3646 3999 c-56 -15 -96 -72 -96 -134 0 -51 15 -73 54 -80 35 -7 106
16 106 34 0 6 -15 4 -35 -5 -43 -18 -50 -18 -69 2 -28 27 -20 51 22 64 81 26
102 41 102 70 0 42 -35 63 -84 49z m41 -25 c10 -27 -14 -63 -49 -72 -18 -5
-37 -7 -41 -5 -16 9 51 93 74 93 5 0 12 -7 16 -16z"/>
<path d="M1476 3979 c-90 -71 -65 -199 38 -199 49 0 106 70 106 130 0 33 -15
70 -34 82 -22 15 -83 8 -110 -13z m78 -5 c24 -23 29 -56 16 -102 -12 -47 -33
-72 -60 -72 -25 0 -50 27 -50 54 0 35 28 109 47 124 22 16 28 15 47 -4z"/>
<path d="M1768 3964 l-35 -35 5 30 c4 29 2 31 -27 31 -31 0 -38 -8 -22 -25 6
-6 2 -43 -9 -93 l-18 -83 21 3 c16 2 23 13 29 41 11 53 63 127 90 127 17 0 19
-4 14 -27 -3 -16 -9 -54 -13 -85 -5 -53 -4 -58 13 -57 11 0 28 4 39 9 19 8 19
9 -3 9 -17 1 -22 5 -18 19 29 97 36 145 25 158 -20 24 -55 16 -91 -22z"/>
<path d="M2603 3980 c-66 -40 -86 -140 -37 -179 32 -25 52 -26 101 -6 45 19
37 31 -10 16 -40 -14 -64 -7 -73 21 -8 27 5 38 74 63 52 20 57 25 60 55 2 20
-2 36 -10 41 -23 15 -72 10 -105 -11z m77 -18 c0 -28 -22 -51 -57 -61 -39 -11
-42 -1 -13 47 23 37 70 46 70 14z"/>
<path d="M441 3906 c-16 -19 -7 -46 14 -46 22 0 30 29 13 46 -13 13 -16 13
-27 0z"/>
<path d="M4497 3903 c-11 -11 -8 -40 6 -51 19 -16 43 24 26 44 -13 15 -22 18
-32 7z"/>
<path d="M372 3788 c-16 -16 -15 -33 1 -46 20 -17 44 25 25 44 -11 11 -16 12
-26 2z"/>
<path d="M4567 3793 c-12 -11 -8 -41 6 -46 7 -3 22 2 32 10 20 14 20 14 1 29
-22 16 -30 17 -39 7z"/>
<path d="M300 3665 c-11 -13 -11 -19 4 -33 15 -15 18 -15 26 -2 22 33 -6 64
-30 35z"/>
<path d="M4630 3665 c-21 -25 2 -42 36 -26 26 11 26 12 8 26 -24 18 -29 18
-44 0z"/>
<path d="M3505 3606 c-36 -11 -38 -13 -21 -23 19 -10 19 -13 -3 -119 -11 -60
-24 -119 -27 -131 -5 -18 -2 -23 14 -23 15 0 22 9 27 33 10 46 39 98 69 126
41 38 50 18 30 -66 -10 -39 -14 -78 -11 -87 8 -20 37 -21 63 -1 19 14 18 14
-3 15 -28 0 -28 7 -4 91 21 74 15 99 -26 99 -16 0 -37 -13 -60 -37 -25 -27
-34 -32 -30 -18 15 55 29 133 26 142 -3 7 -18 6 -44 -1z"/>
<path d="M3184 3595 c-18 -14 -18 -14 4 -15 39 0 37 -28 -9 -122 -41 -83 -44
-88 -50 -62 -4 16 -7 61 -8 101 -1 96 -5 103 -52 103 -41 0 -53 -14 -20 -23
17 -4 20 -18 25 -113 9 -141 12 -154 36 -154 15 0 32 23 67 93 l47 92 11 -90
c9 -79 12 -90 30 -90 15 0 33 29 81 125 44 89 70 129 88 138 50 25 30 33 -66
24 -24 -3 -23 -20 1 -24 16 -3 13 -15 -33 -108 l-50 -105 -7 40 c-4 22 -8 69
-10 104 -2 57 0 65 20 75 12 7 18 15 15 19 -13 13 -100 7 -120 -8z"/>
<path d="M240 3544 c-11 -12 -10 -18 4 -32 16 -16 18 -16 31 2 11 14 12 23 4
33 -15 17 -24 16 -39 -3z"/>
<path d="M4690 3545 c-21 -26 3 -42 37 -26 27 12 27 13 8 27 -24 18 -30 18
-45 -1z"/>
<path d="M3802 3519 c-77 -16 -128 -121 -92 -189 15 -28 71 -35 114 -15 46 22
40 31 -9 15 -31 -10 -39 -10 -56 6 -42 38 -28 51 109 99 9 3 12 18 10 41 -3
43 -25 55 -76 43z m38 -37 c0 -29 -22 -51 -57 -58 -38 -8 -40 -1 -13 44 23 37
70 46 70 14z"/>
<path d="M4029 3483 l-32 -38 6 33 7 32 -43 0 c-38 -1 -40 -2 -24 -15 18 -13
18 -17 3 -90 -9 -43 -16 -81 -16 -86 0 -14 30 -11 34 4 25 85 76 167 105 167
15 0 13 -45 -4 -110 -13 -50 -13 -56 2 -67 22 -17 38 -16 53 2 10 12 10 15 -4
15 -20 0 -20 15 0 95 19 77 15 95 -25 95 -21 0 -38 -10 -62 -37z"/>
<path d="M2088 3490 c-150 -27 -285 -92 -389 -188 -108 -100 -147 -199 -156
-397 -9 -192 39 -388 134 -548 57 -98 233 -279 335 -347 66 -44 81 -60 56 -60
-31 0 -182 -67 -195 -86 -12 -19 -11 -34 12 -123 35 -141 58 -193 121 -282 51
-73 122 -231 126 -281 1 -13 -20 -75 -46 -138 -107 -257 -156 -431 -156 -557
l0 -68 68 -65 c83 -80 140 -115 222 -136 93 -24 152 5 203 99 21 39 22 53 20
217 -1 178 -26 610 -43 755 -5 44 -14 125 -20 180 -20 177 -49 359 -64 403
-19 53 -11 77 48 140 151 163 313 432 355 592 37 138 42 239 19 374 l-20 119
-77 116 c-88 131 -134 177 -212 213 -133 62 -247 85 -341 68z m122 -341 c78
-12 179 -64 239 -122 82 -79 161 -220 185 -328 4 -17 14 -29 30 -33 14 -3 27
-15 31 -25 15 -48 -73 -235 -200 -426 -78 -117 -191 -248 -208 -242 -6 2 -17
21 -24 43 -13 36 -12 45 14 122 30 89 29 99 -20 136 -35 26 -44 15 -18 -22 22
-31 19 -42 -10 -42 -13 0 -21 12 -29 38 -12 45 -50 85 -73 76 -16 -6 -37 -53
-37 -84 0 -17 -33 -34 -44 -23 -3 3 6 21 19 41 14 20 23 38 21 40 -14 13 -116
-85 -116 -111 0 -13 92 -107 104 -107 15 0 4 29 -19 50 -33 31 -32 40 9 40 33
0 34 -1 38 -45 4 -60 -2 -135 -12 -135 -14 0 -132 93 -202 159 -87 81 -120
128 -201 276 -75 137 -87 181 -62 218 9 14 25 60 36 102 25 103 71 186 146
265 70 75 142 119 223 136 71 16 100 16 180 3z m-17 -1034 c19 -82 38 -164 42
-182 3 -17 19 -45 36 -62 38 -40 38 -54 -1 -46 -16 4 -30 4 -30 0 0 -3 18 -23
41 -45 52 -50 50 -76 -6 -73 l-39 3 46 -43 c41 -37 47 -48 52 -97 17 -145 38
-472 46 -720 5 -151 14 -316 21 -367 11 -88 10 -94 -11 -139 -18 -37 -32 -51
-68 -66 -60 -27 -88 -20 -211 53 -132 78 -144 96 -138 204 6 87 24 149 127
427 l62 167 43 -6 c48 -6 95 2 95 17 0 5 -18 15 -40 21 -73 22 -140 118 -140
199 0 14 9 63 20 110 28 124 30 120 -35 120 -59 0 -74 -14 -25 -25 16 -4 32
-11 35 -16 7 -11 -26 -119 -36 -119 -14 0 -88 92 -109 134 -26 55 -25 72 6
101 20 18 42 26 95 31 57 5 69 10 69 24 0 36 -81 41 -162 10 -29 -11 -54 -20
-55 -20 -2 0 -3 11 -3 25 0 32 35 50 130 64 74 12 101 24 86 38 -19 19 -140 2
-218 -32 -15 -6 -18 -2 -18 28 0 41 -1 40 124 68 49 11 96 25 104 32 12 9 13
40 7 174 -6 154 -2 204 15 172 4 -8 23 -81 43 -164z m56 31 c-9 -19 -15 -23
-21 -14 -13 21 -9 36 10 40 24 6 24 4 11 -26z"/>
<path d="M1873 2945 c-91 -46 -102 -82 -12 -40 59 27 104 31 144 13 21 -10 29
-9 42 5 15 15 14 17 -13 28 -60 23 -106 22 -161 -6z"/>
<path d="M2248 2959 c-28 -11 -37 -32 -18 -44 5 -3 37 -1 70 6 48 9 70 9 102
0 58 -18 59 -5 2 20 -57 26 -118 33 -156 18z"/>
<path d="M1876 2830 c-52 -20 -106 -65 -106 -87 0 -20 35 -16 55 7 22 25 31
25 38 3 2 -10 8 -26 12 -35 6 -14 2 -18 -15 -18 -31 0 -21 -21 21 -44 41 -22
94 -17 130 13 19 15 21 22 11 33 -18 22 3 88 28 88 36 0 20 33 -23 49 -41 16
-96 13 -151 -9z m74 -45 c0 -20 -38 -57 -50 -50 -16 10 -11 43 8 54 25 15 42
13 42 -4z"/>
<path d="M2246 2817 c-29 -29 -35 -53 -11 -43 8 3 21 9 29 12 8 3 16 -4 20
-18 11 -44 7 -65 -16 -73 -22 -6 -21 -7 12 -22 47 -20 121 -20 154 2 29 19 34
35 11 35 -19 0 -19 20 -2 44 10 14 22 17 46 14 19 -3 30 -1 28 6 -6 19 -121
58 -184 63 -56 5 -63 3 -87 -20z m124 -36 c0 -11 -7 -27 -17 -36 -14 -15 -17
-15 -25 -2 -11 20 -1 45 20 50 10 3 18 5 20 6 1 0 2 -8 2 -18z"/>
<path d="M2033 2513 c-18 -49 -7 -54 108 -51 l104 3 0 29 c0 16 -6 31 -12 34
-8 2 -13 -5 -13 -17 0 -19 -6 -21 -69 -21 -63 0 -71 2 -89 27 l-19 26 -10 -30z"/>
<path d="M190 3425 c-15 -18 -5 -35 20 -35 10 0 22 5 25 10 7 11 -12 40 -25
40 -4 0 -13 -7 -20 -15z"/>
<path d="M4741 3421 c-14 -26 12 -50 34 -31 11 9 12 17 4 31 -5 10 -14 19 -19
19 -5 0 -14 -9 -19 -19z"/>
<path d="M4790 3305 c-10 -12 -10 -18 0 -30 7 -8 16 -15 20 -15 4 0 10 7 14
15 6 17 -2 45 -14 45 -4 0 -13 -7 -20 -15z"/>
<path d="M137 3296 c-3 -8 1 -22 9 -33 14 -17 14 -17 28 0 18 23 10 47 -14 47
-10 0 -20 -6 -23 -14z"/>
<path d="M103 3164 c-9 -24 11 -38 37 -24 17 9 19 14 9 26 -15 19 -38 18 -46
-2z"/>
<path d="M4823 3164 c-3 -8 1 -22 9 -30 13 -13 16 -13 27 0 7 9 11 23 7 31 -7
20 -35 19 -43 -1z"/>
<path d="M3693 3093 c-20 -8 -15 -23 7 -23 25 0 25 1 0 -113 -28 -124 -27
-123 -52 -134 -19 -8 -13 -11 36 -17 67 -7 84 -1 57 22 -18 15 -19 22 -9 65
l11 47 58 0 c47 0 63 5 89 26 26 22 31 33 28 63 -4 50 -48 71 -143 70 -38 0
-76 -3 -82 -6z m165 -41 c32 -41 -7 -92 -69 -92 l-41 0 7 43 c11 67 21 79 58
72 18 -4 38 -14 45 -23z"/>
<path d="M4440 3090 c-13 -8 -12 -10 3 -10 22 0 22 -6 -8 -146 -30 -141 -30
-134 -6 -134 14 0 21 10 26 37 8 46 26 80 59 116 45 49 64 26 41 -50 -27 -87
-14 -124 36 -108 23 8 25 25 3 25 -12 0 -15 6 -12 23 3 12 11 51 19 86 13 59
12 64 -6 77 -28 20 -34 18 -77 -26 -21 -23 -38 -37 -38 -33 1 4 7 37 15 73 8
36 14 68 15 73 0 10 -52 8 -70 -3z"/>
<path d="M74 3044 c-9 -34 10 -54 32 -32 13 13 14 19 2 37 -17 28 -26 27 -34
-5z"/>
<path d="M3195 3030 c-30 -31 -37 -43 -26 -49 11 -7 10 -22 -3 -87 -16 -74
-16 -80 1 -91 21 -16 25 -16 49 2 18 14 18 14 -4 15 -17 0 -22 4 -18 18 3 9
10 45 17 80 9 49 15 62 30 62 26 0 32 17 9 23 -16 4 -19 11 -14 36 4 17 5 31
2 31 -2 0 -22 -18 -43 -40z"/>
<path d="M4855 3040 c-3 -5 -1 -19 6 -31 10 -19 12 -20 26 -6 9 9 13 23 10 31
-7 18 -32 21 -42 6z"/>
<path d="M3353 3000 c-81 -49 -86 -185 -7 -204 43 -11 87 10 117 56 43 67 31
138 -26 158 -41 14 -47 13 -84 -10z m85 -33 c11 -23 11 -36 -3 -82 -34 -117
-121 -87 -94 33 18 82 69 108 97 49z"/>
<path d="M4263 3013 c-26 -5 -53 -39 -53 -65 0 -9 12 -25 26 -35 15 -10 38
-29 52 -42 l26 -24 -23 -18 c-30 -25 -46 -24 -70 3 -18 18 -21 19 -27 5 -10
-27 5 -37 57 -37 96 0 120 70 42 123 -55 37 -59 67 -8 67 22 0 38 -6 41 -15 4
-8 10 -15 14 -15 12 0 22 32 13 41 -11 10 -64 17 -90 12z"/>
<path d="M3975 3003 c-30 -7 -43 -23 -18 -23 20 0 20 -2 7 -57 -18 -75 -17
-108 0 -122 19 -16 51 0 88 43 l27 31 -6 -36 c-4 -31 -2 -38 14 -43 23 -7 53
2 53 15 0 5 -7 9 -15 9 -19 0 -19 7 4 103 17 72 17 77 2 77 -11 0 -28 -21 -46
-59 -37 -79 -70 -119 -85 -105 -8 8 -5 33 8 92 21 89 21 88 -33 75z"/>
<path d="M4881 2911 c-16 -28 14 -51 36 -28 13 13 14 19 3 31 -17 21 -27 20
-39 -3z"/>
<path d="M47 2913 c-23 -22 14 -53 39 -32 11 9 11 15 3 25 -12 15 -31 18 -42
7z"/>
<path d="M30 2775 c-10 -12 -10 -18 0 -31 12 -13 15 -13 28 0 15 15 10 46 -6
46 -5 0 -15 -7 -22 -15z"/>
<path d="M4901 2777 c-8 -10 -7 -19 4 -33 15 -19 15 -19 30 0 11 14 12 23 4
33 -6 7 -15 13 -19 13 -4 0 -13 -6 -19 -13z"/>
<path d="M20 2645 c-15 -18 -5 -35 20 -35 10 0 22 5 25 10 7 11 -12 40 -25 40
-4 0 -13 -7 -20 -15z"/>
<path d="M4917 2653 c-12 -11 -8 -41 6 -46 6 -2 20 2 29 11 17 14 17 16 0 28
-20 15 -26 17 -35 7z"/>
<path d="M4 2508 c-6 -10 20 -38 37 -38 10 0 20 30 13 41 -8 13 -41 11 -50 -3z"/>
<path d="M4917 2513 c-24 -23 12 -55 38 -33 12 10 13 16 4 26 -12 15 -31 18
-42 7z"/>
<path d="M16 2373 c-10 -26 9 -38 40 -24 26 11 26 12 8 26 -25 19 -40 19 -48
-2z"/>
<path d="M4911 2377 c-8 -10 -7 -19 4 -33 13 -18 15 -18 31 -2 14 14 15 20 4
32 -15 19 -24 20 -39 3z"/>
<path d="M26 2244 c-4 -10 -2 -22 3 -27 14 -14 43 0 39 20 -4 24 -34 28 -42 7z"/>
<path d="M4902 2247 c-18 -21 2 -41 33 -33 26 7 27 8 10 26 -21 23 -29 25 -43
7z"/>
<path d="M4881 2111 c-16 -28 14 -51 36 -28 13 13 14 19 3 31 -17 21 -27 20
-39 -3z"/>
<path d="M44 2109 c-3 -6 1 -18 10 -27 15 -15 17 -15 34 1 15 16 15 19 2 27
-20 13 -37 12 -46 -1z"/>
<path d="M64 1979 c-3 -6 0 -18 9 -26 12 -12 19 -13 36 -3 18 9 20 14 10 26
-14 17 -45 19 -55 3z"/>
<path d="M4852 1978 c-8 -8 -9 -15 -1 -25 15 -18 36 -16 43 3 12 31 -18 46
-42 22z"/>
<path d="M101 1846 c-9 -10 -8 -16 3 -25 20 -17 60 7 44 26 -14 17 -33 17 -47
-1z"/>
<path d="M4824 1845 c-13 -32 23 -48 47 -19 10 13 10 17 -2 25 -21 13 -39 11
-45 -6z"/>
<path d="M4791 1731 c-16 -29 3 -58 25 -40 17 14 17 20 0 44 -13 18 -14 18
-25 -4z"/>
<path d="M140 1724 c-11 -12 -10 -18 3 -31 15 -15 18 -15 37 2 19 17 19 19 2
31 -22 17 -27 17 -42 -2z"/>
<path d="M190 1604 c-11 -12 -10 -18 3 -32 21 -21 42 -3 32 27 -8 25 -18 27
-35 5z"/>
<path d="M4740 1594 c-11 -12 -10 -18 3 -32 16 -15 18 -15 34 0 13 14 14 20 3
32 -7 9 -16 16 -20 16 -4 0 -13 -7 -20 -16z"/>
<path d="M240 1475 c-9 -11 -9 -18 3 -35 14 -20 14 -20 32 0 15 16 15 22 5 35
-16 19 -24 19 -40 0z"/>
<path d="M4690 1474 c-11 -12 -10 -18 3 -32 16 -15 18 -15 34 0 13 14 14 20 3
32 -7 9 -16 16 -20 16 -4 0 -13 -7 -20 -16z"/>
<path d="M300 1355 c-23 -28 21 -50 48 -23 9 9 7 14 -6 24 -22 17 -27 17 -42
-1z"/>
<path d="M4630 1355 c-15 -18 -5 -35 20 -35 10 0 22 5 25 10 7 11 -12 40 -25
40 -4 0 -13 -7 -20 -15z"/>
<path d="M367 1243 c-24 -23 12 -55 38 -33 12 10 13 16 4 26 -12 15 -31 18
-42 7z"/>
<path d="M4567 1243 c-24 -23 12 -55 38 -33 12 10 13 16 4 26 -12 15 -31 18
-42 7z"/>
<path d="M4493 1131 c-9 -14 -9 -21 0 -30 26 -26 55 -4 37 29 -13 25 -22 25
-37 1z"/>
<path d="M443 1133 c-17 -6 -16 -28 0 -42 10 -8 19 -7 32 3 16 12 17 16 6 30
-14 17 -18 18 -38 9z"/>
<path d="M517 1023 c-24 -23 12 -55 38 -33 12 10 13 16 4 26 -12 15 -31 18
-42 7z"/>
<path d="M4417 1023 c-24 -23 12 -55 38 -33 12 10 13 16 4 26 -12 15 -31 18
-42 7z"/>
<path d="M4341 921 c-17 -11 -7 -41 13 -41 22 0 30 20 15 36 -9 8 -19 10 -28
5z"/>
<path d="M595 910 c-3 -5 -1 -19 6 -31 10 -19 12 -20 26 -6 9 9 13 23 10 31
-7 18 -32 21 -42 6z"/>
<path d="M690 815 c-19 -23 5 -48 31 -32 24 15 24 24 0 36 -14 8 -22 7 -31 -4z"/>
<path d="M4247 823 c-11 -10 -8 -41 4 -49 6 -3 18 1 27 9 13 13 13 19 2 31
-14 17 -23 20 -33 9z"/>
<path d="M781 728 c-11 -17 -10 -23 2 -35 18 -18 37 -9 37 16 0 31 -24 43 -39
19z"/>
<path d="M4150 725 c-11 -13 -11 -19 3 -33 20 -19 41 -5 35 24 -4 24 -22 28
-38 9z"/>
<path d="M876 631 c-9 -14 4 -41 19 -41 17 0 38 27 30 40 -8 12 -42 13 -49 1z"/>
<path d="M4050 621 c0 -27 15 -34 40 -21 17 9 19 14 9 26 -17 21 -49 18 -49
-5z"/>
<path d="M981 547 c-8 -10 -7 -19 4 -33 13 -18 15 -18 31 -2 14 14 15 20 4 32
-15 19 -24 20 -39 3z"/>
<path d="M3951 546 c-14 -17 9 -39 33 -30 20 8 21 30 0 38 -21 8 -20 8 -33 -8z"/>
<path d="M1090 475 c-16 -19 -5 -47 17 -43 11 2 18 12 18 27 0 29 -17 37 -35
16z"/>
<path d="M3836 464 c-9 -23 7 -37 34 -29 13 4 20 13 18 23 -4 23 -44 28 -52 6z"/>
<path d="M1202 403 c-18 -35 12 -60 37 -30 8 11 6 18 -8 31 -18 17 -20 17 -29
-1z"/>
<path d="M3726 394 c-3 -9 -4 -20 0 -25 8 -14 40 -11 53 5 10 12 8 17 -8 25
-27 15 -38 14 -45 -5z"/>
<path d="M1313 324 c-3 -8 1 -22 9 -30 13 -13 16 -13 27 0 7 9 11 23 7 31 -7
20 -35 19 -43 -1z"/>
<path d="M3613 324 c-9 -24 11 -38 37 -24 17 9 19 14 9 26 -15 19 -38 18 -46
-2z"/>
<path d="M1434 275 c-9 -21 3 -45 21 -45 21 0 30 27 15 45 -16 19 -29 19 -36
0z"/>
<path d="M3503 283 c-18 -6 -16 -42 2 -49 14 -6 45 11 45 25 0 11 -34 28 -47
24z"/>
<path d="M3371 221 c-8 -14 -7 -22 4 -31 22 -19 48 5 34 31 -5 10 -14 19 -19
19 -5 0 -14 -9 -19 -19z"/>
<path d="M1554 219 c-3 -6 1 -18 9 -27 13 -13 19 -13 32 -2 12 10 13 16 4 26
-14 17 -35 18 -45 3z"/>
<path d="M1682 179 c-12 -18 -11 -24 2 -37 22 -22 41 -2 32 32 -8 32 -17 33
-34 5z"/>
<path d="M3250 180 c-15 -28 5 -57 26 -39 18 15 18 33 0 48 -12 10 -17 8 -26
-9z"/>
<path d="M1810 140 c-13 -25 3 -52 26 -43 18 7 18 37 0 52 -12 10 -17 8 -26
-9z"/>
<path d="M3122 139 c-10 -16 -11 -24 -1 -35 11 -13 14 -13 27 -1 9 9 11 23 7
36 -8 26 -17 27 -33 0z"/>
<path d="M1939 107 c-11 -24 -11 -30 2 -38 32 -20 50 12 25 46 -14 19 -15 19
-27 -8z"/>
<path d="M2985 100 c-6 -10 15 -50 26 -50 8 0 19 26 19 46 0 16 -36 19 -45 4z"/>
<path d="M2065 80 c-9 -15 5 -52 18 -47 6 2 15 11 21 20 8 13 7 20 -4 27 -19
12 -27 12 -35 0z"/>
<path d="M2860 75 c-9 -11 -9 -19 3 -35 l15 -21 16 22 c11 17 13 26 4 36 -14
17 -23 16 -38 -2z"/>
<path d="M2200 55 c-11 -13 -11 -19 4 -33 15 -15 18 -15 26 -2 22 33 -6 64
-30 35z"/>
<path d="M2331 51 c-8 -14 -7 -22 4 -31 22 -19 48 5 34 31 -12 24 -26 24 -38
0z"/>
<path d="M2600 55 c-15 -18 -6 -45 14 -45 20 0 29 16 21 40 -8 24 -18 25 -35
5z"/>
<path d="M2732 57 c-7 -8 -7 -18 -2 -27 7 -12 13 -12 37 -1 27 12 27 13 8 27
-23 17 -30 17 -43 1z"/>
<path d="M2462 28 c5 -34 38 -37 38 -4 0 20 -5 26 -21 26 -15 0 -20 -5 -17
-22z"/>
</g>
</svg>
