<?xml version="1.0" standalone="no"?>
<!DOCTYPE svg PUBLIC "-//W3C//DTD SVG 20010904//EN"
 "http://www.w3.org/TR/2001/REC-SVG-20010904/DTD/svg10.dtd">
<svg version="1.0" xmlns="http://www.w3.org/2000/svg"
 width="500.000000pt" height="500.000000pt" viewBox="0 0 500.000000 500.000000"
 preserveAspectRatio="xMidYMid meet">
<metadata>
Created by potrace 1.15, written by Peter Selinger 2001-2017
</metadata>
<g transform="translate(0.000000,500.000000) scale(0.100000,-0.100000)"
fill="#000000" stroke="none">
<path d="M2215 4970 c-7 -23 1 -40 20 -40 21 0 27 17 13 40 -16 25 -25 25 -33
0z"/>
<path d="M2347 4983 c-12 -11 -7 -41 7 -46 8 -3 22 0 32 8 15 11 16 15 5 29
-14 17 -33 21 -44 9z"/>
<path d="M2476 4981 c-8 -12 4 -41 16 -41 5 0 18 5 29 11 20 10 20 11 2 24
-21 17 -39 19 -47 6z"/>
<path d="M2615 4979 c-8 -12 2 -59 13 -59 4 0 13 9 20 21 10 16 10 24 1 35
-14 17 -25 18 -34 3z"/>
<path d="M2751 4976 c-17 -20 -6 -49 16 -44 22 4 26 20 10 42 -12 16 -14 16
-26 2z"/>
<path d="M2080 4945 c-11 -13 -11 -19 3 -33 20 -19 41 -5 35 24 -4 24 -22 28
-38 9z"/>
<path d="M2880 4945 c-22 -26 7 -46 39 -26 12 8 12 12 2 25 -17 20 -25 20 -41
1z"/>
<path d="M3005 4919 c-7 -20 7 -38 27 -39 15 0 27 37 16 48 -18 18 -36 14 -43
-9z"/>
<path d="M1943 4914 c-3 -8 1 -22 9 -30 13 -13 16 -13 27 0 7 9 11 23 7 31 -7
20 -35 19 -43 -1z"/>
<path d="M1811 4887 c-9 -11 -8 -17 4 -27 19 -16 47 -5 43 17 -4 23 -31 28
-47 10z"/>
<path d="M3140 4885 c-11 -13 -11 -19 4 -33 15 -15 18 -15 26 -2 22 33 -6 64
-30 35z"/>
<path d="M1690 4854 c-11 -12 -10 -18 3 -32 16 -15 18 -15 34 0 13 14 14 20 3
32 -7 9 -16 16 -20 16 -4 0 -13 -7 -20 -16z"/>
<path d="M3264 4845 c-4 -9 0 -24 10 -33 15 -15 18 -15 26 -2 6 8 9 22 7 30
-3 21 -36 25 -43 5z"/>
<path d="M1570 4805 c-19 -22 5 -48 31 -34 10 5 19 14 19 19 0 5 -9 14 -19 19
-14 8 -22 7 -31 -4z"/>
<path d="M3391 4801 c-15 -27 12 -49 37 -30 9 7 19 15 21 16 5 4 -31 32 -41
33 -4 0 -12 -9 -17 -19z"/>
<path d="M3522 4768 c-15 -15 -15 -45 -1 -54 6 -3 18 0 26 9 14 13 14 18 1 36
-11 16 -17 18 -26 9z"/>
<path d="M1437 4747 c-3 -7 2 -21 9 -32 13 -18 15 -18 30 -3 9 9 14 24 11 32
-8 19 -43 21 -50 3z"/>
<path d="M1327 4703 c-11 -10 -8 -41 4 -49 6 -3 18 1 27 9 13 13 13 19 2 31
-14 17 -23 20 -33 9z"/>
<path d="M3635 4690 c-8 -13 3 -50 15 -50 13 0 32 39 25 50 -8 13 -32 13 -40
0z"/>
<path d="M2160 4668 c-21 -9 -22 -12 -7 -15 22 -6 21 -19 -3 -138 -28 -138
-28 -147 12 -143 17 2 34 9 36 17 3 10 0 12 -12 8 -21 -8 -21 -3 9 143 14 68
25 127 25 131 0 12 -29 10 -60 -3z"/>
<path d="M1860 4660 c0 -5 9 -10 20 -10 25 0 25 -2 -4 -129 -18 -81 -29 -108
-47 -122 -24 -18 -24 -19 45 -19 66 0 68 1 53 18 -18 19 -21 50 -11 90 5 18
13 22 43 22 55 0 109 18 126 43 23 33 19 73 -11 96 -23 18 -41 21 -120 21 -56
0 -94 -4 -94 -10z m174 -26 c38 -37 4 -92 -62 -101 -47 -6 -47 -7 -31 67 10
48 12 50 44 50 19 0 41 -7 49 -16z"/>
<path d="M1210 4625 c-23 -28 21 -50 48 -23 9 9 7 14 -6 24 -22 17 -27 17 -42
-1z"/>
<path d="M3750 4625 c-23 -28 21 -50 48 -23 9 9 7 14 -6 24 -22 17 -27 17 -42
-1z"/>
<path d="M2335 4581 c-47 -20 -89 -100 -79 -151 12 -56 73 -77 135 -44 41 21
30 29 -16 13 -43 -16 -69 -4 -73 34 -3 23 3 27 62 47 54 18 67 26 72 47 4 15
2 33 -3 42 -11 18 -67 25 -98 12z m61 -22 c11 -19 -18 -58 -53 -70 -19 -6 -37
-9 -40 -6 -7 8 34 74 50 81 21 8 36 6 43 -5z"/>
<path d="M2533 4570 c-41 -25 -63 -68 -63 -123 0 -67 47 -98 94 -62 17 13 22
12 46 -2 29 -16 60 -12 60 8 0 6 -7 8 -16 5 -18 -7 -18 -1 7 112 11 55 11 64
-1 72 -25 16 -93 11 -127 -10z m93 -14 c10 -25 -17 -98 -46 -128 -35 -34 -45
-35 -65 -4 -15 23 -15 28 9 75 14 27 34 54 43 60 26 15 53 13 59 -3z"/>
<path d="M2772 4570 c-37 -35 -27 -70 29 -102 21 -11 41 -28 44 -36 16 -41
-61 -59 -87 -20 l-15 22 -12 -23 c-16 -29 -12 -32 43 -38 54 -7 92 14 102 54
6 23 1 32 -41 69 -43 36 -47 44 -36 58 17 21 40 20 63 -1 17 -15 20 -15 28 -3
14 22 12 27 -12 34 -44 11 -84 6 -106 -14z"/>
<path d="M3003 4570 c-40 -24 -66 -72 -66 -124 0 -47 29 -76 75 -76 32 0 100
31 81 37 -7 2 -21 0 -32 -6 -33 -18 -61 -13 -73 14 -12 26 2 55 27 55 8 0 34
9 59 20 39 16 46 23 46 48 0 15 -5 33 -12 40 -18 18 -69 14 -105 -8z m73 -14
c9 -24 -14 -54 -52 -66 -44 -15 -50 -9 -28 27 32 51 69 69 80 39z"/>
<path d="M1102 4568 c-16 -16 -15 -45 2 -51 23 -9 39 18 26 42 -13 25 -12 25
-28 9z"/>
<path d="M3855 4550 c-6 -9 15 -50 25 -50 10 0 31 41 25 50 -4 6 -15 10 -25
10 -10 0 -21 -4 -25 -10z"/>
<path d="M985 4480 c-8 -24 1 -40 21 -40 20 0 29 27 14 45 -17 20 -27 19 -35
-5z"/>
<path d="M3970 4480 c-14 -26 0 -46 24 -37 20 8 21 31 2 46 -12 10 -17 8 -26
-9z"/>
<path d="M887 4403 c-11 -10 -8 -41 4 -49 6 -3 18 1 27 9 13 13 13 19 2 31
-14 17 -23 20 -33 9z"/>
<path d="M4077 4403 c-11 -10 -8 -41 4 -49 6 -3 18 1 27 9 13 13 13 19 2 31
-14 17 -23 20 -33 9z"/>
<path d="M4175 4303 c-14 -14 -15 -18 -2 -30 12 -12 18 -13 36 -1 26 16 26 20
1 35 -15 10 -22 10 -35 -4z"/>
<path d="M785 4300 c-8 -13 3 -50 15 -50 13 0 32 39 25 50 -8 13 -32 13 -40 0z"/>
<path d="M688 4208 c-12 -33 24 -52 50 -26 9 9 7 14 -6 24 -22 17 -39 17 -44
2z"/>
<path d="M4263 4204 c-8 -22 11 -37 36 -29 25 8 28 30 5 39 -25 9 -34 7 -41
-10z"/>
<path d="M3988 4163 c-22 -5 -24 -23 -3 -23 16 0 19 -17 9 -44 -4 -10 -18 -16
-36 -16 -17 0 -46 -8 -65 -17 -63 -30 -95 -141 -53 -183 26 -26 51 -25 85 1
22 18 29 20 36 8 5 -8 9 -17 9 -21 0 -14 37 -8 50 7 10 12 9 15 -8 15 -19 0
-19 3 9 133 16 72 29 135 29 140 0 7 -33 8 -62 0z m-19 -102 c17 -11 8 -81
-17 -123 -19 -33 -55 -46 -77 -28 -20 16 -19 29 5 83 31 70 56 89 89 68z"/>
<path d="M1073 4146 c22 -17 21 -24 -5 -146 -19 -90 -24 -103 -47 -113 -22
-10 -6 -12 98 -15 68 -1 126 -1 128 2 8 8 22 80 17 86 -3 3 -18 -10 -32 -28
-24 -29 -32 -32 -81 -32 l-53 0 7 48 c9 59 11 62 40 62 17 0 25 -7 28 -22 3
-20 6 -18 21 16 9 21 16 50 14 65 l-4 26 -13 -27 c-30 -60 -69 -43 -55 24 9
43 9 43 56 46 44 3 49 1 60 -25 7 -15 14 -30 16 -33 7 -9 22 26 22 53 l0 27
-117 0 c-100 -1 -115 -3 -100 -14z"/>
<path d="M594 4105 c-8 -19 3 -35 25 -35 26 0 44 23 29 38 -17 17 -47 15 -54
-3z"/>
<path d="M4357 4113 c-12 -12 -7 -31 10 -37 9 -4 23 0 32 9 14 14 14 17 1 25
-18 11 -34 13 -43 3z"/>
<path d="M1438 4050 l-40 -40 4 30 c4 28 3 30 -29 30 -33 0 -41 -8 -23 -26 6
-6 4 -34 -5 -79 -19 -88 -19 -97 1 -93 10 2 22 21 30 46 17 59 62 122 86 122
17 0 19 -5 14 -32 -3 -18 -9 -57 -12 -85 -7 -51 -6 -53 17 -53 13 0 31 5 39
10 13 8 12 10 -2 10 -22 0 -22 18 -3 90 19 69 19 75 -1 94 -23 23 -32 20 -76
-24z"/>
<path d="M2825 4076 c-80 -35 -116 -143 -67 -198 20 -24 43 -23 76 3 30 23 33
13 15 -40 -18 -51 -56 -64 -89 -31 -19 19 -20 19 -31 -1 -14 -28 -9 -31 55
-33 83 -2 100 20 131 164 19 89 21 118 12 126 -20 20 -70 24 -102 10z m59 -22
c9 -22 7 -43 -5 -87 -18 -65 -99 -96 -99 -38 0 80 83 179 104 125z"/>
<path d="M3060 4067 c-77 -40 -106 -139 -55 -187 20 -19 31 -22 66 -17 23 3
49 13 58 22 17 19 14 19 -56 -1 -16 -4 -26 1 -39 21 -22 33 -10 46 64 70 29 9
57 25 63 36 14 27 2 58 -28 70 -31 11 -23 13 -73 -14z m55 -8 c15 -23 -6 -60
-41 -75 -20 -8 -38 -13 -41 -10 -9 8 7 43 32 70 26 28 40 32 50 15z"/>
<path d="M3416 4080 c-59 -18 -96 -73 -96 -143 0 -67 40 -95 88 -61 21 14 25
14 48 -1 14 -9 33 -13 44 -10 23 7 27 25 5 25 -19 0 -19 20 0 90 24 88 22 90
-45 105 -8 2 -28 -1 -44 -5z m64 -33 c0 -35 -33 -118 -53 -132 -55 -38 -88 -1
-58 67 10 25 26 52 36 61 20 20 75 23 75 4z"/>
<path d="M3714 4077 c-10 -5 -31 -24 -46 -41 l-27 -31 6 33 c5 31 5 32 -31 32
-36 0 -48 -13 -22 -23 11 -5 11 -19 -4 -91 -17 -84 -17 -86 2 -86 10 0 20 6
22 13 2 6 9 30 15 52 13 51 77 123 93 107 9 -9 7 -31 -6 -88 -15 -64 -16 -78
-5 -85 21 -13 45 -11 59 6 10 13 9 15 -9 15 -11 0 -21 1 -21 3 0 1 9 35 20 76
19 75 16 103 -13 114 -7 3 -22 0 -33 -6z"/>
<path d="M1627 4048 c-70 -66 -57 -188 19 -188 32 0 94 26 94 40 0 7 -6 8 -19
0 -47 -25 -101 -2 -101 44 0 34 43 109 68 118 17 6 28 2 43 -13 17 -17 23 -19
30 -8 15 25 3 34 -48 37 -46 3 -54 0 -86 -30z"/>
<path d="M1841 4055 c-57 -49 -66 -148 -15 -181 35 -23 90 -12 128 25 23 24
30 40 34 84 4 46 1 58 -17 76 -30 30 -91 28 -130 -4z m94 -2 c31 -30 3 -156
-37 -168 -28 -10 -57 4 -64 30 -9 38 23 134 49 145 31 12 34 12 52 -7z"/>
<path d="M2398 4048 l-30 -33 4 28 c5 25 3 27 -28 27 -18 0 -36 -4 -39 -10 -3
-5 1 -10 9 -10 19 0 19 -7 1 -90 -19 -84 -18 -90 3 -90 12 0 22 16 34 58 10
31 31 73 47 92 24 29 31 32 44 21 13 -10 17 -9 26 8 15 28 14 31 -15 31 -15 0
-37 -12 -56 -32z"/>
<path d="M2530 4042 c-42 -41 -58 -99 -41 -145 13 -34 53 -45 86 -23 22 14 26
14 54 -2 29 -16 31 -16 48 1 16 16 16 17 -5 17 -25 0 -25 -5 5 114 17 70 13
76 -61 76 -43 0 -53 -4 -86 -38z m109 -33 c-17 -72 -45 -109 -85 -109 -37 0
-41 38 -9 99 27 54 58 75 86 60 14 -7 15 -16 8 -50z"/>
<path d="M2040 4060 c0 -5 7 -10 16 -10 12 0 15 -6 11 -22 -28 -120 -30 -138
-17 -153 19 -23 36 -18 80 21 l40 36 0 -30 c0 -36 12 -46 46 -38 28 7 32 26 5
26 -18 0 -18 2 0 78 22 94 23 102 5 102 -8 0 -34 -37 -58 -82 -65 -123 -102
-112 -63 18 20 66 20 64 -25 64 -22 0 -40 -4 -40 -10z"/>
<path d="M521 4006 c-16 -19 -8 -46 13 -46 20 0 29 31 13 47 -12 12 -16 12
-26 -1z"/>
<path d="M4440 4005 c-15 -18 -5 -35 20 -35 10 0 22 5 25 10 7 11 -12 40 -25
40 -4 0 -13 -7 -20 -15z"/>
<path d="M441 3901 c-18 -12 -7 -41 17 -41 30 0 44 21 24 36 -20 16 -23 16
-41 5z"/>
<path d="M4521 3901 c-19 -12 -6 -41 18 -41 26 0 36 17 21 35 -14 17 -20 18
-39 6z"/>
<path d="M370 3790 c-14 -26 0 -46 24 -37 20 8 21 31 2 46 -12 10 -17 8 -26
-9z"/>
<path d="M4590 3790 c-13 -25 -5 -40 21 -40 19 0 24 15 13 44 -8 22 -21 20
-34 -4z"/>
<path d="M300 3670 c-12 -23 -6 -40 14 -40 24 0 36 23 22 43 -17 22 -23 22
-36 -3z"/>
<path d="M4657 3673 c-24 -23 12 -55 38 -33 12 10 13 16 4 26 -12 15 -31 18
-42 7z"/>
<path d="M804 3656 c-47 -21 -102 -91 -110 -141 -16 -113 53 -183 166 -168 47
7 76 37 86 90 4 23 13 37 25 40 11 3 19 9 19 14 0 11 -90 12 -117 2 -16 -6
-15 -8 7 -13 21 -5 24 -11 22 -36 -7 -68 -65 -97 -119 -59 -88 62 -13 265 98
265 31 0 45 -14 54 -53 10 -40 29 -28 33 20 3 38 1 41 -29 47 -49 10 -101 7
-135 -8z"/>
<path d="M1351 3656 c-9 -10 -8 -16 4 -26 21 -17 51 6 34 26 -6 8 -15 14 -19
14 -4 0 -13 -6 -19 -14z"/>
<path d="M3585 3656 c-35 -10 -38 -13 -22 -22 18 -10 17 -16 -7 -132 -31 -147
-31 -142 -6 -142 14 0 20 7 20 23 1 31 32 97 63 130 50 53 64 26 37 -70 -22
-78 -13 -101 34 -89 29 7 36 26 10 26 -12 0 -15 6 -12 23 3 12 11 51 19 86 13
59 12 64 -6 77 -28 20 -34 18 -77 -26 -43 -46 -44 -45 -23 45 9 37 15 71 13
75 -2 4 -21 2 -43 -4z"/>
<path d="M3851 3656 c-17 -20 13 -43 34 -26 12 10 13 16 4 26 -6 8 -15 14 -19
14 -4 0 -13 -6 -19 -14z"/>
<path d="M1571 3651 c-11 -7 -10 -10 3 -18 13 -7 15 -17 11 -36 -6 -23 -13
-27 -42 -27 -75 0 -133 -59 -133 -137 0 -30 6 -49 20 -63 26 -26 41 -25 75 2
l28 22 15 -22 c17 -26 35 -28 52 -7 10 12 10 15 -4 15 -20 0 -21 -10 13 148
l28 132 -26 0 c-14 0 -32 -4 -40 -9z m-12 -105 c15 -18 0 -90 -27 -125 -10
-14 -31 -27 -45 -29 -36 -4 -45 33 -22 91 28 71 66 97 94 63z"/>
<path d="M2327 3652 c-23 -3 -35 -18 -85 -112 -31 -61 -60 -110 -63 -110 -3 0
-9 33 -13 73 -4 39 -9 89 -13 110 -6 37 -6 37 -54 37 -27 0 -49 -4 -49 -10 0
-5 9 -10 21 -10 15 0 19 -5 15 -17 -3 -10 -19 -63 -36 -117 -17 -55 -31 -100
-33 -101 -1 -1 -10 -7 -21 -12 -15 -8 -10 -11 30 -17 28 -3 52 -2 58 4 7 7 5
10 -6 10 -9 0 -20 5 -23 10 -6 10 45 204 51 197 2 -2 11 -53 19 -112 9 -60 18
-111 21 -114 13 -14 43 24 89 112 28 52 53 99 58 103 9 9 -3 -143 -14 -173 -5
-13 -15 -23 -24 -23 -8 0 -15 -4 -15 -10 0 -12 117 -13 124 -1 3 5 -3 11 -14
14 -23 6 -24 17 -9 142 9 73 15 93 32 107 12 10 20 18 17 19 -21 4 -39 4 -63
1z"/>
<path d="M2810 3648 l-25 -12 28 -4 c21 -2 27 -8 23 -20 -3 -9 -14 -62 -26
-117 -12 -55 -25 -101 -29 -103 -5 -1 -17 -9 -27 -17 -17 -13 -12 -14 49 -15
65 0 83 10 51 28 -13 7 -15 18 -9 50 4 23 12 45 18 49 7 4 39 10 72 14 47 6
64 13 82 34 30 34 29 66 -2 95 -21 19 -38 24 -102 27 -47 2 -88 -2 -103 -9z
m158 -30 c7 -7 12 -24 12 -39 0 -35 -33 -59 -81 -59 l-37 0 9 43 c5 23 12 48
14 55 6 15 67 16 83 0z"/>
<path d="M1750 3562 c-48 -24 -80 -75 -80 -128 0 -69 49 -99 117 -73 53 20 57
43 5 25 -35 -13 -43 -12 -61 0 -30 21 -27 50 7 62 15 5 45 17 67 25 34 13 40
19 43 48 6 56 -35 73 -98 41z m56 -47 c-7 -26 -39 -45 -76 -45 -19 0 -19 1 2
36 35 59 88 66 74 9z"/>
<path d="M3390 3573 c-30 -11 -50 -37 -50 -63 0 -20 11 -34 46 -58 51 -37 55
-61 10 -77 -24 -8 -31 -6 -48 15 -15 19 -21 21 -28 10 -16 -27 1 -40 52 -40
39 0 54 5 73 25 14 13 25 30 25 38 0 15 -44 59 -77 76 -13 6 -23 18 -23 27 0
17 38 34 60 26 8 -3 20 -12 26 -21 10 -13 13 -12 23 6 9 19 7 22 -21 32 -33
12 -45 12 -68 4z"/>
<path d="M4038 3540 l-40 -40 4 30 c4 29 3 30 -34 30 -21 0 -38 -4 -38 -10 0
-5 7 -10 15 -10 18 0 18 -7 0 -90 -19 -85 -18 -90 4 -90 15 0 21 10 26 39 7
45 57 126 82 135 26 10 32 -12 17 -73 -7 -31 -13 -66 -14 -77 0 -25 23 -37 51
-29 23 8 25 25 3 25 -12 0 -15 6 -12 23 3 12 11 51 19 86 13 59 12 64 -6 77
-27 20 -33 18 -77 -26z"/>
<path d="M4254 3566 c-62 -28 -99 -115 -74 -176 17 -40 45 -47 81 -21 l29 22
0 -25 c0 -36 -20 -75 -43 -82 -12 -4 -30 2 -47 15 -24 17 -29 18 -34 5 -11
-27 -7 -32 32 -36 66 -8 101 8 122 55 25 59 56 225 44 236 -17 17 -78 21 -110
7z m70 -25 c4 -5 1 -32 -4 -59 -17 -77 -74 -117 -103 -71 -12 19 14 98 40 124
16 17 59 20 67 6z"/>
<path d="M1058 3563 c-28 -4 -40 -23 -14 -23 11 0 11 -9 0 -57 -18 -78 -18
-119 2 -127 21 -8 68 18 93 51 l20 28 -6 -36 c-4 -31 -2 -38 15 -44 12 -3 32
0 44 7 l23 13 -22 3 c-13 2 -23 6 -23 10 0 9 29 131 36 155 4 12 0 17 -13 17
-14 0 -29 -20 -53 -70 -61 -126 -103 -135 -76 -16 18 75 20 97 9 95 -5 -1 -20
-4 -35 -6z"/>
<path d="M1323 3563 c-33 -4 -47 -23 -18 -23 18 0 18 0 0 -75 -8 -33 -15 -70
-15 -82 0 -27 32 -38 62 -21 l23 13 -22 3 c-28 4 -28 1 -3 87 21 74 25 106 13
103 -5 0 -23 -3 -40 -5z"/>
<path d="M2585 3563 c-28 -7 -43 -23 -22 -23 23 0 22 -6 -17 -74 -36 -64 -38
-63 -51 19 -11 69 -14 75 -46 75 -32 0 -36 -6 -15 -29 17 -19 49 -166 41 -191
-3 -9 -15 -26 -26 -36 -20 -18 -21 -18 -35 0 -16 22 -21 20 -26 -9 -2 -16 3
-21 29 -23 25 -3 36 3 56 30 35 47 147 242 147 256 0 12 -2 13 -35 5z"/>
<path d="M3088 3563 c-29 -4 -39 -23 -13 -23 19 0 19 -2 -1 -90 -15 -64 -15
-73 -1 -87 20 -20 49 -10 88 30 30 31 31 31 26 8 -11 -44 35 -70 63 -36 10 12
10 15 -4 15 -19 0 -20 17 -1 95 18 75 18 85 1 85 -7 0 -31 -34 -52 -76 -60
-119 -98 -129 -75 -21 8 34 16 72 19 85 5 23 4 23 -50 15z"/>
<path d="M242 3548 c-8 -8 -9 -15 -1 -25 15 -17 34 -17 48 1 10 12 8 17 -8 25
-24 14 -24 14 -39 -1z"/>
<path d="M3790 3550 c0 -5 7 -10 15 -10 19 0 19 -11 0 -80 -8 -30 -15 -65 -15
-77 0 -26 34 -40 56 -22 13 11 13 14 1 21 -13 7 -13 17 4 80 25 99 26 98 -21
98 -22 0 -40 -4 -40 -10z"/>
<path d="M4714 3547 c-3 -9 0 -26 7 -38 11 -22 12 -22 26 -3 7 10 12 25 11 34
-4 20 -37 25 -44 7z"/>
<path d="M185 3424 c-17 -13 -18 -16 -5 -24 22 -15 45 -7 45 14 0 25 -15 29
-40 10z"/>
<path d="M4770 3425 c-15 -18 -5 -35 20 -35 10 0 22 5 25 10 7 11 -12 40 -25
40 -4 0 -13 -7 -20 -15z"/>
<path d="M147 3303 c-24 -23 12 -55 38 -33 12 10 13 16 4 26 -12 15 -31 18
-42 7z"/>
<path d="M4817 3303 c-24 -23 12 -55 38 -33 12 10 13 16 4 26 -12 15 -31 18
-42 7z"/>
<path d="M103 3164 c-9 -24 11 -38 37 -24 17 9 19 14 9 26 -15 19 -38 18 -46
-2z"/>
<path d="M4853 3164 c-9 -24 11 -38 37 -24 17 9 19 14 9 26 -15 19 -38 18 -46
-2z"/>
<path d="M81 3046 c-12 -15 -7 -56 7 -56 4 0 13 9 19 19 9 15 9 23 -1 36 -11
15 -13 15 -25 1z"/>
<path d="M4886 3041 c-9 -14 4 -41 19 -41 7 0 18 7 26 16 10 13 10 17 -2 25
-18 11 -36 11 -43 0z"/>
<path d="M2068 3014 c-158 -38 -266 -138 -304 -284 -34 -127 -18 -599 21 -639
9 -9 40 -16 84 -18 81 -3 106 -12 168 -54 63 -44 77 -80 58 -154 -34 -128 -59
-150 -335 -299 -122 -66 -235 -133 -251 -150 -16 -17 -34 -46 -39 -66 -23 -85
-79 -344 -75 -348 8 -8 287 -72 315 -72 35 0 39 5 65 100 11 41 25 74 30 72
12 -3 12 -83 1 -165 -11 -83 -15 -84 -208 -42 -90 20 -174 35 -188 33 -22 -3
-26 -9 -33 -63 -10 -74 -2 -296 13 -348 10 -34 53 -77 66 -64 3 3 0 25 -7 48
-16 61 -28 161 -22 191 l5 25 86 -18 c48 -10 105 -21 126 -24 26 -4 51 -18 72
-39 32 -32 36 -43 69 -189 9 -42 30 -104 46 -137 28 -54 35 -61 84 -79 154
-58 445 -90 650 -72 127 11 291 43 390 76 109 36 215 78 215 85 0 4 -38 87
-85 185 -47 98 -84 179 -83 181 16 16 242 114 248 108 4 -5 40 -83 80 -174 39
-91 74 -167 76 -169 3 -3 14 4 25 15 l20 21 -92 254 c-51 140 -95 257 -98 261
-4 4 -72 -13 -153 -37 -81 -25 -154 -45 -161 -45 -15 0 -72 194 -62 210 12 20
23 8 44 -47 37 -101 36 -100 182 -58 108 31 129 45 129 90 0 32 -77 272 -104
323 -27 51 -71 80 -289 188 -233 117 -310 166 -315 203 -2 12 20 90 49 174 56
158 84 204 139 227 30 12 30 14 24 64 -30 250 -112 434 -258 580 -136 135
-264 178 -418 140z m380 -443 c82 -16 114 -68 137 -218 19 -127 6 -226 -47
-343 -52 -117 -103 -149 -204 -131 -122 23 -216 90 -260 186 -12 28 -36 114
-54 193 -34 161 -31 204 17 242 31 24 41 27 208 56 152 26 148 26 203 15z
m-192 -717 c63 -25 111 -37 164 -41 71 -6 78 -8 128 -51 28 -24 52 -47 52 -51
0 -3 -52 -66 -115 -139 l-116 -132 -129 110 c-71 61 -132 119 -135 130 -8 26
1 70 33 148 14 34 26 62 27 62 1 0 42 -16 91 -36z m-80 -946 c7 -10 -11 -29
-59 -63 -17 -12 -17 -15 12 -62 19 -31 31 -64 31 -85 0 -73 -90 -109 -145 -58
-36 34 -33 81 10 150 l34 55 -26 7 c-14 4 -34 15 -45 25 -18 16 -18 18 -2 30
23 17 180 18 190 1z"/>
<path d="M2375 2515 c-30 -15 -30 -15 19 -9 27 3 58 9 70 14 17 7 13 9 -19 9
-22 0 -53 -6 -70 -14z"/>
<path d="M2125 2485 c-29 -13 -29 -13 -5 -13 14 0 48 6 75 13 l50 13 -45 0
c-25 1 -58 -5 -75 -13z"/>
<path d="M2413 2440 c-18 -11 -33 -22 -33 -25 0 -10 96 -51 112 -48 21 5 32
36 24 69 -5 19 -13 24 -39 24 -17 0 -47 -9 -64 -20z m84 -15 c9 -24 -1 -27
-15 -5 -8 13 -8 20 -2 20 6 0 13 -7 17 -15z"/>
<path d="M2143 2404 c-24 -14 -43 -29 -43 -33 0 -14 71 -41 108 -41 45 0 62
14 62 50 0 56 -57 67 -127 24z m107 -21 c0 -12 -2 -12 -15 1 -8 8 -15 17 -15
20 0 3 7 3 15 0 8 -4 15 -13 15 -21z"/>
<path d="M2346 2229 c-85 -20 -84 -55 1 -46 54 6 103 28 103 47 0 12 -51 11
-104 -1z"/>
<path d="M2447 2092 c-30 -20 -54 -26 -125 -31 l-87 -6 28 -19 c63 -43 156
-27 216 38 35 38 15 50 -32 18z"/>
<path d="M45 2909 c-9 -27 14 -44 33 -25 15 15 6 46 -13 46 -8 0 -17 -10 -20
-21z"/>
<path d="M3458 2901 c-173 -38 -273 -86 -366 -175 -115 -109 -147 -218 -101
-344 35 -96 35 -94 -15 -136 -112 -91 -106 -99 71 -84 l110 10 75 -35 c160
-75 306 -103 482 -94 218 12 411 84 525 197 79 78 111 144 111 232 0 151 -86
267 -260 351 -147 71 -219 88 -395 93 -121 3 -167 0 -237 -15z m380 -36 c149
-28 297 -99 377 -180 64 -63 88 -113 93 -193 4 -53 0 -70 -24 -119 -42 -86
-108 -147 -217 -198 -123 -58 -229 -85 -359 -92 -160 -9 -294 18 -443 88 -44
21 -65 24 -173 24 l-123 0 23 20 c13 11 39 33 57 48 l33 28 -33 62 c-29 53
-34 72 -34 132 0 58 5 78 27 115 32 55 116 137 178 173 159 93 414 131 618 92z"/>
<path d="M4905 2910 c-11 -17 18 -42 39 -34 9 4 16 14 14 23 -4 19 -43 27 -53
11z"/>
<path d="M30 2775 c-11 -13 -11 -19 4 -33 15 -15 18 -15 26 -2 22 33 -6 64
-30 35z"/>
<path d="M4927 2777 c-3 -8 -1 -20 3 -27 7 -11 14 -12 36 -2 26 12 26 13 8 27
-24 18 -40 19 -47 2z"/>
<path d="M4940 2650 c-13 -25 2 -52 25 -44 22 9 25 31 5 49 -17 16 -19 15 -30
-5z"/>
<path d="M20 2645 c-23 -28 21 -50 48 -23 9 9 7 14 -6 24 -22 17 -27 17 -42
-1z"/>
<path d="M4 2508 c-6 -10 20 -38 37 -38 10 0 20 30 13 41 -8 13 -41 11 -50 -3z"/>
<path d="M4941 2507 c-9 -11 -8 -17 4 -27 19 -16 47 -5 43 17 -4 23 -31 28
-47 10z"/>
<path d="M13 2374 c-10 -26 13 -39 43 -25 26 11 26 12 8 26 -25 19 -43 19 -51
-1z"/>
<path d="M4940 2375 c-21 -26 3 -42 37 -26 27 12 27 13 8 27 -24 18 -30 18
-45 -1z"/>
<path d="M29 2244 c-15 -18 0 -38 27 -32 25 5 28 25 6 37 -15 8 -23 7 -33 -5z"/>
<path d="M4932 2247 c-18 -21 2 -41 33 -33 26 7 27 8 10 26 -21 23 -29 25 -43
7z"/>
<path d="M4910 2114 c-11 -12 -10 -18 3 -32 16 -15 18 -15 34 0 13 14 14 20 3
32 -7 9 -16 16 -20 16 -4 0 -13 -7 -20 -16z"/>
<path d="M43 2104 c-3 -8 1 -22 9 -30 13 -13 16 -13 27 0 7 9 11 23 7 31 -7
20 -35 19 -43 -1z"/>
<path d="M65 1980 c-7 -12 12 -50 25 -50 13 0 28 32 23 48 -5 14 -39 16 -48 2z"/>
<path d="M4874 1979 c-3 -6 1 -18 10 -27 15 -15 17 -15 32 0 19 19 11 38 -16
38 -10 0 -22 -5 -26 -11z"/>
<path d="M112 1868 c-14 -14 -16 -44 -3 -52 4 -3 16 1 26 8 16 12 17 15 3 34
-11 17 -17 19 -26 10z"/>
<path d="M4857 1853 c-24 -23 12 -55 38 -33 12 10 13 16 4 26 -12 15 -31 18
-42 7z"/>
<path d="M142 1728 c-7 -7 -8 -17 -1 -30 12 -22 19 -22 45 -4 19 15 19 15 -1
30 -24 19 -28 19 -43 4z"/>
<path d="M4813 1714 c-9 -24 11 -38 36 -25 25 14 27 27 5 35 -25 9 -34 7 -41
-10z"/>
<path d="M190 1604 c-11 -12 -10 -18 3 -32 21 -21 42 -3 32 27 -8 25 -18 27
-35 5z"/>
<path d="M4772 1598 c-7 -7 -12 -15 -12 -19 0 -14 32 -19 52 -8 19 10 19 11 1
24 -22 18 -26 18 -41 3z"/>
<path d="M240 1474 c-11 -12 -10 -18 3 -31 15 -15 18 -15 37 2 20 18 20 20 4
32 -23 17 -29 16 -44 -3z"/>
<path d="M4723 1483 c-17 -6 -16 -38 1 -52 21 -18 44 25 24 44 -7 7 -19 11
-25 8z"/>
<path d="M4661 1366 c-16 -19 -7 -46 14 -46 22 0 30 29 13 46 -13 13 -16 13
-27 0z"/>
<path d="M301 1356 c-10 -12 -10 -19 2 -36 12 -18 16 -18 26 -6 14 17 11 48
-5 53 -6 2 -17 -3 -23 -11z"/>
<path d="M363 1234 c-3 -8 1 -22 9 -30 13 -13 16 -13 27 0 7 9 11 23 7 31 -7
20 -35 19 -43 -1z"/>
<path d="M4584 1239 c-3 -6 0 -18 9 -26 12 -12 19 -13 38 -3 22 12 22 13 4 26
-23 17 -41 18 -51 3z"/>
<path d="M440 1130 c-13 -25 -5 -40 21 -40 19 0 24 15 13 44 -8 22 -21 20 -34
-4z"/>
<path d="M4520 1135 c-15 -18 -6 -45 14 -45 20 0 29 16 21 40 -8 24 -18 25
-35 5z"/>
<path d="M513 1014 c-3 -8 1 -22 9 -30 13 -13 16 -13 27 0 7 9 11 23 7 31 -7
20 -35 19 -43 -1z"/>
<path d="M4441 1017 c-9 -11 -8 -17 3 -26 18 -15 48 -3 44 18 -4 21 -32 26
-47 8z"/>
<path d="M606 917 c-15 -11 -15 -14 -2 -32 15 -20 15 -20 35 0 20 20 20 21 2
32 -14 9 -23 9 -35 0z"/>
<path d="M4357 923 c-11 -10 -8 -41 4 -49 16 -9 43 21 36 40 -7 16 -28 21 -40
9z"/>
<path d="M690 815 c-20 -24 5 -48 34 -33 31 16 31 17 10 33 -24 18 -29 18 -44
0z"/>
<path d="M4270 815 c-15 -18 -5 -35 20 -35 10 0 22 5 25 10 7 11 -12 40 -25
40 -4 0 -13 -7 -20 -15z"/>
<path d="M789 726 c-17 -35 2 -59 27 -34 15 15 15 18 1 39 l-16 22 -12 -27z"/>
<path d="M4182 738 c-16 -16 -15 -45 2 -51 8 -3 20 0 26 8 16 20 -11 60 -28
43z"/>
<path d="M874 629 c-3 -6 1 -18 10 -27 15 -15 17 -15 32 0 19 19 11 38 -16 38
-10 0 -22 -5 -26 -11z"/>
<path d="M4074 625 c-13 -32 23 -48 47 -19 10 13 10 17 -2 25 -21 13 -39 11
-45 -6z"/>
<path d="M990 550 c-14 -26 0 -46 24 -37 20 8 21 31 2 46 -12 10 -17 8 -26 -9z"/>
<path d="M3966 544 c-9 -23 19 -53 35 -37 15 15 7 47 -12 51 -9 2 -19 -5 -23
-14z"/>
<path d="M1095 470 c-8 -12 3 -50 14 -50 15 0 33 30 27 45 -6 17 -32 20 -41 5z"/>
<path d="M3861 467 c-9 -11 -8 -17 3 -26 18 -15 48 -3 44 18 -4 21 -32 26 -47
8z"/>
<path d="M1210 395 c-6 -8 -9 -19 -5 -25 9 -15 41 -12 54 4 10 12 8 17 -8 25
-25 14 -26 14 -41 -4z"/>
<path d="M3750 395 c-6 -8 -9 -19 -5 -25 9 -15 41 -12 54 4 10 12 8 17 -8 25
-25 14 -26 14 -41 -4z"/>
<path d="M1320 320 c0 -26 25 -36 45 -20 12 10 13 16 4 26 -18 22 -49 17 -49
-6z"/>
<path d="M3635 330 c-8 -12 3 -50 14 -50 15 0 33 30 27 45 -6 17 -32 20 -41 5z"/>
<path d="M1440 274 c-11 -12 -10 -18 3 -32 16 -15 18 -15 34 0 13 14 14 20 3
32 -7 9 -16 16 -20 16 -4 0 -13 -7 -20 -16z"/>
<path d="M3515 270 c-8 -13 3 -50 15 -50 13 0 32 39 25 50 -8 13 -32 13 -40 0z"/>
<path d="M3391 221 c-8 -14 -7 -22 4 -31 22 -19 48 5 34 31 -5 10 -14 19 -19
19 -5 0 -14 -9 -19 -19z"/>
<path d="M1566 213 c-4 -9 -1 -23 7 -30 12 -12 16 -12 26 1 16 19 8 46 -13 46
-7 0 -17 -8 -20 -17z"/>
<path d="M3271 181 c-16 -29 3 -58 25 -40 17 14 17 20 0 44 -13 18 -14 18 -25
-4z"/>
<path d="M1691 176 c-9 -11 -9 -19 1 -35 17 -27 26 -26 34 3 10 41 -12 60 -35
32z"/>
<path d="M1820 134 c-11 -12 -10 -18 3 -32 16 -15 18 -15 34 0 13 14 14 20 3
32 -16 20 -24 20 -40 0z"/>
<path d="M3140 134 c-11 -12 -10 -18 3 -32 16 -15 18 -15 34 0 13 14 14 20 3
32 -16 20 -24 20 -40 0z"/>
<path d="M1950 105 c-9 -11 -11 -22 -4 -32 13 -21 25 -21 38 -1 8 14 7 21 -5
33 -14 15 -17 15 -29 0z"/>
<path d="M3003 94 c-3 -8 1 -22 9 -30 13 -13 16 -13 27 0 7 9 11 23 7 31 -7
20 -35 19 -43 -1z"/>
<path d="M2881 86 c-16 -19 -7 -46 14 -46 22 0 30 29 13 46 -13 13 -16 13 -27
0z"/>
<path d="M2070 75 c-12 -14 -11 -18 1 -26 22 -14 44 -6 44 16 0 25 -28 31 -45
10z"/>
<path d="M2211 61 c-8 -14 -7 -22 4 -31 22 -19 48 5 34 31 -12 24 -26 24 -38
0z"/>
<path d="M2745 60 c-8 -12 3 -50 14 -50 15 0 33 30 27 45 -6 17 -32 20 -41 5z"/>
<path d="M2344 45 c-12 -29 15 -45 45 -26 12 8 12 12 2 25 -17 20 -40 21 -47
1z"/>
<path d="M2612 48 c-8 -8 -9 -15 -1 -25 15 -17 34 -17 48 1 10 12 8 17 -8 25
-24 14 -24 14 -39 -1z"/>
<path d="M2470 41 c0 -37 32 -55 44 -25 10 27 7 34 -19 34 -14 0 -25 -4 -25
-9z"/>
</g>
</svg>
