<?xml version="1.0" standalone="no"?>
<!DOCTYPE svg PUBLIC "-//W3C//DTD SVG 20010904//EN"
 "http://www.w3.org/TR/2001/REC-SVG-20010904/DTD/svg10.dtd">
<svg version="1.0" xmlns="http://www.w3.org/2000/svg"
 width="500.000000pt" height="499.000000pt" viewBox="0 0 500.000000 499.000000"
 preserveAspectRatio="xMidYMid meet">
<metadata>
Created by potrace 1.15, written by Peter Selinger 2001-2017
</metadata>
<g transform="translate(0.000000,499.000000) scale(0.100000,-0.100000)"
fill="#000000" stroke="none">
<path d="M2347 4973 c-11 -11 -8 -40 6 -51 19 -16 43 24 26 44 -13 15 -22 18
-32 7z"/>
<path d="M2474 4965 c-4 -9 0 -24 10 -33 15 -15 18 -15 26 -2 6 8 9 22 7 30
-3 21 -36 25 -43 5z"/>
<path d="M2611 4961 c-8 -14 -6 -22 7 -34 16 -15 19 -15 30 4 10 16 10 24 1
35 -16 19 -26 18 -38 -5z"/>
<path d="M2752 4968 c-21 -21 -15 -50 10 -46 27 4 32 18 16 41 -11 14 -16 15
-26 5z"/>
<path d="M2217 4963 c-4 -3 -7 -15 -7 -25 0 -20 25 -24 50 -8 13 8 12 11 -5
24 -23 17 -29 19 -38 9z"/>
<path d="M2076 4934 c-11 -30 13 -44 43 -25 12 8 12 12 2 25 -17 20 -37 20
-45 0z"/>
<path d="M2876 4934 c-11 -30 13 -44 43 -25 12 8 12 12 2 25 -17 20 -37 20
-45 0z"/>
<path d="M1943 4904 c-3 -8 1 -22 9 -30 13 -13 16 -13 27 0 7 9 11 23 7 31 -7
20 -35 19 -43 -1z"/>
<path d="M3004 4909 c-3 -6 1 -18 10 -27 15 -15 17 -15 34 1 15 16 15 19 2 27
-20 13 -37 12 -46 -1z"/>
<path d="M1822 4889 c-12 -18 -11 -24 1 -36 29 -29 49 6 25 40 -12 16 -14 16
-26 -4z"/>
<path d="M3133 4874 c-3 -8 1 -22 9 -30 13 -13 16 -13 27 0 7 9 11 23 7 31 -7
20 -35 19 -43 -1z"/>
<path d="M3267 4853 c-12 -12 -7 -41 7 -46 22 -9 41 19 26 38 -14 16 -23 19
-33 8z"/>
<path d="M1687 4836 c-3 -8 0 -20 8 -26 19 -16 59 8 43 27 -14 17 -45 17 -51
-1z"/>
<path d="M1570 4805 c-9 -11 -11 -22 -4 -32 13 -21 25 -21 38 -1 8 14 7 21 -5
33 -14 15 -17 15 -29 0z"/>
<path d="M3391 4796 c-17 -20 7 -60 26 -44 17 14 17 33 -1 47 -10 9 -16 8 -25
-3z"/>
<path d="M1441 4736 c-18 -21 11 -41 39 -26 17 9 19 14 9 26 -15 18 -33 18
-48 0z"/>
<path d="M3507 4736 c-3 -8 1 -20 9 -27 12 -10 18 -9 31 3 8 9 12 21 9 27 -10
16 -43 14 -49 -3z"/>
<path d="M1322 4668 c4 -27 18 -31 43 -12 17 13 18 16 5 24 -28 18 -52 12 -48
-12z"/>
<path d="M3627 4676 c-3 -8 0 -20 8 -26 19 -16 59 8 43 27 -14 17 -45 17 -51
-1z"/>
<path d="M1213 4623 c-16 -6 -17 -29 -3 -38 13 -8 50 3 50 15 0 13 -32 28 -47
23z"/>
<path d="M3750 4615 c-22 -26 7 -46 39 -26 12 8 12 12 2 25 -17 20 -25 20 -41
1z"/>
<path d="M1101 4556 c-17 -20 -6 -49 16 -44 22 4 26 20 10 42 -12 16 -14 16
-26 2z"/>
<path d="M3860 4550 c-14 -26 0 -46 24 -37 20 8 21 31 2 46 -12 10 -17 8 -26
-9z"/>
<path d="M3965 4470 c-8 -24 1 -40 21 -40 20 0 29 27 14 45 -17 20 -27 19 -35
-5z"/>
<path d="M991 4467 c-11 -15 -6 -47 9 -47 4 0 13 7 20 16 11 12 11 18 -2 30
-13 13 -16 13 -27 1z"/>
<path d="M888 4393 c-19 -22 -13 -43 12 -43 27 0 34 17 17 40 -13 19 -15 19
-29 3z"/>
<path d="M4065 4384 c-17 -13 -18 -16 -5 -24 36 -23 72 -3 44 24 -18 19 -14
19 -39 0z"/>
<path d="M793 4303 c-18 -6 -16 -43 1 -43 20 0 46 11 46 19 0 11 -34 28 -47
24z"/>
<path d="M4170 4295 c-16 -19 8 -59 27 -43 17 14 17 45 -1 51 -8 3 -20 0 -26
-8z"/>
<path d="M687 4197 c-3 -8 -1 -20 3 -27 7 -12 13 -12 35 0 25 13 25 15 9 27
-23 17 -41 17 -47 0z"/>
<path d="M4263 4194 c-9 -24 11 -38 36 -25 25 14 27 27 5 35 -25 9 -34 7 -41
-10z"/>
<path d="M593 4094 c-3 -8 2 -23 11 -32 15 -15 18 -15 26 -2 5 8 10 23 10 33
0 22 -38 23 -47 1z"/>
<path d="M4342 4097 c-8 -10 -6 -16 10 -26 17 -11 23 -10 35 2 9 8 12 20 9 26
-10 15 -41 14 -54 -2z"/>
<path d="M2653 4093 c-18 -7 -16 -33 2 -33 16 0 19 -20 9 -57 -5 -20 -13 -23
-51 -23 -24 0 -56 -6 -71 -14 -103 -54 -138 -217 -55 -255 31 -14 60 -6 96 27
25 24 27 24 27 6 0 -44 42 -57 81 -24 l24 19 -28 1 c-22 0 -27 4 -23 18 9 31
66 312 66 327 0 15 -49 20 -77 8z m-13 -152 c7 -14 7 -36 -1 -73 -21 -96 -111
-155 -138 -90 -10 24 -8 37 18 94 16 36 38 71 48 77 28 16 61 13 73 -8z"/>
<path d="M3314 4075 c-70 -41 -114 -127 -114 -219 0 -161 190 -217 314 -92 66
66 91 197 50 267 -42 71 -168 93 -250 44z m168 -24 c31 -27 32 -32 31 -99 -2
-140 -80 -244 -170 -227 -70 13 -95 124 -53 238 41 109 125 148 192 88z"/>
<path d="M1370 4075 c0 -9 9 -15 25 -15 14 0 25 -6 25 -13 0 -19 -59 -288 -66
-298 -3 -5 -16 -9 -30 -9 -15 0 -24 -6 -24 -15 0 -13 14 -15 87 -13 58 2 88 7
91 16 2 6 -5 12 -15 12 -38 0 -42 12 -28 78 7 35 15 65 17 68 4 4 145 8 169 5
3 -1 -1 -34 -10 -73 -15 -67 -19 -73 -44 -76 -15 -2 -27 -10 -27 -18 0 -21
165 -20 174 1 4 11 -1 15 -19 15 -13 0 -26 4 -30 9 -5 9 50 285 61 302 3 5 16
9 30 9 15 0 24 6 24 15 0 12 -16 15 -84 15 -65 0 -85 -3 -90 -15 -4 -11 2 -15
24 -15 34 0 34 2 19 -73 l-12 -57 -89 0 -89 0 7 38 c15 78 19 87 47 90 15 2
27 10 27 18 0 11 -18 14 -85 14 -69 0 -85 -3 -85 -15z"/>
<path d="M520 4005 c-15 -18 -6 -45 14 -45 20 0 29 16 21 40 -8 24 -18 25 -35
5z"/>
<path d="M4434 3995 c-12 -29 15 -45 45 -26 12 8 12 12 2 25 -17 20 -40 21
-47 1z"/>
<path d="M1885 3961 c-16 -10 -40 -29 -52 -42 -45 -49 -55 -168 -17 -200 28
-23 84 -16 110 14 27 32 34 34 34 8 0 -30 27 -46 58 -35 33 12 44 45 13 37
-13 -3 -21 -1 -21 7 0 10 32 146 46 191 11 38 -117 54 -171 20z m105 -16 c9
-11 8 -26 -5 -72 -21 -73 -37 -98 -76 -118 -40 -21 -59 -6 -59 47 0 101 94
198 140 143z"/>
<path d="M2148 3973 c-22 -5 -24 -33 -3 -33 19 0 19 -16 -5 -129 -11 -52 -20
-96 -20 -98 0 -1 11 -3 25 -3 19 0 26 6 31 28 14 68 40 120 79 160 23 23 47
42 54 42 16 0 13 -55 -8 -135 -10 -38 -16 -76 -14 -83 7 -18 48 -25 72 -12 27
14 27 30 1 30 -11 0 -20 5 -20 10 0 6 9 43 20 82 31 114 25 148 -29 148 -31 0
-61 -23 -96 -70 l-26 -35 7 53 7 52 -29 -1 c-16 -1 -37 -3 -46 -6z"/>
<path d="M2821 3954 c-53 -44 -41 -81 41 -128 54 -30 62 -39 53 -65 -13 -43
-107 -45 -113 -3 -5 30 -30 28 -38 -4 -9 -36 7 -47 74 -48 66 -1 105 15 121
51 24 52 11 73 -66 112 -49 24 -65 58 -37 78 36 26 109 5 89 -27 -3 -6 3 -10
14 -10 16 0 21 6 21 29 0 34 -14 41 -80 41 -38 0 -55 -6 -79 -26z"/>
<path d="M3652 3969 c-24 -9 -22 -29 4 -29 18 0 18 -7 -6 -110 -26 -111 -25
-120 3 -120 21 0 25 7 36 53 13 61 72 154 104 166 37 14 41 -12 18 -104 -11
-46 -18 -91 -15 -99 11 -29 104 -16 104 15 0 3 -11 4 -25 1 -30 -5 -30 -5 -4
104 25 106 18 134 -32 134 -25 0 -42 -10 -76 -46 l-45 -46 7 46 c7 46 7 46
-21 45 -16 0 -39 -4 -52 -10z"/>
<path d="M436 3891 c-8 -13 4 -41 18 -41 6 0 19 6 28 14 13 10 15 15 6 24 -14
14 -45 16 -52 3z"/>
<path d="M4517 3893 c-24 -23 12 -55 38 -33 12 10 13 16 4 26 -12 15 -31 18
-42 7z"/>
<path d="M4591 3786 c-16 -19 -7 -46 14 -46 22 0 30 29 13 46 -13 13 -16 13
-27 0z"/>
<path d="M364 3775 c-12 -29 15 -45 45 -26 12 8 12 12 2 25 -17 20 -40 21 -47
1z"/>
<path d="M302 3669 c-15 -24 0 -51 24 -42 18 6 18 37 1 51 -10 8 -16 6 -25 -9z"/>
<path d="M4655 3663 c-14 -14 -15 -18 -2 -30 12 -12 18 -13 36 -1 26 16 26 20
1 35 -15 10 -22 10 -35 -4z"/>
<path d="M245 3550 c-18 -19 -18 -22 -2 -37 16 -16 18 -16 33 -1 15 14 15 19
2 37 l-15 21 -18 -20z"/>
<path d="M4716 3553 c-9 -9 -7 -36 4 -53 9 -13 12 -12 25 4 8 11 15 23 15 28
0 11 -36 28 -44 21z"/>
<path d="M1234 3426 c-99 -46 -119 -100 -111 -290 4 -73 11 -134 18 -142 6 -8
28 -14 49 -14 44 0 82 -26 100 -69 10 -26 9 -36 -6 -68 -16 -31 -38 -47 -144
-105 -69 -38 -132 -77 -141 -88 -20 -24 -56 -187 -43 -199 7 -7 139 -41 158
-41 3 0 11 20 17 45 13 50 34 63 25 15 -3 -16 -9 -43 -12 -60 -3 -16 -8 -30
-11 -30 -3 0 -46 9 -95 21 -49 12 -92 18 -96 14 -4 -4 -7 -46 -7 -93 0 -103
27 -198 80 -286 l35 -58 0 -209 c0 -245 -7 -230 121 -276 118 -43 218 -57 352
-50 118 6 190 23 270 63 79 40 81 63 37 364 -16 113 -30 206 -30 208 0 1 25
-18 56 -43 30 -25 88 -62 127 -81 40 -20 92 -51 117 -68 98 -69 228 -146 247
-146 11 0 41 22 67 50 56 60 57 60 -50 126 -73 46 -74 46 -52 63 13 11 19 24
15 34 -5 14 -22 17 -96 17 l-90 0 -59 49 c-101 84 -118 111 -177 276 -15 44
-32 84 -36 89 -4 5 -37 0 -76 -10 -37 -11 -72 -19 -77 -19 -10 0 -38 96 -31
104 3 2 12 -12 20 -32 17 -40 24 -42 93 -26 73 18 76 24 48 107 -39 113 -48
123 -155 176 -53 27 -115 61 -139 77 -54 36 -59 36 -33 0 l21 -29 -53 -60
c-28 -33 -54 -61 -57 -61 -10 -2 -128 100 -134 115 -8 20 23 94 40 94 8 0 37
-9 66 -20 29 -11 56 -20 60 -20 12 0 58 78 81 134 11 28 33 62 48 76 l29 25
-14 66 c-28 129 -98 236 -185 281 -66 35 -119 36 -187 4z m258 -219 c14 -21
48 -143 47 -168 -1 -50 -52 -145 -82 -155 -34 -11 -98 8 -133 38 -38 33 -58
91 -69 194 -8 74 -3 80 96 98 80 15 128 13 141 -7z m-162 -804 c0 -3 -7 -14
-16 -24 -14 -16 -14 -20 0 -47 9 -17 13 -38 10 -46 -8 -22 -51 -31 -69 -16
-19 16 -19 33 0 70 14 27 14 30 -5 40 -34 18 -22 30 30 30 28 0 50 -3 50 -7z
m560 -114 c37 -94 72 -141 149 -204 44 -36 71 -65 71 -77 0 -31 -19 -58 -41
-58 -37 0 -138 61 -190 115 -57 59 -79 91 -113 173 l-25 57 57 27 c31 15 59
27 62 28 3 0 16 -28 30 -61z m-820 -3 c45 -11 45 -11 51 -62 8 -66 43 -130
124 -226 36 -42 65 -80 65 -85 0 -4 -16 -21 -35 -36 l-36 -28 -34 21 c-113 70
-245 294 -245 417 0 25 5 24 110 -1z m1198 -298 c-16 -5 -28 -13 -28 -16 0 -4
43 -33 96 -66 52 -32 93 -60 91 -63 -3 -2 -37 12 -76 31 -89 45 -94 33 -6 -14
81 -44 69 -52 -15 -10 -34 17 -64 29 -66 27 -2 -2 23 -21 57 -41 80 -50 68
-58 -15 -12 -37 20 -66 33 -66 28 0 -4 27 -24 60 -43 53 -30 73 -49 53 -49
-23 0 -243 147 -243 163 0 5 11 25 26 44 24 32 27 33 92 32 57 0 63 -2 40 -11z
m-795 -131 c94 -42 100 -47 56 -47 l-34 -1 49 -44 c28 -25 47 -47 43 -51 -3
-3 -30 10 -59 31 l-53 37 53 -48 c29 -27 52 -52 52 -56 0 -16 -19 -7 -69 33
-64 51 -66 44 -3 -15 64 -61 31 -61 -37 0 -62 55 -68 47 -9 -13 52 -53 37 -56
-29 -5 -27 20 -75 57 -106 81 -31 24 -57 49 -57 56 0 23 83 87 105 82 11 -3
55 -21 98 -40z"/>
<path d="M1420 3190 c-11 -8 -7 -9 15 -4 37 8 45 14 19 14 -10 0 -26 -5 -34
-10z"/>
<path d="M1300 3160 c-11 -8 -7 -9 15 -4 37 8 45 14 19 14 -10 0 -26 -5 -34
-10z"/>
<path d="M1445 3155 c-17 -13 -18 -16 -5 -25 22 -14 40 -12 40 5 0 8 0 18 1
22 1 14 -17 13 -36 -2z"/>
<path d="M1312 3128 c-20 -20 -14 -28 23 -28 28 0 35 4 35 20 0 23 -38 28 -58
8z"/>
<path d="M1420 3050 c-23 -7 -23 -8 -3 -9 12 -1 25 4 28 9 3 6 5 10 3 9 -2 -1
-14 -5 -28 -9z"/>
<path d="M1402 2983 c-12 -2 -20 -9 -17 -14 10 -14 61 -10 75 6 10 13 9 15
-11 14 -13 -1 -34 -4 -47 -6z"/>
<path d="M181 3417 c-9 -11 -8 -17 4 -27 19 -16 47 -5 43 17 -4 23 -31 28 -47
10z"/>
<path d="M4767 3423 c-12 -12 -7 -31 10 -37 9 -4 23 0 32 9 14 14 14 17 1 25
-18 11 -34 13 -43 3z"/>
<path d="M143 3299 c-27 -27 13 -51 47 -29 13 9 12 12 -4 25 -24 18 -29 18
-43 4z"/>
<path d="M4817 3303 c-4 -3 -7 -15 -7 -25 0 -22 32 -24 49 -4 10 12 8 17 -8
25 -23 13 -26 13 -34 4z"/>
<path d="M101 3172 c-7 -13 -6 -23 1 -30 28 -28 63 3 38 33 -16 20 -27 19 -39
-3z"/>
<path d="M4852 3167 c-16 -19 2 -40 27 -32 25 8 28 30 5 39 -21 8 -20 8 -32
-7z"/>
<path d="M77 3053 c-11 -10 -8 -41 4 -49 6 -3 18 1 27 9 13 13 13 19 2 31 -14
17 -23 20 -33 9z"/>
<path d="M4887 3043 c-11 -10 -8 -41 5 -49 17 -11 40 26 27 43 -13 14 -22 16
-32 6z"/>
<path d="M4911 2916 c-16 -19 -7 -46 14 -46 22 0 30 29 13 46 -13 13 -16 13
-27 0z"/>
<path d="M47 2913 c-24 -23 12 -55 38 -33 12 10 13 16 4 26 -12 15 -31 18 -42
7z"/>
<path d="M30 2775 c-22 -26 7 -46 39 -26 12 8 12 12 2 25 -17 20 -25 20 -41 1z"/>
<path d="M4933 2783 c-17 -6 -16 -25 1 -48 13 -18 14 -18 26 4 10 19 9 26 -2
36 -7 7 -19 11 -25 8z"/>
<path d="M20 2644 c-11 -12 -11 -18 1 -30 13 -12 18 -12 34 0 16 12 17 16 6
30 -17 20 -25 20 -41 0z"/>
<path d="M3210 2639 c-42 -26 -61 -51 -76 -98 -14 -48 -2 -100 31 -128 35 -31
113 -32 146 -2 l24 21 -25 -7 c-71 -20 -96 -18 -119 10 -60 77 31 235 114 197
15 -7 25 -20 25 -32 0 -11 4 -20 9 -20 11 0 26 59 17 67 -3 4 -30 8 -59 10
-41 3 -59 -1 -87 -18z"/>
<path d="M4940 2645 c-19 -22 5 -48 31 -34 10 5 19 14 19 19 0 5 -9 14 -19 19
-14 8 -22 7 -31 -4z"/>
<path d="M3824 2576 c-45 -20 -74 -62 -74 -107 0 -65 45 -94 105 -67 35 16 31
25 -8 20 -22 -2 -38 2 -46 12 -18 21 -1 41 47 57 20 6 43 16 50 22 19 15 14
55 -7 67 -24 13 -29 12 -67 -4z m46 -32 c0 -19 -8 -28 -36 -40 -20 -8 -38 -13
-41 -11 -7 8 25 65 39 70 28 11 38 6 38 -19z"/>
<path d="M3413 2565 c-28 -20 -57 -97 -49 -130 4 -14 18 -31 31 -37 21 -9 28
-8 45 7 18 16 22 16 38 3 9 -8 25 -13 35 -11 19 5 23 19 6 25 -9 3 -8 23 4 73
11 52 12 72 4 77 -21 13 -92 9 -114 -7z m80 -14 c5 -21 -33 -114 -52 -126 -16
-9 -41 13 -41 37 0 10 9 36 20 58 17 33 29 43 61 49 4 0 9 -8 12 -18z"/>
<path d="M3615 2571 c-25 -6 -27 -8 -13 -16 15 -9 15 -16 2 -79 -8 -38 -12
-71 -10 -74 12 -11 36 9 36 31 0 23 49 109 69 121 6 4 14 0 17 -8 8 -21 24
-10 24 15 0 29 -40 24 -68 -8 l-23 -28 6 28 c3 15 2 26 -2 26 -5 -1 -21 -4
-38 -8z"/>
<path d="M13 2513 c-21 -8 -15 -30 9 -37 27 -6 43 7 35 28 -6 16 -21 19 -44 9z"/>
<path d="M4934 2509 c-3 -6 0 -18 9 -26 12 -12 19 -13 38 -3 22 12 22 13 4 26
-23 17 -41 18 -51 3z"/>
<path d="M21 2381 c-13 -8 -13 -14 -2 -38 12 -27 13 -27 27 -8 25 34 7 66 -25
46z"/>
<path d="M4934 2375 c-12 -29 15 -45 45 -26 12 8 12 12 2 25 -17 20 -40 21
-47 1z"/>
<path d="M4932 2258 c-16 -16 -15 -33 2 -47 21 -18 41 11 26 38 -13 25 -12 25
-28 9z"/>
<path d="M31 2247 c-15 -19 -3 -49 18 -45 9 2 16 13 16 27 0 29 -17 37 -34 18z"/>
<path d="M3494 2218 c-3 -5 0 -8 5 -8 6 0 11 -13 11 -30 0 -27 -3 -30 -30 -30
-38 0 -84 -23 -104 -52 -24 -34 -21 -103 5 -122 20 -13 25 -13 51 0 27 14 31
14 42 -1 14 -20 47 -17 54 4 3 8 0 11 -7 7 -15 -10 -14 7 9 119 11 53 20 103
20 111 0 15 -48 16 -56 2z m0 -104 c7 -18 -41 -114 -61 -121 -7 -3 -20 0 -27
6 -12 10 -11 21 6 72 18 53 23 59 48 59 16 0 30 -7 34 -16z"/>
<path d="M3305 2210 c-8 -12 20 -24 35 -15 6 3 8 11 5 16 -8 12 -32 12 -40 -1z"/>
<path d="M2551 2129 c-27 -16 -32 -17 -28 -5 5 12 0 16 -23 16 -16 0 -32 -4
-35 -10 -3 -5 1 -10 10 -10 11 0 14 -6 10 -22 -3 -13 -12 -56 -20 -97 -9 -44
-22 -79 -33 -87 -15 -12 -11 -13 33 -14 38 0 46 3 37 12 -19 19 -15 48 8 48
89 0 159 104 114 168 -19 27 -30 27 -73 1z m47 -26 c15 -27 -35 -123 -64 -123
-33 0 -38 32 -13 82 30 60 58 75 77 41z"/>
<path d="M2765 2123 c-24 -27 -25 -27 -25 -5 0 18 -6 22 -30 22 -16 0 -30 -4
-30 -10 0 -5 6 -10 14 -10 11 0 11 -10 0 -62 -17 -81 -17 -88 1 -88 8 0 19 16
25 38 5 22 24 58 41 82 27 37 33 41 41 26 11 -20 28 -12 28 15 0 28 -35 24
-65 -8z"/>
<path d="M2892 2134 c-27 -19 -52 -65 -52 -97 0 -13 9 -36 21 -51 51 -65 159
-2 159 94 0 60 -74 92 -128 54z m86 -25 c23 -37 -19 -129 -58 -129 -29 0 -43
27 -37 66 12 75 66 110 95 63z"/>
<path d="M3627 2130 c-54 -43 -70 -115 -36 -157 17 -20 83 -16 110 6 l24 19
-43 -11 c-36 -10 -45 -9 -59 6 -16 16 -16 18 0 34 9 9 36 24 58 33 23 8 47 23
53 33 29 47 -57 76 -107 37z m68 -30 c-7 -21 -41 -40 -71 -40 -13 0 -12 5 3
31 30 52 84 59 68 9z"/>
<path d="M3855 2118 l-27 -33 5 28 c4 25 2 27 -29 27 -19 0 -34 -4 -34 -10 0
-5 7 -10 15 -10 18 0 18 2 0 -80 -7 -36 -12 -67 -10 -69 12 -11 32 12 43 50 7
24 24 56 37 72 24 27 45 35 45 17 0 -21 18 -9 22 15 8 38 -34 34 -67 -7z"/>
<path d="M3050 2135 c0 -3 6 -16 14 -28 8 -12 17 -42 21 -67 12 -83 13 -85 42
-58 22 21 93 136 93 151 0 11 -48 8 -55 -3 -3 -5 1 -10 9 -10 23 0 23 0 -31
-87 l-17 -28 -11 65 c-9 61 -12 65 -37 68 -16 2 -28 1 -28 -3z"/>
<path d="M3260 2131 c0 -5 5 -11 11 -13 8 -3 7 -21 -2 -64 -7 -34 -9 -68 -6
-77 7 -19 42 -23 52 -7 3 6 -1 10 -9 10 -20 0 -20 -1 3 88 l19 72 -34 0 c-19
0 -34 -4 -34 -9z"/>
<path d="M46 2113 c-4 -9 -1 -23 7 -30 12 -12 16 -12 26 0 13 17 5 47 -14 47
-7 0 -16 -8 -19 -17z"/>
<path d="M4907 2113 c-12 -12 -7 -31 10 -37 9 -4 23 0 32 9 14 14 14 17 1 25
-18 11 -34 13 -43 3z"/>
<path d="M65 1980 c-7 -12 12 -50 25 -50 13 0 28 32 23 48 -5 14 -39 16 -48 2z"/>
<path d="M4871 1976 c-10 -12 -8 -17 9 -26 25 -13 52 3 43 26 -7 18 -37 18
-52 0z"/>
<path d="M107 1855 c-14 -13 -14 -20 -4 -35 15 -25 19 -25 35 1 12 18 11 24
-1 36 -12 13 -16 12 -30 -2z"/>
<path d="M4845 1850 c-7 -11 12 -50 25 -50 12 0 23 37 15 50 -8 13 -32 13 -40
0z"/>
<path d="M3851 1726 c-21 -22 -28 -35 -20 -38 10 -3 10 -17 0 -65 -6 -33 -9
-67 -5 -76 8 -23 29 -28 51 -12 17 14 17 14 -1 15 -17 0 -18 5 -12 52 8 61 21
88 41 88 8 0 15 5 15 10 0 6 -7 10 -16 10 -12 0 -15 7 -12 25 7 33 -2 32 -41
-9z"/>
<path d="M147 1732 c-17 -18 -17 -21 -1 -36 12 -13 19 -14 30 -5 17 14 17 20
1 43 -12 16 -14 16 -30 -2z"/>
<path d="M4807 1716 c-3 -8 1 -20 9 -27 11 -9 18 -8 34 6 16 14 17 20 8 27
-20 12 -45 9 -51 -6z"/>
<path d="M2210 1708 c-55 -30 -91 -133 -58 -166 17 -17 58 -15 80 5 17 15 18
15 18 0 0 -19 44 -24 55 -7 3 6 -1 10 -10 10 -11 0 -15 5 -12 14 11 28 30 137
25 142 -13 12 -75 14 -98 2z m64 -24 c6 -15 -38 -114 -57 -126 -38 -24 -51 55
-17 110 21 35 63 44 74 16z"/>
<path d="M2746 1699 c-21 -17 -26 -18 -26 -5 0 17 -17 20 -45 10 -12 -5 -13
-9 -4 -14 9 -6 8 -27 -5 -97 -10 -48 -22 -96 -27 -105 -9 -16 -5 -18 33 -17
24 1 35 3 25 6 -12 3 -17 12 -15 26 2 16 12 23 38 28 50 8 77 25 95 59 29 55
12 130 -29 130 -7 0 -25 -9 -40 -21z m48 -25 c9 -24 -12 -92 -35 -115 -32 -32
-54 -21 -53 27 1 70 69 137 88 88z"/>
<path d="M2958 1690 c-16 -16 -31 -30 -32 -30 -2 0 -1 11 2 25 3 19 0 25 -14
25 -23 0 -57 -20 -35 -20 14 0 13 -16 -5 -122 -5 -31 -4 -38 9 -38 10 0 18 12
23 35 7 37 58 125 73 125 5 0 12 -8 16 -17 6 -16 8 -15 16 5 19 49 -9 55 -53
12z"/>
<path d="M3105 1710 c-60 -24 -96 -120 -60 -160 21 -23 82 -27 109 -7 16 12
12 13 -30 13 -42 -1 -49 2 -49 19 0 19 15 29 80 57 19 8 31 22 33 36 7 44 -32
64 -83 42z m50 -20 c10 -17 -13 -48 -46 -59 -18 -6 -34 -9 -37 -7 -2 3 6 21
18 40 21 35 52 47 65 26z"/>
<path d="M3480 1713 c-31 -11 -70 -58 -76 -90 -14 -72 24 -110 93 -91 46 12
50 27 5 21 -27 -4 -42 -1 -51 11 -18 21 -1 41 47 57 51 16 62 27 62 59 0 36
-34 50 -80 33z m45 -23 c10 -17 -13 -48 -46 -59 -18 -6 -34 -9 -37 -7 -2 3 6
21 18 40 21 35 52 47 65 26z"/>
<path d="M2386 1694 c-9 -8 -16 -18 -16 -20 0 -17 24 -45 55 -63 42 -24 45
-47 9 -63 -23 -11 -29 -10 -44 9 -19 24 -30 20 -30 -10 0 -18 5 -19 57 -14 31
3 60 12 65 19 17 27 3 63 -34 87 -43 28 -48 48 -15 61 21 8 21 9 -5 9 -15 1
-34 -6 -42 -15z"/>
<path d="M2474 1695 c8 -8 17 -15 20 -15 3 0 6 7 6 15 0 9 -9 15 -21 15 -18 0
-19 -2 -5 -15z"/>
<path d="M3250 1690 c-15 -29 -4 -58 29 -75 37 -19 47 -46 25 -62 -24 -17 -39
-16 -59 3 -18 19 -30 13 -22 -11 5 -10 20 -15 51 -15 36 0 48 5 65 26 24 31
16 54 -27 81 -36 23 -43 35 -30 50 14 18 43 16 58 -2 10 -12 15 -13 21 -3 13
21 0 28 -51 28 -39 0 -52 -4 -60 -20z"/>
<path d="M3605 1700 c-19 -8 -19 -9 -1 -9 17 -1 18 -7 13 -48 -3 -27 -9 -63
-13 -80 -11 -57 13 -38 52 40 20 39 42 75 48 79 21 14 29 -10 17 -56 -18 -73
-15 -96 13 -96 14 0 28 5 31 10 3 6 -1 10 -9 10 -20 0 -20 -1 0 72 8 33 13 67
10 74 -9 22 -55 16 -81 -11 l-25 -24 0 24 c0 27 -17 31 -55 15z"/>
<path d="M187 1596 c-3 -8 1 -20 9 -27 12 -10 18 -9 31 3 8 9 12 21 9 27 -10
16 -43 14 -49 -3z"/>
<path d="M4763 1594 c-3 -8 1 -22 9 -30 13 -13 16 -13 27 -1 14 17 4 47 -15
47 -8 0 -17 -7 -21 -16z"/>
<path d="M4717 1493 c-13 -12 -7 -44 9 -50 21 -8 35 16 23 39 -10 19 -21 23
-32 11z"/>
<path d="M240 1474 c-11 -12 -10 -18 3 -32 16 -15 18 -15 34 0 13 14 14 20 3
32 -7 9 -16 16 -20 16 -4 0 -13 -7 -20 -16z"/>
<path d="M1176 1308 c17 -84 37 -173 43 -198 23 -88 144 -466 158 -493 16 -32
54 -50 89 -41 l24 6 -2 412 -3 411 -84 8 c-46 4 -118 16 -161 27 -43 11 -82
20 -87 20 -5 0 5 -69 23 -152z"/>
<path d="M1643 1427 l-123 -30 0 -401 c0 -299 3 -405 12 -414 18 -18 42 -15
71 8 26 20 69 139 111 305 23 90 83 431 89 503 6 75 15 73 -160 29z"/>
<path d="M4651 1361 c-8 -14 -7 -22 4 -31 22 -19 48 5 34 31 -5 10 -14 19 -19
19 -5 0 -14 -9 -19 -19z"/>
<path d="M300 1355 c-6 -8 -9 -19 -5 -25 9 -15 41 -12 54 4 10 12 8 17 -8 25
-25 14 -26 14 -41 -4z"/>
<path d="M3455 1280 c-3 -5 -1 -10 4 -10 16 0 13 -44 -9 -140 -21 -97 -16
-110 48 -110 72 0 136 108 98 165 -20 31 -45 32 -76 3 l-23 -21 7 48 c4 26 10
54 13 61 6 17 -52 20 -62 4z m113 -117 c11 -18 -19 -101 -41 -115 -41 -26 -62
6 -39 62 26 65 61 88 80 53z"/>
<path d="M3367 1274 c-13 -13 -7 -24 14 -24 11 0 19 5 17 12 -5 14 -22 21 -31
12z"/>
<path d="M3673 1268 c15 -12 15 -21 -7 -117 -13 -58 -22 -111 -19 -118 6 -15
32 -17 53 -3 13 8 12 10 -2 10 -10 0 -18 2 -18 5 0 8 40 197 46 218 4 14 -1
17 -32 17 -33 0 -35 -2 -21 -12z"/>
<path d="M369 1244 c-10 -12 -9 -18 4 -31 13 -13 19 -14 31 -3 21 16 20 23 -3
37 -16 10 -22 9 -32 -3z"/>
<path d="M4589 1244 c-10 -12 -9 -18 4 -31 13 -13 19 -14 31 -3 21 17 20 27
-3 39 -14 8 -22 7 -32 -5z"/>
<path d="M2051 1180 c-34 -34 -49 -89 -35 -129 12 -32 48 -39 75 -15 18 17 20
17 33 -1 11 -16 18 -17 37 -8 20 10 21 12 5 12 -14 1 -17 6 -12 24 3 12 11 46
18 75 13 62 7 72 -54 72 -27 0 -44 -7 -67 -30z m95 -5 c9 -23 -48 -120 -71
-120 -17 0 -20 6 -19 47 0 31 6 54 19 68 21 23 63 27 71 5z"/>
<path d="M2272 1194 c-12 -8 -22 -23 -22 -34 0 -18 53 -70 71 -70 17 0 9 -39
-11 -50 -21 -11 -60 2 -60 20 0 6 -4 10 -10 10 -16 0 -11 -37 6 -44 47 -18 90
-3 111 37 15 30 15 32 -6 47 -67 47 -76 57 -62 74 18 21 48 20 60 -1 11 -21
26 -11 18 12 -8 20 -66 20 -95 -1z"/>
<path d="M2612 1188 c-19 -19 -22 -20 -22 -5 0 12 -8 17 -30 17 -29 0 -41 -15
-18 -22 8 -3 7 -28 -7 -94 -10 -49 -22 -93 -27 -99 -16 -18 -8 -25 28 -25 31
0 35 2 24 15 -18 22 -4 45 27 45 62 1 113 57 113 126 0 65 -44 86 -88 42z m53
-28 c4 -13 -2 -39 -17 -68 -18 -37 -28 -47 -48 -47 -36 0 -38 35 -5 90 28 49
59 59 70 25z"/>
<path d="M2761 1179 c-58 -58 -34 -159 38 -159 38 0 86 41 101 84 29 90 -70
144 -139 75z m100 -5 c10 -13 10 -24 0 -62 -16 -59 -28 -74 -60 -70 -25 3 -26
6 -26 59 0 32 6 63 14 73 17 20 55 21 72 0z"/>
<path d="M2988 1199 c-51 -19 -47 -54 13 -94 44 -28 48 -53 12 -66 -15 -6 -29
-2 -46 11 -23 18 -26 18 -31 3 -9 -23 0 -28 54 -27 90 1 107 50 39 107 -25 20
-39 39 -35 46 9 14 66 15 66 1 0 -5 5 -10 10 -10 20 0 9 28 -12 34 -29 7 -37
7 -70 -5z"/>
<path d="M3162 1194 c-33 -22 -27 -49 18 -85 45 -36 50 -53 20 -69 -22 -12
-54 0 -63 22 -4 10 -8 9 -16 -2 -15 -21 13 -40 59 -40 51 0 88 39 72 75 -7 14
-22 29 -35 34 -12 5 -29 17 -37 26 -12 15 -12 19 5 31 26 20 42 17 56 -7 9
-17 13 -19 20 -8 21 35 -55 54 -99 23z"/>
<path d="M3791 1182 c-42 -35 -55 -110 -26 -142 22 -24 73 -26 101 -5 18 14
17 15 -17 9 -25 -4 -39 -1 -48 10 -21 25 -6 43 50 63 56 20 64 30 55 68 -9 37
-70 35 -115 -3z m79 -11 c0 -22 -35 -51 -62 -51 -23 0 -23 11 3 44 24 31 59
35 59 7z"/>
<path d="M3315 1190 c-3 -5 1 -10 11 -10 12 0 15 -5 10 -22 -4 -13 -10 -49
-13 -80 -5 -52 -4 -58 13 -58 11 0 26 5 34 10 13 8 12 10 -2 10 -22 0 -22 9
-3 80 8 30 15 61 15 68 0 14 -56 17 -65 2z"/>
<path d="M434 1125 c-4 -9 0 -24 10 -33 15 -15 18 -15 26 -2 6 8 9 22 7 30 -3
21 -36 25 -43 5z"/>
<path d="M4515 1130 c-8 -12 3 -50 14 -50 15 0 33 30 27 45 -6 17 -32 20 -41
5z"/>
<path d="M514 1015 c-10 -24 12 -42 34 -29 24 16 21 38 -6 42 -13 2 -25 -3
-28 -13z"/>
<path d="M4434 1019 c-3 -6 0 -17 8 -25 12 -12 17 -12 32 -1 11 8 16 19 12 25
-9 15 -43 15 -52 1z"/>
<path d="M600 920 c-18 -34 11 -55 38 -28 7 7 8 17 1 30 -13 24 -26 23 -39 -2z"/>
<path d="M4357 923 c-23 -22 14 -53 39 -32 11 9 11 15 3 25 -12 15 -31 18 -42
7z"/>
<path d="M691 827 c-15 -19 -3 -49 18 -45 9 2 16 13 16 27 0 29 -17 37 -34 18z"/>
<path d="M4265 820 c-7 -23 1 -40 20 -40 18 0 28 30 14 46 -16 19 -27 17 -34
-6z"/>
<path d="M786 724 c-12 -31 13 -44 44 -24 13 9 12 12 -4 25 -25 19 -32 19 -40
-1z"/>
<path d="M4170 725 c-6 -8 -9 -19 -5 -25 9 -15 41 -12 54 4 10 12 8 17 -8 25
-25 14 -26 14 -41 -4z"/>
<path d="M885 640 c-7 -23 1 -40 20 -40 21 0 27 17 15 40 -14 25 -27 26 -35 0z"/>
<path d="M4074 635 c-12 -31 23 -48 45 -21 10 12 8 17 -8 25 -26 14 -31 14
-37 -4z"/>
<path d="M3969 554 c-10 -12 -9 -18 4 -31 13 -13 19 -14 31 -3 21 17 20 27 -3
39 -14 8 -22 7 -32 -5z"/>
<path d="M983 544 c-3 -8 1 -22 9 -30 13 -13 16 -13 27 0 7 9 11 23 7 31 -7
20 -35 19 -43 -1z"/>
<path d="M1100 475 c-19 -23 5 -48 31 -32 24 15 24 24 0 36 -14 8 -22 7 -31
-4z"/>
<path d="M3860 475 c-6 -8 -9 -19 -5 -25 8 -13 42 -13 50 0 7 11 -12 40 -25
40 -4 0 -13 -7 -20 -15z"/>
<path d="M1209 404 c-10 -12 -9 -18 4 -31 13 -13 19 -14 31 -3 21 17 20 27 -3
39 -14 8 -22 7 -32 -5z"/>
<path d="M3752 408 c-27 -27 -3 -54 31 -36 22 11 22 25 -1 37 -13 7 -23 6 -30
-1z"/>
<path d="M1324 335 c-12 -29 15 -45 45 -26 12 8 12 12 2 25 -17 20 -40 21 -47
1z"/>
<path d="M3633 339 c-6 -6 -9 -18 -6 -25 7 -18 37 -18 52 0 10 12 8 17 -8 25
-24 14 -24 14 -38 0z"/>
<path d="M1442 278 c-13 -13 2 -38 23 -38 21 0 36 25 23 38 -7 7 -17 12 -23
12 -6 0 -16 -5 -23 -12z"/>
<path d="M3511 277 c-8 -10 -7 -19 4 -33 15 -19 15 -19 30 0 11 14 12 23 4 33
-6 7 -15 13 -19 13 -4 0 -13 -6 -19 -13z"/>
<path d="M1565 230 c-8 -24 1 -40 21 -40 20 0 29 27 14 45 -17 20 -27 19 -35
-5z"/>
<path d="M3390 225 c-11 -13 -11 -19 2 -32 17 -16 38 -10 38 11 0 8 -6 19 -14
25 -10 9 -16 8 -26 -4z"/>
<path d="M1684 179 c-3 -6 1 -18 10 -27 15 -15 17 -15 34 1 15 16 15 19 2 27
-20 13 -37 12 -46 -1z"/>
<path d="M3265 180 c-8 -12 3 -50 14 -50 15 0 33 30 27 45 -6 17 -32 20 -41 5z"/>
<path d="M1817 143 c-12 -12 -7 -31 10 -37 19 -8 48 17 39 33 -8 12 -39 15
-49 4z"/>
<path d="M3133 134 c-3 -8 1 -22 9 -30 13 -13 16 -13 27 0 7 9 11 23 7 31 -7
20 -35 19 -43 -1z"/>
<path d="M1944 105 c-12 -29 15 -45 45 -26 12 8 12 12 2 25 -17 20 -40 21 -47
1z"/>
<path d="M3003 104 c-3 -8 1 -22 9 -30 13 -13 16 -13 27 0 7 9 11 23 7 31 -7
20 -35 19 -43 -1z"/>
<path d="M2080 85 c-19 -22 5 -48 31 -34 10 5 19 14 19 19 0 5 -9 14 -19 19
-14 8 -22 7 -31 -4z"/>
<path d="M2880 85 c-19 -22 5 -48 31 -34 10 5 19 14 19 19 0 5 -9 14 -19 19
-14 8 -22 7 -31 -4z"/>
<path d="M2213 69 c-16 -16 -5 -39 17 -39 25 0 35 18 20 35 -15 18 -22 19 -37
4z"/>
<path d="M2344 63 c-14 -24 -7 -43 16 -43 25 0 33 15 20 40 -13 25 -22 25 -36
3z"/>
<path d="M2741 67 c-8 -10 -7 -19 4 -33 13 -18 15 -18 31 -2 14 14 15 20 4 32
-15 19 -24 20 -39 3z"/>
<path d="M2610 55 c-9 -11 -9 -18 3 -35 14 -20 14 -20 32 0 15 16 15 22 5 35
-16 19 -24 19 -40 0z"/>
<path d="M2470 40 c0 -25 29 -38 41 -19 15 25 10 39 -16 39 -18 0 -25 -5 -25
-20z"/>
</g>
</svg>
