<?xml version="1.0" standalone="no"?>
<!DOCTYPE svg PUBLIC "-//W3C//DTD SVG 20010904//EN"
 "http://www.w3.org/TR/2001/REC-SVG-20010904/DTD/svg10.dtd">
<svg version="1.0" xmlns="http://www.w3.org/2000/svg"
 width="500.000000pt" height="500.000000pt" viewBox="0 0 500.000000 500.000000"
 preserveAspectRatio="xMidYMid meet">
<metadata>
Created by potrace 1.15, written by Peter Selinger 2001-2017
</metadata>
<g transform="translate(0.000000,500.000000) scale(0.100000,-0.100000)"
fill="#000000" stroke="none">
<path d="M2345 4969 c-9 -26 12 -41 37 -28 21 11 23 20 6 37 -18 18 -36 14
-43 -9z"/>
<path d="M2477 4977 c-3 -8 -1 -20 3 -27 7 -11 13 -12 37 -1 27 12 27 13 8 27
-24 18 -41 18 -48 1z"/>
<path d="M2617 4983 c-12 -11 -8 -41 6 -46 7 -3 22 2 32 10 20 14 20 14 1 29
-22 16 -30 17 -39 7z"/>
<path d="M2214 4965 c-12 -29 15 -45 46 -25 13 8 12 11 -5 24 -25 19 -34 20
-41 1z"/>
<path d="M2746 4967 c-22 -16 -14 -37 14 -37 26 0 35 19 18 36 -12 12 -17 12
-32 1z"/>
<path d="M2081 4941 c-12 -21 -5 -31 19 -31 28 0 42 22 22 36 -23 18 -30 17
-41 -5z"/>
<path d="M2881 4941 c-12 -21 -5 -31 19 -31 28 0 42 22 22 36 -23 18 -30 17
-41 -5z"/>
<path d="M3010 4924 c-11 -12 -10 -18 3 -32 16 -15 18 -15 34 0 13 14 14 20 3
32 -7 9 -16 16 -20 16 -4 0 -13 -7 -20 -16z"/>
<path d="M1943 4914 c-3 -8 1 -22 9 -30 13 -13 16 -13 27 0 7 9 11 23 7 31 -7
20 -35 19 -43 -1z"/>
<path d="M1820 4884 c-11 -12 -10 -18 4 -32 16 -16 18 -16 31 2 11 14 12 23 4
33 -15 17 -24 16 -39 -3z"/>
<path d="M3142 4887 c-16 -19 11 -58 28 -41 14 14 10 46 -6 51 -6 2 -16 -2
-22 -10z"/>
<path d="M1690 4854 c-11 -12 -10 -18 3 -32 16 -15 18 -15 34 0 13 14 14 20 3
32 -7 9 -16 16 -20 16 -4 0 -13 -7 -20 -16z"/>
<path d="M3272 4858 c-17 -17 -15 -35 5 -42 22 -9 36 7 28 33 -7 24 -16 26
-33 9z"/>
<path d="M1570 4805 c-19 -22 5 -48 31 -34 10 5 19 14 19 19 0 5 -9 14 -19 19
-14 8 -22 7 -31 -4z"/>
<path d="M3397 4813 c-11 -11 -8 -40 6 -51 19 -16 43 24 26 44 -13 15 -22 18
-32 7z"/>
<path d="M3522 4768 c-17 -17 -15 -47 4 -55 9 -3 20 0 25 8 12 18 11 22 -4 42
-10 14 -15 15 -25 5z"/>
<path d="M1441 4752 c-7 -13 -6 -23 1 -30 28 -28 63 3 38 33 -16 20 -27 19
-39 -3z"/>
<path d="M1324 4685 c-13 -32 23 -48 47 -19 10 13 10 17 -2 25 -21 13 -39 11
-45 -6z"/>
<path d="M3633 4684 c-3 -8 1 -22 9 -30 13 -13 16 -13 27 0 7 9 11 23 7 31 -7
20 -35 19 -43 -1z"/>
<path d="M3754 4633 c-21 -34 9 -60 34 -30 7 8 7 17 -2 30 -16 21 -19 21 -32
0z"/>
<path d="M1210 4625 c-23 -28 21 -50 48 -23 9 9 7 14 -6 24 -22 17 -27 17 -42
-1z"/>
<path d="M1102 4568 c-16 -16 -15 -45 2 -51 23 -9 39 18 26 42 -13 25 -12 25
-28 9z"/>
<path d="M3860 4548 c0 -7 5 -20 10 -28 8 -13 11 -13 26 2 9 9 13 21 10 27
-10 15 -46 14 -46 -1z"/>
<path d="M990 4475 c-15 -18 -5 -35 20 -35 10 0 22 5 25 10 7 11 -12 40 -25
40 -4 0 -13 -7 -20 -15z"/>
<path d="M3970 4475 c-10 -13 -10 -19 5 -35 18 -20 18 -20 32 0 12 17 12 24 3
35 -16 19 -24 19 -40 0z"/>
<path d="M4077 4403 c-11 -10 -8 -41 4 -49 16 -9 41 20 33 39 -6 17 -25 22
-37 10z"/>
<path d="M887 4393 c-25 -24 11 -49 40 -28 16 13 16 16 3 25 -17 11 -34 13
-43 3z"/>
<path d="M792 4318 c-27 -27 -5 -72 23 -48 18 15 19 21 2 43 -10 14 -15 15
-25 5z"/>
<path d="M4170 4291 c0 -10 6 -24 14 -30 12 -10 17 -8 26 9 13 25 6 40 -21 40
-12 0 -19 -7 -19 -19z"/>
<path d="M4270 4215 c-15 -18 -6 -45 14 -45 20 0 29 16 21 40 -8 24 -18 25
-35 5z"/>
<path d="M687 4206 c-3 -8 1 -22 9 -33 14 -17 14 -17 29 1 11 14 12 23 4 33
-15 17 -35 17 -42 -1z"/>
<path d="M594 4105 c-8 -19 3 -35 25 -35 26 0 44 23 29 38 -17 17 -47 15 -54
-3z"/>
<path d="M4354 4109 c-3 -6 1 -18 10 -27 15 -15 17 -15 34 1 15 16 15 19 2 27
-20 13 -37 12 -46 -1z"/>
<path d="M2458 4103 c-31 -5 -39 -33 -9 -33 13 0 18 -6 16 -17 -15 -72 -10
-68 -68 -68 -64 -1 -108 -28 -136 -83 -66 -132 4 -244 105 -167 32 25 33 25
39 4 6 -17 14 -20 48 -17 22 2 42 9 45 16 3 9 -3 13 -19 10 -17 -2 -23 2 -22
12 3 21 60 289 68 323 8 29 3 30 -67 20z m-28 -153 c21 -39 -12 -144 -56 -179
-36 -28 -61 -26 -78 7 -13 25 -12 33 10 87 37 91 98 133 124 85z"/>
<path d="M3124 4091 c-99 -45 -161 -196 -120 -294 17 -43 67 -84 116 -97 52
-14 138 18 191 71 94 94 89 267 -11 320 -45 24 -123 24 -176 0z m123 -11 c42
-15 58 -51 57 -130 -1 -123 -69 -220 -152 -220 -38 0 -77 34 -88 74 -22 87 33
237 98 269 39 20 46 20 85 7z"/>
<path d="M3537 4084 c-15 -15 -31 -43 -37 -63 -7 -27 -18 -40 -42 -50 l-33
-14 28 -4 c15 -3 27 -11 27 -19 0 -35 -53 -261 -66 -281 -18 -29 -34 -29 -41
-3 -9 33 -38 20 -38 -15 0 -28 3 -30 38 -33 43 -4 79 15 98 50 7 12 24 83 39
158 l27 135 33 5 c47 7 52 30 7 30 l-35 0 10 40 c7 28 19 45 38 55 25 13 28
12 40 -11 17 -31 35 -26 35 12 0 28 -2 29 -51 32 -43 3 -54 -1 -77 -24z"/>
<path d="M3730 4082 c-16 -16 -32 -45 -35 -65 -5 -26 -12 -37 -25 -37 -10 0
-23 -7 -30 -15 -10 -13 -9 -15 8 -15 12 0 23 -4 26 -8 4 -7 -6 -62 -40 -219
-17 -81 -37 -111 -60 -92 -8 6 -14 18 -14 25 0 26 -28 14 -33 -13 -6 -32 6
-43 46 -43 42 0 83 25 97 60 7 17 24 88 39 158 l26 127 34 5 c49 7 53 30 6 30
-35 0 -37 1 -30 28 16 64 70 99 82 52 7 -28 31 -25 39 4 9 37 -2 46 -57 46
-42 0 -55 -5 -79 -28z"/>
<path d="M1160 4085 c0 -8 9 -15 19 -15 11 0 23 -5 26 -10 6 -10 -39 -242 -56
-287 -4 -12 -18 -23 -30 -25 -12 -2 -24 -9 -27 -15 -3 -10 19 -13 87 -13 74 0
91 3 91 15 0 9 -9 15 -25 15 -29 0 -32 19 -13 99 l11 51 89 0 c87 0 88 0 83
-22 -30 -122 -30 -122 -54 -128 -14 -3 -26 -11 -29 -18 -3 -10 17 -12 84 -10
59 2 89 7 92 16 2 8 -7 12 -27 12 -17 0 -31 2 -31 5 0 25 63 292 72 302 6 7
19 13 29 13 11 0 19 7 19 15 0 12 -16 15 -85 15 -67 0 -85 -3 -85 -14 0 -8 10
-16 23 -18 19 -3 22 -9 20 -43 -1 -22 -6 -52 -12 -67 -10 -28 -12 -28 -97 -28
l-86 0 6 26 c4 15 10 40 13 58 7 39 20 56 44 56 11 0 19 7 19 15 0 12 -16 15
-85 15 -69 0 -85 -3 -85 -15z"/>
<path d="M521 4006 c-16 -19 -8 -46 13 -46 20 0 29 31 13 47 -12 12 -16 12
-26 -1z"/>
<path d="M4440 4000 c-14 -27 17 -44 45 -24 19 14 19 14 -1 29 -25 19 -31 19
-44 -5z"/>
<path d="M1702 3983 c-35 -7 -96 -73 -110 -119 -17 -57 -15 -84 8 -121 25 -41
65 -44 108 -8 37 31 40 31 44 3 2 -13 11 -24 21 -26 30 -6 67 7 67 24 0 11 -6
13 -20 9 -12 -4 -20 -2 -20 5 0 11 33 149 46 193 10 32 -70 54 -144 40z m78
-28 c10 -13 10 -28 -5 -80 -28 -105 -105 -161 -129 -94 -19 54 21 149 74 176
33 17 45 16 60 -2z"/>
<path d="M2048 3939 l-48 -51 6 47 7 46 -43 -3 c-40 -3 -72 -28 -36 -28 10 0
16 -9 16 -24 0 -23 -24 -151 -36 -188 -4 -15 1 -18 25 -18 27 0 31 4 31 28 1
60 84 192 121 192 24 0 25 -38 3 -123 -20 -78 -13 -107 25 -107 16 0 36 9 47
21 19 22 19 22 -8 15 -33 -8 -33 -11 -8 84 32 121 25 160 -29 160 -17 0 -40
-16 -73 -51z"/>
<path d="M2633 3970 c-60 -36 -53 -94 15 -129 20 -10 46 -28 56 -40 18 -20 18
-22 1 -41 -24 -26 -47 -32 -79 -21 -16 7 -26 18 -26 31 0 32 -28 23 -35 -11
-4 -17 -5 -33 -2 -35 3 -3 29 -8 59 -11 94 -10 160 37 144 101 -4 17 -24 35
-66 58 -33 18 -62 38 -64 44 -7 18 16 42 46 49 21 5 33 1 53 -19 28 -28 45
-27 45 5 0 40 -93 52 -147 19z"/>
<path d="M440 3905 c-16 -20 -6 -45 20 -45 23 0 28 31 6 49 -10 9 -16 8 -26
-4z"/>
<path d="M4520 3900 c-12 -23 -6 -40 15 -40 19 0 27 17 20 40 -8 26 -21 25
-35 0z"/>
<path d="M4594 3793 c-14 -23 -7 -43 16 -43 23 0 31 21 15 43 -15 21 -18 21
-31 0z"/>
<path d="M370 3784 c-11 -12 -11 -18 1 -30 13 -12 18 -12 34 0 16 12 17 16 6
30 -17 20 -25 20 -41 0z"/>
<path d="M300 3665 c-11 -13 -11 -19 3 -33 20 -19 41 -5 35 24 -4 24 -22 28
-38 9z"/>
<path d="M4656 3664 c-11 -30 13 -44 43 -25 12 8 12 12 2 25 -17 20 -37 20
-45 0z"/>
<path d="M242 3548 c-8 -8 -9 -15 -1 -25 15 -17 34 -17 48 1 10 12 8 17 -8 25
-24 14 -24 14 -39 -1z"/>
<path d="M4714 3545 c-12 -29 15 -45 45 -26 12 8 12 12 2 25 -17 20 -40 21
-47 1z"/>
<path d="M190 3425 c-15 -18 -5 -35 20 -35 10 0 22 5 25 10 7 11 -12 40 -25
40 -4 0 -13 -7 -20 -15z"/>
<path d="M4773 3429 c-15 -15 -5 -39 16 -39 29 0 43 21 23 36 -21 17 -25 17
-39 3z"/>
<path d="M141 3301 c-16 -28 14 -51 36 -28 13 13 14 19 3 31 -17 21 -27 20
-39 -3z"/>
<path d="M4813 3294 c-3 -8 1 -22 9 -30 13 -13 16 -13 28 0 10 13 10 19 0 31
-16 19 -29 19 -37 -1z"/>
<path d="M102 3168 c-7 -10 -6 -19 4 -33 15 -20 15 -20 30 0 8 10 13 24 11 30
-5 15 -33 17 -45 3z"/>
<path d="M4857 3173 c-24 -23 12 -55 38 -33 12 10 13 16 4 26 -12 15 -31 18
-42 7z"/>
<path d="M74 3046 c-9 -37 10 -56 33 -33 16 16 16 18 -4 39 l-22 21 -7 -27z"/>
<path d="M4886 3041 c-9 -14 4 -41 19 -41 17 0 38 27 30 40 -8 12 -42 13 -49
1z"/>
<path d="M3784 3010 c-58 -37 -104 -129 -104 -207 0 -17 4 -34 9 -38 16 -9 61
-96 61 -117 0 -21 10 -20 80 9 31 13 36 12 47 -3 7 -10 13 -25 13 -35 0 -16
-67 -89 -81 -89 -8 0 -54 52 -67 76 -7 12 -20 8 -77 -23 -75 -41 -109 -80
-120 -139 -8 -44 0 -53 49 -61 32 -5 38 -3 43 16 7 28 22 27 16 -1 -10 -47 -9
-46 -67 -33 l-55 13 -7 -44 c-13 -87 1 -214 29 -274 24 -48 27 -68 27 -156 0
-119 4 -125 95 -149 113 -29 237 -16 354 36 l64 29 -6 139 c-5 134 -4 141 20
193 18 37 27 76 31 130 6 108 5 110 -60 92 -72 -19 -78 -18 -78 12 0 23 1 24
16 9 9 -9 22 -14 30 -11 7 3 29 8 49 12 34 6 36 8 29 38 -19 89 -32 105 -119
146 -95 43 -124 75 -109 118 8 24 22 32 82 48 16 4 15 156 -1 204 -25 72 -126
103 -193 60z m109 -142 c23 -12 22 -80 -2 -134 -14 -32 -28 -45 -60 -58 -23
-9 -47 -13 -53 -10 -5 4 -20 28 -33 55 -18 40 -21 57 -14 92 4 23 8 46 9 50 1
24 110 27 153 5z m50 -509 c-6 -6 -9 -26 -6 -45 5 -30 3 -34 -17 -34 -19 0
-22 4 -18 30 3 17 1 33 -4 36 -18 12 -6 24 24 24 24 0 29 -3 21 -11z m182 -86
c-10 -71 -58 -166 -109 -218 l-46 -46 -31 22 -30 21 24 27 c44 47 79 109 90
162 11 49 15 53 52 65 22 6 44 12 49 13 4 1 5 -20 1 -46z m-496 2 c3 -3 -1
-27 -8 -54 -11 -45 -10 -53 13 -110 30 -71 32 -84 10 -102 -14 -11 -20 -9 -45
18 -46 53 -73 184 -53 260 6 22 7 22 42 7 20 -8 38 -17 41 -19z m289 -255 c17
-11 32 -23 32 -27 0 -9 -125 -123 -134 -123 -3 0 -2 8 1 18 6 15 5 15 -10 3
-22 -18 -22 -3 1 23 16 20 16 20 -1 7 -9 -8 -20 -11 -23 -8 -3 3 3 12 15 19
12 7 21 16 21 21 0 4 -11 0 -25 -9 -26 -17 -34 -7 -13 14 9 9 8 12 -7 12 -12
0 -15 3 -9 9 10 10 106 61 114 61 3 0 20 -9 38 -20z m-178 -16 c2 -3 -2 -9 -9
-14 -11 -6 -10 -14 8 -43 23 -37 27 -52 11 -42 -16 10 -12 -11 5 -25 9 -7 13
-15 11 -18 -3 -2 -17 9 -31 24 l-26 29 16 -39 c18 -45 18 -46 6 -46 -8 0 -91
125 -91 137 0 4 10 17 22 30 17 18 29 22 48 18 14 -4 27 -9 30 -11z"/>
<path d="M3778 2853 c6 -2 18 -2 25 0 6 3 1 5 -13 5 -14 0 -19 -2 -12 -5z"/>
<path d="M3850 2850 c8 -5 20 -10 25 -10 6 0 3 5 -5 10 -8 5 -19 10 -25 10 -5
0 -3 -5 5 -10z"/>
<path d="M3760 2821 c0 -5 9 -7 20 -4 11 3 20 7 20 9 0 2 -9 4 -20 4 -11 0
-20 -4 -20 -9z"/>
<path d="M3844 2819 c-3 -5 6 -9 20 -9 31 0 34 6 6 13 -11 3 -23 1 -26 -4z"/>
<path d="M3800 2770 c0 -6 7 -10 15 -10 8 0 15 2 15 4 0 2 -7 6 -15 10 -8 3
-15 1 -15 -4z"/>
<path d="M3780 2725 c14 -17 46 -20 54 -6 7 10 -17 21 -46 21 -17 0 -18 -3 -8
-15z"/>
<path d="M3725 1920 c3 -5 8 -10 11 -10 2 0 4 5 4 10 0 6 -5 10 -11 10 -5 0
-7 -4 -4 -10z"/>
<path d="M4911 2911 c-16 -28 14 -51 36 -28 13 13 14 19 3 31 -17 21 -27 20
-39 -3z"/>
<path d="M47 2913 c-23 -22 14 -53 39 -32 11 9 11 15 3 25 -12 15 -31 18 -42
7z"/>
<path d="M28 2778 c-13 -35 19 -51 43 -22 10 13 10 17 -2 25 -20 12 -36 11
-41 -3z"/>
<path d="M4931 2777 c-8 -10 -7 -19 4 -33 15 -19 15 -19 30 0 11 14 12 23 4
33 -6 7 -15 13 -19 13 -4 0 -13 -6 -19 -13z"/>
<path d="M1159 2730 c-78 -41 -101 -158 -43 -209 23 -19 36 -22 76 -19 27 3
55 11 61 17 9 10 4 11 -25 6 -83 -16 -118 25 -97 111 21 80 109 124 134 67 12
-29 22 -29 31 -1 15 47 -69 64 -137 28z"/>
<path d="M1352 2664 c-54 -37 -69 -122 -27 -150 22 -14 26 -14 47 0 19 14 24
14 38 1 11 -10 20 -11 30 -4 10 7 11 12 4 15 -9 4 -8 23 3 71 13 55 13 67 2
74 -22 14 -73 10 -97 -7z m68 -24 c0 -27 -27 -92 -43 -102 -19 -12 -27 -9 -38
16 -16 34 24 106 58 106 16 0 23 -6 23 -20z"/>
<path d="M1535 2670 c-25 -5 -27 -7 -13 -15 15 -9 15 -15 2 -70 -17 -75 -17
-75 1 -75 8 0 19 17 25 41 16 57 49 100 74 97 13 -2 22 4 24 15 5 24 -30 22
-54 -4 -18 -20 -19 -20 -24 -2 -4 15 -11 17 -35 13z"/>
<path d="M1703 2665 c-12 -8 -29 -35 -38 -60 -16 -41 -16 -47 -2 -69 21 -31
47 -39 81 -27 29 12 36 26 7 16 -22 -7 -67 27 -57 43 3 6 29 18 57 27 47 16
50 19 47 48 -3 29 -7 32 -38 35 -20 1 -44 -4 -57 -13z m60 -22 c-9 -27 -22
-40 -43 -46 -29 -8 -33 7 -9 37 24 30 62 37 52 9z"/>
<path d="M21 2656 c-16 -19 -7 -46 14 -46 22 0 30 29 13 46 -13 13 -16 13 -27
0z"/>
<path d="M4947 2653 c-11 -10 -8 -41 4 -48 5 -4 19 1 30 10 18 17 18 19 1 31
-20 15 -26 17 -35 7z"/>
<path d="M4951 2526 c-16 -19 -10 -50 10 -54 23 -4 32 26 15 49 -11 17 -15 18
-25 5z"/>
<path d="M4 2508 c-6 -10 20 -38 37 -38 10 0 20 30 13 41 -8 13 -41 11 -50 -3z"/>
<path d="M13 2374 c-10 -26 13 -39 44 -25 27 12 27 13 8 27 -25 18 -44 18 -52
-2z"/>
<path d="M4942 2377 c-7 -8 -7 -19 2 -35 l12 -23 18 20 c15 17 16 23 6 36 -15
18 -24 19 -38 2z"/>
<path d="M1860 2360 c0 -5 5 -10 10 -10 6 0 10 5 10 10 0 6 -4 10 -10 10 -5 0
-10 -4 -10 -10z"/>
<path d="M2040 2341 c0 -5 5 -11 11 -13 22 -7 -1 -48 -26 -48 -79 0 -135 -95
-92 -155 12 -15 18 -16 46 -7 24 8 37 8 50 0 11 -7 26 -8 37 -3 16 7 17 9 3
12 -15 4 -14 15 6 113 l22 110 -28 0 c-16 0 -29 -4 -29 -9z m0 -86 c9 -11 6
-25 -17 -67 -44 -83 -88 -73 -57 13 23 68 48 86 74 54z"/>
<path d="M1170 2258 c-17 -18 -20 -19 -20 -5 0 12 -8 17 -26 17 -20 0 -24 -3
-16 -13 11 -13 -5 -112 -27 -170 -15 -38 -16 -37 27 -36 20 0 31 3 25 6 -7 2
-13 16 -13 29 0 20 5 24 28 24 71 0 128 78 102 141 -15 36 -50 39 -80 7z m50
-41 c0 -21 -28 -79 -44 -89 -39 -26 -55 16 -27 71 33 63 70 73 71 18z"/>
<path d="M1374 2265 c-22 -17 -38 -20 -29 -5 4 6 -7 10 -26 10 -26 0 -29 -2
-20 -14 10 -11 10 -29 0 -76 -6 -33 -9 -63 -6 -66 9 -10 27 6 27 24 0 9 14 40
32 69 30 50 48 66 48 43 0 -5 5 -10 10 -10 6 0 10 9 10 20 0 24 -19 26 -46 5z"/>
<path d="M1469 2251 c-22 -22 -29 -39 -29 -68 0 -44 6 -55 37 -72 52 -27 123
30 123 99 0 48 -21 70 -66 70 -26 0 -44 -8 -65 -29z m92 -5 c9 -18 8 -35 -2
-67 -19 -57 -42 -71 -70 -42 -18 17 -20 28 -15 58 13 66 66 97 87 51z"/>
<path d="M1762 2272 c-17 -3 -20 -7 -13 -16 7 -8 1 -26 -19 -61 l-28 -48 -12
61 c-11 55 -15 62 -37 62 -20 0 -22 -3 -13 -19 5 -11 15 -42 21 -70 12 -57 23
-69 45 -50 16 13 89 138 83 142 -2 2 -14 1 -27 -1z"/>
<path d="M2157 2260 c-30 -24 -51 -81 -43 -114 9 -35 49 -49 91 -31 38 15 49
30 13 16 -30 -11 -68 4 -68 27 0 13 15 23 50 36 58 21 64 28 56 62 -5 19 -13
24 -40 24 -18 0 -45 -9 -59 -20z m71 -7 c5 -17 -35 -53 -58 -53 -19 0 -20 2
-5 29 20 39 53 52 63 24z"/>
<path d="M2370 2253 c-20 -26 -21 -26 -17 -5 4 19 1 22 -25 22 -25 0 -28 -3
-19 -14 8 -10 9 -26 2 -57 -14 -59 -14 -92 1 -87 6 2 17 23 23 46 14 46 60
108 70 92 10 -17 25 -11 25 10 0 29 -34 25 -60 -7z"/>
<path d="M1838 2257 c7 -8 8 -26 2 -52 -16 -66 -13 -95 9 -95 17 0 19 5 15 33
-3 17 1 53 9 80 l15 47 -30 0 c-24 0 -28 -3 -20 -13z"/>
<path d="M31 2247 c-15 -19 -3 -49 18 -45 9 2 16 13 16 27 0 29 -17 37 -34 18z"/>
<path d="M4933 2249 c-27 -27 13 -51 47 -29 13 8 12 11 -5 24 -24 19 -28 19
-42 5z"/>
<path d="M4910 2114 c-11 -12 -10 -18 3 -32 16 -15 18 -15 34 0 13 14 14 20 3
32 -7 9 -16 16 -20 16 -4 0 -13 -7 -20 -16z"/>
<path d="M44 2109 c-3 -6 1 -18 10 -27 15 -15 17 -15 32 0 19 19 11 38 -16 38
-10 0 -22 -5 -26 -11z"/>
<path d="M67 1976 c-9 -23 18 -39 43 -26 17 9 19 14 9 26 -15 18 -45 18 -52 0z"/>
<path d="M4881 1977 c-9 -11 -8 -17 4 -27 19 -16 47 -5 43 17 -4 23 -31 28
-47 10z"/>
<path d="M1127 1956 c-6 -16 2 -28 14 -20 12 7 11 34 0 34 -5 0 -11 -6 -14
-14z"/>
<path d="M1631 1938 c14 -10 14 -19 -2 -97 -10 -47 -18 -96 -19 -108 0 -39 24
-16 54 52 25 57 50 84 64 71 2 -3 -2 -31 -10 -63 -8 -32 -13 -64 -10 -71 4
-14 52 -16 52 -2 0 6 -6 10 -14 10 -12 0 -12 7 0 53 19 70 18 84 -6 97 -18 10
-26 6 -52 -22 -30 -31 -31 -32 -25 -8 3 14 9 42 12 63 7 37 7 37 -26 36 -28 0
-31 -2 -18 -11z"/>
<path d="M1531 1896 c-18 -19 -25 -39 -27 -80 -2 -29 -4 -57 -5 -62 -5 -30 3
-44 25 -44 14 0 28 5 31 10 3 6 -2 10 -13 10 -18 0 -19 3 -8 57 9 45 17 61 36
70 18 9 20 13 8 13 -10 0 -18 10 -20 26 l-3 26 -24 -26z"/>
<path d="M1883 1883 c-34 -7 -83 -68 -83 -104 0 -50 16 -69 58 -69 21 0 47 7
58 15 18 14 17 14 -10 5 -22 -8 -34 -7 -53 5 -33 22 -25 37 33 58 48 18 64 31
64 54 0 13 -28 44 -38 42 -4 -1 -17 -4 -29 -6z m27 -38 c0 -24 -25 -45 -54
-45 -23 0 -20 17 9 45 31 32 45 32 45 0z"/>
<path d="M1117 1872 c-25 -3 -27 -5 -13 -15 13 -10 14 -18 6 -47 -17 -57 -13
-100 8 -100 15 0 18 6 14 30 -2 16 1 52 8 80 7 28 11 52 9 53 -2 1 -17 1 -32
-1z"/>
<path d="M1217 1872 c-24 -3 -26 -5 -13 -15 13 -11 13 -19 1 -71 -24 -100 -1
-100 44 -2 16 35 36 66 46 69 15 6 16 0 10 -68 l-7 -75 26 0 c14 0 26 5 26 10
0 6 -4 10 -10 10 -6 0 -7 28 -3 75 6 72 5 75 -16 75 -12 0 -33 -11 -46 -24
-24 -24 -24 -24 -27 -2 -2 17 -9 20 -31 18z"/>
<path d="M107 1853 c-25 -24 11 -49 40 -28 16 13 16 16 3 25 -17 11 -34 13
-43 3z"/>
<path d="M4854 1845 c-13 -32 23 -48 47 -19 10 13 10 17 -2 25 -21 13 -39 11
-45 -6z"/>
<path d="M3917 1735 c-49 -13 -90 -25 -91 -27 -2 -1 4 -119 13 -260 l15 -258
28 0 c20 0 31 7 38 23 22 50 95 374 115 505 8 51 9 50 -118 17z"/>
<path d="M4821 1731 c-16 -29 3 -58 25 -40 17 14 17 20 0 44 -13 18 -14 18
-25 -4z"/>
<path d="M147 1725 c-14 -13 -14 -20 -4 -35 15 -25 19 -25 35 1 12 18 11 24
-1 36 -12 13 -16 12 -30 -2z"/>
<path d="M3620 1729 c0 -31 113 -455 130 -488 20 -41 54 -61 72 -43 11 11 -14
497 -26 509 -5 6 -136 31 -163 32 -7 1 -13 -4 -13 -10z"/>
<path d="M190 1600 c-14 -26 0 -46 24 -37 20 8 21 31 2 46 -12 10 -17 8 -26
-9z"/>
<path d="M4761 1597 c-9 -11 -8 -17 4 -27 19 -16 47 -5 43 17 -4 23 -31 28
-47 10z"/>
<path d="M240 1474 c-11 -12 -10 -18 3 -31 15 -15 18 -15 37 2 20 18 20 20 4
32 -23 17 -29 16 -44 -3z"/>
<path d="M4713 1474 c-3 -8 1 -22 9 -30 12 -12 17 -12 33 0 16 12 17 16 6 30
-17 20 -40 21 -48 0z"/>
<path d="M1118 1424 c6 -10 2 -50 -11 -111 -23 -106 -21 -113 41 -113 68 0
125 99 88 155 -21 32 -37 32 -71 -2 -23 -23 -27 -25 -22 -8 3 11 9 37 13 58 6
35 5 37 -20 37 -22 0 -25 -3 -18 -16z m92 -94 c16 -29 -26 -110 -57 -110 -37
0 -29 62 15 113 19 22 29 22 42 -3z"/>
<path d="M1669 1426 c8 -10 6 -37 -9 -111 -24 -116 -23 -105 -6 -105 7 0 19
14 26 30 16 38 23 38 46 -5 10 -19 26 -35 35 -35 26 0 30 12 10 27 -11 7 -22
27 -26 44 -6 27 -3 35 26 59 38 32 37 41 -4 33 -17 -3 -24 -9 -17 -13 7 -4 -2
-17 -24 -34 -20 -15 -36 -23 -36 -19 0 7 10 55 25 121 5 19 1 22 -26 22 -25 0
-29 -3 -20 -14z"/>
<path d="M2908 1431 c8 -4 12 -19 10 -32 -2 -18 -10 -25 -33 -27 -87 -8 -135
-94 -86 -153 19 -23 21 -23 49 -8 27 15 31 15 45 2 10 -10 22 -13 34 -8 15 7
16 9 2 12 -16 4 -12 34 26 201 5 19 1 22 -27 22 -22 0 -29 -3 -20 -9z m-8 -95
c0 -35 -27 -94 -50 -106 -15 -8 -21 -6 -30 10 -6 12 -8 31 -4 43 20 65 84 106
84 53z"/>
<path d="M1338 1369 c-27 -10 -68 -78 -68 -113 0 -46 48 -74 76 -46 8 8 19 7
38 -1 20 -10 29 -10 38 -1 9 9 8 12 -4 12 -13 0 -14 7 0 66 8 37 11 69 6 74
-15 15 -58 19 -86 9z m55 -21 c10 -29 -40 -128 -65 -128 -5 0 -13 11 -20 24
-9 21 -6 32 16 70 26 45 59 61 69 34z"/>
<path d="M1534 1370 c-65 -26 -86 -129 -33 -159 26 -15 79 -9 79 9 0 6 -9 6
-26 0 -33 -13 -32 -13 -43 8 -16 30 7 111 35 124 18 9 28 8 36 0 16 -16 28
-15 28 2 0 7 -10 16 -22 20 -28 7 -28 7 -54 -4z"/>
<path d="M1888 1364 c-34 -18 -58 -62 -58 -107 0 -55 43 -76 82 -40 17 15 18
15 18 -3 0 -11 -7 -30 -16 -42 -14 -20 -22 -22 -55 -17 -42 7 -55 -8 -16 -19
76 -20 102 4 127 119 l20 90 -21 18 c-26 21 -45 21 -81 1z m62 -29 c0 -41 -39
-115 -61 -115 -19 0 -30 41 -20 73 23 63 81 94 81 42z"/>
<path d="M2244 1370 c-57 -23 -85 -118 -46 -153 52 -47 142 5 142 82 0 65 -40
94 -96 71z m58 -35 c9 -19 8 -34 -2 -66 -17 -51 -47 -66 -73 -37 -18 21 -17
50 4 106 12 32 56 30 71 -3z"/>
<path d="M301 1356 c-10 -12 -10 -19 2 -36 12 -18 16 -18 26 -6 14 17 11 48
-5 53 -6 2 -17 -3 -23 -11z"/>
<path d="M2046 1363 c-15 -4 -16 -7 -6 -13 11 -7 12 -18 2 -60 -7 -28 -12 -61
-12 -72 0 -34 23 -14 36 33 8 24 24 57 38 74 20 25 26 28 40 16 14 -12 16 -11
16 8 0 30 -34 27 -61 -6 l-22 -28 7 28 c7 28 2 30 -38 20z"/>
<path d="M2396 1361 c-17 -6 -17 -8 -3 -14 13 -5 14 -12 6 -42 -14 -49 -8 -99
12 -103 9 -2 30 9 48 23 17 15 29 21 26 13 -8 -23 10 -41 35 -33 16 5 19 9 10
15 -11 7 -11 20 -2 66 15 71 15 74 0 74 -7 -1 -27 -29 -44 -63 -18 -35 -39
-64 -49 -66 -19 -3 -19 9 1 107 7 34 -1 38 -40 23z"/>
<path d="M2606 1363 c-12 -3 -15 -7 -7 -12 8 -5 8 -22 1 -61 -21 -110 -7 -115
42 -15 27 56 52 84 65 72 2 -3 -1 -24 -6 -48 -18 -76 -15 -99 13 -99 14 0 28
5 31 10 3 6 -1 10 -9 10 -18 0 -19 9 -5 69 5 24 7 52 4 62 -9 26 -41 24 -70
-6 l-25 -24 0 24 c0 26 -1 26 -34 18z"/>
<path d="M4661 1356 c-10 -12 -10 -19 2 -36 12 -18 16 -18 26 -6 14 17 11 48
-5 53 -6 2 -17 -3 -23 -11z"/>
<path d="M364 1235 c-4 -9 0 -24 10 -33 15 -15 18 -15 26 -2 6 8 9 22 7 30 -3
21 -36 25 -43 5z"/>
<path d="M4591 1237 c-8 -10 -7 -19 4 -33 15 -19 15 -19 30 0 11 14 12 23 4
33 -6 7 -15 13 -19 13 -4 0 -13 -6 -19 -13z"/>
<path d="M440 1124 c-11 -12 -11 -18 1 -30 13 -12 18 -12 34 0 16 12 17 16 6
30 -17 20 -25 20 -41 0z"/>
<path d="M4516 1124 c-8 -21 1 -34 24 -34 25 0 35 17 20 35 -16 20 -36 19 -44
-1z"/>
<path d="M515 1020 c-8 -12 3 -50 14 -50 15 0 33 30 27 45 -6 17 -32 20 -41 5z"/>
<path d="M4442 1018 c-13 -13 2 -38 23 -38 21 0 36 25 23 38 -7 7 -17 12 -23
12 -6 0 -16 -5 -23 -12z"/>
<path d="M605 920 c-17 -18 -17 -22 -4 -35 13 -13 18 -13 34 -2 16 13 17 16 3
36 l-15 21 -18 -20z"/>
<path d="M4360 915 c-11 -13 -11 -19 2 -32 17 -16 38 -10 38 11 0 8 -6 19 -14
25 -10 9 -16 8 -26 -4z"/>
<path d="M4270 820 c-12 -23 -6 -40 15 -40 19 0 27 17 20 40 -8 26 -21 25 -35
0z"/>
<path d="M690 815 c-23 -28 15 -47 50 -25 13 8 12 11 -5 24 -25 19 -30 19 -45
1z"/>
<path d="M789 726 c-17 -35 2 -59 27 -34 15 15 15 18 1 39 l-16 22 -12 -27z"/>
<path d="M4179 727 c-11 -24 -11 -30 1 -37 9 -5 19 -5 27 2 16 13 16 20 -1 43
-14 19 -15 19 -27 -8z"/>
<path d="M892 648 c-15 -15 -15 -45 -1 -54 6 -3 18 0 26 9 14 13 14 18 1 36
-11 16 -17 18 -26 9z"/>
<path d="M4082 648 c-16 -16 -15 -33 2 -47 21 -18 41 11 26 38 -13 25 -12 25
-28 9z"/>
<path d="M992 558 c-17 -17 -15 -35 4 -42 31 -12 47 21 21 43 -10 8 -17 7 -25
-1z"/>
<path d="M3973 551 c-10 -15 -9 -22 2 -31 22 -19 48 5 34 31 -12 24 -21 24
-36 0z"/>
<path d="M1101 476 c-16 -19 -7 -46 14 -46 22 0 30 29 13 46 -13 13 -16 13
-27 0z"/>
<path d="M3861 467 c-8 -10 -7 -19 4 -33 15 -18 15 -18 29 -1 26 34 -6 66 -33
34z"/>
<path d="M1203 394 c-7 -19 20 -49 36 -40 16 11 13 43 -5 50 -22 8 -24 8 -31
-10z"/>
<path d="M3757 403 c-4 -3 -7 -15 -7 -25 0 -22 32 -24 49 -4 10 12 8 17 -8 25
-23 13 -26 13 -34 4z"/>
<path d="M1320 320 c0 -28 28 -37 48 -16 15 15 15 18 2 26 -26 17 -50 12 -50
-10z"/>
<path d="M3635 330 c-8 -12 3 -50 14 -50 15 0 33 30 27 45 -6 17 -32 20 -41 5z"/>
<path d="M1447 275 c-14 -13 -14 -20 -4 -36 13 -22 26 -21 41 4 8 12 7 21 -5
33 -15 14 -18 14 -32 -1z"/>
<path d="M3513 264 c-3 -8 1 -22 10 -31 14 -14 16 -13 26 6 7 12 9 26 6 31
-10 15 -35 12 -42 -6z"/>
<path d="M1566 214 c-4 -10 0 -24 9 -33 14 -14 17 -14 25 -1 6 8 9 22 7 30 -3
21 -33 24 -41 4z"/>
<path d="M3397 223 c-24 -23 12 -55 38 -33 12 10 13 16 4 26 -12 15 -31 18
-42 7z"/>
<path d="M1690 175 c-10 -12 -10 -18 0 -30 15 -18 20 -18 44 0 20 15 20 15 0
30 -24 18 -29 18 -44 0z"/>
<path d="M3269 174 c-10 -12 -9 -18 4 -31 13 -13 19 -14 31 -3 21 17 20 27 -3
39 -14 8 -22 7 -32 -5z"/>
<path d="M1821 137 c-15 -15 -14 -26 5 -44 13 -14 17 -14 25 -2 21 34 -4 72
-30 46z"/>
<path d="M3141 136 c-18 -22 4 -62 25 -45 18 15 18 33 0 48 -10 9 -16 8 -25
-3z"/>
<path d="M1950 109 c-10 -17 -9 -24 3 -36 8 -9 20 -12 26 -9 16 10 14 41 -3
55 -12 10 -17 8 -26 -10z"/>
<path d="M3016 104 c-16 -15 -16 -18 -2 -33 15 -14 18 -14 33 2 16 15 16 18 2
33 -15 14 -18 14 -33 -2z"/>
<path d="M2080 75 c-23 -28 21 -50 48 -23 9 9 7 14 -6 24 -22 17 -27 17 -42
-1z"/>
<path d="M2880 75 c-6 -8 -9 -19 -5 -25 8 -13 42 -13 50 0 7 11 -12 40 -25 40
-4 0 -13 -7 -20 -15z"/>
<path d="M2213 54 c-8 -20 9 -36 30 -28 21 8 22 30 1 38 -22 8 -24 8 -31 -10z"/>
<path d="M2743 54 c-3 -8 1 -22 9 -30 13 -13 16 -13 27 0 7 9 11 23 7 31 -7
20 -35 19 -43 -1z"/>
<path d="M2347 53 c-24 -23 12 -55 38 -33 12 10 13 16 4 26 -12 15 -31 18 -42
7z"/>
<path d="M2481 50 c-19 -11 -4 -52 17 -48 10 2 18 13 20 24 3 23 -17 37 -37
24z"/>
<path d="M2612 48 c-13 -13 2 -38 23 -38 21 0 36 25 23 38 -15 15 -31 15 -46
0z"/>
</g>
</svg>
