<?xml version="1.0" standalone="no"?>
<!DOCTYPE svg PUBLIC "-//W3C//DTD SVG 20010904//EN"
 "http://www.w3.org/TR/2001/REC-SVG-20010904/DTD/svg10.dtd">
<svg version="1.0" xmlns="http://www.w3.org/2000/svg"
 width="500.000000pt" height="500.000000pt" viewBox="0 0 500.000000 500.000000"
 preserveAspectRatio="xMidYMid meet">
<metadata>
Created by potrace 1.15, written by Peter Selinger 2001-2017
</metadata>
<g transform="translate(0.000000,500.000000) scale(0.100000,-0.100000)"
fill="#000000" stroke="none">
<path d="M2220 4970 c-13 -25 -6 -40 21 -40 23 0 26 32 5 49 -12 10 -17 8 -26
-9z"/>
<path d="M2350 4975 c-6 -8 -9 -19 -5 -25 9 -15 41 -12 54 4 10 12 8 17 -8 25
-25 14 -26 14 -41 -4z"/>
<path d="M2482 4978 c-13 -13 2 -38 23 -38 21 0 36 25 23 38 -7 7 -17 12 -23
12 -6 0 -16 -5 -23 -12z"/>
<path d="M2621 4976 c-10 -12 -10 -19 2 -36 12 -18 16 -18 26 -6 14 17 11 48
-5 53 -6 2 -17 -3 -23 -11z"/>
<path d="M2754 4965 c-8 -20 4 -35 26 -35 28 0 35 19 14 35 -24 18 -33 18 -40
0z"/>
<path d="M2091 4956 c-16 -19 -7 -46 14 -46 22 0 30 29 13 46 -13 13 -16 13
-27 0z"/>
<path d="M2886 4944 c-11 -30 13 -44 43 -25 12 8 12 12 2 25 -17 20 -37 20
-45 0z"/>
<path d="M1952 4918 c-7 -9 -6 -18 4 -32 14 -20 14 -20 29 0 8 10 13 24 11 29
-4 16 -32 17 -44 3z"/>
<path d="M3017 4923 c-26 -25 14 -51 45 -29 l20 14 -20 11 c-24 13 -36 14 -45
4z"/>
<path d="M1827 4903 c-11 -10 -8 -41 4 -49 6 -3 18 1 27 9 13 13 13 19 2 31
-14 17 -23 20 -33 9z"/>
<path d="M3153 4893 c-17 -6 -16 -28 1 -42 17 -14 41 11 32 34 -6 15 -12 17
-33 8z"/>
<path d="M1695 4850 c-6 -20 0 -40 13 -40 20 1 34 19 27 39 -8 27 -32 27 -40
1z"/>
<path d="M3277 4853 c-24 -23 12 -55 38 -33 12 10 13 16 4 26 -12 15 -31 18
-42 7z"/>
<path d="M3402 4809 c-12 -18 -12 -24 0 -35 20 -20 42 -2 34 30 -8 32 -17 33
-34 5z"/>
<path d="M1571 4801 c-8 -14 -7 -22 4 -31 13 -10 19 -9 35 5 19 17 19 19 2 31
-23 18 -30 17 -41 -5z"/>
<path d="M1444 4745 c-4 -8 -1 -22 6 -30 11 -14 15 -14 31 1 14 13 16 20 8 31
-15 17 -38 17 -45 -2z"/>
<path d="M3521 4747 c-9 -11 -8 -17 3 -26 18 -15 48 -3 44 18 -4 21 -32 26
-47 8z"/>
<path d="M3647 4703 c-11 -10 -8 -41 4 -49 6 -3 18 1 27 9 13 13 13 19 2 31
-14 17 -23 20 -33 9z"/>
<path d="M1326 4691 c-8 -12 3 -41 15 -41 5 0 18 5 28 12 18 11 18 13 3 25
-20 15 -39 16 -46 4z"/>
<path d="M1212 4630 c-15 -24 -8 -40 18 -40 23 0 31 21 15 43 -16 22 -17 21
-33 -3z"/>
<path d="M3760 4630 c-14 -26 0 -46 24 -37 20 8 21 31 2 46 -12 10 -17 8 -26
-9z"/>
<path d="M1094 4549 c-3 -6 1 -18 10 -27 15 -15 17 -15 32 0 19 19 11 38 -16
38 -10 0 -22 -5 -26 -11z"/>
<path d="M3864 4549 c-3 -6 1 -18 10 -27 15 -15 17 -15 32 0 19 19 11 38 -16
38 -10 0 -22 -5 -26 -11z"/>
<path d="M990 4475 c-23 -28 21 -50 48 -23 9 9 7 14 -6 24 -22 17 -27 17 -42
-1z"/>
<path d="M3980 4475 c-16 -19 8 -59 27 -43 17 14 17 45 -1 51 -8 3 -20 0 -26
-8z"/>
<path d="M4092 4408 c-15 -15 -15 -45 -1 -54 6 -3 18 0 26 9 14 13 14 18 1 36
-11 16 -17 18 -26 9z"/>
<path d="M884 4389 c-3 -6 1 -18 10 -27 15 -15 17 -15 34 1 15 16 15 19 2 27
-20 13 -37 12 -46 -1z"/>
<path d="M2854 4305 c-15 -23 -15 -28 -2 -41 17 -18 48 -8 48 15 0 9 -7 24
-15 34 -13 18 -14 17 -31 -8z"/>
<path d="M783 4294 c-3 -8 1 -22 9 -30 13 -13 16 -13 27 0 7 9 11 23 7 31 -7
20 -35 19 -43 -1z"/>
<path d="M3504 4295 c-17 -13 -17 -14 -2 -15 9 0 20 -5 23 -10 3 -6 -8 -80
-25 -165 -18 -86 -29 -162 -26 -171 8 -20 87 -16 94 5 3 10 -2 13 -22 9 -14
-3 -26 -4 -26 -2 0 3 67 315 74 347 3 14 -3 17 -33 17 -20 0 -46 -7 -57 -15z"/>
<path d="M4177 4296 c-3 -8 3 -22 13 -31 17 -16 19 -15 30 4 6 12 8 26 5 31
-9 15 -42 12 -48 -4z"/>
<path d="M1417 4293 c-14 -13 -6 -23 17 -23 14 0 27 -4 30 -8 2 -4 -10 -75
-27 -157 -31 -147 -33 -150 -60 -153 -15 -2 -27 -9 -27 -18 0 -21 165 -20 174
1 4 11 -2 15 -25 15 -31 0 -31 1 -25 38 4 20 12 54 17 75 l10 37 88 0 88 0
-16 -72 c-15 -67 -19 -73 -44 -76 -15 -2 -27 -10 -27 -18 0 -11 18 -14 85 -14
69 0 85 3 85 15 0 9 -9 15 -25 15 -14 0 -25 6 -25 13 0 19 59 288 66 298 3 5
16 9 30 9 15 0 24 6 24 15 0 12 -16 15 -84 15 -65 0 -85 -3 -90 -15 -4 -11 2
-15 24 -15 34 0 34 2 19 -73 l-12 -57 -89 0 -89 0 7 38 c14 73 20 86 44 92 13
3 25 11 28 18 3 9 -19 12 -80 12 -47 0 -88 -3 -91 -7z"/>
<path d="M3041 4244 c-12 -15 -21 -31 -21 -36 0 -5 -16 -16 -35 -24 -39 -16
-46 -34 -14 -34 24 0 24 12 -2 -136 -7 -39 -10 -78 -6 -87 8 -22 55 -22 85 -1
28 20 29 39 1 23 -37 -19 -43 2 -24 88 24 112 23 111 52 115 36 4 43 28 8 28
-25 0 -26 1 -19 45 3 25 4 45 1 45 -3 0 -15 -12 -26 -26z"/>
<path d="M692 4207 c-7 -8 -7 -19 2 -35 l12 -23 18 20 c15 17 16 23 6 36 -15
18 -24 19 -38 2z"/>
<path d="M4280 4210 c-12 -7 -12 -12 0 -35 13 -25 15 -25 27 -8 24 32 5 63
-27 43z"/>
<path d="M1935 4176 c-111 -50 -131 -223 -30 -256 73 -24 154 13 187 86 53
122 -39 222 -157 170z m94 -22 c22 -16 23 -22 17 -75 -12 -115 -57 -169 -115
-137 -37 20 -45 57 -25 124 26 92 71 124 123 88z"/>
<path d="M2223 4171 c-63 -39 -55 -88 22 -132 56 -31 75 -60 55 -83 -28 -35
-110 -25 -110 14 0 29 -27 25 -34 -5 -9 -36 -2 -43 50 -51 86 -13 154 25 154
87 0 30 -18 48 -76 77 -23 12 -44 28 -47 37 -21 53 75 80 98 27 11 -25 28 -24
34 3 8 44 -87 61 -146 26z"/>
<path d="M2501 4180 c-45 -5 -71 -30 -32 -30 28 0 27 -16 -8 -173 -20 -94 -34
-134 -51 -152 l-23 -25 71 0 c72 0 89 10 52 30 -20 11 -25 35 -14 64 4 11 19
16 48 16 59 0 127 44 155 102 34 71 23 160 -21 174 -28 9 -85 -14 -108 -44
l-21 -27 4 33 c2 18 1 34 -2 35 -3 2 -26 0 -50 -3z m159 -66 c15 -38 -33 -150
-72 -170 -47 -24 -68 -11 -68 43 0 59 40 130 83 148 37 15 45 12 57 -21z"/>
<path d="M3232 4173 c-44 -21 -79 -65 -93 -115 -29 -111 44 -187 119 -123 37
31 40 31 44 3 4 -30 57 -37 84 -11 17 17 17 18 -10 21 -20 3 -26 8 -22 20 12
41 46 181 46 190 0 14 -56 32 -99 32 -20 0 -51 -8 -69 -17z m97 -12 c28 -18
-7 -137 -54 -183 -36 -36 -62 -36 -76 -1 -32 86 65 225 130 184z"/>
<path d="M2787 4173 c-13 -12 -7 -23 14 -23 15 0 19 -5 15 -17 -3 -10 -15 -57
-27 -105 -17 -71 -19 -91 -9 -103 15 -18 61 -20 78 -3 18 18 15 28 -8 28 -25
0 -25 0 5 112 14 51 25 99 25 106 0 13 -81 18 -93 5z"/>
<path d="M603 4109 c-15 -15 -5 -39 17 -39 26 0 43 23 28 38 -15 15 -31 15
-45 1z"/>
<path d="M4369 4104 c-10 -12 -9 -18 5 -32 15 -15 18 -15 26 -2 5 8 10 20 10
26 0 19 -28 24 -41 8z"/>
<path d="M4453 4010 c-10 -15 -10 -22 4 -35 14 -14 18 -15 30 -2 12 12 13 18
1 36 -16 26 -20 26 -35 1z"/>
<path d="M520 4005 c-19 -22 5 -48 31 -34 10 5 19 14 19 19 0 5 -9 14 -19 19
-14 8 -22 7 -31 -4z"/>
<path d="M440 3895 c-20 -24 4 -47 36 -33 23 11 23 12 8 30 -21 22 -28 22 -44
3z"/>
<path d="M4530 3895 c-10 -11 -10 -19 -2 -27 15 -15 44 -2 40 19 -4 23 -22 27
-38 8z"/>
<path d="M369 3787 c-11 -24 -11 -30 1 -37 9 -5 19 -5 27 2 16 13 16 20 -1 43
-14 19 -15 19 -27 -8z"/>
<path d="M4605 3783 c-15 -14 -15 -17 -1 -32 15 -14 18 -14 36 4 20 20 20 20
0 32 -15 10 -22 10 -35 -4z"/>
<path d="M1015 3743 c-90 -47 -109 -99 -103 -268 5 -138 12 -155 63 -155 47 0
64 -8 80 -41 39 -75 14 -108 -154 -197 -55 -29 -104 -58 -107 -64 -10 -15 -44
-150 -44 -173 0 -17 10 -23 58 -33 31 -7 66 -15 78 -18 17 -4 22 1 33 35 16
54 31 53 20 -1 -4 -24 -8 -48 -9 -54 0 -7 -27 -5 -82 7 -46 10 -89 19 -95 19
-10 0 -13 -25 -13 -93 0 -107 21 -181 73 -262 l32 -50 5 -209 5 -209 66 -28
c37 -14 97 -34 134 -44 87 -21 266 -22 358 -1 78 18 163 58 175 83 12 26 -4
270 -27 393 -10 58 -17 106 -16 108 2 2 22 -14 44 -36 22 -22 73 -56 112 -77
40 -21 130 -75 200 -121 70 -46 138 -84 151 -84 31 0 101 71 96 96 -2 11 -35
38 -75 62 -70 43 -71 44 -52 63 19 19 25 38 12 40 -5 1 -43 2 -85 4 -90 3
-126 22 -206 110 -45 49 -59 80 -124 263 -9 27 -11 27 -89 2 -35 -10 -66 -16
-70 -12 -10 11 -28 92 -20 92 4 0 12 -13 18 -30 12 -33 26 -36 88 -19 65 18
66 21 38 107 -14 42 -33 85 -42 96 -9 10 -59 40 -111 67 -52 26 -111 58 -130
71 l-35 23 18 -28 18 -28 -48 -52 c-26 -29 -52 -53 -58 -55 -5 -1 -37 22 -70
51 l-59 54 17 45 18 46 58 -21 c31 -11 65 -18 74 -14 10 4 36 45 59 92 22 47
49 90 59 96 23 12 24 44 5 114 -28 106 -106 209 -181 241 -45 18 -122 17 -160
-3z m234 -202 c22 -22 51 -109 51 -153 0 -38 -28 -108 -55 -137 -22 -23 -25
-23 -76 -11 -90 22 -122 70 -135 205 -8 75 -1 81 98 99 98 18 95 19 117 -3z
m-153 -770 c-16 -17 -16 -24 -5 -55 10 -28 10 -38 0 -50 -35 -42 -89 10 -57
55 21 30 20 36 -4 44 -37 12 -20 25 32 25 50 0 51 0 34 -19z m548 -126 c41
-83 54 -100 115 -150 79 -64 88 -78 66 -111 -19 -30 -34 -30 -94 0 -86 44
-157 119 -202 213 -22 47 -39 86 -37 88 2 2 100 53 105 55 0 0 22 -43 47 -95z
m-809 39 c63 -11 75 -20 75 -60 0 -50 39 -123 115 -214 36 -43 65 -80 65 -83
0 -2 -16 -17 -35 -31 l-34 -27 -38 24 c-102 65 -202 227 -219 357 -6 48 -5 52
12 47 10 -3 37 -9 59 -13z m1141 -287 l-30 -13 92 -58 c51 -33 91 -61 88 -63
-2 -3 -32 10 -65 28 -83 43 -87 32 -5 -15 85 -49 76 -59 -12 -12 -37 20 -69
34 -71 32 -2 -2 23 -21 57 -41 81 -49 70 -57 -14 -10 -36 20 -66 33 -66 28 0
-5 27 -23 60 -41 33 -19 60 -35 60 -38 0 -15 -40 4 -129 62 -108 71 -116 83
-80 128 18 23 27 26 82 26 59 -1 61 -2 33 -13z m-671 -152 c18 -8 17 -9 -9
-13 l-29 -4 44 -44 c52 -53 39 -57 -25 -8 -26 20 -50 34 -52 31 -3 -2 17 -21
44 -41 28 -20 53 -43 56 -51 7 -20 -4 -18 -34 6 -70 55 -82 59 -35 11 29 -31
43 -52 34 -52 -8 0 -35 20 -59 45 -24 24 -46 42 -49 40 -3 -3 15 -26 39 -50
55 -56 39 -58 -31 -4 -30 22 -75 57 -101 77 -27 20 -48 41 -48 47 0 13 46 57
74 72 14 8 35 3 90 -22 39 -18 80 -36 91 -40z"/>
<path d="M1193 3523 c9 -2 25 -2 35 0 9 3 1 5 -18 5 -19 0 -27 -2 -17 -5z"/>
<path d="M1065 3500 c-7 -12 2 -12 30 0 19 8 19 9 -2 9 -12 1 -25 -3 -28 -9z"/>
<path d="M1211 3491 c-12 -8 -12 -12 -2 -25 21 -25 53 -21 49 6 -3 25 -25 33
-47 19z"/>
<path d="M1086 3464 c-20 -19 -12 -34 17 -34 31 0 51 15 44 34 -8 20 -41 21
-61 0z"/>
<path d="M1178 3383 c-10 -2 -18 -9 -18 -14 0 -11 39 -2 55 12 9 9 -6 10 -37
2z"/>
<path d="M1225 3341 c-5 -10 -22 -12 -56 -8 -52 6 -59 2 -31 -19 37 -29 112
-8 100 28 -3 9 -6 9 -13 -1z"/>
<path d="M2493 3749 c-49 -14 -100 -71 -118 -131 -41 -140 -30 -213 55 -354
33 -54 57 -101 55 -105 -3 -3 -35 -25 -72 -47 -123 -74 -200 -176 -250 -327
-23 -69 -26 -98 -27 -210 0 -140 9 -189 67 -335 28 -72 29 -77 18 -141 -16
-86 -4 -153 55 -311 46 -123 64 -238 64 -409 0 -83 14 -98 143 -164 113 -57
204 -69 302 -40 68 19 170 77 185 105 6 10 10 98 10 197 0 165 2 183 26 248
46 129 52 152 68 258 l16 105 -27 92 -26 92 26 76 c48 139 45 285 -8 441 -50
148 -162 273 -312 350 -24 12 -43 26 -43 31 0 5 23 58 51 117 67 140 79 207
55 297 -22 80 -65 142 -111 162 -38 16 -152 17 -202 3z m135 -173 c49 -26 94
-82 108 -135 11 -43 11 -60 -2 -107 -19 -74 -36 -105 -80 -143 -29 -26 -42
-31 -63 -26 -44 11 -94 59 -136 131 -34 58 -40 77 -40 124 1 124 115 207 213
156z m125 -492 c26 -16 47 -34 47 -40 0 -39 -111 -70 -221 -61 -77 6 -184 45
-184 67 0 7 24 27 54 42 50 26 60 28 155 25 94 -3 107 -6 149 -33z m-419 -131
c9 -20 22 -70 28 -112 14 -100 1 -161 -63 -291 -27 -56 -49 -106 -49 -111 0
-6 19 6 43 25 81 66 171 86 263 56 69 -22 87 -55 37 -65 -140 -27 -177 -46
-271 -138 l-73 -72 -18 22 c-10 12 -29 54 -42 95 -34 104 -35 289 0 398 32
104 98 227 122 229 3 1 13 -15 23 -36z m656 -118 c21 -44 42 -100 48 -125 30
-128 22 -307 -16 -370 l-19 -31 -17 26 c-22 34 -91 67 -215 100 -102 29 -103
29 -81 47 50 41 133 48 217 18 31 -11 58 -18 59 -17 2 2 -10 23 -26 47 -86
129 -117 277 -85 396 l18 65 39 -38 c22 -21 56 -73 78 -118z"/>
<path d="M2600 3490 c0 -5 23 -10 51 -10 31 0 48 4 44 10 -3 6 -26 10 -51 10
-24 0 -44 -4 -44 -10z"/>
<path d="M2450 3480 c-23 -15 -6 -20 30 -10 19 6 42 7 51 5 10 -3 20 -1 24 5
8 13 -84 14 -105 0z"/>
<path d="M2630 3445 c-30 -36 15 -59 58 -29 24 16 20 39 -5 30 -8 -3 -11 -1
-8 4 10 16 -31 11 -45 -5z"/>
<path d="M2471 3431 c-10 -17 -7 -20 19 -26 39 -9 72 2 68 23 -5 26 -74 29
-87 3z"/>
<path d="M2540 3328 c0 -11 62 -10 78 1 8 5 -5 8 -32 7 -25 -1 -46 -4 -46 -8z"/>
<path d="M2530 3280 c0 -16 43 -40 72 -40 16 0 33 8 42 22 20 29 15 32 -28 17
-27 -10 -41 -10 -61 -1 -14 6 -25 7 -25 2z"/>
<path d="M3751 3739 c-43 -13 -122 -93 -155 -156 -14 -28 -31 -88 -39 -133 -8
-46 -21 -87 -28 -91 -43 -26 -45 -28 -29 -39 19 -12 60 -13 80 0 11 7 22 -6
52 -62 l37 -70 -30 -25 c-50 -42 -50 -49 -18 -184 36 -152 45 -163 130 -164
81 0 89 11 130 180 l33 135 -26 27 c-39 41 -44 75 -16 107 l23 27 40 -21 c45
-23 58 -24 87 -9 21 11 21 12 3 25 -17 13 -19 29 -20 152 0 76 -6 155 -13 178
-17 58 -75 109 -141 123 -59 12 -55 12 -100 0z m116 -232 c7 -7 15 -26 19 -44
8 -42 -20 -57 -106 -57 -87 1 -140 23 -140 60 0 15 8 36 17 46 15 17 27 19
108 13 49 -3 96 -11 102 -18z m-79 -129 l93 0 -6 -31 c-4 -18 -15 -45 -24 -62
-18 -32 -91 -75 -128 -75 -43 0 -93 79 -93 148 l0 41 33 -10 c17 -6 74 -10
125 -11z m59 -192 c22 -47 12 -74 -47 -125 l-51 -43 -58 53 c-33 30 -59 57
-60 60 -1 7 66 39 82 39 7 0 32 11 57 25 25 13 48 24 53 25 4 0 15 -15 24 -34z"/>
<path d="M3801 3506 c2 -1 20 -8 39 -14 32 -11 33 -10 16 3 -16 12 -69 23 -55
11z"/>
<path d="M3681 3486 c-13 -16 -5 -46 13 -46 7 0 21 7 32 15 19 15 19 15 0 30
-24 18 -31 19 -45 1z"/>
<path d="M3790 3465 c-24 -29 24 -49 60 -25 13 9 12 12 -4 25 -25 19 -40 19
-56 0z"/>
<path d="M302 3670 c-14 -23 -8 -40 12 -40 24 0 36 23 22 43 -17 22 -18 21
-34 -3z"/>
<path d="M4671 3666 c-10 -12 -10 -20 0 -37 11 -22 12 -22 25 -4 17 24 17 30
0 44 -10 9 -16 8 -25 -3z"/>
<path d="M241 3546 c-9 -11 -9 -19 1 -35 7 -12 15 -21 18 -21 3 0 11 9 18 21
10 16 10 24 1 35 -6 8 -15 14 -19 14 -4 0 -13 -6 -19 -14z"/>
<path d="M4730 3544 c-11 -12 -11 -18 1 -30 13 -12 18 -12 34 0 16 12 17 16 6
30 -17 20 -25 20 -41 0z"/>
<path d="M192 3417 c-15 -17 1 -42 23 -33 18 6 17 37 -1 43 -6 2 -16 -2 -22
-10z"/>
<path d="M4775 3420 c-4 -6 -1 -17 5 -25 9 -11 17 -11 36 -3 18 9 21 14 13 25
-14 16 -45 17 -54 3z"/>
<path d="M142 3298 c-13 -13 2 -38 23 -38 21 0 36 25 23 38 -7 7 -17 12 -23
12 -6 0 -16 -5 -23 -12z"/>
<path d="M4830 3295 c-22 -26 7 -46 39 -26 12 8 12 12 2 25 -17 20 -25 20 -41
1z"/>
<path d="M104 3175 c-9 -21 3 -45 21 -45 21 0 30 27 15 45 -16 19 -29 19 -36
0z"/>
<path d="M4863 3164 c-3 -8 1 -22 9 -30 13 -13 16 -13 27 0 7 9 11 23 7 31 -7
20 -35 19 -43 -1z"/>
<path d="M3911 2985 c-36 -146 -59 -192 -108 -215 -30 -15 -31 -16 -38 -110
-5 -68 -13 -102 -26 -122 -11 -14 -19 -35 -19 -47 0 -27 -42 -55 -70 -46 -33
10 -52 48 -41 78 10 26 27 34 86 39 l30 3 3 92 3 92 -41 21 c-51 26 -69 62
-107 218 -15 61 -30 112 -33 112 -3 0 -36 -20 -74 -43 -65 -39 -73 -49 -127
-142 -58 -100 -58 -100 -37 -116 20 -16 21 -20 10 -130 -12 -135 -3 -215 34
-302 53 -125 53 -128 54 -274 0 -112 3 -145 15 -157 46 -45 241 -83 370 -70
138 13 333 80 352 121 5 10 5 105 -1 211 l-9 192 36 78 c47 101 61 168 53 258
-6 70 -6 74 18 89 l25 16 -36 47 c-20 26 -47 70 -61 99 -25 50 -30 54 -124 97
-54 25 -99 46 -101 46 -1 0 -18 -61 -36 -135z m289 -307 c0 -73 -15 -127 -62
-227 -35 -73 -137 -181 -171 -181 -22 1 -67 31 -67 46 0 4 28 45 61 92 73 99
99 162 99 237 l0 54 57 41 c53 38 59 40 70 24 8 -10 13 -47 13 -86z m-741 32
c28 -22 51 -47 51 -54 0 -8 -11 -38 -25 -68 -33 -71 -31 -105 10 -201 19 -44
35 -86 35 -92 0 -6 -11 -22 -25 -35 l-25 -23 -26 24 c-59 55 -107 194 -106
306 1 84 26 183 46 183 8 0 37 -18 65 -40z m445 -441 c20 -12 36 -28 36 -36 0
-28 -183 -188 -205 -179 -23 8 -18 40 10 66 14 13 23 26 20 28 -3 3 -19 -7
-35 -23 -22 -21 -30 -25 -30 -13 0 9 14 28 31 43 17 14 30 28 27 30 -2 3 -21
-9 -41 -26 -39 -32 -54 -18 -17 16 27 25 25 33 -6 27 -44 -8 -20 15 54 53 78
40 108 43 156 14z m-276 -16 c27 -7 29 -23 2 -23 -28 0 -26 -9 25 -91 55 -89
59 -112 8 -41 -21 28 -42 52 -47 52 -5 0 -4 -6 1 -12 36 -50 65 -99 61 -104
-3 -3 -22 18 -43 46 -45 61 -59 60 -18 -2 41 -60 45 -68 36 -68 -4 0 -23 23
-42 51 -43 63 -52 57 -12 -9 34 -54 39 -71 16 -52 -20 17 -115 184 -115 203 0
25 60 69 84 62 12 -4 31 -9 44 -12z"/>
<path d="M3759 2093 l-34 -38 38 34 c20 19 37 36 37 38 0 8 -8 0 -41 -34z"/>
<path d="M80 3045 c-15 -18 -7 -45 13 -45 8 0 20 6 26 13 8 11 6 18 -8 31 -16
15 -20 15 -31 1z"/>
<path d="M4903 3043 c-17 -6 -16 -32 1 -39 8 -3 25 0 37 7 22 11 22 12 4 25
-20 15 -23 15 -42 7z"/>
<path d="M50 2915 c-15 -18 -6 -45 14 -45 20 0 29 16 21 40 -8 24 -18 25 -35
5z"/>
<path d="M4927 2913 c-4 -3 -7 -15 -7 -25 0 -21 32 -25 49 -5 17 22 -22 50
-42 30z"/>
<path d="M30 2775 c-15 -18 -5 -35 20 -35 10 0 22 5 25 10 7 11 -12 40 -25 40
-4 0 -13 -7 -20 -15z"/>
<path d="M4941 2776 c-18 -22 15 -51 38 -34 9 7 18 14 20 15 5 4 -31 32 -40
33 -4 0 -12 -6 -18 -14z"/>
<path d="M19 2644 c-10 -12 -9 -18 4 -31 13 -13 19 -14 31 -3 21 17 20 27 -3
39 -14 8 -22 7 -32 -5z"/>
<path d="M4957 2653 c-11 -10 -8 -41 4 -49 6 -3 18 1 27 9 13 13 13 19 2 31
-14 17 -23 20 -33 9z"/>
<path d="M13 2513 c-20 -8 -15 -31 8 -38 25 -8 44 7 36 29 -6 16 -21 19 -44 9z"/>
<path d="M4954 2506 c-3 -8 0 -24 6 -36 l12 -22 15 21 c8 12 12 28 9 36 -7 19
-35 19 -42 1z"/>
<path d="M4954 2374 c-8 -33 6 -48 30 -31 16 12 17 16 5 35 -18 29 -27 28 -35
-4z"/>
<path d="M21 2376 c-18 -22 4 -62 25 -45 18 15 18 33 0 48 -10 9 -16 8 -25 -3z"/>
<path d="M4947 2253 c-11 -10 -8 -41 3 -48 19 -12 41 15 29 36 -10 20 -21 24
-32 12z"/>
<path d="M24 2235 c-4 -9 -2 -21 4 -27 15 -15 44 -1 40 19 -4 23 -36 29 -44 8z"/>
<path d="M46 2104 c-8 -21 -8 -21 9 -28 20 -7 45 3 45 19 0 12 -21 25 -40 25
-4 0 -11 -7 -14 -16z"/>
<path d="M4927 2113 c-11 -10 -8 -41 4 -49 6 -3 18 1 27 9 13 13 13 19 2 31
-14 17 -23 20 -33 9z"/>
<path d="M72 1977 c-9 -10 -7 -19 4 -36 l16 -22 15 21 c12 16 12 24 3 35 -15
18 -24 19 -38 2z"/>
<path d="M4896 1974 c-4 -10 -2 -22 3 -27 14 -14 43 0 39 20 -4 24 -34 28 -42
7z"/>
<path d="M1410 1877 l-125 -32 0 -380 0 -380 26 -3 c47 -6 74 32 113 157 64
204 147 672 119 670 -5 0 -64 -14 -133 -32z"/>
<path d="M935 1878 c77 -356 190 -736 230 -777 20 -20 67 -32 80 -20 7 7 18
726 11 753 -6 23 -11 26 -50 26 -24 0 -88 9 -141 20 -127 26 -137 26 -130 -2z"/>
<path d="M4014 1886 c-39 -17 -164 -46 -201 -46 -57 0 -56 12 -33 -356 27
-444 24 -424 60 -424 60 0 67 15 136 305 35 149 70 311 78 360 30 184 30 175
9 175 -10 -1 -32 -7 -49 -14z"/>
<path d="M103 1851 c-9 -14 -9 -21 0 -30 27 -27 61 4 37 34 -16 20 -23 19 -37
-4z"/>
<path d="M3460 1865 c0 -16 62 -305 84 -392 30 -116 88 -289 120 -353 24 -48
63 -77 89 -67 13 5 17 20 17 67 0 63 -25 508 -36 637 l-6 71 -61 7 c-34 4 -90
13 -125 21 -69 15 -82 17 -82 9z"/>
<path d="M4867 1853 c-11 -10 -8 -27 7 -48 13 -18 14 -18 25 4 10 17 10 26 0
37 -13 15 -22 18 -32 7z"/>
<path d="M147 1723 c-24 -23 12 -55 38 -33 12 10 13 16 4 26 -12 15 -31 18
-42 7z"/>
<path d="M4830 1715 c-22 -26 7 -46 39 -26 12 8 12 12 2 25 -17 20 -25 20 -41
1z"/>
<path d="M186 1595 c-8 -22 1 -35 25 -35 15 0 20 6 17 22 -4 27 -33 36 -42 13z"/>
<path d="M4774 1588 c-4 -6 1 -17 11 -24 23 -17 60 3 43 23 -13 16 -44 17 -54
1z"/>
<path d="M4731 1477 c-15 -19 -3 -49 18 -45 9 2 16 13 16 27 0 29 -17 37 -34
18z"/>
<path d="M238 1468 c-8 -21 2 -38 22 -38 26 0 43 23 28 38 -16 16 -45 15 -50
0z"/>
<path d="M297 1347 c-3 -7 2 -22 10 -32 14 -20 14 -20 28 -1 11 14 12 23 4 33
-14 17 -35 17 -42 0z"/>
<path d="M4664 1345 c-4 -9 0 -24 10 -33 15 -15 18 -15 26 -2 6 8 9 22 7 30
-3 21 -36 25 -43 5z"/>
<path d="M371 1236 c-18 -22 4 -62 25 -45 18 15 18 33 0 48 -10 9 -16 8 -25
-3z"/>
<path d="M4604 1236 c-19 -15 -19 -15 3 -37 l22 -22 7 27 c9 36 -6 50 -32 32z"/>
<path d="M434 1119 c-3 -6 0 -18 9 -26 12 -12 19 -13 36 -3 18 9 20 14 10 26
-14 17 -45 19 -55 3z"/>
<path d="M4526 1114 c-4 -10 0 -24 9 -33 14 -14 17 -14 25 -1 6 8 9 22 7 30
-3 21 -33 24 -41 4z"/>
<path d="M2304 1025 c-6 -15 11 -45 25 -45 3 0 15 7 25 15 16 12 17 17 6 30
-16 19 -49 19 -56 0z"/>
<path d="M2913 1030 c-28 -12 -30 -30 -3 -30 11 0 20 -5 20 -10 0 -10 -53
-263 -65 -313 -7 -27 -6 -28 20 -25 25 3 29 9 42 58 26 104 107 197 126 146 3
-8 -3 -51 -14 -96 -10 -45 -19 -88 -19 -95 0 -20 46 -30 76 -16 29 13 33 35 4
26 -26 -8 -26 9 0 117 24 100 24 93 4 112 -30 30 -65 20 -117 -36 -29 -31 -47
-44 -44 -33 4 11 13 54 22 95 9 41 18 83 21 93 4 13 0 17 -23 16 -15 0 -38 -4
-50 -9z"/>
<path d="M522 1018 c-17 -17 -15 -35 4 -42 17 -6 44 9 44 25 0 16 -36 29 -48
17z"/>
<path d="M1867 1024 c-14 -14 -7 -24 17 -24 14 0 27 -4 30 -8 5 -8 -33 -200
-54 -274 -9 -31 -16 -38 -35 -38 -16 0 -25 -6 -25 -15 0 -11 14 -15 58 -16
154 -4 222 7 265 41 51 40 42 128 -15 149 -20 7 -19 9 15 29 56 35 65 92 21
133 -24 22 -35 24 -147 27 -67 2 -125 0 -130 -4z m207 -36 c31 -14 40 -37 27
-71 -13 -32 -34 -44 -99 -53 l-51 -6 14 58 c8 33 14 65 15 72 0 15 60 16 94 0z
m-35 -159 c38 -14 54 -41 46 -79 -10 -44 -39 -64 -106 -70 -67 -7 -67 -8 -48
82 16 75 40 91 108 67z"/>
<path d="M4455 1014 c-16 -17 -16 -18 0 -30 33 -24 62 9 31 35 -11 9 -18 8
-31 -5z"/>
<path d="M2749 963 c-13 -21 -36 -44 -52 -51 -32 -15 -36 -32 -7 -32 25 0 25
1 -1 -116 -16 -74 -18 -98 -8 -110 13 -16 52 -18 80 -4 28 15 24 33 -6 26 -22
-6 -25 -3 -25 21 1 16 9 62 18 103 16 69 20 75 47 80 39 7 45 30 7 30 -29 0
-30 1 -21 38 15 66 5 71 -32 15z"/>
<path d="M601 907 c-8 -10 -7 -19 4 -33 13 -18 15 -18 31 -2 14 14 15 20 4 32
-15 19 -24 20 -39 3z"/>
<path d="M2544 883 c-19 -20 -34 -41 -34 -45 0 -4 -5 -8 -11 -8 -6 0 -8 8 -5
18 2 9 7 27 11 40 6 22 5 23 -41 20 -46 -3 -77 -28 -35 -28 17 0 20 -5 16 -22
-3 -13 -14 -65 -24 -116 l-19 -93 26 3 c21 2 28 10 34 41 10 47 32 91 70 140
31 38 58 49 58 21 0 -29 34 -10 41 23 7 38 4 43 -29 43 -15 0 -37 -14 -58 -37z"/>
<path d="M4366 904 c-10 -26 -7 -34 13 -34 26 0 44 23 29 38 -17 17 -35 15
-42 -4z"/>
<path d="M2237 903 c-13 -13 -7 -23 14 -23 17 0 20 -5 16 -22 -42 -196 -42
-199 -27 -208 23 -15 57 -12 76 8 17 16 17 17 -10 20 -20 3 -26 8 -22 20 3 9
14 54 26 99 11 45 23 89 26 97 5 13 -2 16 -43 16 -27 0 -53 -3 -56 -7z"/>
<path d="M697 813 c-24 -23 12 -55 38 -33 12 10 13 16 4 26 -12 15 -31 18 -42
7z"/>
<path d="M4276 803 c-9 -22 7 -36 33 -28 25 8 28 30 5 39 -24 9 -31 7 -38 -11z"/>
<path d="M790 720 c-14 -26 0 -46 24 -37 20 8 21 31 2 46 -12 10 -17 8 -26 -9z"/>
<path d="M4187 723 c-11 -11 -8 -40 6 -51 19 -16 43 24 26 44 -13 15 -22 18
-32 7z"/>
<path d="M892 628 c-16 -16 -15 -33 2 -47 22 -18 44 25 24 45 -11 11 -17 12
-26 2z"/>
<path d="M4084 625 c-12 -30 16 -45 46 -25 13 9 12 12 -4 25 -25 19 -35 19
-42 0z"/>
<path d="M3980 545 c-10 -12 -10 -18 0 -29 16 -20 42 -8 38 17 -4 26 -21 32
-38 12z"/>
<path d="M987 536 c-9 -23 18 -39 43 -26 17 9 19 14 9 26 -15 18 -45 18 -52 0z"/>
<path d="M1094 459 c-3 -6 0 -17 8 -25 12 -12 17 -12 32 -1 11 8 16 19 12 25
-9 15 -43 15 -52 1z"/>
<path d="M3865 460 c-6 -9 15 -50 25 -50 10 0 31 41 25 50 -4 6 -15 10 -25 10
-10 0 -21 -4 -25 -10z"/>
<path d="M1210 394 c-11 -12 -10 -18 3 -31 22 -23 52 0 36 28 -12 23 -22 24
-39 3z"/>
<path d="M3757 386 c-9 -23 18 -39 43 -26 17 9 19 14 9 26 -15 18 -45 18 -52
0z"/>
<path d="M1329 324 c-15 -18 0 -38 27 -32 25 5 28 25 6 37 -15 8 -23 7 -33 -5z"/>
<path d="M3652 328 c-16 -16 -15 -33 1 -46 20 -17 44 25 25 44 -11 11 -16 12
-26 2z"/>
<path d="M1453 273 c-17 -6 -16 -38 1 -52 10 -9 16 -8 25 3 23 28 4 62 -26 49z"/>
<path d="M3521 266 c-19 -22 14 -50 39 -33 25 15 25 24 1 37 -25 13 -26 13
-40 -4z"/>
<path d="M1567 208 c-2 -7 0 -21 5 -31 7 -15 12 -16 24 -6 21 17 18 49 -5 49
-11 0 -21 -6 -24 -12z"/>
<path d="M3394 209 c-3 -6 1 -18 10 -27 15 -15 17 -15 32 0 9 9 13 21 10 27
-9 14 -43 14 -52 0z"/>
<path d="M1702 178 c-16 -16 -15 -33 2 -47 21 -18 41 11 26 38 -13 25 -12 25
-28 9z"/>
<path d="M3277 173 c-12 -11 -8 -40 7 -52 12 -10 17 -8 26 9 16 29 -12 65 -33
43z"/>
<path d="M1821 127 c-8 -10 -7 -19 4 -33 13 -18 15 -18 31 -2 14 14 15 20 4
32 -15 19 -24 20 -39 3z"/>
<path d="M3146 124 c-5 -14 9 -54 19 -54 2 0 9 9 15 21 9 15 8 24 -1 35 -15
18 -25 18 -33 -2z"/>
<path d="M1953 100 c-10 -15 -10 -22 4 -35 14 -14 18 -15 30 -2 12 12 13 19 4
36 -14 26 -23 26 -38 1z"/>
<path d="M3020 94 c-11 -12 -11 -18 1 -30 13 -12 18 -12 34 0 16 12 17 16 6
30 -17 20 -25 20 -41 0z"/>
<path d="M2084 65 c-8 -20 3 -48 18 -43 6 2 16 12 22 21 8 13 7 20 -4 27 -21
14 -30 12 -36 -5z"/>
<path d="M2884 65 c-13 -32 23 -48 47 -19 10 13 10 17 -2 25 -21 13 -39 11
-45 -6z"/>
<path d="M2751 51 c-16 -28 14 -51 36 -28 13 13 14 19 3 31 -17 21 -27 20 -39
-3z"/>
<path d="M2216 51 c-9 -14 4 -41 19 -41 7 0 18 7 26 16 10 13 10 17 -2 25 -18
11 -36 11 -43 0z"/>
<path d="M2347 36 c-9 -23 18 -39 43 -26 17 9 19 14 9 26 -15 18 -45 18 -52 0z"/>
<path d="M2484 35 c-7 -18 3 -35 20 -35 14 0 28 35 18 44 -10 11 -33 6 -38 -9z"/>
<path d="M2614 39 c-3 -6 0 -18 9 -26 12 -12 18 -13 35 -2 16 10 18 16 10 26
-13 16 -44 17 -54 2z"/>
</g>
</svg>
