<?xml version="1.0" standalone="no"?>
<!DOCTYPE svg PUBLIC "-//W3C//DTD SVG 20010904//EN"
 "http://www.w3.org/TR/2001/REC-SVG-20010904/DTD/svg10.dtd">
<svg version="1.0" xmlns="http://www.w3.org/2000/svg"
 width="499.000000pt" height="500.000000pt" viewBox="0 0 499.000000 500.000000"
 preserveAspectRatio="xMidYMid meet">
<metadata>
Created by potrace 1.15, written by Peter Selinger 2001-2017
</metadata>
<g transform="translate(0.000000,500.000000) scale(0.100000,-0.100000)"
fill="#000000" stroke="none">
<path d="M2341 4977 c-15 -19 -3 -49 18 -45 9 2 16 13 16 27 0 29 -17 37 -34
18z"/>
<path d="M2474 4975 c-18 -13 -18 -15 -3 -30 14 -14 20 -15 38 -3 26 16 26 20
2 35 -15 9 -23 9 -37 -2z"/>
<path d="M2604 4965 c-13 -32 23 -48 47 -19 10 13 10 17 -2 25 -21 13 -39 11
-45 -6z"/>
<path d="M2203 4954 c-3 -9 0 -20 8 -25 17 -11 21 -11 38 0 12 8 12 12 2 25
-17 21 -40 20 -48 0z"/>
<path d="M2741 4956 c-9 -10 -8 -16 3 -26 12 -9 20 -9 37 3 21 15 21 15 1 26
-26 14 -27 14 -41 -3z"/>
<path d="M2080 4945 c-12 -15 -8 -45 8 -45 4 0 16 6 26 13 16 12 16 14 -2 30
-17 16 -21 16 -32 2z"/>
<path d="M2871 4941 c-14 -26 12 -50 34 -31 11 9 12 17 4 31 -5 10 -14 19 -19
19 -5 0 -14 -9 -19 -19z"/>
<path d="M3000 4920 c-13 -25 -5 -40 20 -40 26 0 33 15 18 40 -16 25 -24 25
-38 0z"/>
<path d="M1941 4917 c-8 -10 -7 -19 4 -33 13 -18 15 -18 31 -2 14 14 15 20 4
32 -15 19 -24 20 -39 3z"/>
<path d="M1823 4893 c-16 -6 -17 -25 -1 -41 11 -11 48 1 48 16 0 12 -34 29
-47 25z"/>
<path d="M3130 4885 c-10 -12 -10 -18 0 -30 15 -18 20 -18 44 0 20 15 20 15 0
30 -24 18 -29 18 -44 0z"/>
<path d="M1689 4844 c-16 -20 2 -38 30 -29 26 8 27 21 2 34 -14 8 -22 7 -32
-5z"/>
<path d="M3259 4844 c-15 -18 0 -38 27 -32 25 5 28 25 6 37 -15 8 -23 7 -33
-5z"/>
<path d="M1567 4813 c-11 -10 -8 -41 3 -48 19 -12 41 15 29 36 -10 20 -21 24
-32 12z"/>
<path d="M3382 4798 c-13 -13 2 -38 23 -38 21 0 36 25 23 38 -7 7 -17 12 -23
12 -6 0 -16 -5 -23 -12z"/>
<path d="M3505 4750 c-7 -23 1 -40 20 -40 21 0 27 17 15 40 -14 25 -27 26 -35
0z"/>
<path d="M1440 4745 c-15 -18 -5 -35 20 -35 10 0 22 5 25 10 7 11 -12 40 -25
40 -4 0 -13 -7 -20 -15z"/>
<path d="M3625 4690 c-8 -24 1 -40 21 -40 20 0 29 27 14 45 -17 20 -27 19 -35
-5z"/>
<path d="M1323 4689 c-15 -15 -5 -39 16 -39 29 0 43 21 23 36 -21 17 -25 17
-39 3z"/>
<path d="M1205 4620 c-8 -12 3 -50 14 -50 15 0 33 30 27 45 -6 17 -32 20 -41
5z"/>
<path d="M3735 4620 c-3 -5 -1 -19 5 -31 11 -20 12 -20 31 -3 14 13 16 20 8
31 -13 15 -35 17 -44 3z"/>
<path d="M1092 4548 c-8 -8 -9 -15 -1 -25 15 -17 34 -17 48 1 10 12 8 17 -8
25 -24 14 -24 14 -39 -1z"/>
<path d="M3851 4551 c-10 -7 -11 -13 -2 -30 15 -26 28 -27 36 -1 10 33 -6 48
-34 31z"/>
<path d="M983 4464 c-9 -24 11 -38 36 -25 25 14 27 27 5 35 -25 9 -34 7 -41
-10z"/>
<path d="M3954 4469 c-3 -6 0 -18 9 -26 12 -12 18 -13 35 -2 16 10 18 16 10
26 -13 16 -44 17 -54 2z"/>
<path d="M2295 4397 c-182 -38 -307 -154 -351 -328 -21 -82 -14 -157 25 -252
16 -40 32 -94 36 -120 5 -41 16 -59 61 -108 30 -32 54 -68 54 -79 0 -37 28
-76 98 -141 38 -35 74 -73 80 -84 6 -12 14 -64 18 -117 l7 -96 -64 -21 c-82
-27 -176 -88 -234 -153 -25 -28 -84 -102 -132 -164 -47 -63 -88 -114 -91 -114
-3 0 -2 117 1 261 6 195 11 269 22 296 20 48 19 89 -5 142 -23 49 -25 67 -15
127 7 41 7 41 -54 89 -35 28 -61 56 -61 66 0 15 -8 19 -34 19 -46 0 -96 -37
-126 -93 -14 -26 -29 -47 -33 -47 -4 0 -15 17 -24 38 -16 39 -41 72 -54 72 -5
0 -13 -9 -19 -21 -27 -50 59 -204 178 -316 l76 -71 -107 -325 c-103 -312 -107
-329 -107 -412 0 -66 6 -104 25 -161 14 -41 25 -85 25 -98 0 -13 10 -36 21
-51 19 -24 27 -26 68 -22 71 7 182 41 247 76 32 17 94 63 136 101 42 39 78 67
81 63 2 -5 5 -30 6 -58 3 -59 34 -157 63 -200 92 -134 220 -205 372 -205 139
0 265 60 344 163 57 75 83 134 97 222 4 22 9 46 11 54 3 9 33 -14 85 -64 90
-86 165 -127 313 -169 94 -28 122 -25 150 16 9 12 16 32 16 43 0 12 12 55 26
96 20 57 25 94 26 160 0 84 -4 98 -106 402 -58 173 -106 322 -106 330 0 9 25
37 56 64 125 108 227 288 190 339 -12 16 -16 17 -31 4 -10 -8 -26 -34 -36 -57
-10 -24 -22 -43 -26 -43 -4 0 -19 21 -33 46 -27 51 -79 91 -125 96 -26 3 -30
-1 -33 -24 -2 -17 -12 -30 -30 -37 -15 -6 -45 -29 -66 -51 l-38 -40 15 -38
c14 -35 14 -41 -9 -92 -27 -63 -30 -113 -10 -187 16 -61 34 -543 20 -543 -5 0
-20 19 -33 43 -39 68 -131 187 -196 252 -43 43 -91 76 -172 120 -62 32 -115
67 -118 76 -12 36 -35 187 -35 226 0 37 7 50 56 105 59 65 106 150 97 174 -3
7 7 38 22 69 25 51 26 59 16 101 -10 37 -9 55 3 93 24 76 27 116 16 188 -20
132 -84 225 -204 297 -114 69 -235 94 -341 73z m254 -381 c101 -34 124 -60
150 -166 12 -46 25 -88 30 -93 4 -4 20 -2 35 4 34 16 46 2 46 -54 0 -31 -6
-44 -30 -65 -24 -21 -30 -34 -30 -68 0 -53 -39 -112 -150 -226 -91 -92 -123
-109 -173 -90 -90 34 -245 153 -271 206 -9 20 -20 58 -23 85 -4 37 -9 48 -20
44 -32 -12 -95 79 -76 110 5 8 9 3 13 -13 3 -14 12 -25 20 -25 11 0 15 15 16
61 1 40 9 75 23 102 12 23 21 51 21 62 0 36 18 57 76 91 129 74 207 82 343 35z
m-910 -441 c-41 -30 -89 -92 -89 -115 0 -29 22 -42 42 -23 17 15 18 14 18 -21
0 -40 -8 -40 -59 4 -60 51 14 179 103 180 16 0 12 -6 -15 -25z m1755 -26 c29
-23 66 -88 66 -116 0 -17 -57 -83 -72 -83 -4 0 -8 16 -8 37 0 35 1 36 19 19
18 -17 20 -17 29 1 20 37 -50 143 -94 143 -7 0 -16 5 -19 10 -12 19 52 10 79
-11z m-1914 -85 l28 -61 139 -77 c77 -42 144 -76 149 -76 5 0 -13 20 -39 43
-49 45 -57 70 -36 110 17 34 51 67 67 67 12 0 12 -4 -2 -25 -21 -32 -20 -52 4
-100 37 -73 41 -102 20 -164 -15 -46 -21 -108 -30 -341 -6 -157 -13 -298 -16
-315 -4 -21 7 -8 34 42 22 40 59 99 82 130 51 68 161 195 166 191 1 -2 -2 -24
-7 -48 -6 -25 -11 -130 -12 -235 -2 -217 -7 -236 -86 -311 -56 -54 -135 -96
-231 -124 -41 -12 -92 -27 -113 -33 -50 -15 -59 -5 -103 123 -35 99 -36 108
-31 204 5 95 11 118 106 399 56 163 101 306 101 317 0 12 -20 34 -54 59 -29
22 -67 57 -85 79 -35 44 -97 171 -106 217 -6 29 -6 29 10 10 10 -11 30 -47 45
-81z m227 65 c58 -28 54 -41 -7 -21 l-50 16 -30 -29 c-27 -26 -30 -27 -30 -9
0 25 35 64 57 64 9 0 36 -9 60 -21z m1859 -26 c-4 -16 -24 -65 -46 -110 -38
-80 -93 -146 -170 -204 l-34 -26 17 -64 c10 -35 58 -186 107 -335 84 -253 90
-276 90 -354 0 -66 -6 -101 -31 -174 -37 -110 -53 -136 -81 -136 -25 0 -229
65 -269 85 -48 25 -124 91 -154 135 l-30 43 -7 221 c-3 122 -9 235 -13 251 -6
27 -1 24 55 -35 75 -80 159 -203 205 -301 35 -75 43 -82 24 -19 -5 19 -16 170
-23 335 -11 231 -17 309 -30 339 -22 53 -21 67 15 148 30 69 31 72 15 105 -9
18 -12 33 -8 33 16 0 53 -33 67 -60 25 -48 19 -70 -32 -117 -26 -23 -44 -43
-40 -43 4 0 70 34 147 76 l140 76 37 79 c35 78 61 105 49 52z m-200 9 c14 -9
34 -47 34 -63 0 -7 -13 0 -30 16 -28 27 -31 28 -71 16 -23 -7 -48 -15 -56 -18
-13 -5 -14 -3 -5 13 14 25 106 51 128 36z m-1647 -37 c2 -2 -7 -34 -20 -70
-22 -62 -24 -64 -43 -51 -29 19 -35 104 -9 124 15 11 59 9 72 -3z m1625 -31
c21 -20 21 -97 1 -114 -23 -19 -39 -6 -59 50 -19 51 -19 53 -1 67 24 17 40 17
59 -3z m-731 -255 c19 -115 40 -169 87 -222 39 -44 36 -64 -17 -145 -41 -61
-121 -120 -176 -129 -72 -11 -175 62 -236 169 -17 29 -31 56 -31 59 0 4 18 18
39 32 50 33 61 69 61 205 0 56 4 102 9 102 5 0 28 -7 52 -16 54 -19 97 -13
146 20 21 14 40 26 44 26 3 0 13 -45 22 -101z"/>
<path d="M2515 3841 c-8 -15 6 -20 81 -27 81 -8 79 8 -4 25 -64 13 -69 13 -77
2z"/>
<path d="M2240 3823 c-30 -8 -59 -18 -63 -22 -7 -7 133 -3 141 4 5 4 -10 35
-17 34 -3 0 -31 -7 -61 -16z"/>
<path d="M2615 3754 c-33 -14 -71 -30 -85 -36 l-25 -11 27 -9 c21 -7 37 -4 75
15 45 23 98 68 77 66 -5 0 -36 -12 -69 -25z"/>
<path d="M2140 3740 c0 -5 15 -20 33 -34 27 -21 45 -26 88 -26 49 0 79 12 79
31 0 3 -21 4 -47 2 -34 -4 -64 1 -100 16 -29 11 -53 17 -53 11z"/>
<path d="M2478 3588 c-4 -33 -62 -37 -94 -7 -21 20 -24 20 -30 5 -10 -25 9
-38 63 -43 56 -6 99 19 88 50 -10 24 -23 21 -27 -5z"/>
<path d="M2514 3484 c-29 -20 -115 -29 -155 -15 -42 15 -49 7 -10 -13 53 -28
151 -15 186 24 21 23 9 26 -21 4z"/>
<path d="M2390 3380 c20 -13 97 -13 105 0 4 6 -17 10 -57 10 -44 0 -59 -3 -48
-10z"/>
<path d="M4061 4391 c-16 -28 14 -51 36 -28 13 13 14 19 3 31 -17 21 -27 20
-39 -3z"/>
<path d="M882 4387 c-16 -19 2 -40 27 -32 25 8 28 30 5 39 -21 8 -20 8 -32 -7z"/>
<path d="M783 4294 c-9 -24 11 -38 37 -24 17 9 19 14 9 26 -15 19 -38 18 -46
-2z"/>
<path d="M4161 4296 c-18 -21 11 -41 39 -26 17 9 19 14 9 26 -15 18 -33 18
-48 0z"/>
<path d="M690 4210 c-15 -28 5 -57 26 -39 18 15 18 33 0 48 -12 10 -17 8 -26
-9z"/>
<path d="M4260 4205 c-22 -26 7 -46 39 -26 12 8 12 12 2 25 -17 20 -25 20 -41
1z"/>
<path d="M601 4116 c-16 -19 -7 -46 14 -46 22 0 30 29 13 46 -13 13 -16 13
-27 0z"/>
<path d="M4340 4105 c-15 -18 -5 -35 20 -35 10 0 22 5 25 10 7 11 -12 40 -25
40 -4 0 -13 -7 -20 -15z"/>
<path d="M4430 4010 c-13 -25 3 -52 26 -43 18 7 18 37 0 52 -12 10 -17 8 -26
-9z"/>
<path d="M514 3995 c-7 -18 3 -35 21 -35 15 0 28 27 19 41 -8 14 -34 11 -40
-6z"/>
<path d="M440 3895 c-19 -22 5 -48 31 -34 10 5 19 14 19 19 0 5 -9 14 -19 19
-14 8 -22 7 -31 -4z"/>
<path d="M4512 3898 c-16 -16 -15 -33 2 -47 22 -18 44 25 24 45 -11 11 -16 12
-26 2z"/>
<path d="M4581 3786 c-16 -19 -7 -46 14 -46 22 0 30 29 13 46 -13 13 -16 13
-27 0z"/>
<path d="M367 3783 c-25 -24 11 -49 40 -28 16 13 16 16 3 25 -17 11 -34 13
-43 3z"/>
<path d="M302 3670 c-14 -23 -8 -40 13 -40 19 0 27 17 20 40 -8 25 -17 25 -33
0z"/>
<path d="M4647 3673 c-4 -3 -7 -15 -7 -25 0 -22 32 -24 49 -4 10 12 8 17 -8
25 -23 13 -26 13 -34 4z"/>
<path d="M240 3545 c-6 -8 -9 -19 -5 -25 9 -15 41 -12 54 4 10 12 8 17 -8 25
-25 14 -26 14 -41 -4z"/>
<path d="M4707 3553 c-12 -11 -7 -41 7 -46 8 -3 22 3 31 13 16 17 15 19 -4 29
-23 13 -26 13 -34 4z"/>
<path d="M190 3425 c-15 -18 -5 -35 20 -35 10 0 22 5 25 10 7 11 -12 40 -25
40 -4 0 -13 -7 -20 -15z"/>
<path d="M4759 3424 c-15 -18 0 -38 27 -32 25 5 28 25 6 37 -15 8 -23 7 -33
-5z"/>
<path d="M142 3298 c-13 -13 2 -38 23 -38 21 0 36 25 23 38 -7 7 -17 12 -23
12 -6 0 -16 -5 -23 -12z"/>
<path d="M4803 3294 c-9 -25 11 -38 38 -24 22 12 22 13 4 26 -24 18 -34 18
-42 -2z"/>
<path d="M107 3183 c-12 -12 -7 -41 7 -46 22 -9 41 19 26 38 -14 16 -23 19
-33 8z"/>
<path d="M4840 3175 c-11 -13 -11 -19 3 -33 20 -19 41 -5 35 24 -4 24 -22 28
-38 9z"/>
<path d="M82 3048 c-14 -14 -16 -44 -3 -52 4 -3 16 3 25 12 13 15 14 21 3 36
-10 13 -15 14 -25 4z"/>
<path d="M4874 3035 c-6 -15 2 -35 14 -35 4 0 16 7 27 16 17 13 18 16 5 24
-22 14 -40 12 -46 -5z"/>
<path d="M43 2904 c-8 -21 16 -35 40 -23 14 8 16 13 6 25 -15 19 -38 18 -46
-2z"/>
<path d="M4893 2904 c-3 -8 1 -22 9 -30 13 -13 16 -13 27 0 7 9 11 23 7 31 -7
20 -35 19 -43 -1z"/>
<path d="M4920 2785 c-12 -15 -7 -45 7 -45 21 1 35 19 28 39 -8 25 -18 27 -35
6z"/>
<path d="M24 2779 c-3 -6 1 -18 10 -27 15 -15 17 -15 34 1 15 16 15 19 2 27
-20 13 -37 12 -46 -1z"/>
<path d="M20 2645 c-11 -13 -11 -19 3 -33 20 -19 41 -5 35 24 -4 24 -22 28
-38 9z"/>
<path d="M4923 2644 c-3 -8 1 -22 9 -30 12 -12 17 -12 33 0 16 12 17 16 6 30
-17 20 -40 21 -48 0z"/>
<path d="M5 2510 c-4 -7 -3 -16 3 -22 14 -14 47 -6 47 12 0 18 -40 26 -50 10z"/>
<path d="M4924 2509 c-3 -6 0 -18 9 -26 12 -12 18 -13 35 -2 16 10 18 16 10
26 -13 16 -44 17 -54 2z"/>
<path d="M13 2374 c-3 -8 1 -22 9 -30 13 -13 16 -13 27 0 7 9 11 23 7 31 -7
20 -35 19 -43 -1z"/>
<path d="M4927 2383 c-24 -23 12 -55 38 -33 12 10 13 16 4 26 -12 15 -31 18
-42 7z"/>
<path d="M30 2250 c-14 -26 0 -46 24 -37 20 8 21 31 2 46 -12 10 -17 8 -26 -9z"/>
<path d="M4914 2245 c-12 -29 15 -45 45 -26 12 8 12 12 2 25 -17 20 -40 21
-47 1z"/>
<path d="M49 2114 c-15 -18 0 -38 27 -32 25 5 28 25 6 37 -15 8 -23 7 -33 -5z"/>
<path d="M4900 2115 c-19 -22 5 -48 31 -34 10 5 19 14 19 19 0 5 -9 14 -19 19
-14 8 -22 7 -31 -4z"/>
<path d="M72 1989 c-18 -28 1 -53 29 -39 16 9 17 14 7 35 -14 30 -19 31 -36 4z"/>
<path d="M4866 1981 c-14 -15 -13 -18 5 -29 24 -15 51 0 43 23 -9 22 -31 25
-48 6z"/>
<path d="M101 1857 c-8 -10 -7 -19 4 -33 13 -18 15 -18 31 -2 14 14 15 20 4
32 -15 19 -24 20 -39 3z"/>
<path d="M4840 1855 c-10 -12 -10 -18 0 -30 15 -18 20 -18 44 0 20 15 20 15 0
30 -24 18 -29 18 -44 0z"/>
<path d="M4805 1729 c-9 -26 10 -48 26 -32 12 12 3 53 -11 53 -5 0 -12 -9 -15
-21z"/>
<path d="M143 1729 c-15 -15 -5 -39 17 -39 26 0 43 23 28 38 -15 15 -31 15
-45 1z"/>
<path d="M2450 1692 c-47 -5 -70 -12 -70 -22 0 -6 10 -10 21 -10 25 0 26 9
-17 -192 -33 -155 -32 -157 40 -165 58 -7 87 1 127 34 96 81 88 241 -13 243
-5 0 -27 -17 -50 -37 -39 -36 -41 -37 -35 -13 15 64 29 149 26 157 -2 4 -15 7
-29 5z m108 -187 c10 -21 8 -36 -14 -90 -27 -67 -59 -98 -97 -93 -48 7 -24
133 34 183 39 32 63 32 77 0z"/>
<path d="M2772 1691 c-18 -11 -12 -45 8 -48 27 -5 46 14 34 34 -13 21 -25 25
-42 14z"/>
<path d="M3732 1688 c-16 -16 -15 -33 4 -48 12 -11 18 -10 32 3 15 16 15 18
-4 37 -15 16 -22 18 -32 8z"/>
<path d="M3347 1683 c-12 -12 -7 -21 14 -26 14 -4 19 -11 15 -24 -7 -25 -66
-312 -66 -323 0 -6 9 -10 20 -10 21 0 40 27 40 57 0 27 45 113 75 146 55 58
68 26 39 -99 -21 -90 -16 -106 33 -102 26 2 39 8 41 20 2 12 -2 15 -17 11 -25
-6 -25 -6 -1 87 27 103 26 138 -4 151 -31 14 -75 -8 -112 -56 -15 -20 -28 -34
-30 -32 -2 1 7 49 20 105 l23 102 -42 0 c-23 0 -45 -3 -48 -7z"/>
<path d="M660 1664 c0 -11 6 -15 19 -11 39 10 40 -5 8 -153 -18 -80 -36 -151
-40 -157 -5 -7 -17 -13 -28 -13 -10 0 -19 -4 -19 -10 0 -6 35 -10 85 -10 68 0
85 3 85 15 0 8 -6 12 -12 10 -7 -3 -19 -1 -27 4 -12 8 -12 19 0 78 l14 68 88
3 c98 3 94 8 72 -82 -14 -60 -28 -78 -52 -69 -7 3 -13 -2 -13 -11 0 -13 14
-16 85 -16 65 0 85 3 85 14 0 9 -8 12 -25 8 -22 -4 -25 -1 -25 24 1 50 58 287
72 295 7 5 19 7 26 4 6 -2 12 2 12 10 0 12 -17 15 -85 15 -69 0 -85 -3 -85
-15 0 -9 8 -14 23 -12 20 2 22 -2 21 -38 0 -22 -4 -52 -7 -67 -7 -28 -8 -28
-93 -28 l-86 0 7 48 c7 53 28 92 50 92 7 0 17 5 20 10 4 6 -27 10 -84 10 -77
0 -91 -2 -91 -16z"/>
<path d="M3205 1619 c-9 -17 -32 -40 -51 -51 -35 -20 -37 -38 -5 -38 18 0 17
-4 -2 -98 -11 -54 -18 -106 -14 -115 11 -29 107 -16 107 15 0 6 -11 8 -25 6
-23 -5 -25 -2 -25 31 0 20 4 52 9 71 5 19 12 47 15 62 4 19 14 28 36 33 37 8
40 25 4 25 -24 0 -25 2 -18 45 8 53 -8 60 -31 14z"/>
<path d="M192 1609 c-17 -27 2 -56 24 -38 18 14 18 33 1 47 -10 8 -16 6 -25
-9z"/>
<path d="M4754 1599 c-3 -6 1 -18 10 -27 15 -15 17 -15 34 1 15 16 15 19 2 27
-20 13 -37 12 -46 -1z"/>
<path d="M1570 1573 c-8 -3 -30 -21 -48 -41 l-33 -37 7 38 c6 37 6 37 -29 37
-41 0 -67 -8 -67 -21 0 -5 7 -9 15 -9 9 0 18 -6 20 -13 3 -7 -8 -76 -25 -155
-16 -78 -30 -144 -30 -147 0 -3 -9 -5 -20 -5 -11 0 -20 -7 -20 -15 0 -12 14
-15 70 -15 72 0 91 13 45 30 -28 11 -29 17 -15 54 8 22 16 26 51 26 97 0 169
77 169 180 0 42 -5 61 -17 72 -22 19 -53 28 -73 21z m34 -75 c20 -57 -53 -178
-107 -178 -42 0 -49 48 -17 118 38 85 104 117 124 60z"/>
<path d="M1894 1561 c-17 -10 -43 -34 -58 -52 l-27 -34 7 48 6 47 -40 0 c-23
0 -45 -6 -52 -15 -10 -13 -9 -15 9 -15 26 0 26 -11 1 -129 -12 -52 -19 -95
-18 -96 2 -1 12 -5 24 -9 18 -6 22 0 33 48 14 61 58 137 95 161 47 31 58 -1
31 -89 -22 -71 -20 -112 5 -119 27 -7 73 6 78 22 3 10 -2 12 -22 7 -32 -8 -33
1 -6 104 24 91 24 104 4 124 -20 21 -32 20 -70 -3z"/>
<path d="M2141 1566 c-46 -17 -98 -78 -106 -127 -14 -82 29 -139 105 -139 138
0 218 185 111 257 -38 26 -60 27 -110 9z m90 -40 c16 -35 2 -128 -24 -168 -43
-63 -117 -42 -117 32 0 44 24 117 47 142 25 28 81 24 94 -6z"/>
<path d="M3989 1556 c-20 -14 -44 -36 -53 -51 -23 -34 -26 -30 -16 23 l7 42
-33 0 c-38 0 -64 -8 -64 -21 0 -5 7 -9 15 -9 20 0 19 -33 -4 -143 -16 -74 -16
-89 -5 -94 25 -9 44 6 44 34 0 59 73 175 118 188 19 5 22 3 22 -22 0 -15 -7
-60 -16 -99 -10 -39 -14 -79 -11 -88 12 -30 97 -16 97 16 0 5 -11 6 -25 2 -30
-7 -30 -9 -5 86 25 97 26 136 1 150 -27 14 -32 13 -72 -14z"/>
<path d="M4255 1567 c-94 -43 -144 -186 -87 -249 23 -27 75 -23 111 8 36 30
39 20 16 -47 -25 -70 -74 -90 -116 -48 -24 24 -49 19 -49 -10 0 -24 48 -36
117 -28 74 8 91 33 124 184 32 147 34 166 15 182 -22 18 -98 23 -131 8z m89
-33 c7 -19 -9 -96 -29 -135 -14 -27 -60 -59 -84 -59 -6 0 -17 13 -25 28 -13
26 -12 33 10 88 13 32 33 67 45 77 26 21 75 22 83 1z"/>
<path d="M1085 1556 c-17 -12 -17 -13 8 -20 27 -6 33 -24 59 -177 11 -60 10
-69 -8 -100 -24 -40 -50 -49 -59 -20 -9 30 -32 26 -38 -6 -3 -16 -3 -31 0 -35
8 -15 71 -8 91 10 25 21 212 336 212 357 0 7 -39 6 -67 -1 -28 -8 -30 -31 -3
-36 18 -3 15 -10 -27 -83 l-47 -80 -19 103 -19 102 -32 0 c-18 0 -40 -6 -51
-14z"/>
<path d="M2708 1563 c-24 -6 -23 -23 2 -23 25 0 25 -4 -5 -120 -17 -68 -21
-98 -13 -107 13 -16 70 -17 86 -1 19 19 14 29 -13 22 -14 -3 -25 -2 -25 2 0 5
13 60 29 122 l29 112 -37 -1 c-20 -1 -44 -3 -53 -6z"/>
<path d="M2877 1563 c-12 -11 -8 -23 8 -23 8 0 15 -9 15 -19 0 -17 -19 -120
-35 -189 -5 -21 -2 -23 21 -20 22 3 29 11 43 58 24 75 46 114 78 140 l27 21
16 -21 c20 -26 40 -10 40 32 0 24 -4 28 -30 28 -31 0 -49 -13 -87 -65 l-23
-30 7 48 6 47 -40 0 c-22 0 -43 -3 -46 -7z"/>
<path d="M3664 1555 c-19 -14 -18 -14 4 -15 27 0 27 1 2 -102 -30 -124 -29
-128 24 -128 28 0 48 6 57 16 12 15 10 16 -19 9 -32 -7 -33 -6 -26 22 9 37 43
173 50 196 4 14 -1 17 -33 17 -22 0 -48 -7 -59 -15z"/>
<path d="M240 1484 c-11 -12 -10 -18 3 -31 22 -23 52 0 36 28 -12 23 -22 24
-39 3z"/>
<path d="M4707 1483 c-24 -23 12 -55 38 -33 12 10 13 16 4 26 -12 15 -31 18
-42 7z"/>
<path d="M4651 1376 c-16 -19 -10 -50 10 -54 23 -4 32 26 15 49 -11 17 -15 18
-25 5z"/>
<path d="M294 1359 c-3 -6 0 -18 9 -26 12 -12 19 -13 36 -3 18 9 20 14 10 26
-14 17 -45 19 -55 3z"/>
<path d="M373 1253 c-17 -6 -16 -38 1 -52 21 -18 44 25 24 44 -7 7 -19 11 -25
8z"/>
<path d="M4580 1244 c-11 -12 -11 -18 1 -30 13 -12 18 -12 34 0 16 12 17 16 6
30 -17 20 -25 20 -41 0z"/>
<path d="M4513 1143 c-18 -6 -16 -42 2 -49 16 -6 45 12 45 27 0 12 -33 27 -47
22z"/>
<path d="M434 1129 c-3 -6 1 -18 10 -27 15 -15 17 -15 34 1 15 16 15 19 2 27
-20 13 -37 12 -46 -1z"/>
<path d="M4430 1030 c-14 -26 0 -46 24 -37 20 8 21 31 2 46 -12 10 -17 8 -26
-9z"/>
<path d="M520 1025 c-19 -22 5 -48 31 -34 10 5 19 14 19 19 0 5 -9 14 -19 19
-14 8 -22 7 -31 -4z"/>
<path d="M591 917 c-9 -11 -8 -17 4 -27 19 -16 47 -5 43 17 -4 23 -31 28 -47
10z"/>
<path d="M4343 914 c-3 -8 1 -22 9 -30 13 -13 16 -13 28 0 10 13 10 19 0 31
-16 19 -29 19 -37 -1z"/>
<path d="M687 816 c-9 -23 18 -39 43 -26 17 9 19 14 9 26 -15 18 -45 18 -52 0z"/>
<path d="M4257 823 c-25 -24 11 -49 40 -28 16 13 16 16 3 25 -17 11 -34 13
-43 3z"/>
<path d="M784 725 c-12 -31 23 -48 45 -21 10 12 8 17 -8 25 -26 14 -31 14 -37
-4z"/>
<path d="M4164 725 c-12 -31 23 -48 45 -21 10 12 8 17 -8 25 -26 14 -31 14
-37 -4z"/>
<path d="M881 642 c-8 -15 -7 -23 5 -33 18 -15 38 0 32 27 -5 25 -25 28 -37 6z"/>
<path d="M4067 643 c-24 -23 12 -55 38 -33 12 10 13 16 4 26 -12 15 -31 18
-42 7z"/>
<path d="M3960 560 c-15 -28 5 -57 26 -39 18 15 18 33 0 48 -12 10 -17 8 -26
-9z"/>
<path d="M984 549 c-3 -6 0 -17 8 -25 12 -12 17 -12 33 1 17 13 18 16 5 25
-20 13 -37 13 -46 -1z"/>
<path d="M1092 480 c-15 -25 -8 -40 18 -40 25 0 33 15 20 40 -14 25 -22 25
-38 0z"/>
<path d="M3852 483 c-12 -24 -4 -43 18 -43 10 0 20 6 23 13 5 15 -10 47 -23
47 -5 0 -13 -8 -18 -17z"/>
<path d="M1207 413 c-12 -12 -7 -41 7 -46 19 -8 38 16 30 37 -6 16 -25 21 -37
9z"/>
<path d="M3740 405 c-9 -11 -9 -19 3 -35 14 -21 21 -18 41 17 11 19 -29 36
-44 18z"/>
<path d="M1321 347 c-15 -19 -3 -49 18 -45 9 2 16 13 16 27 0 29 -17 37 -34
18z"/>
<path d="M3627 343 c-24 -23 12 -55 38 -33 12 10 13 16 4 26 -12 15 -31 18
-42 7z"/>
<path d="M1440 285 c-25 -30 10 -61 38 -33 7 7 8 17 1 30 -12 22 -23 23 -39 3z"/>
<path d="M3507 283 c-24 -23 12 -55 38 -33 12 10 13 16 4 26 -12 15 -31 18
-42 7z"/>
<path d="M1561 232 c-7 -13 -6 -23 1 -30 27 -27 56 -6 38 28 -13 25 -26 26
-39 2z"/>
<path d="M3382 228 c-8 -8 -9 -15 -1 -25 15 -17 34 -17 48 1 10 12 8 17 -8 25
-24 14 -24 14 -39 -1z"/>
<path d="M1685 180 c-8 -12 3 -50 14 -50 16 0 31 28 25 44 -7 18 -29 21 -39 6z"/>
<path d="M3256 181 c-8 -13 4 -41 18 -41 6 0 19 7 29 15 18 13 18 14 -2 24
-24 13 -38 14 -45 2z"/>
<path d="M1816 141 c-14 -16 -15 -20 -2 -30 11 -9 20 -10 35 -1 26 13 26 22 2
37 -15 10 -22 9 -35 -6z"/>
<path d="M3127 136 c-3 -8 1 -20 9 -27 12 -10 18 -9 31 3 8 9 12 21 9 27 -10
16 -43 14 -49 -3z"/>
<path d="M1941 107 c-8 -10 -7 -19 4 -33 13 -18 15 -18 31 -2 14 14 15 20 4
32 -15 19 -24 20 -39 3z"/>
<path d="M3000 110 c-13 -8 -13 -11 1 -25 19 -19 51 -9 47 14 -4 19 -27 25
-48 11z"/>
<path d="M2074 85 c-12 -29 15 -45 46 -25 13 8 12 11 -5 24 -25 19 -34 20 -41
1z"/>
<path d="M2870 84 c-11 -12 -11 -18 1 -29 13 -13 18 -13 37 1 22 15 22 17 5
30 -23 17 -28 17 -43 -2z"/>
<path d="M2211 71 c-14 -9 -7 -51 8 -51 15 0 33 30 27 45 -6 17 -15 19 -35 6z"/>
<path d="M2740 65 c-22 -26 7 -46 39 -26 12 8 12 12 2 25 -17 20 -25 20 -41 1z"/>
<path d="M2341 56 c-19 -22 4 -62 25 -45 17 14 15 50 -2 56 -6 2 -16 -3 -23
-11z"/>
<path d="M2607 63 c-12 -11 -8 -40 7 -52 12 -10 17 -8 26 9 18 34 -8 68 -33
43z"/>
<path d="M2466 51 c-8 -13 20 -45 32 -37 20 12 14 46 -7 46 -11 0 -22 -4 -25
-9z"/>
</g>
</svg>
