<?xml version="1.0" standalone="no"?>
<!DOCTYPE svg PUBLIC "-//W3C//DTD SVG 20010904//EN"
 "http://www.w3.org/TR/2001/REC-SVG-20010904/DTD/svg10.dtd">
<svg version="1.0" xmlns="http://www.w3.org/2000/svg"
 width="499.000000pt" height="500.000000pt" viewBox="0 0 499.000000 500.000000"
 preserveAspectRatio="xMidYMid meet">
<metadata>
Created by potrace 1.15, written by Peter Selinger 2001-2017
</metadata>
<g transform="translate(0.000000,500.000000) scale(0.100000,-0.100000)"
fill="#000000" stroke="none">
<path d="M2340 4974 c-11 -12 -11 -18 1 -29 13 -13 18 -13 37 1 22 15 22 17 5
30 -23 17 -28 17 -43 -2z"/>
<path d="M2477 4983 c-24 -23 12 -55 38 -33 12 10 13 16 4 26 -12 15 -31 18
-42 7z"/>
<path d="M2610 4975 c-17 -21 6 -61 26 -44 18 15 18 45 0 52 -8 3 -20 0 -26
-8z"/>
<path d="M2206 4964 c-4 -10 -2 -22 3 -27 14 -14 43 0 39 20 -4 24 -34 28 -42
7z"/>
<path d="M2742 4968 c-8 -8 -9 -15 -1 -25 13 -15 28 -16 49 -3 13 8 12 11 -5
24 -24 19 -28 19 -43 4z"/>
<path d="M2075 4950 c-9 -15 4 -50 20 -50 18 0 28 30 14 46 -14 17 -25 18 -34
4z"/>
<path d="M2877 4953 c-24 -23 12 -55 38 -33 12 10 13 16 4 26 -12 15 -31 18
-42 7z"/>
<path d="M3000 4924 c-11 -12 -10 -18 3 -32 16 -15 18 -15 34 0 13 14 14 20 3
32 -7 9 -16 16 -20 16 -4 0 -13 -7 -20 -16z"/>
<path d="M1945 4920 c-8 -13 3 -50 15 -50 13 0 32 39 25 50 -8 13 -32 13 -40
0z"/>
<path d="M1815 4890 c-8 -12 3 -50 14 -50 15 0 33 30 27 45 -6 17 -32 20 -41
5z"/>
<path d="M3137 4893 c-24 -23 12 -55 38 -33 12 10 13 16 4 26 -12 15 -31 18
-42 7z"/>
<path d="M3260 4854 c-11 -12 -10 -18 3 -31 22 -23 52 0 36 28 -12 23 -22 24
-39 3z"/>
<path d="M1684 4849 c-3 -6 0 -18 9 -26 14 -14 17 -14 37 0 22 15 22 15 2 26
-26 14 -39 14 -48 0z"/>
<path d="M1573 4813 c-15 -5 -17 -39 -3 -48 9 -6 50 15 50 25 0 10 -35 27 -47
23z"/>
<path d="M3392 4808 c-27 -27 -6 -56 28 -38 25 13 26 26 2 39 -13 7 -23 6 -30
-1z"/>
<path d="M1440 4754 c-11 -12 -10 -18 3 -32 16 -15 18 -15 34 0 13 14 14 20 3
32 -7 9 -16 16 -20 16 -4 0 -13 -7 -20 -16z"/>
<path d="M3504 4745 c-13 -32 23 -48 47 -19 10 13 10 17 -2 25 -21 13 -39 11
-45 -6z"/>
<path d="M1317 4687 c-3 -7 1 -21 9 -32 14 -18 14 -18 28 1 10 13 11 23 4 31
-14 17 -35 17 -41 0z"/>
<path d="M3623 4684 c-3 -8 1 -22 9 -30 13 -13 16 -13 27 0 7 9 11 23 7 31 -7
20 -35 19 -43 -1z"/>
<path d="M1213 4633 c-17 -6 -16 -38 1 -52 21 -18 44 25 24 44 -7 7 -19 11
-25 8z"/>
<path d="M3745 4629 c-4 -5 -4 -22 0 -36 l6 -26 21 21 c18 17 19 23 8 36 -15
19 -26 20 -35 5z"/>
<path d="M1094 4545 c-4 -8 0 -22 7 -31 12 -14 14 -14 26 2 9 13 10 21 2 31
-15 17 -28 17 -35 -2z"/>
<path d="M3850 4541 c0 -31 24 -43 38 -20 15 24 8 39 -19 39 -12 0 -19 -7 -19
-19z"/>
<path d="M986 4474 c-12 -31 13 -44 44 -24 13 9 12 12 -4 25 -25 19 -32 19
-40 -1z"/>
<path d="M3963 4479 c-27 -27 13 -51 47 -29 13 8 12 11 -5 24 -24 19 -28 19
-42 5z"/>
<path d="M2861 4402 c-12 -22 3 -44 25 -35 18 7 18 27 0 42 -12 10 -17 8 -25
-7z"/>
<path d="M880 4395 c-11 -13 -11 -19 3 -33 20 -19 41 -5 35 24 -4 24 -22 28
-38 9z"/>
<path d="M1503 4388 c-23 -26 -39 -68 -26 -68 19 0 73 61 73 82 0 16 -27 7
-47 -14z"/>
<path d="M2163 4398 c-12 -6 -30 -30 -39 -54 -11 -30 -23 -44 -35 -44 -11 0
-19 -4 -19 -10 0 -5 9 -10 20 -10 11 0 20 -3 20 -7 0 -33 -52 -228 -62 -235
-19 -12 -28 -10 -28 7 0 8 -7 15 -15 15 -9 0 -15 -9 -15 -25 0 -22 4 -25 39
-25 63 0 73 19 111 211 10 52 14 57 43 64 l32 8 -27 4 c-22 3 -28 10 -28 29 0
24 31 64 49 64 5 0 13 -9 16 -20 9 -27 22 -25 27 4 7 36 -39 48 -89 24z"/>
<path d="M2715 4396 c-35 -10 -38 -13 -22 -22 18 -10 18 -15 -6 -133 -21 -106
-23 -124 -10 -137 19 -18 37 -18 53 1 10 12 9 15 -8 15 -20 0 -19 3 9 137 16
76 28 140 27 144 -2 3 -21 1 -43 -5z"/>
<path d="M1343 4392 c-36 -4 -46 -22 -13 -22 25 0 25 -11 -2 -138 -19 -92 -25
-105 -47 -115 -23 -11 -20 -12 38 -15 36 -2 69 2 74 7 8 8 6 11 -6 11 -29 0
-30 24 -6 135 19 95 25 108 47 116 14 5 23 11 21 13 -8 6 -75 12 -106 8z"/>
<path d="M4064 4389 c-3 -6 0 -17 8 -25 12 -12 17 -12 33 1 17 13 18 16 5 25
-20 13 -37 13 -46 -1z"/>
<path d="M4172 4318 c-16 -16 -15 -45 2 -51 23 -9 39 18 26 42 -13 25 -12 25
-28 9z"/>
<path d="M1684 4284 l-34 -35 0 31 c0 25 -3 31 -16 26 -9 -3 -24 -6 -35 -6
-10 0 -19 -4 -19 -10 0 -5 7 -10 15 -10 18 0 18 2 0 -80 -8 -36 -14 -73 -15
-82 0 -20 29 -25 34 -5 2 6 9 32 16 57 7 26 26 58 47 79 33 33 37 34 43 17 4
-11 3 -36 0 -55 -4 -20 -11 -53 -15 -73 -6 -34 -5 -38 13 -38 16 0 22 9 27 40
8 47 63 135 85 135 17 0 18 -24 5 -117 -8 -57 -7 -58 16 -58 13 0 31 5 39 10
13 8 12 10 -2 10 -24 0 -23 12 7 147 6 24 -17 53 -42 53 -8 0 -31 -17 -49 -37
l-34 -37 0 27 c0 23 -23 47 -46 47 -3 0 -22 -16 -40 -36z"/>
<path d="M2291 4299 c-33 -17 -48 -33 -63 -67 -22 -49 -18 -101 9 -123 22 -19
85 -17 117 5 36 23 28 30 -14 12 -42 -17 -69 -10 -76 21 -8 30 -1 37 51 53 59
18 85 38 85 63 -1 53 -45 68 -109 36z m66 -26 c7 -19 -43 -63 -72 -63 -31 0
-31 5 1 47 26 34 63 42 71 16z"/>
<path d="M2520 4302 c-73 -36 -107 -144 -59 -188 25 -23 90 -22 126 1 31 21
25 29 -11 15 -43 -16 -74 -12 -86 11 -16 29 -6 46 32 54 40 9 98 36 98 46 0 4
3 14 6 22 7 19 -29 57 -53 57 -10 0 -34 -8 -53 -18z m60 -30 c0 -23 -25 -47
-63 -61 -33 -13 -36 0 -7 47 23 37 70 46 70 14z"/>
<path d="M3075 4309 c-11 -6 -30 -24 -43 -42 l-23 -32 3 34 c2 18 0 33 -4 32
-5 -1 -21 -1 -38 -1 -16 0 -30 -4 -30 -10 0 -5 7 -10 15 -10 18 0 18 2 0 -80
-8 -36 -14 -73 -15 -83 0 -40 30 -8 72 73 65 128 102 116 62 -20 -15 -51 -15
-55 2 -67 22 -16 26 -16 50 2 17 13 17 14 2 15 -22 0 -22 8 -1 99 17 71 17 74
-2 87 -22 16 -23 16 -50 3z"/>
<path d="M3252 4300 c-67 -41 -96 -146 -52 -190 25 -25 41 -25 74 1 26 20 26
20 26 0 0 -33 -18 -69 -41 -81 -18 -10 -26 -8 -50 9 l-28 21 -6 -21 c-9 -28
-4 -31 54 -32 76 -3 97 24 127 155 30 134 30 134 -7 147 -44 15 -59 14 -97 -9z
m77 -13 c8 -10 7 -28 -3 -68 -21 -78 -75 -115 -104 -69 -10 16 -8 29 13 75 15
34 33 59 47 65 31 12 34 12 47 -3z"/>
<path d="M782 4288 c4 -27 18 -31 43 -12 17 13 18 16 5 24 -28 18 -52 12 -48
-12z"/>
<path d="M2833 4303 c-33 -4 -47 -23 -18 -23 18 0 18 0 0 -75 -8 -33 -15 -70
-15 -81 0 -27 25 -38 53 -22 19 11 20 13 5 16 -22 4 -22 0 2 92 21 82 24 101
13 98 -5 0 -23 -3 -40 -5z"/>
<path d="M686 4204 c-4 -10 0 -24 9 -33 14 -14 17 -14 25 -1 6 8 9 22 7 30 -3
21 -33 24 -41 4z"/>
<path d="M4254 4205 c-4 -9 0 -24 10 -33 15 -15 18 -15 26 -2 6 8 9 22 7 30
-3 21 -36 25 -43 5z"/>
<path d="M3437 4133 c-14 -13 -6 -33 12 -33 25 0 38 20 20 31 -17 11 -24 11
-32 2z"/>
<path d="M3545 4130 c-4 -7 0 -19 9 -28 15 -15 18 -15 26 -2 5 8 8 20 7 25 -5
15 -34 18 -42 5z"/>
<path d="M3665 4130 c-8 -13 3 -30 20 -30 20 0 30 21 14 31 -18 11 -26 11 -34
-1z"/>
<path d="M603 4109 c-16 -16 -5 -39 18 -39 24 0 37 29 18 41 -18 11 -23 11
-36 -2z"/>
<path d="M4350 4105 c-11 -13 -11 -19 4 -33 15 -15 18 -15 26 -2 22 33 -6 64
-30 35z"/>
<path d="M522 4011 c-18 -11 -11 -45 9 -49 9 -2 19 5 23 14 8 22 -14 46 -32
35z"/>
<path d="M4432 4008 c-16 -16 -15 -26 6 -37 12 -6 23 -5 37 5 19 14 19 14 -1
29 -23 18 -27 18 -42 3z"/>
<path d="M2340 3910 c-173 -24 -391 -89 -489 -147 -173 -102 -318 -317 -378
-561 -25 -101 -22 -290 6 -421 18 -81 22 -122 17 -180 -19 -235 -19 -264 3
-353 29 -123 71 -201 145 -270 91 -84 93 -87 146 -168 49 -76 243 -277 330
-343 162 -122 355 -181 495 -152 82 17 142 50 245 132 124 99 287 299 358 439
23 45 79 104 99 104 18 0 87 95 118 162 60 131 70 312 25 433 l-23 59 27 111
c15 60 30 144 35 185 10 95 -2 268 -24 340 -24 79 -106 234 -165 312 -99 131
-265 238 -455 294 -80 24 -110 27 -270 30 -99 1 -209 -1 -245 -6z m398 -599
c155 -45 329 -157 411 -265 51 -68 95 -157 118 -237 15 -54 18 -103 18 -316 0
-242 1 -252 17 -230 17 20 26 47 42 120 9 37 23 26 31 -23 11 -67 25 -34 25
60 0 88 5 120 20 120 13 0 30 -86 30 -152 0 -84 -21 -160 -71 -259 -48 -96
-78 -129 -116 -129 -25 0 -33 -8 -62 -67 -102 -210 -293 -429 -453 -521 -137
-78 -315 -66 -518 35 -80 40 -112 64 -205 155 -121 116 -201 221 -260 338 -21
41 -40 77 -41 79 -2 2 -12 -7 -22 -19 l-19 -24 -26 26 c-34 34 -90 147 -117
237 -28 91 -33 248 -10 276 14 17 16 14 22 -36 3 -30 6 -80 7 -111 1 -76 17
-74 25 3 9 75 23 67 37 -20 9 -57 39 -127 46 -105 1 5 7 126 13 269 11 286 18
329 62 425 59 124 267 296 434 356 92 34 176 43 344 39 110 -2 163 -8 218 -24z"/>
<path d="M2133 3030 c-55 -8 -190 -66 -180 -77 4 -3 41 0 84 7 88 14 212 17
261 6 29 -7 32 -6 32 17 0 52 -7 57 -79 56 -36 -1 -89 -5 -118 -9z"/>
<path d="M2682 3028 c-15 -15 -16 -45 -2 -53 6 -4 50 -1 99 6 77 11 97 10 162
-5 115 -26 119 -27 119 -18 0 11 -98 56 -155 71 -55 15 -208 14 -223 -1z"/>
<path d="M2105 2720 c-26 -10 -58 -47 -77 -85 -8 -16 -20 -29 -26 -27 -7 1
-12 -2 -12 -8 0 -22 160 -56 215 -46 51 10 69 42 53 92 -21 64 -93 99 -153 74z
m98 -48 c17 -15 25 -72 10 -72 -5 0 -23 19 -42 41 -26 32 -31 43 -20 49 14 9
24 6 52 -18z"/>
<path d="M2784 2682 c-24 -19 -54 -73 -54 -96 0 -46 85 -60 195 -32 72 19 84
27 57 37 -12 5 -22 17 -22 28 0 11 -14 33 -31 50 -25 26 -38 31 -77 31 -29 0
-55 -7 -68 -18z m117 -32 c12 -7 19 -21 19 -41 l0 -31 -31 26 c-17 14 -35 26
-40 26 -5 0 -9 7 -9 15 0 17 32 20 61 5z"/>
<path d="M2280 2133 c0 -19 47 -76 78 -95 51 -32 189 -33 242 -2 32 18 85 82
76 91 -2 2 -28 -6 -57 -18 -79 -32 -193 -31 -276 3 -35 14 -63 23 -63 21z"/>
<path d="M2735 1959 c-118 -27 -141 -29 -250 -24 -66 3 -151 10 -190 15 -38 6
-98 13 -132 16 -62 7 -63 6 -63 -17 0 -27 58 -154 91 -200 27 -38 71 -59 201
-98 125 -36 155 -38 237 -12 139 43 207 108 246 234 30 99 31 117 8 116 -10 0
-76 -14 -148 -30z m45 -68 c0 -5 -20 -18 -45 -30 -130 -61 -449 -48 -511 20
-17 18 -9 19 269 19 161 0 287 -4 287 -9z m-76 -172 c-38 -42 -74 -53 -174
-54 -78 0 -104 4 -143 22 -73 34 -54 47 62 41 53 -3 128 -2 166 2 121 12 111
13 89 -11z"/>
<path d="M443 3903 c-17 -6 -16 -28 0 -42 10 -8 19 -7 32 3 16 12 17 16 6 30
-14 17 -18 18 -38 9z"/>
<path d="M4511 3896 c-10 -12 -10 -19 2 -36 12 -18 16 -18 26 -6 14 17 11 48
-5 53 -6 2 -17 -3 -23 -11z"/>
<path d="M372 3788 c-27 -27 -3 -54 31 -36 22 11 22 25 -1 37 -13 7 -23 6 -30
-1z"/>
<path d="M4580 3785 c-23 -28 21 -50 48 -23 9 9 7 14 -6 24 -22 17 -27 17 -42
-1z"/>
<path d="M300 3665 c-15 -18 -5 -35 20 -35 23 0 32 13 24 34 -8 20 -28 21 -44
1z"/>
<path d="M4647 3673 c-24 -23 12 -55 38 -33 12 10 13 16 4 26 -12 15 -31 18
-42 7z"/>
<path d="M241 3556 c-15 -18 -3 -46 19 -46 22 0 30 19 18 43 -11 21 -22 22
-37 3z"/>
<path d="M4707 3553 c-24 -23 12 -55 38 -33 12 10 13 16 4 26 -12 15 -31 18
-42 7z"/>
<path d="M191 3427 c-14 -17 -4 -47 15 -47 22 0 29 29 12 46 -13 13 -16 13
-27 1z"/>
<path d="M4760 3425 c-15 -18 -5 -35 20 -35 10 0 22 5 25 10 7 11 -12 40 -25
40 -4 0 -13 -7 -20 -15z"/>
<path d="M4805 3299 c-10 -30 11 -48 32 -27 13 14 14 20 3 32 -17 22 -27 20
-35 -5z"/>
<path d="M137 3296 c-6 -15 11 -36 29 -36 6 0 17 7 25 16 10 13 10 17 -2 25
-21 13 -46 11 -52 -5z"/>
<path d="M103 3164 c-9 -24 11 -38 36 -25 25 14 27 27 5 35 -25 9 -34 7 -41
-10z"/>
<path d="M4844 3165 c-4 -9 -2 -21 4 -27 15 -15 44 -1 40 19 -4 23 -36 29 -44
8z"/>
<path d="M74 3046 c-9 -37 10 -56 33 -33 16 16 16 18 -4 39 l-22 21 -7 -27z"/>
<path d="M4876 3043 c-4 -9 -1 -23 7 -30 12 -12 16 -12 27 1 10 13 10 19 0 31
-16 19 -26 19 -34 -2z"/>
<path d="M43 2904 c-3 -8 1 -22 9 -30 13 -13 16 -13 27 0 7 9 11 23 7 31 -7
20 -35 19 -43 -1z"/>
<path d="M4901 2907 c-8 -10 -7 -19 4 -33 15 -19 15 -19 30 0 11 14 12 23 4
33 -6 7 -15 13 -19 13 -4 0 -13 -6 -19 -13z"/>
<path d="M30 2775 c-11 -13 -11 -19 4 -33 15 -15 18 -15 26 -2 22 33 -6 64
-30 35z"/>
<path d="M4918 2778 c-8 -21 2 -38 22 -38 25 0 35 17 20 35 -15 18 -36 19 -42
3z"/>
<path d="M21 2647 c-15 -19 -3 -49 18 -45 9 2 16 13 16 27 0 29 -17 37 -34 18z"/>
<path d="M4930 2644 c-11 -12 -10 -18 3 -32 16 -15 18 -15 34 0 13 14 14 20 3
32 -7 9 -16 16 -20 16 -4 0 -13 -7 -20 -16z"/>
<path d="M4 2508 c-6 -10 20 -38 37 -38 10 0 20 30 13 41 -8 13 -41 11 -50 -3z"/>
<path d="M4923 2513 c-18 -7 -16 -16 8 -31 15 -10 24 -10 34 -2 29 24 -4 49
-42 33z"/>
<path d="M13 2374 c-10 -26 13 -39 44 -25 27 12 27 13 8 27 -25 18 -44 18 -52
-2z"/>
<path d="M4930 2375 c-23 -28 21 -50 48 -23 9 9 7 14 -6 24 -22 17 -27 17 -42
-1z"/>
<path d="M26 2244 c-4 -10 -2 -22 3 -27 14 -14 43 0 39 20 -4 24 -34 28 -42 7z"/>
<path d="M4919 2244 c-15 -18 0 -38 27 -32 25 5 28 25 6 37 -15 8 -23 7 -33
-5z"/>
<path d="M43 2104 c-3 -8 1 -22 9 -30 13 -13 16 -13 27 0 7 9 11 23 7 31 -7
20 -35 19 -43 -1z"/>
<path d="M4895 2110 c-6 -10 11 -50 22 -50 12 0 31 34 26 47 -6 15 -39 17 -48
3z"/>
<path d="M70 1984 c-11 -12 -10 -18 3 -31 22 -23 52 0 36 28 -12 23 -22 24
-39 3z"/>
<path d="M4876 1985 c-6 -17 2 -45 14 -45 4 0 13 7 20 15 10 12 10 18 0 30 -7
8 -16 15 -20 15 -4 0 -10 -7 -14 -15z"/>
<path d="M4847 1863 c-11 -10 -8 -41 4 -49 6 -3 18 1 27 9 13 13 13 19 2 31
-14 17 -23 20 -33 9z"/>
<path d="M107 1853 c-25 -24 11 -49 40 -28 16 13 16 16 3 25 -17 11 -34 13
-43 3z"/>
<path d="M140 1725 c-10 -12 -10 -18 0 -30 15 -18 20 -18 44 0 20 15 20 15 0
30 -24 18 -29 18 -44 0z"/>
<path d="M4803 1714 c-9 -24 11 -38 36 -25 25 14 27 27 5 35 -25 9 -34 7 -41
-10z"/>
<path d="M4762 1608 c-17 -17 -15 -35 5 -42 22 -9 36 7 28 33 -7 24 -16 26
-33 9z"/>
<path d="M190 1595 c-10 -12 -10 -18 0 -30 7 -8 16 -15 20 -15 12 0 20 28 14
45 -4 8 -10 15 -14 15 -4 0 -13 -7 -20 -15z"/>
<path d="M240 1474 c-11 -12 -10 -18 3 -31 15 -15 18 -15 37 2 20 18 20 20 4
32 -23 17 -29 16 -44 -3z"/>
<path d="M4703 1474 c-3 -8 1 -22 9 -30 12 -12 17 -12 33 0 16 12 17 16 6 30
-17 20 -40 21 -48 0z"/>
<path d="M300 1355 c-23 -28 15 -47 50 -25 13 8 12 11 -5 24 -25 19 -30 19
-45 1z"/>
<path d="M4644 1355 c-8 -20 4 -35 26 -35 25 0 35 17 20 35 -16 19 -39 19 -46
0z"/>
<path d="M363 1234 c-10 -26 13 -40 42 -24 23 12 23 14 7 26 -23 18 -41 17
-49 -2z"/>
<path d="M4574 1239 c-3 -6 0 -18 9 -26 12 -12 19 -13 36 -3 18 9 20 14 10 26
-14 17 -45 19 -55 3z"/>
<path d="M2043 1203 c-26 -5 -31 -23 -8 -23 20 0 19 -17 -6 -136 -12 -56 -19
-109 -16 -117 9 -23 80 -31 115 -13 42 22 74 70 79 120 10 81 -52 112 -108 53
l-22 -22 7 35 c20 104 20 110 0 109 -11 -1 -29 -4 -41 -6z m118 -136 c16 -35
-24 -135 -58 -143 -16 -4 -30 -1 -40 9 -23 23 0 99 39 132 36 31 46 31 59 2z"/>
<path d="M3213 1203 c-26 -5 -31 -23 -8 -23 19 0 20 13 -10 -124 -30 -137 -30
-149 -9 -144 10 2 22 21 30 48 15 50 67 120 90 120 18 0 18 -30 0 -98 -8 -30
-12 -60 -9 -68 7 -19 65 -15 71 5 3 10 0 12 -12 8 -21 -8 -21 9 1 101 15 64
15 75 2 83 -29 18 -58 9 -88 -28 -35 -42 -37 -35 -16 52 8 33 15 63 15 68 0 7
-19 7 -57 0z"/>
<path d="M2822 1156 c-6 -14 -23 -33 -37 -42 -21 -14 -23 -18 -11 -28 13 -10
13 -20 0 -84 -9 -40 -13 -80 -10 -88 7 -19 50 -18 67 3 13 15 12 16 -8 11 -27
-7 -27 -5 -9 78 16 73 21 84 47 84 10 0 19 5 19 10 0 6 -10 10 -21 10 -19 0
-21 4 -16 35 7 40 -5 46 -21 11z"/>
<path d="M3065 1131 c-21 -23 -33 -41 -26 -41 11 0 12 -11 6 -52 -4 -29 -8
-71 -9 -93 -1 -36 2 -40 25 -43 15 -2 31 4 40 14 13 16 12 17 -8 12 -27 -7
-29 8 -9 92 10 45 18 58 42 70 27 14 27 15 7 18 -16 2 -23 11 -25 33 l-3 30
-40 -40z"/>
<path d="M440 1124 c-11 -12 -11 -18 1 -30 13 -12 18 -12 34 0 16 12 17 16 6
30 -17 20 -25 20 -41 0z"/>
<path d="M4511 1126 c-10 -12 -10 -19 2 -36 12 -18 16 -18 26 -6 14 17 11 48
-5 53 -6 2 -17 -3 -23 -11z"/>
<path d="M3526 1119 c-55 -15 -106 -84 -106 -142 0 -14 9 -36 21 -51 26 -32
80 -35 124 -6 34 23 28 25 -26 9 -46 -14 -72 1 -67 39 2 20 12 28 46 37 61 19
92 41 92 69 0 38 -37 58 -84 45z m39 -29 c11 -17 -16 -51 -52 -66 -42 -18 -49
-14 -33 18 27 52 68 75 85 48z"/>
<path d="M1813 1100 c-40 -24 -66 -72 -66 -122 0 -65 52 -100 94 -62 16 15 20
14 47 -2 30 -17 62 -14 62 7 0 6 -7 9 -15 5 -20 -7 -19 11 2 102 15 64 15 75
2 83 -24 15 -92 10 -126 -11z m97 -13 c0 -38 -33 -118 -57 -136 -33 -27 -39
-26 -58 3 -15 23 -15 28 11 78 15 29 32 56 38 60 19 13 66 9 66 -5z"/>
<path d="M2301 1095 c-55 -47 -66 -147 -18 -180 69 -49 167 23 167 123 0 77
-85 110 -149 57z m99 -24 c13 -32 7 -78 -16 -123 -11 -21 -22 -28 -44 -28 -53
0 -63 56 -26 143 12 31 20 37 44 37 23 0 32 -6 42 -29z"/>
<path d="M2505 1100 c-3 -5 1 -10 11 -10 12 0 15 -6 10 -22 -3 -13 -11 -51
-18 -86 -10 -54 -9 -65 3 -73 27 -17 51 -9 85 28 l34 37 -6 -31 c-6 -29 -3
-33 21 -39 19 -5 31 -2 43 11 16 17 16 17 -5 12 -13 -3 -23 -4 -23 -2 0 2 9
41 20 87 24 99 24 98 6 98 -8 0 -34 -36 -57 -80 -23 -45 -50 -85 -60 -91 -17
-9 -19 -6 -19 23 0 18 6 59 14 91 l13 57 -33 0 c-18 0 -36 -4 -39 -10z"/>
<path d="M515 1020 c-8 -24 1 -40 21 -40 20 0 29 27 14 45 -17 20 -27 19 -35
-5z"/>
<path d="M4431 1017 c-8 -10 -7 -19 4 -33 15 -19 15 -19 30 0 11 14 12 23 4
33 -6 7 -15 13 -19 13 -4 0 -13 -6 -19 -13z"/>
<path d="M1401 936 c-8 -10 -7 -17 4 -26 13 -11 19 -11 32 2 14 15 13 17 -5
27 -15 8 -23 7 -31 -3z"/>
<path d="M1523 943 c-17 -6 -16 -28 1 -42 11 -10 16 -8 21 9 8 24 -3 40 -22
33z"/>
<path d="M1633 934 c-7 -19 11 -39 26 -30 16 10 13 33 -4 40 -9 3 -18 -1 -22
-10z"/>
<path d="M602 919 c-12 -18 -12 -24 0 -35 20 -20 42 -2 34 30 -8 32 -17 33
-34 5z"/>
<path d="M4346 914 c-4 -10 -2 -22 3 -27 14 -14 43 0 39 20 -4 24 -34 28 -42
7z"/>
<path d="M4260 820 c-12 -23 -6 -40 15 -40 19 0 27 17 20 40 -8 26 -21 25 -35
0z"/>
<path d="M690 814 c-11 -12 -11 -18 1 -30 13 -12 18 -12 34 0 16 12 17 16 6
30 -17 20 -25 20 -41 0z"/>
<path d="M785 720 c-8 -13 3 -50 15 -50 5 0 14 8 19 18 15 27 -18 58 -34 32z"/>
<path d="M4165 720 c-8 -12 3 -50 14 -50 15 0 33 30 27 45 -6 17 -32 20 -41 5z"/>
<path d="M2282 697 c-9 -10 -9 -18 1 -31 12 -16 14 -17 27 -1 11 14 11 18 -2
31 -12 13 -16 13 -26 1z"/>
<path d="M2763 698 c-34 -11 -45 -28 -18 -28 11 0 14 -7 10 -22 -3 -13 -14
-63 -25 -113 -11 -49 -22 -100 -25 -112 -4 -18 -1 -23 15 -23 11 0 22 6 24 13
21 74 34 102 61 132 18 19 38 35 44 35 15 0 14 -38 -4 -96 -22 -72 -20 -84 13
-84 15 0 34 5 42 11 12 9 11 10 -7 6 -28 -6 -28 -13 -2 85 20 80 20 82 1 100
-24 25 -63 11 -88 -31 -35 -60 -35 -46 1 117 6 24 4 25 -42 10z"/>
<path d="M2000 690 c-14 -4 -20 -9 -15 -9 33 -4 34 -17 10 -136 -28 -137 -25
-147 42 -149 72 -1 133 62 133 140 0 73 -59 96 -110 42 -11 -12 -20 -18 -20
-12 1 10 18 91 26 117 6 19 -20 22 -66 7z m126 -135 c7 -28 -19 -106 -43 -130
-28 -29 -78 -6 -68 30 2 6 6 22 9 37 8 36 53 88 77 88 12 0 21 -9 25 -25z"/>
<path d="M2600 625 c-31 -32 -39 -45 -27 -45 21 0 22 -24 1 -103 -13 -53 -14
-62 -1 -75 10 -9 24 -12 41 -8 30 7 35 26 7 26 -18 0 -18 3 -2 78 14 66 19 77
39 80 27 4 29 18 4 24 -15 4 -18 12 -14 37 2 17 2 31 0 31 -2 0 -24 -20 -48
-45z"/>
<path d="M4069 634 c-10 -12 -9 -18 4 -31 13 -13 19 -14 31 -3 21 16 20 23 -3
37 -16 10 -22 9 -32 -3z"/>
<path d="M877 626 c-9 -23 18 -39 43 -26 17 9 19 14 9 26 -15 18 -45 18 -52 0z"/>
<path d="M2265 602 c-34 -4 -60 -22 -31 -22 14 0 17 -6 13 -22 -33 -143 -33
-168 1 -168 10 0 27 7 38 15 17 13 17 14 2 15 -22 0 -23 23 -2 102 19 75 17
84 -21 80z"/>
<path d="M2400 602 c-30 -5 -52 -22 -27 -22 20 0 20 -6 2 -90 -8 -36 -14 -71
-15 -77 0 -17 30 -17 34 0 16 56 41 108 66 137 28 32 31 34 44 18 12 -16 14
-16 24 8 16 33 16 34 -12 34 -15 0 -38 -13 -57 -32 l-31 -33 5 28 c5 31 2 35
-33 29z"/>
<path d="M993 553 c-15 -5 -16 -22 -4 -42 8 -12 12 -12 25 -2 28 24 13 56 -21
44z"/>
<path d="M3967 553 c-24 -23 12 -55 38 -33 12 10 13 16 4 26 -12 15 -31 18
-42 7z"/>
<path d="M1091 472 c-7 -13 -6 -23 1 -30 28 -28 63 3 38 33 -16 20 -27 19 -39
-3z"/>
<path d="M3855 470 c-8 -12 3 -50 14 -50 15 0 33 30 27 45 -6 17 -32 20 -41 5z"/>
<path d="M1204 395 c-12 -29 15 -45 45 -26 12 8 12 12 2 25 -17 20 -40 21 -47
1z"/>
<path d="M3747 403 c-11 -10 -8 -41 4 -49 6 -3 18 1 27 9 13 13 13 19 2 31
-14 17 -23 20 -33 9z"/>
<path d="M1310 330 c-13 -8 -12 -11 5 -24 25 -19 39 -15 43 12 4 24 -20 30
-48 12z"/>
<path d="M3624 325 c-10 -24 12 -42 34 -29 24 16 21 38 -6 42 -13 2 -25 -3
-28 -13z"/>
<path d="M3512 288 c-16 -16 -15 -45 2 -51 8 -3 20 0 26 8 16 20 -11 60 -28
43z"/>
<path d="M1440 274 c-11 -12 -10 -18 3 -32 16 -15 18 -15 34 0 13 14 14 20 3
32 -7 9 -16 16 -20 16 -4 0 -13 -7 -20 -16z"/>
<path d="M3384 225 c-8 -21 2 -45 20 -45 19 0 29 29 15 46 -15 18 -28 18 -35
-1z"/>
<path d="M1565 220 c-8 -13 3 -50 15 -50 13 0 28 32 23 48 -6 15 -29 16 -38 2z"/>
<path d="M1689 174 c-10 -12 -9 -18 4 -31 13 -13 19 -14 31 -3 21 17 20 27 -3
39 -14 8 -22 7 -32 -5z"/>
<path d="M3259 174 c-10 -12 -9 -18 4 -31 13 -13 19 -14 31 -3 21 17 20 27 -3
39 -14 8 -22 7 -32 -5z"/>
<path d="M1822 148 c-16 -16 -15 -45 2 -51 23 -9 39 18 26 42 -13 25 -12 25
-28 9z"/>
<path d="M3131 131 c-8 -14 -7 -22 4 -31 13 -10 19 -9 35 5 19 17 19 19 2 31
-23 18 -30 17 -41 -5z"/>
<path d="M1952 118 c-27 -27 -5 -72 23 -48 18 15 19 21 2 43 -10 14 -15 15
-25 5z"/>
<path d="M3001 96 c-18 -21 11 -41 39 -26 17 9 19 14 9 26 -15 18 -33 18 -48
0z"/>
<path d="M2870 80 c-13 -25 -5 -40 20 -40 26 0 33 15 18 40 -16 25 -24 25 -38
0z"/>
<path d="M2074 75 c-12 -29 15 -45 45 -26 12 8 12 12 2 25 -17 20 -40 21 -47
1z"/>
<path d="M2211 67 c-14 -17 -4 -47 15 -47 22 0 29 29 12 46 -13 13 -16 13 -27
1z"/>
<path d="M2741 56 c-18 -22 11 -41 40 -25 22 11 22 12 4 25 -24 17 -30 17 -44
0z"/>
<path d="M2343 49 c-6 -6 -9 -18 -6 -25 7 -18 37 -18 52 0 10 12 8 17 -8 25
-24 14 -24 14 -38 0z"/>
<path d="M2474 45 c-9 -21 3 -45 21 -45 20 0 20 46 0 54 -9 3 -18 -1 -21 -9z"/>
<path d="M2604 45 c-12 -29 15 -45 45 -26 12 8 12 12 2 25 -17 20 -40 21 -47
1z"/>
</g>
</svg>
