<?xml version="1.0" standalone="no"?>
<!DOCTYPE svg PUBLIC "-//W3C//DTD SVG 20010904//EN"
 "http://www.w3.org/TR/2001/REC-SVG-20010904/DTD/svg10.dtd">
<svg version="1.0" xmlns="http://www.w3.org/2000/svg"
 width="498.000000pt" height="500.000000pt" viewBox="0 0 498.000000 500.000000"
 preserveAspectRatio="xMidYMid meet">
<metadata>
Created by potrace 1.15, written by Peter Selinger 2001-2017
</metadata>
<g transform="translate(0.000000,500.000000) scale(0.100000,-0.100000)"
fill="#000000" stroke="none">
<path d="M2340 4975 c-25 -30 10 -61 38 -33 17 17 15 26 -7 37 -14 8 -22 7
-31 -4z"/>
<path d="M2470 4974 c-11 -12 -10 -18 3 -32 16 -15 18 -15 34 0 13 14 14 20 3
32 -7 9 -16 16 -20 16 -4 0 -13 -7 -20 -16z"/>
<path d="M2607 4983 c-11 -10 -8 -41 4 -49 6 -3 18 1 27 9 13 13 13 19 2 31
-14 17 -23 20 -33 9z"/>
<path d="M2207 4963 c-24 -23 12 -55 38 -33 12 10 13 16 4 26 -12 15 -31 18
-42 7z"/>
<path d="M2734 4959 c-3 -6 1 -18 9 -27 13 -13 19 -13 32 -2 12 10 13 16 4 26
-14 17 -35 18 -45 3z"/>
<path d="M2074 4945 c-7 -17 2 -45 13 -45 4 0 17 7 27 15 20 15 20 15 0 30
-24 18 -33 19 -40 0z"/>
<path d="M2869 4944 c-10 -12 -9 -18 4 -31 13 -13 19 -14 31 -3 21 17 20 27
-3 39 -14 8 -22 7 -32 -5z"/>
<path d="M1940 4915 c-11 -13 -11 -19 3 -33 20 -19 41 -5 35 24 -4 24 -22 28
-38 9z"/>
<path d="M3000 4915 c-22 -26 7 -46 39 -26 12 8 12 12 2 25 -17 20 -25 20 -41
1z"/>
<path d="M1817 4893 c-4 -3 -7 -15 -7 -25 0 -22 32 -24 49 -4 10 12 8 17 -8
25 -23 13 -26 13 -34 4z"/>
<path d="M3130 4885 c-19 -22 5 -48 31 -34 10 5 19 14 19 19 0 5 -9 14 -19 19
-14 8 -22 7 -31 -4z"/>
<path d="M1687 4853 c-11 -10 -8 -41 4 -49 6 -3 18 1 27 9 13 13 13 19 2 31
-14 17 -23 20 -33 9z"/>
<path d="M3250 4845 c-15 -18 -5 -35 20 -35 10 0 22 5 25 10 7 11 -12 40 -25
40 -4 0 -13 -7 -20 -15z"/>
<path d="M1562 4806 c-8 -19 -8 -27 3 -36 8 -6 19 -9 25 -5 14 9 13 40 -3 54
-11 8 -16 5 -25 -13z"/>
<path d="M3380 4805 c-11 -13 -11 -19 3 -33 20 -19 41 -5 35 24 -4 24 -22 28
-38 9z"/>
<path d="M1440 4745 c-22 -26 7 -46 39 -26 12 8 12 12 2 25 -17 20 -25 20 -41
1z"/>
<path d="M3500 4745 c-17 -21 1 -39 29 -30 25 8 28 30 5 39 -21 8 -20 8 -34
-9z"/>
<path d="M3620 4691 c-18 -35 13 -58 39 -28 8 11 6 18 -8 31 -19 17 -20 17
-31 -3z"/>
<path d="M1316 4684 c-4 -10 0 -24 9 -33 14 -14 17 -14 25 -1 6 8 9 22 7 30
-3 21 -33 24 -41 4z"/>
<path d="M1200 4613 c0 -10 5 -25 10 -33 9 -13 12 -12 25 5 19 24 15 39 -13
43 -16 2 -22 -2 -22 -15z"/>
<path d="M3734 4619 c-3 -6 0 -17 8 -25 12 -12 17 -12 33 1 17 13 18 16 5 25
-20 13 -37 13 -46 -1z"/>
<path d="M1090 4555 c-11 -13 -11 -19 3 -33 20 -19 41 -5 35 24 -4 24 -22 28
-38 9z"/>
<path d="M3845 4550 c-8 -24 1 -40 21 -40 20 0 29 27 14 45 -17 20 -27 19 -35
-5z"/>
<path d="M2239 4475 c-133 -22 -213 -58 -286 -130 -52 -53 -62 -68 -68 -109
-17 -113 86 -227 253 -276 23 -7 42 -14 42 -16 0 -1 -9 -23 -20 -49 -11 -26
-20 -53 -20 -62 0 -21 34 -8 91 33 65 48 110 64 173 64 137 0 295 53 376 126
103 93 103 205 0 298 -116 105 -337 155 -541 121z m288 -30 c130 -30 252 -105
289 -176 33 -65 5 -151 -66 -205 -87 -66 -191 -97 -363 -110 -84 -6 -90 -7
-148 -51 -33 -25 -62 -43 -65 -41 -2 3 3 24 11 48 8 23 15 44 15 46 0 2 -44
24 -97 49 -141 66 -193 122 -193 206 0 67 40 118 141 176 113 65 333 92 476
58z"/>
<path d="M3961 4477 c-26 -26 -4 -55 29 -37 25 13 25 22 1 37 -14 9 -21 9 -30
0z"/>
<path d="M983 4464 c-9 -24 11 -38 36 -25 25 14 27 27 5 35 -25 9 -34 7 -41
-10z"/>
<path d="M881 4386 c-18 -22 11 -41 40 -25 22 11 22 12 4 25 -24 17 -30 17
-44 0z"/>
<path d="M4054 4389 c-9 -16 20 -41 39 -33 21 8 22 30 1 38 -23 9 -32 7 -40
-5z"/>
<path d="M783 4294 c-9 -24 11 -38 37 -24 17 9 19 14 9 26 -15 19 -38 18 -46
-2z"/>
<path d="M4151 4297 c-9 -11 -8 -17 4 -27 19 -16 47 -5 43 17 -4 23 -31 28
-47 10z"/>
<path d="M690 4205 c-17 -21 6 -61 26 -44 18 15 18 45 0 52 -8 3 -20 0 -26 -8z"/>
<path d="M4251 4207 c-8 -10 -7 -19 4 -33 15 -19 15 -19 30 0 11 14 12 23 4
33 -6 7 -15 13 -19 13 -4 0 -13 -6 -19 -13z"/>
<path d="M601 4116 c-16 -19 -7 -46 14 -46 22 0 30 29 13 46 -13 13 -16 13
-27 0z"/>
<path d="M3058 4115 c-164 -33 -260 -138 -279 -300 -13 -118 -72 -227 -158
-290 -22 -16 -41 -37 -41 -46 0 -9 14 -34 31 -55 41 -51 69 -111 69 -151 l0
-32 105 6 c67 4 105 2 105 -4 0 -21 -47 -79 -83 -102 -20 -13 -37 -30 -37 -36
0 -6 30 -49 68 -96 91 -114 108 -115 263 -17 42 26 81 48 88 48 29 0 39 -90
20 -180 -9 -40 -23 -65 -66 -113 -107 -119 -127 -166 -141 -338 l-7 -82 -45
-11 c-26 -7 -63 -22 -83 -35 -82 -51 -173 -191 -202 -312 -26 -112 -15 -237
23 -255 19 -10 714 -18 749 -9 15 3 23 13 23 26 0 46 -43 229 -85 359 -62 192
-79 272 -79 365 0 63 4 88 22 120 45 84 72 101 129 82 51 -16 74 -66 108 -232
22 -111 28 -170 35 -400 10 -310 8 -275 18 -275 15 0 32 49 43 123 21 150 39
377 39 497 0 207 -54 380 -141 450 -72 57 -121 171 -140 322 l-11 88 45 78
c72 125 89 182 95 307 7 173 -28 283 -122 379 -111 114 -217 150 -358 121z
m20 -304 c81 -41 111 -129 77 -230 -9 -28 -14 -55 -10 -61 3 -5 25 -10 48 -10
96 0 137 -59 137 -198 0 -67 4 -93 15 -102 9 -7 15 -29 15 -54 0 -57 23 -130
74 -237 l42 -89 -90 1 c-50 1 -103 -4 -119 -10 l-27 -11 6 93 c4 67 2 103 -9
132 -21 60 -45 57 -147 -15 -119 -84 -153 -80 -240 30 l-32 40 45 57 c64 82
70 98 51 117 -12 12 -37 16 -103 16 -59 0 -92 4 -98 13 -6 6 -13 33 -15 59 -4
31 -14 58 -32 78 -14 17 -26 35 -26 38 0 4 23 39 51 77 49 66 119 197 119 221
0 18 36 45 82 60 55 18 134 12 186 -15z"/>
<path d="M2831 3706 c-10 -12 -1 -15 51 -21 35 -3 71 -9 81 -11 27 -8 20 10
-12 29 -35 21 -104 22 -120 3z"/>
<path d="M2785 3618 c-29 -34 -28 -67 2 -100 22 -25 53 -22 93 7 57 42 57 50
-2 90 -29 19 -56 35 -59 35 -4 0 -19 -14 -34 -32z m69 -19 c14 -7 23 -16 20
-20 -3 -5 -18 -2 -35 6 -46 24 -33 36 15 14z"/>
<path d="M4342 4108 c-8 -8 -9 -15 -1 -25 14 -16 31 -17 47 -1 9 9 7 14 -6 24
-21 17 -25 17 -40 2z"/>
<path d="M4432 4018 c-27 -27 -5 -72 23 -48 18 15 19 21 2 43 -10 14 -15 15
-25 5z"/>
<path d="M521 4006 c-16 -19 -8 -46 13 -46 20 0 29 31 13 47 -12 12 -16 12
-26 -1z"/>
<path d="M1651 3958 c-109 -17 -212 -100 -267 -216 -17 -35 -35 -103 -47 -177
-17 -103 -19 -132 -10 -205 15 -119 25 -138 81 -146 42 -6 48 -11 144 -133 54
-69 108 -132 118 -139 23 -16 33 -11 120 58 l65 52 3 -64 c4 -84 -21 -152 -93
-251 -64 -90 -74 -108 -113 -212 -58 -151 -57 -146 -55 -487 1 -175 4 -322 8
-328 4 -6 101 -10 269 -10 262 0 264 0 269 22 3 12 -5 148 -18 302 -27 307
-31 488 -14 547 15 48 65 109 89 109 26 0 43 -30 74 -126 48 -156 58 -239 63
-556 5 -266 10 -328 25 -285 3 6 1 152 -3 322 -8 339 -13 377 -76 569 -40 118
-62 152 -144 212 -27 20 -56 48 -63 63 -15 29 -40 255 -34 311 3 34 4 35 53
38 28 2 54 7 59 12 15 15 6 200 -13 297 -22 104 -46 155 -111 238 -74 94 -152
162 -196 173 -64 16 -126 20 -183 10z m329 -368 c14 -23 12 -146 -5 -224 -29
-138 -127 -300 -218 -361 -28 -19 -57 -35 -63 -35 -27 0 -170 174 -217 265
-35 69 -58 163 -64 262 l-6 102 84 4 c46 2 173 3 282 3 164 -1 199 -4 207 -16z
m24 -387 c3 -10 8 -74 11 -143 7 -134 17 -179 47 -223 11 -16 19 -29 17 -31
-12 -10 -182 -46 -216 -46 l-42 0 24 58 c31 78 48 167 41 214 -5 33 0 50 35
113 41 76 71 96 83 58z"/>
<path d="M1478 3523 c-10 -2 -18 -13 -18 -24 0 -23 23 -24 94 -5 l49 13 -33
11 c-33 12 -60 13 -92 5z"/>
<path d="M1711 3498 c-5 -13 -7 -25 -5 -27 2 -2 28 2 58 9 30 7 61 10 70 7 32
-12 15 4 -19 19 -53 22 -94 18 -104 -8z"/>
<path d="M1596 3433 c-20 -42 -35 -82 -32 -90 7 -16 50 -27 81 -19 37 9 30 23
-16 30 l-40 6 30 54 c32 55 38 81 22 90 -5 3 -25 -29 -45 -71z"/>
<path d="M1615 3271 c-74 -8 -79 -22 -35 -91 34 -52 83 -90 119 -90 48 0 162
143 135 170 -13 13 -143 20 -219 11z"/>
<path d="M440 3895 c-9 -10 -8 -19 1 -36 11 -22 12 -22 25 -4 8 10 14 24 14
31 0 18 -27 25 -40 9z"/>
<path d="M4507 3898 c-22 -12 -21 -25 2 -37 14 -8 22 -6 34 7 15 16 15 19 -2
29 -11 7 -23 8 -34 1z"/>
<path d="M4574 3784 c-8 -32 14 -50 34 -30 12 11 12 17 0 35 -17 28 -26 27
-34 -5z"/>
<path d="M371 3787 c-26 -26 -2 -53 32 -35 22 11 22 20 -2 35 -14 9 -21 9 -30
0z"/>
<path d="M300 3665 c-11 -13 -11 -19 4 -33 15 -15 18 -15 26 -2 22 33 -6 64
-30 35z"/>
<path d="M4640 3665 c-11 -13 -11 -19 4 -33 15 -15 18 -15 26 -2 22 33 -6 64
-30 35z"/>
<path d="M240 3544 c-11 -12 -10 -18 3 -32 16 -15 18 -15 34 0 13 14 14 20 3
32 -7 9 -16 16 -20 16 -4 0 -13 -7 -20 -16z"/>
<path d="M4694 3547 c-3 -9 0 -26 7 -38 11 -22 12 -22 26 -3 7 10 12 25 11 34
-4 20 -37 25 -44 7z"/>
<path d="M190 3425 c-15 -18 -5 -35 20 -35 10 0 22 5 25 10 7 11 -12 40 -25
40 -4 0 -13 -7 -20 -15z"/>
<path d="M4753 3429 c-15 -15 -5 -39 16 -39 29 0 43 21 23 36 -21 17 -25 17
-39 3z"/>
<path d="M4796 3304 c-6 -16 9 -44 24 -44 14 0 20 32 9 46 -15 18 -25 18 -33
-2z"/>
<path d="M137 3296 c-3 -8 1 -22 9 -33 14 -17 14 -17 29 1 11 14 12 23 4 33
-15 17 -35 17 -42 -1z"/>
<path d="M106 3181 c-16 -17 -16 -20 0 -36 15 -14 19 -15 32 -2 13 13 13 18 0
36 -15 21 -15 21 -32 2z"/>
<path d="M4837 3173 c-24 -23 12 -55 38 -33 12 10 13 16 4 26 -12 15 -31 18
-42 7z"/>
<path d="M74 3044 c-9 -34 10 -54 32 -32 13 13 14 19 2 37 -17 28 -26 27 -34
-5z"/>
<path d="M4864 3039 c-3 -6 1 -18 10 -27 15 -15 17 -15 32 0 19 19 11 38 -16
38 -10 0 -22 -5 -26 -11z"/>
<path d="M43 2904 c-3 -8 1 -22 9 -30 13 -13 16 -13 27 0 7 9 11 23 7 31 -7
20 -35 19 -43 -1z"/>
<path d="M4884 2909 c-3 -6 0 -18 9 -26 12 -12 19 -13 36 -3 18 9 20 14 10 26
-14 17 -45 19 -55 3z"/>
<path d="M30 2775 c-11 -13 -11 -19 4 -33 15 -15 18 -15 26 -2 22 33 -6 64
-30 35z"/>
<path d="M4907 2776 c-9 -24 18 -39 44 -25 22 11 22 12 4 25 -24 18 -41 18
-48 0z"/>
<path d="M4921 2651 c-14 -26 12 -50 34 -31 11 9 12 17 4 31 -5 10 -14 19 -19
19 -5 0 -14 -9 -19 -19z"/>
<path d="M13 2644 c-10 -26 13 -39 44 -25 27 12 27 13 8 27 -25 18 -44 18 -52
-2z"/>
<path d="M4 2509 c-3 -6 -2 -15 4 -21 15 -15 46 -5 50 15 3 12 -3 17 -22 17
-14 0 -28 -5 -32 -11z"/>
<path d="M4917 2506 c-3 -8 3 -22 13 -31 17 -16 19 -15 30 4 6 12 8 26 5 31
-9 15 -42 12 -48 -4z"/>
<path d="M13 2374 c-3 -8 1 -22 9 -30 13 -13 16 -13 27 0 7 9 11 23 7 31 -7
20 -35 19 -43 -1z"/>
<path d="M4922 2378 c-13 -13 2 -38 23 -38 21 0 36 25 23 38 -7 7 -17 12 -23
12 -6 0 -16 -5 -23 -12z"/>
<path d="M30 2245 c-10 -12 -10 -18 0 -31 12 -13 15 -13 28 0 15 15 10 46 -6
46 -5 0 -15 -7 -22 -15z"/>
<path d="M4912 2248 c-8 -8 -9 -15 -1 -25 14 -16 31 -17 47 -1 9 9 7 14 -6 24
-21 17 -25 17 -40 2z"/>
<path d="M49 2114 c-15 -18 0 -38 27 -32 25 5 28 25 6 37 -15 8 -23 7 -33 -5z"/>
<path d="M4895 2113 c-21 -21 -5 -38 29 -29 31 8 33 17 6 33 -15 10 -22 10
-35 -4z"/>
<path d="M73 1991 c-9 -14 -9 -23 0 -35 11 -14 15 -15 31 -3 16 12 17 16 5 35
-17 27 -21 27 -36 3z"/>
<path d="M4865 1984 c-20 -15 -20 -15 0 -30 17 -12 21 -12 34 1 13 13 13 17 1
29 -13 13 -18 13 -35 0z"/>
<path d="M104 1855 c-12 -30 16 -45 46 -25 13 9 12 12 -4 25 -25 19 -35 19
-42 0z"/>
<path d="M4843 1863 c-7 -3 -13 -13 -13 -23 0 -10 6 -20 13 -23 15 -5 47 10
47 23 0 13 -32 28 -47 23z"/>
<path d="M143 1729 c-15 -15 -5 -39 17 -39 26 0 43 23 28 38 -15 15 -31 15
-45 1z"/>
<path d="M4801 1727 c-13 -17 -5 -47 14 -47 19 0 28 32 12 47 -12 12 -16 12
-26 0z"/>
<path d="M1150 1641 c0 -14 5 -18 19 -14 10 3 22 0 25 -6 7 -11 -50 -291 -62
-303 -4 -3 -16 -8 -26 -10 -34 -6 -29 -25 8 -30 49 -5 137 5 136 17 0 6 -9 11
-20 11 -11 1 -23 4 -26 6 -7 8 55 290 68 305 6 7 18 12 27 11 9 -2 16 4 16 12
0 12 -17 16 -82 18 -77 3 -83 1 -83 -17z"/>
<path d="M4752 1609 c-12 -18 -11 -24 2 -37 14 -15 18 -15 31 -1 14 14 14 18
-2 38 l-18 22 -13 -22z"/>
<path d="M1758 1590 c-10 -17 -31 -38 -48 -48 -35 -20 -39 -32 -10 -32 11 0
20 -2 20 -4 0 -2 -9 -49 -21 -105 -11 -56 -18 -109 -15 -117 10 -27 106 -11
106 17 0 7 -12 8 -30 4 -28 -6 -30 -5 -25 17 3 12 12 57 20 98 16 74 25 90 57
90 30 0 30 20 0 26 -28 6 -30 8 -25 45 7 47 -6 50 -29 9z"/>
<path d="M3351 1585 c-11 -19 -31 -39 -45 -45 -32 -12 -42 -30 -17 -30 26 0
26 -8 4 -120 -9 -48 -13 -94 -10 -103 8 -22 70 -23 91 -1 23 23 20 27 -14 21
-34 -7 -36 -1 -19 73 25 112 28 118 59 125 37 8 39 22 4 31 -23 6 -25 10 -19
45 8 49 -6 51 -34 4z"/>
<path d="M187 1596 c-3 -8 0 -22 7 -31 11 -15 13 -15 25 -1 15 18 8 46 -13 46
-7 0 -16 -6 -19 -14z"/>
<path d="M1524 1540 c-11 -4 -37 -27 -58 -51 l-36 -43 6 48 7 47 -43 -3 c-40
-3 -72 -28 -36 -28 21 0 20 -22 -4 -135 -10 -49 -16 -93 -14 -97 12 -20 44 -7
50 20 25 112 84 202 133 202 15 0 14 -42 -5 -112 -19 -73 -16 -112 9 -116 30
-6 67 7 67 24 0 11 -6 13 -20 9 -25 -8 -25 -1 0 95 25 96 25 126 1 140 -23 12
-29 12 -57 0z"/>
<path d="M1960 1534 c-69 -30 -110 -93 -110 -169 0 -64 31 -95 95 -95 45 0
103 22 117 44 11 17 3 17 -35 1 -71 -30 -117 -16 -117 36 0 25 6 29 80 54 83
27 100 43 100 89 0 50 -62 69 -130 40z m74 -27 c17 -27 -12 -68 -59 -84 -22
-7 -45 -12 -52 -11 -20 5 22 84 54 102 32 18 42 16 57 -7z"/>
<path d="M2315 1540 c-12 -4 -34 -26 -49 -49 -16 -23 -31 -40 -33 -38 -2 3 1
23 6 46 l9 42 -46 -3 c-25 -2 -47 -9 -50 -15 -2 -7 3 -13 12 -13 22 0 20 -44
-4 -145 -12 -51 -15 -83 -9 -90 16 -16 43 9 51 49 10 46 32 90 70 139 31 38
58 49 58 21 0 -9 7 -14 18 -12 12 2 18 14 20 41 3 40 -8 46 -53 27z"/>
<path d="M2905 1538 c-11 -6 -25 -19 -31 -27 -7 -9 -21 -27 -33 -41 -19 -22
-21 -22 -17 -5 3 11 8 33 12 48 l6 28 -47 -3 c-51 -3 -71 -22 -34 -31 12 -3
20 -11 17 -19 -12 -31 -41 -208 -36 -214 16 -16 46 9 51 42 8 48 40 112 76
152 32 35 51 41 51 16 0 -27 33 -11 41 20 5 16 6 33 3 38 -7 11 -35 10 -59 -4z"/>
<path d="M3088 1536 c-68 -30 -110 -95 -110 -170 0 -63 31 -96 92 -96 48 0
116 26 124 47 5 11 2 13 -11 8 -37 -16 -102 -28 -117 -22 -9 4 -21 19 -27 33
-13 35 -2 45 75 68 95 29 131 81 86 126 -23 23 -70 25 -112 6z m60 -15 c8 -5
12 -22 10 -42 -3 -31 -8 -36 -56 -53 -29 -10 -55 -16 -58 -13 -10 10 24 74 51
95 31 24 34 25 53 13z"/>
<path d="M3552 1529 c-51 -26 -78 -58 -93 -112 -13 -51 -4 -101 23 -127 27
-25 96 -27 144 -4 60 29 61 54 1 29 -68 -28 -117 -11 -117 40 0 21 9 27 68 44
91 28 112 44 112 86 0 63 -60 82 -138 44z m84 -23 c11 -29 -20 -69 -64 -84
-50 -16 -55 -14 -46 21 14 56 95 102 110 63z"/>
<path d="M3914 1529 c-10 -11 -32 -30 -48 -42 l-29 -21 6 37 c6 36 5 37 -28
37 -39 0 -65 -8 -65 -21 0 -5 9 -9 20 -9 24 0 25 8 -1 -123 -12 -59 -19 -110
-16 -113 10 -10 47 7 47 21 0 52 73 186 108 200 8 3 20 -3 28 -12 16 -23 31
-9 36 32 2 24 -1 31 -18 33 -11 2 -29 -7 -40 -19z"/>
<path d="M2427 1533 c-12 -12 -7 -21 14 -26 14 -4 19 -11 16 -24 -3 -10 -18
-78 -33 -152 -24 -116 -31 -135 -51 -144 -40 -18 -25 -27 47 -27 73 0 85 8 49
32 -18 11 -20 20 -14 46 6 30 9 32 51 32 70 0 121 35 158 107 20 41 21 112 0
141 -23 34 -75 30 -120 -10 l-37 -32 8 32 7 32 -45 0 c-24 0 -47 -3 -50 -7z
m194 -57 c9 -20 7 -36 -12 -87 -28 -72 -64 -105 -103 -95 -22 5 -26 12 -26 42
0 105 108 212 141 140z"/>
<path d="M236 1481 c-10 -16 5 -41 24 -41 26 0 43 23 28 38 -14 14 -45 16 -52
3z"/>
<path d="M4694 1475 c-13 -32 23 -48 47 -19 10 13 10 17 -2 25 -21 13 -39 11
-45 -6z"/>
<path d="M295 1360 c-7 -11 12 -50 25 -50 12 0 23 37 15 50 -8 13 -32 13 -40
0z"/>
<path d="M4634 1359 c-3 -6 1 -18 10 -27 15 -15 17 -15 32 0 19 19 11 38 -16
38 -10 0 -22 -5 -26 -11z"/>
<path d="M4575 1250 c-7 -23 1 -40 20 -40 19 0 25 23 10 43 -16 22 -22 21 -30
-3z"/>
<path d="M372 1248 c-28 -28 0 -56 31 -33 22 16 21 22 -1 34 -13 7 -23 6 -30
-1z"/>
<path d="M4500 1134 c-11 -12 -10 -18 3 -32 16 -15 18 -15 34 0 13 14 14 20 3
32 -7 9 -16 16 -20 16 -4 0 -13 -7 -20 -16z"/>
<path d="M434 1129 c-3 -6 1 -18 10 -27 15 -15 17 -15 34 1 15 16 15 19 2 27
-20 13 -37 12 -46 -1z"/>
<path d="M523 1033 c-7 -3 -13 -13 -13 -23 0 -22 19 -30 42 -18 29 14 2 52
-29 41z"/>
<path d="M4424 1025 c-12 -31 23 -48 45 -21 10 12 8 17 -8 25 -26 14 -31 14
-37 -4z"/>
<path d="M2787 1002 c-15 -16 -15 -21 -2 -38 14 -19 14 -19 35 2 20 20 20 21
2 37 -18 16 -20 16 -35 -1z"/>
<path d="M1416 994 c-9 -25 -8 -27 19 -20 16 4 27 2 30 -6 7 -18 -52 -287 -66
-304 -6 -8 -17 -14 -25 -14 -7 0 -16 -4 -19 -10 -4 -6 25 -10 79 -10 70 0 86
3 86 15 0 9 -10 15 -26 15 -19 0 -24 4 -20 18 3 9 8 38 11 63 9 61 18 73 46
66 20 -5 30 -22 54 -92 l29 -86 50 3 c30 2 51 8 54 16 2 7 -2 13 -9 11 -31 -4
-38 4 -63 69 -14 37 -26 72 -26 78 0 7 14 17 30 24 62 26 88 90 55 137 -22 31
-74 43 -186 43 -79 0 -98 -3 -103 -16z m219 -34 c22 -18 19 -74 -5 -95 -25
-23 -120 -34 -120 -14 1 16 18 96 25 118 6 16 77 10 100 -9z"/>
<path d="M3600 995 c0 -8 7 -15 15 -15 16 0 19 -28 9 -67 -6 -20 -13 -23 -57
-23 -67 0 -110 -29 -144 -98 -59 -121 17 -220 113 -147 l33 25 3 -23 c3 -19 9
-22 43 -22 31 0 41 4 43 18 3 15 0 18 -17 12 -12 -3 -21 -4 -21 -2 0 12 73
343 77 350 2 4 -19 7 -46 7 -39 0 -51 -4 -51 -15z m0 -140 c14 -16 -4 -100
-30 -143 -31 -51 -92 -66 -107 -26 -10 27 35 151 63 173 25 20 55 18 74 -4z"/>
<path d="M600 925 c-15 -18 -6 -45 14 -45 20 0 29 16 21 40 -8 24 -18 25 -35
5z"/>
<path d="M4342 918 c-8 -8 -8 -17 -1 -30 10 -19 12 -19 30 -2 14 13 16 20 8
31 -14 16 -22 16 -37 1z"/>
<path d="M1882 886 c-68 -24 -122 -102 -122 -175 0 -30 26 -77 45 -85 35 -13
110 -6 143 14 43 26 41 43 -3 24 -19 -7 -50 -14 -70 -14 -28 0 -38 5 -47 26
-17 37 -2 54 72 76 36 11 73 28 84 38 25 25 24 70 -4 92 -25 21 -51 22 -98 4z
m66 -47 c2 -15 -4 -34 -13 -42 -18 -18 -92 -43 -101 -34 -10 9 6 45 33 78 33
39 76 38 81 -2z"/>
<path d="M2164 889 c-18 -5 -48 -27 -67 -48 -57 -63 -68 -138 -31 -198 22 -35
77 -31 115 6 33 33 35 26 18 -49 -6 -28 -20 -53 -37 -67 l-27 -22 72 -1 c76 0
102 13 58 30 -20 8 -24 15 -20 32 28 119 63 294 59 300 -6 9 -73 28 -94 27 -8
0 -29 -5 -46 -10z m81 -77 c-9 -64 -39 -119 -75 -137 -40 -21 -47 -19 -65 14
-14 28 -13 33 15 96 23 52 36 69 62 79 52 22 72 6 63 -52z"/>
<path d="M3248 890 c-75 -22 -127 -95 -128 -178 0 -60 32 -92 95 -92 48 0 107
20 120 40 12 20 -2 22 -34 6 -43 -23 -98 -21 -111 3 -24 46 -14 59 63 82 87
25 107 41 107 85 0 53 -44 75 -112 54z m60 -48 c5 -32 -23 -60 -71 -73 -46
-12 -52 -9 -43 26 17 66 106 103 114 47z"/>
<path d="M2380 875 c-10 -13 -9 -15 9 -15 26 0 26 2 0 -115 -24 -108 -19 -125
34 -125 23 0 41 11 74 46 l44 46 -6 -34 c-4 -23 -2 -38 7 -45 16 -14 80 -3 86
15 3 9 -4 11 -23 6 -23 -6 -26 -4 -22 12 13 43 47 197 47 210 0 10 -8 14 -22
12 -17 -2 -27 -17 -43 -58 -29 -79 -50 -114 -86 -145 -48 -40 -56 -16 -30 96
12 50 21 95 21 100 0 15 -76 10 -90 -6z"/>
<path d="M2723 883 c-20 -8 -15 -23 7 -23 11 0 20 -2 20 -5 0 -2 -9 -43 -20
-90 -25 -106 -25 -131 -2 -137 27 -6 75 6 80 20 3 9 -3 11 -22 6 -14 -3 -26
-2 -26 2 0 5 11 54 25 109 13 55 25 106 25 113 0 12 -61 16 -87 5z"/>
<path d="M2903 883 c-28 -5 -30 -23 -3 -23 25 0 25 -19 0 -130 -24 -106 -24
-100 3 -100 20 0 26 9 40 58 16 55 79 151 105 160 6 2 16 -6 20 -18 8 -21 9
-21 25 -5 9 9 17 27 17 41 0 21 -5 24 -35 24 -29 0 -40 -7 -71 -47 l-36 -48 6
48 c7 47 7 47 -21 46 -15 -1 -38 -4 -50 -6z"/>
<path d="M684 819 c-3 -6 1 -18 10 -27 15 -15 17 -15 34 1 15 16 15 19 2 27
-20 13 -37 12 -46 -1z"/>
<path d="M4247 816 c-9 -22 19 -42 37 -26 19 15 10 40 -14 40 -10 0 -20 -6
-23 -14z"/>
<path d="M787 733 c-11 -10 -8 -41 4 -49 6 -3 18 1 27 9 13 13 13 19 2 31 -14
17 -23 20 -33 9z"/>
<path d="M4160 725 c-21 -25 2 -42 36 -26 26 11 26 12 8 26 -24 18 -29 18 -44
0z"/>
<path d="M881 641 c-8 -14 -7 -22 5 -32 20 -16 38 2 29 30 -8 26 -21 27 -34 2z"/>
<path d="M4057 636 c-8 -21 19 -54 33 -40 7 7 10 20 8 30 -4 23 -33 30 -41 10z"/>
<path d="M992 568 c-16 -16 -15 -33 2 -47 10 -9 16 -8 26 3 16 21 -10 62 -28
44z"/>
<path d="M3963 563 c-17 -6 -16 -28 0 -42 10 -8 19 -7 32 3 16 12 17 16 6 30
-14 17 -18 18 -38 9z"/>
<path d="M1090 475 c-6 -8 -9 -19 -5 -25 9 -15 41 -12 54 4 10 12 8 17 -8 25
-25 14 -26 14 -41 -4z"/>
<path d="M3846 474 c-11 -30 13 -44 43 -25 12 8 12 12 2 25 -17 20 -37 20 -45
0z"/>
<path d="M1213 413 c-7 -3 -13 -13 -13 -23 0 -10 6 -20 13 -23 14 -5 47 10 47
21 0 12 -34 29 -47 25z"/>
<path d="M3743 413 c-16 -6 -17 -25 -1 -41 12 -12 48 1 48 18 0 13 -32 28 -47
23z"/>
<path d="M1314 335 c-4 -9 0 -24 10 -33 15 -15 18 -15 26 -2 6 8 9 22 7 30 -3
21 -36 25 -43 5z"/>
<path d="M3622 337 c-7 -8 -7 -18 -2 -27 7 -12 13 -12 37 -1 27 12 27 13 8 27
-23 17 -30 17 -43 1z"/>
<path d="M1433 274 c-3 -8 2 -23 11 -32 15 -15 17 -15 30 3 10 14 11 24 4 32
-14 18 -37 16 -45 -3z"/>
<path d="M3496 281 c-8 -12 4 -41 16 -41 5 0 18 5 29 11 16 8 18 13 8 25 -13
16 -45 19 -53 5z"/>
<path d="M1561 231 c-8 -14 -7 -22 5 -32 20 -16 38 2 29 30 -8 26 -21 27 -34
2z"/>
<path d="M3380 225 c-22 -26 7 -46 39 -26 12 8 12 12 2 25 -17 20 -25 20 -41
1z"/>
<path d="M1683 174 c-9 -24 11 -38 37 -24 17 9 19 14 9 26 -15 19 -38 18 -46
-2z"/>
<path d="M3250 170 c0 -26 25 -36 45 -20 12 10 13 16 4 26 -18 22 -49 17 -49
-6z"/>
<path d="M1816 144 c-13 -12 -14 -19 -5 -30 14 -17 20 -17 43 -1 16 12 16 14
-2 30 -18 17 -21 17 -36 1z"/>
<path d="M3123 134 c-3 -8 1 -22 9 -30 13 -13 16 -13 27 0 7 9 11 23 7 31 -7
20 -35 19 -43 -1z"/>
<path d="M1941 107 c-8 -10 -7 -19 4 -33 15 -19 15 -19 30 0 11 14 12 23 4 33
-6 7 -15 13 -19 13 -4 0 -13 -6 -19 -13z"/>
<path d="M2997 113 c-24 -23 12 -55 38 -33 12 10 13 16 4 26 -12 15 -31 18
-42 7z"/>
<path d="M2077 93 c-14 -14 -7 -43 11 -43 30 0 44 21 24 36 -20 15 -26 17 -35
7z"/>
<path d="M2867 94 c-12 -12 -8 -41 7 -53 19 -16 44 14 30 37 -12 19 -27 25
-37 16z"/>
<path d="M2204 65 c-7 -18 3 -35 22 -35 20 0 30 30 13 41 -20 12 -29 11 -35
-6z"/>
<path d="M2743 73 c-16 -6 -17 -39 -2 -49 16 -9 43 21 36 40 -7 16 -13 18 -34
9z"/>
<path d="M2341 56 c-10 -12 -10 -20 0 -37 11 -22 12 -22 25 -4 17 24 17 30 0
44 -10 9 -16 8 -25 -3z"/>
<path d="M2602 58 c-8 -8 -9 -15 -1 -25 14 -16 31 -17 47 -1 9 9 7 14 -6 24
-21 17 -25 17 -40 2z"/>
<path d="M2460 48 c0 -23 18 -41 34 -35 9 4 16 16 16 27 0 15 -7 20 -25 20
-14 0 -25 -6 -25 -12z"/>
</g>
</svg>
