<?xml version="1.0" standalone="no"?>
<!DOCTYPE svg PUBLIC "-//W3C//DTD SVG 20010904//EN"
 "http://www.w3.org/TR/2001/REC-SVG-20010904/DTD/svg10.dtd">
<svg version="1.0" xmlns="http://www.w3.org/2000/svg"
 width="499.000000pt" height="500.000000pt" viewBox="0 0 499.000000 500.000000"
 preserveAspectRatio="xMidYMid meet">
<metadata>
Created by potrace 1.15, written by Peter Selinger 2001-2017
</metadata>
<g transform="translate(0.000000,500.000000) scale(0.100000,-0.100000)"
fill="#000000" stroke="none">
<path d="M2471 4971 c-16 -28 14 -51 36 -28 13 13 14 19 3 31 -17 21 -27 20
-39 -3z"/>
<path d="M2210 4960 c-14 -26 0 -46 24 -37 20 8 21 31 2 46 -12 10 -17 8 -26
-9z"/>
<path d="M2340 4965 c-6 -8 -9 -19 -5 -25 9 -15 41 -12 54 4 10 12 8 17 -8 25
-25 14 -26 14 -41 -4z"/>
<path d="M2604 4965 c-12 -29 15 -45 45 -26 12 8 12 12 2 25 -17 20 -40 21
-47 1z"/>
<path d="M2742 4958 c-8 -8 -9 -15 -1 -25 15 -17 34 -17 48 1 10 12 8 17 -8
25 -24 14 -24 14 -39 -1z"/>
<path d="M2077 4943 c-24 -23 12 -55 38 -33 12 10 13 16 4 26 -12 15 -31 18
-42 7z"/>
<path d="M2877 4943 c-11 -10 -8 -41 5 -49 17 -11 40 26 27 43 -13 14 -22 16
-32 6z"/>
<path d="M1953 4923 c-17 -6 -17 -38 0 -51 20 -17 44 25 25 43 -7 7 -19 11
-25 8z"/>
<path d="M3000 4915 c-10 -13 -10 -19 5 -35 18 -20 18 -20 32 0 12 17 12 24 3
35 -16 19 -24 19 -40 0z"/>
<path d="M1815 4879 c-10 -30 11 -48 32 -27 13 14 14 20 3 32 -17 22 -27 20
-35 -5z"/>
<path d="M3136 4884 c-13 -12 -14 -19 -5 -30 14 -17 20 -17 43 -1 16 12 16 14
-2 30 -18 17 -21 17 -36 1z"/>
<path d="M3262 4849 c-15 -24 -8 -39 19 -39 22 0 26 32 6 48 -10 8 -16 6 -25
-9z"/>
<path d="M1684 4839 c-3 -6 0 -17 8 -25 12 -12 17 -12 32 -1 11 8 16 19 12 25
-9 15 -43 15 -52 1z"/>
<path d="M1567 4803 c-11 -10 -8 -41 4 -49 6 -3 18 1 27 9 13 13 13 19 2 31
-14 17 -23 20 -33 9z"/>
<path d="M3384 4795 c-12 -29 15 -45 45 -26 12 8 12 12 2 25 -17 20 -40 21
-47 1z"/>
<path d="M1440 4745 c-9 -11 -9 -18 3 -35 14 -20 14 -20 32 0 15 16 15 22 5
35 -16 19 -24 19 -40 0z"/>
<path d="M3512 4748 c-27 -27 -3 -54 31 -36 22 11 22 25 -1 37 -13 7 -23 6
-30 -1z"/>
<path d="M1322 4690 c-15 -24 -8 -40 18 -40 23 0 31 21 15 43 -16 22 -17 21
-33 -3z"/>
<path d="M3631 4686 c-18 -22 4 -62 25 -45 18 15 18 33 0 48 -10 9 -16 8 -25
-3z"/>
<path d="M3745 4619 c-10 -30 11 -48 32 -27 13 14 14 20 3 32 -17 22 -27 20
-35 -5z"/>
<path d="M1204 4615 c-12 -29 15 -45 45 -26 12 8 12 12 2 25 -17 20 -40 21
-47 1z"/>
<path d="M1090 4545 c-10 -13 -9 -19 6 -36 l18 -20 12 23 c20 37 -10 64 -36
33z"/>
<path d="M3852 4548 c-8 -8 -9 -15 -1 -25 15 -17 34 -17 48 1 10 12 8 17 -8
25 -24 14 -24 14 -39 -1z"/>
<path d="M985 4470 c-9 -15 5 -52 18 -47 6 2 15 11 21 20 8 13 7 20 -4 27 -19
12 -27 12 -35 0z"/>
<path d="M3961 4466 c-18 -21 11 -41 39 -26 17 9 19 14 9 26 -15 18 -33 18
-48 0z"/>
<path d="M880 4385 c-11 -13 -11 -19 3 -33 20 -19 41 -5 35 24 -4 24 -22 28
-38 9z"/>
<path d="M4073 4393 c-16 -6 -17 -29 -3 -38 13 -8 50 3 50 15 0 13 -32 28 -47
23z"/>
<path d="M784 4295 c-12 -31 23 -48 45 -21 10 12 8 17 -8 25 -26 14 -31 14
-37 -4z"/>
<path d="M4165 4300 c-8 -12 3 -50 14 -50 5 0 14 7 21 15 10 12 10 18 0 30
-14 17 -26 19 -35 5z"/>
<path d="M4262 4209 c-15 -24 0 -51 24 -42 18 6 18 37 1 51 -10 8 -16 6 -25
-9z"/>
<path d="M685 4200 c-3 -5 -1 -19 6 -31 10 -19 12 -20 26 -6 9 9 13 23 10 31
-7 18 -32 21 -42 6z"/>
<path d="M3944 4165 c-29 -8 -116 -40 -195 -71 -157 -62 -212 -70 -281 -40
-21 9 -48 16 -60 16 -31 -1 -100 -33 -176 -82 -59 -38 -69 -42 -135 -42 -68
-1 -76 -4 -147 -48 -51 -32 -98 -52 -146 -63 -83 -19 -140 -52 -171 -100 -32
-49 -63 -182 -74 -319 -5 -67 -16 -191 -25 -276 -25 -262 -29 -480 -11 -605 9
-60 19 -172 22 -247 4 -76 10 -138 15 -138 9 0 20 85 20 158 0 43 5 58 26 79
14 14 24 26 22 27 -2 1 -15 7 -30 14 -35 14 -56 84 -65 207 -10 166 32 768 59
819 6 12 20 31 31 44 l20 22 -22 0 c-17 0 -21 5 -17 18 3 9 8 40 12 67 13 98
57 140 174 170 83 21 94 28 156 86 61 56 88 65 150 50 64 -16 112 -1 168 53
59 58 107 69 213 49 90 -17 135 -9 250 43 107 49 219 84 291 91 74 7 89 -2
122 -78 18 -43 22 -76 27 -237 7 -214 -5 -318 -41 -357 -11 -13 -39 -33 -61
-45 l-40 -20 -22 27 c-29 36 -53 106 -53 156 0 85 30 164 121 324 32 56 16 67
-25 18 l-34 -40 -18 60 c-18 56 -19 57 -25 30 -4 -17 -7 -67 -8 -112 0 -45 -4
-89 -7 -98 -4 -9 -28 -27 -54 -40 -97 -49 -118 -94 -140 -292 -8 -75 -12 -563
-4 -563 1 0 14 25 28 56 17 37 49 78 92 119 59 57 67 69 80 124 7 34 23 79 34
101 44 87 141 152 228 154 79 2 82 -45 12 -195 -31 -67 -60 -149 -75 -216 -88
-376 -116 -432 -322 -636 -117 -115 -165 -184 -213 -308 -71 -183 -100 -366
-100 -621 0 -241 32 -628 52 -628 4 0 5 19 1 43 -12 63 -8 594 5 738 13 143
39 241 113 426 65 164 128 285 181 350 24 28 69 83 101 121 114 138 165 253
243 547 20 77 53 178 72 224 34 81 35 86 21 125 -12 34 -23 45 -66 66 -29 14
-55 29 -58 32 -3 3 -1 62 5 130 17 181 1 389 -35 464 -41 83 -94 100 -211 69z
m-15 -699 c16 -41 5 -81 -31 -111 -21 -18 -40 -25 -61 -23 -46 5 -53 25 -39
118 13 95 43 167 80 197 l27 21 6 -86 c3 -48 11 -100 18 -116z m13 -202 c-50
-100 -67 -124 -105 -151 -25 -18 -48 -33 -51 -33 -3 0 -6 47 -6 104 l0 104 31
6 c17 3 45 6 61 6 21 0 43 13 76 44 26 25 48 43 50 41 2 -1 -24 -56 -56 -121z"/>
<path d="M602 4118 c-15 -15 -15 -31 -1 -45 15 -15 39 -5 39 17 0 26 -23 43
-38 28z"/>
<path d="M4350 4105 c-15 -18 -5 -35 20 -35 10 0 22 5 25 10 7 11 -12 40 -25
40 -4 0 -13 -7 -20 -15z"/>
<path d="M4431 4001 c-8 -14 -7 -22 4 -31 22 -19 48 5 34 31 -5 10 -14 19 -19
19 -5 0 -14 -9 -19 -19z"/>
<path d="M514 3995 c-13 -32 23 -48 47 -19 10 13 10 17 -2 25 -21 13 -39 11
-45 -6z"/>
<path d="M433 3884 c-3 -8 1 -22 9 -30 13 -13 16 -13 27 0 7 9 11 23 7 31 -7
20 -35 19 -43 -1z"/>
<path d="M4505 3890 c-7 -11 12 -50 24 -50 10 0 21 24 21 46 0 16 -36 19 -45
4z"/>
<path d="M365 3780 c-8 -12 3 -50 14 -50 15 0 33 30 27 45 -6 17 -32 20 -41 5z"/>
<path d="M4583 3779 c-13 -13 -6 -39 11 -39 22 0 37 22 25 37 -14 16 -22 16
-36 2z"/>
<path d="M3140 3675 c-74 -13 -182 -35 -240 -49 -102 -25 -235 -74 -226 -83 2
-3 60 13 128 35 150 49 401 100 535 108 125 8 249 -7 269 -33 13 -15 14 -63
10 -308 -4 -297 -18 -460 -57 -670 -25 -134 -47 -189 -86 -209 -56 -28 -190
-46 -354 -46 -104 0 -160 -4 -165 -11 -5 -8 48 -10 192 -6 263 6 341 27 386
103 48 83 102 557 103 907 l0 229 -33 29 -32 29 -148 -1 c-106 0 -184 -7 -282
-24z"/>
<path d="M300 3665 c-23 -28 21 -50 48 -23 9 9 7 14 -6 24 -22 17 -27 17 -42
-1z"/>
<path d="M4650 3665 c-22 -26 7 -46 39 -26 12 8 12 12 2 25 -17 20 -25 20 -41
1z"/>
<path d="M242 3549 c-12 -18 -11 -24 0 -35 12 -12 17 -12 32 -1 15 11 17 17 7
35 -15 27 -23 28 -39 1z"/>
<path d="M4707 3553 c-12 -11 -8 -40 7 -52 12 -10 17 -8 26 9 16 29 -12 65
-33 43z"/>
<path d="M4762 3429 c-15 -24 0 -51 24 -42 18 6 18 37 1 51 -10 8 -16 6 -25
-9z"/>
<path d="M190 3425 c-10 -11 -10 -19 -2 -27 15 -15 44 -2 40 19 -4 23 -22 27
-38 8z"/>
<path d="M1788 3418 c-7 -19 2 -38 17 -38 18 0 26 15 19 34 -7 19 -30 21 -36
4z"/>
<path d="M3050 3427 c0 -4 -14 -59 -31 -123 -32 -124 -33 -168 -1 -62 26 84
45 178 38 185 -3 4 -6 3 -6 0z"/>
<path d="M875 3400 c-3 -5 3 -10 14 -10 26 0 26 -15 5 -107 -28 -123 -35 -143
-49 -143 -8 0 -17 -4 -20 -10 -4 -6 18 -10 59 -10 63 0 88 12 47 23 -13 3 -18
11 -16 23 42 187 46 199 73 221 l27 23 -67 0 c-37 0 -70 -4 -73 -10z"/>
<path d="M1025 3400 c-3 -5 3 -10 14 -10 22 0 26 -9 36 -95 3 -27 11 -78 17
-113 16 -95 35 -85 120 58 38 63 83 127 101 142 l32 27 -57 1 c-57 0 -90 -16
-44 -22 25 -3 24 -4 -36 -110 -34 -59 -64 -105 -66 -103 -3 2 -11 48 -19 102
l-14 97 23 18 c23 17 22 18 -39 18 -34 0 -65 -4 -68 -10z"/>
<path d="M1480 3400 c0 -5 7 -10 15 -10 20 0 19 -31 -5 -135 -27 -110 -27
-112 -53 -121 -14 -5 20 -9 92 -11 63 -2 118 0 123 5 5 5 11 25 15 45 7 45
-10 49 -31 8 -12 -23 -24 -30 -62 -36 -25 -3 -50 -3 -54 2 -4 4 5 59 19 122
22 97 29 115 49 122 37 14 25 19 -43 19 -37 0 -65 -4 -65 -10z"/>
<path d="M3130 3367 c0 -1 -13 -63 -30 -137 -32 -144 -36 -180 -20 -164 9 9
70 261 70 290 0 8 -4 14 -10 14 -5 0 -10 -1 -10 -3z"/>
<path d="M1959 3293 l-32 -38 6 33 c6 32 6 32 -33 32 -22 0 -40 -4 -40 -10 0
-5 7 -10 15 -10 18 0 18 -7 0 -95 -19 -87 -19 -85 4 -85 14 0 21 10 26 37 11
59 51 122 87 135 24 10 26 -7 9 -89 -17 -82 -10 -100 33 -89 28 7 36 26 11 26
-19 0 -19 0 1 86 20 85 15 104 -25 104 -21 0 -38 -10 -62 -37z"/>
<path d="M2173 3308 c-34 -24 -63 -81 -63 -124 0 -14 12 -37 26 -51 22 -21 32
-25 66 -20 23 3 50 15 62 27 l21 21 -43 -15 c-55 -20 -85 -8 -80 31 2 22 12
29 57 44 29 10 60 24 67 30 17 14 18 51 2 67 -20 20 -80 14 -115 -10z m82 -8
c11 -17 -16 -51 -50 -66 -19 -8 -37 -14 -40 -14 -12 0 -3 26 21 57 24 32 57
43 69 23z"/>
<path d="M144 3303 c-20 -33 7 -58 34 -31 7 7 8 17 1 30 -12 23 -21 23 -35 1z"/>
<path d="M1730 3310 c0 -5 7 -10 15 -10 19 0 19 1 -5 -90 -14 -54 -16 -78 -8
-87 14 -17 40 -16 64 2 19 14 18 14 -3 15 -28 0 -27 -3 -3 90 11 41 20 78 20
83 0 4 -18 7 -40 7 -22 0 -40 -4 -40 -10z"/>
<path d="M4807 3303 c-24 -23 12 -55 38 -33 12 10 13 16 4 26 -12 15 -31 18
-42 7z"/>
<path d="M4847 3183 c-11 -10 -8 -41 4 -49 6 -3 18 1 27 9 13 13 13 19 2 31
-14 17 -23 20 -33 9z"/>
<path d="M103 3164 c-9 -24 11 -38 36 -25 25 14 27 27 5 35 -25 9 -34 7 -41
-10z"/>
<path d="M2738 3075 c-57 -32 -97 -135 -73 -191 16 -39 41 -54 92 -54 68 0
141 94 127 165 -6 34 -46 85 -67 85 -7 0 -21 2 -32 5 -11 3 -32 -2 -47 -10z
m72 -90 c0 -22 -41 -65 -62 -65 -17 0 -19 4 -13 33 8 41 42 72 61 56 8 -6 14
-17 14 -24z"/>
<path d="M74 3046 c-9 -37 10 -56 33 -33 16 16 16 18 -4 39 l-22 21 -7 -27z"/>
<path d="M4874 3035 c-13 -32 23 -48 47 -19 10 13 10 17 -2 25 -21 13 -39 11
-45 -6z"/>
<path d="M2910 2950 c0 -58 -1 -60 -45 -96 -34 -29 -42 -41 -33 -51 15 -18 48
-16 80 5 76 50 97 133 45 178 -16 13 -32 24 -38 24 -5 0 -9 -27 -9 -60z"/>
<path d="M1097 2924 c-13 -13 -7 -42 8 -48 22 -8 31 22 13 40 -8 8 -17 11 -21
8z"/>
<path d="M47 2913 c-23 -22 14 -53 39 -32 11 9 11 15 3 25 -12 15 -31 18 -42
7z"/>
<path d="M2118 2903 c-9 -10 -23 -33 -32 -51 -10 -18 -24 -36 -32 -39 -19 -7
-18 -23 1 -23 17 0 19 -20 6 -70 -5 -19 -15 -61 -21 -92 -6 -32 -18 -65 -27
-73 -14 -14 -17 -14 -28 2 -11 14 -16 15 -26 6 -20 -20 -3 -43 34 -43 55 0 74
30 99 157 21 110 22 111 52 118 l31 7 -27 10 c-35 12 -35 29 -3 65 24 27 25
28 40 9 11 -15 18 -17 26 -9 7 7 9 19 6 27 -9 23 -79 21 -99 -1z"/>
<path d="M4895 2910 c-8 -13 13 -40 30 -40 21 0 36 25 23 38 -15 15 -45 16
-53 2z"/>
<path d="M1583 2903 c-18 -7 -16 -23 1 -23 8 0 17 -3 19 -8 7 -10 -42 -226
-52 -230 -4 -1 -17 -9 -27 -17 -17 -13 -6 -15 101 -12 l119 2 12 42 c16 55 3
62 -30 18 -24 -31 -32 -35 -72 -35 -24 0 -44 5 -44 11 0 5 10 54 21 107 16 70
28 103 45 118 l23 22 -22 6 c-26 7 -77 7 -94 -1z"/>
<path d="M3002 2878 c-10 -13 -62 -108 -62 -114 0 -2 14 2 30 8 39 13 60 44
60 85 0 34 -10 42 -28 21z"/>
<path d="M2235 2840 c-31 -32 -37 -43 -26 -49 11 -7 11 -20 2 -73 -15 -88 -14
-106 7 -110 26 -6 52 3 52 17 0 8 -8 11 -18 8 -18 -4 -18 -1 -4 75 15 77 17
80 46 87 l31 7 -26 9 c-21 8 -25 14 -21 39 2 17 2 30 0 30 -2 0 -22 -18 -43
-40z"/>
<path d="M1890 2812 c-102 -51 -108 -202 -8 -205 19 0 48 7 63 17 30 20 28 33
-3 17 -32 -17 -70 -13 -82 8 -16 31 -3 46 53 64 64 21 73 26 81 54 5 15 1 28
-13 42 -26 26 -46 26 -91 3z m56 -45 c-4 -18 -17 -29 -42 -37 -44 -15 -50 -10
-29 30 28 54 85 60 71 7z"/>
<path d="M1188 2813 c-22 -6 -24 -23 -3 -23 11 0 14 -7 10 -22 -30 -133 -32
-158 -10 -158 8 0 17 12 20 28 10 43 30 85 60 120 52 62 69 33 39 -67 -8 -29
-13 -59 -10 -67 6 -16 62 -19 71 -4 3 6 -3 10 -15 10 -16 0 -20 5 -16 18 15
49 32 139 28 155 -2 12 -13 17 -37 17 -26 0 -39 -8 -64 -37 l-30 -38 6 38 c6
39 -1 43 -49 30z"/>
<path d="M1030 2800 c0 -5 7 -10 15 -10 19 0 19 -17 -1 -92 -8 -33 -13 -67
-10 -75 7 -18 68 -14 74 5 2 7 -2 10 -12 6 -21 -8 -20 13 3 104 l19 72 -44 0
c-24 0 -44 -4 -44 -10z"/>
<path d="M30 2775 c-11 -13 -11 -19 4 -33 15 -15 18 -15 26 -2 22 33 -6 64
-30 35z"/>
<path d="M4916 2781 c-10 -16 5 -41 24 -41 25 0 35 18 20 35 -14 17 -36 20
-44 6z"/>
<path d="M2853 2708 c-6 -7 -13 -31 -17 -53 -12 -69 -25 -100 -48 -110 -27
-12 -32 -26 -16 -47 9 -12 36 -19 88 -23 l75 -6 -26 20 -26 20 17 90 c9 50 14
94 11 99 -11 17 -48 23 -58 10z"/>
<path d="M21 2647 c-15 -19 -3 -49 18 -45 9 2 16 13 16 27 0 29 -17 37 -34 18z"/>
<path d="M4930 2644 c-11 -12 -10 -18 3 -32 16 -15 18 -15 34 0 13 14 14 20 3
32 -7 9 -16 16 -20 16 -4 0 -13 -7 -20 -16z"/>
<path d="M4930 2514 c-11 -12 -10 -18 3 -32 16 -15 18 -15 34 0 13 14 14 20 3
32 -7 9 -16 16 -20 16 -4 0 -13 -7 -20 -16z"/>
<path d="M4 2508 c-6 -10 20 -38 37 -38 10 0 20 30 13 41 -8 13 -41 11 -50 -3z"/>
<path d="M2700 2404 c-6 -14 -10 -32 -10 -39 0 -52 -25 -119 -56 -150 -19 -19
-34 -41 -34 -49 0 -19 -49 -124 -61 -132 -5 -3 -9 -22 -9 -43 0 -29 -14 -60
-58 -130 -85 -136 -296 -432 -381 -536 -122 -147 -401 -418 -635 -615 -120
-101 -213 -186 -207 -188 24 -8 395 269 535 399 92 87 409 447 513 584 60 79
224 326 277 418 28 48 53 59 75 33 8 -10 0 -27 -37 -77 -27 -35 -86 -118 -132
-184 -162 -233 -284 -401 -344 -475 -110 -136 -442 -458 -628 -608 -98 -79
-181 -148 -184 -154 -21 -34 25 -2 183 124 98 80 210 169 249 199 99 77 368
370 477 519 49 69 133 181 186 250 53 68 126 167 164 219 56 79 76 99 119 120
51 26 52 27 100 141 39 90 48 122 43 148 -4 23 2 57 22 112 28 79 28 79 8 94
-28 21 -103 46 -137 46 -21 0 -31 -6 -38 -26z m93 -30 c3 -3 0 -26 -8 -50 -11
-38 -11 -44 2 -44 8 0 22 18 30 40 9 22 22 40 29 40 9 0 4 -24 -17 -82 -37
-102 -34 -96 -64 -90 -27 5 -35 -14 -14 -35 8 -8 5 -28 -11 -72 -13 -34 -20
-64 -17 -67 3 -3 20 22 37 56 17 34 34 59 37 56 5 -5 -55 -166 -63 -166 -17 0
-144 65 -144 74 0 6 15 40 34 76 28 55 37 65 58 63 23 -1 26 5 48 95 12 54 25
100 27 105 5 8 27 9 36 1z"/>
<path d="M2253 2403 c-26 -5 -31 -23 -7 -23 11 0 14 -5 10 -16 -3 -9 -6 -22
-6 -30 0 -8 -10 -14 -25 -14 -74 0 -145 -65 -145 -134 0 -77 54 -112 101 -65
l21 21 14 -21 c18 -25 46 -27 64 -6 10 13 9 15 -9 15 -11 0 -21 3 -21 8 0 4
13 67 29 140 30 143 32 136 -26 125z m-19 -112 c4 -5 1 -32 -5 -60 -7 -36 -19
-58 -41 -76 -34 -28 -45 -28 -64 1 -11 16 -8 29 16 82 26 56 32 62 59 62 16 0
32 -4 35 -9z"/>
<path d="M1250 2390 c0 -5 9 -10 20 -10 11 0 20 -2 20 -4 0 -3 -11 -56 -25
-120 -14 -64 -25 -118 -25 -121 0 -3 -9 -5 -20 -5 -11 0 -20 -4 -20 -9 0 -10
71 -18 108 -13 27 4 29 22 2 22 -23 0 -24 2 -9 70 l11 50 70 0 c61 0 69 -2 64
-17 -3 -10 -8 -35 -12 -56 -5 -28 -13 -41 -30 -47 -39 -15 -28 -20 41 -20 37
0 65 4 65 10 0 6 -7 10 -15 10 -20 0 -19 14 7 137 19 93 25 106 47 116 23 11
20 12 -38 15 -67 3 -87 -3 -58 -19 19 -11 22 -44 7 -83 -9 -24 -14 -26 -76
-26 l-66 0 7 43 c8 47 20 67 41 67 8 0 14 5 14 10 0 6 -28 10 -65 10 -37 0
-65 -4 -65 -10z"/>
<path d="M14 2375 c-4 -9 0 -24 10 -33 15 -15 18 -15 26 -2 6 8 9 22 7 30 -3
21 -36 25 -43 5z"/>
<path d="M4926 2373 c-10 -26 9 -38 40 -24 26 11 26 12 8 26 -25 19 -40 19
-48 -2z"/>
<path d="M1633 2300 c-47 -28 -68 -76 -64 -147 2 -47 57 -69 93 -36 17 15 19
15 37 -1 22 -20 62 -18 69 3 3 10 0 12 -12 8 -21 -8 -21 17 0 102 16 61 16 65
-2 78 -26 19 -84 16 -121 -7z m93 -13 c9 -25 -30 -120 -59 -141 l-27 -20 -22
22 -22 21 24 52 c13 28 33 57 44 65 26 18 55 18 62 1z"/>
<path d="M1933 2283 l-35 -38 7 33 c6 31 6 32 -29 32 -19 0 -38 -4 -41 -10 -3
-5 1 -10 9 -10 21 0 20 -14 -10 -157 -3 -18 0 -23 15 -23 14 0 21 11 29 43 19
74 86 150 106 119 3 -5 -3 -40 -13 -79 -20 -77 -16 -93 25 -93 12 0 28 7 35
16 12 15 11 16 -10 9 -21 -6 -23 -5 -19 16 3 13 11 51 18 85 7 33 10 68 7 77
-11 30 -56 20 -94 -20z"/>
<path d="M4922 2253 c-11 -22 -5 -43 13 -43 19 0 27 17 20 40 -8 25 -21 26
-33 3z"/>
<path d="M30 2245 c-22 -26 7 -46 39 -26 12 8 12 12 2 25 -17 20 -25 20 -41 1z"/>
<path d="M44 2109 c-3 -6 0 -17 8 -25 12 -12 17 -12 32 -1 11 8 16 19 12 25
-9 15 -43 15 -52 1z"/>
<path d="M4894 2109 c-3 -6 0 -18 9 -26 12 -12 18 -13 35 -2 16 10 18 16 10
26 -13 16 -44 17 -54 2z"/>
<path d="M75 1990 c-16 -18 -17 -22 -4 -35 12 -12 18 -13 31 -3 14 11 15 17 4
36 l-12 23 -19 -21z"/>
<path d="M4864 1979 c-3 -6 1 -18 10 -27 15 -15 17 -15 32 0 19 19 11 38 -16
38 -10 0 -22 -5 -26 -11z"/>
<path d="M107 1863 c-4 -3 -7 -15 -7 -25 0 -20 25 -24 50 -8 13 8 12 11 -5 24
-23 17 -29 19 -38 9z"/>
<path d="M4844 1855 c-7 -17 2 -45 14 -45 4 0 17 6 28 14 19 15 19 15 -1 30
-25 20 -34 20 -41 1z"/>
<path d="M143 1729 c-15 -15 -5 -39 17 -39 26 0 43 23 28 38 -15 15 -31 15
-45 1z"/>
<path d="M2583 1718 c-18 -20 -21 -41 -27 -166 -3 -78 -3 -377 1 -664 9 -700
24 -655 34 102 4 316 11 614 15 663 4 48 5 87 2 87 -2 0 -14 -10 -25 -22z"/>
<path d="M4809 1724 c-16 -20 2 -38 30 -29 26 8 27 21 2 34 -14 8 -22 7 -32
-5z"/>
<path d="M184 1599 c-3 -6 1 -18 10 -27 15 -15 17 -15 32 0 19 19 11 38 -16
38 -10 0 -22 -5 -26 -11z"/>
<path d="M4754 1599 c-3 -6 1 -18 10 -27 15 -15 17 -15 32 0 19 19 11 38 -16
38 -10 0 -22 -5 -26 -11z"/>
<path d="M240 1484 c-11 -12 -10 -18 3 -32 16 -15 18 -15 34 0 13 14 14 20 3
32 -7 9 -16 16 -20 16 -4 0 -13 -7 -20 -16z"/>
<path d="M4704 1475 c-12 -29 15 -45 45 -26 12 8 12 12 2 25 -17 20 -40 21
-47 1z"/>
<path d="M301 1367 c-15 -19 -3 -49 18 -45 9 2 16 13 16 27 0 29 -17 37 -34
18z"/>
<path d="M4643 1354 c-3 -8 1 -22 9 -30 13 -13 16 -13 27 -1 14 17 4 47 -15
47 -8 0 -17 -7 -21 -16z"/>
<path d="M370 1245 c-19 -22 5 -48 31 -34 10 5 19 14 19 19 0 5 -9 14 -19 19
-14 8 -22 7 -31 -4z"/>
<path d="M4580 1244 c-11 -12 -10 -18 3 -32 16 -15 18 -15 34 0 13 14 14 20 3
32 -7 9 -16 16 -20 16 -4 0 -13 -7 -20 -16z"/>
<path d="M440 1135 c-11 -13 -11 -19 3 -33 20 -19 41 -5 35 24 -4 24 -22 28
-38 9z"/>
<path d="M4509 1134 c-10 -12 -9 -18 4 -31 13 -13 19 -14 31 -3 21 17 20 27
-3 39 -14 8 -22 7 -32 -5z"/>
<path d="M521 1036 c-14 -17 -5 -59 12 -53 23 7 32 36 16 52 -14 14 -17 14
-28 1z"/>
<path d="M4431 1021 c-12 -21 -5 -31 20 -31 24 0 33 18 19 35 -17 20 -27 19
-39 -4z"/>
<path d="M4352 928 c-17 -17 -15 -35 5 -42 22 -9 36 7 28 33 -7 24 -16 26 -33
9z"/>
<path d="M600 920 c-13 -8 -13 -11 1 -26 14 -13 21 -14 40 -4 22 12 22 13 4
26 -22 16 -25 17 -45 4z"/>
<path d="M687 816 c-3 -8 0 -20 8 -26 19 -16 59 8 43 27 -14 17 -45 17 -51 -1z"/>
<path d="M4254 819 c-3 -6 1 -18 10 -27 15 -15 17 -15 32 0 19 19 11 38 -16
38 -10 0 -22 -5 -26 -11z"/>
<path d="M785 730 c-7 -23 1 -40 20 -40 18 0 24 21 13 43 -12 23 -25 22 -33
-3z"/>
<path d="M4164 725 c-12 -29 15 -45 45 -26 12 8 12 12 2 25 -17 20 -40 21 -47
1z"/>
<path d="M4071 646 c-14 -16 -4 -46 14 -46 19 0 27 17 20 40 -7 23 -18 25 -34
6z"/>
<path d="M884 635 c-12 -31 23 -48 45 -21 10 12 8 17 -8 25 -26 14 -31 14 -37
-4z"/>
<path d="M3967 563 c-11 -11 -8 -40 6 -51 19 -16 43 24 26 44 -13 15 -22 18
-32 7z"/>
<path d="M984 549 c-3 -6 0 -17 8 -25 12 -12 17 -12 33 1 17 13 18 16 5 25
-20 13 -37 13 -46 -1z"/>
<path d="M1092 480 c-15 -25 -8 -40 18 -40 25 0 33 15 20 40 -14 25 -22 25
-38 0z"/>
<path d="M3857 482 c-16 -17 -16 -21 -2 -32 15 -12 45 -8 45 8 0 4 -6 16 -13
26 -12 16 -14 16 -30 -2z"/>
<path d="M1212 408 c-27 -27 -3 -54 31 -36 22 11 22 25 -1 37 -13 7 -23 6 -30
-1z"/>
<path d="M3746 413 c-10 -10 -7 -38 6 -51 9 -9 14 -7 24 6 8 9 14 20 14 24 0
11 -36 28 -44 21z"/>
<path d="M1322 338 c-8 -8 -9 -15 -1 -25 15 -17 34 -17 48 1 10 12 8 17 -8 25
-24 14 -24 14 -39 -1z"/>
<path d="M3630 335 c-10 -12 -10 -18 0 -31 12 -13 15 -13 28 0 15 15 10 46 -6
46 -5 0 -15 -7 -22 -15z"/>
<path d="M3510 285 c-15 -18 -6 -45 14 -45 20 0 29 16 21 40 -8 24 -18 25 -35
5z"/>
<path d="M1442 278 c-13 -13 2 -38 23 -38 21 0 36 25 23 38 -7 7 -17 12 -23
12 -6 0 -16 -5 -23 -12z"/>
<path d="M1565 230 c-7 -23 1 -40 20 -40 21 0 27 17 15 40 -14 25 -27 26 -35
0z"/>
<path d="M3384 225 c-7 -18 3 -35 22 -35 20 0 30 30 13 41 -20 12 -29 11 -35
-6z"/>
<path d="M3261 188 c-11 -17 -10 -23 2 -35 18 -18 37 -9 37 16 0 31 -24 43
-39 19z"/>
<path d="M1681 181 c-12 -8 -12 -12 -2 -25 17 -20 37 -20 45 0 11 30 -13 44
-43 25z"/>
<path d="M1816 141 c-14 -16 -15 -20 -2 -30 11 -9 20 -10 35 -1 26 13 26 22 2
37 -15 10 -22 9 -35 -6z"/>
<path d="M3131 142 c-8 -15 -7 -23 5 -33 18 -15 38 0 32 27 -5 25 -25 28 -37
6z"/>
<path d="M1935 106 c-19 -14 -19 -15 8 -27 31 -14 52 -2 41 24 -8 21 -24 22
-49 3z"/>
<path d="M3002 108 c-8 -8 -9 -15 -1 -25 14 -17 34 -17 48 0 11 15 -3 37 -24
37 -6 0 -16 -5 -23 -12z"/>
<path d="M2872 89 c-12 -18 -11 -24 0 -35 12 -12 17 -12 32 -1 16 12 17 16 5
35 -17 27 -21 27 -37 1z"/>
<path d="M2073 84 c-3 -8 1 -22 9 -30 12 -12 16 -12 33 0 20 15 20 15 0 30
-26 20 -34 20 -42 0z"/>
<path d="M2204 65 c-12 -29 15 -45 45 -26 12 8 12 12 2 25 -17 20 -40 21 -47
1z"/>
<path d="M2740 65 c-23 -28 21 -50 48 -23 9 9 7 14 -6 24 -22 17 -27 17 -42
-1z"/>
<path d="M2341 56 c-10 -12 -10 -19 2 -36 12 -18 16 -18 26 -6 14 17 11 48 -5
53 -6 2 -17 -3 -23 -11z"/>
<path d="M2606 54 c-11 -30 13 -44 43 -25 12 8 12 12 2 25 -17 20 -37 20 -45
0z"/>
<path d="M2467 54 c-10 -10 12 -44 28 -44 9 0 15 10 15 25 0 18 -5 25 -18 25
-10 0 -22 -3 -25 -6z"/>
</g>
</svg>
