<?xml version="1.0" standalone="no"?>
<!DOCTYPE svg PUBLIC "-//W3C//DTD SVG 20010904//EN"
 "http://www.w3.org/TR/2001/REC-SVG-20010904/DTD/svg10.dtd">
<svg version="1.0" xmlns="http://www.w3.org/2000/svg"
 width="498.000000pt" height="500.000000pt" viewBox="0 0 498.000000 500.000000"
 preserveAspectRatio="xMidYMid meet">
<metadata>
Created by potrace 1.15, written by Peter Selinger 2001-2017
</metadata>
<g transform="translate(0.000000,500.000000) scale(0.100000,-0.100000)"
fill="#000000" stroke="none">
<path d="M2471 4978 c-11 -17 -10 -23 2 -35 18 -18 37 -9 37 16 0 31 -24 43
-39 19z"/>
<path d="M2335 4970 c-8 -24 1 -40 21 -40 20 0 29 27 14 45 -17 20 -27 19 -35
-5z"/>
<path d="M2607 4983 c-11 -10 -8 -41 4 -49 6 -3 18 1 27 9 13 13 13 19 2 31
-14 17 -23 20 -33 9z"/>
<path d="M2741 4966 c-17 -20 -6 -49 16 -44 22 4 26 20 10 42 -12 16 -14 16
-26 2z"/>
<path d="M2207 4963 c-24 -23 12 -55 38 -33 12 10 13 16 4 26 -12 15 -31 18
-42 7z"/>
<path d="M2077 4943 c-24 -23 12 -55 38 -33 12 10 13 16 4 26 -12 15 -31 18
-42 7z"/>
<path d="M2865 4940 c-8 -12 3 -50 14 -50 15 0 33 30 27 45 -6 17 -32 20 -41
5z"/>
<path d="M2999 4914 c-15 -18 0 -38 27 -32 25 5 28 25 6 37 -15 8 -23 7 -33
-5z"/>
<path d="M1935 4910 c-3 -5 0 -18 7 -29 14 -23 38 -11 38 20 0 20 -34 27 -45
9z"/>
<path d="M1817 4883 c-11 -10 -8 -41 4 -48 16 -10 40 27 27 42 -12 14 -21 16
-31 6z"/>
<path d="M3123 4874 c-9 -24 11 -38 36 -25 25 14 27 27 5 35 -25 9 -34 7 -41
-10z"/>
<path d="M1684 4839 c-3 -6 0 -17 7 -24 12 -12 17 -11 34 1 17 13 18 16 5 24
-20 13 -37 12 -46 -1z"/>
<path d="M3254 4835 c-8 -19 12 -36 33 -28 19 7 12 37 -10 41 -9 2 -20 -4 -23
-13z"/>
<path d="M1562 4797 c-16 -19 11 -58 28 -41 14 14 10 46 -6 51 -6 2 -16 -2
-22 -10z"/>
<path d="M3374 4795 c-12 -31 28 -49 54 -23 9 9 7 14 -6 24 -23 18 -41 17 -48
-1z"/>
<path d="M1441 4747 c-15 -15 -14 -32 2 -46 16 -13 37 4 37 30 0 21 -24 31
-39 16z"/>
<path d="M3500 4745 c-11 -13 -11 -19 3 -33 20 -19 41 -5 35 24 -4 24 -22 28
-38 9z"/>
<path d="M1319 4684 c-15 -18 0 -38 27 -32 25 5 28 25 6 37 -15 8 -23 7 -33
-5z"/>
<path d="M3620 4685 c-6 -8 -9 -19 -5 -25 9 -14 40 -13 54 3 8 11 5 16 -13 25
-19 8 -27 8 -36 -3z"/>
<path d="M1207 4623 c-11 -10 -8 -41 5 -49 17 -11 40 26 27 43 -13 14 -22 16
-32 6z"/>
<path d="M3737 4623 c-24 -23 12 -55 38 -33 12 10 13 16 4 26 -12 15 -31 18
-42 7z"/>
<path d="M1092 4548 c-13 -13 2 -38 24 -38 20 0 27 19 14 35 -15 18 -22 19
-38 3z"/>
<path d="M3845 4550 c-9 -15 5 -52 18 -47 6 2 15 11 21 20 8 13 7 20 -4 27
-19 12 -27 12 -35 0z"/>
<path d="M987 4483 c-11 -10 -8 -41 4 -49 6 -3 18 1 27 9 13 13 13 19 2 31
-14 17 -23 20 -33 9z"/>
<path d="M3950 4463 c0 -10 5 -25 10 -33 8 -13 11 -13 26 2 9 9 14 24 11 32
-9 22 -47 21 -47 -1z"/>
<path d="M881 4386 c-10 -12 -10 -19 2 -36 12 -18 16 -18 26 -6 14 17 11 48
-5 53 -6 2 -17 -3 -23 -11z"/>
<path d="M4060 4390 c-11 -7 -12 -13 -1 -37 12 -27 13 -27 27 -8 8 10 14 24
14 31 0 16 -24 24 -40 14z"/>
<path d="M782 4303 c-18 -35 12 -59 36 -30 7 8 7 17 -2 30 -16 21 -23 21 -34
0z"/>
<path d="M4154 4295 c-12 -29 15 -45 45 -26 12 8 12 12 2 25 -17 20 -40 21
-47 1z"/>
<path d="M684 4199 c-3 -6 1 -18 10 -27 15 -15 17 -15 32 0 19 19 11 38 -16
38 -10 0 -22 -5 -26 -11z"/>
<path d="M4244 4199 c-3 -6 1 -18 10 -27 14 -14 17 -14 36 3 16 14 17 20 8 27
-18 11 -46 10 -54 -3z"/>
<path d="M600 4115 c-14 -17 -5 -45 17 -52 18 -6 27 37 11 54 -13 12 -16 12
-28 -2z"/>
<path d="M4340 4105 c-15 -18 -5 -35 20 -35 10 0 22 5 25 10 7 11 -12 40 -25
40 -4 0 -13 -7 -20 -15z"/>
<path d="M515 4000 c-8 -13 3 -50 15 -50 13 0 28 32 23 48 -6 15 -29 16 -38 2z"/>
<path d="M4421 3997 c-9 -11 -8 -17 3 -26 18 -15 48 -3 44 18 -4 21 -32 26
-47 8z"/>
<path d="M434 3889 c-3 -6 1 -18 10 -27 15 -15 17 -15 32 0 19 19 11 38 -16
38 -10 0 -22 -5 -26 -11z"/>
<path d="M700 3888 c-36 -19 -68 -73 -76 -126 -10 -65 20 -325 51 -440 14 -51
25 -100 25 -108 0 -8 -15 -21 -33 -29 -47 -19 -69 -48 -74 -98 -5 -40 0 -53
46 -128 28 -46 80 -151 116 -233 36 -81 78 -171 94 -200 50 -85 156 -210 259
-303 164 -148 192 -182 284 -345 142 -252 182 -339 218 -476 27 -100 88 -454
105 -607 l14 -120 -5 145 c-17 482 -111 869 -267 1106 -71 108 -110 148 -225
230 -229 165 -280 226 -373 446 -88 210 -142 317 -194 383 -55 71 -60 101 -27
139 14 15 27 17 77 13 111 -8 184 -66 249 -195 32 -63 83 -122 107 -122 18 0
101 -84 120 -122 19 -38 48 -55 34 -20 -4 9 -18 82 -31 162 -46 277 -65 374
-95 467 -36 111 -71 154 -143 172 -69 17 -81 34 -101 147 -9 54 -21 103 -25
107 -4 5 -11 -17 -14 -47 -4 -31 -11 -58 -16 -61 -4 -3 -22 13 -38 36 -17 22
-33 36 -36 31 -10 -17 5 -44 57 -102 27 -31 68 -96 93 -147 51 -105 56 -157
25 -238 -18 -45 -22 -50 -50 -49 -46 3 -103 35 -124 72 -23 39 -61 220 -77
369 -14 125 -4 203 32 249 l22 27 105 -6 c69 -4 149 -16 231 -37 139 -35 190
-35 283 0 86 33 177 21 234 -32 30 -28 99 -34 147 -14 52 22 84 20 126 -6 85
-52 136 -71 207 -78 117 -12 191 -79 209 -189 l7 -44 -29 7 -29 7 32 -20 c46
-29 68 -79 118 -274 74 -289 124 -567 125 -695 0 -47 -4 -58 -31 -84 l-31 -31
31 -24 c19 -15 31 -34 31 -48 0 -39 32 -175 42 -175 11 0 10 36 -2 101 -6 30
-15 142 -20 249 -11 225 -27 312 -139 750 -77 302 -90 345 -125 405 -47 79
-74 95 -183 112 -95 14 -158 31 -254 69 -41 16 -53 16 -100 5 -53 -12 -56 -12
-153 28 -55 23 -115 41 -133 41 -19 0 -65 -13 -103 -30 -38 -16 -80 -30 -94
-30 -14 0 -90 14 -168 31 -169 36 -301 47 -338 27z m304 -510 c37 -37 96 -187
96 -242 0 -37 -12 -46 -60 -46 -30 0 -79 47 -81 78 0 9 -2 58 -3 107 -1 50 -6
100 -10 113 -13 34 20 28 58 -10z m57 -315 l66 6 15 -102 c8 -56 13 -104 11
-107 -8 -9 -95 44 -114 69 -11 14 -45 63 -75 109 l-56 83 44 -31 c41 -30 47
-32 109 -27z"/>
<path d="M4495 3890 c-7 -11 12 -50 24 -50 10 0 21 24 21 46 0 16 -36 19 -45
4z"/>
<path d="M367 3783 c-24 -23 12 -55 38 -33 12 10 13 16 4 26 -12 15 -31 18
-42 7z"/>
<path d="M4572 3777 c-15 -17 1 -42 23 -33 18 6 17 37 -1 43 -6 2 -16 -2 -22
-10z"/>
<path d="M3617 3693 c-13 -12 -7 -43 7 -43 19 0 28 14 20 34 -7 17 -16 20 -27
9z"/>
<path d="M4641 3676 c-16 -19 -7 -46 14 -46 22 0 30 29 13 46 -13 13 -16 13
-27 0z"/>
<path d="M300 3665 c-19 -22 1 -39 35 -31 26 7 27 8 10 26 -22 24 -29 25 -45
5z"/>
<path d="M2700 3670 c0 -5 6 -10 14 -10 8 0 17 -4 20 -8 2 -4 -6 -60 -20 -123
-13 -62 -24 -115 -24 -116 0 -2 -9 -3 -20 -3 -11 0 -20 -4 -20 -10 0 -6 28
-10 65 -10 37 0 65 4 65 10 0 6 -9 10 -20 10 -11 0 -20 3 -20 8 0 22 45 219
53 230 13 17 76 15 83 -3 3 -8 13 -67 23 -132 16 -113 17 -118 40 -118 21 0
37 21 100 129 50 85 85 132 101 140 23 9 20 11 -29 14 -30 2 -59 -2 -64 -7 -8
-8 -4 -11 12 -11 13 0 21 -5 19 -13 -5 -20 -112 -207 -119 -207 -3 0 -11 44
-17 97 -10 82 -9 100 3 113 8 9 15 20 15 23 0 4 -58 7 -130 7 -80 0 -130 -4
-130 -10z"/>
<path d="M3300 3670 c0 -5 6 -10 14 -10 25 0 26 -15 6 -111 -24 -112 -35 -139
-55 -139 -8 0 -15 -4 -15 -10 0 -6 45 -10 114 -10 l114 0 10 42 c6 23 9 45 6
47 -3 3 -20 -11 -39 -32 -28 -31 -41 -37 -74 -37 -23 0 -41 3 -41 8 0 4 10 56
22 116 19 92 26 110 45 119 40 18 25 27 -42 27 -37 0 -65 -4 -65 -10z"/>
<path d="M3785 3563 l-37 -38 7 33 c6 31 6 32 -29 32 -19 0 -38 -4 -41 -10 -3
-5 1 -10 9 -10 23 0 21 -23 -9 -157 -4 -17 -1 -23 12 -22 12 0 32 28 59 82 30
59 47 83 63 85 25 4 26 -1 5 -83 -9 -36 -14 -71 -10 -80 7 -20 50 -19 67 2 13
15 11 16 -10 10 -20 -5 -22 -3 -18 16 2 12 10 49 17 83 7 33 10 68 7 77 -11
29 -53 20 -92 -20z"/>
<path d="M4015 3591 c-75 -32 -106 -160 -49 -198 28 -18 105 -11 124 12 15 18
9 18 -41 4 -45 -14 -69 -1 -69 36 0 20 10 27 65 45 53 18 66 26 71 47 4 15 2
33 -3 42 -11 18 -68 25 -98 12z m56 -54 c-7 -18 -21 -29 -47 -36 -21 -6 -40
-9 -42 -6 -7 7 38 74 56 84 26 15 45 -9 33 -42z"/>
<path d="M3555 3580 c-3 -5 1 -10 9 -10 20 0 20 -5 0 -91 -9 -38 -13 -76 -10
-84 7 -19 50 -19 66 0 10 12 10 15 -4 15 -21 0 -21 29 3 113 l18 67 -38 0
c-21 0 -41 -4 -44 -10z"/>
<path d="M239 3544 c-11 -14 -10 -18 6 -30 16 -12 21 -12 37 3 18 16 18 18 2
30 -23 17 -29 16 -45 -3z"/>
<path d="M4703 3553 c-16 -6 -17 -25 -1 -41 12 -12 48 1 48 18 0 13 -32 28
-47 23z"/>
<path d="M1490 3540 c-182 -28 -214 -37 -242 -69 -39 -44 -37 -86 18 -353 59
-291 85 -392 145 -573 86 -260 95 -268 277 -273 97 -3 158 1 257 18 72 12 132
24 134 26 16 16 -26 14 -137 -4 -148 -26 -335 -29 -385 -9 -46 20 -52 31 -103
168 -118 326 -241 888 -212 971 11 32 58 50 198 74 126 22 474 14 630 -14 58
-11 107 -18 109 -16 8 7 -111 34 -189 43 -123 14 -436 21 -500 11z"/>
<path d="M186 3421 c-10 -16 5 -42 23 -39 21 4 21 42 -1 46 -9 2 -19 -1 -22
-7z"/>
<path d="M4744 3419 c-3 -6 1 -18 10 -27 15 -15 17 -15 32 0 19 19 11 38 -16
38 -10 0 -22 -5 -26 -11z"/>
<path d="M1815 3300 c12 -38 116 -252 120 -248 7 6 -109 267 -118 268 -5 0 -6
-9 -2 -20z"/>
<path d="M141 3297 c-8 -10 -7 -19 4 -33 13 -18 15 -18 31 -2 14 14 15 20 4
32 -15 19 -24 20 -39 3z"/>
<path d="M4797 3303 c-24 -23 12 -55 38 -33 12 10 13 16 4 26 -12 15 -31 18
-42 7z"/>
<path d="M1740 3230 c0 -16 67 -195 90 -239 32 -64 36 -42 6 38 -14 39 -38
103 -52 141 -14 39 -30 70 -35 70 -5 0 -9 -4 -9 -10z"/>
<path d="M104 3176 c-7 -18 1 -46 13 -46 4 0 15 5 23 10 11 7 12 14 4 27 -15
24 -33 28 -40 9z"/>
<path d="M2853 3174 c-8 -21 13 -42 28 -27 13 13 5 43 -11 43 -6 0 -13 -7 -17
-16z"/>
<path d="M3672 3177 c-9 -10 -9 -18 1 -31 12 -16 14 -17 27 -1 11 14 11 18 -2
31 -12 13 -16 13 -26 1z"/>
<path d="M4048 3177 c-37 -9 -53 -27 -24 -27 11 0 9 -21 -10 -112 -13 -62 -26
-123 -29 -135 -4 -18 -1 -23 14 -23 15 0 23 12 35 53 19 64 78 138 96 120 9
-9 8 -29 -6 -88 -16 -66 -16 -78 -3 -86 20 -12 32 -11 55 6 18 14 18 14 -4 15
-18 0 -22 4 -18 18 3 9 13 48 22 85 16 65 16 68 -2 82 -30 22 -44 18 -84 -27
l-39 -41 19 84 c10 46 18 84 17 85 -1 0 -19 -4 -39 -9z"/>
<path d="M3390 3171 c-56 -5 -62 -8 -45 -18 20 -12 20 -12 -3 -125 -13 -62
-27 -114 -31 -116 -5 -1 -17 -9 -27 -17 -17 -13 -12 -14 49 -15 38 0 67 4 67
10 0 6 -7 10 -16 10 -14 0 -16 8 -10 52 4 28 9 55 12 60 8 13 44 9 49 -4 42
-121 46 -128 75 -128 35 0 45 13 23 31 -17 15 -52 85 -53 107 0 7 8 15 18 19
31 11 62 46 62 70 0 28 -33 63 -59 63 -11 0 -25 1 -33 3 -7 2 -42 1 -78 -2z
m114 -44 c8 -13 7 -24 -4 -45 -13 -22 -23 -28 -62 -30 l-46 -3 9 42 c6 23 12
46 15 51 10 15 76 4 88 -15z"/>
<path d="M4834 3165 c-4 -9 -2 -21 4 -27 15 -15 44 -1 40 19 -4 23 -36 29 -44
8z"/>
<path d="M4310 3124 c-8 -14 -28 -33 -45 -42 -28 -16 -29 -17 -7 -20 17 -3 21
-8 17 -25 -31 -138 -32 -154 -5 -162 20 -6 60 10 60 24 0 5 -9 7 -20 4 -26 -7
-26 -2 5 135 3 13 13 22 25 22 10 0 22 5 25 10 3 6 -4 10 -16 10 -18 0 -21 5
-17 35 5 41 -3 45 -22 9z"/>
<path d="M3070 3093 c-8 -3 -30 -21 -48 -41 -32 -36 -32 -36 -26 -10 8 37 0
45 -36 40 -28 -4 -30 -6 -17 -19 12 -13 12 -25 -3 -99 -17 -81 -17 -84 1 -84
13 0 22 14 33 53 18 61 80 137 98 119 8 -8 7 -27 -5 -72 -22 -90 -10 -115 48
-90 19 8 19 9 -2 9 -28 1 -28 0 -4 84 19 67 19 94 -3 109 -12 9 -15 9 -36 1z"/>
<path d="M3815 3085 c-73 -37 -106 -156 -55 -197 25 -20 52 -17 83 10 15 13
17 13 17 0 0 -30 -22 -79 -40 -88 -21 -11 -51 -3 -63 17 -13 21 -27 15 -27
-12 0 -19 6 -25 33 -30 39 -8 75 5 104 37 30 32 78 237 60 255 -21 20 -80 24
-112 8z m73 -39 c5 -38 -25 -113 -48 -126 -52 -28 -79 7 -54 72 31 80 95 115
102 54z"/>
<path d="M2830 3083 c-31 -6 -51 -23 -27 -23 21 0 21 -18 2 -90 -8 -30 -15
-63 -15 -72 0 -23 34 -32 62 -16 20 10 21 13 6 16 -23 4 -22 19 2 112 11 41
20 76 20 78 0 2 -16 1 -50 -5z"/>
<path d="M3648 3082 c-36 -3 -55 -22 -23 -22 19 0 19 1 -5 -90 -18 -70 -18
-76 -3 -87 22 -17 35 -16 59 2 18 14 18 14 -4 15 -17 0 -22 5 -19 18 17 59 39
163 36 165 -2 1 -21 1 -41 -1z"/>
<path d="M81 3051 c-15 -9 -12 -42 4 -48 6 -2 19 3 29 10 17 12 17 13 -1 29
-11 11 -24 14 -32 9z"/>
<path d="M4870 3046 c-10 -13 -10 -19 0 -31 7 -8 16 -15 20 -15 15 0 20 34 7
47 -12 12 -16 12 -27 -1z"/>
<path d="M2108 3005 c-66 -36 -51 -169 25 -215 63 -39 146 -15 161 45 10 41
-12 102 -53 145 -42 44 -83 52 -133 25z m105 -109 c11 -34 4 -42 -31 -30 -33
12 -54 60 -32 74 20 12 52 -10 63 -44z"/>
<path d="M1996 2899 c-49 -58 -25 -128 59 -169 33 -16 49 -19 63 -11 32 17 35
40 6 51 -14 6 -29 10 -33 10 -4 0 -18 11 -31 25 -17 18 -23 37 -24 75 -1 27
-4 50 -8 50 -3 0 -18 -14 -32 -31z"/>
<path d="M47 2913 c-23 -22 14 -53 39 -32 11 9 11 15 3 25 -12 15 -31 18 -42
7z"/>
<path d="M4891 2907 c-8 -10 -7 -19 4 -33 15 -19 15 -19 30 0 11 14 12 23 4
33 -6 7 -15 13 -19 13 -4 0 -13 -6 -19 -13z"/>
<path d="M1937 2793 c-29 -28 18 -99 72 -110 l34 -6 -30 44 c-36 52 -67 82
-76 72z"/>
<path d="M28 2778 c-13 -35 19 -51 43 -22 10 13 10 17 -2 25 -20 12 -36 11
-41 -3z"/>
<path d="M4913 2779 c-13 -13 -6 -39 11 -39 6 0 17 4 25 9 12 8 12 12 2 25
-16 19 -23 20 -38 5z"/>
<path d="M3930 2667 c-25 -7 -30 -12 -17 -15 27 -6 20 -68 -7 -64 -10 2 -38
-4 -62 -13 -61 -23 -91 -76 -86 -152 4 -50 65 -70 101 -32 l19 20 15 -21 c17
-24 57 -25 65 -1 3 10 0 12 -12 8 -21 -8 -21 1 9 139 14 64 25 122 25 130 0
16 -2 16 -50 1z m-19 -109 c5 -56 -9 -97 -44 -135 -26 -29 -48 -29 -65 -2 -11
18 -9 29 17 85 27 58 33 64 60 64 18 0 31 -5 32 -12z"/>
<path d="M2937 2663 c-13 -12 -7 -25 8 -20 24 10 24 -4 5 -98 -23 -113 -28
-126 -53 -146 -19 -16 -18 -17 27 -23 49 -8 86 -1 86 15 0 5 -9 9 -20 9 -23 0
-24 2 -8 69 l11 51 69 0 69 0 -7 -37 c-7 -43 -29 -82 -50 -90 -29 -11 -4 -18
55 -15 34 2 61 8 61 13 0 5 -7 9 -15 9 -20 0 -19 21 6 139 17 78 26 102 40
106 38 12 17 25 -41 25 -60 0 -75 -10 -43 -28 14 -8 15 -17 7 -53 l-9 -44 -68
-3 c-74 -3 -74 -3 -57 60 6 22 19 39 30 43 11 4 20 11 20 16 0 10 -113 13
-123 2z"/>
<path d="M20 2645 c-15 -18 -5 -35 20 -35 10 0 22 5 25 10 7 11 -12 40 -25 40
-4 0 -13 -7 -20 -15z"/>
<path d="M4920 2644 c-11 -12 -10 -18 3 -32 16 -15 18 -15 34 0 13 14 14 20 3
32 -7 9 -16 16 -20 16 -4 0 -13 -7 -20 -16z"/>
<path d="M2093 2634 c-19 -8 -16 -28 12 -106 30 -82 30 -95 8 -121 -17 -19
-17 -20 7 -14 102 25 119 32 129 55 14 30 15 29 -18 35 -25 5 -33 17 -59 79
-30 72 -46 86 -79 72z"/>
<path d="M3320 2568 c-62 -43 -88 -128 -54 -176 18 -26 60 -29 86 -5 17 15 19
15 37 -1 22 -20 62 -18 69 3 3 9 -2 11 -17 6 -21 -6 -22 -5 -15 32 4 21 11 48
15 61 15 40 11 80 -10 92 -32 16 -76 12 -111 -12z m90 -19 c0 -46 -24 -110
-48 -129 -33 -27 -50 -25 -64 5 -9 21 -7 34 12 76 26 54 42 68 78 69 16 0 22
-6 22 -21z"/>
<path d="M3613 2553 l-36 -38 6 33 c6 31 5 32 -28 32 -38 0 -53 -14 -29 -28
15 -8 15 -15 0 -87 -9 -42 -16 -79 -16 -81 0 -2 8 -4 18 -3 11 0 30 26 55 80
22 44 46 83 54 86 27 10 31 -18 13 -85 -10 -36 -16 -71 -13 -79 7 -17 65 -14
71 5 2 7 -2 10 -12 6 -20 -8 -20 4 1 93 13 59 14 75 3 87 -21 26 -50 18 -87
-21z"/>
<path d="M4 2508 c-6 -10 20 -38 37 -38 10 0 20 30 13 41 -8 13 -41 11 -50 -3z"/>
<path d="M4922 2508 c-7 -10 -6 -19 4 -33 15 -20 15 -20 30 0 8 10 13 24 11
30 -5 15 -33 17 -45 3z"/>
<path d="M16 2373 c-11 -26 10 -38 41 -24 27 12 27 13 8 27 -25 19 -41 18 -49
-3z"/>
<path d="M2254 2365 c-27 -13 -62 -34 -77 -47 l-28 -23 41 -77 c22 -42 40 -89
40 -105 0 -17 25 -69 66 -135 64 -103 69 -108 120 -128 46 -17 78 -44 207
-173 409 -410 729 -681 916 -776 24 -13 98 -57 165 -98 132 -83 295 -168 303
-159 6 6 -23 24 -296 186 -421 251 -646 439 -1116 934 -140 148 -148 159 -130
172 26 20 29 19 61 -23 16 -21 69 -81 119 -133 50 -52 110 -119 134 -148 63
-76 399 -374 556 -494 78 -59 266 -181 380 -246 111 -63 334 -166 342 -158 8
8 26 -4 -192 126 -311 186 -475 299 -728 508 -150 124 -552 551 -567 603 -15
50 -123 208 -147 215 -17 5 -31 28 -58 99 -20 51 -42 96 -49 98 -8 3 -35 -5
-62 -18z m70 -138 c37 -91 41 -96 65 -91 23 5 32 -3 74 -61 27 -37 47 -68 45
-69 -27 -21 -129 -86 -135 -86 -12 0 -95 139 -91 151 2 6 21 -14 42 -45 51
-74 65 -71 25 5 -27 50 -31 64 -21 79 14 23 2 33 -30 25 -20 -5 -28 4 -66 71
-23 42 -40 80 -37 83 4 3 21 -12 40 -34 39 -47 53 -43 29 8 -18 37 -13 72 9
65 6 -3 30 -48 51 -101z"/>
<path d="M4916 2381 c-10 -15 5 -41 23 -41 29 0 43 21 23 36 -20 16 -39 18
-46 5z"/>
<path d="M30 2245 c-22 -26 7 -46 39 -26 12 8 12 12 2 25 -17 20 -25 20 -41 1z"/>
<path d="M4910 2245 c-11 -13 -11 -19 2 -32 17 -16 38 -10 38 11 0 8 -6 19
-14 25 -10 9 -16 8 -26 -4z"/>
<path d="M4890 2114 c-11 -12 -11 -18 1 -30 13 -12 18 -12 34 0 16 12 17 16 6
30 -17 20 -25 20 -41 0z"/>
<path d="M45 2110 c-4 -7 -3 -16 3 -22 14 -14 47 -6 47 12 0 18 -40 26 -50 10z"/>
<path d="M75 1990 c-17 -18 -17 -22 -4 -35 13 -13 18 -13 34 -2 16 13 17 16 3
36 l-15 21 -18 -20z"/>
<path d="M4866 1983 c-4 -9 -1 -23 7 -30 12 -12 16 -12 27 1 10 13 10 19 0 31
-16 19 -26 19 -34 -2z"/>
<path d="M4834 1854 c-9 -34 10 -54 32 -32 13 13 14 19 2 37 -17 28 -26 27
-34 -5z"/>
<path d="M100 1855 c-10 -13 -10 -19 5 -35 18 -20 18 -20 32 0 12 17 12 24 3
35 -16 19 -24 19 -40 0z"/>
<path d="M143 1731 c-15 -23 5 -45 31 -35 19 7 19 9 6 35 -13 24 -22 24 -37 0z"/>
<path d="M4800 1725 c-13 -16 -6 -35 14 -35 8 0 19 6 25 14 10 12 8 17 -7 25
-15 8 -23 7 -32 -4z"/>
<path d="M2540 1708 c0 -9 11 -77 24 -150 31 -169 196 -1121 196 -1131 0 -4 5
-7 10 -7 14 0 12 41 -4 137 -8 45 -20 128 -26 185 -6 57 -22 164 -35 238 -13
74 -34 203 -45 285 -40 282 -68 407 -95 435 -20 20 -25 21 -25 8z"/>
<path d="M181 1597 c-9 -11 -8 -17 3 -26 18 -15 48 -3 44 18 -4 21 -32 26 -47
8z"/>
<path d="M4744 1595 c-4 -9 0 -24 10 -33 15 -15 18 -15 26 -2 6 8 9 22 7 30
-3 21 -36 25 -43 5z"/>
<path d="M240 1484 c-11 -12 -10 -18 3 -31 22 -23 52 0 36 28 -12 23 -22 24
-39 3z"/>
<path d="M4694 1475 c-12 -29 15 -45 45 -26 12 8 12 12 2 25 -17 20 -40 21
-47 1z"/>
<path d="M4640 1365 c-12 -23 -12 -28 0 -35 32 -20 51 11 27 43 -12 17 -14 17
-27 -8z"/>
<path d="M294 1359 c-3 -6 0 -18 9 -26 12 -12 19 -13 38 -3 22 12 22 13 4 26
-23 17 -41 18 -51 3z"/>
<path d="M4575 1244 c-14 -15 -15 -19 -2 -32 13 -13 18 -13 36 0 21 15 21 15
2 32 -17 16 -20 16 -36 0z"/>
<path d="M360 1231 c0 -10 6 -24 14 -30 12 -10 17 -8 26 9 13 25 6 40 -21 40
-12 0 -19 -7 -19 -19z"/>
<path d="M440 1135 c-15 -18 -6 -45 14 -45 20 0 29 16 21 40 -8 24 -18 25 -35
5z"/>
<path d="M4500 1135 c-11 -13 -11 -19 3 -33 20 -19 41 -5 35 24 -4 24 -22 28
-38 9z"/>
<path d="M523 1033 c-7 -3 -13 -13 -13 -23 0 -10 6 -20 13 -23 15 -5 47 10 47
23 0 13 -32 28 -47 23z"/>
<path d="M4421 1021 c-16 -30 16 -43 49 -21 13 9 12 12 -4 25 -26 20 -33 19
-45 -4z"/>
<path d="M594 915 c-4 -9 0 -24 10 -33 15 -15 18 -15 26 -2 6 8 9 22 7 30 -3
21 -36 25 -43 5z"/>
<path d="M4343 919 c-8 -8 -9 -18 -2 -30 12 -24 41 -13 37 14 -4 25 -19 32
-35 16z"/>
<path d="M690 824 c-11 -12 -11 -18 1 -29 20 -20 43 -4 34 24 -8 25 -18 27
-35 5z"/>
<path d="M4245 820 c-3 -5 -1 -19 5 -31 11 -20 12 -20 31 -3 14 13 16 20 8 31
-13 15 -35 17 -44 3z"/>
<path d="M783 729 c-15 -15 -5 -39 16 -39 29 0 43 21 23 36 -21 17 -25 17 -39
3z"/>
<path d="M4156 724 c-11 -30 13 -44 43 -25 12 8 12 12 2 25 -17 20 -37 20 -45
0z"/>
<path d="M883 639 c-6 -6 -9 -18 -6 -25 7 -18 37 -18 52 0 10 12 8 17 -8 25
-24 14 -24 14 -38 0z"/>
<path d="M4056 641 c-8 -13 4 -41 18 -41 6 0 17 4 25 9 12 8 12 12 2 25 -15
18 -37 21 -45 7z"/>
<path d="M3957 563 c-12 -11 -8 -41 6 -46 7 -3 22 2 32 10 20 14 20 14 1 29
-22 16 -30 17 -39 7z"/>
<path d="M984 549 c-3 -6 0 -17 8 -25 12 -12 17 -12 33 1 17 13 18 16 5 25
-20 13 -37 13 -46 -1z"/>
<path d="M3851 486 c-16 -19 -7 -46 14 -46 22 0 30 29 13 46 -13 13 -16 13
-27 0z"/>
<path d="M1090 474 c-11 -12 -10 -18 3 -32 16 -15 18 -15 34 0 13 14 14 20 3
32 -7 9 -16 16 -20 16 -4 0 -13 -7 -20 -16z"/>
<path d="M1207 413 c-11 -10 -8 -41 4 -49 6 -3 18 1 27 9 13 13 13 19 2 31
-14 17 -23 20 -33 9z"/>
<path d="M3742 408 c-28 -28 0 -56 31 -33 22 16 21 22 -1 34 -13 7 -23 6 -30
-1z"/>
<path d="M1313 334 c-10 -26 13 -39 43 -25 26 11 26 12 8 26 -25 19 -43 19
-51 -1z"/>
<path d="M3620 335 c-11 -13 -11 -19 3 -33 20 -19 41 -5 35 24 -4 24 -22 28
-38 9z"/>
<path d="M3502 288 c-17 -17 -15 -35 5 -42 22 -9 36 7 28 33 -7 24 -16 26 -33
9z"/>
<path d="M1433 274 c-8 -22 11 -37 36 -29 25 8 28 30 5 39 -25 9 -34 7 -41
-10z"/>
<path d="M1563 229 c-16 -16 -5 -39 17 -39 25 0 35 18 20 35 -15 18 -22 19
-37 4z"/>
<path d="M3374 225 c-4 -9 -2 -21 4 -27 15 -15 44 -1 40 19 -4 23 -36 29 -44
8z"/>
<path d="M1687 193 c-11 -10 -8 -41 3 -48 19 -12 41 15 29 36 -10 20 -21 24
-32 12z"/>
<path d="M3252 177 c-7 -8 -6 -18 4 -32 15 -20 15 -20 29 -1 23 30 -9 62 -33
33z"/>
<path d="M1810 144 c-11 -12 -10 -18 3 -31 22 -23 52 0 36 28 -12 23 -22 24
-39 3z"/>
<path d="M3124 135 c-13 -32 23 -48 47 -19 10 13 10 17 -2 25 -21 13 -39 11
-45 -6z"/>
<path d="M1940 115 c-11 -13 -11 -19 3 -33 20 -19 41 -5 35 24 -4 24 -22 28
-38 9z"/>
<path d="M2993 104 c-3 -8 1 -22 9 -30 13 -13 16 -13 27 0 7 9 11 23 7 31 -7
20 -35 19 -43 -1z"/>
<path d="M2070 84 c-11 -12 -11 -18 1 -29 13 -13 18 -13 37 1 22 15 22 17 5
30 -23 17 -28 17 -43 -2z"/>
<path d="M2870 85 c-19 -22 5 -48 31 -34 10 5 19 14 19 19 0 5 -9 14 -19 19
-14 8 -22 7 -31 -4z"/>
<path d="M2204 65 c-7 -18 3 -35 22 -35 20 0 30 30 13 41 -20 12 -29 11 -35
-6z"/>
<path d="M2602 63 c-12 -24 -4 -43 18 -43 10 0 20 6 23 13 5 15 -10 47 -23 47
-5 0 -13 -8 -18 -17z"/>
<path d="M2731 67 c-8 -10 -7 -19 4 -33 13 -18 15 -18 31 -2 14 14 15 20 4 32
-15 19 -24 20 -39 3z"/>
<path d="M2343 63 c-17 -6 -16 -38 1 -52 21 -18 44 25 24 44 -7 7 -19 11 -25
8z"/>
<path d="M2460 51 c0 -37 32 -55 44 -25 10 27 7 34 -19 34 -14 0 -25 -4 -25
-9z"/>
</g>
</svg>
