<?xml version="1.0" standalone="no"?>
<!DOCTYPE svg PUBLIC "-//W3C//DTD SVG 20010904//EN"
 "http://www.w3.org/TR/2001/REC-SVG-20010904/DTD/svg10.dtd">
<svg version="1.0" xmlns="http://www.w3.org/2000/svg"
 width="500.000000pt" height="500.000000pt" viewBox="0 0 500.000000 500.000000"
 preserveAspectRatio="xMidYMid meet">
<metadata>
Created by potrace 1.15, written by Peter Selinger 2001-2017
</metadata>
<g transform="translate(0.000000,500.000000) scale(0.100000,-0.100000)"
fill="#000000" stroke="none">
<path d="M2350 4975 c-17 -21 6 -61 26 -44 18 15 18 45 0 52 -8 3 -20 0 -26
-8z"/>
<path d="M2482 4978 c-8 -8 -9 -15 -1 -25 15 -17 34 -17 48 1 10 12 8 17 -8
25 -24 14 -24 14 -39 -1z"/>
<path d="M2616 4973 c-4 -9 -1 -23 7 -30 11 -11 16 -11 32 1 16 12 17 16 6 30
-17 21 -37 20 -45 -1z"/>
<path d="M2752 4970 c-15 -25 -8 -40 19 -40 19 0 24 15 13 44 -8 21 -17 20
-32 -4z"/>
<path d="M2222 4968 c-16 -16 -15 -33 2 -47 22 -18 44 25 24 45 -11 11 -16 12
-26 2z"/>
<path d="M2087 4953 c-4 -3 -7 -15 -7 -25 0 -22 32 -24 49 -4 10 12 8 17 -8
25 -23 13 -26 13 -34 4z"/>
<path d="M2887 4953 c-11 -10 -8 -41 4 -49 6 -3 18 1 27 9 13 13 13 19 2 31
-14 17 -23 20 -33 9z"/>
<path d="M1944 4915 c-8 -19 12 -36 33 -28 19 7 12 37 -10 41 -9 2 -20 -4 -23
-13z"/>
<path d="M3011 4916 c-18 -21 11 -41 39 -26 17 9 19 14 9 26 -15 18 -33 18
-48 0z"/>
<path d="M1827 4893 c-24 -23 12 -55 38 -33 12 10 13 16 4 26 -12 15 -31 18
-42 7z"/>
<path d="M3141 4887 c-8 -10 -7 -19 4 -33 15 -19 15 -19 30 0 11 14 12 23 4
33 -6 7 -15 13 -19 13 -4 0 -13 -6 -19 -13z"/>
<path d="M3271 4852 c-8 -15 -7 -23 5 -33 18 -15 38 0 32 27 -5 25 -25 28 -37
6z"/>
<path d="M1693 4844 c-9 -24 11 -38 37 -24 17 9 19 14 9 26 -15 19 -38 18 -46
-2z"/>
<path d="M1570 4804 c-11 -12 -11 -18 1 -30 13 -12 18 -12 34 0 16 12 17 16 6
30 -17 20 -25 20 -41 0z"/>
<path d="M3403 4813 c-16 -6 -17 -25 -1 -41 12 -12 48 1 48 18 0 13 -32 28
-47 23z"/>
<path d="M3516 4754 c-9 -23 19 -53 35 -37 15 15 7 47 -12 51 -9 2 -19 -5 -23
-14z"/>
<path d="M1444 4745 c-13 -32 23 -48 47 -19 10 13 10 17 -2 25 -21 13 -39 11
-45 -6z"/>
<path d="M1325 4690 c-8 -12 3 -50 14 -50 15 0 33 30 27 45 -6 17 -32 20 -41
5z"/>
<path d="M3634 4689 c-3 -6 1 -18 10 -27 15 -15 17 -15 32 0 19 19 11 38 -16
38 -10 0 -22 -5 -26 -11z"/>
<path d="M1212 4630 c-14 -23 -8 -40 13 -40 19 0 27 17 20 40 -8 25 -17 25
-33 0z"/>
<path d="M3757 4633 c-11 -10 -8 -41 4 -49 6 -3 18 1 27 9 13 13 13 19 2 31
-14 17 -23 20 -33 9z"/>
<path d="M3870 4565 c-9 -11 -11 -22 -4 -32 13 -21 25 -21 38 -1 8 14 7 21 -5
33 -14 15 -17 15 -29 0z"/>
<path d="M1094 4549 c-3 -6 0 -17 8 -25 12 -12 17 -12 33 1 17 13 18 16 5 25
-20 13 -37 13 -46 -1z"/>
<path d="M2367 4526 c-30 -38 -112 -96 -137 -96 -10 0 -38 9 -64 21 -41 18
-54 19 -116 10 -73 -10 -120 -32 -158 -75 -12 -14 -28 -26 -35 -26 -22 0 -50
-37 -56 -77 -5 -30 -12 -38 -38 -47 -45 -15 -64 -37 -70 -83 -5 -36 -8 -40
-47 -51 -35 -9 -48 -20 -77 -64 -94 -146 -104 -173 -74 -198 8 -7 15 -23 15
-35 0 -13 -7 -25 -15 -29 -8 -3 -15 -15 -15 -27 0 -12 -13 -37 -30 -56 -36
-40 -40 -88 -10 -126 14 -17 20 -38 18 -61 -1 -19 0 -37 2 -38 3 -2 30 -24 60
-49 59 -50 82 -60 139 -63 47 -3 71 13 110 74 38 59 127 141 196 181 92 53
197 31 252 -52 l27 -41 1 -262 0 -262 38 -44 c43 -51 47 -83 22 -202 -14 -66
-14 -80 0 -145 9 -39 28 -89 42 -109 20 -30 24 -45 19 -75 -9 -54 -42 -128
-80 -174 -37 -45 -66 -97 -66 -119 0 -8 11 -28 25 -44 31 -37 32 -64 3 -103
l-23 -30 23 -40 c19 -33 22 -48 16 -90 -6 -46 -4 -53 21 -79 21 -22 26 -35 21
-53 -4 -17 3 -43 24 -81 45 -86 46 -109 11 -205 -23 -64 -29 -94 -25 -123 8
-45 -3 -48 -36 -13 -14 15 -48 42 -77 61 -170 112 -361 96 -517 -45 -64 -58
-66 -58 -131 9 -45 47 -86 72 -102 62 -27 -17 -23 -55 17 -184 23 -73 46 -149
52 -168 6 -19 17 -50 25 -67 13 -29 20 -33 54 -33 38 0 39 -1 39 -36 0 -23 17
-70 50 -134 42 -81 65 -112 131 -175 140 -134 216 -153 524 -136 207 11 313
28 433 68 158 52 265 111 353 193 24 22 48 40 54 40 7 0 70 -25 140 -56 102
-45 143 -58 194 -61 122 -8 251 52 352 166 135 152 145 282 37 509 -52 109
-54 145 -10 207 17 25 32 50 32 55 0 13 -27 13 -35 0 -12 -20 -25 -9 -25 20 0
23 11 42 45 75 41 39 43 44 25 50 -26 8 -75 -26 -97 -68 -21 -42 -28 -19 -9
28 31 73 14 74 -60 3 -63 -59 -79 -55 -69 20 4 23 4 42 0 42 -3 0 -23 -18 -44
-40 -43 -45 -51 -46 -129 -24 -76 22 -154 13 -251 -30 -99 -45 -135 -51 -190
-32 -24 9 -56 16 -71 16 -33 0 -65 -34 -75 -77 -3 -17 -29 -61 -56 -97 -27
-36 -60 -95 -73 -133 -41 -114 -39 -136 20 -208 56 -68 51 -75 -48 -75 -38 0
-71 0 -75 0 -5 -1 -11 14 -14 33 -8 51 -46 104 -93 132 -73 43 -151 29 -196
-36 -13 -17 -26 -27 -31 -22 -5 5 -9 63 -10 130 -1 105 2 126 21 163 18 36 21
56 18 121 -3 68 -6 81 -30 106 -23 24 -27 34 -21 67 5 33 3 41 -23 61 -26 21
-27 25 -16 49 18 40 15 61 -13 94 -31 37 -31 43 -2 79 34 41 37 56 21 109 -19
65 -18 107 5 128 27 24 87 154 96 205 6 34 2 49 -19 85 -14 25 -26 51 -26 59
0 8 -7 28 -16 46 -15 31 -15 37 5 97 34 104 27 154 -38 248 -38 55 -55 155
-41 238 28 175 209 340 420 384 104 22 165 14 302 -40 64 -25 132 -46 152 -46
39 0 61 24 95 103 16 38 18 52 9 87 -9 36 -8 45 9 68 23 31 53 120 53 155 0
13 -9 32 -20 42 -11 10 -20 26 -20 35 0 21 -19 40 -40 40 -43 0 -56 26 -69
139 -6 50 -12 68 -30 80 -12 9 -42 35 -66 59 l-44 43 -105 -3 c-93 -3 -107 -1
-133 18 -15 11 -32 30 -38 40 -37 71 -84 104 -149 104 -35 0 -66 8 -98 25 -27
14 -64 25 -86 25 -33 0 -44 -6 -65 -34z m145 -41 c32 -22 44 -24 90 -19 49 6
55 4 81 -21 17 -18 27 -38 27 -57 0 -24 6 -32 30 -41 20 -8 31 -20 36 -40 5
-24 10 -28 27 -23 75 21 73 21 54 2 -23 -24 -17 -40 17 -44 20 -3 38 6 67 33
32 28 47 36 72 33 23 -2 33 -9 35 -23 2 -11 11 -28 20 -38 14 -16 14 -20 -2
-48 -20 -34 -23 -30 52 -81 29 -20 33 -27 28 -56 -4 -30 -2 -34 35 -48 21 -9
39 -18 39 -21 0 -2 -12 -14 -27 -27 -32 -28 -25 -42 25 -51 60 -10 69 -19 49
-49 -11 -16 -15 -35 -11 -51 5 -21 2 -25 -23 -30 -76 -18 -93 -26 -84 -43 5
-9 21 -28 35 -41 14 -14 26 -28 26 -33 0 -4 -19 -17 -42 -29 l-42 -22 29 -23
c24 -19 26 -24 13 -29 -9 -4 -34 3 -55 13 -112 58 -284 72 -448 37 -147 -31
-295 -117 -335 -195 -11 -21 -24 -41 -29 -44 -4 -3 -8 29 -8 72 0 112 -30 184
-92 224 -43 28 -51 29 -121 25 -109 -6 -174 -40 -277 -144 -46 -46 -88 -83
-93 -83 -6 0 -20 -16 -31 -35 -23 -38 -39 -38 -39 1 0 17 -5 24 -20 24 -11 0
-20 5 -20 10 0 6 -15 8 -40 4 -36 -6 -40 -4 -45 19 -5 18 -1 35 14 56 12 16
21 37 21 46 0 14 -6 17 -35 12 -30 -5 -35 -3 -35 14 0 33 17 55 52 69 18 7 50
29 71 49 l38 36 -38 6 -38 6 33 12 c24 10 32 19 32 37 0 21 -5 24 -37 24 -21
0 -44 4 -52 9 -22 14 -5 55 41 97 27 24 45 49 48 69 4 26 9 30 42 33 42 4 68
31 68 70 0 13 5 32 11 43 9 18 17 20 59 14 42 -6 50 -4 63 16 14 19 14 25 1
50 -19 38 -19 39 25 39 46 0 71 20 71 56 0 27 40 74 64 74 30 0 46 -13 46 -37
0 -24 2 -25 46 -18 49 7 49 7 27 -52 -7 -17 33 -34 63 -27 17 4 31 18 40 41 8
19 26 38 39 43 14 5 30 21 35 36 6 14 23 31 40 37 16 6 31 21 35 34 8 32 59
31 107 -2z m1045 -2900 c28 -13 73 -43 99 -67 63 -58 172 -212 234 -331 63
-122 67 -171 18 -267 -41 -83 -144 -188 -222 -225 -118 -57 -295 -41 -444 41
-34 19 -69 34 -77 34 -8 0 -19 17 -25 40 -6 23 -28 58 -52 82 -106 111 -236
255 -247 276 -11 20 -9 29 13 67 15 25 26 59 26 79 0 39 13 46 46 21 10 -8 28
-15 39 -15 18 0 17 3 -8 25 -15 14 -27 32 -27 39 0 7 18 27 41 46 36 29 40 36
35 64 -7 41 5 60 35 53 13 -3 43 -10 66 -16 55 -14 119 0 191 40 96 54 162 57
259 14z m-1440 -254 c49 -25 183 -158 183 -182 0 -34 -67 -136 -117 -176 -25
-21 -75 -58 -111 -83 -84 -58 -91 -75 -28 -66 54 8 55 5 29 -74 -14 -44 -15
-53 -2 -61 8 -5 17 -9 20 -9 10 0 49 96 49 120 0 50 58 104 152 143 l36 15 4
-135 3 -135 31 -27 c35 -32 54 -35 259 -51 166 -12 211 -19 199 -29 -24 -21
-270 -101 -353 -115 -121 -21 -298 -21 -376 -1 -86 23 -140 56 -246 151 -104
94 -143 156 -141 230 0 60 25 99 114 187 44 42 77 77 74 77 -16 0 -139 -68
-218 -121 -48 -32 -89 -55 -91 -51 -9 15 -109 354 -105 357 6 6 33 -19 86 -81
51 -59 52 -62 52 -124 0 -78 18 -70 26 11 9 88 19 104 103 158 42 27 94 57
116 66 86 36 188 39 252 6z m492 -199 c54 -40 85 -108 54 -119 -10 -3 -29 -17
-43 -30 -67 -63 -98 -83 -134 -83 -20 0 -36 -3 -36 -7 0 -13 74 -137 76 -128
1 6 5 27 9 47 11 69 127 148 215 148 42 0 210 -29 242 -42 36 -14 106 -90 114
-124 12 -46 -24 -95 -87 -121 -52 -22 -64 -23 -336 -20 -276 2 -283 2 -305 24
-18 19 -21 32 -20 90 3 113 23 256 42 299 17 41 57 77 95 87 33 9 88 -1 114
-21z"/>
<path d="M2461 4225 c-29 -34 -36 -55 -33 -99 3 -31 -17 -92 -39 -120 l-21
-26 -59 51 c-32 28 -59 49 -59 46 0 -3 26 -31 57 -63 l57 -57 23 29 c13 16 32
47 43 69 11 22 20 34 20 27 0 -7 5 -10 10 -7 14 9 12 56 -2 53 -7 -2 -14 7
-16 19 -2 15 10 37 39 68 26 29 36 45 26 45 -8 0 -29 -16 -46 -35z"/>
<path d="M2190 4125 c0 -49 4 -59 36 -95 l36 -40 -27 -10 c-30 -11 -68 -4
-104 19 -23 15 -24 15 -12 -7 6 -12 23 -25 37 -28 31 -8 112 0 125 13 5 5 -9
30 -36 62 -42 49 -44 55 -38 97 4 30 2 44 -6 44 -7 0 -11 -21 -11 -55z"/>
<path d="M2642 4036 c-21 -30 -22 -41 -17 -107 6 -63 3 -80 -14 -113 -11 -22
-19 -42 -16 -44 2 -2 43 14 92 36 48 22 98 43 110 46 11 4 24 13 27 21 7 19
-8 19 -23 1 -11 -13 -59 -28 -126 -41 l-30 -5 -3 86 c-2 71 0 92 17 120 26 44
13 44 -17 0z"/>
<path d="M2590 4010 c-6 -22 -10 -69 -8 -103 l3 -62 15 103 c16 103 10 137
-10 62z"/>
<path d="M2939 4023 c7 -14 21 -23 34 -22 15 0 17 2 7 6 -8 3 -24 13 -34 22
-18 15 -18 15 -7 -6z"/>
<path d="M1975 4010 c-20 -23 -14 -26 15 -8 16 10 24 9 50 -10 85 -63 103 -72
150 -72 67 0 82 -20 83 -110 1 -68 8 -87 21 -54 18 46 -4 146 -37 169 -12 8
-42 15 -67 15 -30 0 -58 8 -85 25 -108 65 -111 66 -130 45z"/>
<path d="M2880 3850 c-9 -17 -8 -20 13 -20 14 0 36 -9 50 -20 14 -11 38 -20
54 -19 26 0 25 1 -12 15 -22 8 -50 25 -62 39 -27 30 -29 30 -43 5z"/>
<path d="M2572 3820 c0 -14 2 -19 5 -12 2 6 2 18 0 25 -3 6 -5 1 -5 -13z"/>
<path d="M2830 3796 c0 -15 46 -56 63 -56 5 0 -2 9 -17 21 -14 11 -26 27 -26
35 0 8 -4 14 -10 14 -5 0 -10 -6 -10 -14z"/>
<path d="M1756 3775 c4 -8 -1 -26 -10 -40 -9 -14 -12 -25 -7 -25 14 0 31 34
31 59 0 12 -4 21 -10 21 -5 0 -7 -7 -4 -15z"/>
<path d="M1987 3738 c-76 -20 -79 -20 -112 -2 -43 23 -50 17 -19 -19 l24 -28
67 20 c38 10 83 22 100 26 18 4 35 11 38 16 8 12 -7 10 -98 -13z"/>
<path d="M2460 3713 c-19 -9 -30 -18 -23 -20 11 -4 73 23 73 32 0 8 -12 5 -50
-12z"/>
<path d="M1741 3604 c-12 -31 -20 -59 -17 -61 2 -2 15 10 30 27 27 32 32 55
17 78 -5 9 -15 -5 -30 -44z"/>
<path d="M3471 1425 c1 -67 4 -90 9 -70 11 44 11 138 0 155 -7 10 -9 -17 -9
-85z"/>
<path d="M3193 1483 c-7 -2 -13 -15 -13 -28 0 -13 -5 -27 -11 -30 -7 -5 -5
-13 6 -25 10 -11 14 -26 11 -38 -5 -15 -2 -20 11 -18 12 0 19 -7 21 -21 2 -15
10 -23 22 -23 10 0 21 -9 25 -20 5 -17 113 -90 133 -90 4 0 -27 35 -68 78 -76
77 -110 138 -110 199 0 23 -4 26 -27 16z"/>
<path d="M3330 1434 c1 -15 27 -44 39 -44 7 0 11 5 9 12 -5 14 -48 43 -48 32z"/>
<path d="M3360 1058 c0 -4 5 -19 10 -33 13 -35 -10 -84 -49 -108 -32 -18 -87
-22 -111 -7 -16 10 -12 12 45 25 47 10 65 33 65 79 l-1 41 -19 -24 c-11 -13
-20 -29 -20 -37 0 -18 -39 -44 -67 -44 -33 0 -39 21 -14 42 21 16 21 18 6 25
-35 13 -72 -29 -61 -71 18 -74 171 -91 236 -26 27 27 27 89 0 121 -10 13 -19
21 -20 17z"/>
<path d="M1924 1163 c-16 -16 -14 -20 32 -60 47 -42 101 -62 124 -48 7 4 -8
16 -37 29 -35 17 -53 33 -65 59 -20 41 -29 45 -54 20z"/>
<path d="M990 4475 c-15 -18 -5 -35 20 -35 10 0 22 5 25 10 7 11 -12 40 -25
40 -4 0 -13 -7 -20 -15z"/>
<path d="M3977 4483 c-12 -11 -8 -40 7 -52 12 -10 17 -8 26 9 16 29 -12 65
-33 43z"/>
<path d="M885 4390 c-7 -12 3 -50 13 -50 12 0 33 40 27 50 -8 13 -32 13 -40 0z"/>
<path d="M4074 4389 c-3 -6 1 -18 10 -27 15 -15 17 -15 32 0 19 19 11 38 -16
38 -10 0 -22 -5 -26 -11z"/>
<path d="M790 4305 c-19 -22 5 -48 31 -34 24 12 24 21 0 36 -15 10 -22 9 -31
-2z"/>
<path d="M4180 4305 c-19 -22 1 -39 35 -31 26 7 27 8 10 26 -22 24 -29 25 -45
5z"/>
<path d="M693 4209 c-6 -6 -9 -18 -6 -25 7 -18 37 -18 52 0 10 12 8 17 -8 25
-24 14 -24 14 -38 0z"/>
<path d="M4270 4203 c0 -10 5 -25 10 -33 9 -13 12 -12 25 4 11 14 12 23 4 33
-16 19 -39 16 -39 -4z"/>
<path d="M600 4114 c-11 -12 -10 -18 3 -32 16 -15 18 -15 34 0 13 14 14 20 3
32 -7 9 -16 16 -20 16 -4 0 -13 -7 -20 -16z"/>
<path d="M4367 4123 c-11 -10 -8 -41 3 -48 19 -12 41 15 29 36 -10 20 -21 24
-32 12z"/>
<path d="M521 4011 c-16 -10 -8 -41 11 -41 7 0 19 4 27 9 12 8 12 12 2 25 -15
18 -21 19 -40 7z"/>
<path d="M4446 4004 c-11 -30 13 -44 43 -25 12 8 12 12 2 25 -17 20 -37 20
-45 0z"/>
<path d="M442 3902 c-17 -11 -4 -42 18 -42 10 0 23 6 29 14 10 12 8 17 -8 25
-23 13 -23 13 -39 3z"/>
<path d="M4527 3903 c-24 -23 12 -55 38 -33 12 10 13 16 4 26 -12 15 -31 18
-42 7z"/>
<path d="M370 3785 c-22 -26 7 -46 39 -26 12 8 12 12 2 25 -17 20 -25 20 -41
1z"/>
<path d="M4597 3793 c-24 -23 12 -55 38 -33 12 10 13 16 4 26 -12 15 -31 18
-42 7z"/>
<path d="M4661 3671 c-14 -26 12 -50 34 -31 11 9 12 17 4 31 -5 10 -14 19 -19
19 -5 0 -14 -9 -19 -19z"/>
<path d="M300 3664 c-11 -12 -10 -18 3 -32 16 -15 18 -15 31 3 10 14 11 24 4
32 -14 17 -23 16 -38 -3z"/>
<path d="M237 3547 c-3 -9 1 -23 9 -34 14 -17 14 -17 29 2 8 10 14 24 12 30
-6 16 -44 18 -50 2z"/>
<path d="M4717 3546 c-3 -8 1 -22 9 -33 14 -17 14 -17 29 1 11 14 12 23 4 33
-15 17 -35 17 -42 -1z"/>
<path d="M4781 3436 c-16 -19 -7 -46 14 -46 22 0 30 29 13 46 -13 13 -16 13
-27 0z"/>
<path d="M190 3425 c-11 -13 -11 -19 4 -33 15 -15 18 -15 26 -2 22 33 -6 64
-30 35z"/>
<path d="M142 3306 c-9 -20 -8 -27 4 -37 12 -10 18 -9 32 4 15 16 15 18 -4 37
l-20 21 -12 -25z"/>
<path d="M4817 3296 c-3 -8 0 -20 8 -26 19 -16 59 8 43 27 -14 17 -45 17 -51
-1z"/>
<path d="M112 3188 c-21 -21 -15 -50 10 -46 27 4 32 18 16 41 -11 14 -16 15
-26 5z"/>
<path d="M4860 3180 c-13 -25 3 -52 26 -43 18 7 18 37 0 52 -12 10 -17 8 -26
-9z"/>
<path d="M75 3050 c-4 -12 -1 -28 6 -36 12 -14 14 -14 25 1 10 13 10 21 1 36
-15 24 -24 24 -32 -1z"/>
<path d="M4903 3053 c-15 -5 -17 -39 -3 -48 9 -6 50 15 50 25 0 10 -35 27 -47
23z"/>
<path d="M50 2915 c-15 -18 -5 -35 20 -35 10 0 22 5 25 10 7 11 -12 40 -25 40
-4 0 -13 -7 -20 -15z"/>
<path d="M4920 2914 c-11 -12 -10 -18 3 -32 16 -15 18 -15 34 0 13 14 14 20 3
32 -7 9 -16 16 -20 16 -4 0 -13 -7 -20 -16z"/>
<path d="M32 2789 c-12 -18 -12 -24 0 -35 20 -20 42 -2 34 30 -8 32 -17 33
-34 5z"/>
<path d="M4936 2781 c-7 -11 3 -41 13 -41 4 0 16 7 27 15 16 13 17 16 4 25
-19 12 -37 13 -44 1z"/>
<path d="M4945 2650 c-8 -24 1 -40 21 -40 20 0 29 27 14 45 -17 20 -27 19 -35
-5z"/>
<path d="M13 2644 c-3 -8 1 -22 9 -30 13 -13 16 -13 27 0 7 9 11 23 7 31 -7
20 -35 19 -43 -1z"/>
<path d="M3482 2643 c-18 -3 -21 -8 -12 -17 7 -10 4 -44 -14 -125 -13 -61 -21
-113 -17 -115 13 -9 29 9 35 41 9 40 61 113 81 113 18 0 18 -7 3 -82 -14 -67
-6 -84 33 -69 17 7 19 10 7 10 -22 1 -21 -5 -2 77 8 37 13 73 10 80 -9 25 -53
16 -79 -16 -14 -16 -28 -30 -30 -30 -2 0 2 26 9 58 16 66 17 83 7 81 -5 -1
-18 -4 -31 -6z"/>
<path d="M1100 2630 c0 -5 7 -10 16 -10 12 0 15 -6 10 -22 -3 -13 -13 -60 -22
-104 -13 -64 -21 -84 -38 -92 -16 -8 3 -11 81 -11 l102 -1 7 35 c9 47 -1 54
-21 16 -14 -28 -20 -31 -60 -31 -25 0 -45 2 -45 4 0 2 9 48 20 101 11 53 20
99 20 101 0 2 6 4 14 4 8 0 18 5 21 10 4 6 -15 10 -49 10 -31 0 -56 -4 -56
-10z"/>
<path d="M2780 2630 c0 -5 7 -10 15 -10 19 0 19 -16 -4 -119 -12 -54 -25 -89
-37 -98 -15 -11 -4 -13 79 -13 86 0 98 2 117 22 26 28 26 74 1 90 -19 12 -19
13 5 35 27 25 31 64 8 87 -12 12 -36 16 -100 16 -49 0 -84 -4 -84 -10z m153
-29 c6 -6 6 -20 0 -38 -8 -24 -15 -28 -52 -31 l-43 -3 7 33 c13 68 13 67 47
57 18 -5 36 -13 41 -18z m-22 -110 c23 -19 23 -21 9 -48 -13 -24 -23 -28 -63
-31 -48 -3 -48 -3 -41 25 15 60 23 73 48 73 13 0 34 -9 47 -19z"/>
<path d="M3074 2629 c-10 -17 13 -36 27 -22 12 12 4 33 -11 33 -5 0 -12 -5
-16 -11z"/>
<path d="M3370 2611 c0 -5 -11 -23 -25 -39 -14 -17 -21 -33 -17 -36 6 -3 3
-32 -5 -67 -16 -72 -13 -89 21 -89 30 0 44 17 18 22 -16 3 -17 7 -4 67 11 47
19 65 33 68 23 6 25 23 3 23 -12 0 -15 7 -12 25 3 14 1 28 -3 31 -5 3 -9 1 -9
-5z"/>
<path d="M1552 2577 c-22 -22 -29 -36 -21 -39 10 -3 10 -17 0 -65 -6 -33 -9
-68 -5 -77 7 -17 49 -22 59 -6 3 6 -4 10 -15 10 -15 0 -20 5 -17 14 3 7 8 34
12 59 7 49 17 62 50 70 19 5 19 5 -2 12 -13 4 -23 17 -25 32 l-3 24 -33 -34z"/>
<path d="M1341 2545 c-61 -52 -61 -137 0 -159 52 -18 104 11 124 70 31 92 -50
150 -124 89z m90 -16 c9 -17 8 -32 -1 -63 -15 -53 -27 -66 -56 -66 -34 0 -47
31 -34 83 17 65 67 90 91 46z"/>
<path d="M3219 2538 l-30 -33 6 28 c6 24 4 27 -16 27 -13 0 -31 -5 -39 -10
-13 -8 -12 -10 3 -10 20 0 20 -6 3 -87 -18 -84 2 -86 43 -5 42 82 58 101 70
82 11 -17 16 -14 25 18 11 35 -29 29 -65 -10z"/>
<path d="M1645 2550 c-3 -5 1 -10 11 -10 14 0 15 -7 8 -47 -4 -27 -8 -61 -8
-78 -1 -27 2 -30 29 -28 17 1 37 11 46 22 17 20 17 20 23 -4 5 -18 13 -25 31
-25 26 0 34 15 13 22 -11 4 -6 42 18 136 4 15 2 22 -7 22 -8 0 -31 -34 -52
-75 -26 -51 -45 -75 -57 -75 -16 0 -16 4 -4 58 20 84 19 92 -15 92 -17 0 -33
-4 -36 -10z"/>
<path d="M1886 2544 c-13 -35 -5 -55 30 -76 44 -26 45 -61 0 -66 -16 -2 -32 2
-37 10 -7 10 -11 10 -21 0 -20 -20 9 -34 61 -28 44 4 71 24 71 53 0 14 -28 43
-71 75 -24 17 -24 18 -5 33 19 15 19 15 -1 15 -11 0 -24 -7 -27 -16z"/>
<path d="M1968 2542 c19 -21 32 -19 32 4 0 8 -10 14 -25 14 -24 0 -24 -1 -7
-18z"/>
<path d="M3030 2550 c-13 -8 -12 -10 4 -10 14 0 17 -5 12 -22 -4 -13 -10 -49
-13 -80 -6 -57 -5 -58 20 -58 14 0 29 5 32 10 3 6 -1 10 -9 10 -20 0 -20 10
-1 80 8 30 15 61 15 68 0 14 -39 16 -60 2z"/>
<path d="M4952 2528 c-16 -16 -15 -33 1 -46 21 -17 41 2 33 32 -7 29 -16 32
-34 14z"/>
<path d="M18 2523 c-25 -6 -22 -30 3 -38 25 -8 44 7 36 29 -7 16 -9 17 -39 9z"/>
<path d="M4949 2387 c-11 -24 -10 -30 1 -37 16 -10 40 -2 40 14 0 7 -6 21 -14
31 -14 19 -15 19 -27 -8z"/>
<path d="M14 2379 c-3 -6 1 -18 10 -27 15 -15 17 -15 32 0 19 19 11 38 -16 38
-10 0 -22 -5 -26 -11z"/>
<path d="M31 2246 c-14 -17 9 -39 33 -30 19 7 20 16 4 32 -15 15 -23 15 -37
-2z"/>
<path d="M4937 2253 c-24 -23 12 -55 38 -33 12 10 13 16 4 26 -12 15 -31 18
-42 7z"/>
<path d="M44 2115 c-4 -9 -2 -21 4 -27 15 -15 44 -1 40 19 -4 23 -36 29 -44 8z"/>
<path d="M4921 2121 c-19 -12 -6 -41 18 -41 26 0 36 17 21 35 -14 17 -20 18
-39 6z"/>
<path d="M73 1989 c-6 -6 -9 -18 -6 -25 7 -18 37 -18 52 0 10 12 8 17 -8 25
-24 14 -24 14 -38 0z"/>
<path d="M4886 1987 c-16 -12 -16 -14 -2 -26 20 -17 49 -6 44 16 -4 22 -20 26
-42 10z"/>
<path d="M4860 1860 c-15 -28 5 -57 26 -39 18 15 18 33 0 48 -12 10 -17 8 -26
-9z"/>
<path d="M102 1858 c-13 -13 2 -38 23 -38 21 0 36 25 23 38 -7 7 -17 12 -23
12 -6 0 -16 -5 -23 -12z"/>
<path d="M141 1731 c-16 -28 14 -51 36 -28 13 13 14 19 3 31 -17 21 -27 20
-39 -3z"/>
<path d="M4822 1727 c-7 -8 -7 -18 -2 -27 7 -12 13 -12 37 -1 27 12 27 13 8
27 -23 17 -30 17 -43 1z"/>
<path d="M189 1604 c-15 -18 0 -38 27 -32 25 5 28 25 6 37 -15 8 -23 7 -33 -5z"/>
<path d="M4780 1605 c-19 -22 5 -48 31 -34 24 12 24 21 0 36 -15 10 -22 9 -31
-2z"/>
<path d="M245 1486 c-16 -12 -17 -16 -6 -30 16 -19 22 -20 45 -3 16 12 16 14
-2 30 -16 15 -21 15 -37 3z"/>
<path d="M4721 1477 c-8 -10 -7 -19 4 -33 15 -19 15 -19 30 0 11 14 12 23 4
33 -6 7 -15 13 -19 13 -4 0 -13 -6 -19 -13z"/>
<path d="M297 1356 c-9 -23 18 -39 43 -26 17 9 19 14 9 26 -15 18 -45 18 -52
0z"/>
<path d="M4662 1357 c-7 -8 -6 -18 4 -32 15 -20 15 -20 29 -1 23 30 -9 62 -33
33z"/>
<path d="M4601 1256 c-16 -19 -7 -46 14 -46 22 0 30 29 13 46 -13 13 -16 13
-27 0z"/>
<path d="M370 1245 c-15 -18 -5 -35 20 -35 10 0 22 5 25 10 7 11 -12 40 -25
40 -4 0 -13 -7 -20 -15z"/>
<path d="M4532 1138 c-16 -16 -15 -33 2 -47 22 -18 44 25 24 45 -11 11 -16 12
-26 2z"/>
<path d="M434 1129 c-3 -6 0 -18 9 -26 12 -12 18 -13 35 -2 16 10 18 16 10 26
-13 16 -44 17 -54 2z"/>
<path d="M523 1033 c-17 -6 -16 -28 0 -42 10 -8 19 -7 32 3 16 12 17 16 6 30
-14 17 -18 18 -38 9z"/>
<path d="M4450 1025 c-22 -26 7 -46 39 -26 12 8 12 12 2 25 -17 20 -25 20 -41
1z"/>
<path d="M4360 920 c-19 -36 14 -56 40 -25 10 12 10 18 0 30 -17 20 -27 19
-40 -5z"/>
<path d="M601 916 c-18 -21 11 -41 39 -26 17 9 19 14 9 26 -15 18 -33 18 -48
0z"/>
<path d="M4282 828 c-16 -16 -15 -35 1 -40 32 -12 50 19 24 41 -10 8 -17 7
-25 -1z"/>
<path d="M687 816 c-9 -23 18 -39 43 -26 17 9 19 14 9 26 -15 18 -45 18 -52 0z"/>
<path d="M785 730 c-8 -24 1 -40 21 -40 20 0 29 27 14 45 -17 20 -27 19 -35
-5z"/>
<path d="M4180 725 c-21 -26 3 -42 37 -26 27 12 27 13 8 27 -24 18 -30 18 -45
-1z"/>
<path d="M885 640 c-8 -12 3 -50 14 -50 16 0 31 28 25 44 -7 18 -29 21 -39 6z"/>
<path d="M4077 636 c-9 -24 18 -39 44 -25 22 11 22 12 4 25 -24 18 -41 18 -48
0z"/>
<path d="M3973 554 c-3 -8 1 -22 9 -30 12 -12 16 -12 33 1 20 15 20 15 1 30
-25 19 -35 19 -43 -1z"/>
<path d="M985 550 c-3 -5 0 -18 7 -29 14 -23 38 -11 38 20 0 20 -34 27 -45 9z"/>
<path d="M1101 486 c-16 -19 -7 -46 14 -46 22 0 30 29 13 46 -13 13 -16 13
-27 0z"/>
<path d="M3870 475 c-22 -26 7 -46 39 -26 12 8 12 12 2 25 -17 20 -25 20 -41
1z"/>
<path d="M3761 416 c-17 -20 -6 -49 16 -44 22 4 26 20 10 42 -12 16 -14 16
-26 2z"/>
<path d="M1210 405 c-17 -21 6 -61 26 -44 18 15 18 45 0 52 -8 3 -20 0 -26 -8z"/>
<path d="M1325 340 c-8 -12 3 -50 14 -50 15 0 33 30 27 45 -6 17 -32 20 -41 5z"/>
<path d="M3636 333 c-11 -27 10 -39 40 -23 24 13 24 15 8 27 -24 18 -41 16
-48 -4z"/>
<path d="M1442 277 c-7 -8 -6 -18 4 -32 13 -18 15 -18 30 -3 19 18 12 48 -9
48 -8 0 -19 -6 -25 -13z"/>
<path d="M3513 274 c-3 -8 1 -22 9 -30 13 -13 16 -13 27 0 7 9 11 23 7 31 -7
20 -35 19 -43 -1z"/>
<path d="M1566 223 c-9 -22 7 -36 33 -28 25 8 28 30 5 39 -24 9 -31 7 -38 -11z"/>
<path d="M3401 227 c-13 -17 -5 -47 14 -47 19 0 28 32 12 47 -12 12 -16 12
-26 0z"/>
<path d="M1687 176 c-9 -23 18 -39 42 -26 25 13 27 26 5 34 -25 10 -41 7 -47
-8z"/>
<path d="M3267 176 c-3 -8 0 -20 8 -26 19 -16 59 8 43 27 -14 17 -45 17 -51
-1z"/>
<path d="M1826 144 c-13 -12 -14 -19 -5 -30 14 -17 20 -17 43 -1 16 12 16 14
-2 30 -18 17 -21 17 -36 1z"/>
<path d="M3141 141 c-8 -14 -7 -22 4 -31 22 -19 48 5 34 31 -12 24 -26 24 -38
0z"/>
<path d="M1946 104 c-8 -21 1 -34 23 -34 26 0 44 23 29 38 -17 17 -45 15 -52
-4z"/>
<path d="M3012 108 c-8 -8 -9 -15 -1 -25 14 -17 34 -17 48 0 11 15 -3 37 -24
37 -6 0 -16 -5 -23 -12z"/>
<path d="M2076 85 c-20 -15 -20 -15 -1 -29 28 -20 59 -3 45 24 -13 24 -19 24
-44 5z"/>
<path d="M2881 86 c-9 -11 -9 -19 1 -35 7 -12 15 -21 18 -21 3 0 11 9 18 21
10 16 10 24 1 35 -6 8 -15 14 -19 14 -4 0 -13 -6 -19 -14z"/>
<path d="M2751 76 c-16 -19 -7 -46 14 -46 22 0 30 29 13 46 -13 13 -16 13 -27
0z"/>
<path d="M2223 73 c-16 -6 -17 -39 -2 -49 6 -3 18 1 27 10 14 14 14 18 2 30
-8 7 -21 12 -27 9z"/>
<path d="M2350 55 c-17 -21 6 -61 26 -44 18 15 18 45 0 52 -8 3 -20 0 -26 -8z"/>
<path d="M2617 63 c-12 -11 -8 -40 7 -52 12 -10 17 -8 26 9 18 34 -8 68 -33
43z"/>
<path d="M2477 54 c-10 -10 12 -44 28 -44 9 0 15 10 15 25 0 18 -5 25 -18 25
-10 0 -22 -3 -25 -6z"/>
</g>
</svg>
