<?xml version="1.0" standalone="no"?>
<!DOCTYPE svg PUBLIC "-//W3C//DTD SVG 20010904//EN"
 "http://www.w3.org/TR/2001/REC-SVG-20010904/DTD/svg10.dtd">
<svg version="1.0" xmlns="http://www.w3.org/2000/svg"
 width="500.000000pt" height="500.000000pt" viewBox="0 0 500.000000 500.000000"
 preserveAspectRatio="xMidYMid meet">
<metadata>
Created by potrace 1.15, written by Peter Selinger 2001-2017
</metadata>
<g transform="translate(0.000000,500.000000) scale(0.100000,-0.100000)"
fill="#000000" stroke="none">
<path d="M2351 4976 c-16 -19 -7 -46 14 -46 22 0 30 29 13 46 -13 13 -16 13
-27 0z"/>
<path d="M2482 4978 c-17 -17 -15 -35 5 -42 21 -8 36 6 31 30 -4 22 -20 28
-36 12z"/>
<path d="M2617 4973 c-11 -10 -8 -41 4 -49 6 -3 18 1 27 9 13 13 13 19 2 31
-14 17 -23 20 -33 9z"/>
<path d="M2751 4966 c-16 -19 -7 -46 14 -46 22 0 30 29 13 46 -13 13 -16 13
-27 0z"/>
<path d="M2214 4955 c-12 -30 16 -45 46 -25 13 9 12 12 -4 25 -25 19 -35 19
-42 0z"/>
<path d="M2083 4939 c-6 -6 -9 -18 -6 -25 7 -18 37 -18 52 0 10 12 8 17 -8 25
-24 14 -24 14 -38 0z"/>
<path d="M2880 4935 c-15 -18 -5 -35 20 -35 10 0 22 5 25 10 7 11 -12 40 -25
40 -4 0 -13 -7 -20 -15z"/>
<path d="M1945 4910 c-3 -5 -1 -19 6 -31 10 -19 12 -20 26 -6 9 9 13 23 10 31
-7 18 -32 21 -42 6z"/>
<path d="M3005 4910 c-3 -5 -1 -19 5 -31 11 -19 13 -20 30 -4 10 9 16 23 13
31 -6 16 -39 19 -48 4z"/>
<path d="M1814 4879 c-3 -6 0 -18 9 -26 12 -12 19 -13 36 -3 18 9 20 14 10 26
-14 17 -45 19 -55 3z"/>
<path d="M3131 4877 c-9 -11 -8 -17 4 -27 19 -16 47 -5 43 17 -4 23 -31 28
-47 10z"/>
<path d="M1685 4840 c-7 -11 11 -50 23 -50 4 0 13 10 21 21 11 18 11 23 -1 30
-18 12 -35 11 -43 -1z"/>
<path d="M3267 4843 c-25 -24 11 -49 40 -28 16 13 16 16 3 25 -17 11 -34 13
-43 3z"/>
<path d="M3394 4803 c-14 -23 -7 -43 16 -43 23 0 31 21 15 43 -15 21 -18 21
-31 0z"/>
<path d="M1570 4800 c-11 -7 -12 -13 -2 -35 10 -22 15 -25 27 -15 8 7 15 18
15 25 0 20 -24 35 -40 25z"/>
<path d="M1451 4747 c-26 -26 -4 -55 29 -37 25 13 25 22 1 37 -14 9 -21 9 -30
0z"/>
<path d="M3522 4748 c-24 -24 -9 -54 22 -42 19 7 21 28 3 43 -10 8 -17 7 -25
-1z"/>
<path d="M1332 4698 c-15 -15 -15 -45 -1 -54 6 -3 18 0 26 9 14 13 14 18 1 36
-11 16 -17 18 -26 9z"/>
<path d="M3633 4674 c-9 -24 11 -38 36 -25 25 14 27 27 5 35 -25 9 -34 7 -41
-10z"/>
<path d="M1210 4620 c-12 -7 -12 -13 0 -35 13 -25 15 -25 27 -9 7 10 13 23 13
30 0 16 -24 24 -40 14z"/>
<path d="M3752 4618 c-8 -8 -9 -15 -1 -25 14 -16 31 -17 47 -1 9 9 7 14 -6 24
-21 17 -25 17 -40 2z"/>
<path d="M3862 4550 c-15 -24 -8 -40 18 -40 23 0 31 21 15 43 -16 22 -17 21
-33 -3z"/>
<path d="M1099 4544 c-15 -18 0 -38 27 -32 25 5 28 25 6 37 -15 8 -23 7 -33
-5z"/>
<path d="M2362 4398 c-27 -68 -55 -141 -61 -163 -14 -50 -14 -148 -1 -195 21
-77 111 -150 185 -150 44 0 103 50 130 110 16 37 17 47 6 88 -6 26 -37 90 -68
142 -86 145 -103 181 -110 238 -3 31 -11 52 -18 52 -7 0 -35 -55 -63 -122z
m128 -139 c61 -123 70 -149 70 -196 0 -84 -20 -113 -80 -113 -109 0 -175 146
-136 300 15 58 59 150 72 150 2 0 36 -64 74 -141z"/>
<path d="M991 4476 c-16 -19 -7 -46 14 -46 22 0 30 29 13 46 -13 13 -16 13
-27 0z"/>
<path d="M3970 4470 c-12 -23 -6 -40 15 -40 19 0 27 17 20 40 -8 26 -21 25
-35 0z"/>
<path d="M4076 4394 c-11 -29 -6 -44 13 -44 27 0 34 15 19 40 -15 24 -24 25
-32 4z"/>
<path d="M882 4373 c4 -21 27 -27 48 -13 13 9 13 11 0 20 -25 16 -52 12 -48
-7z"/>
<path d="M786 4304 c-11 -29 -6 -44 13 -44 26 0 34 15 21 40 -13 24 -26 26
-34 4z"/>
<path d="M4178 4303 c-20 -22 -9 -47 17 -41 24 4 28 20 12 42 -12 17 -13 17
-29 -1z"/>
<path d="M685 4200 c-3 -5 -1 -19 6 -31 10 -19 12 -20 26 -6 9 9 13 23 10 31
-7 18 -32 21 -42 6z"/>
<path d="M4267 4203 c-12 -12 -7 -31 10 -37 9 -4 23 0 32 9 14 14 14 17 1 25
-18 11 -34 13 -43 3z"/>
<path d="M4360 4105 c-19 -22 5 -48 31 -34 24 12 24 21 0 36 -15 10 -22 9 -31
-2z"/>
<path d="M595 4100 c-6 -10 11 -50 22 -50 12 0 31 34 26 47 -6 15 -39 17 -48
3z"/>
<path d="M520 3995 c-22 -27 12 -49 38 -23 8 8 9 15 1 25 -15 17 -24 16 -39
-2z"/>
<path d="M4440 3995 c-15 -18 -5 -35 20 -35 10 0 22 5 25 10 7 11 -12 40 -25
40 -4 0 -13 -7 -20 -15z"/>
<path d="M440 3895 c-15 -18 -6 -45 14 -45 20 0 29 16 21 40 -8 24 -18 25 -35
5z"/>
<path d="M4520 3894 c-11 -12 -10 -18 3 -32 21 -21 42 -3 32 27 -8 25 -18 27
-35 5z"/>
<path d="M2451 3812 c-10 -36 -13 -39 -63 -48 -68 -12 -77 -30 -84 -166 -10
-201 -11 -206 -60 -253 -38 -37 -44 -49 -44 -85 0 -33 6 -48 29 -71 17 -17 40
-29 55 -29 l26 0 0 -463 0 -463 -25 -34 c-14 -19 -25 -44 -25 -56 0 -25 -17
-34 -68 -34 -20 0 -54 -5 -74 -10 -33 -10 -37 -15 -40 -47 -3 -33 -6 -37 -49
-49 -26 -8 -52 -21 -59 -29 -20 -24 -14 -77 11 -97 20 -17 60 -18 538 -18 286
0 547 5 586 10 144 21 279 122 304 228 29 118 -50 258 -177 314 -54 24 -103
18 -166 -23 -86 -54 -112 -134 -77 -230 31 -81 60 -104 129 -100 25 1 62 34
62 56 0 11 -11 15 -37 15 -57 1 -78 22 -77 75 1 54 25 92 69 111 48 19 82 18
122 -7 97 -60 95 -205 -6 -290 -47 -41 -99 -59 -188 -67 -57 -4 -66 -2 -109
27 -26 17 -60 31 -75 31 -26 0 -28 3 -27 35 2 48 -11 58 -82 63 -53 4 -60 7
-55 23 4 11 -4 37 -19 62 -25 41 -26 52 -26 181 l0 138 29 26 c16 15 38 34 50
42 11 8 24 29 27 45 6 31 5 32 -69 134 -38 53 -51 150 -44 346 2 83 2 259 -2
393 -7 284 -4 276 -102 265 l-57 -6 -9 43 c-11 56 -29 62 -42 12z m147 -105
c9 -6 12 -113 12 -479 0 -520 -2 -501 66 -546 24 -16 34 -30 34 -48 0 -21 -8
-29 -50 -47 l-50 -21 0 -184 c0 -169 2 -186 20 -209 44 -56 17 -73 -117 -73
-99 0 -168 11 -185 28 -6 6 -2 22 11 43 20 33 21 47 21 530 0 372 -3 498 -12
507 -7 7 -24 12 -40 12 -31 0 -62 37 -53 63 4 8 20 21 36 27 16 7 41 26 54 42
24 29 25 34 25 192 0 90 2 165 4 167 8 8 211 4 224 -4z"/>
<path d="M364 3775 c-12 -29 15 -45 45 -26 12 8 12 12 2 25 -17 20 -40 21 -47
1z"/>
<path d="M4590 3775 c-11 -13 -11 -19 3 -33 20 -19 41 -5 35 24 -4 24 -22 28
-38 9z"/>
<path d="M4660 3665 c-12 -15 -8 -45 8 -45 4 0 16 6 26 13 16 12 16 14 -2 30
-17 16 -21 16 -32 2z"/>
<path d="M297 3656 c-9 -23 18 -39 43 -26 17 9 19 14 9 26 -15 18 -45 18 -52
0z"/>
<path d="M4715 3539 c-10 -30 11 -48 32 -27 13 14 14 20 3 32 -17 22 -27 20
-35 -5z"/>
<path d="M241 3536 c-18 -21 11 -41 39 -26 17 9 19 14 9 26 -15 18 -33 18 -48
0z"/>
<path d="M4770 3424 c-11 -12 -10 -18 3 -32 21 -21 42 -3 32 27 -8 25 -18 27
-35 5z"/>
<path d="M181 3417 c-9 -11 -8 -17 4 -27 19 -16 47 -5 43 17 -4 23 -31 28 -47
10z"/>
<path d="M142 3296 c-9 -19 -8 -27 4 -37 12 -10 18 -9 30 3 13 13 14 19 2 37
-17 27 -22 26 -36 -3z"/>
<path d="M4821 3296 c-16 -19 -8 -46 13 -46 20 0 29 31 13 47 -12 12 -16 12
-26 -1z"/>
<path d="M101 3167 c-8 -10 -7 -19 4 -33 13 -18 15 -18 31 -2 14 14 15 20 4
32 -15 19 -24 20 -39 3z"/>
<path d="M4857 3173 c-11 -11 -8 -40 6 -51 19 -16 43 24 26 44 -13 15 -22 18
-32 7z"/>
<path d="M77 3043 c-4 -3 -7 -15 -7 -25 0 -21 32 -25 49 -5 17 22 -22 50 -42
30z"/>
<path d="M4890 3034 c-11 -12 -11 -18 1 -30 13 -12 18 -12 34 0 16 12 17 16 6
30 -17 20 -25 20 -41 0z"/>
<path d="M4909 2909 c-9 -17 -8 -24 4 -36 12 -13 16 -12 30 2 14 13 14 20 4
35 -15 25 -24 25 -38 -1z"/>
<path d="M46 2904 c-11 -30 13 -44 43 -25 12 8 12 12 2 25 -17 20 -37 20 -45
0z"/>
<path d="M29 2774 c-15 -18 0 -38 27 -32 25 5 28 25 6 37 -15 8 -23 7 -33 -5z"/>
<path d="M4931 2776 c-9 -11 -10 -20 -1 -35 14 -27 27 -27 35 0 4 13 2 27 -7
36 -13 12 -16 12 -27 -1z"/>
<path d="M20 2645 c-14 -17 -5 -45 17 -52 18 -6 27 37 11 54 -13 12 -16 12
-28 -2z"/>
<path d="M4940 2644 c-11 -12 -10 -18 3 -31 22 -23 52 0 36 28 -12 23 -22 24
-39 3z"/>
<path d="M4940 2511 c-8 -15 -6 -24 7 -36 16 -16 17 -16 29 0 9 13 10 23 3 36
-13 24 -26 24 -39 0z"/>
<path d="M18 2513 c-25 -6 -22 -30 3 -38 25 -8 44 7 36 29 -7 16 -9 17 -39 9z"/>
<path d="M21 2376 c-18 -22 4 -62 25 -45 18 15 18 33 0 48 -10 9 -16 8 -25 -3z"/>
<path d="M4940 2375 c-20 -24 4 -47 36 -33 23 11 23 12 8 30 -21 22 -28 22
-44 3z"/>
<path d="M4930 2245 c-11 -13 -11 -19 3 -33 20 -19 41 -5 35 24 -4 24 -22 28
-38 9z"/>
<path d="M27 2236 c-3 -8 0 -20 8 -26 19 -16 59 8 43 27 -14 17 -45 17 -51 -1z"/>
<path d="M51 2116 c-16 -19 -7 -46 14 -46 22 0 30 29 13 46 -13 13 -16 13 -27
0z"/>
<path d="M4910 2104 c-11 -12 -10 -18 4 -32 16 -16 18 -16 31 2 11 14 12 23 4
33 -15 17 -24 16 -39 -3z"/>
<path d="M71 1977 c-8 -10 -7 -19 4 -33 15 -19 15 -19 30 0 11 14 12 23 4 33
-6 7 -15 13 -19 13 -4 0 -13 -6 -19 -13z"/>
<path d="M4879 1974 c-10 -13 -10 -17 2 -25 8 -5 20 -9 27 -9 19 0 27 31 11
41 -19 12 -25 11 -40 -7z"/>
<path d="M4855 1849 c-9 -28 9 -46 29 -30 12 10 13 18 5 32 -13 25 -26 24 -34
-2z"/>
<path d="M102 1848 c-13 -13 2 -38 23 -38 21 0 36 25 23 38 -7 7 -17 12 -23
12 -6 0 -16 -5 -23 -12z"/>
<path d="M142 1717 c-7 -8 -7 -17 2 -30 17 -22 23 -22 37 4 9 17 8 23 -2 30
-19 12 -25 11 -37 -4z"/>
<path d="M4817 1723 c-24 -23 12 -55 38 -33 12 10 13 16 4 26 -12 15 -31 18
-42 7z"/>
<path d="M2952 1648 c-16 -16 -15 -33 1 -47 21 -17 55 23 37 44 -15 18 -22 19
-38 3z"/>
<path d="M3402 1649 c-24 -9 -22 -29 4 -29 19 0 19 -6 -20 -190 l-34 -161 26
3 c22 3 28 11 38 50 22 87 87 177 119 165 20 -8 19 -26 -6 -119 -17 -63 -19
-81 -9 -93 15 -17 43 -19 71 -5 25 14 25 33 -1 25 -26 -8 -26 12 1 118 24 96
17 127 -28 127 -33 0 -63 -22 -98 -69 -32 -44 -32 -28 -5 87 11 46 20 87 20
93 0 11 -48 11 -78 -2z"/>
<path d="M1307 1643 c-14 -13 -6 -23 18 -23 32 0 32 -14 -1 -171 -28 -132 -36
-149 -65 -149 -11 0 -19 -7 -19 -15 0 -13 23 -15 149 -15 l149 0 11 50 c14 67
14 70 -7 70 -12 0 -21 -11 -27 -32 -12 -40 -45 -58 -107 -58 -39 0 -48 3 -48
18 0 21 58 281 66 293 3 5 16 9 30 9 15 0 24 6 24 15 0 12 -16 15 -83 15 -46
0 -87 -3 -90 -7z"/>
<path d="M2547 1643 c-14 -13 -6 -23 18 -23 32 0 32 -14 0 -167 -34 -157 -33
-153 -61 -153 -15 0 -24 -6 -24 -15 0 -13 23 -15 148 -15 l149 0 11 51 c16 67
15 69 -8 69 -15 0 -20 -7 -20 -25 0 -44 -32 -65 -100 -65 -72 0 -70 -9 -35
156 33 151 38 164 70 164 16 0 25 6 25 15 0 12 -16 15 -83 15 -46 0 -87 -3
-90 -7z"/>
<path d="M3781 1594 c-12 -15 -21 -31 -21 -36 0 -5 -16 -16 -35 -24 -38 -16
-46 -34 -15 -34 24 0 25 -11 4 -100 -8 -38 -14 -84 -12 -102 3 -29 7 -33 34
-36 20 -2 39 4 55 18 l24 21 -32 -4 c-37 -4 -37 -3 -23 73 22 117 28 130 60
130 20 0 30 5 30 15 0 9 -10 15 -26 15 -24 0 -25 2 -18 45 3 25 4 45 1 45 -3
0 -15 -12 -26 -26z"/>
<path d="M190 1595 c-15 -18 -5 -35 20 -35 10 0 22 5 25 10 7 11 -12 40 -25
40 -4 0 -13 -7 -20 -15z"/>
<path d="M4770 1595 c-15 -18 -5 -35 20 -35 10 0 22 5 25 10 7 11 -12 40 -25
40 -4 0 -13 -7 -20 -15z"/>
<path d="M1686 1517 c-53 -30 -80 -77 -81 -143 0 -62 28 -100 83 -110 134 -25
239 151 147 250 -31 34 -93 35 -149 3z m102 -13 c27 -19 29 -66 7 -142 -27
-88 -100 -110 -130 -38 -12 28 -12 40 0 78 33 111 69 140 123 102z"/>
<path d="M1961 1531 c-40 -7 -51 -26 -21 -34 11 -3 20 -13 21 -24 0 -10 6 -58
12 -108 11 -86 13 -90 37 -90 20 0 32 13 65 72 44 80 47 79 59 -19 8 -63 27
-76 58 -40 31 34 137 237 129 245 -13 13 -81 -3 -81 -19 0 -8 9 -14 21 -14 19
0 17 -6 -23 -80 -24 -44 -46 -80 -49 -80 -4 0 -12 45 -19 101 -10 81 -15 99
-27 95 -8 -3 -18 -6 -23 -6 -4 0 -10 -18 -13 -40 -3 -22 -20 -64 -38 -92 l-33
-52 -8 35 c-4 19 -10 62 -14 97 -3 34 -9 61 -13 61 -3 -1 -21 -4 -40 -8z"/>
<path d="M2921 1530 c-45 -5 -71 -30 -32 -30 26 0 26 -3 0 -102 -23 -93 -22
-131 4 -136 29 -6 64 6 71 24 5 13 1 15 -19 12 -14 -3 -25 -2 -25 1 0 3 13 57
29 119 16 61 26 113 22 115 -3 1 -26 0 -50 -3z"/>
<path d="M3125 1521 c-80 -49 -117 -150 -80 -220 25 -49 68 -54 115 -15 17 15
33 24 36 21 9 -9 -25 -104 -42 -118 -25 -20 -76 -15 -92 9 -16 25 -42 29 -42
8 0 -8 -2 -21 -6 -29 -7 -19 98 -30 150 -16 52 14 66 44 100 204 l29 138 -23
19 c-30 24 -105 24 -145 -1z m103 -45 c4 -50 -20 -115 -57 -150 -34 -33 -61
-31 -79 6 -11 23 -9 35 14 93 27 68 58 97 99 92 16 -1 21 -11 23 -41z"/>
<path d="M240 1474 c-11 -12 -11 -18 2 -30 13 -13 20 -14 38 -4 21 11 21 12 4
31 -21 23 -28 24 -44 3z"/>
<path d="M4720 1475 c-9 -11 -11 -22 -4 -32 13 -21 25 -21 38 -1 8 14 7 21 -5
33 -14 15 -17 15 -29 0z"/>
<path d="M302 1359 c-12 -18 -12 -24 0 -35 20 -20 42 -2 34 30 -8 32 -17 33
-34 5z"/>
<path d="M4662 1358 c-16 -16 -15 -33 2 -47 22 -18 44 25 24 45 -11 11 -16 12
-26 2z"/>
<path d="M4590 1245 c-15 -18 -6 -45 14 -45 20 0 29 16 21 40 -8 24 -18 25
-35 5z"/>
<path d="M364 1235 c-12 -29 15 -45 45 -26 12 8 12 12 2 25 -17 20 -40 21 -47
1z"/>
<path d="M441 1128 c-11 -17 -10 -23 2 -35 18 -18 37 -9 37 16 0 31 -24 43
-39 19z"/>
<path d="M4520 1135 c-9 -11 -11 -22 -4 -32 13 -21 25 -21 38 -1 8 14 7 21 -5
33 -14 15 -17 15 -29 0z"/>
<path d="M521 1026 c-16 -19 -7 -46 14 -46 22 0 30 29 13 46 -13 13 -16 13
-27 0z"/>
<path d="M4440 1015 c-15 -18 -5 -35 21 -35 24 0 37 29 18 41 -19 12 -25 11
-39 -6z"/>
<path d="M3008 1003 c-29 -4 -40 -33 -13 -33 21 0 19 -25 -16 -188 -33 -156
-31 -172 20 -172 27 0 51 16 51 33 0 5 -11 7 -23 3 l-24 -6 32 153 c18 83 35
167 39 185 8 35 5 36 -66 25z"/>
<path d="M1787 993 c-14 -13 -6 -23 18 -23 20 0 25 -5 25 -23 0 -20 -29 -165
-55 -274 -4 -16 -13 -23 -30 -23 -16 0 -25 -6 -25 -15 0 -13 23 -15 148 -15
l149 0 11 51 c16 67 15 69 -8 69 -13 0 -20 -7 -20 -19 0 -11 -11 -32 -23 -47
-21 -24 -31 -27 -76 -26 -28 0 -55 3 -59 6 -12 7 55 298 70 308 7 4 21 8 31 8
9 0 17 7 17 15 0 12 -16 15 -83 15 -46 0 -87 -3 -90 -7z"/>
<path d="M596 911 c-3 -4 0 -16 8 -26 11 -15 15 -16 34 -4 16 10 18 16 10 26
-12 15 -44 17 -52 4z"/>
<path d="M4354 909 c-3 -6 1 -18 10 -27 15 -15 17 -15 34 1 15 16 15 19 2 27
-20 13 -37 12 -46 -1z"/>
<path d="M2194 871 c-62 -28 -97 -80 -102 -151 -4 -53 -2 -61 21 -84 15 -14
36 -26 48 -26 41 0 138 32 143 47 5 11 2 13 -11 8 -10 -5 -39 -13 -65 -18 -57
-13 -81 1 -76 46 3 27 9 31 78 53 80 25 100 42 100 85 0 55 -62 73 -136 40z
m79 -23 c13 -36 -31 -82 -91 -94 l-31 -6 9 33 c16 58 98 106 113 67z"/>
<path d="M2413 882 c-43 -4 -62 -28 -30 -36 22 -5 26 -15 42 -113 9 -60 19
-111 21 -115 3 -4 16 -2 29 4 15 7 49 52 88 117 87 145 86 143 35 139 -43 -3
-64 -24 -29 -30 19 -3 17 -9 -25 -86 -26 -46 -50 -80 -54 -75 -4 4 -13 50 -20
101 -7 51 -16 94 -19 95 -3 1 -20 1 -38 -1z"/>
<path d="M2765 871 c-48 -22 -69 -44 -90 -94 -19 -46 -19 -90 0 -126 15 -30
39 -41 93 -41 35 0 112 34 112 50 0 13 -1 13 -43 -5 -68 -28 -117 -11 -117 40
0 20 10 26 68 45 95 31 112 44 112 84 0 63 -57 83 -135 47z m81 -25 c11 -29
-20 -69 -64 -84 -50 -16 -57 -13 -48 23 14 57 97 101 112 61z"/>
<path d="M3193 875 c-70 -30 -66 -98 6 -134 22 -12 47 -31 55 -43 14 -20 14
-24 -1 -40 -22 -24 -46 -30 -77 -19 -17 7 -26 18 -26 32 0 12 -5 19 -12 17
-15 -5 -35 -55 -26 -64 4 -3 33 -8 65 -11 68 -6 117 13 135 52 19 43 3 71 -62
107 -46 25 -60 38 -60 56 0 15 8 26 26 32 36 14 42 13 69 -16 26 -28 45 -25
45 6 0 39 -75 52 -137 25z"/>
<path d="M690 820 c-13 -25 3 -52 26 -43 18 7 18 37 0 52 -12 10 -17 8 -26 -9z"/>
<path d="M4270 820 c-14 -26 0 -46 24 -37 20 8 21 31 2 46 -12 10 -17 8 -26
-9z"/>
<path d="M4179 726 c-17 -35 2 -59 27 -34 15 15 15 18 1 39 l-16 22 -12 -27z"/>
<path d="M785 719 c-10 -30 11 -48 32 -27 13 14 14 20 3 32 -17 22 -27 20 -35
-5z"/>
<path d="M887 643 c-11 -10 -8 -41 4 -49 6 -3 18 1 27 9 13 13 13 19 2 31 -14
17 -23 20 -33 9z"/>
<path d="M4077 633 c-24 -23 12 -55 38 -33 12 10 13 16 4 26 -12 15 -31 18
-42 7z"/>
<path d="M990 545 c-17 -21 6 -61 26 -44 18 15 18 45 0 52 -8 3 -20 0 -26 -8z"/>
<path d="M3973 549 c-6 -6 -9 -18 -6 -25 7 -18 37 -18 52 0 10 12 8 17 -8 25
-24 14 -24 14 -38 0z"/>
<path d="M1101 476 c-16 -19 -7 -46 14 -46 22 0 30 29 13 46 -13 13 -16 13
-27 0z"/>
<path d="M3861 467 c-9 -11 -8 -17 4 -27 19 -16 47 -5 43 17 -4 23 -31 28 -47
10z"/>
<path d="M1204 395 c-4 -9 -2 -21 4 -27 15 -15 44 -1 40 19 -4 23 -36 29 -44
8z"/>
<path d="M3750 395 c-6 -8 -9 -19 -5 -25 9 -15 41 -12 54 4 10 12 8 17 -8 25
-25 14 -26 14 -41 -4z"/>
<path d="M1327 343 c-11 -10 -8 -41 4 -49 6 -3 18 1 27 9 13 13 13 19 2 31
-14 17 -23 20 -33 9z"/>
<path d="M3637 343 c-11 -10 -8 -41 4 -49 6 -3 18 1 27 9 13 13 13 19 2 31
-14 17 -23 20 -33 9z"/>
<path d="M1440 274 c-11 -12 -10 -18 3 -32 16 -15 18 -15 34 0 13 14 14 20 3
32 -7 9 -16 16 -20 16 -4 0 -13 -7 -20 -16z"/>
<path d="M3517 283 c-11 -10 -8 -41 4 -49 6 -3 18 1 27 9 13 13 13 19 2 31
-14 17 -23 20 -33 9z"/>
<path d="M1571 227 c-14 -17 -4 -47 15 -47 22 0 29 29 12 46 -13 13 -16 13
-27 1z"/>
<path d="M3392 217 c-16 -19 11 -58 28 -41 14 14 10 46 -6 51 -6 2 -16 -2 -22
-10z"/>
<path d="M1691 178 c-11 -17 -10 -23 2 -35 18 -18 37 -9 37 16 0 31 -24 43
-39 19z"/>
<path d="M3273 183 c-7 -3 -13 -13 -13 -23 0 -10 6 -20 13 -23 15 -5 47 10 47
23 0 13 -32 28 -47 23z"/>
<path d="M1820 135 c-9 -11 -11 -22 -4 -32 13 -21 25 -21 38 -1 8 14 7 21 -5
33 -14 15 -17 15 -29 0z"/>
<path d="M3140 134 c-11 -12 -10 -18 3 -32 16 -15 18 -15 34 0 13 14 14 20 3
32 -16 20 -24 20 -40 0z"/>
<path d="M1943 94 c-3 -8 1 -22 9 -30 13 -13 16 -13 27 0 7 9 11 23 7 31 -7
20 -35 19 -43 -1z"/>
<path d="M3006 101 c-9 -14 4 -41 19 -41 7 0 18 7 26 16 10 13 10 17 -2 25
-18 11 -36 11 -43 0z"/>
<path d="M2081 86 c-16 -19 -7 -46 14 -46 22 0 30 29 13 46 -13 13 -16 13 -27
0z"/>
<path d="M2880 75 c-22 -26 7 -46 39 -26 12 8 12 12 2 25 -17 20 -25 20 -41 1z"/>
<path d="M2217 73 c-11 -10 -8 -41 3 -48 19 -12 41 15 29 36 -10 20 -21 24
-32 12z"/>
<path d="M2611 52 c-7 -13 -6 -23 1 -30 27 -27 54 -3 36 31 -11 22 -25 22 -37
-1z"/>
<path d="M2745 60 c-8 -12 3 -50 14 -50 15 0 33 30 27 45 -6 17 -32 20 -41 5z"/>
<path d="M2347 53 c-24 -23 12 -55 38 -33 12 10 13 16 4 26 -12 15 -31 18 -42
7z"/>
<path d="M2470 41 c0 -37 32 -55 44 -25 10 27 7 34 -19 34 -14 0 -25 -4 -25
-9z"/>
</g>
</svg>
