<?xml version="1.0" standalone="no"?>
<!DOCTYPE svg PUBLIC "-//W3C//DTD SVG 20010904//EN"
 "http://www.w3.org/TR/2001/REC-SVG-20010904/DTD/svg10.dtd">
<svg version="1.0" xmlns="http://www.w3.org/2000/svg"
 width="500.000000pt" height="500.000000pt" viewBox="0 0 500.000000 500.000000"
 preserveAspectRatio="xMidYMid meet">
<metadata>
Created by potrace 1.15, written by Peter Selinger 2001-2017
</metadata>
<g transform="translate(0.000000,500.000000) scale(0.100000,-0.100000)"
fill="#000000" stroke="none">
<path d="M2222 4969 c-15 -24 0 -51 24 -42 17 6 18 24 2 46 -12 16 -14 16 -26
-4z"/>
<path d="M2480 4974 c-11 -12 -10 -18 3 -32 16 -15 18 -15 34 0 13 14 14 20 3
32 -7 9 -16 16 -20 16 -4 0 -13 -7 -20 -16z"/>
<path d="M2620 4974 c-11 -12 -10 -18 3 -31 22 -23 52 0 36 28 -12 23 -22 24
-39 3z"/>
<path d="M2347 4966 c-9 -23 18 -39 43 -26 17 9 19 14 9 26 -15 18 -45 18 -52
0z"/>
<path d="M2757 4973 c-11 -10 -8 -41 4 -49 6 -3 18 1 27 9 13 13 13 19 2 31
-14 17 -23 20 -33 9z"/>
<path d="M2090 4951 c-10 -20 -4 -51 10 -51 19 0 31 29 20 49 -13 26 -17 26
-30 2z"/>
<path d="M2890 4945 c-15 -18 -7 -45 13 -45 14 0 44 28 36 33 -2 1 -11 8 -20
15 -13 10 -19 9 -29 -3z"/>
<path d="M1951 4917 c-8 -10 -7 -19 4 -33 13 -18 15 -18 31 -2 14 14 15 20 4
32 -15 19 -24 20 -39 3z"/>
<path d="M3014 4915 c-9 -23 15 -48 32 -34 19 15 18 35 -2 43 -22 8 -24 8 -30
-9z"/>
<path d="M1827 4893 c-12 -11 -8 -41 6 -46 7 -3 22 2 32 10 20 14 20 14 1 29
-22 16 -30 17 -39 7z"/>
<path d="M3143 4884 c-3 -8 1 -22 9 -30 13 -13 16 -13 27 0 7 9 11 23 7 31 -7
20 -35 19 -43 -1z"/>
<path d="M1699 4844 c-16 -20 2 -38 30 -29 26 8 27 21 2 34 -14 8 -22 7 -32
-5z"/>
<path d="M3279 4844 c-16 -20 2 -38 30 -29 26 8 27 21 2 34 -14 8 -22 7 -32
-5z"/>
<path d="M1570 4791 c0 -27 15 -34 40 -21 17 9 19 14 9 26 -17 21 -49 18 -49
-5z"/>
<path d="M3401 4801 c-10 -7 -11 -13 -2 -30 15 -26 28 -27 36 -1 10 33 -6 48
-34 31z"/>
<path d="M1451 4756 c-16 -19 -7 -46 14 -46 22 0 30 29 13 46 -13 13 -16 13
-27 0z"/>
<path d="M3527 4753 c-4 -3 -7 -15 -7 -25 0 -23 38 -25 47 -2 8 21 -24 43 -40
27z"/>
<path d="M3645 4690 c-7 -23 1 -40 20 -40 21 0 27 17 15 40 -14 25 -27 26 -35
0z"/>
<path d="M1324 4685 c-6 -15 12 -45 27 -45 15 0 22 42 8 51 -20 13 -29 11 -35
-6z"/>
<path d="M1210 4624 c-11 -12 -10 -18 3 -32 16 -15 18 -15 34 0 13 14 14 20 3
32 -7 9 -16 16 -20 16 -4 0 -13 -7 -20 -16z"/>
<path d="M3757 4616 c-3 -8 1 -22 8 -33 13 -17 14 -17 29 2 10 14 11 24 4 32
-14 17 -35 16 -41 -1z"/>
<path d="M1099 4544 c-10 -13 -10 -17 2 -25 8 -5 16 -9 19 -9 3 0 11 4 19 9
12 8 12 12 2 25 -8 9 -17 16 -21 16 -4 0 -13 -7 -21 -16z"/>
<path d="M3867 4546 c-3 -8 1 -22 9 -33 14 -17 14 -17 29 1 11 14 12 23 4 33
-15 17 -35 17 -42 -1z"/>
<path d="M990 4465 c-10 -12 -10 -18 0 -30 12 -14 15 -14 31 1 14 13 16 20 8
31 -15 17 -24 17 -39 -2z"/>
<path d="M3974 4469 c-3 -6 0 -18 9 -26 12 -12 18 -13 35 -2 16 10 18 16 10
26 -13 16 -44 17 -54 2z"/>
<path d="M884 4385 c-8 -20 3 -48 18 -43 6 2 16 12 22 21 8 13 7 20 -4 27 -21
14 -30 12 -36 -5z"/>
<path d="M4087 4393 c-24 -23 12 -55 38 -33 12 10 13 16 4 26 -12 15 -31 18
-42 7z"/>
<path d="M1550 4365 c0 -9 9 -15 25 -15 14 0 25 -3 25 -7 0 -19 -83 -289 -92
-300 -6 -7 -19 -13 -29 -13 -11 0 -19 -7 -19 -15 0 -13 12 -15 72 -13 46 2 73
7 76 16 2 7 -5 12 -17 12 -12 0 -24 7 -28 16 -5 14 41 211 57 243 10 18 15 -8
31 -152 7 -60 19 -116 25 -125 18 -25 44 -6 74 54 83 163 122 236 125 233 3
-4 -11 -162 -21 -222 -4 -28 -12 -41 -30 -47 -13 -5 -24 -14 -24 -20 0 -16
162 -9 168 8 2 7 -6 12 -22 12 -13 0 -27 3 -29 8 -3 4 2 74 11 155 14 138 17
149 38 157 47 18 36 30 -28 30 l-63 0 -74 -147 c-81 -161 -83 -162 -95 -43 -4
36 -12 93 -18 128 l-10 62 -64 0 c-50 0 -64 -3 -64 -15z"/>
<path d="M785 4300 c-9 -15 5 -52 18 -47 6 2 15 11 21 20 8 13 7 20 -4 27 -19
12 -27 12 -35 0z"/>
<path d="M4187 4303 c-24 -23 12 -55 38 -33 12 10 13 16 4 26 -12 15 -31 18
-42 7z"/>
<path d="M2144 4269 c-44 -13 -100 -73 -114 -124 -21 -73 -1 -129 53 -148 22
-8 72 16 86 40 8 16 11 15 20 -10 13 -34 29 -41 64 -28 32 12 38 42 7 34 -26
-7 -25 0 5 116 13 52 22 98 19 103 -6 9 -72 28 -94 27 -8 0 -29 -5 -46 -10z
m80 -54 c-3 -57 -25 -114 -58 -150 -37 -39 -48 -42 -70 -19 -31 31 -12 130 35
176 22 23 36 29 61 26 30 -3 33 -6 32 -33z"/>
<path d="M2440 4267 c-41 -14 -66 -53 -57 -88 4 -14 27 -37 54 -54 65 -42 75
-61 44 -86 -34 -28 -85 -22 -89 9 -5 32 -36 25 -40 -10 -4 -31 16 -40 91 -40
56 0 96 23 112 66 13 36 1 53 -70 96 -66 40 -73 51 -50 74 25 24 70 20 93 -8
14 -19 22 -22 31 -13 13 13 15 44 3 51 -21 13 -90 15 -122 3z"/>
<path d="M2710 4269 c-40 -16 -60 -40 -60 -70 0 -26 32 -69 51 -69 16 0 69
-53 69 -69 0 -43 -102 -56 -108 -13 -2 14 -10 22 -23 22 -14 0 -19 -7 -19 -29
0 -34 17 -42 84 -43 52 -1 96 19 115 54 22 38 4 69 -64 107 -49 28 -56 35 -53
59 3 25 7 27 48 27 39 0 45 -3 48 -22 5 -33 42 -31 42 1 0 13 -6 28 -13 34
-20 17 -89 23 -117 11z"/>
<path d="M3005 4261 c-75 -34 -125 -122 -111 -196 13 -70 83 -90 136 -40 29
28 30 28 30 7 0 -34 42 -50 75 -28 32 21 32 38 0 30 -14 -3 -25 -2 -25 2 0 5
11 51 25 103 14 52 24 100 21 107 -5 13 -67 34 -96 34 -8 0 -33 -9 -55 -19z
m91 -26 c9 -22 -15 -111 -40 -147 -29 -44 -73 -60 -92 -33 -42 57 25 195 96
195 18 0 33 -6 36 -15z"/>
<path d="M3325 4266 c-102 -46 -149 -200 -77 -256 32 -26 65 -20 105 18 20 19
27 22 27 10 0 -29 -30 -103 -47 -115 -28 -22 -71 -16 -89 12 -21 32 -32 32
-40 -1 -9 -35 7 -44 79 -44 69 0 110 19 126 57 14 36 61 249 61 280 0 18 -9
28 -35 39 -42 17 -71 17 -110 0z m89 -31 c8 -22 -12 -106 -34 -142 -22 -37
-64 -68 -80 -58 -5 3 -17 19 -25 35 -14 27 -13 33 14 93 16 36 38 70 48 76 27
16 70 13 77 -4z"/>
<path d="M3647 4266 c-76 -28 -118 -87 -119 -168 0 -68 31 -101 94 -101 52 0
118 26 118 47 0 13 -3 13 -27 0 -16 -7 -47 -14 -69 -14 -37 0 -43 4 -54 29 -6
17 -9 34 -6 40 4 6 38 20 77 31 77 23 109 48 109 83 0 54 -55 78 -123 53z m67
-32 c12 -32 -17 -67 -71 -85 -57 -19 -60 -16 -39 35 23 56 95 89 110 50z"/>
<path d="M697 4213 c-11 -10 -8 -41 4 -48 5 -4 19 1 30 10 18 17 18 19 1 31
-20 15 -26 17 -35 7z"/>
<path d="M4273 4205 c-17 -13 -17 -14 2 -28 23 -18 45 -11 45 13 0 24 -24 32
-47 15z"/>
<path d="M600 4104 c-11 -12 -10 -18 3 -31 15 -15 18 -15 37 2 20 18 20 20 4
32 -23 17 -29 16 -44 -3z"/>
<path d="M4366 4104 c-4 -10 -2 -22 3 -27 14 -14 43 0 39 20 -4 24 -34 28 -42
7z"/>
<path d="M514 3995 c-13 -32 23 -48 47 -19 10 13 10 17 -2 25 -21 13 -39 11
-45 -6z"/>
<path d="M4451 3997 c-9 -11 -8 -17 3 -26 18 -15 48 -3 44 18 -4 21 -32 26
-47 8z"/>
<path d="M434 3889 c-3 -6 1 -18 10 -27 14 -14 17 -14 36 3 16 14 17 20 8 27
-18 11 -46 10 -54 -3z"/>
<path d="M4525 3890 c-7 -11 12 -50 24 -50 10 0 21 24 21 46 0 16 -36 19 -45
4z"/>
<path d="M4605 3790 c-17 -19 -18 -22 -2 -37 15 -15 19 -15 31 -3 12 12 12 19
2 38 l-12 23 -19 -21z"/>
<path d="M363 3774 c-10 -26 13 -40 43 -24 24 13 24 15 8 27 -24 17 -43 16
-51 -3z"/>
<path d="M306 3671 c-20 -22 -14 -41 14 -41 27 0 34 17 17 40 -14 20 -14 20
-31 1z"/>
<path d="M4670 3665 c-15 -18 -5 -35 20 -35 10 0 22 5 25 10 7 11 -12 40 -25
40 -4 0 -13 -7 -20 -15z"/>
<path d="M2459 3660 c-9 -5 -27 -35 -39 -65 -12 -31 -24 -54 -27 -52 -2 3 -9
27 -16 53 -11 47 -14 49 -49 52 -32 3 -39 -1 -52 -26 -9 -17 -27 -38 -41 -48
-26 -19 -125 -228 -140 -293 -9 -42 -18 -32 -47 49 -26 72 -40 79 -72 37 -18
-24 -21 -47 -27 -185 -4 -98 -14 -195 -27 -257 -11 -55 -26 -156 -32 -224 -5
-68 -16 -131 -22 -139 -20 -23 -227 -156 -313 -201 -44 -22 -129 -54 -188 -71
-200 -56 -525 -218 -652 -325 -44 -37 -43 -58 2 -27 30 20 265 148 371 201 66
33 145 64 342 133 141 50 190 74 303 150 93 63 180 108 209 108 9 0 38 -17 65
-38 71 -57 82 -62 62 -32 -9 14 -38 39 -65 57 -95 61 -87 37 -69 218 9 88 20
189 25 225 5 36 10 116 10 179 0 96 3 116 18 127 10 8 12 13 5 14 -17 0 -17
41 0 64 12 16 14 16 30 -2 12 -13 24 -64 39 -166 12 -80 25 -146 29 -146 4 0
15 44 24 98 9 53 23 118 31 144 8 26 14 60 14 76 0 37 19 94 35 107 7 6 15 24
17 40 1 16 9 31 17 33 12 4 13 -33 9 -237 -3 -132 -2 -241 2 -241 21 0 30 57
24 155 l-7 104 34 4 34 4 -34 1 c-26 2 -32 5 -27 18 3 9 6 56 6 105 l0 89 30
-6 c18 -4 36 -1 45 6 13 11 15 -13 15 -211 0 -123 3 -234 6 -246 14 -50 22
-17 29 113 l7 135 32 -5 31 -5 -32 11 c-45 15 -42 30 5 24 l37 -6 -32 10 c-32
10 -33 13 -33 63 0 29 3 69 6 89 6 35 8 37 35 31 35 -7 38 4 5 17 -18 7 -23
14 -19 30 4 13 11 19 20 16 8 -3 18 -6 23 -6 5 0 11 -10 13 -22 4 -20 4 -19 6
5 1 20 -4 27 -17 27 -24 0 -32 8 -25 26 9 24 43 16 53 -12 12 -31 12 -273 0
-534 -8 -162 -14 -216 -39 -320 -34 -139 -34 -139 -22 -159 8 -12 22 -3 68 40
33 30 75 62 94 71 68 33 175 76 205 82 63 14 105 -15 90 -62 -6 -18 -59 -54
-73 -50 -19 7 -104 -78 -151 -150 -99 -151 -162 -201 -277 -216 -110 -15 -151
-34 -272 -125 -152 -114 -238 -192 -409 -370 -77 -79 -222 -223 -324 -319
-102 -96 -187 -179 -189 -184 -11 -30 54 26 344 296 71 67 166 155 210 196
206 192 386 350 444 391 35 24 72 50 82 57 10 8 60 23 111 34 51 11 114 31
140 45 55 30 114 97 151 169 40 78 69 107 153 150 97 49 115 90 66 147 -32 36
-192 8 -322 -58 -40 -20 -74 -34 -77 -31 -3 3 0 51 6 108 6 57 16 254 21 440
10 293 9 341 -4 372 -16 37 -42 46 -77 26z m-123 -71 c-3 -17 -6 -38 -6 -46 0
-10 -6 -12 -22 -7 -32 9 -31 8 -18 48 8 26 17 36 32 36 18 0 20 -4 14 -31z"/>
<path d="M245 3550 c-17 -19 -17 -22 -2 -37 13 -13 19 -14 31 -3 19 15 20 21
3 44 -12 16 -14 16 -32 -4z"/>
<path d="M4730 3544 c-11 -12 -11 -18 1 -29 13 -13 18 -13 37 1 22 15 22 17 5
30 -23 17 -28 17 -43 -2z"/>
<path d="M187 3416 c-3 -8 1 -20 9 -27 12 -10 18 -9 31 3 8 9 12 21 9 27 -10
16 -43 14 -49 -3z"/>
<path d="M4781 3417 c-8 -10 -7 -19 4 -33 14 -19 14 -19 29 1 22 31 -8 61 -33
32z"/>
<path d="M144 3295 c-12 -31 23 -48 45 -21 10 12 8 17 -8 25 -26 14 -31 14
-37 -4z"/>
<path d="M4830 3295 c-22 -26 7 -46 39 -26 12 8 12 12 2 25 -17 20 -25 20 -41
1z"/>
<path d="M105 3170 c-8 -24 1 -40 21 -40 20 0 29 27 14 45 -17 20 -27 19 -35
-5z"/>
<path d="M4865 3170 c-8 -24 1 -40 21 -40 20 0 29 27 14 45 -17 20 -27 19 -35
-5z"/>
<path d="M3862 3113 c-7 -2 -106 -113 -221 -246 -201 -235 -290 -327 -311
-327 -6 0 -10 36 -10 93 0 76 -4 98 -21 127 -26 43 -36 50 -71 50 -33 0 -48
-24 -48 -77 0 -67 -28 -154 -93 -282 -59 -120 -61 -128 -61 -200 0 -51 7 -100
23 -151 32 -103 25 -199 -39 -512 -43 -214 -140 -745 -140 -772 0 -34 16 30
60 240 28 131 65 302 81 379 37 171 99 537 99 580 0 18 -9 67 -20 110 -39 151
-16 271 76 405 19 27 31 56 28 64 -3 7 0 17 6 21 6 4 8 16 5 27 -4 12 0 27 11
39 10 11 12 19 6 19 -7 0 -12 13 -12 29 0 65 27 80 57 34 15 -23 18 -50 18
-168 0 -98 4 -149 14 -170 l14 -30 7 32 c13 60 72 135 240 308 64 66 144 157
178 202 78 103 130 143 117 90 -4 -16 1 -29 19 -46 l25 -24 -31 -36 c-18 -20
-37 -35 -44 -33 -7 1 -10 -5 -8 -15 3 -10 -2 -27 -11 -38 -15 -20 -15 -20 -35
4 -22 25 -26 21 -10 -10 6 -10 17 -19 25 -19 33 0 184 214 185 262 0 34 -65
59 -108 41z m59 -50 c3 -58 -15 -93 -35 -73 -18 18 -15 89 3 93 29 8 31 7 32
-20z"/>
<path d="M80 3045 c-15 -18 -7 -45 13 -45 8 0 20 6 26 13 8 11 6 18 -8 31 -16
15 -20 15 -31 1z"/>
<path d="M4901 3042 c-8 -15 -7 -23 4 -32 16 -13 35 -6 35 14 0 8 -6 19 -14
25 -12 10 -17 8 -25 -7z"/>
<path d="M3993 2931 c-92 -77 -115 -109 -34 -47 77 59 95 66 105 41 4 -12 0
-14 -18 -9 -14 3 -27 -1 -35 -10 -12 -14 -10 -15 18 -10 17 4 31 3 31 -1 0
-17 -72 -115 -92 -126 -18 -10 -25 -8 -40 11 -10 13 -21 21 -23 18 -3 -2 6
-15 20 -28 26 -25 33 -50 13 -50 -6 0 -22 10 -35 22 -13 12 -23 17 -23 11 0
-5 9 -18 20 -28 25 -23 25 -37 -1 -61 -11 -10 -40 -46 -65 -80 -43 -61 -55
-94 -33 -94 6 0 67 55 136 121 118 114 127 121 140 103 24 -33 27 -65 8 -101
l-18 -33 -22 20 c-12 11 -25 20 -29 20 -4 0 4 -10 18 -22 25 -23 25 -23 8 -47
l-19 -23 -21 33 c-12 19 -22 29 -22 23 0 -6 9 -23 20 -37 l21 -26 -61 -84
c-54 -77 -70 -107 -54 -107 7 0 90 69 158 131 92 84 154 117 171 90 6 -11 -25
-81 -37 -81 -14 0 -9 33 9 52 9 10 13 21 9 26 -4 4 -17 -4 -27 -17 -16 -19
-18 -33 -13 -67 6 -41 5 -43 -34 -69 -22 -15 -45 -39 -52 -54 -6 -15 -25 -35
-41 -45 -17 -10 -47 -32 -67 -50 -19 -17 -75 -58 -123 -91 -153 -104 -280
-197 -275 -202 17 -17 341 200 486 325 93 80 199 198 207 230 7 28 -21 87 -44
96 -15 6 -47 -18 -177 -131 -34 -29 -67 -53 -74 -53 -7 0 25 55 71 123 46 67
94 141 106 164 53 105 -8 149 -85 62 -79 -90 -194 -189 -194 -167 0 7 43 65
96 128 104 125 124 156 124 193 0 21 -27 57 -43 57 -3 0 -32 -22 -64 -49z
m157 -176 c0 -27 -19 -75 -30 -75 -4 0 -13 7 -20 15 -10 12 -10 18 0 30 6 8 9
19 6 24 -6 9 19 30 37 31 4 0 7 -11 7 -25z"/>
<path d="M51 2916 c-16 -19 -7 -46 14 -46 22 0 30 29 13 46 -13 13 -16 13 -27
0z"/>
<path d="M4923 2909 c-15 -15 -5 -39 17 -39 26 0 43 23 28 38 -15 15 -31 15
-45 1z"/>
<path d="M3790 2750 c-30 -27 -57 -47 -59 -45 -2 2 6 16 16 32 37 53 34 58 -7
13 -45 -48 -85 -116 -72 -123 8 -6 189 160 182 166 -3 3 -30 -16 -60 -43z"/>
<path d="M31 2776 c-10 -11 -10 -20 0 -37 11 -22 12 -22 26 -3 25 34 0 72 -26
40z"/>
<path d="M4946 2783 c-9 -9 -7 -36 4 -53 8 -13 11 -12 24 5 9 11 16 23 16 27
0 11 -36 28 -44 21z"/>
<path d="M20 2650 c-13 -25 3 -52 26 -43 18 7 18 37 0 52 -12 10 -17 8 -26 -9z"/>
<path d="M4957 2653 c-11 -10 -8 -41 4 -49 6 -3 18 1 27 9 13 13 13 19 2 31
-14 17 -23 20 -33 9z"/>
<path d="M13 2513 c-20 -8 -15 -31 8 -38 25 -8 44 7 36 29 -6 16 -21 19 -44 9z"/>
<path d="M4954 2505 c-4 -9 -2 -21 4 -27 15 -15 44 -1 40 19 -4 23 -36 29 -44
8z"/>
<path d="M21 2386 c-16 -19 -7 -46 14 -46 22 0 30 29 13 46 -13 13 -16 13 -27
0z"/>
<path d="M4955 2379 c-8 -12 2 -59 13 -59 4 0 13 9 20 21 10 16 10 24 1 35
-14 17 -25 18 -34 3z"/>
<path d="M24 2239 c-3 -6 0 -17 8 -25 12 -12 17 -12 32 -1 11 8 16 19 12 25
-9 15 -43 15 -52 1z"/>
<path d="M4940 2231 c0 -27 15 -34 40 -21 17 9 19 14 9 26 -17 21 -49 18 -49
-5z"/>
<path d="M51 2116 c-16 -19 -7 -46 14 -46 22 0 30 29 13 46 -13 13 -16 13 -27
0z"/>
<path d="M4927 2113 c-24 -23 12 -55 38 -33 12 10 13 16 4 26 -12 15 -31 18
-42 7z"/>
<path d="M71 1981 c-8 -14 -7 -22 4 -31 22 -19 48 5 34 31 -5 10 -14 19 -19
19 -5 0 -14 -9 -19 -19z"/>
<path d="M4891 1977 c-9 -11 -8 -17 4 -27 19 -16 47 -5 43 17 -4 23 -31 28
-47 10z"/>
<path d="M3330 1942 c0 -5 37 -26 83 -47 l82 -38 -65 -12 c-62 -12 -73 -19
-22 -15 34 3 82 -20 82 -39 0 -132 84 -1059 97 -1071 3 -3 3 27 -1 65 -3 39
-13 144 -22 235 -10 101 -17 306 -20 530 -2 201 -4 371 -4 378 0 6 -5 12 -10
12 -7 0 -7 -7 0 -21 7 -11 10 -22 8 -24 -2 -2 -43 10 -93 26 -94 31 -115 34
-115 21z"/>
<path d="M102 1848 c-13 -13 2 -38 23 -38 21 0 36 25 23 38 -7 7 -17 12 -23
12 -6 0 -16 -5 -23 -12z"/>
<path d="M4863 1844 c-3 -8 1 -22 8 -29 12 -12 17 -12 33 0 16 12 17 17 6 30
-16 20 -39 19 -47 -1z"/>
<path d="M137 1716 c-9 -23 18 -39 43 -26 17 9 19 14 9 26 -15 18 -45 18 -52
0z"/>
<path d="M4823 1714 c-3 -8 1 -22 9 -30 13 -13 16 -13 27 0 7 9 11 23 7 31 -7
20 -35 19 -43 -1z"/>
<path d="M193 1599 c-16 -16 -5 -39 17 -39 25 0 35 18 20 35 -15 18 -22 19
-37 4z"/>
<path d="M4780 1594 c-11 -12 -10 -18 3 -31 22 -23 52 0 36 28 -12 23 -22 24
-39 3z"/>
<path d="M241 1472 c-6 -12 -5 -23 6 -37 14 -20 14 -20 29 -1 19 26 18 33 -6
46 -15 8 -21 7 -29 -8z"/>
<path d="M4729 1474 c-10 -12 -9 -18 4 -31 13 -13 19 -14 31 -3 21 17 20 27
-3 39 -14 8 -22 7 -32 -5z"/>
<path d="M4670 1360 c-13 -25 3 -52 26 -43 18 7 18 37 0 52 -12 10 -17 8 -26
-9z"/>
<path d="M296 1355 c-20 -15 -20 -15 0 -30 24 -18 29 -18 43 -1 9 11 8 18 -4
30 -19 19 -15 19 -39 1z"/>
<path d="M4603 1241 c-9 -14 -9 -21 0 -30 26 -26 53 -2 35 32 -11 22 -20 22
-35 -2z"/>
<path d="M364 1236 c-3 -8 0 -25 7 -37 11 -22 12 -22 25 -4 18 25 18 41 -2 49
-22 8 -24 8 -30 -8z"/>
<path d="M446 1127 c-16 -12 -17 -16 -5 -35 18 -29 27 -28 35 4 8 33 -6 48
-30 31z"/>
<path d="M4531 1126 c-9 -11 -9 -19 1 -35 17 -27 26 -26 34 3 10 41 -12 60
-35 32z"/>
<path d="M521 1021 c-19 -12 -6 -41 18 -41 26 0 36 17 21 35 -14 17 -20 18
-39 6z"/>
<path d="M4457 1023 c-4 -3 -7 -15 -7 -25 0 -23 38 -25 47 -2 8 21 -24 43 -40
27z"/>
<path d="M4372 918 c-25 -25 -9 -54 23 -42 9 4 15 15 13 27 -4 25 -19 32 -36
15z"/>
<path d="M597 908 c-2 -8 2 -23 10 -33 14 -20 14 -20 29 0 8 10 13 24 11 30
-5 15 -44 18 -50 3z"/>
<path d="M702 818 c-28 -28 -4 -58 28 -35 19 13 19 14 2 30 -14 13 -21 14 -30
5z"/>
<path d="M4280 815 c-19 -22 5 -48 31 -34 10 5 19 14 19 19 0 5 -9 14 -19 19
-14 8 -22 7 -31 -4z"/>
<path d="M786 714 c-12 -31 21 -47 43 -21 8 10 7 17 -1 25 -17 17 -35 15 -42
-4z"/>
<path d="M4187 723 c-24 -23 12 -55 38 -33 12 10 13 16 4 26 -12 15 -31 18
-42 7z"/>
<path d="M4087 635 c-7 -16 1 -45 12 -45 3 0 13 5 21 10 11 7 12 14 4 27 -14
23 -30 27 -37 8z"/>
<path d="M887 633 c-24 -23 12 -55 38 -33 12 10 13 16 4 26 -12 15 -31 18 -42
7z"/>
<path d="M3983 549 c-6 -6 -9 -18 -6 -25 7 -18 37 -18 52 0 10 12 8 17 -8 25
-24 14 -24 14 -38 0z"/>
<path d="M987 544 c-11 -11 5 -34 23 -34 26 0 45 26 24 34 -20 8 -39 8 -47 0z"/>
<path d="M1100 465 c-21 -25 2 -42 36 -26 26 11 26 12 8 26 -24 18 -29 18 -44
0z"/>
<path d="M3871 466 c-14 -17 11 -41 34 -32 20 7 19 32 -1 40 -21 8 -20 8 -33
-8z"/>
<path d="M1213 399 c-27 -27 13 -51 47 -29 13 8 12 11 -5 24 -24 19 -28 19
-42 5z"/>
<path d="M3760 395 c-16 -19 8 -59 27 -43 17 14 17 45 -1 51 -8 3 -20 0 -26
-8z"/>
<path d="M1325 330 c-8 -24 1 -40 21 -40 20 0 29 27 14 45 -17 20 -27 19 -35
-5z"/>
<path d="M3647 333 c-24 -23 12 -55 38 -33 12 10 13 16 4 26 -12 15 -31 18
-42 7z"/>
<path d="M1444 265 c-13 -32 23 -48 47 -19 10 13 10 17 -2 25 -21 13 -39 11
-45 -6z"/>
<path d="M3521 267 c-8 -10 -7 -19 4 -33 15 -19 15 -19 30 0 11 14 12 23 4 33
-6 7 -15 13 -19 13 -4 0 -13 -6 -19 -13z"/>
<path d="M1571 212 c-8 -15 -7 -23 5 -33 18 -15 38 0 32 27 -5 25 -25 28 -37
6z"/>
<path d="M3399 214 c-10 -12 -9 -18 3 -31 19 -18 38 -10 38 17 0 24 -25 33
-41 14z"/>
<path d="M1695 170 c-8 -12 3 -50 14 -50 16 0 31 28 25 44 -7 18 -29 21 -39 6z"/>
<path d="M3274 165 c-13 -32 23 -48 47 -19 10 13 10 17 -2 25 -21 13 -39 11
-45 -6z"/>
<path d="M1827 132 c-13 -14 -14 -21 -5 -30 16 -16 33 -15 47 1 8 11 7 18 -7
31 -18 15 -20 15 -35 -2z"/>
<path d="M3150 135 c-9 -11 -11 -22 -4 -32 13 -21 25 -21 38 -1 8 14 7 21 -5
33 -14 15 -17 15 -29 0z"/>
<path d="M1940 95 c-10 -12 -7 -17 15 -27 21 -10 28 -9 35 2 20 33 -24 56 -50
25z"/>
<path d="M3017 103 c-24 -23 12 -55 38 -33 12 10 13 16 4 26 -12 15 -31 18
-42 7z"/>
<path d="M2093 83 c-17 -6 -17 -39 0 -46 13 -5 47 14 47 26 0 10 -34 25 -47
20z"/>
<path d="M2890 75 c-19 -22 5 -48 31 -34 10 5 19 14 19 19 0 5 -9 14 -19 19
-14 8 -22 7 -31 -4z"/>
<path d="M2221 61 c-16 -10 -8 -41 11 -41 7 0 19 4 27 9 12 8 12 12 2 25 -15
18 -21 19 -40 7z"/>
<path d="M2620 55 c-15 -18 -6 -45 13 -45 25 0 37 23 23 43 -16 21 -20 21 -36
2z"/>
<path d="M2752 58 c-8 -8 -9 -15 -1 -25 15 -17 34 -17 48 1 10 12 8 17 -8 25
-24 14 -24 14 -39 -1z"/>
<path d="M2353 49 c-15 -15 -5 -39 16 -39 29 0 43 21 23 36 -21 17 -25 17 -39
3z"/>
<path d="M2477 44 c-9 -10 12 -44 27 -44 14 0 28 35 18 44 -7 8 -37 7 -45 0z"/>
</g>
</svg>
