<?xml version="1.0" standalone="no"?>
<!DOCTYPE svg PUBLIC "-//W3C//DTD SVG 20010904//EN"
 "http://www.w3.org/TR/2001/REC-SVG-20010904/DTD/svg10.dtd">
<svg version="1.0" xmlns="http://www.w3.org/2000/svg"
 width="500.000000pt" height="499.000000pt" viewBox="0 0 500.000000 499.000000"
 preserveAspectRatio="xMidYMid meet">
<metadata>
Created by potrace 1.15, written by Peter Selinger 2001-2017
</metadata>
<g transform="translate(0.000000,499.000000) scale(0.100000,-0.100000)"
fill="#000000" stroke="none">
<path d="M2345 4969 c-8 -12 2 -59 13 -59 4 0 13 9 20 21 10 16 10 24 1 35
-14 17 -25 18 -34 3z"/>
<path d="M2477 4973 c-24 -23 12 -55 38 -33 12 10 13 16 4 26 -12 15 -31 18
-42 7z"/>
<path d="M2611 4966 c-18 -22 15 -51 38 -34 9 7 18 14 20 15 5 4 -31 32 -40
33 -4 0 -12 -6 -18 -14z"/>
<path d="M2217 4963 c-4 -3 -7 -15 -7 -25 0 -20 25 -24 50 -8 13 8 12 11 -5
24 -23 17 -29 19 -38 9z"/>
<path d="M2749 4954 c-16 -20 2 -38 30 -29 26 8 27 17 2 32 -16 10 -22 9 -32
-3z"/>
<path d="M2080 4935 c-22 -26 7 -46 39 -26 12 8 12 12 2 25 -17 20 -25 20 -41
1z"/>
<path d="M2874 4935 c-12 -29 15 -45 45 -26 12 8 12 12 2 25 -17 20 -40 21
-47 1z"/>
<path d="M3012 4918 c-16 -16 -15 -35 1 -41 20 -8 39 8 35 28 -4 23 -20 29
-36 13z"/>
<path d="M1943 4904 c-3 -8 1 -22 9 -30 13 -13 16 -13 27 0 7 9 11 23 7 31 -7
20 -35 19 -43 -1z"/>
<path d="M1820 4875 c-10 -12 -10 -18 0 -31 12 -13 15 -13 28 0 15 15 10 46
-6 46 -5 0 -15 -7 -22 -15z"/>
<path d="M3134 4875 c-12 -29 15 -45 45 -26 12 8 12 12 2 25 -17 20 -40 21
-47 1z"/>
<path d="M1685 4840 c-6 -10 11 -50 22 -50 15 0 31 35 21 47 -12 15 -34 17
-43 3z"/>
<path d="M3267 4843 c-24 -23 12 -55 38 -33 12 10 13 16 4 26 -12 15 -31 18
-42 7z"/>
<path d="M1570 4805 c-9 -11 -11 -22 -4 -32 13 -21 25 -21 38 -1 8 14 7 21 -5
33 -14 15 -17 15 -29 0z"/>
<path d="M3385 4793 c-20 -14 -20 -14 0 -29 24 -18 39 -13 43 13 4 26 -18 35
-43 16z"/>
<path d="M1440 4744 c-11 -12 -10 -18 3 -32 16 -15 18 -15 34 0 13 14 14 20 3
32 -7 9 -16 16 -20 16 -4 0 -13 -7 -20 -16z"/>
<path d="M3507 4736 c-3 -8 0 -19 7 -25 18 -15 48 -3 44 18 -4 21 -44 27 -51
7z"/>
<path d="M1321 4676 c-18 -22 11 -41 38 -24 25 15 26 24 5 32 -23 9 -30 8 -43
-8z"/>
<path d="M2345 4675 c-476 -77 -881 -368 -1090 -783 -276 -548 -178 -1231 240
-1671 213 -223 475 -365 790 -427 126 -25 415 -25 540 -1 469 92 841 371 1041
782 112 230 164 479 150 720 -22 387 -159 699 -420 961 -210 209 -453 340
-755 405 -127 27 -370 34 -496 14z m435 -219 c132 -31 231 -67 340 -121 130
-66 296 -183 288 -204 -3 -8 -109 -102 -653 -581 -148 -131 -477 -420 -730
-644 -253 -223 -463 -406 -467 -406 -27 0 -155 257 -197 395 -72 236 -77 384
-22 592 146 547 483 861 1056 983 115 25 241 20 385 -14z m827 -563 c91 -150
159 -323 189 -480 52 -279 -29 -605 -224 -903 -167 -255 -486 -450 -849 -520
-57 -11 -133 -20 -167 -20 -75 0 -234 30 -349 66 -151 47 -364 163 -467 253
l-35 31 50 47 c28 27 125 113 216 193 91 80 295 260 454 400 159 140 370 326
470 414 99 87 211 186 249 220 331 294 412 365 416 365 3 1 24 -29 47 -66z"/>
<path d="M2033 4115 c-48 -20 -69 -64 -82 -168 -7 -55 -20 -104 -32 -123 -10
-17 -19 -34 -19 -36 0 -3 20 -13 45 -23 42 -16 95 -71 95 -100 0 -5 -59 -50
-132 -100 -72 -49 -139 -103 -150 -120 -15 -26 -18 -52 -18 -195 1 -281 25
-429 78 -472 14 -11 15 -10 7 7 -57 134 -59 150 -63 390 -3 207 -1 233 15 262
25 45 90 93 124 93 29 0 38 -13 19 -25 -22 -13 -7 -26 78 -69 142 -71 134 -59
140 -224 3 -78 9 -142 13 -142 5 0 9 65 9 143 0 166 -9 149 117 222 74 41 82
49 72 66 -13 26 -4 39 29 39 41 0 69 -25 104 -93 26 -50 33 -58 36 -39 6 40
-35 87 -158 177 -66 49 -120 92 -120 95 0 3 27 36 61 73 l61 67 -25 30 c-18
21 -27 47 -32 87 -13 119 -23 133 -119 168 -78 28 -107 30 -153 10z m201 -200
c33 -25 36 -31 36 -79 0 -64 -26 -122 -75 -169 -51 -49 -74 -47 -123 8 -50 57
-74 107 -80 168 l-5 47 59 0 c34 0 54 4 46 8 -9 6 -2 21 29 56 l42 47 17 -29
c10 -16 34 -42 54 -57z m27 -280 c18 -10 27 -20 23 -28 -39 -66 -137 -217
-140 -217 -9 0 -134 200 -134 215 0 8 11 20 24 26 20 10 30 8 54 -10 39 -27
58 -27 94 4 35 29 39 30 79 10z m-221 -130 c29 -47 50 -88 48 -90 -2 -3 -37
11 -76 31 -67 34 -86 54 -62 69 15 9 2 25 -21 25 -10 0 -19 4 -19 9 0 10 62
50 71 45 3 -2 30 -42 59 -89z m308 76 c28 -24 28 -27 -4 -35 -17 -5 -24 -12
-20 -21 3 -8 8 -21 11 -27 4 -12 -141 -106 -149 -97 -6 7 119 199 129 199 5
-1 20 -9 33 -19z"/>
<path d="M2155 3900 c-4 -6 8 -10 29 -10 20 0 36 5 36 10 0 6 -13 10 -29 10
-17 0 -33 -4 -36 -10z"/>
<path d="M2171 3866 c-13 -16 -3 -26 22 -22 27 4 30 14 9 25 -15 8 -23 7 -31
-3z"/>
<path d="M2025 3859 c-11 -16 1 -22 30 -15 14 4 23 11 20 16 -8 13 -42 13 -50
-1z"/>
<path d="M2113 3768 c16 -10 44 -10 51 0 2 4 -11 8 -29 8 -21 0 -30 -3 -22 -8z"/>
<path d="M2086 3716 c8 -20 50 -29 74 -16 34 18 22 30 -30 30 -38 0 -48 -3
-44 -14z"/>
<path d="M2910 4091 c-42 -22 -73 -74 -94 -157 -27 -106 -18 -150 39 -204 l26
-25 -7 78 -7 77 62 0 c41 0 60 4 56 10 -4 6 10 31 31 56 l37 46 20 -34 c12
-18 22 -35 24 -37 7 -9 93 84 93 99 0 27 -42 58 -115 85 -83 30 -119 31 -165
6z"/>
<path d="M2917 3826 c-3 -8 2 -16 15 -19 26 -7 48 2 48 19 0 19 -56 19 -63 0z"/>
<path d="M1859 3205 c-2 -55 -2 -131 -1 -170 3 -75 29 -185 43 -185 12 0 11 7
-6 64 -8 27 -15 82 -15 123 l0 73 88 0 c55 0 92 4 100 12 7 7 12 36 12 65 0
66 -11 73 -118 73 -72 0 -80 2 -90 23 -9 18 -11 2 -13 -78z m201 16 c14 -26
13 -74 -2 -89 -7 -7 -44 -12 -95 -12 l-83 0 0 60 0 60 85 0 c73 0 86 -3 95
-19z"/>
<path d="M3180 3564 c0 -18 -13 -40 -94 -168 l-50 -79 -32 36 c-37 43 -43 45
-37 13 4 -21 2 -23 -24 -19 -26 4 -26 3 9 -17 69 -38 72 -47 79 -299 4 -124 8
-288 8 -365 l1 -139 -41 7 c-66 10 -92 30 -142 104 -91 135 -102 164 -105 279
l-4 103 101 0 c101 0 101 0 112 28 12 32 3 112 -14 117 -7 2 -58 5 -115 8
l-104 4 4 -186 c3 -211 6 -221 99 -362 51 -78 55 -103 17 -115 -45 -14 -159
139 -199 266 -13 41 -22 108 -26 182 -4 74 -10 115 -16 111 -14 -9 -2 -206 18
-283 9 -35 26 -82 38 -104 18 -34 22 -64 27 -183 3 -90 9 -146 17 -154 7 -7
76 -29 155 -50 193 -53 281 -51 402 6 91 43 96 51 96 163 0 86 3 104 29 158
48 103 53 144 49 449 -3 305 -4 308 -64 369 -29 28 -177 136 -188 136 -3 0 -6
-7 -6 -16z m100 -66 c0 -3 -14 -9 -31 -13 -23 -5 -29 -11 -24 -23 4 -10 8 -23
9 -31 1 -15 -141 -107 -151 -98 -3 3 25 53 62 111 l67 105 34 -22 c18 -12 34
-25 34 -29z m65 -50 c73 -64 75 -73 75 -385 0 -347 -9 -390 -104 -488 -48 -51
-73 -56 -105 -21 l-23 25 35 49 c95 129 111 196 100 422 l-8 165 -6 -190 c-6
-210 -17 -257 -83 -352 -35 -51 -128 -133 -150 -133 -10 0 -14 73 -20 363 -4
199 -4 370 -1 380 4 9 52 42 106 73 92 51 114 73 89 89 -15 10 -12 23 8 28 38
10 53 6 87 -25z m-404 -309 c17 -17 20 -29 15 -57 -3 -19 -11 -39 -18 -44 -7
-4 -52 -8 -100 -8 l-88 0 0 65 0 65 85 0 c73 0 88 -3 106 -21z m-80 -713 c110
-121 145 -146 164 -116 11 18 25 10 25 -15 0 -29 4 -29 -84 -10 -103 22 -231
73 -248 99 -9 14 -10 142 -1 175 5 21 8 22 18 8 6 -9 63 -72 126 -141z m489
46 c0 -102 -2 -106 -92 -147 -61 -28 -163 -53 -174 -42 -13 13 6 53 33 69 15
9 71 60 123 112 52 53 98 96 103 96 4 0 7 -40 7 -88z m-143 56 c18 -13 33 -26
33 -29 0 -11 -139 -139 -151 -139 -5 0 2 17 18 38 l27 37 -32 -29 c-18 -17
-32 -25 -32 -18 0 6 4 13 9 16 9 6 12 56 3 56 -3 0 -17 -10 -30 -22 -26 -23
-26 -22 -6 26 3 9 -2 16 -13 18 -12 3 0 14 42 36 72 37 89 39 132 10z m-242
-13 c20 -9 24 -14 13 -14 -26 -1 -23 -8 28 -73 47 -60 49 -74 5 -36 -24 21
-24 21 2 -8 39 -44 33 -50 -20 -18 l-48 28 28 -37 c51 -67 13 -39 -51 38 -53
64 -61 78 -52 95 11 20 38 39 55 39 6 0 24 -6 40 -14z m105 -100 c-7 -8 -17
-15 -22 -15 -6 0 -5 7 2 15 7 8 17 15 22 15 6 0 5 -7 -2 -15z"/>
<path d="M2508 2933 c-13 -109 -67 -220 -130 -264 l-28 -20 -30 21 c-16 12
-30 25 -30 30 0 5 23 46 51 90 28 44 49 83 46 86 -3 3 -21 -21 -40 -53 -55
-89 -159 -182 -170 -150 -2 8 -21 -2 -51 -27 -45 -37 -46 -39 -30 -57 9 -11
14 -22 11 -26 -4 -3 -7 -3 -7 1 0 4 -6 1 -14 -6 -12 -11 -9 -19 16 -50 24 -31
27 -39 14 -44 -13 -5 -62 39 -88 80 -4 6 -10 8 -13 4 -10 -10 11 -42 50 -76
28 -25 41 -30 65 -25 23 4 30 2 30 -11 0 -23 -40 -21 -141 9 -90 26 -109 29
-109 17 0 -11 147 -51 215 -58 74 -8 159 7 236 42 80 36 89 51 89 145 0 62 7
98 36 182 28 83 34 118 32 164 l-3 58 -7 -62z m-203 -280 l39 -26 -73 -68
c-58 -55 -75 -66 -86 -56 -9 8 -10 17 -3 30 9 17 7 17 -14 6 l-23 -12 23 25
c27 30 29 48 2 23 -21 -19 -42 -13 -22 7 17 17 15 26 -5 30 -12 3 2 15 42 36
33 17 65 31 70 32 6 0 28 -12 50 -27z m135 -47 c0 -57 -4 -79 -19 -98 -25 -31
-123 -76 -185 -84 -42 -6 -46 -5 -46 15 0 14 21 41 57 74 32 29 85 78 118 109
33 32 63 58 68 58 4 0 7 -33 7 -74z"/>
<path d="M3632 4677 c-7 -8 -6 -18 4 -31 14 -20 14 -20 28 0 14 18 6 44 -14
44 -4 0 -12 -6 -18 -13z"/>
<path d="M1210 4615 c-22 -26 7 -46 39 -26 12 8 12 12 2 25 -17 20 -25 20 -41
1z"/>
<path d="M3753 4623 c-16 -6 -17 -29 -3 -38 13 -8 50 3 50 15 0 13 -32 28 -47
23z"/>
<path d="M1095 4544 c-15 -15 -15 -18 1 -35 16 -18 18 -18 30 -2 8 12 9 23 3
35 -12 22 -14 22 -34 2z"/>
<path d="M3860 4545 c-16 -19 8 -59 27 -43 17 14 17 45 -1 51 -8 3 -20 0 -26
-8z"/>
<path d="M991 4466 c-10 -12 -10 -20 0 -37 11 -22 12 -22 25 -4 17 24 17 30 0
44 -10 9 -16 8 -25 -3z"/>
<path d="M3966 4464 c-11 -30 13 -44 43 -25 12 8 12 12 2 25 -17 20 -37 20
-45 0z"/>
<path d="M876 4375 c-3 -9 0 -18 9 -21 21 -8 47 3 43 19 -7 18 -45 20 -52 2z"/>
<path d="M4065 4380 c-3 -5 0 -19 8 -30 14 -20 14 -20 31 -1 10 11 15 25 11
30 -8 14 -42 14 -50 1z"/>
<path d="M793 4303 c-17 -6 -17 -39 0 -46 12 -4 55 19 46 26 -2 1 -11 8 -19
13 -8 6 -21 9 -27 7z"/>
<path d="M4170 4295 c-20 -24 5 -48 34 -33 31 16 31 17 10 33 -24 18 -29 18
-44 0z"/>
<path d="M687 4196 c-3 -8 1 -22 8 -33 13 -17 14 -17 29 2 10 14 11 24 4 32
-14 17 -35 16 -41 -1z"/>
<path d="M4265 4200 c-8 -13 3 -50 15 -50 13 0 32 39 25 50 -8 13 -32 13 -40
0z"/>
<path d="M600 4105 c-11 -13 -11 -19 3 -33 20 -19 41 -5 35 24 -4 24 -22 28
-38 9z"/>
<path d="M4350 4091 c0 -25 24 -33 47 -16 16 13 16 16 3 25 -25 16 -50 12 -50
-9z"/>
<path d="M522 4001 c-18 -11 -11 -45 9 -49 19 -3 31 21 23 43 -7 17 -13 18
-32 6z"/>
<path d="M4440 3995 c-22 -26 7 -46 39 -26 12 8 12 12 2 25 -17 20 -25 20 -41
1z"/>
<path d="M440 3895 c-15 -18 -6 -45 14 -45 20 0 29 16 21 40 -8 24 -18 25 -35
5z"/>
<path d="M4517 3893 c-24 -23 12 -55 38 -33 12 10 13 16 4 26 -12 15 -31 18
-42 7z"/>
<path d="M371 3786 c-16 -19 -7 -46 14 -46 22 0 30 29 13 46 -13 13 -16 13
-27 0z"/>
<path d="M4587 3783 c-24 -23 12 -55 38 -33 12 10 13 16 4 26 -12 15 -31 18
-42 7z"/>
<path d="M297 3656 c-9 -23 18 -39 43 -26 17 9 19 14 9 26 -15 18 -45 18 -52
0z"/>
<path d="M4651 3656 c-18 -21 11 -41 39 -26 17 9 19 14 9 26 -15 18 -33 18
-48 0z"/>
<path d="M241 3536 c-18 -21 11 -41 39 -26 17 9 19 14 9 26 -15 18 -33 18 -48
0z"/>
<path d="M4713 3534 c-9 -24 11 -38 37 -24 17 9 19 14 9 26 -15 19 -38 18 -46
-2z"/>
<path d="M192 3417 c-16 -19 2 -40 27 -32 25 8 28 30 5 39 -21 8 -20 8 -32 -7z"/>
<path d="M4765 3420 c-8 -12 3 -50 14 -50 15 0 33 30 27 45 -6 17 -32 20 -41
5z"/>
<path d="M147 3303 c-12 -11 -8 -41 6 -46 7 -3 21 1 32 9 18 14 18 14 -1 29
-22 16 -28 18 -37 8z"/>
<path d="M4815 3293 c-14 -14 -15 -18 -2 -30 12 -12 18 -13 36 -1 26 16 26 20
1 35 -15 10 -22 10 -35 -4z"/>
<path d="M101 3166 c-15 -18 11 -40 39 -31 25 8 26 21 1 35 -25 13 -26 13 -40
-4z"/>
<path d="M4851 3166 c-10 -12 -10 -19 2 -36 12 -18 16 -18 26 -6 14 17 11 48
-5 53 -6 2 -17 -3 -23 -11z"/>
<path d="M77 3043 c-12 -11 -7 -41 7 -46 21 -8 49 26 34 41 -13 13 -31 16 -41
5z"/>
<path d="M4893 3043 c-17 -6 -16 -40 1 -46 8 -3 22 3 31 13 16 17 16 19 -2 28
-10 5 -24 7 -30 5z"/>
<path d="M51 2911 c-16 -10 -8 -41 11 -41 7 0 19 4 27 9 12 8 12 12 2 25 -15
18 -21 19 -40 7z"/>
<path d="M4910 2904 c-11 -12 -11 -18 1 -30 13 -12 18 -12 34 0 16 12 17 16 6
30 -17 20 -25 20 -41 0z"/>
<path d="M30 2775 c-19 -22 5 -48 31 -34 10 5 19 14 19 19 0 5 -9 14 -19 19
-14 8 -22 7 -31 -4z"/>
<path d="M4923 2764 c-3 -8 1 -22 9 -30 13 -13 16 -13 27 0 7 9 11 23 7 31 -7
20 -35 19 -43 -1z"/>
<path d="M4935 2639 c-8 -26 6 -42 28 -33 20 7 22 25 5 42 -17 17 -26 15 -33
-9z"/>
<path d="M14 2639 c-3 -6 0 -18 9 -26 12 -12 18 -13 35 -2 16 10 18 16 10 26
-13 16 -44 17 -54 2z"/>
<path d="M18 2513 c-25 -6 -22 -30 3 -38 25 -8 44 7 36 29 -7 16 -9 17 -39 9z"/>
<path d="M4940 2505 c-15 -18 -5 -35 20 -35 10 0 22 5 25 10 7 11 -12 40 -25
40 -4 0 -13 -7 -20 -15z"/>
<path d="M15 2370 c-3 -5 -1 -19 5 -30 9 -17 14 -19 26 -9 21 17 18 49 -5 49
-11 0 -23 -4 -26 -10z"/>
<path d="M4934 2365 c-10 -25 10 -39 36 -25 26 14 22 34 -8 38 -13 2 -25 -3
-28 -13z"/>
<path d="M26 2234 c-4 -10 -2 -22 3 -27 14 -14 43 0 39 20 -4 24 -34 28 -42 7z"/>
<path d="M4925 2240 c-8 -12 3 -50 14 -50 16 0 31 28 25 44 -7 18 -29 21 -39
6z"/>
<path d="M49 2104 c-10 -13 -10 -17 2 -25 8 -5 16 -9 19 -9 3 0 11 4 19 9 12
8 12 12 2 25 -8 9 -17 16 -21 16 -4 0 -13 -7 -21 -16z"/>
<path d="M4904 2105 c-4 -9 0 -24 10 -33 15 -15 18 -15 26 -2 6 8 9 22 7 30
-3 21 -36 25 -43 5z"/>
<path d="M72 1978 c-8 -8 -9 -15 -1 -25 15 -17 34 -17 48 1 10 12 8 17 -8 25
-24 14 -24 14 -39 -1z"/>
<path d="M4881 1981 c-19 -12 -6 -43 16 -39 10 2 18 12 18 22 0 22 -14 29 -34
17z"/>
<path d="M101 1852 c-7 -13 -6 -23 1 -30 28 -28 63 3 38 33 -16 20 -27 19 -39
-3z"/>
<path d="M4850 1850 c-12 -23 -6 -40 15 -40 19 0 27 17 20 40 -8 26 -21 25
-35 0z"/>
<path d="M141 1717 c-8 -10 -7 -19 4 -33 13 -18 15 -18 31 -2 14 14 15 20 4
32 -15 19 -24 20 -39 3z"/>
<path d="M4812 1717 c-7 -8 -7 -18 -2 -27 7 -11 13 -12 35 -2 22 10 25 15 15
27 -15 18 -34 19 -48 2z"/>
<path d="M190 1600 c-14 -26 0 -46 24 -37 20 8 21 31 2 46 -12 10 -17 8 -26
-9z"/>
<path d="M4773 1603 c-17 -6 -16 -38 1 -52 21 -18 44 25 24 44 -7 7 -19 11
-25 8z"/>
<path d="M3005 1503 c-11 -2 -30 -6 -42 -9 -30 -6 -29 -22 0 -26 21 -3 22 -6
14 -45 -8 -41 -9 -41 -42 -36 -103 17 -216 -129 -175 -227 23 -55 79 -66 128
-25 l29 24 12 -25 c10 -22 15 -25 44 -19 39 9 47 13 47 26 0 5 -11 9 -24 9
l-24 0 15 68 c14 68 49 228 58 270 5 22 1 24 -40 15z m-55 -153 c25 -46 -21
-163 -73 -185 -38 -16 -51 -12 -66 21 -9 21 -6 35 18 88 40 88 96 123 121 76z"/>
<path d="M3171 1496 c-13 -16 -5 -46 13 -46 7 0 21 7 32 15 19 15 19 15 0 30
-24 18 -31 19 -45 1z"/>
<path d="M3926 1500 c-31 -5 -49 -30 -22 -30 22 0 20 -27 -9 -166 -14 -65 -25
-133 -25 -151 0 -32 1 -33 44 -33 31 0 46 5 50 16 5 13 1 14 -22 9 l-29 -6 33
158 c19 87 36 168 39 179 6 25 -14 33 -59 24z"/>
<path d="M1108 1493 c-49 -4 -68 -23 -24 -23 14 0 27 -4 30 -8 2 -4 -10 -75
-27 -157 -31 -147 -33 -150 -60 -153 -15 -2 -27 -9 -27 -18 0 -11 16 -14 70
-14 56 0 70 3 70 15 0 9 -9 15 -25 15 -14 0 -25 3 -25 8 0 21 54 262 59 262 3
0 36 -67 72 -148 58 -128 70 -147 92 -150 28 -4 23 -18 67 188 17 79 33 146
35 149 3 2 15 5 28 6 12 1 22 8 22 16 0 10 -15 14 -60 15 -33 1 -66 -1 -72 -3
-22 -8 -14 -23 11 -23 14 0 27 -3 30 -8 5 -9 -47 -252 -54 -252 -3 0 -32 59
-65 131 -55 124 -78 161 -93 157 -4 -1 -28 -3 -54 -5z"/>
<path d="M4722 1488 c-15 -15 -15 -45 -1 -54 6 -3 18 0 26 9 14 13 14 18 1 36
-11 16 -17 18 -26 9z"/>
<path d="M240 1474 c-11 -12 -11 -18 2 -30 13 -13 20 -14 38 -4 21 11 21 12 4
31 -21 23 -28 24 -44 3z"/>
<path d="M1992 1478 c3 -7 15 -12 27 -12 21 1 23 -2 18 -30 -3 -18 -22 -89
-42 -159 -34 -114 -40 -127 -60 -127 -13 0 -25 -7 -29 -15 -4 -13 7 -15 69
-15 60 0 75 3 75 15 0 9 -9 15 -25 15 -14 0 -25 5 -25 11 0 23 63 249 70 249
3 0 12 -48 19 -107 21 -188 20 -184 50 -181 22 3 36 22 100 146 40 78 75 141
77 139 4 -4 -14 -197 -21 -234 -3 -13 -14 -23 -27 -25 -12 -2 -23 -9 -26 -15
-3 -10 18 -13 82 -13 70 0 86 3 86 15 0 9 -9 15 -25 15 -30 0 -31 16 -15 168
15 135 17 141 45 148 47 12 25 25 -37 22 -50 -2 -65 -7 -73 -23 -6 -11 -40
-76 -75 -145 -45 -88 -65 -119 -68 -105 -3 11 -12 76 -21 145 l-16 125 -69 3
c-52 2 -67 0 -64 -10z"/>
<path d="M1568 1370 c-54 -29 -81 -73 -86 -139 -5 -68 19 -107 73 -117 115
-21 215 84 185 195 -20 76 -94 102 -172 61z m110 -29 c25 -31 -6 -167 -46
-197 -46 -35 -98 2 -96 70 1 55 37 134 66 145 28 12 59 4 76 -18z"/>
<path d="M2575 1371 c-48 -22 -69 -44 -90 -94 -40 -96 -1 -167 91 -167 37 0
114 34 114 50 0 13 -1 13 -43 -5 -68 -28 -117 -11 -117 40 0 20 10 26 68 45
95 31 112 44 112 84 0 63 -57 83 -135 47z m79 -24 c17 -27 -12 -68 -59 -84
-22 -7 -45 -12 -52 -11 -20 5 22 84 54 102 32 18 42 16 57 -7z"/>
<path d="M3350 1368 c-123 -64 -126 -258 -2 -258 37 0 96 22 107 40 12 20 -2
22 -34 6 -42 -22 -77 -20 -95 6 -41 59 8 180 82 203 18 5 25 1 40 -24 20 -36
33 -35 43 2 9 32 4 35 -53 43 -33 4 -53 0 -88 -18z"/>
<path d="M3635 1376 c-39 -17 -70 -52 -90 -98 -48 -117 28 -215 113 -143 37
31 40 31 44 3 4 -27 50 -37 74 -17 22 18 17 32 -10 25 l-24 -6 24 93 c13 50
24 102 24 114 0 38 -94 56 -155 29z m79 -12 c52 -20 -25 -214 -85 -214 -63 0
-52 129 17 190 36 32 43 34 68 24z"/>
<path d="M3100 1365 c-10 -13 -9 -15 9 -15 26 0 26 -10 0 -122 -11 -49 -18
-95 -15 -103 7 -18 67 -20 84 -3 20 20 14 31 -13 24 -14 -4 -25 -5 -25 -4 0 2
11 44 24 93 42 161 43 145 -8 145 -26 0 -48 -6 -56 -15z"/>
<path d="M300 1355 c-10 -12 -10 -18 0 -30 15 -18 20 -18 44 0 20 15 20 15 0
30 -24 18 -29 18 -44 0z"/>
<path d="M4663 1363 c-15 -5 -17 -39 -3 -48 9 -6 50 15 50 25 0 10 -35 27 -47
23z"/>
<path d="M371 1246 c-16 -19 -7 -46 14 -46 22 0 30 29 13 46 -13 13 -16 13
-27 0z"/>
<path d="M4590 1240 c-12 -7 -12 -12 0 -35 13 -25 15 -25 27 -8 24 32 5 63
-27 43z"/>
<path d="M439 1124 c-10 -12 -9 -18 4 -31 13 -13 19 -14 31 -3 21 17 20 27 -3
39 -14 8 -22 7 -32 -5z"/>
<path d="M4513 1124 c-3 -8 1 -22 8 -29 12 -12 17 -11 34 1 20 15 20 15 1 30
-25 18 -35 18 -43 -2z"/>
<path d="M521 1026 c-16 -19 -7 -46 14 -46 22 0 30 29 13 46 -13 13 -16 13
-27 0z"/>
<path d="M4441 1021 c-19 -12 -6 -41 18 -41 26 0 36 17 21 35 -14 17 -20 18
-39 6z"/>
<path d="M602 919 c-10 -16 -10 -24 -1 -35 16 -19 26 -18 38 5 8 14 6 22 -7
34 -16 15 -19 15 -30 -4z"/>
<path d="M4353 914 c-3 -8 1 -22 9 -30 13 -13 16 -13 28 0 10 13 10 19 0 31
-16 19 -29 19 -37 -1z"/>
<path d="M1504 841 c-50 -23 -74 -54 -74 -97 0 -45 31 -78 104 -109 74 -31 96
-60 78 -100 -22 -48 -132 -73 -167 -38 -12 11 -15 26 -12 50 5 27 3 33 -13 33
-14 0 -21 -12 -29 -52 -13 -60 -10 -64 57 -74 113 -17 202 21 222 96 16 60 -2
88 -77 125 -106 52 -125 84 -78 130 18 19 35 25 68 25 50 0 67 -13 67 -51 0
-29 16 -47 30 -33 4 5 11 28 15 51 7 42 6 42 -32 52 -56 16 -113 13 -159 -8z"/>
<path d="M2500 851 c-20 -4 -42 -11 -50 -16 -12 -7 -10 -10 10 -15 25 -6 27
-13 14 -69 -4 -20 -9 -22 -39 -17 -92 18 -201 -107 -181 -208 14 -68 78 -88
135 -40 l30 25 7 -25 c7 -28 26 -32 68 -16 34 13 34 32 0 24 -22 -6 -25 -4
-20 12 3 11 19 87 36 169 17 83 33 158 36 168 3 9 2 16 -3 16 -4 -1 -24 -4
-43 -8z m-46 -158 c11 -29 -16 -120 -46 -158 -37 -45 -71 -47 -93 -6 -14 28
-13 33 14 94 16 36 38 70 48 76 28 16 70 13 77 -6z"/>
<path d="M692 819 c-15 -24 0 -51 24 -42 18 6 18 37 1 51 -10 8 -16 6 -25 -9z"/>
<path d="M4271 816 c-16 -19 -8 -46 13 -46 20 0 29 31 13 47 -12 12 -16 12
-26 -1z"/>
<path d="M1829 776 c-11 -19 -34 -41 -50 -48 -33 -15 -39 -38 -9 -38 11 0 20
-2 20 -5 0 -2 -9 -43 -20 -90 -11 -47 -20 -95 -20 -106 0 -28 44 -43 78 -27
39 20 40 39 2 31 -28 -5 -32 -4 -27 13 3 10 14 56 23 102 12 55 22 82 31 82 8
0 24 5 36 12 22 12 21 12 -8 18 -16 3 -29 10 -29 16 1 5 4 24 7 42 8 42 -8 41
-34 -2z"/>
<path d="M3285 779 c-9 -17 -32 -40 -51 -51 -30 -18 -46 -40 -26 -37 39 6 41
2 21 -83 -21 -96 -24 -134 -8 -144 18 -11 69 -7 85 7 23 19 16 29 -16 23 -39
-8 -39 -19 5 173 3 14 14 23 32 25 36 4 43 28 8 28 -25 0 -26 1 -19 45 8 53
-8 60 -31 14z"/>
<path d="M2685 721 c-48 -22 -69 -44 -90 -94 -21 -52 -19 -109 6 -141 16 -21
29 -26 62 -25 48 0 128 28 134 46 3 9 -5 9 -31 -2 -43 -18 -98 -19 -114 -3 -7
7 -12 24 -12 40 0 25 5 29 68 47 91 28 112 44 112 86 0 61 -58 81 -135 46z
m82 -27 c15 -39 -25 -76 -99 -91 -27 -5 -28 -5 -17 25 23 66 99 110 116 66z"/>
<path d="M3037 715 c-20 -14 -37 -29 -37 -33 0 -4 -10 -18 -21 -32 l-20 -25 6
35 c4 19 9 43 11 53 4 14 -1 17 -30 17 -40 0 -66 -8 -66 -21 0 -5 6 -9 14 -9
25 0 25 -13 2 -123 -12 -59 -20 -109 -18 -112 3 -3 16 -5 29 -5 17 0 23 6 23
23 0 47 34 120 75 163 70 73 82 57 53 -70 -16 -69 -17 -90 -8 -101 18 -22 64
-18 86 6 l19 21 -31 -6 -32 -7 8 38 c4 21 12 56 18 78 23 90 23 94 2 115 -26
26 -38 25 -83 -5z"/>
<path d="M3462 720 c-64 -39 -64 -93 1 -126 41 -21 77 -54 77 -70 0 -19 -41
-44 -71 -44 -28 0 -45 14 -50 42 -5 24 -26 9 -34 -23 -8 -31 10 -39 92 -39 41
0 58 5 83 26 26 22 31 33 28 63 -3 31 -9 39 -57 66 -65 36 -81 56 -61 80 9 11
26 15 54 13 34 -2 42 -7 44 -25 5 -34 32 -29 32 6 0 24 -6 31 -31 40 -45 16
-70 14 -107 -9z"/>
<path d="M4171 722 c-8 -15 -7 -23 5 -33 18 -15 38 0 32 27 -5 25 -25 28 -37
6z"/>
<path d="M787 723 c-24 -23 12 -55 38 -33 12 10 13 16 4 26 -12 15 -31 18 -42
7z"/>
<path d="M1965 723 c-31 -8 -42 -23 -17 -23 27 0 28 -19 7 -105 -21 -89 -20
-124 7 -134 12 -4 30 -6 40 -3 20 5 88 69 88 82 0 6 3 10 8 10 4 0 6 -18 4
-40 -5 -46 11 -58 59 -44 33 10 40 31 9 26 -25 -4 -25 -5 5 122 30 126 29 116
6 116 -24 0 -37 -16 -50 -66 -14 -51 -79 -144 -108 -155 -20 -7 -23 -5 -23 19
0 15 9 64 20 110 11 46 20 85 20 88 0 5 -48 3 -75 -3z"/>
<path d="M885 630 c-8 -13 3 -50 15 -50 5 0 14 8 19 18 15 27 -18 58 -34 32z"/>
<path d="M4077 633 c-24 -23 12 -55 38 -33 12 10 13 16 4 26 -12 15 -31 18
-42 7z"/>
<path d="M3971 556 c-16 -19 -7 -46 14 -46 22 0 30 29 13 46 -13 13 -16 13
-27 0z"/>
<path d="M990 545 c-17 -21 6 -61 26 -44 18 15 18 45 0 52 -8 3 -20 0 -26 -8z"/>
<path d="M1097 473 c-11 -10 -8 -41 4 -49 16 -9 43 21 36 40 -7 16 -28 21 -40
9z"/>
<path d="M3860 465 c-11 -13 -11 -19 4 -33 15 -15 18 -15 26 -2 22 33 -6 64
-30 35z"/>
<path d="M1204 395 c-12 -29 15 -45 45 -26 12 8 12 12 2 25 -17 20 -40 21 -47
1z"/>
<path d="M3750 395 c-22 -26 7 -46 39 -26 12 8 12 12 2 25 -17 20 -25 20 -41
1z"/>
<path d="M3631 331 c-16 -28 14 -51 36 -28 13 13 14 19 3 31 -17 21 -27 20
-39 -3z"/>
<path d="M1320 320 c0 -28 28 -37 48 -16 15 15 15 18 2 26 -26 17 -50 12 -50
-10z"/>
<path d="M3510 274 c-11 -12 -10 -18 4 -32 16 -16 18 -16 31 2 11 14 12 23 4
33 -15 17 -24 16 -39 -3z"/>
<path d="M1437 266 c-9 -23 18 -39 43 -26 17 9 19 14 9 26 -15 18 -45 18 -52
0z"/>
<path d="M1567 223 c-24 -23 12 -55 38 -33 12 10 13 16 4 26 -12 15 -31 18
-42 7z"/>
<path d="M3383 214 c-8 -22 11 -37 36 -29 25 8 28 30 5 39 -25 9 -34 7 -41
-10z"/>
<path d="M1690 174 c-11 -12 -10 -18 3 -32 16 -15 18 -15 34 0 13 14 14 20 3
32 -7 9 -16 16 -20 16 -4 0 -13 -7 -20 -16z"/>
<path d="M3265 179 c-8 -12 2 -59 13 -59 4 0 13 9 20 21 10 16 10 24 1 35 -14
17 -25 18 -34 3z"/>
<path d="M1820 145 c-9 -11 -11 -22 -4 -32 13 -21 25 -21 38 -1 8 14 7 21 -5
33 -14 15 -17 15 -29 0z"/>
<path d="M3142 138 c-27 -27 -3 -54 31 -36 22 11 22 25 -1 37 -13 7 -23 6 -30
-1z"/>
<path d="M1943 94 c-3 -8 1 -22 9 -30 13 -13 16 -13 27 0 7 9 11 23 7 31 -7
20 -35 19 -43 -1z"/>
<path d="M3004 95 c-13 -32 23 -48 47 -19 10 13 10 17 -2 25 -21 13 -39 11
-45 -6z"/>
<path d="M2081 81 c-19 -12 -6 -41 18 -41 26 0 36 17 21 35 -14 17 -20 18 -39
6z"/>
<path d="M2880 75 c-22 -26 7 -46 39 -26 12 8 12 12 2 25 -17 20 -25 20 -41 1z"/>
<path d="M2741 61 c-16 -28 14 -51 36 -28 13 13 14 19 3 31 -17 21 -27 20 -39
-3z"/>
<path d="M2210 55 c-11 -13 -11 -19 4 -33 15 -15 18 -15 26 -2 22 33 -6 64
-30 35z"/>
<path d="M2341 51 c-8 -14 -7 -22 4 -31 22 -19 48 5 34 31 -12 24 -26 24 -38
0z"/>
<path d="M2475 50 c-9 -15 4 -50 20 -50 17 0 27 42 12 52 -16 10 -25 10 -32
-2z"/>
<path d="M2611 46 c-18 -22 11 -41 40 -25 22 11 22 12 4 25 -24 17 -30 17 -44
0z"/>
</g>
</svg>
