<?xml version="1.0" standalone="no"?>
<!DOCTYPE svg PUBLIC "-//W3C//DTD SVG 20010904//EN"
 "http://www.w3.org/TR/2001/REC-SVG-20010904/DTD/svg10.dtd">
<svg version="1.0" xmlns="http://www.w3.org/2000/svg"
 width="499.000000pt" height="500.000000pt" viewBox="0 0 499.000000 500.000000"
 preserveAspectRatio="xMidYMid meet">
<metadata>
Created by potrace 1.15, written by Peter Selinger 2001-2017
</metadata>
<g transform="translate(0.000000,500.000000) scale(0.100000,-0.100000)"
fill="#000000" stroke="none">
<path d="M2340 4975 c-17 -21 6 -61 26 -44 18 15 18 45 0 52 -8 3 -20 0 -26
-8z"/>
<path d="M2470 4975 c-11 -13 -11 -19 3 -33 20 -19 41 -5 35 24 -4 24 -22 28
-38 9z"/>
<path d="M2612 4978 c-16 -16 -15 -33 2 -47 22 -18 44 25 24 45 -11 11 -16 12
-26 2z"/>
<path d="M2740 4970 c-13 -25 -5 -40 21 -40 19 0 24 15 13 44 -8 22 -21 20
-34 -4z"/>
<path d="M2211 4966 c-16 -19 -7 -46 14 -46 22 0 30 29 13 46 -13 13 -16 13
-27 0z"/>
<path d="M2075 4950 c-9 -15 4 -50 20 -50 18 0 28 30 14 46 -14 17 -25 18 -34
4z"/>
<path d="M2872 4948 c-7 -9 -7 -20 2 -36 11 -20 14 -21 25 -8 14 17 11 48 -5
53 -6 2 -16 -2 -22 -9z"/>
<path d="M3000 4924 c-11 -12 -10 -18 3 -32 16 -15 18 -15 34 0 13 14 14 20 3
32 -7 9 -16 16 -20 16 -4 0 -13 -7 -20 -16z"/>
<path d="M1942 4918 c-7 -9 -6 -18 4 -32 14 -20 14 -20 29 0 8 10 13 24 11 29
-4 16 -32 17 -44 3z"/>
<path d="M1817 4893 c-24 -23 12 -55 38 -33 12 10 13 16 4 26 -12 15 -31 18
-42 7z"/>
<path d="M3132 4887 c-7 -8 -7 -18 -2 -27 7 -12 13 -12 37 -1 27 12 27 13 8
27 -23 17 -30 17 -43 1z"/>
<path d="M1687 4853 c-26 -25 14 -51 45 -29 l20 14 -20 11 c-24 13 -36 14 -45
4z"/>
<path d="M3257 4846 c-3 -8 1 -20 9 -27 12 -10 18 -9 32 5 15 15 15 18 2 26
-21 14 -37 12 -43 -4z"/>
<path d="M1564 4805 c-7 -17 2 -45 13 -45 4 0 17 7 27 15 20 15 20 15 0 30
-24 18 -33 19 -40 0z"/>
<path d="M3384 4805 c-7 -17 2 -45 13 -45 4 0 17 7 27 15 20 15 20 15 0 30
-24 18 -33 19 -40 0z"/>
<path d="M1434 4749 c-3 -6 0 -18 9 -26 12 -12 19 -13 36 -3 18 9 20 14 10 26
-14 17 -45 19 -55 3z"/>
<path d="M3507 4753 c-24 -23 12 -55 38 -33 12 10 13 16 4 26 -12 15 -31 18
-42 7z"/>
<path d="M1320 4695 c-11 -13 -11 -19 3 -33 20 -19 41 -5 35 24 -4 24 -22 28
-38 9z"/>
<path d="M3623 4684 c-9 -24 11 -38 36 -25 25 14 27 27 5 35 -25 9 -34 7 -41
-10z"/>
<path d="M1204 4625 c-12 -30 16 -45 46 -25 13 9 12 12 -4 25 -25 19 -35 19
-42 0z"/>
<path d="M3740 4625 c-17 -21 6 -61 26 -44 18 15 18 45 0 52 -8 3 -20 0 -26
-8z"/>
<path d="M1086 4545 c-8 -21 25 -36 46 -21 13 10 15 15 6 24 -17 17 -45 15
-52 -3z"/>
<path d="M3844 4548 c-4 -6 1 -17 12 -25 15 -11 20 -11 32 1 8 8 11 19 8 25
-9 14 -43 14 -52 -1z"/>
<path d="M991 4486 c-16 -19 -7 -46 14 -46 22 0 30 29 13 46 -13 13 -16 13
-27 0z"/>
<path d="M3960 4480 c-14 -26 0 -46 24 -37 20 8 21 31 2 46 -12 10 -17 8 -26
-9z"/>
<path d="M880 4395 c-11 -13 -11 -19 3 -33 20 -19 41 -5 35 24 -4 24 -22 28
-38 9z"/>
<path d="M4064 4385 c-8 -19 12 -36 33 -28 19 7 12 37 -10 41 -9 2 -20 -4 -23
-13z"/>
<path d="M2537 4350 c-45 -8 -73 -30 -39 -30 23 0 28 -21 16 -67 -5 -19 -13
-22 -54 -21 -61 2 -108 -27 -140 -84 -31 -55 -34 -136 -6 -167 27 -29 77 -28
114 4 l30 25 6 -25 c7 -27 27 -32 70 -15 34 12 34 29 0 22 -22 -4 -24 -2 -20
19 3 13 19 89 36 169 17 80 33 153 36 163 3 9 2 16 -3 16 -4 -1 -25 -5 -46 -9z
m-48 -154 c16 -18 -3 -105 -33 -148 -28 -42 -70 -58 -93 -36 -15 16 -15 22 2
83 21 81 47 115 85 115 15 0 33 -6 39 -14z"/>
<path d="M2710 4345 c-26 -32 18 -63 48 -33 9 9 8 16 -5 30 -20 22 -27 22 -43
3z"/>
<path d="M3427 4343 c-13 -12 -7 -23 13 -23 11 0 20 -6 20 -12 0 -7 -14 -84
-32 -171 -22 -113 -28 -161 -20 -169 14 -14 59 -13 77 2 22 19 18 28 -10 22
-14 -2 -25 -3 -25 0 0 4 65 304 74 341 3 14 -3 17 -43 17 -26 0 -51 -3 -54 -7z"/>
<path d="M1530 4325 c0 -9 9 -15 25 -15 33 0 32 -6 -10 -153 -45 -155 -49
-165 -76 -169 -12 -2 -24 -9 -27 -15 -3 -10 13 -13 56 -13 33 0 67 3 76 6 25
9 19 24 -9 24 -14 0 -25 6 -25 13 0 21 64 257 70 257 3 0 14 -64 23 -142 15
-126 25 -158 47 -158 16 0 34 29 100 158 40 78 75 141 77 138 7 -6 -19 -230
-29 -248 -5 -10 -18 -18 -29 -18 -12 0 -19 -5 -16 -12 2 -9 28 -13 82 -13 54
0 80 4 83 13 2 7 -6 12 -22 12 -31 0 -31 8 -16 158 16 152 18 160 42 164 12 2
23 9 26 16 3 10 -11 12 -58 10 l-62 -3 -40 -75 c-22 -41 -56 -106 -76 -145
l-36 -70 -12 70 c-7 39 -16 105 -19 148 l-8 77 -68 0 c-55 0 -69 -3 -69 -15z"/>
<path d="M777 4297 c-3 -7 2 -22 10 -32 14 -20 14 -20 28 -1 11 14 12 23 4 33
-14 17 -35 17 -42 0z"/>
<path d="M4157 4303 c-10 -9 -8 -15 8 -37 15 -19 15 -19 29 -1 8 11 12 25 9
32 -5 14 -35 18 -46 6z"/>
<path d="M2127 4226 c-50 -18 -72 -39 -97 -90 -43 -90 -14 -176 59 -176 41 0
127 26 137 42 11 17 -2 19 -32 3 -42 -22 -101 -20 -114 4 -24 45 -14 58 63 81
39 12 80 29 90 37 20 19 23 76 4 92 -23 19 -70 22 -110 7z m67 -32 c14 -38
-46 -94 -100 -94 -19 0 -17 26 3 60 26 45 85 66 97 34z"/>
<path d="M2917 4230 c-16 -5 -44 -20 -62 -35 -68 -51 -82 -194 -23 -226 30
-16 123 -6 148 16 29 26 18 30 -33 10 -76 -29 -107 6 -92 102 13 88 111 151
135 87 6 -14 16 -24 23 -22 14 5 22 47 10 58 -13 14 -76 19 -106 10z"/>
<path d="M3180 4224 c-74 -32 -110 -86 -110 -166 0 -71 19 -98 69 -98 27 0 44
7 62 26 l24 26 5 -23 c7 -28 40 -41 70 -26 35 18 39 40 5 31 -30 -7 -30 -14 7
124 11 40 17 80 14 87 -5 13 -66 35 -96 35 -8 -1 -31 -8 -50 -16z m87 -30 c3
-9 0 -41 -7 -72 -9 -43 -22 -66 -51 -95 -32 -33 -41 -37 -58 -27 -17 9 -21 20
-21 61 0 56 10 80 48 122 29 31 79 37 89 11z"/>
<path d="M2641 4217 c-13 -16 -5 -28 15 -20 19 7 18 -10 -6 -109 -11 -46 -20
-91 -20 -100 0 -23 44 -34 76 -19 32 14 31 30 -2 23 -22 -4 -25 -2 -21 14 3
11 15 57 27 104 12 47 23 93 26 103 5 14 -1 17 -39 17 -25 0 -49 -6 -56 -13z"/>
<path d="M4255 4210 c-7 -23 1 -40 20 -40 8 0 17 5 20 10 9 15 -4 50 -20 50
-8 0 -16 -9 -20 -20z"/>
<path d="M686 4211 c-8 -13 4 -41 18 -41 6 0 17 4 25 9 12 8 12 12 2 25 -15
18 -37 21 -45 7z"/>
<path d="M600 4105 c-15 -18 -5 -35 20 -35 10 0 22 5 25 10 7 11 -12 40 -25
40 -4 0 -13 -7 -20 -15z"/>
<path d="M4347 4113 c-24 -23 12 -55 38 -33 12 10 13 16 4 26 -12 15 -31 18
-42 7z"/>
<path d="M522 4018 c-16 -16 -15 -33 2 -47 21 -18 41 11 26 38 -13 25 -12 25
-28 9z"/>
<path d="M4430 4010 c-15 -28 5 -57 26 -39 18 15 18 33 0 48 -12 10 -17 8 -26
-9z"/>
<path d="M441 3901 c-19 -12 -6 -41 18 -41 26 0 36 17 21 35 -14 17 -20 18
-39 6z"/>
<path d="M4511 3901 c-16 -10 -8 -41 11 -41 7 0 19 4 27 9 12 8 12 12 2 25
-15 18 -21 19 -40 7z"/>
<path d="M372 3788 c-27 -27 -3 -54 31 -36 22 11 22 25 -1 37 -13 7 -23 6 -30
-1z"/>
<path d="M4580 3785 c-15 -18 -5 -35 20 -35 10 0 22 5 25 10 7 11 -12 40 -25
40 -4 0 -13 -7 -20 -15z"/>
<path d="M880 3675 c0 -9 9 -15 25 -15 14 0 25 -6 25 -12 0 -18 -71 -269 -81
-290 -5 -9 -18 -18 -29 -20 -12 -2 -22 -7 -23 -13 -1 -6 29 -11 71 -13 59 -2
72 0 72 13 0 8 -9 15 -19 15 -11 0 -23 5 -26 10 -8 13 57 263 66 252 3 -4 14
-70 24 -147 9 -77 19 -142 21 -144 1 -2 13 -1 26 3 17 4 41 41 98 150 41 79
76 143 77 142 4 -3 -16 -214 -22 -243 -4 -16 -13 -23 -30 -23 -16 0 -25 -6
-25 -15 0 -13 14 -15 82 -13 54 2 83 7 86 16 2 7 -6 12 -22 12 -31 0 -32 7
-15 179 12 121 19 141 50 141 11 0 19 7 19 15 0 12 -13 15 -59 15 l-60 0 -78
-151 c-43 -82 -79 -146 -81 -141 -1 5 -10 72 -20 148 l-17 139 -68 3 c-55 2
-67 0 -67 -13z"/>
<path d="M296 3663 c-11 -26 10 -38 41 -24 27 12 27 13 8 27 -25 19 -41 18
-49 -3z"/>
<path d="M4644 3665 c-12 -29 15 -45 45 -26 12 8 12 12 2 25 -17 20 -40 21
-47 1z"/>
<path d="M4116 3621 c-15 -23 -38 -43 -56 -50 -33 -11 -32 -31 1 -31 15 0 19
-5 15 -17 -3 -10 -12 -57 -22 -105 -13 -71 -14 -91 -4 -103 16 -20 64 -19 84
1 25 24 19 33 -15 24 -29 -9 -31 -8 -26 13 3 12 11 51 18 87 15 84 23 98 56
102 39 4 42 28 4 28 -31 0 -31 0 -24 45 3 25 3 45 -1 45 -3 0 -17 -17 -30 -39z"/>
<path d="M1455 3563 c-111 -60 -128 -263 -21 -263 12 0 38 14 59 31 l37 30 0
-26 c0 -30 22 -42 58 -29 32 11 41 34 13 34 -26 0 -26 3 3 120 l24 95 -27 12
c-37 17 -111 15 -146 -4z m103 -20 c12 -23 -11 -118 -37 -153 -10 -14 -30 -32
-45 -40 -25 -14 -28 -13 -42 4 -31 42 -3 155 47 190 31 21 66 20 77 -1z"/>
<path d="M1735 3573 c-41 -6 -56 -22 -27 -29 27 -8 27 -8 2 -129 -11 -53 -20
-99 -20 -101 0 -2 11 -4 25 -4 19 0 26 6 31 28 18 86 67 170 111 191 40 19 43
-12 12 -126 -20 -74 -20 -77 -3 -90 22 -16 39 -16 65 -3 25 14 25 34 -1 27
-25 -6 -25 -2 2 111 24 101 20 124 -22 130 -33 5 -69 -17 -102 -63 l-29 -40 7
53 c5 41 4 52 -7 51 -8 -1 -27 -4 -44 -6z"/>
<path d="M2105 3561 c-80 -49 -117 -150 -80 -220 24 -48 68 -54 113 -16 36 30
42 31 42 5 0 -24 40 -36 69 -20 28 14 27 30 -2 30 l-24 0 22 83 c38 143 37
133 9 145 -38 18 -115 15 -149 -7z m103 -38 c8 -78 -48 -173 -101 -173 -37 0
-47 40 -27 112 24 86 121 132 128 61z"/>
<path d="M2420 3563 c-66 -46 -95 -108 -87 -181 5 -48 33 -82 67 -82 9 0 34
11 55 26 l37 25 -7 -38 c-9 -49 -22 -73 -41 -73 -19 0 -90 36 -99 50 -11 17
-74 11 -118 -11 -23 -12 -68 -48 -100 -81 l-58 -59 3 -204 c4 -236 3 -235 103
-296 123 -75 126 -86 124 -599 -2 -435 3 -494 48 -588 19 -41 38 -62 79 -89
30 -20 54 -39 54 -43 0 -3 -11 -17 -25 -30 -24 -22 -25 -22 -52 -5 -15 10 -52
39 -83 63 -79 65 -136 87 -308 122 -85 16 -176 40 -203 51 -48 21 -134 102
-125 118 3 4 29 11 57 14 28 4 57 11 64 17 7 6 15 48 20 98 4 48 10 123 13
167 5 51 13 89 25 105 27 38 21 55 -32 97 -76 59 -93 90 -102 188 -13 150 -96
276 -191 290 -55 8 -196 -11 -268 -36 -129 -45 -232 -152 -271 -281 -70 -228
67 -469 340 -602 48 -22 88 -42 90 -44 6 -4 -92 -202 -99 -202 -4 0 -35 48
-70 108 -141 238 -227 335 -376 424 -44 26 -115 59 -159 75 -72 25 -93 27
-215 28 -121 0 -139 -2 -177 -22 -64 -34 -60 -43 10 -21 81 26 252 28 351 4
143 -34 269 -118 362 -240 29 -38 108 -162 175 -275 67 -113 181 -304 252
-424 174 -293 230 -370 377 -518 278 -278 357 -304 915 -300 176 1 376 6 445
10 94 6 22 9 -290 9 -228 1 -427 1 -442 1 -43 1 -33 23 27 60 171 108 256 279
257 521 1 122 -23 230 -78 348 -18 41 -34 85 -34 98 0 16 18 39 61 74 33 27
64 50 68 50 15 0 28 -24 55 -99 26 -71 45 -113 46 -99 0 4 -18 57 -39 117
l-39 110 31 10 c130 42 292 53 383 26 116 -34 159 -79 326 -343 100 -157 181
-247 269 -300 64 -38 208 -97 259 -106 53 -10 24 8 -65 38 -119 41 -207 91
-280 159 -81 73 -126 139 -200 289 -32 64 -76 137 -98 163 -54 64 -141 119
-222 140 -85 23 -232 17 -325 -15 -68 -23 -164 -85 -215 -140 -77 -82 -145
-81 -262 3 -23 16 -44 36 -47 44 -3 7 -15 84 -26 169 -16 127 -20 212 -20 467
0 341 7 401 53 479 15 26 46 59 69 75 23 15 54 40 70 55 l28 26 0 151 c0 183
-11 240 -54 286 l-32 34 22 10 c38 17 53 52 84 197 l30 139 -21 18 c-29 23
-116 23 -149 0z m109 -28 c8 -42 -20 -125 -54 -161 -39 -41 -62 -41 -84 -2
-14 24 -13 31 8 85 13 32 35 68 48 81 31 28 76 27 82 -3z m-194 -275 c3 -6 -5
-14 -19 -20 -17 -6 -26 -17 -26 -31 0 -21 3 -22 68 -16 68 7 68 7 102 -28 41
-42 48 -83 49 -292 l1 -142 -53 -40 c-63 -46 -105 -93 -124 -141 -14 -31 -16
-32 -25 -15 -31 59 -67 100 -122 136 -34 22 -64 47 -68 54 -5 7 -11 98 -14
202 -8 221 -11 213 114 294 73 48 105 59 117 39z m-650 -970 c13 -12 27 -36
30 -52 4 -16 33 -58 66 -92 61 -66 69 -87 44 -120 -8 -11 -15 -41 -15 -67 0
-28 -6 -51 -14 -58 -8 -7 -45 -17 -82 -22 -37 -5 -70 -11 -72 -13 -7 -8 73
-26 115 -26 23 0 44 -3 47 -8 2 -4 -5 -37 -17 -72 l-22 -65 -169 -3 c-197 -3
-239 6 -309 68 -53 47 -72 87 -63 135 11 57 44 87 104 93 49 4 50 5 38 26 -8
11 -19 38 -26 58 -25 82 66 202 181 237 56 17 135 8 164 -19z m-35 -880 c54
-28 86 -68 119 -148 48 -119 90 -181 196 -287 108 -108 193 -164 226 -149 10
5 75 62 144 128 134 126 166 172 186 268 23 110 48 112 56 6 7 -81 -10 -144
-83 -323 -53 -128 -63 -145 -118 -200 -85 -84 -167 -130 -228 -129 -80 1 -205
71 -304 169 -168 167 -366 470 -381 583 -4 31 0 44 21 69 39 47 92 51 166 13z"/>
<path d="M2460 2798 c0 -21 -64 -91 -114 -123 -24 -16 -28 -15 -93 23 -37 22
-80 52 -95 67 -28 27 -37 20 -19 -14 14 -25 155 -121 178 -121 10 0 51 30 91
66 58 53 72 71 72 95 0 16 -4 29 -10 29 -5 0 -10 -10 -10 -22z"/>
<path d="M1544 2250 c-23 -9 -57 -50 -49 -59 3 -2 32 8 65 24 40 19 56 31 48
37 -16 10 -37 9 -64 -2z"/>
<path d="M1596 2122 c-62 -23 -67 -26 -45 -34 32 -12 81 -2 113 23 28 22 34
40 14 38 -7 -1 -44 -13 -82 -27z"/>
<path d="M1286 1924 c-28 -27 -18 -59 26 -93 15 -11 16 -9 11 22 -4 28 -1 39
15 53 12 10 19 21 16 26 -9 14 -52 9 -68 -8z"/>
<path d="M2723 3555 c-104 -62 -112 -228 -12 -250 40 -9 113 11 136 38 17 20
17 20 -2 14 -104 -32 -103 -32 -125 -12 -13 12 -20 28 -18 44 3 22 12 29 72
48 38 12 77 30 87 39 23 21 25 67 3 88 -24 25 -92 20 -141 -9z m104 -11 c14
-36 -10 -67 -66 -86 -30 -10 -56 -16 -58 -14 -8 7 20 63 45 89 29 30 69 36 79
11z"/>
<path d="M2952 3568 c-18 -18 -15 -28 8 -28 16 0 19 -5 15 -22 -3 -13 -12 -57
-20 -98 -9 -41 -18 -83 -21 -93 -5 -15 -1 -18 22 -15 24 3 29 9 39 53 17 77
58 141 102 164 33 17 37 -13 13 -120 -11 -51 -20 -94 -20 -96 0 -2 11 -3 24
-3 24 0 36 16 36 49 0 49 88 181 121 181 14 0 10 -65 -7 -135 -21 -84 -16 -97
38 -93 46 3 64 25 25 30 l-24 3 23 98 c28 114 23 137 -28 137 -24 0 -42 -11
-76 -47 -41 -42 -44 -44 -38 -20 10 40 -9 67 -46 67 -25 0 -41 -10 -75 -46
l-43 -47 6 34 c4 19 7 39 8 44 2 15 -67 18 -82 3z"/>
<path d="M3502 3563 c-70 -35 -113 -129 -90 -199 21 -64 85 -81 166 -44 23 10
42 24 42 31 0 7 -7 8 -17 4 -77 -31 -118 -28 -133 11 -15 38 -4 48 77 74 60
20 81 31 93 53 13 24 13 30 0 55 -13 22 -23 27 -60 30 -27 1 -59 -5 -78 -15z
m86 -31 c5 -35 -15 -59 -65 -76 -25 -9 -49 -14 -51 -11 -3 3 3 23 14 46 12 27
29 46 49 55 37 16 49 13 53 -14z"/>
<path d="M3736 3571 c-35 -7 -47 -31 -17 -31 26 0 26 -4 1 -125 -11 -53 -20
-99 -20 -101 0 -2 11 -4 23 -4 20 0 26 8 40 58 28 101 116 203 134 156 3 -9
-1 -49 -11 -88 -23 -100 -22 -124 8 -132 26 -6 66 10 66 28 0 5 -9 8 -20 5
-25 -6 -25 -2 2 111 24 101 20 124 -22 130 -33 5 -69 -17 -102 -63 l-29 -40 7
53 c7 57 6 58 -60 43z"/>
<path d="M242 3548 c-8 -8 -9 -15 -1 -25 15 -17 34 -17 48 1 10 12 8 17 -8 25
-24 14 -24 14 -39 -1z"/>
<path d="M4707 3553 c-11 -10 -8 -41 4 -49 6 -3 18 1 27 9 13 13 13 19 2 31
-14 17 -23 20 -33 9z"/>
<path d="M190 3425 c-15 -18 -5 -35 20 -35 10 0 22 5 25 10 7 11 -12 40 -25
40 -4 0 -13 -7 -20 -15z"/>
<path d="M4761 3430 c-21 -12 -5 -42 21 -38 12 2 23 8 25 15 6 16 -30 34 -46
23z"/>
<path d="M137 3296 c-6 -15 11 -36 29 -36 21 0 35 25 22 38 -16 16 -45 15 -51
-2z"/>
<path d="M4803 3294 c-9 -24 11 -38 37 -24 17 9 19 14 9 26 -15 19 -38 18 -46
-2z"/>
<path d="M102 3168 c-7 -10 -6 -19 4 -33 15 -20 15 -20 30 0 8 10 13 24 11 30
-5 15 -33 17 -45 3z"/>
<path d="M4841 3167 c-9 -11 -8 -17 3 -26 18 -15 48 -3 44 18 -4 21 -32 26
-47 8z"/>
<path d="M74 3044 c-9 -34 10 -54 32 -32 13 13 14 19 2 37 -17 28 -26 27 -34
-5z"/>
<path d="M4877 3053 c-11 -10 -8 -41 4 -49 6 -3 18 1 27 9 13 13 13 19 2 31
-14 17 -23 20 -33 9z"/>
<path d="M43 2904 c-8 -21 16 -35 40 -23 14 8 16 13 6 25 -15 19 -38 18 -46
-2z"/>
<path d="M4893 2904 c-3 -8 1 -22 9 -30 13 -13 16 -13 27 0 7 9 11 23 7 31 -7
20 -35 19 -43 -1z"/>
<path d="M31 2786 c-14 -16 -4 -46 14 -46 19 0 27 17 20 40 -7 23 -18 25 -34
6z"/>
<path d="M4917 2783 c-24 -23 12 -55 38 -33 12 10 13 16 4 26 -12 15 -31 18
-42 7z"/>
<path d="M20 2645 c-15 -18 -5 -35 20 -35 10 0 22 5 25 10 7 11 -12 40 -25 40
-4 0 -13 -7 -20 -15z"/>
<path d="M4930 2645 c-9 -11 -11 -22 -4 -32 13 -21 25 -21 38 -1 8 14 7 21 -5
33 -14 15 -17 15 -29 0z"/>
<path d="M4 2508 c-6 -10 20 -38 37 -38 10 0 20 30 13 41 -8 13 -41 11 -50 -3z"/>
<path d="M4924 2509 c-3 -6 0 -18 9 -26 12 -12 19 -13 36 -3 18 9 20 14 10 26
-14 17 -45 19 -55 3z"/>
<path d="M21 2386 c-16 -19 -7 -46 14 -46 22 0 30 29 13 46 -13 13 -16 13 -27
0z"/>
<path d="M4931 2386 c-16 -19 -7 -46 14 -46 22 0 30 29 13 46 -13 13 -16 13
-27 0z"/>
<path d="M26 2244 c-4 -10 -2 -22 3 -27 14 -14 43 0 39 20 -4 24 -34 28 -42 7z"/>
<path d="M4919 2244 c-15 -18 0 -38 27 -32 25 5 28 25 6 37 -15 8 -23 7 -33
-5z"/>
<path d="M4902 2118 c-25 -25 -9 -54 23 -42 9 4 15 15 13 27 -4 25 -19 32 -36
15z"/>
<path d="M43 2104 c-3 -8 1 -22 9 -30 13 -13 16 -13 27 0 7 9 11 23 7 31 -7
20 -35 19 -43 -1z"/>
<path d="M70 1984 c-11 -12 -10 -18 3 -31 22 -23 52 0 36 28 -12 23 -22 24
-39 3z"/>
<path d="M4861 1976 c-10 -12 -8 -17 9 -26 28 -15 57 5 39 26 -15 18 -33 18
-48 0z"/>
<path d="M106 1859 c-14 -21 -14 -25 -1 -38 13 -14 17 -13 31 1 15 15 15 18 1
38 l-15 21 -16 -22z"/>
<path d="M4836 1844 c-4 -10 0 -24 9 -33 14 -14 17 -14 25 -1 6 8 9 22 7 30
-3 21 -33 24 -41 4z"/>
<path d="M141 1727 c-8 -10 -7 -18 2 -32 11 -15 17 -16 36 -5 22 11 22 12 5
31 -20 23 -28 24 -43 6z"/>
<path d="M4804 1715 c-6 -15 2 -35 14 -35 4 0 16 7 27 16 17 13 18 16 5 24
-22 14 -40 12 -46 -5z"/>
<path d="M190 1595 c-10 -12 -10 -18 0 -30 7 -8 16 -15 20 -15 12 0 20 28 14
45 -4 8 -10 15 -14 15 -4 0 -13 -7 -20 -15z"/>
<path d="M4754 1595 c-12 -29 15 -45 45 -26 12 8 12 12 2 25 -17 20 -40 21
-47 1z"/>
<path d="M240 1474 c-11 -12 -10 -18 3 -32 16 -15 18 -15 34 0 13 14 14 20 3
32 -7 9 -16 16 -20 16 -4 0 -13 -7 -20 -16z"/>
<path d="M4707 1483 c-12 -11 -7 -41 7 -46 8 -3 22 3 31 13 16 17 15 19 -4 29
-23 13 -26 13 -34 4z"/>
<path d="M300 1355 c-19 -22 1 -39 35 -31 26 7 27 8 10 26 -22 24 -29 25 -45
5z"/>
<path d="M4653 1363 c-16 -6 -17 -39 -2 -49 6 -3 18 1 27 10 14 14 14 18 2 30
-8 7 -21 12 -27 9z"/>
<path d="M363 1234 c-3 -8 1 -22 9 -30 13 -13 16 -13 27 0 7 9 11 23 7 31 -7
20 -35 19 -43 -1z"/>
<path d="M4574 1235 c-4 -9 0 -24 10 -33 15 -15 18 -15 26 -2 6 8 9 22 7 30
-3 21 -36 25 -43 5z"/>
<path d="M441 1136 c-16 -19 -7 -46 14 -46 22 0 30 29 13 46 -13 13 -16 13
-27 0z"/>
<path d="M4503 1124 c-3 -8 1 -22 8 -29 12 -12 17 -12 33 0 16 12 17 17 6 30
-16 20 -39 19 -47 -1z"/>
<path d="M517 1023 c-24 -23 12 -55 38 -33 12 10 13 16 4 26 -12 15 -31 18
-42 7z"/>
<path d="M4426 1014 c-9 -23 7 -37 34 -29 13 4 20 13 18 23 -4 23 -44 28 -52
6z"/>
<path d="M599 914 c-10 -12 -9 -18 4 -31 13 -13 19 -14 31 -3 21 17 20 27 -3
39 -14 8 -22 7 -32 -5z"/>
<path d="M4344 905 c-7 -18 3 -35 21 -35 15 0 28 27 19 41 -8 14 -34 11 -40
-6z"/>
<path d="M690 815 c-17 -21 6 -61 26 -44 18 15 18 45 0 52 -8 3 -20 0 -26 -8z"/>
<path d="M4260 815 c-15 -18 -5 -35 20 -35 10 0 22 5 25 10 7 11 -12 40 -25
40 -4 0 -13 -7 -20 -15z"/>
<path d="M783 714 c-9 -24 11 -38 37 -24 17 9 19 14 9 26 -15 19 -38 18 -46
-2z"/>
<path d="M4163 714 c-9 -24 11 -38 37 -24 17 9 19 14 9 26 -15 19 -38 18 -46
-2z"/>
<path d="M4067 643 c-11 -10 -8 -41 4 -49 6 -3 18 1 27 9 13 13 13 19 2 31
-14 17 -23 20 -33 9z"/>
<path d="M877 626 c-3 -8 0 -20 8 -26 19 -16 59 8 43 27 -14 17 -45 17 -51 -1z"/>
<path d="M984 546 c-3 -8 0 -24 6 -36 11 -21 12 -21 25 -3 19 24 18 40 -1 47
-22 8 -24 8 -30 -8z"/>
<path d="M3956 551 c-19 -31 30 -55 53 -27 10 12 8 17 -8 25 -24 13 -38 14
-45 2z"/>
<path d="M1091 472 c-7 -13 -6 -23 1 -30 28 -28 63 3 38 33 -16 20 -27 19 -39
-3z"/>
<path d="M3851 467 c-9 -11 -8 -17 3 -26 18 -15 48 -3 44 18 -4 21 -32 26 -47
8z"/>
<path d="M3740 400 c-12 -23 -6 -40 15 -40 19 0 27 17 20 40 -8 26 -21 25 -35
0z"/>
<path d="M1204 395 c-4 -9 -2 -21 4 -27 15 -15 44 -1 40 19 -4 23 -36 29 -44
8z"/>
<path d="M1314 329 c-3 -6 0 -18 9 -26 12 -12 18 -13 35 -2 16 10 18 16 10 26
-13 16 -44 17 -54 2z"/>
<path d="M3623 324 c-9 -24 11 -38 36 -25 25 14 27 27 5 35 -25 9 -34 7 -41
-10z"/>
<path d="M1439 274 c-10 -12 -10 -18 3 -30 16 -17 48 -9 48 12 0 23 -36 36
-51 18z"/>
<path d="M3513 283 c-18 -6 -16 -42 2 -49 16 -6 45 12 45 27 0 12 -33 27 -47
22z"/>
<path d="M3381 221 c-8 -14 -7 -22 4 -31 22 -19 48 5 34 31 -5 10 -14 19 -19
19 -5 0 -14 -9 -19 -19z"/>
<path d="M1567 223 c-11 -10 -8 -41 5 -49 17 -11 40 26 27 43 -13 14 -22 16
-32 6z"/>
<path d="M1692 188 c-16 -16 -15 -33 2 -47 21 -18 41 11 26 38 -13 25 -12 25
-28 9z"/>
<path d="M3259 174 c-10 -12 -9 -18 4 -31 13 -13 19 -14 31 -3 21 17 20 27 -3
39 -14 8 -22 7 -32 -5z"/>
<path d="M1816 134 c-16 -15 -16 -18 1 -36 16 -18 18 -18 30 -2 16 23 16 29
-1 43 -11 9 -18 8 -30 -5z"/>
<path d="M3130 134 c-11 -12 -10 -18 3 -32 16 -15 18 -15 34 0 13 14 14 20 3
32 -16 20 -24 20 -40 0z"/>
<path d="M1931 96 c-10 -12 -8 -17 9 -26 25 -13 52 3 43 26 -7 18 -37 18 -52
0z"/>
<path d="M3001 96 c-9 -10 -8 -16 4 -26 13 -11 19 -11 32 2 16 17 10 38 -11
38 -8 0 -19 -6 -25 -14z"/>
<path d="M2076 84 c-11 -29 -6 -44 13 -44 26 0 34 15 21 40 -13 24 -26 26 -34
4z"/>
<path d="M2870 75 c-23 -28 21 -50 48 -23 9 9 7 14 -6 24 -22 17 -27 17 -42
-1z"/>
<path d="M2205 60 c-8 -24 1 -40 21 -40 20 0 29 27 14 45 -17 20 -27 19 -35
-5z"/>
<path d="M2340 55 c-15 -18 -6 -45 14 -45 20 0 29 16 21 40 -8 24 -18 25 -35
5z"/>
<path d="M2740 55 c-21 -25 2 -42 36 -26 26 11 26 12 8 26 -24 18 -29 18 -44
0z"/>
<path d="M2471 46 c-8 -9 -7 -18 3 -31 15 -21 36 -12 36 15 0 22 -25 33 -39
16z"/>
<path d="M2604 45 c-12 -29 15 -45 45 -26 12 8 12 12 2 25 -17 20 -40 21 -47
1z"/>
</g>
</svg>
