<?xml version="1.0" standalone="no"?>
<!DOCTYPE svg PUBLIC "-//W3C//DTD SVG 20010904//EN"
 "http://www.w3.org/TR/2001/REC-SVG-20010904/DTD/svg10.dtd">
<svg version="1.0" xmlns="http://www.w3.org/2000/svg"
 width="500.000000pt" height="500.000000pt" viewBox="0 0 500.000000 500.000000"
 preserveAspectRatio="xMidYMid meet">
<metadata>
Created by potrace 1.15, written by Peter Selinger 2001-2017
</metadata>
<g transform="translate(0.000000,500.000000) scale(0.100000,-0.100000)"
fill="#000000" stroke="none">
<path d="M2341 4972 c-11 -20 2 -42 25 -42 18 0 26 30 13 46 -16 19 -26 18
-38 -4z"/>
<path d="M2479 4974 c-10 -12 -9 -18 4 -31 13 -13 19 -14 31 -3 21 17 20 27
-3 39 -14 8 -22 7 -32 -5z"/>
<path d="M2611 4967 c-8 -10 -7 -19 4 -33 15 -19 15 -19 30 0 11 14 12 23 4
33 -6 7 -15 13 -19 13 -4 0 -13 -6 -19 -13z"/>
<path d="M2081 4948 c-11 -17 -10 -23 2 -35 18 -18 37 -9 37 16 0 31 -24 43
-39 19z"/>
<path d="M2210 4950 c0 -26 25 -36 45 -20 12 10 13 16 4 26 -18 22 -49 17 -49
-6z"/>
<path d="M2743 4954 c-3 -8 1 -22 9 -30 13 -13 16 -13 28 0 10 13 10 19 0 31
-16 19 -29 19 -37 -1z"/>
<path d="M2876 4933 c-4 -9 -1 -23 7 -30 12 -12 16 -12 26 1 16 19 8 46 -13
46 -7 0 -17 -8 -20 -17z"/>
<path d="M1951 4916 c-10 -11 -10 -20 0 -37 11 -22 12 -22 26 -3 25 34 0 72
-26 40z"/>
<path d="M3005 4920 c-9 -15 4 -50 20 -50 20 0 30 40 14 51 -18 11 -26 11 -34
-1z"/>
<path d="M1820 4885 c-19 -22 5 -48 31 -34 10 5 19 14 19 19 0 5 -9 14 -19 19
-14 8 -22 7 -31 -4z"/>
<path d="M3134 4875 c-7 -18 3 -35 21 -35 15 0 28 27 19 41 -8 14 -34 11 -40
-6z"/>
<path d="M1692 4850 c-15 -25 -8 -40 18 -40 10 0 21 4 25 10 6 9 -15 50 -25
50 -3 0 -11 -9 -18 -20z"/>
<path d="M3271 4856 c-17 -20 -6 -49 16 -44 22 4 26 20 10 42 -12 16 -14 16
-26 2z"/>
<path d="M1567 4803 c-24 -23 12 -55 38 -33 12 10 13 16 4 26 -12 15 -31 18
-42 7z"/>
<path d="M3390 4795 c-6 -8 -9 -19 -5 -25 9 -15 41 -12 54 4 10 12 8 17 -8 25
-25 14 -26 14 -41 -4z"/>
<path d="M3510 4750 c-13 -25 -5 -40 20 -40 22 0 30 19 18 43 -12 23 -25 22
-38 -3z"/>
<path d="M1441 4746 c-15 -18 11 -40 39 -31 25 8 26 21 1 35 -25 13 -26 13
-40 -4z"/>
<path d="M1327 4693 c-4 -3 -7 -15 -7 -25 0 -20 26 -24 50 -8 13 9 12 12 -4
25 -22 17 -29 18 -39 8z"/>
<path d="M3633 4689 c-15 -15 -5 -39 16 -39 29 0 43 21 23 36 -21 17 -25 17
-39 3z"/>
<path d="M1210 4625 c-15 -18 -6 -45 14 -45 20 0 29 16 21 40 -8 24 -18 25
-35 5z"/>
<path d="M3744 4619 c-3 -6 1 -18 10 -27 15 -15 17 -15 34 1 15 16 15 19 2 27
-20 13 -37 12 -46 -1z"/>
<path d="M1094 4545 c-12 -31 23 -48 45 -21 10 12 8 17 -8 25 -26 14 -31 14
-37 -4z"/>
<path d="M3857 4546 c-3 -8 1 -20 9 -27 12 -10 18 -9 32 5 15 15 15 18 2 26
-21 14 -37 12 -43 -4z"/>
<path d="M2702 4518 c-17 -17 -15 -48 4 -55 8 -3 22 1 31 9 12 12 13 20 4 37
-13 24 -22 26 -39 9z"/>
<path d="M2527 4510 c-45 -8 -73 -30 -39 -30 23 0 28 -21 16 -66 -5 -18 -13
-22 -53 -21 -68 1 -110 -26 -144 -93 -65 -126 10 -231 110 -154 23 18 33 21
33 11 0 -8 6 -20 14 -26 18 -15 78 -1 84 18 3 10 -2 12 -22 7 -24 -6 -26 -4
-21 16 3 13 19 88 35 168 17 80 33 153 36 163 3 9 2 16 -3 16 -4 -1 -25 -5
-46 -9z m-52 -146 c27 -28 -6 -148 -53 -184 -35 -28 -59 -25 -77 10 -15 28
-14 33 14 93 39 87 81 116 116 81z"/>
<path d="M3416 4495 c-4 -10 1 -15 14 -15 26 0 26 -11 -10 -186 -34 -159 -32
-174 19 -174 26 0 51 16 51 32 0 5 -11 6 -25 2 -19 -5 -24 -3 -21 7 3 8 19 82
36 164 17 83 34 158 36 168 5 14 -2 17 -44 17 -35 0 -52 -4 -56 -15z"/>
<path d="M1520 4485 c0 -9 9 -15 25 -15 14 0 25 -5 25 -10 0 -24 -73 -267 -86
-288 -8 -12 -22 -21 -31 -20 -9 2 -18 -3 -20 -9 -4 -10 15 -13 72 -13 57 0 76
3 73 12 -3 7 -13 13 -24 13 -15 0 -19 7 -17 34 2 41 54 231 63 231 4 0 12 -53
19 -117 19 -173 19 -175 50 -171 23 3 36 22 103 153 42 83 77 142 78 133 1
-40 -22 -225 -30 -245 -6 -13 -18 -23 -30 -23 -11 0 -20 -4 -20 -10 0 -6 35
-10 85 -10 69 0 85 3 85 15 0 10 -10 15 -31 15 -28 0 -30 2 -25 28 2 15 10 74
16 132 15 144 17 149 45 156 46 11 26 24 -38 24 l-62 0 -73 -146 c-40 -81 -75
-144 -78 -141 -3 3 -12 59 -20 124 -21 177 -13 163 -89 163 -51 0 -65 -3 -65
-15z"/>
<path d="M984 4465 c-13 -32 23 -48 47 -19 10 13 10 17 -2 25 -21 13 -39 11
-45 -6z"/>
<path d="M3964 4465 c-13 -32 23 -48 47 -19 10 13 10 17 -2 25 -21 13 -39 11
-45 -6z"/>
<path d="M4070 4390 c-12 -23 -6 -40 14 -40 24 0 36 23 22 43 -17 22 -23 22
-36 -3z"/>
<path d="M887 4393 c-4 -3 -7 -15 -7 -25 0 -23 38 -25 47 -2 8 21 -24 43 -40
27z"/>
<path d="M2110 4384 c-69 -30 -110 -93 -110 -169 0 -56 32 -95 79 -95 33 0
120 26 135 41 18 17 -1 19 -37 4 -73 -30 -117 -14 -117 44 0 15 14 24 68 41
96 32 112 44 112 85 0 59 -57 81 -130 49z m80 -42 c0 -32 -28 -59 -75 -72 -25
-7 -47 -11 -50 -9 -10 11 36 89 62 102 32 17 63 7 63 -21z"/>
<path d="M2911 4390 c-76 -18 -125 -82 -126 -168 0 -47 3 -57 29 -79 27 -22
36 -25 84 -20 30 3 62 13 73 23 29 26 23 34 -16 18 -47 -19 -71 -18 -95 6 -48
48 7 193 75 200 36 4 43 0 49 -26 9 -34 30 -25 34 14 3 28 0 32 -22 32 -13 0
-30 2 -38 4 -7 2 -28 0 -47 -4z"/>
<path d="M3165 4381 c-48 -22 -69 -44 -90 -94 -48 -116 28 -213 113 -142 l29
24 11 -24 c13 -27 58 -35 80 -13 19 19 14 29 -13 22 -14 -3 -25 -5 -25 -3 0 2
11 46 25 97 33 124 33 126 -14 140 -51 16 -69 15 -116 -7z m95 -39 c0 -116
-103 -233 -138 -157 -30 66 37 185 105 185 30 0 33 -3 33 -28z"/>
<path d="M2630 4375 c-10 -13 -9 -15 9 -15 26 0 26 -13 1 -110 -11 -41 -20
-85 -20 -98 0 -21 4 -23 47 -20 27 2 48 8 51 16 3 9 -3 11 -24 6 -22 -6 -26
-4 -21 9 3 9 15 56 27 104 11 48 23 96 26 106 5 14 -1 17 -39 17 -27 0 -49 -6
-57 -15z"/>
<path d="M784 4296 c-3 -8 0 -24 6 -36 l12 -22 15 21 c12 17 12 25 3 36 -16
19 -29 19 -36 1z"/>
<path d="M4170 4295 c-21 -26 3 -42 37 -26 27 12 27 13 8 27 -24 18 -30 18
-45 -1z"/>
<path d="M4272 4218 c-27 -27 -5 -72 23 -48 18 15 19 21 2 43 -10 14 -15 15
-25 5z"/>
<path d="M685 4200 c-3 -5 -1 -19 6 -31 10 -19 12 -20 26 -6 9 9 13 23 10 31
-7 18 -32 21 -42 6z"/>
<path d="M600 4104 c-11 -12 -10 -18 3 -31 15 -15 18 -15 37 2 19 17 19 19 2
31 -22 17 -27 17 -42 -2z"/>
<path d="M4362 4108 c-16 -16 -15 -33 1 -46 20 -17 44 25 25 44 -11 11 -16 12
-26 2z"/>
<path d="M4439 4007 c-11 -24 -11 -30 2 -38 32 -20 50 12 25 46 -14 19 -15 19
-27 -8z"/>
<path d="M514 3995 c-13 -32 23 -48 47 -19 10 13 10 17 -2 25 -21 13 -39 11
-45 -6z"/>
<path d="M434 3889 c-3 -6 0 -18 9 -26 12 -12 18 -13 35 -2 16 10 18 16 10 26
-13 16 -44 17 -54 2z"/>
<path d="M4515 3890 c-8 -13 3 -50 15 -50 13 0 32 39 25 50 -8 13 -32 13 -40
0z"/>
<path d="M990 3854 c-56 -24 -80 -53 -80 -94 0 -51 28 -82 104 -118 35 -17 70
-40 76 -52 26 -49 -34 -100 -118 -100 -48 0 -62 14 -62 62 0 26 -4 38 -14 38
-15 0 -20 -12 -30 -72 -7 -36 -6 -37 31 -47 136 -38 253 14 253 113 0 56 -12
69 -97 111 -81 39 -98 66 -69 110 18 28 76 42 115 29 21 -8 27 -17 29 -47 3
-39 26 -52 36 -19 21 74 19 80 -21 91 -53 15 -112 13 -153 -5z"/>
<path d="M1981 3858 c-54 -9 -78 -28 -37 -28 27 0 28 -2 22 -31 -3 -17 -6 -38
-6 -45 0 -10 -15 -14 -54 -14 -89 0 -149 -56 -162 -153 -8 -60 9 -105 45 -114
35 -10 50 -6 89 23 30 24 32 24 32 5 0 -11 5 -23 11 -26 17 -11 77 4 83 20 4
12 0 14 -19 9 -14 -3 -25 -2 -25 4 0 5 16 85 36 176 19 92 34 171 32 175 -2 4
-23 3 -47 -1z m-43 -176 c8 -78 -48 -172 -102 -172 -36 0 -43 37 -21 111 22
72 62 113 98 100 15 -6 23 -18 25 -39z"/>
<path d="M3456 3856 c-56 -21 -87 -46 -120 -99 -59 -96 -42 -230 36 -277 49
-30 83 -33 142 -15 110 35 169 116 170 237 1 53 -3 72 -20 95 -45 60 -135 86
-208 59z m121 -31 c70 -49 37 -254 -50 -319 -43 -32 -93 -27 -130 14 -29 32
-29 36 -24 110 6 87 29 143 77 184 36 30 93 35 127 11z"/>
<path d="M3760 3835 c0 -9 9 -15 25 -15 31 0 31 -7 6 -114 -11 -44 -25 -107
-31 -139 -10 -52 -14 -58 -41 -64 -16 -3 -29 -12 -29 -20 0 -11 17 -13 82 -11
81 3 113 19 67 33 -19 6 -21 12 -17 57 5 50 36 97 55 85 6 -4 31 -42 56 -86
49 -84 66 -96 123 -89 32 4 46 28 15 28 -11 0 -31 14 -44 33 -28 38 -97 152
-97 161 0 12 149 124 174 130 52 13 25 26 -54 26 -63 0 -80 -3 -80 -14 0 -8
12 -16 26 -18 24 -3 19 -9 -57 -71 -47 -38 -85 -62 -86 -55 -2 7 3 38 10 68
11 49 15 55 40 58 15 2 27 9 27 18 0 11 -18 14 -85 14 -69 0 -85 -3 -85 -15z"/>
<path d="M1315 3789 c-9 -17 -32 -40 -51 -51 -40 -23 -44 -38 -10 -38 l24 0
-19 -82 c-24 -108 -24 -135 1 -148 14 -8 29 -7 55 4 43 18 47 38 5 30 -35 -8
-35 -9 -15 88 22 104 22 105 55 112 37 7 40 26 4 26 -25 0 -26 1 -20 45 8 53
-6 60 -29 14z"/>
<path d="M2765 3780 c-14 -22 -36 -42 -50 -46 -30 -7 -34 -34 -5 -34 24 0 24
4 0 -107 -11 -51 -17 -98 -14 -107 8 -22 33 -28 71 -15 42 14 46 41 4 33 l-29
-6 19 93 c11 51 23 97 27 100 4 4 18 9 31 11 35 4 38 26 4 30 -15 2 -27 8 -27
13 1 6 4 25 7 43 9 44 -7 41 -38 -8z"/>
<path d="M364 3775 c-13 -32 23 -48 47 -19 10 13 10 17 -2 25 -21 13 -39 11
-45 -6z"/>
<path d="M4587 3783 c-24 -23 12 -55 38 -33 12 10 13 16 4 26 -12 15 -31 18
-42 7z"/>
<path d="M2176 3735 c-22 -9 -48 -23 -59 -33 -51 -46 -74 -153 -42 -199 26
-37 74 -46 136 -26 38 13 55 24 58 38 3 15 0 17 -10 8 -8 -6 -32 -16 -54 -22
-51 -14 -85 5 -85 48 0 27 4 30 70 50 78 24 110 49 110 84 0 55 -55 78 -124
52z m74 -43 c0 -31 -30 -61 -71 -72 -22 -6 -44 -10 -49 -8 -17 6 28 86 57 101
32 17 63 7 63 -21z"/>
<path d="M2525 3730 c-16 -11 -42 -36 -57 -57 -30 -40 -31 -39 -19 25 7 36 6
42 -9 42 -39 0 -80 -13 -80 -26 0 -8 6 -11 15 -8 11 5 15 -1 15 -19 0 -22 -17
-117 -35 -194 -5 -19 -1 -23 20 -23 27 0 30 4 39 62 11 64 92 168 131 168 10
0 4 -67 -10 -120 -20 -73 -19 -97 4 -110 24 -12 66 1 74 24 5 13 2 15 -19 10
-28 -7 -28 -14 2 107 20 80 18 116 -5 129 -26 14 -31 13 -66 -10z"/>
<path d="M2949 3734 c-20 -8 -42 -26 -50 -40 -18 -35 2 -69 60 -103 62 -36 72
-57 42 -82 -37 -31 -101 -23 -101 12 0 29 -27 23 -34 -8 -9 -35 5 -43 81 -43
52 0 66 4 92 26 21 18 31 35 31 54 0 35 -18 53 -81 86 -51 25 -63 50 -34 74
26 21 67 15 88 -14 24 -33 33 -33 40 -1 5 29 -9 40 -63 49 -21 3 -49 0 -71
-10z"/>
<path d="M1430 3725 c-11 -14 -7 -19 13 -16 17 3 17 -30 -3 -114 -19 -80 -19
-90 -5 -111 9 -13 20 -24 26 -24 22 0 68 31 99 67 l33 38 -6 -33 c-12 -57 8
-72 71 -56 31 9 29 33 -2 27 l-25 -5 14 58 c29 120 39 174 33 180 -14 13 -48
-9 -54 -34 -14 -71 -79 -176 -114 -185 -30 -8 -32 18 -10 110 11 46 20 91 20
99 0 20 -74 19 -90 -1z"/>
<path d="M306 3671 c-21 -23 -14 -41 15 -41 20 0 25 24 11 48 -7 9 -13 8 -26
-7z"/>
<path d="M4657 3673 c-4 -3 -7 -15 -7 -25 0 -18 16 -23 45 -12 14 6 14 8 -1
25 -18 20 -27 23 -37 12z"/>
<path d="M244 3545 c-18 -13 -18 -15 -3 -30 14 -14 20 -15 38 -3 26 16 26 20
2 35 -15 9 -23 9 -37 -2z"/>
<path d="M4711 3541 c-8 -14 -6 -22 9 -36 17 -16 19 -16 30 5 9 16 9 25 -1 36
-16 19 -26 18 -38 -5z"/>
<path d="M4772 3438 c-16 -16 -15 -33 2 -47 10 -9 16 -8 26 3 16 21 -10 62
-28 44z"/>
<path d="M187 3416 c-3 -8 1 -20 9 -27 12 -10 18 -9 31 3 8 9 12 21 9 27 -10
16 -43 14 -49 -3z"/>
<path d="M142 3297 c-9 -10 -7 -19 4 -36 l16 -22 15 21 c12 16 12 24 3 35 -15
18 -24 19 -38 2z"/>
<path d="M4814 3296 c-8 -22 3 -49 19 -43 6 2 12 14 12 27 0 27 -22 39 -31 16z"/>
<path d="M102 3168 c-13 -13 2 -38 23 -38 21 0 36 25 23 38 -7 7 -17 12 -23
12 -6 0 -16 -5 -23 -12z"/>
<path d="M1735 3163 c-94 -49 -135 -145 -135 -316 0 -64 -2 -71 -30 -97 -16
-15 -30 -33 -30 -39 0 -6 30 -26 68 -44 54 -26 73 -42 100 -82 18 -27 31 -57
30 -64 -2 -8 -76 -65 -166 -127 -224 -153 -222 -151 -243 -200 -19 -41 -19
-61 -13 -331 7 -333 20 -423 79 -549 l37 -79 5 -175 c3 -96 9 -182 14 -192 9
-17 203 -86 319 -113 84 -19 220 -19 295 0 85 22 188 72 222 107 27 29 28 32
34 171 5 140 6 144 50 247 l44 105 0 405 0 405 -24 38 c-27 44 -115 116 -370
304 -8 5 34 74 64 106 17 18 47 45 68 61 43 34 47 58 12 74 -33 15 -43 43 -50
139 -13 150 -38 183 -173 232 -97 34 -161 39 -207 14z m197 -199 c13 -29 37
-57 62 -74 79 -55 79 -55 74 -131 -7 -87 -45 -167 -111 -231 -75 -74 -89 -74
-164 5 -71 76 -107 140 -121 217 -10 55 1 117 17 92 5 -8 24 -10 59 -5 55 6
75 19 47 29 -13 5 -8 12 22 28 24 14 47 38 63 69 14 26 26 47 27 47 2 0 13
-21 25 -46z m115 -480 l44 -26 -23 -37 c-13 -21 -59 -95 -103 -165 l-79 -127
-18 23 c-41 53 -178 279 -178 293 0 8 17 23 38 34 l37 19 39 -34 c22 -19 49
-34 60 -34 12 0 45 18 75 40 29 22 56 40 59 40 3 0 25 -12 49 -26z m123 -76
l43 -32 -29 -13 c-16 -6 -35 -12 -41 -13 -17 0 -16 -11 3 -38 8 -12 14 -27 12
-32 -5 -14 -213 -140 -216 -131 -3 9 170 291 179 291 3 0 25 -14 49 -32z
m-437 -102 c42 -68 77 -128 77 -135 0 -6 -49 14 -110 44 -60 30 -110 58 -110
61 0 3 9 19 21 35 l20 29 -40 6 c-23 4 -41 10 -41 14 0 7 90 70 100 70 3 0 40
-56 83 -124z m550 17 c51 -39 85 -89 104 -153 14 -48 15 -101 10 -400 -7 -372
-12 -417 -64 -512 -28 -51 -105 -138 -140 -156 -17 -10 -28 -6 -62 18 -22 17
-41 35 -41 42 0 6 24 48 54 92 109 162 126 230 125 501 -1 210 -16 332 -18
150 -3 -189 -20 -420 -35 -466 -21 -67 -59 -137 -102 -192 -40 -49 -150 -137
-171 -137 -9 0 -13 17 -13 53 0 28 -5 185 -10 347 -14 427 -14 578 0 594 6 8
68 47 138 87 70 40 128 73 130 75 2 1 -4 14 -14 29 -17 26 -17 28 1 41 29 22
68 17 108 -13z m-712 -14 c-2 -8 -5 -21 -8 -29 -3 -11 35 -36 137 -90 78 -41
148 -84 156 -95 10 -16 17 -126 29 -480 8 -253 15 -473 15 -489 0 -29 0 -29
-51 -23 -102 12 -188 92 -268 247 -58 114 -79 216 -73 353 l2 37 123 0 c157 0
162 3 162 99 0 102 -5 105 -160 109 l-124 4 -7 31 -8 32 -7 -40 c-4 -22 -7
-123 -8 -225 -2 -267 16 -331 140 -520 32 -50 59 -99 59 -110 0 -10 -12 -28
-26 -39 l-26 -21 -29 20 c-43 31 -148 177 -184 255 -56 120 -63 171 -70 495
-5 229 -4 306 6 339 14 47 94 135 143 156 34 15 83 5 77 -16z m193 -395 c18
-17 22 -119 6 -144 -7 -12 -37 -16 -135 -18 l-125 -4 0 91 0 91 119 0 c95 0
123 -3 135 -16z m-118 -939 c86 -96 164 -177 172 -180 8 -3 28 2 45 10 42 21
47 19 47 -15 0 -29 -2 -30 -43 -30 -72 0 -367 108 -392 143 -22 31 -22 276 -1
258 8 -7 85 -90 172 -186z m654 46 l0 -120 -32 -24 c-54 -40 -135 -77 -216
-98 -99 -25 -102 -25 -102 12 0 35 3 38 200 218 69 62 127 118 128 122 2 5 8
9 13 9 5 0 9 -54 9 -119z m-188 73 l49 -37 -43 -44 c-68 -70 -158 -146 -165
-139 -4 3 4 18 18 34 l24 27 -26 -22 c-39 -35 -54 -29 -29 12 21 35 14 49 -10
20 -7 -8 -20 -15 -29 -15 -10 0 -2 12 24 35 45 39 39 46 -12 14 -41 -26 -50
-21 -23 14 26 33 25 37 -7 37 -21 0 -24 3 -15 12 22 22 147 86 171 87 13 0 46
-15 73 -35z m-307 -18 l30 -13 -27 -8 -28 -7 38 -45 c34 -42 35 -45 12 -38
-23 7 -23 7 -10 -13 8 -11 30 -39 48 -61 48 -58 30 -51 -28 12 -62 67 -74 58
-14 -11 25 -29 41 -52 36 -52 -6 0 -28 21 -50 48 -22 26 -44 44 -48 39 -4 -4
11 -27 34 -50 42 -43 54 -65 27 -50 -26 15 -165 187 -165 205 0 22 56 58 90
58 14 -1 39 -7 55 -14z"/>
<path d="M1900 2860 c-11 -7 3 -10 45 -10 42 0 56 3 45 10 -8 5 -28 10 -45 10
-16 0 -37 -5 -45 -10z"/>
<path d="M1721 2802 c-9 -17 -7 -21 13 -26 32 -8 58 3 54 23 -5 24 -54 27 -67
3z"/>
<path d="M1916 2804 c-10 -27 -7 -34 18 -34 26 0 51 24 41 40 -10 16 -52 12
-59 -6z"/>
<path d="M1830 2681 c0 -22 49 -27 76 -6 18 13 15 14 -28 15 -27 0 -48 -4 -48
-9z"/>
<path d="M1800 2609 c18 -33 29 -39 77 -39 32 0 46 5 57 22 21 29 12 39 -25
26 -30 -10 -68 -8 -103 7 -17 7 -17 6 -6 -16z"/>
<path d="M4853 3169 c-16 -16 -5 -39 17 -39 25 0 35 18 20 35 -15 18 -22 19
-37 4z"/>
<path d="M2975 3136 c-43 -19 -79 -59 -109 -121 -53 -112 -70 -239 -42 -306 8
-19 49 -85 91 -147 42 -63 74 -117 70 -120 -3 -3 -97 -70 -208 -147 -121 -85
-211 -155 -225 -176 l-23 -34 3 -355 c5 -396 10 -434 82 -584 l35 -72 3 -192
c4 -228 -3 -216 138 -261 159 -50 270 -73 382 -78 122 -6 202 12 319 74 113
59 114 60 115 232 l0 147 50 99 49 98 3 419 c3 466 1 488 -61 569 -30 40 -136
123 -289 226 -38 25 -68 52 -68 60 0 8 29 73 65 144 36 72 65 142 65 157 0 48
-57 240 -79 268 -32 41 -50 51 -149 84 -97 32 -168 38 -217 16z m230 -238 c22
-34 39 -65 37 -67 -1 -3 -20 -5 -42 -4 -40 1 -53 -10 -24 -21 26 -10 99 -7
111 5 17 17 53 -37 53 -80 0 -97 -55 -215 -136 -291 -70 -67 -86 -65 -161 13
-72 75 -107 133 -127 212 -22 83 -21 122 4 130 11 3 24 4 30 0 14 -9 130 6
130 16 0 5 -12 9 -27 9 l-28 0 34 21 c40 24 65 53 82 92 6 15 14 27 18 27 3 0
24 -28 46 -62z m112 -494 c29 -17 41 -29 36 -38 -124 -202 -208 -326 -219
-324 -18 4 -194 287 -194 312 0 26 29 56 54 56 12 0 41 -14 66 -30 25 -16 52
-30 61 -30 9 0 43 18 75 40 33 22 63 40 68 40 5 0 29 -11 53 -26z m125 -76
c26 -18 48 -36 48 -39 0 -4 -20 -12 -45 -18 -25 -6 -45 -14 -45 -17 0 -3 9
-19 21 -36 12 -16 20 -31 17 -33 -18 -18 -234 -142 -236 -135 -3 8 179 309
187 310 3 0 26 -15 53 -32z m-467 -114 c47 -75 85 -139 83 -144 -2 -6 -220 92
-237 107 -3 2 6 17 18 34 13 17 21 32 19 33 -1 2 -23 10 -47 17 l-43 15 53 36
c30 20 57 37 61 37 3 1 45 -60 93 -135z m594 16 c53 -38 97 -107 112 -174 7
-35 10 -167 7 -421 -4 -348 -6 -374 -26 -436 -28 -84 -61 -144 -113 -203 -38
-43 -85 -76 -108 -76 -18 0 -71 52 -71 69 0 10 26 58 58 107 33 49 72 121 88
159 28 68 29 75 32 285 2 118 0 244 -4 280 -7 51 -10 13 -15 -185 -5 -232 -7
-256 -31 -327 -31 -94 -83 -188 -138 -250 -44 -51 -160 -132 -171 -120 -4 4
-13 235 -19 513 -14 573 -16 550 63 590 92 47 227 131 227 141 0 6 -8 20 -17
31 -17 18 -17 19 2 33 31 23 78 17 124 -16z m-778 10 c17 -10 18 -13 5 -38
l-14 -28 148 -78 c81 -43 158 -88 170 -101 21 -22 22 -35 36 -466 7 -244 14
-482 14 -528 l0 -83 -47 7 c-105 15 -168 65 -259 205 -77 119 -96 184 -102
343 l-5 137 133 0 c168 0 170 2 170 109 0 42 -5 83 -10 91 -7 12 -40 16 -152
20 l-143 5 -3 33 c-2 18 -8 30 -13 27 -5 -4 -9 -114 -9 -263 0 -331 7 -357
140 -561 38 -59 70 -114 70 -122 0 -9 -14 -28 -30 -44 l-30 -29 -46 45 c-104
101 -186 236 -225 371 -18 63 -22 118 -31 398 -8 247 -8 335 1 368 13 47 70
116 135 164 42 30 65 34 97 18z m223 -446 c21 -21 21 -112 0 -142 -14 -21 -22
-22 -145 -22 l-129 0 0 90 0 90 129 0 c104 0 133 -3 145 -16z m-302 -808 c22
-41 350 -396 366 -396 8 0 30 9 48 21 l34 21 0 -36 c0 -43 -5 -44 -135 -17
-78 16 -197 58 -301 107 l-31 15 -7 138 c-5 122 -3 171 10 171 2 0 9 -11 16
-24z m662 -63 c31 -21 56 -42 56 -47 0 -19 -190 -186 -211 -186 -6 0 5 18 22
40 18 22 30 42 27 45 -3 3 -20 -12 -38 -35 -30 -38 -50 -50 -50 -31 0 5 11 23
25 39 35 42 31 48 -10 16 -49 -37 -58 -20 -12 23 49 44 42 55 -7 12 -41 -35
-57 -33 -32 5 21 33 20 46 -3 43 -47 -5 -19 22 68 66 51 26 97 47 101 47 4 0
33 -17 64 -37z m206 -88 c0 -145 2 -142 -114 -199 -72 -36 -163 -63 -226 -68
-26 -2 -35 1 -38 15 -7 36 8 62 52 90 24 15 106 86 181 157 76 72 139 130 141
130 2 0 4 -56 4 -125z m-535 66 c31 -15 35 -20 18 -20 -12 -1 -24 -5 -27 -9
-3 -5 27 -48 65 -96 39 -48 69 -90 66 -92 -2 -3 -24 20 -48 50 -24 30 -50 55
-56 56 -21 0 -16 -8 39 -71 28 -32 49 -61 46 -64 -3 -3 -31 21 -62 52 -32 32
-54 49 -48 38 6 -11 26 -36 46 -54 20 -19 36 -40 36 -45 0 -6 -25 14 -55 44
-65 64 -72 58 -14 -12 23 -27 39 -52 35 -55 -7 -8 -5 -10 -115 120 -83 97 -83
98 -65 120 52 62 75 68 139 38z"/>
<path d="M2982 2768 c-18 -18 -14 -38 7 -38 11 0 25 -2 33 -5 7 -3 22 1 33 9
16 12 17 16 6 30 -16 19 -62 21 -79 4z"/>
<path d="M3176 2764 c-20 -19 -20 -28 -2 -43 11 -9 23 -8 52 4 36 15 36 16 19
35 -22 24 -48 26 -69 4z"/>
<path d="M3084 2625 c11 -8 32 -15 46 -15 14 0 35 7 46 15 17 13 13 14 -46 14
-59 0 -63 -1 -46 -14z"/>
<path d="M3171 2563 c-23 -10 -50 -12 -78 -8 -35 5 -43 3 -43 -9 0 -39 115
-51 150 -16 37 37 22 54 -29 33z"/>
<path d="M77 3043 c-24 -23 12 -55 38 -33 12 10 13 16 4 26 -12 15 -31 18 -42
7z"/>
<path d="M4887 3043 c-11 -10 -8 -41 5 -49 17 -11 40 26 27 43 -13 14 -22 16
-32 6z"/>
<path d="M44 2905 c-13 -32 23 -48 47 -19 10 13 10 17 -2 25 -21 13 -39 11
-45 -6z"/>
<path d="M4911 2911 c-16 -11 -6 -51 14 -51 16 0 29 35 20 50 -8 12 -16 12
-34 1z"/>
<path d="M22 2778 c-13 -13 2 -38 24 -38 20 0 27 19 14 35 -15 18 -22 19 -38
3z"/>
<path d="M4923 2774 c-3 -8 1 -22 9 -30 12 -12 17 -12 33 0 16 12 17 16 6 30
-17 20 -40 21 -48 0z"/>
<path d="M20 2650 c-15 -28 5 -57 26 -39 18 15 18 33 0 48 -12 10 -17 8 -26
-9z"/>
<path d="M4941 2651 c-16 -29 3 -58 25 -40 17 14 17 20 0 44 -13 18 -14 18
-25 -4z"/>
<path d="M13 2513 c-21 -8 -15 -30 9 -37 27 -6 43 7 35 28 -6 16 -21 19 -44 9z"/>
<path d="M4942 2512 c-14 -9 -6 -42 10 -42 5 0 19 5 30 11 21 11 21 12 3 25
-22 16 -25 17 -43 6z"/>
<path d="M20 2380 c-12 -23 -6 -40 15 -40 19 0 27 17 20 40 -8 26 -21 25 -35
0z"/>
<path d="M4941 2380 c-21 -12 -5 -42 21 -38 12 2 23 8 25 15 6 16 -30 34 -46
23z"/>
<path d="M24 2235 c-4 -9 -2 -21 4 -27 15 -15 44 -1 40 19 -4 23 -36 29 -44 8z"/>
<path d="M4924 2239 c-3 -6 1 -18 10 -27 15 -15 17 -15 34 1 15 16 15 19 2 27
-20 13 -37 12 -46 -1z"/>
<path d="M47 2113 c-24 -23 12 -55 38 -33 12 10 13 16 4 26 -12 15 -31 18 -42
7z"/>
<path d="M4907 2113 c-24 -23 12 -55 38 -33 12 10 13 16 4 26 -12 15 -31 18
-42 7z"/>
<path d="M4887 1993 c-11 -10 -8 -41 3 -48 19 -12 41 15 29 36 -10 20 -21 24
-32 12z"/>
<path d="M72 1978 c-8 -8 -9 -15 -1 -25 15 -17 34 -17 48 1 10 12 8 17 -8 25
-24 14 -24 14 -39 -1z"/>
<path d="M4851 1852 c-8 -15 -7 -23 5 -33 18 -15 38 0 32 27 -5 25 -25 28 -37
6z"/>
<path d="M101 1847 c-8 -10 -7 -19 4 -33 13 -18 15 -18 31 -2 18 18 13 48 -9
48 -8 0 -20 -6 -26 -13z"/>
<path d="M140 1724 c-11 -12 -10 -18 3 -32 16 -15 18 -15 34 0 13 14 14 20 3
32 -7 9 -16 16 -20 16 -4 0 -13 -7 -20 -16z"/>
<path d="M4813 1714 c-9 -24 11 -38 37 -24 17 9 19 14 9 26 -15 19 -38 18 -46
-2z"/>
<path d="M193 1599 c-16 -16 -5 -39 17 -39 25 0 35 18 20 35 -15 18 -22 19
-37 4z"/>
<path d="M4766 1594 c-11 -30 13 -44 43 -25 12 8 12 12 2 25 -17 20 -37 20
-45 0z"/>
<path d="M240 1474 c-11 -12 -11 -18 2 -30 13 -13 19 -14 36 -3 20 12 20 15 5
31 -20 22 -27 22 -43 2z"/>
<path d="M4717 1483 c-10 -10 -8 -41 3 -48 5 -3 19 -1 31 5 20 11 20 12 3 31
-18 20 -27 23 -37 12z"/>
<path d="M300 1354 c-11 -12 -11 -18 2 -30 13 -13 19 -14 36 -3 20 12 20 15 5
31 -20 22 -27 22 -43 2z"/>
<path d="M4657 1363 c-12 -11 -8 -41 6 -46 7 -3 21 1 32 9 18 14 18 14 -1 29
-22 16 -28 18 -37 8z"/>
<path d="M370 1245 c-15 -18 -6 -45 14 -45 20 0 29 16 21 40 -8 24 -18 25 -35
5z"/>
<path d="M4591 1246 c-16 -19 -7 -46 14 -46 22 0 30 29 13 46 -13 13 -16 13
-27 0z"/>
<path d="M4522 1138 c-16 -16 -15 -33 2 -47 21 -18 41 11 26 38 -13 25 -12 25
-28 9z"/>
<path d="M440 1125 c-19 -22 5 -48 31 -34 10 5 19 14 19 19 0 5 -9 14 -19 19
-14 8 -22 7 -31 -4z"/>
<path d="M521 1026 c-16 -19 -7 -46 14 -46 22 0 30 29 13 46 -13 13 -16 13
-27 0z"/>
<path d="M4434 1015 c-12 -29 15 -45 45 -26 12 8 12 12 2 25 -17 20 -40 21
-47 1z"/>
<path d="M597 913 c-10 -9 -8 -15 8 -37 15 -19 15 -19 29 -1 8 11 12 25 9 32
-5 14 -35 18 -46 6z"/>
<path d="M4354 905 c-7 -18 3 -35 21 -35 15 0 24 19 18 38 -6 17 -32 15 -39
-3z"/>
<path d="M690 815 c-8 -10 -8 -19 2 -34 15 -25 24 -26 32 -5 15 38 -10 67 -34
39z"/>
<path d="M4267 823 c-11 -10 -8 -41 4 -49 6 -3 18 1 27 9 13 13 13 19 2 31
-14 17 -23 20 -33 9z"/>
<path d="M4170 724 c-11 -12 -10 -18 3 -31 22 -23 52 0 36 28 -12 23 -22 24
-39 3z"/>
<path d="M787 723 c-24 -23 12 -55 38 -33 12 10 13 16 4 26 -12 15 -31 18 -42
7z"/>
<path d="M887 643 c-11 -10 -8 -41 4 -49 6 -3 18 1 27 9 13 13 13 19 2 31 -14
17 -23 20 -33 9z"/>
<path d="M4073 624 c-9 -24 11 -38 37 -24 17 9 19 14 9 26 -15 19 -38 18 -46
-2z"/>
<path d="M3970 555 c-15 -18 -6 -45 14 -45 20 0 29 16 21 40 -8 24 -18 25 -35
5z"/>
<path d="M991 551 c-16 -10 -8 -41 11 -41 7 0 19 4 27 9 12 8 12 12 2 25 -15
18 -21 19 -40 7z"/>
<path d="M3862 478 c-17 -17 -15 -35 5 -42 22 -9 36 7 28 33 -7 24 -16 26 -33
9z"/>
<path d="M1094 465 c-12 -29 15 -45 45 -26 12 8 12 12 2 25 -17 20 -40 21 -47
1z"/>
<path d="M3751 406 c-16 -19 -7 -46 14 -46 22 0 30 29 13 46 -13 13 -16 13
-27 0z"/>
<path d="M1210 395 c-21 -25 2 -42 36 -26 26 11 26 12 8 26 -24 18 -29 18 -44
0z"/>
<path d="M1327 343 c-11 -10 -8 -41 4 -49 6 -3 18 1 27 9 13 13 13 19 2 31
-14 17 -23 20 -33 9z"/>
<path d="M3631 326 c-18 -21 11 -41 39 -26 17 9 19 14 9 26 -15 18 -33 18 -48
0z"/>
<path d="M1440 274 c-11 -12 -10 -18 3 -32 16 -15 18 -15 34 0 13 14 14 20 3
32 -7 9 -16 16 -20 16 -4 0 -13 -7 -20 -16z"/>
<path d="M3509 274 c-10 -12 -9 -18 3 -30 13 -13 20 -14 37 -4 23 12 21 24 -9
40 -13 7 -21 6 -31 -6z"/>
<path d="M3390 225 c-15 -18 -6 -45 14 -45 20 0 29 16 21 40 -8 24 -18 25 -35
5z"/>
<path d="M1567 223 c-24 -23 12 -55 38 -33 12 10 13 16 4 26 -12 15 -31 18
-42 7z"/>
<path d="M1689 174 c-10 -12 -9 -18 4 -31 13 -13 19 -14 31 -3 21 17 20 27 -3
39 -14 8 -22 7 -32 -5z"/>
<path d="M3260 163 c0 -10 5 -25 10 -33 9 -13 12 -12 25 5 19 24 15 39 -13 43
-16 2 -22 -2 -22 -15z"/>
<path d="M3142 148 c-16 -16 -15 -33 2 -47 21 -18 41 11 26 38 -13 25 -12 25
-28 9z"/>
<path d="M1820 134 c-11 -12 -11 -18 1 -30 13 -12 18 -12 34 0 16 12 17 16 6
30 -17 20 -25 20 -41 0z"/>
<path d="M1944 99 c-3 -6 1 -18 10 -27 15 -15 17 -15 34 1 15 16 15 19 2 27
-20 13 -37 12 -46 -1z"/>
<path d="M3004 95 c-13 -32 23 -48 47 -19 10 13 10 17 -2 25 -21 13 -39 11
-45 -6z"/>
<path d="M2081 86 c-16 -19 -7 -46 14 -46 22 0 30 29 13 46 -13 13 -16 13 -27
0z"/>
<path d="M2880 75 c-22 -26 7 -46 39 -26 12 8 12 12 2 25 -17 20 -25 20 -41 1z"/>
<path d="M2210 55 c-11 -13 -11 -19 4 -33 15 -15 18 -15 26 -2 22 33 -6 64
-30 35z"/>
<path d="M2610 55 c-25 -30 10 -61 38 -33 7 7 8 17 1 30 -12 22 -23 23 -39 3z"/>
<path d="M2741 57 c-8 -10 -7 -19 4 -33 13 -18 15 -18 31 -2 14 14 15 20 4 32
-15 19 -24 20 -39 3z"/>
<path d="M2347 53 c-24 -23 12 -55 38 -33 12 10 13 16 4 26 -12 15 -31 18 -42
7z"/>
<path d="M2470 41 c0 -21 13 -41 26 -41 8 0 14 4 14 9 0 5 3 16 6 25 5 12 0
16 -20 16 -14 0 -26 -4 -26 -9z"/>
</g>
</svg>
