<?xml version="1.0" standalone="no"?>
<!DOCTYPE svg PUBLIC "-//W3C//DTD SVG 20010904//EN"
 "http://www.w3.org/TR/2001/REC-SVG-20010904/DTD/svg10.dtd">
<svg version="1.0" xmlns="http://www.w3.org/2000/svg"
 width="499.000000pt" height="500.000000pt" viewBox="0 0 499.000000 500.000000"
 preserveAspectRatio="xMidYMid meet">
<metadata>
Created by potrace 1.15, written by Peter Selinger 2001-2017
</metadata>
<g transform="translate(0.000000,500.000000) scale(0.100000,-0.100000)"
fill="#000000" stroke="none">
<path d="M2340 4985 c-9 -11 -11 -22 -4 -32 13 -21 25 -21 38 -1 8 14 7 21 -5
33 -14 15 -17 15 -29 0z"/>
<path d="M2470 4984 c-11 -12 -10 -18 3 -31 15 -15 18 -15 37 2 19 17 19 19 2
31 -22 17 -27 17 -42 -2z"/>
<path d="M2610 4985 c-25 -30 10 -61 38 -33 17 17 15 26 -7 37 -14 8 -22 7
-31 -4z"/>
<path d="M2205 4970 c-4 -6 -1 -17 5 -25 9 -11 17 -12 32 -4 15 8 17 13 7 25
-14 16 -35 18 -44 4z"/>
<path d="M2733 4964 c-3 -8 1 -22 9 -30 13 -13 16 -13 27 0 7 9 11 23 7 31 -7
20 -35 19 -43 -1z"/>
<path d="M2074 4955 c-4 -8 -3 -22 0 -30 5 -13 10 -14 28 -4 33 17 33 18 12
34 -24 18 -33 19 -40 0z"/>
<path d="M2870 4955 c-9 -11 -9 -18 3 -35 14 -20 14 -20 31 -1 16 17 16 20 1
35 -20 19 -20 19 -35 1z"/>
<path d="M1941 4927 c-8 -10 -7 -19 4 -33 15 -19 15 -19 30 0 11 14 12 23 4
33 -6 7 -15 13 -19 13 -4 0 -13 -6 -19 -13z"/>
<path d="M2993 4924 c-3 -8 2 -23 11 -32 16 -16 18 -16 31 2 11 14 12 23 4 33
-15 18 -38 16 -46 -3z"/>
<path d="M1817 4903 c-4 -3 -7 -15 -7 -25 0 -20 25 -24 50 -8 13 8 12 11 -5
24 -23 17 -29 19 -38 9z"/>
<path d="M3130 4895 c-23 -28 21 -50 48 -23 9 9 7 14 -6 24 -22 17 -27 17 -42
-1z"/>
<path d="M1684 4855 c-8 -20 3 -48 18 -43 6 2 16 12 22 21 8 13 7 20 -4 27
-21 14 -30 12 -36 -5z"/>
<path d="M3260 4855 c-22 -26 7 -46 39 -26 12 8 12 12 2 25 -17 20 -25 20 -41
1z"/>
<path d="M1560 4819 c-10 -17 -9 -24 3 -36 8 -9 20 -12 26 -9 16 10 14 41 -3
55 -12 10 -17 8 -26 -10z"/>
<path d="M3382 4798 c4 -28 19 -32 43 -13 17 13 18 16 5 25 -27 18 -52 12 -48
-12z"/>
<path d="M1440 4765 c-15 -18 -6 -45 14 -45 20 0 29 16 21 40 -8 24 -18 25
-35 5z"/>
<path d="M3504 4755 c-4 -9 -2 -21 4 -27 15 -15 44 -1 40 19 -4 23 -36 29 -44
8z"/>
<path d="M3632 4708 c-24 -24 -9 -54 22 -42 19 7 21 28 3 43 -10 8 -17 7 -25
-1z"/>
<path d="M1313 4694 c-3 -8 1 -22 9 -30 13 -13 16 -13 27 0 7 9 11 23 7 31 -7
20 -35 19 -43 -1z"/>
<path d="M1200 4635 c-10 -12 -10 -18 0 -29 16 -20 42 -8 38 17 -4 26 -21 32
-38 12z"/>
<path d="M3734 4629 c-3 -6 1 -18 10 -27 14 -14 17 -14 36 3 16 14 17 20 8 27
-18 11 -46 10 -54 -3z"/>
<path d="M3850 4564 c-11 -12 -10 -18 3 -31 22 -23 52 0 36 28 -12 23 -22 24
-39 3z"/>
<path d="M1084 4559 c-3 -6 1 -18 10 -27 15 -15 17 -15 34 1 15 16 15 19 2 27
-20 13 -37 12 -46 -1z"/>
<path d="M2074 4545 c-8 -21 3 -45 20 -45 20 0 29 16 21 40 -7 23 -33 27 -41
5z"/>
<path d="M2990 4540 c-13 -25 -5 -40 20 -40 24 0 31 11 23 38 -7 28 -29 28
-43 2z"/>
<path d="M3204 4541 c-27 -17 -39 -36 -57 -93 -3 -9 -16 -18 -28 -20 -33 -4
-36 -28 -5 -28 14 0 26 -3 26 -7 -1 -29 -62 -278 -71 -289 -17 -20 -37 -17
-44 7 -9 27 -29 19 -33 -14 -3 -21 2 -28 22 -33 37 -9 89 12 108 44 9 15 26
79 38 142 28 153 26 148 62 152 43 4 49 28 8 28 -31 0 -32 1 -26 32 7 35 32
68 52 68 7 0 20 -9 28 -21 17 -25 36 -17 36 16 0 39 -63 48 -116 16z"/>
<path d="M2350 4535 c-10 -13 -9 -15 10 -15 20 0 22 -3 15 -37 -9 -51 -11 -52
-48 -46 -72 11 -146 -50 -166 -138 -18 -78 8 -129 64 -129 22 0 43 9 63 29
l31 28 3 -26 c2 -21 9 -27 34 -29 19 -2 36 3 44 12 11 14 9 16 -9 16 -11 0
-21 5 -21 10 0 10 53 263 65 313 7 26 6 27 -33 27 -23 0 -45 -6 -52 -15z m-1
-129 c9 -11 9 -28 -3 -72 -18 -69 -43 -105 -80 -119 -24 -8 -30 -6 -46 15 -20
26 -20 35 7 108 23 64 93 103 122 68z"/>
<path d="M1520 4530 c0 -5 9 -10 19 -10 11 0 22 -4 25 -8 5 -8 -69 -275 -81
-295 -3 -4 -16 -12 -29 -17 -59 -23 -8 -38 79 -24 34 6 53 24 24 24 -32 0 -35
21 -15 93 43 158 49 179 53 175 3 -2 11 -58 20 -124 20 -161 21 -164 48 -164
18 0 34 24 92 136 39 75 73 138 76 140 7 4 2 -65 -11 -171 -5 -38 -13 -71 -18
-73 -5 -1 -18 -9 -28 -17 -17 -13 -10 -14 64 -15 48 0 82 4 82 10 0 6 -9 10
-19 10 -11 0 -23 4 -26 10 -10 16 25 294 38 302 7 4 17 8 24 8 6 0 15 5 18 10
4 6 -17 10 -57 10 l-63 0 -73 -146 c-40 -81 -75 -145 -77 -143 -2 2 -11 68
-21 147 l-17 142 -64 0 c-35 0 -63 -4 -63 -10z"/>
<path d="M977 4476 c-3 -8 0 -20 8 -26 19 -16 59 8 43 27 -14 17 -45 17 -51
-1z"/>
<path d="M3957 4476 c-3 -8 0 -20 8 -26 19 -16 59 8 43 27 -14 17 -45 17 -51
-1z"/>
<path d="M2683 4432 c-18 -3 -23 -10 -23 -34 0 -33 -59 -160 -71 -152 -4 2
-10 37 -14 76 -10 107 -10 108 -56 108 -41 0 -56 -23 -21 -32 16 -4 21 -23 31
-112 12 -101 14 -106 36 -106 19 0 31 14 61 69 38 71 54 81 54 33 0 -15 5 -44
11 -65 18 -66 44 -49 115 78 35 61 63 116 63 123 1 9 -10 12 -36 10 -39 -3
-60 -28 -23 -28 20 0 19 -5 -22 -80 -24 -44 -46 -80 -49 -80 -4 0 -10 30 -14
68 -11 111 -17 127 -42 124z"/>
<path d="M3355 4417 c-48 -27 -80 -73 -89 -125 -7 -47 9 -98 34 -112 45 -24
160 0 174 36 6 16 -5 19 -19 5 -6 -6 -30 -14 -53 -20 -38 -8 -46 -7 -63 10
-37 37 -22 61 57 89 84 30 104 44 104 76 0 61 -73 82 -145 41z m86 -19 c4 -46
-18 -72 -73 -86 l-40 -10 6 31 c3 18 17 42 32 55 27 24 73 30 75 10z"/>
<path d="M2007 4423 c-13 -12 -7 -23 13 -23 24 0 25 5 -4 -106 -15 -61 -20
-97 -14 -108 11 -20 61 -21 78 -1 10 13 9 15 -9 15 -26 0 -26 -6 4 118 14 57
25 105 25 108 0 7 -86 5 -93 -3z"/>
<path d="M2933 4423 c-20 -8 -15 -23 7 -23 23 0 23 9 -11 -129 -14 -55 -16
-77 -8 -88 15 -18 64 -17 79 2 10 13 9 15 -9 15 -11 0 -21 4 -21 10 0 10 37
173 46 203 4 14 -1 17 -33 16 -21 0 -44 -3 -50 -6z"/>
<path d="M4067 4413 c-11 -10 -8 -41 4 -49 6 -3 18 1 27 9 13 13 13 19 2 31
-14 17 -23 20 -33 9z"/>
<path d="M877 4403 c-23 -22 14 -53 39 -32 11 9 11 15 3 25 -12 15 -31 18 -42
7z"/>
<path d="M773 4304 c-3 -8 1 -22 9 -30 13 -13 16 -13 27 0 7 9 11 23 7 31 -7
20 -35 19 -43 -1z"/>
<path d="M4160 4303 c0 -10 5 -25 10 -33 8 -13 11 -13 26 2 9 9 14 24 11 32
-9 22 -47 21 -47 -1z"/>
<path d="M4260 4220 c-14 -26 0 -46 24 -37 20 8 21 31 2 46 -12 10 -17 8 -26
-9z"/>
<path d="M683 4214 c-3 -8 1 -22 8 -29 12 -12 17 -12 33 1 20 14 20 14 0 29
-25 19 -33 19 -41 -1z"/>
<path d="M593 4121 c-10 -15 -9 -22 6 -35 17 -15 19 -15 31 0 10 11 11 20 4
32 -15 23 -28 24 -41 3z"/>
<path d="M4344 4115 c-12 -29 15 -45 45 -26 12 8 12 12 2 25 -17 20 -40 21
-47 1z"/>
<path d="M511 4018 c-11 -17 -10 -23 3 -37 15 -14 18 -14 26 -1 13 21 12 36
-3 48 -10 8 -16 6 -26 -10z"/>
<path d="M4427 4006 c-9 -23 18 -39 43 -26 17 9 19 14 9 26 -15 18 -45 18 -52
0z"/>
<path d="M4510 3910 c-15 -28 5 -57 26 -39 18 15 18 33 0 48 -12 10 -17 8 -26
-9z"/>
<path d="M436 3904 c-13 -12 -14 -19 -5 -30 14 -17 20 -17 43 -1 16 12 16 14
-2 30 -18 17 -21 17 -36 1z"/>
<path d="M2178 3913 c-24 -6 -23 -19 1 -26 13 -3 18 -11 16 -23 -27 -118 -55
-270 -55 -294 0 -23 5 -31 24 -36 26 -6 66 10 66 27 0 5 -8 9 -17 7 -28 -5
-26 23 10 190 19 83 31 154 29 157 -6 6 -49 5 -74 -2z"/>
<path d="M2772 3909 c-13 -5 -20 -13 -17 -19 4 -6 10 -8 15 -5 15 9 21 -13 14
-50 -6 -34 -8 -35 -51 -35 -24 0 -57 -7 -72 -15 -92 -47 -129 -184 -64 -235
35 -28 56 -25 98 11 l35 31 0 -26 c0 -31 22 -43 58 -30 32 11 44 40 13 31 -12
-3 -21 0 -21 6 0 7 16 86 35 177 19 91 35 166 35 168 0 6 -57 0 -78 -9z m-14
-166 c5 -50 -15 -108 -50 -142 -34 -33 -56 -39 -76 -19 -16 16 -15 34 3 95 22
73 50 105 89 101 27 -3 31 -7 34 -35z"/>
<path d="M1165 3901 c-90 -22 -155 -80 -174 -157 -18 -70 -10 -318 11 -339 4
-5 46 -11 90 -14 9 0 30 -13 47 -27 37 -31 40 -67 12 -123 -17 -32 -39 -48
-146 -106 -69 -37 -135 -75 -145 -84 -20 -16 -74 -217 -61 -225 24 -15 167
-44 176 -36 7 6 17 28 24 51 7 22 15 38 18 35 8 -7 -7 -115 -16 -121 -5 -2
-52 5 -105 16 -54 12 -100 18 -104 14 -4 -4 -7 -50 -7 -103 0 -111 25 -207 74
-284 45 -71 51 -106 51 -329 0 -148 3 -210 13 -222 28 -38 182 -89 322 -108
159 -21 323 0 442 57 56 27 74 41 79 61 12 46 -6 305 -30 438 -13 72 -23 131
-22 132 1 1 44 -29 96 -66 52 -37 115 -76 139 -85 24 -9 87 -48 140 -85 135
-96 192 -131 213 -131 23 0 118 91 118 112 0 10 -35 38 -85 69 -47 28 -85 54
-85 56 0 3 10 13 22 22 13 11 19 24 15 34 -5 14 -21 17 -91 17 -47 0 -97 5
-113 11 -41 15 -171 146 -197 199 -13 25 -38 90 -57 145 -18 55 -34 102 -35
103 -2 2 -40 -8 -86 -22 -45 -14 -86 -22 -89 -18 -11 12 -32 102 -26 109 3 3
14 -13 23 -36 18 -46 24 -48 104 -23 49 16 55 21 57 47 1 17 -12 68 -30 114
l-32 85 -136 70 c-75 39 -147 78 -160 87 l-24 17 30 88 c32 92 57 134 81 134
36 0 -17 189 -78 280 -72 108 -173 162 -263 141z m239 -274 c18 -25 21 -42 21
-130 0 -86 -4 -108 -23 -144 -25 -47 -47 -63 -89 -63 -40 1 -106 33 -131 65
-45 56 -76 223 -49 259 17 23 119 45 196 43 47 -2 57 -6 75 -30z m-120 -357
c32 -12 65 -19 74 -16 10 3 31 -7 50 -23 l33 -28 -62 -71 c-54 -61 -65 -70
-78 -59 -99 81 -131 111 -131 123 0 25 32 94 44 94 6 0 38 -9 70 -20z m-74
-500 c0 -5 -9 -14 -20 -20 -19 -10 -19 -13 -5 -40 29 -56 9 -98 -39 -86 -35 9
-41 40 -17 80 26 42 26 44 -1 48 -12 2 -23 9 -26 16 -3 8 12 12 52 12 31 0 56
-4 56 -10z m608 -129 c44 -107 65 -135 155 -210 84 -70 96 -100 57 -136 -18
-17 -23 -17 -59 -3 -61 24 -147 85 -192 136 -23 26 -60 88 -84 137 l-44 90 62
32 c34 18 64 32 68 33 3 0 20 -36 37 -79z m-920 15 c35 -8 68 -18 74 -24 5 -5
18 -45 29 -88 22 -88 58 -149 142 -241 l56 -60 -41 -31 c-23 -18 -45 -32 -49
-32 -12 0 -102 70 -132 104 -74 82 -135 198 -156 294 -21 101 -23 99 77 78z
m1317 -317 l30 -1 -27 -11 c-16 -6 -28 -13 -28 -17 0 -3 45 -34 100 -69 55
-35 98 -66 96 -68 -2 -2 -36 12 -76 32 -40 20 -74 34 -77 32 -2 -3 28 -24 69
-48 85 -49 83 -47 76 -55 -4 -3 -41 13 -83 36 -97 54 -110 45 -15 -10 39 -23
69 -44 66 -47 -3 -3 -37 11 -76 32 -91 47 -103 39 -16 -11 60 -35 80 -54 58
-54 -21 0 -261 160 -262 174 0 16 51 77 74 86 11 5 30 7 41 5 11 -3 34 -5 50
-6z m-868 -148 c86 -42 109 -61 71 -61 -20 0 -17 -5 25 -48 26 -26 47 -51 47
-56 0 -4 -29 13 -65 39 -36 25 -65 41 -65 36 0 -6 3 -11 8 -11 14 -1 117 -98
110 -105 -4 -4 -34 14 -67 39 -80 62 -90 58 -17 -8 39 -34 56 -55 48 -60 -7
-4 -33 13 -65 43 -67 63 -87 67 -27 6 24 -25 39 -45 33 -45 -26 0 -243 162
-243 181 0 12 99 89 114 89 7 0 48 -18 93 -39z"/>
<path d="M1320 3630 c-11 -8 -7 -9 15 -4 37 8 45 14 19 14 -10 0 -26 -5 -34
-10z"/>
<path d="M1205 3623 c-11 -3 -24 -9 -30 -15 -13 -12 46 1 60 13 10 10 4 10
-30 2z"/>
<path d="M1340 3592 l-23 -18 32 -14 c24 -10 35 -10 44 -1 8 8 6 15 -9 26 -18
15 -18 15 0 8 13 -4 17 -3 12 5 -10 17 -30 15 -56 -6z"/>
<path d="M1196 3573 c-29 -15 -29 -16 -10 -30 10 -7 30 -13 44 -11 19 2 25 9
25 28 0 30 -20 35 -59 13z"/>
<path d="M1308 3477 c-40 -11 -51 -27 -19 -27 29 0 71 18 71 30 0 11 -1 11
-52 -3z"/>
<path d="M1356 3404 c-11 -8 -43 -14 -70 -15 l-51 0 31 -16 c34 -17 66 -13 98
11 24 20 17 39 -8 20z"/>
<path d="M3485 3851 c-144 -68 -197 -255 -125 -445 13 -32 47 -95 76 -138 30
-44 52 -84 48 -89 -3 -5 -51 -39 -105 -75 -110 -72 -160 -127 -214 -234 -115
-228 -117 -475 -8 -755 35 -89 35 -91 23 -157 -22 -117 -15 -155 92 -445 31
-85 32 -95 38 -279 6 -221 0 -208 115 -279 146 -91 298 -114 436 -67 77 26
168 86 186 122 9 18 12 83 11 220 -2 211 4 251 52 361 42 95 60 171 66 274 5
77 2 102 -20 178 -30 100 -32 143 -11 174 26 37 48 198 42 308 -15 270 -139
471 -378 612 -39 23 -73 43 -75 46 -3 2 23 63 56 135 73 156 89 226 72 320
-27 163 -96 225 -252 230 -67 2 -93 -1 -125 -17z m170 -182 c113 -31 164 -207
100 -346 -30 -66 -89 -141 -119 -153 -26 -10 -63 8 -117 57 -128 115 -148 307
-42 404 55 51 97 60 178 38z m66 -549 c35 -10 80 -33 99 -50 l35 -30 -27 -24
c-47 -42 -181 -58 -299 -36 -60 11 -141 48 -147 67 -5 16 64 58 124 77 68 21
141 19 215 -4z m-401 -209 c19 -60 22 -87 19 -188 l-4 -118 -63 -130 c-34 -72
-62 -137 -62 -145 0 -8 20 6 48 32 64 63 120 88 202 87 73 0 158 -25 174 -51
14 -23 8 -27 -71 -44 -110 -23 -183 -65 -274 -157 -85 -87 -81 -86 -113 -27
-64 117 -85 340 -47 492 12 48 34 116 48 150 25 63 103 179 114 172 4 -2 16
-35 29 -73z m672 11 c79 -89 137 -240 152 -397 11 -113 -14 -272 -49 -313 -2
-2 -32 17 -68 41 -70 48 -152 79 -260 98 -39 7 -66 17 -64 23 2 6 23 21 47 34
39 20 54 23 115 18 39 -3 92 -13 119 -21 27 -8 51 -13 54 -10 3 2 -14 33 -36
67 -23 35 -52 88 -66 118 -28 62 -51 205 -41 259 9 55 36 131 45 131 4 0 28
-22 52 -48z"/>
<path d="M3468 3578 c-16 -5 -28 -14 -28 -20 0 -6 10 -7 28 -2 15 4 42 7 60 7
34 -2 43 11 16 21 -21 8 -43 6 -76 -6z"/>
<path d="M3636 3581 c-4 -5 19 -11 49 -13 39 -2 55 1 55 10 0 14 -96 17 -104
3z"/>
<path d="M3479 3520 c-24 -20 -24 -20 -5 -35 42 -32 94 -6 69 34 -15 24 -37
24 -64 1z"/>
<path d="M3665 3516 c-24 -18 -13 -46 19 -46 14 0 37 5 52 10 26 10 26 11 9
30 -21 23 -53 26 -80 6z"/>
<path d="M3563 3385 c4 -12 86 -14 90 -1 1 4 -19 9 -46 10 -29 1 -46 -2 -44
-9z"/>
<path d="M3543 3305 c36 -32 105 -35 132 -5 19 21 13 42 -7 22 -15 -15 -104
-16 -113 -2 -3 6 -14 10 -23 10 -13 -1 -10 -6 11 -25z"/>
<path d="M4581 3798 c-11 -17 -10 -23 2 -35 18 -18 37 -9 37 16 0 31 -24 43
-39 19z"/>
<path d="M360 3795 c-11 -13 -11 -19 3 -33 20 -19 41 -5 35 24 -4 24 -22 28
-38 9z"/>
<path d="M2421 3799 c-48 -10 -83 -39 -108 -89 -29 -56 -30 -123 -4 -149 30
-30 84 -36 136 -16 43 16 62 31 53 41 -3 2 -22 -3 -42 -11 -51 -21 -88 -16
-103 14 -18 37 -2 55 65 75 82 24 102 40 102 80 0 50 -34 69 -99 55z m47 -42
c6 -30 -25 -65 -68 -78 -22 -7 -43 -10 -46 -7 -10 10 24 75 47 92 30 20 63 17
67 -7z"/>
<path d="M297 3683 c-4 -3 -7 -15 -7 -25 0 -20 26 -24 50 -8 13 9 12 12 -4 25
-22 17 -29 18 -39 8z"/>
<path d="M4646 3674 c-11 -30 13 -44 43 -25 12 8 12 12 2 25 -17 20 -37 20
-45 0z"/>
<path d="M240 3565 c-9 -11 -11 -22 -4 -32 13 -21 25 -21 38 -1 8 14 7 21 -5
33 -14 15 -17 15 -29 0z"/>
<path d="M4713 3563 c-17 -6 -16 -38 1 -52 21 -18 44 25 24 44 -7 7 -19 11
-25 8z"/>
<path d="M180 3421 c0 -27 19 -36 37 -18 18 18 9 37 -18 37 -12 0 -19 -7 -19
-19z"/>
<path d="M4754 3429 c-3 -6 1 -18 10 -27 15 -15 17 -15 32 0 19 19 11 38 -16
38 -10 0 -22 -5 -26 -11z"/>
<path d="M134 3305 c-12 -29 15 -45 45 -26 12 8 12 12 2 25 -17 20 -40 21 -47
1z"/>
<path d="M4805 3310 c-8 -12 3 -50 14 -50 5 0 14 7 21 15 10 12 10 18 0 30
-14 17 -26 19 -35 5z"/>
<path d="M94 3179 c-3 -6 0 -18 9 -26 12 -12 19 -13 38 -3 22 12 22 13 4 26
-23 17 -41 18 -51 3z"/>
<path d="M4844 3175 c-4 -9 -2 -21 4 -27 15 -15 44 -1 40 19 -4 23 -36 29 -44
8z"/>
<path d="M61 3047 c-9 -11 -8 -17 4 -27 19 -16 47 -5 43 17 -4 23 -31 28 -47
10z"/>
<path d="M4875 3050 c-8 -12 3 -50 14 -50 15 0 33 30 27 45 -6 17 -32 20 -41
5z"/>
<path d="M40 2924 c-11 -12 -10 -18 3 -32 21 -21 42 -3 32 27 -8 25 -18 27
-35 5z"/>
<path d="M4900 2915 c-6 -8 -9 -19 -5 -25 9 -15 41 -12 54 4 10 12 8 17 -8 25
-25 14 -26 14 -41 -4z"/>
<path d="M4920 2790 c-12 -23 -6 -40 15 -40 19 0 27 17 20 40 -8 26 -21 25
-35 0z"/>
<path d="M27 2793 c-11 -10 -8 -41 5 -49 17 -11 40 26 27 43 -13 14 -22 16
-32 6z"/>
<path d="M17 2662 c-15 -16 -15 -21 -3 -38 14 -18 16 -18 32 -2 15 14 15 18 2
37 -14 20 -15 20 -31 3z"/>
<path d="M4930 2654 c-11 -12 -10 -18 3 -31 22 -23 52 0 36 28 -12 23 -22 24
-39 3z"/>
<path d="M4931 2522 c-7 -13 -6 -23 1 -30 27 -27 54 -3 36 31 -11 22 -25 22
-37 -1z"/>
<path d="M13 2523 c-18 -7 -16 -30 3 -37 27 -10 34 -7 34 19 0 24 -11 29 -37
18z"/>
<path d="M13 2389 c-27 -27 13 -51 47 -29 13 8 12 11 -5 24 -24 19 -28 19 -42
5z"/>
<path d="M4930 2385 c-23 -28 15 -47 50 -25 13 8 12 11 -5 24 -25 19 -30 19
-45 1z"/>
<path d="M20 2241 c0 -27 19 -36 37 -18 18 18 9 37 -18 37 -12 0 -19 -7 -19
-19z"/>
<path d="M4914 2249 c-3 -6 0 -18 9 -26 12 -12 19 -13 36 -3 18 9 20 14 10 26
-14 17 -45 19 -55 3z"/>
<path d="M41 2116 c-14 -17 9 -39 33 -30 20 8 21 30 0 38 -21 8 -20 8 -33 -8z"/>
<path d="M4895 2120 c-7 -12 12 -50 25 -50 17 0 30 36 18 48 -15 15 -35 15
-43 2z"/>
<path d="M4881 1996 c-16 -19 -7 -46 14 -46 22 0 30 29 13 46 -13 13 -16 13
-27 0z"/>
<path d="M64 1985 c-12 -29 15 -45 45 -26 12 8 12 12 2 25 -17 20 -40 21 -47
1z"/>
<path d="M95 1860 c-8 -24 1 -40 21 -40 20 0 29 27 14 45 -17 20 -27 19 -35
-5z"/>
<path d="M4847 1863 c-4 -3 -7 -15 -7 -25 0 -19 25 -24 49 -9 12 8 12 12 2 25
-14 17 -33 21 -44 9z"/>
<path d="M1590 1731 c-63 -15 -128 -31 -143 -34 l-28 -8 3 -434 c2 -306 6
-437 14 -445 9 -9 22 -6 52 9 39 20 42 25 71 118 46 152 68 232 85 308 15 71
86 484 86 504 0 15 -7 14 -140 -18z"/>
<path d="M1010 1744 c0 -15 45 -223 70 -324 38 -152 167 -555 187 -586 18 -28
52 -39 88 -30 l25 6 0 440 c0 242 -3 440 -7 440 -5 0 -84 14 -178 30 -185 33
-185 33 -185 24z"/>
<path d="M134 1725 c-10 -24 12 -42 34 -29 24 16 21 38 -6 42 -13 2 -25 -3
-28 -13z"/>
<path d="M4807 1733 c-24 -23 12 -55 38 -33 12 10 13 16 4 26 -12 15 -31 18
-42 7z"/>
<path d="M175 1600 c-17 -18 -16 -19 10 -26 31 -8 51 12 33 33 -14 18 -22 16
-43 -7z"/>
<path d="M4760 1605 c-15 -18 -5 -35 20 -35 10 0 22 5 25 10 7 11 -12 40 -25
40 -4 0 -13 -7 -20 -15z"/>
<path d="M243 1493 c-18 -6 -16 -42 2 -49 14 -6 45 11 45 25 0 11 -34 28 -47
24z"/>
<path d="M4710 1485 c-25 -30 10 -61 38 -33 17 17 15 26 -7 37 -14 8 -22 7
-31 -4z"/>
<path d="M290 1351 c0 -28 24 -45 40 -26 16 20 6 45 -20 45 -13 0 -20 -7 -20
-19z"/>
<path d="M4643 1354 c-3 -8 1 -22 9 -30 13 -13 16 -13 27 0 7 9 11 23 7 31 -7
20 -35 19 -43 -1z"/>
<path d="M363 1249 c-15 -15 -5 -39 16 -39 29 0 43 21 23 36 -21 17 -25 17
-39 3z"/>
<path d="M4583 1249 c-6 -6 -9 -18 -6 -25 7 -18 37 -18 52 0 10 12 8 17 -8 25
-24 14 -24 14 -38 0z"/>
<path d="M4510 1140 c-13 -25 3 -52 26 -43 18 7 18 37 0 52 -12 10 -17 8 -26
-9z"/>
<path d="M430 1121 c0 -10 6 -24 14 -30 12 -10 17 -8 26 9 13 25 6 40 -21 40
-12 0 -19 -7 -19 -19z"/>
<path d="M512 1030 c-15 -24 -8 -40 18 -40 23 0 31 21 15 43 -16 22 -17 21
-33 -3z"/>
<path d="M4430 1025 c-15 -18 -5 -35 21 -35 24 0 37 29 18 41 -19 12 -25 11
-39 -6z"/>
<path d="M597 923 c-24 -23 12 -55 38 -33 12 10 13 16 4 26 -12 15 -31 18 -42
7z"/>
<path d="M4344 915 c-13 -32 23 -48 47 -19 10 13 10 17 -2 25 -21 13 -39 11
-45 -6z"/>
<path d="M4260 825 c-19 -22 5 -48 31 -34 10 5 19 14 19 19 0 5 -9 14 -19 19
-14 8 -22 7 -31 -4z"/>
<path d="M680 813 c0 -10 5 -25 10 -33 9 -13 12 -12 25 5 19 24 15 39 -13 43
-16 2 -22 -2 -22 -15z"/>
<path d="M776 724 c-11 -30 13 -44 43 -25 12 8 12 12 2 25 -17 20 -37 20 -45
0z"/>
<path d="M2782 727 c-10 -11 -9 -17 4 -28 18 -15 49 -1 49 22 0 19 -39 23 -53
6z"/>
<path d="M4165 730 c-8 -12 3 -50 14 -50 16 0 31 28 25 44 -7 18 -29 21 -39 6z"/>
<path d="M1980 715 c0 -9 9 -15 25 -15 31 0 31 -8 5 -135 -23 -111 -24 -144
-7 -166 35 -46 139 -64 197 -34 44 23 66 71 93 204 24 119 37 146 65 136 6 -2
12 2 12 10 0 12 -15 15 -65 15 -51 0 -65 -3 -65 -15 0 -9 9 -15 25 -15 21 0
25 -4 21 -22 -50 -235 -55 -252 -90 -280 -26 -22 -94 -23 -124 -2 -27 18 -28
53 -7 156 29 138 33 148 60 148 16 0 25 6 25 15 0 12 -16 15 -85 15 -69 0 -85
-3 -85 -15z"/>
<path d="M2966 661 c-14 -22 -36 -41 -50 -45 -31 -8 -34 -22 -6 -31 24 -8 24
-9 1 -114 -11 -46 -17 -90 -14 -97 8 -23 103 -16 103 7 0 5 -11 9 -25 9 -22 0
-25 4 -24 33 1 17 8 61 17 97 16 61 19 65 45 65 33 -1 34 28 0 33 -18 3 -20 8
-16 43 3 21 3 39 -1 39 -3 0 -17 -17 -30 -39z"/>
<path d="M4065 640 c-8 -24 1 -40 21 -40 20 0 29 27 14 45 -17 20 -27 19 -35
-5z"/>
<path d="M874 635 c-12 -29 15 -45 45 -26 12 8 12 12 2 25 -17 20 -40 21 -47
1z"/>
<path d="M2552 614 c-13 -9 -37 -34 -53 -57 -30 -42 -34 -37 -20 26 l9 38 -46
-3 c-45 -3 -74 -28 -33 -28 25 0 25 5 1 -100 -26 -114 -26 -132 2 -128 17 2
24 14 33 55 17 77 82 163 122 163 18 0 16 -42 -6 -126 -10 -40 -16 -76 -12
-81 11 -17 41 -23 66 -13 30 11 34 35 5 27 -25 -7 -25 6 0 103 22 82 23 99 12
117 -13 21 -56 25 -80 7z"/>
<path d="M2771 618 c-53 -9 -79 -28 -38 -28 32 0 33 -5 7 -95 -27 -93 -26
-131 1 -138 25 -7 69 8 69 23 0 5 -9 10 -20 10 -11 0 -20 2 -20 5 0 3 12 53
26 110 14 58 24 109 22 113 -2 4 -23 4 -47 0z"/>
<path d="M984 562 c-14 -22 -7 -42 16 -42 25 0 32 25 11 44 -15 14 -18 14 -27
-2z"/>
<path d="M3961 557 c-8 -10 -7 -19 3 -33 14 -18 15 -18 35 0 20 18 20 20 3 32
-22 17 -27 17 -41 1z"/>
<path d="M1079 474 c-10 -13 -10 -17 2 -25 30 -19 54 -5 43 25 -8 20 -28 20
-45 0z"/>
<path d="M3851 476 c-14 -17 11 -41 34 -32 20 7 19 32 -1 40 -21 8 -20 8 -33
-8z"/>
<path d="M1202 409 c-12 -18 -11 -24 1 -36 12 -13 16 -12 30 2 14 13 14 20 4
35 -15 25 -19 25 -35 -1z"/>
<path d="M3741 401 c-15 -27 12 -49 37 -30 9 7 19 15 21 16 5 4 -31 32 -41 33
-4 0 -12 -9 -17 -19z"/>
<path d="M1314 335 c-12 -29 15 -45 45 -26 12 8 12 12 2 25 -17 20 -40 21 -47
1z"/>
<path d="M3626 335 c-6 -17 2 -45 14 -45 4 0 13 7 20 15 10 12 10 18 0 30 -7
8 -16 15 -20 15 -4 0 -10 -7 -14 -15z"/>
<path d="M3505 279 c-8 -26 6 -42 28 -33 20 7 22 25 5 42 -17 17 -26 15 -33
-9z"/>
<path d="M1437 283 c-24 -23 12 -55 38 -33 12 10 13 16 4 26 -12 15 -31 18
-42 7z"/>
<path d="M1561 236 c-14 -16 -4 -46 14 -46 19 0 27 17 20 40 -7 23 -18 25 -34
6z"/>
<path d="M3381 221 c-16 -28 14 -51 36 -28 13 13 14 19 3 31 -17 21 -27 20
-39 -3z"/>
<path d="M1682 178 c-13 -13 2 -38 23 -38 21 0 36 25 23 38 -7 7 -17 12 -23
12 -6 0 -16 -5 -23 -12z"/>
<path d="M3253 174 c-3 -8 1 -22 9 -30 13 -13 16 -13 27 0 7 9 11 23 7 31 -7
20 -35 19 -43 -1z"/>
<path d="M1805 140 c-6 -10 11 -50 22 -50 15 0 31 35 21 47 -12 15 -34 17 -43
3z"/>
<path d="M3127 137 c-3 -8 -1 -20 3 -27 7 -11 14 -12 35 -2 22 10 25 15 15 27
-15 19 -46 19 -53 2z"/>
<path d="M1940 105 c-11 -13 -11 -19 3 -33 20 -19 41 -5 35 24 -4 24 -22 28
-38 9z"/>
<path d="M3000 105 c-6 -8 -9 -19 -5 -25 8 -13 42 -13 50 0 7 11 -12 40 -25
40 -4 0 -13 -7 -20 -15z"/>
<path d="M2071 81 c-15 -27 12 -49 37 -30 9 7 19 15 21 16 5 4 -31 32 -41 33
-4 0 -12 -9 -17 -19z"/>
<path d="M2871 86 c-10 -11 -10 -20 -1 -36 11 -21 12 -21 31 -4 18 16 18 18 3
36 -20 22 -19 21 -33 4z"/>
<path d="M2204 65 c-7 -18 3 -35 21 -35 21 0 28 19 15 35 -16 19 -29 19 -36 0z"/>
<path d="M2340 65 c-9 -11 -11 -22 -4 -32 13 -21 25 -21 38 -1 8 14 7 21 -5
33 -14 15 -17 15 -29 0z"/>
<path d="M2740 70 c-12 -7 -12 -13 0 -35 13 -25 15 -25 27 -9 7 10 13 23 13
30 0 16 -24 24 -40 14z"/>
<path d="M2607 63 c-12 -11 -8 -40 7 -52 12 -10 17 -8 26 9 16 29 -12 65 -33
43z"/>
<path d="M2466 51 c-10 -16 6 -42 23 -39 9 2 17 13 19 26 3 16 -2 22 -17 22
-11 0 -22 -4 -25 -9z"/>
</g>
</svg>
