<?xml version="1.0" standalone="no"?>
<!DOCTYPE svg PUBLIC "-//W3C//DTD SVG 20010904//EN"
 "http://www.w3.org/TR/2001/REC-SVG-20010904/DTD/svg10.dtd">
<svg version="1.0" xmlns="http://www.w3.org/2000/svg"
 width="499.000000pt" height="500.000000pt" viewBox="0 0 499.000000 500.000000"
 preserveAspectRatio="xMidYMid meet">
<metadata>
Created by potrace 1.15, written by Peter Selinger 2001-2017
</metadata>
<g transform="translate(0.000000,500.000000) scale(0.100000,-0.100000)"
fill="#000000" stroke="none">
<path d="M2341 4971 c-8 -14 -7 -22 4 -31 22 -19 48 5 34 31 -5 10 -14 19 -19
19 -5 0 -14 -9 -19 -19z"/>
<path d="M2481 4977 c-26 -26 -4 -55 29 -37 25 13 25 22 1 37 -14 9 -21 9 -30
0z"/>
<path d="M2212 4968 c-17 -17 -15 -35 4 -42 31 -12 47 21 21 43 -10 8 -17 7
-25 -1z"/>
<path d="M2604 4965 c-13 -32 23 -48 47 -19 10 13 10 17 -2 25 -21 13 -39 11
-45 -6z"/>
<path d="M2740 4955 c-11 -13 -11 -19 3 -33 20 -19 41 -5 35 24 -4 24 -22 28
-38 9z"/>
<path d="M2077 4943 c-24 -23 12 -55 38 -33 12 10 13 16 4 26 -12 15 -31 18
-42 7z"/>
<path d="M2873 4934 c-9 -24 11 -38 37 -24 17 9 19 14 9 26 -15 19 -38 18 -46
-2z"/>
<path d="M1947 4917 c-16 -11 -16 -14 -3 -32 14 -19 16 -19 33 -2 15 15 16 19
2 32 -12 13 -18 13 -32 2z"/>
<path d="M3001 4916 c-15 -18 11 -40 39 -31 25 8 26 21 1 35 -25 13 -26 13
-40 -4z"/>
<path d="M1823 4893 c-16 -6 -17 -25 -1 -41 12 -12 48 1 48 18 0 13 -32 28
-47 23z"/>
<path d="M3133 4884 c-3 -8 1 -23 10 -32 15 -14 17 -14 23 1 8 21 -1 47 -16
47 -6 0 -13 -7 -17 -16z"/>
<path d="M1689 4844 c-15 -18 0 -38 27 -32 25 5 28 25 6 37 -15 8 -23 7 -33
-5z"/>
<path d="M3261 4850 c-8 -4 -11 -15 -8 -24 8 -20 47 -21 47 -2 0 20 -24 36
-39 26z"/>
<path d="M1567 4803 c-24 -23 12 -55 38 -33 12 10 13 16 4 26 -12 15 -31 18
-42 7z"/>
<path d="M3385 4800 c-8 -12 3 -50 14 -50 5 0 14 7 21 15 10 12 10 18 0 30
-14 17 -26 19 -35 5z"/>
<path d="M1440 4750 c-13 -25 -5 -40 20 -40 26 0 33 15 18 40 -16 25 -24 25
-38 0z"/>
<path d="M3511 4751 c-16 -11 -6 -51 14 -51 16 0 29 35 20 50 -8 12 -16 12
-34 1z"/>
<path d="M1323 4689 c-27 -27 13 -51 47 -29 13 8 12 11 -5 24 -24 19 -28 19
-42 5z"/>
<path d="M3633 4693 c-16 -6 -17 -29 -3 -38 13 -8 50 3 50 15 0 13 -32 28 -47
23z"/>
<path d="M1207 4623 c-24 -23 12 -55 38 -33 12 10 13 16 4 26 -12 15 -31 18
-42 7z"/>
<path d="M3740 4606 c0 -33 20 -44 36 -21 10 14 11 22 3 32 -18 21 -39 15 -39
-11z"/>
<path d="M1093 4551 c-9 -14 -9 -21 0 -30 20 -20 39 -13 35 16 -4 33 -19 39
-35 14z"/>
<path d="M3851 4547 c-8 -10 -7 -19 4 -33 12 -17 15 -18 30 -3 17 17 11 49
-10 49 -7 0 -18 -6 -24 -13z"/>
<path d="M985 4469 c-8 -26 6 -42 28 -33 20 7 22 25 5 42 -17 17 -26 15 -33
-9z"/>
<path d="M3957 4467 c-3 -7 2 -22 10 -32 14 -20 14 -20 28 -1 11 14 12 23 4
33 -14 17 -35 17 -42 0z"/>
<path d="M880 4385 c-11 -13 -11 -19 3 -33 20 -19 41 -5 35 24 -4 24 -22 28
-38 9z"/>
<path d="M4064 4385 c-12 -31 23 -48 45 -21 10 12 8 17 -8 25 -26 14 -31 14
-37 -4z"/>
<path d="M1665 4340 c3 -5 13 -10 21 -10 10 0 14 -6 10 -17 -2 -10 -12 -54
-21 -98 -12 -56 -24 -85 -39 -97 -20 -17 -20 -18 37 -18 31 0 57 4 57 10 0 6
-7 10 -15 10 -18 0 -19 25 -4 69 10 30 13 31 65 31 47 0 54 -3 54 -19 0 -30
-19 -75 -37 -88 -14 -11 -7 -13 43 -13 53 1 57 2 40 15 -18 14 -18 17 -2 102
12 57 25 96 39 111 l20 22 -51 0 c-29 0 -52 -4 -52 -10 0 -5 5 -10 10 -10 13
0 13 -46 0 -71 -9 -15 -22 -19 -66 -19 -47 0 -55 3 -50 16 3 9 6 24 6 35 0 10
9 28 20 39 l20 20 -56 0 c-34 0 -53 -4 -49 -10z"/>
<path d="M2961 4324 c-12 -15 -21 -33 -21 -40 0 -8 -9 -14 -20 -14 -11 0 -20
-4 -20 -10 0 -5 7 -10 16 -10 18 0 17 -12 -12 -142 -15 -64 -32 -85 -49 -58
-10 17 -25 11 -25 -10 0 -16 7 -20 35 -20 45 0 61 24 81 121 21 104 23 109 45
109 10 0 19 5 19 10 0 6 -8 10 -19 10 -14 0 -17 6 -14 25 8 38 30 51 52 31 17
-15 19 -16 25 -1 9 25 9 25 -33 25 -31 0 -44 -6 -60 -26z"/>
<path d="M784 4295 c-12 -31 23 -48 45 -21 10 12 8 17 -8 25 -26 14 -31 14
-37 -4z"/>
<path d="M4167 4303 c-24 -23 12 -55 38 -33 12 10 13 16 4 26 -12 15 -31 18
-42 7z"/>
<path d="M1999 4265 c-28 -15 -59 -78 -59 -119 0 -25 28 -56 51 -56 8 0 24 7
36 15 19 13 22 13 27 0 6 -17 42 -20 51 -5 3 6 0 10 -8 10 -12 0 -12 11 2 76
13 66 14 76 1 84 -22 14 -71 11 -101 -5z m71 -32 c0 -35 -40 -107 -62 -111 -9
-2 -22 6 -28 17 -17 32 31 121 65 121 21 0 25 -5 25 -27z"/>
<path d="M2262 4258 c-19 -19 -22 -20 -22 -5 0 12 -8 17 -29 17 -17 0 -33 -4
-36 -10 -3 -5 1 -10 9 -10 9 0 16 -6 16 -13 0 -21 -37 -184 -44 -196 -5 -7 6
-11 31 -11 25 0 33 3 25 9 -25 16 -9 45 28 52 48 7 77 28 95 65 42 88 -12 163
-73 102z m53 -27 c3 -12 -4 -40 -20 -70 -20 -41 -30 -51 -50 -51 -20 0 -25 5
-25 25 0 25 21 76 42 103 16 18 46 14 53 -7z"/>
<path d="M2483 4260 c-21 -24 -35 -26 -27 -5 5 12 -2 15 -30 15 -20 0 -36 -4
-36 -10 0 -5 7 -10 15 -10 8 0 15 -2 15 -4 0 -23 -36 -167 -46 -188 l-15 -28
43 1 c24 0 37 3 31 6 -7 2 -13 16 -13 29 0 20 5 24 28 24 80 0 148 103 112
171 -14 25 -55 25 -77 -1z m46 -28 c14 -27 -25 -111 -56 -118 -13 -4 -27 -4
-30 -1 -13 14 -4 60 21 97 28 43 50 50 65 22z"/>
<path d="M3059 4252 c-42 -37 -52 -109 -20 -141 38 -38 108 -22 141 31 59 97
-37 185 -121 110z m95 -76 c-18 -53 -35 -69 -66 -64 -17 2 -24 11 -26 33 -5
45 15 100 40 113 19 9 27 7 45 -14 21 -23 21 -26 7 -68z"/>
<path d="M3327 4253 c-26 -27 -27 -27 -27 -5 0 18 -6 22 -30 22 -16 0 -30 -4
-30 -10 0 -5 6 -10 14 -10 12 0 12 -11 0 -72 -8 -40 -14 -74 -14 -75 0 -2 7
-3 15 -3 8 0 19 16 25 38 5 22 24 58 41 82 31 43 32 43 44 20 10 -19 13 -20
18 -5 20 51 -12 61 -56 18z"/>
<path d="M2600 4261 c0 -5 6 -14 14 -20 17 -14 40 -142 31 -171 -8 -26 -45
-47 -45 -25 0 8 -4 15 -10 15 -5 0 -10 -2 -10 -4 0 -2 -3 -11 -6 -20 -9 -23
48 -21 68 2 24 27 128 207 128 220 0 7 -11 12 -25 12 -25 0 -35 -15 -13 -22 7
-3 1 -22 -18 -58 l-29 -53 -12 39 c-6 21 -12 51 -12 67 -1 23 -5 27 -31 27
-16 0 -30 -4 -30 -9z"/>
<path d="M690 4210 c-15 -28 5 -57 26 -39 18 15 18 33 0 48 -12 10 -17 8 -26
-9z"/>
<path d="M4262 4209 c-12 -18 -12 -24 0 -35 20 -20 42 -2 34 30 -8 32 -17 33
-34 5z"/>
<path d="M599 4114 c-15 -18 -1 -49 22 -49 19 0 23 39 6 53 -11 10 -17 9 -28
-4z"/>
<path d="M4351 4116 c-16 -19 -7 -46 14 -46 22 0 30 29 13 46 -13 13 -16 13
-27 0z"/>
<path d="M517 4003 c-24 -23 12 -55 38 -33 12 10 13 16 4 26 -12 15 -31 18
-42 7z"/>
<path d="M4431 3996 c-18 -21 11 -41 39 -26 17 9 19 14 9 26 -15 18 -33 18
-48 0z"/>
<path d="M1737 3916 c-7 -17 18 -42 27 -27 7 11 -3 41 -14 41 -4 0 -10 -6 -13
-14z"/>
<path d="M745 3911 c-3 -6 1 -11 10 -11 20 0 19 -7 -21 -137 -16 -55 -30 -83
-39 -83 -8 0 -15 -4 -15 -10 0 -5 18 -10 39 -10 22 0 43 5 46 10 3 6 -1 10
-11 10 -18 0 -16 28 13 122 15 49 16 51 23 26 4 -14 11 -54 15 -87 7 -64 24
-91 43 -68 6 7 30 50 53 96 22 45 43 80 45 78 3 -3 2 -40 -2 -82 -6 -64 -10
-79 -25 -82 -38 -10 -17 -23 36 -23 30 0 55 5 55 10 0 6 -7 10 -16 10 -14 0
-15 11 -9 93 8 110 12 127 31 127 8 0 14 5 14 11 0 6 -16 9 -37 7 -37 -3 -39
-5 -90 -103 -29 -55 -53 -98 -54 -95 0 3 -6 48 -12 100 l-12 95 -37 3 c-20 2
-39 -2 -43 -7z"/>
<path d="M1120 3910 c-22 -13 2 -35 25 -23 13 8 14 11 3 21 -9 7 -19 7 -28 2z"/>
<path d="M1310 3911 c0 -5 5 -11 12 -13 7 -3 9 -14 4 -31 -5 -22 -12 -27 -37
-27 -38 0 -85 -24 -99 -50 -24 -45 -8 -130 25 -130 7 0 25 4 40 10 18 7 31 6
44 -2 11 -6 26 -8 37 -3 16 7 17 9 3 12 -15 4 -14 15 7 111 30 135 30 132 -6
132 -16 0 -30 -4 -30 -9z m-7 -103 c7 -25 -22 -96 -46 -117 -14 -11 -20 -11
-32 -1 -20 17 -19 43 5 90 17 33 29 43 61 49 4 0 9 -9 12 -21z"/>
<path d="M1887 3909 c-11 -6 -25 -26 -33 -45 -8 -20 -22 -34 -32 -34 -16 -1
-16 -2 0 -13 15 -12 15 -19 1 -93 -17 -95 -37 -132 -59 -113 -13 10 -17 10
-24 -2 -13 -20 27 -33 58 -20 29 14 46 55 62 148 12 64 16 72 39 78 25 7 25 7
5 15 -17 7 -20 14 -16 35 6 32 26 42 47 25 18 -15 30 -7 22 15 -7 17 -43 19
-70 4z"/>
<path d="M2686 3911 c-3 -5 3 -11 13 -14 18 -4 18 -7 -2 -107 -16 -81 -24
-104 -39 -108 -10 -2 -18 -8 -18 -13 0 -12 97 -11 105 1 3 6 -1 10 -11 10 -14
0 -15 7 -10 43 13 77 44 74 72 -9 16 -48 21 -54 45 -54 32 0 46 15 24 24 -20
7 -60 99 -46 104 57 19 80 87 39 116 -25 18 -163 23 -172 7z m145 -33 c11 -17
-10 -66 -32 -73 -10 -4 -28 -3 -39 0 -16 5 -19 12 -14 33 14 64 14 64 47 58
17 -4 34 -11 38 -18z"/>
<path d="M3560 3910 c0 -5 7 -10 15 -10 18 0 19 11 -5 -101 -27 -131 -27 -139
10 -139 17 0 30 5 30 10 0 6 -7 10 -16 10 -10 0 -14 6 -10 18 2 9 12 55 21
102 9 47 19 93 21 103 4 14 -1 17 -30 17 -20 0 -36 -4 -36 -10z"/>
<path d="M4060 3910 c0 -5 7 -10 15 -10 8 0 15 -1 15 -3 0 -2 -9 -43 -20 -93
-11 -49 -20 -101 -20 -116 0 -24 4 -28 30 -28 17 0 30 5 30 10 0 6 -7 10 -15
10 -8 0 -15 1 -15 3 0 3 36 173 45 215 5 20 2 22 -30 22 -19 0 -35 -4 -35 -10z"/>
<path d="M440 3895 c-11 -13 -11 -19 3 -33 20 -19 41 -5 35 24 -4 24 -22 28
-38 9z"/>
<path d="M4504 3889 c-3 -6 1 -18 10 -27 15 -15 17 -15 32 0 19 19 11 38 -16
38 -10 0 -22 -5 -26 -11z"/>
<path d="M2275 3860 c-21 -22 -30 -41 -30 -68 -1 -20 -5 -58 -9 -84 -7 -41 -6
-47 12 -52 22 -7 52 2 52 16 0 5 -6 8 -14 6 -19 -4 -20 -2 -12 57 8 58 13 67
41 83 19 11 19 11 1 12 -15 0 -17 6 -14 30 3 17 4 30 3 30 -1 0 -14 -14 -30
-30z"/>
<path d="M1994 3833 c-63 -31 -89 -129 -44 -165 26 -21 49 -23 85 -6 33 15 32
30 -1 17 -37 -13 -64 -3 -64 26 0 19 9 27 48 41 26 10 53 22 60 27 19 14 14
55 -7 67 -26 13 -39 12 -77 -7z m56 -27 c0 -16 -26 -46 -40 -46 -5 0 -15 -3
-24 -6 -21 -8 -20 10 0 41 18 27 64 35 64 11z"/>
<path d="M2414 3840 c-37 -15 -64 -59 -64 -106 0 -109 139 -106 169 4 12 41 1
74 -31 96 -25 18 -42 19 -74 6z m66 -35 c18 -34 -1 -99 -37 -122 -25 -16 -26
-16 -44 6 -20 24 -17 64 8 114 18 35 55 36 73 2z"/>
<path d="M2985 3836 c-45 -20 -67 -50 -72 -98 -6 -59 13 -83 66 -83 27 0 47 7
58 19 17 18 17 19 0 12 -47 -16 -64 -17 -76 -2 -24 28 -8 49 52 69 52 17 57
21 57 47 0 19 -7 33 -19 40 -24 13 -29 12 -66 -4z m50 -16 c10 -17 -13 -48
-46 -59 -38 -13 -44 -10 -30 17 24 45 61 66 76 42z"/>
<path d="M3175 3841 c-66 -29 -99 -136 -55 -176 21 -19 23 -19 52 -2 17 10 32
16 33 15 2 -2 -2 -19 -9 -38 -9 -28 -17 -36 -41 -38 -18 -2 -33 2 -41 12 -11
15 -12 15 -18 0 -8 -22 -6 -24 38 -31 43 -7 79 9 94 42 19 41 46 195 36 205
-14 14 -66 21 -89 11z m60 -31 c9 -29 -46 -125 -71 -125 -36 0 -31 88 6 125
26 26 57 26 65 0z"/>
<path d="M1092 3833 c-29 -4 -32 -6 -17 -16 14 -11 15 -19 6 -57 -20 -86 -9
-120 34 -104 20 8 19 24 -1 24 -10 0 -14 6 -10 18 3 9 10 37 16 62 6 25 13 53
16 63 3 9 2 16 -3 15 -4 0 -23 -3 -41 -5z"/>
<path d="M1418 3833 c-14 -3 -16 -9 -8 -23 5 -10 12 -43 16 -73 8 -70 17 -85
38 -67 9 7 24 28 32 46 20 41 34 44 34 6 0 -34 21 -65 36 -54 14 9 98 161 92
167 -2 2 -17 0 -34 -4 -16 -5 -21 -10 -11 -10 9 -1 17 -3 17 -6 0 -14 -58
-106 -63 -98 -2 4 -8 34 -11 65 -9 71 -23 68 -55 -12 -13 -33 -27 -60 -31 -60
-4 0 -11 29 -15 65 -3 36 -10 64 -13 64 -4 -1 -15 -3 -24 -6z"/>
<path d="M1717 3833 c-23 -4 -26 -7 -16 -19 9 -11 9 -27 -1 -73 -7 -33 -9 -64
-6 -70 9 -14 43 -14 51 -1 3 6 0 10 -8 10 -13 0 -12 11 4 73 21 81 22 88 12
86 -5 -1 -21 -4 -36 -6z"/>
<path d="M3345 3830 c-22 -4 -26 -7 -14 -12 15 -6 15 -12 4 -62 -7 -31 -11
-65 -8 -76 7 -26 44 -26 68 0 24 26 32 25 39 -6 5 -18 12 -24 22 -20 9 3 20 6
25 6 5 0 9 5 9 11 0 6 -7 9 -15 5 -19 -7 -19 13 0 84 18 68 18 70 0 70 -8 0
-23 -20 -34 -45 -27 -61 -59 -105 -76 -105 -8 0 -12 6 -10 13 13 36 32 137 27
140 -4 2 -20 1 -37 -3z"/>
<path d="M3687 3819 c-31 -23 -52 -86 -43 -123 9 -38 41 -51 73 -31 21 14 27
15 41 3 10 -8 25 -13 35 -11 20 5 23 23 3 23 -11 0 -11 11 2 65 8 36 12 72 8
80 -9 23 -87 20 -119 -6z m83 -17 c0 -36 -40 -116 -60 -120 -8 -1 -21 7 -28
18 -24 39 29 125 81 129 4 1 7 -12 7 -27z"/>
<path d="M3890 3830 c-20 -6 -22 -9 -9 -14 15 -6 15 -14 3 -69 -17 -79 -17
-87 0 -87 9 0 21 21 30 53 18 63 69 120 80 90 6 -15 8 -15 16 -3 29 46 -26 57
-59 13 l-20 -28 -1 28 c0 29 -1 29 -40 17z"/>
<path d="M4178 3833 c-21 -5 -23 -14 -7 -30 19 -19 38 -145 26 -168 -18 -36
-47 -46 -47 -18 0 13 -3 14 -11 6 -7 -7 -9 -19 -6 -27 10 -26 44 -18 70 17 33
44 127 205 127 217 0 6 -12 8 -27 4 -36 -9 -39 -12 -19 -20 14 -5 13 -12 -12
-55 -15 -27 -30 -49 -33 -49 -3 0 -11 29 -18 65 -7 36 -16 64 -20 64 -3 -1
-14 -3 -23 -6z"/>
<path d="M365 3780 c-8 -12 3 -50 14 -50 15 0 33 30 27 45 -6 17 -32 20 -41 5z"/>
<path d="M4577 3776 c-3 -8 0 -20 8 -26 19 -16 59 8 43 27 -14 17 -45 17 -51
-1z"/>
<path d="M4651 3676 c-17 -20 -6 -49 16 -44 22 4 26 20 10 42 -12 16 -14 16
-26 2z"/>
<path d="M300 3665 c-15 -18 -5 -35 20 -35 10 0 22 5 25 10 7 11 -12 40 -25
40 -4 0 -13 -7 -20 -15z"/>
<path d="M241 3546 c-9 -11 -9 -19 1 -35 7 -12 15 -21 18 -21 3 0 11 9 18 21
10 16 10 24 1 35 -6 8 -15 14 -19 14 -4 0 -13 -6 -19 -14z"/>
<path d="M4713 3553 c-17 -6 -16 -38 1 -52 21 -18 44 25 24 44 -7 7 -19 11
-25 8z"/>
<path d="M572 3480 c-72 -17 -132 -110 -118 -185 13 -66 90 -100 159 -71 49
20 48 38 0 20 -53 -18 -61 -17 -88 11 -30 29 -34 89 -9 141 21 44 50 64 92 64
27 0 35 -5 46 -31 14 -33 19 -31 30 13 6 28 3 30 -54 41 -14 2 -40 1 -58 -3z"/>
<path d="M735 3480 c-16 -4 -22 -8 -12 -9 21 -1 21 2 -3 -116 -24 -114 -24
-125 -7 -125 7 0 25 29 41 65 26 60 59 96 73 81 4 -3 1 -31 -6 -61 -15 -67 -9
-95 20 -88 13 4 17 8 9 13 -8 5 -7 25 6 73 9 37 14 73 10 82 -9 25 -52 18 -79
-15 -14 -16 -28 -30 -30 -30 -3 0 1 24 9 53 15 58 18 88 7 86 -5 -1 -21 -5
-38 -9z"/>
<path d="M1321 3481 c-10 -7 -10 -10 -1 -13 10 -3 7 -32 -12 -121 -22 -104
-23 -117 -8 -117 9 0 21 15 29 35 7 19 16 35 21 35 5 0 19 -18 30 -40 13 -26
27 -40 40 -40 24 0 34 16 14 24 -8 3 -22 23 -31 43 l-15 38 43 37 44 38 -38 0
c-32 0 -37 -3 -33 -17 4 -13 -5 -25 -29 -41 -19 -12 -35 -19 -35 -15 1 5 7 37
15 73 8 36 14 71 15 78 0 14 -28 16 -49 3z"/>
<path d="M1658 3483 c-29 -4 -39 -23 -13 -23 19 0 19 -6 -4 -109 -13 -59 -25
-90 -40 -102 -32 -26 -11 -32 79 -24 125 11 172 55 118 112 l-21 23 26 21 c27
20 34 52 19 77 -17 25 -89 36 -164 25z m91 -24 c24 -9 31 -17 31 -38 0 -36
-17 -51 -58 -51 -33 0 -34 1 -28 31 3 17 6 40 6 50 0 22 6 23 49 8z m-10 -120
c33 -12 40 -34 21 -70 -15 -27 -104 -29 -96 -1 2 9 7 32 11 50 7 35 16 38 64
21z"/>
<path d="M3895 3480 c-16 -4 -22 -8 -12 -9 23 -1 22 -29 -3 -138 -20 -83 -20
-88 -4 -100 51 -37 135 6 154 78 20 74 -29 124 -77 79 -12 -11 -24 -20 -27
-20 -2 0 2 25 9 55 11 51 10 67 -4 64 -3 -1 -19 -5 -36 -9z m102 -116 c7 -20
-13 -89 -33 -109 -20 -19 -50 -19 -58 1 -7 17 17 80 41 106 20 22 42 23 50 2z"/>
<path d="M2103 3473 c21 -5 21 2 -3 -107 -30 -136 -27 -146 39 -146 52 0 111
67 111 125 0 64 -43 84 -88 43 l-25 -23 7 42 c3 23 9 48 12 57 5 13 -1 16 -32
15 -22 -1 -31 -3 -21 -6z m111 -109 c7 -18 -28 -104 -47 -116 -26 -16 -47 -9
-47 17 0 25 21 76 42 103 14 17 45 15 52 -4z"/>
<path d="M2523 3468 c-22 -28 -34 -58 -23 -58 13 0 60 49 60 61 0 13 -26 11
-37 -3z"/>
<path d="M2875 3470 c3 -5 12 -10 19 -10 22 0 -21 -190 -48 -212 -20 -17 -19
-18 37 -18 31 0 57 4 57 10 0 6 -7 10 -15 10 -17 0 -20 36 -5 74 9 24 15 26
65 26 48 0 55 -3 55 -19 0 -30 -19 -75 -37 -88 -14 -11 -9 -13 34 -13 29 0 55
5 58 10 3 6 -3 10 -13 10 -19 0 -19 1 0 98 14 66 27 103 40 115 20 16 18 17
-36 17 -31 0 -56 -4 -56 -10 0 -5 7 -10 15 -10 18 0 20 -41 5 -71 -9 -15 -22
-19 -65 -19 -63 0 -68 10 -36 73 l19 37 -50 0 c-30 0 -47 -4 -43 -10z"/>
<path d="M3771 3421 c-17 -22 -27 -41 -21 -43 7 -2 6 -25 -3 -70 -8 -36 -11
-72 -7 -78 9 -14 62 -9 67 7 3 7 -3 9 -16 6 -24 -6 -25 -4 -9 71 9 47 16 60
37 69 25 10 25 11 4 14 -19 4 -21 9 -16 34 7 38 1 37 -36 -10z"/>
<path d="M4512 3417 c-21 -22 -29 -36 -21 -39 9 -3 9 -18 0 -70 -7 -37 -10
-71 -6 -77 8 -14 52 -14 60 -1 3 6 -4 10 -15 10 -14 0 -20 5 -17 13 2 7 10 38
17 70 9 46 15 57 31 57 10 0 19 5 19 10 0 6 -6 10 -14 10 -8 0 -16 12 -18 26
l-3 25 -33 -34z"/>
<path d="M190 3425 c-10 -12 -10 -18 0 -29 16 -20 42 -8 38 17 -4 26 -21 32
-38 12z"/>
<path d="M4754 3419 c-3 -6 0 -18 9 -26 12 -12 18 -13 35 -2 16 10 18 16 10
26 -13 16 -44 17 -54 2z"/>
<path d="M965 3388 c-29 -23 -55 -74 -55 -108 0 -50 81 -79 126 -45 18 14 17
15 -17 9 -26 -4 -39 -1 -49 11 -19 23 -3 45 46 62 57 20 70 36 56 68 -15 33
-67 34 -107 3z m67 -32 c-11 -24 -56 -45 -69 -32 -10 10 20 58 42 66 28 11 41
-4 27 -34z"/>
<path d="M1139 3382 c-40 -35 -52 -111 -24 -142 22 -24 77 -27 95 -5 11 13 8
14 -16 10 -40 -8 -56 6 -56 49 0 41 21 80 54 97 18 10 24 8 35 -7 10 -13 16
-15 24 -7 19 19 0 33 -41 33 -29 0 -48 -7 -71 -28z"/>
<path d="M1903 3386 c-18 -15 -35 -43 -43 -71 -11 -39 -10 -48 4 -70 19 -28
57 -33 76 -10 12 14 15 14 30 0 10 -9 24 -13 34 -9 13 5 14 9 6 14 -9 6 -8 25
4 80 9 40 15 75 12 77 -3 3 -25 8 -48 10 -37 4 -49 1 -75 -21z m83 -11 c3 -8
-6 -39 -20 -70 -21 -47 -29 -56 -48 -53 -31 4 -34 36 -7 92 17 36 26 46 45 46
14 0 27 -7 30 -15z"/>
<path d="M2600 3392 c-32 -25 -21 -64 25 -91 41 -24 45 -48 10 -61 -26 -10
-55 -4 -55 11 0 5 -4 9 -10 9 -5 0 -10 -7 -10 -15 0 -8 14 -17 34 -21 79 -14
127 52 69 95 -63 47 -67 56 -30 70 15 6 27 4 40 -7 19 -17 32 -11 24 13 -9 21
-69 19 -97 -3z"/>
<path d="M3208 3395 c-54 -30 -77 -124 -40 -158 22 -20 71 -22 97 -4 16 12 13
14 -26 13 -40 -1 -44 1 -44 24 0 20 9 27 55 45 52 20 55 23 55 55 0 33 -2 35
-35 37 -19 2 -47 -4 -62 -12z m61 -37 c-11 -20 -40 -38 -64 -38 -14 0 -14 3 0
31 17 33 56 53 67 36 4 -6 2 -19 -3 -29z"/>
<path d="M3392 3394 c-45 -32 -70 -132 -40 -162 17 -17 53 -15 68 3 12 14 15
14 31 -1 15 -14 24 -15 41 -6 18 8 19 11 6 11 -22 1 -22 -4 -2 83 14 59 14 72
3 79 -22 14 -83 10 -107 -7z m74 -19 c8 -20 -27 -105 -49 -119 -24 -15 -52 14
-44 46 18 68 78 114 93 73z"/>
<path d="M3645 3384 c-24 -26 -25 -26 -25 -5 0 17 -6 21 -30 21 -16 0 -30 -4
-30 -10 0 -5 5 -10 11 -10 12 0 9 -39 -7 -117 -11 -54 18 -40 49 25 15 31 35
66 43 77 15 20 15 20 30 1 8 -11 14 -16 14 -10 0 5 3 19 6 32 9 32 -30 30 -61
-4z"/>
<path d="M4128 3394 c-54 -29 -77 -123 -40 -157 23 -21 72 -22 98 -3 17 14 15
15 -26 13 -40 -2 -45 1 -48 20 -3 23 3 27 91 62 18 7 27 18 27 34 0 46 -48 61
-102 31z m62 -19 c0 -22 -37 -55 -60 -55 -25 0 -25 11 1 44 22 28 59 35 59 11z"/>
<path d="M4312 3394 c-45 -32 -70 -132 -40 -162 17 -17 53 -15 68 3 11 14 14
13 25 -1 9 -13 19 -15 41 -9 21 6 24 9 12 12 -22 5 -22 -1 -2 85 14 59 14 72
3 79 -22 14 -83 10 -107 -7z m74 -19 c3 -8 -6 -39 -20 -70 -18 -40 -30 -55
-45 -55 -40 0 -34 71 11 128 14 17 47 15 54 -3z"/>
<path d="M2276 3391 c-3 -5 2 -11 12 -13 25 -7 51 -146 34 -183 -12 -27 -37
-33 -45 -12 -4 9 -8 8 -16 -3 -15 -21 -14 -27 8 -33 37 -9 65 25 155 186 l38
67 -31 0 c-17 0 -31 -4 -31 -10 0 -5 5 -10 10 -10 16 0 12 -14 -17 -65 -30
-54 -34 -50 -47 38 -7 44 -9 47 -36 47 -16 0 -31 -4 -34 -9z"/>
<path d="M140 3295 c-10 -13 -10 -19 5 -35 18 -20 18 -20 32 0 12 17 12 24 3
35 -16 19 -24 19 -40 0z"/>
<path d="M4804 3295 c-12 -30 16 -45 46 -25 13 9 12 12 -4 25 -25 19 -35 19
-42 0z"/>
<path d="M104 3175 c-9 -21 3 -45 21 -45 21 0 30 27 15 45 -16 19 -29 19 -36
0z"/>
<path d="M4844 3165 c-4 -9 -2 -21 4 -27 15 -15 44 -1 40 19 -4 23 -36 29 -44
8z"/>
<path d="M4881 3046 c-16 -19 -8 -46 13 -46 20 0 29 31 13 47 -12 12 -16 12
-26 -1z"/>
<path d="M77 3043 c-24 -23 12 -55 38 -33 12 10 13 16 4 26 -12 15 -31 18 -42
7z"/>
<path d="M2080 2951 c-19 -10 -66 -25 -105 -34 -170 -39 -265 -90 -336 -179
-111 -140 -157 -320 -159 -613 0 -55 -7 -136 -16 -180 -8 -44 -17 -95 -21
-112 -5 -28 -2 -34 20 -42 35 -14 277 -64 282 -59 2 2 -7 44 -21 93 -13 50
-23 106 -22 125 3 31 7 25 42 -63 59 -151 137 -243 296 -352 89 -61 139 -68
217 -29 83 42 195 158 268 278 33 54 68 101 78 105 10 4 35 29 55 56 l38 50
114 3 c141 3 166 -8 192 -80 2 -4 106 -46 231 -94 258 -97 270 -98 337 -38 73
67 88 160 40 259 -33 68 -67 85 -167 85 -45 0 -89 -3 -98 -6 -9 -4 -25 -24
-35 -45 -32 -62 -49 -69 -180 -69 -101 0 -121 3 -165 24 -48 23 -79 48 -117
95 -10 11 -29 21 -42 21 -49 0 -75 21 -96 77 -11 30 -20 57 -20 62 0 4 -9 16
-21 27 -32 29 -39 3 -33 -111 7 -116 -5 -164 -83 -319 -95 -191 -189 -298
-312 -354 -65 -30 -118 -26 -192 15 -131 71 -274 279 -324 473 -35 133 -7 323
58 404 l23 28 70 -15 c62 -15 295 -47 334 -47 12 0 22 25 39 98 13 53 27 103
31 111 11 20 45 -130 44 -196 l0 -53 36 0 c20 0 78 7 128 16 140 24 194 -4
226 -118 28 -97 49 -62 25 42 -20 90 -92 297 -127 365 -43 82 -161 207 -237
249 -117 65 -229 83 -295 47z"/>
<path d="M45 2910 c-8 -12 3 -50 14 -50 15 0 33 30 27 45 -6 17 -32 20 -41 5z"/>
<path d="M4900 2905 c-6 -8 -9 -19 -5 -25 9 -15 41 -12 54 4 10 12 8 17 -8 25
-25 14 -26 14 -41 -4z"/>
<path d="M4432 2834 c-133 -16 -422 -96 -533 -147 -147 -68 -323 -216 -408
-342 -50 -76 -89 -161 -77 -172 3 -3 7 -4 9 -2 1 2 20 40 42 84 30 60 60 100
125 165 202 203 309 254 553 267 93 4 148 2 227 -11 138 -23 295 -85 358 -141
54 -48 93 -75 106 -75 12 0 1 243 -15 328 l-11 62 -132 -1 c-72 -1 -182 -8
-244 -15z"/>
<path d="M4920 2780 c-12 -23 -6 -40 15 -40 19 0 27 17 20 40 -8 26 -21 25
-35 0z"/>
<path d="M30 2775 c-15 -18 -5 -35 20 -35 10 0 22 5 25 10 7 11 -12 40 -25 40
-4 0 -13 -7 -20 -15z"/>
<path d="M20 2650 c-13 -25 3 -52 26 -43 18 7 18 37 0 52 -12 10 -17 8 -26 -9z"/>
<path d="M4924 2639 c-3 -6 0 -18 9 -26 12 -12 18 -13 35 -2 16 10 18 16 10
26 -13 16 -44 17 -54 2z"/>
<path d="M13 2513 c-21 -8 -15 -30 9 -37 27 -6 43 7 35 28 -6 16 -21 19 -44 9z"/>
<path d="M4931 2507 c-9 -11 -8 -17 4 -27 19 -16 47 -5 43 17 -4 23 -31 28
-47 10z"/>
<path d="M20 2380 c-14 -26 0 -46 24 -37 20 8 21 31 2 46 -12 10 -17 8 -26 -9z"/>
<path d="M4930 2375 c-19 -22 1 -39 35 -31 26 7 27 8 10 26 -22 24 -29 25 -45
5z"/>
<path d="M2980 2360 c-14 -5 -37 -12 -52 -15 -36 -7 -51 -56 -46 -150 3 -65 7
-78 32 -104 48 -50 95 -62 225 -58 111 4 115 5 138 32 23 26 24 34 20 115 -6
96 -25 155 -54 164 -11 4 -53 8 -94 10 -41 2 -90 7 -109 9 -19 3 -46 2 -60 -3z
m70 -36 c6 -14 10 -39 10 -55 0 -25 -4 -29 -27 -30 l-28 -2 29 -4 28 -5 -7
-61 c-3 -34 -8 -64 -10 -66 -10 -9 -36 11 -45 34 -14 38 -13 188 2 203 19 19
38 14 48 -14z m100 -12 c19 -40 24 -181 8 -212 -17 -31 -78 -42 -78 -14 0 13
3 14 15 4 16 -13 45 -7 45 9 0 6 -7 8 -15 5 -11 -5 -15 1 -15 20 0 14 -5 25
-11 24 -8 -2 -12 18 -13 60 -1 60 -1 62 24 63 l25 1 -27 10 c-32 11 -37 42
-11 56 23 13 38 6 53 -26z m-192 -10 c2 -13 -3 -25 -13 -28 -14 -6 -14 -8 2
-20 17 -12 17 -13 -4 -14 -28 0 -30 -16 -3 -23 17 -4 20 -14 20 -66 0 -66 -6
-73 -36 -40 -15 17 -19 36 -19 103 1 44 4 89 8 99 9 25 41 17 45 -11z m299 2
c22 -34 23 -191 2 -205 -22 -14 -29 -11 -29 11 0 11 -4 20 -10 20 -13 0 -13
-26 0 -51 8 -14 7 -19 -3 -19 -11 0 -16 24 -20 98 -4 53 -10 114 -13 135 -6
36 -6 37 24 37 23 0 36 -7 49 -26z"/>
<path d="M1861 2349 c-68 -9 -80 -14 -65 -28 14 -13 234 -29 234 -16 0 18 -15
34 -43 44 -31 12 -34 12 -126 0z"/>
<path d="M2268 2333 c-29 -4 -32 -10 -22 -37 5 -13 25 -16 110 -16 57 0 104 4
104 9 0 20 -139 52 -192 44z"/>
<path d="M24 2239 c-3 -6 0 -17 8 -25 12 -12 17 -12 32 -1 11 8 16 19 12 25
-9 15 -43 15 -52 1z"/>
<path d="M2475 2225 c-33 -27 -112 -55 -156 -55 -15 0 -31 -5 -34 -10 -10 -17
14 -38 35 -33 11 3 20 0 20 -6 0 -6 5 -11 10 -11 6 0 10 7 10 16 0 12 6 15 25
10 20 -5 25 -3 25 14 0 21 10 26 26 11 5 -5 24 11 47 40 41 54 38 62 -8 24z"/>
<path d="M4914 2239 c-3 -6 1 -18 10 -27 15 -15 17 -15 32 0 19 19 11 38 -16
38 -10 0 -22 -5 -26 -11z"/>
<path d="M1808 2199 c35 -32 47 -38 58 -28 11 9 14 7 14 -15 0 -26 1 -26 24
-11 23 16 24 15 19 -4 -7 -26 5 -27 23 -3 13 16 13 16 14 0 0 -23 12 -23 41 1
19 16 21 21 9 25 -51 20 -226 76 -234 76 -6 0 9 -18 32 -41z"/>
<path d="M44 2105 c-4 -9 0 -24 10 -33 15 -15 18 -15 26 -2 6 8 9 22 7 30 -3
21 -36 25 -43 5z"/>
<path d="M4902 2108 c-7 -7 -12 -15 -12 -19 0 -14 32 -19 53 -8 20 11 20 12 2
25 -23 17 -28 17 -43 2z"/>
<path d="M67 1976 c-3 -8 1 -22 9 -33 14 -17 14 -17 29 1 11 14 12 23 4 33
-15 17 -35 17 -42 -1z"/>
<path d="M2070 1975 c-42 -51 100 -103 165 -61 23 15 42 52 32 62 -3 3 -24 -8
-48 -25 -56 -41 -82 -40 -109 4 -25 40 -24 40 -40 20z"/>
<path d="M4869 1974 c-10 -13 -10 -17 2 -25 21 -13 36 -11 43 7 13 33 -21 47
-45 18z"/>
<path d="M2801 1948 c-16 -42 29 -86 109 -108 25 -7 50 -16 56 -21 23 -19 28
-87 29 -364 1 -273 2 -282 29 -375 41 -144 84 -227 160 -314 35 -39 33 -21 -4
38 -75 118 -118 229 -146 381 -14 74 -15 127 -10 300 3 116 9 231 12 257 6 42
4 49 -21 72 -15 14 -59 35 -96 46 -76 23 -105 50 -88 82 7 13 16 17 27 13 22
-10 32 -10 60 -1 28 9 41 -17 23 -46 -19 -30 -5 -33 15 -4 16 25 16 28 -1 46
-14 16 -31 20 -82 20 -57 0 -65 -2 -72 -22z"/>
<path d="M4847 1863 c-11 -10 -8 -41 4 -49 6 -3 18 1 27 9 13 13 13 19 2 31
-14 17 -23 20 -33 9z"/>
<path d="M102 1847 c-9 -10 -8 -18 3 -33 15 -19 15 -19 30 1 8 10 14 24 12 30
-6 16 -33 17 -45 2z"/>
<path d="M2295 1814 c-27 -25 -65 -49 -84 -54 -44 -12 -127 4 -164 31 -38 28
-44 19 -10 -16 87 -87 227 -70 297 37 31 47 13 48 -39 2z"/>
<path d="M3240 1766 c0 -2 28 -89 61 -193 175 -540 180 -558 181 -679 0 -140
-39 -271 -96 -324 -21 -19 -40 -25 -90 -28 -36 -2 -81 1 -103 8 -30 11 -279
126 -291 135 -2 2 16 112 38 246 46 270 48 249 -22 357 -48 73 -44 75 -125
-41 -100 -143 -177 -350 -153 -407 11 -24 103 -85 228 -152 30 -15 68 -39 85
-52 52 -39 168 -93 228 -106 78 -17 182 -9 216 16 37 27 79 105 99 185 13 49
15 91 11 179 -6 134 -24 203 -132 527 -95 282 -114 333 -126 333 -5 0 -9 -2
-9 -4z"/>
<path d="M140 1724 c-11 -12 -10 -18 3 -32 16 -15 18 -15 34 0 13 14 14 20 3
32 -7 9 -16 16 -20 16 -4 0 -13 -7 -20 -16z"/>
<path d="M2556 1728 c-3 -7 -10 -31 -17 -53 -35 -118 -111 -231 -268 -400 -67
-72 -97 -111 -89 -115 7 -4 40 -13 72 -20 72 -15 77 -10 95 83 26 134 15 121
111 127 47 3 95 11 107 18 29 16 53 62 53 99 0 31 -32 107 -49 117 -13 8 -15
62 -2 70 4 3 25 -30 45 -72 61 -131 46 -211 -48 -256 -19 -9 -59 -16 -89 -16
-32 0 -58 -5 -64 -12 -5 -7 -22 -57 -38 -111 -16 -55 -35 -101 -42 -104 -8 -3
-44 3 -81 13 -48 14 -100 19 -184 19 -76 0 -121 4 -129 12 -6 6 -14 38 -18 70
l-6 58 -40 5 c-57 8 -112 45 -146 99 -43 68 -35 153 22 214 l29 32 -25 -55
c-30 -67 -31 -82 -5 -134 26 -55 80 -90 136 -91 47 0 47 1 60 -90 11 -80 15
-84 81 -78 32 3 60 8 62 10 8 6 -26 58 -130 203 -125 175 -123 171 -116 247
l6 63 -62 1 c-110 3 -151 -2 -227 -28 -108 -35 -235 -105 -315 -173 -76 -64
-215 -218 -215 -237 0 -7 66 -57 148 -111 81 -55 153 -107 161 -116 12 -15 9
-28 -27 -104 -48 -105 -58 -135 -72 -230 -16 -101 -6 -125 88 -209 125 -113
154 -130 306 -179 178 -57 295 -72 430 -56 305 38 473 145 583 373 37 77 52
98 66 95 30 -7 19 9 -35 49 -102 78 -103 82 -64 237 29 114 56 169 152 312 41
60 74 112 74 116 0 4 -10 15 -22 26 -11 10 -74 81 -140 157 -65 76 -120 132
-122 125z m-847 -782 c75 -24 92 -46 37 -46 -50 0 -54 -20 -17 -77 48 -73 36
-129 -35 -159 -43 -18 -68 -18 -109 2 -81 38 -61 158 31 183 24 6 29 13 29 37
0 23 -7 32 -33 46 -42 21 -46 24 -37 38 8 13 42 7 134 -24z"/>
<path d="M4803 1724 c-3 -8 1 -22 9 -30 13 -13 16 -13 28 0 10 13 10 19 0 31
-16 19 -29 19 -37 -1z"/>
<path d="M3358 1724 c-13 -13 -9 -102 8 -169 20 -78 134 -308 210 -422 64 -96
193 -236 283 -306 34 -27 61 -45 61 -41 0 4 -58 66 -128 138 -149 153 -244
281 -313 421 -44 91 -64 156 -106 348 -4 21 -11 35 -15 31z"/>
<path d="M190 1596 c-10 -13 -10 -19 0 -31 7 -8 16 -15 20 -15 15 0 20 34 7
47 -12 12 -16 12 -27 -1z"/>
<path d="M4760 1594 c-11 -12 -10 -18 3 -32 21 -21 42 -3 32 27 -8 25 -18 27
-35 5z"/>
<path d="M3978 1474 c-11 -22 -10 -28 7 -40 10 -8 26 -14 34 -14 13 1 13 3 -3
15 -18 13 -17 14 8 21 16 4 32 1 41 -6 13 -10 15 -9 15 9 0 14 -9 25 -26 31
-42 16 -64 12 -76 -16z"/>
<path d="M240 1474 c-11 -12 -10 -18 3 -32 16 -15 18 -15 34 0 13 14 14 20 3
32 -7 9 -16 16 -20 16 -4 0 -13 -7 -20 -16z"/>
<path d="M4712 1478 c-16 -16 -15 -33 2 -47 22 -18 44 25 24 45 -11 11 -16 12
-26 2z"/>
<path d="M300 1355 c-16 -19 8 -59 27 -43 17 14 17 45 -1 51 -8 3 -20 0 -26
-8z"/>
<path d="M4650 1355 c-9 -11 -11 -22 -4 -32 13 -21 25 -21 38 -1 8 14 7 21 -5
33 -14 15 -17 15 -29 0z"/>
<path d="M4581 1242 c-8 -15 -7 -23 5 -33 18 -15 38 0 32 27 -5 25 -25 28 -37
6z"/>
<path d="M364 1235 c-12 -29 15 -45 45 -26 12 8 12 12 2 25 -17 20 -40 21 -47
1z"/>
<path d="M968 1143 c-19 -38 -48 -101 -63 -141 -27 -68 -27 -73 -11 -85 40
-29 288 -138 304 -133 19 7 98 197 89 218 -4 11 -269 208 -280 208 -1 0 -19
-30 -39 -67z"/>
<path d="M4510 1130 c-14 -26 0 -46 24 -37 20 8 21 31 2 46 -12 10 -17 8 -26
-9z"/>
<path d="M440 1125 c-19 -22 5 -48 31 -34 10 5 19 14 19 19 0 5 -9 14 -19 19
-14 8 -22 7 -31 -4z"/>
<path d="M514 1015 c-12 -29 15 -45 45 -26 12 8 12 12 2 25 -17 20 -40 21 -47
1z"/>
<path d="M4432 1018 c-15 -18 1 -41 24 -36 23 4 26 41 3 46 -9 1 -21 -3 -27
-10z"/>
<path d="M594 909 c-3 -6 1 -18 10 -27 15 -15 17 -15 32 0 9 9 13 21 10 27 -9
14 -43 14 -52 0z"/>
<path d="M4346 911 c-10 -16 5 -42 23 -39 21 4 21 42 -1 46 -9 2 -19 -1 -22
-7z"/>
<path d="M690 820 c-15 -28 5 -57 26 -39 18 15 18 33 0 48 -12 10 -17 8 -26
-9z"/>
<path d="M4260 815 c-11 -13 -11 -19 3 -33 20 -19 41 -5 35 24 -4 24 -22 28
-38 9z"/>
<path d="M787 733 c-11 -10 -8 -41 4 -49 6 -3 18 1 27 9 13 13 13 19 2 31 -14
17 -23 20 -33 9z"/>
<path d="M4165 720 c-8 -12 3 -50 14 -50 15 0 33 30 27 45 -6 17 -32 20 -41 5z"/>
<path d="M884 626 c-8 -22 3 -49 19 -43 6 2 12 14 12 27 0 27 -22 39 -31 16z"/>
<path d="M4064 625 c-13 -32 23 -48 47 -19 10 13 10 17 -2 25 -21 13 -39 11
-45 -6z"/>
<path d="M991 556 c-16 -19 -7 -46 14 -46 22 0 30 29 13 46 -13 13 -16 13 -27
0z"/>
<path d="M3962 548 c-13 -13 2 -38 23 -38 21 0 36 25 23 38 -7 7 -17 12 -23
12 -6 0 -16 -5 -23 -12z"/>
<path d="M1097 473 c-24 -23 12 -55 38 -33 12 10 13 16 4 26 -12 15 -31 18
-42 7z"/>
<path d="M3852 468 c-13 -13 2 -38 23 -38 21 0 36 25 23 38 -7 7 -17 12 -23
12 -6 0 -16 -5 -23 -12z"/>
<path d="M1204 395 c-12 -29 15 -45 45 -26 12 8 12 12 2 25 -17 20 -40 21 -47
1z"/>
<path d="M3747 403 c-4 -3 -7 -15 -7 -25 0 -22 32 -24 49 -4 10 12 8 17 -8 25
-23 13 -26 13 -34 4z"/>
<path d="M1320 334 c-11 -12 -10 -18 3 -31 22 -23 52 0 36 28 -12 23 -22 24
-39 3z"/>
<path d="M3623 324 c-3 -8 1 -22 9 -30 13 -13 16 -13 27 0 7 9 11 23 7 31 -7
20 -35 19 -43 -1z"/>
<path d="M1440 274 c-11 -12 -11 -18 2 -30 13 -13 20 -14 38 -4 21 11 21 12 4
31 -21 23 -28 24 -44 3z"/>
<path d="M3510 275 c-25 -30 10 -61 38 -33 17 17 15 26 -7 37 -14 8 -22 7 -31
-4z"/>
<path d="M3392 228 c-24 -24 -9 -54 22 -42 19 7 21 28 3 43 -10 8 -17 7 -25
-1z"/>
<path d="M1567 223 c-11 -10 -8 -41 5 -49 14 -9 38 23 31 42 -5 15 -25 19 -36
7z"/>
<path d="M3260 180 c-13 -25 3 -52 26 -43 18 7 18 37 0 52 -12 10 -17 8 -26
-9z"/>
<path d="M1690 175 c-19 -22 5 -48 31 -34 10 5 19 14 19 19 0 5 -9 14 -19 19
-14 8 -22 7 -31 -4z"/>
<path d="M1820 135 c-19 -22 5 -48 31 -34 10 5 19 14 19 19 0 5 -9 14 -19 19
-14 8 -22 7 -31 -4z"/>
<path d="M3131 131 c-15 -28 10 -47 38 -29 19 11 19 14 4 30 -21 23 -30 23
-42 -1z"/>
<path d="M1942 98 c-8 -8 -9 -15 -1 -25 14 -17 34 -17 48 0 11 15 -3 37 -24
37 -6 0 -16 -5 -23 -12z"/>
<path d="M3001 96 c-9 -10 -8 -16 3 -25 20 -17 60 7 44 26 -14 17 -33 17 -47
-1z"/>
<path d="M2870 80 c-13 -25 -5 -40 20 -40 26 0 33 15 18 40 -16 25 -24 25 -38
0z"/>
<path d="M2074 75 c-12 -29 15 -45 45 -26 12 8 12 12 2 25 -17 20 -40 21 -47
1z"/>
<path d="M2211 66 c-14 -16 -4 -46 14 -46 19 0 27 17 20 40 -7 23 -18 25 -34
6z"/>
<path d="M2342 53 c-18 -34 9 -58 36 -31 7 7 8 17 1 30 -12 23 -26 23 -37 1z"/>
<path d="M2741 56 c-18 -22 11 -41 40 -25 22 11 22 12 4 25 -24 17 -30 17 -44
0z"/>
<path d="M2472 48 c-8 -8 -8 -17 -1 -30 14 -26 39 -23 39 6 0 27 -22 40 -38
24z"/>
<path d="M2606 44 c-12 -31 21 -47 43 -21 8 10 7 17 -1 25 -17 17 -35 15 -42
-4z"/>
</g>
</svg>
