<?xml version="1.0" standalone="no"?>
<!DOCTYPE svg PUBLIC "-//W3C//DTD SVG 20010904//EN"
 "http://www.w3.org/TR/2001/REC-SVG-20010904/DTD/svg10.dtd">
<svg version="1.0" xmlns="http://www.w3.org/2000/svg"
 width="499.000000pt" height="500.000000pt" viewBox="0 0 499.000000 500.000000"
 preserveAspectRatio="xMidYMid meet">
<metadata>
Created by potrace 1.15, written by Peter Selinger 2001-2017
</metadata>
<g transform="translate(0.000000,500.000000) scale(0.100000,-0.100000)"
fill="#000000" stroke="none">
<path d="M2340 4975 c-10 -12 -10 -18 0 -30 15 -18 20 -18 44 0 20 15 20 15 0
30 -24 18 -29 18 -44 0z"/>
<path d="M2477 4983 c-24 -23 12 -55 38 -33 12 10 13 16 4 26 -12 15 -31 18
-42 7z"/>
<path d="M2610 4974 c-11 -12 -11 -18 1 -30 13 -12 18 -12 34 0 16 12 17 16 6
30 -17 20 -25 20 -41 0z"/>
<path d="M2210 4965 c-15 -18 -5 -35 20 -35 10 0 22 5 25 10 7 11 -12 40 -25
40 -4 0 -13 -7 -20 -15z"/>
<path d="M2739 4964 c-10 -13 -10 -17 2 -25 19 -12 33 -11 47 3 9 9 7 14 -6
24 -22 17 -27 17 -43 -2z"/>
<path d="M2074 4945 c-12 -29 15 -45 45 -26 12 8 12 12 2 25 -17 20 -40 21
-47 1z"/>
<path d="M2877 4953 c-11 -10 -8 -41 4 -49 6 -3 18 1 27 9 13 13 13 19 2 31
-14 17 -23 20 -33 9z"/>
<path d="M1945 4920 c-8 -13 3 -50 15 -50 13 0 32 39 25 50 -8 13 -32 13 -40
0z"/>
<path d="M2995 4920 c-6 -10 15 -50 27 -50 12 0 30 39 23 50 -8 13 -42 13 -50
0z"/>
<path d="M1817 4893 c-24 -23 12 -55 38 -33 12 10 13 16 4 26 -12 15 -31 18
-42 7z"/>
<path d="M3137 4893 c-24 -23 12 -55 38 -33 12 10 13 16 4 26 -12 15 -31 18
-42 7z"/>
<path d="M1692 4858 c-25 -25 -9 -54 23 -42 9 4 15 15 13 27 -4 25 -19 32 -36
15z"/>
<path d="M3262 4847 c-9 -10 -8 -18 3 -33 13 -16 16 -17 25 -4 21 31 -5 65
-28 37z"/>
<path d="M1572 4818 c-16 -16 -15 -33 2 -47 10 -9 16 -8 26 3 16 21 -10 62
-28 44z"/>
<path d="M3392 4808 c-27 -27 -6 -56 28 -38 25 13 26 26 2 39 -13 7 -23 6 -30
-1z"/>
<path d="M3509 4756 c-11 -23 -10 -29 2 -37 20 -12 29 -11 35 6 3 8 -1 24 -10
36 l-15 22 -12 -27z"/>
<path d="M1434 4749 c-3 -6 0 -18 9 -26 12 -12 18 -13 35 -2 16 10 18 16 10
26 -13 16 -44 17 -54 2z"/>
<path d="M3629 4697 c-14 -31 -2 -52 24 -41 21 8 22 24 3 49 -14 19 -15 19
-27 -8z"/>
<path d="M1317 4686 c-3 -8 0 -20 8 -26 19 -16 59 8 43 27 -14 17 -45 17 -51
-1z"/>
<path d="M1211 4636 c-16 -19 -7 -46 14 -46 22 0 30 29 13 46 -13 13 -16 13
-27 0z"/>
<path d="M3746 4634 c-11 -29 -6 -44 13 -44 27 0 34 15 19 40 -15 24 -24 25
-32 4z"/>
<path d="M1102 4568 c-16 -16 -15 -45 2 -51 8 -3 20 0 26 8 16 20 -11 60 -28
43z"/>
<path d="M3862 4568 c-16 -16 -15 -45 2 -51 23 -9 39 18 26 42 -13 25 -12 25
-28 9z"/>
<path d="M984 4475 c-12 -30 16 -45 46 -25 13 9 12 12 -4 25 -25 19 -35 19
-42 0z"/>
<path d="M3961 4471 c-12 -21 -5 -31 19 -31 28 0 42 22 22 36 -23 18 -30 17
-41 -5z"/>
<path d="M880 4395 c-25 -30 10 -61 38 -33 7 7 8 17 1 30 -12 22 -23 23 -39 3z"/>
<path d="M4064 4389 c-3 -6 0 -17 8 -25 12 -12 17 -12 33 1 17 13 18 16 5 25
-20 13 -37 13 -46 -1z"/>
<path d="M4171 4307 c-26 -26 -4 -55 29 -37 25 13 25 22 1 37 -14 9 -21 9 -30
0z"/>
<path d="M780 4293 c0 -10 5 -25 10 -33 8 -13 11 -12 23 5 18 24 11 45 -14 45
-11 0 -19 -7 -19 -17z"/>
<path d="M686 4211 c-8 -13 4 -41 18 -41 6 0 17 4 25 9 12 8 12 12 2 25 -15
18 -37 21 -45 7z"/>
<path d="M4260 4205 c-21 -26 3 -42 37 -26 27 12 27 13 8 27 -24 18 -30 18
-45 -1z"/>
<path d="M4070 4179 c0 -10 16 -40 35 -69 20 -30 35 -64 35 -81 0 -17 10 -43
23 -60 20 -28 22 -41 21 -137 -2 -158 -13 -242 -37 -273 -14 -20 -18 -36 -14
-58 6 -28 0 -38 -66 -104 -40 -41 -92 -89 -117 -107 -41 -31 -91 -73 -162
-137 -16 -14 -28 -32 -28 -40 0 -8 -21 -39 -48 -67 -43 -48 -49 -60 -65 -142
-11 -49 -22 -120 -27 -159 -5 -38 -11 -78 -15 -87 -10 -26 13 -85 42 -108 37
-29 42 -15 8 20 -34 36 -39 88 -11 119 14 15 15 24 7 40 -19 34 -12 76 19 122
23 35 28 51 24 80 -5 31 0 42 50 103 31 38 56 77 56 86 0 27 54 67 99 75 31 5
48 16 72 46 17 22 48 48 67 57 26 12 38 26 44 49 5 19 24 45 48 64 36 29 40
36 34 65 -4 24 1 43 20 77 23 38 25 49 15 70 -9 20 -8 36 6 78 10 30 24 66 31
80 11 22 10 27 -7 37 -21 14 -25 49 -7 86 9 22 7 31 -15 64 -15 21 -27 50 -27
65 0 19 -14 43 -43 75 -24 26 -49 56 -55 67 -9 16 -11 17 -12 4z"/>
<path d="M1738 4124 c-10 -21 -9 -27 3 -35 8 -5 16 -9 19 -9 3 0 11 4 19 9 12
8 13 14 3 35 -6 14 -16 26 -22 26 -6 0 -16 -12 -22 -26z"/>
<path d="M2053 4133 c-33 -4 -48 -33 -18 -33 10 0 15 -10 15 -29 0 -52 -8 -61
-49 -55 -86 13 -174 -76 -175 -176 -2 -94 65 -131 132 -75 l30 25 6 -25 c5
-20 13 -25 39 -25 32 0 57 15 57 33 0 5 -11 6 -25 3 -23 -6 -25 -4 -20 16 29
135 64 298 67 318 3 27 -5 30 -59 23z m-30 -157 c17 -25 -20 -145 -55 -173 -7
-6 -25 -14 -40 -18 -21 -5 -29 -2 -38 15 -17 32 21 151 57 180 27 21 60 19 76
-4z"/>
<path d="M2670 4125 c-10 -12 -10 -18 0 -30 15 -19 29 -19 54 0 20 15 20 15 0
30 -25 19 -39 19 -54 0z"/>
<path d="M2883 4116 c-16 -14 -35 -43 -41 -64 -10 -31 -20 -43 -45 -52 l-32
-12 28 -10 c15 -5 27 -17 27 -26 0 -41 -60 -276 -72 -283 -21 -14 -29 -11 -35
11 -9 33 -38 20 -38 -15 0 -28 3 -30 38 -33 43 -4 79 15 98 50 7 13 24 82 39
153 25 127 26 130 56 140 42 14 46 29 7 33 -29 3 -31 5 -23 30 15 50 21 59 46
71 22 10 26 8 34 -15 12 -30 34 -27 38 6 5 28 -12 40 -60 40 -24 0 -46 -8 -65
-24z"/>
<path d="M1174 4121 c-11 -11 -1 -21 21 -21 15 0 25 -6 25 -15 0 -31 -81 -299
-93 -307 -6 -4 -17 -6 -24 -4 -6 3 -14 -2 -17 -10 -4 -11 8 -14 69 -14 61 0
75 3 75 15 0 9 -6 15 -12 14 -25 -3 -38 1 -38 13 0 25 63 248 70 248 4 0 10
-28 14 -62 4 -35 12 -100 18 -146 11 -81 12 -83 37 -80 23 3 36 23 103 153 83
161 85 161 68 10 -15 -127 -17 -134 -45 -141 -51 -13 -22 -24 60 -24 69 0 85
3 85 15 0 10 -10 15 -30 15 -29 0 -31 2 -26 33 3 17 10 77 16 132 14 137 16
144 46 151 36 9 24 28 -21 32 -58 5 -81 -5 -97 -40 -7 -18 -40 -85 -72 -148
-68 -133 -65 -135 -86 58 -7 67 -16 122 -19 122 -47 4 -124 4 -127 1z"/>
<path d="M603 4109 c-16 -16 -5 -39 18 -39 24 0 37 29 18 41 -18 11 -23 11
-36 -2z"/>
<path d="M4220 4063 c0 -56 1 -59 30 -70 24 -9 30 -17 30 -41 0 -17 -5 -43
-10 -58 -8 -21 -7 -31 5 -44 20 -23 19 -42 -10 -135 -21 -70 -22 -81 -9 -96
13 -14 12 -22 -10 -70 -14 -30 -28 -71 -31 -91 -4 -22 -19 -47 -36 -63 -26
-22 -29 -30 -23 -61 9 -47 -15 -74 -68 -74 -41 0 -61 -15 -90 -68 -12 -22 -30
-36 -67 -49 -38 -13 -51 -23 -51 -38 -1 -12 -17 -31 -40 -47 -48 -33 -69 -65
-77 -114 -3 -22 -17 -52 -30 -67 -15 -19 -23 -41 -23 -67 0 -21 -5 -51 -10
-65 -10 -26 -9 -27 16 -21 23 6 25 5 18 -16 -14 -47 -23 -66 -33 -73 -21 -13
-9 -41 28 -67 29 -19 44 -41 59 -80 16 -43 24 -53 43 -54 13 -1 45 -11 72 -22
l47 -21 -14 -33 c-38 -90 -37 -89 -75 -82 -20 3 -43 8 -51 10 -27 7 -45 -14
-55 -63 -10 -46 -11 -48 -43 -45 -46 5 -40 -10 22 -51 30 -20 86 -64 125 -97
63 -54 73 -67 90 -123 l19 -62 1 46 c1 37 -6 57 -39 107 l-40 62 37 0 c21 0
54 11 78 25 l43 24 12 -45 c17 -60 36 -51 32 16 -3 46 1 57 24 81 l28 29 -27
0 c-23 0 -27 4 -27 30 0 34 -22 94 -38 104 -7 4 -9 -15 -5 -61 4 -60 2 -72
-18 -103 -13 -19 -45 -45 -70 -58 -45 -22 -48 -22 -88 -6 -42 17 -81 55 -81
81 0 11 6 9 27 -6 34 -28 43 -18 13 14 -27 29 -18 31 34 10 46 -19 47 -4 1 21
-48 26 -44 34 14 27 l50 -6 11 43 c6 24 24 56 40 72 56 56 105 30 175 -96 74
-133 79 -239 14 -340 -33 -52 -90 -85 -149 -86 -58 -1 -64 -9 -50 -72 11 -48
10 -58 -5 -81 -19 -30 -45 -36 -45 -10 0 13 -3 14 -11 6 -15 -15 14 -63 36
-63 20 0 19 -16 -2 -24 -10 -4 -26 3 -43 19 -27 26 -50 33 -50 14 0 -6 16 -29
35 -52 19 -22 35 -45 35 -49 0 -14 -30 -70 -63 -116 -29 -39 -32 -41 -48 -26
-19 18 -37 16 -104 -10 -45 -17 -132 -21 -155 -6 -11 7 -3 10 30 10 54 1 119
15 133 29 19 19 1 21 -69 6 -76 -16 -178 -20 -170 -6 3 5 27 12 53 16 50 7 83
21 83 33 0 4 -48 7 -107 7 -76 0 -107 4 -110 13 -3 8 11 12 49 13 45 2 40 3
-31 10 -46 4 -86 11 -90 15 -3 3 20 4 52 2 56 -5 76 5 37 17 -11 3 -20 13 -20
21 0 11 -16 14 -70 14 -68 0 -70 1 -86 32 -25 47 -15 140 21 214 27 54 34 60
75 71 42 11 43 11 13 12 -18 1 -33 5 -33 10 0 14 60 48 98 56 40 8 42 25 2 25
-35 0 -35 0 -16 44 24 59 81 103 169 132 105 35 138 55 161 99 19 35 19 35 -2
56 -26 24 -33 105 -8 96 45 -17 97 -29 103 -24 10 10 -25 44 -53 51 -18 5 -26
17 -35 51 -14 55 -36 59 -44 8 -9 -56 -18 -68 -56 -71 -70 -5 -79 -11 -105
-65 -31 -67 -31 -107 1 -146 l26 -30 -48 -21 c-63 -28 -93 -58 -163 -160 -78
-115 -106 -139 -161 -144 -57 -4 -117 -35 -183 -95 -40 -37 -66 -51 -107 -61
-30 -6 -84 -21 -121 -31 -63 -18 -70 -19 -116 -4 -34 12 -59 14 -82 8 -24 -6
-97 3 -285 38 -284 52 -385 66 -370 50 6 -5 141 -37 300 -70 160 -33 314 -68
343 -76 72 -22 113 -61 152 -146 40 -88 50 -158 26 -194 -23 -35 -1 -32 36 6
28 27 30 34 24 77 -9 69 -62 168 -122 231 -30 30 -54 56 -54 58 0 10 80 -32
103 -55 16 -15 54 -78 84 -140 55 -113 76 -141 49 -65 -19 54 -63 139 -97 190
-16 23 -29 44 -29 46 0 2 46 15 102 28 75 17 115 33 148 56 25 18 81 55 125
83 83 52 123 64 110 33 -34 -83 -42 -195 -20 -269 5 -18 -5 -31 -58 -75 -36
-30 -68 -60 -71 -67 -7 -15 -1 -12 62 31 48 32 67 29 35 -6 -19 -20 -53 -79
-53 -92 0 -14 17 -2 32 24 15 28 78 71 78 53 0 -20 -74 -144 -93 -156 -47 -29
-188 -57 -300 -60 -62 -2 -120 1 -130 6 -11 6 -57 3 -120 -6 -56 -8 -140 -18
-187 -21 -208 -16 -617 -91 -598 -111 8 -8 193 15 403 51 204 35 372 55 452
55 44 0 45 -1 31 -21 -16 -24 -112 -61 -392 -149 -104 -33 -192 -63 -195 -66
-20 -19 266 62 529 150 144 49 181 54 233 32 47 -19 122 -108 162 -191 35 -73
43 -121 25 -155 -13 -25 -107 -82 -290 -178 -419 -218 -483 -253 -460 -247 14
4 164 74 334 157 256 124 319 151 365 155 73 6 94 17 119 62 17 30 43 49 134
98 120 65 144 73 278 98 210 39 335 113 446 265 21 29 53 55 91 75 71 37 85
65 59 123 l-17 38 44 85 c30 57 49 111 60 169 9 47 26 135 38 195 34 171 37
204 26 281 -10 67 -9 75 18 140 16 41 30 96 33 137 4 60 2 74 -26 130 -26 54
-29 68 -23 109 4 26 13 54 20 62 20 24 136 84 177 92 57 11 77 37 72 94 -4 38
-15 62 -51 110 -25 33 -49 77 -53 96 -8 42 -40 69 -105 88 -51 16 -109 6 -109
-17 0 -6 20 -30 45 -53 37 -34 45 -47 45 -77 0 -60 -7 -67 -62 -67 -48 0 -96
-17 -130 -48 -17 -14 -18 -12 -18 41 0 71 -12 79 -100 67 -73 -10 -80 -8 -80
25 0 30 21 44 126 84 103 40 144 84 144 155 0 13 16 50 35 81 54 90 77 184 90
365 4 59 2 114 -5 145 -15 70 -58 181 -76 195 -12 11 -14 4 -14 -47z m145
-897 c23 -18 39 -43 54 -87 11 -34 36 -78 56 -100 40 -44 41 -49 20 -89 -13
-25 -21 -30 -54 -30 -31 0 -43 -6 -58 -26 -14 -19 -34 -29 -79 -38 l-59 -12
-7 -63 c-4 -35 -9 -65 -11 -67 -2 -2 -25 5 -51 17 l-48 21 51 47 c44 41 51 52
51 86 0 31 -7 45 -39 76 -39 36 -39 38 -21 54 26 23 129 24 164 2 51 -34 96
-13 49 22 -55 41 -55 40 -48 94 6 59 2 68 -42 91 -18 9 -33 21 -33 28 0 18 69
1 105 -26z m-425 -161 c25 -27 40 -25 40 6 0 30 20 22 35 -13 14 -34 14 -34
30 18 9 30 25 2 25 -44 l0 -47 58 -30 c82 -43 83 -65 0 -151 -45 -47 -82 -75
-130 -97 -78 -37 -87 -60 -23 -65 22 -2 48 -11 58 -19 15 -15 17 -15 17 0 0
31 23 66 51 77 73 31 189 -75 189 -173 0 -30 -38 -160 -55 -187 -4 -6 -33 18
-67 55 -70 77 -93 90 -169 99 -69 9 -153 47 -170 77 -16 32 -14 146 5 190 29
69 100 109 193 109 85 0 100 25 19 32 -35 3 -69 14 -101 34 -26 16 -68 40 -93
54 -73 40 -63 72 10 34 37 -19 51 -6 42 39 -7 34 5 35 36 2z m-75 -117 c25
-17 45 -34 44 -37 0 -8 -110 -94 -113 -90 -2 2 -10 18 -19 34 -14 29 -14 32 9
58 13 16 24 37 24 48 0 25 2 25 55 -13z m-295 -549 c0 -7 10 -9 26 -5 28 7 64
0 64 -14 0 -4 -16 -11 -35 -14 -19 -4 -37 -12 -41 -18 -7 -10 46 -5 82 9 8 3
14 0 14 -6 0 -6 -20 -21 -45 -33 -44 -21 -58 -38 -32 -38 6 0 31 11 55 25 51
29 55 18 7 -24 -39 -34 -52 -37 -75 -18 -42 33 -61 88 -44 131 7 18 24 22 24
5z m614 -556 c-11 -106 -34 -186 -75 -259 -22 -41 -44 -76 -49 -79 -5 -3 -21
-3 -35 1 -20 5 -24 11 -20 28 5 17 2 16 -19 -9 -14 -16 -28 -27 -31 -24 -9 9
52 201 67 210 7 5 25 9 41 9 26 0 27 2 27 50 0 27 6 54 13 59 6 6 28 24 47 40
19 17 36 31 38 31 1 0 -1 -26 -4 -57z m-144 -79 c-23 -27 -30 -14 -12 23 15
31 17 33 20 14 2 -12 -2 -29 -8 -37z m5 -308 c19 -8 40 -27 47 -42 11 -24 10
-29 -16 -51 -19 -16 -37 -23 -53 -20 -20 4 -32 -6 -71 -57 -69 -91 -139 -162
-191 -195 -53 -34 -138 -61 -191 -61 -84 0 -224 -54 -368 -141 -35 -22 -66
-39 -68 -39 -2 0 -4 24 -4 53 0 98 -84 238 -179 298 -28 19 -39 30 -30 33 8 3
61 17 119 31 57 15 111 30 118 34 8 5 26 30 41 56 31 57 63 83 111 90 19 3 29
3 23 -1 -29 -13 -8 -21 87 -34 55 -7 100 -17 100 -21 0 -4 -15 -10 -33 -13
-37 -7 -133 -64 -123 -73 3 -3 16 1 29 10 51 33 128 47 264 47 91 0 133 -4
133 -11 0 -6 20 11 45 39 71 79 134 99 210 68z m-1055 -342 c108 -125 130
-198 88 -294 -9 -19 -19 -44 -22 -54 -5 -14 -10 -16 -18 -8 -8 8 -7 22 7 53
23 50 23 124 0 169 -9 18 -46 75 -82 126 -76 110 -65 113 27 8z"/>
<path d="M4344 4109 c-3 -6 1 -18 10 -27 15 -15 17 -15 34 1 15 16 15 19 2 27
-20 13 -37 12 -46 -1z"/>
<path d="M522 4011 c-18 -11 -11 -45 9 -49 9 -2 19 5 23 14 8 22 -14 46 -32
35z"/>
<path d="M2202 4009 c-42 -9 -66 -29 -34 -29 14 0 23 -7 26 -22 5 -24 26 -185
26 -200 0 -4 11 -8 24 -8 20 0 32 13 63 70 21 38 41 70 44 70 3 0 9 -24 13
-54 8 -71 14 -86 36 -86 23 0 28 7 93 123 78 137 79 139 26 135 -43 -3 -69
-28 -30 -28 27 0 27 0 -8 -68 -54 -105 -57 -106 -70 -26 -6 38 -12 80 -14 94
-1 19 -9 26 -29 28 -26 3 -28 1 -28 -34 0 -35 -53 -144 -71 -144 -3 0 -10 35
-14 78 -9 104 -12 110 -53 101z"/>
<path d="M3064 4001 c-71 -32 -111 -107 -101 -185 7 -53 35 -76 94 -76 43 0
101 22 115 44 11 17 3 17 -35 1 -73 -30 -117 -14 -117 44 0 15 16 25 80 46 48
16 84 34 90 45 17 31 11 68 -12 84 -29 21 -64 20 -114 -3z m80 -24 c19 -29
-12 -69 -64 -84 -25 -7 -48 -12 -52 -11 -15 6 32 87 59 102 32 18 42 16 57 -7z"/>
<path d="M4429 4004 c-11 -14 -10 -18 6 -30 16 -12 21 -12 34 0 12 12 12 18 1
30 -16 20 -24 20 -41 0z"/>
<path d="M1677 4003 c-12 -11 -8 -23 8 -23 20 0 19 -16 -6 -122 -11 -49 -18
-95 -15 -103 7 -18 67 -20 84 -3 19 19 14 29 -12 22 l-24 -6 29 114 c16 62 29
116 29 121 0 9 -84 10 -93 0z"/>
<path d="M2613 4003 c-20 -8 -15 -23 7 -23 11 0 20 -3 20 -6 0 -3 -11 -51 -25
-106 -20 -77 -23 -103 -14 -114 14 -17 61 -18 77 -2 18 18 14 30 -8 23 -26 -8
-25 -2 5 115 14 52 25 101 25 108 0 12 -61 16 -87 5z"/>
<path d="M440 3894 c-11 -12 -11 -18 1 -30 13 -12 18 -12 34 0 16 12 17 16 6
30 -17 20 -25 20 -41 0z"/>
<path d="M4511 3896 c-19 -22 4 -62 25 -45 17 14 15 50 -2 56 -6 2 -16 -3 -23
-11z"/>
<path d="M372 3788 c-27 -27 -3 -54 31 -36 22 11 22 25 -1 37 -13 7 -23 6 -30
-1z"/>
<path d="M4580 3785 c-11 -13 -11 -19 3 -33 20 -19 41 -5 35 24 -4 24 -22 28
-38 9z"/>
<path d="M300 3665 c-21 -25 2 -42 36 -26 26 11 26 12 8 26 -24 18 -29 18 -44
0z"/>
<path d="M4644 3665 c-12 -29 15 -45 45 -26 12 8 12 12 2 25 -17 20 -40 21
-47 1z"/>
<path d="M4711 3556 c-16 -19 -7 -46 14 -46 22 0 30 29 13 46 -13 13 -16 13
-27 0z"/>
<path d="M242 3548 c-8 -8 -9 -15 -1 -25 15 -17 34 -17 48 1 10 12 8 17 -8 25
-24 14 -24 14 -39 -1z"/>
<path d="M1555 3474 c-157 -57 -209 -287 -85 -371 52 -36 163 -28 213 15 25
22 16 24 -39 7 -77 -23 -101 -20 -141 20 -35 35 -36 37 -31 103 9 125 79 212
169 212 50 0 61 -12 61 -59 -1 -33 3 -41 17 -41 14 0 20 13 27 54 l10 55 -42
10 c-57 15 -110 13 -159 -5z"/>
<path d="M2593 3473 c-20 -8 -15 -23 7 -23 26 0 26 -4 -15 -190 -19 -87 -35
-161 -35 -164 0 -4 11 -6 24 -6 24 0 36 16 36 48 0 28 45 115 78 150 58 62 70
35 40 -89 -22 -89 -22 -91 -3 -105 26 -19 39 -18 66 7 l24 21 -22 -5 c-30 -7
-30 17 -3 123 21 83 19 104 -11 120 -26 14 -59 -2 -102 -49 -20 -23 -38 -41
-40 -41 -3 0 22 124 38 187 5 21 2 23 -32 22 -21 0 -44 -3 -50 -6z"/>
<path d="M190 3425 c-15 -18 -5 -35 20 -35 10 0 22 5 25 10 7 11 -12 40 -25
40 -4 0 -13 -7 -20 -15z"/>
<path d="M825 3400 c-14 -22 -36 -42 -50 -46 -30 -7 -33 -34 -4 -34 15 0 19
-5 15 -17 -3 -10 -13 -58 -22 -107 -17 -86 -17 -89 1 -102 25 -18 45 -18 73 2
31 22 27 35 -9 27 -28 -5 -30 -4 -25 18 8 30 36 169 36 173 0 2 14 6 30 10 36
7 40 26 5 26 -23 0 -24 2 -18 45 3 25 3 45 -1 45 -3 0 -17 -18 -31 -40z"/>
<path d="M2169 3403 c-13 -21 -36 -44 -52 -51 -32 -15 -36 -32 -7 -32 24 0 25
-14 5 -95 -8 -33 -14 -76 -15 -96 0 -31 4 -38 24 -43 30 -7 71 7 79 28 5 12 0
14 -23 9 -35 -7 -35 -8 -12 106 17 82 19 85 50 93 39 10 42 28 6 28 -25 0 -26
1 -20 45 9 55 -3 57 -35 8z"/>
<path d="M4760 3425 c-15 -18 -5 -35 20 -35 10 0 22 5 25 10 7 11 -12 40 -25
40 -4 0 -13 -7 -20 -15z"/>
<path d="M1037 3356 c-71 -26 -107 -80 -107 -161 0 -38 5 -52 29 -76 24 -24
38 -29 76 -29 93 0 155 63 155 158 0 48 -4 58 -34 88 -37 37 -59 41 -119 20z
m88 -40 c14 -20 15 -34 6 -80 -18 -95 -41 -126 -96 -126 -47 0 -64 55 -41 135
9 31 26 65 36 75 28 28 76 26 95 -4z"/>
<path d="M1885 3358 c-75 -27 -125 -97 -125 -175 0 -55 7 -71 41 -88 32 -17
53 -12 90 22 l26 24 7 -25 c7 -30 34 -40 70 -27 34 13 35 40 2 34 l-24 -5 24
93 c32 129 32 133 -15 147 -45 14 -56 14 -96 0z m78 -30 c5 -17 -16 -106 -32
-138 -13 -25 -59 -69 -73 -70 -4 0 -14 7 -22 16 -35 35 -6 152 46 188 27 19
75 21 81 4z"/>
<path d="M2375 3351 c-86 -37 -131 -177 -76 -235 20 -21 34 -26 72 -26 53 0
95 15 103 36 7 18 -3 18 -49 -2 -73 -30 -113 26 -85 119 25 83 108 129 130 71
13 -33 35 -26 35 12 0 28 -1 29 -55 31 -30 1 -64 -2 -75 -6z"/>
<path d="M141 3301 c-16 -28 14 -51 36 -28 13 13 14 19 3 31 -17 21 -27 20
-39 -3z"/>
<path d="M4807 3303 c-24 -23 12 -55 38 -33 12 10 13 16 4 26 -12 15 -31 18
-42 7z"/>
<path d="M102 3168 c-7 -10 -6 -19 4 -33 15 -20 15 -20 30 0 8 10 13 24 11 30
-5 15 -33 17 -45 3z"/>
<path d="M4844 3165 c-4 -9 -2 -21 4 -27 15 -15 44 -1 40 19 -4 23 -36 29 -44
8z"/>
<path d="M74 3046 c-9 -37 10 -56 33 -33 16 16 16 18 -4 39 l-22 21 -7 -27z"/>
<path d="M4876 3041 c-9 -14 4 -41 19 -41 17 0 38 27 30 40 -8 12 -42 13 -49
1z"/>
<path d="M49 2917 c-11 -24 -11 -30 1 -37 9 -5 19 -5 27 2 16 13 16 20 -1 43
-14 19 -15 19 -27 -8z"/>
<path d="M4900 2914 c-11 -12 -10 -18 3 -32 16 -15 18 -15 34 0 13 14 14 20 3
32 -7 9 -16 16 -20 16 -4 0 -13 -7 -20 -16z"/>
<path d="M838 2823 c-22 -5 -24 -33 -3 -33 21 0 19 -20 -15 -182 -36 -169 -36
-170 -9 -166 17 2 27 18 44 70 24 75 71 141 104 146 26 4 27 -18 6 -98 -8 -30
-15 -70 -15 -87 0 -32 2 -33 39 -33 24 0 44 6 52 17 13 15 11 16 -13 9 -34 -8
-35 -7 -6 112 25 104 20 125 -28 129 -31 3 -52 -11 -96 -65 -33 -40 -34 -34
-8 78 11 47 20 91 20 98 0 12 -36 15 -72 5z"/>
<path d="M2318 2823 c-17 -4 -26 -34 -10 -32 28 5 29 -7 1 -138 -16 -76 -29
-152 -29 -170 0 -29 3 -32 49 -43 44 -10 55 -9 94 8 66 29 100 80 105 157 4
54 1 66 -17 84 -32 32 -69 27 -114 -16 -36 -35 -38 -36 -33 -13 3 14 12 56 21
93 8 38 15 70 15 73 0 5 -59 3 -82 -3z m156 -185 c7 -21 4 -41 -15 -90 -20
-51 -32 -67 -61 -83 -30 -16 -39 -17 -52 -6 -34 28 -4 133 51 181 41 36 64 35
77 -2z"/>
<path d="M1590 2805 c0 -9 9 -15 25 -15 15 0 25 -6 25 -15 0 -26 -60 -289 -68
-296 -4 -4 -16 -9 -26 -11 -11 -1 -21 -9 -24 -15 -5 -17 205 -18 262 -2 93 26
126 112 64 165 -22 18 -29 29 -20 32 25 8 61 47 63 67 4 50 -2 66 -33 85 -28
17 -51 20 -150 20 -98 0 -118 -3 -118 -15z m203 -24 c33 -13 42 -43 23 -79
-17 -33 -25 -38 -90 -47 -36 -6 -46 -4 -46 6 1 15 18 96 25 117 5 14 53 16 88
3z m-1 -178 c25 -22 23 -66 -5 -98 -18 -21 -35 -28 -85 -34 -42 -5 -62 -4 -62
3 1 23 27 133 35 146 10 17 92 5 117 -17z"/>
<path d="M30 2775 c-11 -13 -11 -19 4 -33 15 -15 18 -15 26 -2 22 33 -6 64
-30 35z"/>
<path d="M704 2782 c-6 -4 -18 -21 -27 -38 -10 -19 -29 -36 -47 -42 -35 -13
-40 -32 -9 -32 24 0 24 12 -2 -136 -7 -39 -10 -78 -6 -87 9 -24 60 -22 88 4
l24 20 -32 -4 c-39 -4 -39 -5 -15 113 17 81 19 85 47 90 38 7 46 30 10 30 -27
0 -27 1 -21 45 8 48 7 49 -10 37z"/>
<path d="M4920 2775 c-21 -26 3 -42 37 -26 27 12 27 13 8 27 -24 18 -30 18
-45 -1z"/>
<path d="M1198 2690 c-103 -55 -121 -226 -27 -255 32 -10 105 4 131 25 33 26
20 31 -35 13 -66 -22 -100 -7 -95 40 3 30 7 33 72 54 80 26 106 46 106 83 0
58 -78 79 -152 40z m92 -15 c10 -12 10 -21 1 -43 -9 -22 -24 -32 -63 -45 -29
-9 -54 -15 -56 -13 -7 8 27 74 49 95 27 25 52 27 69 6z"/>
<path d="M2019 2687 c-68 -45 -102 -134 -79 -203 20 -58 69 -70 118 -29 36 30
42 31 42 5 0 -38 76 -38 88 0 3 9 -2 11 -17 7 -26 -7 -26 -4 4 113 14 52 25
98 25 101 0 13 -54 29 -99 29 -33 0 -58 -7 -82 -23z m114 -18 c23 -37 -56
-199 -98 -199 -24 0 -45 30 -45 63 1 96 105 196 143 136z"/>
<path d="M2588 2703 c-25 -6 -22 -26 4 -38 19 -8 26 -25 40 -100 22 -119 22
-141 -3 -181 -23 -38 -48 -44 -56 -14 -8 28 -30 25 -37 -6 -4 -15 -5 -28 -3
-31 13 -12 74 -12 89 0 23 18 219 349 215 362 -3 9 -63 8 -79 -2 -15 -9 -8
-23 12 -23 11 0 20 -2 20 -5 0 -10 -84 -155 -90 -155 -4 0 -14 45 -24 100 -17
98 -18 100 -44 99 -15 -1 -35 -3 -44 -6z"/>
<path d="M20 2645 c-11 -13 -11 -19 3 -33 20 -19 41 -5 35 24 -4 24 -22 28
-38 9z"/>
<path d="M4930 2644 c-11 -12 -10 -18 3 -32 16 -15 18 -15 34 0 13 14 14 20 3
32 -7 9 -16 16 -20 16 -4 0 -13 -7 -20 -16z"/>
<path d="M4 2508 c-6 -10 20 -38 37 -38 10 0 20 30 13 41 -8 13 -41 11 -50 -3z"/>
<path d="M4931 2507 c-9 -11 -8 -17 4 -27 19 -16 47 -5 43 17 -4 23 -31 28
-47 10z"/>
<path d="M13 2374 c-10 -26 13 -39 44 -25 27 12 27 13 8 27 -25 18 -44 18 -52
-2z"/>
<path d="M4930 2375 c-23 -28 21 -50 48 -23 9 9 7 14 -6 24 -22 17 -27 17 -42
-1z"/>
<path d="M29 2244 c-15 -18 0 -38 27 -32 25 5 28 25 6 37 -15 8 -23 7 -33 -5z"/>
<path d="M4922 2247 c-14 -17 1 -40 23 -35 26 5 30 25 7 37 -15 8 -23 7 -30
-2z"/>
<path d="M4900 2114 c-11 -12 -10 -18 3 -32 16 -15 18 -15 34 0 13 14 14 20 3
32 -7 9 -16 16 -20 16 -4 0 -13 -7 -20 -16z"/>
<path d="M44 2109 c-3 -6 1 -18 10 -27 15 -15 17 -15 34 1 15 16 15 19 2 27
-20 13 -37 12 -46 -1z"/>
<path d="M3581 2111 c-16 -10 -11 -13 57 -40 42 -17 52 -18 52 -7 0 8 -12 24
-26 35 -28 22 -60 27 -83 12z"/>
<path d="M3520 2045 c0 -2 18 -14 40 -25 29 -15 40 -17 40 -7 0 21 -22 37 -52
37 -15 0 -28 -2 -28 -5z"/>
<path d="M3480 1996 c0 -15 30 -50 37 -43 6 7 -19 57 -29 57 -4 0 -8 -6 -8
-14z"/>
<path d="M67 1976 c-9 -23 18 -39 43 -26 17 9 19 14 9 26 -15 18 -45 18 -52 0z"/>
<path d="M4870 1980 c-13 -8 -13 -11 3 -27 16 -16 18 -16 33 -1 28 27 -1 50
-36 28z"/>
<path d="M3647 1885 c29 -15 69 -45 88 -68 40 -47 51 -46 28 2 -20 41 -78 80
-129 87 l-39 6 52 -27z"/>
<path d="M97 1848 c-2 -8 2 -23 10 -33 14 -20 14 -20 29 0 8 10 13 24 11 30
-5 15 -44 18 -50 3z"/>
<path d="M4844 1845 c-13 -32 23 -48 47 -19 10 13 10 17 -2 25 -21 13 -39 11
-45 -6z"/>
<path d="M4812 1738 c-16 -16 -15 -33 2 -47 21 -18 41 11 26 38 -13 25 -12 25
-28 9z"/>
<path d="M146 1727 c-16 -12 -17 -16 -5 -35 17 -27 21 -27 37 -1 12 18 11 24
0 35 -12 12 -17 12 -32 1z"/>
<path d="M190 1595 c-10 -12 -10 -18 0 -30 7 -8 16 -15 20 -15 12 0 20 28 14
45 -4 8 -10 15 -14 15 -4 0 -13 -7 -20 -15z"/>
<path d="M4762 1598 c-13 -13 2 -38 24 -38 20 0 27 19 14 35 -15 18 -22 19
-38 3z"/>
<path d="M240 1480 c-9 -16 -9 -25 1 -36 16 -19 26 -18 38 5 8 14 6 22 -9 36
-17 16 -19 16 -30 -5z"/>
<path d="M4712 1478 c-16 -16 -15 -33 2 -47 22 -18 44 25 24 45 -11 11 -16 12
-26 2z"/>
<path d="M4651 1366 c-16 -19 -7 -46 14 -46 22 0 30 29 13 46 -13 13 -16 13
-27 0z"/>
<path d="M303 1359 c-15 -15 -5 -39 16 -39 29 0 43 21 23 36 -21 17 -25 17
-39 3z"/>
<path d="M365 1240 c-8 -12 3 -50 14 -50 15 0 33 30 27 45 -6 17 -32 20 -41 5z"/>
<path d="M4581 1236 c-18 -21 11 -41 39 -26 17 9 19 14 9 26 -15 18 -33 18
-48 0z"/>
<path d="M440 1135 c-9 -11 -11 -22 -4 -32 13 -21 25 -21 38 -1 8 14 7 21 -5
33 -14 15 -17 15 -29 0z"/>
<path d="M4506 1124 c-8 -21 1 -34 24 -34 25 0 35 17 20 35 -16 20 -36 19 -44
-1z"/>
<path d="M521 1026 c-16 -19 -7 -46 14 -46 22 0 30 29 13 46 -13 13 -16 13
-27 0z"/>
<path d="M4431 1021 c-8 -14 -7 -22 4 -31 22 -19 48 5 34 31 -5 10 -14 19 -19
19 -5 0 -14 -9 -19 -19z"/>
<path d="M600 915 c-17 -21 6 -61 26 -44 18 15 18 45 0 52 -8 3 -20 0 -26 -8z"/>
<path d="M4351 917 c-14 -17 -4 -47 15 -47 22 0 29 29 12 46 -13 13 -16 13
-27 1z"/>
<path d="M4260 820 c-12 -23 -6 -40 15 -40 19 0 27 17 20 40 -8 26 -21 25 -35
0z"/>
<path d="M690 815 c-16 -19 8 -59 27 -43 17 14 17 45 -1 51 -8 3 -20 0 -26 -8z"/>
<path d="M4169 726 c-11 -23 -10 -29 2 -36 9 -6 19 -4 28 4 11 12 11 18 -2 37
l-16 22 -12 -27z"/>
<path d="M783 714 c-9 -24 11 -38 37 -24 17 9 19 14 9 26 -15 19 -38 18 -46
-2z"/>
<path d="M877 626 c-9 -23 18 -39 43 -26 17 9 19 14 9 26 -15 18 -45 18 -52 0z"/>
<path d="M4063 624 c-3 -8 1 -22 9 -30 13 -13 16 -13 27 0 7 9 11 23 7 31 -7
20 -35 19 -43 -1z"/>
<path d="M985 550 c-9 -15 5 -52 18 -47 6 2 15 11 21 20 8 13 7 20 -4 27 -19
12 -27 12 -35 0z"/>
<path d="M3967 553 c-24 -23 12 -55 38 -33 12 10 13 16 4 26 -12 15 -31 18
-42 7z"/>
<path d="M3854 475 c-9 -21 3 -45 21 -45 21 0 30 27 15 45 -16 19 -29 19 -36
0z"/>
<path d="M1091 467 c-8 -10 -7 -19 4 -33 13 -18 15 -18 31 -2 18 18 13 48 -9
48 -8 0 -20 -6 -26 -13z"/>
<path d="M1204 395 c-12 -29 15 -45 45 -26 12 8 12 12 2 25 -17 20 -40 21 -47
1z"/>
<path d="M3747 403 c-11 -10 -8 -41 4 -49 6 -3 18 1 27 9 13 13 13 19 2 31
-14 17 -23 20 -33 9z"/>
<path d="M1314 329 c-3 -6 0 -18 9 -26 12 -12 18 -13 35 -2 16 10 18 16 10 26
-13 16 -44 17 -54 2z"/>
<path d="M3624 325 c-10 -24 12 -42 34 -29 24 16 21 38 -6 42 -13 2 -25 -3
-28 -13z"/>
<path d="M1440 275 c-8 -10 -9 -19 0 -34 13 -26 26 -27 40 -2 14 26 13 29 -9
40 -14 8 -22 7 -31 -4z"/>
<path d="M3510 275 c-25 -30 10 -61 38 -33 17 17 15 26 -7 37 -14 8 -22 7 -31
-4z"/>
<path d="M1567 233 c-11 -10 -8 -41 3 -48 19 -12 41 15 29 36 -10 20 -21 24
-32 12z"/>
<path d="M3385 219 c-8 -26 6 -42 28 -33 20 7 22 25 5 42 -17 17 -26 15 -33
-9z"/>
<path d="M1693 183 c-16 -6 -17 -25 -1 -41 12 -12 48 1 48 18 0 13 -32 28 -47
23z"/>
<path d="M3260 175 c-17 -21 6 -61 26 -44 18 15 18 45 0 52 -8 3 -20 0 -26 -8z"/>
<path d="M1822 138 c-16 -16 -15 -33 2 -47 22 -18 44 25 24 45 -11 11 -16 12
-26 2z"/>
<path d="M3137 143 c-10 -9 -8 -35 3 -53 8 -13 11 -12 24 5 20 28 -4 72 -27
48z"/>
<path d="M1947 103 c-24 -23 12 -55 38 -33 12 10 13 16 4 26 -12 15 -31 18
-42 7z"/>
<path d="M3001 96 c-9 -10 -8 -16 3 -25 20 -17 60 7 44 26 -14 17 -33 17 -47
-1z"/>
<path d="M2075 80 c-7 -23 1 -40 20 -40 21 0 27 17 15 40 -14 25 -27 26 -35 0z"/>
<path d="M2873 79 c-27 -27 13 -51 47 -29 13 9 12 12 -4 25 -24 18 -29 18 -43
4z"/>
<path d="M2207 63 c-24 -23 12 -55 38 -33 12 10 13 16 4 26 -12 15 -31 18 -42
7z"/>
<path d="M2342 53 c-18 -34 9 -58 36 -31 7 7 8 17 1 30 -12 23 -26 23 -37 1z"/>
<path d="M2610 55 c-15 -18 -6 -45 14 -45 20 0 29 16 21 40 -8 24 -18 25 -35
5z"/>
<path d="M2741 56 c-18 -22 11 -41 40 -25 22 11 22 12 4 25 -24 17 -30 17 -44
0z"/>
<path d="M2474 45 c-9 -21 3 -45 21 -45 20 0 20 46 0 54 -9 3 -18 -1 -21 -9z"/>
</g>
</svg>
