<?xml version="1.0" standalone="no"?>
<!DOCTYPE svg PUBLIC "-//W3C//DTD SVG 20010904//EN"
 "http://www.w3.org/TR/2001/REC-SVG-20010904/DTD/svg10.dtd">
<svg version="1.0" xmlns="http://www.w3.org/2000/svg"
 width="499.000000pt" height="500.000000pt" viewBox="0 0 499.000000 500.000000"
 preserveAspectRatio="xMidYMid meet">
<metadata>
Created by potrace 1.15, written by Peter Selinger 2001-2017
</metadata>
<g transform="translate(0.000000,500.000000) scale(0.100000,-0.100000)"
fill="#000000" stroke="none">
<path d="M2341 4976 c-9 -11 -9 -19 1 -35 16 -27 22 -26 36 3 7 17 7 27 -1 35
-15 15 -22 14 -36 -3z"/>
<path d="M2477 4983 c-24 -23 12 -55 38 -33 12 10 13 16 4 26 -12 15 -31 18
-42 7z"/>
<path d="M2606 4973 c-4 -9 -1 -23 7 -30 11 -11 16 -11 32 1 16 12 17 16 6 30
-17 21 -37 20 -45 -1z"/>
<path d="M2210 4965 c-15 -18 -5 -35 20 -35 10 0 22 5 25 10 7 11 -12 40 -25
40 -4 0 -13 -7 -20 -15z"/>
<path d="M2740 4965 c-23 -28 21 -50 48 -23 9 9 7 14 -6 24 -22 17 -27 17 -42
-1z"/>
<path d="M2875 4950 c-7 -23 1 -40 20 -40 21 0 27 17 15 40 -14 25 -27 26 -35
0z"/>
<path d="M2077 4953 c-24 -23 12 -55 38 -33 12 10 13 16 4 26 -12 15 -31 18
-42 7z"/>
<path d="M3000 4924 c-11 -12 -10 -18 3 -32 16 -15 18 -15 34 0 13 14 14 20 3
32 -7 9 -16 16 -20 16 -4 0 -13 -7 -20 -16z"/>
<path d="M1943 4914 c-3 -8 1 -22 9 -30 13 -13 16 -13 27 0 7 9 11 23 7 31 -7
20 -35 19 -43 -1z"/>
<path d="M1816 4891 c-9 -14 4 -41 19 -41 21 0 36 25 23 38 -14 14 -35 16 -42
3z"/>
<path d="M3134 4886 c-8 -22 3 -49 19 -43 6 2 12 14 12 27 0 27 -22 39 -31 16z"/>
<path d="M3260 4855 c-11 -13 -11 -19 3 -33 20 -19 41 -5 35 24 -4 24 -22 28
-38 9z"/>
<path d="M1684 4845 c-4 -9 0 -24 10 -33 15 -15 18 -15 26 -2 6 8 9 22 7 30
-3 21 -36 25 -43 5z"/>
<path d="M1567 4813 c-11 -10 -8 -41 4 -49 6 -3 18 1 27 9 13 13 13 19 2 31
-14 17 -23 20 -33 9z"/>
<path d="M3393 4813 c-7 -3 -13 -13 -13 -23 0 -10 6 -20 13 -23 15 -5 47 10
47 23 0 13 -32 28 -47 23z"/>
<path d="M1434 4749 c-3 -6 0 -18 9 -26 12 -12 19 -13 36 -3 18 9 20 14 10 26
-14 17 -45 19 -55 3z"/>
<path d="M3504 4745 c-13 -32 23 -48 47 -19 10 13 10 17 -2 25 -21 13 -39 11
-45 -6z"/>
<path d="M1321 4691 c-16 -28 14 -51 36 -28 13 13 14 19 3 31 -17 21 -27 20
-39 -3z"/>
<path d="M3624 4689 c-3 -6 0 -17 8 -25 12 -12 17 -12 33 1 17 13 18 16 5 25
-20 13 -37 13 -46 -1z"/>
<path d="M3746 4634 c-11 -29 -6 -44 13 -44 26 0 34 15 21 40 -13 24 -26 26
-34 4z"/>
<path d="M1204 4625 c-12 -30 16 -45 46 -25 13 9 12 12 -4 25 -25 19 -35 19
-42 0z"/>
<path d="M3862 4568 c-21 -21 -15 -50 10 -46 27 4 32 18 16 41 -11 14 -16 15
-26 5z"/>
<path d="M1087 4546 c-3 -8 3 -22 13 -31 17 -15 19 -15 25 4 3 12 3 25 0 31
-9 15 -32 12 -38 -4z"/>
<path d="M984 4475 c-12 -30 16 -45 46 -25 13 9 12 12 -4 25 -25 19 -35 19
-42 0z"/>
<path d="M3961 4477 c-8 -10 -7 -19 4 -33 13 -18 15 -18 31 -2 14 14 15 20 4
32 -15 19 -24 20 -39 3z"/>
<path d="M4070 4395 c-19 -22 5 -48 31 -34 24 12 24 21 0 36 -15 10 -22 9 -31
-2z"/>
<path d="M874 4389 c-3 -6 1 -18 10 -27 15 -15 17 -15 32 0 19 19 11 38 -16
38 -10 0 -22 -5 -26 -11z"/>
<path d="M1715 4355 c-5 -11 -10 -40 -10 -63 0 -45 7 -54 75 -102 22 -15 22
-16 4 -52 l-17 -37 43 -47 c41 -44 42 -48 37 -98 -3 -37 -1 -56 10 -68 12 -13
12 -21 3 -38 -9 -17 -9 -32 0 -66 15 -52 2 -94 -36 -119 -32 -21 -37 -19 -58
16 -19 32 -16 40 18 52 6 2 4 16 -3 35 -8 19 -11 46 -7 66 5 26 1 46 -14 76
-15 29 -19 50 -14 78 5 34 3 40 -21 56 -22 15 -26 23 -22 49 4 26 -3 41 -33
80 -24 29 -36 54 -33 66 2 10 -7 40 -22 67 l-26 49 5 -63 c5 -50 12 -72 35
-100 39 -51 51 -76 51 -110 0 -16 9 -37 20 -47 13 -12 20 -31 20 -53 0 -19 9
-54 21 -77 19 -38 20 -47 9 -98 -6 -32 -16 -57 -21 -57 -5 0 -30 27 -55 59
-55 71 -95 90 -124 61 -36 -36 -62 -145 -66 -275 -1 -66 -3 -125 -3 -132 -1
-6 -7 -18 -14 -25 -46 -45 -91 -121 -128 -215 -42 -104 -43 -112 -43 -213 1
-115 26 -219 84 -346 l29 -65 -15 -67 c-14 -64 -13 -71 10 -167 13 -55 22
-102 20 -105 -3 -2 -20 12 -38 32 -19 20 -65 52 -103 71 -38 20 -75 43 -83 51
-17 21 -11 97 30 396 46 336 59 446 75 660 17 225 37 711 30 718 -3 3 -5 0 -5
-6 0 -7 -18 -168 -40 -360 -72 -639 -120 -1169 -120 -1340 0 -71 20 -106 71
-126 23 -9 61 -30 84 -46 70 -48 246 -272 225 -285 -26 -16 13 -95 46 -95 11
0 9 11 -12 45 -14 25 -22 45 -17 45 5 0 31 -20 58 -44 l50 -44 -28 -11 c-64
-25 -112 -8 -212 73 -72 59 -101 72 -185 80 -99 10 -105 -5 -20 -50 57 -30 92
-59 168 -141 54 -57 119 -117 145 -132 l48 -28 121 34 c132 37 200 41 206 11
6 -31 -190 -115 -351 -152 -65 -15 -141 26 -377 208 -199 153 -227 187 -285
346 -26 73 -98 357 -129 510 -25 124 -83 749 -92 1005 -5 110 -2 182 10 270 9
65 16 126 16 135 -1 33 -21 -21 -41 -107 -29 -130 -34 -314 -15 -538 24 -276
64 -624 82 -708 8 -39 26 -139 40 -222 49 -294 108 -456 201 -551 26 -27 98
-84 158 -127 61 -43 148 -109 195 -148 107 -89 186 -129 252 -129 63 0 179 26
243 55 51 23 114 79 102 92 -4 3 0 17 8 30 14 21 14 25 -7 53 -27 37 -21 44
31 35 26 -4 56 -20 84 -45 24 -22 47 -37 49 -34 10 9 -8 68 -35 119 -34 62
-36 86 -6 59 28 -25 49 -66 71 -139 l18 -60 -5 70 c-3 39 -8 80 -11 93 -12 42
13 22 41 -33 23 -45 27 -64 23 -106 -5 -43 -3 -49 9 -36 15 15 19 101 9 173
l-6 39 24 -50 23 -49 12 84 c7 47 19 110 27 140 19 72 18 178 -2 237 -9 26
-32 72 -51 101 -20 29 -50 93 -69 143 -35 93 -35 119 0 148 27 23 18 32 -15
16 -28 -15 -33 -15 -54 -1 -34 23 -37 20 -19 -17 15 -31 15 -36 -1 -68 -10
-20 -12 -29 -4 -21 23 22 37 13 53 -34 15 -46 15 -47 -10 -77 -19 -23 -24 -37
-19 -56 9 -37 34 -61 63 -61 l24 0 -32 36 c-41 47 -30 57 15 14 71 -69 82 -95
88 -210 3 -58 2 -96 -2 -85 -29 71 -53 167 -47 188 5 22 2 25 -33 31 -22 3
-53 18 -70 32 -28 23 -31 32 -31 80 l0 54 -52 33 c-58 37 -95 52 -148 62 -42
9 -70 31 -70 57 0 10 -2 18 -4 18 -2 0 -12 3 -21 7 -14 5 -16 2 -10 -18 3 -13
9 -32 11 -41 3 -10 0 -18 -6 -18 -6 0 -13 14 -17 31 -7 34 -23 21 -23 -18 0
-16 -6 -23 -20 -23 -32 0 -78 27 -85 50 -11 35 -23 22 -18 -20 5 -36 4 -40
-17 -40 -21 0 -22 -1 -6 -25 22 -33 21 -35 -19 -95 -40 -60 -65 -135 -65 -199
l-1 -46 -24 30 c-51 62 -70 179 -43 270 16 56 13 71 -32 184 -71 180 -81 218
-81 306 0 72 6 97 42 194 44 119 91 191 140 216 26 14 35 14 81 0 58 -17 78
-19 78 -7 0 5 -36 17 -80 27 -73 17 -80 20 -74 39 4 12 6 48 5 82 -3 87 42
284 64 284 3 0 17 -7 31 -17 64 -42 102 -201 80 -344 l-8 -55 63 -2 c47 -1 68
-7 82 -21 49 -48 69 -244 43 -418 -10 -62 -16 -141 -15 -175 1 -35 -1 -80 -6
-100 -7 -34 -6 -37 19 -44 49 -12 95 5 136 49 127 137 118 129 140 117 60 -32
136 -198 128 -280 -3 -36 -1 -40 17 -38 17 3 20 -2 19 -40 -1 -32 -7 -50 -29
-72 -35 -37 -18 -40 19 -4 45 46 57 134 21 148 -23 9 -18 24 23 71 21 24 66
105 104 186 62 134 68 155 92 294 14 83 30 200 36 260 11 125 14 934 2 952 -4
6 -8 -100 -9 -235 -5 -654 -45 -993 -148 -1253 -55 -139 -125 -248 -125 -195
0 41 -45 151 -75 185 -23 25 -35 49 -37 74 l-3 37 -70 -67 c-39 -38 -87 -89
-108 -115 -33 -42 -43 -48 -76 -48 -59 0 -70 21 -37 70 15 22 38 73 53 113 42
116 84 169 193 242 36 24 79 58 97 77 l31 33 -8 190 c-14 290 -36 397 -145
689 -35 96 -67 187 -71 201 -3 14 -9 24 -11 21 -7 -6 30 -159 84 -351 96 -343
114 -430 120 -575 5 -128 4 -136 -17 -162 -22 -29 -139 -123 -144 -117 -7 9
25 279 40 336 9 34 13 67 9 73 -13 20 -153 108 -203 126 -26 10 -48 18 -50 19
-1 1 4 18 12 37 15 36 15 104 -3 245 -7 55 -16 81 -40 115 -28 40 -30 46 -19
75 10 28 9 35 -7 53 -10 11 -30 26 -44 33 -23 11 -27 20 -31 77 -5 51 -8 61
-15 45z m231 -749 c29 -13 70 -41 93 -61 33 -30 41 -44 41 -72 l0 -34 -43 53
c-43 52 -77 73 -77 46 0 -8 14 -27 31 -44 59 -56 70 -99 57 -221 -17 -159 -35
-193 -105 -193 l-33 0 -1 53 c0 28 -6 87 -13 129 -7 43 -9 83 -5 89 14 24 36
-1 57 -63 l21 -63 14 35 c28 65 27 68 -53 128 -79 60 -108 102 -117 172 -10
73 39 90 133 46z m-178 -123 c-3 -28 -3 -28 -16 -6 -9 17 -9 28 0 50 11 27 12
27 15 6 3 -13 3 -35 1 -50z m198 -470 c-13 -21 -34 -70 -45 -108 -21 -71 -50
-125 -51 -95 0 8 7 63 17 122 18 114 17 113 81 117 l22 1 -24 -37z m-276 -680
c0 -7 -5 -13 -10 -13 -7 0 -7 -8 1 -22 l11 -23 -22 22 c-17 15 -24 36 -27 75
l-4 53 25 -40 c14 -22 26 -46 26 -52z m117 -22 c-15 -5 -77 65 -77 86 0 12 14
2 44 -32 24 -27 39 -52 33 -54z m130 37 c-2 -13 -4 -3 -4 22 0 25 2 35 4 23 2
-13 2 -33 0 -45z m53 26 c0 -21 -4 -33 -10 -29 -17 10 -11 65 7 65 2 0 3 -16
3 -36z m-360 -134 c18 -45 30 -83 27 -86 -12 -13 -77 114 -77 151 0 35 20 9
50 -65z m-36 -41 c30 -69 33 -87 12 -70 -27 23 -66 131 -47 131 4 0 20 -27 35
-61z m-188 -214 c22 -13 47 -32 55 -41 21 -26 110 -64 149 -64 20 0 46 7 58
16 12 8 28 12 35 8 6 -4 36 -23 66 -42 l55 -35 -65 -32 c-141 -71 -189 -58
-329 94 -52 57 -112 111 -132 122 -21 11 -38 21 -38 24 0 9 107 -28 146 -50z
m470 -310 c-21 -19 -63 -44 -92 -54 -53 -20 -154 -38 -154 -28 0 3 24 13 53
21 28 9 88 34 132 55 99 49 111 50 61 6z"/>
<path d="M793 4313 c-20 -7 -16 -43 5 -43 33 0 44 15 25 32 -10 8 -24 13 -30
11z"/>
<path d="M4173 4313 c-17 -6 -16 -38 1 -52 21 -18 44 25 24 44 -7 7 -19 11
-25 8z"/>
<path d="M686 4211 c-8 -13 4 -41 18 -41 6 0 17 4 25 9 12 8 12 12 2 25 -15
18 -37 21 -45 7z"/>
<path d="M4257 4213 c-26 -25 14 -51 45 -29 l20 14 -20 11 c-24 13 -36 14 -45
4z"/>
<path d="M593 4104 c-10 -26 12 -39 43 -25 21 9 24 14 14 26 -16 20 -49 19
-57 -1z"/>
<path d="M4346 4103 c-4 -9 -1 -23 7 -30 12 -12 16 -12 26 1 16 19 8 46 -13
46 -7 0 -17 -8 -20 -17z"/>
<path d="M520 4005 c-22 -27 12 -49 38 -23 8 8 9 15 1 25 -15 17 -24 16 -39
-2z"/>
<path d="M4433 4009 c-16 -16 -5 -39 18 -39 24 0 37 29 18 41 -18 11 -23 11
-36 -2z"/>
<path d="M4510 3904 c-11 -12 -10 -18 3 -32 21 -21 42 -3 32 27 -8 25 -18 27
-35 5z"/>
<path d="M434 3895 c-8 -20 4 -35 26 -35 25 0 35 17 20 35 -16 19 -39 19 -46
0z"/>
<path d="M371 3796 c-16 -19 -7 -46 14 -46 22 0 30 29 13 46 -13 13 -16 13
-27 0z"/>
<path d="M4580 3784 c-11 -12 -10 -18 4 -32 16 -16 18 -16 31 2 11 14 12 23 4
33 -15 17 -24 16 -39 -3z"/>
<path d="M300 3675 c-11 -13 -11 -19 3 -33 20 -19 41 -5 35 24 -4 24 -22 28
-38 9z"/>
<path d="M4645 3670 c-8 -12 3 -50 14 -50 15 0 33 30 27 45 -6 17 -32 20 -41
5z"/>
<path d="M241 3546 c-18 -21 11 -41 39 -26 17 9 19 14 9 26 -15 18 -33 18 -48
0z"/>
<path d="M4707 3553 c-24 -23 12 -55 38 -33 12 10 13 16 4 26 -12 15 -31 18
-42 7z"/>
<path d="M190 3425 c-22 -26 7 -46 39 -26 12 8 12 12 2 25 -17 20 -25 20 -41
1z"/>
<path d="M4760 3425 c-11 -13 -11 -19 3 -33 20 -19 41 -5 35 24 -4 24 -22 28
-38 9z"/>
<path d="M141 3309 c-11 -18 -10 -24 3 -37 15 -15 17 -15 33 1 16 16 16 18 -2
37 -20 20 -20 20 -34 -1z"/>
<path d="M4803 3294 c-9 -24 11 -38 36 -25 25 14 27 27 5 35 -25 9 -34 7 -41
-10z"/>
<path d="M109 3174 c-16 -20 2 -38 30 -29 26 8 27 21 2 34 -14 8 -22 7 -32 -5z"/>
<path d="M4853 3183 c-17 -6 -17 -38 0 -51 20 -17 44 25 25 43 -7 7 -19 11
-25 8z"/>
<path d="M1612 3050 c-2 -99 16 -201 44 -248 8 -15 13 -19 10 -9 -27 89 -40
158 -46 247 l-7 105 -1 -95z"/>
<path d="M77 3053 c-11 -10 -8 -41 4 -48 5 -4 19 1 30 11 14 13 16 20 8 31
-12 14 -32 17 -42 6z"/>
<path d="M4880 3045 c-19 -22 5 -48 31 -34 10 5 19 14 19 19 0 5 -9 14 -19 19
-14 8 -22 7 -31 -4z"/>
<path d="M51 2926 c-16 -19 -7 -46 14 -46 22 0 30 29 13 46 -13 13 -16 13 -27
0z"/>
<path d="M4900 2914 c-11 -12 -10 -18 3 -32 16 -15 18 -15 34 0 13 14 14 20 3
32 -7 9 -16 16 -20 16 -4 0 -13 -7 -20 -16z"/>
<path d="M2780 2815 c0 -9 9 -15 25 -15 14 0 25 -3 25 -7 0 -10 -76 -271 -85
-295 -4 -10 -18 -18 -31 -18 -15 0 -24 -6 -24 -15 0 -13 12 -15 72 -13 46 2
73 7 76 16 2 7 -6 12 -22 12 -20 0 -26 5 -26 23 0 22 40 180 58 227 9 24 9 23
15 -10 3 -19 11 -73 17 -120 17 -144 19 -150 40 -150 17 0 60 43 60 61 0 4 27
58 61 121 l60 113 -6 -95 c-8 -138 -14 -160 -41 -170 -47 -18 -25 -30 55 -30
59 0 80 4 84 14 4 10 -2 16 -21 18 -32 4 -32 8 -12 191 12 110 14 118 36 123
13 3 24 12 24 20 0 10 -15 14 -58 14 l-57 0 -74 -147 c-83 -166 -81 -166 -100
-18 -6 50 -14 107 -17 128 l-6 37 -64 0 c-50 0 -64 -3 -64 -15z"/>
<path d="M25 2780 c-3 -5 -1 -19 6 -31 10 -19 12 -20 26 -6 9 9 13 23 10 31
-7 18 -32 21 -42 6z"/>
<path d="M4917 2776 c-3 -8 1 -20 9 -27 12 -10 18 -9 31 3 8 9 12 21 9 27 -10
16 -43 14 -49 -3z"/>
<path d="M3293 2713 c-13 -2 -23 -11 -23 -19 0 -8 5 -12 10 -9 20 12 22 -26 5
-100 -19 -86 -17 -124 7 -139 25 -15 82 15 117 65 l30 41 -6 -52 -6 -51 43 3
c44 3 71 28 31 28 -26 0 -26 -2 4 126 14 58 25 108 25 110 0 2 -8 4 -19 4 -23
0 -35 -15 -50 -60 -16 -49 -93 -164 -113 -168 -29 -6 -25 45 17 201 7 25 5 27
-21 26 -16 -1 -39 -4 -51 -6z"/>
<path d="M3613 2714 c-18 -8 -16 -35 1 -28 8 3 16 2 19 -3 5 -7 -25 -170 -39
-215 -4 -14 0 -18 21 -18 14 0 27 6 29 13 2 6 10 34 16 60 24 91 109 186 125
138 4 -15 -8 -91 -30 -188 -5 -19 -1 -23 20 -23 19 0 26 6 31 28 18 86 76 185
113 195 31 8 33 -17 10 -114 -16 -71 -18 -93 -9 -104 17 -21 54 -19 74 4 17
19 17 20 -7 23 l-24 3 23 98 c28 114 23 137 -28 137 -24 0 -42 -11 -76 -47
-41 -42 -44 -44 -38 -20 10 40 -9 67 -46 67 -24 0 -41 -10 -75 -47 l-43 -48 6
35 c4 19 7 40 8 45 1 11 -61 17 -81 9z"/>
<path d="M22 2660 c-15 -24 -5 -52 17 -48 20 4 26 41 9 56 -11 8 -17 6 -26 -8z"/>
<path d="M4930 2654 c-11 -12 -10 -18 3 -31 22 -23 52 0 36 28 -12 23 -22 24
-39 3z"/>
<path d="M18 2523 c-25 -6 -22 -30 3 -38 25 -8 44 7 36 29 -7 16 -9 17 -39 9z"/>
<path d="M4925 2517 c-17 -13 -17 -15 6 -30 20 -15 25 -15 38 -2 12 11 12 17
1 29 -15 19 -21 20 -45 3z"/>
<path d="M14 2379 c-3 -6 0 -18 9 -26 12 -12 18 -13 35 -2 16 10 18 16 10 26
-13 16 -44 17 -54 2z"/>
<path d="M4927 2376 c-3 -8 0 -20 8 -26 19 -16 59 8 43 27 -14 17 -45 17 -51
-1z"/>
<path d="M30 2245 c-10 -12 -10 -18 0 -31 12 -13 15 -13 28 0 15 15 10 46 -6
46 -5 0 -15 -7 -22 -15z"/>
<path d="M4917 2246 c-9 -24 18 -39 44 -25 22 11 22 12 4 25 -24 18 -41 18
-48 0z"/>
<path d="M3330 2188 c-112 -19 -192 -117 -194 -236 -1 -74 24 -119 84 -150 36
-18 54 -22 90 -17 58 9 117 33 124 51 7 17 8 17 -44 -1 -69 -24 -117 -20 -151
14 -25 26 -29 37 -29 87 0 31 5 75 12 97 25 85 127 152 191 128 23 -9 27 -16
27 -51 0 -34 3 -41 17 -38 20 4 39 86 23 102 -15 15 -100 23 -150 14z"/>
<path d="M4338 2183 c-22 -5 -24 -33 -3 -33 21 0 19 -27 -15 -188 -16 -78 -30
-146 -30 -152 0 -5 11 -10 25 -10 20 0 25 6 31 38 14 75 81 182 115 182 25 0
25 -31 0 -126 -12 -47 -15 -77 -9 -88 11 -19 59 -21 76 -4 18 18 14 30 -8 23
-25 -8 -25 -1 0 95 23 87 25 121 8 138 -25 25 -61 13 -110 -38 -26 -27 -48
-47 -48 -42 0 4 9 45 20 92 26 115 26 120 -7 119 -16 -1 -36 -3 -45 -6z"/>
<path d="M2570 2110 c-13 -22 -37 -44 -52 -49 -32 -11 -37 -31 -8 -31 24 0 24
-3 0 -114 -14 -63 -17 -93 -9 -107 11 -21 49 -25 80 -9 27 15 24 33 -6 28 -31
-6 -31 5 -7 117 17 75 20 80 47 85 38 7 45 30 9 30 -26 0 -27 1 -21 45 4 25 3
45 -1 45 -4 0 -18 -18 -32 -40z"/>
<path d="M3913 2108 c-16 -24 -38 -44 -50 -46 -32 -5 -38 -32 -8 -32 14 0 25
-2 25 -5 0 -2 -9 -43 -20 -90 -27 -115 -26 -133 5 -141 34 -8 71 2 79 22 5 14
1 16 -25 10 -28 -5 -31 -4 -26 17 3 12 13 59 23 105 17 79 18 82 46 82 18 0
28 5 28 15 0 9 -9 15 -25 15 -23 0 -24 2 -18 45 3 25 3 45 0 45 -3 0 -18 -19
-34 -42z"/>
<path d="M50 2115 c-22 -26 7 -46 39 -26 12 8 12 12 2 25 -17 20 -25 20 -41 1z"/>
<path d="M4900 2115 c-23 -28 21 -50 48 -23 9 9 7 14 -6 24 -22 17 -27 17 -42
-1z"/>
<path d="M2748 2050 c-73 -39 -108 -145 -69 -208 69 -109 251 -28 251 113 0
99 -87 145 -182 95z m101 -16 c21 -15 23 -22 19 -78 -9 -103 -54 -158 -112
-137 -42 17 -48 69 -15 156 28 74 60 92 108 59z"/>
<path d="M3602 2053 c-81 -40 -125 -150 -87 -222 25 -49 68 -54 114 -15 l31
26 10 -26 c10 -26 38 -34 74 -20 24 9 20 37 -4 31 -25 -6 -25 -3 5 113 14 52
25 98 25 102 0 11 -61 28 -99 28 -20 0 -51 -8 -69 -17z m101 -24 c23 -37 -56
-199 -98 -199 -21 0 -45 29 -45 53 0 103 103 209 143 146z"/>
<path d="M4105 2051 c-53 -25 -85 -75 -92 -144 -5 -53 -4 -58 26 -88 30 -29
36 -31 81 -26 58 7 90 22 90 42 0 13 -4 13 -36 0 -20 -8 -44 -15 -54 -15 -69
0 -65 153 7 210 33 26 65 23 78 -8 13 -29 39 -24 43 9 2 20 -2 28 -20 33 -40
10 -82 6 -123 -13z"/>
<path d="M73 1989 c-15 -15 -5 -39 16 -39 29 0 43 21 23 36 -21 17 -25 17 -39
3z"/>
<path d="M4870 1985 c-15 -18 -5 -35 20 -35 10 0 22 5 25 10 7 11 -12 40 -25
40 -4 0 -13 -7 -20 -15z"/>
<path d="M4845 1860 c-7 -23 1 -40 20 -40 21 0 27 17 15 40 -14 25 -27 26 -35
0z"/>
<path d="M102 1858 c-13 -13 2 -38 23 -38 21 0 36 25 23 38 -7 7 -17 12 -23
12 -6 0 -16 -5 -23 -12z"/>
<path d="M4811 1736 c-14 -16 -9 -46 7 -46 5 0 15 7 22 16 11 12 11 18 -2 30
-13 13 -16 13 -27 0z"/>
<path d="M141 1727 c-8 -10 -7 -19 4 -33 13 -18 15 -18 31 -2 14 14 15 20 4
32 -15 19 -24 20 -39 3z"/>
<path d="M189 1604 c-15 -18 0 -38 27 -32 25 5 28 25 6 37 -15 8 -23 7 -33 -5z"/>
<path d="M4759 1604 c-11 -14 -10 -18 6 -30 16 -12 21 -12 34 0 12 12 12 18 1
30 -16 20 -24 20 -41 0z"/>
<path d="M2226 1531 c-42 -6 -63 -31 -27 -31 27 0 27 -4 -13 -193 -28 -131
-31 -159 -20 -164 22 -8 41 14 49 54 13 69 80 173 111 173 25 0 26 -26 4 -115
-17 -68 -19 -89 -10 -101 15 -17 61 -19 78 -2 18 18 14 30 -8 23 -25 -8 -25 1
1 110 11 47 17 95 14 106 -16 48 -96 27 -140 -38 -31 -47 -32 -31 -5 87 22 97
23 101 13 99 -5 -1 -26 -5 -47 -8z"/>
<path d="M3693 1533 c-33 -4 -48 -33 -18 -33 22 0 19 -30 -15 -187 -34 -155
-33 -160 38 -170 55 -7 85 2 127 39 55 48 69 84 66 170 -1 33 -36 68 -69 68
-14 0 -38 -14 -59 -35 -20 -20 -37 -34 -38 -33 -2 2 5 41 16 88 10 47 19 88
19 93 0 7 -8 7 -67 0z m138 -187 c13 -28 -9 -109 -41 -149 -37 -46 -100 -43
-100 6 0 41 25 101 56 133 37 40 70 44 85 10z"/>
<path d="M2958 1524 c-15 -14 -8 -24 17 -24 14 0 28 -6 30 -12 2 -7 -10 -78
-28 -158 -30 -134 -34 -145 -57 -150 -14 -3 -25 -12 -25 -20 0 -23 207 -19
269 4 96 37 117 129 39 170 l-27 14 32 16 c58 30 71 95 27 136 -24 22 -36 24
-148 28 -67 2 -125 1 -129 -4z m207 -36 c33 -15 42 -51 21 -83 -16 -24 -69
-45 -115 -45 -22 0 -23 2 -16 47 11 77 21 93 54 93 17 0 42 -5 56 -12z m-20
-164 c26 -10 37 -52 25 -89 -12 -37 -38 -50 -112 -59 -38 -4 -48 -3 -48 9 0
15 18 111 25 133 5 13 80 17 110 6z"/>
<path d="M245 1486 c-16 -12 -17 -16 -6 -30 16 -19 22 -20 45 -3 16 12 16 14
-2 30 -16 15 -21 15 -37 3z"/>
<path d="M4705 1479 c-7 -20 7 -38 28 -39 14 0 19 30 7 45 -17 21 -27 19 -35
-6z"/>
<path d="M2049 1456 c-11 -19 -33 -39 -49 -46 -34 -14 -39 -30 -10 -30 25 0
25 -7 -1 -120 -17 -72 -18 -94 -9 -105 15 -18 71 -20 88 -3 20 20 13 30 -17
23 l-29 -6 20 98 c21 102 27 113 66 113 30 0 24 24 -7 28 -21 3 -23 8 -18 43
6 48 -7 50 -34 5z"/>
<path d="M2573 1401 c-87 -40 -130 -185 -69 -237 15 -13 37 -24 50 -24 32 0
124 29 132 41 11 18 -2 20 -39 4 -54 -22 -84 -19 -104 11 -24 37 -9 53 72 79
98 32 130 80 85 125 -25 25 -72 25 -127 1z m71 -7 c16 -6 21 -39 10 -68 -6
-16 -101 -52 -111 -42 -11 10 19 66 49 91 33 28 31 27 52 19z"/>
<path d="M3405 1401 c-48 -22 -69 -44 -90 -94 -48 -117 28 -213 113 -142 37
31 40 31 44 3 4 -27 50 -37 74 -17 22 18 17 30 -10 23 l-24 -6 24 94 c32 124
31 134 -7 147 -45 15 -78 13 -124 -8z m79 -7 c36 -14 6 -141 -43 -188 -56 -54
-98 -11 -75 76 16 63 45 96 101 117 1 1 8 -2 17 -5z"/>
<path d="M3983 1412 c-32 -3 -69 -32 -42 -32 8 0 19 -4 26 -8 16 -10 55 -208
48 -241 -13 -55 -75 -98 -75 -51 0 29 -27 24 -34 -7 -10 -37 29 -56 79 -37 15
6 197 302 216 352 9 22 7 23 -33 20 -42 -3 -68 -28 -29 -28 12 0 21 -2 21 -5
0 -11 -85 -155 -91 -155 -4 0 -14 42 -24 93 -10 50 -20 94 -24 97 -3 3 -20 4
-38 2z"/>
<path d="M290 1360 c-13 -9 -12 -12 5 -25 24 -19 40 -14 40 11 0 22 -23 29
-45 14z"/>
<path d="M4643 1354 c-3 -8 1 -22 9 -30 13 -13 16 -13 27 0 7 9 11 23 7 31 -7
20 -35 19 -43 -1z"/>
<path d="M371 1256 c-16 -19 -7 -46 14 -46 22 0 30 29 13 46 -13 13 -16 13
-27 0z"/>
<path d="M4580 1245 c-23 -28 21 -50 48 -23 9 9 7 14 -6 24 -22 17 -27 17 -42
-1z"/>
<path d="M4510 1134 c-11 -12 -10 -18 3 -32 16 -15 18 -15 34 0 13 14 14 20 3
32 -7 9 -16 16 -20 16 -4 0 -13 -7 -20 -16z"/>
<path d="M433 1124 c-3 -8 1 -22 9 -30 13 -13 16 -13 27 0 7 9 11 23 7 31 -7
20 -35 19 -43 -1z"/>
<path d="M521 1036 c-16 -19 -7 -46 14 -46 22 0 30 29 13 46 -13 13 -16 13
-27 0z"/>
<path d="M4430 1024 c-11 -12 -10 -18 3 -32 16 -15 18 -15 34 0 13 14 14 20 3
32 -7 9 -16 16 -20 16 -4 0 -13 -7 -20 -16z"/>
<path d="M4350 925 c-12 -15 -7 -45 7 -45 21 1 35 19 28 39 -8 25 -18 27 -35
6z"/>
<path d="M594 919 c-3 -6 0 -18 9 -26 12 -12 18 -13 35 -2 16 10 18 16 10 26
-13 16 -44 17 -54 2z"/>
<path d="M687 816 c-3 -8 0 -20 8 -26 19 -16 59 8 43 27 -14 17 -45 17 -51 -1z"/>
<path d="M4254 819 c-3 -6 0 -17 8 -25 12 -12 17 -12 32 -1 11 8 16 19 12 25
-9 15 -43 15 -52 1z"/>
<path d="M787 733 c-24 -23 12 -55 38 -33 12 10 13 16 4 26 -12 15 -31 18 -42
7z"/>
<path d="M4167 733 c-24 -23 12 -55 38 -33 12 10 13 16 4 26 -12 15 -31 18
-42 7z"/>
<path d="M884 635 c-12 -31 23 -48 45 -21 10 12 8 17 -8 25 -26 14 -31 14 -37
-4z"/>
<path d="M4067 643 c-24 -23 12 -55 38 -33 12 10 13 16 4 26 -12 15 -31 18
-42 7z"/>
<path d="M3965 559 c-4 -5 -4 -22 0 -36 l6 -26 21 21 c18 17 19 23 8 36 -15
19 -26 20 -35 5z"/>
<path d="M983 544 c-3 -8 1 -22 9 -30 13 -13 16 -13 27 0 7 9 11 23 7 31 -7
20 -35 19 -43 -1z"/>
<path d="M1093 481 c-9 -14 -9 -21 0 -30 27 -27 61 4 37 34 -16 20 -23 19 -37
-4z"/>
<path d="M3857 483 c-4 -3 -7 -15 -7 -25 0 -22 32 -24 49 -4 10 12 8 17 -8 25
-23 13 -26 13 -34 4z"/>
<path d="M1212 408 c-27 -27 -3 -54 31 -36 22 11 22 25 -1 37 -13 7 -23 6 -30
-1z"/>
<path d="M3747 413 c-12 -11 -8 -41 6 -46 7 -3 21 1 32 9 18 14 18 14 -1 29
-22 16 -28 18 -37 8z"/>
<path d="M1321 341 c-8 -14 -7 -22 4 -31 22 -19 48 5 34 31 -5 10 -14 19 -19
19 -5 0 -14 -9 -19 -19z"/>
<path d="M3627 343 c-24 -23 12 -55 38 -33 12 10 13 16 4 26 -12 15 -31 18
-42 7z"/>
<path d="M1441 286 c-13 -16 -5 -46 13 -46 23 0 36 22 25 42 -12 22 -22 23
-38 4z"/>
<path d="M3505 279 c-7 -20 7 -38 28 -39 14 0 19 30 7 45 -17 21 -27 19 -35
-6z"/>
<path d="M1565 230 c-7 -23 1 -40 20 -40 21 0 27 17 15 40 -14 25 -27 26 -35
0z"/>
<path d="M3384 225 c-12 -31 23 -48 45 -21 10 12 8 17 -8 25 -26 14 -31 14
-37 -4z"/>
<path d="M3260 185 c-10 -12 -10 -18 0 -29 16 -20 42 -8 38 17 -4 26 -21 32
-38 12z"/>
<path d="M1683 174 c-3 -8 1 -22 9 -30 13 -13 16 -13 27 0 7 9 11 23 7 31 -7
20 -35 19 -43 -1z"/>
<path d="M1816 142 c-15 -18 -15 -20 2 -35 14 -13 21 -14 30 -5 16 16 15 33
-1 47 -11 8 -18 7 -31 -7z"/>
<path d="M3131 142 c-8 -15 -7 -23 5 -33 18 -15 38 0 32 27 -5 25 -25 28 -37
6z"/>
<path d="M3000 115 c-11 -13 -11 -19 3 -33 20 -19 41 -5 35 24 -4 24 -22 28
-38 9z"/>
<path d="M1942 108 c-13 -13 2 -38 23 -38 21 0 36 25 23 38 -7 7 -17 12 -23
12 -6 0 -16 -5 -23 -12z"/>
<path d="M2079 84 c-16 -20 2 -38 30 -29 26 8 27 21 2 34 -14 8 -22 7 -32 -5z"/>
<path d="M2872 88 c-8 -8 -8 -17 -1 -30 8 -15 13 -16 32 -7 32 17 32 18 11 34
-23 18 -27 18 -42 3z"/>
<path d="M2211 76 c-16 -19 -7 -46 14 -46 22 0 30 29 13 46 -13 13 -16 13 -27
0z"/>
<path d="M2611 66 c-16 -19 -7 -46 14 -46 22 0 30 29 13 46 -13 13 -16 13 -27
0z"/>
<path d="M2740 65 c-11 -13 -11 -19 3 -33 20 -19 41 -5 35 24 -4 24 -22 28
-38 9z"/>
<path d="M2340 55 c-9 -11 -9 -19 3 -35 l15 -21 16 22 c11 17 13 26 4 36 -14
17 -23 16 -38 -2z"/>
<path d="M2467 54 c-10 -10 12 -44 28 -44 9 0 15 10 15 25 0 18 -5 25 -18 25
-10 0 -22 -3 -25 -6z"/>
</g>
</svg>
