<?xml version="1.0" standalone="no"?>
<!DOCTYPE svg PUBLIC "-//W3C//DTD SVG 20010904//EN"
 "http://www.w3.org/TR/2001/REC-SVG-20010904/DTD/svg10.dtd">
<svg version="1.0" xmlns="http://www.w3.org/2000/svg"
 width="499.000000pt" height="500.000000pt" viewBox="0 0 499.000000 500.000000"
 preserveAspectRatio="xMidYMid meet">
<metadata>
Created by potrace 1.15, written by Peter Selinger 2001-2017
</metadata>
<g transform="translate(0.000000,500.000000) scale(0.100000,-0.100000)"
fill="#000000" stroke="none">
<path d="M2341 4976 c-10 -11 -10 -20 -1 -37 11 -19 14 -20 27 -6 9 9 13 23 8
36 -7 25 -18 27 -34 7z"/>
<path d="M2470 4975 c-11 -13 -11 -19 3 -33 20 -19 41 -5 35 24 -4 24 -22 28
-38 9z"/>
<path d="M2611 4976 c-10 -12 -10 -20 0 -37 11 -22 12 -22 25 -4 17 24 17 30
0 44 -10 9 -16 8 -25 -3z"/>
<path d="M2740 4970 c-13 -25 -5 -40 21 -40 19 0 24 15 13 44 -8 22 -21 20
-34 -4z"/>
<path d="M2209 4964 c-15 -18 0 -38 27 -32 25 5 28 25 6 37 -15 8 -23 7 -33
-5z"/>
<path d="M2075 4949 c-9 -28 9 -46 29 -30 12 10 13 18 5 32 -13 25 -26 24 -34
-2z"/>
<path d="M2871 4942 c-8 -15 -7 -23 5 -33 18 -15 38 0 32 27 -5 25 -25 28 -37
6z"/>
<path d="M1942 4917 c-7 -8 -6 -18 4 -32 15 -19 16 -19 29 -2 24 33 -7 66 -33
34z"/>
<path d="M3000 4920 c-13 -8 -13 -11 1 -26 14 -13 21 -14 38 -4 18 9 20 14 10
26 -13 16 -28 18 -49 4z"/>
<path d="M3131 4892 c-8 -15 -7 -23 5 -33 18 -15 38 0 32 27 -5 25 -25 28 -37
6z"/>
<path d="M1817 4893 c-11 -10 -8 -41 4 -49 6 -3 18 1 27 9 13 13 13 19 2 31
-14 17 -23 20 -33 9z"/>
<path d="M1684 4849 c-3 -6 0 -18 9 -26 14 -14 17 -14 37 0 22 15 22 15 2 26
-26 14 -39 14 -48 0z"/>
<path d="M3257 4846 c-3 -8 1 -20 9 -27 12 -10 18 -9 32 5 15 15 15 18 2 26
-21 14 -37 12 -43 -4z"/>
<path d="M1567 4813 c-11 -10 -8 -41 4 -49 6 -3 18 1 27 9 13 13 13 19 2 31
-14 17 -23 20 -33 9z"/>
<path d="M3384 4805 c-7 -17 2 -45 13 -45 4 0 17 7 27 15 20 15 20 15 0 30
-24 18 -33 19 -40 0z"/>
<path d="M3512 4768 c-15 -15 -15 -45 -1 -54 6 -3 18 0 26 9 14 13 14 18 1 36
-11 16 -17 18 -26 9z"/>
<path d="M1434 4749 c-3 -6 0 -18 9 -26 12 -12 19 -13 36 -3 18 9 20 14 10 26
-14 17 -45 19 -55 3z"/>
<path d="M1314 4689 c-3 -6 0 -18 9 -26 12 -12 18 -13 35 -2 16 10 18 16 10
26 -13 16 -44 17 -54 2z"/>
<path d="M3623 4684 c-3 -8 1 -22 10 -31 14 -14 16 -13 26 6 7 12 9 26 6 31
-10 15 -35 12 -42 -6z"/>
<path d="M1211 4636 c-16 -19 -7 -46 14 -46 22 0 30 29 13 46 -13 13 -16 13
-27 0z"/>
<path d="M3740 4625 c-23 -28 21 -50 48 -23 9 9 7 14 -6 24 -22 17 -27 17 -42
-1z"/>
<path d="M3852 4560 c-15 -24 -8 -40 18 -40 23 0 31 21 15 43 -16 22 -17 21
-33 -3z"/>
<path d="M1086 4545 c-8 -21 25 -36 46 -21 13 10 15 15 6 24 -17 17 -45 15
-52 -3z"/>
<path d="M985 4480 c-8 -24 1 -40 21 -40 20 0 29 27 14 45 -17 20 -27 19 -35
-5z"/>
<path d="M3960 4475 c-23 -28 21 -50 48 -23 9 9 7 14 -6 24 -22 17 -27 17 -42
-1z"/>
<path d="M874 4389 c-3 -6 1 -18 10 -27 15 -15 17 -15 32 0 19 19 11 38 -16
38 -10 0 -22 -5 -26 -11z"/>
<path d="M4063 4384 c-9 -24 11 -38 37 -24 17 9 19 14 9 26 -15 19 -38 18 -46
-2z"/>
<path d="M786 4305 c-20 -20 -20 -22 2 -34 12 -6 23 -5 35 3 16 12 16 14 -2
30 -17 16 -20 16 -35 1z"/>
<path d="M4160 4301 c-13 -25 2 -35 37 -26 24 6 25 7 8 25 -23 25 -32 25 -45
1z"/>
<path d="M686 4211 c-8 -13 4 -41 18 -41 6 0 17 4 25 9 12 8 12 12 2 25 -15
18 -37 21 -45 7z"/>
<path d="M4254 4205 c-13 -32 23 -48 47 -19 10 13 10 17 -2 25 -21 13 -39 11
-45 -6z"/>
<path d="M594 4105 c-4 -9 0 -24 10 -33 15 -15 18 -15 26 -2 6 8 9 22 7 30 -3
21 -36 25 -43 5z"/>
<path d="M4345 4110 c-8 -12 3 -50 14 -50 16 0 31 28 25 44 -7 18 -29 21 -39
6z"/>
<path d="M514 4005 c-12 -29 15 -45 45 -26 12 8 12 12 2 25 -17 20 -40 21 -47
1z"/>
<path d="M2889 4004 c-15 -18 0 -38 27 -32 25 5 28 25 6 37 -15 8 -23 7 -33
-5z"/>
<path d="M4430 4005 c-11 -13 -11 -19 3 -33 20 -19 41 -5 35 24 -4 24 -22 28
-38 9z"/>
<path d="M2163 4002 c-30 -3 -36 -11 -100 -132 -77 -148 -72 -149 -93 28 l-12
102 -54 0 c-29 0 -56 -4 -59 -10 -3 -5 3 -10 14 -10 11 0 22 -3 24 -7 3 -5
-11 -62 -30 -128 -24 -85 -42 -126 -59 -142 -13 -12 -24 -25 -24 -28 0 -9 104
-5 119 4 10 6 5 11 -18 16 -21 4 -31 12 -27 20 2 8 17 59 33 114 15 56 30 101
33 101 4 0 12 -53 19 -118 7 -65 16 -124 21 -131 18 -29 47 3 109 120 34 66
65 119 66 117 2 -2 0 -48 -5 -102 -10 -98 -20 -126 -46 -126 -8 0 -14 -4 -14
-10 0 -12 137 -13 144 -1 3 5 -5 12 -19 15 -14 4 -25 12 -25 19 1 6 7 64 15
127 12 101 16 117 38 136 26 22 26 22 4 25 -12 2 -36 3 -54 1z"/>
<path d="M437 3903 c-24 -23 12 -55 38 -33 12 10 13 16 4 26 -12 15 -31 18
-42 7z"/>
<path d="M2330 3902 c-43 -4 -63 -20 -34 -28 l20 -5 -20 -89 c-16 -73 -17 -91
-7 -104 22 -26 51 -18 93 24 22 22 41 40 43 40 1 0 2 -17 1 -37 -1 -32 2 -38
22 -41 23 -3 52 13 52 28 0 5 -9 6 -19 3 -15 -4 -19 -1 -16 14 3 10 11 45 19
78 29 126 29 117 4 113 -17 -2 -25 -14 -35 -48 -14 -49 -70 -137 -92 -145 -31
-12 -34 14 -11 105 12 50 21 92 19 93 -2 1 -20 1 -39 -1z"/>
<path d="M2618 3895 c-55 -30 -46 -75 24 -122 46 -31 57 -55 38 -78 -19 -23
-58 -18 -82 10 -24 28 -38 24 -38 -9 0 -20 6 -24 44 -29 54 -8 113 8 126 34
21 38 8 71 -39 98 -58 35 -72 57 -47 77 29 21 67 18 73 -6 7 -26 29 -26 36 1
4 15 -1 22 -19 30 -36 13 -85 11 -116 -6z"/>
<path d="M3030 3888 c-70 -49 -94 -155 -44 -205 22 -22 32 -25 70 -20 25 2 54
13 64 22 32 29 23 34 -20 13 -38 -19 -41 -19 -66 -3 -24 16 -26 21 -22 71 5
62 31 104 72 119 24 8 30 6 45 -14 20 -26 41 -21 41 8 0 37 -91 42 -140 9z"/>
<path d="M4504 3895 c-12 -29 15 -45 45 -26 12 8 12 12 2 25 -17 20 -40 21
-47 1z"/>
<path d="M2825 3891 c-3 -6 2 -14 11 -19 16 -9 15 -16 -5 -97 -17 -67 -19 -90
-10 -101 14 -17 51 -18 67 -2 18 18 15 27 -8 21 -11 -3 -20 -4 -20 -2 0 2 11
46 25 97 14 51 25 98 25 103 0 12 -77 12 -85 0z"/>
<path d="M4580 3795 c-15 -18 -6 -45 14 -45 20 0 29 16 21 40 -8 24 -18 25
-35 5z"/>
<path d="M367 3793 c-24 -23 12 -55 38 -33 12 10 13 16 4 26 -12 15 -31 18
-42 7z"/>
<path d="M297 3666 c-9 -23 18 -39 43 -26 17 9 19 14 9 26 -15 18 -45 18 -52
0z"/>
<path d="M4643 3664 c-9 -24 11 -38 37 -24 17 9 19 14 9 26 -15 19 -38 18 -46
-2z"/>
<path d="M235 3550 c-7 -12 12 -50 25 -50 13 0 28 32 23 48 -5 14 -39 16 -48
2z"/>
<path d="M4702 3548 c-13 -13 2 -38 23 -38 21 0 36 25 23 38 -7 7 -17 12 -23
12 -6 0 -16 -5 -23 -12z"/>
<path d="M190 3425 c-22 -26 7 -46 39 -26 12 8 12 12 2 25 -17 20 -25 20 -41
1z"/>
<path d="M1747 3430 c-47 -9 -58 -19 -28 -27 26 -7 25 -13 -14 -187 -16 -69
-20 -105 -13 -113 14 -17 70 -26 106 -18 74 16 138 131 112 200 -20 52 -48 58
-104 20 -43 -29 -43 -31 -11 113 3 12 2 21 -2 21 -5 -1 -25 -5 -46 -9z m115
-164 c17 -40 -24 -133 -69 -154 -33 -16 -36 -16 -48 1 -30 41 37 177 87 177
10 0 23 -11 30 -24z"/>
<path d="M3845 3433 c-11 -2 -30 -6 -42 -9 -29 -6 -30 -24 -2 -24 17 0 20 -4
15 -22 -3 -13 -6 -29 -6 -35 0 -9 -15 -13 -42 -13 -84 0 -152 -72 -152 -161 0
-84 53 -114 112 -64 l30 25 6 -25 c5 -19 13 -25 34 -25 26 0 52 15 52 31 0 4
-9 5 -20 2 -11 -3 -20 -1 -20 5 0 12 58 289 65 310 3 6 1 11 -3 11 -4 -1 -16
-3 -27 -6z m-57 -139 c11 -20 -3 -99 -22 -128 -17 -28 -61 -50 -80 -43 -29 11
-29 52 -1 112 32 68 82 96 103 59z"/>
<path d="M4754 3425 c-12 -29 15 -45 45 -26 12 8 12 12 2 25 -17 20 -40 21
-47 1z"/>
<path d="M2398 3424 c-24 -7 -23 -24 1 -24 11 0 22 -4 25 -9 3 -5 -6 -66 -21
-135 -23 -105 -31 -127 -50 -137 -40 -22 -25 -30 50 -27 68 3 99 19 49 26 -19
3 -23 8 -19 25 3 12 9 38 12 58 l7 36 70 6 c38 3 80 13 92 21 29 19 50 69 42
101 -11 43 -49 59 -150 61 -50 2 -99 0 -108 -2z m182 -44 c43 -43 12 -95 -65
-109 -27 -5 -51 -8 -53 -7 -2 3 16 100 23 124 7 20 72 15 95 -8z"/>
<path d="M2717 3423 c-12 -11 -8 -23 8 -23 19 0 19 1 -11 -140 -30 -140 -29
-174 4 -178 23 -3 52 13 52 28 0 5 -10 6 -21 3 -20 -6 -21 -3 -15 23 4 16 20
89 36 162 l28 132 -37 0 c-21 0 -41 -3 -44 -7z"/>
<path d="M1194 3392 c-6 -4 -14 -16 -18 -27 -3 -12 -19 -29 -36 -38 -32 -19
-39 -37 -15 -37 19 0 19 -19 0 -95 -21 -87 -19 -104 9 -111 31 -7 62 2 70 21
4 11 -1 13 -24 9 l-28 -6 13 58 c8 33 17 72 20 87 4 20 15 31 35 39 37 12 39
28 5 28 -24 0 -25 2 -19 40 7 42 6 44 -12 32z"/>
<path d="M145 3310 c-18 -19 -18 -22 -2 -37 16 -16 18 -16 33 -1 15 14 15 19
2 37 l-15 21 -18 -20z"/>
<path d="M1338 3315 c-40 -22 -70 -78 -71 -132 0 -40 4 -50 32 -75 21 -18 42
-28 64 -28 107 0 179 160 102 228 -30 26 -86 29 -127 7z m96 -21 c22 -21 20
-62 -5 -129 -22 -60 -49 -76 -88 -55 -24 12 -29 69 -11 129 18 65 68 91 104
55z"/>
<path d="M2040 3311 c-20 -10 -44 -36 -57 -61 -61 -115 8 -203 121 -156 41 17
61 43 25 32 -66 -19 -92 -19 -105 -1 -28 38 -17 52 54 76 37 12 73 26 80 32
15 12 16 69 0 85 -18 18 -79 15 -118 -7z m83 -13 c13 -37 -48 -93 -94 -86 -20
3 -20 4 3 38 20 30 59 59 79 60 4 0 9 -6 12 -12z"/>
<path d="M2912 3314 c-97 -50 -112 -234 -19 -234 13 0 32 9 42 20 10 11 22 20
26 20 4 0 11 -9 14 -20 7 -23 56 -28 74 -7 13 16 5 28 -15 20 -18 -7 -18 2 7
103 16 61 19 88 11 96 -19 19 -104 20 -140 2z m93 -14 c4 -6 1 -36 -5 -67 -20
-96 -93 -147 -120 -84 -10 25 -8 36 16 86 27 55 48 73 86 74 9 1 20 -4 23 -9z"/>
<path d="M3440 3308 c-47 -33 -69 -66 -76 -118 -5 -40 -3 -50 21 -78 21 -25
35 -32 61 -32 42 0 104 24 104 41 0 7 -7 8 -17 4 -10 -4 -37 -10 -60 -12 -38
-5 -43 -3 -54 20 -16 36 -3 50 72 72 60 18 89 43 89 77 0 49 -83 65 -140 26z
m88 -19 c5 -25 -39 -68 -75 -75 -44 -9 -44 13 1 61 36 38 68 44 74 14z"/>
<path d="M3120 3310 c-13 -8 -13 -10 2 -10 19 0 31 -33 49 -146 14 -81 6 -114
-31 -134 -18 -10 -22 -8 -27 10 -7 28 -27 20 -31 -13 -3 -25 0 -27 30 -27 19
0 42 6 51 13 16 12 187 294 187 309 0 11 -67 10 -75 -1 -3 -5 3 -12 14 -16 18
-5 17 -11 -21 -75 -22 -39 -41 -70 -43 -70 -3 0 -9 26 -31 143 -5 21 -11 27
-32 27 -15 0 -34 -5 -42 -10z"/>
<path d="M4803 3294 c-8 -21 13 -42 28 -27 13 13 5 43 -11 43 -6 0 -13 -7 -17
-16z"/>
<path d="M104 3183 c-14 -24 -7 -43 16 -43 25 0 33 15 20 40 -13 25 -22 25
-36 3z"/>
<path d="M4840 3180 c-13 -25 -5 -40 21 -40 19 0 24 15 13 44 -8 22 -21 20
-34 -4z"/>
<path d="M77 3053 c-11 -10 -8 -41 4 -48 5 -4 19 1 29 10 16 15 17 19 5 31
-15 15 -28 18 -38 7z"/>
<path d="M4874 3045 c-4 -8 0 -22 7 -31 12 -14 14 -14 25 1 7 9 10 23 7 31 -7
19 -32 18 -39 -1z"/>
<path d="M50 2915 c-22 -26 7 -46 39 -26 12 8 12 12 2 25 -17 20 -25 20 -41 1z"/>
<path d="M4900 2915 c-9 -11 -11 -22 -4 -32 13 -21 25 -21 38 -1 8 14 7 21 -5
33 -14 15 -17 15 -29 0z"/>
<path d="M4921 2791 c-16 -29 3 -58 25 -40 17 14 17 20 0 44 -13 18 -14 18
-25 -4z"/>
<path d="M24 2779 c-3 -6 0 -17 8 -25 12 -12 17 -12 32 -1 11 8 16 19 12 25
-9 15 -43 15 -52 1z"/>
<path d="M4925 2650 c-8 -24 1 -40 21 -40 20 0 29 27 14 45 -17 20 -27 19 -35
-5z"/>
<path d="M14 2649 c-3 -6 0 -18 9 -26 12 -12 18 -13 35 -2 16 10 18 16 10 26
-13 16 -44 17 -54 2z"/>
<path d="M3210 2568 c0 -18 7 -161 15 -318 8 -157 15 -306 15 -332 l0 -48 -32
20 c-94 57 -221 22 -268 -75 -46 -95 -1 -219 93 -254 39 -15 111 -14 150 3 44
18 95 78 103 122 4 20 1 89 -5 153 -12 123 -21 365 -14 392 4 14 13 13 72 -12
72 -30 174 -48 184 -32 3 5 -45 31 -108 57 -125 52 -155 78 -155 132 0 19 2
34 5 34 3 0 24 -14 47 -30 23 -17 64 -37 91 -45 57 -17 147 -20 147 -6 0 6
-28 24 -62 40 -68 33 -189 133 -235 193 -35 46 -43 47 -43 6z"/>
<path d="M18 2523 c-25 -6 -22 -30 3 -38 25 -8 44 7 36 29 -7 16 -9 17 -39 9z"/>
<path d="M4930 2515 c-20 -24 5 -48 34 -33 31 16 31 17 10 33 -24 18 -29 18
-44 0z"/>
<path d="M4929 2387 c-14 -31 -2 -52 24 -41 21 8 22 24 3 49 -14 19 -15 19
-27 -8z"/>
<path d="M14 2379 c-3 -6 1 -18 10 -27 15 -15 17 -15 32 0 19 19 11 38 -16 38
-10 0 -22 -5 -26 -11z"/>
<path d="M1878 1915 c1 -218 -1 -375 -7 -375 -5 0 -25 7 -44 15 -70 29 -148
16 -200 -33 -72 -68 -82 -164 -25 -248 77 -114 279 -89 328 41 8 22 7 108 -6
352 -9 178 -14 326 -11 330 4 3 52 -1 106 -10 188 -32 346 -18 465 39 27 13
51 23 52 21 1 -1 5 -110 8 -242 4 -132 9 -276 11 -320 6 -103 1 -111 -56 -86
-57 26 -102 26 -157 0 -63 -31 -102 -95 -102 -167 0 -65 22 -115 64 -146 98
-73 226 -51 283 49 28 49 29 101 8 440 -8 132 -19 328 -25 435 -6 107 -13 214
-16 237 l-5 42 -52 -25 c-147 -68 -328 -71 -510 -10 -60 20 -109 36 -110 36
-1 0 -1 -169 1 -375z m162 185 c176 -26 304 -26 405 0 97 25 98 25 56 -1 -65
-40 -176 -61 -281 -55 -161 10 -291 28 -306 43 -12 12 -19 33 -11 33 1 0 63
-9 137 -20z"/>
<path d="M30 2245 c-10 -12 -10 -18 0 -31 12 -13 15 -13 28 0 15 15 10 46 -6
46 -5 0 -15 -7 -22 -15z"/>
<path d="M4917 2253 c-24 -23 12 -55 38 -33 12 10 13 16 4 26 -12 15 -31 18
-42 7z"/>
<path d="M44 2115 c-4 -9 -2 -21 4 -27 15 -15 44 -1 40 19 -4 23 -36 29 -44 8z"/>
<path d="M4900 2115 c-15 -18 -5 -35 20 -35 10 0 22 5 25 10 7 11 -12 40 -25
40 -4 0 -13 -7 -20 -15z"/>
<path d="M70 1985 c-6 -8 -9 -19 -5 -25 9 -15 41 -12 54 4 10 12 8 17 -8 25
-25 14 -26 14 -41 -4z"/>
<path d="M4865 1980 c-15 -17 -15 -19 4 -25 24 -7 41 1 41 20 0 22 -27 25 -45
5z"/>
<path d="M102 1858 c-13 -13 2 -38 23 -38 21 0 36 25 23 38 -7 7 -17 12 -23
12 -6 0 -16 -5 -23 -12z"/>
<path d="M4841 1856 c-10 -12 -10 -19 2 -36 12 -18 16 -18 26 -6 14 17 11 48
-5 53 -6 2 -17 -3 -23 -11z"/>
<path d="M141 1731 c-16 -28 14 -51 36 -28 13 13 14 19 3 31 -17 21 -27 20
-39 -3z"/>
<path d="M4807 1743 c-11 -10 -8 -41 3 -48 19 -12 41 15 29 36 -10 20 -21 24
-32 12z"/>
<path d="M4762 1618 c-16 -16 -15 -33 2 -47 21 -18 41 11 26 38 -13 25 -12 25
-28 9z"/>
<path d="M189 1604 c-15 -18 0 -38 27 -32 25 5 28 25 6 37 -15 8 -23 7 -33 -5z"/>
<path d="M235 1480 c-7 -12 12 -50 25 -50 17 0 30 36 18 48 -15 15 -35 15 -43
2z"/>
<path d="M4707 1483 c-24 -23 12 -55 38 -33 12 10 13 16 4 26 -12 15 -31 18
-42 7z"/>
<path d="M294 1359 c-3 -6 0 -18 9 -26 12 -12 18 -13 35 -2 16 10 18 16 10 26
-13 16 -44 17 -54 2z"/>
<path d="M4640 1351 c0 -27 15 -34 40 -21 17 9 19 14 9 26 -17 21 -49 18 -49
-5z"/>
<path d="M371 1256 c-16 -19 -7 -46 14 -46 22 0 30 29 13 46 -13 13 -16 13
-27 0z"/>
<path d="M4580 1245 c-22 -26 7 -46 39 -26 12 8 12 12 2 25 -17 20 -25 20 -41
1z"/>
<path d="M440 1141 c-10 -19 -9 -26 3 -38 29 -30 49 6 23 42 -13 18 -14 18
-26 -4z"/>
<path d="M4512 1148 c-16 -16 -15 -33 2 -47 21 -18 41 11 26 38 -13 25 -12 25
-28 9z"/>
<path d="M517 1033 c-12 -11 -8 -40 6 -52 11 -8 17 -5 27 13 7 13 9 29 6 35
-8 12 -29 15 -39 4z"/>
<path d="M4430 1025 c-17 -21 6 -61 26 -44 18 15 18 45 0 52 -8 3 -20 0 -26
-8z"/>
<path d="M593 914 c-3 -8 1 -22 9 -30 13 -13 16 -13 27 0 7 9 11 23 7 31 -7
20 -35 19 -43 -1z"/>
<path d="M4344 915 c-7 -18 3 -35 21 -35 21 0 28 19 15 35 -16 19 -29 19 -36
0z"/>
<path d="M684 819 c-3 -6 0 -18 9 -26 12 -12 18 -13 35 -2 16 10 18 16 10 26
-13 16 -44 17 -54 2z"/>
<path d="M4254 815 c-7 -18 3 -35 21 -35 15 0 28 27 19 41 -8 14 -34 11 -40
-6z"/>
<path d="M4161 732 c-7 -13 -6 -23 1 -30 27 -27 54 -3 36 31 -11 22 -25 22
-37 -1z"/>
<path d="M787 733 c-11 -10 -8 -41 4 -49 6 -3 18 1 27 9 13 13 13 19 2 31 -14
17 -23 20 -33 9z"/>
<path d="M4065 639 c-10 -30 11 -48 32 -27 13 14 14 20 3 32 -17 22 -27 20
-35 -5z"/>
<path d="M882 638 c-8 -8 -9 -15 -1 -25 15 -17 34 -17 48 1 10 12 8 17 -8 25
-24 14 -24 14 -39 -1z"/>
<path d="M991 566 c-17 -20 -6 -49 16 -44 22 4 26 20 10 42 -12 16 -14 16 -26
2z"/>
<path d="M3960 555 c-6 -8 -9 -19 -5 -25 8 -13 42 -13 50 0 7 11 -12 40 -25
40 -4 0 -13 -7 -20 -15z"/>
<path d="M1091 476 c-15 -18 11 -40 39 -31 25 8 26 21 1 35 -25 13 -26 13 -40
-4z"/>
<path d="M3851 476 c-14 -17 11 -41 34 -32 20 7 19 32 -1 40 -21 8 -20 8 -33
-8z"/>
<path d="M1206 413 c-11 -11 -6 -40 8 -52 12 -10 17 -8 25 8 6 11 11 22 11 25
0 9 -37 26 -44 19z"/>
<path d="M3740 405 c-16 -19 8 -59 27 -43 17 14 17 45 -1 51 -8 3 -20 0 -26
-8z"/>
<path d="M1321 346 c-13 -16 -5 -46 13 -46 23 0 36 22 25 42 -12 22 -22 23
-38 4z"/>
<path d="M3627 343 c-24 -23 12 -55 38 -33 12 10 13 16 4 26 -12 15 -31 18
-42 7z"/>
<path d="M1436 281 c-7 -11 3 -41 14 -41 19 0 40 13 40 25 0 21 -44 33 -54 16z"/>
<path d="M3504 275 c-13 -32 23 -48 47 -19 10 13 10 17 -2 25 -21 13 -39 11
-45 -6z"/>
<path d="M1564 225 c-7 -18 3 -35 22 -35 20 0 30 30 13 41 -20 12 -29 11 -35
-6z"/>
<path d="M3381 226 c-17 -20 13 -43 34 -26 12 10 13 16 4 26 -6 8 -15 14 -19
14 -4 0 -13 -6 -19 -14z"/>
<path d="M3256 185 c-6 -16 2 -45 13 -45 19 1 33 20 26 39 -7 24 -30 28 -39 6z"/>
<path d="M1683 174 c-3 -8 1 -22 9 -30 13 -13 16 -13 27 0 7 9 11 23 7 31 -7
20 -35 19 -43 -1z"/>
<path d="M1811 144 l-22 -16 21 -15 c20 -14 23 -14 38 1 14 14 15 18 1 31 -13
13 -17 13 -38 -1z"/>
<path d="M3127 136 c-9 -23 18 -39 43 -26 17 9 19 14 9 26 -15 18 -45 18 -52
0z"/>
<path d="M1941 112 c-7 -13 -6 -23 1 -30 27 -27 54 -3 36 31 -11 22 -25 22
-37 -1z"/>
<path d="M2994 105 c-4 -9 0 -24 10 -33 15 -15 18 -15 26 -2 6 8 9 22 7 30 -3
21 -36 25 -43 5z"/>
<path d="M2076 94 c-11 -29 -6 -44 13 -44 27 0 34 15 19 40 -15 24 -24 25 -32
4z"/>
<path d="M2870 85 c-17 -21 6 -61 26 -44 18 15 18 45 0 52 -8 3 -20 0 -26 -8z"/>
<path d="M2213 73 c-16 -6 -17 -39 -2 -49 16 -9 43 21 36 40 -7 16 -13 18 -34
9z"/>
<path d="M2734 65 c-6 -15 12 -45 27 -45 15 0 22 42 8 51 -20 13 -29 11 -35
-6z"/>
<path d="M2341 56 c-19 -22 4 -62 25 -45 17 14 15 50 -2 56 -6 2 -16 -3 -23
-11z"/>
<path d="M2604 55 c-12 -29 15 -45 45 -26 12 8 12 12 2 25 -17 20 -40 21 -47
1z"/>
<path d="M2466 51 c-8 -13 20 -45 32 -37 20 12 14 46 -7 46 -11 0 -22 -4 -25
-9z"/>
</g>
</svg>
