<?xml version="1.0" standalone="no"?>
<!DOCTYPE svg PUBLIC "-//W3C//DTD SVG 20010904//EN"
 "http://www.w3.org/TR/2001/REC-SVG-20010904/DTD/svg10.dtd">
<svg version="1.0" xmlns="http://www.w3.org/2000/svg"
 width="500.000000pt" height="500.000000pt" viewBox="0 0 500.000000 500.000000"
 preserveAspectRatio="xMidYMid meet">
<metadata>
Created by potrace 1.15, written by Peter Selinger 2001-2017
</metadata>
<g transform="translate(0.000000,500.000000) scale(0.100000,-0.100000)"
fill="#000000" stroke="none">
<path d="M2341 4972 c-11 -20 2 -42 25 -42 18 0 26 30 13 46 -16 19 -26 18
-38 -4z"/>
<path d="M2610 4974 c-11 -12 -10 -18 3 -31 22 -23 52 0 36 28 -12 23 -22 24
-39 3z"/>
<path d="M2473 4964 c-3 -8 1 -22 9 -30 13 -13 16 -13 27 0 7 9 11 23 7 31 -7
20 -35 19 -43 -1z"/>
<path d="M2745 4960 c-8 -24 1 -40 21 -40 20 0 29 27 14 45 -17 20 -27 19 -35
-5z"/>
<path d="M2080 4949 c-10 -17 -9 -24 4 -38 15 -14 18 -14 26 -1 14 21 12 36
-4 49 -12 10 -17 8 -26 -10z"/>
<path d="M2210 4951 c0 -27 15 -34 40 -21 17 9 19 14 9 26 -17 21 -49 18 -49
-5z"/>
<path d="M2874 4935 c-13 -32 23 -48 47 -19 10 13 10 17 -2 25 -21 13 -39 11
-45 -6z"/>
<path d="M1951 4921 c-14 -9 -7 -51 8 -51 15 0 33 30 27 45 -6 17 -15 19 -35
6z"/>
<path d="M3010 4915 c-22 -26 7 -46 39 -26 12 8 12 12 2 25 -17 20 -25 20 -41
1z"/>
<path d="M1816 4884 c-8 -21 11 -45 30 -37 20 7 14 47 -7 51 -9 2 -19 -5 -23
-14z"/>
<path d="M3140 4885 c-19 -22 5 -48 31 -34 10 5 19 14 19 19 0 5 -9 14 -19 19
-14 8 -22 7 -31 -4z"/>
<path d="M3273 4853 c-17 -6 -16 -38 1 -52 21 -18 44 25 24 44 -7 7 -19 11
-25 8z"/>
<path d="M1684 4839 c-3 -6 1 -18 10 -27 15 -15 17 -15 32 0 19 19 11 38 -16
38 -10 0 -22 -5 -26 -11z"/>
<path d="M1565 4800 c-8 -12 3 -50 14 -50 15 0 33 30 27 45 -6 17 -32 20 -41
5z"/>
<path d="M3390 4795 c-11 -13 -11 -19 4 -33 15 -15 18 -15 26 -2 22 33 -6 64
-30 35z"/>
<path d="M1440 4750 c-13 -25 -5 -40 21 -40 25 0 35 25 19 45 -17 20 -27 19
-40 -5z"/>
<path d="M3510 4745 c-15 -18 -5 -35 21 -35 24 0 37 29 18 41 -19 12 -25 11
-39 -6z"/>
<path d="M1324 4685 c-12 -31 23 -48 45 -21 10 12 8 17 -8 25 -26 14 -31 14
-37 -4z"/>
<path d="M3632 4688 c-8 -8 -9 -15 -1 -25 15 -17 34 -17 48 1 10 12 8 17 -8
25 -24 14 -24 14 -39 -1z"/>
<path d="M3751 4626 c-11 -13 -6 -46 8 -46 19 1 33 20 26 39 -7 24 -18 27 -34
7z"/>
<path d="M1204 4615 c-13 -32 23 -48 47 -19 10 13 10 17 -2 25 -21 13 -39 11
-45 -6z"/>
<path d="M1097 4553 c-24 -23 12 -55 38 -33 12 10 13 16 4 26 -12 15 -31 18
-42 7z"/>
<path d="M3854 4545 c-4 -9 0 -24 10 -33 15 -15 18 -15 26 -2 6 8 9 22 7 30
-3 21 -36 25 -43 5z"/>
<path d="M984 4465 c-13 -32 23 -48 47 -19 10 13 10 17 -2 25 -21 13 -39 11
-45 -6z"/>
<path d="M3964 4465 c-10 -24 12 -42 34 -29 24 16 21 38 -6 42 -13 2 -25 -3
-28 -13z"/>
<path d="M884 4385 c-12 -31 23 -48 45 -21 10 12 8 17 -8 25 -26 14 -31 14
-37 -4z"/>
<path d="M4071 4386 c-14 -17 11 -41 34 -32 20 7 19 32 -1 40 -21 8 -20 8 -33
-8z"/>
<path d="M785 4299 c-10 -30 11 -48 32 -27 13 14 14 20 3 32 -17 22 -27 20
-35 -5z"/>
<path d="M4166 4293 c-11 -26 10 -38 41 -24 27 12 27 13 8 27 -25 19 -41 18
-49 -3z"/>
<path d="M690 4204 c-11 -12 -10 -18 3 -31 15 -15 18 -15 37 2 19 17 19 19 2
31 -22 17 -27 17 -42 -2z"/>
<path d="M4267 4213 c-11 -11 -8 -40 6 -51 19 -16 43 24 26 44 -13 15 -22 18
-32 7z"/>
<path d="M1455 4173 c-156 -56 -246 -154 -276 -300 -15 -74 -4 -121 41 -177
44 -56 73 -142 65 -191 -12 -76 -12 -79 20 -88 43 -12 87 -36 192 -100 97 -61
139 -70 181 -42 12 9 47 58 78 110 31 52 60 95 64 95 4 0 13 -39 19 -87 7 -49
23 -119 36 -158 20 -58 32 -149 71 -543 34 -348 44 -479 36 -496 -6 -14 -66
-55 -157 -107 -81 -46 -150 -90 -152 -97 -3 -8 1 -20 9 -28 13 -14 22 -13 74
2 32 9 129 33 214 53 l155 36 12 165 c26 343 43 556 49 591 l6 37 35 -20 c30
-18 45 -20 119 -15 81 6 85 5 93 -16 33 -84 49 -113 84 -142 53 -45 161 -101
233 -120 68 -17 182 -20 237 -4 22 6 41 8 44 5 3 -2 -7 -97 -22 -210 -29 -223
-27 -239 23 -253 15 -5 90 -7 167 -7 137 1 145 3 380 63 132 34 248 64 258 67
10 3 17 0 17 -8 0 -28 -51 -119 -90 -162 -70 -76 -17 -92 84 -26 80 51 336
315 336 345 0 17 -50 62 -83 74 -35 14 -138 14 -205 1 -29 -5 -138 -14 -243
-20 -106 -6 -209 -13 -230 -16 -48 -8 -49 2 -10 59 42 62 125 233 149 307 11
36 37 126 58 200 77 279 40 436 -133 566 -127 96 -248 113 -498 69 -110 -19
-215 -29 -395 -36 -229 -10 -251 -10 -340 9 -104 21 -221 66 -294 112 l-47 30
7 62 c17 169 -70 342 -199 399 -71 31 -202 37 -272 12z m105 -302 c41 -29 52
-59 45 -128 -5 -61 6 -86 20 -43 8 26 59 52 92 48 26 -3 32 -10 51 -58 l10
-25 9 23 c8 20 11 22 21 9 31 -38 25 -69 -43 -207 -73 -147 -107 -200 -132
-200 -18 0 -93 41 -93 51 0 4 7 9 15 13 17 6 21 61 6 71 -6 3 -32 -7 -59 -22
-56 -31 -77 -27 -87 16 -6 29 -9 31 -44 25 -48 -8 -65 11 -55 60 3 20 7 36 9
36 1 0 16 -5 33 -11 27 -9 37 -8 66 10 37 23 46 39 46 77 0 33 -10 30 -43 -11
-22 -28 -35 -35 -62 -35 -61 0 -76 70 -24 114 36 30 18 35 -27 7 -33 -20 -54
-13 -54 19 1 28 39 100 67 126 64 60 173 76 233 35z m529 -507 c22 -19 37 -46
53 -97 20 -66 21 -84 15 -286 -4 -119 -14 -290 -22 -381 -9 -91 -19 -239 -24
-328 -6 -121 -11 -166 -21 -172 -19 -12 -230 -64 -235 -58 -3 2 27 26 64 53
104 74 105 77 91 253 -6 81 -20 235 -31 342 -54 532 -58 604 -38 641 13 26 68
59 96 59 12 0 35 -12 52 -26z m1216 -265 c24 -75 -64 -299 -168 -425 -50 -60
-48 -37 2 41 75 115 120 232 136 358 7 50 19 61 30 26z m230 -293 c-67 -204
-159 -376 -257 -483 -21 -24 -38 -47 -38 -53 0 -5 24 -1 53 11 153 61 257 79
453 79 72 0 153 6 197 16 97 20 160 16 165 -10 6 -27 -97 -173 -180 -255 -39
-39 -74 -71 -79 -71 -4 0 6 34 23 76 32 83 31 124 -2 124 -10 0 -92 -18 -182
-40 -224 -56 -443 -92 -556 -91 -51 0 -96 2 -101 5 -8 6 44 400 58 432 5 11
37 35 72 53 174 92 276 174 367 299 26 35 48 59 50 54 2 -6 -18 -71 -43 -146z"/>
<path d="M1671 3717 c-8 -11 -5 -16 15 -26 19 -8 24 -16 20 -31 -3 -11 -9 -29
-12 -40 -3 -11 -1 -20 4 -20 28 0 53 90 32 115 -15 19 -44 19 -59 2z"/>
<path d="M601 4116 c-16 -19 -7 -46 14 -46 22 0 30 29 13 46 -13 13 -16 13
-27 0z"/>
<path d="M4354 4105 c-12 -30 16 -45 46 -25 13 9 12 12 -4 25 -25 19 -35 19
-42 0z"/>
<path d="M514 3995 c-7 -18 3 -35 21 -35 15 0 28 27 19 41 -8 14 -34 11 -40
-6z"/>
<path d="M4433 3994 c-3 -8 1 -22 9 -30 13 -13 16 -13 27 0 7 9 11 23 7 31 -7
20 -35 19 -43 -1z"/>
<path d="M4522 3898 c-16 -16 -15 -33 2 -47 22 -18 44 25 24 45 -11 11 -16 12
-26 2z"/>
<path d="M434 3885 c-4 -8 -1 -22 6 -30 16 -19 40 -2 40 26 0 23 -38 26 -46 4z"/>
<path d="M4591 3787 c-26 -26 -2 -53 32 -35 22 11 22 20 -2 35 -14 9 -21 9
-30 0z"/>
<path d="M367 3783 c-12 -12 -7 -31 10 -37 19 -8 48 17 39 33 -8 12 -39 15
-49 4z"/>
<path d="M4655 3670 c-7 -23 1 -40 20 -40 19 0 25 23 10 43 -16 22 -22 21 -30
-3z"/>
<path d="M300 3665 c-19 -22 1 -39 35 -31 26 7 27 8 10 26 -22 24 -29 25 -45
5z"/>
<path d="M243 3549 c-6 -6 -9 -18 -6 -25 7 -18 37 -18 52 0 10 12 8 17 -8 25
-24 14 -24 14 -38 0z"/>
<path d="M4717 3553 c-4 -3 -7 -15 -7 -25 0 -21 36 -25 43 -5 9 27 -17 50 -36
30z"/>
<path d="M4771 3436 c-17 -20 -6 -49 16 -44 22 4 26 20 10 42 -12 16 -14 16
-26 2z"/>
<path d="M189 3424 c-15 -18 0 -38 27 -32 25 5 28 25 6 37 -15 8 -23 7 -33 -5z"/>
<path d="M142 3298 c-13 -13 2 -38 23 -38 21 0 36 25 23 38 -7 7 -17 12 -23
12 -6 0 -16 -5 -23 -12z"/>
<path d="M4813 3294 c-9 -25 11 -38 38 -24 22 12 22 13 4 26 -24 18 -34 18
-42 -2z"/>
<path d="M102 3168 c-7 -10 -6 -19 4 -33 15 -20 15 -20 30 0 8 10 13 24 11 30
-5 15 -33 17 -45 3z"/>
<path d="M4845 3170 c-7 -11 12 -50 25 -50 12 0 23 37 15 50 -8 13 -32 13 -40
0z"/>
<path d="M82 3048 c-14 -14 -16 -44 -3 -52 4 -3 16 3 25 12 13 15 14 21 3 36
-10 13 -15 14 -25 4z"/>
<path d="M4885 3040 c-8 -13 3 -50 15 -50 5 0 14 8 19 18 15 27 -18 58 -34 32z"/>
<path d="M43 2904 c-3 -9 0 -20 8 -24 18 -12 50 7 43 25 -8 20 -43 19 -51 -1z"/>
<path d="M4903 2904 c-3 -8 1 -22 9 -30 13 -13 16 -13 27 0 7 9 11 23 7 31 -7
20 -35 19 -43 -1z"/>
<path d="M24 2779 c-3 -6 1 -18 10 -27 15 -15 17 -15 34 1 15 16 15 19 2 27
-20 13 -37 12 -46 -1z"/>
<path d="M4927 2783 c-24 -23 12 -55 38 -33 12 10 13 16 4 26 -12 15 -31 18
-42 7z"/>
<path d="M4940 2655 c-9 -11 -11 -22 -4 -32 13 -21 25 -21 38 -1 8 14 7 21 -5
33 -14 15 -17 15 -29 0z"/>
<path d="M20 2645 c-6 -8 -9 -19 -5 -25 9 -15 41 -12 54 4 10 12 8 17 -8 25
-25 14 -26 14 -41 -4z"/>
<path d="M5 2510 c-4 -7 -3 -16 3 -22 14 -14 47 -6 47 12 0 18 -40 26 -50 10z"/>
<path d="M4934 2509 c-3 -6 0 -18 9 -26 12 -12 18 -13 35 -2 16 10 18 16 10
26 -13 16 -44 17 -54 2z"/>
<path d="M20 2385 c-16 -29 -2 -52 24 -42 20 8 21 41 3 56 -11 8 -17 5 -27
-14z"/>
<path d="M4934 2375 c-12 -29 15 -45 45 -26 12 8 12 12 2 25 -17 20 -40 21
-47 1z"/>
<path d="M4925 2250 c-8 -24 1 -40 21 -40 20 0 29 27 14 45 -17 20 -27 19 -35
-5z"/>
<path d="M30 2245 c-22 -26 7 -46 39 -26 12 8 12 12 2 25 -17 20 -25 20 -41 1z"/>
<path d="M44 2115 c-4 -9 -2 -21 4 -27 15 -15 44 -1 40 19 -4 23 -36 29 -44 8z"/>
<path d="M4911 2116 c-18 -22 4 -62 25 -45 18 15 18 33 0 48 -10 9 -16 8 -25
-3z"/>
<path d="M70 1985 c-10 -12 -10 -19 1 -32 7 -10 15 -20 16 -22 4 -5 32 31 33
41 0 4 -9 12 -19 17 -14 8 -22 7 -31 -4z"/>
<path d="M4887 1993 c-15 -14 -7 -43 12 -43 26 0 36 17 21 35 -14 16 -23 19
-33 8z"/>
<path d="M112 1868 c-21 -21 -15 -50 10 -46 27 4 32 18 16 41 -11 14 -16 15
-26 5z"/>
<path d="M4850 1855 c-10 -12 -10 -18 0 -30 15 -18 20 -18 44 0 20 15 20 15 0
30 -24 18 -29 18 -44 0z"/>
<path d="M141 1727 c-8 -10 -7 -19 4 -33 13 -18 15 -18 31 -2 14 14 15 20 4
32 -15 19 -24 20 -39 3z"/>
<path d="M4817 1733 c-14 -14 -7 -43 11 -43 30 0 44 21 24 36 -20 15 -26 17
-35 7z"/>
<path d="M3377 1683 c-13 -12 -7 -23 13 -23 26 0 26 0 -10 -175 -17 -82 -28
-155 -26 -162 7 -18 88 -14 94 5 3 9 -3 11 -23 6 -26 -6 -27 -5 -22 17 15 61
67 311 67 324 0 11 -12 15 -43 15 -24 0 -47 -3 -50 -7z"/>
<path d="M1505 1670 c-7 -11 -8 -11 22 -14 13 -2 26 -5 29 -9 8 -8 -55 -288
-68 -304 -6 -7 -19 -13 -29 -13 -11 0 -19 -4 -19 -10 0 -6 32 -10 76 -10 56 0
75 3 72 12 -3 7 -13 13 -24 13 -12 0 -20 8 -22 23 -4 24 36 232 47 244 3 4 36
-59 73 -140 58 -127 70 -147 92 -150 29 -4 25 -14 66 178 17 79 36 150 42 157
6 8 19 11 29 8 13 -4 19 -1 19 9 0 13 -14 16 -75 16 -62 0 -75 -3 -75 -16 0
-11 5 -14 16 -10 9 4 22 2 29 -4 10 -8 8 -33 -11 -122 -13 -61 -25 -116 -28
-122 -4 -10 -116 215 -116 233 0 4 -8 15 -18 24 -21 19 -117 24 -127 7z"/>
<path d="M2335 1619 c-9 -17 -32 -40 -51 -51 -35 -20 -37 -38 -5 -38 18 0 17
-4 -2 -98 -11 -54 -18 -106 -14 -115 12 -32 107 -18 107 16 0 5 -13 6 -30 2
-36 -8 -36 -9 -9 106 19 82 22 88 50 94 36 8 38 25 3 25 -24 0 -25 2 -18 45 8
53 -8 60 -31 14z"/>
<path d="M192 1609 c-15 -24 0 -51 24 -42 18 6 18 37 1 51 -10 8 -16 6 -25 -9z"/>
<path d="M4764 1599 c-3 -6 1 -18 10 -27 15 -15 17 -15 34 1 15 16 15 19 2 27
-20 13 -37 12 -46 -1z"/>
<path d="M2030 1564 c-74 -32 -112 -90 -114 -172 0 -45 3 -57 23 -73 33 -27
77 -24 107 6 l25 25 9 -26 c9 -22 15 -25 47 -22 26 2 39 8 41 20 2 12 -2 15
-17 11 -26 -7 -26 -5 4 112 14 53 23 100 20 105 -6 10 -71 30 -95 30 -8 -1
-31 -8 -50 -16z m82 -63 c-4 -70 -35 -128 -77 -148 -36 -17 -37 -17 -51 2 -28
39 -9 121 41 171 19 19 34 24 58 22 31 -3 32 -4 29 -47z"/>
<path d="M3130 1564 c-75 -33 -110 -86 -110 -169 0 -42 5 -60 20 -75 27 -27
72 -25 108 5 l30 25 6 -25 c5 -20 13 -25 39 -25 31 0 57 14 57 32 0 5 -11 6
-25 2 -14 -3 -25 -3 -25 1 0 3 11 51 25 106 14 55 23 104 20 109 -6 10 -71 30
-95 30 -8 -1 -31 -8 -50 -16z m88 -36 c2 -10 -4 -42 -12 -72 -42 -142 -158
-162 -127 -21 16 70 59 117 103 113 22 -2 34 -9 36 -20z"/>
<path d="M2463 1563 c-28 -5 -30 -23 -3 -23 25 0 25 -11 0 -119 -22 -99 -16
-121 32 -121 23 0 42 11 76 45 43 44 44 44 39 16 -9 -44 11 -64 56 -56 22 4
37 13 37 21 0 10 -7 13 -24 8 l-24 -6 24 99 c13 54 26 108 29 121 5 21 3 23
-22 20 -22 -2 -29 -10 -39 -44 -23 -81 -80 -168 -116 -177 -20 -6 -20 -3 -15
51 4 31 13 83 21 115 l14 57 -31 -1 c-18 -1 -42 -4 -54 -6z"/>
<path d="M2793 1563 c-28 -5 -30 -23 -3 -23 25 0 26 -25 1 -143 -16 -75 -16
-89 -5 -94 22 -8 41 14 49 54 9 49 37 102 73 141 35 38 48 40 55 10 5 -17 9
-19 20 -9 8 6 17 25 19 41 4 28 3 30 -29 30 -23 0 -41 -7 -54 -22 -10 -13 -28
-34 -39 -48 l-21 -25 6 30 c3 17 8 38 11 48 4 14 -1 17 -28 16 -18 -1 -43 -4
-55 -6z"/>
<path d="M4717 1493 c-11 -10 -8 -41 3 -48 19 -12 41 15 29 36 -10 20 -21 24
-32 12z"/>
<path d="M238 1478 c-8 -21 2 -38 22 -38 26 0 43 23 28 38 -16 16 -45 15 -50
0z"/>
<path d="M297 1356 c-9 -23 18 -39 43 -26 17 9 19 14 9 26 -15 18 -45 18 -52
0z"/>
<path d="M4655 1360 c-8 -13 3 -50 15 -50 13 0 28 32 23 48 -6 15 -29 16 -38
2z"/>
<path d="M372 1248 c-27 -27 -3 -54 31 -36 22 11 22 25 -1 37 -13 7 -23 6 -30
-1z"/>
<path d="M4593 1253 c-16 -6 -17 -25 -1 -41 12 -12 48 1 48 18 0 13 -32 28
-47 23z"/>
<path d="M4522 1148 c-16 -16 -15 -33 2 -47 10 -9 16 -8 26 3 16 21 -10 62
-28 44z"/>
<path d="M434 1129 c-3 -6 0 -18 9 -26 12 -12 18 -13 35 -2 16 10 18 16 10 26
-13 16 -44 17 -54 2z"/>
<path d="M520 1035 c-9 -11 -11 -22 -4 -32 13 -21 25 -21 38 -1 8 14 7 21 -5
33 -14 15 -17 15 -29 0z"/>
<path d="M2294 1035 c-18 -13 -18 -15 -3 -30 11 -11 24 -15 38 -10 26 8 27 26
2 42 -15 9 -23 9 -37 -2z"/>
<path d="M2880 1025 c-10 -13 -9 -15 9 -15 28 0 27 -11 -9 -182 -37 -172 -37
-180 -8 -176 17 2 25 14 36 57 14 58 72 155 98 165 40 15 43 -14 12 -126 -15
-57 -18 -82 -10 -90 16 -16 62 -13 80 7 16 17 16 17 -5 12 -29 -7 -30 12 -3
113 25 96 25 106 -4 125 -22 15 -27 15 -54 1 -17 -9 -44 -32 -61 -53 -36 -44
-37 -37 -11 77 11 47 20 88 20 93 0 14 -77 7 -90 -8z"/>
<path d="M4441 1026 c-19 -22 4 -62 25 -45 17 14 15 50 -2 56 -6 2 -16 -3 -23
-11z"/>
<path d="M1850 1015 c0 -9 9 -15 25 -15 31 0 31 -2 -1 -159 -30 -143 -37 -161
-63 -161 -11 0 -22 -7 -25 -16 -6 -15 6 -16 116 -11 68 3 139 10 158 17 51 18
80 54 80 100 0 31 -6 43 -32 63 l-31 25 31 16 c59 30 68 81 23 127 -29 29 -30
29 -155 29 -105 0 -126 -2 -126 -15z m205 -19 c30 -13 35 -20 35 -49 0 -20 -7
-41 -18 -50 -17 -15 -120 -42 -129 -34 -5 6 18 109 29 130 11 21 37 22 83 3z
m-7 -172 c16 -11 22 -25 22 -53 0 -55 -30 -79 -109 -88 -59 -6 -63 -5 -58 13
3 10 11 47 18 82 l12 62 46 0 c26 0 56 -7 69 -16z"/>
<path d="M2733 965 c-11 -23 -28 -39 -50 -47 -38 -14 -44 -38 -10 -38 l24 0
-18 -82 c-22 -97 -23 -134 -8 -144 18 -11 69 -7 85 7 23 19 16 29 -16 23 -35
-8 -35 -9 -15 88 22 104 23 106 52 110 36 4 43 28 8 28 -27 0 -27 1 -21 45 9
55 -7 60 -31 10z"/>
<path d="M594 919 c-3 -6 0 -18 9 -26 12 -12 19 -13 36 -3 18 9 20 14 10 26
-14 17 -45 19 -55 3z"/>
<path d="M4353 914 c-3 -8 1 -22 9 -30 13 -13 16 -13 28 0 10 13 10 19 0 31
-16 19 -29 19 -37 -1z"/>
<path d="M2238 913 c-10 -2 -18 -10 -18 -18 0 -8 7 -11 20 -8 25 7 25 11 -5
-107 -14 -54 -22 -105 -19 -113 8 -21 41 -28 70 -15 29 14 33 38 4 31 -26 -7
-25 0 5 117 14 52 25 101 25 108 0 12 -45 15 -82 5z"/>
<path d="M2404 905 c-19 -14 -18 -14 4 -15 27 0 27 -4 2 -125 -25 -120 -25
-117 2 -113 15 2 26 13 32 33 25 86 40 116 78 156 40 43 41 44 51 22 14 -32
33 -28 41 8 9 47 8 49 -24 49 -31 0 -57 -20 -93 -70 l-18 -25 6 48 6 47 -33 0
c-19 0 -43 -7 -54 -15z"/>
<path d="M685 820 c-7 -11 12 -50 25 -50 12 0 23 37 15 50 -8 13 -32 13 -40 0z"/>
<path d="M4263 814 c-8 -21 16 -35 40 -23 14 8 16 13 6 25 -15 19 -38 18 -46
-2z"/>
<path d="M787 733 c-24 -23 12 -55 38 -33 12 10 13 16 4 26 -12 15 -31 18 -42
7z"/>
<path d="M4173 729 c-6 -6 -9 -18 -6 -25 7 -18 37 -18 52 0 10 12 8 17 -8 25
-24 14 -24 14 -38 0z"/>
<path d="M887 643 c-11 -10 -8 -41 4 -49 6 -3 18 1 27 9 13 13 13 19 2 31 -14
17 -23 20 -33 9z"/>
<path d="M4077 643 c-4 -3 -7 -15 -7 -25 0 -21 32 -25 49 -5 17 22 -22 50 -42
30z"/>
<path d="M3970 554 c-11 -12 -11 -18 1 -30 13 -12 18 -12 34 0 16 12 17 16 6
30 -17 20 -25 20 -41 0z"/>
<path d="M984 549 c-3 -6 0 -17 8 -25 12 -12 17 -12 32 -1 11 8 16 19 12 25
-9 15 -43 15 -52 1z"/>
<path d="M3861 486 c-16 -19 -7 -46 14 -46 22 0 30 29 13 46 -13 13 -16 13
-27 0z"/>
<path d="M1096 474 c-11 -30 13 -44 43 -25 12 8 12 12 2 25 -17 20 -37 20 -45
0z"/>
<path d="M3750 410 c-15 -28 5 -57 26 -39 18 15 18 33 0 48 -12 10 -17 8 -26
-9z"/>
<path d="M1210 405 c-19 -22 5 -48 31 -34 10 5 19 14 19 19 0 5 -9 14 -19 19
-14 8 -22 7 -31 -4z"/>
<path d="M1327 353 c-13 -12 -7 -44 9 -50 21 -8 35 16 23 39 -10 19 -21 23
-32 11z"/>
<path d="M3632 338 c-13 -13 2 -38 23 -38 21 0 36 25 23 38 -7 7 -17 12 -23
12 -6 0 -16 -5 -23 -12z"/>
<path d="M1442 278 c-13 -13 2 -38 23 -38 21 0 36 25 23 38 -7 7 -17 12 -23
12 -6 0 -16 -5 -23 -12z"/>
<path d="M3507 276 c-6 -15 11 -36 29 -36 21 0 35 25 22 38 -16 16 -45 15 -51
-2z"/>
<path d="M1567 233 c-24 -23 12 -55 38 -33 12 10 13 16 4 26 -12 15 -31 18
-42 7z"/>
<path d="M3390 225 c-9 -11 -9 -19 3 -36 l15 -21 12 22 c20 38 -4 67 -30 35z"/>
<path d="M1683 174 c-10 -26 13 -40 42 -24 19 10 22 16 14 27 -15 18 -48 17
-56 -3z"/>
<path d="M3264 175 c-13 -32 23 -48 47 -19 10 13 10 17 -2 25 -21 13 -39 11
-45 -6z"/>
<path d="M1819 144 c-10 -12 -9 -18 4 -31 13 -13 19 -14 31 -3 21 17 20 27 -3
39 -14 8 -22 7 -32 -5z"/>
<path d="M3140 145 c-15 -18 -7 -45 13 -45 14 0 44 28 36 33 -2 1 -11 8 -20
15 -13 10 -19 9 -29 -3z"/>
<path d="M3010 115 c-15 -18 -6 -45 14 -45 20 0 29 16 21 40 -8 24 -18 25 -35
5z"/>
<path d="M1943 104 c-3 -9 0 -20 8 -25 17 -11 21 -11 38 0 12 8 12 12 2 25
-17 21 -40 20 -48 0z"/>
<path d="M2080 84 c-11 -12 -11 -18 1 -30 13 -12 18 -12 34 0 16 12 17 16 6
30 -17 20 -25 20 -41 0z"/>
<path d="M2880 85 c-19 -23 5 -48 31 -32 24 15 24 24 0 36 -14 8 -22 7 -31 -4z"/>
<path d="M2743 71 c-9 -14 -9 -21 0 -30 26 -26 55 -4 37 29 -13 25 -22 25 -37
1z"/>
<path d="M2213 69 c-16 -16 -5 -39 17 -39 25 0 35 18 20 35 -15 18 -22 19 -37
4z"/>
<path d="M2347 63 c-11 -11 -8 -40 6 -51 19 -16 43 24 26 44 -13 15 -22 18
-32 7z"/>
<path d="M2613 59 c-15 -15 -5 -39 16 -39 29 0 43 21 23 36 -21 17 -25 17 -39
3z"/>
<path d="M2470 51 c0 -37 32 -55 44 -25 10 27 7 34 -19 34 -14 0 -25 -4 -25
-9z"/>
</g>
</svg>
