<?xml version="1.0" standalone="no"?>
<!DOCTYPE svg PUBLIC "-//W3C//DTD SVG 20010904//EN"
 "http://www.w3.org/TR/2001/REC-SVG-20010904/DTD/svg10.dtd">
<svg version="1.0" xmlns="http://www.w3.org/2000/svg"
 width="498.000000pt" height="500.000000pt" viewBox="0 0 498.000000 500.000000"
 preserveAspectRatio="xMidYMid meet">
<metadata>
Created by potrace 1.15, written by Peter Selinger 2001-2017
</metadata>
<g transform="translate(0.000000,500.000000) scale(0.100000,-0.100000)"
fill="#000000" stroke="none">
<path d="M2470 4975 c-10 -12 -10 -18 0 -30 15 -18 20 -18 44 0 20 15 20 15 0
30 -24 18 -29 18 -44 0z"/>
<path d="M2605 4969 c-9 -28 14 -44 34 -24 12 11 12 17 1 29 -17 22 -27 20
-35 -5z"/>
<path d="M2334 4969 c-3 -6 0 -18 9 -26 12 -12 18 -13 35 -2 16 10 18 16 10
26 -13 16 -44 17 -54 2z"/>
<path d="M2082 4958 c-15 -15 -15 -45 -1 -54 6 -3 18 0 26 9 14 13 14 18 1 36
-11 16 -17 18 -26 9z"/>
<path d="M2205 4960 c-7 -11 11 -40 24 -40 3 0 12 4 20 9 12 8 12 12 2 25 -15
18 -37 21 -46 6z"/>
<path d="M2740 4955 c-10 -12 -10 -18 0 -31 12 -13 15 -13 28 0 15 15 10 46
-6 46 -5 0 -15 -7 -22 -15z"/>
<path d="M2871 4941 c-14 -26 12 -50 34 -31 20 17 19 27 -5 40 -15 8 -21 6
-29 -9z"/>
<path d="M1941 4917 c-8 -10 -7 -19 4 -33 13 -18 15 -18 31 -2 14 14 15 20 4
32 -15 19 -24 20 -39 3z"/>
<path d="M3002 4918 c-8 -8 -9 -15 -1 -25 15 -17 34 -17 48 1 10 12 8 17 -8
25 -24 14 -24 14 -39 -1z"/>
<path d="M1822 4888 c-16 -16 -15 -33 2 -47 22 -18 44 25 24 45 -11 11 -16 12
-26 2z"/>
<path d="M3130 4885 c-23 -28 21 -50 48 -23 9 9 7 14 -6 24 -22 17 -27 17 -42
-1z"/>
<path d="M1691 4850 c-19 -11 -4 -52 17 -48 10 2 18 13 20 24 3 23 -17 37 -37
24z"/>
<path d="M3259 4844 c-10 -12 -9 -18 5 -32 15 -15 18 -15 26 -2 5 8 10 20 10
26 0 19 -28 24 -41 8z"/>
<path d="M1560 4793 c0 -10 5 -25 10 -33 9 -13 12 -13 25 3 7 11 11 25 8 33
-8 20 -43 18 -43 -3z"/>
<path d="M3380 4790 c0 -26 25 -36 45 -20 12 10 13 16 4 26 -18 22 -49 17 -49
-6z"/>
<path d="M3505 4750 c-8 -24 1 -40 21 -40 20 0 29 27 14 45 -17 20 -27 19 -35
-5z"/>
<path d="M1440 4744 c-11 -12 -10 -18 4 -32 16 -16 18 -16 31 2 11 14 12 23 4
33 -15 17 -24 16 -39 -3z"/>
<path d="M3625 4690 c-8 -24 1 -40 21 -40 20 0 29 27 14 45 -17 20 -27 19 -35
-5z"/>
<path d="M1322 4688 c-8 -8 -9 -15 -1 -25 15 -17 34 -17 48 1 10 12 8 17 -8
25 -24 14 -24 14 -39 -1z"/>
<path d="M1200 4613 c0 -10 5 -25 10 -33 9 -13 12 -12 25 5 19 24 15 39 -13
43 -16 2 -22 -2 -22 -15z"/>
<path d="M3737 4618 c-2 -7 0 -21 5 -31 9 -18 11 -18 28 -2 10 9 16 23 13 31
-6 17 -40 18 -46 2z"/>
<path d="M2850 4570 c0 -21 8 -24 34 -14 13 5 14 9 5 20 -17 21 -39 17 -39 -6z"/>
<path d="M1610 4570 c0 -5 6 -10 14 -10 26 0 26 -16 1 -128 -14 -61 -25 -113
-25 -116 0 -3 -9 -6 -20 -6 -11 0 -20 -4 -20 -10 0 -5 23 -10 50 -10 53 0 60
5 34 25 -15 10 -15 18 1 96 9 46 20 90 24 97 5 9 27 -29 61 -102 39 -85 58
-116 72 -116 10 0 20 9 23 23 3 12 15 69 28 127 18 87 26 107 45 115 37 16 25
25 -35 25 -58 -1 -58 -1 -36 -19 21 -18 21 -20 8 -87 -23 -108 -26 -117 -34
-108 -5 5 -25 47 -46 94 -20 47 -44 93 -52 103 -17 18 -93 25 -93 7z"/>
<path d="M1091 4547 c-9 -11 -8 -17 3 -26 18 -15 48 -3 44 18 -4 21 -32 26
-47 8z"/>
<path d="M3847 4546 c-3 -8 0 -19 7 -25 18 -15 48 -3 44 18 -4 21 -44 27 -51
7z"/>
<path d="M2675 4510 c-29 -29 -35 -40 -22 -40 21 0 21 -1 2 -91 -9 -40 -13
-79 -11 -86 6 -14 34 -17 60 -7 24 9 19 26 -5 19 -19 -6 -21 -4 -16 16 3 13
11 50 17 81 9 48 15 59 36 64 30 8 32 24 3 24 -19 0 -21 4 -15 30 7 39 -1 37
-49 -10z"/>
<path d="M3217 4512 c-28 -29 -35 -41 -24 -45 11 -4 11 -16 -2 -79 -8 -41 -12
-82 -8 -91 8 -22 50 -22 68 0 13 15 12 16 -8 11 -27 -7 -29 4 -12 84 13 61 24
78 50 78 11 0 19 5 19 10 0 6 -9 10 -19 10 -15 0 -21 8 -23 31 l-3 30 -38 -39z"/>
<path d="M1990 4474 c-61 -52 -80 -134 -39 -175 17 -17 30 -20 66 -16 25 3 52
13 62 22 15 17 15 17 -4 11 -55 -20 -73 -19 -90 7 -21 33 -15 42 43 61 62 21
92 42 92 66 0 53 -78 67 -130 24z m80 -17 c0 -28 -25 -53 -62 -62 -35 -9 -36
3 -5 50 27 42 67 49 67 12z"/>
<path d="M2196 4470 c-54 -48 -71 -133 -35 -177 15 -17 50 -17 75 2 28 21 35
18 28 -12 -16 -68 -57 -92 -96 -56 -17 15 -20 15 -28 3 -14 -22 -12 -27 13
-34 60 -16 114 1 137 43 11 22 50 196 50 227 0 46 -93 48 -144 4z m101 -35
c-9 -61 -30 -98 -63 -114 -25 -11 -30 -10 -41 5 -17 23 -16 36 4 81 26 56 43
73 76 73 30 0 30 0 24 -45z"/>
<path d="M2452 4486 c-38 -21 -62 -66 -62 -118 0 -68 36 -97 105 -84 81 16
125 157 62 201 -26 18 -74 19 -105 1z m78 -21 c18 -22 8 -120 -15 -145 -20
-22 -55 -26 -73 -8 -18 18 -14 77 8 126 15 33 24 42 43 42 14 0 30 -7 37 -15z"/>
<path d="M2988 4485 c-40 -22 -68 -75 -68 -128 0 -69 47 -101 90 -62 16 14 20
14 47 -1 30 -18 63 -14 63 7 0 6 -7 9 -15 5 -20 -7 -19 17 2 101 15 63 15 67
-2 79 -24 18 -83 17 -117 -1z m87 -15 c12 -20 -24 -118 -51 -139 -34 -27 -40
-26 -59 3 -15 23 -15 28 9 75 14 27 34 54 43 60 23 13 50 14 58 1z"/>
<path d="M3388 4485 c-63 -35 -90 -143 -47 -186 17 -17 30 -20 66 -16 25 3 52
13 62 22 15 17 14 17 -9 11 -58 -17 -67 -17 -84 -1 -28 28 -15 47 53 74 71 29
90 54 65 90 -18 25 -65 28 -106 6z m72 -21 c0 -28 -19 -52 -51 -63 -40 -14
-45 -9 -29 30 18 41 80 68 80 33z"/>
<path d="M3962 4479 c-15 -24 0 -51 24 -42 18 6 18 37 1 51 -10 8 -16 6 -25
-9z"/>
<path d="M2795 4480 c-3 -5 1 -10 9 -10 20 0 20 0 0 -86 -10 -39 -14 -79 -11
-88 8 -20 50 -21 67 -1 10 12 9 15 -8 15 -20 0 -20 1 -6 63 30 126 31 117 -9
117 -20 0 -39 -4 -42 -10z"/>
<path d="M983 4464 c-9 -24 11 -38 36 -25 25 14 27 27 5 35 -25 9 -34 7 -41
-10z"/>
<path d="M882 4387 c-16 -19 2 -40 27 -32 25 8 28 30 5 39 -21 8 -20 8 -32 -7z"/>
<path d="M4061 4387 c-9 -11 -8 -17 3 -26 18 -15 48 -3 44 18 -4 21 -32 26
-47 8z"/>
<path d="M783 4294 c-9 -24 11 -38 37 -24 17 9 19 14 9 26 -15 19 -38 18 -46
-2z"/>
<path d="M4157 4296 c-9 -23 18 -39 43 -26 17 9 19 14 9 26 -15 18 -45 18 -52
0z"/>
<path d="M690 4205 c-17 -21 6 -61 26 -44 18 15 18 45 0 52 -8 3 -20 0 -26 -8z"/>
<path d="M4250 4205 c-15 -18 -5 -35 20 -35 10 0 22 5 25 10 7 11 -12 40 -25
40 -4 0 -13 -7 -20 -15z"/>
<path d="M600 4115 c-15 -18 -6 -45 14 -45 20 0 29 16 21 40 -8 24 -18 25 -35
5z"/>
<path d="M4344 4105 c-12 -29 15 -45 45 -26 12 8 12 12 2 25 -17 20 -40 21
-47 1z"/>
<path d="M1440 4074 c-73 -32 -110 -92 -110 -180 0 -50 3 -59 33 -89 43 -43
102 -54 154 -28 57 28 54 45 -5 26 -42 -14 -55 -14 -80 -4 -96 40 -45 246 65
267 41 8 63 -8 63 -47 0 -35 25 -40 34 -6 13 49 7 64 -25 71 -49 10 -91 6
-129 -10z"/>
<path d="M3163 4075 c-11 -8 -28 -32 -36 -53 -10 -24 -25 -42 -39 -47 l-23 -8
24 -4 c26 -5 26 -14 -5 -151 -19 -83 -40 -115 -59 -88 -18 24 -35 19 -35 -9 0
-22 4 -25 40 -25 52 0 76 27 90 99 32 156 35 166 55 169 33 6 42 22 12 22 -35
0 -36 28 -3 67 l25 28 16 -23 c18 -25 35 -21 35 8 0 31 -60 41 -97 15z"/>
<path d="M2850 4005 c-28 -29 -32 -38 -20 -45 13 -8 12 -19 -2 -85 -13 -66
-14 -78 -1 -91 16 -16 24 -17 47 -8 22 8 20 24 -3 24 -17 0 -17 3 -3 76 10 51
20 77 31 81 44 14 46 16 21 22 -20 6 -24 12 -22 34 5 36 -7 34 -48 -8z"/>
<path d="M4430 4010 c-13 -25 3 -52 26 -43 18 7 18 37 0 52 -12 10 -17 8 -26
-9z"/>
<path d="M523 4013 c-7 -3 -13 -13 -13 -23 0 -10 6 -20 13 -23 14 -5 47 10 47
21 0 12 -34 29 -47 25z"/>
<path d="M1689 3982 c-48 -25 -72 -63 -73 -117 -1 -40 3 -50 28 -72 38 -32 87
-26 130 16 23 24 30 40 33 83 5 62 -7 84 -54 97 -24 7 -40 5 -64 -7z m65 -24
c43 -60 -10 -187 -68 -165 -32 13 -40 52 -22 109 25 77 60 99 90 56z"/>
<path d="M2435 3993 c-32 -8 -74 -42 -90 -73 -17 -33 -20 -93 -5 -120 14 -27
69 -35 113 -16 51 21 47 37 -5 19 -39 -13 -43 -13 -62 7 -29 28 -15 46 59 76
75 31 90 51 63 86 -15 19 -45 27 -73 21z m35 -41 c0 -31 -23 -52 -65 -59 -33
-5 -38 -4 -29 8 5 8 18 26 27 42 21 32 67 39 67 9z"/>
<path d="M2694 3990 c-12 -5 -33 -23 -48 -42 l-27 -33 6 36 7 35 -36 -4 c-36
-4 -61 -22 -32 -22 18 0 20 -27 7 -80 -21 -81 -21 -100 -3 -100 11 0 26 22 45
63 64 143 110 156 81 23 -15 -67 -15 -79 -3 -87 20 -12 32 -11 55 6 19 14 18
14 -3 15 -27 0 -27 -1 -8 70 26 98 12 140 -41 120z"/>
<path d="M1905 3983 c-37 -6 -58 -23 -27 -23 18 0 21 -4 17 -22 -30 -134 -32
-158 -10 -158 9 0 17 6 19 13 21 74 34 102 61 132 57 62 67 43 39 -71 -14 -56
-15 -67 -3 -75 20 -12 32 -11 55 6 18 14 18 14 -4 15 -17 0 -22 4 -18 18 22
75 35 143 30 156 -11 29 -63 20 -98 -19 l-32 -34 4 34 c2 19 3 34 1 34 -2 -1
-17 -4 -34 -6z"/>
<path d="M2160 3970 c-27 -27 -25 -56 6 -77 15 -10 38 -28 51 -41 24 -22 24
-24 7 -43 -22 -25 -48 -24 -73 3 -19 19 -21 20 -27 4 -9 -23 5 -36 49 -43 42
-6 83 15 96 50 12 30 -2 52 -49 82 -46 29 -51 51 -15 67 22 10 29 8 49 -11 21
-20 24 -21 30 -5 9 23 -10 34 -61 34 -30 0 -49 -6 -63 -20z"/>
<path d="M3265 3956 c-52 -55 -55 -129 -7 -166 49 -39 119 -13 153 56 39 82 7
144 -75 144 -31 0 -45 -7 -71 -34z m97 7 c22 -20 24 -79 4 -128 -17 -40 -59
-57 -83 -32 -27 27 -14 117 24 159 20 22 31 23 55 1z"/>
<path d="M3510 3983 c-31 -6 -51 -23 -27 -23 20 0 21 -15 2 -100 -18 -83 -18
-80 4 -80 15 0 21 10 26 40 6 36 53 115 79 132 6 4 16 2 23 -4 16 -13 18 -11
27 20 11 34 -26 29 -70 -10 l-37 -32 8 32 c3 18 3 31 -2 31 -4 -1 -19 -4 -33
-6z"/>
<path d="M440 3895 c-17 -21 6 -61 26 -44 18 15 18 45 0 52 -8 3 -20 0 -26 -8z"/>
<path d="M4510 3894 c-11 -12 -11 -18 1 -29 12 -12 17 -12 33 0 16 12 17 17 6
30 -16 19 -24 19 -40 -1z"/>
<path d="M372 3788 c-16 -16 -15 -33 2 -47 22 -18 44 25 24 45 -11 11 -16 12
-26 2z"/>
<path d="M4581 3787 c-14 -17 -4 -47 15 -47 22 0 29 29 12 46 -13 13 -16 13
-27 1z"/>
<path d="M4645 3670 c-7 -23 1 -40 20 -40 18 0 24 21 13 43 -12 23 -25 22 -33
-3z"/>
<path d="M300 3665 c-23 -28 21 -50 48 -23 9 9 7 14 -6 24 -22 17 -27 17 -42
-1z"/>
<path d="M2550 3567 c-24 -7 -29 -12 -17 -14 22 -6 21 -16 -7 -147 -13 -60
-22 -115 -19 -123 7 -17 65 -14 70 4 3 7 -3 9 -17 6 -18 -5 -20 -2 -15 18 15
66 55 253 55 261 0 10 -5 9 -50 -5z"/>
<path d="M1037 3563 c-13 -12 -7 -23 12 -23 18 0 18 -4 -6 -112 -20 -95 -28
-117 -51 -135 l-27 -23 57 0 c61 0 88 7 88 22 0 6 -7 7 -15 4 -27 -10 -29 23
-6 127 18 83 27 106 49 124 l27 23 -61 0 c-33 0 -64 -3 -67 -7z"/>
<path d="M2790 3560 c-8 -5 -10 -10 -5 -10 34 -1 36 -16 15 -116 -28 -132 -28
-132 -51 -139 -10 -4 -19 -11 -19 -17 0 -14 225 -7 240 8 6 6 13 27 17 47 7
44 -12 51 -28 10 -6 -15 -16 -31 -22 -35 -13 -8 -117 -11 -117 -3 0 2 5 27 11
55 9 43 14 50 35 50 15 0 24 -6 24 -15 0 -20 17 -19 28 3 14 27 22 92 11 92
-5 0 -14 -11 -19 -25 -7 -18 -17 -25 -35 -25 -28 0 -30 9 -15 59 11 40 24 51
62 51 44 0 58 -10 58 -41 0 -16 4 -29 10 -29 8 0 30 60 30 83 0 11 -213 8
-230 -3z"/>
<path d="M4702 3553 c-12 -24 -4 -43 18 -43 24 0 33 26 14 45 -19 19 -21 19
-32 -2z"/>
<path d="M240 3544 c-11 -12 -10 -18 3 -32 16 -15 18 -15 34 0 13 14 14 20 3
32 -7 9 -16 16 -20 16 -4 0 -13 -7 -20 -16z"/>
<path d="M1492 3522 c-7 -13 -27 -32 -45 -42 -29 -18 -30 -20 -11 -27 20 -8
20 -11 8 -68 -20 -95 -18 -115 10 -115 31 0 56 10 56 22 0 5 -10 6 -21 3 -21
-7 -22 -5 -15 36 14 92 25 117 54 127 26 9 26 9 5 16 -15 5 -23 16 -25 39 -3
32 -3 32 -16 9z"/>
<path d="M1278 3450 l-40 -40 6 35 c7 38 0 41 -54 26 -24 -7 -24 -8 -6 -18 18
-10 18 -15 7 -74 -7 -35 -15 -74 -18 -86 -4 -18 -1 -23 14 -23 14 0 22 12 31
46 14 53 67 134 87 134 24 0 26 -17 10 -79 -23 -91 -21 -103 17 -99 17 2 33 9
36 16 2 8 -2 10 -14 5 -14 -5 -16 -2 -12 18 3 13 11 52 18 86 11 51 11 64 1
77 -21 25 -40 19 -83 -24z"/>
<path d="M1650 3472 c-96 -48 -111 -202 -19 -202 37 0 99 20 99 32 0 6 -7 7
-17 3 -10 -5 -33 -10 -50 -13 -27 -3 -34 0 -44 22 -15 33 -9 39 58 61 47 15
83 44 83 67 0 15 -40 48 -57 48 -10 0 -34 -8 -53 -18z m56 -45 c-4 -18 -17
-29 -42 -37 -19 -7 -38 -9 -42 -6 -10 10 24 60 49 73 29 15 44 3 35 -30z"/>
<path d="M2104 3455 c-18 -19 -34 -35 -37 -35 -2 0 -2 14 1 30 4 25 1 30 -16
30 -27 0 -52 -10 -52 -21 0 -5 7 -9 15 -9 11 0 14 -7 10 -22 -30 -132 -31
-158 -11 -158 9 0 21 21 30 53 16 55 68 127 92 127 18 0 18 -19 -1 -99 -9 -39
-12 -68 -7 -73 13 -13 65 -6 69 9 3 7 -4 9 -18 6 -17 -5 -20 -2 -16 13 29 96
37 146 27 164 -16 30 -49 24 -86 -15z"/>
<path d="M2323 3476 c-87 -39 -109 -195 -30 -204 17 -2 37 4 48 14 18 16 20
16 38 0 21 -19 62 -18 68 1 3 7 -3 9 -16 6 -21 -5 -20 3 15 143 11 42 -65 66
-123 40z m80 -18 c2 -7 -2 -35 -9 -62 -22 -83 -82 -124 -105 -72 -9 19 -6 32
15 74 14 28 34 55 43 61 25 14 50 13 56 -1z"/>
<path d="M3365 3475 c-64 -34 -96 -110 -71 -170 12 -28 20 -35 43 -35 15 0 37
7 47 15 17 13 22 13 37 -1 20 -18 60 -16 67 4 2 7 -2 10 -12 6 -21 -8 -21 18
0 102 11 44 13 69 7 75 -19 19 -86 21 -118 4z m79 -20 c3 -8 -1 -35 -9 -61
-25 -83 -83 -121 -106 -70 -10 20 -7 33 17 77 26 48 43 61 85 68 4 1 9 -6 13
-14z"/>
<path d="M3644 3453 l-34 -37 6 34 c6 29 5 32 -10 27 -10 -4 -30 -7 -44 -7
-25 -1 -26 -2 -9 -14 17 -13 17 -18 3 -96 -19 -98 -19 -90 -3 -90 6 0 30 37
52 81 37 75 68 110 83 94 3 -3 1 -37 -6 -76 -7 -38 -12 -76 -12 -84 0 -26 29
-16 36 13 9 45 36 101 60 127 38 42 48 33 40 -37 -14 -115 -14 -113 18 -116
16 -2 33 1 39 7 8 8 5 11 -12 11 -16 0 -21 5 -18 18 3 9 11 47 17 85 10 53 10
70 0 82 -23 28 -59 15 -93 -35 l-17 -24 0 26 c0 26 -23 48 -50 48 -7 0 -28
-17 -46 -37z"/>
<path d="M3968 3475 c-15 -8 -29 -24 -33 -34 -7 -23 13 -59 37 -67 23 -7 59
-54 52 -66 -9 -14 -52 -28 -69 -22 -8 4 -15 13 -15 21 0 8 -6 13 -12 11 -7 -3
-13 -13 -13 -24 0 -16 9 -19 54 -22 44 -3 58 1 77 19 31 29 31 63 -2 86 -14
10 -37 28 -52 41 -26 22 -27 22 -8 37 28 21 57 19 63 -5 7 -26 20 -26 28 1 9
26 7 27 -40 34 -26 3 -49 0 -67 -10z"/>
<path d="M1815 3470 c-27 -7 -28 -8 -9 -15 21 -7 21 -7 4 -92 -16 -74 -16 -85
-3 -90 17 -7 33 13 33 42 0 27 57 124 76 132 9 3 20 0 25 -8 8 -12 11 -12 19
1 32 49 -24 55 -70 8 l-30 -33 6 33 c7 35 4 36 -51 22z"/>
<path d="M3070 3475 c0 -2 11 -21 25 -41 14 -20 25 -42 25 -48 0 -6 -20 -31
-45 -54 -52 -49 -56 -62 -17 -62 34 0 45 9 32 25 -7 8 -2 19 15 35 14 13 26
22 28 19 1 -2 10 -21 20 -41 18 -41 53 -52 77 -23 11 13 9 15 -10 13 -18 -2
-25 5 -36 36 l-14 39 45 48 c25 27 45 51 45 54 0 9 -44 5 -60 -5 -12 -8 -13
-12 -1 -19 10 -7 8 -12 -10 -25 -32 -22 -36 -21 -49 19 -10 29 -16 35 -41 35
-16 0 -29 -2 -29 -5z"/>
<path d="M190 3425 c-15 -18 -5 -35 20 -35 10 0 22 5 25 10 7 11 -12 40 -25
40 -4 0 -13 -7 -20 -15z"/>
<path d="M4761 3430 c-21 -12 -5 -42 21 -38 12 2 23 8 25 15 6 16 -30 34 -46
23z"/>
<path d="M137 3298 c-5 -16 10 -48 23 -48 5 0 14 10 21 21 9 17 8 23 -2 30
-20 12 -37 11 -42 -3z"/>
<path d="M4804 3296 c-8 -22 3 -49 19 -43 6 2 12 14 12 27 0 27 -22 39 -31 16z"/>
<path d="M103 3164 c-9 -24 11 -38 36 -25 25 14 27 27 5 35 -25 9 -34 7 -41
-10z"/>
<path d="M4837 3166 c-3 -8 1 -20 9 -27 12 -10 18 -9 31 3 8 9 12 21 9 27 -10
16 -43 14 -49 -3z"/>
<path d="M77 3053 c-10 -10 -8 -41 3 -48 5 -3 18 0 29 7 19 11 19 14 4 30 -17
19 -26 22 -36 11z"/>
<path d="M4877 3053 c-11 -10 -8 -41 5 -49 17 -11 40 26 27 43 -13 14 -22 16
-32 6z"/>
<path d="M3264 2940 c-95 -14 -155 -40 -205 -90 -63 -63 -89 -118 -101 -208
-13 -110 -53 -189 -138 -273 -42 -42 -68 -75 -64 -82 4 -7 19 -28 34 -47 42
-55 60 -96 60 -139 l0 -41 111 7 111 6 -21 -41 c-12 -24 -38 -53 -61 -67 -22
-14 -40 -32 -40 -40 0 -17 93 -143 123 -167 12 -10 35 -18 50 -18 30 0 115 40
187 89 25 17 50 31 57 31 23 0 34 -74 22 -152 -14 -91 -18 -100 -90 -171 -111
-111 -159 -232 -159 -404 l0 -92 -42 -11 c-81 -20 -123 -45 -189 -110 -77 -76
-106 -131 -122 -232 l-12 -73 -124 -64 -124 -63 -91 46 c-50 26 -113 51 -141
56 -73 13 -306 -6 -467 -37 -173 -34 -168 -37 -168 103 0 89 -21 293 -61 587
-6 44 -9 81 -7 83 9 8 108 -68 108 -82 0 -9 -7 -41 -16 -72 -19 -66 -15 -162
10 -210 9 -17 30 -48 47 -67 28 -31 31 -40 25 -75 -7 -48 6 -86 34 -95 50 -16
170 80 170 137 0 37 -19 48 -81 48 -57 0 -58 0 -92 48 -53 71 -55 91 -17 173
47 103 42 133 -61 352 -91 195 -90 193 -29 235 52 35 102 44 200 36 106 -8
121 -1 156 68 15 29 37 68 50 88 27 40 84 211 84 251 0 14 13 51 29 81 35 64
36 62 -53 129 -73 54 -107 100 -142 191 -47 125 -174 236 -290 254 -25 4 -65
0 -102 -10 -169 -43 -271 -146 -317 -321 -22 -80 -32 -310 -16 -358 16 -49 86
-83 201 -99 47 -6 89 -15 93 -19 13 -11 -70 -135 -114 -170 l-39 -31 0 46 c0
54 -17 67 -55 42 -19 -13 -25 -25 -25 -54 0 -48 -5 -54 -65 -85 -199 -100
-297 -306 -297 -622 0 -262 52 -457 170 -639 47 -72 54 -75 176 -76 l110 0 48
-52 c44 -46 55 -52 114 -64 58 -11 76 -9 182 13 109 23 214 54 289 84 27 11
43 10 120 -9 104 -26 189 -28 261 -7 48 15 53 14 89 -5 59 -31 116 -26 266 25
143 48 177 52 277 30 86 -19 262 -18 380 1 52 9 136 18 185 21 115 7 138 19
173 91 86 171 142 400 142 577 0 92 -33 242 -67 310 -9 17 -64 80 -122 140
-138 142 -177 221 -196 400 l-8 68 57 111 c85 165 105 295 70 449 -23 101 -52
153 -127 225 -100 95 -193 129 -313 112z m-51 -291 c21 -5 58 -29 82 -52 53
-51 63 -93 44 -180 -8 -34 -14 -66 -14 -71 0 -4 19 -9 43 -10 45 -2 83 -25
116 -70 18 -23 21 -42 21 -127 0 -70 4 -100 13 -104 6 -2 12 -19 12 -38 0 -53
27 -140 75 -243 25 -53 45 -99 45 -102 0 -2 -33 -1 -73 2 -54 6 -84 3 -116 -8
l-44 -15 7 82 c7 89 -11 180 -39 191 -8 3 -56 -23 -112 -59 -58 -39 -108 -65
-124 -65 -35 0 -85 36 -122 87 l-30 42 52 69 c79 108 71 122 -71 122 -86 0
-114 15 -104 56 7 27 -13 83 -37 103 -25 20 -21 35 29 103 25 35 65 101 89
148 45 88 72 122 115 139 33 13 96 13 143 0z m-1235 -115 c12 -8 32 -34 43
-57 33 -66 64 -101 128 -150 52 -39 58 -47 45 -58 -28 -23 -54 -87 -54 -133 0
-64 -18 -78 -92 -74 -49 3 -58 0 -58 -14 0 -23 30 -38 74 -38 31 0 36 -3 36
-24 0 -14 -5 -28 -10 -31 -6 -3 -28 -40 -51 -80 -22 -41 -48 -77 -58 -80 -11
-3 -38 -1 -62 4 -24 6 -66 11 -94 11 -94 0 -203 -71 -257 -168 l-32 -55 -45
92 -46 92 42 39 c42 38 116 144 128 181 4 12 22 23 52 30 24 7 47 18 50 25 2
7 -10 32 -29 55 -28 35 -33 49 -33 93 0 72 30 130 70 134 45 5 50 15 35 76
-17 72 -8 101 38 125 47 25 147 28 180 5z m-563 -744 c28 -90 182 -381 220
-417 36 -34 72 -43 81 -20 3 8 -20 71 -51 142 -31 70 -54 130 -51 132 14 14
129 -230 146 -310 12 -62 5 -123 -25 -193 -29 -71 -13 -127 61 -213 37 -42 39
-43 86 -38 42 5 48 4 48 -13 0 -20 -89 -100 -113 -100 -21 0 -29 41 -12 60 21
23 20 26 -31 84 -78 86 -90 137 -54 239 29 83 19 110 -77 205 -66 65 -91 100
-158 221 -85 155 -120 241 -109 273 8 27 18 14 39 -52z m220 -300 c21 -50 36
-92 34 -94 -7 -8 -79 120 -85 152 -12 61 13 32 51 -58z m2011 -15 c101 -107
133 -443 75 -783 -15 -89 -32 -167 -38 -173 -19 -19 -157 -49 -278 -60 -144
-14 -301 -6 -367 18 -56 20 -71 17 -263 -41 -66 -20 -124 -36 -129 -36 -20 0
7 16 51 30 48 15 70 40 36 40 -11 0 -53 -11 -93 -25 -79 -27 -100 -30 -100
-16 0 5 41 24 90 42 50 17 90 36 90 41 0 19 -28 18 -75 -2 -75 -32 -66 -14 11
21 150 68 320 115 507 139 69 10 110 9 188 -1 76 -9 102 -10 111 -1 9 9 6 40
-13 129 -21 102 -24 145 -24 318 0 195 1 201 26 256 15 31 43 75 64 98 49 54
84 55 131 6z m-2097 -224 c10 -6 4 -11 -20 -19 -61 -19 -102 -25 -224 -31
l-120 -6 -5 -75 c-6 -84 -15 -69 -25 42 l-5 66 87 7 c49 3 126 10 173 14 120
12 123 12 139 2z m25 -228 c9 -42 34 -285 42 -406 8 -126 14 -134 88 -112 105
32 299 54 496 56 118 2 129 0 188 -26 34 -15 67 -34 73 -41 17 -21 -1 -18 -75
12 -35 14 -77 24 -93 22 -23 -2 -10 -10 69 -43 53 -22 98 -44 100 -50 6 -20
-41 -16 -116 9 -80 27 -106 31 -106 18 0 -5 28 -18 63 -29 l62 -21 -65 -1
c-42 -1 -88 6 -131 20 l-67 22 -83 -36 c-181 -76 -409 -107 -459 -62 -27 24
-180 234 -239 329 -44 71 -131 274 -131 307 0 10 6 19 13 20 6 0 86 8 177 18
91 10 170 19 177 20 6 0 14 -11 17 -26z"/>
<path d="M3013 2533 c-27 -10 -10 -21 45 -27 31 -4 65 -9 75 -12 28 -9 19 14
-13 31 -28 14 -82 19 -107 8z"/>
<path d="M2960 2440 c-23 -23 -25 -51 -9 -83 27 -50 63 -49 120 2 l44 38 -50
32 c-57 36 -78 38 -105 11z m73 -24 c9 -7 17 -16 17 -20 0 -12 -18 -6 -41 14
-28 22 -6 28 24 6z"/>
<path d="M1898 2470 c-17 -17 -28 -33 -25 -36 7 -7 107 48 107 59 0 19 -54 4
-82 -23z"/>
<path d="M1933 2419 c-17 -11 -39 -32 -48 -46 -17 -25 -17 -26 1 -18 43 17 52
17 59 -4 9 -30 38 -43 69 -31 22 8 26 16 26 49 0 69 -45 90 -107 50z m84 -24
c9 -25 -2 -27 -22 -5 -17 18 -17 20 -1 20 9 0 19 -7 23 -15z"/>
<path d="M43 2904 c-3 -8 1 -22 9 -30 13 -13 16 -13 27 0 7 9 11 23 7 31 -7
20 -35 19 -43 -1z"/>
<path d="M4897 2913 c-12 -12 -7 -31 10 -37 19 -8 48 17 39 33 -8 12 -39 15
-49 4z"/>
<path d="M2205 2888 c-36 -20 -75 -61 -75 -81 0 -32 20 -57 45 -57 22 0 25 4
25 35 0 22 8 43 20 55 23 23 30 24 64 8 47 -21 46 -72 -3 -101 -37 -21 -58
-69 -43 -100 10 -21 10 -21 17 -2 13 39 22 50 59 70 47 25 60 48 53 93 -9 53
-52 92 -101 92 -23 0 -50 -6 -61 -12z"/>
<path d="M30 2775 c-11 -13 -11 -19 4 -33 15 -15 18 -15 26 -2 22 33 -6 64
-30 35z"/>
<path d="M4917 2783 c-24 -23 12 -55 38 -33 12 10 13 16 4 26 -12 15 -31 18
-42 7z"/>
<path d="M20 2655 c-15 -18 -6 -45 14 -45 20 0 29 16 21 40 -8 24 -18 25 -35
5z"/>
<path d="M4931 2656 c-16 -19 -7 -46 14 -46 22 0 30 29 13 46 -13 13 -16 13
-27 0z"/>
<path d="M2240 2560 c-6 -11 -8 -25 -5 -30 9 -15 41 -12 55 5 11 13 10 18 -6
30 -25 19 -31 19 -44 -5z"/>
<path d="M4 2509 c-3 -6 -2 -15 4 -21 15 -15 46 -5 50 15 3 12 -3 17 -22 17
-14 0 -28 -5 -32 -11z"/>
<path d="M4925 2510 c-7 -11 12 -50 24 -50 10 0 21 24 21 46 0 16 -36 19 -45
4z"/>
<path d="M4930 2385 c-15 -18 -6 -45 14 -45 20 0 29 16 21 40 -8 24 -18 25
-35 5z"/>
<path d="M17 2383 c-24 -24 12 -50 44 -32 16 8 18 13 8 25 -12 15 -41 19 -52
7z"/>
<path d="M4915 2250 c-8 -24 1 -40 21 -40 20 0 29 27 14 45 -17 20 -27 19 -35
-5z"/>
<path d="M30 2245 c-22 -26 7 -46 39 -26 12 8 12 12 2 25 -17 20 -25 20 -41 1z"/>
<path d="M49 2114 c-15 -18 0 -38 27 -32 25 5 28 25 6 37 -15 8 -23 7 -33 -5z"/>
<path d="M4903 2123 c-17 -6 -16 -25 1 -48 13 -18 14 -18 26 4 10 19 9 26 -2
36 -7 7 -19 11 -25 8z"/>
<path d="M69 1984 c-10 -12 -9 -18 3 -30 13 -13 19 -14 37 -2 27 17 26 22 -3
36 -19 9 -27 8 -37 -4z"/>
<path d="M4877 1993 c-10 -9 -9 -41 2 -47 4 -3 16 1 27 8 15 12 16 16 5 30
-15 17 -24 20 -34 9z"/>
<path d="M104 1855 c-12 -30 16 -45 46 -25 13 9 12 12 -4 25 -25 19 -35 19
-42 0z"/>
<path d="M4841 1856 c-10 -11 -9 -19 1 -35 16 -27 25 -26 33 0 4 13 2 27 -7
36 -13 12 -16 12 -27 -1z"/>
<path d="M143 1729 c-15 -15 -5 -39 17 -39 26 0 43 23 28 38 -15 15 -31 15
-45 1z"/>
<path d="M4804 1726 c-8 -22 3 -49 19 -43 6 2 12 14 12 27 0 27 -22 39 -31 16z"/>
<path d="M190 1605 c-10 -12 -10 -18 0 -29 16 -20 42 -8 38 17 -4 26 -21 32
-38 12z"/>
<path d="M4754 1599 c-3 -6 1 -18 10 -27 15 -15 17 -15 34 1 15 16 15 19 2 27
-20 13 -37 12 -46 -1z"/>
<path d="M240 1484 c-11 -12 -10 -18 3 -31 22 -23 52 0 36 28 -12 23 -22 24
-39 3z"/>
<path d="M4705 1480 c-8 -12 3 -50 14 -50 5 0 14 7 21 15 10 12 10 18 0 30
-14 17 -26 19 -35 5z"/>
<path d="M300 1365 c-11 -13 -11 -19 3 -33 20 -19 41 -5 35 24 -4 24 -22 28
-38 9z"/>
<path d="M4647 1373 c-11 -10 -8 -41 4 -49 6 -3 18 1 27 9 13 13 13 19 2 31
-14 17 -23 20 -33 9z"/>
<path d="M4580 1255 c-15 -18 -6 -45 14 -45 20 0 29 16 21 40 -8 24 -18 25
-35 5z"/>
<path d="M372 1248 c-28 -28 0 -56 32 -32 16 11 17 16 6 29 -15 18 -22 19 -38
3z"/>
<path d="M4510 1135 c-25 -30 10 -61 38 -33 17 17 15 26 -7 37 -14 8 -22 7
-31 -4z"/>
<path d="M434 1129 c-3 -6 1 -18 10 -27 15 -15 17 -15 34 1 15 16 15 19 2 27
-20 13 -37 12 -46 -1z"/>
<path d="M4430 1030 c-14 -26 0 -46 24 -37 20 8 21 31 2 46 -12 10 -17 8 -26
-9z"/>
<path d="M523 1033 c-7 -3 -13 -13 -13 -23 0 -10 6 -20 13 -23 15 -5 47 10 47
23 0 13 -32 28 -47 23z"/>
<path d="M600 925 c-16 -19 -5 -47 17 -43 11 2 18 12 18 27 0 29 -17 37 -35
16z"/>
<path d="M4344 915 c-4 -10 -1 -21 7 -26 20 -12 34 -5 34 17 0 24 -33 31 -41
9z"/>
<path d="M687 816 c-3 -8 1 -20 9 -27 12 -10 18 -9 32 5 15 15 15 18 2 26 -21
14 -37 12 -43 -4z"/>
<path d="M4257 823 c-25 -24 11 -49 40 -28 16 13 16 16 3 25 -17 11 -34 13
-43 3z"/>
<path d="M787 733 c-11 -10 -8 -41 4 -49 6 -3 18 1 27 9 13 13 13 19 2 31 -14
17 -23 20 -33 9z"/>
<path d="M4164 725 c-12 -31 23 -48 45 -21 10 12 8 17 -8 25 -26 14 -31 14
-37 -4z"/>
<path d="M882 637 c-16 -19 11 -58 28 -41 14 14 10 46 -6 51 -6 2 -16 -2 -22
-10z"/>
<path d="M4065 640 c-8 -12 3 -50 14 -50 5 0 14 7 21 15 10 12 10 18 0 30 -14
17 -26 19 -35 5z"/>
<path d="M992 568 c-16 -16 -15 -33 2 -47 21 -18 41 11 26 38 -13 25 -12 25
-28 9z"/>
<path d="M3960 554 c-11 -12 -10 -18 3 -32 16 -15 18 -15 34 0 13 14 14 20 3
32 -7 9 -16 16 -20 16 -4 0 -13 -7 -20 -16z"/>
<path d="M1092 480 c-15 -25 -8 -40 18 -40 25 0 33 15 20 40 -14 25 -22 25
-38 0z"/>
<path d="M3850 475 c-6 -8 -9 -19 -5 -25 8 -13 42 -13 50 0 7 11 -12 40 -25
40 -4 0 -13 -7 -20 -15z"/>
<path d="M3740 404 c-11 -12 -11 -18 1 -29 13 -13 18 -13 37 1 22 15 22 17 5
30 -23 17 -28 17 -43 -2z"/>
<path d="M1201 375 c9 -9 23 -13 32 -9 28 10 19 24 -15 24 -29 0 -31 -2 -17
-15z"/>
<path d="M1314 339 c-3 -6 0 -18 9 -26 12 -12 19 -13 38 -3 22 12 22 13 4 26
-23 17 -41 18 -51 3z"/>
<path d="M3627 343 c-11 -10 -8 -41 4 -49 6 -3 18 1 27 9 13 13 13 19 2 31
-14 17 -23 20 -33 9z"/>
<path d="M1436 281 c-8 -13 4 -41 18 -41 22 0 39 18 33 34 -7 17 -42 22 -51 7z"/>
<path d="M3505 280 c-8 -12 3 -50 14 -50 5 0 14 7 21 15 10 12 10 18 0 30 -14
17 -26 19 -35 5z"/>
<path d="M1564 225 c-7 -18 3 -35 22 -35 20 0 30 30 13 41 -20 12 -29 11 -35
-6z"/>
<path d="M3381 226 c-17 -20 13 -42 41 -29 19 8 20 10 4 26 -21 21 -30 21 -45
3z"/>
<path d="M1684 175 c-13 -32 23 -48 47 -19 10 13 10 17 -2 25 -21 13 -39 11
-45 -6z"/>
<path d="M3256 181 c-9 -14 4 -41 19 -41 7 0 18 7 26 16 10 13 10 17 -2 25
-18 11 -36 11 -43 0z"/>
<path d="M1816 141 c-14 -16 -15 -20 -2 -30 11 -9 20 -10 35 -1 26 13 26 22 2
37 -15 10 -22 9 -35 -6z"/>
<path d="M3125 140 c-3 -5 -1 -19 6 -31 10 -19 12 -20 26 -6 9 9 13 23 10 31
-7 18 -32 21 -42 6z"/>
<path d="M1944 115 c-8 -21 2 -45 20 -45 19 0 29 29 15 46 -15 18 -28 18 -35
-1z"/>
<path d="M3000 110 c-13 -8 -13 -11 1 -25 19 -19 51 -9 47 14 -4 19 -27 25
-48 11z"/>
<path d="M2076 94 c-11 -29 -6 -44 13 -44 27 0 34 15 19 40 -15 24 -24 25 -32
4z"/>
<path d="M2870 90 c-13 -25 2 -52 25 -44 22 9 25 31 5 49 -17 16 -19 15 -30
-5z"/>
<path d="M2211 76 c-16 -19 -7 -46 14 -46 22 0 30 29 13 46 -13 13 -16 13 -27
0z"/>
<path d="M2740 65 c-6 -8 -9 -19 -5 -25 8 -13 42 -13 50 0 7 11 -12 40 -25 40
-4 0 -13 -7 -20 -15z"/>
<path d="M2341 56 c-19 -22 4 -62 25 -45 17 14 15 50 -2 56 -6 2 -16 -3 -23
-11z"/>
<path d="M2604 55 c-12 -29 15 -45 45 -26 12 8 12 12 2 25 -17 20 -40 21 -47
1z"/>
<path d="M2466 51 c-8 -13 20 -45 32 -37 20 12 14 46 -7 46 -11 0 -22 -4 -25
-9z"/>
</g>
</svg>
