<?xml version="1.0" standalone="no"?>
<!DOCTYPE svg PUBLIC "-//W3C//DTD SVG 20010904//EN"
 "http://www.w3.org/TR/2001/REC-SVG-20010904/DTD/svg10.dtd">
<svg version="1.0" xmlns="http://www.w3.org/2000/svg"
 width="500.000000pt" height="500.000000pt" viewBox="0 0 500.000000 500.000000"
 preserveAspectRatio="xMidYMid meet">
<metadata>
Created by potrace 1.15, written by Peter Selinger 2001-2017
</metadata>
<g transform="translate(0.000000,500.000000) scale(0.100000,-0.100000)"
fill="#000000" stroke="none">
<path d="M2350 4970 c-14 -26 0 -46 24 -37 20 8 21 31 2 46 -12 10 -17 8 -26
-9z"/>
<path d="M2480 4974 c-11 -12 -10 -18 3 -31 22 -23 52 0 36 28 -12 23 -22 24
-39 3z"/>
<path d="M2614 4965 c-12 -29 15 -45 45 -26 12 8 12 12 2 25 -17 20 -40 21
-47 1z"/>
<path d="M2214 4955 c-12 -30 16 -45 46 -25 13 9 12 12 -4 25 -25 19 -35 19
-42 0z"/>
<path d="M2752 4958 c-13 -13 2 -38 24 -38 20 0 27 19 14 35 -15 18 -22 19
-38 3z"/>
<path d="M2087 4943 c-4 -3 -7 -15 -7 -25 0 -21 32 -25 49 -5 17 22 -22 50
-42 30z"/>
<path d="M2887 4943 c-11 -10 -8 -41 5 -49 17 -11 40 26 27 43 -13 14 -22 16
-32 6z"/>
<path d="M1945 4910 c-3 -5 -1 -19 5 -30 9 -17 14 -19 26 -9 21 17 18 49 -5
49 -11 0 -23 -4 -26 -10z"/>
<path d="M3005 4910 c-6 -10 15 -50 27 -50 12 0 30 39 23 50 -8 13 -42 13 -50
0z"/>
<path d="M1821 4881 c-16 -28 14 -51 36 -28 13 13 14 19 3 31 -17 21 -27 20
-39 -3z"/>
<path d="M3141 4876 c-18 -21 11 -41 39 -26 17 9 19 14 9 26 -15 18 -33 18
-48 0z"/>
<path d="M1690 4840 c-8 -15 -6 -21 9 -29 26 -14 50 12 31 34 -17 20 -27 19
-40 -5z"/>
<path d="M3264 4835 c-4 -10 -1 -21 7 -26 20 -12 34 -5 34 17 0 24 -33 31 -41
9z"/>
<path d="M1572 4803 c-11 -22 -5 -43 13 -43 19 0 27 17 20 40 -8 25 -21 26
-33 3z"/>
<path d="M3401 4806 c-16 -19 -7 -46 14 -46 22 0 30 29 13 46 -13 13 -16 13
-27 0z"/>
<path d="M1452 4748 c-27 -27 -3 -54 31 -36 22 11 22 25 -1 37 -13 7 -23 6
-30 -1z"/>
<path d="M3519 4744 c-10 -12 -9 -18 4 -31 13 -13 19 -14 31 -3 21 17 20 27
-3 39 -14 8 -22 7 -32 -5z"/>
<path d="M1327 4683 c-25 -24 11 -49 40 -28 16 13 16 16 3 25 -17 11 -34 13
-43 3z"/>
<path d="M3635 4680 c-3 -5 -1 -19 6 -31 10 -19 12 -20 26 -6 9 9 13 23 10 31
-7 18 -32 21 -42 6z"/>
<path d="M1210 4615 c-23 -28 21 -50 48 -23 9 9 7 14 -6 24 -22 17 -27 17 -42
-1z"/>
<path d="M3757 4623 c-11 -10 -8 -41 4 -49 6 -3 18 1 27 9 13 13 13 19 2 31
-14 17 -23 20 -33 9z"/>
<path d="M1099 4544 c-15 -18 0 -38 27 -32 25 5 28 25 6 37 -15 8 -23 7 -33
-5z"/>
<path d="M3869 4544 c-16 -20 2 -38 30 -29 26 8 27 21 2 34 -14 8 -22 7 -32
-5z"/>
<path d="M990 4465 c-22 -26 7 -46 39 -26 12 8 12 12 2 25 -17 20 -25 20 -41
1z"/>
<path d="M3974 4465 c-12 -29 15 -45 45 -26 12 8 12 12 2 25 -17 20 -40 21
-47 1z"/>
<path d="M887 4390 c-26 -38 4 -70 33 -35 9 11 9 19 -3 35 l-15 21 -15 -21z"/>
<path d="M4080 4390 c-14 -26 0 -46 24 -37 20 8 21 31 2 46 -12 10 -17 8 -26
-9z"/>
<path d="M792 4308 c-16 -16 -15 -33 2 -47 21 -18 41 11 26 38 -13 25 -12 25
-28 9z"/>
<path d="M4180 4295 c-23 -28 21 -50 48 -23 9 9 7 14 -6 24 -22 17 -27 17 -42
-1z"/>
<path d="M684 4199 c-3 -6 0 -18 9 -26 12 -12 19 -13 36 -3 18 9 20 14 10 26
-14 17 -45 19 -55 3z"/>
<path d="M4273 4194 c-9 -24 11 -38 36 -25 25 14 27 27 5 35 -25 9 -34 7 -41
-10z"/>
<path d="M1640 4163 c-49 -7 -70 -14 -70 -23 0 -6 9 -10 20 -10 26 0 26 -5
-14 -192 l-33 -158 26 0 c23 0 28 6 38 51 14 58 65 144 95 160 39 21 44 -4 20
-101 -12 -49 -19 -96 -16 -105 7 -18 65 -20 82 -3 18 18 15 27 -8 21 -26 -7
-26 9 0 107 24 91 24 104 4 124 -26 27 -55 18 -105 -33 -27 -26 -49 -43 -49
-37 0 7 9 54 20 105 12 52 19 94 18 95 -2 1 -14 0 -28 -1z"/>
<path d="M2950 4145 c-10 -13 -9 -15 9 -15 28 0 27 -10 -9 -180 -37 -172 -37
-182 -8 -178 17 2 25 14 35 56 20 80 83 172 118 172 20 0 19 -31 -5 -124 -10
-42 -17 -83 -14 -91 7 -18 65 -20 82 -3 18 18 15 27 -8 21 -25 -7 -25 3 0 98
24 91 25 113 4 134 -25 25 -63 11 -111 -41 -24 -25 -43 -42 -43 -37 0 4 9 48
20 97 11 50 20 94 20 98 0 15 -77 9 -90 -7z"/>
<path d="M3757 4153 c-13 -12 -7 -23 13 -23 19 0 20 -4 14 -37 -9 -52 -9 -52
-57 -51 -79 1 -147 -56 -165 -137 -24 -110 50 -174 126 -110 17 14 33 25 36
25 3 0 6 -11 6 -25 0 -21 5 -25 29 -25 40 0 61 9 61 27 0 10 -6 12 -20 8 -26
-8 -26 -9 15 180 19 88 35 163 35 168 0 9 -84 10 -93 0z m-16 -133 c54 -29
-20 -210 -85 -210 -21 0 -46 33 -46 62 0 29 56 130 79 143 32 17 28 17 52 5z"/>
<path d="M1195 4140 c-3 -6 5 -10 19 -10 14 0 28 -5 31 -10 8 -13 -53 -290
-67 -308 -6 -7 -17 -11 -26 -10 -8 2 -17 -2 -19 -9 -6 -17 155 -22 169 -5 11
12 5 15 -24 13 -9 -1 -19 2 -22 8 -8 12 51 291 66 308 6 7 17 12 26 11 8 -2
17 3 19 10 6 15 -162 18 -172 2z"/>
<path d="M4364 4106 c-8 -22 3 -49 19 -43 6 2 12 14 12 27 0 27 -22 39 -31 16z"/>
<path d="M594 4099 c-3 -6 0 -18 9 -26 12 -12 18 -13 35 -2 16 10 18 16 10 26
-13 16 -44 17 -54 2z"/>
<path d="M1963 4031 c-85 -40 -132 -171 -83 -233 28 -36 68 -37 108 -3 37 31
40 31 44 3 4 -27 50 -37 74 -17 22 18 17 30 -10 23 l-24 -6 28 112 28 111 -26
11 c-51 19 -96 19 -139 -1z m101 -26 c3 -8 3 -21 1 -27 -2 -7 -9 -32 -15 -56
-6 -23 -25 -58 -41 -77 -49 -55 -89 -43 -89 27 0 51 21 100 55 126 32 25 80
29 89 7z"/>
<path d="M2574 4031 c-62 -28 -97 -80 -102 -151 -4 -53 -2 -61 21 -84 21 -20
36 -26 72 -26 45 0 103 22 117 44 11 17 3 17 -35 1 -71 -30 -117 -16 -117 36
0 25 6 29 80 54 48 16 84 34 90 45 17 31 11 68 -12 84 -29 21 -64 20 -114 -3z
m86 -39 c0 -32 -29 -59 -76 -71 -25 -7 -48 -10 -50 -9 -10 10 39 89 63 101 32
17 63 7 63 -21z"/>
<path d="M3350 4034 c-19 -8 -43 -23 -53 -32 -56 -50 -77 -172 -37 -212 28
-28 78 -26 111 6 l26 25 7 -25 c5 -21 12 -26 39 -26 31 0 57 14 57 32 0 5 -12
5 -27 2 -22 -6 -25 -4 -20 10 13 33 47 174 47 194 0 13 -11 22 -39 30 -49 15
-68 15 -111 -4z m90 -48 c0 -74 -59 -176 -102 -176 -9 0 -24 10 -33 23 -13 20
-13 30 -1 76 17 67 58 111 103 111 31 0 33 -2 33 -34z"/>
<path d="M2194 4025 c-17 -13 -17 -14 -1 -15 23 0 33 -26 51 -139 8 -51 18
-96 21 -99 13 -14 62 41 115 128 32 52 60 105 64 118 7 19 4 22 -23 22 -16 0
-36 -3 -45 -6 -23 -9 -20 -34 4 -34 19 0 17 -7 -22 -80 -24 -44 -46 -80 -50
-80 -3 0 -11 33 -18 73 -20 131 -19 127 -49 127 -15 0 -36 -7 -47 -15z"/>
<path d="M521 4001 c-16 -11 -6 -51 14 -51 16 0 29 35 20 50 -8 12 -16 12 -34
1z"/>
<path d="M4447 4003 c-24 -23 12 -55 38 -33 12 10 13 16 4 26 -12 15 -31 18
-42 7z"/>
<path d="M440 3890 c-12 -7 -12 -12 0 -35 13 -25 15 -25 27 -8 24 32 5 63 -27
43z"/>
<path d="M4527 3893 c-12 -11 -8 -40 6 -52 11 -8 16 -6 24 12 5 12 8 28 6 35
-5 13 -25 16 -36 5z"/>
<path d="M364 3775 c-4 -9 0 -24 10 -33 15 -15 18 -15 26 -2 6 8 9 22 7 30 -3
21 -36 25 -43 5z"/>
<path d="M4603 3783 c-17 -6 -16 -28 0 -42 10 -8 17 -7 25 1 24 24 6 52 -25
41z"/>
<path d="M301 3657 c-8 -10 -7 -19 4 -33 14 -19 14 -19 29 1 22 31 -8 61 -33
32z"/>
<path d="M4657 3656 c-9 -23 18 -39 43 -26 17 9 19 14 9 26 -15 18 -45 18 -52
0z"/>
<path d="M241 3536 c-18 -21 11 -41 39 -26 17 9 19 14 9 26 -15 18 -33 18 -48
0z"/>
<path d="M4717 3536 c-9 -23 18 -39 42 -26 25 13 27 26 5 34 -25 10 -41 7 -47
-8z"/>
<path d="M1515 3449 c-19 -52 -35 -119 -35 -148 0 -38 46 -125 83 -158 25 -21
65 -112 74 -169 3 -20 -2 -45 -17 -73 -12 -24 -27 -71 -35 -105 -7 -33 -18
-74 -24 -89 -17 -43 -13 -83 10 -130 12 -23 22 -60 21 -82 0 -46 42 -127 97
-188 41 -46 48 -84 43 -245 -3 -98 -5 -104 -27 -114 -18 -8 -33 -32 -53 -86
-36 -95 -58 -109 -48 -31 4 30 10 73 13 95 3 27 -1 52 -10 70 -8 16 -25 69
-36 117 -22 95 -46 147 -86 195 l-26 31 31 98 c38 119 48 238 30 350 -17 105
-36 140 -127 220 -188 167 -191 170 -198 226 -9 73 -33 127 -57 127 -11 0 -34
10 -51 23 -25 17 -46 22 -96 22 -67 0 -87 -13 -49 -30 13 -6 24 -18 26 -27 3
-15 -3 -16 -47 -11 -66 8 -95 -1 -110 -33 -16 -36 -8 -40 27 -15 54 38 82 22
82 -46 0 -80 -46 -141 -165 -221 -123 -81 -185 -181 -193 -308 -9 -144 56
-276 183 -371 38 -28 71 -57 73 -63 3 -7 -9 -35 -24 -63 -26 -46 -29 -62 -29
-137 0 -74 4 -94 31 -150 17 -36 52 -91 77 -122 26 -32 47 -66 47 -77 0 -10
-10 -40 -21 -67 -18 -41 -22 -67 -22 -178 0 -113 3 -139 23 -191 27 -71 118
-169 168 -180 30 -6 31 -8 26 -49 -8 -57 16 -102 64 -124 25 -10 68 -16 133
-16 88 -1 100 2 155 30 45 24 77 32 135 37 83 6 112 18 129 55 12 28 6 55 -23
96 l-20 29 44 41 c24 23 67 67 95 98 108 120 91 224 -51 324 l-30 21 20 37
c11 20 35 51 53 69 22 21 39 52 53 99 11 37 24 70 29 73 6 3 10 21 10 39 0 18
7 54 17 81 14 42 15 60 4 139 -13 98 -29 133 -85 183 -20 17 -36 41 -36 52 0
11 -14 44 -32 72 -63 102 -48 207 43 298 55 55 58 68 35 164 -8 36 -27 74 -50
104 -20 25 -36 54 -36 64 0 34 -32 114 -63 156 -27 38 -29 47 -23 93 9 69 -7
63 -23 -10 l-13 -59 41 -82 c22 -45 41 -93 41 -107 0 -14 15 -41 34 -63 49
-53 79 -163 60 -214 -4 -9 -16 -20 -28 -25 -12 -4 -37 -39 -60 -83 -35 -69
-37 -78 -27 -110 7 -20 9 -52 6 -71 -6 -31 -3 -41 29 -78 24 -27 35 -50 32
-61 -7 -30 4 -46 45 -68 48 -24 73 -61 72 -107 -1 -19 5 -53 13 -75 19 -53 18
-61 -12 -96 -19 -23 -24 -38 -20 -58 3 -17 -4 -59 -17 -103 -19 -62 -30 -79
-58 -98 -26 -18 -35 -32 -39 -60 -4 -31 -10 -39 -36 -47 -17 -5 -63 -38 -103
-73 -41 -35 -85 -71 -98 -80 -25 -15 -26 -15 -54 19 -16 19 -29 37 -29 42 0 4
-5 7 -10 7 -6 0 -8 -12 -4 -27 4 -22 3 -25 -5 -13 -27 39 1 103 50 115 22 5
31 1 52 -26 l25 -32 37 52 c23 32 43 50 51 47 28 -11 44 5 44 44 0 58 15 87
58 114 33 21 42 33 52 75 7 31 9 71 5 102 -4 31 -3 54 3 58 6 4 7 37 3 85 -6
71 -10 81 -37 105 -17 15 -50 49 -74 75 -42 45 -44 51 -46 109 -1 34 -9 83
-19 109 -16 44 -16 52 -2 95 8 27 18 68 22 93 4 25 20 64 36 87 34 48 36 81
10 132 -10 20 -26 56 -35 81 -10 29 -36 66 -71 100 -51 51 -55 58 -55 102 0
26 5 70 11 98 10 47 6 81 -6 49z m-273 -378 c26 -16 74 -58 108 -93 l62 -63
-54 -3 c-122 -6 -133 -26 -16 -30 88 -4 128 -21 128 -54 0 -29 -44 -66 -94
-79 -64 -16 -72 -33 -12 -27 26 3 64 17 88 33 l41 27 -6 -118 c-10 -214 -75
-352 -192 -410 -52 -25 -62 -26 -138 -21 -90 7 -166 28 -268 75 -74 33 -90 50
-65 64 22 13 20 28 -4 28 -84 0 -151 99 -103 152 9 10 29 18 46 18 25 0 28 2
17 15 -7 8 -20 15 -30 15 -23 0 -80 -65 -80 -90 0 -35 -20 -22 -42 26 -17 40
-20 62 -16 158 4 141 31 205 113 267 104 78 275 136 411 138 50 1 68 -4 106
-28z m234 -828 c28 -48 50 -120 39 -131 -2 -3 -29 6 -60 18 -43 18 -67 21
-106 17 -74 -9 -102 -26 -114 -69 -6 -24 -32 -60 -70 -98 -33 -33 -62 -60 -65
-60 -3 0 -24 30 -48 65 -36 54 -42 71 -37 95 8 39 -6 39 -23 1 -10 -23 -21
-31 -45 -33 l-32 -3 48 -31 c55 -35 90 -82 107 -142 17 -65 43 -57 82 24 30
64 79 114 110 114 18 0 68 -44 68 -61 0 -20 -50 -113 -91 -166 -45 -60 -78
-71 -159 -54 -72 16 -119 42 -169 96 -96 104 -129 246 -78 345 37 74 90 86
226 50 131 -35 231 -20 306 45 23 20 49 34 60 33 12 -2 32 -24 51 -55z m-26
-160 c55 -36 90 -77 90 -105 0 -15 4 -28 10 -28 5 0 14 -18 20 -41 14 -50 0
-100 -37 -129 -57 -44 -93 -14 -93 77 0 35 -4 73 -10 83 -5 10 -39 35 -75 56
-59 34 -64 40 -46 48 24 10 27 26 9 44 -20 20 102 16 132 -5z m-57 -229 c4
-37 13 -77 21 -89 14 -21 13 -24 -14 -43 -37 -28 -54 -80 -42 -125 l10 -34
-92 -5 c-103 -6 -155 -24 -204 -71 -28 -27 -82 -113 -82 -132 0 -18 24 2 54
48 58 84 121 117 228 117 88 0 152 -30 178 -84 11 -23 20 -58 20 -78 0 -50
-54 -151 -101 -188 -21 -18 -39 -35 -39 -39 0 -4 33 -18 74 -29 90 -26 99 -41
52 -88 -34 -34 -34 -34 -130 -34 -159 0 -192 27 -167 134 24 107 61 212 81
234 12 13 35 25 51 29 39 7 37 21 -5 28 -21 4 -38 15 -44 28 -10 21 -11 20
-11 -8 -1 -18 -13 -45 -31 -67 -36 -44 -50 -78 -50 -126 0 -54 -11 -66 -55
-59 -66 11 -113 51 -148 125 -29 62 -32 75 -32 167 1 100 20 191 49 230 13 18
16 18 88 0 132 -32 172 -11 264 140 32 52 61 92 64 90 4 -2 10 -34 13 -71z
m364 -283 c49 -23 66 -49 65 -103 -1 -86 -65 -165 -203 -250 -38 -24 -69 -48
-69 -55 0 -7 20 -23 44 -35 54 -26 75 -62 46 -78 -40 -21 -78 -12 -129 34 -29
26 -63 46 -85 50 -20 4 -36 9 -36 11 0 11 95 105 111 110 11 4 26 23 34 42 14
34 93 135 124 159 12 9 9 12 -12 18 -17 4 -32 18 -41 39 l-14 32 -1 -41 c-1
-31 -10 -53 -41 -94 l-39 -53 -11 28 c-6 16 -13 47 -16 70 l-6 41 83 47 c94
53 129 58 196 28z"/>
<path d="M1043 2851 c-59 -20 -129 -66 -144 -93 -6 -11 -6 -18 0 -18 19 0 200
103 205 116 7 18 2 17 -61 -5z"/>
<path d="M1075 2680 c-57 -44 -105 -56 -156 -41 -49 15 -76 1 -38 -20 34 -18
136 -14 187 6 39 16 82 56 82 76 0 18 -36 7 -75 -21z"/>
<path d="M1410 2685 c-32 -12 -33 -14 -9 -14 14 -1 34 6 45 14 23 18 10 18
-36 0z"/>
<path d="M1030 2577 c-56 -18 -61 -22 -36 -25 32 -4 116 24 116 39 0 12 -5 11
-80 -14z"/>
<path d="M1341 2586 c-9 -10 -29 -16 -57 -16 -50 0 -57 -12 -16 -29 46 -19
103 12 90 50 -2 7 -8 6 -17 -5z"/>
<path d="M746 2514 c-18 -17 -20 -32 -7 -52 6 -10 10 -7 15 12 4 16 15 28 31
32 14 3 22 10 19 15 -8 14 -41 10 -58 -7z"/>
<path d="M1347 2443 c-28 -19 -52 -28 -86 -29 -51 -1 -71 -9 -71 -26 0 -7 21
-9 59 -6 60 4 149 47 159 76 6 20 -21 14 -61 -15z"/>
<path d="M1321 2351 c-35 -19 -32 -35 4 -21 22 8 53 40 39 40 -5 -1 -24 -9
-43 -19z"/>
<path d="M191 3421 c-8 -14 -7 -22 5 -32 20 -16 38 2 29 30 -8 26 -21 27 -34
2z"/>
<path d="M4777 3423 c-24 -23 12 -55 38 -33 12 10 13 16 4 26 -12 15 -31 18
-42 7z"/>
<path d="M147 3303 c-12 -11 -8 -41 6 -46 7 -3 21 1 32 9 18 14 18 14 -1 29
-22 16 -28 18 -37 8z"/>
<path d="M4827 3303 c-11 -10 -8 -41 4 -48 5 -4 19 1 30 10 18 17 18 19 1 31
-20 15 -26 17 -35 7z"/>
<path d="M104 3165 c-12 -30 16 -45 46 -25 13 9 12 12 -4 25 -25 19 -35 19
-42 0z"/>
<path d="M4860 3165 c-16 -19 8 -59 27 -43 17 14 17 45 -1 51 -8 3 -20 0 -26
-8z"/>
<path d="M3005 3141 c-17 -4 -55 -21 -85 -38 -30 -16 -89 -49 -132 -72 -42
-23 -81 -47 -86 -54 -6 -7 -13 -34 -17 -60 l-7 -48 73 41 c106 59 138 74 143
69 3 -3 1 -23 -4 -44 -6 -22 -30 -134 -54 -250 -69 -325 -96 -434 -113 -451
-12 -12 -28 -14 -68 -9 -58 8 -59 7 -69 -47 l-7 -38 229 0 230 0 6 31 c12 61
13 61 -64 53 -60 -6 -71 -4 -76 10 -7 19 5 82 105 541 86 395 82 370 51 372
-14 1 -39 -2 -55 -6z"/>
<path d="M77 3043 c-11 -10 -8 -41 4 -49 6 -3 18 1 27 9 13 13 13 19 2 31 -14
17 -23 20 -33 9z"/>
<path d="M4897 3043 c-12 -11 -7 -41 7 -46 8 -3 22 3 31 13 16 17 15 19 -4 29
-23 13 -26 13 -34 4z"/>
<path d="M45 2910 c-9 -15 4 -50 20 -50 20 0 30 40 14 51 -18 11 -26 11 -34
-1z"/>
<path d="M4923 2913 c-17 -6 -16 -28 0 -42 10 -8 19 -7 32 3 16 12 17 16 6 30
-14 17 -18 18 -38 9z"/>
<path d="M31 2776 c-18 -22 4 -62 25 -45 18 15 18 33 0 48 -10 9 -16 8 -25 -3z"/>
<path d="M4941 2776 c-13 -16 -6 -56 9 -56 5 0 14 10 21 21 8 17 8 24 -3 36
-13 12 -16 12 -27 -1z"/>
<path d="M4945 2639 c-8 -24 9 -41 32 -32 16 6 17 25 1 41 -17 17 -26 15 -33
-9z"/>
<path d="M14 2635 c-4 -9 0 -24 10 -33 15 -15 18 -15 26 -2 6 8 9 22 7 30 -3
21 -36 25 -43 5z"/>
<path d="M18 2513 c-25 -6 -22 -30 3 -38 25 -8 44 7 36 29 -7 16 -9 17 -39 9z"/>
<path d="M4950 2505 c-15 -18 -5 -35 20 -35 10 0 22 5 25 10 7 11 -12 40 -25
40 -4 0 -13 -7 -20 -15z"/>
<path d="M20 2374 c-11 -12 -11 -18 1 -30 13 -12 18 -12 34 0 16 12 17 16 6
30 -17 20 -25 20 -41 0z"/>
<path d="M4950 2375 c-9 -11 -11 -22 -4 -32 13 -21 25 -21 38 -1 8 14 7 21 -5
33 -14 15 -17 15 -29 0z"/>
<path d="M4936 2244 c-9 -23 14 -46 34 -34 11 7 12 14 4 27 -15 24 -30 27 -38
7z"/>
<path d="M26 2234 c-4 -10 -2 -22 3 -27 14 -14 43 0 39 20 -4 24 -34 28 -42 7z"/>
<path d="M50 2106 c-10 -13 -10 -19 0 -32 12 -14 15 -14 29 0 14 15 14 17 0
32 -14 14 -17 14 -29 0z"/>
<path d="M4921 2111 c-16 -10 -8 -41 11 -41 7 0 19 4 27 9 12 8 12 12 2 25
-15 18 -21 19 -40 7z"/>
<path d="M4891 1982 c-15 -28 13 -52 35 -30 13 13 12 16 -5 32 -19 17 -20 17
-30 -2z"/>
<path d="M72 1978 c-8 -8 -9 -15 -1 -25 15 -17 34 -17 48 1 10 12 8 17 -8 25
-24 14 -24 14 -39 -1z"/>
<path d="M102 1848 c-13 -13 2 -38 23 -38 21 0 36 25 23 38 -7 7 -17 12 -23
12 -6 0 -16 -5 -23 -12z"/>
<path d="M4860 1844 c-11 -12 -11 -18 1 -29 13 -13 18 -13 37 1 22 15 22 17 5
30 -23 17 -28 17 -43 -2z"/>
<path d="M141 1721 c-16 -28 14 -51 36 -28 13 13 14 19 3 31 -17 21 -27 20
-39 -3z"/>
<path d="M4822 1717 c-9 -10 -8 -18 3 -33 13 -16 16 -17 25 -4 21 31 -5 65
-28 37z"/>
<path d="M193 1599 c-16 -16 -5 -39 17 -39 25 0 35 18 20 35 -15 18 -22 19
-37 4z"/>
<path d="M4776 1594 c-12 -31 13 -44 44 -24 13 9 12 12 -4 25 -25 19 -32 19
-40 -1z"/>
<path d="M3327 1553 c-13 -12 -7 -41 9 -47 17 -7 54 10 54 24 0 19 -50 37 -63
23z"/>
<path d="M240 1474 c-11 -12 -11 -18 2 -30 13 -13 20 -14 38 -4 21 11 21 12 4
31 -21 23 -28 24 -44 3z"/>
<path d="M4720 1474 c-11 -12 -11 -18 2 -30 13 -13 20 -14 38 -4 21 11 21 12
4 31 -21 23 -28 24 -44 3z"/>
<path d="M2225 1403 l-37 -38 6 33 c5 31 4 32 -28 32 -40 0 -66 -8 -66 -21 0
-5 7 -9 15 -9 20 0 19 -17 -10 -161 -32 -157 -32 -156 -56 -162 -41 -11 -7
-27 57 -27 50 0 64 3 64 15 0 8 -9 15 -20 15 -21 0 -25 16 -14 56 5 18 15 22
59 26 66 6 114 39 144 101 29 60 28 121 -4 152 -35 36 -67 32 -110 -12z m75
-33 c12 -23 2 -65 -31 -131 -28 -56 -100 -76 -111 -31 -9 35 13 100 48 141 40
46 76 54 94 21z"/>
<path d="M2588 1433 c-9 -2 -28 -22 -43 -44 -34 -47 -47 -50 -34 -7 14 49 13
49 -38 46 -46 -3 -76 -28 -34 -28 12 0 21 -2 21 -4 0 -2 -9 -48 -20 -101 -25
-123 -25 -125 5 -125 18 0 25 5 25 20 0 37 40 126 74 163 36 39 56 47 56 21 0
-27 33 -11 41 20 12 44 -1 53 -53 39z"/>
<path d="M2781 1429 c-74 -30 -112 -87 -113 -171 0 -44 4 -56 27 -75 31 -27
85 -30 138 -8 35 14 54 32 45 41 -3 2 -21 -3 -41 -11 -54 -22 -84 -19 -104 11
-24 37 -9 53 73 81 98 33 129 78 84 123 -21 21 -68 25 -109 9z m69 -42 c0 -35
-25 -62 -70 -76 -23 -7 -44 -10 -47 -7 -9 8 18 67 41 87 11 11 32 19 48 19 22
0 28 -4 28 -23z"/>
<path d="M3005 1433 c-72 -12 -81 -21 -43 -38 20 -9 25 -25 41 -114 10 -58 19
-107 22 -109 2 -2 14 -2 27 2 16 4 44 40 91 118 37 63 67 119 67 126 0 13 -47
17 -74 6 -23 -9 -20 -24 5 -24 11 0 19 -5 17 -12 -5 -21 -83 -158 -89 -158 -3
0 -12 42 -19 93 -15 106 -18 114 -45 110z"/>
<path d="M3503 1419 c-57 -28 -87 -78 -88 -147 0 -48 3 -57 33 -83 85 -76 232
10 232 136 0 98 -82 141 -177 94z m95 -15 c27 -19 29 -66 7 -142 -27 -89 -100
-110 -130 -38 -13 31 -13 40 4 88 30 84 33 89 55 98 30 13 39 12 64 -6z"/>
<path d="M4129 1417 c-28 -19 -34 -29 -34 -57 0 -31 6 -39 50 -67 28 -18 55
-40 62 -49 26 -35 -26 -72 -82 -58 -18 4 -25 13 -25 31 0 38 -34 26 -38 -13
-3 -28 0 -32 29 -38 80 -16 142 2 165 46 23 44 11 74 -39 99 -81 41 -101 80
-51 99 34 13 74 2 74 -19 0 -23 9 -31 26 -24 8 3 14 16 14 29 0 47 -94 60
-151 21z"/>
<path d="M3263 1423 c-20 -8 -15 -23 7 -23 25 0 25 5 -1 -112 -12 -53 -19
-103 -16 -112 7 -18 49 -21 78 -6 28 15 24 33 -6 26 -14 -4 -25 -5 -25 -3 0 3
13 56 30 118 16 63 30 115 30 117 0 4 -85 0 -97 -5z"/>
<path d="M3753 1423 c-20 -8 -15 -23 7 -23 25 0 25 4 -2 -108 -16 -69 -19 -97
-12 -110 25 -40 91 -19 136 42 l29 40 -3 -44 -3 -45 44 0 c29 0 46 5 49 14 4
11 -2 12 -22 7 -23 -6 -27 -4 -22 11 12 41 46 196 46 209 0 17 -31 19 -48 2
-7 -7 -12 -21 -13 -32 -1 -35 -92 -171 -117 -174 -27 -4 -28 3 -2 113 11 47
20 90 20 95 0 10 -65 12 -87 3z"/>
<path d="M305 1354 c-14 -15 -15 -19 -2 -32 13 -13 18 -13 36 0 21 15 21 15 2
32 -17 16 -20 16 -36 0z"/>
<path d="M4662 1358 c-7 -7 -8 -17 -1 -30 12 -22 18 -22 43 -3 20 15 20 15 0
30 -23 18 -27 18 -42 3z"/>
<path d="M364 1235 c-8 -20 4 -35 26 -35 25 0 35 17 20 35 -16 19 -39 19 -46
0z"/>
<path d="M4597 1243 c-24 -23 12 -55 38 -33 12 10 13 16 4 26 -12 15 -31 18
-42 7z"/>
<path d="M4532 1138 c-16 -16 -15 -33 2 -47 10 -9 16 -8 26 3 16 21 -10 62
-28 44z"/>
<path d="M445 1126 c-15 -11 -16 -15 -4 -34 15 -24 39 -13 39 19 0 25 -14 31
-35 15z"/>
<path d="M514 1015 c-8 -20 4 -35 26 -35 25 0 35 17 20 35 -16 19 -39 19 -46
0z"/>
<path d="M4444 1015 c-12 -29 15 -45 45 -26 12 8 12 12 2 25 -17 20 -40 21
-47 1z"/>
<path d="M601 911 c-16 -28 14 -51 36 -28 13 13 14 19 3 31 -17 21 -27 20 -39
-3z"/>
<path d="M4363 904 c-8 -21 13 -42 28 -27 13 13 5 43 -11 43 -6 0 -13 -7 -17
-16z"/>
<path d="M1961 900 c-46 -5 -71 -30 -31 -30 26 0 27 10 -15 -193 -32 -153 -33
-150 33 -163 105 -20 201 67 202 184 0 32 -6 49 -25 67 -33 34 -58 31 -105
-11 -45 -41 -46 -40 -24 52 21 93 19 100 -35 94z m129 -185 c7 -19 4 -39 -12
-82 -26 -71 -59 -105 -96 -101 -23 3 -28 8 -30 37 -5 47 23 115 59 146 39 32
67 32 79 0z"/>
<path d="M2303 903 c-18 -7 -16 -42 1 -49 8 -3 24 0 36 6 21 11 21 12 4 31
-18 20 -21 21 -41 12z"/>
<path d="M2880 885 c-10 -13 -9 -15 9 -15 27 0 27 -5 -13 -190 -19 -85 -31
-159 -26 -163 19 -21 48 4 54 46 13 85 99 198 129 168 9 -9 6 -34 -12 -105
-13 -51 -21 -99 -17 -105 9 -15 69 -14 84 1 18 18 15 27 -8 21 -25 -7 -25 2 1
117 20 87 20 92 3 111 -9 10 -24 19 -32 19 -23 0 -76 -39 -98 -72 -36 -54 -36
-44 11 160 5 20 2 22 -34 22 -22 0 -44 -6 -51 -15z"/>
<path d="M2734 821 c-14 -22 -36 -42 -50 -45 -29 -8 -32 -36 -4 -36 11 0 20
-2 20 -3 0 -2 -9 -46 -19 -97 -23 -106 -17 -130 28 -130 16 0 39 9 52 20 l24
21 -32 -6 c-40 -8 -40 -5 -17 112 16 77 18 82 45 88 37 8 48 25 16 25 -33 0
-35 5 -27 50 9 51 -3 51 -36 1z"/>
<path d="M4275 819 c-4 -13 -2 -27 7 -36 13 -12 16 -12 27 1 10 11 9 19 -1 35
-16 27 -25 26 -33 0z"/>
<path d="M690 815 c-10 -12 -10 -18 0 -30 15 -18 20 -18 44 0 20 15 20 15 0
30 -24 18 -29 18 -44 0z"/>
<path d="M2282 780 c-48 -7 -82 -30 -44 -30 27 0 27 0 1 -115 -12 -51 -19
-100 -16 -109 12 -30 97 -16 97 16 0 5 -12 5 -26 2 -22 -6 -25 -4 -21 12 15
50 58 227 55 228 -2 1 -22 -1 -46 -4z"/>
<path d="M2560 774 c-14 -9 -36 -32 -49 -51 -28 -43 -35 -38 -22 16 l9 41 -33
0 c-39 0 -65 -8 -65 -21 0 -5 7 -9 15 -9 20 0 19 -36 -4 -144 -16 -74 -17 -88
-5 -93 20 -7 44 15 44 41 0 31 44 116 78 154 34 35 52 41 52 16 0 -9 7 -14 17
-12 23 4 36 65 16 72 -21 8 -25 7 -53 -10z"/>
<path d="M787 723 c-24 -23 12 -55 38 -33 12 10 13 16 4 26 -12 15 -31 18 -42
7z"/>
<path d="M4175 720 c-3 -5 -1 -19 6 -31 10 -19 12 -20 26 -6 9 9 13 23 10 31
-7 18 -32 21 -42 6z"/>
<path d="M885 630 c-9 -15 5 -52 18 -47 6 2 15 11 21 20 8 13 7 20 -4 27 -19
12 -27 12 -35 0z"/>
<path d="M4075 630 c-6 -10 11 -50 22 -50 15 0 31 35 21 47 -12 15 -34 17 -43
3z"/>
<path d="M990 545 c-15 -18 -5 -35 20 -35 10 0 22 5 25 10 7 11 -12 40 -25 40
-4 0 -13 -7 -20 -15z"/>
<path d="M3974 546 c-3 -8 0 -25 7 -37 11 -22 12 -22 25 -4 18 25 18 41 -2 49
-22 8 -24 8 -30 -8z"/>
<path d="M1095 470 c-8 -12 3 -50 14 -50 15 0 33 30 27 45 -6 17 -32 20 -41 5z"/>
<path d="M3867 473 c-24 -23 12 -55 38 -33 12 10 13 16 4 26 -12 15 -31 18
-42 7z"/>
<path d="M3761 406 c-16 -19 -7 -46 14 -46 22 0 30 29 13 46 -13 13 -16 13
-27 0z"/>
<path d="M1206 394 c-4 -10 -2 -22 3 -27 14 -14 43 0 39 20 -4 24 -34 28 -42
7z"/>
<path d="M1329 337 c-14 -31 -1 -54 25 -44 20 8 20 27 2 52 -14 19 -15 19 -27
-8z"/>
<path d="M3641 337 c-15 -19 -3 -49 18 -45 9 2 16 13 16 27 0 29 -17 37 -34
18z"/>
<path d="M1444 275 c-9 -21 3 -45 21 -45 21 0 30 27 15 45 -16 19 -29 19 -36
0z"/>
<path d="M3514 265 c-4 -9 0 -24 10 -33 15 -15 18 -15 26 -2 6 8 9 22 7 30 -3
21 -36 25 -43 5z"/>
<path d="M1570 215 c-10 -12 -10 -18 0 -31 12 -13 15 -13 28 0 15 15 10 46 -6
46 -5 0 -15 -7 -22 -15z"/>
<path d="M3397 223 c-23 -22 14 -53 39 -32 11 9 11 15 3 25 -12 15 -31 18 -42
7z"/>
<path d="M1696 174 c-16 -15 -16 -18 1 -36 16 -18 18 -18 30 -2 16 23 16 29
-1 43 -11 9 -18 8 -30 -5z"/>
<path d="M3269 174 c-10 -12 -9 -18 3 -31 14 -14 19 -14 37 -1 17 12 19 17 9
25 -27 21 -36 22 -49 7z"/>
<path d="M1820 134 c-11 -12 -11 -18 2 -30 13 -13 19 -14 36 -3 20 12 20 15 5
31 -20 22 -27 22 -43 2z"/>
<path d="M3141 131 c-15 -27 12 -49 37 -30 9 7 19 15 21 16 5 4 -31 32 -41 33
-4 0 -12 -9 -17 -19z"/>
<path d="M1951 108 c-11 -17 -10 -23 2 -35 18 -18 37 -9 37 16 0 31 -24 43
-39 19z"/>
<path d="M3016 102 c-14 -17 -15 -21 -2 -31 12 -10 19 -10 36 2 19 13 19 14 2
31 -18 15 -20 15 -36 -2z"/>
<path d="M2880 80 c-13 -24 -5 -40 20 -40 23 0 31 21 15 43 -16 22 -22 21 -35
-3z"/>
<path d="M2087 83 c-4 -3 -7 -15 -7 -25 0 -22 32 -24 49 -4 10 12 8 17 -8 25
-23 13 -26 13 -34 4z"/>
<path d="M2215 60 c-8 -12 3 -50 14 -50 15 0 33 30 27 45 -6 17 -32 20 -41 5z"/>
<path d="M2350 55 c-15 -18 -6 -45 14 -45 20 0 29 16 21 40 -8 24 -18 25 -35
5z"/>
<path d="M2750 55 c-21 -26 3 -42 37 -26 27 12 27 13 8 27 -24 18 -30 18 -45
-1z"/>
<path d="M2486 47 c-14 -11 -15 -15 -3 -31 16 -22 37 -14 37 14 0 25 -13 32
-34 17z"/>
<path d="M2617 53 c-24 -23 12 -55 38 -33 12 10 13 16 4 26 -12 15 -31 18 -42
7z"/>
</g>
</svg>
