<?xml version="1.0" standalone="no"?>
<!DOCTYPE svg PUBLIC "-//W3C//DTD SVG 20010904//EN"
 "http://www.w3.org/TR/2001/REC-SVG-20010904/DTD/svg10.dtd">
<svg version="1.0" xmlns="http://www.w3.org/2000/svg"
 width="498.000000pt" height="500.000000pt" viewBox="0 0 498.000000 500.000000"
 preserveAspectRatio="xMidYMid meet">
<metadata>
Created by potrace 1.15, written by Peter Selinger 2001-2017
</metadata>
<g transform="translate(0.000000,500.000000) scale(0.100000,-0.100000)"
fill="#000000" stroke="none">
<path d="M2340 4974 c-11 -12 -11 -18 1 -29 13 -13 18 -13 37 1 22 15 22 17 5
30 -23 17 -28 17 -43 -2z"/>
<path d="M2472 4978 c-8 -8 -9 -15 -1 -25 15 -17 34 -17 48 1 10 12 8 17 -8
25 -24 14 -24 14 -39 -1z"/>
<path d="M2612 4978 c-16 -16 -15 -33 2 -47 22 -18 44 25 24 45 -11 11 -16 12
-26 2z"/>
<path d="M2211 4967 c-14 -17 -4 -47 15 -47 22 0 29 29 12 46 -13 13 -16 13
-27 1z"/>
<path d="M2740 4965 c-15 -18 -5 -35 20 -35 10 0 22 5 25 10 7 11 -12 40 -25
40 -4 0 -13 -7 -20 -15z"/>
<path d="M2075 4949 c-9 -28 9 -46 29 -30 12 10 13 18 5 32 -13 25 -26 24 -34
-2z"/>
<path d="M2871 4942 c-8 -15 -7 -23 5 -33 18 -15 38 0 32 27 -5 25 -25 28 -37
6z"/>
<path d="M1942 4918 c-7 -10 -6 -19 4 -33 15 -20 15 -20 30 0 8 10 13 24 11
30 -5 15 -33 17 -45 3z"/>
<path d="M3001 4916 c-9 -10 -8 -16 3 -25 20 -17 60 7 44 26 -14 17 -33 17
-47 -1z"/>
<path d="M1817 4893 c-24 -23 12 -55 38 -33 12 10 13 16 4 26 -12 15 -31 18
-42 7z"/>
<path d="M3121 4887 c-9 -11 -8 -17 4 -27 19 -16 47 -5 43 17 -4 23 -31 28
-47 10z"/>
<path d="M1687 4853 c-12 -12 -7 -31 10 -37 9 -4 23 0 32 9 14 14 14 17 1 25
-18 11 -34 13 -43 3z"/>
<path d="M3257 4846 c-3 -8 1 -20 9 -27 12 -10 18 -9 32 5 15 15 15 18 2 26
-21 14 -37 12 -43 -4z"/>
<path d="M1564 4805 c-7 -17 2 -45 13 -45 4 0 17 7 27 15 20 15 20 15 0 30
-24 18 -33 19 -40 0z"/>
<path d="M3386 4813 c-9 -9 -7 -36 4 -53 8 -13 11 -12 23 5 8 10 13 25 10 31
-5 15 -29 25 -37 17z"/>
<path d="M1434 4749 c-3 -6 0 -18 9 -26 12 -12 18 -13 35 -2 16 10 18 16 10
26 -13 16 -44 17 -54 2z"/>
<path d="M3507 4753 c-24 -23 12 -55 38 -33 12 10 13 16 4 26 -12 15 -31 18
-42 7z"/>
<path d="M1320 4695 c-11 -13 -11 -19 3 -33 20 -19 41 -5 35 24 -4 24 -22 28
-38 9z"/>
<path d="M3627 4703 c-11 -10 -8 -41 4 -49 6 -3 18 1 27 9 13 13 13 19 2 31
-14 17 -23 20 -33 9z"/>
<path d="M1207 4633 c-11 -11 -8 -40 6 -51 19 -16 43 24 26 44 -13 15 -22 18
-32 7z"/>
<path d="M3740 4625 c-16 -19 8 -59 27 -43 17 14 17 45 -1 51 -8 3 -20 0 -26
-8z"/>
<path d="M2195 4585 c-188 -31 -255 -52 -380 -122 -196 -108 -322 -218 -425
-369 -114 -167 -141 -239 -160 -425 -12 -122 -1 -284 30 -439 24 -115 192
-587 255 -712 58 -115 108 -190 220 -325 192 -231 455 -472 611 -559 128 -71
326 -95 414 -49 78 40 267 216 367 340 115 144 194 278 273 465 l62 145 9 190
c10 223 23 323 50 403 11 31 27 84 35 116 17 64 45 374 38 416 -34 212 -47
258 -99 365 -58 120 -107 182 -226 288 -219 196 -436 274 -809 291 -93 5 -143
1 -265 -19z m755 -781 c52 -14 119 -37 147 -51 67 -31 205 -160 233 -217 60
-124 100 -445 100 -796 l0 -166 -45 -119 c-106 -281 -218 -459 -404 -646 -145
-146 -196 -177 -299 -186 -141 -11 -270 34 -459 159 -107 71 -162 116 -246
202 -120 122 -198 221 -246 310 -17 33 -59 88 -92 123 -40 42 -71 86 -93 135
-18 40 -36 80 -40 88 -4 8 -13 26 -21 40 -23 39 -19 132 6 164 11 14 27 26 35
26 17 0 63 -49 64 -67 0 -7 5 -13 10 -13 15 0 12 48 -6 105 -21 64 -21 221 -1
333 26 140 114 297 218 385 54 46 157 100 244 126 181 56 301 76 575 95 107 7
225 -4 320 -30z"/>
<path d="M2935 3349 c-33 -5 -89 -23 -124 -40 -59 -29 -63 -33 -46 -45 25 -19
45 -18 102 5 26 10 83 26 127 36 75 17 103 17 216 -1 l35 -5 -23 20 c-46 40
-146 50 -287 30z"/>
<path d="M2022 3325 c-61 -14 -202 -81 -202 -97 0 -13 35 -9 102 12 101 32
228 46 289 32 72 -17 101 -16 97 4 -10 53 -159 78 -286 49z"/>
<path d="M2960 3126 c-86 -23 -142 -70 -185 -154 -9 -19 -15 -36 -13 -38 3 -2
20 10 39 26 19 16 37 29 41 30 3 0 7 -27 7 -59 0 -99 43 -170 125 -213 49 -25
99 -20 161 17 71 41 99 92 104 187 2 43 6 78 9 78 3 0 18 -12 33 -26 17 -16
35 -24 49 -22 l23 3 -27 32 c-36 43 -117 95 -198 127 -73 29 -101 31 -168 12z
m115 -96 c10 -44 31 -60 79 -60 23 0 46 -3 49 -6 4 -4 -16 -28 -44 -54 -50
-47 -51 -48 -44 -95 7 -44 6 -46 -11 -37 -11 6 -28 20 -38 31 -23 25 -37 26
-77 5 -39 -20 -45 -14 -25 25 24 46 20 68 -15 87 l-32 16 40 18 c40 18 77 56
88 91 8 26 22 16 30 -21z"/>
<path d="M1923 3034 c-80 -39 -179 -164 -171 -216 3 -19 8 -15 43 30 41 55 55
63 55 35 1 -29 39 -106 68 -136 82 -87 222 -89 298 -5 27 29 58 89 74 146 7
23 15 42 17 42 1 0 12 -9 24 -21 20 -20 40 -22 46 -3 5 15 -65 92 -99 110 -41
21 -167 44 -242 44 -47 0 -75 -6 -113 -26z m210 -98 c2 -6 24 -5 55 1 58 11
71 -2 30 -30 -13 -8 -35 -26 -51 -40 -24 -23 -27 -31 -21 -67 4 -22 3 -40 0
-40 -4 0 -25 10 -47 23 l-39 22 -42 -23 c-23 -12 -43 -20 -46 -17 -3 2 1 26 8
51 13 47 13 47 -15 70 -16 13 -27 25 -25 27 3 2 25 8 50 13 45 9 50 16 77 104
2 9 15 -4 33 -35 16 -28 31 -54 33 -59z"/>
<path d="M2733 2477 c-4 -7 -7 -28 -8 -47 0 -30 -4 -36 -30 -41 -50 -11 -138
-9 -175 4 -31 11 -35 16 -36 47 -1 25 -5 34 -15 32 -52 -13 -51 -75 1 -110 33
-23 40 -24 147 -18 124 6 149 14 164 53 17 44 -26 115 -48 80z"/>
<path d="M2758 2091 c-98 -52 -123 -56 -216 -36 -82 18 -153 17 -159 -1 -6
-18 140 -49 227 -49 72 0 79 2 163 50 80 46 108 75 73 75 -8 0 -47 -17 -88
-39z"/>
<path d="M2695 1912 c-22 -8 -73 -16 -114 -16 -84 -1 -101 -15 -50 -42 68 -35
218 8 219 64 0 14 -4 14 -55 -6z"/>
<path d="M3852 4559 c-12 -18 -11 -24 3 -38 15 -15 17 -15 30 3 11 14 11 22 2
37 -15 24 -19 24 -35 -2z"/>
<path d="M1086 4545 c-8 -21 25 -36 46 -21 13 10 15 15 6 24 -17 17 -45 15
-52 -3z"/>
<path d="M992 4478 c-16 -16 -15 -33 1 -46 20 -17 44 25 25 44 -11 11 -17 12
-26 2z"/>
<path d="M3961 4476 c-10 -12 -10 -19 2 -36 12 -18 16 -18 26 -6 14 17 11 48
-5 53 -6 2 -17 -3 -23 -11z"/>
<path d="M881 4398 c-11 -17 -10 -23 2 -35 18 -18 37 -9 37 16 0 31 -24 43
-39 19z"/>
<path d="M4057 4388 c-2 -8 1 -22 9 -33 14 -18 14 -18 29 1 8 10 13 24 11 29
-4 16 -43 18 -49 3z"/>
<path d="M782 4306 c-14 -32 6 -52 33 -33 15 12 16 16 4 35 -18 28 -23 28 -37
-2z"/>
<path d="M4157 4296 c-3 -8 0 -20 8 -26 19 -16 59 8 43 27 -14 17 -45 17 -51
-1z"/>
<path d="M686 4211 c-8 -13 4 -41 18 -41 6 0 17 4 25 9 12 8 12 12 2 25 -15
18 -37 21 -45 7z"/>
<path d="M4254 4205 c-12 -29 15 -45 45 -26 12 8 12 12 2 25 -17 20 -40 21
-47 1z"/>
<path d="M600 4105 c-15 -18 -5 -35 20 -35 10 0 22 5 25 10 7 11 -12 40 -25
40 -4 0 -13 -7 -20 -15z"/>
<path d="M4347 4113 c-24 -23 12 -55 38 -33 12 10 13 16 4 26 -12 15 -31 18
-42 7z"/>
<path d="M4430 4010 c-14 -26 0 -46 24 -37 20 8 21 31 2 46 -12 10 -17 8 -26
-9z"/>
<path d="M523 4013 c-16 -6 -17 -39 -2 -49 6 -3 18 1 27 10 14 14 14 18 2 30
-8 7 -21 12 -27 9z"/>
<path d="M441 3896 c-10 -11 -10 -20 0 -37 11 -22 12 -22 26 -3 25 34 0 72
-26 40z"/>
<path d="M4510 3895 c-22 -26 7 -46 39 -26 12 8 12 12 2 25 -17 20 -25 20 -41
1z"/>
<path d="M372 3788 c-27 -27 -3 -54 31 -36 22 11 22 25 -1 37 -13 7 -23 6 -30
-1z"/>
<path d="M4580 3785 c-15 -18 -5 -35 20 -35 10 0 22 5 25 10 7 11 -12 40 -25
40 -4 0 -13 -7 -20 -15z"/>
<path d="M296 3663 c-11 -26 10 -38 41 -24 27 12 27 13 8 27 -25 19 -41 18
-49 -3z"/>
<path d="M4647 3673 c-11 -10 -8 -41 4 -49 6 -3 18 1 27 9 13 13 13 19 2 31
-14 17 -23 20 -33 9z"/>
<path d="M242 3548 c-8 -8 -9 -15 -1 -25 15 -17 34 -17 48 1 10 12 8 17 -8 25
-24 14 -24 14 -39 -1z"/>
<path d="M4701 3547 c-8 -10 -7 -19 4 -33 13 -18 15 -18 31 -2 14 14 15 20 4
32 -15 19 -24 20 -39 3z"/>
<path d="M4761 3436 c-16 -19 -7 -46 14 -46 22 0 30 29 13 46 -13 13 -16 13
-27 0z"/>
<path d="M185 3425 c-17 -13 -18 -16 -5 -25 22 -15 45 -8 45 14 0 25 -16 30
-40 11z"/>
<path d="M137 3296 c-9 -23 18 -39 43 -26 17 9 19 14 9 26 -15 18 -45 18 -52
0z"/>
<path d="M4803 3294 c-9 -24 11 -38 37 -24 17 9 19 14 9 26 -15 19 -38 18 -46
-2z"/>
<path d="M103 3164 c-9 -24 11 -38 36 -25 25 14 27 27 5 35 -25 9 -34 7 -41
-10z"/>
<path d="M4841 3167 c-9 -11 -8 -17 3 -26 18 -15 48 -3 44 18 -4 21 -32 26
-47 8z"/>
<path d="M81 3046 c-10 -11 -11 -23 -5 -37 9 -20 10 -20 27 -2 14 16 15 22 4
37 -12 16 -14 16 -26 2z"/>
<path d="M4875 3040 c-8 -13 3 -50 15 -50 13 0 28 32 23 48 -6 15 -29 16 -38
2z"/>
<path d="M43 2904 c-3 -8 1 -22 9 -30 13 -13 16 -13 27 0 7 9 11 23 7 31 -7
20 -35 19 -43 -1z"/>
<path d="M4894 2905 c-10 -24 12 -42 34 -29 24 16 21 38 -6 42 -13 2 -25 -3
-28 -13z"/>
<path d="M30 2775 c-10 -12 -10 -18 0 -31 12 -13 15 -13 28 0 15 15 10 46 -6
46 -5 0 -15 -7 -22 -15z"/>
<path d="M4917 2783 c-24 -23 12 -55 38 -33 12 10 13 16 4 26 -12 15 -31 18
-42 7z"/>
<path d="M4930 2655 c-9 -11 -11 -22 -4 -32 13 -21 25 -21 38 -1 8 14 7 21 -5
33 -14 15 -17 15 -29 0z"/>
<path d="M20 2645 c-23 -28 21 -50 48 -23 9 9 7 14 -6 24 -22 17 -27 17 -42
-1z"/>
<path d="M4 2508 c-6 -10 20 -38 37 -38 10 0 20 30 13 41 -8 13 -41 11 -50 -3z"/>
<path d="M4923 2504 c-3 -8 1 -22 9 -30 13 -13 16 -13 27 0 7 9 11 23 7 31 -7
20 -35 19 -43 -1z"/>
<path d="M4931 2386 c-16 -19 -7 -46 14 -46 22 0 30 29 13 46 -13 13 -16 13
-27 0z"/>
<path d="M13 2374 c-10 -26 13 -39 43 -25 26 11 26 12 8 26 -25 19 -43 19 -51
-1z"/>
<path d="M29 2244 c-15 -18 0 -38 27 -32 25 5 28 25 6 37 -15 8 -23 7 -33 -5z"/>
<path d="M4919 2244 c-15 -18 0 -38 27 -32 25 5 28 25 6 37 -15 8 -23 7 -33
-5z"/>
<path d="M43 2104 c-3 -8 1 -22 9 -30 13 -13 16 -13 27 0 7 9 11 23 7 31 -7
20 -35 19 -43 -1z"/>
<path d="M4893 2104 c-3 -8 1 -22 9 -30 13 -13 16 -13 27 0 7 9 11 23 7 31 -7
20 -35 19 -43 -1z"/>
<path d="M4877 1993 c-11 -10 -8 -41 3 -48 19 -12 41 15 29 36 -10 20 -21 24
-32 12z"/>
<path d="M64 1979 c-3 -6 0 -18 9 -26 12 -12 19 -13 36 -3 18 9 20 14 10 26
-14 17 -45 19 -55 3z"/>
<path d="M100 1850 c-8 -15 -6 -21 9 -29 26 -14 50 12 31 34 -17 20 -27 19
-40 -5z"/>
<path d="M4840 1855 c-11 -13 -11 -19 3 -33 20 -19 41 -5 35 24 -4 24 -22 28
-38 9z"/>
<path d="M140 1725 c-10 -12 -10 -18 0 -30 15 -18 20 -18 44 0 20 15 20 15 0
30 -24 18 -29 18 -44 0z"/>
<path d="M4803 1714 c-10 -27 14 -40 37 -19 16 14 17 20 8 27 -20 12 -38 9
-45 -8z"/>
<path d="M187 1596 c-8 -19 16 -38 37 -30 20 8 21 30 0 38 -24 9 -31 7 -37 -8z"/>
<path d="M4754 1595 c-12 -29 15 -45 45 -26 12 8 12 12 2 25 -17 20 -40 21
-47 1z"/>
<path d="M240 1474 c-11 -12 -10 -18 3 -32 16 -15 18 -15 34 0 13 14 14 20 3
32 -7 9 -16 16 -20 16 -4 0 -13 -7 -20 -16z"/>
<path d="M4707 1483 c-11 -10 -8 -41 4 -49 6 -3 18 1 27 9 13 13 13 19 2 31
-14 17 -23 20 -33 9z"/>
<path d="M3500 1440 c-13 -25 -6 -40 21 -40 23 0 26 32 5 49 -12 10 -17 8 -26
-9z"/>
<path d="M1267 1440 c-80 -24 -137 -108 -138 -202 -1 -90 37 -142 114 -155 58
-9 105 5 149 45 72 65 98 165 63 248 -24 57 -111 87 -188 64z m121 -46 c46
-52 21 -198 -44 -259 -39 -36 -105 -35 -133 1 -31 40 -35 81 -12 154 25 79 44
108 85 126 40 17 75 10 104 -22z"/>
<path d="M1879 1434 c-11 -14 -10 -18 6 -30 16 -12 21 -12 34 0 12 12 12 18 1
30 -16 20 -24 20 -41 0z"/>
<path d="M2319 1434 c-11 -14 -10 -18 5 -29 14 -11 22 -11 37 -2 17 10 17 13
2 29 -20 22 -27 22 -44 2z"/>
<path d="M2570 1425 c-10 -13 -9 -15 10 -15 16 0 20 -4 16 -16 -3 -9 -6 -24
-6 -35 0 -16 -7 -19 -44 -19 -56 0 -104 -32 -133 -90 -29 -55 -29 -100 -2
-134 26 -33 59 -33 97 -1 37 31 39 31 38 3 -1 -18 5 -24 27 -26 27 -3 57 12
57 28 0 5 -9 6 -20 3 -25 -7 -26 -10 10 157 17 77 30 145 30 150 0 16 -66 11
-80 -5z m-16 -111 c34 -13 10 -132 -33 -165 -32 -26 -63 -21 -75 12 -7 20 -3
39 17 83 23 49 34 60 74 75 1 1 8 -2 17 -5z"/>
<path d="M2920 1432 c-53 -3 -98 -22 -53 -22 12 0 24 -4 27 -8 3 -5 -7 -65
-21 -134 -22 -108 -29 -128 -50 -139 -12 -7 -23 -16 -23 -21 0 -12 138 -10
145 2 3 6 0 10 -7 10 -33 1 -38 15 -27 72 l11 56 69 4 c77 4 117 26 132 72 28
85 -34 118 -203 108z m123 -34 c9 -7 19 -25 22 -40 5 -21 1 -33 -19 -52 -14
-15 -35 -26 -48 -26 -13 0 -33 -3 -46 -6 -22 -6 -23 -5 -16 32 13 75 30 104
62 104 15 0 36 -6 45 -12z"/>
<path d="M299 1354 c-9 -11 -8 -18 6 -34 14 -16 20 -17 27 -8 21 34 -8 72 -33
42z"/>
<path d="M4644 1355 c-12 -30 16 -45 46 -25 13 9 12 12 -4 25 -25 19 -35 19
-42 0z"/>
<path d="M1641 1308 l-31 -32 0 27 c0 24 -4 27 -32 27 -18 0 -40 -5 -48 -10
-13 -8 -11 -11 8 -16 12 -4 22 -9 22 -13 0 -3 -12 -60 -26 -126 -17 -83 -32
-127 -46 -142 l-21 -23 61 0 c35 0 62 4 62 10 0 6 -7 10 -15 10 -10 0 -15 11
-15 35 0 35 0 35 44 35 87 0 162 88 153 179 -8 76 -62 94 -116 39z m57 -20
c17 -17 15 -49 -9 -106 -22 -52 -61 -81 -94 -68 -35 13 -2 136 46 170 28 19
41 20 57 4z"/>
<path d="M2045 1330 c-48 -19 -85 -83 -85 -146 0 -26 8 -44 29 -65 95 -95 251
56 186 180 -8 16 -22 31 -30 35 -23 8 -76 7 -100 -4z m89 -32 c14 -23 -7 -144
-30 -169 -9 -10 -30 -19 -46 -19 -24 0 -32 6 -43 34 -13 31 -13 40 5 93 11 32
28 64 38 71 22 17 62 12 76 -10z"/>
<path d="M3214 1321 c-41 -25 -71 -68 -79 -114 -18 -93 42 -148 107 -98 24 19
24 19 36 0 12 -19 37 -24 66 -13 23 9 20 24 -4 24 -11 0 -20 1 -20 3 1 1 11
45 24 97 l24 95 -27 12 c-39 18 -92 15 -127 -6z m97 -13 c10 -107 -94 -230
-129 -153 -9 20 -7 34 13 79 13 30 34 61 47 70 27 19 68 21 69 4z"/>
<path d="M3707 1298 l-40 -42 7 37 c7 37 7 37 -26 37 -29 0 -79 -19 -53 -20
34 -1 36 -16 15 -108 -11 -51 -20 -94 -20 -97 0 -3 11 -5 25 -5 19 0 25 5 25
23 0 51 78 177 110 177 15 0 12 -53 -5 -122 -12 -46 -13 -63 -4 -74 14 -17 51
-18 67 -2 18 18 15 27 -8 21 -24 -6 -24 -12 0 92 23 98 17 125 -27 125 -18 0
-39 -14 -66 -42z"/>
<path d="M1821 1321 c-11 -7 -9 -10 8 -16 13 -4 20 -12 18 -18 -15 -41 -39
-167 -34 -181 8 -20 60 -21 77 -1 10 13 9 15 -9 15 -26 0 -26 -1 4 112 14 51
25 94 25 96 0 6 -77 1 -89 -7z"/>
<path d="M2267 1323 c-4 -3 0 -11 9 -17 14 -10 13 -21 -7 -99 -12 -47 -19 -93
-15 -102 7 -18 57 -20 74 -3 18 18 15 27 -8 21 -11 -3 -20 -2 -20 2 0 7 36
154 46 188 4 14 -1 17 -34 17 -21 0 -42 -3 -45 -7z"/>
<path d="M3440 1320 c-12 -8 -11 -11 8 -16 13 -4 21 -12 19 -18 -15 -40 -39
-166 -34 -180 8 -20 47 -21 73 -1 19 14 18 14 -3 15 -28 0 -28 3 1 118 l24 92
-37 0 c-20 0 -43 -5 -51 -10z"/>
<path d="M365 1240 c-8 -24 1 -40 21 -40 20 0 29 27 14 45 -17 20 -27 19 -35
-5z"/>
<path d="M4574 1235 c-13 -32 23 -48 47 -19 10 13 10 17 -2 25 -21 13 -39 11
-45 -6z"/>
<path d="M4510 1135 c-9 -11 -11 -22 -4 -32 13 -21 25 -21 38 -1 8 14 7 21 -5
33 -14 15 -17 15 -29 0z"/>
<path d="M440 1124 c-11 -12 -11 -18 1 -30 13 -12 18 -12 34 0 16 12 17 16 6
30 -17 20 -25 20 -41 0z"/>
<path d="M515 1020 c-8 -12 3 -50 14 -50 15 0 33 30 27 45 -6 17 -32 20 -41 5z"/>
<path d="M4426 1013 c-9 -22 7 -36 33 -28 25 8 28 30 5 39 -24 9 -31 7 -38
-11z"/>
<path d="M600 915 c-19 -22 5 -48 31 -34 10 5 19 14 19 19 0 5 -9 14 -19 19
-14 8 -22 7 -31 -4z"/>
<path d="M4353 923 c-15 -5 -17 -39 -3 -48 12 -7 50 12 50 25 0 13 -32 28 -47
23z"/>
<path d="M2659 854 c-11 -14 -10 -18 5 -29 14 -11 22 -11 37 -2 17 10 17 13 2
29 -20 22 -27 22 -44 2z"/>
<path d="M3130 863 c-36 -7 -58 -31 -72 -75 -7 -25 -17 -38 -29 -38 -27 0 -34
-21 -9 -27 25 -7 25 -9 -11 -171 -15 -67 -26 -95 -40 -103 -15 -7 -21 -6 -25
6 -9 22 -31 19 -37 -6 -7 -26 34 -44 71 -31 42 14 61 51 86 171 26 119 29 127
60 133 33 5 31 28 -3 28 l-30 0 15 44 c19 54 41 66 66 34 13 -17 20 -20 28
-12 7 7 10 20 8 30 -3 20 -32 26 -78 17z"/>
<path d="M1925 854 c-59 -7 -76 -15 -45 -24 30 -8 30 -19 -6 -171 -22 -93 -28
-108 -52 -120 -26 -13 -23 -14 47 -17 42 -2 79 2 85 8 7 7 4 10 -11 10 -32 0
-35 13 -22 80 11 57 14 61 37 58 23 -3 29 -13 51 -80 l25 -78 43 0 c43 0 58
14 25 24 -10 4 -28 33 -43 74 l-25 68 38 16 c62 27 75 100 24 134 -26 16 -105
25 -171 18z m123 -40 c52 -36 12 -104 -63 -104 -50 0 -47 -7 -29 77 9 45 50
57 92 27z"/>
<path d="M2464 845 c-19 -14 -18 -14 4 -15 12 0 22 -2 22 -4 0 -3 -14 -71 -31
-152 -26 -121 -29 -148 -18 -155 22 -13 55 -11 69 6 10 13 9 15 -9 15 -11 0
-21 3 -21 8 0 4 14 72 30 150 17 79 30 148 30 153 0 14 -54 10 -76 -6z"/>
<path d="M690 814 c-11 -12 -11 -18 1 -30 13 -12 18 -12 34 0 16 12 17 16 6
30 -17 20 -25 20 -41 0z"/>
<path d="M4255 820 c-8 -12 3 -50 14 -50 5 0 14 7 21 15 10 12 10 18 0 30 -14
17 -26 19 -35 5z"/>
<path d="M2262 743 c-49 -24 -75 -68 -80 -134 -4 -48 -1 -60 17 -78 28 -28 94
-28 140 0 38 23 37 34 -3 19 -42 -15 -93 -13 -100 6 -16 41 -7 52 62 74 72 24
92 41 92 76 0 51 -63 70 -128 37z m78 -27 c0 -40 -43 -76 -90 -76 l-20 0 20
39 c10 22 25 41 32 44 26 11 58 7 58 -7z"/>
<path d="M2825 744 c-46 -24 -63 -43 -81 -90 -31 -81 1 -144 74 -144 39 0 102
24 102 39 0 13 4 14 -52 -3 -51 -16 -71 -9 -82 30 -8 27 4 36 76 57 65 20 88
39 88 71 0 51 -65 72 -125 40z m75 -21 c-1 -45 -42 -83 -90 -83 -26 0 -25 7 5
53 20 29 32 37 55 37 17 0 30 -3 30 -7z"/>
<path d="M2608 743 c-24 -6 -23 -23 2 -23 24 0 24 7 -1 -95 -12 -47 -19 -91
-15 -100 7 -20 60 -20 76 0 10 13 9 15 -9 15 -11 0 -21 3 -21 6 0 6 37 156 46
187 4 14 -1 17 -28 16 -18 -1 -41 -3 -50 -6z"/>
<path d="M787 723 c-11 -10 -8 -41 5 -49 17 -11 40 26 27 43 -13 14 -22 16
-32 6z"/>
<path d="M4157 717 c-3 -7 2 -22 10 -32 14 -19 15 -19 28 -2 7 11 11 25 8 33
-7 18 -39 18 -46 1z"/>
<path d="M882 627 c-9 -10 -8 -18 3 -33 13 -16 16 -17 25 -4 21 31 -5 65 -28
37z"/>
<path d="M4060 621 c0 -27 15 -34 40 -21 17 9 19 14 9 26 -17 21 -49 18 -49
-5z"/>
<path d="M984 546 c-3 -8 0 -24 6 -36 11 -21 12 -21 25 -3 19 24 18 40 -1 47
-22 8 -24 8 -30 -8z"/>
<path d="M3956 551 c-19 -31 30 -55 53 -27 10 12 8 17 -8 25 -24 13 -38 14
-45 2z"/>
<path d="M1091 466 c-18 -21 11 -41 39 -26 17 9 19 14 9 26 -15 18 -33 18 -48
0z"/>
<path d="M3851 467 c-9 -11 -8 -17 3 -26 18 -15 48 -3 44 18 -4 21 -32 26 -47
8z"/>
<path d="M1204 395 c-12 -30 16 -45 46 -25 13 9 12 12 -4 25 -25 19 -35 19
-42 0z"/>
<path d="M3741 396 c-10 -12 -10 -19 2 -36 12 -18 16 -18 26 -6 14 17 11 48
-5 53 -6 2 -17 -3 -23 -11z"/>
<path d="M1314 329 c-3 -6 0 -18 9 -26 12 -12 18 -13 35 -2 16 10 18 16 10 26
-13 16 -44 17 -54 2z"/>
<path d="M3620 323 c0 -10 5 -25 10 -33 8 -13 11 -13 26 2 9 9 14 24 11 32 -9
22 -47 21 -47 -1z"/>
<path d="M3512 288 c-15 -15 -15 -45 -1 -54 6 -3 18 0 26 9 14 13 14 18 1 36
-11 16 -17 18 -26 9z"/>
<path d="M1439 274 c-10 -12 -9 -18 3 -31 14 -14 19 -14 37 -1 17 12 19 17 9
25 -27 21 -36 22 -49 7z"/>
<path d="M1564 215 c-4 -9 -2 -21 3 -26 14 -14 45 1 41 20 -4 22 -37 26 -44 6z"/>
<path d="M3381 217 c-8 -10 -7 -19 4 -33 15 -19 15 -19 30 0 11 14 12 23 4 33
-6 7 -15 13 -19 13 -4 0 -13 -6 -19 -13z"/>
<path d="M3260 180 c-15 -28 5 -57 26 -39 18 15 18 33 0 48 -12 10 -17 8 -26
-9z"/>
<path d="M1690 175 c-9 -11 -11 -22 -4 -32 13 -21 25 -21 38 -1 8 14 7 21 -5
33 -14 15 -17 15 -29 0z"/>
<path d="M1817 143 c-12 -11 -7 -41 7 -46 8 -3 22 1 33 8 17 13 17 14 -2 29
-23 17 -29 19 -38 9z"/>
<path d="M3130 134 c-11 -12 -10 -18 3 -32 16 -15 18 -15 34 0 13 14 14 20 3
32 -16 20 -24 20 -40 0z"/>
<path d="M1937 96 c-9 -23 18 -39 43 -26 17 9 19 14 9 26 -15 18 -45 18 -52 0z"/>
<path d="M2994 99 c-3 -6 1 -18 10 -27 15 -15 17 -15 32 0 19 19 11 38 -16 38
-10 0 -22 -5 -26 -11z"/>
<path d="M2075 80 c-7 -23 1 -40 20 -40 21 0 27 17 15 40 -14 25 -27 26 -35 0z"/>
<path d="M2870 80 c-14 -26 0 -46 24 -37 20 8 21 31 2 46 -12 10 -17 8 -26 -9z"/>
<path d="M2205 60 c-8 -24 1 -40 21 -40 20 0 29 27 14 45 -17 20 -27 19 -35
-5z"/>
<path d="M2605 50 c-8 -24 1 -40 21 -40 20 0 29 27 14 45 -17 20 -27 19 -35
-5z"/>
<path d="M2733 54 c-3 -8 1 -22 9 -30 13 -13 16 -13 27 0 7 9 11 23 7 31 -7
20 -35 19 -43 -1z"/>
<path d="M2336 43 c-11 -26 10 -38 41 -24 27 12 27 13 8 27 -25 19 -41 18 -49
-3z"/>
<path d="M2471 46 c-8 -9 -7 -18 3 -31 15 -21 36 -12 36 15 0 22 -25 33 -39
16z"/>
</g>
</svg>
