<?xml version="1.0" standalone="no"?>
<!DOCTYPE svg PUBLIC "-//W3C//DTD SVG 20010904//EN"
 "http://www.w3.org/TR/2001/REC-SVG-20010904/DTD/svg10.dtd">
<svg version="1.0" xmlns="http://www.w3.org/2000/svg"
 width="499.000000pt" height="500.000000pt" viewBox="0 0 499.000000 500.000000"
 preserveAspectRatio="xMidYMid meet">
<metadata>
Created by potrace 1.15, written by Peter Selinger 2001-2017
</metadata>
<g transform="translate(0.000000,500.000000) scale(0.100000,-0.100000)"
fill="#000000" stroke="none">
<path d="M2341 4972 c-8 -15 -7 -23 5 -33 18 -15 38 0 32 27 -5 25 -25 28 -37
6z"/>
<path d="M2481 4976 c-13 -16 -7 -56 9 -56 19 0 30 37 17 55 -12 15 -14 15
-26 1z"/>
<path d="M2205 4960 c-8 -24 1 -40 21 -40 20 0 29 27 14 45 -17 20 -27 19 -35
-5z"/>
<path d="M2603 4964 c-8 -22 11 -37 36 -29 25 8 28 30 5 39 -25 9 -34 7 -41
-10z"/>
<path d="M2742 4958 c-13 -13 2 -38 23 -38 21 0 36 25 23 38 -7 7 -17 12 -23
12 -6 0 -16 -5 -23 -12z"/>
<path d="M2073 4934 c-3 -8 1 -22 9 -30 13 -13 16 -13 27 0 7 9 11 23 7 31 -7
20 -35 19 -43 -1z"/>
<path d="M2873 4934 c-9 -24 11 -38 37 -24 17 9 19 14 9 26 -15 19 -38 18 -46
-2z"/>
<path d="M1953 4923 c-16 -6 -17 -39 -2 -49 6 -3 18 1 27 10 14 14 14 18 2 30
-8 7 -21 12 -27 9z"/>
<path d="M3001 4917 c-8 -10 -7 -19 4 -33 13 -18 15 -18 31 -2 14 14 15 20 4
32 -15 19 -24 20 -39 3z"/>
<path d="M1820 4885 c-9 -11 -11 -22 -4 -32 13 -21 25 -21 38 -1 8 14 7 21 -5
33 -14 15 -17 15 -29 0z"/>
<path d="M3143 4893 c-16 -6 -17 -39 -2 -49 6 -3 18 1 27 10 14 14 14 18 2 30
-8 7 -21 12 -27 9z"/>
<path d="M1691 4856 c-16 -19 -7 -46 14 -46 22 0 30 29 13 46 -13 13 -16 13
-27 0z"/>
<path d="M3257 4849 c-14 -8 -16 -14 -6 -25 14 -17 35 -18 45 -3 11 18 -18 39
-39 28z"/>
<path d="M1565 4800 c-9 -15 5 -52 18 -47 6 2 15 11 21 20 8 13 7 20 -4 27
-19 12 -27 12 -35 0z"/>
<path d="M3384 4795 c-12 -29 15 -45 45 -26 12 8 12 12 2 25 -17 20 -40 21
-47 1z"/>
<path d="M1440 4750 c-13 -24 -5 -40 20 -40 23 0 31 21 15 43 -16 22 -22 21
-35 -3z"/>
<path d="M3500 4745 c-15 -18 -5 -35 20 -35 23 0 32 13 24 34 -8 20 -28 21
-44 1z"/>
<path d="M1323 4689 c-27 -27 13 -51 47 -29 13 8 12 11 -5 24 -24 19 -28 19
-42 5z"/>
<path d="M3626 4684 c-3 -8 -1 -24 5 -35 8 -16 13 -18 25 -8 19 15 18 45 -2
53 -21 8 -21 8 -28 -10z"/>
<path d="M1205 4620 c-8 -12 3 -50 14 -50 15 0 33 30 27 45 -6 17 -32 20 -41
5z"/>
<path d="M3747 4623 c-11 -10 -8 -41 5 -49 17 -11 40 26 27 43 -13 14 -22 16
-32 6z"/>
<path d="M1090 4545 c-11 -13 -11 -19 3 -33 20 -19 41 -5 35 24 -4 24 -22 28
-38 9z"/>
<path d="M3845 4546 c-19 -14 -19 -15 8 -27 24 -11 30 -11 38 2 20 32 -12 50
-46 25z"/>
<path d="M989 4476 c-14 -31 -2 -50 24 -40 21 8 21 23 2 48 -14 18 -15 18 -26
-8z"/>
<path d="M3957 4466 c-9 -23 18 -39 43 -26 17 9 19 14 9 26 -15 18 -45 18 -52
0z"/>
<path d="M881 4391 c-8 -14 -7 -22 5 -32 20 -16 38 2 29 30 -8 26 -21 27 -34
2z"/>
<path d="M4071 4391 c-16 -10 -8 -41 11 -41 7 0 19 4 27 9 12 8 12 12 2 25
-15 18 -21 19 -40 7z"/>
<path d="M1876 4320 c-81 -25 -130 -136 -95 -214 13 -27 64 -56 99 -56 70 0
142 77 144 154 1 55 -18 91 -59 111 -37 17 -47 17 -89 5z m74 -20 c43 -23 29
-161 -21 -211 -26 -26 -73 -24 -99 4 -18 18 -20 29 -15 67 18 118 72 174 135
140z"/>
<path d="M3091 4321 c-11 -7 -11 -9 0 -13 12 -4 11 -19 -3 -90 -10 -47 -18
-100 -18 -117 0 -27 3 -31 28 -30 15 0 21 3 15 6 -18 7 -16 28 7 125 25 104
25 128 3 128 -10 0 -24 -4 -32 -9z"/>
<path d="M787 4313 c-11 -10 -8 -41 3 -48 19 -12 41 15 29 36 -10 20 -21 24
-32 12z"/>
<path d="M2457 4314 c-9 -10 2 -24 19 -24 8 0 14 7 14 15 0 15 -21 21 -33 9z"/>
<path d="M4165 4300 c-8 -24 1 -40 21 -40 20 0 29 27 14 45 -17 20 -27 19 -35
-5z"/>
<path d="M2320 4265 c-17 -18 -24 -39 -27 -82 -2 -32 -5 -71 -6 -88 -2 -27 1
-30 27 -30 16 0 31 5 33 12 3 7 -3 9 -17 6 -14 -4 -19 -1 -16 8 3 8 10 40 16
72 9 46 15 57 31 57 10 0 19 5 19 10 0 6 -7 10 -16 10 -12 0 -15 7 -12 25 6
32 -2 32 -32 0z"/>
<path d="M2144 4228 c-23 -18 -27 -19 -21 -5 5 14 0 17 -28 17 -19 0 -35 -4
-35 -10 0 -5 7 -10 15 -10 11 0 14 -7 10 -22 -2 -13 -12 -54 -20 -93 -9 -38
-23 -77 -32 -87 -15 -17 -14 -18 33 -18 40 1 46 3 34 13 -26 20 -12 44 30 51
77 12 127 94 95 155 -19 37 -42 39 -81 9z m54 -38 c3 -35 -38 -104 -66 -108
-36 -5 -39 25 -7 85 22 42 32 53 49 51 14 -2 22 -11 24 -28z"/>
<path d="M2611 4224 c-20 -25 -21 -26 -21 -5 0 17 -6 21 -35 21 -19 0 -35 -4
-35 -10 0 -5 7 -10 15 -10 17 0 18 -11 6 -60 -22 -84 -22 -90 -6 -90 10 0 26
23 42 58 44 98 80 124 70 50 -4 -24 -9 -58 -13 -75 -12 -58 19 -38 49 31 28
63 61 105 70 89 2 -4 -2 -37 -9 -73 -12 -56 -12 -67 1 -79 11 -11 19 -12 37
-3 20 9 20 11 4 11 -16 1 -18 6 -11 44 5 23 9 60 9 82 1 34 -2 40 -21 43 -14
2 -32 -6 -47 -23 l-24 -25 -6 25 c-9 34 -48 34 -75 -1z"/>
<path d="M2879 4219 c-31 -33 -45 -84 -35 -124 8 -32 51 -44 74 -22 15 15 17
15 34 0 14 -13 23 -14 40 -5 19 9 20 11 5 11 -13 1 -17 7 -13 19 2 9 10 43 17
75 15 68 9 77 -54 77 -31 0 -45 -7 -68 -31z m91 -9 c0 -28 -40 -111 -57 -117
-8 -3 -22 1 -30 10 -13 13 -14 21 -4 48 19 54 39 79 66 79 18 0 25 -5 25 -20z"/>
<path d="M2405 4230 c-3 -5 1 -10 11 -10 13 0 15 -6 10 -27 -3 -16 -9 -49 -12
-75 l-7 -48 34 1 c19 1 26 3 17 6 -22 5 -22 2 1 91 l19 72 -33 0 c-19 0 -37
-4 -40 -10z"/>
<path d="M4259 4204 c-10 -12 -9 -18 4 -32 16 -15 18 -15 37 4 l21 20 -25 12
c-20 9 -27 8 -37 -4z"/>
<path d="M684 4199 c-3 -6 1 -18 10 -27 15 -15 17 -15 32 0 19 19 11 38 -16
38 -10 0 -22 -5 -26 -11z"/>
<path d="M4351 4116 c-14 -16 -4 -46 14 -46 19 0 27 17 20 40 -7 23 -18 25
-34 6z"/>
<path d="M601 4106 c-19 -22 4 -62 25 -45 17 14 15 50 -2 56 -6 2 -16 -3 -23
-11z"/>
<path d="M4431 4001 c-8 -14 -7 -22 4 -31 22 -19 48 5 34 31 -5 10 -14 19 -19
19 -5 0 -14 -9 -19 -19z"/>
<path d="M517 4003 c-24 -23 12 -55 38 -33 12 10 13 16 4 26 -12 15 -31 18
-42 7z"/>
<path d="M434 3885 c-4 -9 0 -24 10 -33 15 -15 18 -15 26 -2 6 8 9 22 7 30 -3
21 -36 25 -43 5z"/>
<path d="M4505 3890 c-7 -11 12 -50 24 -50 10 0 21 24 21 46 0 16 -36 19 -45
4z"/>
<path d="M1251 3871 c-48 -25 -81 -85 -81 -144 0 -40 5 -54 29 -78 37 -36 105
-41 142 -9 l24 20 -28 -10 c-89 -32 -143 21 -117 114 19 70 49 99 101 100 41
1 44 -1 47 -27 2 -16 8 -27 15 -24 17 5 21 58 5 68 -23 15 -102 9 -137 -10z"/>
<path d="M1910 3880 c0 -5 7 -10 16 -10 12 0 15 -6 10 -22 -3 -13 -6 -25 -6
-29 0 -3 -16 -5 -36 -6 -48 -1 -86 -31 -103 -81 -25 -69 12 -119 67 -91 15 7
30 15 35 17 4 2 7 -3 7 -12 0 -18 45 -23 55 -6 3 6 -1 10 -10 10 -11 0 -14 7
-10 23 9 41 45 211 45 214 0 2 -16 3 -35 3 -19 0 -35 -4 -35 -10z m10 -95 c10
-11 6 -25 -20 -69 -37 -66 -47 -73 -67 -53 -13 13 -13 21 -3 53 25 78 60 105
90 69z"/>
<path d="M2194 3876 c-94 -42 -124 -191 -48 -241 28 -18 93 -20 129 -3 28 12
35 34 8 23 -10 -4 -34 -9 -54 -12 -29 -4 -41 -1 -59 17 -19 19 -22 30 -17 75
7 68 29 109 66 124 46 19 75 11 79 -22 2 -16 8 -27 15 -24 12 4 30 58 22 66
-12 12 -113 10 -141 -3z"/>
<path d="M2380 3881 c0 -5 5 -11 11 -13 8 -3 6 -33 -10 -104 -28 -131 -28
-134 8 -134 17 0 33 5 36 10 3 6 -3 10 -13 10 -19 0 -19 3 4 108 30 136 30
132 -6 132 -16 0 -30 -4 -30 -9z"/>
<path d="M3284 3879 c-10 -17 13 -36 27 -22 12 12 4 33 -11 33 -5 0 -12 -5
-16 -11z"/>
<path d="M1444 3786 c-28 -28 -34 -41 -34 -78 0 -67 45 -99 104 -74 76 32 96
145 30 175 -41 18 -64 13 -100 -23z m97 -7 c21 -40 -19 -139 -56 -139 -18 0
-47 43 -41 61 2 8 7 26 10 41 12 55 65 77 87 37z"/>
<path d="M1718 3790 c-16 -17 -31 -30 -32 -30 -2 0 -1 11 2 25 5 27 -3 29 -48
15 -19 -6 -20 -8 -6 -9 16 -1 18 -6 12 -38 -18 -107 -19 -126 -6 -121 7 2 21
26 31 53 10 28 30 64 43 80 24 30 25 30 40 10 8 -11 16 -15 16 -8 0 6 3 18 6
26 11 29 -27 27 -58 -3z"/>
<path d="M2523 3805 c-61 -26 -88 -131 -43 -167 21 -17 24 -17 47 -2 18 11 28
13 36 5 13 -13 57 -15 57 -2 0 5 -5 11 -12 13 -8 3 -7 22 6 73 9 37 13 71 9
75 -17 16 -69 19 -100 5z m61 -21 c7 -18 -29 -107 -50 -125 -18 -15 -44 5 -44
33 0 25 36 95 52 101 24 10 36 7 42 -9z"/>
<path d="M2769 3788 l-30 -33 6 28 c5 19 3 27 -6 26 -35 -2 -44 -14 -44 -64 0
-27 -4 -65 -9 -83 -15 -61 20 -33 61 48 46 89 69 104 60 39 -3 -24 -9 -61 -13
-81 -11 -63 13 -45 51 37 29 65 56 97 70 84 2 -2 -3 -31 -11 -64 -7 -33 -11
-68 -8 -77 6 -20 31 -23 54 -8 12 8 11 10 -7 10 -21 0 -21 1 -7 53 7 28 14 64
14 80 0 23 -4 27 -28 27 -16 0 -37 -9 -47 -20 l-19 -21 -13 26 c-18 34 -38 32
-74 -7z"/>
<path d="M3095 3794 c-24 -26 -25 -26 -25 -5 0 23 -3 24 -38 14 -17 -4 -20 -8
-11 -14 10 -6 9 -26 -5 -101 -10 -51 -23 -99 -28 -105 -8 -10 -1 -13 33 -12
24 1 36 3 27 6 -19 5 -23 20 -10 39 4 6 25 14 46 17 69 11 113 76 95 141 -15
52 -47 60 -84 20z m49 -26 c13 -21 -29 -115 -56 -123 -40 -13 -50 23 -22 78
33 65 56 79 78 45z"/>
<path d="M3438 3790 c-16 -16 -31 -30 -32 -30 -2 0 -1 11 2 25 5 26 1 28 -36
18 -16 -4 -20 -8 -11 -13 10 -7 10 -23 0 -80 -6 -40 -10 -75 -7 -77 10 -11 26
10 52 67 14 32 35 67 47 77 20 18 20 18 14 -42 -4 -33 -8 -69 -9 -80 -2 -14 4
-21 21 -23 13 -2 28 1 34 7 8 8 6 11 -6 11 -21 0 -20 -6 -1 76 14 64 14 69 -2
81 -25 18 -32 17 -66 -17z"/>
<path d="M3614 3801 c-43 -26 -69 -92 -54 -136 13 -41 39 -48 79 -24 35 21 36
20 17 -26 -18 -42 -57 -56 -85 -31 -17 16 -19 16 -24 -3 -4 -17 1 -21 38 -27
77 -11 96 10 125 142 18 84 18 86 -1 105 -24 24 -55 24 -95 0z m71 -21 c7 -22
-24 -98 -48 -119 -14 -11 -20 -11 -32 -1 -20 17 -19 43 5 89 26 53 63 68 75
31z"/>
<path d="M3246 3801 c-16 -6 -17 -8 -4 -13 14 -6 14 -13 0 -72 -14 -59 -14
-68 -1 -82 9 -8 23 -12 32 -8 21 8 22 24 3 24 -12 0 -11 13 5 73 10 39 19 75
19 80 0 9 -29 8 -54 -2z"/>
<path d="M365 3780 c-8 -12 3 -50 14 -50 15 0 33 30 27 45 -6 17 -32 20 -41 5z"/>
<path d="M4577 3776 c-3 -8 0 -20 8 -26 19 -16 59 8 43 27 -14 17 -45 17 -51
-1z"/>
<path d="M301 3666 c-18 -22 4 -62 25 -45 18 15 18 33 0 48 -10 9 -16 8 -25
-3z"/>
<path d="M4649 3664 c-16 -20 2 -38 30 -29 26 8 27 21 2 34 -14 8 -22 7 -32
-5z"/>
<path d="M240 3544 c-11 -12 -10 -18 3 -31 15 -15 18 -15 37 2 19 17 19 19 2
31 -22 17 -27 17 -42 -2z"/>
<path d="M4712 3548 c-27 -27 -3 -54 31 -36 22 11 22 25 -1 37 -13 7 -23 6
-30 -1z"/>
<path d="M184 3419 c-3 -6 1 -18 10 -27 15 -15 17 -15 32 0 19 19 11 38 -16
38 -10 0 -22 -5 -26 -11z"/>
<path d="M4754 3419 c-3 -6 0 -18 9 -26 12 -12 18 -13 35 -2 16 10 18 16 10
26 -13 16 -44 17 -54 2z"/>
<path d="M144 3303 c-14 -24 -7 -43 16 -43 10 0 20 6 23 13 5 14 -10 47 -21
47 -4 0 -12 -8 -18 -17z"/>
<path d="M4806 3294 c-12 -31 13 -44 44 -24 13 9 12 12 -4 25 -25 19 -32 19
-40 -1z"/>
<path d="M2995 3233 c-27 -8 -80 -35 -116 -59 -75 -49 -97 -53 -138 -23 -30
22 -126 49 -176 49 -37 0 -123 -40 -149 -69 -26 -29 -48 -27 -110 15 -125 83
-264 84 -307 2 -6 -13 -13 -25 -15 -27 -2 -2 -21 11 -43 28 -47 38 -100 61
-139 61 -15 0 -68 -13 -117 -30 -98 -33 -140 -37 -164 -16 -23 21 -106 46
-150 46 -20 0 -70 -9 -111 -19 -57 -15 -79 -17 -99 -9 -24 11 -62 17 -206 33
-104 12 -219 -46 -252 -126 -18 -46 -37 -53 -98 -38 -27 7 -76 9 -118 6 -75
-6 -230 -37 -223 -44 2 -3 40 3 83 13 109 24 218 23 271 -3 l41 -20 36 24 c23
15 35 32 35 46 0 30 53 80 110 106 58 26 116 27 159 0 25 -15 43 -19 71 -14
33 6 43 2 72 -24 l35 -30 23 24 c70 75 269 49 338 -44 12 -17 26 -31 30 -31 4
0 15 14 24 31 24 41 94 71 168 70 70 0 118 -22 175 -80 45 -48 55 -50 55 -16
0 29 1 29 34 14 24 -11 56 -62 56 -89 0 -8 -15 -11 -45 -8 -25 2 -45 0 -45 -4
0 -7 55 -48 107 -79 36 -21 41 -39 18 -63 -22 -22 -37 -12 -65 42 -31 58 -56
63 -53 10 1 -21 0 -38 -2 -38 -3 0 -21 32 -41 72 -62 122 -81 148 -132 170
l-46 21 -80 -23 c-117 -32 -111 -29 -99 -41 6 -6 52 -16 101 -23 50 -7 98 -19
106 -26 11 -8 16 -30 16 -66 0 -46 4 -57 35 -90 34 -35 36 -36 85 -30 49 7 51
6 40 -13 -18 -34 -68 -54 -119 -48 -45 5 -80 33 -132 108 -22 31 -35 18 -19
-20 6 -16 9 -39 5 -51 -10 -32 -64 -52 -106 -40 -19 6 -67 10 -107 10 -89 0
-131 16 -168 65 -48 63 -96 115 -105 115 -5 0 -6 -17 -3 -39 6 -36 4 -39 -22
-45 -23 -6 -49 3 -134 46 -58 29 -109 55 -114 57 -5 2 -6 -5 -2 -15 4 -11 10
-34 13 -51 6 -33 5 -33 -34 -33 -34 0 -39 -3 -39 -22 1 -17 -7 -24 -32 -32
-22 -6 -42 -22 -58 -47 -13 -21 -34 -44 -46 -50 -28 -15 -132 -17 -253 -5 -59
5 -87 5 -80 -1 15 -15 233 -35 284 -27 29 5 67 24 119 62 88 63 195 122 222
122 10 0 46 -7 81 -16 59 -15 84 -15 120 0 11 5 33 -7 68 -37 59 -51 91 -62
218 -77 95 -12 111 -10 176 17 34 15 42 15 96 -2 83 -25 140 -15 187 32 33 32
39 35 78 29 37 -6 47 -3 80 23 36 29 39 29 62 14 13 -8 24 -19 24 -23 0 -5 25
-20 55 -35 30 -14 55 -30 55 -35 0 -20 65 -50 108 -50 55 0 102 25 179 94 33
31 69 56 78 56 9 0 35 -15 57 -34 60 -52 104 -69 184 -72 40 -2 100 -13 135
-25 119 -40 236 -8 333 90 l49 49 41 -18 c22 -10 53 -21 68 -24 16 -4 39 -24
62 -56 47 -66 84 -84 152 -75 40 5 60 2 86 -11 100 -52 345 -6 453 84 27 22
35 24 95 19 l65 -6 -40 19 c-77 36 -104 35 -175 -5 -168 -93 -210 -109 -290
-109 -53 -1 -84 4 -107 17 -21 11 -54 17 -97 17 -61 0 -67 2 -101 35 -21 22
-39 53 -46 80 -12 48 -19 54 -39 30 -23 -27 -61 -18 -101 26 l-37 40 -26 -43
c-56 -96 -147 -151 -247 -150 -59 1 -120 21 -151 49 -17 15 -20 15 -38 -2 -42
-38 -182 12 -245 89 -41 50 -59 57 -75 26 -6 -11 -20 -20 -30 -20 -14 0 -20
-7 -20 -24 0 -40 -121 -126 -176 -126 -36 0 -78 30 -98 69 -13 23 -19 27 -50
23 -35 -4 -37 -2 -57 43 -17 39 -23 44 -35 34 -24 -20 -84 46 -91 99 -5 39 -4
42 19 42 34 0 95 -48 153 -120 85 -106 146 -118 225 -44 14 12 43 31 65 41
l40 18 -49 3 c-41 3 -53 -1 -75 -22 -14 -13 -38 -28 -53 -31 -23 -6 -28 -4
-28 12 0 10 -10 23 -22 28 -13 6 -24 20 -26 32 -4 25 -77 94 -149 142 -52 35
-121 42 -143 16 -25 -30 -50 -12 -50 36 0 30 55 52 116 46 61 -6 120 -35 174
-84 34 -30 43 -33 55 -23 13 11 21 9 45 -8 36 -27 87 -28 120 -2 29 23 42 24
87 8 37 -14 39 -19 17 -53 -21 -32 -13 -42 39 -50 52 -9 72 -19 120 -61 20
-19 44 -34 52 -34 9 0 26 -7 38 -15 26 -16 131 -36 227 -42 76 -4 64 11 -21
26 -30 5 -72 14 -94 20 -40 10 -75 41 -75 67 0 12 -4 12 -20 4 -29 -15 -58 -4
-75 29 -8 16 -25 35 -39 45 -14 9 -48 36 -75 61 -77 68 -159 73 -226 14 l-35
-31 -10 26 c-5 14 -7 32 -4 40 9 25 69 46 128 46 63 0 113 -17 158 -55 20 -17
41 -25 68 -25 21 0 42 -4 45 -10 3 -5 14 -10 23 -10 12 0 13 3 4 12 -22 22
-12 46 36 81 70 51 111 63 163 48 23 -7 61 -14 84 -15 52 -3 87 -25 118 -71
26 -41 47 -52 47 -26 0 11 9 21 23 24 12 3 49 17 82 31 108 46 242 31 301 -35
12 -13 32 -48 45 -78 l23 -54 20 25 c21 25 22 25 121 16 124 -12 178 -2 297
53 107 49 174 55 212 20 41 -38 224 -24 251 20 6 9 2 10 -16 5 -13 -3 -54 -12
-91 -18 -61 -11 -73 -10 -135 10 -104 34 -142 30 -251 -25 -86 -42 -100 -46
-165 -46 -40 0 -105 6 -146 13 -68 11 -77 16 -120 60 -84 86 -218 104 -377 50
l-87 -29 -33 29 c-19 16 -53 34 -76 40 -40 11 -102 26 -138 35 -8 2 -37 -3
-65 -12z"/>
<path d="M107 3173 c-24 -23 12 -55 38 -33 12 10 13 16 4 26 -12 15 -31 18
-42 7z"/>
<path d="M4847 3173 c-11 -10 -8 -41 4 -49 6 -3 18 1 27 9 13 13 13 19 2 31
-14 17 -23 20 -33 9z"/>
<path d="M3029 3150 c-63 -19 -113 -71 -89 -94 9 -8 14 -8 17 2 14 37 95 33
105 -6 3 -11 17 -21 36 -25 22 -5 33 -14 37 -30 7 -28 39 -54 111 -90 93 -47
164 -44 164 6 0 52 20 95 50 107 16 7 39 10 49 7 13 -3 21 1 24 15 6 23 37 18
107 -15 39 -20 47 -29 70 -87 17 -44 33 -68 50 -76 14 -7 50 -25 80 -41 47
-24 67 -28 135 -28 66 0 86 4 115 23 85 54 159 68 252 48 33 -7 48 -4 112 28
41 20 88 36 105 36 26 0 50 15 40 25 -2 2 -52 -5 -111 -14 -104 -17 -109 -17
-135 1 -25 17 -41 18 -153 12 -69 -3 -132 -10 -141 -15 -8 -4 -21 -26 -27 -48
-12 -37 -16 -40 -55 -46 -44 -7 -54 -4 -156 49 -42 22 -85 74 -118 144 -36 76
-133 111 -203 75 -20 -10 -36 -27 -38 -38 -2 -11 -12 -25 -24 -30 -22 -10 -24
-14 -52 -78 l-16 -38 -40 28 c-28 20 -42 38 -46 61 -4 19 -17 40 -30 48 -13 9
-26 25 -30 36 -15 47 -116 72 -195 48z"/>
<path d="M836 3100 c-28 -18 -52 -43 -61 -63 -23 -56 -53 -85 -106 -102 -50
-17 -50 -17 -89 9 -51 34 -71 33 -155 -8 l-70 -34 70 0 c39 1 99 -2 135 -7 59
-7 71 -5 115 18 28 14 59 35 70 47 11 12 42 33 69 47 45 23 53 24 89 12 31
-10 48 -10 84 -1 24 7 49 9 55 6 6 -4 39 -8 73 -9 35 -2 79 -8 99 -15 19 -6
46 -10 58 -8 64 9 -164 98 -252 98 -15 0 -35 9 -45 20 -27 30 -82 26 -139 -10z"/>
<path d="M1295 3115 c-53 -29 -52 -35 7 -35 l56 0 -5 -40 c-6 -44 -9 -42 71
-44 23 -1 31 -7 37 -27 3 -15 21 -54 38 -86 37 -70 81 -98 137 -87 39 7 37 20
-5 29 -43 9 -73 47 -82 105 -11 68 -47 137 -87 168 -43 32 -123 41 -167 17z"/>
<path d="M77 3053 c-11 -10 -8 -41 3 -48 19 -12 41 15 29 36 -10 20 -21 24
-32 12z"/>
<path d="M4874 3035 c-4 -9 0 -24 10 -33 15 -15 18 -15 26 -2 6 8 9 22 7 30
-3 21 -36 25 -43 5z"/>
<path d="M47 2913 c-24 -23 12 -55 38 -33 12 10 13 16 4 26 -12 15 -31 18 -42
7z"/>
<path d="M4900 2904 c-11 -12 -10 -18 3 -32 16 -15 18 -15 34 0 13 14 14 20 3
32 -7 9 -16 16 -20 16 -4 0 -13 -7 -20 -16z"/>
<path d="M30 2784 c-11 -12 -10 -18 3 -32 21 -21 42 -3 32 27 -8 25 -18 27
-35 5z"/>
<path d="M4923 2779 c-16 -16 -5 -39 17 -39 25 0 35 18 20 35 -15 18 -22 19
-37 4z"/>
<path d="M20 2644 c-11 -12 -11 -18 2 -30 13 -13 19 -14 36 -3 20 12 20 15 5
31 -20 22 -27 22 -43 2z"/>
<path d="M4927 2636 c-3 -8 1 -22 8 -33 13 -17 14 -17 29 2 10 14 11 24 4 32
-14 17 -35 16 -41 -1z"/>
<path d="M13 2513 c-20 -8 -15 -31 8 -38 25 -8 44 7 36 29 -6 16 -21 19 -44 9z"/>
<path d="M4931 2507 c-9 -11 -8 -17 4 -27 19 -16 47 -5 43 17 -4 23 -31 28
-47 10z"/>
<path d="M21 2381 c-19 -12 -6 -41 18 -41 26 0 36 17 21 35 -14 17 -20 18 -39
6z"/>
<path d="M4930 2375 c-23 -28 21 -50 48 -23 9 9 7 14 -6 24 -22 17 -27 17 -42
-1z"/>
<path d="M2471 2371 c-10 -7 -12 -21 -8 -53 4 -23 18 -119 32 -213 13 -93 27
-185 29 -202 l5 -33 -52 0 c-29 0 -68 -3 -88 -6 l-37 -6 92 -141 c51 -77 96
-142 102 -144 9 -3 145 232 158 275 7 21 5 22 -68 22 -41 0 -77 3 -79 8 -3 4
12 110 34 236 21 126 36 233 33 237 -4 8 -25 12 -109 24 -16 3 -36 1 -44 -4z"/>
<path d="M24 2239 c-3 -6 0 -17 8 -25 12 -12 17 -12 32 -1 11 8 16 19 12 25
-9 15 -43 15 -52 1z"/>
<path d="M4914 2239 c-3 -6 1 -18 10 -27 15 -15 17 -15 32 0 19 19 11 38 -16
38 -10 0 -22 -5 -26 -11z"/>
<path d="M52 2118 c-17 -17 -15 -35 4 -42 31 -12 47 21 21 43 -10 8 -17 7 -25
-1z"/>
<path d="M4900 2114 c-11 -12 -10 -18 3 -32 16 -15 18 -15 34 0 13 14 14 20 3
32 -7 9 -16 16 -20 16 -4 0 -13 -7 -20 -16z"/>
<path d="M4881 1986 c-16 -19 -8 -46 13 -46 20 0 29 31 13 47 -12 12 -16 12
-26 -1z"/>
<path d="M72 1978 c-8 -8 -9 -15 -1 -25 15 -17 34 -17 48 1 10 12 8 17 -8 25
-24 14 -24 14 -39 -1z"/>
<path d="M4847 1863 c-11 -10 -8 -41 4 -49 6 -3 18 1 27 9 13 13 13 19 2 31
-14 17 -23 20 -33 9z"/>
<path d="M101 1846 c-18 -21 11 -41 39 -26 17 9 19 14 9 26 -15 18 -33 18 -48
0z"/>
<path d="M137 1716 c-9 -23 18 -39 42 -26 25 13 27 26 5 34 -25 10 -41 7 -47
-8z"/>
<path d="M4803 1714 c-3 -8 1 -22 10 -31 14 -14 16 -13 26 6 7 12 9 26 6 31
-10 15 -35 12 -42 -6z"/>
<path d="M190 1595 c-15 -18 -5 -35 20 -35 10 0 22 5 25 10 7 11 -12 40 -25
40 -4 0 -13 -7 -20 -15z"/>
<path d="M4759 1594 c-10 -13 -10 -17 2 -25 32 -20 61 0 39 26 -16 19 -24 19
-41 -1z"/>
<path d="M240 1474 c-11 -12 -11 -18 2 -30 13 -13 19 -14 36 -3 20 12 20 15 5
31 -20 22 -27 22 -43 2z"/>
<path d="M4710 1475 c-9 -11 -11 -22 -4 -32 13 -21 25 -21 38 -1 8 14 7 21 -5
33 -14 15 -17 15 -29 0z"/>
<path d="M300 1360 c-13 -25 -6 -40 21 -40 23 0 26 32 5 49 -12 10 -17 8 -26
-9z"/>
<path d="M4651 1356 c-18 -22 4 -62 25 -45 18 15 18 33 0 48 -10 9 -16 8 -25
-3z"/>
<path d="M3095 1303 c-206 -24 -302 -40 -422 -69 -175 -42 -411 -77 -472 -69
-88 12 -157 27 -276 61 -220 63 -387 78 -545 50 -41 -8 -136 -34 -210 -59
-161 -55 -299 -84 -441 -94 l-104 -7 115 -12 c114 -12 116 -12 205 16 192 61
490 132 575 137 109 7 256 -16 436 -68 75 -21 166 -44 203 -50 84 -14 376 -3
440 17 25 8 94 25 154 39 59 13 136 36 172 50 62 25 71 26 197 20 73 -3 207
-13 298 -21 171 -16 202 -15 525 13 169 14 356 13 398 -2 9 -4 17 -3 17 2 0
13 -228 43 -324 43 -80 0 -234 -12 -406 -32 -82 -9 -114 -8 -235 10 -151 22
-252 30 -300 25z"/>
<path d="M4581 1242 c-8 -15 -7 -23 5 -33 18 -15 38 0 32 27 -5 25 -25 28 -37
6z"/>
<path d="M364 1235 c-12 -29 15 -45 45 -26 12 8 12 12 2 25 -17 20 -40 21 -47
1z"/>
<path d="M1340 1185 c-41 -8 -124 -25 -185 -39 -103 -24 -106 -25 -45 -21 36
3 106 10 155 15 127 14 276 12 449 -5 137 -13 182 -13 145 -1 -8 3 -73 17
-146 31 -172 32 -278 38 -373 20z"/>
<path d="M3895 1179 c-22 -5 -44 -14 -50 -20 -7 -7 -1 -8 20 -3 45 12 229 9
328 -5 48 -7 91 -11 94 -8 3 3 -19 13 -49 22 -63 20 -283 29 -343 14z"/>
<path d="M440 1125 c-19 -22 5 -48 31 -34 10 5 19 14 19 19 0 5 -9 14 -19 19
-14 8 -22 7 -31 -4z"/>
<path d="M545 1130 c3 -5 18 -10 32 -10 32 0 28 5 -10 14 -19 4 -26 3 -22 -4z"/>
<path d="M4510 1124 c-11 -12 -11 -18 1 -30 13 -12 18 -12 34 0 16 12 17 16 6
30 -17 20 -25 20 -41 0z"/>
<path d="M3039 1116 c-2 -2 -123 -30 -268 -61 -214 -45 -274 -55 -320 -50 -39
4 -87 0 -155 -14 -136 -29 -179 -27 -330 17 l-131 37 -210 0 c-198 0 -215 -2
-300 -27 -129 -38 -186 -48 -268 -48 -70 0 -265 -25 -275 -35 -12 -12 8 -13
98 -5 52 5 149 14 215 20 66 6 179 24 250 40 175 40 281 40 526 -1 101 -16
229 -33 284 -36 129 -7 352 22 610 78 165 36 206 42 310 42 108 -1 136 -5 275
-41 199 -52 225 -55 405 -43 204 13 534 42 565 49 39 9 -121 20 -327 22 -165
1 -185 -1 -222 -19 -65 -34 -274 -20 -411 26 -114 38 -303 67 -321 49z"/>
<path d="M521 1026 c-16 -19 -7 -46 14 -46 22 0 30 29 13 46 -13 13 -16 13
-27 0z"/>
<path d="M4431 1017 c-9 -11 -8 -17 4 -27 19 -16 47 -5 43 17 -4 23 -31 28
-47 10z"/>
<path d="M4352 918 c-25 -25 -9 -54 23 -42 9 4 15 15 13 27 -4 25 -19 32 -36
15z"/>
<path d="M594 909 c-3 -6 1 -18 10 -27 15 -15 17 -15 32 0 9 9 13 21 10 27 -9
14 -43 14 -52 0z"/>
<path d="M690 814 c-11 -12 -11 -18 1 -30 13 -12 18 -12 34 0 16 12 17 16 6
30 -17 20 -25 20 -41 0z"/>
<path d="M4260 815 c-15 -18 -5 -35 20 -35 10 0 22 5 25 10 7 11 -12 40 -25
40 -4 0 -13 -7 -20 -15z"/>
<path d="M783 714 c-9 -24 11 -38 37 -24 17 9 19 14 9 26 -15 19 -38 18 -46
-2z"/>
<path d="M4163 714 c-3 -8 1 -22 9 -30 13 -13 16 -13 27 0 7 9 11 23 7 31 -7
20 -35 19 -43 -1z"/>
<path d="M880 620 c0 -26 25 -36 45 -20 12 10 13 16 4 26 -18 22 -49 17 -49
-6z"/>
<path d="M4063 624 c-3 -8 1 -22 9 -30 13 -13 16 -13 27 0 7 9 11 23 7 31 -7
20 -35 19 -43 -1z"/>
<path d="M991 551 c-8 -5 -11 -16 -6 -30 8 -25 18 -27 35 -5 11 12 11 18 -1
29 -9 9 -19 11 -28 6z"/>
<path d="M3962 548 c-13 -13 2 -38 23 -38 21 0 36 25 23 38 -7 7 -17 12 -23
12 -6 0 -16 -5 -23 -12z"/>
<path d="M1091 471 c-13 -23 8 -45 33 -35 19 7 21 25 4 42 -17 17 -26 15 -37
-7z"/>
<path d="M3855 470 c-8 -24 1 -40 21 -40 20 0 29 27 14 45 -17 20 -27 19 -35
-5z"/>
<path d="M1204 395 c-12 -29 15 -45 45 -26 12 8 12 12 2 25 -17 20 -40 21 -47
1z"/>
<path d="M3747 403 c-11 -10 -8 -41 4 -49 6 -3 18 1 27 9 13 13 13 19 2 31
-14 17 -23 20 -33 9z"/>
<path d="M1314 329 c-3 -6 0 -18 9 -26 12 -12 19 -13 36 -3 18 9 20 14 10 26
-14 17 -45 19 -55 3z"/>
<path d="M3624 325 c-10 -24 12 -42 34 -29 24 16 21 38 -6 42 -13 2 -25 -3
-28 -13z"/>
<path d="M1442 278 c-16 -16 -15 -33 4 -49 14 -11 18 -10 30 6 18 25 18 32 -4
44 -13 7 -23 6 -30 -1z"/>
<path d="M3510 275 c-25 -30 10 -61 38 -33 17 17 15 26 -7 37 -14 8 -22 7 -31
-4z"/>
<path d="M1567 233 c-11 -10 -8 -41 3 -48 19 -12 41 15 29 36 -10 20 -21 24
-32 12z"/>
<path d="M3385 220 c-8 -13 3 -50 15 -50 13 0 32 39 25 50 -8 13 -32 13 -40 0z"/>
<path d="M3262 179 c-17 -27 2 -56 24 -38 18 14 18 33 1 47 -10 8 -16 6 -25
-9z"/>
<path d="M1692 178 c-27 -27 -3 -54 31 -36 22 11 22 25 -1 37 -13 7 -23 6 -30
-1z"/>
<path d="M1822 148 c-16 -16 -15 -45 2 -51 23 -9 39 18 26 42 -13 25 -12 25
-28 9z"/>
<path d="M3131 131 c-8 -14 -7 -22 4 -31 13 -10 19 -9 35 5 19 17 19 19 2 31
-23 18 -30 17 -41 -5z"/>
<path d="M3005 110 c-17 -19 -18 -22 -2 -37 15 -15 19 -15 31 -3 12 12 12 19
2 38 l-12 23 -19 -21z"/>
<path d="M1931 96 c-10 -12 -8 -17 10 -26 17 -10 24 -9 36 3 9 8 12 20 9 26
-10 16 -41 14 -55 -3z"/>
<path d="M2075 80 c-7 -23 1 -40 20 -40 21 0 27 17 15 40 -14 25 -27 26 -35 0z"/>
<path d="M2873 79 c-6 -6 -9 -18 -6 -25 7 -18 37 -18 52 0 10 12 8 17 -8 25
-24 14 -24 14 -38 0z"/>
<path d="M2206 64 c-9 -25 19 -53 36 -36 9 9 10 17 2 29 -15 24 -30 27 -38 7z"/>
<path d="M2342 53 c-18 -34 9 -58 36 -31 7 7 8 17 1 30 -12 23 -26 23 -37 1z"/>
<path d="M2741 56 c-18 -22 11 -41 40 -25 22 11 22 12 4 25 -24 17 -30 17 -44
0z"/>
<path d="M2472 48 c-8 -8 -8 -17 -1 -30 14 -26 39 -23 39 6 0 27 -22 40 -38
24z"/>
<path d="M2606 44 c-11 -30 13 -44 43 -25 12 8 12 12 2 25 -17 20 -37 20 -45
0z"/>
</g>
</svg>
