<?xml version="1.0" standalone="no"?>
<!DOCTYPE svg PUBLIC "-//W3C//DTD SVG 20010904//EN"
 "http://www.w3.org/TR/2001/REC-SVG-20010904/DTD/svg10.dtd">
<svg version="1.0" xmlns="http://www.w3.org/2000/svg"
 width="497.000000pt" height="500.000000pt" viewBox="0 0 497.000000 500.000000"
 preserveAspectRatio="xMidYMid meet">
<metadata>
Created by potrace 1.15, written by Peter Selinger 2001-2017
</metadata>
<g transform="translate(0.000000,500.000000) scale(0.100000,-0.100000)"
fill="#000000" stroke="none">
<path d="M2205 4970 c-7 -23 1 -40 20 -40 19 0 25 23 10 43 -16 22 -22 21 -30
-3z"/>
<path d="M2337 4983 c-11 -11 -8 -40 6 -51 19 -16 43 24 26 44 -13 15 -22 18
-32 7z"/>
<path d="M2464 4975 c-12 -29 15 -45 45 -26 12 8 12 12 2 25 -17 20 -40 21
-47 1z"/>
<path d="M2600 4974 c-11 -12 -10 -18 3 -32 16 -15 18 -15 34 0 13 14 14 20 3
32 -7 9 -16 16 -20 16 -4 0 -13 -7 -20 -16z"/>
<path d="M2742 4978 c-21 -21 -15 -50 10 -46 27 4 32 18 16 41 -11 14 -16 15
-26 5z"/>
<path d="M2070 4945 c-23 -28 21 -50 48 -23 9 9 7 14 -6 24 -22 17 -27 17 -42
-1z"/>
<path d="M2871 4946 c-10 -12 -10 -20 0 -37 11 -22 12 -22 25 -4 17 24 17 30
0 44 -10 9 -16 8 -25 -3z"/>
<path d="M1935 4920 c-3 -5 -1 -19 6 -31 10 -19 12 -20 26 -6 9 9 13 23 10 31
-7 18 -32 21 -42 6z"/>
<path d="M2997 4923 c-25 -24 11 -49 40 -28 16 13 16 16 3 25 -17 11 -34 13
-43 3z"/>
<path d="M1813 4884 c-9 -24 11 -38 37 -24 17 9 19 14 9 26 -15 19 -38 18 -46
-2z"/>
<path d="M3127 4893 c-24 -23 12 -55 38 -33 12 10 13 16 4 26 -12 15 -31 18
-42 7z"/>
<path d="M1683 4844 c-9 -24 11 -38 37 -24 17 9 19 14 9 26 -15 19 -38 18 -46
-2z"/>
<path d="M3251 4846 c-14 -17 9 -39 33 -30 20 8 21 30 0 38 -21 8 -20 8 -33
-8z"/>
<path d="M1560 4804 c-11 -12 -11 -18 1 -30 13 -12 18 -12 34 0 16 12 17 16 6
30 -17 20 -25 20 -41 0z"/>
<path d="M3382 4808 c-16 -16 -15 -33 2 -47 22 -18 44 25 24 45 -11 11 -16 12
-26 2z"/>
<path d="M1433 4744 c-3 -8 1 -22 9 -30 13 -13 16 -13 27 0 7 9 11 23 7 31 -7
20 -35 19 -43 -1z"/>
<path d="M3493 4744 c-3 -8 1 -22 9 -30 13 -13 16 -13 27 0 7 9 11 23 7 31 -7
20 -35 19 -43 -1z"/>
<path d="M1314 4689 c-3 -6 1 -18 10 -27 15 -15 17 -15 32 0 19 19 11 38 -16
38 -10 0 -22 -5 -26 -11z"/>
<path d="M3613 4684 c-3 -8 1 -22 9 -30 13 -13 16 -13 27 0 7 9 11 23 7 31 -7
20 -35 19 -43 -1z"/>
<path d="M1207 4633 c-4 -3 -7 -15 -7 -25 0 -20 26 -24 50 -8 13 9 12 12 -4
25 -22 17 -29 18 -39 8z"/>
<path d="M3734 4625 c-12 -31 23 -48 45 -21 10 12 8 17 -8 25 -26 14 -31 14
-37 -4z"/>
<path d="M1089 4559 c-10 -19 -9 -25 6 -35 10 -8 22 -11 26 -8 14 8 10 40 -5
53 -12 10 -17 8 -27 -10z"/>
<path d="M3840 4541 c0 -31 24 -43 38 -20 15 24 8 39 -19 39 -12 0 -19 -7 -19
-19z"/>
<path d="M987 4483 c-11 -10 -8 -41 4 -49 6 -3 18 1 27 9 13 13 13 19 2 31
-14 17 -23 20 -33 9z"/>
<path d="M3953 4479 c-27 -27 13 -51 47 -29 13 8 12 11 -5 24 -24 19 -28 19
-42 5z"/>
<path d="M4060 4395 c-11 -13 -11 -19 1 -31 12 -12 18 -12 33 -1 16 12 16 14
-2 30 -17 16 -20 16 -32 2z"/>
<path d="M874 4389 c-3 -6 0 -17 8 -25 12 -12 17 -12 32 -1 11 8 16 19 12 25
-9 15 -43 15 -52 1z"/>
<path d="M781 4302 c-15 -28 5 -44 35 -30 23 11 23 12 8 30 -21 23 -31 23 -43
0z"/>
<path d="M4163 4313 c-18 -6 -16 -43 1 -43 20 0 46 11 46 19 0 11 -34 28 -47
24z"/>
<path d="M4250 4215 c-15 -18 -6 -45 14 -45 20 0 29 16 21 40 -8 24 -18 25
-35 5z"/>
<path d="M683 4204 c-3 -8 1 -22 9 -30 13 -13 16 -13 27 0 7 9 11 23 7 31 -7
20 -35 19 -43 -1z"/>
<path d="M1101 4108 c-45 -18 -58 -20 -84 -10 -24 9 -33 9 -38 0 -6 -9 -14 -9
-34 0 -26 12 -27 12 -20 -18 7 -34 0 -37 -33 -14 -31 21 -28 5 9 -44 l31 -42
-32 0 c-32 0 -32 0 -16 -25 15 -23 15 -25 1 -25 -12 0 -9 -6 10 -22 15 -14 36
-52 50 -91 41 -119 96 -167 189 -167 43 0 47 -2 66 -40 16 -31 26 -40 46 -40
14 0 39 -11 56 -25 16 -14 36 -25 43 -25 7 0 27 11 43 25 39 33 44 32 36 -10
-9 -49 10 -87 62 -124 36 -27 43 -36 38 -56 -7 -30 12 -65 36 -65 10 0 31 16
46 36 15 19 43 44 63 55 20 11 54 32 76 48 66 46 123 63 225 69 106 5 197 -13
259 -50 57 -35 131 -109 131 -131 0 -11 -25 -48 -56 -83 -31 -35 -53 -64 -50
-64 6 0 161 136 281 247 199 185 404 280 714 334 145 25 174 18 252 -61 43
-45 59 -69 73 -116 53 -178 116 -316 292 -631 198 -356 247 -424 343 -472 68
-35 279 -111 340 -123 31 -6 65 -19 75 -29 20 -18 20 -19 -3 -43 -16 -17 -39
-27 -70 -31 -25 -3 -74 -12 -108 -20 -84 -20 -123 -19 -212 6 -55 15 -89 19
-125 15 -156 -20 -153 -20 -180 7 -22 22 -25 33 -24 98 1 118 -35 170 -195
279 -112 76 -217 192 -267 293 -55 113 -71 180 -79 337 -4 74 -10 128 -14 120
-3 -8 -15 -40 -26 -70 -27 -73 -147 -272 -234 -390 -160 -214 -537 -551 -722
-645 -125 -63 -220 -86 -390 -92 -116 -4 -163 -1 -269 17 -159 27 -286 63
-346 97 -63 37 -246 173 -440 328 -148 119 -259 197 -330 235 -32 16 -34 18
95 -86 61 -48 164 -135 230 -191 258 -223 457 -343 640 -388 322 -79 613 -49
873 92 276 149 652 534 841 862 36 62 62 99 66 90 2 -8 14 -68 25 -134 37
-217 90 -296 334 -500 66 -55 133 -117 150 -138 29 -36 31 -44 31 -123 0 -119
0 -119 178 -119 115 0 151 -4 189 -18 49 -20 80 -20 243 3 93 13 134 27 173
63 47 44 18 67 -118 95 -204 42 -372 133 -457 247 -100 135 -382 675 -468 894
-53 139 -89 191 -160 240 -49 33 -51 33 -130 26 -331 -28 -576 -133 -833 -357
l-102 -90 -58 54 c-80 73 -164 116 -250 127 -38 5 -80 7 -93 5 -94 -13 -120
-12 -130 8 -8 14 -6 31 5 64 68 199 -222 468 -454 424 -52 -10 -56 -9 -72 12
-51 69 -64 82 -94 94 -45 19 -79 17 -143 -8z m108 -45 c12 -10 27 -29 34 -42
16 -32 37 -39 37 -11 0 31 31 22 43 -13 12 -36 -4 -57 -28 -37 -29 24 -25 3 5
-28 32 -34 37 -60 19 -94 -6 -12 -16 -42 -23 -67 -9 -38 -16 -47 -36 -50 -14
-1 -37 -12 -52 -22 -53 -38 -118 -32 -157 15 -10 12 -9 17 8 26 19 10 32 47
14 38 -5 -2 -21 -10 -36 -18 -27 -13 -30 -12 -48 10 -44 55 -50 110 -20 175
25 53 55 80 127 109 71 30 85 31 113 9z m397 -99 c82 -31 132 -69 173 -132 33
-52 81 -171 81 -202 0 -32 -20 -23 -36 17 -25 59 -91 149 -134 184 -22 18 -40
37 -40 42 0 16 -49 76 -71 88 -24 12 -24 12 25 -58 25 -38 27 -46 18 -80 -9
-33 -10 -34 -11 -11 -1 20 -5 26 -17 21 -8 -3 -13 -12 -10 -19 3 -8 9 -21 13
-31 4 -11 3 -14 -5 -9 -6 4 -17 26 -23 49 -6 23 -16 48 -22 55 -21 26 -101 75
-104 65 -5 -13 -83 8 -86 22 -3 13 45 22 119 24 44 1 81 -6 130 -25z m-163
-48 c68 -28 107 -104 93 -181 -9 -45 -79 -115 -116 -115 -20 0 -30 -8 -44 -36
-20 -44 -31 -40 -15 5 6 18 9 34 6 37 -3 3 -10 -11 -17 -30 -6 -20 -16 -36
-22 -36 -6 0 -7 7 -4 16 23 61 16 88 -8 32 l-14 -33 -1 28 c-1 35 47 67 102
67 41 0 46 6 20 25 -15 11 -15 15 5 43 l22 30 -34 22 c-38 23 -51 49 -41 80 5
15 3 18 -9 14 -12 -5 -16 0 -16 20 0 22 4 26 30 26 17 0 45 -6 63 -14z m-63
-129 l28 -24 -35 -42 c-28 -33 -38 -39 -49 -30 -19 16 -18 51 4 88 9 17 19 31
21 31 2 0 16 -10 31 -23z m355 -56 c48 -63 99 -156 93 -171 -2 -5 -41 13 -87
40 -86 50 -109 56 -77 21 17 -19 17 -20 -4 -31 -29 -16 -23 -19 44 -25 57 -5
116 -30 116 -50 0 -10 -160 -120 -160 -109 0 12 24 51 48 77 28 30 22 32 -44
16 -57 -15 -90 -2 -108 43 -18 41 -5 78 40 118 42 36 93 40 142 10 41 -25 42
-10 0 25 -27 23 -39 26 -76 22 -78 -9 -142 -77 -142 -152 0 -57 32 -86 100
-93 27 -2 50 -6 50 -8 0 -15 -46 -74 -61 -79 -10 -4 -19 -15 -19 -25 0 -13 -5
-17 -15 -14 -22 9 -18 27 10 54 36 34 31 40 -18 25 -37 -11 -48 -11 -75 2 -16
8 -36 28 -43 45 -11 27 -10 36 11 77 13 25 37 61 52 79 16 18 34 52 40 76 11
41 13 43 47 42 31 -1 36 3 44 31 8 27 13 31 28 23 10 -6 38 -37 64 -69z m-454
-75 c-12 -12 -21 -30 -21 -39 0 -9 -7 -17 -15 -17 -8 0 -15 6 -15 13 0 15 27
57 49 75 25 20 27 -6 2 -32z m-46 0 c-19 -28 -41 -36 -31 -10 3 9 6 19 6 24 0
8 31 19 38 14 2 -1 -4 -14 -13 -28z"/>
<path d="M1198 3930 c-8 -20 -30 -48 -47 -63 l-33 -27 36 0 c25 0 36 4 36 15
0 8 7 15 16 15 8 0 12 5 8 11 -3 6 -2 14 3 18 5 3 6 20 3 36 l-6 30 -16 -35z"/>
<path d="M1153 3775 c-9 -16 -13 -17 -27 -6 -9 7 -16 9 -16 3 0 -5 7 -15 16
-22 12 -11 18 -11 31 2 8 9 13 22 11 29 -3 10 -8 8 -15 -6z"/>
<path d="M1218 3755 c-20 -27 -22 -35 -9 -35 15 0 41 30 41 46 0 21 -13 17
-32 -11z"/>
<path d="M593 4104 c-3 -8 1 -22 9 -30 13 -13 16 -13 27 0 7 9 11 23 7 31 -7
20 -35 19 -43 -1z"/>
<path d="M4334 4109 c-3 -6 1 -18 10 -27 15 -15 17 -15 34 1 15 16 15 19 2 27
-20 13 -37 12 -46 -1z"/>
<path d="M517 4013 c-24 -23 12 -55 38 -33 12 10 13 16 4 26 -12 15 -31 18
-42 7z"/>
<path d="M4420 4005 c-15 -18 -5 -35 20 -35 10 0 22 5 25 10 7 11 -12 40 -25
40 -4 0 -13 -7 -20 -15z"/>
<path d="M434 3895 c-12 -29 15 -45 45 -26 12 8 12 12 2 25 -17 20 -40 21 -47
1z"/>
<path d="M4501 3901 c-17 -11 -7 -41 12 -41 8 0 20 7 28 16 10 13 10 17 -2 25
-17 11 -21 11 -38 0z"/>
<path d="M364 3785 c-12 -29 15 -45 45 -26 12 8 12 12 2 25 -17 20 -40 21 -47
1z"/>
<path d="M4570 3785 c-22 -26 7 -46 39 -26 12 8 12 12 2 25 -17 20 -25 20 -41
1z"/>
<path d="M296 3664 c-8 -21 -8 -21 10 -28 8 -3 25 -1 37 5 20 11 20 12 2 25
-25 18 -41 18 -49 -2z"/>
<path d="M4633 3664 c-9 -24 11 -38 37 -24 17 9 19 14 9 26 -15 19 -38 18 -46
-2z"/>
<path d="M4697 3563 c-11 -10 -8 -41 4 -49 6 -3 18 1 27 9 13 13 13 19 2 31
-14 17 -23 20 -33 9z"/>
<path d="M241 3546 c-18 -21 11 -41 39 -26 17 9 19 14 9 26 -15 18 -33 18 -48
0z"/>
<path d="M4745 3429 c-7 -20 7 -38 28 -39 14 0 19 30 7 45 -17 21 -27 19 -35
-6z"/>
<path d="M180 3425 c-12 -14 -11 -18 1 -26 22 -14 44 -6 44 16 0 25 -28 31
-45 10z"/>
<path d="M137 3304 c-7 -8 10 -44 21 -44 4 0 16 7 27 16 17 13 18 16 5 24 -17
11 -44 13 -53 4z"/>
<path d="M4793 3294 c-7 -18 11 -39 26 -30 17 11 13 46 -4 46 -9 0 -18 -7 -22
-16z"/>
<path d="M107 3177 c-16 -11 -16 -14 -3 -32 14 -19 16 -19 33 -2 15 15 16 19
2 32 -12 13 -18 13 -32 2z"/>
<path d="M4835 3175 c-20 -15 -20 -15 0 -30 17 -14 21 -14 34 0 14 13 14 17 0
30 -13 14 -17 14 -34 0z"/>
<path d="M75 3049 c-4 -5 -4 -22 0 -36 l6 -26 21 21 c18 17 19 23 8 36 -15 19
-26 20 -35 5z"/>
<path d="M4873 3053 c-17 -6 -16 -40 1 -46 8 -3 22 3 31 13 16 17 16 19 -2 28
-10 5 -24 7 -30 5z"/>
<path d="M280 3025 c0 -4 244 -136 265 -144 7 -2 7 0 0 7 -24 25 -265 150
-265 137z"/>
<path d="M51 2926 c-16 -19 -7 -46 14 -46 22 0 30 29 13 46 -13 13 -16 13 -27
0z"/>
<path d="M4890 2925 c-9 -11 -11 -22 -4 -32 13 -21 25 -21 38 -1 8 14 7 21 -5
33 -14 15 -17 15 -29 0z"/>
<path d="M3130 2845 c0 -8 9 -23 21 -33 28 -24 59 -76 75 -125 l13 -42 0 38
c1 63 -41 141 -91 168 -14 7 -18 6 -18 -6z"/>
<path d="M4910 2791 c-10 -20 -4 -51 10 -51 19 0 31 29 20 49 -13 26 -17 26
-30 2z"/>
<path d="M25 2780 c-3 -5 -1 -19 6 -31 10 -19 12 -20 26 -6 9 9 13 23 10 31
-7 18 -32 21 -42 6z"/>
<path d="M3070 2767 c0 -7 16 -29 36 -48 20 -18 44 -51 55 -71 11 -21 22 -38
24 -38 11 0 -9 57 -38 113 -23 45 -35 57 -53 57 -13 0 -24 -6 -24 -13z"/>
<path d="M3020 2717 c0 -7 23 -30 50 -50 52 -39 57 -40 39 -4 -28 54 -89 91
-89 54z"/>
<path d="M2956 2672 c-3 -4 17 -27 45 -51 39 -34 49 -38 49 -24 0 11 -15 33
-33 51 -33 32 -51 39 -61 24z"/>
<path d="M4921 2656 c-16 -19 -7 -46 14 -46 22 0 30 29 13 46 -13 13 -16 13
-27 0z"/>
<path d="M14 2649 c-3 -6 0 -18 9 -26 12 -12 19 -13 36 -3 18 9 20 14 10 26
-14 17 -45 19 -55 3z"/>
<path d="M2852 2578 c-8 -10 3 -23 45 -52 41 -29 54 -34 51 -21 -1 10 -22 33
-44 51 -33 27 -44 32 -52 22z"/>
<path d="M3072 2515 c-95 -48 -112 -68 -112 -135 0 -25 -8 -30 -92 -65 -108
-44 -264 -123 -280 -142 -8 -10 -5 -13 16 -13 14 0 26 -4 26 -10 0 -5 20 -10
45 -10 37 0 45 -3 45 -19 0 -15 11 -19 69 -24 39 -3 81 -13 94 -22 21 -14 28
-14 60 0 25 10 43 12 60 6 16 -6 40 -6 66 1 32 8 52 8 83 -2 32 -11 44 -11 60
-1 11 7 45 15 75 17 31 3 64 9 75 15 10 5 27 7 38 4 30 -10 151 24 188 52 l35
26 -26 13 c-14 8 -55 18 -90 23 -66 9 -149 40 -161 59 -3 6 3 13 14 17 14 4
30 -2 51 -19 22 -19 42 -26 72 -26 23 0 83 -9 133 -18 50 -10 96 -16 102 -14
7 2 12 17 12 34 0 26 -3 29 -27 28 -44 -3 -48 -2 -88 30 -32 26 -46 30 -96 30
-51 0 -61 3 -75 25 -19 29 -40 31 -89 8 -44 -21 -51 -15 -90 77 -30 69 -56
100 -85 100 -10 0 -58 -20 -108 -45z m123 13 c26 -12 41 -47 32 -72 -3 -8 4
-21 17 -29 13 -9 29 -29 36 -46 14 -35 19 -36 82 -17 50 15 59 12 77 -21 6
-13 18 -23 26 -23 21 0 19 -16 -2 -25 -13 -4 -25 2 -40 21 -20 26 -24 27 -58
17 -22 -7 -46 -8 -59 -3 -33 12 -94 87 -106 128 -17 61 -27 70 -41 39 -8 -19
-18 -26 -29 -22 -11 3 -20 -3 -27 -18 -7 -15 -23 -27 -44 -31 l-32 -6 22 -24
c12 -13 37 -26 55 -29 19 -3 56 -21 83 -41 76 -54 193 -104 283 -119 44 -8 83
-17 86 -20 15 -15 -12 -27 -59 -27 -29 0 -58 -4 -66 -9 -8 -5 -27 -5 -45 0
-22 7 -34 6 -41 -4 -6 -8 -33 -13 -75 -12 -64 0 -65 0 -70 -30 l-6 -30 -31 33
c-34 35 -49 39 -77 17 -23 -17 -62 -20 -71 -5 -10 16 -35 12 -62 -10 -27 -21
-53 -13 -53 16 0 16 -36 19 -45 4 -9 -15 -25 -12 -25 5 0 8 -9 15 -19 15 -11
0 -26 -7 -35 -15 -24 -24 -38 -18 -20 10 14 21 14 26 2 30 -8 3 -27 1 -41 -4
-23 -9 -27 -8 -27 8 0 36 36 61 165 114 106 44 130 57 128 72 -1 11 10 41 25
67 21 36 31 46 45 42 12 -4 25 3 39 21 18 23 48 42 70 44 4 1 19 -4 33 -11z
m-32 -95 c2 -10 8 -26 12 -35 6 -15 3 -16 -25 -8 -44 13 -46 17 -25 40 22 25
31 25 38 3z m439 -136 c21 -35 -31 -35 -63 -1 l-24 27 40 -8 c22 -4 43 -12 47
-18z"/>
<path d="M2999 2314 l-34 -36 32 16 c45 22 50 20 23 -9 -14 -15 -18 -25 -11
-25 10 0 11 -10 7 -33 -12 -66 8 -46 26 25 27 106 15 123 -43 62z"/>
<path d="M3113 2283 c8 -10 17 -34 19 -53 l4 -35 8 28 c10 35 -7 77 -30 77
-16 0 -16 -2 -1 -17z"/>
<path d="M2853 2262 c-29 -14 -53 -30 -53 -34 0 -4 25 4 55 19 30 15 55 31 55
35 0 10 4 12 -57 -20z"/>
<path d="M3245 2240 c28 -11 54 -19 59 -17 15 5 -60 37 -86 37 -16 -1 -8 -7
27 -20z"/>
<path d="M3160 2241 c0 -16 35 -31 72 -31 l33 1 -31 13 c-52 23 -74 28 -74 17z"/>
<path d="M18 2523 c-25 -6 -22 -30 3 -38 25 -8 44 7 36 29 -7 16 -9 17 -39 9z"/>
<path d="M4921 2516 c-10 -12 -10 -19 2 -36 12 -18 16 -18 26 -6 14 17 11 48
-5 53 -6 2 -17 -3 -23 -11z"/>
<path d="M2755 2481 c-3 -5 4 -13 16 -16 12 -4 39 -23 60 -42 52 -47 50 -21
-1 29 -40 38 -63 47 -75 29z"/>
<path d="M2710 2421 c0 -8 102 -71 115 -71 18 0 -22 43 -55 60 -43 22 -60 25
-60 11z"/>
<path d="M20 2390 c-13 -25 3 -52 26 -43 18 7 18 37 0 52 -12 10 -17 8 -26 -9z"/>
<path d="M4919 2387 c-11 -24 -10 -30 1 -37 16 -10 40 -2 40 14 0 7 -6 21 -14
31 -14 19 -15 19 -27 -8z"/>
<path d="M24 2249 c-3 -6 1 -18 10 -27 15 -15 17 -15 34 1 15 16 15 19 2 27
-20 13 -37 12 -46 -1z"/>
<path d="M4907 2253 c-24 -23 12 -55 38 -33 12 10 13 16 4 26 -12 15 -31 18
-42 7z"/>
<path d="M50 2115 c-22 -26 7 -46 39 -26 12 8 12 12 2 25 -17 20 -25 20 -41 1z"/>
<path d="M4883 2114 c-7 -19 20 -49 36 -40 16 11 13 43 -5 50 -22 8 -24 8 -31
-10z"/>
<path d="M71 1986 c-9 -11 -9 -19 1 -35 7 -12 15 -21 18 -21 3 0 11 9 18 21
10 16 10 24 1 35 -6 8 -15 14 -19 14 -4 0 -13 -6 -19 -14z"/>
<path d="M4863 1984 c-9 -23 13 -40 32 -24 12 10 13 16 4 26 -15 18 -28 18
-36 -2z"/>
<path d="M102 1858 c-13 -13 2 -38 23 -38 21 0 36 25 23 38 -7 7 -17 12 -23
12 -6 0 -16 -5 -23 -12z"/>
<path d="M4830 1854 c-11 -12 -11 -18 1 -29 13 -13 18 -13 37 1 22 15 22 17 5
30 -23 17 -28 17 -43 -2z"/>
<path d="M2590 1758 c-44 -12 -62 -28 -32 -28 18 0 21 -4 17 -22 -29 -127 -55
-273 -51 -284 7 -19 61 -17 77 3 13 15 12 16 -8 11 -29 -8 -29 -10 7 168 17
80 30 149 28 153 -2 4 -19 4 -38 -1z"/>
<path d="M1340 1748 c-25 -11 -25 -11 -2 -15 12 -3 22 -6 22 -7 0 -2 -13 -70
-30 -151 -16 -81 -30 -152 -30 -157 0 -5 10 -8 22 -6 18 2 24 12 30 48 13 78
110 192 120 142 2 -9 -3 -52 -12 -94 -9 -43 -14 -82 -10 -88 9 -15 72 -8 78 8
3 9 -3 12 -14 10 -22 -3 -22 -9 2 106 17 86 17 89 -1 102 -30 22 -45 17 -91
-30 -24 -24 -44 -38 -44 -32 0 6 9 48 19 94 l18 82 -26 -1 c-14 0 -37 -5 -51
-11z"/>
<path d="M2154 1749 c-3 -6 1 -18 9 -27 13 -12 19 -13 31 -3 8 7 12 19 9 27
-6 17 -39 19 -49 3z"/>
<path d="M3294 1749 c-3 -6 1 -18 10 -27 15 -15 17 -15 32 0 19 19 11 38 -16
38 -10 0 -22 -5 -26 -11z"/>
<path d="M3955 1745 c-27 -12 -28 -13 -7 -14 12 -1 22 -4 22 -8 -1 -5 -14 -71
-29 -147 -16 -77 -27 -146 -24 -153 7 -19 69 -17 77 3 5 13 2 15 -14 11 -11
-3 -20 -1 -20 4 0 5 14 73 30 151 17 77 30 147 30 155 0 17 -26 16 -65 -2z"/>
<path d="M141 1731 c-16 -28 14 -51 36 -28 13 13 14 19 3 31 -17 21 -27 20
-39 -3z"/>
<path d="M1007 1743 c-14 -13 -6 -23 17 -23 l24 0 -28 -130 c-22 -104 -32
-133 -50 -148 l-24 -19 57 -7 c39 -5 63 -3 79 6 l23 13 -27 3 c-31 4 -33 10
-17 80 l10 50 76 4 c67 3 78 6 99 31 34 40 33 98 -2 126 -23 18 -41 21 -129
21 -56 0 -105 -3 -108 -7z m195 -37 c14 -20 8 -73 -9 -88 -10 -9 -39 -19 -65
-22 -42 -6 -48 -5 -48 11 1 34 21 108 32 114 15 10 81 -2 90 -15z"/>
<path d="M4794 1726 c-8 -22 3 -49 19 -43 6 2 12 14 12 27 0 27 -22 39 -31 16z"/>
<path d="M1893 1640 c-25 -15 -33 -27 -33 -47 0 -37 7 -45 63 -77 47 -28 58
-51 35 -74 -20 -20 -75 -15 -92 9 -16 24 -36 18 -36 -11 0 -23 19 -30 79 -30
113 0 144 95 46 142 -69 34 -71 77 -3 78 16 0 33 -8 42 -21 16 -24 36 -18 36
12 0 40 -84 51 -137 19z"/>
<path d="M2320 1643 c-49 -25 -80 -76 -80 -130 0 -57 14 -81 54 -98 90 -38
192 64 172 169 -12 65 -81 92 -146 59z m79 -19 c20 -15 23 -23 19 -64 -7 -70
-37 -124 -71 -128 -47 -6 -60 14 -53 80 11 109 50 150 105 112z"/>
<path d="M2740 1641 c-37 -20 -80 -88 -80 -128 0 -32 26 -80 49 -93 32 -17 91
-12 122 11 39 28 59 69 59 123 0 59 -7 74 -41 91 -37 20 -67 19 -109 -4z m86
-15 c26 -19 25 -87 -3 -148 -19 -41 -26 -48 -50 -48 -46 0 -58 14 -55 66 2 64
19 111 45 129 27 19 38 19 63 1z"/>
<path d="M3020 1638 c-52 -36 -80 -83 -80 -137 0 -84 54 -117 114 -70 32 25
35 11 10 -50 -10 -26 -23 -41 -40 -45 -26 -7 -64 8 -64 24 0 16 -27 11 -34 -6
-11 -28 -7 -32 44 -39 64 -9 116 8 134 44 8 15 25 79 39 144 29 135 25 146
-44 154 -35 4 -51 0 -79 -19z m89 -12 c18 -21 -6 -112 -38 -147 -35 -38 -61
-41 -79 -8 -14 23 -13 30 12 86 33 73 78 102 105 69z"/>
<path d="M3460 1638 c-53 -28 -80 -75 -80 -140 0 -62 24 -88 80 -88 43 0 100
23 100 40 0 13 -10 12 -40 -5 -33 -19 -55 -19 -74 1 -30 29 -14 139 25 171 8
6 26 14 41 18 23 6 29 3 39 -19 10 -20 15 -23 26 -15 21 18 15 39 -13 49 -37
15 -55 12 -104 -12z"/>
<path d="M3715 1646 c-16 -8 -43 -28 -59 -45 -25 -25 -30 -42 -34 -91 -4 -48
-1 -65 13 -80 23 -26 65 -25 93 0 12 11 23 20 25 20 3 0 7 -9 10 -20 7 -25 71
-29 81 -4 4 10 0 15 -12 13 -9 -1 -20 -1 -23 0 -4 0 4 43 17 94 13 50 24 95
24 99 0 9 -58 28 -84 28 -12 -1 -34 -7 -51 -14z m75 -21 c9 -11 8 -27 -7 -77
-15 -50 -25 -67 -53 -86 l-35 -23 -17 21 c-24 29 -23 39 8 103 31 68 77 95
104 62z"/>
<path d="M1593 1643 c-25 -5 -32 -23 -9 -23 21 0 26 -11 47 -116 18 -86 18
-97 4 -124 -9 -17 -17 -30 -19 -30 -3 0 -11 -3 -19 -6 -9 -3 -16 3 -20 17 -5
19 -8 20 -21 9 -46 -37 15 -78 63 -42 25 18 124 172 177 275 l24 47 -32 0
c-18 0 -40 -5 -48 -10 -12 -8 -11 -11 8 -16 13 -4 22 -9 20 -13 -15 -32 -74
-131 -79 -131 -3 0 -12 33 -19 73 -19 106 -15 102 -77 90z"/>
<path d="M2103 1643 c-20 -8 -15 -23 8 -23 15 0 19 -5 15 -18 -19 -57 -36
-137 -36 -163 0 -29 2 -30 37 -27 20 2 38 9 41 16 3 9 -3 12 -14 10 -22 -3
-22 -8 5 99 28 109 28 113 -11 112 -18 0 -39 -3 -45 -6z"/>
<path d="M3243 1643 c-21 -8 -15 -23 8 -23 13 0 19 -5 16 -12 -15 -42 -39
-168 -34 -182 8 -21 60 -21 78 1 13 15 12 16 -8 11 -29 -8 -29 3 -3 102 27
104 27 110 -12 109 -18 0 -39 -3 -45 -6z"/>
<path d="M191 1606 c-18 -22 4 -62 25 -45 18 15 18 33 0 48 -10 9 -16 8 -25
-3z"/>
<path d="M4750 1605 c-19 -22 5 -48 31 -34 10 5 19 14 19 19 0 5 -9 14 -19 19
-14 8 -22 7 -31 -4z"/>
<path d="M4703 1493 c-18 -6 -16 -42 2 -49 14 -6 45 11 45 25 0 11 -34 28 -47
24z"/>
<path d="M236 1481 c-8 -12 4 -41 16 -41 5 0 18 5 29 11 16 8 18 13 8 25 -13
16 -45 19 -53 5z"/>
<path d="M294 1359 c-3 -6 0 -18 9 -26 12 -12 18 -13 35 -2 16 10 18 16 10 26
-13 16 -44 17 -54 2z"/>
<path d="M4635 1360 c-8 -12 3 -50 14 -50 16 0 31 28 25 44 -7 18 -29 21 -39
6z"/>
<path d="M367 1253 c-4 -3 -7 -15 -7 -25 0 -19 25 -24 49 -9 12 8 12 12 2 25
-14 17 -33 21 -44 9z"/>
<path d="M4564 1245 c-8 -20 4 -35 26 -35 25 0 35 17 20 35 -16 19 -39 19 -46
0z"/>
<path d="M1799 1174 c-11 -14 -10 -18 6 -30 16 -12 21 -12 34 0 12 12 12 18 1
30 -16 20 -24 20 -41 0z"/>
<path d="M2633 1180 c-43 -14 -73 -54 -73 -100 0 -43 16 -60 83 -90 48 -21 77
-52 77 -81 0 -28 -48 -59 -91 -59 -57 0 -69 8 -69 47 0 27 -4 34 -17 31 -14
-3 -18 -13 -18 -48 0 -50 12 -57 94 -59 87 -2 151 48 151 118 0 40 -21 62 -91
96 -57 27 -64 34 -67 62 -4 39 26 63 80 63 43 0 68 -21 61 -51 -5 -17 -2 -20
13 -17 13 2 20 13 22 37 2 18 0 37 -5 42 -13 13 -115 19 -150 9z"/>
<path d="M1473 1173 c-20 -8 -15 -23 8 -23 15 0 19 -5 15 -17 -16 -57 -59
-293 -55 -298 13 -13 38 9 44 38 15 68 84 167 116 167 14 0 11 -56 -7 -122 -8
-33 -13 -67 -10 -74 7 -19 60 -18 76 1 10 13 9 15 -9 15 -17 0 -20 5 -16 23
42 188 39 162 19 181 -27 27 -55 18 -100 -30 l-42 -47 19 84 c10 46 19 90 19
97 0 12 -52 16 -77 5z"/>
<path d="M2293 1173 c-18 -7 -16 -23 2 -23 16 0 18 -12 9 -46 -4 -17 -16 -23
-51 -27 -84 -9 -143 -76 -143 -162 0 -38 5 -56 18 -68 27 -25 69 -21 96 8 l24
25 6 -25 c5 -19 13 -25 35 -25 16 0 35 8 42 17 13 15 12 16 -9 10 -28 -7 -29
-25 17 191 l28 132 -31 -1 c-17 0 -37 -3 -43 -6z m-9 -139 c10 -27 -14 -108
-41 -136 -33 -35 -70 -37 -84 -4 -9 20 -7 34 15 82 15 32 32 62 39 66 21 13
65 9 71 -8z"/>
<path d="M1132 1153 c-6 -10 -13 -33 -17 -50 -9 -44 19 -46 34 -3 11 33 47 52
80 43 12 -3 21 -6 21 -8 0 -5 -51 -231 -56 -247 -3 -9 -14 -20 -25 -23 -41
-13 -16 -25 56 -25 43 0 75 4 75 10 0 6 -11 10 -25 10 -14 0 -25 3 -25 8 0 4
12 67 26 140 l27 132 38 0 c36 0 39 -2 39 -29 0 -31 16 -49 30 -35 5 5 12 28
16 52 l7 42 -146 0 c-129 0 -147 -2 -155 -17z"/>
<path d="M4502 1148 c-16 -16 -15 -33 2 -47 21 -18 41 11 26 38 -13 25 -12 25
-28 9z"/>
<path d="M434 1129 c-3 -6 1 -18 10 -27 15 -15 17 -15 32 0 9 9 13 21 10 27
-9 14 -43 14 -52 0z"/>
<path d="M2905 1107 c-11 -18 -30 -36 -43 -42 -27 -12 -29 -25 -2 -25 24 0 24
-6 5 -85 -8 -33 -15 -72 -15 -87 0 -26 3 -28 45 -28 25 0 45 5 45 10 0 6 -9
10 -20 10 -24 0 -25 18 -7 104 12 57 19 67 62 81 18 7 17 8 -9 17 -25 9 -28
14 -23 44 7 44 -11 44 -38 1z"/>
<path d="M2044 1070 c-12 -5 -31 -25 -44 -45 -27 -43 -35 -40 -22 9 10 36 10
36 -22 36 -18 0 -41 -7 -52 -15 -19 -14 -18 -14 4 -15 26 0 26 -1 3 -112 -14
-66 -15 -88 -6 -92 19 -7 32 7 40 44 8 40 43 104 76 139 20 21 23 22 34 7 18
-24 32 -19 37 14 3 19 0 31 -10 35 -7 3 -14 5 -15 4 -1 0 -12 -4 -23 -9z"/>
<path d="M3090 1064 c-46 -20 -76 -58 -90 -114 -12 -48 -2 -96 23 -112 25 -16
66 -8 85 17 24 31 30 31 34 3 2 -19 9 -23 37 -23 19 0 36 6 39 13 2 7 -5 12
-16 12 -20 0 -19 2 4 93 13 50 24 95 24 99 0 9 -58 28 -84 28 -12 -1 -37 -8
-56 -16z m79 -13 c11 -7 11 -18 2 -58 -16 -67 -45 -111 -77 -119 -20 -5 -31
-2 -41 11 -18 26 -17 38 12 99 30 63 70 89 104 67z"/>
<path d="M3371 1063 c-49 -24 -86 -86 -86 -144 0 -85 60 -116 118 -61 l30 27
-6 -30 c-10 -55 -26 -85 -52 -97 -22 -10 -30 -8 -55 10 -38 28 -50 28 -50 -2
0 -22 5 -25 53 -31 103 -13 130 16 164 174 30 141 30 147 -8 160 -43 15 -68
14 -108 -6z m87 -45 c7 -80 -61 -170 -106 -141 -26 16 -26 48 2 108 37 82 98
101 104 33z"/>
<path d="M3644 1060 c-52 -26 -84 -81 -84 -144 0 -67 25 -90 96 -84 33 3 62
12 74 23 25 22 21 28 -11 17 -74 -28 -109 -18 -109 31 0 18 12 26 68 46 82 28
92 36 92 72 0 58 -53 75 -126 39z m76 -33 c0 -29 -27 -55 -70 -67 -41 -12 -45
-8 -30 22 34 65 100 95 100 45z"/>
<path d="M1753 1063 c-28 -5 -30 -23 -3 -23 25 0 25 -3 -1 -102 -25 -98 -21
-110 28 -106 39 3 60 28 23 28 -16 0 -20 5 -16 18 14 47 46 173 46 182 0 10
-34 11 -77 3z"/>
<path d="M522 1038 c-19 -19 -15 -48 8 -48 26 0 37 27 18 46 -11 11 -16 12
-26 2z"/>
<path d="M4420 1025 c-23 -28 21 -50 48 -23 9 9 7 14 -6 24 -22 17 -27 17 -42
-1z"/>
<path d="M597 923 c-12 -12 -7 -31 10 -37 9 -4 23 0 32 9 14 14 14 17 1 25
-18 11 -34 13 -43 3z"/>
<path d="M4334 919 c-3 -6 1 -18 9 -27 13 -13 19 -13 32 -2 12 10 13 16 4 26
-14 17 -35 18 -45 3z"/>
<path d="M690 825 c-19 -22 5 -48 31 -34 24 12 24 21 0 36 -15 10 -22 9 -31
-2z"/>
<path d="M4246 821 c-10 -16 5 -42 23 -39 21 4 21 42 -1 46 -9 2 -19 -1 -22
-7z"/>
<path d="M784 726 c-8 -22 3 -49 19 -43 6 2 12 14 12 27 0 27 -22 39 -31 16z"/>
<path d="M4157 733 c-24 -23 12 -55 38 -33 12 10 13 16 4 26 -12 15 -31 18
-42 7z"/>
<path d="M880 635 c-11 -13 -11 -19 4 -33 15 -15 18 -15 26 -2 22 33 -6 64
-30 35z"/>
<path d="M4057 643 c-24 -23 12 -55 38 -33 12 10 13 16 4 26 -12 15 -31 18
-42 7z"/>
<path d="M992 568 c-21 -21 -15 -50 10 -46 27 4 32 18 16 41 -11 14 -16 15
-26 5z"/>
<path d="M3953 559 c-27 -27 13 -51 47 -29 13 8 12 11 -5 24 -24 19 -28 19
-42 5z"/>
<path d="M1090 480 c-13 -24 -5 -40 20 -40 23 0 31 21 15 43 -16 22 -22 21
-35 -3z"/>
<path d="M3844 475 c-12 -31 23 -48 45 -21 10 12 8 17 -8 25 -26 14 -31 14
-37 -4z"/>
<path d="M1206 413 c-9 -9 -7 -36 4 -53 8 -13 11 -12 24 5 9 11 16 23 16 27 0
11 -36 28 -44 21z"/>
<path d="M3734 405 c-7 -17 2 -45 13 -45 4 0 17 7 27 15 20 15 20 15 0 30 -24
18 -33 19 -40 0z"/>
<path d="M3620 345 c-15 -18 -6 -45 14 -45 20 0 29 16 21 40 -8 24 -18 25 -35
5z"/>
<path d="M1316 341 c-9 -14 4 -41 19 -41 21 0 36 25 23 38 -14 14 -35 16 -42
3z"/>
<path d="M3500 285 c-12 -15 -7 -45 7 -45 21 1 35 19 28 39 -8 25 -18 27 -35
6z"/>
<path d="M1437 283 c-24 -23 12 -55 38 -33 12 10 13 16 4 26 -12 15 -31 18
-42 7z"/>
<path d="M1560 225 c-22 -26 7 -46 39 -26 12 8 12 12 2 25 -17 20 -25 20 -41
1z"/>
<path d="M3377 233 c-24 -23 12 -55 38 -33 12 10 13 16 4 26 -12 15 -31 18
-42 7z"/>
<path d="M1677 177 c-3 -7 2 -22 10 -32 14 -19 15 -19 28 -2 7 11 11 25 8 33
-7 18 -39 18 -46 1z"/>
<path d="M3244 179 c-3 -6 0 -18 9 -26 12 -12 19 -13 36 -3 18 9 20 14 10 26
-14 17 -45 19 -55 3z"/>
<path d="M1810 144 c-11 -12 -10 -18 3 -31 22 -23 52 0 36 28 -12 23 -22 24
-39 3z"/>
<path d="M3127 153 c-11 -10 -8 -41 4 -49 6 -3 18 1 27 9 13 13 13 19 2 31
-14 17 -23 20 -33 9z"/>
<path d="M1941 106 c-14 -17 9 -39 33 -30 20 8 21 30 0 38 -21 8 -20 8 -33 -8z"/>
<path d="M2997 113 c-24 -23 12 -55 38 -33 12 10 13 16 4 26 -12 15 -31 18
-42 7z"/>
<path d="M2070 84 c-11 -12 -11 -18 1 -30 13 -12 18 -12 34 0 16 12 17 16 6
30 -17 20 -25 20 -41 0z"/>
<path d="M2872 88 c-28 -28 0 -56 31 -33 22 16 21 22 -1 34 -13 7 -23 6 -30
-1z"/>
<path d="M2204 66 c-8 -22 3 -49 19 -43 6 2 12 14 12 27 0 27 -22 39 -31 16z"/>
<path d="M2600 65 c-15 -18 -6 -45 14 -45 20 0 29 16 21 40 -8 24 -18 25 -35
5z"/>
<path d="M2732 68 c-8 -8 -9 -15 -1 -25 15 -17 34 -17 48 1 10 12 8 17 -8 25
-24 14 -24 14 -39 -1z"/>
<path d="M2337 63 c-11 -11 -8 -40 6 -51 19 -16 43 24 26 44 -13 15 -22 18
-32 7z"/>
<path d="M2460 51 c0 -21 13 -41 26 -41 8 0 14 4 14 9 0 5 3 16 6 25 5 12 0
16 -20 16 -14 0 -26 -4 -26 -9z"/>
</g>
</svg>
