<?xml version="1.0" standalone="no"?>
<!DOCTYPE svg PUBLIC "-//W3C//DTD SVG 20010904//EN"
 "http://www.w3.org/TR/2001/REC-SVG-20010904/DTD/svg10.dtd">
<svg version="1.0" xmlns="http://www.w3.org/2000/svg"
 width="500.000000pt" height="500.000000pt" viewBox="0 0 500.000000 500.000000"
 preserveAspectRatio="xMidYMid meet">
<metadata>
Created by potrace 1.15, written by Peter Selinger 2001-2017
</metadata>
<g transform="translate(0.000000,500.000000) scale(0.100000,-0.100000)"
fill="#000000" stroke="none">
<path d="M2347 4983 c-12 -11 -7 -41 7 -46 8 -3 22 0 32 8 15 11 16 15 5 29
-14 17 -33 21 -44 9z"/>
<path d="M2480 4980 c-12 -7 -12 -13 -4 -27 16 -26 39 -22 39 6 0 27 -13 35
-35 21z"/>
<path d="M2617 4983 c-12 -11 -7 -41 7 -46 8 -3 22 0 32 8 15 11 16 15 5 29
-14 17 -33 21 -44 9z"/>
<path d="M2214 4965 c-12 -29 15 -45 46 -25 13 8 12 11 -5 24 -25 19 -34 20
-41 1z"/>
<path d="M2750 4965 c-15 -18 -5 -35 20 -35 10 0 22 5 25 10 7 11 -12 40 -25
40 -4 0 -13 -7 -20 -15z"/>
<path d="M2080 4945 c-11 -13 -11 -19 3 -33 20 -19 41 -5 35 24 -4 24 -22 28
-38 9z"/>
<path d="M2880 4944 c-11 -12 -10 -18 4 -32 16 -16 18 -16 31 2 11 14 12 23 4
33 -15 17 -24 16 -39 -3z"/>
<path d="M1943 4914 c-3 -8 1 -22 9 -30 13 -13 16 -13 27 0 7 9 11 23 7 31 -7
20 -35 19 -43 -1z"/>
<path d="M3004 4915 c-6 -14 11 -45 25 -45 3 0 12 10 20 21 11 18 11 23 -1 30
-20 13 -38 11 -44 -6z"/>
<path d="M1820 4885 c-11 -13 -11 -19 3 -33 20 -19 41 -5 35 24 -4 24 -22 28
-38 9z"/>
<path d="M3142 4887 c-7 -8 -7 -18 -2 -27 7 -12 13 -12 37 -1 27 12 27 13 8
27 -23 17 -30 17 -43 1z"/>
<path d="M1691 4846 c-18 -21 11 -41 39 -26 17 9 19 14 9 26 -15 18 -33 18
-48 0z"/>
<path d="M3271 4851 c-12 -8 -12 -12 -2 -25 15 -18 21 -19 40 -7 12 8 12 12 2
25 -15 18 -21 19 -40 7z"/>
<path d="M1570 4804 c-11 -12 -11 -18 1 -30 13 -12 18 -12 34 0 16 12 17 16 6
30 -17 20 -25 20 -41 0z"/>
<path d="M3395 4809 c-8 -12 2 -59 13 -59 4 0 13 9 20 21 10 16 10 24 1 35
-14 17 -25 18 -34 3z"/>
<path d="M3514 4755 c-8 -21 2 -45 20 -45 19 0 29 29 15 46 -15 18 -28 18 -35
-1z"/>
<path d="M1437 4747 c-3 -7 2 -21 9 -32 13 -18 15 -18 30 -3 9 9 14 24 11 32
-8 19 -43 21 -50 3z"/>
<path d="M2490 4739 c-205 -12 -262 -27 -435 -115 -288 -147 -348 -191 -409
-293 -18 -31 -58 -96 -89 -144 -31 -49 -61 -105 -68 -125 -6 -20 -33 -89 -60
-153 -39 -93 -54 -148 -79 -285 -62 -336 -49 -546 50 -805 65 -167 98 -215
187 -268 37 -22 97 -65 133 -96 118 -102 274 -165 407 -165 65 0 322 -26 329
-33 6 -6 -17 -329 -27 -375 -11 -55 -33 -79 -108 -117 -29 -15 -40 -15 -78 -4
-35 9 -58 9 -112 -1 -39 -7 -84 -10 -107 -5 -63 11 -131 8 -186 -11 -63 -21
-168 -117 -168 -153 0 -22 3 -23 54 -19 39 3 62 12 85 30 43 37 82 43 145 23
56 -18 94 -17 179 6 41 11 57 10 115 -5 74 -19 97 -16 177 21 67 31 83 29 128
-15 l38 -37 316 -3 c333 -3 359 -1 388 42 36 50 8 90 -73 106 -29 5 -61 14
-72 20 -24 13 -71 13 -106 0 -22 -9 -40 -7 -86 11 -48 18 -71 21 -123 16 -56
-5 -68 -3 -98 17 -19 13 -57 31 -86 41 -30 10 -56 26 -63 38 -11 21 -7 185 8
311 l7 54 86 27 c97 31 216 54 277 55 25 0 126 29 252 74 174 61 225 83 295
129 110 73 178 135 233 212 75 106 105 184 127 338 3 16 1 99 -4 185 -5 96 -4
183 2 226 28 199 28 198 -74 441 -93 223 -86 215 -306 390 -253 201 -211 176
-536 329 -132 62 -246 97 -305 94 -14 0 -86 -4 -160 -9z m435 -97 c88 -40 187
-85 220 -100 69 -31 181 -110 274 -192 36 -31 110 -90 164 -129 58 -42 102
-83 109 -99 6 -15 30 -66 53 -113 24 -48 62 -144 85 -215 l42 -128 -13 -81
c-9 -50 -14 -174 -14 -335 0 -252 0 -256 -27 -329 -51 -139 -114 -215 -277
-330 -111 -79 -121 -84 -356 -167 -135 -47 -176 -57 -263 -64 -72 -6 -134 -19
-199 -41 -80 -26 -97 -29 -108 -18 -10 10 -15 74 -21 244 -6 219 -6 233 14
277 11 26 31 62 44 81 l24 36 43 -20 c58 -26 103 -24 159 6 65 35 111 33 148
-6 29 -31 93 -69 115 -69 6 0 -24 27 -67 60 -43 33 -88 60 -100 60 -12 0 -27
7 -34 15 -16 19 -48 19 -94 0 -33 -14 -41 -14 -67 -1 -32 16 -38 7 -13 -18 19
-20 51 -20 97 -1 42 17 47 18 47 7 0 -15 -90 -52 -127 -52 -29 0 -43 7 -74 41
l-37 40 -21 -23 c-12 -12 -32 -45 -45 -73 -41 -87 -48 -150 -43 -384 4 -220
-5 -573 -17 -629 l-7 -30 118 -57 c112 -54 121 -57 179 -52 40 3 75 -1 100
-10 25 -9 85 -16 164 -17 136 -3 183 -16 188 -52 5 -32 -18 -35 -99 -13 -53
14 -101 19 -166 17 -83 -2 -94 0 -116 20 -29 27 -30 27 -75 -3 -53 -36 -98
-33 -155 10 -25 19 -53 35 -63 35 -36 0 -97 25 -126 52 -35 32 -34 22 -8 323
11 122 9 330 -6 680 l-5 130 -32 15 c-18 9 -36 28 -44 47 l-13 32 36 -15 c52
-22 64 -12 18 16 -50 30 -104 80 -104 97 0 7 -4 13 -10 13 -15 0 -13 -9 12
-49 l22 -36 -30 22 c-47 33 -59 52 -46 65 17 17 15 38 -5 60 -17 19 -68 25
-78 8 -4 -6 6 -10 23 -10 38 0 58 -22 37 -40 -26 -22 -17 -41 49 -104 39 -37
68 -73 72 -91 4 -16 18 -38 31 -48 20 -16 23 -27 23 -82 0 -44 -4 -66 -16 -75
-32 -28 -37 -50 -18 -92 15 -33 16 -45 6 -71 -14 -37 -8 -47 15 -24 14 14 15
23 5 67 -14 62 -15 83 -3 76 5 -4 14 -36 20 -74 12 -74 32 -344 26 -350 -2 -2
-45 3 -96 12 -51 9 -140 16 -198 16 -119 0 -151 7 -271 57 -61 26 -102 52
-146 92 -33 31 -98 78 -145 105 -46 28 -90 57 -97 65 -26 33 -53 94 -87 197
-18 58 -40 116 -48 127 -42 65 -50 358 -17 588 44 299 77 386 253 669 112 180
129 201 197 249 55 38 414 223 459 236 51 15 173 23 331 21 l165 -1 160 -73z
m-422 -2894 c53 -18 105 -43 122 -59 48 -44 145 -62 211 -39 38 13 261 -3 329
-24 47 -14 30 -15 -254 -11 -329 5 -344 7 -357 60 -7 29 -31 45 -68 45 -17 0
-24 -4 -20 -13 3 -9 -16 -23 -57 -42 -64 -28 -67 -29 -207 -9 -27 4 -66 0
-106 -11 -61 -17 -68 -17 -135 0 -78 19 -105 16 -159 -20 -41 -26 -92 -42 -92
-28 0 18 76 83 122 103 64 28 130 35 191 21 43 -10 62 -10 108 2 64 17 101 13
125 -14 25 -28 36 -24 82 26 22 25 48 45 57 45 9 0 57 -14 108 -32z"/>
<path d="M2472 4603 c-7 -12 -12 -29 -12 -37 0 -12 -10 -16 -35 -16 -31 0 -35
3 -35 25 0 14 -3 25 -7 25 -12 -1 -94 -132 -99 -160 -3 -14 2 -45 10 -69 17
-47 20 -99 8 -118 -6 -9 -17 2 -38 34 -19 30 -30 41 -32 30 -5 -27 26 -74 58
-87 26 -11 30 -17 25 -38 -16 -64 -16 -82 -1 -114 9 -19 33 -50 52 -69 l36
-34 39 45 c36 41 49 70 33 70 -4 0 -21 -17 -39 -37 l-33 -38 -22 20 c-58 52
-62 67 -46 157 8 46 19 96 25 111 6 16 11 53 11 84 0 51 3 58 37 89 34 31 35
34 14 34 -12 0 -33 -11 -46 -25 -22 -21 -25 -33 -25 -90 0 -70 -12 -84 -29
-34 -20 59 -13 101 23 139 29 32 37 36 77 32 57 -4 87 -20 105 -54 12 -23 12
-35 -1 -90 -19 -81 -19 -191 0 -254 21 -71 19 -96 -16 -163 l-31 -58 17 -59
c16 -58 16 -60 -10 -141 -14 -45 -29 -85 -34 -87 -4 -3 -11 70 -14 162 l-5
167 29 27 c28 26 38 48 21 48 -4 0 -27 -19 -50 -43 l-41 -42 14 -40 c10 -27
14 -86 15 -182 0 -132 1 -143 18 -143 21 0 38 34 72 147 15 47 20 82 15 100
-19 77 -17 100 12 150 27 46 28 53 32 206 2 110 0 157 -8 157 -6 0 -11 -20
-12 -47 -1 -27 -5 -59 -9 -73 -16 -49 -10 92 6 157 20 78 13 125 -23 151 -17
12 -28 32 -32 58 -7 37 -8 38 -19 17z"/>
<path d="M2573 4581 c-21 -37 -33 -40 -34 -8 -1 17 -2 18 -6 4 -4 -17 12 -47
26 -47 10 0 43 71 37 78 -3 2 -13 -9 -23 -27z"/>
<path d="M2608 4561 c-38 -53 -37 -121 2 -121 18 0 180 88 180 97 0 14 -71
-11 -122 -42 -31 -19 -59 -35 -62 -35 -10 0 6 64 25 103 24 48 12 47 -23 -2z"/>
<path d="M2126 4480 c-9 -22 -16 -51 -16 -65 0 -13 -8 -29 -17 -34 -17 -10
-17 -10 -1 -11 9 0 24 10 32 22 9 12 17 20 19 17 7 -8 54 -149 50 -149 -2 0
-16 14 -30 30 -14 17 -35 36 -47 42 -24 13 -166 27 -166 17 0 -12 30 -19 79
-19 34 0 58 -7 81 -22 32 -23 39 -33 82 -123 13 -27 47 -86 75 -130 28 -44 54
-93 57 -109 6 -25 5 -28 -13 -23 -25 6 -26 3 -4 -33 14 -24 15 -35 6 -65 -13
-40 -8 -65 12 -65 16 0 25 45 25 124 0 70 -20 120 -94 234 -26 40 -46 78 -43
85 2 7 11 -3 21 -20 21 -42 46 -44 46 -3 0 19 -5 30 -14 30 -18 0 -38 32 -64
103 -26 68 -28 117 -6 158 26 51 10 53 -26 3 -36 -50 -52 -47 -26 5 18 35 19
41 7 41 -5 0 -16 -18 -25 -40z"/>
<path d="M2746 4473 c-57 -15 -134 -87 -151 -140 -11 -37 8 -26 38 22 18 29
50 58 88 81 71 44 74 49 25 37z"/>
<path d="M2742 4334 c-14 -44 -32 -79 -48 -95 -15 -13 -35 -43 -46 -66 -10
-24 -22 -43 -27 -43 -4 0 -5 28 -3 62 4 59 4 62 -13 48 -25 -21 -16 -132 13
-163 l21 -22 -46 -50 c-46 -50 -46 -51 -44 -114 1 -35 4 -67 6 -71 6 -10 -23
-171 -40 -216 -8 -22 -29 -53 -45 -69 -58 -56 -46 -127 38 -225 37 -42 41 -44
66 -32 14 6 35 26 47 44 17 28 19 44 15 103 -3 39 -9 117 -12 173 -4 63 -10
99 -15 90 -12 -19 -11 -140 2 -215 6 -35 8 -78 5 -96 -7 -37 -39 -77 -61 -77
-17 0 -83 90 -94 128 -10 32 6 78 33 101 31 26 55 86 72 180 14 75 15 104 6
157 -15 92 0 121 34 69 10 -15 19 -55 22 -95 4 -65 13 -83 27 -61 3 5 -4 52
-15 104 l-21 95 34 74 c19 41 50 94 69 119 19 25 40 59 47 76 13 32 34 44 111
63 64 16 90 36 90 67 l0 27 -27 -33 c-22 -25 -42 -36 -88 -47 -89 -20 -92 -20
-87 20 8 66 -5 61 -26 -10z m-46 -166 l-26 -43 0 32 c0 22 7 37 22 47 32 23
33 13 4 -36z"/>
<path d="M3045 4295 c-16 -8 -44 -14 -62 -15 -63 0 -79 -15 -178 -164 -92
-140 -110 -183 -79 -193 6 -2 33 16 60 41 52 48 47 64 -5 20 -46 -38 -58 -24
-19 22 19 23 56 80 83 128 52 93 90 126 144 126 35 0 95 22 105 39 9 15 -12
13 -49 -4z"/>
<path d="M1900 4264 c1 -14 109 -131 110 -118 0 18 -43 75 -77 102 -18 13 -33
21 -33 16z"/>
<path d="M3038 4187 c-69 -42 -84 -67 -56 -95 21 -21 56 -13 141 30 61 32 77
43 60 46 -12 2 -52 -13 -88 -32 -64 -34 -95 -38 -95 -11 0 8 27 30 60 50 33
20 62 40 65 46 13 19 -23 6 -87 -34z"/>
<path d="M2756 4134 c-51 -69 -69 -110 -92 -206 -4 -17 -2 -28 5 -28 5 0 15
19 21 43 15 61 44 120 80 160 30 35 57 93 47 103 -3 3 -30 -30 -61 -72z"/>
<path d="M1830 4180 c0 -5 27 -23 60 -40 61 -31 80 -52 80 -92 0 -35 16 -56
31 -41 9 9 7 23 -8 60 -16 41 -29 54 -84 86 -67 39 -79 43 -79 27z"/>
<path d="M2921 4147 c-7 -17 -16 -66 -21 -107 -10 -78 -11 -80 -89 -143 -19
-15 -21 -24 -15 -65 5 -39 -1 -65 -30 -147 -20 -56 -47 -110 -61 -124 l-25
-26 0 92 c0 130 13 183 61 236 21 25 39 48 39 51 0 14 -22 4 -54 -24 -28 -25
-38 -44 -50 -99 -29 -126 -33 -373 -7 -356 5 2 14 25 21 49 7 25 21 53 32 63
43 39 98 195 98 280 0 49 2 53 42 82 51 38 62 32 21 -12 -44 -46 -51 -64 -59
-151 l-7 -78 27 17 c33 22 56 64 56 102 -1 27 -1 26 -19 -12 l-19 -40 -1 49
c-1 40 4 54 29 82 26 30 45 79 64 167 6 26 8 27 29 12 35 -25 82 -18 166 25
76 38 106 60 80 60 -6 0 -47 -18 -91 -40 -44 -22 -88 -40 -97 -40 -9 0 -33 9
-54 20 -45 24 -44 24 -50 3 -9 -35 -7 20 2 60 11 47 -3 58 -18 14z"/>
<path d="M1754 4135 c-18 -15 -16 -15 22 -10 43 7 105 -12 119 -35 5 -7 7 -37
6 -66 -2 -64 11 -74 93 -74 l56 0 0 -50 c0 -36 4 -50 14 -50 7 0 25 -9 40 -21
l26 -20 0 36 c0 36 -1 36 -31 30 l-31 -7 4 43 c3 43 3 43 -37 51 -118 25 -130
34 -103 77 17 27 4 47 -49 81 -52 33 -99 38 -129 15z"/>
<path d="M3440 4116 c-43 -23 -96 -28 -113 -11 -14 13 -18 12 -38 -16 -14 -21
-24 -27 -29 -19 -5 8 -9 4 -13 -11 -4 -13 -4 -25 -2 -28 3 -2 27 8 54 22 27
15 65 27 84 27 24 0 45 8 64 25 31 27 30 30 -7 11z"/>
<path d="M1696 4060 c5 -23 1 -30 -31 -50 -45 -28 -40 -34 17 -20 74 19 112
-9 132 -95 34 -149 59 -175 70 -74 8 84 8 99 -4 99 -5 0 -10 -15 -10 -34 0
-57 -16 -50 -35 15 -14 52 -26 71 -80 124 -57 56 -63 60 -59 35z"/>
<path d="M3500 4059 c-14 -6 -52 -8 -88 -4 -52 6 -70 3 -108 -15 -24 -12 -56
-39 -70 -59 -28 -39 -28 -39 -8 48 14 64 -12 24 -35 -53 -15 -49 -33 -85 -54
-108 -18 -19 -42 -47 -53 -63 -19 -27 -24 -29 -43 -17 -32 19 -46 15 -26 -8
32 -35 59 -25 116 43 29 34 55 64 57 67 3 3 7 -1 9 -8 10 -27 36 -44 62 -38
14 3 62 11 105 16 62 9 92 19 137 46 31 20 74 42 96 49 l38 14 -42 1 c-33 0
-41 3 -37 15 12 29 -15 15 -48 -26 -18 -23 -45 -47 -59 -55 -22 -11 -161 -34
-206 -34 -20 0 -15 59 8 97 29 47 66 63 146 63 46 0 81 7 108 19 42 20 38 27
-5 10z"/>
<path d="M2086 4012 c-3 -5 6 -14 21 -21 23 -11 25 -16 19 -51 -7 -44 -3 -46
34 -25 34 19 40 18 40 -5 0 -11 5 -20 11 -20 6 0 9 12 7 28 -2 20 -9 28 -28
30 -17 2 -30 14 -40 35 -15 31 -52 48 -64 29z"/>
<path d="M1706 3922 c43 -37 54 -60 42 -88 -8 -17 -5 -35 16 -80 l27 -58 -36
-35 c-32 -33 -36 -34 -52 -19 -15 16 -15 18 10 29 38 17 40 33 10 104 -41 99
-61 83 -23 -17 11 -29 20 -54 20 -56 0 -1 -12 -7 -27 -13 -22 -8 -30 -6 -50
13 -22 21 -24 27 -17 87 5 46 4 62 -5 57 -6 -4 -11 -16 -11 -26 0 -10 -5 -31
-11 -47 l-11 -28 -23 30 c-13 16 -27 27 -30 23 -15 -15 26 -63 123 -144 58
-49 128 -117 155 -152 49 -62 89 -92 124 -92 24 0 131 -62 116 -67 -6 -2 -29
5 -50 15 -21 11 -58 25 -82 32 -27 7 -61 28 -91 56 -62 58 -94 64 -184 30
l-68 -26 -34 37 c-19 20 -37 34 -40 30 -8 -8 54 -87 69 -87 7 0 44 11 82 25
78 27 95 25 144 -17 30 -27 65 -45 191 -100 93 -40 115 -53 115 -68 0 -10 -14
-17 -40 -21 -22 -4 -60 -14 -84 -23 -51 -19 -139 -21 -208 -5 -39 9 -60 8
-111 -5 -93 -24 -109 -21 -148 21 -44 48 -53 38 -12 -12 l32 -38 -37 6 c-20 3
-37 2 -37 -3 0 -19 56 -23 125 -10 38 7 86 12 105 11 112 -9 269 -2 306 14 21
9 59 20 84 23 36 6 46 11 48 30 2 12 -5 34 -16 50 -18 24 -26 62 -23 100 2 20
21 14 21 -8 0 -10 14 -35 30 -53 17 -19 30 -44 30 -56 0 -42 17 -58 70 -65 43
-6 53 -11 62 -34 l12 -27 4 27 c2 15 -2 36 -7 47 -6 11 -11 34 -11 50 0 24
-13 46 -56 92 l-56 61 7 103 c6 90 1 174 -11 162 -4 -4 -16 -198 -15 -257 0
-29 8 -42 51 -80 39 -35 52 -54 57 -83 l6 -38 -39 3 c-36 3 -39 6 -45 39 -3
23 -16 46 -34 62 -26 22 -29 31 -31 88 0 49 -5 65 -19 73 -80 48 -80 47 -86
124 -12 126 -31 242 -40 242 -12 0 -11 -24 1 -91 6 -30 12 -91 13 -137 4 -90
19 -118 78 -142 16 -7 29 -16 29 -20 0 -15 -141 54 -181 88 -23 20 -39 28 -39
20 0 -29 32 -56 109 -92 45 -21 81 -44 81 -51 0 -31 -23 -66 -39 -59 -9 4 -36
14 -61 22 -95 31 -108 41 -164 115 -62 82 -63 95 -14 137 l30 25 -26 30 c-26
30 -31 48 -27 93 5 58 -45 132 -88 132 -11 0 -7 -9 15 -28z"/>
<path d="M2256 3865 c-11 -28 13 -122 38 -153 44 -52 48 -69 41 -157 -8 -93 3
-131 55 -180 38 -36 53 -24 17 13 -44 46 -58 93 -51 171 9 98 -1 158 -29 167
-30 9 -37 22 -37 75 0 25 -6 53 -13 63 -13 18 -14 18 -21 1z"/>
<path d="M1906 3847 c-16 -54 12 -201 42 -224 35 -29 45 -17 39 48 -3 34 -11
66 -17 73 -10 8 -11 -2 -6 -46 3 -33 2 -58 -3 -58 -12 0 -21 37 -36 145 -9 72
-13 85 -19 62z"/>
<path d="M2935 3851 c-7 -22 9 -56 49 -110 32 -42 32 -47 3 -91 -12 -19 -40
-78 -62 -130 -45 -107 -60 -120 -143 -120 -33 0 -51 -4 -47 -10 3 -5 33 -10
67 -10 53 0 63 3 86 28 23 26 128 242 139 287 3 13 -9 37 -32 68 -20 26 -38
59 -39 72 -4 34 -13 41 -21 16z"/>
<path d="M2182 3835 c-17 -38 -9 -79 23 -117 28 -34 30 -58 13 -170 -14 -95
-4 -115 77 -153 51 -24 71 -45 44 -45 -7 0 -9 -8 -4 -22 3 -13 12 -57 20 -99
20 -116 82 -197 120 -158 15 16 45 112 45 145 0 31 -51 88 -98 109 -20 10 -48
31 -60 47 -13 16 -46 40 -72 53 -27 14 -51 33 -54 43 -4 11 1 60 9 110 17 97
14 113 -26 157 -11 13 -19 40 -21 75 -3 55 -3 55 -16 25z m263 -571 c19 -26
35 -52 35 -59 0 -22 -32 -105 -40 -105 -17 0 -49 52 -54 90 -3 22 -9 58 -12
80 -5 36 -3 40 15 40 12 0 34 -18 56 -46z"/>
<path d="M3236 3830 c-74 -4 -91 -8 -100 -24 -6 -11 -23 -30 -38 -43 -30 -27
-150 -266 -150 -301 0 -13 5 -29 11 -35 8 -8 11 -2 11 23 0 20 17 65 43 114
24 45 47 94 51 109 4 15 30 52 60 82 l53 54 197 3 c108 2 199 1 201 -3 9 -14
76 -40 87 -33 6 4 -3 12 -22 18 -38 12 -50 32 -23 38 26 6 -275 4 -381 -2z"/>
<path d="M3420 3751 c0 -21 6 -32 20 -36 29 -9 197 -6 245 4 40 9 39 9 -20 11
-33 1 -88 1 -122 0 -78 -2 -103 6 -103 31 0 10 -4 19 -10 19 -5 0 -10 -13 -10
-29z"/>
<path d="M3380 3761 c0 -4 -11 -20 -25 -35 -19 -20 -34 -26 -67 -26 -31 0 -39
-3 -28 -10 21 -14 82 -12 101 3 30 23 50 77 29 77 -5 0 -10 -4 -10 -9z"/>
<path d="M1477 3706 c-11 -29 4 -45 71 -70 75 -29 132 -61 132 -75 0 -5 -18
-16 -40 -25 -43 -17 -63 -13 -102 22 -16 14 -18 13 -18 -6 0 -12 11 -29 25
-38 46 -30 155 2 155 46 0 30 -42 57 -158 100 -18 7 -39 24 -46 38 -11 20 -14
22 -19 8z"/>
<path d="M2900 3706 c0 -23 -40 -66 -75 -80 -21 -9 -35 -23 -39 -40 -3 -14
-10 -26 -15 -26 -5 0 -23 -13 -40 -29 -25 -23 -31 -37 -31 -69 0 -28 5 -42 16
-46 23 -9 28 -1 14 24 -17 33 -4 66 36 90 19 13 39 33 44 46 5 13 25 30 44 38
20 8 42 28 50 45 18 34 21 61 6 61 -5 0 -10 -6 -10 -14z"/>
<path d="M3603 3665 c15 -14 38 -25 50 -25 21 1 21 1 -3 16 -25 15 -25 15 13
9 20 -3 37 -2 37 3 0 5 -21 12 -46 16 -77 10 -82 8 -51 -19z"/>
<path d="M3184 3652 c-55 -40 -67 -58 -66 -96 1 -29 -5 -38 -39 -60 -37 -25
-59 -59 -59 -92 0 -25 16 -15 28 19 7 17 30 45 52 60 27 19 40 36 40 52 0 42
18 74 60 101 37 25 51 44 32 44 -5 0 -27 -13 -48 -28z"/>
<path d="M3340 3666 c-77 -20 -142 -50 -165 -76 l-20 -22 25 -20 c28 -23 88
-20 140 7 44 23 108 19 155 -10 88 -53 97 -57 124 -49 l26 7 -34 9 c-19 5 -53
23 -76 39 -75 54 -110 56 -229 18 -60 -19 -100 -17 -94 4 6 20 89 54 173 72
100 21 173 14 214 -21 29 -24 92 -44 90 -28 0 5 -31 24 -68 42 -80 39 -175 49
-261 28z"/>
<path d="M3295 3523 c-27 -8 -71 -18 -97 -22 -39 -6 -56 -16 -94 -54 -38 -39
-42 -47 -26 -47 11 0 34 16 50 36 24 28 38 37 73 41 24 2 61 11 82 19 20 8 55
14 77 14 38 0 40 -2 40 -29 0 -32 6 -36 83 -47 29 -4 56 -15 68 -27 10 -11 22
-18 25 -14 13 13 -44 54 -85 61 -59 9 -65 15 -44 38 17 19 17 20 -2 34 -24 18
-85 17 -150 -3z"/>
<path d="M3070 3361 c0 -5 40 -16 90 -26 75 -15 95 -15 121 -5 37 16 103 18
184 6 67 -9 66 3 -1 22 -56 16 -130 15 -182 -3 -38 -13 -47 -13 -78 0 -39 16
-134 21 -134 6z"/>
<path d="M2681 3314 c-48 -40 -43 -81 16 -133 60 -53 70 -44 14 13 -36 37 -42
49 -37 70 11 43 52 56 178 56 113 0 187 -12 200 -34 11 -17 9 -75 -3 -99 -6
-12 -25 -37 -42 -54 -34 -36 -18 -46 21 -13 31 26 52 80 52 135 0 25 4 45 9
45 5 0 42 -16 82 -35 62 -30 74 -40 91 -77 10 -23 30 -57 44 -76 28 -36 28
-36 -30 -99 -16 -18 -27 -35 -24 -39 4 -3 24 13 45 37 67 74 66 70 24 126 -20
28 -43 64 -50 81 -9 22 -32 42 -78 68 -56 31 -78 37 -161 45 -54 4 -147 8
-209 9 -106 0 -113 -1 -142 -26z"/>
<path d="M3271 3311 c-12 -7 -9 -17 12 -54 49 -84 112 -117 194 -104 20 4 43
12 50 19 11 11 1 13 -56 10 -80 -5 -121 12 -151 61 -31 50 -27 57 33 57 51 0
55 -2 78 -37 21 -33 30 -38 68 -41 33 -2 54 -12 79 -33 35 -31 57 -32 30 -2
-29 34 -30 43 -6 52 17 7 4 10 -54 10 -77 1 -108 14 -108 46 0 7 -7 16 -16 19
-24 9 -137 7 -153 -3z"/>
<path d="M3590 3299 c-14 -6 -39 -8 -56 -6 -36 6 -65 -7 -39 -17 28 -11 75 -7
105 9 46 24 39 33 -10 14z"/>
<path d="M3100 3211 c0 -26 -12 -63 -35 -107 -34 -66 -35 -67 -9 -44 50 46 85
166 54 185 -6 4 -10 -10 -10 -34z"/>
<path d="M2135 3200 c-3 -6 -16 -8 -28 -4 -13 3 -44 -4 -70 -15 -38 -16 -80
-22 -200 -27 -84 -4 -160 -11 -170 -16 -10 -5 -24 -26 -33 -47 -14 -36 -47
-61 -79 -61 -8 0 -15 -4 -15 -10 0 -13 46 -13 71 0 10 6 28 28 39 50 11 22 28
44 38 49 9 5 89 10 177 12 135 3 165 7 189 22 19 13 36 16 58 12 31 -7 48 4
48 33 0 14 -16 16 -25 2z"/>
<path d="M2600 3135 c-33 -34 -34 -38 -38 -133 -5 -122 15 -117 25 7 5 68 11
89 30 112 14 16 28 29 33 29 4 0 23 -20 43 -45 42 -54 58 -46 20 11 -45 67
-64 70 -113 19z"/>
<path d="M1503 3136 c-72 -15 -81 -30 -13 -22 30 4 65 10 78 13 37 9 26 -24
-13 -38 -44 -16 -46 -34 -2 -25 36 7 67 38 67 67 0 22 -33 24 -117 5z"/>
<path d="M3435 3117 c-48 -12 -50 -13 -67 -67 -26 -85 -25 -90 25 -90 25 0 52
7 63 16 19 15 19 16 -1 8 -36 -13 -85 -17 -85 -6 0 6 9 31 20 56 23 54 42 61
141 53 38 -3 69 -4 69 -2 0 6 -91 45 -104 44 -6 0 -33 -6 -61 -12z"/>
<path d="M2008 3064 c-88 -50 -112 -59 -253 -90 -86 -19 -183 -34 -215 -34
-33 0 -62 -5 -66 -11 -12 -20 220 -5 296 20 98 31 106 24 12 -11 -70 -25 -88
-37 -113 -71 -16 -22 -29 -47 -29 -55 0 -8 13 3 29 25 25 34 45 47 124 78 112
44 132 42 122 -13 -4 -20 -8 -39 -10 -42 -2 -3 -47 -23 -99 -45 -53 -22 -96
-43 -96 -47 0 -14 18 -8 125 39 111 49 120 58 113 119 -2 23 -10 30 -41 39
l-39 11 54 13 c29 7 66 26 83 41 17 15 49 38 73 50 38 21 55 41 35 40 -5 -1
-52 -26 -105 -56z"/>
<path d="M2108 3064 c-23 -20 -61 -48 -83 -62 -51 -32 -55 -38 -55 -87 0 -38
29 -101 54 -117 19 -13 63 -9 77 8 11 13 9 14 -13 9 -36 -9 -67 10 -84 52 -20
47 -10 88 24 102 15 6 39 27 54 45 15 19 48 44 73 56 51 25 55 30 21 30 -13 0
-44 -16 -68 -36z"/>
<path d="M3415 2930 c-163 -49 -198 -50 -248 -9 -20 17 -44 29 -52 27 -25 -5
62 -70 103 -75 23 -3 96 9 195 32 87 20 165 34 173 31 8 -3 19 -17 24 -31 11
-29 30 -33 30 -6 0 31 -39 71 -68 70 -15 0 -85 -18 -157 -39z"/>
<path d="M1602 2855 c-33 -68 -27 -77 13 -18 39 58 41 63 22 63 -7 0 -23 -20
-35 -45z"/>
<path d="M2745 2802 c0 -27 6 -56 14 -65 14 -18 63 -21 96 -7 16 7 13 9 -17 9
-48 1 -68 23 -68 72 0 25 -5 39 -13 39 -8 0 -12 -16 -12 -48z"/>
<path d="M3420 2838 c-19 -5 -54 -8 -77 -5 -24 2 -43 3 -43 0 0 -2 20 -12 44
-22 25 -11 59 -38 80 -65 41 -49 64 -61 102 -52 34 9 31 29 -4 21 -30 -6 -49
10 -86 68 -21 35 -10 40 69 35 30 -1 55 -2 55 0 0 7 -71 32 -87 31 -10 0 -34
-5 -53 -11z"/>
<path d="M3225 2790 c22 -42 19 -102 -6 -134 -22 -28 -19 -32 10 -16 43 22 51
107 15 158 -22 32 -37 27 -19 -8z"/>
<path d="M1840 2766 c-103 -45 -197 -93 -205 -106 -13 -21 26 -8 155 50 74 33
138 59 142 58 5 -2 -5 -25 -23 -52 -17 -27 -33 -64 -36 -81 -5 -34 14 -82 42
-105 25 -21 28 -5 6 31 -28 45 -26 62 9 137 53 113 38 124 -90 68z"/>
<path d="M3287 2794 c-3 -3 -3 -28 0 -54 4 -39 1 -56 -16 -85 -25 -43 -28 -63
-5 -45 26 23 38 53 44 112 l5 57 24 -18 c24 -18 24 -21 14 -87 -6 -38 -9 -71
-7 -73 2 -2 10 4 19 12 22 23 51 30 74 18 24 -14 31 -14 31 -1 0 5 -20 15 -45
21 -25 6 -45 13 -45 15 0 1 5 15 10 30 15 38 4 62 -40 84 -42 21 -53 24 -63
14z"/>
<path d="M2840 2780 c0 -5 18 -10 40 -10 50 0 80 -27 80 -72 0 -91 139 -174
206 -123 17 13 15 14 -36 15 -77 0 -94 14 -45 35 50 20 75 43 75 68 0 18 -2
19 -17 5 -23 -20 -120 -51 -133 -43 -5 3 -14 24 -20 47 -16 58 -52 88 -106 88
-24 0 -44 -4 -44 -10z"/>
<path d="M1964 2726 c-37 -80 -30 -167 19 -231 21 -28 30 -14 13 20 -32 61
-39 120 -22 179 l17 56 72 0 c43 0 80 5 90 13 14 10 2 12 -74 13 l-91 1 -24
-51z"/>
<path d="M2335 2748 c-7 -23 -27 -44 -70 -73 -71 -48 -95 -89 -95 -162 0 -72
15 -67 26 10 l9 62 30 -55 c18 -33 38 -56 50 -58 20 -4 20 -4 -1 19 -11 13
-26 43 -33 66 -8 30 -16 41 -26 37 -38 -15 -8 21 55 67 74 54 94 78 84 103 -9
24 -19 19 -29 -16z"/>
<path d="M2897 2734 c-3 -3 -2 -17 4 -31 17 -45 10 -72 -30 -116 -40 -44 -63
-109 -42 -121 7 -5 11 4 11 24 0 23 11 42 44 76 49 49 56 71 43 124 -10 38
-20 54 -30 44z"/>
<path d="M2316 2661 c-10 -11 -16 -30 -14 -42 3 -20 6 -19 31 19 29 44 17 60
-17 23z"/>
<path d="M2952 2583 c-16 -6 -42 -56 -42 -80 0 -13 11 -6 38 25 l37 44 45 -36
c53 -42 67 -46 44 -11 -29 45 -87 72 -122 58z"/>
<path d="M2280 2546 c0 -23 48 -66 73 -66 12 0 17 3 12 8 -6 4 -27 23 -47 41
-30 27 -38 31 -38 17z"/>
<path d="M1323 4684 c-9 -24 11 -38 36 -25 25 14 27 27 5 35 -25 9 -34 7 -41
-10z"/>
<path d="M3633 4684 c-9 -24 11 -38 36 -25 25 14 27 27 5 35 -25 9 -34 7 -41
-10z"/>
<path d="M1210 4625 c-23 -28 21 -50 48 -23 9 9 7 14 -6 24 -22 17 -27 17 -42
-1z"/>
<path d="M3750 4625 c-9 -11 -9 -18 3 -35 14 -20 14 -20 32 0 15 16 15 22 5
35 -16 19 -24 19 -40 0z"/>
<path d="M3862 4560 c-15 -25 -8 -40 18 -40 10 0 21 4 25 10 6 9 -15 50 -25
50 -3 0 -11 -9 -18 -20z"/>
<path d="M1095 4550 c-4 -6 -1 -17 5 -25 9 -11 17 -12 32 -4 15 8 17 13 7 25
-14 16 -35 18 -44 4z"/>
<path d="M990 4475 c-15 -18 -5 -35 20 -35 10 0 22 5 25 10 7 11 -12 40 -25
40 -4 0 -13 -7 -20 -15z"/>
<path d="M3973 4479 c-27 -27 13 -51 47 -29 13 8 12 11 -5 24 -24 19 -28 19
-42 5z"/>
<path d="M885 4390 c-7 -12 3 -50 13 -50 12 0 33 40 27 50 -8 13 -32 13 -40 0z"/>
<path d="M4073 4384 c-3 -8 1 -22 9 -30 13 -13 16 -13 27 0 7 9 11 23 7 31 -7
20 -35 19 -43 -1z"/>
<path d="M4183 4313 c-7 -3 -13 -14 -13 -24 0 -16 6 -20 27 -17 14 2 28 8 30
15 5 14 -27 32 -44 26z"/>
<path d="M783 4294 c-3 -8 1 -22 10 -31 14 -14 16 -13 26 6 7 12 9 26 6 31
-10 15 -35 12 -42 -6z"/>
<path d="M687 4206 c-8 -21 19 -54 33 -40 7 7 10 20 8 30 -4 23 -33 30 -41 10z"/>
<path d="M4266 4203 c-11 -26 10 -38 41 -24 27 12 27 13 8 27 -25 19 -41 18
-49 -3z"/>
<path d="M596 4111 c-10 -16 5 -41 24 -41 19 0 34 25 24 41 -3 5 -14 9 -24 9
-10 0 -21 -4 -24 -9z"/>
<path d="M4351 4107 c-9 -11 -8 -17 4 -27 19 -16 47 -5 43 17 -4 23 -31 28
-47 10z"/>
<path d="M520 4005 c-22 -26 7 -46 39 -26 12 8 12 12 2 25 -17 20 -25 20 -41
1z"/>
<path d="M4447 4013 c-15 -14 -7 -43 12 -43 26 0 36 17 21 35 -14 16 -23 19
-33 8z"/>
<path d="M441 3896 c-10 -11 -10 -20 0 -37 11 -22 12 -22 26 -3 25 34 0 72
-26 40z"/>
<path d="M4520 3895 c-11 -13 -11 -19 3 -33 20 -19 41 -5 35 24 -4 24 -22 28
-38 9z"/>
<path d="M366 3784 c-11 -30 13 -44 43 -25 12 8 12 12 2 25 -17 20 -37 20 -45
0z"/>
<path d="M4591 3781 c-6 -10 -7 -21 -4 -25 11 -11 40 -6 52 8 10 12 8 17 -8
25 -26 15 -29 14 -40 -8z"/>
<path d="M300 3664 c-11 -12 -10 -18 3 -32 16 -15 18 -15 31 3 10 14 11 24 4
32 -14 17 -23 16 -38 -3z"/>
<path d="M4654 3665 c-13 -32 23 -48 47 -19 10 13 10 17 -2 25 -21 13 -39 11
-45 -6z"/>
<path d="M237 3547 c-3 -9 1 -23 9 -34 14 -17 14 -17 29 2 8 10 14 24 12 30
-6 16 -44 18 -50 2z"/>
<path d="M4714 3545 c-13 -32 23 -48 47 -19 10 13 10 17 -2 25 -21 13 -39 11
-45 -6z"/>
<path d="M190 3435 c-11 -13 -11 -19 2 -32 17 -16 38 -10 38 11 0 8 -6 19 -14
25 -10 9 -16 8 -26 -4z"/>
<path d="M4773 3429 c-15 -15 -5 -39 16 -39 29 0 43 21 23 36 -21 17 -25 17
-39 3z"/>
<path d="M146 3309 c-14 -21 -14 -25 -1 -38 13 -14 17 -13 31 1 15 15 15 18 1
38 l-15 21 -16 -22z"/>
<path d="M4821 3306 c-16 -19 -7 -46 14 -46 22 0 30 29 13 46 -13 13 -16 13
-27 0z"/>
<path d="M113 3183 c-17 -6 -17 -38 0 -51 20 -17 44 25 25 43 -7 7 -19 11 -25
8z"/>
<path d="M4850 3161 c0 -10 6 -24 14 -30 12 -10 17 -8 26 9 13 25 6 40 -21 40
-12 0 -19 -7 -19 -19z"/>
<path d="M75 3050 c-4 -12 -1 -28 6 -36 12 -14 14 -14 25 1 10 13 10 21 1 36
-15 24 -24 24 -32 -1z"/>
<path d="M4890 3044 c-11 -12 -10 -18 3 -32 16 -15 18 -15 34 0 13 14 14 20 3
32 -7 9 -16 16 -20 16 -4 0 -13 -7 -20 -16z"/>
<path d="M53 2923 c-17 -6 -16 -25 1 -48 13 -18 14 -18 26 4 10 19 9 26 -2 36
-7 7 -19 11 -25 8z"/>
<path d="M4916 2917 c-16 -12 -17 -16 -5 -35 17 -27 25 -28 40 -1 8 17 8 24
-3 35 -12 12 -17 12 -32 1z"/>
<path d="M24 2779 c-3 -6 1 -18 10 -27 15 -15 17 -15 32 0 19 19 11 38 -16 38
-10 0 -22 -5 -26 -11z"/>
<path d="M4927 2776 c-3 -8 0 -20 8 -26 19 -16 59 8 43 27 -14 17 -45 17 -51
-1z"/>
<path d="M22 2659 c-12 -18 -11 -24 1 -36 29 -29 49 6 25 40 -12 16 -14 16
-26 -4z"/>
<path d="M4943 2649 c-15 -15 -5 -39 17 -39 26 0 43 23 28 38 -15 15 -31 15
-45 1z"/>
<path d="M18 2523 c-25 -6 -22 -30 3 -38 25 -8 44 7 36 29 -7 16 -9 17 -39 9z"/>
<path d="M4953 2523 c-17 -6 -16 -28 1 -42 11 -9 18 -8 30 4 9 9 16 18 16 20
0 9 -36 22 -47 18z"/>
<path d="M20 2390 c-13 -25 3 -52 26 -43 18 7 18 37 0 52 -12 10 -17 8 -26 -9z"/>
<path d="M4937 2376 c-3 -8 1 -22 9 -33 14 -17 14 -17 28 0 18 23 10 47 -14
47 -10 0 -20 -6 -23 -14z"/>
<path d="M30 2254 c-11 -12 -10 -18 3 -32 21 -21 42 -3 32 27 -8 25 -18 27
-35 5z"/>
<path d="M4931 2251 c-8 -14 -7 -22 4 -31 22 -19 48 5 34 31 -5 10 -14 19 -19
19 -5 0 -14 -9 -19 -19z"/>
<path d="M50 2115 c-11 -13 -11 -19 2 -32 17 -16 38 -10 38 11 0 8 -6 19 -14
25 -10 9 -16 8 -26 -4z"/>
<path d="M4910 2115 c-23 -28 16 -48 50 -25 13 9 12 12 -4 25 -25 19 -31 19
-46 0z"/>
<path d="M70 1985 c-6 -8 -9 -19 -5 -25 9 -15 41 -12 54 4 10 12 8 17 -8 25
-25 14 -26 14 -41 -4z"/>
<path d="M4883 1985 c-13 -10 -15 -17 -7 -25 16 -16 48 -9 52 11 4 23 -22 31
-45 14z"/>
<path d="M107 1863 c-24 -23 12 -55 38 -33 12 10 13 16 4 26 -12 15 -31 18
-42 7z"/>
<path d="M4863 1863 c-7 -3 -13 -13 -13 -23 0 -10 6 -20 13 -23 15 -5 47 10
47 23 0 13 -32 28 -47 23z"/>
<path d="M4821 1736 c-16 -19 -7 -46 14 -46 22 0 30 29 13 46 -13 13 -16 13
-27 0z"/>
<path d="M142 1728 c-13 -13 2 -38 23 -38 21 0 36 25 23 38 -7 7 -17 12 -23
12 -6 0 -16 -5 -23 -12z"/>
<path d="M187 1596 c-3 -8 0 -22 7 -31 11 -15 13 -15 25 -1 15 18 8 46 -13 46
-7 0 -16 -6 -19 -14z"/>
<path d="M4764 1598 c-4 -6 1 -17 11 -24 23 -17 60 3 43 23 -13 16 -44 17 -54
1z"/>
<path d="M241 1477 c-8 -10 -7 -19 4 -33 15 -19 15 -19 30 0 11 14 12 23 4 33
-6 7 -15 13 -19 13 -4 0 -13 -6 -19 -13z"/>
<path d="M4714 1475 c-13 -32 23 -48 47 -19 10 13 10 17 -2 25 -21 13 -39 11
-45 -6z"/>
<path d="M2808 1363 c-15 -10 -32 -30 -38 -46 -15 -43 6 -77 65 -109 67 -36
77 -46 70 -71 -10 -33 -43 -57 -80 -57 -41 0 -68 24 -59 52 5 16 2 19 -13 16
-13 -2 -19 -14 -21 -39 -4 -42 9 -49 91 -49 77 0 127 41 127 103 0 34 -13 47
-76 81 -42 22 -60 38 -62 54 -5 36 15 52 64 52 38 0 46 -4 56 -25 13 -29 23
-32 32 -9 12 31 6 52 -16 58 -43 11 -113 5 -140 -11z"/>
<path d="M294 1359 c-3 -6 0 -18 9 -26 12 -12 19 -13 36 -3 18 9 20 14 10 26
-14 17 -45 19 -55 3z"/>
<path d="M823 1363 c-20 -8 -15 -23 7 -23 11 0 20 -2 20 -4 0 -8 -41 -202 -46
-218 -3 -9 -14 -20 -25 -23 -10 -4 -19 -11 -19 -16 0 -12 117 -12 125 1 3 6 3
10 -2 10 -4 0 -14 4 -21 8 -12 8 -7 40 33 219 3 12 14 25 25 28 38 12 20 25
-32 24 -29 0 -59 -3 -65 -6z"/>
<path d="M1077 1363 c-16 -4 -16 -6 3 -21 17 -14 22 -36 30 -141 6 -69 12
-126 14 -129 16 -15 47 19 84 94 24 48 45 84 48 81 3 -3 8 -42 12 -88 6 -75 9
-84 27 -84 15 0 34 27 81 119 39 75 74 130 95 148 l34 28 -59 -2 c-37 -2 -61
-8 -64 -15 -2 -8 5 -13 18 -13 12 0 20 -4 18 -8 -21 -51 -93 -192 -98 -192 -6
0 -20 120 -20 176 0 14 8 25 20 29 11 3 20 11 20 16 0 15 -123 7 -128 -8 -2
-8 5 -13 17 -13 11 0 22 -4 26 -10 3 -5 -16 -51 -42 -102 l-47 -93 -7 45 c-4
25 -8 71 -8 102 -1 87 -11 97 -74 81z"/>
<path d="M3615 1360 c-3 -6 2 -14 13 -18 19 -7 18 -11 -14 -122 -18 -63 -37
-116 -42 -118 -5 -1 -18 -9 -28 -17 -17 -13 -15 -14 26 -14 25 0 54 4 65 9 19
9 19 9 -2 16 -28 8 -28 10 2 113 23 79 35 107 35 85 1 -43 31 -209 39 -217 7
-7 17 -5 31 8 11 10 20 21 20 25 0 4 23 50 50 101 l51 94 -6 -60 c-13 -132
-15 -144 -36 -150 -38 -12 -18 -25 40 -25 60 0 92 16 52 27 -25 6 -26 20 -10
145 9 69 16 91 30 99 32 17 21 29 -26 29 l-45 0 -57 -115 c-32 -63 -60 -115
-63 -115 -3 0 -11 48 -18 107 -7 59 -15 110 -18 115 -7 12 -82 10 -89 -2z"/>
<path d="M4653 1354 c-3 -8 1 -22 9 -30 13 -13 16 -13 27 0 7 9 11 23 7 31 -7
20 -35 19 -43 -1z"/>
<path d="M2008 1298 c-43 -45 -44 -48 -23 -48 11 0 14 -7 10 -22 -31 -136 -31
-154 -7 -160 22 -6 62 8 62 21 0 5 -9 7 -20 4 -26 -7 -26 -3 5 133 3 13 16 25
32 29 l28 7 -24 9 c-19 8 -22 15 -19 39 6 38 2 37 -44 -12z"/>
<path d="M2278 1298 c-42 -42 -45 -48 -24 -48 11 0 11 -10 0 -62 -24 -113 -15
-139 41 -118 30 11 34 30 5 23 -24 -6 -25 5 -7 91 10 50 17 60 42 71 26 12 27
13 8 14 -17 1 -22 8 -25 34 l-3 32 -37 -37z"/>
<path d="M1530 1274 c-54 -23 -75 -59 -75 -129 0 -53 3 -60 25 -72 21 -10 30
-9 57 7 27 16 33 17 44 4 16 -19 69 -19 69 1 0 9 -6 12 -15 9 -19 -8 -19 5 2
94 10 45 13 76 7 81 -18 18 -79 21 -114 5z m75 -14 c11 -19 -16 -108 -40 -134
-27 -29 -63 -34 -72 -10 -9 24 27 123 51 140 24 17 52 18 61 4z"/>
<path d="M1818 1249 l-39 -41 7 37 7 37 -34 -7 c-42 -9 -47 -14 -30 -25 12 -7
12 -20 -2 -87 -15 -75 -11 -103 12 -89 6 4 15 24 20 44 12 44 59 119 80 127
28 11 32 -11 16 -74 -23 -88 -12 -113 40 -91 18 8 18 9 2 9 -15 1 -17 7 -11
39 4 20 11 47 15 60 15 38 11 89 -7 96 -28 11 -36 7 -76 -35z"/>
<path d="M2441 1272 c-65 -35 -91 -124 -51 -175 60 -76 180 -9 180 99 0 77
-62 113 -129 76z m77 -14 c25 -25 7 -131 -28 -163 -17 -15 -24 -16 -45 -7 -33
15 -40 51 -20 111 21 65 62 90 93 59z"/>
<path d="M3082 1274 c-122 -62 -97 -243 28 -205 21 6 44 19 51 28 12 15 12 16
-6 8 -11 -4 -37 -10 -57 -13 -33 -4 -38 -1 -44 22 -8 34 -6 36 69 66 51 21 62
30 65 50 1 14 -1 31 -6 37 -14 21 -65 25 -100 7z m68 -27 c0 -24 -30 -55 -61
-62 -41 -9 -45 -2 -19 39 17 28 28 36 51 36 17 0 29 -5 29 -13z"/>
<path d="M3300 1272 c-102 -51 -108 -206 -7 -206 36 0 87 21 87 35 0 5 -12 4
-26 -1 -43 -17 -74 -12 -83 13 -13 34 -5 42 62 63 50 16 64 25 72 48 8 24 6
31 -14 47 -29 24 -46 24 -91 1z m60 -29 c0 -10 -4 -23 -8 -29 -16 -24 -82 -46
-82 -26 0 4 9 22 20 40 22 36 70 46 70 15z"/>
<path d="M3992 1273 l-24 -5 20 -21 c12 -13 27 -54 37 -104 15 -76 15 -84 0
-107 -23 -35 -44 -40 -54 -13 l-9 22 -10 -25 c-12 -32 -7 -40 27 -40 35 0 43
9 130 155 77 131 84 151 49 141 -13 -3 -29 -6 -35 -6 -7 0 -13 -4 -13 -10 0
-5 7 -10 15 -10 21 0 19 -7 -20 -74 -37 -66 -33 -70 -55 47 -7 32 -16 56 -23
56 -7 -1 -23 -4 -35 -6z"/>
<path d="M373 1253 c-17 -6 -17 -38 0 -52 15 -12 37 3 37 25 0 16 -22 32 -37
27z"/>
<path d="M4591 1241 c-12 -21 -5 -31 19 -31 28 0 42 22 22 36 -23 18 -30 17
-41 -5z"/>
<path d="M4520 1134 c-11 -12 -10 -18 3 -32 16 -15 18 -15 34 0 13 14 14 20 3
32 -7 9 -16 16 -20 16 -4 0 -13 -7 -20 -16z"/>
<path d="M434 1129 c-3 -6 1 -18 10 -27 15 -15 17 -15 32 0 9 9 13 21 10 27
-9 14 -43 14 -52 0z"/>
<path d="M520 1024 c-11 -12 -11 -18 1 -30 13 -12 18 -12 34 0 16 12 17 16 6
30 -17 20 -25 20 -41 0z"/>
<path d="M4447 1033 c-15 -14 -7 -43 12 -43 26 0 36 17 21 35 -14 16 -23 19
-33 8z"/>
<path d="M591 916 c-10 -12 -8 -17 9 -26 25 -13 52 3 43 26 -7 18 -37 18 -52
0z"/>
<path d="M4357 923 c-4 -3 -7 -15 -7 -25 0 -23 32 -24 51 -2 10 13 10 17 -2
25 -17 10 -33 11 -42 2z"/>
<path d="M2020 863 c-44 -14 -45 -16 -24 -22 l22 -6 -24 -110 c-12 -60 -23
-123 -23 -138 -1 -26 2 -28 31 -25 17 2 33 9 36 16 2 7 -2 10 -12 6 -21 -8
-21 -4 9 138 33 158 33 157 -15 141z"/>
<path d="M1705 851 c-7 -12 12 -24 25 -16 15 9 12 -14 -10 -118 -28 -124 -28
-124 -50 -130 -42 -11 -19 -27 38 -27 67 0 79 6 56 31 -13 14 -15 29 -10 62
l7 45 60 4 c91 7 132 46 115 112 -3 13 -17 28 -31 34 -31 14 -191 16 -200 3z
m169 -27 c40 -39 -4 -104 -71 -104 -34 0 -34 0 -27 38 13 69 21 82 53 82 16 0
37 -7 45 -16z"/>
<path d="M3084 794 c-32 -34 -38 -46 -27 -52 11 -7 11 -19 -2 -82 -9 -41 -13
-80 -10 -88 6 -17 67 -12 73 7 3 9 -2 11 -18 6 -18 -6 -21 -4 -17 12 3 10 11
46 18 80 10 53 15 64 38 72 26 10 26 10 3 17 -19 6 -22 11 -16 40 3 19 5 34 3
33 -2 0 -22 -21 -45 -45z"/>
<path d="M687 816 c-9 -23 18 -39 43 -26 17 9 19 14 9 26 -15 18 -45 18 -52 0z"/>
<path d="M4267 816 c-3 -8 1 -20 9 -27 12 -10 18 -9 31 3 8 9 12 21 9 27 -10
16 -43 14 -49 -3z"/>
<path d="M2152 760 c-60 -37 -88 -140 -50 -187 15 -18 58 -16 80 4 17 15 19
15 37 -1 22 -20 62 -18 69 3 3 10 0 12 -12 8 -21 -8 -21 14 1 100 15 63 15 67
-2 79 -27 20 -85 17 -123 -6z m91 -12 c9 -26 -21 -112 -48 -135 -33 -29 -53
-29 -66 1 -9 19 -6 33 16 79 26 53 36 60 81 66 7 0 14 -5 17 -11z"/>
<path d="M2430 773 c-26 -10 -68 -54 -80 -84 -14 -34 -6 -92 16 -114 27 -26
124 -14 124 16 0 6 -7 6 -20 -1 -29 -15 -70 -1 -81 27 -12 32 3 88 32 119 28
30 69 32 76 4 3 -11 9 -20 13 -20 10 0 24 39 17 47 -8 8 -81 13 -97 6z"/>
<path d="M2623 760 c-39 -24 -59 -54 -68 -101 -7 -37 6 -76 29 -91 19 -13 76
-9 107 8 41 21 30 29 -16 13 -43 -16 -69 -4 -73 34 -3 23 2 27 50 41 65 19 73
25 81 54 7 29 -23 62 -55 62 -13 0 -37 -9 -55 -20z m72 -9 c11 -19 -19 -61
-52 -72 -19 -6 -37 -9 -40 -6 -7 8 34 74 50 81 20 8 35 7 42 -3z"/>
<path d="M2882 743 l-35 -38 5 33 c4 30 3 32 -27 32 -38 0 -50 -9 -30 -24 14
-10 13 -20 -1 -94 -9 -45 -15 -85 -12 -87 14 -14 37 11 43 45 7 43 68 130 90
130 20 0 19 -38 -1 -107 -10 -36 -13 -58 -6 -65 14 -14 65 -6 70 11 3 10 0 12
-12 8 -20 -8 -20 1 1 90 13 59 14 75 3 87 -21 26 -50 18 -88 -21z"/>
<path d="M3260 773 c-47 -18 -90 -83 -90 -135 0 -67 57 -102 102 -61 17 15 19
15 37 -1 22 -20 62 -18 69 3 3 9 -2 11 -17 6 -26 -8 -26 -11 0 87 13 52 17 84
10 91 -11 11 -90 19 -111 10z m68 -45 c5 -40 -32 -116 -64 -130 -23 -11 -28
-10 -40 7 -8 10 -14 25 -14 33 0 24 52 111 69 115 31 9 46 2 49 -25z"/>
<path d="M785 730 c-7 -23 1 -40 20 -40 21 0 27 17 15 40 -14 25 -27 26 -35 0z"/>
<path d="M4175 730 c-8 -12 3 -50 14 -50 15 0 33 30 27 45 -6 17 -32 20 -41 5z"/>
<path d="M884 635 c-12 -30 16 -45 46 -25 13 9 12 12 -4 25 -25 19 -35 19 -42
0z"/>
<path d="M4073 634 c-3 -8 1 -22 9 -30 13 -13 16 -13 27 0 7 9 11 23 7 31 -7
20 -35 19 -43 -1z"/>
<path d="M990 560 c-15 -28 5 -57 26 -39 18 15 18 33 0 48 -12 10 -17 8 -26
-9z"/>
<path d="M3977 563 c-12 -11 -8 -41 6 -46 7 -3 21 1 32 9 18 14 18 14 -1 29
-22 16 -28 18 -37 8z"/>
<path d="M1101 486 c-16 -19 -7 -46 14 -46 22 0 30 29 13 46 -13 13 -16 13
-27 0z"/>
<path d="M3864 475 c-7 -18 3 -35 22 -35 20 0 30 30 13 41 -20 12 -29 11 -35
-6z"/>
<path d="M3752 409 c-12 -18 -11 -24 2 -37 15 -15 17 -15 32 0 13 13 14 19 2
37 -7 11 -15 21 -18 21 -3 0 -11 -10 -18 -21z"/>
<path d="M1204 399 c-3 -6 0 -18 9 -26 12 -12 18 -13 35 -2 16 10 18 16 10 26
-13 16 -44 17 -54 2z"/>
<path d="M1324 335 c-12 -29 15 -45 45 -26 12 8 12 12 2 25 -17 20 -40 21 -47
1z"/>
<path d="M3634 335 c-12 -29 15 -45 45 -26 12 8 12 12 2 25 -17 20 -40 21 -47
1z"/>
<path d="M1447 293 c-4 -3 -7 -17 -7 -30 0 -16 6 -23 20 -23 25 0 36 25 20 45
-14 16 -23 19 -33 8z"/>
<path d="M3506 277 c-16 -12 -16 -14 -2 -26 21 -18 51 -10 51 14 0 24 -24 30
-49 12z"/>
<path d="M1571 231 c-16 -10 -8 -41 11 -41 7 0 19 4 27 9 12 8 12 12 2 25 -15
18 -21 19 -40 7z"/>
<path d="M3393 229 c-16 -16 -5 -39 18 -39 24 0 37 29 18 41 -18 11 -23 11
-36 -2z"/>
<path d="M1690 185 c-11 -13 -11 -19 3 -33 20 -19 41 -5 35 24 -4 24 -22 28
-38 9z"/>
<path d="M3263 174 c-10 -26 13 -39 43 -25 26 11 26 12 8 26 -25 19 -43 19
-51 -1z"/>
<path d="M1820 145 c-16 -19 -5 -47 17 -43 11 2 18 12 18 27 0 29 -17 37 -35
16z"/>
<path d="M3135 140 c-7 -11 12 -50 25 -50 12 0 23 37 15 50 -8 13 -32 13 -40
0z"/>
<path d="M1950 115 c-15 -18 -6 -45 14 -45 20 0 29 16 21 40 -8 24 -18 25 -35
5z"/>
<path d="M3010 105 c-17 -21 1 -39 29 -30 25 8 28 30 5 39 -21 8 -20 8 -34 -9z"/>
<path d="M2080 90 c-13 -25 3 -52 26 -43 18 7 18 37 0 52 -12 10 -17 8 -26 -9z"/>
<path d="M2880 85 c-19 -22 5 -48 31 -34 10 5 19 14 19 19 0 5 -9 14 -19 19
-14 8 -22 7 -31 -4z"/>
<path d="M2214 65 c-7 -18 3 -35 22 -35 20 0 30 30 13 41 -20 12 -29 11 -35
-6z"/>
<path d="M2749 64 c-15 -18 0 -38 27 -32 25 5 28 25 6 37 -15 8 -23 7 -33 -5z"/>
<path d="M2353 63 c-17 -6 -16 -28 0 -42 10 -8 19 -7 32 3 16 12 17 16 6 30
-14 17 -18 18 -38 9z"/>
<path d="M2611 51 c-8 -14 -6 -22 9 -36 17 -16 19 -16 30 5 9 16 9 25 -1 36
-16 19 -26 18 -38 -5z"/>
<path d="M2476 51 c-10 -16 6 -42 23 -39 9 2 17 13 19 26 3 16 -2 22 -17 22
-11 0 -22 -4 -25 -9z"/>
</g>
</svg>
