<?xml version="1.0" standalone="no"?>
<!DOCTYPE svg PUBLIC "-//W3C//DTD SVG 20010904//EN"
 "http://www.w3.org/TR/2001/REC-SVG-20010904/DTD/svg10.dtd">
<svg version="1.0" xmlns="http://www.w3.org/2000/svg"
 width="500.000000pt" height="500.000000pt" viewBox="0 0 500.000000 500.000000"
 preserveAspectRatio="xMidYMid meet">
<metadata>
Created by potrace 1.15, written by Peter Selinger 2001-2017
</metadata>
<g transform="translate(0.000000,500.000000) scale(0.100000,-0.100000)"
fill="#000000" stroke="none">
<path d="M2351 4976 c-12 -15 -5 -46 11 -46 19 0 48 21 43 30 -13 21 -43 30
-54 16z"/>
<path d="M2480 4975 c-10 -12 -10 -18 0 -30 15 -18 20 -18 44 0 20 15 20 15 0
30 -24 18 -29 18 -44 0z"/>
<path d="M2617 4983 c-13 -12 -7 -41 9 -47 21 -8 21 -8 28 9 11 30 -17 59 -37
38z"/>
<path d="M2751 4968 c-11 -17 -10 -23 2 -35 18 -18 37 -9 37 16 0 31 -24 43
-39 19z"/>
<path d="M2085 4947 c-11 -43 15 -65 34 -28 8 14 6 23 -9 36 -18 17 -19 16
-25 -8z"/>
<path d="M2217 4963 c-23 -22 14 -53 39 -32 11 9 11 15 3 25 -12 15 -31 18
-42 7z"/>
<path d="M2891 4947 c-27 -27 -4 -55 29 -35 25 16 25 20 1 35 -14 9 -21 9 -30
0z"/>
<path d="M1950 4915 c-11 -13 -11 -19 3 -33 20 -19 41 -5 35 24 -4 24 -22 28
-38 9z"/>
<path d="M3012 4918 c-8 -8 -9 -15 -1 -25 15 -17 34 -17 48 1 10 12 8 17 -8
25 -24 14 -24 14 -39 -1z"/>
<path d="M1827 4893 c-4 -3 -7 -15 -7 -25 0 -20 25 -24 50 -8 13 8 12 11 -5
24 -23 17 -29 19 -38 9z"/>
<path d="M3147 4893 c-11 -10 -8 -41 4 -49 6 -3 18 1 27 9 13 13 13 19 2 31
-14 17 -23 20 -33 9z"/>
<path d="M3269 4849 c-9 -17 -8 -23 2 -30 33 -21 57 3 34 34 -16 22 -22 21
-36 -4z"/>
<path d="M1694 4845 c-12 -31 23 -48 45 -21 10 12 8 17 -8 25 -26 14 -31 14
-37 -4z"/>
<path d="M1565 4800 c-7 -11 12 -50 25 -50 12 0 23 37 15 50 -8 13 -32 13 -40
0z"/>
<path d="M3394 4795 c-13 -32 23 -48 47 -19 10 13 10 17 -2 25 -21 13 -39 11
-45 -6z"/>
<path d="M1444 4745 c-12 -29 15 -45 45 -26 12 8 12 12 2 25 -17 20 -40 21
-47 1z"/>
<path d="M3523 4753 c-18 -7 -16 -28 3 -44 13 -10 17 -10 25 2 18 28 1 54 -28
42z"/>
<path d="M3640 4690 c-14 -26 0 -46 24 -37 20 8 21 31 2 46 -12 10 -17 8 -26
-9z"/>
<path d="M1325 4690 c-8 -12 3 -50 14 -50 5 0 14 7 21 15 10 12 10 18 0 30
-14 17 -26 19 -35 5z"/>
<path d="M1205 4620 c-3 -5 -1 -19 6 -31 10 -19 12 -20 26 -6 9 9 13 23 10 31
-7 18 -32 21 -42 6z"/>
<path d="M3756 4621 c-7 -11 3 -41 13 -41 4 0 16 7 27 15 16 13 17 16 4 25
-19 12 -37 13 -44 1z"/>
<path d="M1100 4555 c-15 -18 -6 -45 14 -45 20 0 29 16 21 40 -8 24 -18 25
-35 5z"/>
<path d="M3867 4553 c-12 -12 -7 -31 10 -37 9 -4 23 0 32 9 14 14 14 17 1 25
-18 11 -34 13 -43 3z"/>
<path d="M3981 4477 c-26 -26 -4 -55 29 -37 25 13 25 22 1 37 -14 9 -21 9 -30
0z"/>
<path d="M984 4469 c-3 -6 1 -18 10 -27 15 -15 17 -15 32 0 19 19 11 38 -16
38 -10 0 -22 -5 -26 -11z"/>
<path d="M887 4393 c-24 -23 12 -55 38 -33 12 10 13 16 4 26 -12 15 -31 18
-42 7z"/>
<path d="M4073 4384 c-3 -8 2 -23 11 -32 15 -15 17 -15 30 3 10 14 11 24 4 32
-14 18 -37 16 -45 -3z"/>
<path d="M785 4300 c-9 -15 5 -52 18 -47 6 2 15 11 21 20 8 13 7 20 -4 27 -19
12 -27 12 -35 0z"/>
<path d="M4177 4303 c-24 -24 12 -50 43 -31 14 9 16 16 8 25 -11 14 -40 17
-51 6z"/>
<path d="M4274 4213 c-14 -24 -7 -43 16 -43 25 0 33 15 20 40 -13 25 -22 25
-36 3z"/>
<path d="M691 4206 c-9 -11 -8 -18 5 -30 15 -16 18 -16 35 0 18 16 18 18 1 30
-22 17 -27 17 -41 0z"/>
<path d="M600 4105 c-6 -8 -9 -19 -5 -25 9 -15 41 -12 54 4 10 12 8 17 -8 25
-25 14 -26 14 -41 -4z"/>
<path d="M4364 4105 c-12 -31 23 -48 45 -21 10 12 8 17 -8 25 -26 14 -31 14
-37 -4z"/>
<path d="M4452 4018 c-16 -16 -15 -33 2 -47 21 -18 41 11 26 38 -13 25 -12 25
-28 9z"/>
<path d="M520 4005 c-19 -22 5 -48 31 -34 10 5 19 14 19 19 0 5 -9 14 -19 19
-14 8 -22 7 -31 -4z"/>
<path d="M4525 3899 c-4 -13 -2 -27 7 -36 13 -12 16 -12 27 1 9 11 10 20 1 35
-14 27 -27 27 -35 0z"/>
<path d="M440 3894 c-11 -12 -10 -18 3 -31 15 -15 18 -15 37 2 19 17 19 19 2
31 -22 17 -27 17 -42 -2z"/>
<path d="M4602 3798 c-16 -16 -15 -33 2 -47 21 -18 41 11 26 38 -13 25 -12 25
-28 9z"/>
<path d="M370 3785 c-9 -11 -11 -22 -4 -32 13 -21 25 -21 38 -1 8 14 7 21 -5
33 -14 15 -17 15 -29 0z"/>
<path d="M639 3676 c-24 -14 -39 -39 -53 -91 -9 -33 11 -166 27 -183 14 -13
19 -12 52 8 20 12 39 19 43 15 4 -3 10 -73 13 -153 4 -81 11 -203 18 -272 6
-69 20 -241 31 -383 23 -283 34 -334 93 -401 39 -46 95 -63 257 -77 71 -6 669
-9 1572 -7 l1456 3 26 24 c53 50 55 65 66 636 10 513 15 580 43 619 12 17 15
16 49 -18 63 -63 89 -43 96 72 4 81 -10 135 -43 162 -12 10 -98 14 -393 17
-569 5 -2665 32 -3017 38 -262 4 -314 3 -336 -9z m3117 -56 c698 0 636 12 644
-121 6 -105 -7 -132 -40 -76 -18 30 -28 37 -53 37 -41 0 -53 -9 -67 -44 -7
-18 -15 -195 -21 -460 -15 -665 -24 -746 -89 -764 -34 -9 -3128 -9 -3162 0
-78 23 -135 116 -148 246 -12 111 -29 435 -40 748 -7 197 -12 250 -24 270 -22
32 -65 32 -96 -1 -13 -14 -27 -25 -32 -25 -14 0 -10 174 5 189 10 11 232 12
1271 7 693 -3 1526 -6 1852 -6z"/>
<path d="M2628 3496 c-94 -15 -145 -48 -197 -125 -29 -45 -46 -59 -88 -76 -29
-11 -65 -30 -81 -42 -26 -19 -55 -24 -243 -38 -217 -16 -288 -30 -369 -70 -65
-33 -188 -123 -325 -239 -154 -131 -172 -143 -235 -159 -37 -10 -57 -21 -68
-40 -15 -25 -15 -28 0 -43 9 -9 36 -19 62 -21 l45 -6 -21 -37 c-33 -57 -23
-70 79 -100 36 -11 46 -11 67 4 14 9 27 16 28 16 2 0 2 -17 0 -38 -3 -28 1
-42 17 -56 17 -16 24 -16 57 -6 31 10 39 10 42 0 12 -36 40 -49 96 -43 39 4
56 2 56 -6 0 -6 9 -11 20 -11 26 0 72 -23 89 -44 20 -24 57 -19 78 10 l19 26
43 -21 c23 -12 46 -32 51 -46 12 -32 40 -38 91 -20 74 27 80 28 105 14 21 -11
30 -11 57 1 22 10 60 13 119 12 63 -2 95 1 117 12 39 21 40 21 51 -10 10 -24
14 -26 58 -21 80 9 100 14 131 36 39 28 56 26 87 -9 35 -39 53 -43 97 -25 27
11 43 12 62 5 39 -15 50 -13 82 14 28 23 31 24 89 12 33 -7 69 -9 79 -6 11 4
35 1 54 -6 49 -20 74 -18 157 17 63 26 79 30 97 20 12 -7 34 -19 50 -27 26
-14 31 -14 80 10 28 14 71 30 93 36 23 6 45 17 48 26 4 11 10 12 25 4 30 -15
47 -12 79 15 17 14 42 25 56 25 82 0 4 135 -135 235 -78 56 -122 101 -193 192
-38 50 -73 81 -193 168 -61 44 -63 46 -63 90 0 53 -16 88 -59 129 -25 24 -31
38 -31 71 0 41 -22 75 -48 75 -6 0 -23 22 -37 50 -35 69 -60 83 -132 76 -67
-6 -67 -6 -153 -2 -36 2 -100 -2 -142 -8z m360 -26 c36 -22 56 -62 48 -95 -4
-17 2 -25 29 -38 35 -17 39 -25 35 -84 -1 -27 5 -36 38 -57 52 -33 56 -40 41
-79 -11 -30 -9 -38 15 -79 14 -24 26 -59 26 -77 0 -18 4 -40 9 -49 6 -11 5
-34 -2 -61 -10 -37 -9 -44 6 -56 13 -9 17 -27 17 -78 0 -57 3 -66 20 -72 11
-4 32 -17 47 -31 22 -21 36 -24 97 -24 73 0 102 -10 191 -65 64 -40 74 -28 20
22 -67 62 -115 83 -192 83 -56 0 -64 3 -79 25 -12 19 -15 35 -9 63 16 73 11
119 -14 146 -34 36 -45 32 -21 -6 23 -37 28 -102 8 -96 -24 8 -59 71 -54 98 3
14 7 42 11 63 l6 38 42 -33 c99 -76 172 -145 199 -189 18 -30 46 -58 76 -75
71 -41 182 -152 182 -181 0 -19 -4 -23 -19 -18 -12 4 -23 0 -28 -10 -8 -13
-24 -15 -83 -13 l-73 3 -12 34 c-18 53 -36 61 -151 61 -95 0 -105 2 -132 25
-17 14 -39 25 -50 25 -27 0 -43 23 -45 62 -2 30 -5 33 -29 30 -34 -4 -48 21
-48 87 0 39 6 56 27 81 l26 32 -27 21 c-26 21 -27 24 -16 72 6 27 7 51 3 52
-50 18 -58 29 -63 88 -3 33 -11 60 -18 63 -6 2 -22 12 -34 22 -19 15 -23 28
-24 81 l-1 63 -74 19 c-74 18 -74 18 -88 -2 -18 -27 -47 -27 -62 2 -6 12 -13
23 -14 25 -1 1 -15 -4 -31 -13 -16 -8 -50 -15 -75 -15 l-47 0 -4 -54 c-6 -69
-28 -103 -84 -127 -35 -16 -48 -18 -65 -9 -24 13 -34 8 -26 -15 13 -32 84 -15
139 34 l35 30 39 -19 c21 -11 56 -20 79 -20 61 0 163 -18 233 -41 53 -18 66
-27 77 -53 16 -36 6 -44 -27 -22 -49 31 -146 56 -215 55 l-68 -2 65 -9 c36 -5
104 -25 152 -44 48 -19 94 -34 103 -34 8 0 24 -9 35 -20 17 -17 19 -28 14 -56
-5 -28 -2 -42 14 -64 l21 -28 -21 -39 c-27 -50 -19 -101 26 -151 17 -20 39
-49 49 -64 9 -14 45 -41 80 -58 58 -29 73 -31 170 -33 58 -1 110 -6 116 -12 5
-5 11 -23 13 -39 3 -28 13 -38 51 -50 10 -3 16 -10 13 -15 -4 -5 -18 -5 -35 2
-35 13 -81 -6 -81 -33 0 -9 -6 -25 -14 -35 -14 -19 -15 -19 -41 9 -23 25 -31
28 -69 23 -34 -5 -44 -3 -54 13 -13 22 -52 26 -69 9 -7 -7 -9 -25 -6 -40 8
-41 -31 -49 -86 -17 -38 22 -42 22 -68 7 -27 -15 -31 -14 -90 18 l-63 33 -20
-20 c-11 -11 -20 -27 -20 -35 0 -27 -26 -27 -65 -1 -21 14 -42 26 -47 26 -4 0
-16 -16 -25 -35 -9 -19 -20 -35 -24 -35 -12 0 -34 32 -44 64 -13 41 -62 49
-94 15 -21 -23 -22 -23 -52 -5 -31 18 -31 18 -59 -9 -25 -24 -32 -26 -45 -15
-8 7 -15 18 -15 25 0 22 -28 38 -55 31 -14 -4 -35 -22 -48 -41 -18 -28 -28
-35 -54 -35 -26 0 -33 4 -33 19 0 10 -7 22 -16 25 -28 11 -91 -13 -109 -40
l-16 -25 -35 20 c-37 22 -57 19 -84 -13 -13 -17 -80 -22 -80 -8 0 5 9 17 20
27 13 12 20 29 18 44 -4 37 -42 40 -78 6 -28 -27 -28 -27 -39 -6 -17 30 -42
26 -81 -14 -19 -19 -38 -35 -42 -35 -4 0 -21 18 -37 41 -25 34 -28 44 -18 60
13 21 5 33 -29 43 -16 5 -33 -3 -64 -29 -23 -19 -48 -35 -55 -35 -18 0 -34 22
-41 58 -6 28 -9 31 -33 26 -14 -4 -37 -13 -49 -21 -13 -8 -26 -12 -29 -10 -2
3 4 28 13 56 10 27 15 53 11 57 -15 16 -74 7 -105 -15 -28 -19 -33 -20 -38 -7
-4 11 -19 16 -46 16 -46 0 -43 10 13 46 30 19 39 31 37 47 -2 17 -11 23 -40
25 -21 2 -52 -1 -70 -5 -18 -5 -41 -7 -50 -5 -39 8 -14 29 69 57 100 34 185
91 373 251 161 137 177 148 285 179 87 26 96 27 270 21 162 -5 184 -4 221 13
23 10 45 24 49 30 11 19 79 59 106 63 18 2 25 11 30 38 8 50 34 95 70 121 26
18 40 21 84 16 37 -4 59 -1 72 8 26 20 73 18 111 -5 l33 -20 42 25 c51 30 72
31 115 5z m-231 -168 c20 -12 29 -12 72 3 27 10 55 16 63 13 13 -6 46 -114 37
-122 -9 -7 -215 22 -241 34 -23 11 -28 20 -28 51 0 31 4 38 23 41 26 5 44 0
74 -20z"/>
<path d="M2270 3142 c0 -17 -76 -50 -130 -56 -51 -7 -97 -24 -159 -60 -17 -10
-31 -12 -48 -5 -31 12 -103 12 -103 0 0 -5 34 -12 75 -16 72 -7 79 -6 133 23
31 16 73 33 92 37 60 11 130 36 145 52 17 17 20 33 5 33 -5 0 -10 -4 -10 -8z"/>
<path d="M2510 3095 c0 -14 144 -160 176 -178 24 -13 85 -10 154 8 38 10 85
15 113 12 50 -4 73 6 34 17 -38 10 -104 7 -164 -9 -101 -26 -106 -25 -207 75
-51 50 -95 90 -99 90 -4 0 -7 -7 -7 -15z"/>
<path d="M2305 3093 c-30 -7 -38 -19 -30 -42 8 -27 25 -27 25 0 0 12 8 23 20
26 11 3 20 9 20 14 0 9 -3 10 -35 2z"/>
<path d="M2114 3015 c-22 -7 -54 -20 -70 -28 -31 -17 -224 -207 -210 -207 5 0
51 40 103 90 107 103 153 130 218 130 52 0 55 -7 23 -67 -21 -38 -21 -45 -9
-93 22 -85 -4 -132 -98 -179 -57 -29 -117 -78 -108 -87 7 -8 144 76 191 117
l41 37 0 94 c0 75 4 102 20 131 34 65 -9 92 -101 62z"/>
<path d="M2436 3018 c20 -34 83 -91 114 -104 49 -21 89 -62 100 -104 9 -35 -1
-92 -29 -164 -19 -47 -4 -42 28 10 72 112 46 208 -74 278 -33 19 -74 49 -90
66 -28 30 -64 42 -49 18z"/>
<path d="M1800 2970 c-30 -6 -26 -8 27 -9 34 0 64 -5 67 -10 3 -4 -21 -32 -54
-61 -34 -28 -69 -69 -80 -91 -24 -47 -26 -73 -3 -39 31 46 77 95 119 127 50
39 62 63 38 80 -19 14 -58 15 -114 3z"/>
<path d="M2236 2948 c-9 -12 -16 -31 -16 -41 0 -32 42 -201 53 -215 19 -23 18
-5 -4 74 -16 57 -20 95 -16 141 2 35 3 63 1 63 -1 0 -10 -10 -18 -22z"/>
<path d="M2790 2893 c-31 -6 -50 -21 -50 -39 0 -8 29 -32 65 -55 35 -22 79
-58 97 -79 30 -36 39 -40 97 -46 42 -5 62 -3 58 3 -4 6 -27 13 -52 16 -38 4
-54 12 -88 48 -23 25 -63 60 -90 78 -44 32 -57 49 -39 52 4 1 42 3 84 4 113 5
137 25 28 23 -47 0 -96 -3 -110 -5z"/>
<path d="M3380 2813 c0 -10 -3 -42 -6 -70 -9 -75 12 -69 27 7 12 60 12 60 32
43 11 -10 33 -38 48 -63 16 -25 29 -39 29 -32 0 23 -27 77 -53 105 -30 31 -77
37 -77 10z"/>
<path d="M2715 2768 c-20 -61 -45 -153 -45 -166 0 -29 21 3 45 69 12 35 27 65
32 66 16 6 62 -36 89 -82 24 -41 24 -45 10 -74 -25 -47 -15 -121 15 -121 6 0
5 8 -2 22 -9 16 -8 34 1 74 22 89 -10 168 -81 204 -45 23 -58 25 -64 8z"/>
<path d="M2164 2644 c-73 -44 -127 -84 -121 -91 3 -2 40 16 83 41 94 55 114
58 114 16 0 -38 20 -77 54 -109 32 -31 33 -18 1 34 -16 26 -25 55 -25 82 0 32
-5 45 -19 53 -26 13 -19 15 -87 -26z"/>
<path d="M2300 2648 c0 -25 91 -118 116 -118 9 0 -4 19 -34 48 -27 27 -53 58
-56 70 -9 28 -26 28 -26 0z"/>
<path d="M2955 2620 c-11 -17 15 -88 38 -102 34 -23 137 -59 137 -49 0 6 -10
13 -22 17 -81 25 -128 64 -128 106 0 11 47 7 83 -7 11 -5 17 -2 17 7 0 9 -19
19 -51 26 -61 14 -66 15 -74 2z"/>
<path d="M303 3669 c-6 -6 -9 -18 -6 -25 7 -18 37 -18 52 0 10 12 8 17 -8 25
-24 14 -24 14 -38 0z"/>
<path d="M4667 3673 c-4 -3 -7 -15 -7 -25 0 -22 32 -24 49 -4 10 12 8 17 -8
25 -23 13 -26 13 -34 4z"/>
<path d="M240 3544 c-11 -12 -10 -18 3 -32 16 -15 18 -15 34 0 13 14 14 20 3
32 -7 9 -16 16 -20 16 -4 0 -13 -7 -20 -16z"/>
<path d="M4720 3545 c-6 -8 -9 -19 -5 -25 9 -15 41 -12 54 4 10 12 8 17 -8 25
-25 14 -26 14 -41 -4z"/>
<path d="M4781 3436 c-17 -20 -6 -49 16 -44 22 4 26 20 10 42 -12 16 -14 16
-26 2z"/>
<path d="M190 3425 c-15 -18 -5 -35 20 -35 10 0 22 5 25 10 7 11 -12 40 -25
40 -4 0 -13 -7 -20 -15z"/>
<path d="M141 3301 c-16 -28 14 -51 36 -28 13 13 14 19 3 31 -17 21 -27 20
-39 -3z"/>
<path d="M4821 3296 c-18 -21 11 -41 39 -26 17 9 19 14 9 26 -15 18 -33 18
-48 0z"/>
<path d="M107 3173 c-25 -24 11 -49 40 -28 16 13 16 16 3 25 -17 11 -34 13
-43 3z"/>
<path d="M4855 3170 c-3 -5 -1 -19 6 -31 10 -19 12 -20 26 -6 9 9 13 23 10 31
-7 18 -32 21 -42 6z"/>
<path d="M77 3053 c-10 -10 -8 -41 3 -48 5 -3 19 -1 31 5 20 11 20 12 3 31
-18 20 -27 23 -37 12z"/>
<path d="M4890 3033 c0 -10 5 -25 10 -33 9 -13 12 -13 25 3 7 11 11 25 8 33
-8 20 -43 18 -43 -3z"/>
<path d="M50 2925 c-9 -11 -11 -22 -4 -32 13 -21 25 -21 38 -1 8 14 7 21 -5
33 -14 15 -17 15 -29 0z"/>
<path d="M4913 2904 c-3 -8 1 -22 9 -30 13 -13 16 -13 27 0 7 9 11 23 7 31 -7
20 -35 19 -43 -1z"/>
<path d="M24 2779 c-3 -6 1 -18 10 -27 15 -15 17 -15 34 1 15 16 15 19 2 27
-20 13 -37 12 -46 -1z"/>
<path d="M4937 2783 c-24 -23 12 -55 38 -33 12 10 13 16 4 26 -12 15 -31 18
-42 7z"/>
<path d="M4950 2655 c-9 -11 -11 -22 -4 -32 13 -21 25 -21 38 -1 8 14 7 21 -5
33 -14 15 -17 15 -29 0z"/>
<path d="M20 2645 c-11 -13 -11 -19 3 -33 20 -19 41 -5 35 24 -4 24 -22 28
-38 9z"/>
<path d="M4949 2514 c-10 -12 -9 -18 4 -31 13 -13 19 -14 31 -3 21 17 20 27
-3 39 -14 8 -22 7 -32 -5z"/>
<path d="M4 2509 c-3 -6 -2 -15 4 -21 15 -15 46 -5 50 15 3 12 -3 17 -22 17
-14 0 -28 -5 -32 -11z"/>
<path d="M4945 2379 c-8 -26 6 -42 28 -33 20 7 22 25 5 42 -17 17 -26 15 -33
-9z"/>
<path d="M14 2379 c-3 -6 0 -18 9 -26 12 -12 19 -13 38 -3 22 12 22 13 4 26
-23 17 -41 18 -51 3z"/>
<path d="M4935 2250 c-8 -24 1 -40 21 -40 20 0 29 27 14 45 -17 20 -27 19 -35
-5z"/>
<path d="M30 2245 c-10 -12 -10 -18 0 -31 12 -13 15 -13 28 0 15 15 10 46 -6
46 -5 0 -15 -7 -22 -15z"/>
<path d="M49 2114 c-15 -18 0 -38 27 -32 25 5 28 25 6 37 -15 8 -23 7 -33 -5z"/>
<path d="M4923 2123 c-17 -6 -16 -25 1 -48 13 -18 14 -18 26 4 10 19 9 26 -2
36 -7 7 -19 11 -25 8z"/>
<path d="M74 1985 c-7 -17 2 -45 13 -45 4 0 17 7 27 15 20 15 20 15 0 30 -24
18 -33 19 -40 0z"/>
<path d="M4897 1993 c-12 -11 -7 -43 6 -43 23 0 38 22 26 37 -13 14 -22 16
-32 6z"/>
<path d="M4860 1860 c-15 -28 5 -57 26 -39 18 15 18 33 0 48 -12 10 -17 8 -26
-9z"/>
<path d="M104 1855 c-12 -30 16 -45 46 -25 13 9 12 12 -4 25 -25 19 -35 19
-42 0z"/>
<path d="M1025 1790 c-3 -5 3 -10 14 -10 26 0 26 -4 1 -120 -28 -127 -28 -127
-53 -136 -16 -6 -5 -9 42 -11 37 -2 68 0 74 6 8 8 4 11 -12 11 -22 0 -23 3
-18 48 13 105 39 194 58 199 11 3 19 9 19 14 0 12 -117 11 -125 -1z"/>
<path d="M1270 1792 c0 -5 9 -12 19 -15 16 -4 20 -17 25 -68 19 -215 16 -200
39 -197 16 2 34 26 68 92 l46 88 6 -38 c4 -22 7 -56 7 -76 0 -49 9 -68 31 -68
14 0 35 32 84 130 50 100 72 133 93 143 26 11 24 12 -27 15 -30 2 -59 -2 -64
-7 -8 -8 -4 -11 11 -11 12 0 22 -3 22 -6 0 -13 -93 -204 -100 -204 -4 0 -10
44 -14 97 -6 84 -4 99 10 110 13 10 9 13 -30 18 -25 4 -54 4 -63 0 -15 -6 -14
-9 10 -17 15 -5 27 -14 27 -19 0 -17 -93 -194 -97 -184 -1 6 -6 57 -11 115
l-7 105 -42 3 c-24 2 -43 -1 -43 -6z"/>
<path d="M2985 1790 c-3 -5 3 -10 14 -10 25 0 25 -7 6 -102 -28 -131 -34 -148
-55 -148 -11 0 -20 -4 -20 -10 0 -6 28 -10 64 -10 36 0 68 5 71 10 4 6 -5 10
-20 10 -25 0 -26 2 -20 33 21 94 41 99 84 23 40 -69 52 -78 98 -73 33 3 35 5
15 12 -20 7 -120 151 -111 159 2 2 40 29 84 60 l79 57 -64 -3 c-39 -2 -63 -7
-60 -13 2 -5 11 -9 18 -7 8 2 13 -1 11 -6 -5 -13 -119 -105 -124 -100 -2 2 1
25 7 51 7 37 16 50 34 57 13 5 24 12 24 15 0 10 -129 5 -135 -5z"/>
<path d="M2246 1755 c-10 -14 -31 -35 -49 -45 -29 -18 -30 -20 -9 -20 26 0 26
1 7 -91 -9 -40 -13 -79 -11 -86 8 -19 61 -16 77 4 13 15 11 16 -14 9 -28 -7
-28 -6 -21 31 19 104 29 128 52 131 28 4 29 22 1 22 -19 0 -20 4 -15 35 8 42
4 44 -18 10z"/>
<path d="M2512 1755 c-7 -14 -26 -34 -44 -45 -29 -18 -31 -20 -10 -20 18 0 21
-4 18 -22 -20 -92 -27 -141 -22 -154 6 -15 33 -18 60 -8 23 9 20 26 -4 19 -24
-8 -24 -2 -6 81 16 73 21 84 47 84 10 0 19 5 19 10 0 6 -10 10 -21 10 -18 0
-21 5 -17 30 6 39 -6 47 -20 15z"/>
<path d="M142 1728 c-13 -13 2 -38 23 -38 21 0 36 25 23 38 -7 7 -17 12 -23
12 -6 0 -16 -5 -23 -12z"/>
<path d="M4823 1729 c-16 -16 -5 -39 17 -39 25 0 35 18 20 35 -15 18 -22 19
-37 4z"/>
<path d="M1722 1700 c-78 -48 -84 -200 -8 -200 9 0 28 7 42 16 23 15 26 15 44
-1 21 -19 51 -17 58 4 3 10 0 12 -12 8 -20 -8 -20 1 1 92 17 71 17 74 -2 87
-27 20 -85 17 -123 -6z m98 -17 c0 -40 -24 -98 -50 -125 -35 -34 -45 -35 -65
-4 -15 23 -15 27 6 68 30 61 48 78 81 78 20 0 28 -5 28 -17z"/>
<path d="M2031 1685 c-17 -19 -33 -35 -35 -35 -3 0 -3 14 1 30 5 28 3 30 -23
30 -39 0 -63 -15 -36 -22 20 -6 20 -7 2 -92 l-18 -87 21 3 c16 2 23 13 29 41
10 49 65 127 90 127 22 0 22 -15 2 -92 -18 -70 -14 -88 19 -88 32 0 57 27 29
32 -19 3 -19 5 -1 78 19 83 13 110 -25 110 -15 0 -36 -14 -55 -35z"/>
<path d="M2641 1695 c-79 -67 -58 -195 32 -195 69 0 117 54 117 133 0 82 -83
117 -149 62z m100 -16 c14 -27 5 -104 -16 -136 -26 -39 -95 -21 -95 25 0 27
18 82 35 108 20 31 60 32 76 3z"/>
<path d="M3343 1701 c-41 -26 -63 -60 -70 -108 -10 -78 61 -117 138 -77 41 21
30 28 -20 13 -47 -14 -71 -2 -71 36 0 20 10 27 65 45 53 18 66 26 71 47 4 15
2 33 -3 42 -15 24 -73 25 -110 2z m71 -10 c13 -21 -14 -59 -49 -71 -20 -7 -39
-9 -42 -6 -3 3 6 24 21 46 25 38 57 52 70 31z"/>
<path d="M3540 1683 c-44 -45 -59 -97 -40 -143 7 -18 23 -33 37 -36 25 -7 110
13 119 27 7 12 -1 11 -49 -3 -37 -11 -41 -10 -58 11 -26 32 -14 48 47 68 69
22 91 44 78 81 -8 23 -16 27 -52 30 -39 3 -47 -1 -82 -35z m93 5 c8 -26 -16
-58 -52 -68 -42 -11 -46 -9 -31 22 28 53 72 77 83 46z"/>
<path d="M3839 1693 c-31 -27 -32 -27 -27 -5 5 19 2 22 -25 22 -18 0 -39 -5
-47 -10 -12 -8 -11 -10 8 -10 18 0 21 -4 17 -22 -3 -13 -14 -66 -24 -117 -12
-58 -26 -100 -35 -107 -15 -10 -14 -12 9 -18 14 -4 36 -4 50 0 22 5 23 8 10
18 -23 17 -8 56 21 56 36 0 86 24 113 53 35 38 41 117 12 146 -28 28 -43 27
-82 -6z m49 -15 c18 -18 14 -47 -13 -105 -21 -47 -28 -53 -55 -53 -19 0 -33 6
-37 16 -10 28 59 154 85 154 5 0 13 -5 20 -12z"/>
<path d="M190 1605 c-10 -12 -10 -18 0 -29 16 -20 42 -8 38 17 -4 26 -21 32
-38 12z"/>
<path d="M4774 1599 c-3 -6 0 -17 8 -25 12 -12 17 -12 33 1 17 13 18 16 5 25
-20 13 -37 13 -46 -1z"/>
<path d="M235 1480 c-8 -13 13 -40 30 -40 21 0 36 25 23 38 -15 15 -45 16 -53
2z"/>
<path d="M4721 1477 c-8 -10 -7 -19 4 -33 15 -19 15 -19 30 0 11 14 12 23 4
33 -6 7 -15 13 -19 13 -4 0 -13 -6 -19 -13z"/>
<path d="M297 1356 c-9 -23 18 -39 43 -26 17 9 19 14 9 26 -15 18 -45 18 -52
0z"/>
<path d="M4662 1358 c-13 -13 2 -38 23 -38 21 0 36 25 23 38 -7 7 -17 12 -23
12 -6 0 -16 -5 -23 -12z"/>
<path d="M1463 1183 c-32 -62 -61 -113 -64 -113 -4 0 -10 33 -13 73 -15 154
-12 147 -67 147 -47 0 -68 -15 -30 -22 17 -3 16 -10 -17 -120 -28 -93 -39
-119 -56 -125 -20 -6 -20 -7 4 -14 38 -11 80 -10 80 1 0 6 -7 10 -15 10 -8 0
-15 8 -15 18 0 18 47 182 54 189 4 5 13 -50 22 -138 12 -121 32 -119 103 13
69 130 70 130 65 83 -14 -150 -16 -157 -35 -162 -10 -3 -19 -9 -19 -14 0 -12
117 -11 125 1 3 6 -3 10 -14 10 -25 0 -26 14 -10 145 8 68 16 93 30 103 29 20
23 27 -25 27 l-45 0 -58 -112z"/>
<path d="M2024 1285 c-19 -14 -18 -14 4 -15 28 0 28 -16 2 -135 -13 -60 -26
-95 -40 -106 -10 -9 -16 -19 -13 -23 10 -10 111 -7 118 4 3 6 -3 10 -14 10
-24 0 -27 23 -10 83 10 37 10 37 62 37 62 0 96 16 116 52 20 36 2 74 -44 94
-46 19 -155 19 -181 -1z m164 -27 c17 -17 15 -58 -5 -80 -11 -12 -30 -18 -58
-18 l-43 0 9 43 c5 23 12 48 14 55 6 15 67 16 83 0z"/>
<path d="M2313 1293 c-18 -7 -16 -23 2 -23 19 0 20 11 -10 -127 -14 -65 -25
-124 -25 -130 0 -15 48 -17 70 -3 12 8 11 10 -8 10 -18 0 -21 4 -17 23 3 12
14 65 25 117 11 52 22 105 25 118 5 19 1 22 -22 21 -16 0 -34 -3 -40 -6z"/>
<path d="M370 1245 c-9 -11 -11 -22 -4 -32 13 -21 25 -21 38 -1 8 14 7 21 -5
33 -14 15 -17 15 -29 0z"/>
<path d="M3397 1222 c-24 -25 -34 -41 -26 -44 9 -3 9 -21 -1 -87 -12 -71 -12
-84 1 -92 20 -12 32 -11 55 6 19 14 18 14 -3 15 -27 0 -27 9 -10 95 11 54 15
60 40 63 31 4 37 22 8 22 -15 0 -21 8 -23 31 l-3 30 -38 -39z"/>
<path d="M4602 1248 c-16 -16 -15 -33 2 -47 22 -18 44 25 24 45 -11 11 -16 12
-26 2z"/>
<path d="M2496 1210 c-15 -5 -37 -17 -48 -27 -48 -42 -63 -138 -28 -173 24
-24 38 -25 69 -4 22 16 25 16 51 0 16 -9 35 -13 44 -10 20 8 21 24 1 24 -19 0
-19 11 0 80 21 77 19 97 -7 105 -44 12 -53 13 -82 5z m53 -19 c18 -12 6 -81
-23 -123 -25 -38 -69 -50 -80 -22 -10 27 33 134 58 144 27 11 29 11 45 1z"/>
<path d="M2746 1209 c-85 -23 -127 -139 -70 -195 21 -22 31 -25 62 -19 20 3
46 16 57 27 l20 20 -22 -11 c-31 -16 -69 -14 -88 6 -33 33 0 132 51 155 23 11
28 9 44 -12 20 -27 26 -26 32 4 4 24 -41 37 -86 25z"/>
<path d="M2966 1210 c-56 -17 -96 -73 -96 -134 0 -50 8 -64 44 -76 36 -12 106
5 113 26 3 9 -7 8 -34 -1 -44 -16 -76 -3 -81 33 -3 17 8 24 63 42 68 23 87 43
77 83 -4 14 -45 41 -55 36 -1 0 -15 -5 -31 -9z m44 -40 c0 -24 -34 -56 -66
-63 -30 -5 -32 14 -3 54 24 35 69 41 69 9z"/>
<path d="M3235 1208 c-11 -6 -33 -24 -48 -42 l-28 -31 6 36 7 35 -36 -4 c-36
-4 -61 -22 -32 -22 21 0 20 -14 -10 -157 -3 -18 0 -23 16 -23 13 0 21 9 25 28
15 73 84 167 106 145 8 -8 6 -32 -7 -88 -16 -66 -16 -78 -3 -86 20 -12 32 -11
55 6 19 14 18 14 -3 15 -27 0 -27 -1 -8 70 8 30 15 67 15 82 0 33 -27 51 -55
36z"/>
<path d="M3592 1209 c-61 -13 -102 -69 -102 -142 0 -23 5 -48 12 -55 16 -16
60 -15 83 2 17 12 22 11 45 -6 15 -11 33 -16 43 -12 21 8 22 24 2 24 -19 0
-19 16 1 95 9 36 14 71 11 79 -7 17 -51 24 -95 15z m53 -28 c9 -15 -12 -92
-33 -120 -25 -34 -67 -40 -82 -12 -8 17 -5 31 16 73 15 29 32 56 38 60 16 11
54 10 61 -1z"/>
<path d="M1798 1203 c-29 -4 -39 -23 -13 -23 21 0 19 -7 -19 -74 -36 -64 -38
-63 -51 19 -11 71 -14 75 -50 75 -19 0 -37 -4 -40 -10 -3 -5 3 -10 14 -10 13
0 22 -8 26 -22 2 -13 11 -53 20 -90 8 -37 12 -75 8 -85 -15 -43 -63 -72 -63
-38 0 8 -4 15 -10 15 -5 0 -10 -4 -10 -9 0 -5 -3 -16 -6 -25 -5 -13 1 -16 29
-16 43 0 55 14 146 171 58 100 71 131 54 128 -5 -1 -20 -4 -35 -6z"/>
<path d="M4524 1135 c-7 -17 2 -45 13 -45 4 0 17 7 27 15 20 15 20 15 0 30
-24 18 -33 19 -40 0z"/>
<path d="M435 1130 c-7 -11 12 -50 24 -50 10 0 21 24 21 46 0 16 -36 19 -45 4z"/>
<path d="M522 1038 c-15 -15 -15 -31 -1 -45 15 -15 39 -5 39 17 0 26 -23 43
-38 28z"/>
<path d="M4450 1025 c-22 -26 7 -46 39 -26 12 8 12 12 2 25 -17 20 -25 20 -41
1z"/>
<path d="M601 916 c-18 -21 11 -41 39 -26 17 9 19 14 9 26 -15 18 -33 18 -48
0z"/>
<path d="M4364 915 c-4 -8 0 -22 7 -31 12 -14 14 -14 26 2 9 13 10 21 2 31
-15 17 -28 17 -35 -2z"/>
<path d="M690 824 c-11 -12 -10 -18 3 -31 22 -23 52 0 36 28 -12 23 -22 24
-39 3z"/>
<path d="M4271 817 c-9 -11 -8 -17 3 -26 18 -15 48 -3 44 18 -4 21 -32 26 -47
8z"/>
<path d="M786 724 c-11 -30 13 -44 43 -25 12 8 12 12 2 25 -17 20 -37 20 -45
0z"/>
<path d="M4180 725 c-21 -25 2 -42 36 -26 26 11 26 12 8 26 -24 18 -29 18 -44
0z"/>
<path d="M891 646 c-16 -19 -7 -46 14 -46 22 0 30 29 13 46 -13 13 -16 13 -27
0z"/>
<path d="M4078 638 c-13 -35 27 -53 51 -24 10 12 8 17 -8 25 -26 14 -38 14
-43 -1z"/>
<path d="M3982 568 c-16 -16 -15 -33 2 -47 21 -18 41 11 26 38 -13 25 -12 25
-28 9z"/>
<path d="M984 549 c-3 -6 1 -18 10 -27 15 -15 17 -15 32 0 19 19 11 38 -16 38
-10 0 -22 -5 -26 -11z"/>
<path d="M1103 483 c-17 -6 -16 -31 1 -48 12 -12 16 -12 26 0 22 27 3 61 -27
48z"/>
<path d="M3864 477 c-3 -9 0 -26 7 -38 11 -22 12 -22 26 -3 7 10 12 25 11 34
-4 20 -37 25 -44 7z"/>
<path d="M1209 409 c-9 -17 -8 -24 4 -36 12 -13 16 -12 30 2 14 13 14 20 4 35
-15 25 -24 25 -38 -1z"/>
<path d="M3757 413 c-12 -11 -8 -40 7 -52 12 -10 17 -8 26 9 16 29 -12 65 -33
43z"/>
<path d="M1324 335 c-12 -29 15 -45 45 -26 12 8 12 12 2 25 -17 20 -40 21 -47
1z"/>
<path d="M3640 335 c-21 -25 2 -42 36 -26 26 11 26 12 8 26 -24 18 -29 18 -44
0z"/>
<path d="M1445 280 c-8 -24 1 -40 21 -40 20 0 29 27 14 45 -17 20 -27 19 -35
-5z"/>
<path d="M3520 285 c-15 -18 -6 -45 14 -45 20 0 29 16 21 40 -8 24 -18 25 -35
5z"/>
<path d="M1571 226 c-11 -14 -5 -46 9 -46 15 0 32 30 26 45 -7 19 -20 19 -35
1z"/>
<path d="M3394 225 c-4 -9 -2 -21 4 -27 15 -15 44 -1 40 19 -4 23 -36 29 -44
8z"/>
<path d="M3270 184 c-11 -12 -10 -18 3 -31 22 -23 52 0 36 28 -12 23 -22 24
-39 3z"/>
<path d="M1687 176 c-9 -23 18 -39 43 -26 17 9 19 14 9 26 -15 18 -45 18 -52
0z"/>
<path d="M1820 144 c-11 -12 -10 -18 3 -32 16 -15 18 -15 34 0 13 14 14 20 3
32 -7 9 -16 16 -20 16 -4 0 -13 -7 -20 -16z"/>
<path d="M3141 141 c-16 -28 14 -51 36 -28 13 13 14 19 3 31 -17 21 -27 20
-39 -3z"/>
<path d="M1950 105 c-11 -13 -11 -19 3 -33 20 -19 41 -5 35 24 -4 24 -22 28
-38 9z"/>
<path d="M3012 108 c-8 -8 -9 -15 -1 -25 14 -17 34 -17 48 0 11 15 -3 37 -24
37 -6 0 -16 -5 -23 -12z"/>
<path d="M2083 91 c-9 -15 -9 -23 1 -36 11 -16 13 -16 29 -1 14 14 14 20 4 36
-15 25 -19 25 -34 1z"/>
<path d="M2880 85 c-10 -12 -10 -18 0 -30 15 -18 20 -18 44 0 20 15 20 15 0
30 -24 18 -29 18 -44 0z"/>
<path d="M2214 65 c-12 -31 23 -48 45 -21 10 12 8 17 -8 25 -26 14 -31 14 -37
-4z"/>
<path d="M2615 60 c-8 -24 1 -40 21 -40 20 0 29 27 14 45 -17 20 -27 19 -35
-5z"/>
<path d="M2750 65 c-6 -8 -9 -19 -5 -25 8 -13 42 -13 50 0 7 11 -12 40 -25 40
-4 0 -13 -7 -20 -15z"/>
<path d="M2350 55 c-16 -19 8 -59 27 -43 17 14 17 45 -1 51 -8 3 -20 0 -26 -8z"/>
<path d="M2477 54 c-10 -10 12 -44 28 -44 9 0 15 10 15 25 0 18 -5 25 -18 25
-10 0 -22 -3 -25 -6z"/>
</g>
</svg>
