<?xml version="1.0" standalone="no"?>
<!DOCTYPE svg PUBLIC "-//W3C//DTD SVG 20010904//EN"
 "http://www.w3.org/TR/2001/REC-SVG-20010904/DTD/svg10.dtd">
<svg version="1.0" xmlns="http://www.w3.org/2000/svg"
 width="497.000000pt" height="500.000000pt" viewBox="0 0 497.000000 500.000000"
 preserveAspectRatio="xMidYMid meet">
<metadata>
Created by potrace 1.15, written by Peter Selinger 2001-2017
</metadata>
<g transform="translate(0.000000,500.000000) scale(0.100000,-0.100000)"
fill="#000000" stroke="none">
<path d="M2470 4975 c-19 -22 5 -48 31 -34 10 5 19 14 19 19 0 5 -9 14 -19 19
-14 8 -22 7 -31 -4z"/>
<path d="M2600 4975 c-11 -13 -11 -19 3 -33 20 -19 41 -5 35 24 -4 24 -22 28
-38 9z"/>
<path d="M2337 4973 c-24 -23 12 -55 38 -33 12 10 13 16 4 26 -12 15 -31 18
-42 7z"/>
<path d="M2205 4960 c-9 -15 5 -52 18 -47 15 5 16 49 0 54 -6 2 -14 -1 -18 -7z"/>
<path d="M2737 4963 c-23 -22 14 -53 39 -32 11 9 11 15 3 25 -12 15 -31 18
-42 7z"/>
<path d="M2869 4947 c-16 -34 0 -58 26 -37 19 15 19 21 1 45 -14 19 -15 19
-27 -8z"/>
<path d="M2071 4946 c-18 -22 4 -62 25 -45 18 15 18 33 0 48 -10 9 -16 8 -25
-3z"/>
<path d="M1931 4917 c-9 -11 -8 -17 4 -27 19 -16 47 -5 43 17 -4 23 -31 28
-47 10z"/>
<path d="M2997 4923 c-24 -23 12 -55 38 -33 12 10 13 16 4 26 -12 15 -31 18
-42 7z"/>
<path d="M1817 4903 c-11 -10 -8 -41 3 -48 6 -4 17 -1 25 5 11 9 12 16 2 31
-13 20 -20 23 -30 12z"/>
<path d="M3127 4893 c-4 -3 -7 -15 -7 -25 0 -22 32 -24 49 -4 10 12 8 17 -8
25 -23 13 -26 13 -34 4z"/>
<path d="M3254 4853 c-13 -22 -7 -43 11 -43 19 0 27 17 20 40 -8 25 -17 25
-31 3z"/>
<path d="M1681 4847 c-8 -10 -7 -19 4 -33 13 -18 15 -18 31 -2 14 14 15 20 4
32 -15 19 -24 20 -39 3z"/>
<path d="M3379 4806 c-17 -35 2 -59 27 -34 15 15 15 18 1 39 l-16 22 -12 -27z"/>
<path d="M1554 4799 c-3 -6 1 -18 10 -27 15 -15 17 -15 32 0 19 19 11 38 -16
38 -10 0 -22 -5 -26 -11z"/>
<path d="M1441 4756 c-16 -19 -7 -46 14 -46 22 0 30 29 13 46 -13 13 -16 13
-27 0z"/>
<path d="M3497 4753 c-24 -23 12 -55 38 -33 12 10 13 16 4 26 -12 15 -31 18
-42 7z"/>
<path d="M1314 4685 c-12 -29 15 -45 45 -26 12 8 12 12 2 25 -17 20 -40 21
-47 1z"/>
<path d="M3616 4684 c-6 -16 9 -44 25 -44 15 0 22 42 8 51 -20 12 -26 11 -33
-7z"/>
<path d="M3737 4633 c-10 -9 -9 -41 2 -47 4 -3 16 1 27 8 15 12 16 16 5 30
-15 17 -24 20 -34 9z"/>
<path d="M1197 4617 c-3 -7 1 -21 9 -32 14 -18 14 -18 28 0 17 23 10 45 -14
45 -10 0 -20 -6 -23 -13z"/>
<path d="M1091 4546 c-18 -22 11 -41 40 -25 22 11 22 12 4 25 -24 17 -30 17
-44 0z"/>
<path d="M3842 4548 c-7 -10 -6 -19 4 -33 15 -20 15 -20 30 0 8 10 13 24 11
30 -5 15 -33 17 -45 3z"/>
<path d="M984 4476 c-9 -37 10 -56 33 -33 16 16 16 18 -4 39 l-22 21 -7 -27z"/>
<path d="M3944 4469 c-3 -6 0 -18 9 -26 12 -12 19 -13 36 -3 18 9 20 14 10 26
-14 17 -45 19 -55 3z"/>
<path d="M880 4385 c-11 -13 -11 -19 4 -33 15 -15 18 -15 26 -2 22 33 -6 64
-30 35z"/>
<path d="M4055 4390 c-9 -15 5 -52 18 -47 6 2 15 11 21 20 8 13 7 20 -4 27
-19 12 -27 12 -35 0z"/>
<path d="M781 4296 c-18 -21 11 -41 39 -26 17 9 19 14 9 26 -15 18 -33 18 -48
0z"/>
<path d="M4151 4296 c-18 -21 11 -41 39 -26 17 9 19 14 9 26 -15 18 -33 18
-48 0z"/>
<path d="M1805 4274 c-100 -16 -237 -75 -328 -141 -137 -101 -208 -285 -193
-498 22 -307 166 -560 424 -745 50 -36 92 -67 92 -70 0 -3 -21 -12 -47 -19
-93 -27 -152 -58 -158 -84 -7 -27 36 -190 65 -247 10 -20 44 -77 74 -125 58
-92 116 -226 116 -268 0 -13 -29 -96 -64 -184 -98 -246 -146 -439 -126 -512
22 -84 218 -221 314 -221 73 0 140 47 166 115 38 97 -38 1133 -104 1424 l-23
105 47 50 c50 55 142 174 207 271 56 84 106 185 139 285 25 77 28 98 29 230 0
209 -3 220 -97 360 -101 153 -163 205 -296 251 -55 19 -182 31 -237 23z m198
-344 c120 -45 233 -165 298 -317 74 -173 36 -369 -110 -563 -84 -112 -166
-205 -183 -208 -41 -8 -52 81 -19 146 28 55 26 86 -7 123 -36 41 -62 31 -32
-11 25 -36 25 -42 -2 -38 -14 2 -25 15 -35 42 -15 46 -30 66 -49 66 -18 0 -54
-58 -54 -87 0 -16 -6 -23 -20 -23 -25 0 -25 7 1 49 11 18 17 36 14 40 -9 8
-105 -96 -105 -113 0 -6 23 -34 50 -61 49 -48 69 -45 30 5 -27 34 -25 40 10
40 l30 0 0 -85 c0 -47 -4 -85 -9 -85 -14 0 -122 84 -199 155 -118 109 -206
268 -226 406 -9 65 18 189 61 276 58 120 179 225 295 258 69 20 187 13 261
-15z m-123 -842 c7 -23 26 -106 45 -185 27 -118 37 -148 59 -168 32 -30 33
-47 4 -45 -39 4 -40 1 -3 -31 46 -41 49 -79 5 -79 -36 0 -39 -13 -6 -28 14 -6
32 -22 40 -34 21 -32 53 -382 60 -663 4 -121 11 -288 18 -371 6 -82 8 -162 5
-176 -10 -38 -62 -86 -103 -94 -45 -8 -97 12 -196 75 -98 63 -113 86 -111 168
2 80 17 130 110 381 63 168 79 202 92 195 24 -11 90 -8 103 5 9 9 1 16 -33 30
-24 11 -61 37 -81 60 -50 55 -55 99 -28 231 11 57 19 105 17 108 -3 2 -29 3
-58 1 l-54 -3 39 -17 c25 -12 36 -23 33 -32 -3 -8 -11 -32 -18 -55 -7 -23 -15
-41 -19 -41 -14 0 -79 78 -100 119 -40 80 -23 107 80 125 63 10 75 15 75 32 0
17 -7 19 -71 18 -50 0 -80 -5 -97 -17 -34 -22 -37 -22 -37 7 0 35 18 44 116
64 49 9 89 22 89 27 0 6 -25 11 -56 13 -49 3 -88 -6 -151 -33 -15 -6 -18 -2
-18 23 0 40 13 48 105 67 44 8 91 20 104 26 l24 10 -8 164 c-5 113 -3 165 4
165 6 0 15 -19 21 -42z"/>
<path d="M1671 3765 c-64 -30 -131 -81 -131 -100 0 -30 23 -25 64 13 37 34
134 81 169 82 7 0 3 7 -7 15 -26 20 -32 19 -95 -10z"/>
<path d="M1930 3760 c0 -5 10 -10 23 -10 29 -1 98 -32 142 -66 42 -32 54 -28
25 9 -39 49 -190 103 -190 67z"/>
<path d="M1548 3572 c43 -39 207 -57 232 -27 7 9 10 18 6 22 -4 4 -53 8 -109
8 -56 1 -113 5 -127 9 l-25 8 23 -20z"/>
<path d="M2145 3574 c-39 -15 -94 -14 -182 2 -26 5 -33 3 -33 -9 0 -28 41 -47
100 -47 78 0 180 35 180 61 0 12 -18 10 -65 -7z"/>
<path d="M1754 3336 c-9 -39 2 -46 75 -46 117 0 161 19 130 56 -16 19 -27 17
-25 -3 1 -15 -9 -18 -61 -21 -52 -2 -66 1 -83 18 -26 26 -28 25 -36 -4z"/>
<path d="M686 4204 c-3 -8 -1 -25 5 -37 11 -20 12 -20 25 -2 18 25 18 41 -2
49 -21 8 -21 8 -28 -10z"/>
<path d="M4250 4205 c-22 -26 7 -46 39 -26 12 8 12 12 2 25 -17 20 -25 20 -41
1z"/>
<path d="M4341 4116 c-16 -19 -7 -46 14 -46 22 0 30 29 13 46 -13 13 -16 13
-27 0z"/>
<path d="M595 4110 c-9 -15 4 -50 20 -50 16 0 29 35 20 50 -3 5 -12 10 -20 10
-8 0 -17 -5 -20 -10z"/>
<path d="M520 4005 c-19 -23 5 -48 31 -32 10 6 19 14 19 17 0 3 -9 11 -19 17
-15 10 -22 9 -31 -2z"/>
<path d="M4419 4004 c-10 -12 -9 -18 3 -31 14 -14 19 -14 37 -1 17 12 19 17 9
25 -27 21 -36 22 -49 7z"/>
<path d="M441 3896 c-10 -12 -10 -20 0 -37 11 -22 12 -22 25 -4 17 24 17 30 0
44 -10 9 -16 8 -25 -3z"/>
<path d="M4503 3903 c-16 -6 -17 -25 -1 -41 12 -12 48 1 48 18 0 13 -32 28
-47 23z"/>
<path d="M2812 3817 c-89 -33 -152 -127 -152 -227 0 -79 23 -119 88 -151 29
-14 75 -47 101 -73 43 -42 52 -47 86 -44 39 3 63 28 28 28 -10 0 -36 17 -56
38 l-37 38 35 12 c45 17 112 94 126 146 30 107 6 185 -71 224 -48 24 -97 27
-148 9z m128 -37 c26 -26 33 -58 28 -133 -7 -116 -69 -197 -151 -197 -27 0
-41 7 -62 32 -26 30 -27 37 -23 108 5 86 30 143 78 184 39 33 100 36 130 6z"/>
<path d="M3506 3815 c-16 -12 -17 -17 -6 -30 16 -19 34 -19 50 0 10 12 10 18
0 30 -15 18 -20 18 -44 0z"/>
<path d="M372 3788 c-16 -16 -15 -33 2 -47 22 -18 44 25 24 45 -11 11 -16 12
-26 2z"/>
<path d="M4571 3787 c-14 -17 -4 -47 15 -47 22 0 29 29 12 46 -13 13 -16 13
-27 1z"/>
<path d="M3975 3749 c-9 -17 -32 -40 -51 -51 -38 -22 -44 -38 -14 -38 24 0 24
-5 5 -90 -21 -96 -20 -136 6 -143 11 -3 34 -1 50 5 36 12 40 37 4 30 -31 -5
-31 1 -8 114 14 65 21 84 34 84 25 0 49 11 49 21 0 5 -12 9 -26 9 -26 0 -26 2
-22 45 6 52 -5 58 -27 14z"/>
<path d="M3735 3701 c-68 -17 -117 -65 -136 -134 -14 -51 2 -111 33 -128 39
-21 165 6 176 38 2 9 -6 9 -32 -2 -56 -24 -104 -20 -118 9 -17 38 -5 52 69 76
84 28 103 44 103 85 0 48 -37 69 -95 56z m42 -37 c13 -36 -10 -67 -64 -85 -58
-19 -66 -13 -42 34 31 60 91 89 106 51z"/>
<path d="M3128 3693 c-27 -4 -41 -32 -15 -29 21 2 21 -11 2 -108 -21 -108 -18
-126 25 -126 39 0 75 23 106 69 l24 36 -6 -47 c-8 -55 6 -67 58 -52 39 12 52
38 14 28 -32 -8 -32 -10 -1 118 30 123 30 118 6 118 -24 0 -36 -16 -49 -63
-20 -72 -90 -167 -123 -167 -15 0 -10 53 11 136 11 44 20 82 20 87 0 7 -23 7
-72 0z"/>
<path d="M3453 3693 c-7 -2 -13 -12 -13 -20 0 -9 6 -13 15 -9 21 8 19 -12 -7
-122 -24 -100 -21 -114 26 -114 26 0 56 17 56 32 0 5 -9 6 -20 3 -26 -7 -26 8
5 127 14 52 25 98 25 103 0 8 -68 8 -87 0z"/>
<path d="M300 3675 c-15 -18 -6 -45 14 -45 20 0 29 16 21 40 -8 24 -18 25 -35
5z"/>
<path d="M4637 3673 c-24 -23 12 -55 38 -33 12 10 13 16 4 26 -12 15 -31 18
-42 7z"/>
<path d="M243 3549 c-6 -6 -9 -18 -6 -25 7 -18 37 -18 52 0 10 12 8 17 -8 25
-24 14 -24 14 -38 0z"/>
<path d="M4697 3553 c-11 -11 -8 -40 6 -51 19 -16 43 24 26 44 -13 15 -22 18
-32 7z"/>
<path d="M191 3427 c-14 -17 -4 -47 15 -47 22 0 29 29 12 46 -13 13 -16 13
-27 1z"/>
<path d="M4751 3430 c-21 -12 -5 -42 21 -38 12 2 23 8 25 15 6 16 -30 34 -46
23z"/>
<path d="M4794 3306 c-8 -22 3 -49 19 -43 6 2 12 14 12 27 0 27 -22 39 -31 16z"/>
<path d="M137 3296 c-3 -8 1 -22 9 -33 14 -17 14 -17 29 1 11 14 12 23 4 33
-15 17 -35 17 -42 -1z"/>
<path d="M4831 3178 c-11 -17 -10 -23 2 -35 18 -18 37 -9 37 16 0 31 -24 43
-39 19z"/>
<path d="M97 3166 c-3 -8 3 -22 13 -31 17 -16 19 -15 30 4 6 12 8 26 5 31 -9
15 -42 12 -48 -4z"/>
<path d="M2933 3163 c-18 -7 -16 -23 1 -23 8 0 17 -3 20 -8 2 -4 -9 -70 -24
-147 -37 -178 -38 -203 -6 -211 25 -6 66 10 66 26 0 6 -9 10 -20 10 -11 0 -20
4 -20 9 0 7 26 135 61 296 4 22 8 43 9 48 0 8 -68 8 -87 0z"/>
<path d="M2557 3153 c-14 -13 -6 -23 18 -23 32 0 32 -12 0 -170 -26 -129 -36
-150 -66 -150 -11 0 -19 -7 -19 -15 0 -13 14 -15 87 -13 58 2 88 7 91 16 2 8
-7 12 -27 12 -20 0 -31 5 -31 15 0 31 22 115 32 121 5 4 44 10 86 15 61 7 81
13 103 35 51 49 43 125 -17 150 -34 14 -244 20 -257 7z m221 -35 c5 -7 11 -22
12 -33 7 -69 -13 -90 -99 -101 -49 -6 -53 -5 -48 12 3 10 11 45 17 77 l11 57
48 0 c27 0 53 -6 59 -12z"/>
<path d="M74 3044 c-9 -34 10 -54 32 -32 13 13 14 19 2 37 -17 28 -26 27 -34
-5z"/>
<path d="M3195 3050 c-43 -9 -69 -25 -99 -60 -48 -58 -57 -150 -19 -192 26
-29 136 -20 181 15 23 18 5 18 -46 2 -58 -19 -88 -10 -98 30 -9 35 -2 41 75
64 82 25 101 41 101 85 0 49 -35 69 -95 56z m43 -50 c4 -36 -16 -58 -70 -74
-55 -16 -60 -9 -33 44 31 60 97 79 103 30z"/>
<path d="M3756 3050 c-33 -10 -76 -47 -76 -66 0 -28 24 -63 52 -75 102 -42
102 -116 0 -107 -30 2 -38 7 -40 26 -5 30 -28 28 -36 -4 -8 -32 -7 -34 44 -45
78 -18 160 26 160 86 0 25 -18 43 -77 75 -46 26 -62 53 -43 75 26 31 115 8 95
-25 -3 -6 3 -10 14 -10 16 0 21 6 21 29 0 23 -5 30 -27 35 -16 4 -35 9 -43 11
-8 1 -28 -1 -44 -5z"/>
<path d="M4050 3048 c-19 -5 -47 -19 -63 -30 -55 -39 -83 -142 -55 -203 22
-49 123 -55 183 -11 31 22 14 27 -40 11 -43 -13 -51 -13 -72 0 -15 10 -23 25
-23 43 0 26 6 30 77 53 58 19 82 32 92 50 21 37 8 75 -30 88 -18 6 -32 11 -33
10 -1 0 -17 -5 -36 -11z m53 -39 c17 -27 -15 -64 -69 -83 -26 -9 -49 -14 -51
-12 -2 2 3 21 12 42 27 66 83 93 108 53z"/>
<path d="M3435 3039 c-46 -27 -76 -66 -91 -116 -19 -65 -11 -106 24 -133 32
-26 65 -20 105 18 25 24 27 24 27 6 0 -44 42 -57 81 -24 l24 19 -27 1 c-16 0
-28 3 -28 6 0 3 11 51 26 106 17 71 22 104 15 111 -16 16 -132 20 -156 6z
m100 -29 c11 -34 -24 -131 -60 -167 -40 -40 -49 -41 -71 -8 -28 42 -1 132 52
174 34 27 71 27 79 1z"/>
<path d="M4863 3034 c-9 -24 11 -38 37 -24 17 9 19 14 9 26 -15 19 -38 18 -46
-2z"/>
<path d="M43 2904 c-3 -8 1 -22 9 -30 13 -13 16 -13 27 0 7 9 11 23 7 31 -7
20 -35 19 -43 -1z"/>
<path d="M4883 2904 c-3 -8 1 -22 9 -30 13 -13 16 -13 27 0 7 9 11 23 7 31 -7
20 -35 19 -43 -1z"/>
<path d="M24 2779 c-3 -6 1 -18 10 -27 15 -15 17 -15 34 1 15 16 15 19 2 27
-20 13 -37 12 -46 -1z"/>
<path d="M4905 2780 c-9 -15 5 -52 18 -47 6 2 15 11 21 20 8 13 7 20 -4 27
-19 12 -27 12 -35 0z"/>
<path d="M20 2645 c-11 -13 -11 -19 4 -33 15 -15 18 -15 26 -2 22 33 -6 64
-30 35z"/>
<path d="M4921 2646 c-10 -12 -10 -20 0 -37 11 -22 12 -22 25 -4 17 24 17 30
0 44 -10 9 -16 8 -25 -3z"/>
<path d="M4 2509 c-3 -6 -2 -15 4 -21 15 -15 46 -5 50 15 3 12 -3 17 -22 17
-14 0 -28 -5 -32 -11z"/>
<path d="M4915 2510 c-3 -5 -1 -19 5 -30 9 -17 14 -19 26 -9 21 17 18 49 -5
49 -11 0 -23 -4 -26 -10z"/>
<path d="M4920 2385 c-15 -18 -6 -45 14 -45 20 0 29 16 21 40 -8 24 -18 25
-35 5z"/>
<path d="M13 2374 c-3 -8 1 -22 9 -30 13 -13 16 -13 27 0 7 9 11 23 7 31 -7
20 -35 19 -43 -1z"/>
<path d="M4905 2250 c-8 -24 1 -40 21 -40 20 0 29 27 14 45 -17 20 -27 19 -35
-5z"/>
<path d="M26 2244 c-11 -30 13 -44 43 -25 12 8 12 12 2 25 -17 20 -37 20 -45
0z"/>
<path d="M44 2115 c-4 -9 -2 -21 4 -27 15 -15 44 -1 40 19 -4 23 -36 29 -44 8z"/>
<path d="M4890 2115 c-17 -21 6 -61 26 -44 18 15 18 45 0 52 -8 3 -20 0 -26
-8z"/>
<path d="M71 1986 c-9 -11 -9 -19 1 -35 16 -26 20 -26 35 -1 10 15 10 22 -3
35 -19 18 -19 18 -33 1z"/>
<path d="M4860 1984 c-11 -12 -11 -18 1 -30 13 -12 18 -12 34 0 16 12 17 16 6
30 -17 20 -25 20 -41 0z"/>
<path d="M100 1854 c-11 -12 -10 -18 3 -32 16 -15 18 -15 34 0 13 14 14 20 3
32 -7 9 -16 16 -20 16 -4 0 -13 -7 -20 -16z"/>
<path d="M4830 1855 c-8 -10 -8 -19 2 -34 15 -25 24 -26 32 -5 15 38 -10 67
-34 39z"/>
<path d="M143 1729 c-15 -15 -5 -39 17 -39 26 0 43 23 28 38 -15 15 -31 15
-45 1z"/>
<path d="M4797 1733 c-4 -3 -7 -15 -7 -25 0 -22 32 -24 49 -4 10 12 8 17 -8
25 -23 13 -26 13 -34 4z"/>
<path d="M2317 1683 c-15 -14 -6 -23 24 -23 27 0 30 -3 26 -22 -3 -13 -15 -75
-28 -138 -24 -126 -39 -160 -70 -160 -12 0 -19 -5 -16 -12 2 -9 26 -13 72 -13
46 0 70 4 73 13 2 7 -5 12 -17 12 -12 0 -24 7 -28 17 -7 19 36 253 47 253 4 0
36 -63 71 -140 34 -78 69 -146 76 -151 26 -22 40 0 62 98 53 232 54 237 80
243 14 3 26 11 29 18 3 9 -17 12 -72 12 -61 0 -76 -3 -76 -15 0 -9 9 -15 25
-15 20 0 25 -5 25 -25 0 -24 -35 -193 -46 -225 -3 -8 -34 51 -71 133 l-66 147
-57 0 c-31 0 -60 -3 -63 -7z"/>
<path d="M4749 1604 c-10 -12 -9 -18 4 -31 13 -13 19 -14 31 -3 21 17 20 27
-3 39 -14 8 -22 7 -32 -5z"/>
<path d="M184 1599 c-3 -6 1 -18 10 -27 15 -15 17 -15 32 0 19 19 11 38 -16
38 -10 0 -22 -5 -26 -11z"/>
<path d="M2865 1582 c-80 -16 -135 -84 -135 -165 0 -37 6 -53 28 -79 24 -26
36 -31 74 -31 51 0 101 24 131 65 24 33 34 117 18 157 -17 38 -69 63 -116 53z
m60 -46 c17 -25 15 -63 -7 -136 -15 -50 -36 -70 -73 -70 -36 0 -50 12 -60 52
-8 32 21 130 47 158 26 28 74 26 93 -4z"/>
<path d="M233 1474 c-3 -8 2 -23 11 -32 16 -16 18 -16 31 2 11 14 12 23 4 33
-15 18 -38 16 -46 -3z"/>
<path d="M4695 1480 c-8 -12 3 -50 14 -50 5 0 14 7 21 15 10 12 10 18 0 30
-14 17 -26 19 -35 5z"/>
<path d="M294 1359 c-3 -6 0 -18 9 -26 12 -12 18 -13 35 -2 16 10 18 16 10 26
-13 16 -44 17 -54 2z"/>
<path d="M4637 1363 c-24 -23 12 -55 38 -33 12 10 13 16 4 26 -12 15 -31 18
-42 7z"/>
<path d="M373 1253 c-17 -6 -17 -28 0 -41 12 -10 47 6 47 21 0 10 -34 25 -47
20z"/>
<path d="M4571 1246 c-19 -22 4 -62 25 -45 17 14 15 50 -2 56 -6 2 -16 -3 -23
-11z"/>
<path d="M4500 1135 c-25 -30 10 -61 38 -33 17 17 15 26 -7 37 -14 8 -22 7
-31 -4z"/>
<path d="M433 1124 c-3 -8 1 -22 9 -30 13 -13 16 -13 27 0 7 9 11 23 7 31 -7
20 -35 19 -43 -1z"/>
<path d="M2971 1046 c-8 -13 -10 -29 -7 -35 9 -14 43 -14 52 0 7 11 -14 59
-26 59 -4 0 -12 -11 -19 -24z"/>
<path d="M1679 1049 c-25 -4 -60 -14 -77 -23 -66 -34 -122 -137 -122 -223 0
-47 35 -110 73 -133 52 -32 175 -23 216 16 24 22 7 25 -39 9 -65 -23 -105 -19
-141 13 -88 79 -13 296 110 317 61 10 95 -14 86 -61 -5 -29 -3 -34 13 -34 15
0 22 9 26 36 4 19 10 42 13 50 10 26 -81 45 -158 33z"/>
<path d="M1903 1040 c-13 -5 -23 -14 -23 -19 0 -6 7 -8 15 -5 8 3 17 0 20 -8
4 -10 -28 -184 -60 -325 -4 -19 -1 -23 19 -23 25 0 29 6 41 67 10 48 81 153
104 153 30 0 31 -22 9 -113 -18 -71 -19 -88 -9 -101 19 -22 55 -20 77 5 19 22
19 22 -7 16 l-26 -7 8 46 c5 25 14 64 20 86 15 57 14 98 -2 109 -33 21 -63 9
-112 -43 -29 -31 -47 -45 -44 -33 3 11 13 52 22 90 8 39 17 80 20 93 5 19 1
22 -22 21 -16 0 -38 -4 -50 -9z"/>
<path d="M517 1033 c-12 -11 -8 -41 6 -46 7 -3 22 2 32 10 20 14 20 14 1 29
-22 16 -30 17 -39 7z"/>
<path d="M4420 1025 c-15 -18 -5 -35 20 -35 10 0 22 5 25 10 7 11 -12 40 -25
40 -4 0 -13 -7 -20 -15z"/>
<path d="M2584 970 c-15 -22 -37 -43 -50 -46 -33 -8 -40 -34 -8 -34 20 0 24
-4 19 -22 -45 -196 -45 -205 -8 -214 28 -7 73 11 80 33 3 9 -4 10 -27 3 l-32
-9 7 37 c3 20 13 67 21 105 15 63 17 67 44 67 16 0 30 7 34 15 4 11 -2 15 -24
15 -29 0 -30 0 -23 45 3 25 3 45 0 45 -4 0 -19 -18 -33 -40z"/>
<path d="M2792 998 c-7 -7 -12 -17 -12 -23 0 -14 -39 -50 -62 -58 -24 -9 -23
-27 2 -27 24 0 24 4 1 -110 -22 -104 -17 -130 25 -130 33 0 64 17 64 35 0 12
-5 12 -26 4 -15 -5 -28 -8 -29 -7 -2 2 7 48 19 103 21 96 22 100 50 105 39 7
47 30 10 30 -26 0 -27 1 -21 45 7 46 1 55 -21 33z"/>
<path d="M593 914 c-3 -8 1 -22 9 -30 13 -13 16 -13 27 0 7 9 11 23 7 31 -7
20 -35 19 -43 -1z"/>
<path d="M2264 911 c-90 -55 -122 -189 -57 -241 35 -28 56 -25 98 11 l35 31 0
-26 c0 -30 36 -44 69 -26 27 14 27 30 1 30 -11 0 -20 5 -20 11 0 9 33 148 46
190 11 38 -119 53 -172 20z m105 -15 c8 -10 8 -27 1 -63 -25 -115 -116 -186
-137 -105 -22 87 89 225 136 168z"/>
<path d="M2928 923 c-32 -5 -47 -33 -18 -33 25 0 25 -5 -2 -117 -18 -76 -19
-94 -9 -107 18 -21 55 -20 77 2 17 16 17 17 -8 20 l-26 3 29 112 c16 62 29
115 29 120 0 7 -24 7 -72 0z"/>
<path d="M3103 923 c-36 -5 -47 -33 -13 -33 16 0 19 -5 15 -22 -3 -13 -14 -65
-24 -115 l-18 -93 28 0 c25 0 29 4 29 28 0 58 77 184 119 195 28 7 31 -17 10
-103 -10 -41 -18 -85 -19 -97 0 -32 42 -41 78 -17 l27 19 -26 3 c-25 3 -26 5
-17 45 38 182 37 197 -14 197 -25 0 -42 -10 -80 -50 -38 -39 -47 -45 -44 -28
17 75 14 79 -51 71z"/>
<path d="M3474 911 c-89 -54 -119 -198 -51 -246 31 -21 51 -19 87 11 17 15 33
24 36 21 9 -8 -17 -91 -33 -109 -25 -28 -79 -23 -99 7 -13 20 -19 23 -30 14
-8 -6 -14 -22 -14 -35 0 -23 3 -24 76 -24 119 0 127 9 168 194 33 151 33 164
0 176 -41 16 -106 12 -140 -9z m106 -16 c21 -25 -6 -120 -47 -166 -19 -21 -41
-39 -48 -39 -17 0 -46 34 -47 56 -2 26 48 134 70 150 23 18 57 17 72 -1z"/>
<path d="M4337 916 c-3 -8 1 -20 9 -27 12 -10 18 -9 32 5 15 15 15 18 2 26
-21 14 -37 12 -43 -4z"/>
<path d="M683 814 c-3 -8 1 -22 9 -30 13 -13 16 -13 27 0 7 9 11 23 7 31 -7
20 -35 19 -43 -1z"/>
<path d="M4244 819 c-3 -6 0 -17 8 -25 12 -12 17 -12 32 -1 11 8 16 19 12 25
-9 15 -43 15 -52 1z"/>
<path d="M787 733 c-14 -14 -7 -43 11 -43 30 0 44 21 24 36 -20 15 -26 17 -35
7z"/>
<path d="M4155 730 c-8 -12 3 -50 14 -50 16 0 31 28 25 44 -7 18 -29 21 -39 6z"/>
<path d="M877 637 c-3 -8 -1 -20 3 -27 7 -11 14 -12 36 -2 26 12 26 13 8 27
-24 18 -40 19 -47 2z"/>
<path d="M4053 634 c-3 -8 1 -22 9 -30 13 -13 16 -13 27 0 7 9 11 23 7 31 -7
20 -35 19 -43 -1z"/>
<path d="M3957 562 c-18 -20 -5 -55 17 -46 21 8 26 27 11 47 -11 16 -13 16
-28 -1z"/>
<path d="M984 555 c-7 -18 3 -35 21 -35 21 0 28 19 15 35 -16 19 -29 19 -36 0z"/>
<path d="M1090 475 c-15 -18 -5 -35 20 -35 10 0 22 5 25 10 7 11 -12 40 -25
40 -4 0 -13 -7 -20 -15z"/>
<path d="M3847 483 c-11 -11 -8 -40 6 -51 19 -16 43 24 26 44 -13 15 -22 18
-32 7z"/>
<path d="M1206 413 c-10 -10 -7 -38 6 -51 9 -9 14 -7 24 6 8 9 14 20 14 24 0
11 -36 28 -44 21z"/>
<path d="M3734 405 c-7 -17 2 -45 13 -45 4 0 17 7 27 15 20 15 20 15 0 30 -24
18 -33 19 -40 0z"/>
<path d="M1314 335 c-12 -29 15 -45 45 -26 12 8 12 12 2 25 -17 20 -40 21 -47
1z"/>
<path d="M3616 335 c-6 -17 2 -45 14 -45 4 0 13 7 20 15 10 12 10 18 0 30 -7
8 -16 15 -20 15 -4 0 -10 -7 -14 -15z"/>
<path d="M1435 280 c-8 -24 1 -40 21 -40 20 0 29 27 14 45 -17 20 -27 19 -35
-5z"/>
<path d="M3493 274 c-3 -8 1 -22 9 -30 13 -13 16 -13 27 0 7 9 11 23 7 31 -7
20 -35 19 -43 -1z"/>
<path d="M1560 235 c-11 -13 -11 -19 2 -32 17 -16 38 -10 38 11 0 8 -6 19 -14
25 -10 9 -16 8 -26 -4z"/>
<path d="M3374 225 c-12 -30 16 -45 46 -25 13 9 12 12 -4 25 -25 19 -35 19
-42 0z"/>
<path d="M1686 189 c-14 -21 -14 -25 -1 -38 13 -13 17 -13 29 -1 12 13 13 19
2 39 l-13 24 -17 -24z"/>
<path d="M3247 176 c-3 -8 1 -22 8 -33 13 -16 16 -16 25 -3 5 8 9 22 7 30 -3
20 -33 25 -40 6z"/>
<path d="M1810 144 c-11 -12 -10 -18 3 -31 22 -23 52 0 36 28 -12 23 -22 24
-39 3z"/>
<path d="M3123 134 c-9 -24 11 -38 36 -25 25 14 27 27 5 35 -25 9 -34 7 -41
-10z"/>
<path d="M1941 106 c-14 -17 9 -39 33 -30 20 8 21 30 0 38 -21 8 -20 8 -33 -8z"/>
<path d="M2997 113 c-24 -23 12 -55 38 -33 12 10 13 16 4 26 -12 15 -31 18
-42 7z"/>
<path d="M2069 84 c-10 -12 -9 -18 3 -31 19 -18 38 -10 38 17 0 24 -25 33 -41
14z"/>
<path d="M2870 85 c-19 -23 5 -48 31 -32 10 6 19 14 19 17 0 3 -9 11 -19 17
-15 10 -22 9 -31 -2z"/>
<path d="M2201 72 c-11 -21 3 -42 26 -42 14 0 17 18 7 44 -8 21 -21 20 -33 -2z"/>
<path d="M2731 67 c-8 -10 -7 -19 4 -33 13 -18 15 -18 31 -2 14 14 15 20 4 32
-15 19 -24 20 -39 3z"/>
<path d="M2335 59 c-4 -5 -4 -22 0 -36 l6 -26 21 21 c18 17 19 23 8 36 -15 19
-26 20 -35 5z"/>
<path d="M2600 55 c-15 -18 -5 -35 20 -35 10 0 22 5 25 10 7 11 -12 40 -25 40
-4 0 -13 -7 -20 -15z"/>
<path d="M2460 51 c0 -21 13 -41 26 -41 8 0 14 4 14 9 0 5 3 16 6 25 5 12 0
16 -20 16 -14 0 -26 -4 -26 -9z"/>
</g>
</svg>
