<?xml version="1.0" standalone="no"?>
<!DOCTYPE svg PUBLIC "-//W3C//DTD SVG 20010904//EN"
 "http://www.w3.org/TR/2001/REC-SVG-20010904/DTD/svg10.dtd">
<svg version="1.0" xmlns="http://www.w3.org/2000/svg"
 width="498.000000pt" height="500.000000pt" viewBox="0 0 498.000000 500.000000"
 preserveAspectRatio="xMidYMid meet">
<metadata>
Created by potrace 1.15, written by Peter Selinger 2001-2017
</metadata>
<g transform="translate(0.000000,500.000000) scale(0.100000,-0.100000)"
fill="#000000" stroke="none">
<path d="M2340 4975 c-11 -13 -11 -19 3 -33 20 -19 41 -5 35 24 -4 24 -22 28
-38 9z"/>
<path d="M2605 4970 c-8 -24 1 -40 21 -40 20 0 29 27 14 45 -17 20 -27 19 -35
-5z"/>
<path d="M2205 4960 c-8 -24 1 -40 21 -40 20 0 29 27 14 45 -17 20 -27 19 -35
-5z"/>
<path d="M2465 4970 c-7 -11 11 -40 24 -40 3 0 15 7 26 16 17 13 18 16 5 24
-20 13 -47 12 -55 0z"/>
<path d="M2737 4956 c-10 -25 19 -40 44 -23 21 15 21 15 1 26 -28 15 -39 14
-45 -3z"/>
<path d="M2080 4945 c-12 -15 -8 -45 8 -45 4 0 16 6 26 13 16 12 16 14 -2 30
-17 16 -21 16 -32 2z"/>
<path d="M2871 4941 c-14 -26 12 -50 34 -31 11 9 12 17 4 31 -5 10 -14 19 -19
19 -5 0 -14 -9 -19 -19z"/>
<path d="M1941 4917 c-8 -10 -7 -19 4 -33 13 -18 15 -18 31 -2 14 14 15 20 4
32 -15 19 -24 20 -39 3z"/>
<path d="M3000 4914 c-11 -12 -10 -18 3 -32 16 -15 18 -15 34 0 13 14 14 20 3
32 -7 9 -16 16 -20 16 -4 0 -13 -7 -20 -16z"/>
<path d="M1823 4893 c-16 -6 -17 -25 -1 -41 12 -12 48 1 48 18 0 13 -32 28
-47 23z"/>
<path d="M3130 4885 c-10 -12 -10 -18 0 -31 12 -13 15 -13 28 0 15 15 10 46
-6 46 -5 0 -15 -7 -22 -15z"/>
<path d="M1690 4850 c-11 -7 -12 -13 -2 -35 10 -22 15 -25 27 -15 8 7 15 18
15 25 0 20 -24 35 -40 25z"/>
<path d="M3260 4845 c-16 -19 8 -59 27 -43 17 14 17 45 -1 51 -8 3 -20 0 -26
-8z"/>
<path d="M1567 4803 c-24 -23 12 -55 38 -33 12 10 13 16 4 26 -12 15 -31 18
-42 7z"/>
<path d="M3387 4803 c-24 -23 12 -55 38 -33 12 10 13 16 4 26 -12 15 -31 18
-42 7z"/>
<path d="M1440 4755 c-16 -19 -6 -45 19 -45 26 0 33 25 12 44 -16 15 -20 15
-31 1z"/>
<path d="M3507 4753 c-4 -3 -7 -15 -7 -25 0 -22 32 -24 49 -4 10 12 8 17 -8
25 -23 13 -26 13 -34 4z"/>
<path d="M1323 4689 c-15 -15 -5 -39 16 -39 29 0 43 21 23 36 -21 17 -25 17
-39 3z"/>
<path d="M3624 4685 c-12 -31 23 -48 45 -21 10 12 8 17 -8 25 -26 14 -31 14
-37 -4z"/>
<path d="M3740 4625 c-10 -12 -10 -18 0 -31 12 -13 15 -13 28 0 15 15 10 46
-6 46 -5 0 -15 -7 -22 -15z"/>
<path d="M1205 4620 c-8 -12 3 -50 14 -50 15 0 33 30 27 45 -6 17 -32 20 -41
5z"/>
<path d="M1090 4545 c-11 -13 -11 -19 3 -33 20 -19 41 -5 35 24 -4 24 -22 28
-38 9z"/>
<path d="M3851 4546 c-14 -17 9 -39 33 -30 20 8 21 30 0 38 -21 8 -20 8 -33
-8z"/>
<path d="M2076 4500 c-62 -19 -106 -85 -106 -160 0 -61 41 -100 105 -100 48 0
85 13 85 31 0 6 -7 6 -19 -1 -33 -17 -86 -12 -106 10 -23 25 -23 95 -1 138 23
45 64 74 100 70 26 -2 32 -8 34 -31 4 -37 26 -30 30 10 2 25 -1 32 -20 37 -30
8 -66 6 -102 -4z"/>
<path d="M2245 4500 c-3 -5 0 -10 8 -10 12 0 10 -19 -9 -112 -28 -136 -27
-128 -10 -128 8 0 30 34 49 75 21 43 42 75 51 75 20 0 25 -19 14 -55 -21 -76
2 -129 40 -91 15 15 15 16 -1 16 -20 0 -21 8 -4 80 8 31 12 61 9 68 -7 23 -53
13 -83 -19 -31 -34 -33 -32 -20 21 24 93 24 90 -8 90 -16 0 -33 -4 -36 -10z"/>
<path d="M2825 4500 c-3 -5 1 -10 9 -10 21 0 20 -25 -4 -130 -23 -102 -24
-110 -7 -110 7 0 22 19 34 42 l20 43 22 -43 c23 -46 46 -61 63 -44 8 8 6 16
-9 29 -11 10 -25 30 -31 45 -10 25 -8 29 28 58 45 36 45 49 0 42 -22 -3 -28
-8 -20 -16 7 -9 1 -19 -20 -34 -16 -12 -33 -22 -38 -22 -5 0 -1 36 9 80 l17
80 -33 0 c-19 0 -37 -4 -40 -10z"/>
<path d="M992 4488 c-16 -16 -15 -33 2 -47 10 -9 16 -8 26 3 16 21 -10 62 -28
44z"/>
<path d="M3954 4469 c-3 -6 1 -18 10 -27 15 -15 17 -15 32 0 19 19 11 38 -16
38 -10 0 -22 -5 -26 -11z"/>
<path d="M2510 4427 c-64 -22 -101 -114 -66 -162 18 -25 89 -27 113 -2 16 16
15 16 -17 7 -29 -8 -38 -7 -54 10 -26 25 -11 43 50 60 62 18 77 55 36 88 -19
14 -17 14 -62 -1z m47 -24 c6 -16 -30 -52 -59 -59 -36 -8 -36 6 2 46 28 30 50
35 57 13z"/>
<path d="M2667 4409 c-58 -44 -56 -151 2 -164 30 -6 75 7 87 26 5 9 2 10 -10
6 -69 -27 -92 -12 -83 56 8 61 75 114 91 71 7 -18 26 -10 26 12 0 23 -82 18
-113 -7z"/>
<path d="M882 4387 c-16 -19 2 -40 27 -32 25 8 28 30 5 39 -21 8 -20 8 -32 -7z"/>
<path d="M4062 4387 c-7 -8 -6 -18 4 -32 13 -18 15 -18 31 -3 13 14 14 20 3
32 -15 19 -24 20 -38 3z"/>
<path d="M787 4303 c-11 -10 -8 -41 5 -49 17 -11 40 26 27 43 -13 14 -22 16
-32 6z"/>
<path d="M4161 4296 c-18 -21 11 -41 39 -26 17 9 19 14 9 26 -15 18 -33 18
-48 0z"/>
<path d="M4261 4216 c-16 -19 -7 -46 14 -46 22 0 30 29 13 46 -13 13 -16 13
-27 0z"/>
<path d="M690 4204 c-11 -12 -11 -18 1 -30 13 -12 18 -12 34 0 16 12 17 16 6
30 -17 20 -25 20 -41 0z"/>
<path d="M603 4113 c-17 -6 -16 -28 0 -42 10 -8 19 -7 32 3 16 12 17 16 6 30
-14 17 -18 18 -38 9z"/>
<path d="M4344 4105 c-12 -29 15 -45 45 -26 12 8 12 12 2 25 -17 20 -40 21
-47 1z"/>
<path d="M1058 4073 c-36 -4 -55 -23 -23 -23 19 0 19 -10 -1 -106 -10 -48 -24
-88 -37 -101 l-20 -23 90 0 c76 0 94 3 117 21 32 25 35 71 6 92 -19 13 -19 14
5 35 29 26 32 62 7 85 -19 18 -83 26 -144 20z m80 -24 c38 -13 47 -35 27 -65
-11 -18 -25 -24 -51 -24 l-36 0 7 43 c7 40 13 57 19 57 2 0 17 -5 34 -11z m12
-129 c24 -24 25 -32 3 -59 -16 -19 -84 -33 -97 -21 -2 3 1 26 7 53 9 42 13 47
39 47 15 0 37 -9 48 -20z"/>
<path d="M3291 4071 c-11 -7 -11 -9 0 -13 10 -3 8 -27 -9 -113 -25 -122 -21
-135 35 -135 64 0 113 54 113 124 0 33 -21 66 -42 66 -5 0 -24 -10 -41 -22
-23 -16 -29 -18 -25 -6 4 8 10 36 13 62 6 41 5 46 -11 46 -11 0 -25 -4 -33 -9z
m103 -117 c7 -18 -1 -58 -21 -96 -10 -21 -21 -28 -42 -28 -43 0 -45 24 -9 86
33 54 60 69 72 38z"/>
<path d="M1503 4058 c15 -12 15 -19 -3 -98 -24 -104 -25 -136 -4 -144 77 -30
166 52 150 138 -10 50 -51 62 -86 24 -19 -21 -20 -21 -20 -2 0 10 4 36 9 57
l9 37 -36 0 c-31 0 -34 -2 -19 -12z m106 -106 c7 -14 4 -32 -14 -70 -20 -43
-29 -52 -50 -52 -20 0 -25 5 -25 25 0 25 21 76 42 103 15 17 36 15 47 -6z"/>
<path d="M1916 4048 c-17 -24 -21 -48 -8 -48 8 0 52 54 52 65 0 14 -31 2 -44
-17z"/>
<path d="M2270 4060 c0 -5 7 -10 15 -10 19 0 18 -5 -4 -113 -12 -57 -25 -93
-36 -101 -17 -12 -16 -14 8 -20 31 -7 77 2 77 15 0 5 -7 9 -15 9 -11 0 -13 8
-8 33 11 60 19 67 79 67 53 0 54 -1 49 -25 -3 -14 -7 -36 -10 -48 -2 -13 -15
-29 -27 -35 -20 -9 -15 -11 35 -11 32 -1 57 3 57 9 0 6 -7 10 -16 10 -10 0
-14 6 -10 18 2 9 12 55 22 100 10 47 23 86 31 89 29 11 10 23 -37 23 -27 0
-50 -4 -50 -10 0 -5 7 -10 16 -10 13 0 15 -7 9 -37 -4 -21 -9 -41 -11 -45 -3
-5 -30 -8 -61 -8 l-56 0 6 36 c3 20 14 45 23 55 17 18 15 19 -34 19 -29 0 -52
-4 -52 -10z"/>
<path d="M3168 4013 c-19 -20 -25 -35 -22 -53 3 -14 1 -44 -4 -68 -13 -56 -6
-82 24 -82 12 0 26 5 29 10 3 6 -1 10 -11 10 -14 0 -15 7 -9 47 9 64 22 93 40
93 8 0 15 5 15 10 0 6 -7 10 -16 10 -12 0 -15 6 -10 25 8 33 -4 32 -36 -2z"/>
<path d="M3912 4007 c-21 -21 -29 -36 -22 -39 10 -3 10 -16 1 -56 -18 -87 -16
-102 18 -102 17 0 33 5 36 10 3 6 -3 10 -14 10 -22 0 -22 -4 -2 100 5 26 13
36 29 38 24 4 31 22 8 22 -8 0 -16 12 -18 26 l-3 25 -33 -34z"/>
<path d="M522 4018 c-16 -16 -15 -45 2 -51 23 -9 39 18 26 42 -13 25 -12 25
-28 9z"/>
<path d="M4424 3999 c-3 -6 1 -18 10 -27 15 -15 17 -15 32 0 19 19 11 38 -16
38 -10 0 -22 -5 -26 -11z"/>
<path d="M1311 3988 c-52 -27 -83 -125 -52 -162 17 -21 50 -20 73 0 16 16 18
16 24 0 7 -18 49 -22 59 -6 3 6 -1 10 -9 10 -20 0 -20 3 -1 86 9 36 14 68 11
71 -12 12 -84 12 -105 1z m63 -24 c4 -9 -5 -41 -18 -70 -18 -40 -30 -54 -45
-54 -40 0 -34 71 11 128 15 17 45 15 52 -4z"/>
<path d="M2014 3990 c-48 -19 -42 -67 11 -99 36 -21 40 -28 27 -47 -15 -24
-50 -25 -70 -4 -16 17 -20 18 -25 6 -10 -24 19 -39 65 -33 75 10 89 64 28 105
-19 13 -35 31 -35 40 0 20 42 29 58 13 15 -15 27 -14 27 3 0 22 -48 31 -86 16z"/>
<path d="M2599 3983 c-56 -34 -79 -122 -41 -156 22 -20 68 -21 102 -2 24 13
23 13 -25 12 -47 -2 -50 0 -50 23 0 20 9 27 53 45 60 22 74 39 61 73 -10 27
-60 30 -100 5z m66 -13 c9 -14 -40 -60 -65 -60 -18 0 -19 3 -9 23 6 12 16 28
22 35 11 14 43 16 52 2z"/>
<path d="M2784 3981 c-47 -29 -73 -128 -42 -159 15 -15 51 -15 66 0 9 9 17 9
36 -2 15 -7 32 -9 43 -5 17 8 17 8 0 12 -11 3 -16 11 -13 21 15 53 28 133 23
138 -16 17 -84 14 -113 -5z m76 -24 c0 -12 -10 -43 -22 -67 -41 -80 -98 -56
-63 26 21 51 33 64 61 64 18 0 24 -5 24 -23z"/>
<path d="M3039 3968 l-30 -33 6 28 c6 24 4 27 -16 27 -13 0 -31 -5 -39 -10
-13 -8 -12 -10 3 -10 20 0 20 -6 3 -88 -9 -39 -10 -65 -4 -68 14 -9 23 5 36
51 6 22 25 56 41 75 25 29 32 32 40 20 11 -17 16 -14 25 18 11 35 -29 29 -65
-10z"/>
<path d="M3518 3984 c-52 -28 -77 -123 -42 -158 19 -20 71 -20 104 -1 24 14
23 14 -21 9 -41 -6 -48 -4 -59 16 -15 27 -11 30 58 55 44 16 58 25 60 43 7 49
-44 67 -100 36z m67 -14 c9 -14 -40 -60 -65 -60 -25 0 -25 10 1 44 21 26 53
34 64 16z"/>
<path d="M3711 3988 c-52 -27 -83 -125 -52 -162 17 -21 55 -21 72 0 12 14 14
14 25 -1 10 -13 20 -16 41 -10 21 6 23 9 11 12 -22 5 -22 5 -3 89 9 36 14 68
11 71 -12 12 -84 12 -105 1z m73 -23 c9 -24 -52 -125 -75 -125 -29 0 -34 41
-10 94 17 40 24 46 49 46 18 0 32 -6 36 -15z"/>
<path d="M1680 3981 c0 -5 6 -14 14 -20 17 -15 40 -132 32 -166 -7 -29 -46
-55 -46 -30 0 8 -4 15 -10 15 -5 0 -10 -2 -10 -4 0 -2 -3 -11 -6 -20 -5 -12 1
-16 23 -16 37 0 46 10 122 140 l62 105 -27 3 c-14 2 -31 -1 -37 -7 -8 -8 -6
-11 6 -11 23 0 21 -7 -12 -63 -31 -54 -36 -51 -47 33 -6 47 -8 50 -35 50 -16
0 -29 -4 -29 -9z"/>
<path d="M440 3895 c-19 -22 5 -48 31 -34 10 5 19 14 19 19 0 5 -9 14 -19 19
-14 8 -22 7 -31 -4z"/>
<path d="M4513 3903 c-16 -6 -17 -25 -1 -41 12 -12 48 1 48 18 0 13 -32 28
-47 23z"/>
<path d="M372 3798 c-27 -27 -5 -72 23 -48 18 15 19 21 2 43 -10 14 -15 15
-25 5z"/>
<path d="M4581 3791 c-14 -26 1 -53 25 -44 18 7 18 24 0 48 -13 18 -14 18 -25
-4z"/>
<path d="M4646 3674 c-10 -26 -7 -44 7 -44 23 0 37 21 26 42 -12 22 -25 23
-33 2z"/>
<path d="M300 3665 c-19 -22 1 -39 35 -31 26 7 27 8 10 26 -22 24 -29 25 -45
5z"/>
<path d="M1260 3630 c0 -5 7 -10 16 -10 19 0 17 -7 -22 -137 -16 -55 -30 -83
-39 -83 -8 0 -15 -4 -15 -10 0 -12 47 -12 75 0 17 7 17 9 3 9 -10 1 -18 7 -18
14 0 15 38 148 44 154 2 2 9 -29 16 -69 6 -40 14 -81 17 -91 9 -35 35 -11 79
72 24 46 47 87 50 90 4 3 4 -30 0 -74 -5 -67 -10 -83 -29 -97 -22 -17 -21 -18
36 -18 31 0 57 4 57 10 0 6 -7 10 -15 10 -11 0 -15 11 -14 43 2 89 15 159 32
169 25 14 21 28 -9 28 -43 0 -57 -15 -104 -109 -26 -54 -47 -86 -51 -79 -4 7
-10 45 -13 83 -10 103 -11 105 -57 105 -21 0 -39 -4 -39 -10z"/>
<path d="M2759 3626 c8 -10 6 -37 -9 -107 -27 -131 -27 -139 10 -139 17 0 30
5 30 10 0 6 -7 10 -15 10 -11 0 -14 7 -10 23 14 64 45 207 45 212 0 3 -14 5
-31 5 -25 0 -29 -3 -20 -14z"/>
<path d="M2955 3630 c-3 -5 3 -10 14 -10 12 0 21 -2 21 -4 0 -13 -41 -199 -46
-207 -3 -5 -12 -9 -20 -9 -8 0 -14 -4 -14 -10 0 -5 22 -10 49 -10 28 0 53 5
56 10 3 6 -1 10 -9 10 -19 0 -20 25 -5 69 16 46 40 36 66 -29 18 -45 26 -56
48 -58 25 -3 26 -3 12 20 -8 13 -20 40 -27 62 -12 37 -12 39 19 63 38 30 42
74 9 97 -26 18 -163 23 -173 6z m129 -20 c32 -12 34 -42 6 -70 -26 -26 -70
-27 -70 -1 0 40 13 81 26 81 7 0 24 -4 38 -10z"/>
<path d="M1042 3577 c-22 -23 -29 -36 -22 -43 8 -8 8 -25 1 -55 -15 -62 -13
-96 4 -103 18 -7 45 3 45 16 0 6 -7 8 -15 4 -13 -4 -14 2 -8 37 11 73 19 92
42 103 21 11 21 12 3 16 -15 4 -19 12 -15 32 7 33 4 33 -35 -7z"/>
<path d="M1840 3575 c-23 -24 -31 -38 -23 -43 8 -5 7 -25 -4 -76 -13 -58 -13
-70 -2 -77 19 -12 22 -11 45 7 18 15 18 15 0 10 -17 -6 -18 -2 -11 41 11 79
16 92 38 99 19 6 19 7 3 16 -12 7 -16 17 -12 34 4 13 5 24 3 24 -2 0 -19 -16
-37 -35z"/>
<path d="M4222 3578 c-23 -24 -29 -37 -21 -45 7 -7 7 -28 -2 -72 -11 -53 -11
-63 2 -76 9 -9 23 -13 32 -9 21 8 22 24 2 24 -11 0 -14 7 -10 23 3 12 9 40 13
62 5 26 15 44 31 51 17 9 19 13 7 17 -8 3 -16 18 -18 32 l-3 26 -33 -33z"/>
<path d="M848 3559 c-60 -23 -89 -128 -48 -169 24 -24 34 -25 55 -4 12 13 19
14 28 5 14 -14 67 -15 67 -1 0 6 -7 10 -15 10 -18 0 -18 0 0 79 9 36 12 68 7
73 -14 14 -66 18 -94 7z m57 -28 c7 -22 -25 -100 -49 -120 -15 -12 -19 -12
-33 2 -14 14 -15 22 -4 57 20 67 72 104 86 61z"/>
<path d="M1643 3555 c-70 -30 -98 -145 -42 -175 16 -9 26 -8 45 5 21 14 26 14
39 1 8 -8 24 -12 35 -9 22 6 27 23 7 23 -11 0 -10 14 2 75 8 41 13 76 11 78
-15 13 -69 14 -97 2z m62 -16 c10 -16 -35 -118 -57 -130 -11 -6 -21 -9 -22 -7
-1 2 -7 10 -14 20 -23 30 30 128 69 128 10 0 21 -5 24 -11z"/>
<path d="M2003 3563 c-12 -2 -36 -20 -53 -39 -23 -27 -30 -44 -30 -78 0 -64
41 -88 106 -61 44 18 41 29 -3 16 -26 -7 -35 -6 -48 10 -25 26 -14 43 36 58
56 16 69 28 69 57 0 21 -27 46 -47 43 -4 -1 -18 -4 -30 -6z m37 -35 c0 -22
-14 -36 -44 -48 -37 -14 -41 -9 -21 29 11 22 23 31 40 31 14 0 25 -6 25 -12z"/>
<path d="M2208 3540 c-16 -17 -31 -30 -32 -30 -2 0 -1 11 2 25 5 26 1 28 -36
18 -16 -4 -20 -8 -11 -13 9 -6 10 -21 1 -66 -16 -75 -15 -94 2 -94 8 0 17 14
21 33 8 35 49 112 66 122 6 4 17 -1 24 -11 8 -11 15 -14 15 -7 0 6 3 18 6 26
11 29 -27 27 -58 -3z"/>
<path d="M2378 3538 c-29 -31 -30 -32 -26 -8 2 16 -2 25 -9 24 -61 -5 -59 -4
-42 -17 14 -11 14 -19 3 -72 -16 -78 -17 -85 -1 -85 7 0 29 33 47 72 23 47 42
74 54 77 17 3 18 -1 11 -40 -16 -86 -13 -104 18 -107 15 -2 27 1 27 7 0 6 -7
11 -16 11 -10 0 -14 6 -11 18 24 85 28 123 17 137 -19 23 -39 18 -72 -17z"/>
<path d="M2575 3561 c-40 -17 -68 -59 -73 -110 -4 -44 -2 -51 22 -66 25 -17
27 -17 46 0 16 14 23 16 32 7 14 -14 58 -16 58 -3 0 5 -5 11 -11 13 -8 3 -6
24 6 72 9 37 13 71 9 76 -15 13 -68 20 -89 11z m49 -28 c9 -22 -31 -120 -52
-128 -8 -3 -22 1 -30 9 -13 13 -13 22 -3 56 20 66 70 103 85 63z"/>
<path d="M3253 3550 c-56 -34 -81 -112 -49 -155 17 -23 86 -26 111 -5 21 18
13 23 -18 11 -20 -8 -31 -6 -49 8 -19 16 -20 21 -9 34 7 9 34 23 61 32 52 17
66 35 50 65 -18 34 -52 38 -97 10z m57 -25 c0 -26 -15 -40 -52 -49 -32 -7 -35
0 -11 34 30 44 63 51 63 15z"/>
<path d="M3450 3558 c-61 -33 -90 -128 -50 -168 26 -26 36 -25 67 8 l26 27 -7
-40 c-4 -22 -15 -48 -23 -57 -15 -17 -13 -18 25 -18 38 0 57 13 32 22 -6 2 -2
42 12 106 13 64 17 107 12 112 -17 17 -68 21 -94 8z m65 -28 c8 -25 -45 -123
-68 -128 -39 -8 -40 66 -2 124 20 30 61 32 70 4z"/>
<path d="M3873 3554 c-61 -30 -90 -111 -55 -154 24 -30 84 -33 110 -6 16 17
16 18 -8 11 -14 -4 -30 -10 -36 -12 -16 -6 -44 25 -38 42 3 8 27 22 52 31 59
22 72 32 72 55 0 22 -26 49 -48 49 -9 0 -31 -8 -49 -16z m51 -41 c-6 -20 -61
-50 -72 -38 -10 10 19 56 40 64 29 11 39 2 32 -26z"/>
<path d="M240 3545 c-10 -13 -10 -19 5 -35 18 -20 18 -20 32 0 12 17 12 24 3
35 -16 19 -24 19 -40 0z"/>
<path d="M3612 3553 c-21 -4 -22 -6 -8 -16 13 -10 14 -19 6 -47 -5 -19 -10
-52 -10 -72 0 -34 3 -38 25 -38 14 0 35 10 46 21 17 17 23 19 30 8 5 -8 9 -17
9 -21 0 -12 50 -9 50 2 0 6 -7 10 -15 10 -16 0 -15 7 6 90 21 82 -6 83 -45 1
-28 -60 -61 -100 -72 -88 -5 5 4 62 22 134 6 24 3 25 -44 16z"/>
<path d="M4033 3548 c-26 -34 -24 -40 23 -84 47 -43 48 -46 30 -60 -26 -18
-50 -18 -66 1 -9 11 -16 13 -24 5 -18 -18 9 -31 60 -28 41 3 51 7 64 31 15 28
14 29 -27 66 -50 42 -53 58 -17 67 19 5 29 2 36 -10 12 -22 28 -20 28 4 0 17
-7 20 -49 20 -27 0 -53 -6 -58 -12z"/>
<path d="M4702 3547 c-9 -10 -7 -19 4 -36 l16 -22 15 21 c12 16 12 24 3 35
-15 18 -24 19 -38 2z"/>
<path d="M190 3425 c-11 -13 -11 -19 2 -32 17 -16 38 -10 38 11 0 8 -6 19 -14
25 -10 9 -16 8 -26 -4z"/>
<path d="M4761 3430 c-21 -12 -5 -42 21 -38 12 2 23 8 25 15 6 16 -30 34 -46
23z"/>
<path d="M141 3301 c-16 -28 14 -51 36 -28 13 13 14 19 3 31 -17 21 -27 20
-39 -3z"/>
<path d="M4803 3294 c-9 -25 11 -38 38 -24 22 12 22 13 4 26 -24 18 -34 18
-42 -2z"/>
<path d="M102 3168 c-7 -10 -6 -19 4 -33 15 -20 15 -20 30 0 8 10 13 24 11 30
-5 15 -33 17 -45 3z"/>
<path d="M4835 3170 c-7 -11 12 -50 25 -50 12 0 23 37 15 50 -8 13 -32 13 -40
0z"/>
<path d="M3272 3084 c-73 -19 -105 -38 -152 -86 -55 -58 -81 -115 -91 -203
-12 -109 -84 -238 -163 -295 -20 -14 -36 -33 -36 -43 0 -10 18 -40 40 -68 38
-49 60 -101 60 -147 0 -23 0 -23 105 -16 68 5 105 3 105 -3 0 -20 -46 -78 -77
-98 -57 -36 -55 -44 42 -159 47 -55 61 -66 87 -66 33 0 106 34 185 86 28 19
56 34 61 34 14 0 32 -56 32 -99 0 -20 -7 -63 -15 -96 -14 -51 -26 -70 -85
-131 -115 -119 -170 -268 -157 -426 6 -67 6 -68 -21 -74 -54 -11 -118 -38
-160 -66 -90 -62 -172 -197 -172 -286 0 -26 -4 -52 -8 -58 -4 -6 -62 -39 -130
-73 l-122 -63 -103 51 -102 51 -115 0 c-156 0 -305 -16 -425 -45 -55 -13 -104
-20 -108 -15 -5 4 -13 75 -18 156 -11 182 -24 306 -50 488 -11 76 -19 142 -17
147 2 5 26 -6 53 -24 58 -37 64 -56 39 -129 -31 -94 -4 -209 68 -285 28 -28
29 -35 20 -62 -13 -38 1 -87 28 -96 41 -13 122 38 162 103 19 30 19 34 4 57
-14 22 -24 25 -72 25 -47 0 -59 4 -81 28 -28 30 -63 94 -63 115 0 8 12 36 26
63 17 31 28 71 31 109 6 72 -16 137 -108 311 -33 62 -59 119 -59 128 0 20 81
73 135 87 27 8 64 8 114 2 100 -12 125 1 168 86 18 35 41 74 53 86 11 12 20
34 20 49 0 15 10 46 21 68 12 23 25 71 29 106 6 42 17 76 34 101 14 20 26 42
26 49 0 6 -20 25 -44 41 -65 45 -141 127 -161 174 -66 158 -112 214 -210 263
-46 22 -78 30 -133 33 -68 3 -79 1 -148 -33 -186 -92 -255 -228 -258 -508 -2
-190 9 -203 196 -239 56 -11 104 -22 106 -24 14 -14 -125 -195 -149 -195 -5 0
-9 20 -9 44 0 52 -17 64 -54 35 -18 -14 -26 -31 -28 -62 -3 -41 -5 -43 -73
-79 -127 -69 -216 -192 -260 -358 -37 -142 -29 -446 16 -612 25 -92 108 -261
154 -315 l35 -41 116 -4 117 -3 43 -49 c41 -47 47 -50 115 -62 66 -11 80 -10
198 16 69 16 166 43 216 60 l89 32 86 -21 c102 -25 187 -27 259 -5 50 14 53
14 85 -5 54 -34 120 -28 275 24 145 49 164 51 261 30 86 -19 282 -19 400 0 52
9 139 19 192 24 122 9 132 17 187 152 51 121 85 249 106 394 19 128 14 194
-22 310 -41 129 -68 172 -169 271 -78 75 -100 104 -128 165 -38 84 -51 135
-61 231 -7 67 -7 68 40 150 78 138 90 183 90 333 0 139 -14 201 -60 275 -37
59 -126 139 -189 170 -51 26 -70 30 -135 29 -42 0 -100 -7 -129 -15z m62 -300
c65 -41 81 -69 81 -139 -1 -33 -5 -81 -9 -107 l-9 -48 40 0 c50 0 102 -33 125
-80 13 -25 18 -59 18 -118 0 -59 5 -90 16 -107 9 -14 14 -31 11 -40 -9 -23 20
-121 68 -230 25 -55 45 -103 45 -106 0 -3 -28 -2 -62 2 -57 7 -91 3 -154 -16
-20 -6 -21 -4 -13 42 19 116 0 213 -44 221 -9 2 -54 -22 -98 -53 -52 -37 -95
-59 -119 -62 -35 -5 -43 -1 -90 43 -78 73 -78 74 -20 150 27 37 50 77 50 89 0
28 -22 35 -120 35 -41 0 -81 4 -89 9 -9 6 -14 24 -13 46 2 39 -16 83 -42 104
-24 20 -20 30 35 106 28 39 68 107 90 151 43 89 57 105 109 129 50 22 141 13
194 -21z m-1294 -87 c14 -7 36 -33 50 -57 40 -73 71 -109 133 -156 l59 -44
-32 -29 c-28 -25 -33 -38 -39 -96 -9 -88 -32 -110 -103 -101 -39 5 -48 4 -48
-8 0 -21 31 -36 73 -36 21 0 37 -6 40 -14 3 -8 -16 -49 -43 -93 -79 -127 -66
-117 -141 -104 -98 17 -128 14 -194 -18 -69 -32 -136 -95 -162 -151 -10 -22
-21 -40 -24 -40 -3 0 -25 41 -47 91 l-42 91 45 41 c24 23 66 77 92 120 40 66
55 81 86 92 52 18 54 21 30 53 -58 78 -64 131 -26 206 19 38 30 46 65 46 35 0
38 13 19 81 -14 53 -13 59 3 84 10 15 32 33 49 40 40 18 124 19 157 2z m-560
-713 c0 -56 172 -396 229 -452 44 -44 73 -51 79 -20 2 10 -22 75 -52 145 -30
70 -54 129 -52 131 11 10 102 -174 137 -277 26 -73 24 -117 -8 -211 -24 -71
-25 -83 -14 -120 6 -22 31 -64 55 -93 41 -50 44 -52 94 -52 28 -1 55 -4 58 -8
4 -4 -16 -30 -44 -57 -58 -56 -92 -65 -92 -26 0 14 5 28 10 31 21 13 8 49 -32
89 -46 46 -78 107 -78 151 0 17 9 50 20 74 38 82 23 130 -59 199 -60 51 -104
113 -194 277 -85 153 -113 255 -71 255 9 0 14 -12 14 -36z m235 -353 c19 -45
31 -81 27 -81 -11 0 -80 122 -82 145 -8 70 3 57 55 -64z m1989 18 c82 -65 132
-315 115 -579 -7 -107 -47 -370 -59 -390 -11 -17 -144 -48 -259 -59 -174 -18
-302 -12 -412 19 -45 13 -53 12 -201 -33 -169 -52 -168 -51 -168 -37 0 6 6 10
13 10 32 0 87 22 87 35 0 21 -17 19 -107 -10 -85 -27 -103 -30 -103 -16 0 5
35 21 78 35 95 32 111 41 96 56 -8 8 -25 5 -62 -9 -29 -12 -52 -17 -52 -12 0
13 246 107 340 129 174 42 296 55 402 42 54 -7 105 -9 114 -6 19 7 17 44 -11
161 -10 42 -18 139 -22 245 -6 200 5 269 59 352 55 87 101 107 152 67z m-2084
-239 c12 -7 10 -11 -10 -18 -33 -13 -187 -32 -275 -35 l-70 -2 -3 -72 c-3 -70
-13 -91 -26 -57 -3 9 -6 49 -6 89 l0 73 88 7 c48 3 125 10 172 14 47 5 92 9
100 9 8 1 22 -2 30 -8z m42 -351 c9 -79 20 -199 24 -267 8 -145 14 -154 92
-128 82 28 241 47 433 53 l185 6 62 -28 c34 -15 67 -34 73 -41 17 -21 -1 -18
-75 12 -35 14 -77 24 -93 22 -22 -2 -7 -12 79 -47 102 -41 126 -61 74 -61 -13
0 -59 11 -102 25 -84 27 -104 30 -104 17 0 -5 27 -17 60 -27 33 -10 58 -20 56
-23 -12 -12 -131 0 -185 18 l-60 21 -91 -36 c-195 -78 -409 -106 -461 -60 -29
27 -186 244 -237 329 -40 66 -132 285 -132 313 0 7 8 13 18 14 9 0 91 8 182
18 91 10 170 17 175 16 6 -1 18 -66 27 -146z"/>
<path d="M3083 2694 c-26 -11 -12 -23 35 -29 26 -3 63 -8 82 -11 l35 -5 -22
22 c-21 22 -102 36 -130 23z"/>
<path d="M3031 2594 c-24 -31 -26 -43 -9 -79 21 -47 68 -45 128 4 30 26 33 31
20 46 -16 20 -83 55 -104 55 -8 0 -24 -12 -35 -26z m70 -14 c10 -6 19 -15 19
-21 0 -5 -13 -3 -30 6 -16 9 -30 18 -30 20 0 8 20 6 41 -5z"/>
<path d="M1975 2635 c-23 -22 -33 -45 -20 -45 14 0 94 57 89 63 -15 14 -46 6
-69 -18z"/>
<path d="M2025 2588 c-27 -15 -75 -60 -75 -70 0 -5 9 -4 19 2 29 15 36 13 51
-15 16 -30 42 -40 70 -25 28 15 29 95 1 110 -25 13 -41 12 -66 -2z m61 -33
c11 -27 -1 -33 -19 -9 -16 21 -16 24 -2 24 9 0 18 -7 21 -15z"/>
<path d="M77 3053 c-11 -10 -8 -41 4 -49 6 -3 18 1 27 9 13 13 13 19 2 31 -14
17 -23 20 -33 9z"/>
<path d="M2271 3042 c-69 -35 -91 -105 -42 -132 25 -13 54 13 46 41 -4 12 2
27 19 44 24 24 28 24 58 12 51 -21 51 -60 -1 -106 -40 -36 -44 -45 -42 -88 2
-33 15 -28 26 10 8 24 20 37 53 51 28 13 45 28 49 44 7 31 -13 98 -38 123 -24
24 -82 25 -128 1z"/>
<path d="M4875 3040 c-8 -13 3 -50 15 -50 13 0 28 32 23 48 -6 15 -29 16 -38
2z"/>
<path d="M43 2904 c-8 -21 16 -35 40 -23 14 8 16 13 6 25 -15 19 -38 18 -46
-2z"/>
<path d="M4894 2905 c-10 -24 12 -42 34 -29 24 16 21 38 -6 42 -13 2 -25 -3
-28 -13z"/>
<path d="M24 2779 c-3 -6 1 -18 10 -27 15 -15 17 -15 34 1 15 16 15 19 2 27
-20 13 -37 12 -46 -1z"/>
<path d="M4915 2780 c-8 -12 3 -50 14 -50 15 0 33 30 27 45 -6 17 -32 20 -41
5z"/>
<path d="M2315 2720 c-14 -16 -15 -22 -5 -35 11 -13 15 -13 41 1 31 15 31 27
0 44 -14 7 -23 5 -36 -10z"/>
<path d="M4930 2655 c-9 -11 -11 -22 -4 -32 13 -21 25 -21 38 -1 8 14 7 21 -5
33 -14 15 -17 15 -29 0z"/>
<path d="M20 2645 c-6 -8 -9 -19 -5 -25 9 -15 41 -12 54 4 10 12 8 17 -8 25
-25 14 -26 14 -41 -4z"/>
<path d="M5 2510 c-4 -7 -3 -16 3 -22 14 -14 47 -6 47 12 0 18 -40 26 -50 10z"/>
<path d="M4924 2505 c-4 -9 0 -24 10 -33 15 -15 18 -15 26 -2 6 8 9 22 7 30
-3 21 -36 25 -43 5z"/>
<path d="M14 2375 c-4 -9 0 -24 10 -33 15 -15 18 -15 26 -2 6 8 9 22 7 30 -3
21 -36 25 -43 5z"/>
<path d="M4925 2380 c-8 -12 3 -50 14 -50 15 0 33 30 27 45 -6 17 -32 20 -41
5z"/>
<path d="M30 2245 c-22 -26 7 -46 39 -26 12 8 12 12 2 25 -17 20 -25 20 -41 1z"/>
<path d="M4921 2246 c-10 -12 -10 -20 0 -37 11 -22 12 -22 25 -4 17 24 17 30
0 44 -10 9 -16 8 -25 -3z"/>
<path d="M4900 2125 c-9 -11 -11 -22 -4 -32 13 -21 25 -21 38 -1 8 14 7 21 -5
33 -14 15 -17 15 -29 0z"/>
<path d="M44 2115 c-4 -9 -2 -21 4 -27 15 -15 44 -1 40 19 -4 23 -36 29 -44 8z"/>
<path d="M71 1989 c-11 -18 -10 -24 1 -35 12 -12 17 -12 33 0 20 15 20 15 0
35 l-20 21 -14 -21z"/>
<path d="M4866 1981 c-14 -15 -14 -18 3 -28 20 -12 41 0 41 23 0 20 -27 24
-44 5z"/>
<path d="M102 1858 c-8 -8 -9 -15 -1 -25 13 -15 28 -16 49 -3 13 8 12 11 -5
24 -24 19 -28 19 -43 4z"/>
<path d="M4841 1856 c-10 -11 -9 -19 1 -35 16 -27 25 -26 33 0 4 13 2 27 -7
36 -13 12 -16 12 -27 -1z"/>
<path d="M143 1729 c-15 -15 -5 -39 17 -39 26 0 43 23 28 38 -15 15 -31 15
-45 1z"/>
<path d="M4807 1733 c-4 -3 -7 -15 -7 -25 0 -22 32 -24 49 -4 10 12 8 17 -8
25 -23 13 -26 13 -34 4z"/>
<path d="M181 1596 c-10 -12 -8 -17 7 -25 15 -8 23 -7 32 4 13 16 6 35 -14 35
-8 0 -19 -6 -25 -14z"/>
<path d="M4754 1599 c-3 -6 1 -18 10 -27 15 -15 17 -15 34 1 15 16 15 19 2 27
-20 13 -37 12 -46 -1z"/>
<path d="M236 1481 c-10 -16 5 -41 24 -41 26 0 43 23 28 38 -14 14 -45 16 -52
3z"/>
<path d="M4707 1483 c-24 -23 12 -55 38 -33 12 10 13 16 4 26 -12 15 -31 18
-42 7z"/>
<path d="M301 1368 c-11 -17 -10 -23 2 -35 18 -18 37 -9 37 16 0 31 -24 43
-39 19z"/>
<path d="M4643 1354 c-9 -24 11 -38 37 -24 17 9 19 14 9 26 -15 19 -38 18 -46
-2z"/>
<path d="M372 1248 c-28 -28 1 -57 34 -33 15 11 16 15 5 29 -16 19 -23 20 -39
4z"/>
<path d="M4580 1244 c-11 -12 -11 -18 1 -30 13 -12 18 -12 34 0 16 12 17 16 6
30 -17 20 -25 20 -41 0z"/>
<path d="M436 1133 c-9 -22 20 -51 35 -36 14 14 2 53 -16 53 -7 0 -16 -8 -19
-17z"/>
<path d="M4513 1143 c-18 -6 -16 -42 2 -49 16 -6 45 12 45 27 0 12 -33 27 -47
22z"/>
<path d="M523 1033 c-7 -3 -13 -13 -13 -23 0 -10 6 -20 13 -23 15 -5 47 10 47
23 0 13 -32 28 -47 23z"/>
<path d="M4430 1025 c-15 -18 -5 -35 20 -35 10 0 22 5 25 10 7 11 -12 40 -25
40 -4 0 -13 -7 -20 -15z"/>
<path d="M593 914 c-3 -8 1 -22 9 -30 13 -13 16 -13 27 0 7 9 11 23 7 31 -7
20 -35 19 -43 -1z"/>
<path d="M4343 914 c-3 -8 1 -22 9 -30 13 -13 16 -13 28 0 10 13 10 19 0 31
-16 19 -29 19 -37 -1z"/>
<path d="M4261 831 c-16 -29 3 -58 25 -40 17 14 17 20 0 44 -13 18 -14 18 -25
-4z"/>
<path d="M687 816 c-10 -25 19 -40 44 -23 21 15 21 15 1 26 -28 15 -39 14 -45
-3z"/>
<path d="M787 733 c-11 -10 -8 -41 4 -49 6 -3 18 1 27 9 13 13 13 19 2 31 -14
17 -23 20 -33 9z"/>
<path d="M4164 725 c-12 -31 23 -48 45 -21 10 12 8 17 -8 25 -26 14 -31 14
-37 -4z"/>
<path d="M883 639 c-6 -6 -9 -18 -6 -25 7 -18 37 -18 52 0 10 12 8 17 -8 25
-24 14 -24 14 -38 0z"/>
<path d="M4067 643 c-24 -23 12 -55 38 -33 12 10 13 16 4 26 -12 15 -31 18
-42 7z"/>
<path d="M3960 554 c-11 -12 -10 -18 3 -32 16 -15 18 -15 34 0 13 14 14 20 3
32 -7 9 -16 16 -20 16 -4 0 -13 -7 -20 -16z"/>
<path d="M983 544 c-3 -8 1 -22 9 -30 13 -13 16 -13 27 0 7 9 11 23 7 31 -7
20 -35 19 -43 -1z"/>
<path d="M1093 479 c-27 -27 13 -51 47 -29 13 8 12 11 -5 24 -24 19 -28 19
-42 5z"/>
<path d="M3850 474 c-11 -12 -10 -18 4 -32 16 -16 18 -16 31 2 11 14 12 23 4
33 -15 17 -24 16 -39 -3z"/>
<path d="M1213 413 c-16 -6 -17 -25 -1 -41 12 -12 48 1 48 18 0 13 -32 28 -47
23z"/>
<path d="M3740 405 c-16 -19 8 -59 27 -43 17 14 17 45 -1 51 -8 3 -20 0 -26
-8z"/>
<path d="M3625 339 c-8 -26 6 -42 28 -33 20 7 22 25 5 42 -17 17 -26 15 -33
-9z"/>
<path d="M1316 334 c-9 -23 19 -53 35 -37 15 15 7 47 -12 51 -9 2 -19 -5 -23
-14z"/>
<path d="M3505 279 c-10 -30 11 -48 32 -27 13 14 14 20 3 32 -17 22 -27 20
-35 -5z"/>
<path d="M1433 274 c-3 -8 2 -23 11 -32 16 -16 18 -16 31 2 11 14 12 23 4 33
-15 18 -38 16 -46 -3z"/>
<path d="M1564 225 c-7 -18 3 -35 22 -35 20 0 30 30 13 41 -20 12 -29 11 -35
-6z"/>
<path d="M3384 225 c-12 -31 23 -48 45 -21 10 12 8 17 -8 25 -26 14 -31 14
-37 -4z"/>
<path d="M1692 198 c-27 -27 -5 -72 23 -48 18 15 19 21 2 43 -10 14 -15 15
-25 5z"/>
<path d="M3259 187 c-14 -31 -2 -52 24 -41 21 8 22 24 3 49 -14 19 -15 19 -27
-8z"/>
<path d="M3131 148 c-11 -17 -10 -23 2 -35 18 -18 37 -9 37 16 0 31 -24 43
-39 19z"/>
<path d="M1817 142 c-14 -15 -14 -19 -1 -37 15 -20 15 -20 30 -1 17 24 18 31
1 45 -11 8 -18 7 -30 -7z"/>
<path d="M1942 108 c-13 -13 2 -38 23 -38 21 0 36 25 23 38 -7 7 -17 12 -23
12 -6 0 -16 -5 -23 -12z"/>
<path d="M3003 113 c-16 -6 -17 -29 -3 -38 15 -9 50 4 50 20 0 10 -25 28 -33
24 -1 0 -8 -3 -14 -6z"/>
<path d="M2077 93 c-4 -3 -7 -15 -7 -25 0 -20 25 -24 50 -8 13 8 12 11 -5 24
-23 17 -29 19 -38 9z"/>
<path d="M2870 85 c-17 -21 6 -61 26 -44 18 15 18 45 0 52 -8 3 -20 0 -26 -8z"/>
<path d="M2207 73 c-24 -23 12 -55 38 -33 12 10 13 16 4 26 -12 15 -31 18 -42
7z"/>
<path d="M2740 65 c-6 -8 -9 -19 -5 -25 8 -13 42 -13 50 0 7 11 -12 40 -25 40
-4 0 -13 -7 -20 -15z"/>
<path d="M2341 56 c-19 -22 4 -62 25 -45 17 14 15 50 -2 56 -6 2 -16 -3 -23
-11z"/>
<path d="M2606 54 c-11 -30 13 -44 43 -25 12 8 12 12 2 25 -17 20 -37 20 -45
0z"/>
<path d="M2467 54 c-10 -10 12 -44 28 -44 9 0 15 10 15 25 0 18 -5 25 -18 25
-10 0 -22 -3 -25 -6z"/>
</g>
</svg>
