<?xml version="1.0" standalone="no"?>
<!DOCTYPE svg PUBLIC "-//W3C//DTD SVG 20010904//EN"
 "http://www.w3.org/TR/2001/REC-SVG-20010904/DTD/svg10.dtd">
<svg version="1.0" xmlns="http://www.w3.org/2000/svg"
 width="500.000000pt" height="500.000000pt" viewBox="0 0 500.000000 500.000000"
 preserveAspectRatio="xMidYMid meet">
<metadata>
Created by potrace 1.15, written by Peter Selinger 2001-2017
</metadata>
<g transform="translate(0.000000,500.000000) scale(0.100000,-0.100000)"
fill="#000000" stroke="none">
<path d="M2352 4988 c-15 -15 -15 -45 -1 -54 6 -3 18 0 26 9 14 13 14 18 1 36
-11 16 -17 18 -26 9z"/>
<path d="M2479 4974 c-10 -12 -9 -18 4 -31 13 -13 19 -14 31 -3 21 17 20 27
-3 39 -14 8 -22 7 -32 -5z"/>
<path d="M2211 4961 c-8 -14 -7 -22 5 -32 20 -16 38 2 29 30 -8 26 -21 27 -34
2z"/>
<path d="M2607 4966 c-6 -15 11 -36 29 -36 21 0 35 25 22 38 -16 16 -45 15
-51 -2z"/>
<path d="M2747 4963 c-23 -22 14 -53 39 -32 11 9 11 15 3 25 -12 15 -31 18
-42 7z"/>
<path d="M2071 4937 c-9 -11 -8 -17 4 -27 19 -16 47 -5 43 17 -4 23 -31 28
-47 10z"/>
<path d="M2876 4941 c-9 -14 4 -41 19 -41 7 0 18 7 26 16 10 13 10 17 -2 25
-18 11 -36 11 -43 0z"/>
<path d="M1951 4921 c-14 -9 -7 -51 8 -51 15 0 33 30 27 45 -6 17 -15 19 -35
6z"/>
<path d="M3010 4915 c-22 -26 7 -46 39 -26 12 8 12 12 2 25 -17 20 -25 20 -41
1z"/>
<path d="M1820 4885 c-9 -11 -11 -22 -4 -32 13 -21 25 -21 38 -1 8 14 7 21 -5
33 -14 15 -17 15 -29 0z"/>
<path d="M3140 4885 c-19 -22 5 -48 31 -34 10 5 19 14 19 19 0 5 -9 14 -19 19
-14 8 -22 7 -31 -4z"/>
<path d="M1691 4851 c-14 -26 -7 -41 19 -41 29 0 35 20 12 42 l-20 20 -11 -21z"/>
<path d="M3269 4844 c-16 -20 2 -38 30 -29 26 8 27 21 2 34 -14 8 -22 7 -32
-5z"/>
<path d="M1565 4800 c-8 -12 3 -50 14 -50 15 0 33 30 27 45 -6 17 -32 20 -41
5z"/>
<path d="M3386 4801 c-10 -16 5 -41 25 -41 11 0 22 7 26 16 9 24 -38 47 -51
25z"/>
<path d="M1441 4746 c-15 -18 11 -40 39 -31 25 8 26 21 1 35 -25 13 -26 13
-40 -4z"/>
<path d="M3510 4745 c-15 -18 -5 -35 21 -35 24 0 37 29 18 41 -19 12 -25 11
-39 -6z"/>
<path d="M1321 4687 c-8 -10 -7 -19 4 -33 13 -18 15 -18 31 -2 14 14 15 20 4
32 -15 19 -24 20 -39 3z"/>
<path d="M3633 4689 c-15 -15 -5 -39 16 -39 29 0 43 21 23 36 -21 17 -25 17
-39 3z"/>
<path d="M3750 4625 c-10 -12 -10 -18 0 -31 11 -13 15 -13 27 -1 13 13 8 47
-7 47 -4 0 -13 -7 -20 -15z"/>
<path d="M1204 4615 c-13 -32 23 -48 47 -19 10 13 10 17 -2 25 -21 13 -39 11
-45 -6z"/>
<path d="M2805 4583 c-43 -9 -51 -15 -29 -22 l21 -6 -25 -122 c-13 -67 -22
-129 -19 -138 8 -20 51 -19 68 2 13 15 11 16 -10 10 -27 -7 -27 -7 13 176 15
71 20 107 12 106 -6 -1 -20 -3 -31 -6z"/>
<path d="M1745 4570 c-3 -5 1 -10 10 -10 27 0 28 -25 4 -135 -20 -92 -26 -108
-46 -116 -13 -5 -23 -13 -23 -19 0 -11 71 -13 108 -4 28 8 29 24 1 24 -15 0
-19 5 -15 18 3 9 8 34 12 55 7 41 28 57 47 38 7 -7 21 -40 33 -74 20 -61 21
-62 55 -59 46 5 59 15 30 22 -18 4 -29 18 -42 55 -24 68 -23 71 10 85 56 23
62 93 11 120 -24 13 -187 13 -195 0z m164 -29 c37 -37 -2 -91 -67 -91 -33 0
-33 1 -27 33 14 63 23 77 50 77 14 0 34 -9 44 -19z"/>
<path d="M3860 4555 c-15 -18 -6 -45 14 -45 20 0 29 16 21 40 -8 24 -18 25
-35 5z"/>
<path d="M1093 4544 c-3 -8 1 -22 9 -30 13 -13 16 -13 28 0 10 13 10 19 0 31
-16 19 -29 19 -37 -1z"/>
<path d="M2083 4480 c-35 -21 -73 -85 -73 -123 0 -13 10 -37 22 -52 19 -25 26
-27 70 -23 29 3 56 12 66 23 16 17 16 17 -3 11 -46 -17 -81 -18 -94 -2 -24 28
-8 48 59 75 57 23 65 30 68 56 7 54 -54 72 -115 35z m75 -22 c6 -31 -74 -85
-95 -65 -7 8 34 74 50 81 21 8 42 1 45 -16z"/>
<path d="M2293 4476 c-56 -47 -76 -139 -41 -183 16 -20 59 -15 86 10 l25 22
-8 -40 c-3 -22 -14 -48 -22 -57 -20 -22 -56 -23 -73 -3 -16 19 -26 19 -34 -2
-9 -23 11 -33 64 -33 44 1 63 9 87 41 17 22 62 234 53 249 -4 7 -30 15 -57 17
-42 4 -53 1 -80 -21z m97 -22 c0 -69 -45 -144 -86 -144 -28 0 -37 40 -19 87
22 56 47 83 80 83 20 0 25 -5 25 -26z"/>
<path d="M2933 4480 c-55 -33 -82 -110 -58 -167 11 -26 20 -33 41 -33 15 0 36
7 46 17 17 15 19 15 37 -1 22 -20 62 -18 69 3 3 9 -1 11 -16 7 -22 -7 -21 1
14 140 13 51 -71 72 -133 34z m92 -10 c12 -20 -24 -118 -51 -139 -34 -27 -52
-26 -65 2 -8 17 -5 33 11 69 11 26 27 54 36 63 17 17 60 20 69 5z"/>
<path d="M3232 4463 l-34 -37 7 32 c6 31 6 32 -29 32 -37 0 -44 -8 -25 -27 8
-8 7 -32 -5 -88 -9 -42 -14 -81 -11 -86 11 -16 34 3 40 34 8 37 47 108 69 127
13 10 19 10 30 1 12 -10 17 -8 25 8 29 54 -17 57 -67 4z"/>
<path d="M3969 4477 c-14 -31 -1 -54 25 -44 20 8 20 27 2 52 -14 19 -15 19
-27 -8z"/>
<path d="M2500 4481 l-25 -7 24 -6 c16 -5 22 -12 18 -22 -14 -36 -30 -134 -24
-149 12 -32 62 -21 96 21 l31 37 -6 -32 c-5 -25 -2 -34 10 -39 21 -8 66 3 66
17 0 6 -9 8 -20 4 -24 -8 -24 -14 0 87 24 100 24 98 5 98 -8 0 -29 -28 -46
-62 -37 -74 -67 -118 -80 -118 -13 0 -11 58 6 120 8 30 15 56 15 58 0 4 -45 0
-70 -7z"/>
<path d="M983 4464 c-3 -8 1 -22 9 -30 13 -13 16 -13 27 0 7 9 11 23 7 31 -7
20 -35 19 -43 -1z"/>
<path d="M881 4392 c-11 -20 3 -42 25 -42 20 0 26 18 12 40 -16 25 -24 25 -37
2z"/>
<path d="M4070 4384 c-11 -12 -10 -18 3 -32 16 -15 18 -15 34 0 13 14 14 20 3
32 -7 9 -16 16 -20 16 -4 0 -13 -7 -20 -16z"/>
<path d="M785 4300 c-7 -23 1 -40 20 -40 18 0 28 30 14 46 -16 19 -27 17 -34
-6z"/>
<path d="M4171 4303 c-12 -24 2 -48 24 -40 10 4 15 15 13 29 -4 28 -24 34 -37
11z"/>
<path d="M4272 4208 c-28 -28 0 -56 31 -33 22 16 21 22 -1 34 -13 7 -23 6 -30
-1z"/>
<path d="M684 4199 c-3 -6 1 -18 10 -27 15 -15 17 -15 32 0 19 19 11 38 -16
38 -10 0 -22 -5 -26 -11z"/>
<path d="M600 4104 c-11 -12 -10 -18 3 -32 16 -15 18 -15 34 0 13 14 14 20 3
32 -7 9 -16 16 -20 16 -4 0 -13 -7 -20 -16z"/>
<path d="M4354 4105 c-12 -30 16 -45 46 -25 13 9 12 12 -4 25 -25 19 -35 19
-42 0z"/>
<path d="M2655 4076 c-115 -42 -163 -219 -79 -285 14 -11 38 -22 54 -26 34 -7
98 8 125 30 19 16 19 16 -10 10 -89 -20 -111 -18 -134 10 -25 33 -29 107 -7
158 38 91 166 122 166 40 0 -39 27 -27 33 15 2 20 2 40 -2 44 -14 15 -107 18
-146 4z"/>
<path d="M3541 4076 c-14 -17 -7 -36 14 -36 22 0 29 20 13 36 -13 13 -16 13
-27 0z"/>
<path d="M1865 4070 c-4 -7 -3 -16 3 -22 14 -14 45 -2 40 15 -6 16 -34 21 -43
7z"/>
<path d="M4104 4065 c-17 -13 -17 -14 -1 -15 22 0 22 -6 -8 -139 -13 -61 -22
-118 -18 -127 4 -10 16 -14 36 -12 34 3 51 28 19 28 -19 0 -18 4 9 133 15 72
28 135 29 140 0 13 -45 8 -66 -8z"/>
<path d="M870 4061 c0 -5 9 -11 19 -14 18 -4 18 -8 -5 -117 -27 -125 -29 -130
-49 -130 -8 0 -17 -4 -20 -10 -4 -6 20 -10 64 -10 41 0 71 4 71 10 0 6 -10 10
-21 10 -20 0 -21 4 -14 46 3 26 9 53 12 60 6 17 42 18 48 2 43 -125 45 -128
80 -128 19 0 37 5 40 10 3 6 -1 10 -10 10 -9 0 -24 18 -34 43 -32 73 -34 85
-13 91 33 11 62 46 62 76 0 47 -30 60 -137 60 -51 0 -93 -4 -93 -9z m161 -21
c43 -24 8 -87 -55 -97 l-39 -6 6 47 c4 26 9 52 13 57 7 12 51 11 75 -1z"/>
<path d="M1720 4027 c-8 -16 -28 -36 -44 -45 -24 -12 -27 -17 -13 -20 20 -4
21 -17 2 -102 -9 -45 -10 -68 -3 -77 14 -18 40 -16 64 3 18 15 18 15 -7 10
l-26 -6 16 81 c13 69 18 80 38 85 25 7 32 24 9 24 -10 0 -16 13 -18 38 l-3 37
-15 -28z"/>
<path d="M513 3994 c-3 -8 1 -22 9 -30 13 -13 16 -13 27 0 7 9 11 23 7 31 -7
20 -35 19 -43 -1z"/>
<path d="M4434 3995 c-4 -9 0 -24 10 -33 15 -15 18 -15 26 -2 6 8 9 22 7 30
-3 21 -36 25 -43 5z"/>
<path d="M1198 3972 c-59 -36 -77 -134 -33 -177 65 -66 175 7 175 115 0 67
-79 102 -142 62z m89 -33 c10 -21 10 -36 -1 -79 -14 -55 -27 -70 -63 -70 -45
0 -56 66 -23 138 17 38 23 43 47 40 18 -2 32 -12 40 -29z"/>
<path d="M1845 3982 c-33 -4 -60 -22 -32 -22 21 0 21 -18 2 -90 -24 -91 -16
-110 40 -96 28 7 34 26 9 26 -18 0 -17 14 9 123 8 31 12 59 8 60 -3 2 -19 1
-36 -1z"/>
<path d="M2043 3953 l-35 -38 7 33 c6 31 5 32 -24 32 -31 0 -51 -15 -29 -22 9
-3 9 -21 -1 -79 -8 -41 -16 -80 -18 -86 -3 -8 3 -13 15 -13 15 0 22 10 30 43
12 47 67 127 87 127 23 0 24 -14 9 -84 -9 -37 -13 -73 -10 -81 7 -19 50 -19
66 0 10 13 9 15 -10 15 -18 0 -21 4 -16 23 18 67 29 136 23 150 -11 30 -56 20
-94 -20z"/>
<path d="M2253 3970 c-40 -24 -63 -67 -63 -120 0 -72 60 -101 131 -64 38 19
30 31 -10 14 -36 -15 -68 -6 -76 22 -9 26 3 37 66 59 59 21 64 25 73 55 15 50
-60 71 -121 34z m77 -16 c0 -28 -19 -52 -51 -63 -18 -6 -34 -9 -37 -6 -8 8 20
65 37 75 25 15 51 12 51 -6z"/>
<path d="M2884 3971 c-60 -37 -85 -140 -43 -182 17 -17 30 -20 66 -16 25 3 52
12 61 21 19 19 2 22 -30 5 -27 -15 -65 -3 -73 22 -9 27 3 38 67 61 73 25 96
59 62 92 -21 22 -72 20 -110 -3z m76 -17 c0 -28 -19 -52 -51 -63 -18 -6 -34
-9 -37 -6 -8 8 20 65 37 75 25 15 51 12 51 -6z"/>
<path d="M3140 3953 l-32 -38 7 33 c6 30 5 32 -22 32 -15 0 -35 -5 -43 -10
-13 -8 -12 -10 3 -10 24 0 23 -20 -8 -157 -4 -18 -1 -23 14 -23 15 0 23 12 35
53 19 66 72 133 92 117 17 -15 34 -4 34 21 0 34 -45 24 -80 -18z"/>
<path d="M3517 3980 c-43 -8 -61 -20 -28 -20 17 0 21 -5 17 -17 -3 -10 -12
-49 -21 -87 -12 -56 -13 -71 -3 -78 20 -12 42 -10 64 7 19 14 18 14 -3 15 -28
0 -28 2 -2 102 11 44 19 81 17 82 -2 1 -20 -1 -41 -4z"/>
<path d="M3680 3977 c-63 -32 -93 -144 -50 -187 26 -26 80 -26 111 -1 l24 19
-47 -5 c-43 -5 -48 -3 -59 20 -26 57 18 147 72 147 19 0 29 -5 29 -15 0 -22
27 -18 33 4 3 14 -2 21 -17 25 -34 9 -69 7 -96 -7z"/>
<path d="M3867 3960 c-41 -35 -62 -94 -52 -141 9 -42 36 -53 81 -34 34 14 39
14 55 -1 19 -17 69 -12 69 7 0 6 -9 8 -21 4 -17 -6 -20 -3 -16 12 21 76 38
165 33 170 -3 4 -30 8 -59 11 -49 4 -57 1 -90 -28z m105 -25 c-8 -76 -59 -143
-96 -129 -28 11 -29 49 -2 102 27 54 37 62 76 59 21 -2 25 -6 22 -32z"/>
<path d="M1395 3970 c-3 -5 1 -10 9 -10 19 0 19 -16 2 -96 -21 -98 15 -125 79
-61 l34 34 3 -31 c3 -27 7 -31 32 -31 16 0 31 6 34 14 3 10 0 12 -12 8 -20 -8
-20 -2 3 101 18 76 18 83 3 80 -10 -2 -35 -37 -57 -77 -65 -121 -99 -125 -72
-8 10 39 17 75 17 80 0 11 -68 9 -75 -3z"/>
<path d="M3242 3971 c-11 -6 -9 -9 6 -13 16 -5 22 -20 32 -79 15 -96 16 -99
37 -99 13 0 37 31 75 98 l57 97 -26 3 c-14 2 -30 -1 -36 -7 -8 -8 -6 -11 6
-11 9 0 17 -2 17 -4 0 -6 -72 -126 -75 -126 -2 0 -9 34 -16 75 -11 71 -13 75
-38 75 -14 0 -32 -4 -39 -9z"/>
<path d="M4513 3894 c-3 -8 1 -22 9 -30 13 -13 16 -13 27 -1 14 17 4 47 -15
47 -8 0 -17 -7 -21 -16z"/>
<path d="M434 3889 c-3 -6 0 -18 9 -26 12 -12 18 -13 35 -2 16 10 18 16 10 26
-13 16 -44 17 -54 2z"/>
<path d="M367 3783 c-24 -23 12 -55 38 -33 12 10 13 16 4 26 -12 15 -31 18
-42 7z"/>
<path d="M4584 3775 c-13 -32 23 -48 47 -19 10 13 10 17 -2 25 -21 13 -39 11
-45 -6z"/>
<path d="M300 3661 c-13 -25 2 -35 37 -26 24 6 25 7 8 25 -23 25 -32 25 -45 1z"/>
<path d="M4657 3673 c-4 -3 -7 -15 -7 -25 0 -20 25 -24 50 -8 13 8 12 11 -5
24 -23 17 -29 19 -38 9z"/>
<path d="M2344 3559 c-3 -6 0 -17 8 -25 13 -13 16 -13 27 0 7 8 10 20 6 26 -8
13 -32 13 -41 -1z"/>
<path d="M3145 3560 c-4 -6 -1 -17 5 -26 11 -12 14 -12 25 3 7 10 11 21 9 25
-7 11 -32 10 -39 -2z"/>
<path d="M240 3545 c-10 -12 -10 -18 0 -30 15 -18 20 -18 44 0 20 15 20 15 0
30 -24 18 -29 18 -44 0z"/>
<path d="M1140 3550 c0 -5 9 -10 20 -10 25 0 25 1 -1 -118 -17 -80 -25 -102
-50 -124 l-29 -28 117 0 c65 0 124 4 131 9 13 8 30 91 19 91 -3 0 -14 -16 -26
-35 -20 -34 -22 -35 -81 -35 -54 0 -61 2 -56 18 3 9 8 34 12 55 6 33 9 37 36
37 23 0 29 -4 24 -15 -3 -8 -2 -15 3 -15 16 0 28 25 35 70 l6 45 -23 -27 c-26
-32 -71 -39 -63 -10 2 9 7 32 11 50 7 33 7 33 58 30 48 -3 52 -5 55 -30 2 -16
7 -28 12 -28 13 0 30 34 30 59 0 20 -5 21 -120 21 -73 0 -120 -4 -120 -10z"/>
<path d="M4711 3541 c-16 -28 14 -51 36 -28 13 13 14 19 3 31 -17 21 -27 20
-39 -3z"/>
<path d="M3001 3517 c-7 -13 -27 -32 -44 -43 -27 -15 -29 -19 -13 -22 16 -3
17 -10 12 -45 -20 -133 -20 -134 2 -141 12 -4 32 -1 44 6 l23 13 -22 3 c-13 2
-23 9 -23 15 1 18 27 138 31 141 2 1 15 7 29 13 l25 12 -24 0 c-21 1 -23 5
-19 36 5 41 -3 45 -21 12z"/>
<path d="M2014 3455 c-18 -19 -34 -35 -37 -35 -2 0 -2 13 1 28 4 27 2 28 -32
24 -35 -4 -52 -22 -20 -22 10 0 14 -6 11 -17 -5 -15 -19 -82 -32 -145 -2 -12
3 -18 15 -18 14 0 23 14 34 53 17 58 45 100 78 118 21 11 21 10 14 -52 -3 -35
-9 -76 -12 -91 -13 -56 21 -27 61 54 63 127 98 128 71 2 -16 -80 -7 -102 38
-90 28 7 36 26 11 26 -18 0 -18 16 -1 99 13 58 13 64 -4 81 -24 24 -55 16 -83
-22 l-22 -30 -5 27 c-3 17 -14 31 -29 36 -20 8 -29 4 -57 -26z"/>
<path d="M2538 3450 c-22 -22 -42 -40 -43 -40 -2 0 0 13 5 29 10 37 9 38 -35
33 -34 -4 -50 -22 -20 -22 18 0 18 2 0 -80 -8 -36 -14 -73 -15 -82 0 -20 29
-25 34 -5 25 85 76 167 105 167 15 0 13 -45 -4 -109 -10 -40 -11 -58 -3 -68
14 -17 43 -16 58 2 10 12 10 15 -4 15 -20 0 -20 8 1 99 17 71 17 74 -2 87 -27
20 -33 18 -77 -26z"/>
<path d="M2772 3479 c-41 -8 -71 -34 -88 -76 -17 -40 -18 -105 -2 -121 15 -15
50 -15 81 -1 20 9 30 8 50 -6 22 -14 29 -14 49 -3 l23 13 -23 3 c-19 3 -23 8
-19 25 22 96 29 137 24 150 -7 18 -51 25 -95 16z m58 -39 c0 -27 -29 -102 -47
-122 -21 -24 -55 -23 -71 2 -10 17 -8 28 15 75 18 37 35 58 53 63 32 11 50 5
50 -18z"/>
<path d="M3299 3476 c-69 -23 -104 -133 -60 -187 24 -29 85 -32 125 -5 36 23
60 80 52 124 -10 64 -53 89 -117 68z m49 -15 c35 -22 29 -127 -8 -166 -16 -15
-25 -17 -47 -9 -33 11 -41 48 -23 109 19 63 46 87 78 66z"/>
<path d="M3610 3483 c-8 -3 -29 -21 -47 -41 l-32 -37 5 36 6 35 -36 -4 c-36
-4 -61 -22 -32 -22 23 0 21 -23 -9 -157 -4 -18 -1 -23 15 -23 13 0 21 9 25 28
15 72 85 166 108 143 6 -6 2 -38 -9 -86 -16 -66 -16 -78 -3 -86 20 -12 32 -11
55 6 18 14 18 14 -4 15 -24 0 -25 -5 3 105 16 65 -2 100 -45 88z"/>
<path d="M1453 3473 c-28 -5 -28 -8 -3 -33 11 -11 22 -31 26 -45 5 -21 -1 -32
-40 -66 -25 -22 -46 -45 -46 -50 0 -5 16 -9 35 -9 34 0 47 13 23 24 -9 3 -6
11 11 25 31 28 36 27 51 -9 16 -39 38 -50 70 -38 18 8 21 12 10 15 -63 22 -66
76 -7 135 l42 43 -33 3 c-37 4 -54 -5 -34 -17 9 -5 5 -14 -13 -31 l-25 -24
-17 42 c-9 23 -19 41 -22 41 -3 -1 -16 -4 -28 -6z"/>
<path d="M1706 3459 c-36 -28 -56 -70 -56 -117 0 -62 38 -86 94 -60 22 9 29 8
45 -6 13 -11 27 -15 40 -11 24 7 28 25 6 25 -19 0 -19 9 2 98 20 86 16 92 -58
92 -32 0 -55 -6 -73 -21z m100 -12 c7 -18 -22 -106 -42 -128 -22 -25 -60 -24
-74 1 -8 15 -5 31 16 72 15 29 32 56 38 60 18 12 56 9 62 -5z"/>
<path d="M2330 3472 c-41 -4 -66 -22 -31 -22 19 0 22 -4 17 -22 -18 -68 -29
-137 -23 -151 8 -21 40 -22 57 -2 10 12 10 15 -4 15 -20 0 -20 -4 4 92 12 44
20 83 18 87 -2 3 -19 5 -38 3z"/>
<path d="M3125 3473 c-36 -5 -58 -23 -28 -23 l20 0 -18 -77 c-10 -43 -18 -83
-19 -90 0 -15 35 -26 60 -18 23 7 27 25 5 25 -20 0 -19 21 5 105 22 77 23 86
13 84 -5 -1 -21 -4 -38 -6z"/>
<path d="M3762 3464 c-36 -25 -28 -59 21 -95 53 -38 61 -53 41 -73 -21 -22
-51 -20 -71 3 -19 23 -33 19 -33 -9 0 -13 10 -20 38 -25 47 -8 86 6 107 39 21
32 9 57 -45 91 -49 31 -54 40 -34 59 21 21 41 20 61 -4 10 -11 20 -20 24 -20
14 0 19 34 7 42 -22 13 -92 9 -116 -8z"/>
<path d="M4772 3438 c-16 -16 -15 -33 2 -47 10 -9 16 -8 26 3 16 21 -10 62
-28 44z"/>
<path d="M192 3417 c-15 -17 1 -42 23 -33 18 6 17 37 -1 43 -6 2 -16 -2 -22
-10z"/>
<path d="M143 3299 c-6 -6 -9 -18 -6 -25 7 -18 37 -18 52 0 10 12 8 17 -8 25
-24 14 -24 14 -38 0z"/>
<path d="M4817 3303 c-14 -14 -7 -43 11 -43 30 0 44 21 24 36 -20 15 -26 17
-35 7z"/>
<path d="M107 3173 c-24 -23 12 -55 38 -33 12 10 13 16 4 26 -12 15 -31 18
-42 7z"/>
<path d="M4853 3169 c-16 -16 -5 -39 18 -39 24 0 37 29 18 41 -18 11 -23 11
-36 -2z"/>
<path d="M77 3053 c-11 -10 -8 -41 3 -48 19 -12 41 15 29 36 -10 20 -21 24
-32 12z"/>
<path d="M4887 3053 c-11 -10 -8 -41 3 -48 19 -12 41 15 29 36 -10 20 -21 24
-32 12z"/>
<path d="M2675 3022 c-16 -11 -35 -25 -41 -33 -13 -16 -135 -376 -189 -557
-20 -67 -42 -158 -50 -202 -17 -97 -37 -138 -72 -146 -23 -6 -32 -1 -57 28
-43 50 -138 220 -166 298 -13 36 -48 114 -77 175 -30 60 -65 148 -79 195 -33
114 -60 166 -100 191 -52 32 -92 23 -118 -26 -18 -34 -21 -56 -20 -145 1 -58
9 -145 18 -195 17 -91 97 -406 161 -635 39 -140 41 -164 19 -235 -18 -59 -53
-412 -54 -536 0 -114 20 -172 84 -251 29 -35 87 -109 129 -165 86 -112 100
-151 113 -318 6 -78 5 -81 -26 -127 -59 -89 -24 -136 122 -158 93 -15 448 -8
571 11 86 13 239 61 284 89 48 29 50 56 10 137 -43 85 -57 156 -57 294 0 140
12 192 72 316 73 152 92 250 91 483 -1 261 -28 368 -124 490 -80 102 -151 130
-234 96 -32 -14 -35 -13 -40 5 -11 32 -55 79 -96 100 -22 11 -39 23 -39 27 0
4 12 43 25 87 14 44 30 114 36 155 5 41 21 127 35 190 43 188 35 295 -24 363
-20 22 -69 22 -107 -1z m88 -37 c39 -38 40 -76 8 -247 -17 -90 -42 -227 -56
-305 -28 -156 -46 -208 -106 -295 -22 -32 -48 -80 -58 -106 -22 -56 -51 -191
-51 -238 0 -19 -2 -34 -5 -34 -2 0 -34 11 -70 25 -79 29 -108 49 -197 132 -89
83 -116 85 -203 13 -52 -44 -61 -48 -67 -33 -13 30 -157 549 -189 678 -35 142
-48 306 -27 345 17 32 44 37 84 15 38 -20 67 -71 84 -145 21 -99 52 -182 127
-349 111 -244 136 -292 190 -349 62 -66 90 -69 142 -14 34 35 40 51 75 203 43
184 206 668 238 706 14 18 63 16 81 -2z m14 -849 c59 -50 60 -79 13 -370 -23
-144 -44 -275 -46 -292 -7 -50 -37 -74 -93 -74 -35 0 -53 5 -66 20 -18 20 -18
21 6 37 13 10 44 36 68 59 43 40 45 45 49 107 5 75 2 78 -103 107 -72 20 -74
25 -51 171 18 115 40 164 98 219 48 47 83 52 125 16z m240 -98 c83 -60 140
-166 169 -316 39 -205 -5 -560 -93 -739 -60 -124 -78 -324 -43 -492 12 -61 16
-99 10 -106 -5 -7 -28 -17 -50 -24 -22 -6 -40 -16 -40 -21 0 -18 20 -20 56 -5
70 29 98 11 51 -33 -80 -76 -365 -110 -652 -78 -144 17 -201 32 -226 62 -9 11
-8 33 5 94 21 105 20 160 -4 254 -27 105 -71 183 -141 253 -121 118 -159 205
-159 357 0 120 25 360 45 438 34 130 123 268 173 268 13 0 55 -30 104 -76 96
-88 178 -131 317 -164 108 -26 148 -53 138 -92 -11 -41 -126 -94 -244 -113
-87 -14 -162 31 -212 124 -18 35 -39 61 -48 61 -11 0 -14 -6 -8 -22 3 -13 9
-55 12 -94 5 -63 2 -79 -20 -127 -14 -30 -37 -72 -51 -93 -14 -21 -23 -40 -21
-42 3 -3 25 14 50 37 37 34 51 41 86 41 63 0 171 -61 246 -138 l62 -64 31 25
c36 31 83 41 148 34 l47 -5 -28 24 c-33 28 -71 31 -147 8 l-53 -16 -66 66
c-65 64 -153 116 -198 116 -41 0 -53 11 -53 46 0 19 4 34 10 34 5 0 33 -17 61
-37 59 -42 130 -64 187 -56 35 5 46 1 81 -27 54 -44 128 -53 171 -21 37 27 41
27 72 -9 31 -35 79 -40 133 -14 55 26 69 49 76 124 4 49 16 90 43 146 37 79
54 149 42 180 -11 29 -34 -3 -41 -59 -9 -77 -22 -103 -67 -132 -36 -24 -39
-29 -31 -58 20 -82 -10 -160 -65 -165 -72 -7 -108 46 -97 147 6 66 71 461 81
493 17 58 76 60 151 6z"/>
<path d="M2834 774 c-90 -42 -199 -65 -314 -65 -120 -1 -118 -17 4 -26 125
-10 309 40 361 97 23 25 13 24 -51 -6z"/>
<path d="M51 2916 c-16 -19 -7 -46 14 -46 22 0 30 29 13 46 -13 13 -16 13 -27
0z"/>
<path d="M4904 2905 c-12 -29 15 -45 45 -26 12 8 12 12 2 25 -17 20 -40 21
-47 1z"/>
<path d="M30 2784 c-11 -12 -10 -18 3 -32 21 -21 42 -3 32 27 -8 25 -18 27
-35 5z"/>
<path d="M4931 2786 c-16 -19 -7 -46 14 -46 22 0 30 29 13 46 -13 13 -16 13
-27 0z"/>
<path d="M20 2644 c-11 -12 -10 -18 3 -32 16 -15 18 -15 34 0 13 14 14 20 3
32 -7 9 -16 16 -20 16 -4 0 -13 -7 -20 -16z"/>
<path d="M4941 2646 c-13 -16 -4 -46 13 -46 13 0 36 20 36 32 0 4 -9 12 -19
17 -14 8 -22 7 -30 -3z"/>
<path d="M13 2513 c-21 -8 -15 -30 9 -37 27 -6 43 7 35 28 -6 16 -21 19 -44 9z"/>
<path d="M4942 2512 c-14 -9 -6 -42 10 -42 5 0 19 5 30 11 21 11 21 12 3 25
-22 16 -25 17 -43 6z"/>
<path d="M4935 2380 c-8 -24 1 -40 21 -40 20 0 29 27 14 45 -17 20 -27 19 -35
-5z"/>
<path d="M20 2375 c-23 -28 21 -50 48 -23 9 9 7 14 -6 24 -22 17 -27 17 -42
-1z"/>
<path d="M24 2239 c-3 -6 0 -17 8 -25 12 -12 17 -12 32 -1 11 8 16 19 12 25
-9 15 -43 15 -52 1z"/>
<path d="M4924 2239 c-3 -6 1 -18 9 -27 13 -13 19 -13 32 -2 12 10 13 16 4 26
-14 17 -35 18 -45 3z"/>
<path d="M40 2110 c-13 -8 -13 -11 2 -26 20 -20 51 -11 46 13 -4 21 -27 27
-48 13z"/>
<path d="M4906 2104 c-13 -33 21 -47 45 -18 10 13 10 17 -2 25 -21 13 -36 11
-43 -7z"/>
<path d="M72 1978 c-13 -13 2 -38 23 -38 21 0 36 25 23 38 -7 7 -17 12 -23 12
-6 0 -16 -5 -23 -12z"/>
<path d="M4878 1976 c-13 -10 -15 -15 -6 -24 24 -24 68 -1 47 25 -14 16 -19
16 -41 -1z"/>
<path d="M101 1846 c-18 -21 11 -41 39 -26 17 9 19 14 9 26 -15 18 -33 18 -48
0z"/>
<path d="M4846 1844 c-3 -9 -4 -20 0 -25 8 -14 40 -11 53 5 10 12 8 17 -8 25
-27 15 -38 14 -45 -5z"/>
<path d="M4814 1726 c-8 -22 3 -49 19 -43 6 2 12 14 12 27 0 27 -22 39 -31 16z"/>
<path d="M142 1718 c-7 -10 -6 -19 4 -33 15 -20 15 -20 30 0 8 10 13 24 11 30
-5 15 -33 17 -45 3z"/>
<path d="M190 1595 c-11 -13 -11 -19 2 -32 17 -16 38 -10 38 11 0 8 -6 19 -14
25 -10 9 -16 8 -26 -4z"/>
<path d="M4766 1594 c-11 -30 13 -44 43 -25 12 8 12 12 2 25 -17 20 -37 20
-45 0z"/>
<path d="M240 1474 c-11 -12 -11 -18 2 -30 13 -13 19 -14 36 -3 20 12 20 15 5
31 -20 22 -27 22 -43 2z"/>
<path d="M4714 1475 c-7 -17 2 -45 13 -45 4 0 17 7 27 15 20 15 20 15 0 30
-24 18 -33 19 -40 0z"/>
<path d="M300 1355 c-19 -22 1 -39 35 -31 26 7 27 8 10 26 -22 24 -29 25 -45
5z"/>
<path d="M4657 1363 c-12 -11 -8 -41 6 -46 6 -2 20 2 29 11 17 14 17 16 0 28
-20 15 -26 17 -35 7z"/>
<path d="M364 1235 c-12 -29 15 -45 45 -26 12 8 12 12 2 25 -17 20 -40 21 -47
1z"/>
<path d="M4584 1235 c-4 -9 0 -24 10 -33 15 -15 18 -15 26 -2 6 8 9 22 7 30
-3 21 -36 25 -43 5z"/>
<path d="M439 1129 c-8 -17 -8 -24 3 -35 20 -20 42 -2 34 30 -8 31 -21 33 -37
5z"/>
<path d="M4513 1124 c-3 -8 1 -22 8 -29 12 -12 17 -12 33 0 16 12 17 17 6 30
-16 20 -39 19 -47 -1z"/>
<path d="M521 1026 c-16 -19 -7 -46 14 -46 22 0 30 29 13 46 -13 13 -16 13
-27 0z"/>
<path d="M4441 1026 c-16 -19 -7 -46 14 -46 22 0 30 29 13 46 -13 13 -16 13
-27 0z"/>
<path d="M594 909 c-3 -6 1 -18 10 -27 14 -14 17 -14 36 3 16 14 17 20 8 27
-18 11 -46 10 -54 -3z"/>
<path d="M4350 906 c0 -20 24 -36 39 -26 8 4 11 15 8 24 -8 20 -47 21 -47 2z"/>
<path d="M690 814 c-11 -12 -11 -18 1 -30 13 -12 18 -12 34 0 16 12 17 16 6
30 -17 20 -25 20 -41 0z"/>
<path d="M4270 815 c-19 -23 5 -48 31 -32 10 6 19 14 19 17 0 3 -9 11 -19 17
-15 10 -22 9 -31 -2z"/>
<path d="M787 723 c-24 -23 12 -55 38 -33 12 10 13 16 4 26 -12 15 -31 18 -42
7z"/>
<path d="M4167 716 c-3 -8 1 -22 8 -33 13 -17 14 -17 28 2 8 10 13 25 10 32
-7 17 -39 17 -46 -1z"/>
<path d="M880 620 c0 -26 25 -36 45 -20 12 10 13 16 4 26 -18 22 -49 17 -49
-6z"/>
<path d="M4070 621 c0 -27 15 -34 40 -21 17 9 19 14 9 26 -17 21 -49 18 -49
-5z"/>
<path d="M991 556 c-16 -19 -7 -46 14 -46 22 0 30 29 13 46 -13 13 -16 13 -27
0z"/>
<path d="M3970 555 c-15 -18 -6 -45 14 -45 20 0 29 16 21 40 -8 24 -18 25 -35
5z"/>
<path d="M1095 470 c-8 -12 3 -50 14 -50 15 0 33 30 27 45 -6 17 -32 20 -41 5z"/>
<path d="M3863 469 c-13 -13 -6 -39 11 -39 6 0 17 4 25 9 12 8 12 12 2 25 -16
19 -23 20 -38 5z"/>
<path d="M1204 395 c-12 -31 28 -49 54 -23 9 9 7 14 -6 24 -23 18 -41 17 -48
-1z"/>
<path d="M3744 395 c-8 -20 4 -35 26 -35 25 0 35 17 20 35 -16 19 -39 19 -46
0z"/>
<path d="M1320 323 c0 -10 5 -25 10 -33 9 -13 12 -13 25 3 7 11 11 25 8 33 -8
20 -43 18 -43 -3z"/>
<path d="M3631 326 c-18 -21 11 -41 39 -26 17 9 19 14 9 26 -15 18 -33 18 -48
0z"/>
<path d="M1440 274 c-11 -12 -10 -18 3 -32 16 -15 18 -15 34 0 13 14 14 20 3
32 -7 9 -16 16 -20 16 -4 0 -13 -7 -20 -16z"/>
<path d="M3509 274 c-10 -12 -9 -18 3 -30 13 -13 19 -14 37 -2 27 17 26 22 -3
36 -19 9 -27 8 -37 -4z"/>
<path d="M1565 220 c-8 -24 1 -40 21 -40 20 0 29 27 14 45 -17 20 -27 19 -35
-5z"/>
<path d="M3390 225 c-15 -18 -6 -45 14 -45 20 0 29 16 21 40 -8 24 -18 25 -35
5z"/>
<path d="M1689 174 c-10 -12 -9 -18 4 -31 13 -13 19 -14 31 -3 21 17 20 27 -3
39 -14 8 -22 7 -32 -5z"/>
<path d="M3265 170 c-8 -13 3 -50 15 -50 13 0 32 39 25 50 -8 13 -32 13 -40 0z"/>
<path d="M3142 148 c-16 -16 -15 -33 2 -47 21 -18 41 11 26 38 -13 25 -12 25
-28 9z"/>
<path d="M1820 135 c-9 -11 -11 -22 -4 -32 13 -21 25 -21 38 -1 8 14 7 21 -5
33 -14 15 -17 15 -29 0z"/>
<path d="M1944 99 c-3 -6 1 -18 10 -27 15 -15 17 -15 34 1 15 16 15 19 2 27
-20 13 -37 12 -46 -1z"/>
<path d="M3006 101 c-9 -14 4 -41 19 -41 7 0 18 7 26 16 10 13 10 17 -2 25
-18 11 -36 11 -43 0z"/>
<path d="M2080 75 c-22 -26 7 -46 39 -26 12 8 12 12 2 25 -17 20 -25 20 -41 1z"/>
<path d="M2870 75 c-6 -8 -9 -19 -5 -25 8 -13 42 -13 50 0 7 11 -12 40 -25 40
-4 0 -13 -7 -20 -15z"/>
<path d="M2211 62 c-8 -15 -7 -23 5 -33 18 -15 38 0 32 27 -5 25 -25 28 -37 6z"/>
<path d="M2610 55 c-25 -30 10 -61 38 -33 7 7 8 17 1 30 -12 22 -23 23 -39 3z"/>
<path d="M2742 58 c-13 -13 2 -38 23 -38 21 0 36 25 23 38 -15 15 -31 15 -46
0z"/>
<path d="M2347 53 c-24 -23 12 -55 38 -33 12 10 13 16 4 26 -12 15 -31 18 -42
7z"/>
<path d="M2470 41 c0 -21 13 -41 26 -41 8 0 14 4 14 9 0 5 3 16 6 25 5 12 0
16 -20 16 -14 0 -26 -4 -26 -9z"/>
</g>
</svg>
