<?xml version="1.0" standalone="no"?>
<!DOCTYPE svg PUBLIC "-//W3C//DTD SVG 20010904//EN"
 "http://www.w3.org/TR/2001/REC-SVG-20010904/DTD/svg10.dtd">
<svg version="1.0" xmlns="http://www.w3.org/2000/svg"
 width="498.000000pt" height="500.000000pt" viewBox="0 0 498.000000 500.000000"
 preserveAspectRatio="xMidYMid meet">
<metadata>
Created by potrace 1.15, written by Peter Selinger 2001-2017
</metadata>
<g transform="translate(0.000000,500.000000) scale(0.100000,-0.100000)"
fill="#000000" stroke="none">
<path d="M2341 4976 c-19 -22 4 -62 25 -45 17 14 15 50 -2 56 -6 2 -16 -3 -23
-11z"/>
<path d="M2472 4978 c-8 -8 -9 -15 -1 -25 15 -17 34 -17 48 1 10 12 8 17 -8
25 -24 14 -24 14 -39 -1z"/>
<path d="M2612 4978 c-16 -16 -15 -33 2 -47 22 -18 44 25 24 45 -11 11 -16 12
-26 2z"/>
<path d="M2209 4964 c-15 -18 0 -38 27 -32 25 5 28 25 6 37 -15 8 -23 7 -33
-5z"/>
<path d="M2740 4965 c-15 -18 -5 -35 20 -35 10 0 22 5 25 10 7 11 -12 40 -25
40 -4 0 -13 -7 -20 -15z"/>
<path d="M2077 4953 c-11 -10 -8 -41 4 -49 6 -3 18 1 27 9 13 13 13 19 2 31
-14 17 -23 20 -33 9z"/>
<path d="M2877 4953 c-14 -14 -7 -43 11 -43 30 0 44 21 24 36 -20 15 -26 17
-35 7z"/>
<path d="M1942 4917 c-7 -8 -6 -18 4 -32 15 -19 16 -19 29 -2 24 33 -7 66 -33
34z"/>
<path d="M3001 4916 c-18 -22 11 -41 38 -24 25 15 26 24 5 32 -23 9 -30 8 -43
-8z"/>
<path d="M1816 4895 c-6 -17 2 -45 14 -45 4 0 13 7 20 15 10 12 10 18 0 30 -7
8 -16 15 -20 15 -4 0 -10 -7 -14 -15z"/>
<path d="M3132 4887 c-7 -8 -7 -18 -2 -27 7 -12 13 -12 37 -1 27 12 27 13 8
27 -23 17 -30 17 -43 1z"/>
<path d="M1683 4844 c-3 -8 1 -22 9 -30 13 -13 16 -13 27 0 7 9 11 23 7 31 -7
20 -35 19 -43 -1z"/>
<path d="M3253 4844 c-3 -8 1 -22 9 -30 13 -13 16 -13 27 0 7 9 11 23 7 31 -7
20 -35 19 -43 -1z"/>
<path d="M1567 4813 c-11 -10 -8 -41 4 -49 6 -3 18 1 27 9 13 13 13 19 2 31
-14 17 -23 20 -33 9z"/>
<path d="M3381 4801 c-15 -27 12 -49 37 -30 9 7 19 15 21 16 5 4 -31 32 -41
33 -4 0 -12 -9 -17 -19z"/>
<path d="M1434 4749 c-3 -6 0 -18 9 -26 12 -12 19 -13 36 -3 18 9 20 14 10 26
-14 17 -45 19 -55 3z"/>
<path d="M3504 4745 c-4 -9 -2 -21 3 -26 14 -14 45 1 41 20 -4 22 -37 26 -44
6z"/>
<path d="M1314 4689 c-3 -6 0 -18 9 -26 12 -12 18 -13 35 -2 16 10 18 16 10
26 -13 16 -44 17 -54 2z"/>
<path d="M3623 4684 c-3 -8 1 -22 10 -31 14 -14 16 -13 27 7 10 18 9 24 -1 31
-20 13 -29 11 -36 -7z"/>
<path d="M3740 4631 c-18 -35 13 -58 39 -28 8 11 6 18 -8 31 -19 17 -20 17
-31 -3z"/>
<path d="M1204 4625 c-12 -30 16 -45 46 -25 13 9 12 12 -4 25 -25 19 -35 19
-42 0z"/>
<path d="M1880 4611 c-70 -37 -66 -111 9 -148 82 -42 100 -74 61 -113 -23 -23
-88 -28 -108 -8 -7 7 -12 23 -12 36 0 38 -25 20 -28 -20 -4 -43 13 -52 92 -51
55 1 93 23 115 68 22 45 5 75 -63 111 -71 38 -84 56 -62 89 32 48 103 44 113
-6 8 -40 27 -31 31 13 3 33 1 36 -29 42 -52 10 -82 7 -119 -13z"/>
<path d="M1094 4554 c-19 -14 -19 -14 0 -28 14 -12 22 -12 37 -3 10 6 19 14
19 17 0 3 -9 11 -19 17 -15 9 -23 9 -37 -3z"/>
<path d="M3849 4554 c-11 -14 -10 -18 6 -30 13 -10 22 -11 32 -3 18 16 16 26
-6 38 -14 8 -22 7 -32 -5z"/>
<path d="M2127 4510 c-51 -40 -73 -121 -47 -170 15 -27 71 -35 109 -16 43 23
39 40 -4 19 -33 -16 -36 -15 -55 2 -38 35 -15 136 39 164 23 13 51 5 51 -15 0
-8 7 -14 16 -14 10 0 14 7 12 23 -4 32 -83 37 -121 7z"/>
<path d="M2381 4493 l-31 -38 6 33 c6 31 6 32 -29 32 -20 0 -39 -4 -42 -10 -3
-5 3 -10 15 -10 16 0 20 -5 16 -17 -3 -10 -12 -51 -19 -90 -13 -70 -13 -73 5
-73 10 0 20 6 22 13 21 75 34 103 63 135 22 24 36 33 39 25 9 -20 20 -15 32
12 11 24 10 25 -17 25 -21 0 -37 -10 -60 -37z"/>
<path d="M2548 4515 c-66 -37 -91 -145 -42 -184 32 -25 64 -27 105 -5 41 21
30 29 -17 14 -35 -12 -39 -11 -56 10 -30 38 -22 48 60 75 61 19 82 48 63 84
-14 25 -71 28 -113 6z m72 -29 c0 -28 -17 -44 -59 -56 -37 -10 -39 -1 -10 46
26 42 69 48 69 10z"/>
<path d="M2756 4509 c-35 -28 -56 -70 -56 -114 0 -51 15 -73 54 -80 35 -7 106
16 106 34 0 6 -15 4 -35 -5 -43 -18 -50 -18 -69 2 -32 32 -20 50 52 75 59 21
67 27 70 52 2 16 -2 35 -9 43 -17 21 -82 17 -113 -7z m84 -17 c0 -26 -21 -48
-57 -60 -43 -14 -47 -3 -17 41 28 41 74 53 74 19z"/>
<path d="M3020 4493 l-32 -38 6 33 c5 31 4 32 -29 32 -33 0 -48 -14 -23 -22
11 -4 4 -60 -19 -155 -4 -18 -1 -23 15 -23 15 0 22 9 27 33 11 49 41 103 72
126 37 30 46 10 27 -63 -21 -82 -3 -117 46 -86 13 8 12 10 -2 10 -22 0 -22 -1
-2 76 21 87 17 108 -22 112 -26 3 -37 -4 -64 -35z"/>
<path d="M991 4476 c-14 -16 -9 -46 7 -46 5 0 15 7 22 16 11 12 11 18 -2 30
-13 13 -16 13 -27 0z"/>
<path d="M3960 4475 c-23 -28 21 -50 48 -23 9 9 7 14 -6 24 -22 17 -27 17 -42
-1z"/>
<path d="M874 4389 c-3 -6 1 -18 10 -27 15 -15 17 -15 32 0 19 19 11 38 -16
38 -10 0 -22 -5 -26 -11z"/>
<path d="M4064 4389 c-3 -6 0 -17 8 -25 13 -13 16 -13 27 0 7 8 10 20 6 26 -8
13 -32 13 -41 -1z"/>
<path d="M792 4318 c-19 -19 -15 -48 7 -48 27 0 32 11 17 38 -9 17 -14 20 -24
10z"/>
<path d="M4160 4305 c-10 -12 -10 -19 1 -32 7 -10 15 -20 16 -22 4 -5 32 31
33 41 0 4 -9 12 -19 17 -14 8 -22 7 -31 -4z"/>
<path d="M4259 4217 c-14 -31 -2 -52 24 -41 21 8 22 24 3 49 -14 19 -15 19
-27 -8z"/>
<path d="M690 4215 c-15 -18 -6 -45 14 -45 20 0 29 16 21 40 -8 24 -18 25 -35
5z"/>
<path d="M594 4105 c-4 -9 0 -24 10 -33 15 -15 18 -15 26 -2 6 8 9 22 7 30 -3
21 -36 25 -43 5z"/>
<path d="M2545 4106 c-22 -9 -25 -14 -14 -18 11 -4 14 -15 11 -37 -4 -29 -7
-31 -48 -31 -82 0 -145 -85 -123 -165 15 -55 56 -66 101 -28 14 13 19 12 37
-6 18 -18 25 -20 44 -9 19 10 20 13 5 16 -23 4 -23 4 7 145 34 161 35 157 -20
133z m-28 -108 c17 -29 -11 -118 -46 -145 -24 -19 -49 -15 -61 7 -9 17 -6 32
15 78 14 31 31 60 38 64 18 12 45 9 54 -4z"/>
<path d="M2813 4100 c-18 -11 -35 -31 -39 -46 -12 -47 6 -75 71 -109 72 -37
84 -69 39 -104 -47 -37 -114 -22 -114 25 0 40 -25 23 -28 -19 -3 -34 -1 -36
33 -43 92 -17 167 15 180 78 10 41 -16 74 -79 102 -58 26 -75 51 -56 85 12 23
76 39 99 24 9 -6 17 -22 19 -37 5 -38 26 -27 30 16 3 30 -1 36 -20 42 -45 12
-103 6 -135 -14z"/>
<path d="M4343 4104 c-3 -8 1 -22 9 -30 13 -13 16 -13 28 0 10 13 10 19 0 31
-16 19 -29 19 -37 -1z"/>
<path d="M943 4103 c-18 -7 -16 -23 2 -23 20 0 19 -21 -6 -132 -16 -74 -26
-98 -47 -115 l-27 -23 117 0 c64 0 119 4 122 8 3 5 8 29 11 53 l6 44 -33 -38
c-30 -33 -38 -37 -81 -37 -41 0 -48 3 -43 18 3 9 15 59 26 111 19 88 36 118
65 121 6 1 1 5 -10 10 -22 9 -83 11 -102 3z"/>
<path d="M3368 4103 c-10 -2 -18 -9 -18 -14 0 -6 4 -8 9 -4 24 14 38 -27 45
-134 3 -60 9 -117 12 -126 13 -33 40 -7 84 77 25 49 48 88 51 88 3 0 9 -37 12
-81 9 -137 32 -132 108 24 32 66 68 125 89 145 l35 33 -54 -3 c-33 -2 -56 -8
-59 -15 -2 -7 4 -13 13 -13 21 0 15 -19 -40 -130 l-43 -85 -6 70 c-4 39 -9 84
-12 102 -4 24 0 35 17 46 20 15 20 16 -25 22 -25 4 -53 5 -61 1 -22 -8 -18
-26 5 -26 11 0 20 -7 20 -15 0 -20 -82 -185 -92 -185 -5 0 -8 28 -9 63 0 34
-4 85 -7 112 -6 44 -10 50 -32 52 -14 0 -33 -1 -42 -4z"/>
<path d="M521 4016 c-14 -16 -9 -46 7 -46 5 0 15 7 22 16 11 12 11 18 -2 30
-13 13 -16 13 -27 0z"/>
<path d="M1245 4021 c-52 -23 -90 -96 -78 -151 13 -69 98 -88 153 -35 50 48
61 133 21 169 -22 20 -70 28 -96 17z m57 -28 c32 -29 16 -143 -24 -164 -29
-16 -64 3 -71 37 -6 33 19 114 41 132 21 16 32 15 54 -5z"/>
<path d="M1813 4012 c-120 -64 -93 -243 31 -202 19 6 40 18 48 27 11 15 11 16
-7 8 -40 -16 -81 -17 -94 -1 -23 28 -8 48 48 67 68 24 81 35 81 70 0 22 -6 32
-26 39 -34 13 -43 12 -81 -8z m67 -26 c0 -25 -34 -56 -69 -62 -33 -7 -33 -6
-21 17 7 13 19 32 28 42 18 20 62 23 62 3z"/>
<path d="M2244 4016 c-129 -57 -111 -250 20 -206 19 6 40 18 48 27 11 15 11
16 -7 8 -11 -4 -37 -10 -57 -13 -33 -4 -38 -1 -43 21 -9 35 -1 45 48 58 76 20
105 55 79 96 -12 19 -55 24 -88 9z m56 -29 c0 -24 -30 -55 -61 -62 -41 -9 -44
-3 -17 39 17 27 30 36 51 36 15 0 27 -5 27 -13z"/>
<path d="M3083 4015 c-41 -18 -73 -69 -73 -118 0 -52 13 -73 55 -87 50 -16
101 10 126 64 32 71 19 127 -34 146 -37 12 -35 12 -74 -5z m67 -15 c33 -21 5
-158 -36 -174 -50 -19 -75 29 -55 103 19 71 51 96 91 71z"/>
<path d="M3832 4013 c-65 -32 -102 -127 -68 -178 13 -20 24 -25 61 -25 46 0
95 17 95 33 0 5 -8 6 -17 1 -10 -4 -36 -8 -58 -8 -38 -1 -40 1 -40 29 0 27 5
31 60 50 47 17 62 27 70 49 8 24 6 31 -14 47 -28 23 -46 24 -89 2z m62 -21
c10 -17 -21 -57 -52 -66 -43 -12 -48 -4 -22 38 21 34 61 49 74 28z"/>
<path d="M1423 4013 c-25 -5 -32 -23 -9 -23 18 0 23 -16 32 -103 3 -37 11 -70
17 -74 11 -7 42 26 71 78 l19 34 9 -45 c11 -49 27 -73 44 -62 15 10 117 192
111 199 -8 8 -67 -7 -67 -18 0 -5 7 -9 15 -9 12 0 8 -14 -16 -62 -32 -63 -49
-65 -49 -7 0 56 -12 89 -31 89 -13 0 -19 -7 -19 -22 0 -12 -12 -41 -26 -66
-28 -47 -44 -44 -44 9 0 45 -12 89 -24 88 -6 -1 -21 -4 -33 -6z"/>
<path d="M1998 4013 c-29 -4 -39 -23 -13 -23 18 0 18 2 0 -80 -8 -36 -14 -73
-15 -82 0 -20 29 -25 34 -5 2 6 12 34 21 61 20 54 73 119 82 99 7 -20 19 -15
31 12 11 24 10 25 -17 25 -21 0 -37 -9 -55 -32 l-26 -33 0 33 c0 17 -3 31 -7
31 -5 -1 -20 -4 -35 -6z"/>
<path d="M4430 4005 c-15 -18 -5 -35 20 -35 10 0 22 5 25 10 7 11 -12 40 -25
40 -4 0 -13 -7 -20 -15z"/>
<path d="M434 3895 c-8 -20 4 -35 26 -35 25 0 35 17 20 35 -16 19 -39 19 -46
0z"/>
<path d="M4504 3895 c-12 -29 15 -45 45 -26 12 8 12 12 2 25 -17 20 -40 21
-47 1z"/>
<path d="M4581 3796 c-16 -19 -7 -46 14 -46 22 0 30 29 13 46 -13 13 -16 13
-27 0z"/>
<path d="M373 3793 c-17 -6 -16 -38 1 -52 12 -10 17 -8 25 8 6 11 8 27 5 35
-6 17 -11 18 -31 9z"/>
<path d="M297 3666 c-9 -23 18 -39 43 -26 17 9 19 14 9 26 -15 18 -45 18 -52
0z"/>
<path d="M4643 3664 c-9 -24 11 -38 37 -24 17 9 19 14 9 26 -15 19 -38 18 -46
-2z"/>
<path d="M3581 3606 c-14 -17 -7 -36 14 -36 22 0 29 20 13 36 -13 13 -16 13
-27 0z"/>
<path d="M840 3599 c-91 -37 -140 -175 -91 -255 34 -55 126 -69 188 -29 34 23
25 27 -27 12 -90 -26 -125 2 -125 97 0 102 64 176 140 162 26 -5 34 -12 39
-36 8 -41 22 -38 31 6 4 26 2 39 -7 45 -18 12 -117 10 -148 -2z"/>
<path d="M1709 3595 c-14 -8 -32 -28 -39 -46 -19 -46 1 -77 72 -111 73 -35 83
-61 38 -101 -27 -24 -39 -28 -68 -23 -41 6 -54 22 -47 54 3 12 1 22 -4 22 -17
0 -32 -29 -29 -57 3 -24 9 -29 45 -37 111 -23 206 54 163 134 -6 11 -35 31
-65 46 -76 35 -88 82 -27 105 37 14 80 2 84 -23 5 -34 26 -32 33 3 5 22 3 34
-6 40 -22 14 -121 10 -150 -6z"/>
<path d="M2670 3603 c-34 -6 -50 -23 -22 -23 24 0 25 15 -13 -168 -12 -57 -18
-105 -14 -107 18 -11 37 9 43 45 7 43 63 123 89 128 22 4 22 -26 1 -97 -8 -29
-13 -60 -10 -68 7 -17 67 -14 73 4 3 7 -3 9 -17 6 -14 -4 -19 -1 -16 8 2 8 12
47 21 87 14 58 15 75 5 87 -22 26 -56 17 -89 -22 -35 -42 -37 -34 -16 52 20
84 23 78 -35 68z"/>
<path d="M4065 3603 c-45 -10 -51 -15 -29 -23 l21 -8 -27 -131 c-15 -71 -25
-133 -22 -136 15 -15 31 -1 40 38 20 76 86 156 110 133 3 -4 -2 -38 -12 -76
-22 -85 -18 -102 26 -98 17 2 33 8 35 15 3 7 -3 9 -16 6 -26 -7 -26 -8 0 88
18 64 20 81 9 94 -23 27 -56 18 -95 -27 -31 -37 -36 -39 -31 -18 38 166 39
154 -9 143z"/>
<path d="M3240 3590 c0 -5 7 -10 15 -10 20 0 19 -27 -5 -140 -23 -105 -26
-110 -45 -110 -8 0 -17 -4 -20 -10 -4 -6 33 -10 105 -10 110 0 112 0 141 29
36 37 38 73 4 99 -28 22 -32 32 -12 32 22 0 47 34 47 63 0 48 -40 67 -141 67
-53 0 -89 -4 -89 -10z m154 -20 c20 -7 26 -17 26 -39 0 -37 -31 -61 -78 -61
l-34 0 7 48 c9 62 26 73 79 52z m-4 -140 c26 -26 25 -43 -2 -74 -17 -18 -35
-26 -68 -28 -25 -1 -44 1 -44 5 1 4 5 24 8 45 13 69 15 72 52 72 21 0 42 -8
54 -20z"/>
<path d="M2530 3549 c-6 -11 -26 -29 -43 -40 -31 -19 -31 -19 -9 -25 14 -4 21
-12 18 -20 -11 -29 -27 -137 -22 -150 6 -15 33 -18 60 -8 23 9 20 26 -4 19
-26 -8 -26 -5 5 132 3 12 17 26 32 31 l28 11 -23 7 c-19 5 -23 12 -20 35 5 34
-7 38 -22 8z"/>
<path d="M3895 3530 c-32 -33 -37 -43 -26 -50 12 -7 13 -19 3 -73 -18 -98 -17
-107 17 -107 16 0 34 7 42 16 11 13 9 14 -13 9 l-26 -7 17 78 c13 61 22 79 39
87 25 11 29 27 8 27 -9 0 -16 12 -18 31 l-3 30 -40 -41z"/>
<path d="M4701 3551 c-16 -28 14 -51 36 -28 13 13 14 19 3 31 -17 21 -27 20
-39 -3z"/>
<path d="M241 3546 c-18 -21 11 -41 39 -26 17 9 19 14 9 26 -15 18 -33 18 -48
0z"/>
<path d="M1091 3509 c-49 -20 -81 -74 -81 -138 0 -61 50 -90 96 -57 16 13 21
12 36 -1 18 -16 59 -14 65 4 3 7 -3 10 -15 6 -19 -5 -19 -3 1 82 21 86 21 87
2 101 -21 16 -69 17 -104 3z m79 -29 c0 -39 -40 -127 -64 -140 -26 -13 -41 -9
-55 19 -10 19 17 91 46 123 23 25 73 24 73 -2z"/>
<path d="M1379 3482 l-40 -40 7 34 c7 37 -3 41 -54 28 -20 -6 -21 -8 -6 -19
15 -11 16 -18 2 -94 -9 -48 -12 -84 -6 -87 15 -10 35 15 41 51 7 41 62 125 82
125 24 0 26 -17 10 -79 -22 -87 -21 -101 14 -101 16 0 35 7 42 16 12 15 11 16
-9 10 -26 -9 -26 -10 -6 66 32 125 -2 165 -77 90z"/>
<path d="M1969 3497 c-65 -43 -90 -136 -48 -178 18 -18 30 -21 71 -17 29 3 56
12 66 23 16 17 16 17 -8 11 -58 -17 -71 -18 -85 -6 -8 7 -15 23 -15 35 0 20
10 27 64 45 76 25 97 58 60 94 -22 23 -65 20 -105 -7z m71 -16 c0 -35 -11 -50
-47 -62 -41 -13 -49 -8 -33 23 30 56 80 81 80 39z"/>
<path d="M2192 3499 c-18 -12 -39 -34 -47 -50 -21 -40 -19 -112 3 -132 27 -24
94 -22 123 4 21 18 22 20 4 14 -48 -16 -81 -17 -94 -1 -24 28 -8 48 58 75 74
30 93 59 61 91 -26 26 -66 25 -108 -1z m74 -13 c9 -24 -14 -54 -52 -66 -19 -7
-38 -10 -41 -7 -6 6 34 67 52 79 16 12 35 9 41 -6z"/>
<path d="M2933 3500 c-37 -22 -58 -53 -67 -96 -7 -32 7 -84 27 -96 20 -13 76
-9 108 8 41 21 30 29 -16 13 -43 -16 -69 -4 -73 33 -3 23 2 28 53 44 63 19 85
36 85 64 0 48 -61 64 -117 30z m72 -9 c11 -19 -19 -61 -52 -72 -43 -14 -48 -9
-28 31 19 37 67 62 80 41z"/>
<path d="M3752 3483 l-34 -37 7 32 c6 31 6 32 -29 32 -39 0 -41 -2 -25 -28 8
-13 7 -37 -4 -92 -15 -71 -11 -100 11 -86 5 3 14 25 20 49 13 50 65 127 87
127 8 0 15 -6 15 -12 0 -8 7 -5 15 6 42 55 -12 63 -63 9z"/>
<path d="M3533 3503 c-18 -7 -16 -23 2 -23 18 0 18 -2 0 -70 -8 -30 -15 -68
-15 -83 0 -26 3 -28 32 -25 32 3 53 28 24 28 -9 0 -16 1 -16 3 0 1 9 36 20 77
11 41 20 81 20 88 0 12 -42 16 -67 5z"/>
<path d="M190 3425 c-11 -13 -11 -19 4 -33 15 -15 18 -15 26 -2 22 33 -6 64
-30 35z"/>
<path d="M4757 3433 c-24 -23 12 -55 38 -33 12 10 13 16 4 26 -12 15 -31 18
-42 7z"/>
<path d="M137 3296 c-9 -24 18 -39 42 -24 25 15 26 24 5 32 -25 10 -41 7 -47
-8z"/>
<path d="M4802 3288 c4 -27 18 -31 43 -12 17 13 18 16 5 24 -28 18 -52 12 -48
-12z"/>
<path d="M108 3183 c-20 -22 -9 -47 17 -41 24 4 28 20 12 42 -12 17 -13 17
-29 -1z"/>
<path d="M4834 3169 c-3 -6 1 -18 10 -27 15 -15 17 -15 32 0 19 19 11 38 -16
38 -10 0 -22 -5 -26 -11z"/>
<path d="M2313 3065 c-96 -29 -204 -120 -244 -203 -27 -56 -28 -137 -1 -227
11 -38 23 -91 27 -116 5 -44 4 -48 -24 -68 -54 -39 -135 -26 -151 25 -14 42
-63 84 -100 84 -29 0 -78 24 -275 132 -110 61 -233 109 -274 107 -9 0 11 -8
44 -18 83 -23 176 -68 265 -128 119 -79 164 -103 198 -103 35 0 82 -16 82 -27
0 -5 -23 -18 -50 -30 -91 -40 -143 -162 -119 -280 22 -111 24 -108 -56 -111
-92 -4 -198 19 -368 81 -154 55 -377 118 -377 107 0 -9 105 -47 250 -90 58
-18 159 -49 225 -70 162 -52 230 -63 345 -56 84 6 100 4 135 -14 28 -14 58
-20 107 -20 42 0 68 -4 68 -11 0 -6 -35 -46 -77 -89 -89 -89 -114 -100 -236
-100 -71 0 -84 4 -158 41 -61 30 -100 42 -157 49 -43 5 -142 23 -222 40 -110
23 -171 30 -254 30 -60 0 -107 -2 -104 -5 3 -3 47 -8 99 -11 132 -7 235 -22
315 -44 38 -10 114 -26 169 -35 116 -18 140 -31 154 -82 12 -42 14 -153 5
-202 -6 -29 -10 -31 -34 -26 -20 4 -29 2 -34 -11 -9 -23 -2 -28 23 -14 40 21
23 -15 -29 -64 -61 -57 -117 -84 -278 -131 -225 -65 -241 -67 -499 -59 -154 4
-233 3 -233 -4 0 -37 704 -112 1053 -112 480 0 1135 94 1638 236 347 98 430
127 737 266 475 214 728 351 909 495 37 30 63 73 43 73 -5 0 -44 -27 -87 -61
-141 -109 -221 -155 -587 -339 l-362 -182 -74 48 c-222 142 -491 237 -740 262
l-75 7 -12 54 c-6 30 -14 75 -18 100 -6 46 -6 47 30 64 28 13 42 31 65 80 43
90 40 111 -22 172 -31 29 -81 63 -119 80 l-65 30 0 80 c1 66 -4 93 -28 154
-35 90 -66 126 -162 191 -107 71 -183 86 -281 55z m137 -25 c88 -17 173 -64
219 -121 23 -29 41 -55 41 -58 0 -4 -26 -13 -57 -19 -64 -14 -129 -39 -121
-47 3 -3 31 1 64 10 71 18 118 19 132 3 5 -7 20 -41 32 -75 19 -54 21 -66 10
-100 -17 -53 -54 -115 -103 -173 -23 -27 -52 -63 -65 -80 -23 -29 -26 -30
-106 -30 -134 0 -180 13 -274 76 -46 31 -90 67 -98 79 -20 31 -47 220 -39 279
18 141 144 254 296 265 9 0 40 -3 69 -9z m396 -505 c119 -49 171 -149 128
-241 -25 -52 -43 -57 -119 -37 -84 22 -92 15 -70 -61 9 -32 15 -59 12 -62 -2
-2 -17 15 -33 38 l-28 43 -10 -42 c-12 -57 -25 -55 -18 2 5 48 -1 54 -30 28
-21 -19 -22 -15 -6 61 11 57 12 58 86 106 62 41 77 48 94 39 25 -13 36 -4 22
19 -18 28 -41 25 -103 -13 -102 -63 -130 -107 -131 -207 0 -37 -1 -38 -38 -38
-20 0 -100 -22 -177 -48 -135 -47 -245 -71 -245 -55 1 21 60 48 118 54 81 8
132 46 145 105 7 35 5 41 -18 61 -14 12 -25 25 -25 28 0 3 42 5 93 3 110 -2
126 5 171 85 17 30 46 75 65 101 38 51 58 56 117 31z m-1041 -100 c-39 -34
-39 -48 0 -22 35 24 68 27 137 11 37 -9 68 -17 68 -19 0 -1 -7 -20 -16 -41
-22 -52 -14 -148 17 -211 21 -41 34 -53 92 -82 94 -48 139 -46 292 12 218 82
232 73 55 -35 -108 -66 -136 -88 -112 -88 4 0 71 36 148 80 76 44 144 80 151
80 28 0 -5 -33 -117 -119 -65 -51 -121 -99 -124 -107 -7 -19 28 1 168 98 95
65 126 79 126 59 0 -6 -52 -56 -115 -112 -64 -56 -113 -104 -111 -107 7 -7 76
39 159 106 37 30 71 52 74 48 4 -4 -33 -46 -83 -94 -151 -148 -241 -201 -484
-284 l-175 -60 -157 -5 c-86 -3 -163 -3 -171 0 -12 4 -13 14 -7 44 17 83 21
115 12 109 -9 -5 -30 -91 -35 -140 -2 -28 -30 -57 -42 -44 -4 3 1 53 10 110
10 65 14 124 10 161 -7 60 4 75 27 38 11 -18 14 -18 35 -4 18 12 37 14 83 9
103 -12 132 2 241 115 53 54 101 99 107 99 7 0 12 4 12 8 0 4 -40 16 -89 26
-49 10 -111 28 -138 40 -47 22 -50 26 -69 90 -11 37 -24 68 -30 69 -5 1 -10
-20 -12 -47 -3 -44 -4 -47 -17 -29 -51 73 -12 199 80 254 45 28 45 22 0 -16z
m381 -14 c28 -17 82 -88 73 -95 -13 -9 -84 -24 -87 -18 -9 24 -23 36 -29 26
-5 -7 -28 -18 -53 -25 l-45 -13 57 -10 58 -11 -26 -44 c-28 -51 -27 -79 2 -37
52 75 75 94 125 106 52 13 102 8 126 -11 26 -22 14 -32 -32 -26 -64 9 -56 -7
11 -22 36 -8 52 -16 44 -21 -7 -4 -26 -3 -42 2 -41 15 -48 0 -13 -28 32 -26
19 -33 -28 -15 -31 12 -43 2 -19 -15 15 -12 15 -13 -9 -14 -14 0 -34 9 -45 21
l-19 21 -17 -41 c-13 -32 -24 -42 -56 -51 -55 -17 -94 5 -129 73 -78 153 28
324 153 248z m674 -237 c0 -11 -24 -54 -30 -54 -8 0 -19 57 -13 64 5 4 43 -4
43 -10z m-50 -134 l7 -40 -43 0 c-42 0 -44 1 -44 29 0 15 3 49 6 74 l6 45 31
-34 c16 -19 33 -53 37 -74z m64 45 c-17 -26 -44 -34 -44 -14 0 14 30 38 48 39
9 0 8 -7 -4 -25z m201 -140 c213 -48 357 -102 518 -194 81 -47 147 -87 147
-90 0 -9 -99 -48 -270 -106 -85 -30 -200 -69 -255 -89 -110 -39 -622 -145
-822 -171 -249 -31 -789 -72 -801 -60 -6 5 -4 8 111 146 l87 106 58 6 c31 4
84 15 117 26 114 36 390 138 432 159 59 30 175 127 268 222 l80 82 105 -5 c63
-2 153 -15 225 -32z m-1347 -444 c9 -6 -16 -43 -93 -139 l-106 -132 -69 0
c-112 0 -522 21 -560 29 -28 5 -8 10 100 24 74 10 165 25 202 33 67 15 214 85
272 129 17 13 45 27 61 31 17 4 39 13 50 20 21 15 122 19 143 5z"/>
<path d="M2540 2864 c-16 -10 -18 -13 -5 -8 11 4 45 10 75 14 l55 7 -50 1
c-29 1 -60 -5 -75 -14z"/>
<path d="M2675 2790 c-11 -5 -37 -9 -57 -9 -39 -1 -55 -21 -17 -21 33 0 109
22 109 31 0 11 -8 10 -35 -1z"/>
<path d="M2235 2756 c-11 -7 -33 -21 -48 -30 -16 -10 -27 -20 -24 -22 2 -3 31
11 63 31 33 19 52 35 44 34 -8 0 -24 -6 -35 -13z"/>
<path d="M2467 2735 c42 -19 51 -35 19 -35 -14 0 -26 -4 -26 -10 0 -5 16 -10
35 -10 30 0 35 3 35 24 0 30 -4 33 -55 40 l-40 6 32 -15z"/>
<path d="M2266 2724 c-75 -27 -164 -94 -125 -94 18 0 179 91 179 101 0 12 -6
11 -54 -7z"/>
<path d="M2379 2722 c-14 -12 -20 -25 -16 -35 8 -21 47 -22 47 -2 0 9 -6 12
-17 9 -14 -4 -13 -1 5 14 38 34 22 46 -19 14z"/>
<path d="M2248 2652 c-16 -9 -28 -20 -28 -25 0 -7 56 21 79 40 15 12 -29 -1
-51 -15z"/>
<path d="M2590 2652 c0 -12 39 -46 45 -41 6 7 -24 49 -36 49 -5 0 -9 -4 -9 -8z"/>
<path d="M2468 2571 c-98 -28 -128 -43 -128 -66 0 -25 42 -65 81 -75 34 -9 51
-8 103 10 35 11 73 31 84 43 27 29 39 82 22 102 -17 21 -50 18 -162 -14z m122
-38 c-1 -13 -45 -60 -68 -72 -38 -21 -100 -14 -129 15 -14 14 -23 27 -20 30 3
3 27 -2 55 -11 47 -16 53 -16 86 0 19 9 40 23 47 31 12 15 29 19 29 7z"/>
<path d="M77 3053 c-11 -10 -8 -41 4 -48 5 -4 19 1 29 10 16 15 17 19 5 31
-15 15 -28 18 -38 7z"/>
<path d="M4874 3045 c-4 -8 0 -22 7 -31 12 -14 14 -14 26 2 9 13 10 21 2 31
-15 17 -28 17 -35 -2z"/>
<path d="M4900 2925 c-9 -11 -11 -22 -4 -32 13 -21 25 -21 38 -1 8 14 7 21 -5
33 -14 15 -17 15 -29 0z"/>
<path d="M53 2923 c-17 -6 -16 -38 1 -52 21 -18 44 25 24 44 -7 7 -19 11 -25
8z"/>
<path d="M31 2777 c-8 -10 -7 -18 2 -31 12 -16 14 -16 26 -2 14 16 9 46 -7 46
-5 0 -15 -6 -21 -13z"/>
<path d="M4913 2774 c-3 -8 1 -22 9 -30 13 -13 16 -13 27 0 7 9 11 23 7 31 -7
20 -35 19 -43 -1z"/>
<path d="M4931 2656 c-16 -19 -7 -46 14 -46 22 0 30 29 13 46 -13 13 -16 13
-27 0z"/>
<path d="M20 2645 c-11 -13 -11 -19 4 -33 15 -15 18 -15 26 -2 22 33 -6 64
-30 35z"/>
<path d="M23 2522 c-28 -4 -30 -28 -3 -37 23 -7 40 1 40 20 0 18 -9 22 -37 17z"/>
<path d="M1595 2521 l-20 -8 20 -6 c42 -12 95 -19 95 -12 0 13 -34 34 -55 34
-11 0 -29 -4 -40 -8z"/>
<path d="M4935 2516 c-15 -10 -16 -16 -6 -35 10 -18 15 -20 27 -10 15 13 19
45 5 53 -4 3 -16 0 -26 -8z"/>
<path d="M1593 2426 l28 -23 -23 -16 c-23 -16 -23 -16 -2 -16 26 -1 48 23 41
43 -3 7 -20 18 -39 25 l-33 11 28 -24z"/>
<path d="M17 2383 c-12 -12 -7 -31 10 -37 19 -8 48 17 39 33 -8 12 -39 15 -49
4z"/>
<path d="M4923 2374 c-3 -8 1 -22 9 -30 13 -13 16 -13 27 0 7 9 11 23 7 31 -7
20 -35 19 -43 -1z"/>
<path d="M1593 2263 c-14 -5 -18 -33 -5 -33 4 1 18 7 31 14 21 12 22 13 5 18
-11 3 -25 3 -31 1z"/>
<path d="M4915 2250 c-8 -24 1 -40 21 -40 20 0 29 27 14 45 -17 20 -27 19 -35
-5z"/>
<path d="M26 2244 c-11 -30 13 -44 43 -25 12 8 12 12 2 25 -17 20 -37 20 -45
0z"/>
<path d="M1618 2189 c-22 -12 -23 -29 -3 -29 8 0 19 9 25 20 12 22 4 25 -22 9z"/>
<path d="M4901 2126 c-16 -19 -7 -46 14 -46 22 0 30 29 13 46 -13 13 -16 13
-27 0z"/>
<path d="M51 2117 c-13 -17 -5 -47 14 -47 19 0 28 32 12 47 -12 12 -16 12 -26
0z"/>
<path d="M70 1985 c-23 -28 21 -50 48 -23 9 9 7 14 -6 24 -22 17 -27 17 -42
-1z"/>
<path d="M4866 1981 c-14 -15 -14 -18 3 -28 20 -12 41 0 41 23 0 20 -27 24
-44 5z"/>
<path d="M101 1862 c-7 -13 -6 -23 1 -30 28 -28 63 3 38 33 -16 20 -27 19 -39
-3z"/>
<path d="M4840 1855 c-10 -12 -10 -18 0 -30 15 -18 20 -18 44 0 20 15 20 15 0
30 -24 18 -29 18 -44 0z"/>
<path d="M1480 1838 l-25 -10 23 -11 c18 -8 26 -8 33 4 19 30 11 35 -31 17z"/>
<path d="M141 1727 c-8 -10 -7 -19 4 -33 13 -18 15 -18 31 -2 14 14 15 20 4
32 -15 19 -24 20 -39 3z"/>
<path d="M4807 1733 c-4 -3 -7 -15 -7 -25 0 -22 32 -24 49 -4 10 12 8 17 -8
25 -23 13 -26 13 -34 4z"/>
<path d="M1475 1692 c-37 -17 -38 -19 -16 -25 13 -3 20 -10 16 -16 -9 -16 2
-14 30 5 14 9 25 25 25 35 0 23 -4 23 -55 1z"/>
<path d="M4762 1618 c-16 -16 -15 -33 2 -47 21 -18 41 11 26 38 -13 25 -12 25
-28 9z"/>
<path d="M186 1603 c-9 -21 14 -45 33 -34 8 5 11 16 6 30 -8 25 -30 28 -39 4z"/>
<path d="M4400 1539 c-129 -37 -349 -101 -487 -140 -139 -40 -251 -74 -249
-77 4 -3 343 82 708 177 132 34 250 81 264 103 3 4 4 8 2 7 -2 -1 -109 -32
-238 -70z"/>
<path d="M4701 1481 c-16 -28 14 -51 36 -28 13 13 14 19 3 31 -17 21 -27 20
-39 -3z"/>
<path d="M243 1483 c-18 -7 -16 -28 3 -43 12 -11 18 -10 31 3 13 13 14 19 3
31 -13 17 -17 18 -37 9z"/>
<path d="M297 1356 c-9 -23 18 -39 43 -26 17 9 19 14 9 26 -15 18 -45 18 -52
0z"/>
<path d="M4643 1354 c-9 -24 11 -38 37 -24 17 9 19 14 9 26 -15 19 -38 18 -46
-2z"/>
<path d="M3628 1313 c7 -3 16 -2 19 1 4 3 -2 6 -13 5 -11 0 -14 -3 -6 -6z"/>
<path d="M4200 1304 c-66 -21 -506 -140 -725 -195 -171 -44 -464 -95 -815
-141 -128 -17 -78 -22 88 -9 287 23 571 70 857 143 165 41 582 175 632 202 34
19 22 19 -37 0z"/>
<path d="M4580 1255 c-9 -11 -11 -22 -4 -32 13 -21 25 -21 38 -1 8 14 7 21 -5
33 -14 15 -17 15 -29 0z"/>
<path d="M373 1253 c-17 -6 -16 -38 1 -52 21 -18 44 25 24 44 -7 7 -19 11 -25
8z"/>
<path d="M3275 1175 c-34 -13 -598 -87 -880 -116 -225 -23 -600 -30 -910 -17
-189 8 -138 -5 91 -23 194 -15 696 -6 894 15 317 35 750 106 820 135 23 9 9
15 -15 6z"/>
<path d="M4510 1135 c-9 -11 -11 -22 -4 -32 13 -21 25 -21 38 -1 8 14 7 21 -5
33 -14 15 -17 15 -29 0z"/>
<path d="M434 1129 c-3 -6 1 -18 10 -27 15 -15 17 -15 34 1 15 16 15 19 2 27
-20 13 -37 12 -46 -1z"/>
<path d="M522 1038 c-16 -16 -15 -45 2 -51 15 -6 36 11 36 29 0 21 -25 35 -38
22z"/>
<path d="M680 1037 c5 -6 180 -37 345 -63 127 -19 611 -62 850 -75 215 -12
508 0 529 21 8 9 -16 10 -94 4 -149 -11 -414 -9 -555 5 -66 6 -214 21 -330 32
-198 19 -606 62 -705 75 -25 3 -43 3 -40 1z"/>
<path d="M4430 1025 c-16 -19 8 -59 27 -43 17 14 17 45 -1 51 -8 3 -20 0 -26
-8z"/>
<path d="M4345 919 c-8 -26 6 -42 28 -33 20 7 22 25 5 42 -17 17 -26 15 -33
-9z"/>
<path d="M593 914 c-3 -8 1 -22 9 -30 13 -13 16 -13 27 0 7 9 11 23 7 31 -7
20 -35 19 -43 -1z"/>
<path d="M2710 869 c-107 -10 -332 -29 -500 -44 -341 -29 -462 -47 -260 -39
288 11 911 69 1010 93 l35 9 -45 0 c-25 0 -133 -9 -240 -19z"/>
<path d="M687 816 c-10 -25 19 -40 44 -23 21 15 21 15 1 26 -28 15 -39 14 -45
-3z"/>
<path d="M4253 814 c-8 -21 16 -35 40 -23 14 8 16 13 6 25 -15 19 -38 18 -46
-2z"/>
<path d="M787 733 c-4 -3 -7 -15 -7 -25 0 -22 32 -24 49 -4 10 12 8 17 -8 25
-23 13 -26 13 -34 4z"/>
<path d="M4167 733 c-11 -10 -8 -41 4 -49 6 -3 18 1 27 9 13 13 13 19 2 31
-14 17 -23 20 -33 9z"/>
<path d="M881 642 c-8 -15 -7 -23 5 -33 18 -15 38 0 32 27 -5 25 -25 28 -37 6z"/>
<path d="M4064 635 c-12 -29 15 -45 45 -26 12 8 12 12 2 25 -17 20 -40 21 -47
1z"/>
<path d="M3960 554 c-11 -12 -10 -18 3 -31 15 -15 18 -15 37 2 19 17 19 19 2
31 -22 17 -27 17 -42 -2z"/>
<path d="M984 549 c-3 -6 0 -17 8 -25 12 -12 17 -12 33 1 17 13 18 16 5 25
-20 13 -37 13 -46 -1z"/>
<path d="M1090 475 c-23 -28 15 -47 50 -25 13 8 12 11 -5 24 -25 19 -30 19
-45 1z"/>
<path d="M3850 475 c-6 -8 -9 -19 -5 -25 8 -13 42 -13 50 0 7 11 -12 40 -25
40 -4 0 -13 -7 -20 -15z"/>
<path d="M3740 410 c-13 -25 2 -52 25 -44 22 9 25 31 5 49 -17 16 -19 15 -30
-5z"/>
<path d="M1200 391 c0 -28 24 -45 40 -26 16 20 6 45 -20 45 -13 0 -20 -7 -20
-19z"/>
<path d="M1321 336 c-10 -12 -10 -19 2 -36 12 -18 16 -18 26 -6 14 17 11 48
-5 53 -6 2 -17 -3 -23 -11z"/>
<path d="M3627 343 c-11 -10 -8 -41 4 -49 6 -3 18 1 27 9 13 13 13 19 2 31
-14 17 -23 20 -33 9z"/>
<path d="M1443 279 c-6 -6 -9 -18 -6 -25 7 -18 37 -18 52 0 10 12 8 17 -8 25
-24 14 -24 14 -38 0z"/>
<path d="M3507 283 c-24 -23 12 -55 38 -33 12 10 13 16 4 26 -12 15 -31 18
-42 7z"/>
<path d="M1563 229 c-16 -16 -5 -39 17 -39 25 0 35 18 20 35 -15 18 -22 19
-37 4z"/>
<path d="M3383 229 c-16 -16 -5 -39 17 -39 25 0 35 18 20 35 -15 18 -22 19
-37 4z"/>
<path d="M1685 180 c-8 -12 3 -50 14 -50 5 0 14 7 21 15 10 12 10 18 0 30 -14
17 -26 19 -35 5z"/>
<path d="M3254 175 c-13 -32 23 -48 47 -19 10 13 10 17 -2 25 -21 13 -39 11
-45 -6z"/>
<path d="M1811 141 c-16 -28 14 -51 36 -28 13 13 14 19 3 31 -17 21 -27 20
-39 -3z"/>
<path d="M3127 137 c-3 -8 -1 -20 3 -27 7 -11 14 -12 35 -2 22 10 25 15 15 27
-15 19 -46 19 -53 2z"/>
<path d="M1942 108 c-13 -13 2 -38 23 -38 21 0 36 25 23 38 -7 7 -17 12 -23
12 -6 0 -16 -5 -23 -12z"/>
<path d="M3000 105 c-6 -8 -9 -19 -5 -25 9 -15 41 -12 54 4 10 12 8 17 -8 25
-25 14 -26 14 -41 -4z"/>
<path d="M2083 93 c-15 -5 -17 -39 -3 -48 11 -7 50 11 50 23 0 12 -34 29 -47
25z"/>
<path d="M2869 84 c-10 -12 -9 -18 3 -31 14 -14 19 -14 37 -1 17 12 19 17 9
25 -27 21 -36 22 -49 7z"/>
<path d="M2212 68 c-16 -16 -15 -33 1 -46 20 -17 44 25 25 44 -11 11 -16 12
-26 2z"/>
<path d="M2340 60 c-13 -25 3 -52 26 -43 18 7 18 37 0 52 -12 10 -17 8 -26 -9z"/>
<path d="M2740 70 c-12 -7 -12 -13 0 -34 10 -20 16 -23 27 -15 29 25 5 69 -27
49z"/>
<path d="M2607 63 c-12 -11 -8 -40 7 -52 12 -10 17 -8 26 9 16 29 -12 65 -33
43z"/>
<path d="M2466 51 c-10 -16 5 -41 25 -41 14 0 19 7 19 25 0 18 -5 25 -19 25
-11 0 -22 -4 -25 -9z"/>
</g>
</svg>
