<?xml version="1.0" standalone="no"?>
<!DOCTYPE svg PUBLIC "-//W3C//DTD SVG 20010904//EN"
 "http://www.w3.org/TR/2001/REC-SVG-20010904/DTD/svg10.dtd">
<svg version="1.0" xmlns="http://www.w3.org/2000/svg"
 width="500.000000pt" height="500.000000pt" viewBox="0 0 500.000000 500.000000"
 preserveAspectRatio="xMidYMid meet">
<metadata>
Created by potrace 1.15, written by Peter Selinger 2001-2017
</metadata>
<g transform="translate(0.000000,500.000000) scale(0.100000,-0.100000)"
fill="#000000" stroke="none">
<path d="M2345 4969 c-4 -12 -2 -26 4 -32 15 -15 44 14 35 36 -9 24 -31 21
-39 -4z"/>
<path d="M2479 4974 c-10 -12 -9 -18 4 -31 13 -13 19 -14 31 -3 21 17 20 27
-3 39 -14 8 -22 7 -32 -5z"/>
<path d="M2617 4973 c-24 -23 12 -55 38 -33 12 10 13 16 4 26 -12 15 -31 18
-42 7z"/>
<path d="M2750 4965 c-15 -18 -6 -45 14 -45 20 0 29 16 21 40 -8 24 -18 25
-35 5z"/>
<path d="M2082 4946 c-8 -19 -8 -27 3 -36 8 -6 19 -9 25 -5 14 9 13 40 -3 54
-11 8 -16 5 -25 -13z"/>
<path d="M2217 4963 c-24 -23 12 -55 38 -33 12 10 13 16 4 26 -12 15 -31 18
-42 7z"/>
<path d="M2874 4939 c-3 -6 0 -18 9 -26 12 -12 19 -13 36 -3 18 9 20 14 10 26
-14 17 -45 19 -55 3z"/>
<path d="M1953 4923 c-7 -2 -13 -13 -13 -24 0 -13 7 -19 24 -19 30 0 42 16 26
35 -13 16 -17 17 -37 8z"/>
<path d="M3010 4915 c-6 -8 -9 -19 -5 -25 9 -15 41 -12 54 4 10 12 8 17 -8 25
-25 14 -26 14 -41 -4z"/>
<path d="M1821 4881 c-16 -29 9 -45 38 -25 21 15 21 17 4 30 -24 18 -30 17
-42 -5z"/>
<path d="M3141 4887 c-14 -17 -4 -47 15 -47 22 0 29 29 12 46 -13 13 -16 13
-27 1z"/>
<path d="M1692 4849 c-15 -24 -8 -39 18 -39 28 0 35 20 14 41 -19 18 -20 18
-32 -2z"/>
<path d="M3269 4844 c-15 -18 0 -38 27 -32 25 5 28 25 6 37 -15 8 -23 7 -33
-5z"/>
<path d="M1564 4795 c-13 -32 23 -48 47 -19 10 13 10 17 -2 25 -21 13 -39 11
-45 -6z"/>
<path d="M3397 4803 c-24 -23 12 -55 38 -33 12 10 13 16 4 26 -12 15 -31 18
-42 7z"/>
<path d="M1440 4744 c-11 -13 -10 -19 7 -36 l21 -20 12 21 c9 17 9 26 -1 37
-15 18 -23 18 -39 -2z"/>
<path d="M3514 4745 c-8 -21 3 -45 20 -45 20 0 32 40 15 51 -20 13 -29 11 -35
-6z"/>
<path d="M1321 4691 c-19 -12 -6 -41 18 -41 23 0 34 23 18 39 -13 13 -18 13
-36 2z"/>
<path d="M3634 4685 c-12 -30 16 -45 46 -25 13 9 12 12 -4 25 -25 19 -35 19
-42 0z"/>
<path d="M1206 4621 c-8 -12 4 -41 16 -41 5 0 19 5 30 11 21 11 21 12 3 25
-22 16 -41 18 -49 5z"/>
<path d="M3751 4616 c-18 -21 11 -41 39 -26 17 9 19 14 9 26 -15 18 -33 18
-48 0z"/>
<path d="M1097 4553 c-24 -23 12 -55 38 -33 12 10 13 16 4 26 -12 15 -31 18
-42 7z"/>
<path d="M3861 4547 c-8 -10 -7 -19 4 -33 15 -19 15 -19 30 0 11 14 12 23 4
33 -6 7 -15 13 -19 13 -4 0 -13 -6 -19 -13z"/>
<path d="M1745 4506 c-103 -48 -145 -209 -70 -273 52 -45 151 -49 185 -8 19
23 9 26 -38 9 -101 -34 -155 37 -122 158 27 95 170 152 170 67 0 -43 27 -38
36 6 3 20 3 39 0 43 -14 13 -131 12 -161 -2z"/>
<path d="M2653 4501 c-112 -51 -140 -236 -43 -286 37 -19 103 -19 140 0 46 24
36 35 -16 19 -87 -26 -129 5 -128 94 1 93 49 159 122 169 34 5 42 2 52 -17 6
-12 9 -28 6 -35 -7 -19 5 -27 21 -14 7 6 13 26 13 44 0 25 -5 34 -22 39 -43
11 -103 6 -145 -13z"/>
<path d="M2925 4514 c-5 -1 -23 -5 -39 -9 -26 -5 -27 -7 -11 -19 17 -13 17
-18 -4 -122 -13 -60 -25 -119 -28 -131 -4 -18 -1 -23 16 -23 13 0 21 6 21 18
0 28 45 115 74 141 40 37 52 17 32 -52 -21 -73 -21 -104 3 -112 21 -6 51 3 51
16 0 5 -7 9 -15 9 -19 0 -19 -1 4 89 11 40 17 79 14 87 -14 38 -75 21 -109
-31 -9 -14 -18 -24 -21 -22 -2 2 4 35 12 72 17 71 17 94 0 89z"/>
<path d="M3581 4509 c-30 -9 -32 -11 -16 -23 17 -12 16 -20 -10 -140 -15 -70
-24 -130 -21 -133 12 -12 35 7 41 36 6 27 31 59 39 50 2 -2 13 -23 25 -46 22
-44 47 -54 80 -34 11 7 9 10 -8 16 -20 6 -71 90 -60 98 100 75 112 93 53 84
-43 -7 -53 -15 -35 -26 9 -6 1 -17 -30 -39 -23 -18 -44 -31 -45 -29 -1 1 6 43
16 92 11 50 19 93 20 98 0 8 -5 8 -49 -4z"/>
<path d="M1393 4503 c-19 -7 -16 -23 3 -23 19 0 17 -33 -12 -158 -13 -60 -21
-75 -40 -82 -42 -16 -26 -30 34 -30 64 0 103 16 65 26 -28 8 -28 3 -1 132 18
88 25 106 45 115 13 5 23 14 23 19 0 8 -96 10 -117 1z"/>
<path d="M984 4469 c-3 -6 1 -18 10 -27 15 -15 17 -15 34 1 15 16 15 19 2 27
-20 13 -37 12 -46 -1z"/>
<path d="M3967 4466 c-9 -23 18 -39 43 -26 17 9 19 14 9 26 -15 18 -45 18 -52
0z"/>
<path d="M1995 4412 c-52 -33 -68 -59 -73 -116 -4 -45 -1 -57 17 -75 23 -23
51 -21 81 4 12 11 19 10 37 -5 25 -20 63 -16 63 6 0 8 -6 11 -15 8 -19 -8 -19
5 2 94 19 83 15 91 -43 98 -28 4 -48 -1 -69 -14z m81 -16 c3 -8 -1 -40 -10
-70 -23 -78 -76 -111 -104 -65 -11 17 -9 28 15 77 20 39 36 58 53 63 38 10 40
10 46 -5z"/>
<path d="M2281 4391 l-37 -40 4 35 c4 36 -1 39 -45 28 -26 -7 -31 -24 -8 -24
18 0 18 0 0 -75 -29 -118 -8 -144 37 -47 40 84 66 122 83 122 19 0 19 -26 -1
-103 -14 -57 -14 -62 1 -73 10 -8 25 -10 38 -5 27 10 35 31 9 24 -19 -5 -19
-4 0 81 16 69 17 90 8 101 -21 25 -51 17 -89 -24z"/>
<path d="M3175 4414 c-74 -37 -103 -151 -49 -193 15 -12 33 -21 40 -21 23 0
94 32 94 42 0 6 -7 7 -17 3 -37 -16 -79 -17 -92 -1 -23 28 -8 48 48 67 68 24
81 35 81 70 0 47 -47 62 -105 33z m63 -30 c4 -26 -40 -64 -75 -64 -21 0 -23 2
-12 23 32 62 81 85 87 41z"/>
<path d="M3393 4415 c-79 -34 -106 -172 -39 -203 24 -11 68 -5 101 15 29 17
14 24 -23 11 -77 -29 -100 65 -36 141 30 36 63 41 71 11 7 -26 27 -21 31 7 2
16 -4 22 -29 27 -40 8 -38 8 -76 -9z"/>
<path d="M884 4385 c-12 -31 23 -48 45 -21 10 12 8 17 -8 25 -26 14 -31 14
-37 -4z"/>
<path d="M4075 4390 c-9 -15 5 -52 18 -47 6 2 15 11 21 20 8 13 7 20 -4 27
-19 12 -27 12 -35 0z"/>
<path d="M4175 4299 c-8 -26 6 -42 28 -33 20 7 22 25 5 42 -17 17 -26 15 -33
-9z"/>
<path d="M787 4303 c-24 -23 12 -55 38 -33 12 10 13 16 4 26 -12 15 -31 18
-42 7z"/>
<path d="M693 4211 c-9 -15 -9 -23 1 -36 15 -21 36 -12 36 14 0 30 -24 43 -37
22z"/>
<path d="M4272 4209 c-15 -24 0 -51 24 -42 18 6 18 37 1 51 -10 8 -16 6 -25
-9z"/>
<path d="M600 4104 c-11 -12 -10 -18 3 -31 15 -15 18 -15 37 2 19 17 19 19 2
31 -22 17 -27 17 -42 -2z"/>
<path d="M4355 4106 c-15 -11 -17 -18 -9 -26 17 -17 49 -8 49 14 0 25 -16 30
-40 12z"/>
<path d="M4442 4009 c-12 -18 -11 -24 2 -37 14 -15 18 -15 31 -1 14 14 14 18
-2 38 l-18 22 -13 -22z"/>
<path d="M3816 4005 c-8 -21 1 -35 20 -35 10 0 14 8 12 22 -4 27 -23 34 -32
13z"/>
<path d="M514 3999 c-3 -6 1 -18 10 -27 15 -15 17 -15 34 1 15 16 15 19 2 27
-20 13 -37 12 -46 -1z"/>
<path d="M1844 3991 c-87 -53 -122 -203 -61 -258 59 -54 123 -58 186 -12 68
49 100 149 71 223 -23 60 -132 86 -196 47z m130 -20 c53 -59 9 -229 -66 -255
-53 -18 -108 26 -108 88 0 43 42 146 67 166 33 26 85 26 107 1z"/>
<path d="M2895 3986 c-95 -58 -122 -199 -51 -265 43 -41 152 -37 188 6 12 15
10 16 -12 9 -115 -36 -160 -11 -160 90 0 91 58 164 130 164 39 0 50 -11 50
-52 0 -11 5 -18 12 -16 15 5 34 65 24 75 -4 4 -37 9 -74 11 -57 2 -73 -1 -107
-22z"/>
<path d="M1045 3990 c-3 -5 3 -10 14 -10 12 0 21 -3 21 -6 0 -32 -65 -223 -81
-236 -28 -24 -24 -28 31 -28 28 0 50 5 50 10 0 6 -9 10 -20 10 -11 0 -20 2
-20 5 0 3 12 49 27 102 31 111 35 108 54 -35 11 -86 14 -93 33 -90 15 2 36 32
79 113 l58 110 -6 -85 c-8 -107 -11 -117 -37 -124 -49 -12 0 -22 90 -17 28 1
29 21 1 21 -19 0 -21 4 -16 38 3 20 9 72 13 115 5 61 11 81 25 90 30 19 22 27
-23 27 l-43 0 -60 -114 c-33 -63 -61 -113 -62 -112 -3 2 -32 201 -33 219 0 11
-88 9 -95 -3z"/>
<path d="M2534 3883 l-36 -38 7 33 c7 34 -2 39 -53 26 -20 -6 -21 -8 -6 -18
15 -11 15 -18 0 -90 -19 -94 -19 -96 -3 -96 7 0 33 39 57 86 24 47 50 88 58
91 22 9 30 -15 20 -56 -5 -20 -12 -55 -15 -79 l-6 -43 33 3 c19 2 36 9 38 17
3 10 0 12 -12 8 -20 -8 -20 1 1 90 13 59 14 75 3 87 -20 25 -46 19 -86 -21z"/>
<path d="M3180 3913 c-70 -26 -113 -135 -74 -191 17 -25 75 -30 119 -10 28 13
35 34 8 23 -10 -4 -32 -9 -50 -12 -25 -4 -33 -1 -43 17 -17 33 -7 46 52 65 29
10 61 24 71 33 48 42 -15 100 -83 75z m48 -39 c3 -24 -23 -50 -60 -59 -36 -9
-36 7 -2 52 28 37 57 40 62 7z"/>
<path d="M3446 3908 c-11 -6 -30 -23 -43 -37 l-23 -26 6 33 c6 30 5 32 -22 32
-39 0 -63 -15 -36 -22 20 -5 20 -7 2 -91 -9 -48 -15 -89 -12 -92 15 -15 31 0
42 40 16 57 65 135 85 135 8 0 15 -4 15 -10 0 -19 17 -10 28 14 16 36 -3 47
-42 24z"/>
<path d="M440 3895 c-11 -13 -11 -19 3 -33 20 -19 41 -5 35 24 -4 24 -22 28
-38 9z"/>
<path d="M1417 3903 c-16 -4 -16 -6 3 -21 14 -12 25 -42 35 -97 19 -103 20
-101 -12 -132 l-26 -27 -9 25 c-9 22 -10 23 -19 6 -24 -42 30 -67 64 -29 24
27 157 254 157 269 0 14 -24 16 -55 3 -20 -8 -20 -8 1 -16 20 -9 20 -10 -15
-69 l-35 -60 -14 65 c-20 99 -19 98 -75 83z"/>
<path d="M2096 3901 c-19 -7 -19 -8 1 -13 16 -4 21 -17 27 -59 13 -107 17
-119 37 -119 13 0 28 17 46 55 15 30 30 55 34 55 3 0 9 -27 13 -60 7 -63 11
-67 37 -47 19 15 109 167 109 184 0 15 -25 16 -55 3 -17 -7 -17 -9 -2 -9 9 -1
17 -5 17 -11 0 -15 -53 -120 -61 -120 -4 0 -11 33 -16 73 -7 62 -11 72 -28 72
-15 0 -21 -9 -25 -35 -7 -40 -22 -71 -43 -89 -13 -10 -16 -1 -22 59 -7 75 -16
82 -69 61z"/>
<path d="M3518 3904 c-4 -3 2 -14 11 -23 10 -10 21 -42 25 -72 17 -133 36
-133 112 1 51 88 53 95 34 98 -12 2 -29 1 -38 -3 -16 -6 -16 -7 0 -16 16 -9
14 -15 -15 -69 -18 -33 -35 -60 -39 -60 -3 0 -12 34 -19 75 -11 72 -13 75 -39
75 -15 0 -29 -3 -32 -6z"/>
<path d="M3766 3901 c-19 -7 -19 -8 1 -13 21 -5 21 -7 5 -69 -25 -103 -23
-114 17 -114 19 0 36 6 39 13 2 6 -3 12 -12 12 -20 0 -20 9 4 100 11 41 20 76
20 78 0 5 -56 0 -74 -7z"/>
<path d="M3915 3899 c-4 -6 2 -21 14 -33 34 -36 27 -67 -24 -109 -25 -21 -45
-42 -45 -47 0 -13 67 -13 75 -1 3 6 -2 14 -11 19 -14 8 -12 12 15 31 l30 22
15 -36 c18 -43 38 -52 74 -34 l27 13 -26 4 c-26 3 -49 36 -49 70 0 9 18 33 40
53 22 20 40 42 40 48 0 12 -29 15 -55 5 -13 -5 -14 -9 -4 -15 10 -6 8 -14 -11
-34 l-25 -26 -17 40 c-17 41 -48 55 -63 30z"/>
<path d="M4515 3890 c-7 -11 12 -50 25 -50 12 0 23 37 15 50 -8 13 -32 13 -40
0z"/>
<path d="M365 3780 c-7 -23 1 -40 20 -40 8 0 17 5 20 10 9 15 -4 50 -20 50 -8
0 -16 -9 -20 -20z"/>
<path d="M4591 3781 c-8 -14 -7 -22 4 -31 22 -19 48 5 34 31 -5 10 -14 19 -19
19 -5 0 -14 -9 -19 -19z"/>
<path d="M302 3669 c-15 -24 -8 -39 19 -39 22 0 26 32 6 48 -10 8 -16 6 -25
-9z"/>
<path d="M4660 3665 c-15 -18 -5 -35 20 -35 10 0 22 5 25 10 7 11 -12 40 -25
40 -4 0 -13 -7 -20 -15z"/>
<path d="M244 3545 c-18 -13 -18 -15 -3 -30 14 -14 20 -15 38 -3 26 16 26 20
2 35 -15 9 -23 9 -37 -2z"/>
<path d="M4720 3545 c-19 -22 5 -48 31 -34 10 5 19 14 19 19 0 5 -9 14 -19 19
-14 8 -22 7 -31 -4z"/>
<path d="M2301 3464 c18 -20 158 -145 309 -278 518 -455 525 -462 612 -633 77
-150 111 -259 129 -413 13 -110 4 -169 -32 -222 l-29 -43 23 -17 c53 -42 53
-40 1 -63 -52 -24 -99 -66 -92 -85 2 -7 21 2 47 21 68 48 97 54 129 22 25 -25
25 -26 7 -39 -10 -8 -26 -14 -35 -14 -25 0 -100 -58 -100 -76 0 -15 2 -15 23
0 41 29 96 56 117 56 11 0 52 -29 90 -65 39 -35 98 -81 130 -101 33 -20 60
-43 60 -51 0 -7 -15 -29 -32 -49 -28 -29 -43 -37 -99 -46 -59 -10 -70 -10 -93
6 -15 9 -34 34 -44 54 -21 46 -21 47 -28 40 -9 -10 44 -105 68 -122 44 -31
165 -11 215 36 29 27 37 19 29 -26 -12 -66 -114 -139 -209 -152 -52 -7 -132
21 -199 71 -85 62 -176 209 -243 390 -63 169 -62 169 -161 178 -63 7 -207 53
-285 92 -89 46 -164 138 -214 264 -52 134 -75 234 -101 446 -8 68 -56 136
-176 249 -102 95 -291 246 -310 246 -23 0 1 -26 74 -82 118 -89 297 -266 337
-333 33 -54 34 -61 42 -198 9 -168 28 -239 94 -347 42 -71 75 -153 75 -190 0
-15 -8 -13 -56 10 -45 21 -60 35 -78 71 -30 59 -77 79 -129 54 -50 -24 -99
-73 -153 -158 -117 -180 -113 -224 43 -402 24 -27 57 -74 74 -103 l30 -53 -63
-28 c-387 -176 -426 -198 -465 -265 -17 -29 -16 -87 2 -113 16 -23 83 -43 142
-43 99 0 344 78 667 212 265 110 326 129 351 108 31 -26 11 -79 -80 -210 -55
-78 -108 -177 -118 -220 -3 -14 -27 -49 -52 -79 -54 -63 -235 -321 -260 -370
-40 -79 -18 -174 47 -202 59 -25 177 16 261 91 82 73 323 345 411 463 137 185
250 350 270 394 10 23 24 44 31 46 6 3 38 -4 71 -15 110 -37 265 -3 329 74 64
76 87 168 53 219 -9 14 -49 45 -89 69 -116 69 -169 129 -212 236 -46 116 -64
212 -76 399 -6 112 -15 168 -32 220 -29 86 -135 264 -209 353 -71 85 -285 283
-475 442 -83 68 -199 166 -259 217 -109 94 -173 128 -105 57z m-81 -1392 c15
-12 24 -33 27 -64 5 -42 1 -55 -40 -125 -65 -111 -85 -160 -100 -248 l-13 -77
-42 61 c-76 107 -90 176 -53 256 27 58 166 215 190 215 5 0 19 -8 31 -18z
m177 -145 c44 -40 54 -169 18 -253 -8 -19 -35 -55 -62 -81 -57 -56 -45 -66 39
-29 52 23 68 24 68 4 0 -10 -234 -128 -254 -128 -25 0 -66 59 -66 95 0 37 69
243 105 315 29 58 88 112 112 103 10 -3 28 -15 40 -26z m196 -91 c92 -64 293
-168 319 -164 17 2 -10 22 -110 82 -72 43 -132 82 -132 87 0 13 6 12 58 -15
65 -33 110 -46 182 -54 l62 -7 30 -80 c45 -125 123 -277 178 -351 37 -47 50
-73 46 -88 -13 -52 -309 -521 -404 -641 -69 -86 -263 -287 -316 -326 -59 -44
-147 -33 -176 20 -28 54 7 158 79 230 21 21 55 67 74 102 20 35 56 88 81 117
25 29 67 92 94 140 27 48 86 148 131 222 81 135 91 163 70 202 -6 11 -9 21 -7
23 2 2 61 -10 132 -26 71 -16 131 -27 133 -25 15 15 -142 65 -267 86 -36 6
-78 13 -94 16 -18 4 -26 2 -22 -4 3 -5 22 -13 41 -16 43 -8 38 -21 -11 -31
-20 -3 -91 -29 -157 -57 -253 -104 -337 -137 -515 -197 -278 -94 -358 -104
-423 -52 -31 25 -30 78 1 103 48 39 107 68 170 84 36 9 79 27 97 40 49 37 150
82 212 95 38 8 68 22 91 43 34 30 58 42 207 106 59 25 76 28 99 20 14 -6 45
-15 68 -20 l41 -9 -26 22 c-14 12 -56 43 -92 69 -71 50 -74 58 -56 121 l10 39
98 -95 c113 -110 150 -131 273 -158 87 -19 150 -22 103 -5 -196 71 -233 92
-365 207 -90 77 -111 99 -95 99 4 0 55 -34 114 -76 100 -73 207 -132 217 -121
3 2 -39 35 -93 73 -131 93 -254 214 -217 214 3 0 33 -20 67 -44z"/>
<path d="M2188 2003 c-18 -43 -49 -73 -74 -73 -39 0 -56 -10 -43 -26 27 -33
94 -11 112 36 3 8 12 32 21 53 10 22 12 37 6 37 -6 0 -16 -12 -22 -27z"/>
<path d="M2320 1863 c0 -65 -3 -83 -18 -96 -10 -10 -25 -17 -33 -17 -24 0 -40
-16 -33 -33 10 -26 40 -20 79 14 34 31 35 32 35 109 0 57 -4 81 -15 90 -13 11
-15 2 -15 -67z"/>
<path d="M190 3425 c-10 -12 -10 -18 0 -29 16 -20 42 -8 38 17 -4 26 -21 32
-38 12z"/>
<path d="M4770 3425 c-11 -13 -11 -19 3 -33 20 -19 41 -5 35 24 -4 24 -22 28
-38 9z"/>
<path d="M4821 3306 c-16 -19 -7 -46 14 -46 22 0 30 29 13 46 -13 13 -16 13
-27 0z"/>
<path d="M142 3298 c-8 -8 -9 -15 -1 -25 15 -17 34 -17 48 1 10 12 8 17 -8 25
-24 14 -24 14 -39 -1z"/>
<path d="M101 3167 c-8 -10 -7 -19 4 -33 13 -18 15 -18 31 -2 18 18 13 48 -9
48 -8 0 -20 -6 -26 -13z"/>
<path d="M4857 3173 c-24 -23 12 -55 38 -33 12 10 13 16 4 26 -12 15 -31 18
-42 7z"/>
<path d="M77 3053 c-11 -10 -8 -41 3 -48 19 -12 41 15 29 36 -10 20 -21 24
-32 12z"/>
<path d="M4886 3034 c-4 -10 0 -24 9 -33 14 -14 17 -14 25 -1 6 8 9 22 7 30
-3 21 -33 24 -41 4z"/>
<path d="M47 2913 c-24 -23 12 -55 38 -33 12 10 13 16 4 26 -12 15 -31 18 -42
7z"/>
<path d="M4910 2904 c-11 -12 -10 -18 3 -32 16 -15 18 -15 34 0 13 14 14 20 3
32 -7 9 -16 16 -20 16 -4 0 -13 -7 -20 -16z"/>
<path d="M4932 2783 c-18 -35 12 -60 37 -30 8 11 6 18 -8 31 -18 17 -20 17
-29 -1z"/>
<path d="M30 2775 c-9 -11 -9 -19 3 -36 l15 -21 12 22 c20 38 -4 67 -30 35z"/>
<path d="M20 2650 c-13 -25 3 -52 26 -43 18 7 18 37 0 52 -12 10 -17 8 -26 -9z"/>
<path d="M4937 2636 c-3 -8 0 -20 8 -26 19 -16 59 8 43 27 -14 17 -45 17 -51
-1z"/>
<path d="M4941 2512 c-7 -13 -6 -23 1 -30 28 -28 63 3 38 33 -16 20 -27 19
-39 -3z"/>
<path d="M13 2513 c-20 -8 -15 -31 8 -38 25 -8 44 7 36 29 -6 16 -21 19 -44 9z"/>
<path d="M20 2375 c-23 -28 21 -50 48 -23 9 9 7 14 -6 24 -22 17 -27 17 -42
-1z"/>
<path d="M4940 2375 c-10 -13 -10 -19 5 -35 18 -20 18 -20 32 0 12 17 12 24 3
35 -16 19 -24 19 -40 0z"/>
<path d="M4937 2252 c-15 -16 -15 -21 -3 -38 13 -17 16 -17 30 -4 12 12 13 19
2 38 -12 22 -13 22 -29 4z"/>
<path d="M24 2239 c-3 -6 0 -17 8 -25 12 -12 17 -12 32 -1 11 8 16 19 12 25
-9 15 -43 15 -52 1z"/>
<path d="M44 2109 c-3 -6 1 -18 10 -27 15 -15 17 -15 34 1 15 16 15 19 2 27
-20 13 -37 12 -46 -1z"/>
<path d="M4907 2106 c-3 -8 1 -22 8 -33 13 -17 15 -17 31 -1 14 14 15 20 4 32
-16 20 -36 20 -43 2z"/>
<path d="M72 1978 c-8 -8 -9 -15 -1 -25 15 -17 34 -17 48 1 10 12 8 17 -8 25
-24 14 -24 14 -39 -1z"/>
<path d="M4882 1978 c-13 -13 2 -38 24 -38 20 0 27 19 14 35 -15 18 -22 19
-38 3z"/>
<path d="M102 1847 c-7 -8 -6 -18 4 -32 13 -18 15 -18 30 -3 19 18 12 48 -9
48 -8 0 -19 -6 -25 -13z"/>
<path d="M4857 1853 c-24 -23 12 -55 38 -33 12 10 13 16 4 26 -12 15 -31 18
-42 7z"/>
<path d="M140 1724 c-11 -12 -10 -18 3 -32 16 -15 18 -15 34 0 13 14 14 20 3
32 -7 9 -16 16 -20 16 -4 0 -13 -7 -20 -16z"/>
<path d="M4814 1715 c-13 -32 23 -48 47 -19 10 13 10 17 -2 25 -21 13 -39 11
-45 -6z"/>
<path d="M190 1595 c-15 -18 -5 -35 20 -35 10 0 22 5 25 10 7 11 -12 40 -25
40 -4 0 -13 -7 -20 -15z"/>
<path d="M4769 1594 c-10 -13 -10 -17 2 -25 19 -12 33 -11 47 3 9 9 7 14 -6
24 -22 17 -27 17 -43 -2z"/>
<path d="M3473 1543 c-13 -8 -23 -20 -23 -25 0 -10 23 1 55 26 28 21 -2 21
-32 -1z"/>
<path d="M240 1474 c-11 -12 -10 -18 3 -32 16 -15 18 -15 34 0 13 14 14 20 3
32 -7 9 -16 16 -20 16 -4 0 -13 -7 -20 -16z"/>
<path d="M4720 1474 c-11 -12 -10 -18 3 -32 16 -15 18 -15 34 0 13 14 14 20 3
32 -7 9 -16 16 -20 16 -4 0 -13 -7 -20 -16z"/>
<path d="M302 1360 c-15 -24 -8 -40 18 -40 23 0 31 21 15 43 -16 22 -17 21
-33 -3z"/>
<path d="M4661 1356 c-18 -22 4 -62 25 -45 18 15 18 33 0 48 -10 9 -16 8 -25
-3z"/>
<path d="M364 1235 c-12 -29 15 -45 45 -26 12 8 12 12 2 25 -17 20 -40 21 -47
1z"/>
<path d="M4593 1239 c-6 -6 -9 -18 -6 -25 7 -18 37 -18 52 0 10 12 8 17 -8 25
-24 14 -24 14 -38 0z"/>
<path d="M4520 1130 c-12 -23 -6 -40 15 -40 19 0 27 17 20 40 -8 26 -21 25
-35 0z"/>
<path d="M440 1125 c-19 -22 5 -48 31 -34 10 5 19 14 19 19 0 5 -9 14 -19 19
-14 8 -22 7 -31 -4z"/>
<path d="M515 1020 c-9 -15 4 -50 20 -50 16 0 29 35 20 50 -3 5 -12 10 -20 10
-8 0 -17 -5 -20 -10z"/>
<path d="M4442 1018 c-13 -13 2 -38 23 -38 21 0 36 25 23 38 -7 7 -17 12 -23
12 -6 0 -16 -5 -23 -12z"/>
<path d="M595 910 c-6 -9 15 -50 25 -50 10 0 31 41 25 50 -4 6 -15 10 -25 10
-10 0 -21 -4 -25 -10z"/>
<path d="M4356 911 c-10 -16 5 -42 23 -39 21 4 21 42 -1 46 -9 2 -19 -1 -22
-7z"/>
<path d="M692 819 c-12 -18 -12 -24 0 -35 20 -20 42 -2 34 30 -8 32 -17 33
-34 5z"/>
<path d="M4270 820 c-14 -26 0 -46 24 -37 20 8 21 31 2 46 -12 10 -17 8 -26
-9z"/>
<path d="M4179 726 c-11 -23 -10 -29 2 -37 20 -12 26 -11 33 7 3 9 -1 25 -9
36 -14 21 -14 21 -26 -6z"/>
<path d="M787 723 c-24 -23 12 -55 38 -33 12 10 13 16 4 26 -12 15 -31 18 -42
7z"/>
<path d="M892 648 c-15 -15 -15 -45 -1 -54 6 -3 18 0 26 9 14 13 14 18 1 36
-11 16 -17 18 -26 9z"/>
<path d="M4076 631 c-9 -14 4 -41 19 -41 21 0 36 25 23 38 -14 14 -35 16 -42
3z"/>
<path d="M3971 551 c-8 -14 -7 -22 5 -32 20 -16 38 2 29 30 -8 26 -21 27 -34
2z"/>
<path d="M990 545 c-15 -18 -5 -35 20 -35 10 0 22 5 25 10 7 11 -12 40 -25 40
-4 0 -13 -7 -20 -15z"/>
<path d="M1101 476 c-16 -19 -7 -46 14 -46 22 0 30 29 13 46 -13 13 -16 13
-27 0z"/>
<path d="M3862 468 c-13 -13 2 -38 23 -38 21 0 36 25 23 38 -7 7 -17 12 -23
12 -6 0 -16 -5 -23 -12z"/>
<path d="M3752 403 c-18 -35 12 -60 37 -30 8 11 6 18 -8 31 -18 17 -20 17 -29
-1z"/>
<path d="M1211 401 c-18 -12 -7 -41 17 -41 30 0 44 21 24 36 -20 16 -23 16
-41 5z"/>
<path d="M1327 333 c-24 -23 12 -55 38 -33 12 10 13 16 4 26 -12 15 -31 18
-42 7z"/>
<path d="M3635 330 c-8 -12 3 -50 14 -50 15 0 33 30 27 45 -6 17 -32 20 -41 5z"/>
<path d="M1447 275 c-14 -13 -14 -20 -4 -36 13 -22 26 -21 41 4 8 12 7 21 -5
33 -15 14 -18 14 -32 -1z"/>
<path d="M3523 283 c-18 -6 -16 -42 2 -49 16 -6 45 12 45 27 0 12 -33 27 -47
22z"/>
<path d="M3391 221 c-8 -14 -7 -22 4 -31 22 -19 48 5 34 31 -5 10 -14 19 -19
19 -5 0 -14 -9 -19 -19z"/>
<path d="M1564 215 c-13 -32 23 -48 47 -19 10 13 10 17 -2 25 -21 13 -39 11
-45 -6z"/>
<path d="M3270 175 c-9 -11 -11 -22 -4 -32 13 -21 25 -21 38 -1 8 14 7 21 -5
33 -14 15 -17 15 -29 0z"/>
<path d="M1685 170 c-7 -11 12 -50 25 -50 12 0 23 37 15 50 -8 13 -32 13 -40
0z"/>
<path d="M1822 139 c-15 -24 0 -51 24 -42 18 6 18 37 1 51 -10 8 -16 6 -25 -9z"/>
<path d="M3142 139 c-17 -27 2 -56 24 -38 18 14 18 33 1 47 -10 8 -16 6 -25
-9z"/>
<path d="M1944 99 c-3 -6 1 -18 10 -27 15 -15 17 -15 32 0 19 19 11 38 -16 38
-10 0 -22 -5 -26 -11z"/>
<path d="M3004 99 c-3 -6 1 -18 10 -27 15 -15 17 -15 32 0 19 19 11 38 -16 38
-10 0 -22 -5 -26 -11z"/>
<path d="M2080 75 c-6 -8 -9 -19 -5 -25 9 -15 41 -12 54 4 10 12 8 17 -8 25
-25 14 -26 14 -41 -4z"/>
<path d="M2874 76 c-3 -8 0 -24 6 -36 9 -17 14 -19 26 -9 19 15 18 45 -2 53
-22 8 -24 8 -30 -8z"/>
<path d="M2217 73 c-11 -10 -8 -41 3 -48 19 -12 41 15 29 36 -10 20 -21 24
-32 12z"/>
<path d="M2611 52 c-7 -13 -6 -23 1 -30 27 -27 54 -3 36 31 -11 22 -25 22 -37
-1z"/>
<path d="M2747 63 c-24 -23 12 -55 38 -33 12 10 13 16 4 26 -12 15 -31 18 -42
7z"/>
<path d="M2344 45 c-12 -29 15 -45 45 -26 12 8 12 12 2 25 -17 20 -40 21 -47
1z"/>
<path d="M2470 41 c0 -37 32 -55 44 -25 10 27 7 34 -19 34 -14 0 -25 -4 -25
-9z"/>
</g>
</svg>
