<?xml version="1.0" standalone="no"?>
<!DOCTYPE svg PUBLIC "-//W3C//DTD SVG 20010904//EN"
 "http://www.w3.org/TR/2001/REC-SVG-20010904/DTD/svg10.dtd">
<svg version="1.0" xmlns="http://www.w3.org/2000/svg"
 width="500.000000pt" height="500.000000pt" viewBox="0 0 500.000000 500.000000"
 preserveAspectRatio="xMidYMid meet">
<metadata>
Created by potrace 1.15, written by Peter Selinger 2001-2017
</metadata>
<g transform="translate(0.000000,500.000000) scale(0.100000,-0.100000)"
fill="#000000" stroke="none">
<path d="M2350 4975 c-23 -28 15 -47 50 -25 13 8 12 11 -5 24 -25 19 -30 19
-45 1z"/>
<path d="M2487 4983 c-11 -10 -8 -41 4 -49 16 -9 41 20 33 39 -6 17 -25 22
-37 10z"/>
<path d="M2621 4976 c-10 -12 -10 -19 2 -36 12 -18 16 -18 26 -6 14 17 11 48
-5 53 -6 2 -17 -3 -23 -11z"/>
<path d="M2219 4964 c-15 -18 0 -38 27 -32 25 5 28 25 6 37 -15 8 -23 7 -33
-5z"/>
<path d="M2754 4965 c-12 -29 15 -45 46 -25 13 8 12 11 -5 24 -25 19 -34 20
-41 1z"/>
<path d="M2084 4945 c-12 -29 15 -45 45 -26 12 8 12 12 2 25 -17 20 -40 21
-47 1z"/>
<path d="M2886 4944 c-12 -31 21 -47 43 -21 8 10 7 17 -1 25 -17 17 -35 15
-42 -4z"/>
<path d="M3019 4927 c-11 -24 -10 -30 1 -37 16 -10 40 -2 40 14 0 7 -6 21 -14
31 -14 19 -15 19 -27 -8z"/>
<path d="M1952 4918 c-7 -10 -6 -19 4 -33 15 -20 15 -20 30 0 8 10 13 24 11
30 -5 15 -33 17 -45 3z"/>
<path d="M1827 4893 c-24 -23 12 -55 38 -33 12 10 13 16 4 26 -12 15 -31 18
-42 7z"/>
<path d="M3144 4885 c-12 -29 15 -45 45 -26 12 8 12 12 2 25 -17 20 -40 21
-47 1z"/>
<path d="M1693 4844 c-3 -8 1 -22 9 -30 13 -13 16 -13 27 0 7 9 11 23 7 31 -7
20 -35 19 -43 -1z"/>
<path d="M3277 4853 c-24 -23 12 -55 38 -33 12 10 13 16 4 26 -12 15 -31 18
-42 7z"/>
<path d="M1569 4804 c-9 -11 -8 -18 6 -34 14 -16 20 -17 27 -8 21 34 -8 72
-33 42z"/>
<path d="M3401 4806 c-10 -11 -9 -19 1 -35 16 -27 25 -26 33 0 4 13 2 27 -7
36 -13 12 -16 12 -27 -1z"/>
<path d="M3520 4754 c-11 -12 -10 -18 3 -32 16 -15 18 -15 34 0 13 14 14 20 3
32 -7 9 -16 16 -20 16 -4 0 -13 -7 -20 -16z"/>
<path d="M1444 4745 c-4 -8 -1 -22 6 -30 11 -14 15 -14 31 1 14 13 16 20 8 31
-15 17 -38 17 -45 -2z"/>
<path d="M1326 4691 c-8 -13 4 -41 18 -41 6 0 19 7 29 15 18 13 18 14 -2 24
-24 13 -38 14 -45 2z"/>
<path d="M3643 4684 c-9 -24 11 -38 37 -24 17 9 19 14 9 26 -15 19 -38 18 -46
-2z"/>
<path d="M3760 4630 c-14 -26 0 -46 24 -37 20 8 21 31 2 46 -12 10 -17 8 -26
-9z"/>
<path d="M1213 4629 c-15 -15 -5 -39 16 -39 29 0 43 21 23 36 -21 17 -25 17
-39 3z"/>
<path d="M1688 4567 c-25 -61 3 -261 57 -416 19 -53 39 -118 44 -144 11 -60 0
-67 -96 -67 -79 0 -98 9 -88 39 3 11 2 21 -3 21 -23 0 -22 -38 4 -185 12 -67
-93 -97 -163 -47 -18 13 -33 19 -33 13 0 -6 25 -29 55 -51 47 -34 55 -45 49
-63 -8 -27 -33 -57 -48 -57 -6 0 -28 -11 -48 -25 -28 -19 -41 -37 -52 -74 -22
-74 -52 -127 -88 -153 -28 -19 -45 -23 -108 -22 -66 0 -89 6 -190 48 -221 91
-284 63 -333 -149 -24 -104 -33 -334 -18 -445 15 -117 44 -170 143 -266 81
-78 173 -147 387 -290 58 -38 155 -117 217 -176 62 -58 132 -118 156 -131 59
-35 139 -43 217 -23 35 9 64 16 67 16 2 0 1 -13 -2 -29 -6 -30 -6 -30 47 -33
l54 -3 -39 -20 c-54 -27 -58 -45 -11 -45 35 0 37 -1 31 -26 -7 -26 -6 -26 31
-20 21 3 91 10 156 16 l118 11 49 -31 c56 -36 91 -78 122 -147 17 -39 21 -68
22 -148 0 -130 -14 -161 -109 -232 -38 -29 -100 -85 -137 -125 l-68 -72 -55
62 c-75 82 -173 160 -362 286 -258 172 -572 448 -686 603 -87 119 -95 129
-101 122 -16 -15 154 -227 319 -398 119 -123 207 -195 370 -304 200 -134 450
-324 478 -364 15 -21 30 -56 35 -78 l9 -40 7 41 c4 22 15 54 26 71 22 36 124
121 280 232 63 45 151 108 195 139 102 73 226 196 250 247 10 22 24 89 31 148
19 168 64 240 222 360 36 27 77 70 98 102 47 75 58 74 54 -4 -3 -50 -13 -73
-90 -191 -68 -104 -81 -128 -60 -115 18 11 168 242 181 279 7 19 19 38 26 40
16 6 53 -28 53 -48 0 -7 16 -26 35 -40 25 -20 35 -35 35 -55 0 -16 9 -40 20
-54 13 -16 24 -52 30 -99 8 -69 7 -76 -22 -148 -56 -134 -66 -147 -352 -455
-82 -88 -215 -241 -296 -341 -81 -99 -196 -233 -256 -299 -199 -216 -205 -229
-44 -96 139 115 244 230 366 401 89 125 268 332 446 514 46 47 49 48 90 42
174 -28 434 -160 612 -311 36 -31 66 -51 66 -46 0 43 -235 215 -403 295 -93
45 -242 96 -278 96 -19 0 -27 15 -10 22 18 7 113 213 114 248 1 53 -22 169
-42 215 -10 22 -32 54 -48 70 -17 17 -38 45 -47 63 -11 21 -31 39 -53 48 -43
19 -107 59 -151 96 -47 40 -132 81 -242 116 -217 69 -299 69 -495 -2 -71 -26
-181 -72 -244 -102 -62 -30 -115 -54 -116 -54 -2 0 -29 46 -60 103 -72 129
-139 224 -165 232 -10 3 -31 0 -46 -8 -23 -12 -35 -12 -87 1 -86 22 -186 5
-292 -48 -67 -33 -91 -40 -149 -42 l-68 -3 32 -33 c17 -19 30 -36 27 -38 -3
-3 -30 11 -61 31 -65 41 -73 29 -18 -28 37 -39 37 -40 10 -33 -43 10 -33 -6
19 -34 47 -25 48 -26 45 -70 -2 -25 4 -73 12 -108 8 -34 11 -62 8 -62 -17 0
-427 298 -494 359 -134 122 -171 313 -119 610 25 141 39 174 84 201 45 28 93
25 244 -15 141 -37 190 -42 244 -23 60 20 87 47 122 121 33 69 59 99 146 165
19 14 33 36 37 58 4 22 17 42 36 56 40 28 60 77 52 128 -10 59 5 70 87 70 59
0 70 3 83 22 24 34 19 78 -20 185 -70 191 -76 214 -82 338 -4 69 -10 112 -14
102z m59 -1947 c55 -19 72 -16 73 13 0 13 27 7 51 -12 13 -10 33 -42 43 -71
11 -29 33 -65 52 -82 70 -64 82 -178 34 -326 -26 -83 -48 -105 -173 -172 -100
-54 -190 -65 -262 -30 -25 12 -55 35 -67 50 -11 16 -26 26 -32 24 -20 -8 -115
101 -144 163 -22 48 -26 72 -27 143 0 73 4 93 28 142 36 73 71 108 133 132
129 49 206 56 291 26z m1079 -134 c127 -31 221 -66 294 -111 85 -51 86 -55 54
-112 -52 -91 -70 -104 -231 -166 -157 -61 -213 -99 -262 -176 -43 -69 -56
-135 -36 -190 12 -36 13 -46 3 -53 -21 -13 -109 -9 -172 7 -86 23 -150 65 -98
65 56 0 119 35 185 102 85 88 86 104 17 206 -29 44 -44 74 -37 76 29 8 229 76
297 101 60 22 98 29 189 33 87 3 109 7 95 15 -27 16 -159 12 -237 -7 -38 -9
-116 -34 -174 -56 -57 -21 -130 -44 -161 -50 -67 -12 -189 -13 -196 -1 -3 4
45 23 107 41 204 61 180 69 -41 14 -143 -35 -192 -39 -199 -18 -5 15 67 45
202 84 112 33 153 49 126 50 -20 0 -122 -27 -250 -66 -95 -30 -118 -34 -139
-24 -14 6 -21 15 -16 19 8 8 112 47 249 93 33 11 64 24 69 29 12 11 -104 -21
-201 -55 -116 -41 -186 -45 -140 -8 9 8 348 147 427 175 40 15 181 6 276 -17z
m-722 -224 c25 -48 166 -102 333 -127 35 -6 52 -17 102 -71 34 -35 63 -75 67
-89 8 -31 -21 -79 -80 -133 -67 -62 -104 -69 -246 -49 -105 15 -127 15 -208 2
-49 -8 -97 -17 -106 -21 -23 -9 -20 5 7 26 33 27 14 35 -42 16 -58 -19 -61
-19 -61 -6 0 6 6 10 13 10 6 0 27 9 46 21 43 26 28 39 -46 39 -68 0 -68 16 0
24 79 10 91 23 29 32 -28 3 -50 10 -47 14 3 4 38 11 78 14 93 9 110 19 71 40
l-29 15 30 0 c72 1 148 -59 161 -129 9 -42 19 -28 15 20 -2 37 10 53 24 30 3
-5 19 -7 34 -4 17 4 65 -4 119 -20 112 -32 142 -33 83 -2 l-45 23 30 17 29 16
-50 -7 c-127 -20 -215 2 -302 73 -29 24 -43 31 -43 20 0 -11 -8 -13 -37 -9
-21 3 -39 7 -40 7 -2 2 52 174 72 234 6 18 22 7 39 -26z m844 -224 c-55 -68
-76 -118 -102 -248 -13 -67 -26 -124 -29 -127 -10 -9 -71 6 -105 27 -59 36
-74 108 -37 181 23 44 105 128 154 157 47 27 143 64 150 57 2 -3 -12 -24 -31
-47z m-978 -38 c11 -7 6 -10 -20 -10 -26 0 -31 3 -20 10 8 5 17 10 20 10 3 0
12 -5 20 -10z m484 -367 c-43 -18 -52 -16 -69 17 -8 16 -15 31 -15 33 0 3 26
-5 57 -16 l57 -21 -30 -13z m339 -24 c-31 -54 -166 -174 -278 -248 -60 -39
-110 -69 -113 -66 -2 2 1 48 8 101 6 53 9 117 5 140 -6 39 -4 45 17 54 17 7
243 38 366 49 10 1 8 -7 -5 -30z"/>
<path d="M1830 2615 c0 -14 32 -66 37 -61 8 7 -17 66 -28 66 -5 0 -9 -2 -9 -5z"/>
<path d="M1656 2499 c-74 -79 -78 -133 -6 -73 30 26 50 57 70 109 15 40 -4 29
-64 -36z"/>
<path d="M1536 2464 c-21 -25 -36 -47 -34 -50 3 -2 24 18 47 46 23 27 38 50
34 50 -5 0 -26 -21 -47 -46z"/>
<path d="M1701 2445 c-18 -25 -29 -45 -24 -45 10 0 67 80 61 86 -3 2 -19 -16
-37 -41z"/>
<path d="M1670 2340 c-9 -6 -6 -11 11 -20 l23 -13 -22 -8 c-24 -9 -29 -24 -11
-34 15 -10 49 25 49 50 0 24 -29 38 -50 25z"/>
<path d="M1763 2206 c-46 -93 -41 -116 8 -38 32 51 43 81 37 107 -2 9 -22 -21
-45 -69z"/>
<path d="M1483 2228 c-43 -46 -66 -132 -44 -167 7 -11 12 -7 24 15 24 48 49
132 45 155 -3 21 -3 21 -25 -3z"/>
<path d="M1635 2228 c8 -22 7 -23 -13 -5 -21 20 -36 10 -26 -17 6 -16 50 -33
60 -23 3 2 6 17 7 33 1 20 -3 29 -16 32 -16 3 -18 0 -12 -20z"/>
<path d="M1400 2211 c-6 -17 -10 -36 -8 -43 3 -7 10 4 17 25 16 46 9 60 -9 18z"/>
<path d="M1832 2200 c-5 -14 -13 -36 -17 -50 -8 -25 -7 -25 13 -7 24 22 33 50
21 68 -6 10 -10 7 -17 -11z"/>
<path d="M1524 2146 c-3 -21 -4 -39 -1 -42 3 -4 9 10 13 30 3 21 4 39 1 42 -3
4 -9 -10 -13 -30z"/>
<path d="M1094 4549 c-3 -6 1 -18 10 -27 15 -15 17 -15 32 0 19 19 11 38 -16
38 -10 0 -22 -5 -26 -11z"/>
<path d="M3865 4550 c-6 -9 15 -50 25 -50 10 0 31 41 25 50 -4 6 -15 10 -25
10 -10 0 -21 -4 -25 -10z"/>
<path d="M3980 4480 c-13 -25 -6 -40 21 -40 23 0 26 32 5 49 -12 10 -17 8 -26
-9z"/>
<path d="M991 4472 c-6 -11 -6 -24 1 -35 9 -17 11 -17 28 -2 10 9 16 23 14 30
-9 22 -33 26 -43 7z"/>
<path d="M2514 4466 c-48 -22 -74 -55 -74 -96 0 -51 23 -78 95 -110 76 -34 97
-60 83 -101 -12 -35 -54 -59 -103 -59 -57 0 -75 14 -75 60 0 28 -4 40 -14 40
-19 0 -22 -6 -30 -61 l-7 -46 45 -12 c141 -35 246 19 246 127 0 48 -14 61
-102 101 -75 33 -95 58 -77 94 19 35 41 46 90 47 52 0 69 -13 69 -52 0 -21 5
-28 19 -28 14 0 20 10 24 43 3 23 2 46 -3 51 -16 16 -152 18 -186 2z"/>
<path d="M2816 4471 c-35 -7 -47 -31 -17 -31 17 0 20 -5 16 -22 -13 -54 -65
-311 -65 -319 0 -5 11 -9 24 -9 19 0 26 7 31 33 8 37 31 77 45 77 5 0 23 -27
40 -60 32 -63 54 -74 101 -50 26 14 24 30 -3 27 -18 -2 -29 10 -56 60 l-33 62
50 36 c43 31 61 52 61 72 0 8 -74 -7 -85 -18 -5 -6 -3 -9 8 -9 9 0 17 -3 16
-7 0 -11 -119 -94 -119 -84 0 4 11 58 25 119 14 61 25 116 25 121 0 12 -18 12
-64 2z"/>
<path d="M3166 4462 c-15 -18 -15 -20 2 -35 18 -16 20 -16 36 2 16 17 16 20 1
35 -20 20 -18 20 -39 -2z"/>
<path d="M884 4385 c-9 -23 15 -48 32 -34 19 15 18 35 -2 43 -22 8 -24 8 -30
-9z"/>
<path d="M4083 4384 c-9 -24 11 -38 37 -24 17 9 19 14 9 26 -15 19 -38 18 -46
-2z"/>
<path d="M3445 4349 c-11 -6 -37 -29 -57 -52 -39 -43 -46 -38 -29 21 l10 33
-46 -3 c-26 -2 -48 -9 -51 -15 -2 -7 3 -13 12 -13 9 0 16 -8 16 -19 0 -17 -19
-120 -35 -189 -5 -21 -2 -23 21 -20 23 3 29 10 38 49 12 47 55 128 78 146 7 6
23 14 36 17 20 7 22 4 22 -27 0 -18 -7 -57 -16 -86 -19 -64 -16 -105 9 -109
29 -6 64 6 71 23 4 12 0 14 -19 9 -30 -7 -30 -9 -5 86 11 41 20 89 20 106 0
49 -30 66 -75 43z"/>
<path d="M3103 4343 c-20 -8 -15 -23 7 -23 11 0 20 -2 20 -5 0 -2 -9 -43 -20
-90 -11 -47 -20 -97 -20 -111 0 -24 3 -25 47 -22 29 2 48 8 51 17 3 10 -2 12
-22 7 -14 -3 -26 -3 -26 1 0 5 13 59 29 121 l29 112 -42 -1 c-22 0 -47 -3 -53
-6z"/>
<path d="M791 4313 c-14 -26 -4 -56 16 -49 8 3 17 6 19 6 9 0 3 27 -10 45 -13
18 -14 18 -25 -2z"/>
<path d="M4186 4309 c-14 -21 -14 -25 -1 -38 13 -14 17 -13 31 1 15 15 15 18
1 38 l-15 21 -16 -22z"/>
<path d="M692 4207 c-7 -8 -7 -19 2 -35 l12 -23 18 20 c15 17 16 23 6 36 -15
18 -24 19 -38 2z"/>
<path d="M4276 4204 c-8 -21 1 -34 23 -34 29 0 43 21 23 36 -23 18 -39 17 -46
-2z"/>
<path d="M4371 4116 c-16 -19 -7 -46 14 -46 22 0 30 29 13 46 -13 13 -16 13
-27 0z"/>
<path d="M600 4105 c-14 -17 -5 -35 19 -35 26 0 44 23 29 38 -16 16 -33 15
-48 -3z"/>
<path d="M521 4011 c-16 -29 3 -58 25 -40 17 14 17 20 0 44 -13 18 -14 18 -25
-4z"/>
<path d="M4451 4001 c-16 -28 14 -51 36 -28 13 13 14 19 3 31 -17 21 -27 20
-39 -3z"/>
<path d="M440 3895 c-11 -13 -11 -19 3 -33 20 -19 41 -5 35 24 -4 24 -22 28
-38 9z"/>
<path d="M4531 3896 c-19 -22 4 -62 25 -45 17 14 15 50 -2 56 -6 2 -16 -3 -23
-11z"/>
<path d="M369 3784 c-10 -12 -9 -18 4 -31 13 -13 19 -14 31 -3 21 17 20 27 -3
39 -14 8 -22 7 -32 -5z"/>
<path d="M4605 3783 c-15 -14 -15 -17 -1 -32 15 -14 18 -14 36 4 20 20 20 20
0 32 -15 10 -22 10 -35 -4z"/>
<path d="M3141 3754 c-12 -15 -21 -31 -21 -36 0 -5 -16 -16 -35 -24 -40 -17
-46 -34 -11 -34 l24 0 -19 -87 c-10 -48 -19 -99 -19 -114 0 -42 50 -53 91 -20
29 24 21 35 -15 22 -32 -13 -32 -9 -11 86 9 37 18 78 20 90 3 14 14 23 32 25
36 4 43 28 8 28 -25 0 -26 1 -19 45 3 25 4 45 1 45 -3 0 -15 -12 -26 -26z"/>
<path d="M3330 3689 c-58 -24 -91 -77 -92 -150 0 -63 21 -95 72 -110 33 -10
47 -9 85 5 64 25 98 72 103 145 4 50 1 61 -23 89 -23 28 -33 32 -73 31 -26 0
-58 -5 -72 -10z m100 -24 c27 -32 3 -175 -33 -200 -50 -35 -107 -5 -107 57 0
39 38 136 58 148 25 14 68 12 82 -5z"/>
<path d="M4671 3676 c-16 -19 -7 -46 14 -46 22 0 30 29 13 46 -13 13 -16 13
-27 0z"/>
<path d="M300 3664 c-11 -12 -10 -18 3 -32 16 -15 18 -15 34 0 13 14 14 20 3
32 -7 9 -16 16 -20 16 -4 0 -13 -7 -20 -16z"/>
<path d="M241 3546 c-9 -11 -8 -18 5 -30 15 -16 18 -16 36 1 18 16 18 18 2 30
-23 16 -29 16 -43 -1z"/>
<path d="M4724 3545 c-4 -9 -2 -21 4 -27 15 -15 44 -1 40 19 -4 23 -36 29 -44
8z"/>
<path d="M185 3420 c-16 -17 -15 -19 3 -29 20 -11 42 2 42 25 0 21 -27 23 -45
4z"/>
<path d="M4776 3415 c-3 -8 3 -19 13 -25 14 -7 23 -5 35 9 16 17 16 19 1 25
-27 10 -42 7 -49 -9z"/>
<path d="M147 3303 c-24 -23 12 -55 38 -33 12 10 13 16 4 26 -12 15 -31 18
-42 7z"/>
<path d="M4826 3294 c-11 -30 13 -44 43 -25 12 8 12 12 2 25 -17 20 -37 20
-45 0z"/>
<path d="M107 3173 c-24 -23 12 -55 38 -33 12 10 13 16 4 26 -12 15 -31 18
-42 7z"/>
<path d="M4870 3165 c-22 -26 7 -46 39 -26 12 8 12 12 2 25 -17 20 -25 20 -41
1z"/>
<path d="M3345 3158 c-62 -34 -86 -86 -65 -138 9 -22 32 -39 88 -67 42 -21 80
-45 85 -54 27 -45 -34 -109 -104 -109 -51 0 -73 20 -71 64 1 29 -2 36 -17 36
-13 0 -20 -10 -25 -31 -14 -69 -10 -76 45 -89 126 -30 239 30 239 128 0 41
-26 67 -98 99 -70 31 -92 49 -92 79 0 35 45 64 100 64 55 0 75 -17 66 -55 -5
-20 -3 -25 14 -25 19 0 26 14 32 69 2 19 -3 27 -22 32 -40 11 -153 9 -175 -3z"/>
<path d="M3643 3163 c-28 -6 -39 -33 -13 -33 11 0 20 -6 20 -14 0 -8 -15 -87
-34 -176 l-34 -161 26 3 c21 2 28 11 37 43 21 84 41 86 81 8 25 -49 34 -58 59
-61 17 -2 39 4 50 12 19 14 19 15 -8 21 -20 5 -37 23 -57 59 -17 28 -30 56
-30 61 0 6 25 29 55 52 30 24 55 49 55 56 0 17 -87 10 -94 -9 -3 -8 1 -14 9
-14 26 0 16 -14 -38 -53 -38 -28 -53 -35 -55 -24 -2 8 8 62 21 120 13 59 22
109 19 112 -6 5 -35 5 -69 -2z"/>
<path d="M3990 3155 c-11 -13 -10 -18 6 -30 25 -19 28 -19 48 4 17 19 17 20
-3 30 -27 15 -36 14 -51 -4z"/>
<path d="M4900 3044 c-11 -12 -10 -18 3 -32 21 -21 42 -3 32 27 -8 25 -18 27
-35 5z"/>
<path d="M77 3043 c-11 -10 -8 -41 5 -49 17 -11 40 26 27 43 -13 14 -22 16
-32 6z"/>
<path d="M3971 3040 c-45 -5 -71 -30 -32 -30 12 0 21 -3 21 -6 0 -3 -11 -51
-25 -106 -20 -77 -23 -103 -14 -114 14 -17 61 -18 77 -2 18 18 14 31 -8 25
-25 -6 -25 -6 5 115 15 55 25 106 23 112 -2 7 -19 9 -47 6z"/>
<path d="M4143 3043 c-42 -4 -71 -33 -33 -33 25 0 25 -20 0 -130 -24 -106 -25
-100 5 -100 19 0 26 6 31 28 19 91 85 192 125 192 25 0 25 -32 0 -126 -12 -47
-15 -77 -9 -88 13 -23 61 -20 84 5 19 22 19 22 -8 15 -34 -8 -34 -5 -8 94 23
87 25 121 8 138 -25 25 -61 13 -110 -38 l-49 -51 7 51 c4 27 5 49 3 48 -2 -1
-23 -3 -46 -5z"/>
<path d="M51 2916 c-16 -19 -7 -46 14 -46 22 0 30 29 13 46 -13 13 -16 13 -27
0z"/>
<path d="M4924 2915 c-9 -21 3 -45 21 -45 21 0 30 27 15 45 -16 19 -29 19 -36
0z"/>
<path d="M4946 2784 c-10 -26 -7 -44 8 -44 24 0 36 23 22 43 -16 21 -22 21
-30 1z"/>
<path d="M30 2775 c-15 -18 -5 -35 20 -35 10 0 22 5 25 10 7 11 -12 40 -25 40
-4 0 -13 -7 -20 -15z"/>
<path d="M20 2649 c-10 -17 -9 -24 3 -36 8 -9 20 -12 26 -9 16 10 14 41 -3 55
-12 10 -17 8 -26 -10z"/>
<path d="M4957 2653 c-11 -10 -8 -41 4 -49 6 -3 18 1 27 9 13 13 13 19 2 31
-14 17 -23 20 -33 9z"/>
<path d="M13 2513 c-20 -8 -15 -31 8 -38 25 -8 44 7 36 29 -6 16 -21 19 -44 9z"/>
<path d="M4954 2505 c-4 -9 -2 -21 4 -27 15 -15 44 -1 40 19 -4 23 -36 29 -44
8z"/>
<path d="M21 2376 c-18 -22 4 -62 25 -45 18 15 18 33 0 48 -10 9 -16 8 -25 -3z"/>
<path d="M4954 2375 c-10 -25 3 -44 25 -38 23 6 27 23 9 41 -16 16 -27 15 -34
-3z"/>
<path d="M24 2239 c-3 -6 1 -18 10 -27 15 -15 17 -15 32 0 19 19 11 38 -16 38
-10 0 -22 -5 -26 -11z"/>
<path d="M4943 2234 c-9 -24 11 -38 37 -24 17 9 19 14 9 26 -15 19 -38 18 -46
-2z"/>
<path d="M50 2106 c-10 -13 -10 -19 0 -31 7 -8 16 -15 20 -15 15 0 20 34 7 47
-12 12 -16 12 -27 -1z"/>
<path d="M4927 2113 c-11 -10 -8 -41 4 -49 6 -3 18 1 27 9 13 13 13 19 2 31
-14 17 -23 20 -33 9z"/>
<path d="M71 1981 c-8 -14 -7 -22 4 -31 22 -19 48 5 34 31 -5 10 -14 19 -19
19 -5 0 -14 -9 -19 -19z"/>
<path d="M4896 1974 c-4 -10 -2 -22 3 -27 14 -14 43 0 39 20 -4 24 -34 28 -42
7z"/>
<path d="M4870 1855 c-9 -11 -11 -22 -4 -32 13 -21 25 -21 38 -1 8 14 7 21 -5
33 -14 15 -17 15 -29 0z"/>
<path d="M102 1848 c-13 -13 2 -38 23 -38 21 0 36 25 23 38 -7 7 -17 12 -23
12 -6 0 -16 -5 -23 -12z"/>
<path d="M143 1721 c-10 -16 -9 -22 3 -32 12 -10 18 -9 31 4 13 13 14 19 3 31
-16 21 -23 20 -37 -3z"/>
<path d="M4830 1715 c-13 -16 -6 -35 14 -35 8 0 19 7 27 16 10 13 10 17 -2 25
-19 12 -25 11 -39 -6z"/>
<path d="M186 1595 c-8 -22 1 -35 25 -35 15 0 20 6 17 22 -4 27 -33 36 -42 13z"/>
<path d="M4775 1589 c-4 -5 1 -19 10 -30 17 -18 19 -18 31 -1 9 12 9 21 2 29
-13 16 -35 17 -43 2z"/>
<path d="M237 1466 c-6 -15 11 -36 29 -36 21 0 35 25 22 38 -16 16 -45 15 -51
-2z"/>
<path d="M4724 1465 c-4 -9 -2 -21 4 -27 15 -15 54 1 50 20 -4 23 -46 28 -54
7z"/>
<path d="M297 1346 c-9 -23 18 -39 43 -26 17 9 19 14 9 26 -15 18 -45 18 -52
0z"/>
<path d="M4664 1345 c-13 -32 23 -48 47 -19 10 13 10 17 -2 25 -21 13 -39 11
-45 -6z"/>
<path d="M370 1245 c-9 -11 -11 -22 -4 -32 13 -21 25 -21 38 -1 8 14 7 21 -5
33 -14 15 -17 15 -29 0z"/>
<path d="M4601 1236 c-9 -11 -8 -18 5 -30 15 -16 18 -16 35 0 18 16 18 18 1
30 -22 17 -27 17 -41 0z"/>
<path d="M434 1119 c-3 -6 0 -18 9 -26 12 -12 19 -13 36 -3 18 9 20 14 10 26
-14 17 -45 19 -55 3z"/>
<path d="M4525 1120 c-11 -17 18 -42 39 -34 9 4 16 14 14 23 -4 19 -43 27 -53
11z"/>
<path d="M520 1019 c-10 -17 -9 -24 3 -36 8 -9 20 -12 26 -9 16 10 14 41 -3
55 -12 10 -17 8 -26 -10z"/>
<path d="M4450 1010 c-14 -27 17 -44 45 -24 19 14 19 14 -1 29 -25 19 -31 19
-44 -5z"/>
<path d="M601 911 c-16 -28 14 -51 36 -28 13 13 14 19 3 31 -17 21 -27 20 -39
-3z"/>
<path d="M4371 906 c-9 -10 -8 -16 4 -26 13 -11 19 -10 33 4 15 15 15 18 2 26
-20 13 -26 12 -39 -4z"/>
<path d="M697 813 c-24 -23 12 -55 38 -33 12 10 13 16 4 26 -12 15 -31 18 -42
7z"/>
<path d="M4273 804 c-3 -8 1 -22 9 -30 13 -13 16 -13 27 0 7 9 11 23 7 31 -7
20 -35 19 -43 -1z"/>
<path d="M4191 726 c-17 -20 -6 -49 16 -44 22 4 26 20 10 42 -12 16 -14 16
-26 2z"/>
<path d="M790 715 c-9 -11 -11 -22 -4 -32 13 -21 25 -21 38 -1 8 14 7 21 -5
33 -14 15 -17 15 -29 0z"/>
<path d="M893 633 c-16 -6 -17 -25 -1 -41 12 -12 48 1 48 18 0 13 -32 28 -47
23z"/>
<path d="M4087 633 c-11 -10 -8 -27 7 -48 13 -18 14 -18 25 4 10 17 10 26 0
37 -13 15 -22 18 -32 7z"/>
<path d="M987 536 c-9 -23 18 -39 43 -26 17 9 19 14 9 26 -15 18 -45 18 -52 0z"/>
<path d="M3975 540 c-7 -11 12 -50 24 -50 10 0 21 24 21 46 0 16 -36 19 -45 4z"/>
<path d="M1100 471 c-10 -19 -9 -26 4 -39 14 -15 18 -15 31 -1 14 14 14 18 -3
39 l-19 24 -13 -23z"/>
<path d="M3866 461 c-17 -19 -17 -20 5 -31 19 -11 25 -10 36 5 9 14 10 22 2
32 -15 18 -23 17 -43 -6z"/>
<path d="M1210 394 c-11 -12 -10 -18 3 -31 22 -23 52 0 36 28 -12 23 -22 24
-39 3z"/>
<path d="M3757 386 c-9 -23 18 -39 43 -26 17 9 19 14 9 26 -15 18 -45 18 -52
0z"/>
<path d="M1330 330 c-15 -28 5 -57 26 -39 18 15 18 33 0 48 -12 10 -17 8 -26
-9z"/>
<path d="M3645 329 c-8 -12 2 -59 13 -59 4 0 13 9 20 21 10 16 10 24 1 35 -14
17 -25 18 -34 3z"/>
<path d="M1450 264 c-11 -12 -11 -18 1 -30 13 -12 18 -12 34 0 16 12 17 16 6
30 -17 20 -25 20 -41 0z"/>
<path d="M3521 266 c-9 -11 -9 -19 1 -35 7 -12 15 -21 18 -21 3 0 11 9 18 21
10 16 10 24 1 35 -6 8 -15 14 -19 14 -4 0 -13 -6 -19 -14z"/>
<path d="M3400 215 c-10 -12 -10 -18 0 -29 16 -20 42 -8 38 17 -4 26 -21 32
-38 12z"/>
<path d="M1566 205 c-3 -8 3 -19 13 -25 14 -7 23 -5 35 9 16 17 16 19 1 25
-27 10 -42 7 -49 -9z"/>
<path d="M1697 173 c-24 -23 12 -55 38 -33 12 10 13 16 4 26 -12 15 -31 18
-42 7z"/>
<path d="M3274 165 c-12 -29 15 -45 45 -26 12 8 12 12 2 25 -17 20 -40 21 -47
1z"/>
<path d="M1818 126 c-20 -15 -6 -36 23 -36 22 0 31 13 23 34 -7 19 -23 20 -46
2z"/>
<path d="M3144 125 c-12 -29 15 -45 45 -26 12 8 12 12 2 25 -17 20 -40 21 -47
1z"/>
<path d="M1963 103 c-16 -6 -17 -25 -1 -41 11 -11 48 1 48 16 0 12 -34 29 -47
25z"/>
<path d="M3020 95 c-19 -22 5 -48 31 -34 10 5 19 14 19 19 0 5 -9 14 -19 19
-14 8 -22 7 -31 -4z"/>
<path d="M2885 69 c-8 -26 6 -42 28 -33 20 7 22 25 5 42 -17 17 -26 15 -33 -9z"/>
<path d="M2087 73 c-24 -23 12 -55 38 -33 12 10 13 16 4 26 -12 15 -31 18 -42
7z"/>
<path d="M2618 45 c-10 -22 -9 -28 3 -36 8 -5 19 -7 24 -6 17 6 17 43 1 56
-13 11 -17 9 -28 -14z"/>
<path d="M2213 44 c-3 -8 1 -22 9 -30 13 -13 16 -13 27 0 7 9 11 23 7 31 -7
20 -35 19 -43 -1z"/>
<path d="M2751 46 c-18 -21 11 -41 39 -26 17 9 19 14 9 26 -15 18 -33 18 -48
0z"/>
<path d="M2347 36 c-9 -23 18 -39 43 -26 17 9 19 14 9 26 -15 18 -45 18 -52 0z"/>
<path d="M2484 35 c-7 -18 3 -35 20 -35 14 0 28 35 18 44 -10 11 -33 6 -38 -9z"/>
</g>
</svg>
