<?xml version="1.0" standalone="no"?>
<!DOCTYPE svg PUBLIC "-//W3C//DTD SVG 20010904//EN"
 "http://www.w3.org/TR/2001/REC-SVG-20010904/DTD/svg10.dtd">
<svg version="1.0" xmlns="http://www.w3.org/2000/svg"
 width="500.000000pt" height="500.000000pt" viewBox="0 0 500.000000 500.000000"
 preserveAspectRatio="xMidYMid meet">
<metadata>
Created by potrace 1.15, written by Peter Selinger 2001-2017
</metadata>
<g transform="translate(0.000000,500.000000) scale(0.100000,-0.100000)"
fill="#000000" stroke="none">
<path d="M2479 4976 c-11 -23 -10 -29 2 -37 20 -12 26 -11 33 7 3 9 -1 25 -9
36 -14 21 -14 21 -26 -6z"/>
<path d="M2345 4970 c-7 -23 1 -40 20 -40 21 0 27 17 15 40 -14 25 -27 26 -35
0z"/>
<path d="M2611 4971 c-8 -14 -7 -22 4 -31 22 -19 48 5 34 31 -5 10 -14 19 -19
19 -5 0 -14 -9 -19 -19z"/>
<path d="M2212 4958 c-8 -8 -9 -15 -1 -25 15 -17 34 -17 48 1 10 12 8 17 -8
25 -24 14 -24 14 -39 -1z"/>
<path d="M2744 4955 c-12 -29 15 -45 45 -26 12 8 12 12 2 25 -17 20 -40 21
-47 1z"/>
<path d="M2076 4933 c-11 -27 10 -39 40 -23 24 13 24 15 8 27 -24 18 -41 16
-48 -4z"/>
<path d="M2877 4943 c-24 -23 12 -55 38 -33 12 10 13 16 4 26 -12 15 -31 18
-42 7z"/>
<path d="M3012 4928 c-19 -19 -15 -48 8 -48 26 0 37 27 18 46 -11 11 -16 12
-26 2z"/>
<path d="M1950 4915 c-9 -10 -8 -19 1 -36 11 -22 12 -22 25 -4 8 10 14 24 14
31 0 18 -27 25 -40 9z"/>
<path d="M1814 4879 c-3 -6 1 -18 10 -27 15 -15 17 -15 32 0 19 19 11 38 -16
38 -10 0 -22 -5 -26 -11z"/>
<path d="M3137 4883 c-12 -12 -7 -31 10 -37 19 -8 48 17 39 33 -8 12 -39 15
-49 4z"/>
<path d="M1691 4851 c-14 -26 -7 -41 19 -41 29 0 35 20 12 42 l-20 20 -11 -21z"/>
<path d="M3263 4834 c-8 -21 16 -35 40 -23 14 8 16 13 6 25 -15 19 -38 18 -46
-2z"/>
<path d="M1565 4800 c-9 -15 4 -50 20 -50 20 0 30 40 14 51 -18 11 -26 11 -34
-1z"/>
<path d="M3389 4794 c-10 -12 -9 -18 3 -31 19 -18 38 -10 38 17 0 24 -25 33
-41 14z"/>
<path d="M1442 4749 c-12 -18 -11 -24 2 -37 15 -15 17 -15 32 0 13 13 14 19 2
37 -7 11 -15 21 -18 21 -3 0 -11 -10 -18 -21z"/>
<path d="M3510 4745 c-11 -13 -11 -19 3 -33 20 -19 41 -5 35 24 -4 24 -22 28
-38 9z"/>
<path d="M3636 4695 c-11 -30 -6 -45 13 -45 30 0 36 20 14 42 -18 18 -21 18
-27 3z"/>
<path d="M1320 4670 c0 -22 25 -27 50 -10 13 9 13 11 0 20 -25 17 -50 12 -50
-10z"/>
<path d="M1204 4615 c-12 -29 15 -45 45 -26 12 8 12 12 2 25 -17 20 -40 21
-47 1z"/>
<path d="M3745 4620 c-8 -12 3 -50 14 -50 15 0 33 30 27 45 -6 17 -32 20 -41
5z"/>
<path d="M1097 4553 c-12 -11 -8 -40 7 -52 12 -10 17 -8 26 9 16 29 -12 65
-33 43z"/>
<path d="M3860 4545 c-22 -26 7 -46 39 -26 12 8 12 12 2 25 -17 20 -25 20 -41
1z"/>
<path d="M984 4465 c-12 -29 15 -45 45 -26 12 8 12 12 2 25 -17 20 -40 21 -47
1z"/>
<path d="M3963 4464 c-10 -26 13 -39 43 -25 26 11 26 12 8 26 -25 19 -43 19
-51 -1z"/>
<path d="M884 4393 c-14 -24 -7 -43 16 -43 26 0 33 15 18 40 -16 25 -20 25
-34 3z"/>
<path d="M3967 4253 c2 -206 -8 -307 -76 -713 -78 -466 -115 -765 -109 -891
l5 -97 -86 87 c-170 171 -324 227 -631 232 l-165 3 -86 -47 c-92 -50 -112 -67
-128 -108 -7 -19 -27 -35 -68 -54 -32 -14 -72 -40 -89 -56 l-31 -30 -81 26
c-45 14 -84 30 -87 35 -10 17 -84 31 -122 24 -20 -4 -52 -22 -73 -40 -20 -18
-73 -52 -119 -75 -60 -30 -99 -59 -144 -106 -34 -36 -84 -88 -111 -116 l-49
-50 38 7 37 7 -22 -31 c-12 -17 -40 -43 -61 -57 -21 -14 -39 -27 -39 -28 0 -1
25 -1 55 1 30 2 55 1 55 -2 0 -20 -26 -44 -57 -56 l-38 -13 55 -5 c53 -6 54
-6 28 -18 -44 -18 -33 -25 30 -18 l57 7 25 -41 c14 -23 50 -60 80 -82 30 -23
57 -43 59 -45 2 -1 2 -6 -2 -9 -18 -18 -256 90 -343 156 -94 71 -102 130 -48
337 51 197 28 245 -130 269 -29 4 -53 19 -96 60 -58 55 -84 64 -120 42 -17
-11 -24 -8 -57 24 -52 49 -69 52 -132 23 -60 -28 -71 -25 -92 28 -22 57 -58
87 -103 87 -32 0 -51 -9 -95 -43 -96 -74 -205 -132 -300 -161 -52 -15 -54 -15
-106 9 -60 29 -84 30 -150 11 -44 -14 -95 -49 -95 -67 0 -4 24 3 53 15 69 31
106 38 142 27 l30 -8 -42 -12 c-48 -13 -58 -30 -14 -23 19 3 30 -1 34 -12 5
-11 1 -16 -13 -16 -27 0 -25 -18 2 -22 21 -3 24 -13 40 -123 10 -66 20 -138
24 -161 6 -40 6 -40 -35 -54 -60 -19 -60 -30 -1 -23 53 6 59 1 34 -35 -14 -21
-14 -22 7 -22 12 0 30 -7 40 -16 16 -15 17 -13 12 28 -3 24 -13 94 -24 157
-23 138 -23 212 -1 270 16 41 21 46 72 61 86 26 178 72 290 144 57 36 107 66
112 66 13 0 45 -38 81 -95 42 -66 74 -77 130 -47 53 28 68 28 95 -1 30 -31 28
-51 -13 -126 -43 -81 -39 -92 6 -16 19 32 46 71 60 87 32 39 54 33 122 -30 47
-45 52 -47 118 -50 60 -4 72 -8 89 -29 30 -38 26 -129 -11 -286 -38 -165 -35
-193 31 -256 62 -60 141 -107 251 -148 138 -52 223 -66 368 -61 111 3 133 7
186 31 32 15 74 39 91 52 41 31 52 31 95 0 55 -41 128 -58 195 -46 31 6 80 8
108 5 77 -9 156 11 226 57 l60 41 69 -11 c83 -13 154 -1 219 35 31 19 43 22
46 12 3 -7 12 -107 20 -222 15 -195 18 -214 46 -274 16 -35 30 -66 30 -68 0
-9 -294 75 -532 152 -169 54 -311 84 -405 84 -82 0 -71 -17 15 -23 54 -3 145
-24 302 -70 124 -36 320 -90 437 -121 124 -32 238 -68 275 -87 l63 -31 -52 49
c-102 99 -149 236 -163 475 -14 231 -44 356 -122 517 -25 49 -61 103 -88 131
-42 43 -52 48 -106 54 -106 12 -168 28 -225 56 -30 16 -82 36 -115 46 -78 22
-125 45 -121 58 2 7 50 12 123 13 65 1 130 6 144 11 18 7 -1 10 -75 9 -62 -1
-108 3 -120 10 -18 11 -16 14 30 35 43 19 66 23 160 22 93 0 134 -6 260 -37
174 -44 255 -79 320 -138 62 -57 148 -172 231 -310 37 -63 104 -168 147 -234
145 -221 186 -330 213 -559 17 -152 29 -204 67 -288 38 -87 33 -105 -40 -154
-32 -20 -104 -68 -160 -105 -121 -80 -179 -103 -332 -135 -176 -36 -295 -46
-478 -42 -180 4 -197 8 -373 83 -108 46 -166 51 -357 32 -281 -29 -409 -19
-542 39 -57 26 -156 93 -209 144 -40 39 -69 93 -53 98 29 10 71 57 81 90 32
116 -23 228 -103 208 -37 -9 -34 -21 10 -32 32 -8 40 -15 55 -54 38 -99 15
-180 -51 -180 -22 0 -34 -9 -53 -38 -14 -20 -49 -64 -79 -97 -41 -45 -46 -54
-22 -37 17 12 43 36 57 52 13 17 31 30 38 30 7 0 43 -27 80 -60 197 -172 317
-220 554 -220 57 0 104 -4 104 -9 0 -24 -206 -169 -329 -230 -34 -18 -61 -35
-58 -37 6 -6 103 41 199 97 74 43 102 52 48 16 -37 -25 -304 -174 -405 -225
-73 -38 -67 -40 20 -7 146 55 415 216 546 327 89 75 102 79 246 76 l127 -3
-83 -102 c-89 -111 -181 -196 -330 -305 -150 -110 -151 -118 -1 -17 118 78
230 168 329 263 81 78 83 79 50 31 -48 -71 -191 -210 -285 -276 -72 -52 -175
-113 -359 -214 -38 -21 -64 -40 -57 -43 14 -4 261 130 372 203 132 86 333 284
408 402 15 23 32 44 39 47 7 3 32 -3 55 -14 66 -28 196 -59 300 -70 215 -22
642 46 807 129 106 54 270 190 292 243 10 25 8 37 -19 96 -32 70 -94 345 -107
477 -6 62 -15 86 -83 210 -41 77 -107 191 -145 253 -38 63 -80 139 -94 170
-59 133 -109 548 -70 581 14 11 17 9 22 -16 14 -67 46 -154 89 -243 26 -52 43
-86 40 -75 -4 11 -23 63 -41 115 -49 134 -62 212 -70 396 -6 168 -2 214 21
214 15 0 19 -18 36 -150 14 -104 27 -149 80 -270 43 -98 109 -215 117 -207 2
3 -14 40 -35 84 -93 184 -117 265 -137 466 -20 197 -19 269 10 447 35 222 39
286 25 395 -7 53 -10 99 -6 102 13 14 36 -24 46 -75 13 -73 121 -349 170 -436
22 -39 40 -68 40 -63 0 4 -34 93 -76 198 -50 125 -88 242 -111 338 -39 161
-51 194 -74 199 -12 2 -14 -19 -12 -145z m-1198 -1527 c9 -11 6 -15 -16 -19
-34 -6 -40 -2 -23 18 15 19 24 19 39 1z m133 -50 c62 -18 129 -65 216 -150 76
-74 84 -94 55 -136 -48 -70 -100 -87 -272 -91 -60 -1 -73 -14 -65 -65 3 -24 2
-44 -2 -44 -18 0 -31 16 -38 43 -3 15 -11 27 -16 27 -14 0 -12 -54 2 -68 9 -9
8 -12 -5 -12 -9 0 -23 14 -32 30 -19 36 -29 39 -21 5 9 -37 -3 -30 -20 12 -22
52 -11 94 36 137 58 52 105 63 189 43 80 -20 81 -20 81 -9 0 5 -18 15 -41 22
-22 8 -42 17 -45 22 -3 4 5 22 16 39 12 16 20 32 18 35 -3 2 -21 -3 -41 -11
-49 -20 -80 -19 -128 6 -55 28 -63 15 -15 -25 l38 -33 -43 -26 c-105 -61 -126
-116 -85 -217 24 -61 24 -65 8 -83 -57 -64 -84 -39 -76 72 5 65 2 86 -19 146
-46 128 -58 180 -48 208 20 51 77 89 176 118 74 22 119 23 177 5z m-592 -46
c0 -6 -7 -13 -15 -16 -32 -13 -12 -22 54 -26 56 -3 75 -9 106 -32 36 -28 95
-131 95 -168 0 -10 9 -41 20 -70 17 -47 18 -65 11 -159 -10 -119 -28 -168 -75
-203 -73 -54 -222 -85 -321 -67 -180 33 -332 184 -329 326 1 54 38 147 80 202
22 29 181 133 204 133 5 0 10 12 12 28 2 19 13 32 38 44 38 19 120 24 120 8z
m930 -87 c36 -2 75 -9 88 -15 22 -11 132 -203 132 -231 0 -8 -14 -17 -31 -21
-85 -17 -138 3 -169 64 -26 52 -25 79 5 124 23 34 23 36 5 36 -10 0 -25 -9
-33 -20 -14 -20 -16 -19 -58 32 -30 35 -38 49 -24 44 11 -4 49 -10 85 -13z
m16 -269 l28 -23 -21 -23 c-21 -24 -43 -61 -43 -74 0 -5 20 12 45 36 38 37 47
42 56 30 5 -8 19 -30 30 -47 30 -48 41 -40 19 12 -10 24 -16 46 -12 49 4 2 34
7 68 11 l61 7 17 -82 c10 -44 16 -87 13 -94 -9 -22 -108 -66 -163 -72 -60 -7
-147 15 -189 48 -64 50 -64 129 1 193 46 46 25 45 -26 -2 -28 -24 -45 -50 -53
-80 l-11 -44 -39 6 c-43 8 -92 -8 -102 -32 -8 -23 -3 -24 43 -7 49 20 81 13
124 -25 38 -33 42 -86 9 -112 -27 -22 -214 -37 -236 -19 -11 9 -22 9 -46 1
-18 -6 -49 -11 -69 -11 -75 0 -129 98 -85 156 13 18 14 17 15 -17 0 -21 9 -47
21 -63 27 -35 35 -27 14 14 -12 22 -14 39 -7 58 l8 26 25 -45 c25 -45 60 -62
82 -40 7 7 1 14 -19 23 -29 12 -28 13 24 16 83 5 64 37 -23 37 -41 0 -50 3
-50 18 0 10 17 27 40 40 26 15 48 38 64 68 l24 46 71 -1 c86 0 150 27 199 84
l32 39 16 -41 c9 -23 29 -52 45 -64z m-608 -279 c12 -25 19 -45 15 -45 -17 0
-53 46 -53 67 0 35 14 28 38 -22z"/>
<path d="M2199 2600 c-28 -23 -15 -26 31 -6 25 10 29 14 15 20 -22 8 -19 9
-46 -14z"/>
<path d="M2194 2423 c6 -92 16 -126 32 -110 11 10 -18 207 -29 207 -6 0 -7
-35 -3 -97z"/>
<path d="M2061 2404 c-6 -20 -7 -44 -2 -52 5 -9 10 2 15 34 8 59 1 69 -13 18z"/>
<path d="M2417 2323 c10 -23 17 -68 17 -110 1 -40 4 -73 7 -73 26 0 25 121 -1
178 -24 52 -45 57 -23 5z"/>
<path d="M2299 2304 c-12 -15 -12 -16 9 -10 18 6 22 4 22 -13 0 -12 5 -21 11
-21 17 0 6 54 -12 58 -9 2 -22 -5 -30 -14z"/>
<path d="M2490 2260 c0 -16 5 -30 10 -30 6 0 10 14 10 30 0 17 -4 30 -10 30
-5 0 -10 -13 -10 -30z"/>
<path d="M2350 2183 c0 -27 -3 -30 -21 -26 -16 4 -20 2 -17 -8 9 -26 47 -23
60 6 10 21 9 29 -5 43 -16 15 -17 14 -17 -15z"/>
<path d="M2236 2143 c-3 -3 -6 -39 -6 -79 0 -72 22 -154 41 -154 11 0 12 -8
-6 74 -8 39 -12 89 -8 112 5 38 -5 62 -21 47z"/>
<path d="M2080 2092 c0 -20 33 -118 42 -127 8 -7 9 -4 5 8 -4 10 -14 42 -23
72 -14 50 -24 69 -24 47z"/>
<path d="M4072 4388 c-13 -13 2 -38 24 -38 20 0 27 19 14 35 -15 18 -22 19
-38 3z"/>
<path d="M4170 4300 c-12 -23 -6 -40 15 -40 19 0 27 17 20 40 -8 26 -21 25
-35 0z"/>
<path d="M787 4303 c-4 -3 -7 -15 -7 -25 0 -22 32 -24 49 -4 10 12 8 17 -8 25
-23 13 -26 13 -34 4z"/>
<path d="M686 4201 c-9 -14 4 -41 19 -41 17 0 38 27 30 40 -8 12 -42 13 -49 1z"/>
<path d="M4263 4194 c-3 -8 1 -22 10 -31 14 -14 16 -13 26 6 7 12 9 26 6 31
-10 15 -35 12 -42 -6z"/>
<path d="M600 4104 c-11 -12 -10 -18 3 -32 16 -15 18 -15 34 0 13 14 14 20 3
32 -7 9 -16 16 -20 16 -4 0 -13 -7 -20 -16z"/>
<path d="M4357 4113 c-12 -12 -7 -41 7 -46 22 -9 41 19 26 38 -14 16 -23 19
-33 8z"/>
<path d="M517 4003 c-24 -23 12 -55 38 -33 12 10 13 16 4 26 -12 15 -31 18
-42 7z"/>
<path d="M4437 4003 c-24 -23 12 -55 38 -33 12 10 13 16 4 26 -12 15 -31 18
-42 7z"/>
<path d="M434 3885 c-13 -32 23 -48 47 -19 10 13 10 17 -2 25 -21 13 -39 11
-45 -6z"/>
<path d="M4515 3890 c-8 -12 3 -50 14 -50 15 0 33 30 27 45 -6 17 -32 20 -41
5z"/>
<path d="M364 3775 c-12 -29 15 -45 45 -26 12 8 12 12 2 25 -17 20 -40 21 -47
1z"/>
<path d="M4584 3775 c-13 -32 23 -48 47 -19 10 13 10 17 -2 25 -21 13 -39 11
-45 -6z"/>
<path d="M3191 3766 c-14 -17 -7 -36 14 -36 22 0 29 20 13 36 -13 13 -16 13
-27 0z"/>
<path d="M1145 3761 c-38 -16 -57 -47 -53 -87 3 -36 7 -41 68 -74 75 -41 86
-65 46 -105 -44 -44 -116 -28 -116 26 0 40 -22 34 -34 -10 -12 -42 0 -53 67
-59 71 -6 124 18 144 65 20 50 2 81 -70 118 -68 35 -84 67 -47 97 41 33 110
15 110 -29 0 -8 6 -13 13 -11 17 6 21 59 5 69 -16 11 -106 10 -133 0z"/>
<path d="M1385 3763 c-28 -7 -43 -23 -22 -23 22 0 22 -7 -9 -151 -14 -67 -23
-123 -20 -126 12 -12 35 8 41 36 3 16 13 35 20 41 16 13 35 6 35 -13 0 -7 11
-25 23 -41 19 -24 28 -28 50 -22 32 8 36 26 6 26 -14 0 -26 13 -41 47 l-21 47
24 16 c42 27 74 58 68 65 -4 3 -23 3 -43 -1 -27 -5 -34 -9 -26 -19 7 -8 -2
-21 -36 -44 -43 -32 -45 -32 -40 -9 29 125 36 161 36 169 0 9 -11 10 -45 2z"/>
<path d="M1643 3754 c-8 -21 13 -42 28 -27 13 13 5 43 -11 43 -6 0 -13 -7 -17
-16z"/>
<path d="M2673 3750 c-18 -11 -35 -31 -39 -45 -12 -49 3 -72 69 -107 74 -39
86 -71 41 -107 -50 -39 -114 -22 -114 31 0 26 -2 29 -15 18 -8 -7 -15 -27 -15
-46 0 -31 2 -33 45 -40 88 -13 157 18 170 76 10 47 -3 69 -58 96 -90 45 -104
67 -67 104 12 12 33 20 55 20 30 0 38 -5 52 -35 19 -41 33 -37 33 10 0 38 -12
45 -78 45 -29 0 -59 -8 -79 -20z"/>
<path d="M2918 3763 c-30 -5 -39 -23 -12 -23 12 0 15 -6 11 -22 -25 -105 -50
-249 -44 -254 12 -12 37 5 37 26 0 29 18 60 34 60 7 0 21 -18 31 -40 19 -43
42 -56 77 -44 l23 7 -23 8 c-12 5 -32 29 -44 54 l-22 45 49 45 50 44 -30 0
c-36 1 -65 -15 -49 -26 7 -5 -4 -20 -32 -41 -24 -18 -44 -31 -44 -28 0 5 27
138 35 174 4 14 1 21 -7 21 -7 -1 -25 -4 -40 -6z"/>
<path d="M2163 3717 c-7 -15 -27 -36 -45 -47 -31 -19 -31 -21 -12 -26 21 -5
21 -8 8 -67 -7 -34 -13 -74 -14 -89 0 -24 4 -28 29 -28 16 0 35 7 42 16 12 15
11 16 -9 10 -26 -9 -26 -7 -10 82 11 57 15 66 42 77 27 12 28 13 8 19 -15 5
-22 17 -24 44 l-3 37 -12 -28z"/>
<path d="M305 3664 c-14 -15 -15 -19 -2 -32 13 -13 18 -13 36 0 21 15 21 15 2
32 -17 16 -20 16 -36 0z"/>
<path d="M2303 3661 c-90 -56 -80 -201 13 -201 73 0 124 55 124 133 0 72 -73
108 -137 68z m83 -26 c15 -22 15 -31 3 -82 -16 -67 -48 -93 -84 -69 -25 17
-30 49 -15 101 22 75 65 97 96 50z"/>
<path d="M3365 3638 l-38 -41 7 36 c6 34 5 37 -16 36 -13 0 -32 -4 -43 -8 -18
-7 -18 -8 -1 -18 16 -9 17 -14 2 -93 -9 -46 -14 -85 -12 -88 13 -13 34 11 44
50 12 48 67 128 87 128 21 0 23 -21 9 -75 -8 -27 -14 -63 -14 -78 0 -26 3 -28
32 -25 17 2 33 9 36 16 2 8 -2 10 -14 5 -14 -5 -16 -2 -12 18 3 13 11 52 18
86 11 51 11 64 1 77 -22 26 -46 19 -86 -26z"/>
<path d="M4663 3673 c-15 -6 -17 -39 -3 -48 5 -3 19 0 30 8 19 13 19 15 3 29
-10 9 -24 13 -30 11z"/>
<path d="M1603 3663 c-17 -6 -16 -21 1 -25 11 -2 10 -17 -6 -82 -11 -47 -15
-83 -9 -89 13 -13 64 -4 69 12 3 10 0 12 -12 8 -21 -8 -20 1 4 93 11 41 20 78
20 83 0 8 -48 8 -67 0z"/>
<path d="M1740 3661 l-25 -7 23 -8 c15 -5 21 -13 18 -24 -3 -9 -12 -48 -20
-85 -12 -60 -12 -69 1 -74 17 -7 33 13 33 40 0 41 68 137 97 137 17 0 16 -19
-3 -92 -8 -33 -13 -67 -10 -75 7 -17 67 -14 73 4 3 7 -3 9 -16 6 -25 -6 -25
-6 -3 82 23 90 20 105 -23 105 -27 0 -40 -8 -64 -37 l-30 -37 6 37 c6 40 -2
44 -57 28z"/>
<path d="M3143 3663 c-18 -7 -16 -23 2 -23 18 0 18 -2 0 -70 -8 -30 -15 -68
-15 -83 0 -26 3 -28 32 -25 17 2 34 9 36 17 3 8 0 11 -6 7 -21 -13 -21 12 -2
93 11 45 20 84 20 87 0 5 -52 4 -67 -3z"/>
<path d="M235 3540 c-6 -10 15 -50 27 -50 12 0 30 39 23 50 -8 13 -42 13 -50
0z"/>
<path d="M4707 3538 c-2 -8 1 -22 9 -33 14 -18 14 -18 29 1 8 10 13 24 11 29
-4 16 -43 18 -49 3z"/>
<path d="M190 3424 c-11 -12 -10 -18 3 -32 21 -21 42 -3 32 27 -8 25 -18 27
-35 5z"/>
<path d="M4763 3414 c-3 -8 1 -22 9 -30 13 -13 16 -13 27 -1 14 17 4 47 -15
47 -8 0 -17 -7 -21 -16z"/>
<path d="M147 3303 c-12 -11 -8 -41 6 -46 7 -3 22 2 32 10 20 14 20 14 1 29
-22 16 -30 17 -39 7z"/>
<path d="M4813 3294 c-8 -21 13 -42 28 -27 13 13 5 43 -11 43 -6 0 -13 -7 -17
-16z"/>
<path d="M102 3168 c-8 -8 -9 -15 -1 -25 15 -17 34 -17 48 1 10 12 8 17 -8 25
-24 14 -24 14 -39 -1z"/>
<path d="M4850 3165 c-11 -13 -11 -19 3 -33 20 -19 41 -5 35 24 -4 24 -22 28
-38 9z"/>
<path d="M77 3043 c-24 -23 12 -55 38 -33 12 10 13 16 4 26 -12 15 -31 18 -42
7z"/>
<path d="M4884 3035 c-12 -31 23 -48 45 -21 10 12 8 17 -8 25 -26 14 -31 14
-37 -4z"/>
<path d="M44 2905 c-12 -29 15 -45 45 -26 12 8 12 12 2 25 -17 20 -40 21 -47
1z"/>
<path d="M4904 2905 c-12 -29 15 -45 45 -26 12 8 12 12 2 25 -17 20 -40 21
-47 1z"/>
<path d="M26 2774 c-4 -10 -2 -22 3 -27 14 -14 43 0 39 20 -4 24 -34 28 -42 7z"/>
<path d="M4932 2778 c-16 -16 -15 -33 2 -47 22 -18 44 25 24 45 -11 11 -16 12
-26 2z"/>
<path d="M20 2649 c-10 -17 -9 -24 3 -36 8 -9 20 -12 26 -9 16 10 14 41 -3 55
-12 10 -17 8 -26 -10z"/>
<path d="M4934 2635 c-10 -24 12 -42 34 -29 24 16 21 38 -6 42 -13 2 -25 -3
-28 -13z"/>
<path d="M18 2513 c-25 -6 -22 -30 3 -38 25 -8 44 7 36 29 -7 16 -9 17 -39 9z"/>
<path d="M4943 2509 c-6 -6 -9 -18 -6 -25 7 -18 37 -18 52 0 10 12 8 17 -8 25
-24 14 -24 14 -38 0z"/>
<path d="M4112 2375 c23 -46 44 -83 46 -81 4 5 -76 166 -83 166 -3 0 14 -38
37 -85z"/>
<path d="M20 2375 c-23 -28 21 -50 48 -23 9 9 7 14 -6 24 -22 17 -27 17 -42
-1z"/>
<path d="M4940 2375 c-19 -22 5 -48 31 -34 10 5 19 14 19 19 0 5 -9 14 -19 19
-14 8 -22 7 -31 -4z"/>
<path d="M24 2235 c-4 -9 -2 -21 4 -27 15 -15 44 -1 40 19 -4 23 -36 29 -44 8z"/>
<path d="M4924 2239 c-3 -6 1 -18 9 -27 13 -13 19 -13 32 -2 12 10 13 16 4 26
-14 17 -35 18 -45 3z"/>
<path d="M51 2116 c-16 -19 -7 -46 14 -46 22 0 30 29 13 46 -13 13 -16 13 -27
0z"/>
<path d="M4911 2116 c-16 -19 -7 -46 14 -46 22 0 30 29 13 46 -13 13 -16 13
-27 0z"/>
<path d="M72 1978 c-8 -8 -9 -15 -1 -25 15 -17 34 -17 48 1 10 12 8 17 -8 25
-24 14 -24 14 -39 -1z"/>
<path d="M4877 1979 c-14 -8 -16 -14 -6 -25 14 -17 31 -18 47 -2 8 8 9 15 1
25 -14 15 -18 16 -42 2z"/>
<path d="M102 1848 c-13 -13 2 -38 23 -38 21 0 36 25 23 38 -7 7 -17 12 -23
12 -6 0 -16 -5 -23 -12z"/>
<path d="M4846 1844 c-8 -21 1 -34 23 -34 29 0 43 21 23 36 -23 18 -39 17 -46
-2z"/>
<path d="M630 1809 c0 -14 6 -33 13 -44 8 -11 22 -33 32 -49 l19 -28 -42 4
c-53 5 -54 -5 -2 -22 40 -13 49 -23 30 -35 -19 -12 -11 -26 9 -15 27 14 56 13
70 -4 9 -11 3 -21 -30 -50 -22 -21 -39 -40 -36 -42 2 -2 25 4 51 15 49 22 56
19 29 -11 -9 -10 -14 -21 -10 -24 10 -10 27 6 47 47 11 21 23 39 26 39 6 0 93
-45 113 -58 19 -13 -1 -47 -42 -69 -47 -26 -283 -25 -384 0 -104 27 -113 15
-13 -19 76 -25 98 -28 215 -28 201 0 249 18 292 109 23 50 70 68 160 63 72 -4
197 -61 281 -128 50 -40 182 -186 182 -201 0 -18 -115 -118 -279 -243 -158
-120 -246 -196 -228 -196 3 0 52 37 109 83 57 45 149 115 204 154 160 114 271
252 282 351 6 61 -7 48 -32 -34 l-21 -65 -35 48 c-42 57 -247 199 -336 233
-98 37 -187 45 -281 26 -112 -23 -142 -21 -194 13 -36 22 -116 104 -196 200
-1 2 -3 -7 -3 -20z"/>
<path d="M142 1717 c-7 -8 -6 -18 4 -32 15 -20 15 -20 29 -1 23 30 -9 62 -33
33z"/>
<path d="M4814 1715 c-7 -18 2 -45 15 -45 12 0 24 37 16 50 -9 15 -25 12 -31
-5z"/>
<path d="M4771 1606 c-16 -19 -7 -46 14 -46 22 0 30 29 13 46 -13 13 -16 13
-27 0z"/>
<path d="M190 1595 c-15 -18 -5 -35 20 -35 10 0 22 5 25 10 7 11 -12 40 -25
40 -4 0 -13 -7 -20 -15z"/>
<path d="M240 1474 c-11 -12 -11 -18 2 -30 13 -13 19 -14 36 -3 20 12 20 15 5
31 -20 22 -27 22 -43 2z"/>
<path d="M4717 1476 c-14 -14 -14 -20 -4 -36 15 -25 19 -25 34 -1 9 15 9 23
-1 36 -11 16 -13 16 -29 1z"/>
<path d="M302 1359 c-12 -18 -12 -24 0 -35 20 -20 42 -2 34 30 -8 32 -17 33
-34 5z"/>
<path d="M4662 1368 c-16 -16 -15 -45 2 -51 23 -9 39 18 26 42 -13 25 -12 25
-28 9z"/>
<path d="M365 1240 c-9 -15 4 -50 20 -50 16 0 29 35 20 50 -3 5 -12 10 -20 10
-8 0 -17 -5 -20 -10z"/>
<path d="M4584 1235 c-4 -9 0 -24 10 -33 15 -15 18 -15 26 -2 6 8 9 22 7 30
-3 21 -36 25 -43 5z"/>
<path d="M440 1125 c-19 -22 5 -48 31 -34 10 5 19 14 19 19 0 5 -9 14 -19 19
-14 8 -22 7 -31 -4z"/>
<path d="M4513 1124 c-3 -8 1 -22 9 -30 12 -12 17 -12 33 0 16 12 17 16 6 30
-17 20 -40 21 -48 0z"/>
<path d="M521 1026 c-16 -19 -7 -46 14 -46 22 0 30 29 13 46 -13 13 -16 13
-27 0z"/>
<path d="M4441 1026 c-16 -19 -7 -46 14 -46 22 0 30 29 13 46 -13 13 -16 13
-27 0z"/>
<path d="M595 910 c-3 -5 -1 -19 5 -31 11 -19 13 -20 30 -4 10 9 16 23 13 31
-6 16 -39 19 -48 4z"/>
<path d="M4354 905 c-7 -18 3 -35 21 -35 15 0 28 27 19 41 -8 14 -34 11 -40
-6z"/>
<path d="M691 816 c-10 -11 -9 -19 1 -35 16 -27 25 -26 33 0 4 13 2 27 -7 36
-13 12 -16 12 -27 -1z"/>
<path d="M4270 815 c-19 -23 5 -48 31 -32 24 15 24 24 0 36 -14 8 -22 7 -31
-4z"/>
<path d="M785 719 c-10 -30 11 -48 32 -27 13 14 14 20 3 32 -17 22 -27 20 -35
-5z"/>
<path d="M4167 716 c-9 -23 18 -39 43 -26 17 9 19 14 9 26 -15 18 -45 18 -52
0z"/>
<path d="M887 633 c-24 -23 12 -55 38 -33 12 10 13 16 4 26 -12 15 -31 18 -42
7z"/>
<path d="M4077 633 c-10 -9 -8 -25 3 -43 8 -13 11 -12 23 5 22 29 -2 63 -26
38z"/>
<path d="M991 556 c-16 -19 -7 -46 14 -46 22 0 30 29 13 46 -13 13 -16 13 -27
0z"/>
<path d="M3964 545 c-12 -29 15 -45 45 -26 12 8 12 12 2 25 -17 20 -40 21 -47
1z"/>
<path d="M1094 465 c-12 -29 15 -45 45 -26 12 8 12 12 2 25 -17 20 -40 21 -47
1z"/>
<path d="M1720 466 c-61 -23 -129 -56 -135 -66 -9 -15 -6 -14 96 35 92 43 109
56 39 31z"/>
<path d="M3863 469 c-13 -13 -6 -39 11 -39 6 0 17 4 25 9 12 8 12 12 2 25 -16
19 -23 20 -38 5z"/>
<path d="M1211 406 c-16 -19 -7 -46 14 -46 22 0 30 29 13 46 -13 13 -16 13
-27 0z"/>
<path d="M3751 406 c-16 -19 -7 -46 14 -46 22 0 30 29 13 46 -13 13 -16 13
-27 0z"/>
<path d="M1320 320 c0 -26 25 -36 45 -20 12 10 13 16 4 26 -18 22 -49 17 -49
-6z"/>
<path d="M3627 326 c-3 -8 1 -22 9 -33 14 -17 14 -17 28 0 18 23 10 47 -14 47
-10 0 -20 -6 -23 -14z"/>
<path d="M1440 274 c-11 -12 -10 -18 3 -32 16 -15 18 -15 34 0 13 14 14 20 3
32 -7 9 -16 16 -20 16 -4 0 -13 -7 -20 -16z"/>
<path d="M3510 275 c-11 -13 -11 -19 3 -33 20 -19 41 -5 35 24 -4 24 -22 28
-38 9z"/>
<path d="M1565 220 c-8 -24 1 -40 21 -40 20 0 29 27 14 45 -17 20 -27 19 -35
-5z"/>
<path d="M3383 214 c-8 -22 11 -37 36 -29 25 8 28 30 5 39 -25 9 -34 7 -41
-10z"/>
<path d="M1690 179 c-10 -17 -9 -24 4 -38 15 -14 18 -14 26 -1 14 21 12 36 -4
49 -12 10 -17 8 -26 -10z"/>
<path d="M3272 188 c-15 -15 -15 -45 -1 -54 6 -3 18 0 26 9 14 13 14 18 1 36
-11 16 -17 18 -26 9z"/>
<path d="M1820 134 c-11 -12 -10 -18 3 -32 16 -15 18 -15 34 0 13 14 14 20 3
32 -16 20 -24 20 -40 0z"/>
<path d="M3142 138 c-27 -27 -3 -54 31 -36 22 11 22 25 -1 37 -13 7 -23 6 -30
-1z"/>
<path d="M3010 105 c-9 -11 -11 -22 -4 -32 13 -21 25 -21 38 -1 8 14 7 21 -5
33 -14 15 -17 15 -29 0z"/>
<path d="M1944 99 c-3 -6 1 -18 10 -27 15 -15 17 -15 34 1 15 16 15 19 2 27
-20 13 -37 12 -46 -1z"/>
<path d="M2081 86 c-16 -19 -7 -46 14 -46 22 0 30 29 13 46 -13 13 -16 13 -27
0z"/>
<path d="M2880 75 c-22 -26 7 -46 39 -26 12 8 12 12 2 25 -17 20 -25 20 -41 1z"/>
<path d="M2210 55 c-11 -13 -11 -19 4 -33 15 -15 18 -15 26 -2 22 33 -6 64
-30 35z"/>
<path d="M2347 63 c-11 -10 -8 -41 3 -48 19 -12 41 15 29 36 -10 20 -21 24
-32 12z"/>
<path d="M2611 56 c-13 -16 -5 -46 13 -46 23 0 36 22 25 42 -12 22 -22 23 -38
4z"/>
<path d="M2742 58 c-13 -13 2 -38 23 -38 21 0 36 25 23 38 -15 15 -31 15 -46
0z"/>
<path d="M2474 49 c-9 -15 6 -49 22 -49 8 0 14 4 14 9 0 5 3 16 6 24 6 16 -32
31 -42 16z"/>
</g>
</svg>
