<?xml version="1.0" standalone="no"?>
<!DOCTYPE svg PUBLIC "-//W3C//DTD SVG 20010904//EN"
 "http://www.w3.org/TR/2001/REC-SVG-20010904/DTD/svg10.dtd">
<svg version="1.0" xmlns="http://www.w3.org/2000/svg"
 width="498.000000pt" height="500.000000pt" viewBox="0 0 498.000000 500.000000"
 preserveAspectRatio="xMidYMid meet">
<metadata>
Created by potrace 1.15, written by Peter Selinger 2001-2017
</metadata>
<g transform="translate(0.000000,500.000000) scale(0.100000,-0.100000)"
fill="#000000" stroke="none">
<path d="M2335 4970 c-7 -23 1 -40 20 -40 21 0 27 17 15 40 -14 25 -27 26 -35
0z"/>
<path d="M2465 4970 c-7 -23 1 -40 20 -40 8 0 17 5 20 10 9 15 -4 50 -20 50
-8 0 -16 -9 -20 -20z"/>
<path d="M2603 4969 c-15 -15 -5 -39 16 -39 29 0 43 21 23 36 -21 17 -25 17
-39 3z"/>
<path d="M2207 4963 c-11 -10 -8 -41 3 -48 19 -12 41 15 29 36 -10 20 -21 24
-32 12z"/>
<path d="M2734 4955 c-12 -30 16 -45 46 -25 13 9 12 12 -4 25 -25 19 -35 19
-42 0z"/>
<path d="M2073 4939 c-15 -15 -5 -39 16 -39 29 0 43 21 23 36 -21 17 -25 17
-39 3z"/>
<path d="M2866 4935 c-6 -17 2 -45 14 -45 4 0 13 7 20 15 10 12 10 18 0 30 -7
8 -16 15 -20 15 -4 0 -10 -7 -14 -15z"/>
<path d="M3002 4928 c-16 -16 -15 -45 2 -51 15 -6 36 11 36 29 0 21 -25 35
-38 22z"/>
<path d="M1935 4910 c-3 -5 -1 -19 5 -30 9 -17 14 -19 26 -9 21 17 18 49 -5
49 -11 0 -23 -4 -26 -10z"/>
<path d="M1807 4876 c-9 -23 18 -39 43 -26 17 9 19 14 9 26 -15 18 -45 18 -52
0z"/>
<path d="M3123 4874 c-9 -24 11 -38 37 -24 17 9 19 14 9 26 -15 19 -38 18 -46
-2z"/>
<path d="M1680 4844 c-11 -12 -10 -18 3 -32 16 -15 18 -15 34 0 13 14 14 20 3
32 -7 9 -16 16 -20 16 -4 0 -13 -7 -20 -16z"/>
<path d="M3251 4837 c-9 -11 -8 -17 3 -26 18 -15 48 -3 44 18 -4 21 -32 26
-47 8z"/>
<path d="M1562 4803 c-11 -22 -5 -43 13 -43 19 0 27 17 20 40 -8 25 -21 26
-33 3z"/>
<path d="M3373 4794 c-3 -8 1 -22 9 -30 12 -12 16 -12 33 1 20 15 20 15 1 30
-25 19 -35 19 -43 -1z"/>
<path d="M1439 4744 c-10 -12 -9 -18 4 -31 13 -13 19 -14 31 -3 21 17 20 27
-3 39 -14 8 -22 7 -32 -5z"/>
<path d="M3501 4746 c-16 -19 -7 -46 14 -46 22 0 30 29 13 46 -13 13 -16 13
-27 0z"/>
<path d="M1314 4679 c-3 -6 0 -17 8 -25 12 -12 17 -12 32 -1 11 8 16 19 12 25
-9 15 -43 15 -52 1z"/>
<path d="M3613 4674 c-3 -8 1 -22 9 -30 13 -13 16 -13 27 0 7 9 11 23 7 31 -7
20 -35 19 -43 -1z"/>
<path d="M3732 4623 c-18 -34 9 -58 36 -31 7 7 8 17 1 30 -12 23 -26 23 -37 1z"/>
<path d="M1202 4618 c-8 -8 -9 -15 -1 -25 15 -17 34 -17 48 1 10 12 8 17 -8
25 -24 14 -24 14 -39 -1z"/>
<path d="M1090 4545 c-15 -18 -5 -35 20 -35 10 0 22 5 25 10 7 11 -12 40 -25
40 -4 0 -13 -7 -20 -15z"/>
<path d="M3844 4545 c-7 -18 3 -35 22 -35 20 0 30 30 13 41 -20 12 -29 11 -35
-6z"/>
<path d="M987 4473 c-11 -10 -8 -41 4 -49 6 -3 18 1 27 9 13 13 13 19 2 31
-14 17 -23 20 -33 9z"/>
<path d="M3951 4467 c-8 -10 -7 -19 4 -33 15 -19 15 -19 30 0 11 14 12 23 4
33 -6 7 -15 13 -19 13 -4 0 -13 -6 -19 -13z"/>
<path d="M875 4380 c-4 -7 -3 -16 3 -22 14 -14 47 -6 47 12 0 18 -40 26 -50
10z"/>
<path d="M4052 4373 c4 -20 27 -27 47 -14 19 12 4 31 -25 31 -19 0 -25 -5 -22
-17z"/>
<path d="M781 4291 c-12 -21 -5 -31 19 -31 28 0 42 22 22 36 -23 18 -30 17
-41 -5z"/>
<path d="M4157 4303 c-4 -3 -7 -15 -7 -25 0 -20 25 -24 50 -8 13 8 12 11 -5
24 -23 17 -29 19 -38 9z"/>
<path d="M1648 4230 c-37 -20 -68 -63 -68 -95 0 -42 31 -74 105 -109 59 -28
76 -41 81 -62 4 -15 2 -34 -3 -43 -24 -39 -126 -65 -163 -41 -9 6 -14 23 -13
49 2 34 -1 41 -16 41 -18 0 -31 -39 -31 -92 0 -24 71 -42 142 -35 64 6 110 32
133 77 35 68 13 106 -96 160 -67 34 -79 44 -79 66 0 14 12 36 26 51 22 22 32
25 75 21 59 -6 62 -9 61 -48 0 -23 4 -30 18 -30 14 0 20 10 25 41 4 25 3 45
-3 51 -6 6 -44 13 -84 15 -59 3 -80 0 -110 -17z"/>
<path d="M2860 4235 c-10 -12 -10 -18 0 -30 16 -19 34 -19 51 1 11 14 10 18
-6 30 -24 18 -30 18 -45 -1z"/>
<path d="M3356 4241 c-38 -6 -64 -31 -32 -31 8 0 17 -3 20 -8 2 -4 -9 -70 -24
-147 -32 -154 -36 -191 -19 -197 23 -8 78 5 83 19 5 12 1 14 -19 9 -17 -4 -25
-2 -25 6 0 7 16 87 35 177 38 177 39 182 28 180 -5 -1 -26 -5 -47 -8z"/>
<path d="M4250 4206 c-16 -30 -4 -51 23 -40 20 7 22 24 4 48 -12 16 -14 16
-27 -8z"/>
<path d="M684 4195 c-13 -32 23 -48 47 -19 10 13 10 17 -2 25 -21 13 -39 11
-45 -6z"/>
<path d="M2044 4095 c-40 -43 -48 -44 -39 -5 6 29 5 30 -28 30 -41 0 -67 -8
-67 -21 0 -5 6 -9 14 -9 8 0 17 -4 21 -10 3 -5 -8 -75 -25 -155 -16 -80 -30
-148 -30 -150 0 -3 -6 -5 -14 -5 -7 0 -19 -7 -26 -15 -11 -13 -3 -15 59 -15
56 0 71 3 71 15 0 8 -7 15 -15 15 -22 0 -28 22 -16 53 9 23 16 27 52 27 93 0
160 68 167 170 4 53 2 61 -21 84 -35 35 -63 33 -103 -9z m67 -39 c24 -51 -48
-186 -98 -186 -24 0 -43 19 -43 43 0 41 25 101 56 133 37 40 70 44 85 10z"/>
<path d="M2325 4111 c-73 -34 -105 -86 -105 -170 0 -58 26 -91 72 -91 45 0
138 31 138 46 0 10 -8 10 -35 -2 -53 -22 -92 -18 -111 11 -9 14 -14 31 -11 39
3 8 41 26 85 40 61 21 82 32 91 52 15 34 4 74 -26 85 -34 13 -52 11 -98 -10z
m73 -34 c6 -30 -25 -65 -68 -78 -22 -7 -43 -10 -46 -7 -10 10 24 75 47 92 30
20 63 17 67 -7z"/>
<path d="M2617 4115 c-76 -26 -117 -87 -117 -170 0 -62 32 -95 91 -95 48 0
109 26 109 46 0 12 -5 12 -30 -1 -35 -18 -81 -20 -98 -3 -16 16 -15 101 2 143
18 41 56 67 93 63 20 -2 29 -9 31 -25 2 -13 8 -23 13 -23 15 0 34 49 23 59
-18 17 -79 20 -117 6z"/>
<path d="M3066 4120 c-35 -11 -82 -54 -103 -95 -9 -16 -16 -54 -17 -83 0 -45
3 -57 23 -73 32 -26 74 -24 110 7 29 24 31 25 31 5 0 -41 70 -48 91 -8 10 18
9 19 -15 13 -14 -3 -26 -3 -26 1 0 5 11 51 25 103 14 52 25 99 25 103 0 12
-65 37 -92 36 -13 0 -36 -5 -52 -9z m82 -44 c6 -27 -27 -124 -51 -150 -12 -14
-34 -28 -49 -32 -24 -5 -29 -2 -38 21 -21 55 10 139 65 175 31 21 68 14 73
-14z"/>
<path d="M4341 4111 c-16 -29 3 -58 25 -40 17 14 17 20 0 44 -13 18 -14 18
-25 -4z"/>
<path d="M2790 4105 c-10 -13 -9 -15 9 -15 27 0 27 -15 1 -121 -23 -99 -16
-125 32 -115 17 3 34 6 38 6 4 0 11 7 14 16 5 13 1 15 -19 10 -31 -8 -31 -5 0
122 14 56 25 104 25 107 0 12 -88 4 -100 -10z"/>
<path d="M594 4099 c-3 -6 1 -18 10 -27 15 -15 17 -15 32 0 19 19 11 38 -16
38 -10 0 -22 -5 -26 -11z"/>
<path d="M517 4003 c-24 -23 12 -55 38 -33 12 10 13 16 4 26 -12 15 -31 18
-42 7z"/>
<path d="M4420 3995 c-11 -13 -11 -19 3 -33 20 -19 41 -5 35 24 -4 24 -22 28
-38 9z"/>
<path d="M4502 3898 c-17 -17 -15 -35 4 -42 31 -12 47 21 21 43 -10 8 -17 7
-25 -1z"/>
<path d="M434 3885 c-3 -8 1 -24 9 -36 l15 -21 12 22 c6 12 9 28 6 36 -7 18
-35 18 -42 -1z"/>
<path d="M364 3775 c-4 -9 -2 -21 4 -27 15 -15 44 -1 40 19 -4 23 -36 29 -44
8z"/>
<path d="M4566 3774 c-13 -33 21 -47 45 -18 10 13 10 17 -2 25 -21 13 -36 11
-43 -7z"/>
<path d="M297 3656 c-3 -8 0 -20 8 -26 19 -16 59 8 43 27 -14 17 -45 17 -51
-1z"/>
<path d="M4633 3654 c-9 -24 11 -38 37 -24 17 9 19 14 9 26 -15 19 -38 18 -46
-2z"/>
<path d="M1590 3587 c-51 -17 -123 -93 -143 -152 -58 -170 57 -287 225 -229
26 8 49 22 52 30 7 18 0 18 -58 -2 -91 -31 -155 5 -164 95 -9 92 44 198 115
227 75 32 130 8 118 -53 -5 -28 -3 -33 13 -33 15 0 22 11 29 50 9 46 8 52 -10
62 -30 16 -136 19 -177 5z"/>
<path d="M2173 3583 c-20 -8 -15 -23 7 -23 11 0 20 -5 20 -11 0 -6 -13 -76
-30 -156 -16 -79 -30 -153 -30 -163 0 -25 36 -35 73 -21 34 13 36 34 2 25 -14
-3 -25 -4 -25 -2 0 2 16 79 35 171 19 92 35 172 35 177 0 10 -65 13 -87 3z"/>
<path d="M3430 3575 c-10 -13 -9 -15 9 -15 27 0 27 -4 -9 -177 -16 -79 -30
-151 -30 -159 0 -25 49 -37 76 -19 31 20 31 33 0 28 l-24 -5 38 181 37 181
-42 0 c-26 0 -48 -6 -55 -15z"/>
<path d="M4697 3553 c-11 -10 -8 -41 4 -49 6 -3 18 1 27 9 13 13 13 19 2 31
-14 17 -23 20 -33 9z"/>
<path d="M234 3539 c-3 -6 0 -18 9 -26 12 -12 19 -13 36 -3 18 9 20 14 10 26
-14 17 -45 19 -55 3z"/>
<path d="M2395 3519 c-9 -17 -32 -40 -51 -51 -38 -22 -44 -38 -14 -38 25 0 25
0 0 -110 -11 -49 -17 -95 -14 -104 8 -20 48 -28 78 -14 36 16 34 39 -2 32
l-28 -6 20 101 c16 77 24 101 36 101 9 0 25 7 36 15 18 14 18 14 -10 15 -28 0
-28 1 -24 45 6 52 -5 58 -27 14z"/>
<path d="M3198 3470 c-44 -13 -87 -49 -108 -90 -24 -47 -26 -127 -4 -158 22
-32 79 -30 115 4 l26 25 7 -24 c7 -29 36 -39 67 -23 34 17 37 38 4 30 -23 -6
-26 -4 -21 12 12 38 46 179 46 191 0 26 -85 47 -132 33z m69 -36 c18 -46 -37
-167 -87 -194 -44 -24 -69 75 -35 140 30 58 107 92 122 54z"/>
<path d="M1840 3463 c-34 -6 -50 -23 -22 -23 27 0 28 -19 7 -105 -21 -89 -20
-124 7 -134 12 -4 30 -6 40 -3 22 5 67 47 89 82 16 24 16 24 12 -27 -5 -44 -3
-52 13 -55 32 -6 64 4 75 24 9 17 7 18 -15 12 -32 -8 -32 -9 -1 122 14 58 25
108 25 110 0 2 -8 4 -19 4 -24 0 -37 -16 -50 -67 -14 -51 -70 -134 -102 -150
-22 -12 -24 -11 -27 16 -2 16 6 65 17 109 12 44 21 83 21 86 0 7 -30 6 -70 -1z"/>
<path d="M2518 3463 c-24 -6 -23 -19 3 -26 17 -5 20 -11 15 -29 -3 -13 -14
-60 -23 -106 -20 -93 -16 -102 41 -102 22 0 40 11 72 45 l42 46 -5 -40 c-7
-47 9 -59 59 -45 39 12 52 38 14 28 -14 -3 -26 -3 -26 0 0 3 11 54 25 112 30
126 30 124 7 124 -22 0 -42 -19 -42 -40 0 -50 -97 -190 -131 -190 -14 0 -10
48 11 134 11 43 20 82 20 87 0 9 -51 10 -82 2z"/>
<path d="M2858 3463 c-16 -2 -28 -11 -28 -18 0 -8 6 -12 14 -9 25 10 26 -12 6
-111 -25 -122 -25 -125 4 -125 20 0 24 6 30 41 8 51 37 108 77 154 33 37 49
44 49 21 0 -19 19 -31 30 -20 4 5 10 24 13 42 6 31 5 32 -27 32 -28 0 -41 -8
-74 -47 l-41 -48 9 40 c5 22 10 43 10 48 0 7 -23 7 -72 0z"/>
<path d="M190 3415 c-10 -12 -10 -18 0 -31 12 -13 15 -13 28 0 15 15 10 46 -6
46 -5 0 -15 -7 -22 -15z"/>
<path d="M4750 3414 c-18 -20 6 -50 26 -33 8 6 14 17 14 24 0 19 -27 26 -40 9z"/>
<path d="M142 3298 c-7 -7 -8 -17 -1 -30 12 -22 18 -22 43 -3 20 15 20 15 0
30 -23 18 -27 18 -42 3z"/>
<path d="M4797 3304 c-16 -16 -7 -44 14 -44 15 0 20 5 17 22 -3 22 -19 33 -31
22z"/>
<path d="M104 3165 c-12 -31 23 -48 45 -21 10 12 8 17 -8 25 -26 14 -31 14
-37 -4z"/>
<path d="M4830 3165 c-15 -18 -5 -35 20 -35 10 0 22 5 25 10 7 11 -12 40 -25
40 -4 0 -13 -7 -20 -15z"/>
<path d="M61 3037 c-8 -11 -6 -18 8 -31 17 -16 20 -16 35 0 13 12 14 19 5 30
-15 18 -33 18 -48 1z"/>
<path d="M4873 3043 c-17 -6 -16 -28 0 -42 11 -8 18 -6 31 8 17 18 17 20 -1
29 -10 5 -24 7 -30 5z"/>
<path d="M2234 2925 c-12 -30 23 -46 55 -26 12 8 12 12 2 25 -17 20 -50 21
-57 1z"/>
<path d="M880 2916 c0 -10 9 -16 25 -16 32 0 32 -8 -1 -162 -30 -141 -37 -158
-64 -158 -11 0 -20 -7 -20 -15 0 -12 16 -15 85 -15 69 0 85 3 85 15 0 9 -9 15
-25 15 -29 0 -31 12 -13 92 14 67 21 75 50 56 16 -10 33 -43 52 -97 l28 -81
49 0 c36 0 49 4 49 14 0 8 -10 16 -22 18 -17 2 -28 19 -49 73 -35 88 -35 91
-3 99 66 17 96 97 55 147 -18 23 -27 24 -150 27 -114 3 -131 2 -131 -12z m223
-38 c40 -46 2 -100 -78 -111 -26 -4 -49 -6 -51 -4 -7 7 26 131 38 138 20 13
71 0 91 -23z"/>
<path d="M4890 2915 c-9 -11 -11 -22 -4 -32 13 -21 25 -21 38 -1 8 14 7 21 -5
33 -14 15 -17 15 -29 0z"/>
<path d="M51 2906 c-14 -16 -4 -46 14 -46 16 0 29 35 20 50 -9 14 -20 13 -34
-4z"/>
<path d="M4049 2863 c-13 -21 -36 -44 -52 -51 -32 -15 -36 -32 -7 -32 24 0 24
-3 0 -113 -10 -48 -17 -94 -14 -102 13 -33 104 -24 104 10 0 12 -5 13 -26 4
-15 -5 -28 -8 -29 -7 -2 2 6 49 18 105 21 100 22 102 51 105 38 4 47 28 11 28
-27 0 -27 1 -23 45 3 25 2 45 -2 45 -3 0 -18 -17 -31 -37z"/>
<path d="M1315 2797 c-53 -30 -85 -87 -85 -153 0 -87 64 -124 155 -89 74 28
77 55 4 30 -24 -9 -54 -13 -66 -11 -22 6 -46 56 -34 73 3 6 40 21 81 35 57 19
79 31 90 51 13 24 13 30 0 55 -21 37 -88 42 -145 9z m96 -13 c22 -27 -8 -66
-66 -86 -28 -9 -51 -15 -53 -13 -2 1 4 20 13 41 26 64 77 92 106 58z"/>
<path d="M1605 2802 c-66 -43 -95 -93 -95 -167 0 -49 22 -81 61 -90 21 -5 35
1 64 26 l37 33 -7 -54 c-5 -39 -15 -63 -33 -82 l-26 -28 72 0 c41 0 72 4 72
10 0 6 -7 10 -15 10 -28 0 -27 27 5 181 23 109 29 154 21 162 -6 6 -37 12 -68
14 -45 3 -65 0 -88 -15z m103 -44 c4 -47 -32 -132 -65 -153 -39 -26 -67 -16
-71 24 -6 58 7 99 43 136 26 28 40 36 62 33 24 -3 28 -8 31 -40z"/>
<path d="M1873 2813 c-33 -4 -48 -33 -18 -33 20 0 19 -29 -4 -119 -21 -78 -19
-96 10 -111 27 -15 69 5 109 51 l35 40 -3 -46 -4 -46 43 3 c43 3 69 28 30 28
-26 0 -26 2 4 125 13 55 20 104 15 108 -16 17 -49 -14 -61 -56 -18 -70 -89
-167 -121 -167 -16 0 -1 115 28 213 6 18 4 18 -63 10z"/>
<path d="M2198 2813 c-34 -5 -47 -33 -14 -33 l23 0 -23 -97 c-13 -54 -21 -106
-18 -115 6 -20 53 -24 85 -8 29 16 23 30 -10 24 l-28 -6 22 89 c40 155 40 153
13 152 -13 -1 -35 -4 -50 -6z"/>
<path d="M2363 2810 c-28 -12 -30 -30 -3 -30 11 0 20 -2 20 -4 0 -2 -9 -48
-20 -101 -25 -123 -25 -127 3 -123 17 2 25 13 33 49 14 55 35 96 70 138 30 35
41 38 60 14 16 -22 29 -10 37 35 6 30 5 32 -25 32 -22 0 -40 -10 -64 -36 -19
-19 -34 -40 -34 -45 0 -5 -4 -9 -9 -9 -5 0 -5 16 0 38 5 20 9 40 9 45 0 10
-50 8 -77 -3z"/>
<path d="M2685 2806 c-91 -39 -137 -198 -71 -241 48 -31 122 -27 171 9 31 22
14 26 -42 10 -61 -18 -89 -8 -99 32 -8 32 -3 37 77 63 36 12 74 28 84 35 21
15 24 68 5 90 -15 20 -83 20 -125 2z m83 -36 c4 -36 -16 -58 -70 -74 -52 -15
-55 -12 -34 38 26 63 98 88 104 36z"/>
<path d="M2903 2813 c-28 -5 -30 -33 -3 -33 24 0 24 -3 0 -114 -25 -114 -25
-118 3 -114 17 2 25 13 33 48 16 65 48 123 84 154 53 44 62 19 35 -101 -9 -37
-18 -76 -21 -86 -5 -15 -1 -18 22 -15 24 3 29 10 41 58 15 62 74 155 103 163
28 7 33 -22 15 -91 -8 -33 -15 -76 -15 -97 l0 -36 42 3 c42 3 68 28 29 28 -26
0 -26 11 0 113 25 98 18 127 -33 127 -25 0 -41 -10 -75 -46 l-43 -47 6 32 c17
84 -78 82 -137 -4 l-21 -30 7 48 c6 47 6 47 -22 46 -15 -1 -38 -4 -50 -6z"/>
<path d="M3435 2801 c-85 -53 -122 -164 -74 -225 16 -21 29 -26 63 -26 44 0
101 15 124 33 23 18 5 18 -47 1 -48 -15 -53 -15 -77 0 -18 13 -24 24 -22 44 3
23 12 29 72 49 39 13 78 31 88 40 22 20 23 66 2 87 -21 22 -92 20 -129 -3z
m92 -17 c11 -30 -10 -66 -47 -79 -88 -30 -83 -31 -65 12 27 67 96 108 112 67z"/>
<path d="M3673 2813 c-36 -5 -47 -33 -13 -33 22 0 22 1 -10 -147 l-18 -83 29
0 c25 0 29 4 29 28 0 58 77 184 119 195 29 7 31 -21 8 -116 -17 -71 -19 -88
-8 -101 17 -21 41 -20 71 1 l25 18 -26 5 -26 5 19 80 c10 44 18 96 16 115 -3
32 -6 35 -37 38 -29 3 -40 -3 -82 -48 -38 -39 -48 -45 -45 -28 17 75 14 79
-51 71z"/>
<path d="M30 2780 c-14 -26 0 -46 24 -37 20 8 21 31 2 46 -12 10 -17 8 -26 -9z"/>
<path d="M4912 2778 c-27 -27 -3 -54 31 -36 22 11 22 25 -1 37 -13 7 -23 6
-30 -1z"/>
<path d="M14 2639 c-3 -6 0 -18 9 -26 12 -12 18 -13 35 -2 16 10 18 16 10 26
-13 16 -44 17 -54 2z"/>
<path d="M4917 2643 c-24 -23 12 -55 38 -33 12 10 13 16 4 26 -12 15 -31 18
-42 7z"/>
<path d="M18 2513 c-25 -6 -22 -30 3 -38 25 -8 44 7 36 29 -7 16 -9 17 -39 9z"/>
<path d="M4921 2507 c-8 -10 -7 -18 2 -31 11 -15 15 -15 32 -2 16 12 17 16 6
30 -16 19 -25 20 -40 3z"/>
<path d="M4918 2375 c-10 -21 -9 -28 2 -35 33 -20 56 24 25 50 -12 10 -17 7
-27 -15z"/>
<path d="M20 2375 c-19 -22 5 -48 31 -34 10 5 19 14 19 19 0 5 -9 14 -19 19
-14 8 -22 7 -31 -4z"/>
<path d="M30 2244 c-11 -12 -11 -18 1 -29 20 -20 43 -4 34 24 -8 25 -18 27
-35 5z"/>
<path d="M4904 2239 c-3 -6 1 -18 10 -27 15 -15 17 -15 34 1 15 16 15 19 2 27
-20 13 -37 12 -46 -1z"/>
<path d="M2540 2159 c-64 -26 -100 -91 -100 -185 0 -91 25 -360 60 -649 16
-132 32 -271 36 -308 l6 -68 31 3 32 3 22 185 c77 649 85 728 81 825 -3 69 -9
110 -21 132 -26 50 -99 80 -147 62z"/>
<path d="M51 2116 c-16 -19 -7 -46 14 -46 22 0 30 29 13 46 -13 13 -16 13 -27
0z"/>
<path d="M4886 2103 c-10 -26 9 -38 40 -24 26 11 26 12 8 26 -25 19 -40 19
-48 -2z"/>
<path d="M71 1981 c-14 -26 12 -50 34 -31 11 9 12 16 2 31 -15 24 -24 24 -36
0z"/>
<path d="M4858 1976 c-20 -15 -6 -36 23 -36 21 0 31 24 16 39 -14 14 -18 14
-39 -3z"/>
<path d="M4830 1849 c-10 -17 -9 -23 1 -30 21 -13 34 -5 34 21 0 31 -21 37
-35 9z"/>
<path d="M102 1848 c-13 -13 2 -38 23 -38 21 0 36 25 23 38 -7 7 -17 12 -23
12 -6 0 -16 -5 -23 -12z"/>
<path d="M137 1716 c-9 -23 18 -39 43 -26 17 9 19 14 9 26 -15 18 -45 18 -52
0z"/>
<path d="M4794 1716 c-8 -22 3 -49 19 -43 6 2 12 14 12 27 0 27 -22 39 -31 16z"/>
<path d="M186 1594 c-4 -10 -2 -22 3 -27 14 -14 43 0 39 20 -4 24 -34 28 -42
7z"/>
<path d="M4750 1595 c-15 -18 -5 -35 20 -35 10 0 22 5 25 10 7 11 -12 40 -25
40 -4 0 -13 -7 -20 -15z"/>
<path d="M241 1479 c-11 -18 -10 -24 3 -37 15 -15 17 -15 33 1 16 16 16 18 -2
37 -20 20 -20 20 -34 -1z"/>
<path d="M4703 1483 c-15 -5 -17 -39 -3 -48 11 -7 50 11 50 23 0 12 -34 29
-47 25z"/>
<path d="M300 1354 c-11 -12 -11 -18 2 -30 13 -13 19 -14 36 -3 20 12 20 15 5
31 -20 22 -27 22 -43 2z"/>
<path d="M4637 1363 c-12 -11 -8 -41 6 -46 7 -3 21 1 32 9 18 14 18 14 -1 29
-22 16 -28 18 -37 8z"/>
<path d="M364 1236 c-3 -8 0 -24 6 -36 11 -21 12 -21 25 -3 19 24 18 40 -1 47
-22 8 -24 8 -30 -8z"/>
<path d="M4564 1235 c-12 -29 15 -45 45 -26 12 8 12 12 2 25 -17 20 -40 21
-47 1z"/>
<path d="M440 1125 c-19 -22 5 -48 31 -34 10 5 19 14 19 19 0 5 -9 14 -19 19
-14 8 -22 7 -31 -4z"/>
<path d="M4493 1124 c-3 -8 1 -22 9 -30 12 -12 17 -12 33 0 16 12 17 16 6 30
-17 20 -40 21 -48 0z"/>
<path d="M522 1028 c-19 -19 -15 -48 8 -48 26 0 37 27 18 46 -11 11 -16 12
-26 2z"/>
<path d="M4416 1014 c-9 -23 19 -53 35 -37 15 15 7 47 -12 51 -9 2 -19 -5 -23
-14z"/>
<path d="M594 909 c-3 -6 1 -18 10 -27 15 -15 17 -15 32 0 9 9 13 21 10 27 -9
14 -43 14 -52 0z"/>
<path d="M4334 909 c-3 -6 1 -18 10 -27 15 -15 17 -15 32 0 19 19 11 38 -16
38 -10 0 -22 -5 -26 -11z"/>
<path d="M690 815 c-19 -22 5 -48 31 -34 10 5 19 14 19 19 0 5 -9 14 -19 19
-14 8 -22 7 -31 -4z"/>
<path d="M4250 814 c-11 -12 -11 -18 1 -30 13 -12 18 -12 34 0 16 12 17 16 6
30 -17 20 -25 20 -41 0z"/>
<path d="M2533 759 c-80 -23 -112 -133 -57 -198 99 -119 285 14 204 146 -30
49 -87 70 -147 52z"/>
<path d="M783 714 c-9 -24 11 -38 37 -24 17 9 19 14 9 26 -15 19 -38 18 -46
-2z"/>
<path d="M4155 720 c-8 -12 3 -50 14 -50 15 0 33 30 27 45 -6 17 -32 20 -41 5z"/>
<path d="M874 629 c-3 -6 0 -18 9 -26 12 -12 19 -13 38 -3 22 12 22 13 4 26
-23 17 -41 18 -51 3z"/>
<path d="M4054 625 c-13 -32 23 -48 47 -19 10 13 10 17 -2 25 -21 13 -39 11
-45 -6z"/>
<path d="M984 545 c-12 -30 16 -45 46 -25 13 9 12 12 -4 25 -25 19 -35 19 -42
0z"/>
<path d="M3954 545 c-12 -31 23 -48 45 -21 10 12 8 17 -8 25 -26 14 -31 14
-37 -4z"/>
<path d="M1083 464 c-3 -8 2 -23 11 -32 16 -16 18 -16 31 2 11 14 12 23 4 33
-15 18 -38 16 -46 -3z"/>
<path d="M3847 473 c-11 -10 -8 -41 4 -49 16 -9 41 20 33 39 -6 17 -25 22 -37
10z"/>
<path d="M1202 397 c-9 -10 -7 -19 4 -36 l16 -22 15 21 c12 16 12 24 3 35 -15
18 -24 19 -38 2z"/>
<path d="M3737 403 c-11 -10 -8 -41 4 -49 6 -3 18 1 27 9 13 13 13 19 2 31
-14 17 -23 20 -33 9z"/>
<path d="M1322 339 c-12 -18 -11 -24 1 -36 29 -29 49 6 25 40 -12 16 -14 16
-26 -4z"/>
<path d="M3613 324 c-3 -8 1 -22 9 -30 13 -13 16 -13 27 0 7 9 11 23 7 31 -7
20 -35 19 -43 -1z"/>
<path d="M3500 280 c-9 -16 -9 -25 1 -36 11 -13 14 -13 27 0 13 12 13 17 -1
36 l-15 22 -12 -22z"/>
<path d="M1436 271 c-9 -14 4 -41 19 -41 17 0 38 27 30 40 -8 12 -42 13 -49 1z"/>
<path d="M1557 216 c-3 -8 1 -20 9 -27 12 -10 18 -9 32 5 15 15 15 18 2 26
-21 14 -37 12 -43 -4z"/>
<path d="M3381 221 c-16 -10 -8 -41 11 -41 7 0 19 4 27 9 12 8 12 12 2 25 -15
18 -21 19 -40 7z"/>
<path d="M1687 176 c-14 -14 -14 -20 -4 -36 15 -25 19 -25 34 -1 9 15 9 23 -1
36 -11 16 -13 16 -29 1z"/>
<path d="M3249 174 c-10 -12 -9 -18 3 -31 14 -14 19 -14 37 -1 17 12 19 17 9
25 -27 21 -36 22 -49 7z"/>
<path d="M1810 139 c-10 -17 -9 -24 3 -36 8 -9 20 -12 26 -9 16 10 14 41 -3
55 -12 10 -17 8 -26 -10z"/>
<path d="M3124 134 c-8 -32 14 -50 34 -30 12 11 12 17 0 35 -17 28 -26 27 -34
-5z"/>
<path d="M2996 101 c-15 -17 -15 -19 0 -31 11 -10 20 -11 32 -4 23 15 24 28 3
41 -15 10 -22 9 -35 -6z"/>
<path d="M1934 99 c-3 -6 1 -18 10 -27 15 -15 17 -15 32 0 19 19 11 38 -16 38
-10 0 -22 -5 -26 -11z"/>
<path d="M2069 74 c-10 -12 -9 -18 3 -31 19 -18 38 -10 38 17 0 24 -25 33 -41
14z"/>
<path d="M2860 75 c-6 -8 -9 -19 -5 -25 8 -13 42 -13 50 0 7 11 -12 40 -25 40
-4 0 -13 -7 -20 -15z"/>
<path d="M2731 61 c-8 -14 -7 -22 4 -31 22 -19 48 5 34 31 -12 24 -26 24 -38
0z"/>
<path d="M2201 56 c-14 -17 9 -39 33 -30 20 8 21 30 0 38 -21 8 -20 8 -33 -8z"/>
<path d="M2334 45 c-12 -29 15 -45 45 -26 12 8 12 12 2 25 -17 20 -40 21 -47
1z"/>
<path d="M2601 46 c-18 -22 11 -41 40 -25 22 11 22 12 4 25 -24 17 -30 17 -44
0z"/>
<path d="M2460 41 c0 -37 32 -55 44 -25 10 27 7 34 -19 34 -14 0 -25 -4 -25
-9z"/>
</g>
</svg>
