<?xml version="1.0" standalone="no"?>
<!DOCTYPE svg PUBLIC "-//W3C//DTD SVG 20010904//EN"
 "http://www.w3.org/TR/2001/REC-SVG-20010904/DTD/svg10.dtd">
<svg version="1.0" xmlns="http://www.w3.org/2000/svg"
 width="500.000000pt" height="498.000000pt" viewBox="0 0 500.000000 498.000000"
 preserveAspectRatio="xMidYMid meet">
<metadata>
Created by potrace 1.15, written by Peter Selinger 2001-2017
</metadata>
<g transform="translate(0.000000,498.000000) scale(0.100000,-0.100000)"
fill="#000000" stroke="none">
<path d="M2622 4968 c-15 -15 -15 -45 -1 -54 6 -3 18 0 26 9 14 13 14 18 1 36
-11 16 -17 18 -26 9z"/>
<path d="M2350 4955 c-15 -18 -7 -45 13 -45 14 0 44 28 36 33 -2 1 -11 8 -20
15 -13 10 -19 9 -29 -3z"/>
<path d="M2479 4954 c-10 -12 -9 -18 4 -31 13 -13 19 -14 31 -3 21 17 20 27
-3 39 -14 8 -22 7 -32 -5z"/>
<path d="M2217 4953 c-11 -10 -8 -41 3 -48 19 -12 41 15 29 36 -10 20 -21 24
-32 12z"/>
<path d="M2744 4939 c-3 -6 1 -18 10 -27 15 -15 17 -15 34 1 15 16 15 19 2 27
-20 13 -37 12 -46 -1z"/>
<path d="M2081 4921 c-16 -28 14 -51 36 -28 13 13 14 19 3 31 -17 21 -27 20
-39 -3z"/>
<path d="M2881 4921 c-14 -26 12 -50 34 -31 20 17 19 27 -5 40 -15 8 -21 6
-29 -9z"/>
<path d="M1951 4896 c-11 -14 -5 -46 9 -46 15 0 32 30 26 45 -7 19 -20 19 -35
1z"/>
<path d="M3010 4895 c-6 -8 -9 -19 -5 -25 9 -15 41 -12 54 4 10 12 8 17 -8 25
-25 14 -26 14 -41 -4z"/>
<path d="M1820 4870 c-14 -26 0 -46 24 -37 20 8 21 31 2 46 -12 10 -17 8 -26
-9z"/>
<path d="M3140 4865 c-15 -18 -5 -35 20 -35 10 0 22 5 25 10 7 11 -12 40 -25
40 -4 0 -13 -7 -20 -15z"/>
<path d="M3271 4836 c-16 -19 -7 -46 14 -46 22 0 30 29 13 46 -13 13 -16 13
-27 0z"/>
<path d="M1690 4825 c-6 -8 -9 -19 -5 -25 9 -15 41 -12 54 4 10 12 8 17 -8 25
-25 14 -26 14 -41 -4z"/>
<path d="M1563 4774 c-3 -8 1 -22 9 -30 13 -13 16 -13 27 0 7 9 11 23 7 31 -7
20 -35 19 -43 -1z"/>
<path d="M3391 4777 c-8 -10 -7 -19 4 -33 15 -19 15 -19 30 0 11 14 12 23 4
33 -6 7 -15 13 -19 13 -4 0 -13 -6 -19 -13z"/>
<path d="M3514 4735 c-8 -21 2 -45 20 -45 19 0 29 29 15 46 -15 18 -28 18 -35
-1z"/>
<path d="M1442 4728 c-13 -13 2 -38 23 -38 21 0 36 25 23 38 -7 7 -17 12 -23
12 -6 0 -16 -5 -23 -12z"/>
<path d="M3635 4669 c-8 -26 6 -42 28 -33 20 7 22 25 5 42 -17 17 -26 15 -33
-9z"/>
<path d="M1324 4665 c-12 -29 15 -45 45 -26 12 8 12 12 2 25 -17 20 -40 21
-47 1z"/>
<path d="M1204 4599 c-3 -6 0 -18 9 -26 12 -12 18 -13 35 -2 16 10 18 16 10
26 -13 16 -44 17 -54 2z"/>
<path d="M3747 4596 c-3 -8 1 -20 9 -27 11 -9 18 -8 34 6 16 14 17 20 8 27
-20 12 -45 9 -51 -6z"/>
<path d="M1095 4530 c-8 -12 3 -50 14 -50 5 0 14 7 21 15 10 12 10 18 0 30
-14 17 -26 19 -35 5z"/>
<path d="M3857 4526 c-3 -8 1 -20 9 -27 12 -10 18 -9 31 3 8 9 12 21 9 27 -10
16 -43 14 -49 -3z"/>
<path d="M990 4455 c-19 -22 5 -48 31 -34 10 5 19 14 19 19 0 5 -9 14 -19 19
-14 8 -22 7 -31 -4z"/>
<path d="M3970 4454 c-11 -12 -11 -18 2 -30 13 -13 19 -14 36 -3 20 12 20 15
5 31 -20 22 -27 22 -43 2z"/>
<path d="M884 4365 c-4 -9 -2 -21 3 -26 14 -14 45 1 41 20 -4 22 -37 26 -44 6z"/>
<path d="M4075 4370 c-8 -12 3 -50 14 -50 15 0 33 30 27 45 -6 17 -32 20 -41
5z"/>
<path d="M792 4298 c-15 -15 -15 -45 -1 -54 6 -3 18 0 26 9 14 13 14 18 1 36
-11 16 -17 18 -26 9z"/>
<path d="M4167 4276 c-9 -23 18 -39 42 -26 25 13 27 26 5 34 -25 10 -41 7 -47
-8z"/>
<path d="M2877 4230 c-18 -26 -12 -50 13 -50 32 0 43 25 22 50 l-19 23 -16
-23z"/>
<path d="M1665 4222 c-50 -24 -64 -41 -72 -86 -8 -50 16 -82 89 -116 105 -50
121 -79 69 -131 -25 -24 -38 -29 -80 -29 -61 0 -86 20 -77 62 5 23 2 28 -14
28 -13 0 -21 -9 -25 -27 -16 -75 -17 -71 22 -82 53 -15 138 -14 177 3 39 16
72 56 81 96 11 51 -12 80 -100 125 -71 36 -80 43 -83 71 -4 38 23 64 75 70 57
7 89 -14 85 -54 -3 -23 1 -32 12 -32 19 0 24 8 32 57 7 47 1 52 -91 59 -46 4
-70 0 -100 -14z"/>
<path d="M3330 4215 c-10 -13 -9 -15 9 -15 28 0 27 -9 -9 -182 -16 -78 -30
-149 -30 -156 0 -23 50 -34 76 -17 32 20 30 33 -2 27 -22 -4 -25 -2 -20 14 3
11 21 92 39 182 l34 162 -42 0 c-26 0 -48 -6 -55 -15z"/>
<path d="M692 4193 c-11 -22 -5 -43 13 -43 19 0 27 17 20 40 -8 25 -21 26 -33
3z"/>
<path d="M4271 4196 c-16 -19 -7 -46 14 -46 22 0 30 29 13 46 -13 13 -16 13
-27 0z"/>
<path d="M2361 4110 c-78 -18 -124 -76 -129 -163 -5 -77 17 -107 77 -107 48 0
128 27 135 46 7 18 -2 17 -34 -1 -14 -8 -44 -14 -66 -15 -37 0 -43 3 -54 29
-6 17 -9 34 -6 39 3 6 38 20 76 31 78 24 110 49 110 85 0 24 -23 56 -40 56 -5
0 -14 2 -22 4 -7 2 -28 0 -47 -4z m50 -36 c22 -27 -8 -66 -66 -86 -28 -9 -51
-12 -53 -8 -2 5 4 25 14 45 28 59 77 82 105 49z"/>
<path d="M3094 4110 c-77 -17 -134 -95 -134 -183 0 -83 72 -117 131 -61 l26
25 7 -25 c5 -21 12 -26 39 -26 30 0 57 14 57 31 0 3 -11 4 -24 2 l-24 -5 24
93 c13 52 24 102 24 111 0 30 -69 51 -126 38z m60 -76 c-2 -63 -25 -115 -63
-137 -39 -23 -58 -21 -67 6 -25 73 43 192 105 185 24 -3 26 -6 25 -54z"/>
<path d="M1951 4101 c-14 -4 -26 -12 -29 -19 -2 -7 2 -10 11 -6 8 3 18 1 21
-5 3 -5 -7 -74 -24 -153 -23 -109 -35 -146 -50 -157 -34 -23 -22 -31 50 -31
73 0 87 9 45 28 -28 13 -29 19 -15 56 8 23 15 26 58 26 62 0 107 29 139 89 27
52 31 126 7 159 -25 37 -77 30 -120 -15 l-35 -38 7 38 c6 34 5 37 -17 36 -13
-1 -35 -4 -48 -8z m169 -52 c20 -37 -18 -142 -62 -173 -77 -54 -105 34 -41
131 39 61 84 79 103 42z"/>
<path d="M2602 4093 c-89 -44 -125 -195 -56 -239 30 -21 93 -20 133 1 33 16
44 43 14 29 -38 -16 -90 -16 -106 1 -35 34 -15 137 36 183 33 31 81 27 85 -6
2 -15 9 -22 20 -20 21 4 29 48 10 59 -22 14 -101 10 -136 -8z"/>
<path d="M2823 4100 c-29 -12 -31 -34 -3 -25 26 8 26 1 -5 -112 -13 -51 -22
-99 -19 -107 8 -20 44 -27 72 -13 27 13 27 33 0 29 -23 -4 -23 -8 11 126 l29
112 -32 -1 c-17 0 -41 -4 -53 -9z"/>
<path d="M4360 4095 c-15 -18 -6 -45 14 -45 20 0 29 16 21 40 -8 24 -18 25
-35 5z"/>
<path d="M603 4089 c-15 -15 -5 -39 17 -39 26 0 43 23 28 38 -15 15 -31 15
-45 1z"/>
<path d="M520 3995 c-9 -11 -11 -22 -4 -32 13 -21 25 -21 38 -1 8 14 7 21 -5
33 -14 15 -17 15 -29 0z"/>
<path d="M4441 3986 c-10 -12 -10 -19 2 -36 12 -18 16 -18 26 -6 14 17 11 48
-5 53 -6 2 -17 -3 -23 -11z"/>
<path d="M440 3875 c-15 -18 -5 -35 20 -35 10 0 22 5 25 10 7 11 -12 40 -25
40 -4 0 -13 -7 -20 -15z"/>
<path d="M4520 3875 c-9 -11 -9 -19 3 -36 l15 -21 12 22 c20 38 -4 67 -30 35z"/>
<path d="M4590 3770 c-12 -23 -6 -40 15 -40 19 0 27 17 20 40 -8 26 -21 25
-35 0z"/>
<path d="M370 3765 c-15 -18 -5 -35 20 -35 10 0 22 5 25 10 7 11 -12 40 -25
40 -4 0 -13 -7 -20 -15z"/>
<path d="M4659 3657 c-16 -34 0 -58 26 -37 19 15 19 21 1 45 -14 19 -15 19
-27 -8z"/>
<path d="M301 3647 c-8 -10 -7 -19 4 -33 14 -19 14 -19 29 1 22 31 -8 61 -33
32z"/>
<path d="M2530 3580 c-38 -7 -83 -28 -62 -31 6 -1 18 -2 25 -3 6 0 12 -7 11
-13 -1 -7 -2 -26 -2 -43 -2 -29 -3 -30 -55 -30 -65 0 -118 -32 -147 -90 -24
-47 -26 -126 -4 -158 22 -32 79 -30 116 5 l27 26 10 -26 c6 -16 18 -27 28 -27
33 0 63 12 63 25 0 8 -8 11 -20 8 -27 -7 -26 -3 15 188 20 89 34 165 33 169
-2 3 -19 3 -38 0z m-66 -146 c19 -7 20 -43 5 -98 -13 -49 -43 -90 -75 -105
-20 -9 -28 -7 -44 9 -26 26 -25 48 5 117 34 77 61 96 109 77z"/>
<path d="M2696 3572 c-18 -21 -5 -42 25 -42 25 0 43 25 27 37 -28 21 -36 22
-52 5z"/>
<path d="M3420 3565 c-10 -12 -10 -15 3 -15 9 0 18 -4 22 -10 3 -5 -8 -75 -25
-155 -16 -80 -30 -155 -30 -165 0 -25 36 -35 73 -21 34 13 36 34 2 25 -14 -3
-25 -4 -25 -1 0 3 16 78 35 167 19 89 35 168 35 176 0 19 -73 19 -90 -1z"/>
<path d="M1517 3563 c-15 -14 -6 -23 24 -23 21 0 30 -4 26 -12 -2 -7 -21 -74
-42 -148 -41 -146 -48 -160 -76 -160 -11 0 -19 -7 -19 -15 0 -21 108 -21 136
0 19 14 19 14 -2 15 -43 0 -45 20 -13 136 17 60 33 116 36 124 8 21 18 -29 34
-166 l12 -114 28 0 c25 0 33 12 100 143 46 88 75 135 77 123 6 -29 -19 -220
-30 -233 -6 -7 -19 -13 -30 -13 -11 0 -18 -5 -16 -12 3 -9 29 -13 83 -13 54 0
80 4 82 13 3 7 -5 12 -21 12 -14 0 -26 4 -26 9 0 31 31 295 36 302 3 5 14 9
25 9 10 0 19 7 19 15 0 12 -13 15 -55 15 -64 0 -58 8 -152 -177 -32 -62 -61
-113 -64 -113 -3 0 -9 26 -13 58 -3 31 -11 96 -18 145 l-11 87 -62 0 c-34 0
-65 -3 -68 -7z"/>
<path d="M241 3526 c-18 -21 11 -41 39 -26 17 9 19 14 9 26 -15 18 -33 18 -48
0z"/>
<path d="M4714 3525 c-13 -32 23 -48 47 -19 10 13 10 17 -2 25 -21 13 -39 11
-45 -6z"/>
<path d="M2131 3460 c-92 -22 -154 -123 -130 -212 11 -43 34 -58 88 -61 45 -1
121 30 121 50 0 11 -5 11 -30 -2 -16 -8 -47 -15 -70 -15 -35 0 -42 4 -51 27
-5 14 -8 32 -5 39 3 7 37 22 76 34 103 31 134 70 93 118 -23 26 -49 32 -92 22z
m47 -50 c4 -36 -16 -58 -70 -74 -52 -15 -55 -12 -34 38 26 63 98 88 104 36z"/>
<path d="M3191 3459 c-121 -25 -187 -205 -98 -264 28 -18 67 -8 105 27 l22 21
0 -22 c0 -41 70 -48 91 -9 9 17 7 18 -15 12 -31 -8 -31 -11 -1 106 14 52 25
98 25 101 0 18 -86 37 -129 28z m64 -39 c10 -32 -23 -130 -55 -161 -87 -88
-127 58 -41 150 35 37 86 43 96 11z"/>
<path d="M2638 3453 c-10 -2 -18 -10 -18 -18 0 -8 7 -11 20 -8 24 6 24 6 0
-87 -27 -103 -26 -138 3 -145 26 -7 77 10 77 25 0 6 -10 8 -25 4 -31 -8 -31
-5 0 116 14 52 25 101 25 108 0 12 -45 15 -82 5z"/>
<path d="M2859 3437 c-46 -31 -79 -91 -79 -145 0 -56 14 -80 55 -98 29 -12 40
-11 84 2 45 13 69 29 59 39 -2 2 -23 -3 -47 -11 -39 -13 -46 -13 -67 1 -49 32
-21 172 41 205 30 16 58 9 70 -18 13 -30 31 -28 39 5 9 34 -5 43 -70 43 -37 0
-61 -6 -85 -23z"/>
<path d="M187 3407 c-9 -23 8 -40 32 -32 25 8 28 30 5 39 -23 9 -31 7 -37 -7z"/>
<path d="M4763 3404 c-10 -26 13 -39 43 -25 26 11 26 12 8 26 -25 19 -43 19
-51 -1z"/>
<path d="M147 3293 c-12 -11 -8 -41 6 -46 7 -3 22 2 32 10 20 14 20 14 1 29
-22 16 -30 17 -39 7z"/>
<path d="M4821 3286 c-16 -19 -8 -46 13 -46 20 0 29 31 13 47 -12 12 -16 12
-26 -1z"/>
<path d="M102 3158 c-8 -8 -9 -15 -1 -25 15 -17 34 -17 48 1 10 12 8 17 -8 25
-24 14 -24 14 -39 -1z"/>
<path d="M4854 3155 c-12 -31 23 -48 45 -21 10 12 8 17 -8 25 -26 14 -31 14
-37 -4z"/>
<path d="M77 3033 c-11 -10 -8 -41 4 -49 6 -3 18 1 27 9 13 13 13 19 2 31 -14
17 -23 20 -33 9z"/>
<path d="M4891 3031 c-12 -8 -13 -14 -2 -37 12 -27 12 -27 26 -6 8 11 12 27 9
36 -7 18 -13 19 -33 7z"/>
<path d="M2255 2927 c-37 -28 5 -63 45 -37 13 8 12 12 -5 30 -18 18 -23 19
-40 7z"/>
<path d="M963 2922 c-65 -2 -83 -6 -83 -17 0 -9 10 -15 24 -15 14 0 27 -4 30
-8 7 -12 -52 -282 -65 -298 -6 -8 -20 -14 -30 -14 -24 0 -25 -19 -1 -22 9 0
47 -2 85 -2 58 -1 67 1 67 16 0 13 -8 18 -25 18 -30 0 -30 -7 0 128 3 13 13
22 25 22 24 0 41 -26 71 -112 l23 -68 53 0 c29 0 53 5 53 10 0 6 -8 10 -19 10
-25 0 -33 13 -64 96 l-25 71 34 12 c37 13 74 54 74 82 0 27 -21 67 -39 75 -29
13 -105 19 -188 16z m122 -36 c30 -13 35 -20 35 -50 0 -47 -37 -76 -96 -76
-49 0 -49 1 -33 70 9 41 30 70 51 70 5 0 24 -7 43 -14z"/>
<path d="M51 2906 c-16 -19 -7 -46 14 -46 22 0 30 29 13 46 -13 13 -16 13 -27
0z"/>
<path d="M4910 2895 c-6 -8 -9 -19 -5 -25 9 -15 41 -12 54 4 10 12 8 17 -8 25
-25 14 -26 14 -41 -4z"/>
<path d="M4065 2850 c-14 -22 -36 -42 -50 -46 -30 -7 -34 -34 -5 -34 24 0 24
9 0 -101 -11 -50 -18 -99 -15 -109 8 -24 43 -32 74 -17 37 18 39 38 3 31 l-30
-6 21 101 c17 81 25 101 38 101 25 0 49 11 49 21 0 5 -12 9 -26 9 -26 0 -26 2
-22 45 3 25 2 45 -3 45 -5 0 -20 -18 -34 -40z"/>
<path d="M1375 2811 c-67 -16 -116 -64 -136 -131 -15 -50 1 -114 33 -131 33
-18 102 -14 139 7 47 28 50 48 5 29 -56 -24 -104 -20 -118 9 -6 14 -8 31 -5
39 3 8 42 27 87 42 89 30 109 51 90 100 -7 20 -52 50 -63 44 -1 -1 -15 -4 -32
-8z m43 -57 c4 -36 -7 -46 -70 -67 -53 -17 -60 -10 -37 36 37 72 101 91 107
31z"/>
<path d="M1651 2809 c-72 -15 -131 -91 -133 -172 -1 -53 15 -85 48 -97 30 -12
51 -5 88 29 l28 26 -7 -50 c-7 -51 -28 -95 -45 -95 -6 0 -10 -4 -10 -10 0 -6
30 -10 70 -10 68 0 91 12 49 25 -26 8 -24 32 17 212 14 64 22 119 17 124 -15
14 -87 25 -122 18z m66 -35 c3 -9 0 -41 -7 -72 -22 -100 -110 -159 -134 -90
-12 34 16 112 55 151 31 30 76 36 86 11z"/>
<path d="M2735 2811 c-65 -16 -106 -54 -130 -120 -30 -87 8 -155 87 -153 53 1
118 27 118 47 0 14 -3 14 -30 0 -45 -23 -97 -20 -115 9 -24 36 -9 53 66 76 38
11 79 30 89 40 52 52 -5 120 -85 101z m49 -37 c12 -32 -17 -68 -69 -85 -28 -9
-51 -12 -53 -8 -6 14 30 79 52 94 27 20 62 19 70 -1z"/>
<path d="M3074 2810 c-11 -5 -37 -27 -58 -51 l-36 -43 6 47 c7 47 7 47 -23 47
-33 0 -83 -29 -50 -30 22 0 22 -15 -3 -135 -11 -53 -20 -99 -20 -101 0 -2 8
-4 18 -4 25 0 42 20 42 50 0 54 84 180 120 180 16 0 16 -38 -1 -120 -23 -110
-23 -112 3 -108 15 2 26 13 32 33 25 87 42 120 76 156 20 21 42 39 48 39 17 0
15 -67 -3 -126 -20 -66 -19 -91 5 -104 15 -8 27 -8 47 2 30 15 32 35 3 30 -24
-4 -24 -8 1 90 24 96 22 138 -7 148 -29 11 -81 -16 -109 -58 l-24 -35 -3 43
c-3 47 -25 64 -64 50z"/>
<path d="M3490 2808 c-83 -23 -130 -87 -130 -176 0 -64 29 -94 92 -94 52 -1
118 25 118 47 0 14 -3 14 -30 0 -45 -23 -97 -20 -115 9 -24 37 -10 52 73 78
58 18 80 30 91 49 21 37 8 75 -30 88 -18 6 -32 11 -33 10 -1 0 -17 -5 -36 -11z
m48 -43 c7 -32 -19 -64 -64 -79 -25 -8 -46 -11 -49 -6 -11 18 34 88 62 98 35
13 47 10 51 -13z"/>
<path d="M3830 2802 c-18 -9 -46 -34 -61 -55 -32 -43 -32 -43 -20 22 l9 43
-37 -6 c-20 -3 -42 -6 -48 -6 -7 0 -13 -7 -13 -15 0 -9 6 -12 15 -9 11 5 15
-1 15 -19 0 -22 -17 -117 -35 -194 -4 -19 -1 -23 19 -23 21 0 27 8 45 68 27
89 81 160 124 162 12 0 8 -55 -8 -117 -20 -76 -19 -100 5 -113 15 -8 27 -8 47
2 37 18 43 41 9 32 -31 -7 -31 -12 -5 88 33 132 14 176 -61 140z"/>
<path d="M1860 2798 c-25 -11 -25 -11 -2 -15 27 -5 28 -22 3 -123 -20 -82 -18
-106 10 -120 26 -14 59 2 102 49 l38 42 -3 -36 c-1 -19 3 -40 9 -46 15 -15 83
-2 83 15 0 9 -9 12 -24 9 l-24 -5 23 93 c39 158 38 149 16 149 -25 0 -38 -18
-55 -73 -22 -74 -103 -173 -124 -152 -12 12 3 101 34 208 4 14 -1 17 -28 16
-18 0 -44 -5 -58 -11z"/>
<path d="M2193 2803 c-7 -2 -13 -11 -13 -19 0 -7 6 -11 14 -8 24 9 24 -9 0
-101 -13 -49 -24 -98 -24 -108 0 -25 44 -40 75 -25 30 14 34 39 5 31 -26 -7
-25 0 5 122 14 55 25 103 25 108 0 8 -68 8 -87 0z"/>
<path d="M2378 2803 c-16 -2 -28 -11 -28 -18 0 -8 6 -12 14 -9 25 10 26 -12 6
-111 -25 -120 -25 -125 0 -125 22 0 40 28 40 62 0 31 53 121 87 148 l27 21 8
-20 c14 -38 31 -27 43 27 6 31 5 32 -26 32 -23 0 -40 -9 -65 -36 -19 -19 -34
-40 -34 -45 0 -5 -4 -9 -9 -9 -5 0 -5 16 0 38 5 20 9 40 9 45 0 7 -23 7 -72 0z"/>
<path d="M30 2765 c-22 -26 7 -46 39 -26 12 8 12 12 2 25 -17 20 -25 20 -41 1z"/>
<path d="M4930 2765 c-15 -18 -5 -35 20 -35 10 0 22 5 25 10 7 11 -12 40 -25
40 -4 0 -13 -7 -20 -15z"/>
<path d="M20 2634 c-11 -12 -11 -18 2 -30 13 -13 19 -14 36 -3 20 12 20 15 5
31 -20 22 -27 22 -43 2z"/>
<path d="M4941 2636 c-9 -11 -10 -20 -1 -35 13 -26 22 -26 37 -2 10 15 9 22
-6 35 -16 14 -20 15 -30 2z"/>
<path d="M13 2503 c-21 -8 -15 -30 9 -36 22 -6 41 9 35 28 -4 12 -26 16 -44 8z"/>
<path d="M4941 2497 c-8 -10 -7 -19 4 -33 15 -19 15 -19 30 0 11 14 12 23 4
33 -6 7 -15 13 -19 13 -4 0 -13 -6 -19 -13z"/>
<path d="M20 2365 c-23 -28 21 -50 48 -23 9 9 7 14 -6 24 -22 17 -27 17 -42
-1z"/>
<path d="M4940 2365 c-23 -28 21 -50 48 -23 9 9 7 14 -6 24 -22 17 -27 17 -42
-1z"/>
<path d="M31 2236 c-15 -18 -3 -48 18 -44 21 4 27 44 7 51 -8 3 -19 0 -25 -7z"/>
<path d="M4925 2230 c-3 -5 -1 -19 6 -31 10 -19 12 -20 26 -6 9 9 13 23 10 31
-7 18 -32 21 -42 6z"/>
<path d="M2544 2151 c-32 -14 -72 -68 -85 -114 -14 -51 6 -326 51 -699 16
-134 32 -276 36 -315 l7 -73 37 0 37 0 6 98 c3 53 22 228 42 387 46 359 56
592 28 644 -32 61 -106 94 -159 72z"/>
<path d="M43 2094 c-3 -8 1 -22 9 -30 13 -13 16 -13 27 0 7 9 11 23 7 31 -7
20 -35 19 -43 -1z"/>
<path d="M4907 2103 c-10 -9 -8 -15 8 -37 15 -20 15 -20 29 0 21 27 -13 61
-37 37z"/>
<path d="M70 1974 c-11 -12 -10 -18 3 -32 16 -15 18 -15 34 0 13 14 14 20 3
32 -7 9 -16 16 -20 16 -4 0 -13 -7 -20 -16z"/>
<path d="M4880 1970 c-13 -8 -13 -11 3 -27 16 -16 18 -16 33 -1 28 27 -1 50
-36 28z"/>
<path d="M106 1851 c-15 -17 -16 -23 -6 -36 9 -11 17 -12 31 -4 22 12 23 19 6
43 -12 16 -14 16 -31 -3z"/>
<path d="M4856 1841 c-15 -17 -15 -19 0 -31 11 -10 20 -11 32 -4 23 15 24 28
3 41 -15 10 -22 9 -35 -6z"/>
<path d="M4822 1728 c-16 -16 -15 -33 2 -47 21 -18 41 11 26 38 -13 25 -12 25
-28 9z"/>
<path d="M141 1716 c-9 -11 -8 -18 5 -30 15 -16 18 -16 36 1 18 16 18 18 2 30
-23 16 -29 16 -43 -1z"/>
<path d="M190 1594 c-11 -12 -10 -18 3 -32 21 -21 42 -3 32 27 -8 25 -18 27
-35 5z"/>
<path d="M4764 1585 c-4 -9 0 -24 10 -33 15 -15 18 -15 26 -2 6 8 9 22 7 30
-3 21 -36 25 -43 5z"/>
<path d="M241 1471 c-14 -26 12 -50 34 -31 11 9 12 17 4 31 -5 10 -14 19 -19
19 -5 0 -14 -9 -19 -19z"/>
<path d="M4717 1473 c-24 -23 12 -55 38 -33 12 10 13 16 4 26 -12 15 -31 18
-42 7z"/>
<path d="M4660 1356 c-16 -30 -2 -53 24 -43 19 8 20 27 3 51 -12 16 -14 16
-27 -8z"/>
<path d="M302 1347 c-7 -8 -7 -18 -2 -27 7 -12 13 -12 37 -1 27 12 27 13 8 27
-23 17 -30 17 -43 1z"/>
<path d="M4592 1240 c-15 -25 -8 -40 19 -40 19 0 24 15 13 44 -8 21 -17 20
-32 -4z"/>
<path d="M370 1235 c-19 -22 5 -48 31 -34 24 12 24 21 0 36 -15 10 -22 9 -31
-2z"/>
<path d="M4521 1126 c-13 -16 -4 -46 13 -46 13 0 36 20 36 32 0 4 -9 12 -19
17 -14 8 -22 7 -30 -3z"/>
<path d="M434 1119 c-3 -6 1 -18 10 -27 15 -15 17 -15 34 1 15 16 15 19 2 27
-20 13 -37 12 -46 -1z"/>
<path d="M521 1017 c-15 -15 -14 -32 2 -46 16 -13 37 4 37 30 0 21 -24 31 -39
16z"/>
<path d="M4440 1015 c-15 -18 -5 -35 20 -35 10 0 22 5 25 10 7 11 -12 40 -25
40 -4 0 -13 -7 -20 -15z"/>
<path d="M597 906 c-3 -8 0 -20 8 -26 19 -16 59 8 43 27 -14 17 -45 17 -51 -1z"/>
<path d="M4357 913 c-4 -3 -7 -15 -7 -25 0 -21 32 -25 49 -5 17 22 -22 50 -42
30z"/>
<path d="M687 806 c-3 -8 0 -20 8 -26 19 -16 59 8 43 27 -14 17 -45 17 -51 -1z"/>
<path d="M4266 811 c-10 -16 5 -42 23 -39 21 4 21 42 -1 46 -9 2 -19 -1 -22
-7z"/>
<path d="M2559 759 c-87 -23 -124 -102 -84 -180 62 -118 235 -71 235 64 0 44
-4 54 -34 82 -36 34 -76 46 -117 34z"/>
<path d="M4175 720 c-7 -23 1 -40 20 -40 21 0 27 17 15 40 -14 25 -27 26 -35
0z"/>
<path d="M787 723 c-24 -23 12 -55 38 -33 12 10 13 16 4 26 -12 15 -31 18 -42
7z"/>
<path d="M887 643 c-11 -10 -8 -41 3 -48 19 -12 41 15 29 36 -10 20 -21 24
-32 12z"/>
<path d="M4077 633 c-24 -23 12 -55 38 -33 12 10 13 16 4 26 -12 15 -31 18
-42 7z"/>
<path d="M990 545 c-17 -21 6 -61 26 -44 18 15 18 45 0 52 -8 3 -20 0 -26 -8z"/>
<path d="M3970 544 c-11 -12 -10 -18 3 -31 15 -15 18 -15 37 2 19 17 19 19 2
31 -22 17 -27 17 -42 -2z"/>
<path d="M1096 464 c-12 -31 21 -47 43 -21 8 10 7 17 -1 25 -17 17 -35 15 -42
-4z"/>
<path d="M3861 466 c-14 -17 11 -41 34 -32 20 7 19 32 -1 40 -21 8 -20 8 -33
-8z"/>
<path d="M1210 394 c-11 -12 -11 -18 1 -29 13 -13 18 -13 37 1 22 15 22 17 5
30 -23 17 -28 17 -43 -2z"/>
<path d="M3750 394 c-11 -12 -11 -18 1 -29 13 -13 18 -13 37 1 22 15 22 17 5
30 -23 17 -28 17 -43 -2z"/>
<path d="M1324 325 c-13 -32 23 -48 47 -19 10 13 10 17 -2 25 -21 13 -39 11
-45 -6z"/>
<path d="M3634 325 c-13 -32 23 -48 47 -19 10 13 10 17 -2 25 -21 13 -39 11
-45 -6z"/>
<path d="M3517 283 c-11 -10 -8 -41 4 -49 6 -3 18 1 27 9 13 13 13 19 2 31
-14 17 -23 20 -33 9z"/>
<path d="M1442 268 c-13 -13 2 -38 23 -38 21 0 36 25 23 38 -7 7 -17 12 -23
12 -6 0 -16 -5 -23 -12z"/>
<path d="M1565 220 c-8 -24 1 -40 21 -40 20 0 29 27 14 45 -17 20 -27 19 -35
-5z"/>
<path d="M3391 221 c-8 -14 -7 -22 4 -31 22 -19 48 5 34 31 -5 10 -14 19 -19
19 -5 0 -14 -9 -19 -19z"/>
<path d="M1690 175 c-11 -13 -11 -19 3 -33 20 -19 41 -5 35 24 -4 24 -22 28
-38 9z"/>
<path d="M3270 175 c-25 -30 10 -61 38 -33 17 17 15 26 -7 37 -14 8 -22 7 -31
-4z"/>
<path d="M1820 134 c-11 -12 -10 -18 3 -32 16 -15 18 -15 34 0 13 14 14 20 3
32 -16 20 -24 20 -40 0z"/>
<path d="M3141 136 c-18 -22 4 -62 25 -45 18 15 18 33 0 48 -10 9 -16 8 -25
-3z"/>
<path d="M1943 94 c-3 -8 1 -22 9 -30 13 -13 16 -13 27 0 7 9 11 23 7 31 -7
20 -35 19 -43 -1z"/>
<path d="M3004 95 c-13 -32 23 -48 47 -19 10 13 10 17 -2 25 -21 13 -39 11
-45 -6z"/>
<path d="M2080 75 c-23 -28 21 -50 48 -23 9 9 7 14 -6 24 -22 17 -27 17 -42
-1z"/>
<path d="M2880 75 c-22 -26 7 -46 39 -26 12 8 12 12 2 25 -17 20 -25 20 -41 1z"/>
<path d="M2214 55 c-7 -18 3 -35 22 -35 20 0 30 30 13 41 -20 12 -29 11 -35
-6z"/>
<path d="M2345 50 c-8 -24 1 -40 21 -40 20 0 29 27 14 45 -17 20 -27 19 -35
-5z"/>
<path d="M2747 63 c-24 -23 12 -55 38 -33 12 10 13 16 4 26 -12 15 -31 18 -42
7z"/>
<path d="M2481 50 c-16 -9 -5 -50 14 -50 12 0 25 21 25 40 0 12 -25 19 -39 10z"/>
<path d="M2612 48 c-13 -13 2 -38 23 -38 21 0 36 25 23 38 -15 15 -31 15 -46
0z"/>
</g>
</svg>
