<?xml version="1.0" standalone="no"?>
<!DOCTYPE svg PUBLIC "-//W3C//DTD SVG 20010904//EN"
 "http://www.w3.org/TR/2001/REC-SVG-20010904/DTD/svg10.dtd">
<svg version="1.0" xmlns="http://www.w3.org/2000/svg"
 width="499.000000pt" height="500.000000pt" viewBox="0 0 499.000000 500.000000"
 preserveAspectRatio="xMidYMid meet">
<metadata>
Created by potrace 1.15, written by Peter Selinger 2001-2017
</metadata>
<g transform="translate(0.000000,500.000000) scale(0.100000,-0.100000)"
fill="#000000" stroke="none">
<path d="M2213 4971 c-10 -16 -9 -22 3 -32 20 -16 38 2 29 30 -8 26 -17 27
-32 2z"/>
<path d="M2347 4983 c-11 -11 -8 -40 6 -51 19 -16 43 24 26 44 -13 15 -22 18
-32 7z"/>
<path d="M2474 4975 c-12 -29 15 -45 45 -26 12 8 12 12 2 25 -17 20 -40 21
-47 1z"/>
<path d="M2609 4974 c-11 -14 -10 -18 6 -30 16 -12 21 -12 37 3 17 15 17 17 0
29 -22 17 -27 17 -43 -2z"/>
<path d="M2749 4964 c-16 -20 2 -38 30 -29 26 8 27 17 2 32 -16 10 -22 9 -32
-3z"/>
<path d="M2080 4945 c-22 -26 7 -46 39 -26 12 8 12 12 2 25 -17 20 -25 20 -41
1z"/>
<path d="M2881 4946 c-10 -12 -10 -20 0 -37 11 -22 12 -22 25 -4 17 24 17 30
0 44 -10 9 -16 8 -25 -3z"/>
<path d="M3006 4924 c-9 -23 -7 -31 7 -37 23 -9 40 8 32 32 -8 25 -30 28 -39
5z"/>
<path d="M1943 4914 c-3 -8 1 -22 9 -30 13 -13 16 -13 27 0 7 9 11 23 7 31 -7
20 -35 19 -43 -1z"/>
<path d="M1820 4894 c-11 -12 -10 -18 3 -32 21 -21 42 -3 32 27 -8 25 -18 27
-35 5z"/>
<path d="M3141 4896 c-14 -16 -9 -46 7 -46 5 0 15 7 22 16 11 12 11 18 -2 30
-13 13 -16 13 -27 0z"/>
<path d="M1690 4854 c-11 -12 -10 -18 3 -31 22 -23 52 0 36 28 -12 23 -22 24
-39 3z"/>
<path d="M3260 4850 c-13 -8 -13 -11 2 -26 14 -14 20 -15 32 -5 16 13 11 41
-8 41 -6 0 -18 -5 -26 -10z"/>
<path d="M1572 4818 c-16 -16 -15 -33 2 -47 21 -18 41 11 26 38 -13 25 -12 25
-28 9z"/>
<path d="M3390 4804 c-11 -12 -10 -18 3 -32 16 -15 18 -15 34 0 13 14 14 20 3
32 -7 9 -16 16 -20 16 -4 0 -13 -7 -20 -16z"/>
<path d="M1441 4746 c-18 -21 11 -41 38 -26 25 13 27 26 5 34 -23 9 -30 8 -43
-8z"/>
<path d="M3505 4750 c-11 -17 18 -42 39 -34 9 4 16 14 14 23 -4 19 -43 27 -53
11z"/>
<path d="M1317 4687 c-3 -7 2 -22 10 -32 14 -19 15 -19 28 -2 7 11 11 25 8 33
-7 18 -39 18 -46 1z"/>
<path d="M3627 4686 c-3 -8 0 -20 8 -26 19 -16 59 8 43 27 -14 17 -45 17 -51
-1z"/>
<path d="M3751 4636 c-16 -19 -7 -46 14 -46 22 0 30 29 13 46 -13 13 -16 13
-27 0z"/>
<path d="M1213 4633 c-16 -6 -17 -29 -3 -38 13 -8 50 3 50 15 0 13 -32 28 -47
23z"/>
<path d="M3860 4555 c-16 -19 8 -59 27 -43 17 14 17 45 -1 51 -8 3 -20 0 -26
-8z"/>
<path d="M1081 4547 c-8 -11 -5 -16 13 -25 19 -8 27 -8 36 3 6 8 9 19 5 25 -9
14 -40 13 -54 -3z"/>
<path d="M984 4475 c-8 -20 4 -35 26 -35 25 0 35 17 20 35 -16 19 -39 19 -46
0z"/>
<path d="M3960 4475 c-12 -14 -11 -18 1 -26 22 -14 44 -6 44 16 0 25 -28 31
-45 10z"/>
<path d="M884 4396 c-8 -35 13 -53 36 -31 13 13 12 18 -7 37 l-22 21 -7 -27z"/>
<path d="M4064 4389 c-3 -6 0 -17 8 -25 12 -12 17 -12 32 -1 11 8 16 19 12 25
-9 15 -43 15 -52 1z"/>
<path d="M792 4318 c-19 -19 -14 -48 7 -48 27 0 35 16 18 40 -10 15 -16 17
-25 8z"/>
<path d="M4170 4305 c-16 -19 8 -59 27 -43 17 14 17 45 -1 51 -8 3 -20 0 -26
-8z"/>
<path d="M1664 4241 c-49 -22 -74 -54 -74 -96 0 -47 26 -74 106 -111 77 -35
91 -53 74 -98 -17 -47 -122 -74 -165 -42 -14 10 -17 21 -12 50 5 31 3 36 -13
36 -19 0 -24 -10 -34 -72 -7 -36 -6 -37 31 -47 136 -38 253 16 255 117 1 52
-10 65 -81 98 -102 48 -127 92 -75 133 52 41 134 22 134 -29 0 -23 4 -30 20
-30 11 0 20 6 20 14 0 7 3 27 6 44 6 29 4 31 -32 41 -57 16 -114 13 -160 -8z"/>
<path d="M2871 4246 c-14 -16 -4 -46 14 -46 44 0 60 31 26 50 -25 13 -26 13
-40 -4z"/>
<path d="M3333 4243 c-20 -8 -15 -23 7 -23 11 0 20 -4 20 -8 0 -5 -14 -76 -30
-158 -17 -82 -28 -159 -25 -171 6 -25 28 -29 69 -13 34 12 34 32 1 24 -14 -3
-25 -4 -25 -1 0 3 16 80 35 171 19 92 35 171 35 176 0 10 -65 13 -87 3z"/>
<path d="M690 4214 c-11 -12 -10 -18 3 -32 21 -21 42 -3 32 27 -8 25 -18 27
-35 5z"/>
<path d="M4267 4213 c-24 -23 12 -55 38 -33 12 10 13 16 4 26 -12 15 -31 18
-42 7z"/>
<path d="M2084 4130 c-12 -5 -34 -23 -48 -42 l-28 -33 7 38 c6 35 5 37 -22 37
-38 0 -73 -10 -73 -21 0 -5 6 -9 14 -9 8 0 17 -4 21 -9 3 -5 -9 -74 -26 -152
-27 -119 -36 -146 -58 -165 l-26 -23 73 -1 c75 0 87 8 51 32 -19 12 -21 18
-12 44 8 24 16 29 44 32 59 4 78 11 115 44 45 39 64 82 64 142 0 66 -45 107
-96 86z m37 -66 c23 -63 -51 -189 -108 -182 -24 3 -29 8 -31 37 -5 47 23 115
59 146 40 33 67 32 80 -1z"/>
<path d="M2345 4125 c-76 -27 -136 -124 -120 -195 15 -69 104 -96 175 -54 48
28 52 48 6 29 -19 -8 -51 -15 -71 -15 -29 0 -37 5 -46 27 -5 14 -8 32 -5 39 3
7 36 22 75 34 84 27 98 36 106 72 5 21 1 33 -19 52 -28 29 -44 31 -101 11z
m63 -38 c6 -30 -25 -64 -73 -80 -52 -18 -57 -10 -30 43 28 55 95 79 103 37z"/>
<path d="M3077 4125 c-73 -25 -117 -89 -119 -168 -1 -53 15 -85 48 -97 29 -11
51 -5 85 27 l26 24 7 -25 c8 -32 40 -42 71 -22 33 22 32 38 -1 30 -22 -6 -25
-4 -21 12 23 77 47 189 43 200 -4 12 -66 34 -91 34 -5 -1 -27 -7 -48 -15z m80
-31 c3 -9 0 -41 -7 -72 -21 -93 -102 -155 -130 -101 -17 31 6 114 42 155 33
37 84 47 95 18z"/>
<path d="M2590 4108 c-54 -37 -73 -71 -78 -137 -4 -54 -2 -62 21 -85 21 -20
36 -26 72 -26 48 0 105 23 105 41 0 7 -7 8 -17 4 -38 -15 -88 -16 -107 -2 -39
29 -9 169 43 197 36 19 70 12 77 -15 8 -33 32 -32 40 1 9 34 -7 44 -72 44 -37
0 -60 -6 -84 -22z"/>
<path d="M2813 4123 c-20 -8 -15 -23 7 -23 23 0 23 7 -11 -132 -20 -80 -18
-107 10 -110 32 -3 55 3 63 15 13 20 9 25 -12 20 -26 -7 -25 0 5 117 14 52 25
101 25 108 0 12 -61 16 -87 5z"/>
<path d="M594 4105 c-10 -24 12 -42 34 -29 24 16 21 38 -6 42 -13 2 -25 -3
-28 -13z"/>
<path d="M4357 4113 c-12 -12 -7 -31 10 -37 9 -4 23 0 32 9 14 14 14 17 1 25
-18 11 -34 13 -43 3z"/>
<path d="M522 4011 c-18 -11 -11 -45 9 -49 9 -2 19 5 23 14 8 22 -14 46 -32
35z"/>
<path d="M4440 4005 c-22 -26 7 -46 39 -26 12 8 12 12 2 25 -17 20 -25 20 -41
1z"/>
<path d="M440 3905 c-15 -18 -6 -45 14 -45 20 0 29 16 21 40 -8 24 -18 25 -35
5z"/>
<path d="M4517 3903 c-24 -23 12 -55 38 -33 12 10 13 16 4 26 -12 15 -31 18
-42 7z"/>
<path d="M366 3784 c-11 -30 13 -44 43 -25 12 8 12 12 2 25 -17 20 -37 20 -45
0z"/>
<path d="M4586 3784 c-11 -30 13 -44 43 -25 12 8 12 12 2 25 -17 20 -37 20
-45 0z"/>
<path d="M300 3674 c-11 -12 -10 -18 3 -31 22 -23 52 0 36 28 -12 23 -22 24
-39 3z"/>
<path d="M4651 3671 c-14 -26 12 -50 34 -31 11 9 12 17 4 31 -5 10 -14 19 -19
19 -5 0 -14 -9 -19 -19z"/>
<path d="M1465 3595 c-78 -28 -109 -102 -65 -157 10 -14 48 -39 84 -56 68 -33
91 -59 81 -93 -17 -54 -152 -83 -176 -38 -6 12 -9 32 -6 45 3 18 0 24 -14 24
-19 0 -28 -21 -32 -74 -2 -36 17 -44 110 -45 98 -2 154 30 172 96 17 61 -2 90
-83 129 -39 19 -77 42 -83 51 -23 30 -15 62 20 83 37 23 71 25 107 7 20 -10
24 -19 22 -45 -2 -23 1 -32 12 -32 19 0 22 6 30 56 l7 41 -45 12 c-58 14 -92
13 -141 -4z"/>
<path d="M2115 3594 c-12 -12 -13 -19 -4 -30 14 -17 30 -18 53 -1 17 13 17 14
-7 30 -24 15 -27 15 -42 1z"/>
<path d="M2554 3585 c-12 -30 23 -46 55 -26 12 8 12 12 2 25 -17 20 -50 21
-57 1z"/>
<path d="M3530 3585 c-10 -13 -9 -15 9 -15 28 0 27 -6 -11 -189 -31 -151 -31
-154 -12 -168 21 -15 64 -9 76 10 5 8 -1 13 -18 15 -18 3 -23 8 -20 20 3 9 19
82 36 162 17 80 33 153 36 163 5 14 -1 17 -39 17 -27 0 -49 -6 -57 -15z"/>
<path d="M241 3546 c-18 -21 11 -41 39 -26 17 9 19 14 9 26 -15 18 -33 18 -48
0z"/>
<path d="M2748 3543 c-9 -10 -21 -28 -27 -41 -7 -13 -25 -25 -42 -29 -33 -6
-40 -33 -9 -33 24 0 25 -20 5 -105 -22 -91 -20 -123 9 -131 27 -6 77 14 84 33
2 9 -5 11 -27 7 -36 -8 -36 -8 -16 83 9 37 18 78 20 90 3 14 14 23 32 25 36 4
43 28 8 28 -25 0 -26 1 -19 45 7 50 4 53 -18 28z"/>
<path d="M4707 3547 c-3 -7 2 -22 10 -32 14 -20 14 -20 28 -1 11 14 12 23 4
33 -14 17 -35 17 -42 0z"/>
<path d="M1765 3473 c-34 -5 -59 -23 -32 -23 24 0 22 -30 -11 -185 -24 -110
-31 -132 -50 -140 -39 -17 -24 -25 48 -25 68 0 91 12 50 25 -22 7 -26 35 -10
65 7 14 21 18 56 18 60 0 107 33 139 96 27 54 32 104 14 139 -16 30 -28 37
-65 37 -24 0 -40 -9 -65 -37 l-32 -38 6 38 c4 26 2 37 -6 36 -7 -1 -25 -4 -42
-6z m154 -59 c9 -21 8 -36 -10 -85 -25 -67 -60 -101 -98 -97 -59 7 -27 146 42
188 42 26 51 25 66 -6z"/>
<path d="M2058 3473 c-10 -2 -18 -11 -18 -19 0 -9 7 -14 18 -12 20 4 20 -2
-10 -126 -20 -86 -20 -89 -3 -103 22 -16 40 -17 66 -3 25 14 24 30 -1 30 -25
0 -25 4 5 120 14 52 25 101 25 108 0 12 -45 15 -82 5z"/>
<path d="M2228 3469 c-22 -12 -24 -33 -3 -25 26 10 27 -16 5 -114 -25 -118
-25 -122 1 -118 17 2 27 18 43 68 21 66 65 133 97 150 14 8 19 6 24 -10 9 -27
24 -25 35 6 16 41 12 54 -16 54 -36 0 -59 -15 -84 -55 -27 -44 -42 -45 -29 -3
5 18 9 39 9 45 0 16 -57 17 -82 2z"/>
<path d="M2498 3473 c-25 -6 -23 -33 2 -33 23 0 23 4 -11 -127 -10 -40 -16
-79 -13 -88 8 -21 47 -29 73 -15 27 14 27 30 1 30 -25 0 -25 -5 5 110 33 126
32 130 -7 129 -18 -1 -41 -3 -50 -6z"/>
<path d="M2888 3473 c-25 -3 -38 -9 -38 -19 0 -9 7 -14 18 -12 21 4 21 -10 -4
-125 -18 -88 -18 -89 1 -103 30 -22 65 -9 113 43 l43 46 -7 -42 c-8 -48 5 -57
61 -47 41 8 47 26 9 26 -17 0 -24 5 -22 13 14 36 50 218 45 223 -3 3 -15 3
-26 -1 -14 -4 -25 -23 -36 -58 -26 -89 -107 -188 -133 -162 -5 5 2 49 35 203
4 15 1 21 -8 20 -8 -1 -31 -3 -51 -5z"/>
<path d="M3248 3455 c-90 -62 -110 -216 -32 -245 29 -12 51 -5 87 28 21 20 27
22 27 10 0 -28 30 -50 59 -43 24 6 40 21 41 36 0 3 -12 4 -26 1 -22 -4 -25 -2
-21 14 31 103 49 196 38 207 -6 6 -39 13 -74 15 -54 3 -67 0 -99 -23z m119
-11 c9 -24 -15 -114 -40 -151 -12 -18 -33 -37 -47 -43 -21 -10 -27 -9 -42 10
-22 27 -22 33 -3 97 10 33 26 61 46 77 34 29 77 34 86 10z"/>
<path d="M190 3425 c-11 -13 -11 -19 4 -33 15 -15 18 -15 26 -2 22 33 -6 64
-30 35z"/>
<path d="M4767 3433 c-24 -23 12 -55 38 -33 12 10 13 16 4 26 -12 15 -31 18
-42 7z"/>
<path d="M4810 3305 c-11 -13 -11 -19 3 -33 20 -19 41 -5 35 24 -4 24 -22 28
-38 9z"/>
<path d="M137 3298 c-2 -8 1 -22 9 -33 14 -18 14 -18 29 1 8 10 13 24 11 29
-4 16 -43 18 -49 3z"/>
<path d="M113 3183 c-16 -6 -17 -29 -3 -38 13 -8 50 3 50 15 0 13 -32 28 -47
23z"/>
<path d="M4856 3177 c-22 -16 -14 -37 14 -37 26 0 35 19 18 36 -12 12 -17 12
-32 1z"/>
<path d="M75 3049 c-4 -5 -4 -22 0 -36 l6 -26 21 21 c18 17 19 23 8 36 -15 19
-26 20 -35 5z"/>
<path d="M4893 3053 c-17 -6 -16 -40 1 -46 8 -3 22 3 31 13 16 17 16 19 -2 28
-10 5 -24 7 -30 5z"/>
<path d="M2246 2934 c-8 -22 -8 -22 12 -33 12 -6 23 -5 36 5 16 11 17 16 6 29
-16 20 -46 19 -54 -1z"/>
<path d="M887 2934 c-14 -14 -7 -24 17 -24 14 0 27 -4 30 -8 4 -7 -46 -268
-58 -299 -3 -7 -17 -13 -31 -13 -16 0 -25 -6 -25 -15 0 -12 16 -15 85 -15 69
0 85 3 85 15 0 10 -10 15 -26 15 -25 0 -26 2 -20 33 4 17 9 49 13 69 7 47 24
63 52 49 13 -7 29 -41 47 -96 l28 -85 47 0 c32 0 49 5 53 15 3 10 -1 15 -13
15 -25 0 -35 14 -65 93 l-25 67 33 14 c40 16 76 60 76 92 0 12 -11 36 -24 51
-24 27 -27 28 -148 31 -68 2 -126 0 -131 -4z m201 -30 c25 -7 37 -41 28 -78
-6 -25 -36 -41 -100 -52 l-39 -7 8 48 c14 95 29 108 103 89z"/>
<path d="M4910 2925 c-9 -11 -11 -22 -4 -32 13 -21 25 -21 38 -1 8 14 7 21 -5
33 -14 15 -17 15 -29 0z"/>
<path d="M50 2915 c-22 -26 7 -46 39 -26 12 8 12 12 2 25 -17 20 -25 20 -41 1z"/>
<path d="M4065 2870 c-14 -23 -36 -45 -49 -50 -36 -13 -42 -30 -10 -30 22 0
25 -3 20 -22 -3 -13 -13 -60 -22 -105 -19 -93 -12 -113 35 -113 29 1 61 21 61
38 0 8 -8 9 -26 1 -15 -5 -28 -8 -30 -6 -3 2 5 48 16 102 11 53 20 99 20 100
0 2 12 5 27 7 35 4 43 28 9 28 -25 0 -25 2 -19 45 3 25 3 45 -1 45 -3 0 -17
-18 -31 -40z"/>
<path d="M1335 2816 c-65 -28 -114 -120 -101 -189 8 -43 33 -66 80 -74 42 -7
121 20 130 44 5 11 2 14 -11 8 -10 -3 -38 -12 -62 -18 -40 -11 -44 -10 -62 12
-34 42 -22 62 51 86 101 33 110 40 110 85 0 29 -5 42 -19 50 -27 14 -80 12
-116 -4z m83 -36 c4 -36 -17 -59 -71 -75 -54 -16 -59 -8 -32 45 31 60 97 79
103 30z"/>
<path d="M1612 2813 c-95 -46 -133 -217 -56 -251 37 -18 50 -15 89 19 20 18
35 26 35 18 -1 -42 -24 -107 -47 -131 l-26 -27 73 2 c48 1 75 6 78 15 2 7 -5
12 -16 12 -11 0 -22 6 -24 13 -3 6 10 80 28 162 18 83 33 153 34 156 0 12 -53
29 -93 29 -23 0 -57 -8 -75 -17z m104 -27 c10 -41 -22 -131 -57 -160 -72 -61
-113 -12 -72 84 27 63 64 100 98 100 18 0 26 -7 31 -24z"/>
<path d="M1886 2821 c-42 -6 -63 -31 -27 -31 25 0 25 -6 6 -85 -8 -33 -14 -77
-15 -98 0 -31 4 -39 25 -47 35 -13 69 4 107 54 l30 41 -5 -36 c-7 -49 3 -61
48 -57 43 3 59 25 22 30 l-24 3 27 113 27 112 -24 0 c-16 0 -27 -8 -34 -27
-39 -98 -103 -193 -129 -193 -25 0 -25 13 4 127 21 86 22 105 7 102 -3 -1 -24
-5 -45 -8z"/>
<path d="M2218 2823 c-39 -4 -63 -33 -28 -33 25 0 25 -8 -1 -115 -11 -48 -18
-94 -15 -102 4 -10 18 -13 48 -11 45 3 67 28 25 28 l-25 0 29 113 c33 130 33
128 17 125 -7 -1 -29 -3 -50 -5z"/>
<path d="M2492 2803 c-15 -15 -35 -39 -45 -53 -19 -27 -19 -29 -3 43 7 28 6
28 -40 25 -46 -3 -77 -28 -35 -28 12 0 21 -2 21 -4 0 -2 -9 -48 -20 -101 -25
-122 -25 -125 4 -125 20 0 24 6 30 41 8 48 35 104 71 148 31 35 42 38 61 14
16 -23 31 -9 36 32 3 26 0 30 -25 33 -19 2 -35 -5 -55 -25z"/>
<path d="M2692 2813 c-67 -33 -110 -116 -96 -187 8 -44 33 -66 82 -73 43 -6
132 26 132 48 0 7 -7 8 -17 4 -10 -4 -38 -12 -62 -18 -40 -10 -45 -9 -63 13
-34 42 -21 61 62 87 83 27 96 36 105 75 15 58 -68 88 -143 51z m86 -36 c2 -16
-2 -34 -8 -42 -11 -14 -100 -48 -107 -41 -10 10 13 60 39 87 38 38 72 36 76
-4z"/>
<path d="M2921 2820 c-31 -7 -40 -30 -12 -30 26 0 26 -11 1 -120 -25 -108 -25
-110 4 -110 21 0 26 7 35 50 18 86 75 170 113 170 19 0 20 -4 15 -57 -4 -32
-13 -82 -20 -110 -14 -53 -14 -53 9 -53 25 0 44 26 44 60 0 48 77 160 111 160
24 0 25 -34 4 -104 -8 -27 -15 -64 -15 -83 0 -32 1 -33 39 -33 24 0 44 6 52
17 13 15 11 16 -13 11 -33 -6 -33 -5 -8 92 23 87 25 121 8 138 -24 24 -60 13
-104 -32 l-44 -43 0 31 c0 71 -54 76 -117 10 l-45 -46 7 46 c7 44 6 46 -16 44
-13 -1 -35 -5 -48 -8z"/>
<path d="M3448 2810 c-67 -36 -106 -113 -92 -184 8 -44 33 -66 82 -73 43 -6
132 26 132 48 0 7 -7 8 -17 4 -10 -4 -38 -12 -62 -18 -40 -10 -45 -9 -63 13
-35 43 -21 61 67 89 95 31 117 57 94 107 -12 25 -20 29 -59 31 -29 2 -58 -4
-82 -17z m92 -25 c0 -29 -23 -64 -49 -74 -49 -18 -71 -22 -71 -12 0 20 20 61
40 81 24 24 80 28 80 5z"/>
<path d="M3701 2821 c-45 -6 -71 -31 -32 -31 26 0 26 -10 1 -124 -25 -111 -25
-106 4 -106 20 0 25 7 31 37 14 79 86 183 125 183 25 0 25 -21 1 -120 -20 -81
-15 -110 20 -110 26 0 59 18 59 32 0 5 -9 8 -20 5 -25 -6 -25 -2 1 109 12 50
19 99 16 108 -20 50 -98 23 -150 -52 l-18 -27 6 53 c4 28 5 51 3 50 -1 0 -23
-4 -47 -7z"/>
<path d="M24 2779 c-3 -6 0 -17 8 -25 12 -12 17 -12 32 -1 11 8 16 19 12 25
-9 15 -43 15 -52 1z"/>
<path d="M4923 2774 c-3 -8 1 -22 9 -30 13 -13 16 -13 27 0 7 9 11 23 7 31 -7
20 -35 19 -43 -1z"/>
<path d="M4935 2650 c-8 -24 1 -40 21 -40 20 0 29 27 14 45 -17 20 -27 19 -35
-5z"/>
<path d="M16 2651 c-8 -12 4 -41 16 -41 5 0 18 5 29 11 16 8 18 13 8 25 -13
16 -45 19 -53 5z"/>
<path d="M4941 2526 c-16 -19 -7 -46 14 -46 22 0 30 29 13 46 -13 13 -16 13
-27 0z"/>
<path d="M18 2523 c-25 -6 -22 -30 3 -38 25 -8 44 7 36 29 -7 16 -9 17 -39 9z"/>
<path d="M20 2390 c-13 -25 3 -52 26 -43 18 7 18 37 0 52 -12 10 -17 8 -26 -9z"/>
<path d="M4933 2374 c-3 -8 1 -22 9 -30 13 -13 16 -13 27 0 7 9 11 23 7 31 -7
20 -35 19 -43 -1z"/>
<path d="M24 2249 c-3 -6 1 -18 10 -27 15 -15 17 -15 34 1 15 16 15 19 2 27
-20 13 -37 12 -46 -1z"/>
<path d="M4925 2250 c-8 -12 3 -50 14 -50 5 0 14 7 21 15 10 12 10 18 0 30
-14 17 -26 19 -35 5z"/>
<path d="M2556 2169 c-67 -19 -106 -95 -106 -208 0 -98 17 -273 55 -586 18
-154 37 -310 41 -347 l6 -68 34 0 c19 0 34 3 34 8 0 4 14 126 30 272 45 392
70 656 70 735 -1 135 -72 219 -164 194z"/>
<path d="M50 2115 c-22 -26 7 -46 39 -26 12 8 12 12 2 25 -17 20 -25 20 -41 1z"/>
<path d="M4910 2115 c-22 -26 7 -46 39 -26 12 8 12 12 2 25 -17 20 -25 20 -41
1z"/>
<path d="M71 1991 c-14 -26 12 -50 34 -31 11 9 12 16 2 31 -15 24 -24 24 -36
0z"/>
<path d="M4880 1985 c-22 -27 12 -49 38 -23 8 8 9 15 1 25 -15 17 -24 16 -39
-2z"/>
<path d="M106 1861 c-15 -16 -15 -20 -1 -31 18 -15 45 -7 45 13 0 8 -6 20 -13
26 -11 8 -18 6 -31 -8z"/>
<path d="M4850 1854 c-11 -12 -11 -18 1 -29 13 -13 18 -13 37 1 22 15 22 17 5
30 -23 17 -28 17 -43 -2z"/>
<path d="M142 1728 c-13 -13 2 -38 23 -38 21 0 36 25 23 38 -7 7 -17 12 -23
12 -6 0 -16 -5 -23 -12z"/>
<path d="M4812 1727 c-16 -19 11 -58 28 -41 14 14 10 46 -6 51 -6 2 -16 -2
-22 -10z"/>
<path d="M189 1604 c-15 -18 0 -38 27 -32 25 5 28 25 6 37 -15 8 -23 7 -33 -5z"/>
<path d="M4769 1604 c-15 -18 0 -38 27 -32 25 5 28 25 6 37 -15 8 -23 7 -33
-5z"/>
<path d="M240 1484 c-11 -12 -10 -18 3 -32 16 -15 18 -15 34 0 13 14 14 20 3
32 -7 9 -16 16 -20 16 -4 0 -13 -7 -20 -16z"/>
<path d="M4717 1493 c-11 -10 -8 -41 4 -49 6 -3 18 1 27 9 13 13 13 19 2 31
-14 17 -23 20 -33 9z"/>
<path d="M4662 1378 c-15 -15 -15 -45 -1 -54 6 -3 18 0 26 9 14 13 14 18 1 36
-11 16 -17 18 -26 9z"/>
<path d="M295 1360 c-7 -12 12 -50 25 -50 13 0 28 32 23 48 -5 14 -39 16 -48
2z"/>
<path d="M4591 1256 c-16 -19 -7 -46 14 -46 22 0 30 29 13 46 -13 13 -16 13
-27 0z"/>
<path d="M364 1245 c-12 -29 15 -45 45 -26 12 8 12 12 2 25 -17 20 -40 21 -47
1z"/>
<path d="M441 1138 c-11 -17 -10 -23 2 -35 18 -18 37 -9 37 16 0 31 -24 43
-39 19z"/>
<path d="M4522 1148 c-16 -16 -15 -33 2 -47 10 -9 16 -8 26 3 16 21 -10 62
-28 44z"/>
<path d="M520 1025 c-9 -11 -11 -22 -4 -32 13 -21 25 -21 38 -1 8 14 7 21 -5
33 -14 15 -17 15 -29 0z"/>
<path d="M4440 1025 c-15 -18 -5 -35 20 -35 10 0 22 5 25 10 7 11 -12 40 -25
40 -4 0 -13 -7 -20 -15z"/>
<path d="M600 925 c-11 -13 -11 -19 3 -33 20 -19 41 -5 35 24 -4 24 -22 28
-38 9z"/>
<path d="M4354 915 c-4 -10 -1 -21 7 -26 20 -12 34 -5 34 17 0 24 -33 31 -41
9z"/>
<path d="M692 829 c-15 -24 0 -51 24 -42 18 6 18 37 1 51 -10 8 -16 6 -25 -9z"/>
<path d="M4272 828 c-28 -28 -1 -56 31 -33 16 11 16 13 -1 28 -14 13 -21 14
-30 5z"/>
<path d="M2524 760 c-66 -26 -87 -131 -38 -189 99 -118 279 3 209 139 -27 51
-109 75 -171 50z"/>
<path d="M4171 731 c-8 -14 -7 -22 4 -31 22 -19 48 5 34 31 -5 10 -14 19 -19
19 -5 0 -14 -9 -19 -19z"/>
<path d="M787 733 c-11 -10 -8 -41 4 -49 6 -3 18 1 27 9 13 13 13 19 2 31 -14
17 -23 20 -33 9z"/>
<path d="M4077 653 c-11 -10 -8 -41 3 -48 19 -12 41 15 29 36 -10 20 -21 24
-32 12z"/>
<path d="M887 643 c-24 -23 12 -55 38 -33 12 10 13 16 4 26 -12 15 -31 18 -42
7z"/>
<path d="M3963 554 c-3 -8 1 -22 9 -30 12 -12 17 -12 33 0 16 12 17 16 6 30
-17 20 -40 21 -48 0z"/>
<path d="M984 549 c-3 -6 0 -17 8 -25 12 -12 17 -12 32 -1 11 8 16 19 12 25
-9 15 -43 15 -52 1z"/>
<path d="M1094 475 c-12 -29 15 -45 45 -26 12 8 12 12 2 25 -17 20 -40 21 -47
1z"/>
<path d="M3860 475 c-6 -8 -9 -19 -5 -25 8 -13 42 -13 50 0 7 11 -12 40 -25
40 -4 0 -13 -7 -20 -15z"/>
<path d="M1211 406 c-18 -22 4 -62 25 -45 18 15 18 33 0 48 -10 9 -16 8 -25
-3z"/>
<path d="M3751 406 c-18 -22 4 -62 25 -45 18 15 18 33 0 48 -10 9 -16 8 -25
-3z"/>
<path d="M1327 343 c-24 -23 12 -55 38 -33 12 10 13 16 4 26 -12 15 -31 18
-42 7z"/>
<path d="M3631 336 c-18 -21 11 -41 39 -26 17 9 19 14 9 26 -15 18 -33 18 -48
0z"/>
<path d="M1442 278 c-13 -13 2 -38 23 -38 21 0 36 25 23 38 -7 7 -17 12 -23
12 -6 0 -16 -5 -23 -12z"/>
<path d="M3507 276 c-6 -15 11 -36 29 -36 21 0 35 25 22 38 -16 16 -45 15 -51
-2z"/>
<path d="M1565 230 c-8 -12 3 -50 14 -50 15 0 33 30 27 45 -6 17 -32 20 -41 5z"/>
<path d="M3392 228 c-8 -8 -9 -15 -1 -25 14 -16 31 -17 47 -1 9 9 7 14 -6 24
-21 17 -25 17 -40 2z"/>
<path d="M1690 185 c-11 -13 -11 -19 3 -33 20 -19 41 -5 35 24 -4 24 -22 28
-38 9z"/>
<path d="M3260 170 c0 -28 28 -37 48 -16 15 15 15 18 2 26 -26 17 -50 12 -50
-10z"/>
<path d="M1819 144 c-10 -12 -9 -18 4 -31 13 -13 19 -14 31 -3 21 17 20 27 -3
39 -14 8 -22 7 -32 -5z"/>
<path d="M3140 145 c-15 -18 -7 -45 13 -45 8 0 20 6 26 13 8 11 6 18 -8 31
-16 15 -20 15 -31 1z"/>
<path d="M1943 104 c-3 -8 1 -22 9 -30 13 -13 16 -13 27 0 7 9 11 23 7 31 -7
20 -35 19 -43 -1z"/>
<path d="M3007 113 c-24 -23 12 -55 38 -33 12 10 13 16 4 26 -12 15 -31 18
-42 7z"/>
<path d="M2080 85 c-19 -22 5 -48 31 -34 10 5 19 14 19 19 0 5 -9 14 -19 19
-14 8 -22 7 -31 -4z"/>
<path d="M2879 84 c-16 -20 2 -38 30 -29 26 8 27 21 2 34 -14 8 -22 7 -32 -5z"/>
<path d="M2742 73 c-12 -24 -4 -43 18 -43 25 0 33 15 20 40 -13 25 -26 26 -38
3z"/>
<path d="M2210 65 c-11 -13 -11 -19 3 -33 20 -19 41 -5 35 24 -4 24 -22 28
-38 9z"/>
<path d="M2610 65 c-15 -18 -6 -45 13 -45 25 0 37 23 23 43 -16 21 -20 21 -36
2z"/>
<path d="M2345 59 c-4 -5 -4 -22 0 -36 l6 -26 21 21 c18 17 19 23 8 36 -15 19
-26 20 -35 5z"/>
<path d="M2470 51 c0 -37 32 -55 44 -25 10 27 7 34 -19 34 -14 0 -25 -4 -25
-9z"/>
</g>
</svg>
