<?xml version="1.0" standalone="no"?>
<!DOCTYPE svg PUBLIC "-//W3C//DTD SVG 20010904//EN"
 "http://www.w3.org/TR/2001/REC-SVG-20010904/DTD/svg10.dtd">
<svg version="1.0" xmlns="http://www.w3.org/2000/svg"
 width="499.000000pt" height="500.000000pt" viewBox="0 0 499.000000 500.000000"
 preserveAspectRatio="xMidYMid meet">
<metadata>
Created by potrace 1.15, written by Peter Selinger 2001-2017
</metadata>
<g transform="translate(0.000000,500.000000) scale(0.100000,-0.100000)"
fill="#000000" stroke="none">
<path d="M2612 4979 c-12 -18 -11 -24 1 -36 29 -29 49 6 25 40 -12 16 -14 16
-26 -4z"/>
<path d="M2483 4983 c-16 -6 -17 -25 -1 -41 11 -11 48 1 48 16 0 12 -34 29
-47 25z"/>
<path d="M2210 4964 c-11 -12 -10 -18 3 -32 21 -21 42 -3 32 27 -8 25 -18 27
-35 5z"/>
<path d="M2337 4966 c-3 -8 1 -22 9 -33 14 -17 14 -17 29 1 11 14 12 23 4 33
-15 17 -35 17 -42 -1z"/>
<path d="M2741 4956 c-18 -21 11 -41 39 -26 17 9 19 14 9 26 -15 18 -33 18
-48 0z"/>
<path d="M2882 4958 c-15 -15 -15 -45 -1 -54 6 -3 18 0 26 9 14 13 14 18 1 36
-11 16 -17 18 -26 9z"/>
<path d="M2082 4948 c-27 -27 -6 -56 28 -38 25 13 26 26 2 39 -13 7 -23 6 -30
-1z"/>
<path d="M1945 4920 c-8 -12 3 -50 14 -50 5 0 14 7 21 15 10 12 10 18 0 30
-14 17 -26 19 -35 5z"/>
<path d="M3002 4918 c-8 -8 -9 -15 -1 -25 13 -15 28 -16 48 -4 12 8 12 12 2
25 -16 19 -33 20 -49 4z"/>
<path d="M1820 4885 c-9 -11 -11 -22 -4 -32 13 -21 25 -21 38 -1 8 14 7 21 -5
33 -14 15 -17 15 -29 0z"/>
<path d="M3143 4893 c-18 -6 -16 -43 1 -43 20 0 46 11 46 19 0 11 -34 28 -47
24z"/>
<path d="M3260 4851 c-13 -25 -6 -41 20 -41 26 0 32 25 10 45 -17 16 -19 15
-30 -4z"/>
<path d="M1690 4845 c-21 -25 2 -42 36 -26 26 11 26 12 8 26 -24 18 -29 18
-44 0z"/>
<path d="M3389 4806 c-17 -35 2 -59 27 -34 15 15 15 18 1 39 l-16 22 -12 -27z"/>
<path d="M1567 4813 c-11 -10 -8 -41 4 -49 6 -3 18 1 27 9 13 13 13 19 2 31
-14 17 -23 20 -33 9z"/>
<path d="M3511 4756 c-16 -19 -7 -46 14 -46 22 0 30 29 13 46 -13 13 -16 13
-27 0z"/>
<path d="M1440 4744 c-11 -12 -10 -18 3 -32 16 -15 18 -15 34 0 13 14 14 20 3
32 -7 9 -16 16 -20 16 -4 0 -13 -7 -20 -16z"/>
<path d="M3631 4696 c-16 -19 -7 -46 14 -46 22 0 30 29 13 46 -13 13 -16 13
-27 0z"/>
<path d="M1322 4688 c-8 -8 -9 -15 -1 -25 15 -17 34 -17 48 1 10 12 8 17 -8
25 -24 14 -24 14 -39 -1z"/>
<path d="M1203 4614 c-3 -8 1 -22 9 -30 13 -13 16 -13 27 0 7 9 11 23 7 31 -7
20 -35 19 -43 -1z"/>
<path d="M3740 4611 c0 -25 24 -33 47 -16 16 13 16 16 3 25 -25 16 -50 12 -50
-9z"/>
<path d="M1091 4547 c-9 -11 -8 -17 3 -26 18 -15 48 -3 44 18 -4 21 -32 26
-47 8z"/>
<path d="M3857 4553 c-24 -23 12 -55 38 -33 12 10 13 16 4 26 -12 15 -31 18
-42 7z"/>
<path d="M984 4474 c-9 -34 10 -54 32 -32 13 13 14 19 2 37 -17 28 -26 27 -34
-5z"/>
<path d="M3960 4461 c0 -27 15 -34 40 -21 17 9 19 14 9 26 -17 21 -49 18 -49
-5z"/>
<path d="M881 4381 c-8 -14 -7 -22 5 -32 14 -11 18 -10 30 6 10 13 11 22 3 32
-16 18 -26 16 -38 -6z"/>
<path d="M4063 4384 c-3 -8 1 -22 9 -30 13 -13 16 -13 27 0 7 9 11 23 7 31 -7
20 -35 19 -43 -1z"/>
<path d="M783 4294 c-9 -24 11 -38 37 -24 17 9 19 14 9 26 -15 19 -38 18 -46
-2z"/>
<path d="M4163 4294 c-3 -8 1 -22 9 -30 13 -13 16 -13 27 0 7 9 11 23 7 31 -7
20 -35 19 -43 -1z"/>
<path d="M691 4217 c-14 -17 -4 -47 15 -47 22 0 29 29 12 46 -13 13 -16 13
-27 1z"/>
<path d="M4255 4205 c-17 -13 -18 -16 -5 -25 27 -18 52 -12 48 12 -4 28 -19
32 -43 13z"/>
<path d="M600 4105 c-15 -18 -5 -35 20 -35 10 0 22 5 25 10 7 11 -12 40 -25
40 -4 0 -13 -7 -20 -15z"/>
<path d="M4352 4108 c-8 -8 -9 -15 -1 -25 15 -17 34 -17 48 1 10 12 8 17 -8
25 -24 14 -24 14 -39 -1z"/>
<path d="M522 4018 c-16 -16 -15 -33 2 -47 21 -18 41 11 26 38 -13 25 -12 25
-28 9z"/>
<path d="M4435 4003 c-14 -14 -15 -18 -2 -30 12 -12 19 -13 36 -4 26 14 26 23
1 38 -15 10 -22 10 -35 -4z"/>
<path d="M440 3895 c-19 -22 5 -48 31 -34 10 5 19 14 19 19 0 5 -9 14 -19 19
-14 8 -22 7 -31 -4z"/>
<path d="M4510 3895 c-10 -11 -10 -19 -2 -27 15 -15 44 -2 40 19 -4 23 -22 27
-38 8z"/>
<path d="M1687 3889 c-71 -12 -122 -68 -112 -123 8 -43 32 -65 105 -99 71 -32
80 -40 80 -75 0 -55 -98 -99 -157 -70 -24 12 -28 19 -26 51 2 30 -1 37 -16 37
-13 0 -20 -10 -25 -31 -14 -71 -11 -77 50 -89 141 -29 254 44 228 147 -8 34
-16 42 -80 73 -88 43 -104 56 -104 85 0 36 44 65 100 65 55 0 75 -17 66 -55
-5 -20 -3 -25 13 -25 20 0 31 25 31 72 0 24 -5 28 -37 33 -67 11 -77 11 -116
4z"/>
<path d="M2851 3877 c-8 -11 -6 -18 8 -31 16 -15 22 -15 40 -4 26 16 26 24 2
38 -26 13 -36 13 -50 -3z"/>
<path d="M3323 3880 c-28 -12 -30 -30 -3 -30 26 0 26 1 -11 -179 -24 -120 -28
-155 -19 -167 16 -19 55 -18 74 2 22 22 20 27 -9 20 -23 -6 -25 -4 -20 16 22
97 65 315 65 330 0 20 -37 24 -77 8z"/>
<path d="M372 3798 c-16 -16 -15 -45 2 -51 23 -9 39 18 26 42 -13 25 -12 25
-28 9z"/>
<path d="M4584 3783 c-15 -16 -15 -18 1 -29 13 -10 21 -10 36 -1 24 15 24 19
-1 34 -16 10 -22 10 -36 -4z"/>
<path d="M1951 3761 c-35 -6 -56 -31 -27 -31 21 0 21 -4 -13 -159 -21 -95 -35
-139 -51 -156 -20 -22 -21 -23 -3 -28 35 -9 116 -2 121 11 2 7 -5 12 -16 12
-25 0 -34 23 -22 55 8 20 16 25 45 25 81 0 146 52 171 138 36 123 -46 188
-128 101 l-38 -40 6 40 c4 23 3 40 -2 40 -5 -1 -24 -4 -43 -8z m155 -67 c14
-54 -40 -161 -89 -177 -60 -20 -73 43 -27 133 35 70 103 95 116 44z"/>
<path d="M2315 3756 c-67 -30 -105 -92 -105 -171 0 -53 32 -95 73 -95 37 0
123 28 137 45 16 19 2 19 -43 0 -59 -25 -86 -20 -102 18 -17 41 -10 48 74 76
76 25 101 45 101 81 0 54 -66 77 -135 46z m77 -26 c19 -31 -7 -67 -62 -85 -28
-9 -54 -15 -56 -12 -10 10 25 74 52 96 30 24 52 24 66 1z"/>
<path d="M2595 3756 c-97 -43 -138 -174 -76 -237 20 -19 40 -29 60 -29 39 0
108 27 115 46 7 18 -2 17 -34 -1 -86 -49 -140 33 -91 140 22 49 41 65 78 68
20 1 30 -4 38 -21 13 -29 39 -24 43 9 2 20 -2 28 -20 33 -36 9 -81 6 -113 -8z"/>
<path d="M2831 3760 c-45 -5 -71 -30 -32 -30 25 0 25 3 1 -90 -11 -41 -20 -90
-20 -108 l0 -33 47 3 c29 2 48 8 51 17 3 10 -2 13 -22 9 -32 -6 -32 -6 0 110
33 121 31 128 -25 122z"/>
<path d="M3040 3751 c-60 -32 -93 -83 -98 -150 -4 -54 -2 -62 21 -85 34 -34
69 -33 111 4 l35 31 3 -28 c2 -22 9 -29 31 -31 28 -3 57 12 57 30 0 6 -9 8
-20 5 -13 -3 -20 0 -20 9 0 7 9 52 20 99 25 108 25 109 -5 123 -38 18 -96 15
-135 -7z m98 -35 c5 -45 -18 -116 -51 -153 -70 -80 -119 4 -66 114 35 72 111
98 117 39z"/>
<path d="M300 3665 c-23 -28 21 -50 48 -23 9 9 7 14 -6 24 -22 17 -27 17 -42
-1z"/>
<path d="M4646 3664 c-11 -30 13 -44 43 -25 12 8 12 12 2 25 -17 20 -37 20
-45 0z"/>
<path d="M242 3553 c-12 -24 -4 -43 18 -43 25 0 33 15 20 40 -13 25 -26 26
-38 3z"/>
<path d="M4710 3545 c-15 -18 -5 -35 20 -35 10 0 22 5 25 10 7 11 -12 40 -25
40 -4 0 -13 -7 -20 -15z"/>
<path d="M186 3424 c-4 -10 -2 -22 3 -27 14 -14 43 0 39 20 -4 24 -34 28 -42
7z"/>
<path d="M4760 3425 c-19 -22 1 -39 35 -31 26 7 27 8 10 26 -22 24 -29 25 -45
5z"/>
<path d="M141 3301 c-16 -28 14 -51 36 -28 13 13 14 19 3 31 -17 21 -27 20
-39 -3z"/>
<path d="M4804 3295 c-13 -32 23 -48 47 -19 10 13 10 17 -2 25 -21 13 -39 11
-45 -6z"/>
<path d="M106 3171 c-7 -11 3 -41 13 -41 4 0 16 7 27 15 16 13 17 16 4 25 -19
12 -37 13 -44 1z"/>
<path d="M4847 3173 c-24 -23 12 -55 38 -33 12 10 13 16 4 26 -12 15 -31 18
-42 7z"/>
<path d="M2302 3158 c-17 -17 -15 -48 4 -55 8 -3 22 1 31 9 12 12 13 20 4 37
-13 24 -22 26 -39 9z"/>
<path d="M937 3143 c-14 -13 -6 -23 17 -23 14 0 27 -3 30 -8 2 -4 -10 -75 -28
-157 -29 -137 -34 -150 -56 -155 -13 -3 -25 -11 -28 -18 -3 -9 19 -12 82 -12
70 0 86 3 86 15 0 9 -9 15 -25 15 -28 0 -29 3 -12 85 9 43 18 61 30 63 29 6
45 -15 74 -99 l28 -80 49 3 c51 3 80 28 33 28 -22 0 -29 9 -55 77 l-30 78 43
24 c77 42 84 118 14 153 -26 14 -59 18 -140 18 -58 0 -109 -3 -112 -7z m211
-39 c23 -16 29 -53 12 -84 -11 -21 -60 -40 -103 -40 -29 0 -29 0 -22 47 12 79
20 93 58 93 18 0 43 -7 55 -16z"/>
<path d="M4109 3073 c-13 -21 -35 -40 -48 -43 -32 -7 -40 -30 -11 -30 25 0 25
0 0 -136 -8 -39 -11 -78 -7 -87 10 -25 69 -22 93 5 l19 21 -32 -6 c-39 -8 -39
-8 -17 99 18 90 27 104 60 104 15 0 24 6 24 15 0 10 -10 15 -26 15 -25 0 -26
2 -20 40 8 50 -4 51 -35 3z"/>
<path d="M75 3041 c-6 -19 2 -51 14 -51 3 0 12 9 19 21 10 16 10 24 1 35 -16
19 -26 18 -34 -5z"/>
<path d="M4874 3039 c-3 -6 1 -18 10 -27 15 -15 17 -15 32 0 19 19 11 38 -16
38 -10 0 -22 -5 -26 -11z"/>
<path d="M1380 3018 c-54 -28 -87 -74 -96 -135 -8 -58 14 -110 51 -119 28 -7
151 22 161 38 11 17 -3 18 -39 3 -73 -30 -117 -14 -117 44 0 15 14 24 68 41
96 32 112 44 112 85 0 66 -58 84 -140 43z m85 -19 c15 -24 -17 -68 -61 -85
-51 -19 -59 -16 -50 21 14 54 90 98 111 64z"/>
<path d="M1653 3013 c-68 -44 -105 -132 -83 -198 20 -60 75 -73 122 -28 15 14
30 25 32 22 10 -10 -16 -105 -34 -124 -11 -12 -20 -25 -20 -29 0 -13 133 -2
138 12 2 7 -5 12 -16 12 -11 0 -22 6 -24 13 -3 6 10 80 28 162 18 83 33 153
34 157 0 10 -61 28 -99 28 -23 0 -53 -10 -78 -27z m107 -8 c27 -32 -16 -155
-65 -185 -43 -27 -52 -25 -70 10 -15 28 -14 33 14 94 36 81 91 117 121 81z"/>
<path d="M2559 3030 c-9 -5 -28 -27 -44 -50 -15 -22 -30 -39 -32 -37 -2 3 1
23 6 46 l9 42 -46 -3 c-25 -2 -47 -9 -50 -15 -2 -7 3 -13 12 -13 21 0 20 -31
-3 -143 l-19 -88 26 3 c21 2 28 10 34 41 10 47 32 91 70 140 31 38 58 49 58
21 0 -9 7 -14 18 -12 12 2 18 14 20 41 3 33 1 37 -20 37 -13 0 -30 -5 -39 -10z"/>
<path d="M2745 3021 c-48 -22 -69 -44 -90 -94 -30 -73 -10 -150 44 -162 31 -7
147 21 157 37 11 17 -3 18 -39 3 -68 -28 -117 -12 -117 40 0 20 11 27 82 51
92 32 114 56 97 103 -6 14 -16 29 -22 33 -21 13 -70 8 -112 -11z m80 -22 c15
-24 -17 -68 -61 -85 -50 -19 -59 -16 -50 19 13 54 90 100 111 66z"/>
<path d="M3072 2993 l-45 -47 7 43 6 42 -47 -3 c-45 -3 -76 -28 -34 -28 25 0
25 -3 1 -110 -26 -111 -25 -120 3 -120 21 0 25 7 36 54 19 84 78 166 120 166
16 0 13 -44 -8 -137 -13 -59 -15 -83 -7 -86 20 -7 46 13 46 36 0 56 85 187
121 187 25 0 24 -21 -1 -122 -16 -62 -18 -83 -9 -94 14 -17 61 -18 77 -2 18
18 14 31 -8 25 -25 -7 -25 6 0 103 24 91 24 104 4 124 -26 26 -54 18 -102 -29
-24 -25 -46 -45 -47 -45 -1 0 0 11 2 24 7 36 -13 66 -44 66 -18 0 -40 -14 -71
-47z"/>
<path d="M3505 3023 c-46 -24 -66 -45 -86 -88 -28 -61 -25 -111 10 -146 22
-22 39 -29 68 -29 42 0 123 33 123 50 0 13 -1 13 -43 -5 -48 -20 -80 -19 -100
3 -35 38 -22 59 51 82 95 31 112 44 112 84 0 19 -8 40 -18 49 -23 21 -78 21
-117 0z m73 -15 c29 -29 5 -78 -45 -92 -13 -3 -32 -9 -43 -12 -42 -12 -10 75
38 100 33 19 35 19 50 4z"/>
<path d="M3864 3021 c-18 -11 -40 -33 -50 -50 -25 -42 -34 -39 -23 7 5 20 9
41 9 45 0 13 -93 3 -98 -10 -2 -8 5 -13 17 -13 26 0 25 4 1 -106 -26 -116 -25
-124 4 -124 19 0 24 6 29 36 12 72 85 184 120 184 26 0 28 -30 7 -110 -11 -43
-20 -85 -20 -94 0 -21 45 -31 76 -17 29 13 33 35 4 26 -26 -8 -26 15 0 115 24
91 24 95 4 114 -20 21 -42 20 -80 -3z"/>
<path d="M1903 3023 c-20 -8 -15 -23 7 -23 24 0 24 4 1 -103 -22 -99 -19 -125
16 -133 35 -9 68 9 103 58 l31 42 -3 -44 -3 -45 44 0 c29 0 46 5 49 14 3 10
-2 12 -22 7 -30 -7 -31 -21 9 142 l23 93 -26 -3 c-20 -2 -30 -11 -37 -33 -16
-49 -94 -174 -115 -185 -33 -18 -35 11 -7 120 l25 100 -42 -1 c-22 0 -47 -3
-53 -6z"/>
<path d="M2233 3023 c-20 -8 -15 -23 7 -23 25 0 25 5 -1 -112 -12 -53 -19
-103 -16 -112 8 -21 61 -21 81 0 22 22 20 27 -9 20 -14 -4 -25 -5 -25 -2 0 4
48 192 56 219 5 14 -1 17 -38 16 -24 0 -49 -3 -55 -6z"/>
<path d="M52 2928 c-21 -21 -15 -50 10 -46 27 4 32 18 16 41 -11 14 -16 15
-26 5z"/>
<path d="M4902 2907 c-9 -10 -8 -18 3 -33 15 -19 15 -19 30 1 8 10 14 24 12
30 -6 16 -33 17 -45 2z"/>
<path d="M30 2785 c-11 -13 -11 -19 3 -33 20 -19 41 -5 35 24 -4 24 -22 28
-38 9z"/>
<path d="M4921 2781 c-14 -26 12 -50 34 -31 11 9 12 17 4 31 -5 10 -14 19 -19
19 -5 0 -14 -9 -19 -19z"/>
<path d="M20 2655 c-15 -18 -6 -45 14 -45 20 0 29 16 21 40 -8 24 -18 25 -35
5z"/>
<path d="M4933 2649 c-6 -6 -9 -18 -6 -25 7 -18 37 -18 52 0 10 12 8 17 -8 25
-24 14 -24 14 -38 0z"/>
<path d="M4 2509 c-3 -6 -2 -15 4 -21 15 -15 46 -5 50 15 3 12 -3 17 -22 17
-14 0 -28 -5 -32 -11z"/>
<path d="M4930 2501 c0 -10 6 -24 14 -30 12 -10 17 -8 26 9 13 25 6 40 -21 40
-12 0 -19 -7 -19 -19z"/>
<path d="M4931 2381 c-8 -14 -7 -22 4 -31 22 -19 48 5 34 31 -5 10 -14 19 -19
19 -5 0 -14 -9 -19 -19z"/>
<path d="M17 2383 c-24 -24 12 -50 44 -32 16 8 18 13 8 25 -12 15 -41 19 -52
7z"/>
<path d="M30 2250 c-14 -26 0 -46 24 -37 20 8 21 31 2 46 -12 10 -17 8 -26 -9z"/>
<path d="M4922 2247 c-16 -19 11 -58 28 -41 14 14 10 46 -6 51 -6 2 -16 -2
-22 -10z"/>
<path d="M2516 2149 c-46 -36 -69 -94 -68 -174 1 -79 30 -388 67 -725 35 -315
29 -290 70 -290 34 0 35 1 35 41 0 23 18 186 40 363 57 467 63 532 57 623 -3
45 -13 96 -22 113 -34 65 -126 91 -179 49z"/>
<path d="M45 2115 c-17 -13 -18 -16 -5 -25 32 -21 64 0 38 26 -12 12 -17 12
-33 -1z"/>
<path d="M4900 2115 c-10 -13 -9 -19 5 -35 17 -19 19 -19 31 -2 18 23 17 30
-5 41 -14 8 -22 7 -31 -4z"/>
<path d="M71 1988 c-16 -25 -2 -43 28 -33 26 8 26 17 3 38 -16 15 -19 15 -31
-5z"/>
<path d="M4876 1985 c-21 -16 -13 -35 14 -35 25 0 35 19 19 35 -12 12 -17 12
-33 0z"/>
<path d="M104 1855 c-12 -30 16 -45 46 -25 13 9 12 12 -4 25 -25 19 -35 19
-42 0z"/>
<path d="M4853 1863 c-7 -3 -13 -13 -13 -23 0 -10 6 -20 13 -23 15 -5 47 10
47 23 0 13 -32 28 -47 23z"/>
<path d="M141 1727 c-8 -10 -7 -19 4 -33 13 -18 15 -18 31 -2 14 14 15 20 4
32 -15 19 -24 20 -39 3z"/>
<path d="M4810 1725 c-22 -26 7 -46 39 -26 12 8 12 12 2 25 -17 20 -25 20 -41
1z"/>
<path d="M184 1599 c-3 -6 1 -18 10 -27 15 -15 17 -15 32 0 19 19 11 38 -16
38 -10 0 -22 -5 -26 -11z"/>
<path d="M4754 1599 c-3 -6 0 -18 9 -26 12 -12 18 -13 35 -2 16 10 18 16 10
26 -13 16 -44 17 -54 2z"/>
<path d="M236 1481 c-8 -12 4 -41 16 -41 5 0 18 5 29 11 16 8 18 13 8 25 -13
16 -45 19 -53 5z"/>
<path d="M4704 1475 c-13 -32 23 -48 47 -19 10 13 10 17 -2 25 -21 13 -39 11
-45 -6z"/>
<path d="M4652 1369 c-12 -18 -11 -24 1 -36 29 -29 49 6 25 40 -12 16 -14 16
-26 -4z"/>
<path d="M294 1359 c-3 -6 0 -18 9 -26 12 -12 19 -13 36 -3 18 9 20 14 10 26
-14 17 -45 19 -55 3z"/>
<path d="M372 1258 c-21 -21 -15 -50 10 -46 27 4 32 18 16 41 -11 14 -16 15
-26 5z"/>
<path d="M4584 1253 c-14 -23 -7 -43 16 -43 23 0 31 21 15 43 -15 21 -18 21
-31 0z"/>
<path d="M4510 1134 c-11 -12 -10 -18 3 -32 16 -15 18 -15 34 0 13 14 14 20 3
32 -7 9 -16 16 -20 16 -4 0 -13 -7 -20 -16z"/>
<path d="M433 1124 c-3 -8 1 -22 9 -30 13 -13 16 -13 27 0 7 9 11 23 7 31 -7
20 -35 19 -43 -1z"/>
<path d="M523 1033 c-17 -6 -16 -28 0 -42 10 -8 19 -7 32 3 16 12 17 16 6 30
-14 17 -18 18 -38 9z"/>
<path d="M4437 1033 c-4 -3 -7 -15 -7 -25 0 -23 38 -25 47 -2 8 21 -24 43 -40
27z"/>
<path d="M4350 925 c-16 -19 -5 -47 17 -43 11 2 18 12 18 27 0 29 -17 37 -35
16z"/>
<path d="M594 919 c-3 -6 0 -18 9 -26 12 -12 18 -13 35 -2 16 10 18 16 10 26
-13 16 -44 17 -54 2z"/>
<path d="M687 816 c-3 -8 0 -20 8 -26 19 -16 59 8 43 27 -14 17 -45 17 -51 -1z"/>
<path d="M4257 816 c-3 -8 1 -20 9 -27 12 -10 18 -9 31 3 8 9 12 21 9 27 -10
16 -43 14 -49 -3z"/>
<path d="M2501 744 c-17 -14 -36 -42 -42 -63 -22 -74 43 -161 120 -161 39 0
90 28 111 62 37 58 12 149 -48 177 -43 20 -108 13 -141 -15z"/>
<path d="M784 725 c-12 -30 16 -45 46 -25 13 9 12 12 -4 25 -25 19 -35 19 -42
0z"/>
<path d="M4166 724 c-11 -30 13 -44 43 -25 12 8 12 12 2 25 -17 20 -37 20 -45
0z"/>
<path d="M4071 646 c-16 -19 -7 -46 14 -46 22 0 30 29 13 46 -13 13 -16 13
-27 0z"/>
<path d="M884 635 c-12 -31 23 -48 45 -21 10 12 8 17 -8 25 -26 14 -31 14 -37
-4z"/>
<path d="M3969 554 c-10 -12 -10 -18 3 -30 13 -13 16 -12 32 5 17 19 17 20 -2
30 -15 8 -23 7 -33 -5z"/>
<path d="M983 544 c-3 -8 1 -22 9 -30 13 -13 16 -13 27 0 7 9 11 23 7 31 -7
20 -35 19 -43 -1z"/>
<path d="M1093 481 c-9 -14 -9 -21 0 -30 27 -27 61 4 37 34 -16 20 -23 19 -37
-4z"/>
<path d="M3857 483 c-24 -23 12 -55 38 -33 12 10 13 16 4 26 -12 15 -31 18
-42 7z"/>
<path d="M3752 418 c-13 -13 -16 -41 -6 -51 8 -7 44 10 44 21 0 5 -6 16 -13
25 -10 14 -15 15 -25 5z"/>
<path d="M1205 405 c-20 -15 -20 -15 0 -30 17 -14 21 -14 34 0 14 13 14 17 0
30 -13 14 -17 14 -34 0z"/>
<path d="M3630 345 c-15 -18 -6 -45 14 -45 20 0 29 16 21 40 -8 24 -18 25 -35
5z"/>
<path d="M1322 338 c-13 -13 2 -38 23 -38 21 0 36 25 23 38 -7 7 -17 12 -23
12 -6 0 -16 -5 -23 -12z"/>
<path d="M1433 274 c-3 -8 2 -23 11 -32 14 -15 18 -15 31 -1 9 9 13 23 9 32
-8 21 -43 22 -51 1z"/>
<path d="M3504 275 c-13 -32 23 -48 47 -19 10 13 10 17 -2 25 -21 13 -39 11
-45 -6z"/>
<path d="M1564 225 c-12 -31 23 -48 45 -21 10 12 8 17 -8 25 -26 14 -31 14
-37 -4z"/>
<path d="M3384 225 c-12 -31 23 -48 45 -21 10 12 8 17 -8 25 -26 14 -31 14
-37 -4z"/>
<path d="M1680 180 c-13 -8 -13 -11 2 -26 20 -20 51 -11 46 13 -4 21 -27 27
-48 13z"/>
<path d="M3257 176 c-3 -8 1 -22 8 -33 13 -16 16 -16 25 -3 5 8 9 22 7 30 -3
20 -33 25 -40 6z"/>
<path d="M1820 145 c-9 -11 -11 -22 -4 -32 13 -21 25 -21 38 -1 8 14 7 21 -5
33 -14 15 -17 15 -29 0z"/>
<path d="M3141 151 c-15 -9 -12 -42 4 -48 6 -2 19 3 29 10 17 12 17 13 -1 29
-11 11 -24 14 -32 9z"/>
<path d="M1943 104 c-3 -8 1 -22 9 -30 13 -13 16 -13 28 0 10 13 10 19 0 31
-16 19 -29 19 -37 -1z"/>
<path d="M3002 108 c-8 -8 -9 -15 -1 -25 14 -17 34 -17 48 0 11 15 -3 37 -24
37 -6 0 -16 -5 -23 -12z"/>
<path d="M2080 85 c-19 -22 5 -48 31 -34 10 5 19 14 19 19 0 5 -9 14 -19 19
-14 8 -22 7 -31 -4z"/>
<path d="M2877 93 c-4 -3 -7 -15 -7 -25 0 -20 25 -24 50 -8 13 8 12 11 -5 24
-23 17 -29 19 -38 9z"/>
<path d="M2211 71 c-16 -10 -8 -41 11 -41 7 0 19 4 27 9 12 8 12 12 2 25 -15
18 -21 19 -40 7z"/>
<path d="M2740 65 c-6 -8 -9 -19 -5 -25 9 -15 41 -12 54 4 10 12 8 17 -8 25
-25 14 -26 14 -41 -4z"/>
<path d="M2340 55 c-9 -11 -9 -18 3 -35 14 -20 14 -20 32 0 15 16 15 22 5 35
-16 19 -24 19 -40 0z"/>
<path d="M2604 55 c-9 -22 22 -53 37 -38 15 15 7 47 -14 51 -9 2 -20 -4 -23
-13z"/>
<path d="M2467 54 c-9 -10 12 -44 27 -44 14 0 28 35 18 44 -7 8 -37 7 -45 0z"/>
</g>
</svg>
