<?xml version="1.0" standalone="no"?>
<!DOCTYPE svg PUBLIC "-//W3C//DTD SVG 20010904//EN"
 "http://www.w3.org/TR/2001/REC-SVG-20010904/DTD/svg10.dtd">
<svg version="1.0" xmlns="http://www.w3.org/2000/svg"
 width="499.000000pt" height="500.000000pt" viewBox="0 0 499.000000 500.000000"
 preserveAspectRatio="xMidYMid meet">
<metadata>
Created by potrace 1.15, written by Peter Selinger 2001-2017
</metadata>
<g transform="translate(0.000000,500.000000) scale(0.100000,-0.100000)"
fill="#000000" stroke="none">
<path d="M2341 4976 c-9 -11 -9 -19 1 -35 7 -12 15 -21 18 -21 3 0 11 9 18 21
10 16 10 24 1 35 -6 8 -15 14 -19 14 -4 0 -13 -6 -19 -14z"/>
<path d="M2477 4983 c-11 -11 -8 -40 6 -51 9 -8 16 -6 25 8 19 31 -7 67 -31
43z"/>
<path d="M2610 4974 c-11 -12 -11 -18 1 -30 13 -12 18 -12 34 0 16 12 17 16 6
30 -17 20 -25 20 -41 0z"/>
<path d="M2211 4967 c-14 -17 -4 -47 15 -47 22 0 29 29 12 46 -13 13 -16 13
-27 1z"/>
<path d="M2742 4968 c-8 -8 -9 -15 -1 -25 13 -15 28 -16 49 -3 13 8 12 11 -5
24 -24 19 -28 19 -43 4z"/>
<path d="M2076 4944 c-11 -30 13 -44 43 -25 12 8 12 12 2 25 -17 20 -37 20
-45 0z"/>
<path d="M2875 4940 c-4 -12 -1 -28 6 -36 10 -12 14 -12 26 6 12 17 12 24 3
35 -17 20 -27 19 -35 -5z"/>
<path d="M3001 4921 c-16 -28 14 -51 36 -28 13 13 14 19 3 31 -17 21 -27 20
-39 -3z"/>
<path d="M1943 4914 c-3 -8 1 -22 9 -30 13 -13 16 -13 27 0 7 9 11 23 7 31 -7
20 -35 19 -43 -1z"/>
<path d="M3137 4903 c-11 -10 -8 -41 4 -49 6 -3 18 1 27 9 13 13 13 19 2 31
-14 17 -23 20 -33 9z"/>
<path d="M1821 4891 c-14 -9 -7 -51 8 -51 15 0 33 30 27 45 -6 17 -15 19 -35
6z"/>
<path d="M1684 4849 c-3 -6 0 -18 9 -26 14 -14 17 -14 37 0 22 15 22 15 2 26
-26 14 -39 14 -48 0z"/>
<path d="M3261 4847 c-9 -11 -8 -17 3 -26 18 -15 48 -3 44 18 -4 21 -32 26
-47 8z"/>
<path d="M3392 4818 c-16 -16 -15 -33 2 -47 21 -18 41 11 26 38 -13 25 -12 25
-28 9z"/>
<path d="M1573 4813 c-17 -6 -17 -28 0 -41 12 -10 47 6 47 21 0 10 -34 25 -47
20z"/>
<path d="M1440 4754 c-11 -12 -10 -18 3 -32 16 -15 18 -15 34 0 13 14 14 20 3
32 -7 9 -16 16 -20 16 -4 0 -13 -7 -20 -16z"/>
<path d="M3504 4745 c-10 -24 12 -42 34 -29 24 16 21 38 -6 42 -13 2 -25 -3
-28 -13z"/>
<path d="M1322 4678 c4 -27 18 -31 43 -12 17 13 18 16 5 24 -28 18 -52 12 -48
-12z"/>
<path d="M3624 4689 c-3 -6 0 -18 9 -26 12 -12 18 -13 35 -2 16 10 18 16 10
26 -13 16 -44 17 -54 2z"/>
<path d="M3745 4630 c-8 -24 1 -40 21 -40 20 0 29 27 14 45 -17 20 -27 19 -35
-5z"/>
<path d="M1207 4633 c-11 -10 -8 -41 4 -49 6 -3 18 1 27 9 13 13 13 19 2 31
-14 17 -23 20 -33 9z"/>
<path d="M3860 4554 c-18 -20 6 -50 26 -33 8 6 14 17 14 24 0 19 -27 26 -40 9z"/>
<path d="M1090 4542 c0 -10 5 -23 12 -30 16 -16 41 17 26 35 -15 19 -38 16
-38 -5z"/>
<path d="M991 4486 c-16 -19 -7 -46 14 -46 22 0 30 29 13 46 -13 13 -16 13
-27 0z"/>
<path d="M3966 4484 c-11 -29 -6 -44 13 -44 26 0 34 15 21 40 -13 24 -26 26
-34 4z"/>
<path d="M4070 4405 c-9 -11 -11 -22 -4 -32 13 -21 25 -21 38 -1 8 14 7 21 -5
33 -14 15 -17 15 -29 0z"/>
<path d="M882 4387 c-7 -8 -6 -18 4 -31 14 -20 14 -20 28 0 14 18 6 44 -14 44
-4 0 -12 -6 -18 -13z"/>
<path d="M4173 4313 c-17 -6 -16 -38 1 -52 21 -18 44 25 24 44 -7 7 -19 11
-25 8z"/>
<path d="M780 4293 c0 -10 5 -25 10 -33 8 -13 11 -12 24 5 19 25 15 39 -12 43
-16 2 -22 -2 -22 -15z"/>
<path d="M690 4214 c-11 -12 -10 -18 3 -32 21 -21 42 -3 32 27 -8 25 -18 27
-35 5z"/>
<path d="M4261 4206 c-18 -21 11 -41 39 -26 17 9 19 14 9 26 -15 18 -33 18
-48 0z"/>
<path d="M4350 4115 c-10 -12 -10 -18 0 -29 16 -20 42 -8 38 17 -4 26 -21 32
-38 12z"/>
<path d="M594 4105 c-10 -24 12 -42 34 -29 24 16 21 38 -6 42 -13 2 -25 -3
-28 -13z"/>
<path d="M521 4016 c-16 -19 -8 -46 13 -46 20 0 29 31 13 47 -12 12 -16 12
-26 -1z"/>
<path d="M4436 4014 c-11 -29 -6 -44 13 -44 26 0 34 15 21 40 -13 24 -26 26
-34 4z"/>
<path d="M440 3905 c-15 -18 -6 -45 14 -45 20 0 29 16 21 40 -8 24 -18 25 -35
5z"/>
<path d="M4511 3902 c-8 -15 -7 -23 5 -33 18 -15 38 0 32 27 -5 25 -25 28 -37
6z"/>
<path d="M366 3784 c-11 -30 13 -44 43 -25 12 8 12 12 2 25 -17 20 -37 20 -45
0z"/>
<path d="M4587 3793 c-4 -3 -7 -15 -7 -25 0 -22 32 -24 49 -4 10 12 8 17 -8
25 -23 13 -26 13 -34 4z"/>
<path d="M297 3666 c-9 -23 18 -39 43 -26 17 9 19 14 9 26 -15 18 -45 18 -52
0z"/>
<path d="M4643 3664 c-8 -22 11 -37 36 -29 25 8 28 30 5 39 -25 9 -34 7 -41
-10z"/>
<path d="M241 3546 c-18 -21 11 -41 39 -26 17 9 19 14 9 26 -15 18 -33 18 -48
0z"/>
<path d="M4706 3551 c-7 -11 3 -41 14 -41 19 0 40 13 40 25 0 21 -44 33 -54
16z"/>
<path d="M2970 3426 c-74 -35 -180 -80 -235 -100 -103 -38 -151 -59 -221 -101
-48 -29 -308 -119 -374 -130 -31 -5 -39 -10 -27 -14 12 -4 -15 -17 -83 -39
-55 -18 -105 -30 -111 -26 -7 4 -10 3 -6 -2 3 -5 -11 -10 -31 -11 -41 -1 -253
-81 -319 -119 -24 -14 -69 -51 -100 -83 l-58 -58 30 -19 c35 -23 42 -61 10
-56 -11 2 -22 8 -25 12 -3 5 -16 0 -29 -11 -19 -16 -20 -19 -6 -19 14 0 15 -3
5 -15 -8 -9 -9 -15 -2 -15 6 0 14 5 17 10 3 6 11 10 17 10 6 0 3 -10 -8 -22
-17 -19 -17 -21 -1 -15 22 8 21 5 -3 -42 -18 -36 -23 -39 -84 -51 -36 -7 -73
-9 -82 -6 -15 6 -15 8 0 31 9 13 16 31 16 40 0 8 11 21 25 27 14 6 25 16 25
22 0 6 17 22 38 36 l37 25 -54 3 c-52 3 -53 4 -35 23 23 25 13 24 -44 -5 -54
-28 -77 -47 -115 -98 -25 -34 -46 -47 -85 -52 -23 -4 -25 -20 -5 -38 36 -31
223 -99 268 -97 11 1 -2 8 -30 16 -55 17 -85 38 -85 61 0 12 7 9 28 -10 16
-16 42 -27 65 -30 33 -4 42 0 62 24 13 15 26 28 29 28 3 0 6 -17 6 -37 0 -49
15 -28 31 45 15 65 32 80 24 20 -6 -38 -5 -41 8 -26 8 10 18 14 22 10 4 -4 5
21 1 55 -6 57 4 91 18 61 5 -10 7 -10 12 -1 9 20 52 -6 65 -41 7 -17 14 -34
16 -37 2 -3 -20 -16 -48 -29 -55 -26 -93 -67 -104 -112 -4 -16 -13 -28 -21
-28 -18 0 -18 -10 3 -40 32 -47 126 -155 147 -169 12 -8 26 -19 31 -26 6 -7
60 -35 120 -63 117 -54 216 -82 465 -132 131 -26 409 -89 474 -107 14 -4 18
-1 13 11 -7 17 -8 17 121 -9 51 -10 62 -10 62 1 0 7 11 12 28 12 15 0 54 7 87
15 33 9 112 23 175 31 63 9 131 21 150 26 19 6 59 10 89 10 39 0 66 7 102 27
72 39 65 59 -9 27 -20 -8 -93 -21 -162 -29 -119 -13 -126 -13 -152 6 -15 10
-51 24 -80 30 -32 7 -62 20 -76 35 -15 16 -34 24 -57 24 -33 0 -35 2 -35 33
l0 33 -92 17 c-110 20 -109 20 -105 5 1 -7 -18 -18 -43 -26 -25 -8 -70 -24
-100 -35 -30 -11 -80 -22 -110 -26 -53 -6 -54 -7 -20 -13 93 -18 131 -20 128
-8 -6 29 229 75 279 56 17 -7 17 -8 -1 -22 -11 -8 -32 -14 -48 -14 -36 0 -179
-39 -197 -53 -7 -6 -58 -13 -112 -15 -54 -3 -97 -8 -94 -12 6 -9 -30 -20 -69
-20 -36 0 -27 11 22 27 l37 12 -40 -7 c-72 -12 -239 0 -251 19 -3 5 -22 9 -42
9 -20 0 -48 3 -62 7 -22 6 -19 9 25 19 l50 12 -75 2 c-55 1 -70 4 -55 11 16 7
13 8 -11 3 -35 -6 -164 23 -164 37 0 5 -11 9 -25 9 -15 0 -40 7 -58 17 -54 27
-130 83 -116 84 8 0 -2 6 -21 13 -42 15 -54 58 -23 82 17 14 16 15 -6 8 -19
-5 -23 -3 -18 9 3 9 -1 18 -9 21 -32 12 1 65 42 67 10 0 13 3 7 6 -20 8 -15
21 10 25 12 2 21 9 20 15 -2 7 46 28 110 49 61 20 116 40 120 44 14 13 -10 21
-66 24 -38 2 -58 -2 -76 -16 -33 -25 -38 -23 -61 22 -22 42 -20 60 7 60 11 0
14 6 9 24 -7 30 24 55 115 92 119 49 251 72 419 76 85 1 166 -1 179 -6 16 -6
21 -5 17 3 -9 14 14 14 48 1 16 -6 27 -6 31 0 8 13 81 13 104 0 28 -15 193 8
296 40 80 26 348 103 400 116 47 12 -16 -16 -150 -66 -77 -29 -147 -58 -155
-66 -25 -21 -103 -54 -130 -54 -14 0 -36 -7 -48 -16 -20 -14 -22 -14 -22 2 0
15 -4 14 -25 -6 -14 -13 -25 -19 -25 -14 0 5 -20 9 -45 9 -29 0 -45 -4 -45
-12 0 -16 -2 -16 -34 -3 -21 8 -26 6 -26 -6 0 -13 -4 -13 -30 1 l-30 16 0 -38
c0 -36 0 -37 15 -16 25 35 48 19 40 -27 -4 -23 -2 -41 4 -45 7 -4 11 8 11 35
0 27 5 43 15 47 23 8 31 -5 18 -26 -10 -15 -8 -22 6 -35 28 -25 44 -20 26 8
-13 19 -14 28 -4 50 7 15 17 25 23 23 12 -5 12 -8 2 -50 -4 -19 -3 -26 4 -22
5 3 10 15 10 26 0 24 17 25 25 0 3 -10 23 -26 45 -36 31 -14 38 -21 29 -31 -6
-8 -81 -37 -168 -66 l-156 -53 -152 2 c-84 1 -153 -2 -153 -6 0 -5 42 -12 93
-17 76 -7 92 -12 89 -25 -2 -17 79 -59 112 -59 9 0 16 -7 16 -15 0 -12 -18
-15 -102 -16 -108 0 -189 -17 -92 -18 36 -1 54 -6 57 -15 4 -9 -2 -17 -14 -21
-10 -4 -19 -10 -19 -15 0 -4 28 4 62 17 34 14 79 28 100 31 36 4 48 -1 117
-54 2 -2 -2 -11 -10 -20 -13 -16 -12 -17 8 -12 45 12 31 -9 -18 -26 -27 -10
-48 -20 -46 -22 2 -3 16 0 31 6 52 19 95 12 128 -20 17 -17 35 -29 41 -27 6 2
-10 18 -36 37 -26 18 -47 38 -47 44 0 6 -9 17 -20 24 -11 7 -20 18 -20 26 0 8
-11 21 -25 30 -15 10 -25 26 -25 40 0 13 -7 27 -15 30 -9 3 -15 12 -13 20 2 8
-6 21 -16 29 -19 14 -19 15 10 29 16 9 83 34 149 58 99 35 139 44 230 50 108
8 181 25 496 114 70 19 182 53 250 75 68 22 147 45 174 51 91 19 96 20 90 30
-4 6 8 10 27 10 25 0 29 -3 18 -10 -10 -7 31 -10 125 -10 99 1 135 4 123 11
-22 12 -161 29 -245 29 -74 0 -277 -38 -427 -80 -107 -30 -257 -42 -270 -21
-4 5 -1 11 5 13 8 3 7 14 -5 36 -15 28 -15 35 -2 60 24 46 50 62 162 96 60 19
141 45 179 59 94 33 318 142 334 161 20 23 9 20 -56 -18 -95 -56 -469 -177
-676 -220 -65 -14 -188 -47 -275 -75 -158 -50 -209 -58 -346 -53 -68 2 -69 8
-3 21 30 5 49 5 56 -2 8 -8 11 -8 11 0 0 6 -7 16 -16 24 -14 11 -14 13 0 21 9
5 16 17 16 27 0 26 23 42 70 48 40 6 56 28 24 35 -29 5 36 64 95 84 29 11 69
34 88 52 42 39 38 40 -28 6 -28 -14 -54 -23 -57 -20 -7 8 -9 6 79 54 82 45 99
51 79 27 -25 -30 11 -16 41 16 32 35 37 52 12 42 -27 -10 -5 15 27 32 22 11
29 12 33 2 6 -15 127 106 127 128 0 27 -42 16 -180 -49z m-336 -267 c-29 -32
-53 -41 -90 -34 -46 8 -35 22 24 30 26 3 54 10 62 16 23 14 25 11 4 -12z
m-204 -33 c0 -3 -26 -10 -57 -16 -32 -6 -67 -13 -78 -16 -11 -2 -2 5 20 16 35
17 115 28 115 16z m-59 -46 c11 0 17 -4 14 -10 -10 -16 -41 -12 -56 7 -12 15
-12 16 4 10 10 -4 28 -7 38 -7z m153 -9 c4 -5 -17 -14 -44 -20 -61 -13 -60
-13 -60 -2 0 4 19 13 43 18 57 14 55 14 61 4z m-218 -17 c18 -15 18 -15 -11
-9 -37 8 -57 25 -29 25 11 0 29 -7 40 -16z m-31 -25 c15 -15 -38 -10 -57 5
-10 7 -18 16 -18 19 0 7 62 -13 75 -24z m-78 0 c26 -10 26 -12 8 -19 -23 -8
-78 8 -69 21 7 12 27 11 61 -2z m-59 -34 c12 -12 -5 -12 -43 1 l-40 14 39 -5
c21 -2 41 -7 44 -10z m-20 -87 c56 1 102 -1 102 -6 0 -5 -60 -13 -132 -19 -73
-6 -164 -18 -203 -27 -68 -16 -95 -15 -95 1 0 5 33 17 73 27 39 10 79 22 87
27 8 4 26 5 40 1 14 -4 71 -6 128 -4z m1012 7 c0 -11 -61 -35 -87 -34 -25 0
-23 2 17 19 45 19 70 24 70 15z m-1391 -28 c-19 -13 -43 -27 -54 -31 -18 -8
-17 -10 15 -23 29 -13 32 -16 18 -24 -12 -6 -29 -5 -52 5 -20 8 -38 11 -41 6
-3 -5 4 -11 15 -15 11 -3 20 -11 20 -16 0 -12 -41 -12 -60 1 -22 13 12 45 90
86 76 39 97 44 49 11z m1405 -48 c4 -20 13 -33 27 -36 21 -6 21 -7 4 -20 -24
-17 -29 -17 141 12 167 29 193 30 144 9 -117 -51 -429 -120 -463 -102 -16 8
-18 7 -12 -12 7 -21 6 -21 -19 -4 -15 9 -29 14 -33 11 -3 -4 2 -9 11 -13 9 -3
16 -11 16 -16 0 -10 -30 -7 -63 7 -14 6 -16 4 -11 -10 6 -15 4 -16 -14 -6 -30
16 -34 26 -27 64 6 29 11 34 38 36 18 1 43 3 57 4 15 1 24 -3 23 -10 -4 -16
11 -15 102 1 66 11 68 13 35 19 -19 4 -50 3 -68 -2 -44 -13 -41 5 4 19 58 20
34 19 -56 -1 -99 -22 -103 -22 -95 -10 3 6 50 20 105 32 55 12 100 26 100 31
0 12 -16 10 -117 -16 -51 -13 -93 -20 -93 -16 0 16 21 22 124 41 137 24 133
24 140 -12z m-304 -74 c0 -2 -9 -19 -20 -37 l-20 -33 22 -17 c13 -9 20 -19 17
-22 -10 -11 -59 35 -59 55 0 20 33 59 50 59 6 0 10 -2 10 -5z m-50 -100 c7 -8
9 -15 6 -15 -10 0 -66 30 -66 34 0 3 -3 12 -7 22 -6 16 -3 15 24 -4 16 -11 36
-28 43 -37z m-1252 2 c3 -16 1 -17 -17 -7 -25 13 -28 33 -4 28 10 -2 19 -11
21 -21z m1407 -637 c-4 -6 -23 -7 -47 -3 -30 4 -39 3 -34 -5 5 -8 -3 -12 -22
-12 -16 0 -44 -3 -61 -6 -20 -4 -31 -3 -31 5 0 7 19 11 49 11 28 0 53 5 56 10
3 6 26 10 51 10 28 0 43 -4 39 -10z m-211 -38 c13 -7 -22 -20 -59 -22 -30 -2
-30 -2 -5 -10 14 -4 48 -9 75 -9 41 -1 47 -4 31 -12 -23 -14 -202 -7 -217 8
-8 8 0 13 28 17 44 8 78 25 53 27 -8 0 -4 4 10 9 24 7 64 3 84 -8z m340 -11
c7 -11 -28 -21 -76 -21 -41 0 -52 16 -15 23 41 8 86 7 91 -2z m-544 -12 c0
-12 -51 -20 -81 -14 -46 10 -34 20 26 20 30 1 55 -2 55 -6z"/>
<path d="M4761 3432 c-7 -13 -6 -23 1 -30 27 -27 54 -3 36 31 -11 22 -25 22
-37 -1z"/>
<path d="M190 3425 c-11 -13 -11 -19 4 -33 15 -15 18 -15 26 -2 22 33 -6 64
-30 35z"/>
<path d="M142 3288 c4 -27 18 -31 43 -12 17 13 18 16 5 24 -28 18 -52 12 -48
-12z"/>
<path d="M4807 3303 c-12 -12 -7 -31 10 -37 9 -4 23 0 32 9 14 14 14 17 1 25
-18 11 -34 13 -43 3z"/>
<path d="M113 3183 c-16 -6 -17 -29 -3 -38 12 -7 50 3 50 13 0 12 -34 29 -47
25z"/>
<path d="M4840 3161 c0 -10 6 -24 14 -30 12 -10 17 -8 26 9 13 25 6 40 -21 40
-12 0 -19 -7 -19 -19z"/>
<path d="M77 3053 c-11 -10 -8 -41 4 -48 5 -4 19 1 29 10 16 15 17 19 5 31
-15 15 -28 18 -38 7z"/>
<path d="M4876 3043 c-4 -9 -1 -23 7 -30 12 -12 16 -12 26 1 16 19 8 46 -13
46 -7 0 -17 -8 -20 -17z"/>
<path d="M2700 3031 c0 -5 5 -13 10 -16 6 -3 10 -2 10 4 0 5 -4 13 -10 16 -5
3 -10 2 -10 -4z"/>
<path d="M53 2923 c-17 -6 -16 -25 1 -48 13 -18 14 -18 26 4 10 19 9 26 -2 36
-7 7 -19 11 -25 8z"/>
<path d="M4900 2915 c-10 -12 -10 -18 0 -30 15 -18 20 -18 44 0 20 15 20 15 0
30 -24 18 -29 18 -44 0z"/>
<path d="M2085 2800 c-3 -6 -18 -7 -33 -4 -21 4 -24 3 -12 -5 22 -16 60 -13
60 4 0 17 -6 19 -15 5z"/>
<path d="M2373 2779 c22 -11 41 -18 44 -15 4 3 -10 13 -30 21 -51 21 -59 18
-14 -6z"/>
<path d="M4921 2781 c-14 -26 12 -50 34 -31 11 9 12 17 4 31 -5 10 -14 19 -19
19 -5 0 -14 -9 -19 -19z"/>
<path d="M24 2779 c-3 -6 1 -18 10 -27 15 -15 17 -15 32 0 19 19 11 38 -16 38
-10 0 -22 -5 -26 -11z"/>
<path d="M1752 2747 c7 -14 12 -16 18 -8 4 8 17 10 34 5 20 -5 25 -3 21 7 -3
9 -21 14 -44 14 -36 1 -39 -1 -29 -18z"/>
<path d="M2050 2745 c0 -8 5 -15 10 -15 6 0 10 5 10 11 0 8 5 8 15 -1 10 -8
15 -9 15 -2 0 7 33 12 88 15 84 3 83 3 -25 5 -95 2 -113 0 -113 -13z"/>
<path d="M1950 2740 c0 -6 10 -8 24 -4 21 5 25 2 29 -23 4 -27 4 -27 6 5 1 29
-2 32 -29 32 -16 0 -30 -5 -30 -10z"/>
<path d="M2436 2673 c-13 -13 -5 -31 16 -36 29 -8 30 -6 8 20 -9 12 -20 19
-24 16z"/>
<path d="M13 2644 c-10 -26 13 -39 44 -25 27 12 27 13 8 27 -25 18 -44 18 -52
-2z"/>
<path d="M4937 2653 c-4 -3 -7 -15 -7 -25 0 -21 32 -25 49 -5 17 22 -22 50
-42 30z"/>
<path d="M1292 2588 c-7 -7 -12 -18 -12 -25 0 -18 33 -33 50 -23 12 7 12 13 0
34 -15 29 -21 31 -38 14z"/>
<path d="M18 2523 c-25 -6 -22 -30 3 -38 25 -8 44 7 36 29 -7 16 -9 17 -39 9z"/>
<path d="M4943 2523 c-17 -6 -16 -28 0 -42 11 -8 18 -6 31 8 17 18 17 20 -1
29 -10 5 -24 7 -30 5z"/>
<path d="M17 2383 c-12 -12 -7 -31 10 -37 19 -8 48 17 39 33 -8 12 -39 15 -49
4z"/>
<path d="M1537 2376 c-3 -8 6 -24 19 -37 20 -19 27 -21 33 -10 5 8 14 10 22 6
8 -5 1 6 -15 23 -32 35 -51 40 -59 18z"/>
<path d="M4927 2376 c-3 -8 1 -22 8 -33 13 -17 14 -17 28 2 8 10 13 25 10 32
-7 17 -39 17 -46 -1z"/>
<path d="M1985 2360 c-18 -19 -17 -20 1 -20 13 0 20 7 21 20 1 11 0 20 -1 20
-2 0 -11 -9 -21 -20z"/>
<path d="M1603 2277 c16 -16 30 -21 52 -18 l30 5 -35 7 c-19 4 -36 12 -38 18
-2 6 -10 11 -17 11 -10 0 -7 -7 8 -23z"/>
<path d="M30 2245 c-10 -12 -10 -18 0 -31 12 -13 15 -13 28 0 15 15 10 46 -6
46 -5 0 -15 -7 -22 -15z"/>
<path d="M4921 2247 c-8 -10 -7 -19 4 -33 15 -19 15 -19 30 0 11 14 12 23 4
33 -6 7 -15 13 -19 13 -4 0 -13 -6 -19 -13z"/>
<path d="M1737 2220 c-43 -10 -81 -21 -84 -24 -21 -20 140 14 162 35 5 5 7 9
5 8 -3 0 -40 -9 -83 -19z"/>
<path d="M2070 2220 c-9 -16 -8 -20 6 -20 10 0 14 3 10 7 -3 4 4 13 16 20 l23
12 -22 1 c-12 0 -27 -9 -33 -20z"/>
<path d="M2247 2200 c-68 -12 -73 -23 -7 -14 51 6 108 25 70 23 -8 -1 -37 -5
-63 -9z"/>
<path d="M1945 2169 c-37 -14 -42 -18 -19 -15 36 6 107 34 84 34 -8 0 -37 -8
-65 -19z"/>
<path d="M2101 2156 c-30 -11 -55 -36 -36 -36 10 0 85 40 85 45 0 7 -10 5 -49
-9z"/>
<path d="M2397 2134 c-44 -24 -27 -26 34 -5 45 17 49 20 24 20 -16 0 -43 -7
-58 -15z"/>
<path d="M4904 2123 c-14 -24 -7 -43 16 -43 26 0 33 15 18 40 -16 25 -20 25
-34 3z"/>
<path d="M50 2115 c-15 -18 -5 -35 20 -35 10 0 22 5 25 10 7 11 -12 40 -25 40
-4 0 -13 -7 -20 -15z"/>
<path d="M2315 2090 c2 -3 -25 -6 -60 -7 -35 0 -72 -6 -82 -12 -32 -18 106
-12 167 8 l55 18 -41 -1 c-23 -1 -41 -3 -39 -6z"/>
<path d="M70 1990 c-10 -18 -9 -24 1 -31 19 -12 25 -11 38 4 8 11 6 18 -8 31
-19 17 -20 17 -31 -4z"/>
<path d="M4873 1985 c-16 -13 -16 -16 -3 -25 20 -14 44 -8 48 11 4 23 -22 31
-45 14z"/>
<path d="M103 1861 c-9 -14 -9 -21 0 -30 27 -27 61 4 37 34 -16 20 -23 19 -37
-4z"/>
<path d="M4847 1863 c-12 -11 -7 -41 7 -46 8 -3 22 0 32 8 15 11 16 15 5 29
-14 17 -33 21 -44 9z"/>
<path d="M4811 1736 c-16 -19 -8 -46 13 -46 20 0 29 31 13 47 -12 12 -16 12
-26 -1z"/>
<path d="M142 1728 c-13 -13 2 -38 23 -38 21 0 36 25 23 38 -7 7 -17 12 -23
12 -6 0 -16 -5 -23 -12z"/>
<path d="M189 1604 c-11 -14 -10 -18 6 -30 13 -10 22 -11 32 -3 18 16 16 26
-6 38 -14 8 -22 7 -32 -5z"/>
<path d="M4755 1600 c-16 -17 -15 -19 4 -30 25 -13 41 -6 41 20 0 26 -25 32
-45 10z"/>
<path d="M2676 1499 c-25 -36 8 -74 39 -43 13 14 13 18 -1 40 -20 29 -19 29
-38 3z"/>
<path d="M1491 1500 c-48 -12 -84 -42 -99 -83 -22 -56 -3 -84 96 -135 75 -39
82 -45 82 -73 0 -59 -75 -101 -145 -81 -26 7 -30 13 -33 50 -2 33 -7 42 -22
42 -14 0 -20 -11 -25 -51 -4 -27 -5 -52 -3 -55 3 -2 29 -8 59 -14 128 -25 228
31 229 126 0 44 -24 68 -107 108 -82 40 -96 63 -66 105 26 35 80 48 119 30 23
-12 29 -21 29 -47 0 -24 4 -32 17 -32 17 0 20 7 33 73 2 12 -5 21 -19 27 -38
14 -109 19 -145 10z"/>
<path d="M240 1484 c-11 -12 -10 -18 3 -32 16 -15 18 -15 34 0 13 14 14 20 3
32 -7 9 -16 16 -20 16 -4 0 -13 -7 -20 -16z"/>
<path d="M4703 1474 c-3 -8 1 -22 9 -30 13 -13 16 -13 27 0 7 9 11 23 7 31 -7
20 -35 19 -43 -1z"/>
<path d="M301 1368 c-11 -17 -10 -23 2 -35 18 -18 37 -9 37 16 0 31 -24 43
-39 19z"/>
<path d="M4650 1371 c-10 -19 -9 -26 3 -38 29 -30 49 6 23 42 -13 18 -14 18
-26 -4z"/>
<path d="M1751 1371 c-38 -7 -55 -31 -22 -31 26 0 26 7 0 -102 -24 -101 -18
-138 22 -138 22 0 89 36 89 48 0 4 9 18 20 32 l19 25 -2 -45 -2 -45 44 0 c29
0 46 5 49 14 3 10 -2 13 -22 9 -29 -6 -29 -16 5 124 22 89 24 118 7 118 -25 0
-38 -17 -53 -66 -17 -58 -68 -140 -97 -155 -38 -20 -42 3 -19 103 30 130 33
122 -38 109z"/>
<path d="M2078 1373 c-29 -4 -40 -33 -13 -33 19 0 19 -6 -5 -119 -25 -116 -25
-111 5 -111 18 0 26 6 30 25 3 14 7 37 11 53 6 33 70 129 95 142 14 8 19 6 24
-10 13 -42 45 -17 45 36 0 20 -5 24 -29 24 -28 0 -54 -20 -96 -75 -14 -19 -15
-17 -9 28 7 51 9 50 -58 40z"/>
<path d="M2326 1371 c-31 -6 -48 -31 -22 -31 22 0 31 -24 45 -115 20 -130 19
-127 50 -111 25 14 142 195 156 243 6 21 4 22 -27 17 -18 -3 -39 -7 -45 -10
-21 -6 -15 -24 7 -24 11 0 20 -2 20 -4 0 -11 -93 -167 -97 -163 -3 4 -32 177
-33 200 0 8 -11 8 -54 -2z"/>
<path d="M2641 1371 c-38 -7 -55 -31 -22 -31 23 0 24 4 -5 -111 -8 -31 -14
-71 -14 -88 0 -29 2 -31 38 -31 35 0 62 14 62 32 0 4 -11 3 -25 -2 -31 -12
-31 -11 0 110 14 52 25 103 25 113 0 18 -3 18 -59 8z"/>
<path d="M2796 1371 c-31 -6 -48 -31 -22 -31 22 0 31 -24 45 -115 20 -130 19
-127 50 -111 25 13 142 195 155 242 6 19 3 20 -36 15 -43 -6 -66 -31 -29 -31
12 0 21 -2 21 -4 0 -9 -92 -167 -96 -164 -3 4 -34 184 -34 201 0 8 -11 8 -54
-2z"/>
<path d="M3130 1358 c-54 -37 -73 -71 -78 -137 -4 -53 -2 -62 21 -85 96 -96
274 28 237 166 -21 75 -110 103 -180 56z m110 -18 c12 -12 20 -33 19 -52 -1
-52 -33 -130 -61 -151 -23 -17 -29 -18 -54 -6 -24 12 -30 22 -32 53 -10 123
67 217 128 156z"/>
<path d="M3416 1371 c-42 -6 -63 -31 -27 -31 26 0 26 -4 1 -125 -11 -53 -20
-99 -20 -101 0 -2 11 -4 24 -4 25 0 29 6 41 68 8 41 82 152 101 152 8 0 17 -7
20 -15 14 -36 44 -9 44 41 0 20 -5 24 -29 24 -23 0 -39 -11 -70 -47 l-41 -48
6 48 c4 26 3 46 -2 46 -5 -1 -27 -5 -48 -8z"/>
<path d="M367 1253 c-12 -11 -8 -40 7 -52 12 -10 17 -8 26 9 16 29 -12 65 -33
43z"/>
<path d="M4587 1253 c-4 -3 -7 -15 -7 -25 0 -20 25 -24 50 -8 13 8 12 11 -5
24 -23 17 -29 19 -38 9z"/>
<path d="M4510 1134 c-11 -12 -10 -18 3 -32 16 -15 18 -15 34 0 13 14 14 20 3
32 -7 9 -16 16 -20 16 -4 0 -13 -7 -20 -16z"/>
<path d="M434 1129 c-3 -6 1 -18 10 -27 15 -15 17 -15 32 0 9 9 13 21 10 27
-9 14 -43 14 -52 0z"/>
<path d="M523 1033 c-17 -6 -16 -28 0 -42 10 -8 19 -7 32 3 16 12 17 16 6 30
-14 17 -18 18 -38 9z"/>
<path d="M4437 1033 c-4 -3 -7 -15 -7 -25 0 -23 38 -25 47 -2 8 21 -24 43 -40
27z"/>
<path d="M4350 924 c-11 -12 -10 -18 3 -32 21 -21 42 -3 32 27 -8 25 -18 27
-35 5z"/>
<path d="M595 921 c-8 -15 14 -53 28 -48 18 6 15 51 -5 55 -9 2 -19 -2 -23 -7z"/>
<path d="M2047 829 c-11 -6 -25 -26 -33 -45 -8 -20 -22 -34 -32 -34 -16 -1
-16 -2 0 -13 15 -12 15 -20 -3 -107 -11 -52 -24 -99 -29 -104 -6 -6 -17 -3
-30 9 -19 18 -20 18 -20 -3 0 -30 44 -40 70 -17 22 20 34 53 51 143 10 54 16
65 38 74 l26 11 -23 6 c-30 8 -31 11 -6 46 19 26 24 28 39 15 14 -12 18 -12
25 0 17 27 -36 40 -73 19z"/>
<path d="M2328 823 c-8 -10 -43 -64 -78 -120 -35 -57 -69 -103 -77 -103 -7 0
-13 -4 -13 -10 0 -5 20 -10 45 -10 25 0 45 5 45 10 0 6 -4 10 -10 10 -17 0
-11 36 8 53 10 10 35 17 56 17 31 0 38 -4 47 -27 8 -22 7 -30 -5 -39 -9 -6
-13 -14 -9 -17 10 -11 81 -8 88 3 3 6 0 10 -8 10 -16 0 -22 26 -32 135 -8 87
-13 105 -29 105 -7 0 -20 -8 -28 -17z m19 -129 c-3 -3 -21 -4 -40 -2 l-35 3
32 55 31 55 9 -53 c5 -29 6 -55 3 -58z"/>
<path d="M2494 828 c-3 -4 2 -8 11 -8 11 0 14 -6 10 -22 -17 -76 -35 -173 -35
-193 0 -19 7 -25 34 -30 65 -13 123 37 133 113 4 32 1 44 -16 61 -27 27 -33
26 -69 -4 l-29 -24 12 53 13 54 -30 4 c-16 3 -31 1 -34 -4z m120 -113 c8 -22
-29 -102 -54 -115 -44 -24 -54 27 -18 91 23 41 60 53 72 24z"/>
<path d="M685 820 c-7 -11 12 -50 25 -50 12 0 23 37 15 50 -8 13 -32 13 -40 0z"/>
<path d="M4257 816 c-3 -8 0 -19 7 -25 18 -15 48 -3 44 18 -4 21 -44 27 -51 7z"/>
<path d="M1813 755 c-68 -29 -88 -119 -37 -163 21 -18 34 -22 58 -18 87 18
122 133 54 180 -27 19 -34 19 -75 1z m67 -30 c25 -48 -19 -139 -64 -133 -48 7
-23 158 27 158 15 0 28 -9 37 -25z"/>
<path d="M2938 749 c-31 -17 -21 -51 24 -90 37 -32 41 -39 29 -53 -17 -20 -60
-21 -67 -1 -9 22 -24 18 -24 -5 0 -17 7 -20 49 -20 56 0 81 17 81 56 0 17 -10
31 -34 45 -45 26 -52 47 -21 61 20 9 28 8 44 -6 16 -14 19 -15 24 -2 3 8 3 17
0 20 -10 10 -87 6 -105 -5z"/>
<path d="M3119 732 c-26 -23 -32 -38 -36 -79 -5 -47 -3 -52 22 -69 21 -14 34
-15 62 -8 20 5 38 15 41 22 3 9 -2 10 -22 2 -30 -11 -52 -5 -60 17 -9 23 10
40 65 58 47 16 50 19 47 48 -3 30 -6 32 -45 35 -34 3 -47 -2 -74 -26z m81 -6
c0 -28 -14 -42 -53 -51 -31 -8 -34 1 -10 35 31 46 63 54 63 16z"/>
<path d="M2702 736 c14 -11 16 -19 8 -47 -6 -19 -10 -51 -10 -71 0 -34 3 -38
25 -38 14 0 37 11 50 25 l25 24 0 -24 c0 -22 4 -25 33 -24 17 1 24 3 15 6 -21
5 -21 3 -3 78 18 75 18 85 2 85 -7 0 -28 -31 -47 -70 -30 -62 -54 -89 -68 -76
-4 4 9 73 25 129 4 14 -2 17 -34 17 -33 -1 -36 -2 -21 -14z"/>
<path d="M784 725 c-12 -30 16 -45 46 -25 13 9 12 12 -4 25 -25 19 -35 19 -42
0z"/>
<path d="M4165 730 c-8 -12 3 -50 14 -50 15 0 33 30 27 45 -6 17 -32 20 -41 5z"/>
<path d="M881 637 c-8 -10 -7 -19 4 -33 15 -19 15 -19 30 0 11 14 12 23 4 33
-6 7 -15 13 -19 13 -4 0 -13 -6 -19 -13z"/>
<path d="M4066 634 c-11 -30 13 -44 43 -25 12 8 12 12 2 25 -17 20 -37 20 -45
0z"/>
<path d="M3967 563 c-12 -11 -8 -41 6 -46 7 -3 22 2 32 10 20 14 20 14 1 29
-22 16 -30 17 -39 7z"/>
<path d="M984 549 c-3 -6 0 -17 8 -25 12 -12 17 -12 33 1 17 13 18 16 5 25
-20 13 -37 13 -46 -1z"/>
<path d="M1102 488 c-19 -19 -15 -48 8 -48 26 0 37 27 18 46 -11 11 -16 12
-26 2z"/>
<path d="M3856 474 c-11 -30 13 -44 43 -25 12 8 12 12 2 25 -17 20 -37 20 -45
0z"/>
<path d="M3752 418 c-27 -27 -5 -72 23 -48 18 15 19 21 2 43 -10 14 -15 15
-25 5z"/>
<path d="M1200 391 c0 -28 24 -45 40 -26 16 20 6 45 -20 45 -13 0 -20 -7 -20
-19z"/>
<path d="M1322 338 c-8 -8 -9 -15 -1 -25 15 -17 34 -17 48 1 10 12 8 17 -8 25
-24 14 -24 14 -39 -1z"/>
<path d="M3630 335 c-22 -26 7 -46 39 -26 12 8 12 12 2 25 -17 20 -25 20 -41
1z"/>
<path d="M1440 285 c-16 -19 -6 -45 19 -45 23 0 35 28 20 46 -15 18 -24 18
-39 -1z"/>
<path d="M3510 285 c-15 -18 -6 -45 14 -45 20 0 29 16 21 40 -8 24 -18 25 -35
5z"/>
<path d="M1573 233 c-17 -6 -17 -38 0 -51 20 -17 44 25 25 43 -7 7 -19 11 -25
8z"/>
<path d="M3380 225 c-15 -18 -5 -35 20 -35 10 0 22 5 25 10 7 11 -12 40 -25
40 -4 0 -13 -7 -20 -15z"/>
<path d="M1684 175 c-13 -32 23 -48 47 -19 10 13 10 17 -2 25 -21 13 -39 11
-45 -6z"/>
<path d="M3257 176 c-3 -8 1 -22 9 -33 14 -17 14 -17 29 1 11 14 12 23 4 33
-15 17 -35 17 -42 -1z"/>
<path d="M1814 145 c-8 -21 2 -45 20 -45 19 0 29 29 15 46 -15 18 -28 18 -35
-1z"/>
<path d="M3137 143 c-24 -23 12 -55 38 -33 12 10 13 16 4 26 -12 15 -31 18
-42 7z"/>
<path d="M1947 113 c-24 -23 12 -55 38 -33 12 10 13 16 4 26 -12 15 -31 18
-42 7z"/>
<path d="M3002 108 c-8 -8 -9 -15 -1 -25 14 -17 34 -17 48 0 11 15 -3 37 -24
37 -6 0 -16 -5 -23 -12z"/>
<path d="M2082 98 c-16 -16 -15 -33 2 -47 21 -18 41 11 26 38 -13 25 -12 25
-28 9z"/>
<path d="M2871 89 c-11 -18 -10 -24 3 -37 15 -15 17 -15 33 1 16 16 16 18 -2
37 -20 20 -20 20 -34 -1z"/>
<path d="M2211 76 c-16 -19 -7 -46 14 -46 22 0 30 29 13 46 -13 13 -16 13 -27
0z"/>
<path d="M2740 70 c-13 -25 -5 -40 20 -40 26 0 33 15 18 40 -16 25 -24 25 -38
0z"/>
<path d="M2340 55 c-23 -28 15 -47 50 -25 13 8 12 11 -5 24 -25 19 -30 19 -45
1z"/>
<path d="M2611 56 c-19 -22 4 -62 25 -45 17 14 15 50 -2 56 -6 2 -16 -3 -23
-11z"/>
<path d="M2472 38 c5 -34 38 -37 38 -4 0 20 -5 26 -21 26 -15 0 -20 -5 -17
-22z"/>
</g>
</svg>
