<?xml version="1.0" standalone="no"?>
<!DOCTYPE svg PUBLIC "-//W3C//DTD SVG 20010904//EN"
 "http://www.w3.org/TR/2001/REC-SVG-20010904/DTD/svg10.dtd">
<svg version="1.0" xmlns="http://www.w3.org/2000/svg"
 width="499.000000pt" height="500.000000pt" viewBox="0 0 499.000000 500.000000"
 preserveAspectRatio="xMidYMid meet">
<metadata>
Created by potrace 1.15, written by Peter Selinger 2001-2017
</metadata>
<g transform="translate(0.000000,500.000000) scale(0.100000,-0.100000)"
fill="#000000" stroke="none">
<path d="M2347 4983 c-12 -11 -8 -41 6 -46 7 -3 22 2 32 10 20 14 20 14 1 29
-22 16 -30 17 -39 7z"/>
<path d="M2474 4977 c-3 -9 0 -26 7 -38 11 -22 12 -22 26 -3 7 10 12 25 11 34
-4 20 -37 25 -44 7z"/>
<path d="M2610 4975 c-10 -13 -10 -19 5 -35 18 -20 18 -20 32 0 12 17 12 24 3
35 -16 19 -24 19 -40 0z"/>
<path d="M2211 4962 c-8 -15 -7 -23 4 -32 16 -13 35 -6 35 14 0 8 -6 19 -14
25 -12 10 -17 8 -25 -7z"/>
<path d="M2746 4964 c-12 -31 13 -44 44 -24 13 9 12 12 -4 25 -25 19 -32 19
-40 -1z"/>
<path d="M2881 4956 c-16 -19 -7 -46 14 -46 22 0 30 29 13 46 -13 13 -16 13
-27 0z"/>
<path d="M2080 4945 c-22 -26 7 -46 39 -26 12 8 12 12 2 25 -17 20 -25 20 -41
1z"/>
<path d="M1944 4915 c-13 -32 23 -48 47 -19 10 13 10 17 -2 25 -21 13 -39 11
-45 -6z"/>
<path d="M3007 4923 c-12 -12 -7 -31 10 -37 9 -4 23 0 32 9 14 14 14 17 1 25
-18 11 -34 13 -43 3z"/>
<path d="M1816 4883 c-11 -27 10 -39 40 -23 24 13 24 15 8 27 -24 18 -41 16
-48 -4z"/>
<path d="M3134 4885 c-12 -29 15 -45 45 -26 12 8 12 12 2 25 -17 20 -40 21
-47 1z"/>
<path d="M1683 4844 c-3 -8 2 -23 11 -32 15 -15 17 -15 30 3 10 14 11 24 4 32
-14 18 -37 16 -45 -3z"/>
<path d="M3263 4844 c-9 -24 11 -38 37 -24 17 9 19 14 9 26 -15 19 -38 18 -46
-2z"/>
<path d="M1573 4813 c-16 -6 -17 -25 -1 -41 12 -12 48 1 48 18 0 13 -32 28
-47 23z"/>
<path d="M3391 4806 c-18 -22 4 -62 25 -45 18 15 18 33 0 48 -10 9 -16 8 -25
-3z"/>
<path d="M1437 4746 c-3 -8 1 -22 8 -33 13 -17 15 -17 31 -1 9 9 14 24 11 32
-8 20 -43 21 -50 2z"/>
<path d="M3505 4750 c-3 -5 -1 -19 5 -30 9 -17 14 -19 26 -9 21 17 18 49 -5
49 -11 0 -23 -4 -26 -10z"/>
<path d="M1317 4687 c-3 -7 2 -22 10 -32 14 -19 15 -19 28 -2 7 11 11 25 8 33
-7 18 -39 18 -46 1z"/>
<path d="M3630 4681 c0 -27 15 -34 40 -21 17 9 19 14 9 26 -17 21 -49 18 -49
-5z"/>
<path d="M1211 4630 c-21 -12 -5 -42 21 -38 12 2 23 8 25 15 6 16 -30 34 -46
23z"/>
<path d="M3750 4630 c-11 -7 -12 -14 -2 -36 12 -26 13 -26 27 -8 8 11 15 24
15 30 0 16 -24 24 -40 14z"/>
<path d="M3860 4560 c-15 -28 5 -57 26 -39 18 15 18 33 0 48 -12 10 -17 8 -26
-9z"/>
<path d="M1094 4549 c-3 -6 0 -17 8 -25 12 -12 17 -12 33 1 17 13 18 16 5 25
-20 13 -37 13 -46 -1z"/>
<path d="M3971 4486 c-16 -19 -7 -46 14 -46 22 0 30 29 13 46 -13 13 -16 13
-27 0z"/>
<path d="M990 4475 c-15 -18 -5 -35 20 -35 10 0 22 5 25 10 7 11 -12 40 -25
40 -4 0 -13 -7 -20 -15z"/>
<path d="M880 4390 c-18 -34 11 -55 38 -28 7 7 8 17 1 30 -13 24 -26 23 -39
-2z"/>
<path d="M4067 4393 c-10 -9 -8 -15 8 -37 15 -19 15 -19 29 -1 8 11 12 25 9
32 -5 14 -35 18 -46 6z"/>
<path d="M791 4307 c-26 -26 -2 -53 32 -35 22 11 22 20 -2 35 -14 9 -21 9 -30
0z"/>
<path d="M4164 4299 c-3 -6 0 -18 9 -26 12 -12 18 -13 35 -2 16 10 18 16 10
26 -13 16 -44 17 -54 2z"/>
<path d="M688 4208 c-12 -33 24 -52 50 -26 9 9 7 14 -6 24 -22 17 -39 17 -44
2z"/>
<path d="M4267 4213 c-24 -23 12 -55 38 -33 12 10 13 16 4 26 -12 15 -31 18
-42 7z"/>
<path d="M594 4105 c-9 -22 22 -53 37 -38 15 15 7 47 -14 51 -9 2 -20 -4 -23
-13z"/>
<path d="M4357 4113 c-24 -23 12 -55 38 -33 12 10 13 16 4 26 -12 15 -31 18
-42 7z"/>
<path d="M522 4018 c-16 -16 -15 -33 2 -47 21 -18 41 11 26 38 -13 25 -12 25
-28 9z"/>
<path d="M4440 4005 c-19 -22 5 -48 31 -34 10 5 19 14 19 19 0 5 -9 14 -19 19
-14 8 -22 7 -31 -4z"/>
<path d="M441 3906 c-16 -19 -7 -46 14 -46 22 0 30 29 13 46 -13 13 -16 13
-27 0z"/>
<path d="M4520 3895 c-22 -27 12 -49 38 -23 8 8 9 15 1 25 -15 17 -24 16 -39
-2z"/>
<path d="M372 3798 c-19 -19 -15 -48 8 -48 26 0 37 27 18 46 -11 11 -16 12
-26 2z"/>
<path d="M4589 3784 c-15 -18 0 -38 27 -32 25 5 28 25 6 37 -15 8 -23 7 -33
-5z"/>
<path d="M300 3665 c-11 -13 -11 -19 4 -33 15 -15 18 -15 26 -2 22 33 -6 64
-30 35z"/>
<path d="M4651 3667 c-8 -10 -7 -19 4 -33 15 -19 15 -19 30 0 11 14 12 23 4
33 -6 7 -15 13 -19 13 -4 0 -13 -6 -19 -13z"/>
<path d="M240 3544 c-11 -12 -10 -18 3 -32 16 -15 18 -15 34 0 13 14 14 20 3
32 -7 9 -16 16 -20 16 -4 0 -13 -7 -20 -16z"/>
<path d="M4711 3547 c-8 -10 -7 -19 4 -33 13 -18 15 -18 31 -2 14 14 15 20 4
32 -15 19 -24 20 -39 3z"/>
<path d="M190 3425 c-15 -18 -5 -35 20 -35 10 0 22 5 25 10 7 11 -12 40 -25
40 -4 0 -13 -7 -20 -15z"/>
<path d="M4764 3425 c-12 -30 16 -45 46 -25 13 9 12 12 -4 25 -25 19 -35 19
-42 0z"/>
<path d="M137 3296 c-9 -23 18 -39 43 -26 17 9 19 14 9 26 -15 18 -45 18 -52
0z"/>
<path d="M4811 3296 c-18 -21 11 -41 39 -26 17 9 19 14 9 26 -15 18 -33 18
-48 0z"/>
<path d="M103 3164 c-9 -24 11 -38 36 -25 25 14 27 27 5 35 -25 9 -34 7 -41
-10z"/>
<path d="M4845 3170 c-3 -5 -1 -19 6 -31 10 -19 12 -20 26 -6 9 9 13 23 10 31
-7 18 -32 21 -42 6z"/>
<path d="M81 3046 c-10 -11 -11 -23 -5 -37 9 -20 10 -20 27 -2 14 16 15 22 4
37 -12 16 -14 16 -26 2z"/>
<path d="M4885 3040 c-8 -13 3 -50 15 -50 13 0 28 32 23 48 -6 15 -29 16 -38
2z"/>
<path d="M45 2909 c-9 -27 14 -44 33 -25 15 15 6 46 -13 46 -8 0 -17 -10 -20
-21z"/>
<path d="M1493 2911 c-41 -19 -73 -61 -73 -96 0 -41 31 -73 104 -109 76 -36
97 -62 82 -101 -10 -26 -69 -55 -112 -55 -50 0 -68 18 -66 65 1 24 -3 35 -13
35 -18 0 -24 -10 -34 -64 l-8 -44 43 -11 c129 -33 236 11 251 102 8 52 -16 83
-92 117 -73 33 -103 67 -86 99 17 31 52 51 91 51 48 0 64 -13 65 -51 0 -41 22
-49 35 -13 17 44 9 77 -20 85 -49 13 -125 9 -167 -10z"/>
<path d="M2710 2914 c-11 -12 -10 -18 3 -31 14 -15 20 -15 43 -3 l26 14 -22
18 c-27 22 -34 22 -50 2z"/>
<path d="M4910 2915 c-11 -13 -11 -19 3 -33 20 -19 41 -5 35 24 -4 24 -22 28
-38 9z"/>
<path d="M3184 2791 c-58 -26 -87 -72 -92 -142 -4 -54 -2 -60 26 -89 40 -40
109 -42 163 -6 89 61 94 215 8 245 -43 15 -57 14 -105 -8z m101 -35 c31 -48
-12 -190 -61 -202 -37 -10 -71 10 -79 45 -7 34 15 123 40 159 23 32 79 31 100
-2z"/>
<path d="M3583 2799 c-12 -4 -34 -26 -49 -49 -15 -22 -29 -40 -31 -40 -2 0 -1
20 3 45 l6 45 -34 0 c-19 0 -43 -7 -54 -15 -19 -14 -18 -14 4 -15 28 0 28 -16
2 -134 -24 -109 -24 -106 -2 -106 25 0 42 20 42 50 1 36 32 99 73 145 34 38
36 39 50 21 20 -27 47 -14 47 23 0 32 -21 43 -57 30z"/>
<path d="M1763 2793 c-28 -5 -30 -23 -3 -23 25 0 25 0 -2 -115 -24 -106 -19
-125 35 -125 23 0 41 11 74 46 l44 46 -6 -34 c-8 -49 4 -62 54 -53 26 4 41 12
41 21 0 10 -7 13 -25 8 -19 -5 -24 -3 -21 7 10 31 46 198 46 213 0 12 -7 16
-22 14 -16 -2 -26 -17 -40 -58 -35 -104 -118 -198 -133 -151 -3 10 4 56 15
102 11 46 20 90 20 97 0 12 -31 14 -77 5z"/>
<path d="M2084 2785 c-19 -14 -18 -14 4 -15 28 0 28 -17 2 -130 -24 -105 -24
-110 -2 -110 25 0 42 20 42 50 1 38 32 101 74 145 35 36 39 38 51 22 17 -23
31 -21 39 6 11 40 7 47 -24 47 -31 0 -58 -20 -93 -70 l-17 -25 6 48 6 47 -34
0 c-19 0 -43 -7 -54 -15z"/>
<path d="M2334 2785 c-17 -13 -17 -14 -1 -15 23 0 33 -26 51 -139 8 -51 17
-95 19 -98 16 -15 60 32 113 120 75 123 83 147 55 147 -28 0 -71 -18 -71 -30
0 -5 9 -10 20 -10 19 0 17 -7 -22 -80 -24 -44 -46 -80 -50 -80 -3 0 -11 33
-18 73 -20 131 -19 127 -49 127 -15 0 -36 -7 -47 -15z"/>
<path d="M2653 2793 c-20 -8 -15 -23 7 -23 23 0 23 7 -11 -132 -20 -81 -18
-103 9 -110 28 -7 67 7 70 24 2 12 -2 15 -17 11 -27 -7 -26 0 4 117 14 52 25
101 25 108 0 12 -61 16 -87 5z"/>
<path d="M2818 2793 c-23 -6 -23 -20 1 -28 14 -4 22 -25 35 -94 9 -49 16 -95
16 -102 0 -8 4 -20 9 -28 17 -26 56 13 119 117 75 125 81 142 50 142 -39 0
-68 -12 -68 -26 0 -8 9 -14 20 -14 20 0 18 -5 -16 -67 -20 -38 -43 -74 -49
-82 -14 -15 -15 -13 -35 117 -11 69 -13 72 -38 71 -15 -1 -35 -3 -44 -6z"/>
<path d="M30 2775 c-10 -12 -10 -18 0 -31 12 -13 15 -13 28 0 15 15 10 46 -6
46 -5 0 -15 -7 -22 -15z"/>
<path d="M4920 2775 c-12 -14 -11 -18 1 -26 22 -14 44 -6 44 16 0 25 -28 31
-45 10z"/>
<path d="M21 2646 c-19 -22 4 -62 25 -45 17 14 15 50 -2 56 -6 2 -16 -3 -23
-11z"/>
<path d="M4942 2648 c-16 -16 -15 -33 2 -47 22 -18 44 25 24 45 -11 11 -16 12
-26 2z"/>
<path d="M4940 2515 c-11 -13 -11 -19 3 -33 20 -19 41 -5 35 24 -4 24 -22 28
-38 9z"/>
<path d="M4 2508 c-6 -10 20 -38 37 -38 10 0 20 30 13 41 -8 13 -41 11 -50 -3z"/>
<path d="M14 2377 c-3 -9 0 -26 7 -38 11 -22 12 -22 26 -3 7 10 12 25 11 34
-4 20 -37 25 -44 7z"/>
<path d="M4934 2376 c-3 -8 0 -24 6 -36 l12 -22 15 21 c8 12 12 28 9 36 -7 19
-35 19 -42 1z"/>
<path d="M1961 2311 c-10 -10 -22 -33 -26 -50 -4 -21 -13 -31 -25 -31 -10 0
-22 -4 -25 -10 -3 -5 1 -10 9 -10 27 0 28 -19 5 -126 -24 -113 -45 -154 -63
-115 -12 27 -23 27 -31 0 -12 -38 41 -53 82 -24 25 17 44 72 63 183 13 68 15
74 42 79 35 7 37 23 3 23 -28 0 -30 8 -14 44 15 32 40 42 55 22 17 -24 34 -19
34 9 0 23 -4 25 -45 25 -31 0 -51 -6 -64 -19z"/>
<path d="M2314 2308 c-12 -13 -45 -63 -74 -113 -29 -49 -71 -107 -92 -127
l-39 -38 56 0 c30 0 55 5 55 10 0 6 -7 10 -15 10 -18 0 -18 2 -4 34 25 54 131
61 144 9 5 -21 1 -31 -15 -43 -11 -9 -18 -19 -14 -23 11 -11 69 -8 101 4 l28
12 -25 6 c-24 7 -26 12 -40 141 -16 146 -26 163 -66 118z m20 -90 c3 -34 4
-63 2 -65 -2 -2 -24 -3 -49 -1 l-45 3 37 62 c20 34 39 62 42 63 3 0 9 -28 13
-62z"/>
<path d="M2528 2323 c-29 -4 -39 -23 -13 -23 19 0 20 5 -11 -133 -18 -79 -23
-122 -16 -129 20 -20 86 -20 121 0 66 36 94 139 50 183 -23 23 -51 19 -88 -15
-23 -20 -23 -20 -18 -1 3 11 8 36 12 55 4 19 9 43 11 53 5 17 4 18 -48 10z
m103 -137 c9 -18 7 -35 -5 -74 -20 -58 -36 -75 -68 -70 -43 6 -35 89 13 138
37 36 46 37 60 6z"/>
<path d="M4931 2256 c-17 -20 -6 -49 16 -44 22 4 26 20 10 42 -12 16 -14 16
-26 2z"/>
<path d="M29 2244 c-15 -18 0 -38 27 -32 25 5 28 25 6 37 -15 8 -23 7 -33 -5z"/>
<path d="M1683 2207 c-31 -29 -37 -41 -41 -89 -4 -48 -1 -58 19 -77 49 -45
135 -16 165 55 21 51 18 91 -11 119 -36 37 -86 34 -132 -8z m111 -20 c8 -21 6
-42 -9 -85 -17 -48 -24 -57 -47 -60 -20 -2 -31 4 -43 22 -15 22 -15 32 -5 78
16 68 26 80 64 76 23 -2 33 -10 40 -31z"/>
<path d="M3026 2219 c-38 -30 -34 -63 12 -93 54 -34 68 -52 52 -71 -18 -22
-66 -19 -83 5 -15 22 -27 17 -27 -11 0 -38 98 -42 135 -4 40 39 28 73 -35 105
-25 13 -40 27 -40 39 0 32 62 44 78 15 10 -18 32 -11 32 10 0 31 -87 34 -124
5z"/>
<path d="M3252 2219 c-42 -27 -62 -67 -62 -123 0 -50 24 -76 71 -76 35 0 89
19 89 32 0 6 -8 7 -17 3 -10 -4 -32 -9 -50 -12 -25 -4 -33 -1 -43 17 -17 33
-7 46 52 65 29 10 59 22 66 28 15 12 16 59 0 75 -18 18 -69 14 -106 -9z m78
-22 c0 -28 -25 -53 -62 -62 -33 -8 -37 8 -11 45 32 47 73 56 73 17z"/>
<path d="M2740 2220 c-13 -8 -12 -10 3 -10 20 0 21 -14 2 -100 -9 -45 -10 -68
-3 -77 19 -23 55 -14 87 22 17 19 32 35 34 35 2 0 1 -16 -1 -36 -4 -35 -4 -35
29 -32 18 2 35 9 37 17 3 10 0 12 -12 8 -20 -8 -20 0 -1 78 30 125 11 138 -45
32 -45 -85 -68 -113 -83 -98 -8 8 -6 31 6 83 10 40 17 76 17 81 0 10 -52 8
-70 -3z"/>
<path d="M4905 2110 c-8 -27 6 -43 29 -34 22 8 17 48 -6 52 -10 2 -19 -5 -23
-18z"/>
<path d="M43 2104 c-3 -8 1 -22 9 -30 13 -13 16 -13 27 0 7 9 11 23 7 31 -7
20 -35 19 -43 -1z"/>
<path d="M4881 1981 c-8 -14 -7 -22 4 -31 22 -19 48 5 34 31 -5 10 -14 19 -19
19 -5 0 -14 -9 -19 -19z"/>
<path d="M67 1976 c-9 -23 18 -39 43 -26 17 9 19 14 9 26 -15 18 -45 18 -52 0z"/>
<path d="M107 1853 c-25 -24 11 -49 40 -28 16 13 16 16 3 25 -17 11 -34 13
-43 3z"/>
<path d="M4845 1850 c-7 -11 12 -50 25 -50 12 0 23 37 15 50 -8 13 -32 13 -40
0z"/>
<path d="M144 1729 c-18 -20 -18 -21 1 -35 16 -12 21 -12 33 0 12 12 12 17 0
35 l-15 21 -19 -21z"/>
<path d="M4813 1731 c-9 -15 -9 -23 2 -37 13 -17 16 -17 25 -4 13 20 12 35 -3
48 -9 8 -16 6 -24 -7z"/>
<path d="M4765 1600 c-8 -24 1 -40 21 -40 20 0 29 27 14 45 -17 20 -27 19 -35
-5z"/>
<path d="M187 1596 c-8 -19 16 -38 37 -30 19 7 20 16 4 32 -16 16 -35 15 -41
-2z"/>
<path d="M240 1475 c-9 -11 -9 -18 3 -35 14 -20 14 -20 32 0 15 16 15 22 5 35
-16 19 -24 19 -40 0z"/>
<path d="M4714 1475 c-7 -17 2 -45 13 -45 4 0 17 8 28 16 20 15 20 15 1 30
-25 18 -35 18 -42 -1z"/>
<path d="M301 1356 c-10 -12 -10 -19 2 -36 12 -18 16 -18 26 -6 14 17 11 48
-5 53 -6 2 -17 -3 -23 -11z"/>
<path d="M4657 1363 c-11 -10 -8 -41 5 -49 17 -11 40 26 27 43 -13 14 -22 16
-32 6z"/>
<path d="M364 1235 c-12 -29 15 -45 45 -26 12 8 12 12 2 25 -17 20 -40 21 -47
1z"/>
<path d="M4584 1239 c-3 -6 1 -18 10 -27 15 -15 17 -15 34 1 15 16 15 19 2 27
-20 13 -37 12 -46 -1z"/>
<path d="M440 1124 c-11 -12 -11 -18 1 -30 13 -12 18 -12 34 0 16 12 17 16 6
30 -17 20 -25 20 -41 0z"/>
<path d="M4514 1125 c-12 -29 15 -45 45 -26 12 8 12 12 2 25 -17 20 -40 21
-47 1z"/>
<path d="M521 1026 c-16 -19 -7 -46 14 -46 22 0 30 29 13 46 -13 13 -16 13
-27 0z"/>
<path d="M4434 1015 c-12 -29 15 -45 45 -26 12 8 12 12 2 25 -17 20 -40 21
-47 1z"/>
<path d="M600 914 c-11 -12 -11 -18 2 -30 13 -13 19 -14 36 -3 20 12 20 15 5
31 -20 22 -27 22 -43 2z"/>
<path d="M4354 915 c-7 -18 3 -35 21 -35 21 0 28 19 15 35 -16 19 -29 19 -36
0z"/>
<path d="M690 814 c-11 -12 -11 -18 1 -29 13 -13 18 -13 37 1 22 15 22 17 5
30 -23 17 -28 17 -43 -2z"/>
<path d="M4266 814 c-12 -32 21 -47 43 -20 10 12 8 17 -8 25 -26 14 -28 14
-35 -5z"/>
<path d="M4170 724 c-11 -12 -10 -18 3 -31 22 -23 52 0 36 28 -12 23 -22 24
-39 3z"/>
<path d="M785 720 c-8 -13 3 -50 15 -50 5 0 14 8 19 18 15 27 -18 58 -34 32z"/>
<path d="M880 620 c0 -26 25 -36 45 -20 12 10 13 16 4 26 -18 22 -49 17 -49
-6z"/>
<path d="M4070 621 c0 -27 15 -34 40 -21 17 9 19 14 9 26 -17 21 -49 18 -49
-5z"/>
<path d="M991 551 c-16 -10 -8 -41 11 -41 7 0 19 4 27 9 12 8 12 12 2 25 -15
18 -21 19 -40 7z"/>
<path d="M3963 544 c-10 -26 13 -39 44 -25 27 12 27 13 8 27 -25 18 -44 18
-52 -2z"/>
<path d="M1095 470 c-8 -24 1 -40 21 -40 20 0 29 27 14 45 -17 20 -27 19 -35
-5z"/>
<path d="M3863 469 c-13 -13 -6 -39 11 -39 6 0 17 4 25 9 12 8 12 12 2 25 -16
19 -23 20 -38 5z"/>
<path d="M1206 393 c-10 -26 9 -38 40 -24 26 11 26 12 8 26 -25 19 -40 19 -48
-2z"/>
<path d="M3744 395 c-12 -29 15 -45 45 -26 12 8 12 12 2 25 -17 20 -40 21 -47
1z"/>
<path d="M1332 348 c-15 -15 -15 -45 -1 -54 6 -3 18 0 26 9 14 13 14 18 1 36
-11 16 -17 18 -26 9z"/>
<path d="M3632 336 c-9 -20 -8 -27 4 -37 12 -10 18 -9 32 4 15 16 15 18 -4 37
l-20 21 -12 -25z"/>
<path d="M1440 274 c-11 -12 -10 -18 3 -32 16 -15 18 -15 34 0 13 14 14 20 3
32 -7 9 -16 16 -20 16 -4 0 -13 -7 -20 -16z"/>
<path d="M3510 275 c-12 -15 2 -55 19 -55 10 0 21 24 21 45 0 19 -27 26 -40
10z"/>
<path d="M1564 225 c-9 -21 3 -45 21 -45 21 0 30 27 15 45 -16 19 -29 19 -36
0z"/>
<path d="M3387 216 c-10 -25 19 -40 44 -23 21 15 21 15 1 26 -28 15 -39 14
-45 -3z"/>
<path d="M3272 188 c-15 -15 -15 -45 -1 -54 6 -3 18 0 26 9 14 13 14 18 1 36
-11 16 -17 18 -26 9z"/>
<path d="M1691 176 c-9 -11 -10 -20 -1 -35 14 -27 27 -27 35 0 4 13 2 27 -7
36 -13 12 -16 12 -27 -1z"/>
<path d="M1822 148 c-15 -15 -15 -31 -1 -45 15 -15 39 -5 39 17 0 26 -23 43
-38 28z"/>
<path d="M3141 136 c-13 -16 -6 -56 9 -56 5 0 14 10 21 21 8 17 8 24 -3 36
-13 12 -16 12 -27 -1z"/>
<path d="M1943 94 c-3 -8 1 -22 9 -30 13 -13 16 -13 27 0 7 9 11 23 7 31 -7
20 -35 19 -43 -1z"/>
<path d="M3004 95 c-13 -32 23 -48 47 -19 10 13 10 17 -2 25 -21 13 -39 11
-45 -6z"/>
<path d="M2081 86 c-16 -19 -7 -46 14 -46 22 0 30 29 13 46 -13 13 -16 13 -27
0z"/>
<path d="M2870 75 c-6 -8 -9 -19 -5 -25 8 -13 42 -13 50 0 7 11 -12 40 -25 40
-4 0 -13 -7 -20 -15z"/>
<path d="M2741 62 c-7 -13 -6 -23 1 -30 28 -28 63 3 38 33 -16 20 -27 19 -39
-3z"/>
<path d="M2210 55 c-11 -13 -11 -19 4 -33 15 -15 18 -15 26 -2 22 33 -6 64
-30 35z"/>
<path d="M2611 56 c-13 -16 -5 -46 13 -46 23 0 36 22 25 42 -12 22 -22 23 -38
4z"/>
<path d="M2347 53 c-24 -23 12 -55 38 -33 12 10 13 16 4 26 -12 15 -31 18 -42
7z"/>
<path d="M2470 41 c0 -21 13 -41 26 -41 8 0 14 4 14 9 0 5 3 16 6 25 5 12 0
16 -20 16 -14 0 -26 -4 -26 -9z"/>
</g>
</svg>
