<?xml version="1.0" standalone="no"?>
<!DOCTYPE svg PUBLIC "-//W3C//DTD SVG 20010904//EN"
 "http://www.w3.org/TR/2001/REC-SVG-20010904/DTD/svg10.dtd">
<svg version="1.0" xmlns="http://www.w3.org/2000/svg"
 width="499.000000pt" height="500.000000pt" viewBox="0 0 499.000000 500.000000"
 preserveAspectRatio="xMidYMid meet">
<metadata>
Created by potrace 1.15, written by Peter Selinger 2001-2017
</metadata>
<g transform="translate(0.000000,500.000000) scale(0.100000,-0.100000)"
fill="#000000" stroke="none">
<path d="M2340 4974 c-11 -12 -10 -18 3 -31 22 -23 52 0 36 28 -12 23 -22 24
-39 3z"/>
<path d="M2467 4968 c-2 -8 2 -23 10 -33 14 -20 14 -20 29 0 8 10 13 24 11 30
-5 15 -44 18 -50 3z"/>
<path d="M2604 4965 c-13 -32 23 -48 47 -19 10 13 10 17 -2 25 -21 13 -39 11
-45 -6z"/>
<path d="M2741 4961 c-8 -14 -7 -22 4 -31 22 -19 48 5 34 31 -5 10 -14 19 -19
19 -5 0 -14 -9 -19 -19z"/>
<path d="M2210 4955 c-10 -12 -10 -18 0 -31 12 -13 15 -13 28 0 15 15 10 46
-6 46 -5 0 -15 -7 -22 -15z"/>
<path d="M2080 4945 c-15 -18 -7 -45 13 -45 14 0 44 28 36 33 -2 1 -11 8 -20
15 -13 10 -19 9 -29 -3z"/>
<path d="M2877 4953 c-11 -10 -8 -41 4 -49 6 -3 18 1 27 9 13 13 13 19 2 31
-14 17 -23 20 -33 9z"/>
<path d="M1947 4923 c-11 -10 -8 -41 4 -49 6 -3 18 1 27 9 13 13 13 19 2 31
-14 17 -23 20 -33 9z"/>
<path d="M3001 4916 c-15 -18 11 -40 39 -31 25 8 26 21 1 35 -25 13 -26 13
-40 -4z"/>
<path d="M1820 4885 c-19 -22 5 -48 31 -34 10 5 19 14 19 19 0 5 -9 14 -19 19
-14 8 -22 7 -31 -4z"/>
<path d="M3143 4893 c-15 -5 -17 -39 -3 -48 9 -6 50 15 50 25 0 10 -35 27 -47
23z"/>
<path d="M1689 4849 c-11 -6 -11 -13 -3 -26 15 -25 38 -23 42 3 3 24 -18 37
-39 23z"/>
<path d="M3255 4840 c-4 -7 -3 -16 3 -22 14 -14 47 -6 47 12 0 18 -40 26 -50
10z"/>
<path d="M3385 4799 c-10 -30 11 -48 32 -27 13 14 14 20 3 32 -17 22 -27 20
-35 -5z"/>
<path d="M1565 4800 c-8 -12 3 -50 14 -50 15 0 33 30 27 45 -6 17 -32 20 -41
5z"/>
<path d="M1440 4745 c-6 -8 -9 -19 -5 -25 9 -15 41 -12 54 4 10 12 8 17 -8 25
-25 14 -26 14 -41 -4z"/>
<path d="M3511 4751 c-16 -11 -6 -51 14 -51 16 0 29 35 20 50 -8 12 -16 12
-34 1z"/>
<path d="M1322 4693 c-18 -35 12 -59 36 -30 7 8 7 17 -2 30 -16 21 -23 21 -34
0z"/>
<path d="M3631 4696 c-16 -19 -7 -46 14 -46 22 0 30 29 13 46 -13 13 -16 13
-27 0z"/>
<path d="M1206 4621 c-9 -14 4 -41 19 -41 7 0 18 7 26 16 10 13 10 17 -2 25
-18 11 -36 11 -43 0z"/>
<path d="M3742 4608 c4 -28 19 -32 43 -13 17 13 18 16 5 25 -27 18 -52 12 -48
-12z"/>
<path d="M1092 4547 c-16 -19 11 -58 28 -41 14 14 10 46 -6 51 -6 2 -16 -2
-22 -10z"/>
<path d="M3845 4546 c-18 -13 -18 -14 4 -26 19 -10 26 -9 38 3 30 29 -6 49
-42 23z"/>
<path d="M983 4464 c-9 -24 11 -38 36 -25 25 14 27 27 5 35 -25 9 -34 7 -41
-10z"/>
<path d="M3955 4470 c-6 -10 11 -50 22 -50 12 0 31 34 26 47 -6 15 -39 17 -48
3z"/>
<path d="M4065 4390 c-8 -24 1 -40 21 -40 20 0 29 27 14 45 -17 20 -27 19 -35
-5z"/>
<path d="M871 4387 c-9 -11 -8 -17 4 -27 19 -16 47 -5 43 17 -4 23 -31 28 -47
10z"/>
<path d="M781 4297 c-8 -10 -7 -19 4 -33 15 -19 15 -19 30 0 11 14 12 23 4 33
-6 7 -15 13 -19 13 -4 0 -13 -6 -19 -13z"/>
<path d="M4165 4300 c-8 -12 3 -50 14 -50 15 0 33 30 27 45 -6 17 -32 20 -41
5z"/>
<path d="M690 4204 c-11 -12 -11 -18 1 -30 13 -12 18 -12 34 0 16 12 17 16 6
30 -17 20 -25 20 -41 0z"/>
<path d="M4260 4205 c-15 -18 -5 -35 20 -35 10 0 22 5 25 10 7 11 -12 40 -25
40 -4 0 -13 -7 -20 -15z"/>
<path d="M600 4104 c-11 -12 -11 -18 1 -30 13 -12 18 -12 34 0 16 12 17 16 6
30 -17 20 -25 20 -41 0z"/>
<path d="M4350 4105 c-15 -18 -5 -35 20 -35 10 0 22 5 25 10 7 11 -12 40 -25
40 -4 0 -13 -7 -20 -15z"/>
<path d="M522 4018 c-16 -16 -15 -45 2 -51 23 -9 39 18 26 42 -13 25 -12 25
-28 9z"/>
<path d="M4427 4003 c-10 -9 -8 -15 8 -37 15 -19 15 -19 29 -1 8 11 12 25 9
32 -5 14 -35 18 -46 6z"/>
<path d="M440 3895 c-19 -22 5 -48 31 -34 10 5 19 14 19 19 0 5 -9 14 -19 19
-14 8 -22 7 -31 -4z"/>
<path d="M4510 3895 c-10 -12 -10 -18 0 -29 16 -20 42 -8 38 17 -4 26 -21 32
-38 12z"/>
<path d="M2492 3755 c-40 -25 -101 -66 -135 -92 -83 -63 -240 -222 -304 -308
-92 -122 -170 -295 -208 -460 l-7 -30 -32 35 c-25 28 -39 35 -69 35 -42 0 -40
2 -27 -44 5 -19 8 -36 6 -38 -2 -2 -34 26 -72 63 -94 90 -317 287 -384 339
-70 54 -245 162 -341 211 -59 29 -89 38 -145 42 -64 4 -73 2 -100 -21 -28 -24
-29 -29 -27 -99 2 -46 -3 -91 -14 -123 -25 -76 -21 -147 15 -260 17 -55 34
-117 38 -138 3 -21 15 -48 26 -60 18 -20 19 -20 12 -2 -13 35 -74 267 -86 326
-10 49 -8 65 11 126 12 40 21 99 21 135 0 34 4 68 8 75 14 22 66 35 120 28 68
-8 67 -25 -2 -25 -79 0 -106 -35 -92 -121 5 -32 1 -52 -19 -94 -14 -30 -25
-63 -25 -74 0 -27 58 -229 76 -263 8 -15 14 -37 14 -49 0 -57 88 -130 294
-243 61 -34 76 -38 140 -38 39 0 63 -2 53 -5 -10 -3 -16 -11 -14 -18 4 -9 -9
-12 -52 -10 -95 5 -257 81 -359 169 -69 59 -82 59 -17 0 64 -58 143 -110 233
-153 69 -34 71 -35 64 -65 -4 -17 -7 -76 -7 -131 0 -91 3 -106 31 -165 63
-131 221 -287 362 -357 45 -22 60 -24 105 -18 55 7 66 7 162 3 50 -2 70 3 120
27 33 17 59 35 59 40 -1 6 -5 53 -8 106 l-7 95 35 -4 c27 -3 37 1 48 17 7 12
18 21 25 21 6 0 37 -30 67 -66 61 -71 69 -73 31 -5 -14 23 -25 45 -25 47 0 3
13 -2 29 -11 18 -9 34 -28 41 -50 8 -24 25 -44 51 -60 47 -30 60 -31 77 -5 7
11 17 20 22 20 21 0 149 102 155 123 4 12 19 40 34 61 14 21 31 55 36 75 7 26
19 40 42 50 31 14 35 20 75 138 8 24 8 46 -1 86 -16 74 -43 112 -98 141 -40
21 -44 25 -23 26 15 0 45 -16 75 -41 62 -51 78 -94 72 -199 -4 -83 -21 -125
-70 -174 -18 -18 -40 -55 -50 -84 -25 -70 -71 -131 -112 -148 -28 -12 -55 -39
-55 -57 0 -8 113 52 121 64 5 8 9 22 9 32 0 19 98 175 123 195 28 23 51 112
51 193 -1 97 -29 159 -94 207 -25 18 -50 36 -57 42 -11 9 -68 -2 -108 -20 -11
-6 -51 -14 -90 -18 -61 -7 -66 -9 -35 -15 110 -19 166 -24 177 -15 17 14 76
-19 69 -38 -4 -10 6 -22 28 -35 34 -20 55 -49 35 -49 -5 0 -24 7 -40 16 -46
23 -48 8 -6 -31 20 -19 37 -41 37 -50 0 -14 -5 -14 -34 5 -40 24 -55 13 -30
-25 15 -24 15 -25 -2 -25 -16 0 -15 -2 4 -23 21 -22 29 -47 16 -47 -3 0 -24
13 -47 29 -43 30 -87 48 -87 35 0 -4 18 -32 41 -61 22 -30 39 -57 36 -60 -3
-2 -26 7 -52 22 -25 15 -49 25 -52 21 -4 -3 10 -23 30 -44 37 -38 46 -65 26
-78 -6 -3 -23 6 -38 20 -27 25 -51 34 -51 18 0 -5 14 -18 30 -30 28 -21 42
-62 21 -62 -5 0 -24 12 -41 27 -25 20 -34 23 -40 13 -11 -17 -44 4 -102 63
-37 38 -104 127 -95 127 2 0 41 -14 86 -30 46 -17 88 -29 94 -27 6 2 -32 19
-84 39 -52 20 -102 39 -111 43 -10 4 -18 3 -18 -3 0 -12 76 -109 131 -167 21
-22 54 -69 73 -105 l36 -65 -40 44 c-46 50 -52 45 -14 -11 38 -55 25 -55 -19
-1 l-37 46 0 -32 c0 -18 5 -42 11 -53 10 -19 9 -20 -7 -13 -11 5 -64 23 -119
42 -55 19 -110 44 -122 56 -23 24 -61 118 -71 182 -6 34 -10 40 -30 37 -23 -3
-32 21 -12 33 15 9 12 43 -6 71 -13 20 -15 30 -6 49 9 19 8 32 -3 59 -11 25
-15 74 -15 169 0 163 18 226 116 418 91 176 216 326 337 404 32 21 34 16 7
-27 -36 -59 -21 -54 19 6 42 63 64 82 82 70 7 -4 -6 -23 -32 -50 -23 -24 -39
-47 -35 -51 4 -5 24 11 45 33 41 48 69 64 106 64 46 0 43 -30 -5 -69 -59 -48
-119 -105 -100 -95 8 4 44 31 80 60 79 63 106 73 115 44 11 -35 -4 -56 -55
-80 -77 -36 -83 -54 -11 -28 47 17 66 20 79 12 30 -19 26 -50 -13 -88 l-36
-36 40 6 c55 9 54 -7 -6 -69 -37 -37 -43 -48 -25 -42 52 15 33 -86 -26 -134
-40 -34 -37 -39 9 -15 17 8 33 13 36 10 3 -3 -11 -32 -31 -64 -42 -69 -43 -72
-16 -65 16 4 20 0 20 -21 0 -19 -8 -32 -30 -44 -16 -9 -31 -27 -34 -39 -3 -11
-24 -36 -46 -53 -30 -24 -39 -37 -35 -51 4 -11 2 -19 -4 -19 -6 0 -11 -7 -11
-15 0 -19 21 -19 46 0 10 8 31 15 45 15 28 0 59 27 59 51 0 8 13 30 28 49 43
52 52 74 52 125 0 25 6 58 14 73 7 15 16 55 20 90 4 34 13 79 20 100 9 25 10
45 4 62 -6 16 -6 43 0 75 13 65 9 212 -6 248 -7 16 -12 40 -12 53 0 37 -15 60
-50 74 -16 7 -30 19 -30 26 0 22 -20 16 -98 -31z m-1520 -385 c18 -16 28 -30
22 -30 -6 0 -17 7 -24 15 -7 8 -17 15 -22 15 -6 0 -5 -7 3 -16 18 -22 99 -77
99 -67 0 5 -16 32 -35 61 -37 55 -37 59 -2 41 72 -37 248 -229 210 -229 -16 0
-16 -1 2 -13 11 -8 52 -31 90 -52 l70 -38 -40 33 c-87 73 -202 202 -153 175
37 -22 138 -111 172 -151 25 -30 41 -42 46 -34 7 11 97 -65 218 -185 48 -49
52 -56 52 -100 0 -41 6 -56 40 -100 52 -68 78 -128 95 -224 7 -43 25 -114 40
-157 31 -94 33 -120 11 -164 -9 -18 -16 -48 -16 -67 0 -38 -12 -43 -28 -10
-11 19 -12 17 -9 -20 1 -23 0 -39 -3 -37 -3 3 -19 58 -37 122 -17 64 -32 109
-32 99 -1 -10 8 -55 19 -99 13 -48 20 -103 18 -137 l-3 -56 -18 26 c-31 46
-52 190 -51 351 0 81 -3 145 -8 142 -4 -3 -8 -42 -8 -86 0 -66 -7 -102 -35
-191 -20 -60 -34 -111 -31 -114 2 -2 14 26 26 62 12 36 24 64 27 62 11 -12 43
-157 43 -199 0 -51 -12 -61 -32 -28 -7 11 -21 20 -32 20 -10 0 -24 8 -31 17
-11 15 -14 11 -20 -25 -8 -50 -25 -66 -25 -23 0 16 -5 42 -11 58 l-12 28 -7
-32 c-8 -35 -26 -63 -41 -63 -5 0 -9 33 -10 73 l0 72 -24 -52 c-28 -63 -49
-71 -41 -15 8 53 16 161 10 134 -3 -12 -14 -27 -25 -33 -11 -5 -27 -28 -35
-50 -9 -21 -20 -39 -25 -39 -12 0 -11 52 1 85 14 36 -13 45 -41 14 l-21 -24 6
25 c3 14 6 41 6 60 0 31 10 44 83 113 45 44 72 74 60 68 -12 -6 -25 -16 -28
-21 -22 -36 -33 16 -14 67 l10 28 -35 -34 c-19 -19 -33 -38 -30 -42 2 -4 -1
-11 -7 -15 -6 -4 -9 -19 -5 -36 5 -24 -2 -39 -46 -94 -58 -72 -71 -71 -38 3
l21 48 -40 -40 c-46 -44 -53 -34 -17 24 23 35 58 70 102 98 11 7 -3 4 -29 -7
-27 -11 -57 -20 -66 -20 -10 0 -26 -9 -36 -20 -10 -11 -22 -17 -27 -14 -5 3 7
23 27 45 19 21 35 45 35 52 -1 6 -10 1 -21 -12 -24 -30 -38 -20 -15 11 9 13
24 34 33 47 17 23 17 24 -7 17 -24 -7 5 23 110 116 36 32 103 46 196 40 55 -3
83 -1 88 7 5 7 -1 11 -15 11 -13 0 -33 10 -46 22 -20 18 -37 22 -115 24 -74 3
-97 7 -119 23 -19 15 -30 17 -35 10 -4 -7 3 -19 16 -29 l23 -17 -28 -7 c-18
-5 -31 -3 -36 5 -5 9 -17 8 -48 -5 -45 -18 -107 -21 -116 -7 -3 6 16 16 42 25
l48 14 -82 -5 c-59 -4 -83 -3 -83 6 0 6 12 11 28 12 15 0 -6 7 -47 14 -74 14
-108 30 -80 39 8 2 41 8 74 13 l60 8 -77 3 c-43 2 -78 7 -78 12 0 6 15 10 33
11 34 0 32 2 -41 29 -19 8 -40 26 -48 43 -15 28 -15 29 2 22 25 -11 84 -19 84
-11 0 3 -15 12 -32 19 -18 8 -42 24 -52 36 l-19 21 59 1 59 0 -47 15 c-44 13
-98 61 -98 86 0 7 23 8 68 4 l67 -6 -64 25 c-73 29 -87 38 -94 64 -10 39 7 46
68 27 31 -10 59 -16 61 -13 2 2 -22 17 -53 33 -41 21 -59 36 -61 52 -3 19 1
22 26 22 17 0 67 -14 112 -31 45 -17 84 -29 87 -25 3 3 -38 26 -91 50 -53 25
-99 52 -102 61 -4 9 -2 27 4 41 10 21 18 24 62 24 41 0 55 -5 82 -30z m854
-521 c14 -16 15 -22 5 -32 -11 -9 -14 -9 -18 1 -12 32 -22 -5 -17 -61 l6 -62
-27 30 c-17 20 -28 26 -31 17 -3 -6 -10 -10 -15 -6 -14 8 -11 48 6 70 8 10 15
31 15 45 0 23 3 25 29 21 17 -2 38 -13 47 -23z m-296 -199 c10 -7 -11 -10 -70
-10 -59 0 -80 3 -70 10 8 5 40 10 70 10 30 0 62 -5 70 -10z m-350 -125 c-7 -8
-24 -15 -37 -15 -22 0 -24 2 -13 15 7 8 24 15 37 15 22 0 24 -2 13 -15z m-50
-123 c0 -60 5 -88 24 -128 13 -28 27 -65 31 -82 7 -35 30 -60 136 -149 41 -34
95 -80 121 -101 39 -33 57 -41 105 -47 42 -4 68 -2 94 9 31 13 39 13 63 0 16
-8 37 -14 47 -14 21 0 104 59 131 93 17 22 18 21 18 -26 l0 -47 -56 -25 c-63
-28 -89 -30 -146 -13 -31 9 -44 9 -59 0 -32 -20 -119 -14 -174 12 -124 57
-294 227 -329 328 -22 61 -35 285 -17 273 6 -3 11 -40 11 -83z"/>
<path d="M1060 3211 c0 -22 66 -84 83 -78 18 6 8 49 -16 75 -26 28 -67 30 -67
3z"/>
<path d="M1007 3163 c-27 -26 27 -100 90 -124 33 -12 37 -8 28 30 -13 58 -92
121 -118 94z"/>
<path d="M1224 3067 c-9 -24 0 -80 14 -85 8 -2 12 10 12 42 0 45 -15 70 -26
43z"/>
<path d="M1410 3053 c1 -17 77 -91 125 -123 28 -18 62 -44 77 -58 15 -14 30
-23 33 -20 3 3 -49 51 -115 107 -66 56 -120 98 -120 94z"/>
<path d="M1020 2986 c0 -48 75 -80 133 -57 15 6 9 13 -36 44 -64 44 -97 48
-97 13z"/>
<path d="M1330 2880 l55 -29 -42 -1 c-59 0 -73 -8 -73 -41 0 -20 -8 -33 -27
-44 -31 -18 -29 -18 75 16 39 12 72 26 72 30 0 5 -14 3 -31 -3 -39 -13 -48 -4
-16 17 23 15 32 15 118 0 52 -9 102 -18 113 -22 12 -3 16 -1 12 6 -4 5 -23 13
-44 17 -61 10 -144 35 -201 60 -73 32 -78 29 -11 -6z"/>
<path d="M1151 2886 c-47 -15 -60 -39 -37 -65 25 -27 47 -26 74 2 42 45 20 83
-37 63z"/>
<path d="M1495 2769 c28 -4 66 -10 85 -13 l35 -5 -30 14 c-16 8 -55 14 -85 13
l-55 0 50 -9z"/>
<path d="M1520 2719 c25 -4 61 -8 80 -8 28 0 31 2 15 9 -11 5 -47 8 -80 8
l-60 -1 45 -8z"/>
<path d="M1530 2518 c0 -24 11 -48 22 -48 5 0 6 10 3 23 -10 30 -25 46 -25 25z"/>
<path d="M1587 2464 c-15 -25 -25 -49 -22 -54 3 -5 0 -21 -6 -37 -5 -15 -6
-23 -1 -18 10 11 63 147 59 151 -1 2 -15 -17 -30 -42z"/>
<path d="M1663 2405 c0 -44 2 -61 4 -37 2 23 2 59 0 80 -2 20 -4 1 -4 -43z"/>
<path d="M1406 2269 c-21 -24 -24 -34 -15 -45 20 -24 38 -15 48 24 6 20 11 40
11 45 0 16 -20 5 -44 -24z"/>
<path d="M1540 2225 c0 -28 4 -35 20 -35 27 0 50 47 29 61 -31 20 -49 11 -49
-26z"/>
<path d="M363 3774 c-3 -8 1 -22 9 -30 13 -13 16 -13 27 0 7 9 11 23 7 31 -7
20 -35 19 -43 -1z"/>
<path d="M2663 3768 c23 -36 54 -152 62 -230 4 -36 0 -137 -9 -237 -9 -96 -15
-176 -12 -178 11 -11 46 261 46 358 0 109 -41 252 -83 294 l-20 20 16 -27z"/>
<path d="M4574 3779 c-3 -6 1 -18 10 -27 14 -14 17 -14 36 3 16 14 17 20 8 27
-18 11 -46 10 -54 -3z"/>
<path d="M300 3665 c-23 -28 21 -50 48 -23 9 9 7 14 -6 24 -22 17 -27 17 -42
-1z"/>
<path d="M4646 3664 c-11 -30 13 -44 43 -25 12 8 12 12 2 25 -17 20 -37 20
-45 0z"/>
<path d="M240 3550 c-13 -25 -5 -40 20 -40 22 0 30 19 18 43 -12 23 -25 22
-38 -3z"/>
<path d="M4704 3545 c-12 -29 15 -45 45 -26 12 8 12 12 2 25 -17 20 -40 21
-47 1z"/>
<path d="M2250 3470 c-26 -26 -35 -66 -21 -96 14 -31 22 -26 66 39 32 48 34
53 18 65 -24 17 -40 15 -63 -8z"/>
<path d="M186 3424 c-4 -10 -2 -22 3 -27 14 -14 43 0 39 20 -4 24 -34 28 -42
7z"/>
<path d="M4760 3425 c-6 -8 -9 -19 -5 -25 9 -14 40 -13 54 3 8 11 5 16 -13 25
-19 8 -27 8 -36 -3z"/>
<path d="M2335 3375 c-34 -18 -65 -51 -65 -70 0 -23 36 -26 86 -8 35 14 50 25
54 43 13 48 -20 62 -75 35z"/>
<path d="M4805 3299 c-10 -30 11 -48 32 -27 13 14 14 20 3 32 -17 22 -27 20
-35 -5z"/>
<path d="M142 3298 c-13 -13 2 -38 23 -38 21 0 36 25 23 38 -7 7 -17 12 -23
12 -6 0 -16 -5 -23 -12z"/>
<path d="M2333 3249 c-23 -7 -33 -16 -33 -29 0 -27 33 -42 83 -38 37 3 42 6
45 29 3 22 -2 29 -29 38 -18 6 -32 11 -33 10 -1 0 -16 -5 -33 -10z"/>
<path d="M104 3176 c-7 -18 1 -46 13 -46 4 0 15 5 23 10 11 7 12 14 4 27 -15
24 -33 28 -40 9z"/>
<path d="M2128 3173 c-21 -24 -71 -113 -67 -117 2 -2 25 27 51 65 43 63 52 93
16 52z"/>
<path d="M4845 3170 c-8 -13 3 -50 15 -50 13 0 28 32 23 48 -6 15 -29 16 -38
2z"/>
<path d="M2283 3150 c-40 -16 -38 -80 3 -80 26 0 94 32 94 45 0 29 -59 51 -97
35z"/>
<path d="M2676 3036 c-14 -93 -45 -173 -76 -199 -16 -14 -26 -27 -23 -31 3 -3
0 -13 -8 -23 -12 -15 -9 -14 21 3 27 16 40 33 57 80 23 64 47 186 40 206 -2 7
-7 -9 -11 -36z"/>
<path d="M81 3046 c-12 -15 -7 -56 7 -56 4 0 13 9 19 19 9 15 9 23 -1 36 -11
15 -13 15 -25 1z"/>
<path d="M2208 3038 c-61 -35 -63 -78 -5 -78 61 0 100 53 65 88 -16 16 -16 15
-60 -10z"/>
<path d="M4876 3041 c-9 -14 4 -41 19 -41 7 0 18 7 26 16 10 13 10 17 -2 25
-18 11 -36 11 -43 0z"/>
<path d="M2050 2987 c-59 -55 -87 -91 -40 -53 62 51 100 85 100 91 0 13 -18 1
-60 -38z"/>
<path d="M2262 2921 c-20 -12 -10 -45 13 -49 26 -4 64 23 50 36 -16 16 -49 22
-63 13z"/>
<path d="M43 2904 c-3 -8 1 -22 9 -30 13 -13 16 -13 27 0 7 9 11 23 7 31 -7
20 -35 19 -43 -1z"/>
<path d="M4894 2909 c-3 -6 0 -18 9 -26 12 -12 19 -13 36 -3 18 9 20 14 10 26
-14 17 -45 19 -55 3z"/>
<path d="M2264 2826 c-10 -8 -16 -17 -12 -21 8 -8 48 13 48 25 0 14 -13 12
-36 -4z"/>
<path d="M24 2779 c-3 -6 1 -18 10 -27 15 -15 17 -15 34 1 15 16 15 19 2 27
-20 13 -37 12 -46 -1z"/>
<path d="M4916 2773 c-11 -26 10 -38 41 -24 27 12 27 13 8 27 -25 19 -41 18
-49 -3z"/>
<path d="M2055 2730 c-33 -17 -53 -28 -44 -26 73 20 159 48 159 51 0 15 -63 1
-115 -25z"/>
<path d="M2186 2681 c15 -17 84 -27 84 -12 0 6 -10 11 -22 11 -13 0 -34 3 -48
6 -19 5 -22 4 -14 -5z"/>
<path d="M21 2656 c-16 -19 -7 -46 14 -46 22 0 30 29 13 46 -13 13 -16 13 -27
0z"/>
<path d="M4930 2645 c-15 -18 -5 -35 20 -35 10 0 22 5 25 10 7 11 -12 40 -25
40 -4 0 -13 -7 -20 -15z"/>
<path d="M2380 2603 c0 -5 5 -14 12 -21 16 -16 11 -15 -46 4 -26 9 -49 14 -52
11 -4 -4 31 -17 144 -53 7 -2 10 1 7 6 -3 6 -12 10 -19 10 -7 0 -12 10 -12 22
1 14 -6 24 -16 26 -10 2 -18 0 -18 -5z"/>
<path d="M2190 2536 c17 -15 141 -58 148 -51 3 2 -6 9 -19 14 -13 5 -46 19
-72 30 -57 24 -78 27 -57 7z"/>
<path d="M4935 2520 c-18 -19 -18 -22 -2 -37 16 -16 18 -16 33 -1 15 14 15 19
2 37 l-15 21 -18 -20z"/>
<path d="M2405 2520 c-8 -13 13 -40 31 -40 17 0 17 5 4 31 -12 21 -25 25 -35
9z"/>
<path d="M5 2510 c-4 -7 -3 -16 3 -22 14 -14 47 -6 47 12 0 18 -40 26 -50 10z"/>
<path d="M2296 2421 c-8 -13 3 -38 20 -45 19 -7 44 3 44 18 0 28 -51 49 -64
27z"/>
<path d="M13 2374 c-3 -8 1 -22 9 -30 13 -13 16 -13 27 0 7 9 11 23 7 31 -7
20 -35 19 -43 -1z"/>
<path d="M4927 2377 c-3 -8 -1 -20 3 -27 7 -11 13 -12 37 -1 27 12 27 13 8 27
-24 18 -41 18 -48 1z"/>
<path d="M30 2250 c-14 -26 0 -46 24 -37 20 8 21 31 2 46 -12 10 -17 8 -26 -9z"/>
<path d="M4919 2244 c-10 -12 -9 -18 3 -31 19 -18 38 -10 38 17 0 24 -25 33
-41 14z"/>
<path d="M4904 2115 c-18 -13 -18 -15 -1 -32 16 -17 18 -17 37 2 19 20 19 21
1 32 -15 9 -23 9 -37 -2z"/>
<path d="M45 2110 c-4 -7 -3 -16 3 -22 14 -14 47 -6 47 12 0 18 -40 26 -50 10z"/>
<path d="M69 1984 c-10 -12 -9 -18 3 -30 13 -13 19 -14 37 -2 27 17 26 22 -3
36 -19 9 -27 8 -37 -4z"/>
<path d="M4876 1984 c-7 -19 1 -34 19 -34 8 0 16 4 19 9 9 14 -4 41 -19 41 -7
0 -16 -7 -19 -16z"/>
<path d="M2202 1946 c44 -42 86 -48 118 -16 29 29 25 41 -7 24 -38 -19 -65
-18 -110 7 l-38 21 37 -36z"/>
<path d="M108 1863 c-20 -22 -9 -47 17 -41 24 4 28 20 12 42 -12 17 -13 17
-29 -1z"/>
<path d="M4844 1855 c-7 -17 2 -45 14 -45 4 0 17 6 28 14 19 15 19 15 -1 30
-25 20 -34 20 -41 1z"/>
<path d="M141 1727 c-8 -10 -7 -19 4 -33 13 -18 15 -18 31 -2 14 14 15 20 4
32 -15 19 -24 20 -39 3z"/>
<path d="M4811 1731 c-8 -5 -11 -16 -6 -30 8 -25 18 -27 35 -5 11 12 11 18 -1
29 -9 9 -19 11 -28 6z"/>
<path d="M184 1599 c-3 -6 1 -18 10 -27 15 -15 17 -15 32 0 19 19 11 38 -16
38 -10 0 -22 -5 -26 -11z"/>
<path d="M4754 1599 c-3 -6 1 -18 10 -27 15 -15 17 -15 32 0 19 19 11 38 -16
38 -10 0 -22 -5 -26 -11z"/>
<path d="M1478 1493 c-48 -14 -84 -48 -94 -89 -10 -40 22 -82 89 -115 80 -40
97 -56 97 -89 0 -47 -67 -87 -127 -75 -46 8 -64 29 -56 65 5 26 2 30 -16 30
-13 0 -21 -6 -21 -17 0 -10 -3 -34 -6 -54 l-6 -35 52 -12 c63 -15 84 -15 133
-1 57 16 97 56 104 105 8 58 -9 81 -83 116 -35 16 -73 41 -84 55 -18 23 -18
27 -5 54 37 71 173 51 150 -22 -5 -14 -1 -19 14 -19 12 0 21 3 21 8 0 4 4 24
9 45 8 34 7 39 -12 46 -43 16 -113 18 -159 4z"/>
<path d="M2670 1485 c-18 -21 16 -61 37 -44 18 15 17 46 -3 53 -21 8 -20 8
-34 -9z"/>
<path d="M236 1481 c-10 -16 5 -41 24 -41 26 0 43 23 28 38 -14 14 -45 16 -52
3z"/>
<path d="M4704 1475 c-13 -32 23 -48 47 -19 10 13 10 17 -2 25 -21 13 -39 11
-45 -6z"/>
<path d="M1758 1372 c-34 -2 -48 -7 -48 -18 0 -8 9 -14 21 -14 17 0 20 -5 16
-22 -3 -13 -13 -57 -23 -99 -18 -79 -15 -105 11 -115 34 -14 84 17 130 81 13
18 14 17 12 -25 l-2 -45 44 0 c29 0 46 5 49 14 3 10 -2 13 -22 9 -14 -3 -26
-4 -26 -2 0 1 11 50 25 108 14 58 25 110 25 116 0 5 -11 10 -25 10 -20 0 -26
-7 -35 -42 -21 -79 -90 -178 -125 -178 -20 0 -19 22 5 126 11 48 19 90 18 93
-2 3 -24 5 -50 3z"/>
<path d="M2186 1353 c-14 -16 -33 -37 -41 -48 -15 -19 -16 -18 -10 23 l5 43
-47 -3 c-45 -3 -76 -28 -34 -28 26 0 26 -11 1 -120 -24 -106 -24 -110 -1 -110
25 0 37 17 44 64 7 41 70 144 95 154 8 3 19 -2 24 -11 20 -36 47 -10 48 46 0
28 -54 22 -84 -10z"/>
<path d="M2326 1371 c-31 -6 -48 -31 -22 -31 22 0 26 -11 45 -123 15 -91 19
-102 38 -105 18 -3 31 11 67 67 25 39 59 96 76 128 l31 58 -31 3 c-18 2 -38 1
-46 -2 -21 -8 -17 -26 7 -26 24 0 26 6 -30 -94 -51 -91 -51 -91 -71 47 -7 53
-17 87 -24 86 -6 -1 -24 -4 -40 -8z"/>
<path d="M2651 1370 c-45 -5 -71 -30 -31 -30 16 0 20 -5 16 -17 -16 -52 -36
-152 -36 -180 0 -31 2 -33 38 -33 35 0 62 14 62 32 0 4 -11 3 -25 -2 -31 -12
-31 -13 0 112 15 55 25 106 23 112 -2 7 -19 9 -47 6z"/>
<path d="M2798 1373 c-14 -2 -32 -11 -38 -19 -10 -11 -9 -14 8 -14 28 0 37
-19 52 -122 16 -106 21 -116 52 -101 22 10 140 194 152 239 6 19 3 20 -36 15
-43 -6 -66 -31 -28 -31 12 0 20 -3 18 -8 -15 -34 -91 -162 -95 -159 -3 4 -32
177 -33 200 0 7 -4 7 -52 0z"/>
<path d="M3129 1357 c-54 -36 -79 -82 -79 -143 0 -41 5 -59 24 -81 21 -24 31
-28 79 -28 94 0 157 66 157 162 0 47 -4 59 -29 84 -38 38 -101 40 -152 6z
m106 -11 c14 -10 19 -25 19 -55 -4 -129 -71 -205 -129 -147 -29 29 -31 57 -9
123 28 83 73 113 119 79z"/>
<path d="M3421 1371 c-45 -6 -71 -31 -32 -31 26 0 26 -4 1 -125 -11 -53 -20
-99 -20 -101 0 -2 11 -4 25 -4 19 0 26 7 31 28 15 67 29 100 62 145 37 48 58
58 68 32 9 -22 31 -18 38 8 12 46 7 57 -23 57 -23 0 -39 -11 -71 -47 l-41 -48
7 48 c3 26 5 46 3 45 -2 0 -24 -4 -48 -7z"/>
<path d="M294 1359 c-3 -6 0 -18 9 -26 12 -12 19 -13 36 -3 18 9 20 14 10 26
-14 17 -45 19 -55 3z"/>
<path d="M4644 1355 c-4 -9 0 -24 10 -33 15 -15 18 -15 26 -2 6 8 9 22 7 30
-3 21 -36 25 -43 5z"/>
<path d="M4582 1250 c-14 -23 -8 -40 13 -40 19 0 27 17 20 40 -8 25 -17 25
-33 0z"/>
<path d="M373 1253 c-17 -6 -16 -38 1 -52 21 -18 44 25 24 44 -7 7 -19 11 -25
8z"/>
<path d="M4511 1136 c-9 -11 -10 -20 -1 -35 14 -27 27 -27 35 0 4 13 2 27 -7
36 -13 12 -16 12 -27 -1z"/>
<path d="M434 1129 c-3 -6 1 -18 10 -27 15 -15 17 -15 34 1 15 16 15 19 2 27
-20 13 -37 12 -46 -1z"/>
<path d="M523 1033 c-17 -6 -16 -40 1 -46 8 -3 22 0 32 8 15 11 16 15 5 29
-14 17 -18 18 -38 9z"/>
<path d="M4431 1021 c-12 -21 -5 -31 20 -31 24 0 33 18 19 35 -17 20 -27 19
-39 -4z"/>
<path d="M4352 928 c-19 -19 -15 -48 7 -48 25 0 34 14 26 40 -7 23 -16 25 -33
8z"/>
<path d="M594 919 c-3 -6 0 -18 9 -26 12 -12 19 -13 36 -3 18 9 20 14 10 26
-14 17 -45 19 -55 3z"/>
<path d="M4260 829 c-10 -17 -9 -24 3 -36 8 -9 20 -12 26 -9 16 10 14 41 -3
55 -12 10 -17 8 -26 -10z"/>
<path d="M2044 825 c-12 -8 -27 -28 -34 -45 -7 -16 -20 -30 -29 -30 -15 -1
-15 -2 1 -13 15 -12 15 -19 2 -83 -17 -81 -33 -134 -41 -134 -4 0 -15 7 -25
17 -17 15 -18 15 -18 -5 0 -15 8 -24 26 -28 47 -12 74 38 99 179 4 29 13 41
33 49 26 11 26 12 5 15 -26 5 -30 30 -9 59 13 17 17 17 37 6 18 -11 23 -12 30
-1 17 28 -42 39 -77 14z"/>
<path d="M2328 823 c-8 -10 -41 -62 -74 -115 -32 -54 -67 -100 -76 -103 -10
-4 -18 -11 -18 -16 0 -12 77 -12 85 1 3 6 -1 10 -9 10 -10 0 -13 6 -9 18 13
36 36 52 75 52 33 0 40 -4 49 -27 9 -23 7 -30 -13 -45 -23 -17 -23 -18 35 -18
31 0 57 4 57 10 0 6 -6 10 -14 10 -16 0 -22 24 -31 120 -12 124 -22 143 -57
103z m19 -129 c-3 -3 -21 -4 -41 -2 l-35 3 32 55 32 55 8 -53 c5 -30 7 -56 4
-58z"/>
<path d="M2490 831 c0 -5 6 -11 12 -13 10 -4 9 -25 -5 -95 -25 -131 -24 -141
17 -148 83 -16 166 92 122 160 -19 29 -42 32 -75 8 l-24 -16 6 40 c4 23 10 48
13 57 5 13 -1 16 -30 16 -20 0 -36 -4 -36 -9z m117 -148 c-8 -72 -71 -121 -96
-75 -7 14 -2 30 21 67 35 57 45 65 66 58 11 -5 13 -17 9 -50z"/>
<path d="M687 816 c-9 -23 18 -39 43 -26 17 9 19 14 9 26 -15 18 -45 18 -52 0z"/>
<path d="M1814 756 c-43 -19 -64 -53 -64 -101 0 -46 6 -57 38 -74 58 -31 132
28 132 104 0 41 -18 75 -40 75 -5 0 -14 2 -22 5 -7 2 -27 -2 -44 -9z m58 -23
c22 -20 23 -41 2 -93 -16 -40 -49 -60 -73 -45 -16 9 -13 80 3 120 16 39 39 45
68 18z"/>
<path d="M3163 758 c-76 -20 -115 -137 -57 -174 20 -14 33 -15 61 -8 20 5 38
15 41 22 3 9 -2 10 -22 2 -30 -11 -52 -5 -60 17 -9 22 10 41 55 55 47 13 62
29 57 59 -4 27 -34 38 -75 27z m37 -31 c0 -22 -24 -46 -52 -53 -32 -7 -33 -4
-13 36 11 21 23 30 40 30 14 0 25 -6 25 -13z"/>
<path d="M2936 744 c-26 -25 -19 -47 26 -85 37 -32 41 -39 29 -53 -17 -21 -49
-20 -73 1 -17 15 -18 15 -18 -5 0 -20 5 -22 49 -22 89 0 112 60 40 105 -26 17
-39 32 -37 43 4 24 46 27 69 6 18 -16 19 -16 19 4 0 19 -6 22 -44 22 -27 0
-51 -6 -60 -16z"/>
<path d="M785 730 c-7 -23 1 -40 20 -40 18 0 24 21 13 43 -12 23 -25 22 -33
-3z"/>
<path d="M2702 736 c16 -11 16 -17 2 -70 -8 -32 -13 -65 -10 -72 8 -21 53 -17
76 6 25 25 30 25 30 1 0 -11 5 -23 10 -26 14 -9 51 4 44 16 -3 5 -10 7 -15 4
-12 -8 -11 9 6 80 18 74 18 75 2 75 -7 0 -26 -27 -42 -60 -29 -62 -60 -98 -72
-87 -3 4 1 38 9 77 l16 70 -37 0 c-32 -1 -34 -2 -19 -14z"/>
<path d="M4171 736 c-16 -19 -7 -46 14 -46 22 0 30 29 13 46 -13 13 -16 13
-27 0z"/>
<path d="M884 646 c-8 -22 3 -49 19 -43 6 2 12 14 12 27 0 27 -22 39 -31 16z"/>
<path d="M4071 647 c-14 -17 -4 -47 15 -47 22 0 29 29 12 46 -13 13 -16 13
-27 1z"/>
<path d="M3967 563 c-12 -11 -8 -41 6 -46 7 -3 21 1 32 9 18 14 18 14 -1 29
-22 16 -28 18 -37 8z"/>
<path d="M984 549 c-3 -6 0 -17 8 -25 12 -12 17 -12 33 1 17 13 18 16 5 25
-20 13 -37 13 -46 -1z"/>
<path d="M1094 475 c-12 -30 16 -45 46 -25 13 9 12 12 -4 25 -25 19 -35 19
-42 0z"/>
<path d="M3854 475 c-12 -31 23 -48 45 -21 10 12 8 17 -8 25 -26 14 -31 14
-37 -4z"/>
<path d="M3752 418 c-14 -14 -16 -44 -3 -52 4 -3 16 1 26 8 16 12 17 15 3 34
-11 17 -17 19 -26 10z"/>
<path d="M1213 413 c-16 -6 -17 -25 -1 -41 12 -12 48 1 48 18 0 13 -32 28 -47
23z"/>
<path d="M1322 338 c-13 -13 2 -38 23 -38 21 0 36 25 23 38 -7 7 -17 12 -23
12 -6 0 -16 -5 -23 -12z"/>
<path d="M3631 336 c-14 -16 -4 -46 14 -46 16 0 29 35 20 50 -9 14 -20 13 -34
-4z"/>
<path d="M1437 276 c-6 -15 11 -36 29 -36 21 0 35 25 22 38 -16 16 -45 15 -51
-2z"/>
<path d="M3504 275 c-13 -32 23 -48 47 -19 10 13 10 17 -2 25 -21 13 -39 11
-45 -6z"/>
<path d="M1567 233 c-11 -10 -8 -41 4 -49 6 -3 18 1 27 9 13 13 13 19 2 31
-14 17 -23 20 -33 9z"/>
<path d="M3384 225 c-12 -31 23 -48 45 -21 10 12 8 17 -8 25 -26 14 -31 14
-37 -4z"/>
<path d="M1686 183 c-4 -9 -1 -23 7 -30 12 -12 16 -12 26 0 13 17 5 47 -14 47
-7 0 -16 -8 -19 -17z"/>
<path d="M3255 180 c-3 -5 -1 -19 6 -31 10 -19 12 -20 26 -6 9 9 13 23 10 31
-7 18 -32 21 -42 6z"/>
<path d="M1821 147 c-26 -26 -4 -55 29 -37 25 13 25 22 1 37 -14 9 -21 9 -30
0z"/>
<path d="M3136 144 c-13 -12 -14 -19 -5 -30 14 -17 20 -17 43 -1 16 12 16 14
-2 30 -18 17 -21 17 -36 1z"/>
<path d="M1944 115 c-9 -21 3 -45 21 -45 21 0 30 27 15 45 -16 19 -29 19 -36
0z"/>
<path d="M3002 107 c-16 -19 11 -58 28 -41 14 14 10 46 -6 51 -6 2 -16 -2 -22
-10z"/>
<path d="M2082 88 c-28 -28 0 -56 31 -33 22 16 21 22 -1 34 -13 7 -23 6 -30
-1z"/>
<path d="M2872 88 c-8 -8 -8 -17 -1 -30 8 -15 13 -16 32 -7 32 17 32 18 11 34
-23 18 -27 18 -42 3z"/>
<path d="M2211 76 c-16 -19 -7 -46 14 -46 22 0 30 29 13 46 -13 13 -16 13 -27
0z"/>
<path d="M2740 70 c-13 -24 -5 -40 20 -40 23 0 31 21 15 43 -16 22 -22 21 -35
-3z"/>
<path d="M2341 56 c-10 -12 -10 -19 2 -36 12 -18 16 -18 26 -6 14 17 11 48 -5
53 -6 2 -17 -3 -23 -11z"/>
<path d="M2606 54 c-8 -21 1 -34 24 -34 25 0 35 17 20 35 -16 20 -36 19 -44
-1z"/>
<path d="M2472 38 c5 -34 38 -37 38 -4 0 20 -5 26 -21 26 -15 0 -20 -5 -17
-22z"/>
</g>
</svg>
