<?xml version="1.0" standalone="no"?>
<!DOCTYPE svg PUBLIC "-//W3C//DTD SVG 20010904//EN"
 "http://www.w3.org/TR/2001/REC-SVG-20010904/DTD/svg10.dtd">
<svg version="1.0" xmlns="http://www.w3.org/2000/svg"
 width="500.000000pt" height="499.000000pt" viewBox="0 0 500.000000 499.000000"
 preserveAspectRatio="xMidYMid meet">
<metadata>
Created by potrace 1.15, written by Peter Selinger 2001-2017
</metadata>
<g transform="translate(0.000000,499.000000) scale(0.100000,-0.100000)"
fill="#000000" stroke="none">
<path d="M2473 4973 c-17 -6 -16 -38 1 -52 21 -18 44 25 24 44 -7 7 -19 11
-25 8z"/>
<path d="M2600 4964 c-11 -12 -10 -18 3 -32 16 -15 18 -15 34 0 13 14 14 20 3
32 -7 9 -16 16 -20 16 -4 0 -13 -7 -20 -16z"/>
<path d="M2327 4956 c-9 -23 18 -39 43 -26 17 9 19 14 9 26 -15 18 -45 18 -52
0z"/>
<path d="M2072 4948 c-16 -16 -15 -33 2 -47 10 -9 16 -8 26 3 16 21 -10 62
-28 44z"/>
<path d="M2200 4945 c-10 -12 -10 -18 0 -31 12 -13 15 -13 28 0 15 15 10 46
-6 46 -5 0 -15 -7 -22 -15z"/>
<path d="M2724 4949 c-3 -6 1 -18 10 -27 15 -15 17 -15 32 0 19 19 11 38 -16
38 -10 0 -22 -5 -26 -11z"/>
<path d="M2872 4939 c-15 -24 0 -51 24 -42 18 6 18 37 1 51 -10 8 -16 6 -25
-9z"/>
<path d="M3000 4915 c-15 -18 -6 -45 13 -45 25 0 37 23 23 43 -16 21 -20 21
-36 2z"/>
<path d="M1931 4907 c-8 -10 -7 -19 4 -33 13 -18 15 -18 31 -2 14 14 15 20 4
32 -15 19 -24 20 -39 3z"/>
<path d="M1803 4874 c-3 -8 1 -22 8 -29 12 -12 17 -12 33 1 20 14 20 14 0 29
-25 19 -33 19 -41 -1z"/>
<path d="M3129 4874 c-10 -12 -9 -18 3 -31 19 -18 38 -10 38 17 0 24 -25 33
-41 14z"/>
<path d="M1681 4846 c-16 -19 -7 -46 14 -46 22 0 30 29 13 46 -13 13 -16 13
-27 0z"/>
<path d="M3260 4835 c-15 -18 -5 -35 20 -35 10 0 22 5 25 10 7 11 -12 40 -25
40 -4 0 -13 -7 -20 -15z"/>
<path d="M1550 4795 c-11 -13 -11 -19 3 -33 20 -19 41 -5 35 24 -4 24 -22 28
-38 9z"/>
<path d="M2577 4803 c-4 -3 -7 -19 -7 -34 0 -30 15 -39 66 -39 35 0 35 0 32
-42 -4 -55 -26 -60 -83 -19 -24 17 -47 31 -52 31 -4 0 -40 -16 -80 -36 l-72
-37 -283 -8 c-156 -4 -373 -9 -483 -10 -110 -1 -213 -5 -230 -9 -16 -4 186 -8
450 -9 374 -1 476 -4 467 -13 -9 -9 -119 -14 -400 -20 -213 -4 -400 -10 -417
-12 -16 -2 123 -1 311 2 187 2 362 2 389 -2 l49 -8 -61 -38 c-36 -23 -63 -48
-67 -62 -9 -36 -7 -325 5 -643 l11 -289 32 -39 c17 -22 92 -79 169 -130 l137
-90 -16 -25 c-16 -24 -16 -26 6 -44 13 -10 30 -23 38 -27 13 -7 12 -13 -6 -36
-26 -33 -28 -58 -6 -75 27 -23 32 -43 44 -170 10 -101 16 -128 31 -142 10 -9
19 -19 19 -22 0 -3 -22 -40 -50 -82 -55 -84 -68 -128 -51 -175 29 -84 -4 -154
-107 -224 -41 -27 -84 -66 -95 -85 l-21 -35 38 34 c22 18 69 53 106 76 127 81
147 124 113 231 l-21 63 64 102 c35 56 64 106 64 111 0 5 -13 14 -28 19 l-29
10 -7 142 c-5 128 -8 144 -27 160 -31 25 -18 31 34 13 43 -14 87 -12 87 5 0 4
-21 9 -47 11 l-48 3 -3 43 -3 43 43 -3 c40 -3 43 -5 48 -37 4 -25 12 -36 35
-45 l30 -13 -45 -21 c-35 -16 -40 -21 -22 -21 l24 -1 -4 -137 c-4 -132 -5
-141 -36 -203 -18 -36 -48 -85 -68 -109 -38 -48 -38 -47 -18 -179 14 -93 -21
-155 -119 -210 -59 -33 -146 -121 -172 -173 -13 -26 2 -15 67 51 46 47 109
100 140 117 104 59 145 150 114 255 -24 82 -21 97 29 158 25 30 45 59 45 65 0
6 10 28 22 50 20 35 23 55 23 160 1 93 5 127 18 152 22 42 21 66 -3 88 -26 24
-25 33 5 41 37 9 49 37 30 73 -8 17 -15 36 -15 43 0 7 61 53 136 102 l136 89
-5 241 c-5 252 -22 598 -33 676 -11 79 -25 95 -120 140 -85 40 -85 40 -72 148
8 69 8 98 0 117 -11 24 -16 25 -90 25 -43 0 -82 -3 -85 -7z m148 -44 c11 -35
-5 -145 -23 -162 -14 -13 -64 -24 -179 -41 -13 -2 -23 0 -23 4 0 7 39 19 138
41 60 13 72 30 72 99 0 51 -32 76 -85 66 -22 -4 -35 -3 -35 4 0 6 26 10 64 10
57 0 65 -3 71 -21z m-166 -110 c43 -15 39 -28 -8 -22 -31 4 -43 1 -60 -16 -28
-28 -29 -96 -2 -111 30 -15 66 -12 92 9 13 10 50 24 81 30 l57 12 81 -47 c45
-25 88 -56 96 -69 21 -32 31 -143 46 -490 14 -327 15 -433 5 -458 -3 -9 -67
-57 -142 -107 -147 -98 -168 -123 -140 -166 l15 -24 -105 0 c-63 0 -105 4
-105 10 0 6 31 10 74 10 41 0 78 5 81 10 4 6 -13 10 -45 10 -45 0 -55 4 -93
39 -23 21 -101 77 -173 124 -71 47 -135 91 -141 99 -6 7 -15 120 -22 268 -6
140 -16 341 -23 445 -9 161 -9 195 3 220 10 22 58 55 189 132 96 56 182 102
191 103 9 0 30 -5 48 -11z"/>
<path d="M2575 4489 c-36 -23 -65 -24 -91 -4 -28 21 -40 18 -19 -5 24 -27 94
-27 126 -1 32 26 21 33 -16 10z"/>
<path d="M2160 4286 c0 -44 32 -473 36 -481 4 -10 0 126 -13 363 -3 67 -10
125 -15 128 -4 3 -8 -2 -8 -10z"/>
<path d="M2878 4217 c-4 -21 -3 -48 1 -60 5 -12 12 -64 16 -114 4 -51 10 -93
14 -93 6 0 -13 247 -22 290 -1 8 -6 -2 -9 -23z"/>
<path d="M2872 4070 c0 -36 5 -121 12 -190 8 -69 14 -102 14 -75 0 28 -5 113
-12 190 -9 97 -13 120 -14 75z"/>
<path d="M2251 4099 c-50 -15 -34 -18 30 -7 58 11 81 7 213 -42 64 -23 88 -21
164 12 41 19 51 19 94 8 28 -7 60 -9 76 -4 25 7 23 8 -23 16 -80 15 -108 13
-162 -10 -58 -25 -79 -23 -190 14 -74 25 -144 29 -202 13z"/>
<path d="M2400 3550 c0 -3 7 -30 15 -60 8 -30 13 -55 11 -57 -1 -2 -28 11 -59
28 -31 17 -57 27 -56 22 0 -8 122 -105 139 -111 17 -6 11 43 -12 105 -18 49
-38 88 -38 73z"/>
<path d="M2462 3512 c54 -131 65 -152 81 -152 26 0 31 24 20 93 l-10 62 -2
-53 c-1 -67 -17 -66 -51 6 -14 28 -29 52 -33 52 -5 0 -7 -4 -5 -8z"/>
<path d="M2757 3450 c-32 -28 -87 -56 -87 -44 0 3 7 18 15 34 9 17 12 30 7 30
-13 0 -85 -111 -77 -118 11 -11 110 47 150 88 46 47 41 53 -8 10z"/>
<path d="M3385 4790 c-8 -13 3 -50 15 -50 5 0 14 8 19 18 15 27 -18 58 -34 32z"/>
<path d="M1431 4746 c-16 -19 -7 -46 14 -46 22 0 30 29 13 46 -13 13 -16 13
-27 0z"/>
<path d="M3505 4740 c-8 -24 1 -40 21 -40 20 0 29 27 14 45 -17 20 -27 19 -35
-5z"/>
<path d="M1305 4680 c-9 -15 5 -52 18 -47 6 2 15 11 21 20 8 13 7 20 -4 27
-19 12 -27 12 -35 0z"/>
<path d="M3629 4674 c-10 -12 -9 -18 5 -32 15 -15 18 -15 26 -2 5 8 10 20 10
26 0 19 -28 24 -41 8z"/>
<path d="M3747 4623 c-10 -9 -9 -41 2 -47 4 -3 16 1 27 8 15 12 16 16 5 30
-15 17 -24 20 -34 9z"/>
<path d="M1184 4609 c-3 -6 0 -18 9 -26 12 -12 18 -13 35 -2 16 10 18 16 10
26 -13 16 -44 17 -54 2z"/>
<path d="M1074 4535 c-4 -10 -1 -21 7 -26 20 -12 34 -5 34 17 0 24 -33 31 -41
9z"/>
<path d="M3853 4534 c-3 -8 1 -22 9 -30 13 -13 16 -13 27 0 7 9 11 23 7 31 -7
20 -35 19 -43 -1z"/>
<path d="M964 4459 c-3 -6 1 -18 10 -27 15 -15 17 -15 32 0 19 19 11 38 -16
38 -10 0 -22 -5 -26 -11z"/>
<path d="M3962 4448 c4 -28 19 -32 43 -13 17 13 18 16 5 25 -27 18 -52 12 -48
-12z"/>
<path d="M4072 4388 c-17 -17 -15 -35 4 -42 26 -10 46 12 31 35 -14 22 -19 23
-35 7z"/>
<path d="M861 4377 c-8 -10 -7 -19 4 -33 15 -19 15 -19 30 0 11 14 12 23 4 33
-6 7 -15 13 -19 13 -4 0 -13 -6 -19 -13z"/>
<path d="M767 4303 c-11 -10 -8 -41 4 -49 6 -3 18 1 27 9 13 13 13 19 2 31
-14 17 -23 20 -33 9z"/>
<path d="M4167 4293 c-24 -24 12 -50 43 -31 14 9 16 16 8 25 -11 14 -40 17
-51 6z"/>
<path d="M4264 4203 c-14 -24 -7 -43 17 -43 25 0 35 25 19 45 -16 19 -23 19
-36 -2z"/>
<path d="M670 4195 c-15 -18 -5 -35 20 -35 10 0 22 5 25 10 7 11 -12 40 -25
40 -4 0 -13 -7 -20 -15z"/>
<path d="M581 4106 c-16 -19 -7 -46 14 -46 22 0 30 29 13 46 -13 13 -16 13
-27 0z"/>
<path d="M4354 4095 c-12 -29 15 -45 45 -26 12 8 12 12 2 25 -17 20 -40 21
-47 1z"/>
<path d="M502 3998 c-29 -29 0 -56 33 -32 10 8 17 15 14 17 -2 1 -11 8 -20 15
-12 9 -18 9 -27 0z"/>
<path d="M4440 3995 c-19 -22 5 -48 31 -34 10 5 19 14 19 19 0 5 -9 14 -19 19
-14 8 -22 7 -31 -4z"/>
<path d="M423 3893 c-17 -6 -17 -28 0 -41 12 -10 47 6 47 21 0 10 -34 25 -47
20z"/>
<path d="M4520 3884 c-11 -12 -11 -18 1 -30 13 -12 18 -12 34 0 16 12 17 16 6
30 -17 20 -25 20 -41 0z"/>
<path d="M353 3783 c-17 -6 -17 -39 0 -46 13 -5 47 14 47 26 0 10 -34 25 -47
20z"/>
<path d="M4590 3775 c-19 -22 5 -48 31 -34 10 5 19 14 19 19 0 5 -9 14 -19 19
-14 8 -22 7 -31 -4z"/>
<path d="M4655 3659 c-8 -26 6 -42 28 -33 20 7 22 25 5 42 -17 17 -26 15 -33
-9z"/>
<path d="M274 3655 c-12 -29 15 -45 45 -26 12 8 12 12 2 25 -17 20 -40 21 -47
1z"/>
<path d="M4715 3540 c-8 -24 1 -40 21 -40 20 0 29 27 14 45 -17 20 -27 19 -35
-5z"/>
<path d="M220 3535 c-17 -21 1 -39 29 -30 25 8 28 30 5 39 -21 8 -20 8 -34 -9z"/>
<path d="M164 3415 c-7 -18 3 -35 22 -35 20 0 30 30 13 41 -20 12 -29 11 -35
-6z"/>
<path d="M4769 3414 c-15 -18 0 -38 27 -32 25 5 28 25 6 37 -15 8 -23 7 -33
-5z"/>
<path d="M114 3285 c-4 -9 0 -24 10 -33 15 -15 18 -15 26 -2 6 8 9 22 7 30 -3
21 -36 25 -43 5z"/>
<path d="M4814 3285 c-4 -8 0 -22 7 -31 12 -14 14 -14 25 1 7 9 10 23 7 31 -7
19 -32 18 -39 -1z"/>
<path d="M75 3160 c-17 -27 33 -42 54 -16 9 11 8 15 -5 20 -23 9 -42 7 -49 -4z"/>
<path d="M4847 3157 c-3 -7 2 -22 10 -32 14 -19 15 -19 28 -2 7 11 11 25 8 33
-7 18 -39 18 -46 1z"/>
<path d="M50 3034 c-11 -12 -10 -18 3 -32 16 -15 18 -15 34 0 13 14 14 20 3
32 -7 9 -16 16 -20 16 -4 0 -13 -7 -20 -16z"/>
<path d="M4883 3024 c-3 -8 1 -22 10 -31 14 -14 16 -13 26 6 7 12 9 26 6 31
-10 15 -35 12 -42 -6z"/>
<path d="M2582 2951 c-24 -78 -9 -134 22 -89 23 32 20 128 -3 128 -5 0 -13
-17 -19 -39z"/>
<path d="M20 2905 c-10 -12 -10 -19 1 -32 7 -10 15 -20 16 -22 4 -5 32 31 33
41 0 4 -9 12 -19 17 -14 8 -22 7 -31 -4z"/>
<path d="M4910 2904 c-11 -12 -10 -18 3 -31 15 -15 18 -15 37 2 19 17 19 19 2
31 -22 17 -27 17 -42 -2z"/>
<path d="M12 2788 c-16 -16 -15 -33 2 -47 10 -9 16 -8 26 3 16 21 -10 62 -28
44z"/>
<path d="M4925 2770 c-3 -5 -1 -19 6 -31 10 -19 12 -20 26 -6 9 9 13 23 10 31
-7 18 -32 21 -42 6z"/>
<path d="M0 2630 c0 -33 11 -38 30 -15 10 12 10 18 0 30 -19 23 -30 18 -30
-15z"/>
<path d="M4936 2634 c-3 -9 -4 -20 0 -25 8 -14 40 -11 53 5 10 12 8 17 -8 25
-27 15 -38 14 -45 -5z"/>
<path d="M4946 2507 c-16 -12 -17 -16 -5 -35 17 -27 21 -27 37 -1 12 18 11 24
0 35 -12 12 -17 12 -32 1z"/>
<path d="M0 2490 c0 -11 7 -20 15 -20 8 0 15 9 15 20 0 11 -7 20 -15 20 -8 0
-15 -9 -15 -20z"/>
<path d="M0 2355 c0 -29 8 -31 36 -10 16 13 17 16 4 25 -25 17 -40 11 -40 -15z"/>
<path d="M4937 2367 c-3 -8 -1 -20 3 -27 7 -11 14 -12 35 -2 22 10 25 15 15
27 -15 19 -46 19 -53 2z"/>
<path d="M5 2239 c-9 -28 9 -46 29 -30 12 10 13 18 5 32 -13 25 -26 24 -34 -2z"/>
<path d="M4927 2236 c-9 -24 18 -39 44 -25 22 11 22 12 4 25 -24 18 -41 18
-48 0z"/>
<path d="M24 2105 c-12 -30 16 -45 46 -25 13 9 12 12 -4 25 -25 19 -35 19 -42
0z"/>
<path d="M4910 2104 c-11 -12 -10 -18 3 -32 16 -15 18 -15 34 0 13 14 14 20 3
32 -7 9 -16 16 -20 16 -4 0 -13 -7 -20 -16z"/>
<path d="M49 1974 c-16 -20 2 -38 30 -29 26 8 27 21 2 34 -14 8 -22 7 -32 -5z"/>
<path d="M4880 1975 c-15 -18 -5 -35 20 -35 10 0 22 5 25 10 7 11 -12 40 -25
40 -4 0 -13 -7 -20 -15z"/>
<path d="M80 1845 c-22 -26 7 -46 39 -26 12 8 12 12 2 25 -17 20 -25 20 -41 1z"/>
<path d="M4851 1841 c-15 -28 10 -47 38 -29 26 16 26 24 2 38 -26 14 -29 13
-40 -9z"/>
<path d="M1218 1770 c-44 -24 -58 -46 -58 -92 0 -49 21 -72 99 -108 77 -36 98
-64 80 -104 -17 -37 -68 -60 -119 -53 -50 6 -62 20 -57 65 2 25 -1 32 -14 32
-23 0 -26 -5 -34 -62 l-7 -46 58 -12 c110 -23 199 8 227 79 16 39 13 74 -7
100 -6 8 -44 30 -84 49 -74 36 -94 58 -84 94 7 30 43 48 92 48 53 0 70 -13 70
-52 0 -21 5 -28 19 -28 15 0 20 10 26 46 3 25 4 48 1 52 -4 3 -43 7 -89 9 -68
3 -88 0 -119 -17z"/>
<path d="M2957 1783 c-13 -12 -7 -41 9 -47 17 -7 54 10 54 24 0 19 -50 37 -63
23z"/>
<path d="M2172 1705 c-17 -25 -38 -45 -46 -45 -7 0 -19 -7 -26 -15 -11 -13 -8
-15 15 -15 23 0 26 -3 21 -22 -3 -13 -13 -60 -22 -105 -13 -67 -14 -86 -4 -98
17 -21 54 -19 81 5 l24 21 -34 -7 -33 -6 7 33 c34 166 35 170 66 176 35 7 39
33 5 33 -22 0 -23 3 -16 40 4 22 4 42 0 45 -4 2 -21 -16 -38 -40z"/>
<path d="M122 1728 c-17 -17 -15 -35 5 -42 22 -9 36 7 28 33 -7 24 -16 26 -33
9z"/>
<path d="M4823 1723 c-18 -7 -16 -32 2 -39 23 -9 48 15 34 32 -12 15 -16 16
-36 7z"/>
<path d="M1899 1622 l-50 -50 7 45 6 44 -47 -3 c-47 -3 -79 -28 -36 -28 26 0
26 -10 1 -124 -25 -111 -25 -106 4 -106 20 0 26 7 35 47 15 59 33 94 72 138
35 40 69 47 69 14 0 -11 -9 -57 -20 -101 -16 -62 -18 -83 -9 -94 14 -17 61
-18 77 -2 18 18 14 30 -8 23 -26 -8 -26 -2 2 113 25 103 20 125 -26 130 -22 3
-38 -7 -77 -46z"/>
<path d="M2360 1648 c-98 -50 -122 -201 -39 -244 136 -70 292 138 180 238 -39
35 -80 36 -141 6z m98 -14 c27 -19 29 -76 4 -149 -22 -64 -58 -88 -99 -65 -41
23 -47 66 -21 141 16 44 31 67 48 76 32 16 41 16 68 -3z"/>
<path d="M2684 1652 c-75 -36 -117 -120 -95 -194 14 -45 44 -68 89 -68 37 0
96 22 107 40 12 20 -2 22 -35 5 -17 -9 -43 -15 -58 -13 -87 10 -49 199 44 222
28 7 54 -8 54 -30 0 -23 27 -16 34 8 7 30 -4 39 -56 44 -29 3 -56 -2 -84 -14z"/>
<path d="M3187 1620 l-49 -49 7 45 6 45 -47 -3 c-46 -3 -77 -28 -35 -28 26 0
26 -11 1 -120 -25 -108 -25 -110 4 -110 20 0 25 7 31 37 14 75 88 183 126 183
25 0 25 -29 -2 -125 -16 -60 -18 -79 -9 -91 15 -17 61 -19 78 -2 18 18 14 31
-8 25 -14 -4 -20 0 -20 12 0 9 9 49 20 89 24 87 25 106 4 126 -26 27 -55 18
-107 -34z"/>
<path d="M3456 1646 c-100 -61 -116 -209 -26 -246 100 -42 220 56 207 169 -10
91 -97 128 -181 77z m112 -18 c33 -28 -4 -182 -50 -208 -25 -13 -31 -13 -55 0
-41 23 -47 66 -21 141 30 83 75 107 126 67z"/>
<path d="M3853 1646 c-16 -13 -35 -36 -42 -50 -21 -38 -30 -32 -20 12 5 20 9
41 9 45 0 13 -93 3 -98 -10 -2 -8 5 -13 17 -13 26 0 25 5 1 -110 -25 -117 -25
-120 4 -120 19 0 24 6 29 36 13 77 87 184 128 184 24 0 24 -11 -2 -115 -17
-69 -19 -88 -9 -100 15 -18 61 -20 78 -3 18 18 14 30 -8 23 -26 -8 -26 7 0
105 25 94 25 117 1 130 -31 16 -57 12 -88 -14z"/>
<path d="M1450 1645 c-10 -13 -9 -15 8 -15 28 0 29 -3 52 -117 25 -123 25
-130 -2 -170 -26 -37 -58 -44 -58 -13 0 29 -27 24 -34 -7 -13 -50 54 -61 96
-15 31 33 208 328 208 347 0 12 -83 0 -88 -12 -2 -8 5 -13 17 -13 12 0 21 -2
21 -5 0 -10 -84 -155 -90 -155 -4 0 -14 43 -24 95 l-18 95 -38 0 c-21 0 -43
-7 -50 -15z"/>
<path d="M2893 1653 c-20 -8 -15 -23 7 -23 25 0 25 -11 -1 -115 -12 -47 -19
-91 -15 -100 8 -21 79 -20 97 2 13 15 11 16 -19 10 -28 -6 -33 -4 -28 11 3 9
14 55 26 102 12 47 23 93 26 103 5 14 -1 17 -38 16 -24 0 -49 -3 -55 -6z"/>
<path d="M173 1603 c-16 -6 -17 -25 -1 -41 11 -11 48 1 48 16 0 12 -34 29 -47
25z"/>
<path d="M4769 1594 c-15 -18 0 -38 27 -32 25 5 28 25 6 37 -15 8 -23 7 -33
-5z"/>
<path d="M220 1475 c-12 -15 -7 -45 7 -45 21 1 35 19 28 39 -8 25 -18 27 -35
6z"/>
<path d="M4717 1483 c-11 -10 -8 -41 4 -49 6 -3 18 1 27 9 13 13 13 19 2 31
-14 17 -23 20 -33 9z"/>
<path d="M278 1355 c-10 -21 -9 -28 2 -35 33 -20 56 24 25 50 -12 10 -17 7
-27 -15z"/>
<path d="M4652 1338 c4 -28 19 -32 43 -13 17 13 18 16 5 25 -27 18 -52 12 -48
-12z"/>
<path d="M347 1243 c-4 -3 -7 -15 -7 -25 0 -20 26 -24 50 -8 13 9 12 12 -4 25
-22 17 -29 18 -39 8z"/>
<path d="M4590 1235 c-15 -18 -5 -35 20 -35 10 0 22 5 25 10 7 11 -12 40 -25
40 -4 0 -13 -7 -20 -15z"/>
<path d="M1269 1154 c-15 -18 0 -38 27 -32 25 5 28 25 6 37 -15 8 -23 7 -33
-5z"/>
<path d="M1475 1163 c-32 -8 -54 -33 -65 -75 -9 -31 -15 -38 -35 -38 -30 0
-33 -16 -5 -25 11 -3 20 -15 20 -26 0 -24 -36 -187 -49 -221 -13 -34 -41 -44
-48 -18 -9 32 -33 24 -33 -11 0 -30 1 -30 47 -27 40 3 50 8 69 35 12 19 28 71
38 125 22 117 29 136 57 140 33 4 36 28 5 28 -35 0 -34 29 1 70 l27 32 17 -21
c24 -30 39 -26 39 9 0 27 -3 30 -32 29 -18 -1 -42 -4 -53 -6z"/>
<path d="M4513 1124 c-3 -8 2 -23 11 -32 15 -15 17 -15 34 1 16 17 16 19 -2
33 -25 18 -35 18 -43 -2z"/>
<path d="M414 1119 c-3 -6 0 -17 8 -25 12 -12 17 -12 32 -1 11 8 16 19 12 25
-9 15 -43 15 -52 1z"/>
<path d="M1778 1020 c-39 -42 -45 -41 -28 4 9 25 8 26 -28 26 -49 0 -74 -15
-42 -25 19 -6 21 -12 15 -39 -3 -17 -12 -61 -19 -98 l-14 -68 24 0 c14 0 24 6
24 15 0 31 42 126 70 155 53 56 67 32 43 -75 -8 -40 -13 -81 -10 -89 7 -19 48
-21 65 -4 17 17 15 29 -3 22 -20 -8 -19 11 2 108 13 63 14 80 3 93 -23 27 -60
18 -102 -25z"/>
<path d="M2027 1038 c-44 -26 -77 -87 -77 -142 0 -49 36 -86 82 -85 44 0 100
21 106 38 4 10 0 12 -14 7 -11 -5 -37 -10 -58 -14 -31 -4 -42 -1 -53 13 -20
28 -16 53 10 61 131 40 165 71 132 120 -20 31 -76 32 -128 2z m86 -12 c14 -36
-48 -91 -94 -84 -20 3 -20 3 3 38 20 30 59 59 79 60 4 0 9 -6 12 -14z"/>
<path d="M2300 1049 c-61 -24 -92 -75 -92 -149 0 -61 37 -95 94 -87 39 5 94
34 84 44 -3 3 -23 -2 -45 -10 -37 -15 -41 -15 -62 2 -38 31 -25 126 23 166 36
31 68 33 75 5 7 -27 37 -22 41 6 2 15 -4 23 -20 28 -32 8 -69 6 -98 -5z"/>
<path d="M2518 1035 c-84 -57 -100 -185 -28 -215 35 -15 92 -8 127 15 32 22
23 30 -18 16 -55 -19 -88 -14 -95 14 -10 39 0 51 52 64 81 21 104 37 104 74 0
18 -5 38 -12 45 -21 21 -90 14 -130 -13z m89 -11 c11 -29 -14 -62 -57 -75 -22
-7 -43 -9 -46 -6 -10 10 37 78 60 87 30 13 36 12 43 -6z"/>
<path d="M2746 1035 c-43 -40 -31 -82 35 -115 22 -12 43 -28 46 -36 16 -42
-80 -64 -105 -24 -15 25 -32 17 -32 -14 0 -16 7 -26 23 -30 72 -19 149 10 161
60 6 24 3 33 -22 54 -16 14 -43 33 -61 42 -41 23 -38 49 8 62 29 8 35 7 51
-14 19 -25 40 -20 40 9 0 39 -104 43 -144 6z"/>
<path d="M2996 1039 c-39 -31 -33 -76 14 -106 72 -46 76 -50 64 -70 -17 -27
-82 -30 -101 -4 -20 29 -33 26 -33 -8 0 -21 6 -30 23 -35 67 -18 142 6 153 48
10 43 0 60 -59 95 -31 19 -57 40 -57 47 0 7 16 18 36 24 32 11 38 10 60 -11
21 -20 26 -21 34 -9 14 22 12 28 -9 40 -33 17 -96 12 -125 -11z"/>
<path d="M3260 1038 c-49 -34 -72 -71 -77 -125 -9 -88 57 -134 113 -78 30 30
34 31 34 5 0 -26 25 -36 58 -24 29 10 29 31 0 26 -15 -3 -19 1 -14 15 3 10 12
47 21 83 9 36 18 72 21 81 11 40 -103 52 -156 17z m102 -10 c3 -7 -2 -39 -10
-71 -10 -40 -23 -65 -44 -82 -37 -31 -52 -31 -72 -1 -14 23 -14 28 9 79 13 30
34 62 47 71 27 19 65 21 70 4z"/>
<path d="M3599 1019 l-38 -41 6 36 c6 35 5 36 -28 36 -30 0 -81 -19 -54 -20
33 -1 36 -16 20 -96 -9 -43 -18 -87 -21 -97 -5 -15 -1 -18 17 -15 17 2 26 13
35 44 16 54 36 93 68 127 28 30 46 35 46 12 0 -8 4 -15 10 -15 14 0 32 39 26
56 -10 27 -48 15 -87 -27z"/>
<path d="M1205 1041 c-3 -6 2 -14 11 -19 16 -9 15 -16 -5 -97 -17 -67 -19 -90
-10 -101 14 -17 51 -18 67 -2 18 18 14 27 -9 21 -17 -5 -20 -2 -16 13 10 31
47 182 47 188 0 10 -78 7 -85 -3z"/>
<path d="M3717 1044 c-3 -4 2 -14 12 -23 11 -10 24 -51 35 -109 20 -101 13
-142 -26 -163 -16 -9 -20 -7 -25 10 -7 29 -30 26 -35 -4 -6 -31 -2 -35 37 -35
41 0 55 16 148 170 100 166 99 160 48 160 -44 0 -50 -6 -25 -25 15 -10 13 -18
-22 -78 -21 -37 -41 -63 -45 -59 -3 4 -12 42 -19 85 l-13 77 -32 0 c-17 0 -34
-3 -38 -6z"/>
<path d="M491 1017 c-8 -10 -7 -19 3 -32 12 -16 16 -17 30 -6 20 17 21 37 0
45 -21 8 -20 8 -33 -7z"/>
<path d="M4440 1015 c-23 -28 21 -50 48 -23 9 9 7 14 -6 24 -22 17 -27 17 -42
-1z"/>
<path d="M4362 928 c-15 -15 -15 -45 -1 -54 6 -3 18 0 26 9 14 13 14 18 1 36
-11 16 -17 18 -26 9z"/>
<path d="M573 904 c-3 -8 1 -22 9 -30 13 -13 16 -13 27 0 7 9 11 23 7 31 -7
20 -35 19 -43 -1z"/>
<path d="M4272 828 c-19 -19 -14 -48 7 -48 27 0 35 16 18 40 -10 15 -16 17
-25 8z"/>
<path d="M664 809 c-3 -6 1 -18 10 -27 15 -15 17 -15 32 0 19 19 11 38 -16 38
-10 0 -22 -5 -26 -11z"/>
<path d="M767 723 c-24 -23 12 -55 38 -33 12 10 13 16 4 26 -12 15 -31 18 -42
7z"/>
<path d="M4166 714 c-8 -21 -8 -21 10 -28 8 -3 25 -1 37 5 20 11 20 12 2 25
-25 18 -41 18 -49 -2z"/>
<path d="M867 643 c-11 -10 -8 -41 3 -48 19 -12 41 15 29 36 -10 20 -21 24
-32 12z"/>
<path d="M4070 621 c0 -27 15 -34 40 -21 17 9 19 14 9 26 -17 21 -49 18 -49
-5z"/>
<path d="M970 545 c-17 -21 6 -61 26 -44 18 15 18 45 0 52 -8 3 -20 0 -26 -8z"/>
<path d="M3967 553 c-11 -11 -8 -40 6 -51 19 -16 43 24 26 44 -13 15 -22 18
-32 7z"/>
<path d="M1077 473 c-11 -10 -8 -41 4 -49 16 -9 43 21 36 40 -7 16 -28 21 -40
9z"/>
<path d="M3854 465 c-12 -29 15 -45 45 -26 12 8 12 12 2 25 -17 20 -40 21 -47
1z"/>
<path d="M1191 401 c-19 -12 -6 -41 18 -41 26 0 36 17 21 35 -14 17 -20 18
-39 6z"/>
<path d="M3747 403 c-4 -3 -7 -15 -7 -25 0 -22 32 -24 49 -4 10 12 8 17 -8 25
-23 13 -26 13 -34 4z"/>
<path d="M1305 330 c-7 -23 1 -40 20 -40 18 0 28 30 14 46 -16 19 -27 17 -34
-6z"/>
<path d="M3624 325 c-13 -32 23 -48 47 -19 10 13 10 17 -2 25 -21 13 -39 11
-45 -6z"/>
<path d="M1424 265 c-13 -32 23 -48 47 -19 10 13 10 17 -2 25 -21 13 -39 11
-45 -6z"/>
<path d="M3503 264 c-3 -8 1 -22 9 -30 13 -13 16 -13 27 0 7 9 11 23 7 31 -7
20 -35 19 -43 -1z"/>
<path d="M1547 216 c-8 -19 16 -38 37 -30 20 8 21 30 0 38 -24 9 -31 7 -37 -8z"/>
<path d="M3387 223 c-24 -23 12 -55 38 -33 12 10 13 16 4 26 -12 15 -31 18
-42 7z"/>
<path d="M1682 188 c-16 -16 -15 -45 2 -51 8 -3 20 0 26 8 16 20 -11 60 -28
43z"/>
<path d="M3259 174 c-10 -12 -9 -18 4 -31 13 -13 19 -14 31 -3 21 17 20 27 -3
39 -14 8 -22 7 -32 -5z"/>
<path d="M1805 140 c-18 -19 -18 -22 -2 -37 16 -16 18 -16 33 -1 15 14 15 19
2 37 l-15 21 -18 -20z"/>
<path d="M3130 140 c-15 -28 5 -57 26 -39 18 15 18 33 0 48 -12 10 -17 8 -26
-9z"/>
<path d="M1932 97 c-7 -8 -6 -18 4 -32 15 -20 15 -20 29 -1 23 30 -9 62 -33
33z"/>
<path d="M2994 99 c-3 -6 1 -18 10 -27 15 -15 17 -15 32 0 19 19 11 38 -16 38
-10 0 -22 -5 -26 -11z"/>
<path d="M2067 83 c-11 -10 -8 -41 4 -49 6 -3 18 1 27 9 13 13 13 19 2 31 -14
17 -23 20 -33 9z"/>
<path d="M2870 75 c-22 -26 7 -46 39 -26 12 8 12 12 2 25 -17 20 -25 20 -41 1z"/>
<path d="M2733 61 c-9 -14 -9 -21 0 -30 27 -27 61 4 37 34 -16 20 -23 19 -37
-4z"/>
<path d="M2203 63 c-17 -6 -16 -28 1 -42 17 -14 41 11 32 34 -6 15 -12 17 -33
8z"/>
<path d="M2331 51 c-8 -14 -7 -22 4 -31 22 -19 48 5 34 31 -12 24 -26 24 -38
0z"/>
<path d="M2602 48 c-13 -13 1 -38 22 -38 23 0 36 22 21 36 -17 17 -27 18 -43
2z"/>
<path d="M2460 41 c0 -21 13 -41 26 -41 8 0 14 4 14 9 0 5 3 16 6 25 5 12 0
16 -20 16 -14 0 -26 -4 -26 -9z"/>
</g>
</svg>
