<?xml version="1.0" standalone="no"?>
<!DOCTYPE svg PUBLIC "-//W3C//DTD SVG 20010904//EN"
 "http://www.w3.org/TR/2001/REC-SVG-20010904/DTD/svg10.dtd">
<svg version="1.0" xmlns="http://www.w3.org/2000/svg"
 width="498.000000pt" height="500.000000pt" viewBox="0 0 498.000000 500.000000"
 preserveAspectRatio="xMidYMid meet">
<metadata>
Created by potrace 1.15, written by Peter Selinger 2001-2017
</metadata>
<g transform="translate(0.000000,500.000000) scale(0.100000,-0.100000)"
fill="#000000" stroke="none">
<path d="M2341 4977 c-15 -19 -3 -49 18 -45 9 2 16 13 16 27 0 29 -17 37 -34
18z"/>
<path d="M2605 4970 c-7 -23 1 -40 20 -40 18 0 28 30 14 46 -16 19 -27 17 -34
-6z"/>
<path d="M2740 4965 c-12 -23 -12 -28 0 -35 32 -20 51 11 27 43 -12 17 -14 17
-27 -8z"/>
<path d="M2465 4970 c-6 -10 11 -50 22 -50 12 0 31 34 26 47 -6 15 -39 17 -48
3z"/>
<path d="M2207 4963 c-12 -12 -7 -31 10 -37 9 -4 23 0 32 9 14 14 14 17 1 25
-18 11 -34 13 -43 3z"/>
<path d="M2062 4937 c-16 -19 24 -43 43 -27 8 6 11 18 8 26 -6 18 -37 18 -51
1z"/>
<path d="M2873 4934 c-9 -24 11 -38 37 -24 17 9 19 14 9 26 -15 19 -38 18 -46
-2z"/>
<path d="M1941 4917 c-8 -10 -7 -19 4 -33 13 -18 15 -18 31 -2 14 14 15 20 4
32 -15 19 -24 20 -39 3z"/>
<path d="M3000 4915 c-6 -8 -9 -19 -5 -25 9 -15 41 -12 54 4 10 12 8 17 -8 25
-25 14 -26 14 -41 -4z"/>
<path d="M1822 4888 c-16 -16 -15 -33 2 -47 22 -18 44 25 24 45 -11 11 -16 12
-26 2z"/>
<path d="M3130 4885 c-10 -12 -10 -18 0 -31 12 -13 15 -13 28 0 15 15 10 46
-6 46 -5 0 -15 -7 -22 -15z"/>
<path d="M3261 4856 c-16 -19 -7 -46 14 -46 22 0 30 29 13 46 -13 13 -16 13
-27 0z"/>
<path d="M1689 4844 c-16 -20 2 -38 30 -29 26 8 27 21 2 34 -14 8 -22 7 -32
-5z"/>
<path d="M1567 4813 c-11 -10 -8 -41 3 -48 19 -12 41 15 29 36 -10 20 -21 24
-32 12z"/>
<path d="M3382 4798 c-13 -13 2 -38 23 -38 21 0 36 25 23 38 -7 7 -17 12 -23
12 -6 0 -16 -5 -23 -12z"/>
<path d="M1440 4745 c-9 -11 -9 -18 3 -35 14 -20 14 -20 32 0 15 16 15 22 5
35 -16 19 -24 19 -40 0z"/>
<path d="M3507 4753 c-11 -10 -8 -41 4 -49 6 -3 18 1 27 9 13 13 13 19 2 31
-14 17 -23 20 -33 9z"/>
<path d="M1323 4689 c-15 -15 -5 -39 16 -39 29 0 43 21 23 36 -21 17 -25 17
-39 3z"/>
<path d="M3624 4685 c-12 -31 23 -48 45 -21 10 12 8 17 -8 25 -26 14 -31 14
-37 -4z"/>
<path d="M1204 4615 c-13 -32 23 -48 47 -19 10 13 10 17 -2 25 -21 13 -39 11
-45 -6z"/>
<path d="M3734 4619 c-3 -6 0 -18 9 -26 12 -12 19 -13 38 -3 22 12 22 13 4 26
-23 17 -41 18 -51 3z"/>
<path d="M3851 4553 c-12 -24 2 -48 24 -40 10 4 15 15 13 29 -4 28 -24 34 -37
11z"/>
<path d="M1092 4548 c-8 -8 -9 -15 -1 -25 15 -17 34 -17 48 1 10 12 8 17 -8
25 -24 14 -24 14 -39 -1z"/>
<path d="M2335 4539 c-38 -5 -105 -17 -148 -28 -559 -144 -937 -635 -937
-1215 0 -351 123 -651 365 -892 187 -184 393 -294 650 -345 106 -21 378 -19
485 4 610 131 1026 668 997 1286 -12 245 -81 453 -220 661 -68 101 -233 264
-338 333 -247 163 -550 232 -854 196z m425 -208 c58 -18 150 -54 205 -81 105
-52 260 -157 260 -177 0 -12 -334 -312 -347 -313 -5 0 -8 32 -8 70 0 78 -19
137 -47 146 -31 10 -77 36 -89 50 -7 9 -9 42 -6 90 6 90 -4 104 -74 104 -72 0
-88 -53 -20 -66 29 -5 36 -11 36 -29 0 -40 -22 -47 -63 -20 -44 30 -47 30 -91
4 -51 -30 -191 -40 -498 -37 l-258 3 75 55 c92 68 206 130 309 170 205 79 421
90 616 31z m-66 -147 c32 -32 14 -129 -26 -139 -53 -13 -128 -21 -128 -14 0 4
19 10 43 14 73 12 104 30 112 63 10 47 -9 72 -53 72 -28 0 -33 3 -22 10 23 15
57 12 74 -6z m-104 -94 c11 -7 8 -10 -16 -10 -40 0 -56 -20 -52 -62 3 -29 7
-34 38 -38 27 -4 31 -7 17 -13 -10 -4 -28 -2 -39 4 -11 6 -22 8 -25 5 -3 -3 7
-10 22 -16 30 -11 82 7 78 28 -2 6 15 17 37 23 37 11 44 10 105 -20 36 -18 70
-41 75 -52 16 -29 26 -224 12 -215 -7 4 -12 17 -12 29 0 12 -5 29 -10 37 -7
11 -10 2 -10 -32 0 -67 -23 -90 -76 -76 -33 9 -46 7 -87 -11 -50 -23 -59 -22
-152 13 -22 8 -49 15 -60 15 -11 0 18 -14 64 -31 84 -31 85 -31 132 -15 51 18
96 22 117 8 10 -6 -50 -64 -214 -210 -160 -142 -230 -198 -235 -189 -4 7 -15
156 -24 332 -17 309 -17 319 1 342 26 33 243 162 274 163 14 0 32 -4 40 -9z
m-190 -39 c0 -18 -37 -21 -288 -23 l-257 -2 250 -6 250 -5 -47 -28 c-31 -18
-50 -37 -54 -54 -7 -27 4 -645 12 -692 3 -23 -12 -40 -117 -131 -66 -58 -128
-112 -137 -120 -140 -126 -364 -320 -371 -320 -9 0 -67 92 -103 165 -48 96
-90 250 -108 393 -25 197 72 512 220 711 97 131 61 121 431 121 181 0 319 -4
319 -9z m1034 -251 c75 -143 116 -275 136 -433 14 -113 1 -208 -47 -359 -117
-371 -337 -601 -698 -731 -124 -44 -323 -76 -379 -59 l-29 8 29 23 c16 12 44
32 63 44 72 46 88 97 67 212 -7 36 -4 44 28 85 50 64 66 118 66 217 0 61 4 91
16 109 16 23 15 26 -2 45 -19 21 -19 22 4 36 26 18 29 45 6 64 -18 15 -14 19
106 101 41 28 78 56 82 62 4 6 8 61 8 122 0 61 3 125 6 142 5 25 47 68 202
204 108 95 210 185 226 200 l31 27 22 -27 c13 -15 38 -56 57 -92z m-564 -440
c0 -137 11 -118 -120 -207 -74 -51 -85 -62 -88 -90 -2 -22 -9 -33 -20 -34 -75
-6 -112 -6 -112 2 0 5 26 10 58 10 l57 1 -47 9 c-29 6 -57 20 -75 37 -15 16
-35 31 -43 35 -11 4 -7 13 20 35 33 29 35 29 48 11 23 -34 42 -23 42 24 0 23
6 50 13 59 18 23 250 227 260 228 4 0 7 -54 7 -120z m-381 -284 c14 -15 19
-26 12 -31 -20 -11 -12 -34 14 -41 29 -7 31 -16 9 -50 -16 -23 -15 -26 2 -45
13 -14 22 -49 30 -112 l12 -92 1 102 c0 58 -3 104 -9 108 -23 14 -7 22 25 12
26 -8 39 -7 47 1 9 9 6 12 -14 12 -26 0 -40 12 -51 43 -5 14 0 17 27 17 27 0
35 -5 40 -24 3 -13 16 -27 28 -30 22 -7 23 -7 3 -17 -18 -9 -20 -18 -16 -91 4
-108 -11 -171 -59 -242 -22 -32 -40 -69 -40 -82 0 -13 -4 -24 -10 -24 -21 0
-8 51 24 93 56 73 62 88 40 104 -31 22 -48 11 -22 -15 9 -9 3 -25 -27 -68 -33
-47 -39 -64 -37 -98 9 -127 5 -135 -85 -197 -24 -17 -48 -40 -54 -52 l-12 -22
24 21 c13 12 48 36 77 54 57 35 82 71 82 121 0 40 11 32 12 -9 2 -55 -22 -90
-93 -142 -65 -47 -71 -49 -121 -45 -114 8 -340 101 -468 191 -90 63 -112 83
-105 93 6 10 555 498 623 554 41 33 62 34 91 3z"/>
<path d="M2297 3740 c11 -190 22 -251 16 -95 -3 83 -9 159 -14 170 -5 11 -6
-21 -2 -75z"/>
<path d="M2647 3188 c-28 -48 -23 -57 21 -34 32 17 60 46 44 46 -6 0 -14 -4
-17 -10 -12 -20 -25 -9 -19 15 9 37 -1 31 -29 -17z"/>
<path d="M2599 2832 c-13 -45 -6 -83 13 -64 10 10 14 89 4 99 -2 3 -10 -13
-17 -35z"/>
<path d="M985 4470 c-8 -12 3 -50 14 -50 15 0 33 30 27 45 -6 17 -32 20 -41 5z"/>
<path d="M3957 4473 c-24 -24 12 -50 43 -31 14 9 16 16 8 25 -11 14 -40 17
-51 6z"/>
<path d="M880 4385 c-11 -13 -11 -19 3 -33 20 -19 41 -5 35 24 -4 24 -22 28
-38 9z"/>
<path d="M4067 4389 c-14 -8 -16 -14 -6 -25 13 -16 28 -18 48 -5 12 8 12 12 2
25 -16 19 -20 19 -44 5z"/>
<path d="M4162 4303 c-18 -34 9 -58 36 -31 7 7 8 17 1 30 -12 23 -26 23 -37 1z"/>
<path d="M782 4298 c-8 -8 -9 -15 -1 -25 15 -17 34 -17 48 1 10 12 8 17 -8 25
-24 14 -24 14 -39 -1z"/>
<path d="M4262 4208 c-27 -27 -3 -54 31 -36 22 11 22 25 -1 37 -13 7 -23 6
-30 -1z"/>
<path d="M684 4199 c-3 -6 1 -18 10 -27 15 -15 17 -15 32 0 19 19 11 38 -16
38 -10 0 -22 -5 -26 -11z"/>
<path d="M601 4106 c-19 -22 4 -62 25 -45 17 14 15 50 -2 56 -6 2 -16 -3 -23
-11z"/>
<path d="M4352 4108 c-16 -16 -15 -33 1 -46 20 -17 44 25 25 44 -11 11 -16 12
-26 2z"/>
<path d="M517 4003 c-24 -23 12 -55 38 -33 12 10 13 16 4 26 -12 15 -31 18
-42 7z"/>
<path d="M4424 3995 c-13 -32 23 -48 47 -19 10 13 10 17 -2 25 -21 13 -39 11
-45 -6z"/>
<path d="M440 3894 c-11 -12 -10 -18 3 -32 21 -21 42 -3 32 27 -8 25 -18 27
-35 5z"/>
<path d="M4506 3893 c-4 -9 -1 -23 7 -30 12 -12 16 -12 26 0 13 17 5 47 -14
47 -7 0 -16 -8 -19 -17z"/>
<path d="M4576 3783 c-9 -22 20 -51 35 -36 14 14 2 53 -16 53 -7 0 -16 -8 -19
-17z"/>
<path d="M367 3783 c-24 -23 12 -55 38 -33 12 10 13 16 4 26 -12 15 -31 18
-42 7z"/>
<path d="M4646 3674 c-11 -29 -6 -44 13 -44 27 0 34 15 19 40 -15 24 -24 25
-32 4z"/>
<path d="M300 3665 c-19 -22 1 -39 35 -31 26 7 27 8 10 26 -22 24 -29 25 -45
5z"/>
<path d="M240 3545 c-10 -12 -10 -18 0 -30 15 -18 20 -18 44 0 20 15 20 15 0
30 -24 18 -29 18 -44 0z"/>
<path d="M4713 3553 c-15 -5 -17 -39 -3 -48 9 -6 50 15 50 25 0 10 -35 27 -47
23z"/>
<path d="M184 3419 c-3 -6 1 -18 10 -27 15 -15 17 -15 32 0 19 19 11 38 -16
38 -10 0 -22 -5 -26 -11z"/>
<path d="M4755 3420 c-8 -12 3 -50 14 -50 15 0 33 30 27 45 -6 17 -32 20 -41
5z"/>
<path d="M143 3299 c-6 -6 -9 -18 -6 -25 7 -18 37 -18 52 0 10 12 8 17 -8 25
-24 14 -24 14 -38 0z"/>
<path d="M4807 3303 c-14 -14 -7 -43 11 -43 30 0 44 21 24 36 -20 15 -26 17
-35 7z"/>
<path d="M101 3171 c-13 -23 8 -45 33 -35 19 7 21 25 4 42 -17 17 -26 15 -37
-7z"/>
<path d="M4843 3169 c-16 -16 -5 -39 17 -39 25 0 35 18 20 35 -15 18 -22 19
-37 4z"/>
<path d="M77 3043 c-24 -23 12 -55 38 -33 12 10 13 16 4 26 -12 15 -31 18 -42
7z"/>
<path d="M4877 3043 c-11 -10 -8 -41 5 -49 17 -11 40 26 27 43 -13 14 -22 16
-32 6z"/>
<path d="M4901 2916 c-16 -19 -7 -46 14 -46 22 0 30 29 13 46 -13 13 -16 13
-27 0z"/>
<path d="M44 2905 c-4 -9 0 -24 10 -33 15 -15 18 -15 26 -2 6 8 9 22 7 30 -3
21 -36 25 -43 5z"/>
<path d="M4920 2785 c-9 -11 -11 -22 -4 -32 13 -21 25 -21 38 -1 8 14 7 21 -5
33 -14 15 -17 15 -29 0z"/>
<path d="M30 2775 c-15 -18 -5 -35 20 -35 10 0 22 5 25 10 7 11 -12 40 -25 40
-4 0 -13 -7 -20 -15z"/>
<path d="M4931 2651 c-16 -29 3 -58 25 -40 17 14 17 20 0 44 -13 18 -14 18
-25 -4z"/>
<path d="M20 2644 c-11 -12 -10 -18 3 -32 16 -15 18 -15 34 0 13 14 14 20 3
32 -7 9 -16 16 -20 16 -4 0 -13 -7 -20 -16z"/>
<path d="M4930 2515 c-15 -18 -6 -45 14 -45 20 0 29 16 21 40 -8 24 -18 25
-35 5z"/>
<path d="M13 2513 c-20 -8 -15 -31 8 -38 25 -8 44 7 36 29 -6 16 -21 19 -44 9z"/>
<path d="M21 2381 c-19 -12 -6 -41 18 -41 26 0 36 17 21 35 -14 17 -20 18 -39
6z"/>
<path d="M4927 2383 c-11 -10 -8 -27 7 -48 13 -18 14 -18 25 4 10 17 10 26 0
37 -13 15 -22 18 -32 7z"/>
<path d="M26 2243 c-9 -21 14 -45 33 -34 8 5 11 16 6 30 -8 25 -30 28 -39 4z"/>
<path d="M4914 2239 c-3 -6 0 -17 8 -25 12 -12 17 -12 33 1 17 13 18 16 5 25
-20 13 -37 13 -46 -1z"/>
<path d="M44 2109 c-3 -6 1 -18 10 -27 15 -15 17 -15 34 1 15 16 15 19 2 27
-20 13 -37 12 -46 -1z"/>
<path d="M4893 2104 c-3 -8 1 -22 9 -30 13 -13 16 -13 27 0 7 9 11 23 7 31 -7
20 -35 19 -43 -1z"/>
<path d="M70 1984 c-11 -12 -10 -18 3 -31 22 -23 52 0 36 28 -12 23 -22 24
-39 3z"/>
<path d="M4865 1976 c-18 -13 -18 -14 4 -25 29 -16 58 3 40 25 -14 17 -20 17
-44 0z"/>
<path d="M4842 1858 c-17 -17 -15 -35 5 -42 21 -8 36 6 31 30 -4 22 -20 28
-36 12z"/>
<path d="M101 1846 c-18 -21 11 -41 39 -26 17 9 19 14 9 26 -15 18 -33 18 -48
0z"/>
<path d="M1674 1846 c-64 -28 -94 -104 -59 -153 8 -12 49 -37 90 -57 80 -38
98 -63 75 -106 -24 -44 -132 -66 -165 -33 -12 11 -15 25 -10 50 5 28 3 33 -14
33 -15 0 -22 -9 -26 -37 -4 -21 -9 -45 -11 -54 -6 -21 15 -29 97 -36 114 -10
190 40 193 126 1 49 -19 72 -87 101 -97 41 -122 89 -71 129 52 41 151 17 138
-33 -4 -16 0 -25 11 -29 19 -8 24 4 28 57 2 35 -1 41 -23 47 -42 12 -133 9
-166 -5z"/>
<path d="M3392 1848 c-28 -28 2 -57 39 -38 24 14 24 27 0 40 -24 13 -24 13
-39 -2z"/>
<path d="M694 1841 c-11 -11 -2 -21 21 -21 32 0 33 -24 4 -158 -30 -143 -37
-161 -65 -168 -47 -12 -23 -24 46 -24 56 0 70 3 70 15 0 9 -9 15 -25 15 -14 0
-25 3 -25 8 -1 29 55 261 61 255 4 -4 37 -71 72 -148 56 -123 66 -140 89 -143
22 -3 27 2 33 30 21 106 66 302 71 310 4 5 14 8 24 5 22 -6 36 21 16 29 -7 3
-39 4 -71 2 -61 -3 -84 -21 -40 -32 14 -4 25 -12 25 -20 0 -26 -42 -221 -49
-229 -5 -4 -36 55 -71 133 -34 77 -68 141 -74 142 -27 3 -108 3 -112 -1z"/>
<path d="M2610 1775 c-12 -20 -36 -43 -53 -52 -30 -16 -31 -18 -9 -21 26 -4
27 -21 7 -107 -8 -33 -15 -77 -15 -97 0 -30 4 -37 23 -40 30 -5 74 10 81 28 5
13 0 14 -24 9 -36 -8 -37 0 -12 115 16 70 19 75 50 84 39 11 41 23 6 32 -24 6
-26 10 -20 45 8 49 -6 50 -34 4z"/>
<path d="M140 1724 c-11 -12 -10 -18 3 -32 16 -15 18 -15 34 0 13 14 14 20 3
32 -7 9 -16 16 -20 16 -4 0 -13 -7 -20 -16z"/>
<path d="M1190 1718 c-75 -39 -111 -138 -75 -208 19 -38 43 -50 96 -50 99 0
180 111 149 204 -23 72 -92 94 -170 54z m85 -10 c40 -18 46 -61 19 -138 -25
-68 -44 -90 -80 -90 -42 0 -57 28 -51 89 9 79 25 119 56 136 32 18 25 17 56 3z"/>
<path d="M1945 1732 c-31 -4 -55 -18 -55 -33 0 -5 6 -6 13 -3 24 9 36 -19 58
-134 l22 -112 -29 -37 c-33 -40 -47 -44 -52 -13 -5 28 -30 25 -38 -4 -8 -35 2
-46 41 -46 46 0 59 16 163 194 112 193 109 186 69 186 -18 0 -42 -7 -53 -15
-18 -14 -18 -14 9 -15 16 0 27 -3 25 -8 -1 -4 -23 -43 -47 -86 -50 -90 -51
-90 -71 42 -7 45 -15 84 -19 85 -3 2 -19 1 -36 -1z"/>
<path d="M2359 1714 c-20 -14 -42 -36 -49 -50 -14 -25 -32 -34 -26 -11 3 6 7
27 10 45 5 31 4 32 -28 32 -40 0 -66 -8 -66 -21 0 -5 9 -9 20 -9 11 0 20 -2
20 -4 0 -2 -9 -48 -20 -103 -26 -126 -25 -135 1 -131 17 2 25 15 35 55 7 29
25 70 38 92 24 37 70 81 86 81 19 0 18 -37 -1 -115 -12 -47 -19 -91 -15 -100
7 -18 67 -20 84 -3 18 18 14 30 -8 23 -26 -8 -26 12 0 117 19 74 20 82 5 104
-20 31 -41 30 -86 -2z"/>
<path d="M2816 1730 c-63 -19 -108 -86 -108 -162 0 -41 5 -55 28 -79 23 -24
36 -29 74 -29 82 0 148 61 158 145 11 99 -55 154 -152 125z m91 -47 c14 -20
14 -32 4 -76 -13 -58 -43 -115 -66 -123 -26 -10 -65 6 -77 31 -8 19 -7 40 5
91 18 72 30 92 61 104 29 10 55 1 73 -27z"/>
<path d="M3139 1731 c-74 -24 -119 -88 -119 -170 0 -67 30 -101 89 -101 60 0
110 23 111 52 0 4 -16 0 -36 -8 -20 -8 -48 -14 -62 -12 -78 9 -54 177 30 212
39 17 56 11 64 -20 3 -13 10 -24 15 -24 13 0 31 52 22 61 -13 13 -86 19 -114
10z"/>
<path d="M3654 1721 c-17 -10 -41 -33 -54 -51 -28 -39 -33 -34 -21 19 l9 42
-46 -3 c-47 -3 -67 -22 -34 -31 19 -4 19 -7 -3 -116 l-22 -111 28 0 c25 0 29
4 29 28 0 61 85 192 125 192 15 0 17 -7 12 -47 -3 -27 -11 -74 -18 -106 -12
-54 -12 -60 4 -72 18 -13 52 -10 75 8 21 16 13 30 -13 23 -30 -8 -30 -10 -5
84 38 145 16 191 -66 141z"/>
<path d="M3890 1718 c-61 -32 -83 -66 -88 -137 -4 -56 -2 -62 26 -91 38 -38
95 -41 154 -8 91 51 107 202 27 244 -39 20 -68 18 -119 -8z m105 -32 c12 -18
13 -34 4 -85 -18 -98 -71 -146 -123 -108 -28 20 -30 84 -4 147 33 78 89 99
123 46z"/>
<path d="M4287 1715 c-20 -14 -37 -29 -37 -33 0 -4 -9 -18 -19 -31 l-19 -25 9
45 c4 24 8 47 9 52 0 8 -62 10 -84 1 -20 -8 -21 -24 -1 -24 26 0 26 -20 2
-128 -13 -56 -21 -104 -19 -107 10 -10 43 -5 47 8 2 6 11 38 20 70 11 41 28
70 59 102 23 25 48 45 54 45 17 0 15 -59 -5 -137 -15 -63 -15 -67 2 -79 26
-19 49 -17 76 7 l24 20 -27 -5 c-35 -8 -36 5 -8 116 19 74 20 82 5 104 -20 31
-41 30 -88 -1z"/>
<path d="M3320 1715 c-10 -13 -9 -15 9 -15 26 0 26 0 0 -115 -12 -51 -19 -100
-16 -109 8 -19 67 -22 85 -4 20 20 14 31 -13 24 -14 -4 -25 -4 -25 0 0 6 45
180 56 217 5 14 -1 17 -39 17 -27 0 -49 -6 -57 -15z"/>
<path d="M4804 1715 c-4 -8 -3 -23 0 -32 6 -15 8 -15 23 -1 16 17 12 48 -7 48
-6 0 -13 -7 -16 -15z"/>
<path d="M190 1600 c-14 -26 0 -46 24 -37 20 8 21 31 2 46 -12 10 -17 8 -26
-9z"/>
<path d="M4761 1606 c-16 -19 -7 -46 14 -46 22 0 30 29 13 46 -13 13 -16 13
-27 0z"/>
<path d="M4712 1488 c-15 -15 -15 -45 -1 -54 6 -3 18 0 26 9 14 13 14 18 1 36
-11 16 -17 18 -26 9z"/>
<path d="M241 1476 c-9 -11 -9 -19 1 -35 7 -12 15 -21 18 -21 3 0 11 9 18 21
10 16 10 24 1 35 -6 8 -15 14 -19 14 -4 0 -13 -6 -19 -14z"/>
<path d="M300 1355 c-19 -22 1 -39 35 -31 26 7 27 8 10 26 -22 24 -29 25 -45
5z"/>
<path d="M4653 1363 c-17 -6 -17 -38 0 -51 19 -16 40 20 24 41 -7 8 -18 13
-24 10z"/>
<path d="M365 1240 c-8 -12 3 -50 14 -50 15 0 33 30 27 45 -6 17 -32 20 -41 5z"/>
<path d="M4574 1235 c-12 -29 15 -45 45 -26 12 8 12 12 2 25 -17 20 -40 21
-47 1z"/>
<path d="M1113 1222 c-6 -4 -51 -72 -100 -152 -59 -95 -99 -149 -116 -158 -43
-21 -32 -29 35 -26 61 3 110 24 55 24 -32 0 -33 8 -7 53 22 38 43 47 106 47
46 0 54 -10 54 -62 0 -21 -6 -31 -20 -35 -11 -3 -20 -12 -20 -19 0 -20 109
-19 136 1 19 14 19 14 -2 15 -12 0 -26 6 -32 13 -5 6 -15 68 -21 137 -7 69
-14 135 -17 148 -4 22 -28 29 -51 14z m16 -164 c1 -27 -1 -28 -49 -28 -27 0
-50 3 -50 7 0 4 19 39 42 77 l43 71 6 -50 c4 -27 8 -62 8 -77z"/>
<path d="M3531 1216 c-10 -12 -8 -17 9 -26 28 -15 57 5 39 26 -15 18 -33 18
-48 0z"/>
<path d="M2905 1161 c-14 -21 -38 -44 -53 -51 -26 -13 -26 -14 -4 -18 26 -4
26 2 5 -98 -20 -100 -16 -116 34 -112 40 3 60 28 22 28 -20 0 -21 3 -15 46 13
95 25 125 57 136 32 11 33 18 2 22 -15 3 -17 11 -15 45 1 22 0 41 -3 41 -2 0
-16 -17 -30 -39z"/>
<path d="M3361 1168 c-5 -13 -24 -34 -42 -47 -31 -23 -31 -25 -12 -32 l21 -8
-18 -82 c-20 -87 -18 -106 8 -111 30 -6 72 4 72 17 0 8 -9 10 -25 7 -30 -5
-30 -2 -7 98 14 59 22 76 37 78 33 6 40 20 13 27 -23 6 -25 10 -18 41 6 26 5
34 -6 34 -8 0 -18 -10 -23 -22z"/>
<path d="M441 1126 c-18 -22 4 -62 25 -45 18 15 18 33 0 48 -10 9 -16 8 -25
-3z"/>
<path d="M4503 1124 c-3 -8 1 -22 8 -29 12 -12 17 -12 33 0 16 12 17 17 6 30
-16 20 -39 19 -47 -1z"/>
<path d="M1650 1108 c-50 -34 -72 -71 -78 -127 -8 -91 47 -131 112 -80 25 20
26 20 26 1 0 -37 -23 -84 -45 -92 -28 -11 -62 -3 -69 16 -6 15 -36 19 -36 5 0
-5 -3 -16 -6 -24 -4 -11 7 -16 49 -21 63 -8 119 9 136 43 11 20 61 238 61 264
0 18 -43 37 -84 37 -18 0 -48 -10 -66 -22z m97 -14 c3 -9 1 -39 -6 -67 -20
-90 -93 -139 -119 -82 -10 21 -8 34 12 79 33 74 96 113 113 70z"/>
<path d="M1969 1089 l-40 -40 7 36 6 36 -38 -7 c-45 -8 -69 -24 -36 -24 26 0
26 6 2 -104 -11 -50 -16 -94 -12 -98 16 -16 40 3 45 37 11 65 75 165 106 165
15 0 14 -53 -4 -125 -19 -78 -18 -84 3 -80 9 2 20 4 25 4 4 1 7 12 7 26 0 77
104 210 124 159 3 -8 -1 -43 -9 -77 -22 -93 -20 -117 9 -117 31 0 56 10 56 21
0 5 -7 9 -15 9 -19 0 -19 27 1 103 18 70 13 102 -17 110 -31 8 -63 -7 -93 -45
l-26 -33 0 31 c0 65 -43 71 -101 13z"/>
<path d="M2364 1113 c-17 -8 -43 -34 -57 -56 -55 -84 -24 -177 58 -177 41 0
105 24 105 39 0 14 2 14 -54 -5 -44 -15 -48 -15 -66 1 -11 10 -20 28 -20 40 0
18 11 26 67 44 84 28 93 35 93 77 0 53 -59 71 -126 37z m76 -32 c0 -27 -30
-57 -69 -70 -19 -6 -36 -9 -38 -7 -7 6 16 47 40 74 26 28 67 30 67 3z"/>
<path d="M2605 1123 c-52 -9 -65 -14 -65 -23 0 -6 7 -10 15 -10 18 0 18 -17 0
-100 -20 -92 -19 -109 4 -103 12 3 23 17 27 37 7 32 44 110 66 137 20 24 48
31 54 14 4 -8 -2 -49 -11 -91 -20 -91 -16 -106 27 -102 32 3 53 28 24 28 -20
0 -20 4 1 105 14 69 15 86 4 99 -27 33 -77 13 -116 -47 -23 -36 -29 -29 -16
19 12 43 13 41 -14 37z"/>
<path d="M3076 1107 c-51 -29 -79 -77 -80 -137 -1 -81 58 -118 110 -69 l22 21
12 -22 c9 -16 19 -20 42 -18 34 3 52 28 20 28 -20 0 -18 14 23 171 6 23 3 28
-26 38 -47 16 -79 13 -123 -12z m92 -10 c13 -16 -7 -104 -32 -142 -22 -34 -65
-44 -83 -20 -18 25 -17 38 9 97 15 36 30 54 52 64 39 17 41 17 54 1z"/>
<path d="M3682 1110 c-109 -66 -90 -230 26 -230 104 0 174 150 103 221 -35 35
-81 38 -129 9z m90 -17 c8 -10 18 -26 21 -35 6 -18 -25 -121 -44 -144 -15 -19
-63 -18 -79 1 -25 30 7 174 42 188 25 10 45 7 60 -10z"/>
<path d="M4035 1112 c-11 -9 -30 -30 -43 -46 -24 -31 -27 -27 -13 22 9 31 8
32 -19 32 -34 0 -60 -9 -60 -21 0 -5 7 -9 15 -9 19 0 19 -8 0 -95 -20 -97 -20
-114 4 -108 12 3 23 17 27 37 13 62 78 166 103 166 18 0 20 -34 6 -96 -24
-105 -17 -124 40 -110 28 7 34 26 9 26 -18 0 -17 22 7 132 10 46 10 59 0 72
-17 21 -51 20 -76 -2z"/>
<path d="M1303 1113 c-18 -7 -16 -23 2 -23 19 0 19 -13 -1 -96 -20 -87 -14
-114 26 -114 21 0 40 11 67 39 l38 40 0 -37 c0 -35 1 -37 34 -37 21 0 36 6 39
14 3 10 -1 12 -17 8 -17 -4 -20 -2 -16 16 3 12 13 59 24 105 l18 82 -22 0
c-18 0 -25 -8 -33 -43 -13 -49 -65 -132 -89 -141 -33 -13 -36 11 -14 98 11 47
21 88 21 91 0 6 -60 5 -77 -2z"/>
<path d="M3483 1113 c-18 -7 -16 -23 2 -23 20 0 19 -19 -4 -109 -11 -40 -17
-80 -14 -88 7 -18 75 -14 81 6 3 10 -1 12 -17 8 -17 -4 -21 -2 -17 11 13 43
46 181 46 191 0 11 -54 14 -77 4z"/>
<path d="M514 1015 c-12 -29 15 -45 45 -26 12 8 12 12 2 25 -17 20 -40 21 -47
1z"/>
<path d="M4426 1013 c-9 -22 7 -36 33 -28 25 8 28 30 5 39 -24 9 -31 7 -38
-11z"/>
<path d="M590 910 c-13 -9 -12 -12 5 -25 24 -19 39 -15 43 13 4 24 -21 30 -48
12z"/>
<path d="M4346 911 c-9 -14 4 -41 19 -41 15 0 28 27 19 41 -3 5 -11 9 -19 9
-8 0 -16 -4 -19 -9z"/>
<path d="M690 820 c-14 -26 0 -46 24 -37 20 8 21 31 2 46 -12 10 -17 8 -26 -9z"/>
<path d="M4260 815 c-19 -22 5 -48 31 -34 10 5 19 14 19 19 0 5 -9 14 -19 19
-14 8 -22 7 -31 -4z"/>
<path d="M4167 733 c-11 -10 -8 -41 4 -49 6 -3 18 1 27 9 13 13 13 19 2 31
-14 17 -23 20 -33 9z"/>
<path d="M783 714 c-9 -24 11 -38 37 -24 17 9 19 14 9 26 -15 19 -38 18 -46
-2z"/>
<path d="M882 627 c-9 -10 -8 -18 3 -33 13 -16 16 -17 25 -4 21 31 -5 65 -28
37z"/>
<path d="M4067 633 c-24 -23 12 -55 38 -33 12 10 13 16 4 26 -12 15 -31 18
-42 7z"/>
<path d="M993 553 c-16 -6 -17 -39 -2 -49 6 -3 18 1 27 10 14 14 14 18 2 30
-8 7 -21 12 -27 9z"/>
<path d="M3954 545 c-12 -31 28 -49 54 -23 9 9 7 14 -6 24 -23 18 -41 17 -48
-1z"/>
<path d="M1092 468 c-13 -13 2 -38 23 -38 21 0 36 25 23 38 -7 7 -17 12 -23
12 -6 0 -16 -5 -23 -12z"/>
<path d="M3850 464 c-11 -12 -10 -18 4 -32 16 -16 18 -16 31 2 11 14 12 23 4
33 -15 17 -24 16 -39 -3z"/>
<path d="M1204 395 c-12 -30 16 -45 46 -25 13 9 12 12 -4 25 -25 19 -35 19
-42 0z"/>
<path d="M3740 395 c-9 -11 -9 -19 3 -35 l15 -21 16 22 c11 17 13 26 4 36 -14
17 -23 16 -38 -2z"/>
<path d="M1314 329 c-3 -6 0 -18 9 -26 12 -12 18 -13 35 -2 16 10 18 16 10 26
-13 16 -44 17 -54 2z"/>
<path d="M3625 330 c-8 -12 3 -50 14 -50 15 0 33 30 27 45 -6 17 -32 20 -41 5z"/>
<path d="M3513 283 c-18 -6 -16 -42 2 -49 14 -6 45 11 45 25 0 11 -34 28 -47
24z"/>
<path d="M1434 269 c-3 -6 0 -18 9 -26 12 -12 19 -13 36 -3 18 9 20 14 10 26
-14 17 -45 19 -55 3z"/>
<path d="M1561 217 c-9 -11 -8 -17 3 -26 18 -15 48 -3 44 18 -4 21 -32 26 -47
8z"/>
<path d="M3381 217 c-8 -10 -7 -19 4 -33 15 -19 15 -19 30 0 11 14 12 23 4 33
-6 7 -15 13 -19 13 -4 0 -13 -6 -19 -13z"/>
<path d="M1692 178 c-16 -16 -15 -33 2 -47 22 -18 44 25 24 45 -11 11 -16 11
-26 2z"/>
<path d="M3259 174 c-10 -12 -9 -18 4 -31 13 -13 19 -14 31 -3 21 17 20 27 -3
39 -14 8 -22 7 -32 -5z"/>
<path d="M1817 143 c-12 -11 -7 -41 7 -46 8 -3 22 1 33 9 17 14 17 14 -1 29
-22 17 -29 18 -39 8z"/>
<path d="M3131 136 c-18 -22 4 -62 25 -45 18 15 18 33 0 48 -10 9 -16 8 -25
-3z"/>
<path d="M1942 97 c-7 -8 -6 -18 4 -32 15 -20 15 -20 29 -1 23 30 -9 62 -33
33z"/>
<path d="M2994 99 c-3 -6 1 -18 10 -27 15 -15 17 -15 32 0 19 19 11 38 -16 38
-10 0 -22 -5 -26 -11z"/>
<path d="M2870 81 c-18 -35 13 -58 39 -28 8 11 6 18 -8 31 -19 17 -20 17 -31
-3z"/>
<path d="M2074 75 c-12 -30 16 -45 46 -25 13 9 12 12 -4 25 -25 19 -35 19 -42
0z"/>
<path d="M2741 66 c-16 -19 -7 -46 14 -46 22 0 30 29 13 46 -13 13 -16 13 -27
0z"/>
<path d="M2205 60 c-8 -12 3 -50 14 -50 15 0 33 30 27 45 -6 17 -32 20 -41 5z"/>
<path d="M2336 44 c-11 -30 13 -44 43 -25 12 8 12 12 2 25 -17 20 -37 20 -45
0z"/>
<path d="M2471 46 c-8 -9 -7 -18 3 -31 15 -21 36 -12 36 15 0 22 -25 33 -39
16z"/>
<path d="M2604 45 c-12 -29 15 -45 45 -26 12 8 12 12 2 25 -17 20 -40 21 -47
1z"/>
</g>
</svg>
