<?xml version="1.0" standalone="no"?>
<!DOCTYPE svg PUBLIC "-//W3C//DTD SVG 20010904//EN"
 "http://www.w3.org/TR/2001/REC-SVG-20010904/DTD/svg10.dtd">
<svg version="1.0" xmlns="http://www.w3.org/2000/svg"
 width="499.000000pt" height="500.000000pt" viewBox="0 0 499.000000 500.000000"
 preserveAspectRatio="xMidYMid meet">
<metadata>
Created by potrace 1.15, written by Peter Selinger 2001-2017
</metadata>
<g transform="translate(0.000000,500.000000) scale(0.100000,-0.100000)"
fill="#000000" stroke="none">
<path d="M2347 4983 c-11 -10 -8 -41 4 -49 6 -3 18 1 27 9 13 13 13 19 2 31
-14 17 -23 20 -33 9z"/>
<path d="M2473 4964 c-3 -8 1 -22 9 -30 13 -13 16 -13 27 0 7 9 11 23 7 31 -7
20 -35 19 -43 -1z"/>
<path d="M2608 4968 c-8 -21 2 -38 22 -38 26 0 43 23 28 38 -16 16 -45 15 -50
0z"/>
<path d="M2745 4959 c-8 -26 6 -42 28 -33 20 7 22 25 5 42 -17 17 -26 15 -33
-9z"/>
<path d="M2080 4949 c-10 -17 -9 -24 4 -38 15 -14 18 -14 26 -1 14 21 12 36
-4 49 -12 10 -17 8 -26 -10z"/>
<path d="M2212 4957 c-16 -19 11 -58 28 -41 14 14 10 46 -6 51 -6 2 -16 -2
-22 -10z"/>
<path d="M2881 4953 c-14 -27 -4 -55 18 -51 21 4 25 29 8 52 -14 19 -15 19
-26 -1z"/>
<path d="M3011 4926 c-16 -19 -7 -46 14 -46 22 0 30 29 13 46 -13 13 -16 13
-27 0z"/>
<path d="M1951 4916 c-14 -16 -4 -46 14 -46 16 0 29 35 20 50 -9 14 -20 13
-34 -4z"/>
<path d="M1820 4885 c-19 -22 5 -48 31 -34 10 5 19 14 19 19 0 5 -9 14 -19 19
-14 8 -22 7 -31 -4z"/>
<path d="M3134 4875 c-7 -18 3 -35 21 -35 15 0 28 27 19 41 -8 14 -34 11 -40
-6z"/>
<path d="M3269 4844 c-15 -18 0 -38 27 -32 25 5 28 25 6 37 -15 8 -23 7 -33
-5z"/>
<path d="M1685 4840 c-17 -27 33 -42 54 -16 9 11 8 15 -5 20 -23 9 -42 7 -49
-4z"/>
<path d="M1564 4795 c-13 -32 23 -48 47 -19 10 13 10 17 -2 25 -21 13 -39 11
-45 -6z"/>
<path d="M3381 4797 c-9 -11 -8 -17 4 -27 19 -16 47 -5 43 17 -4 23 -31 28
-47 10z"/>
<path d="M3512 4753 c-13 -25 -4 -43 19 -43 16 0 20 6 17 27 -4 32 -23 41 -36
16z"/>
<path d="M1440 4745 c-9 -11 -9 -18 3 -35 14 -20 14 -20 32 0 15 16 15 22 5
35 -16 19 -24 19 -40 0z"/>
<path d="M1327 4693 c-4 -3 -7 -15 -7 -25 0 -22 32 -24 49 -4 10 12 8 17 -8
25 -23 13 -26 13 -34 4z"/>
<path d="M3637 4693 c-4 -3 -7 -15 -7 -25 0 -22 32 -24 49 -4 10 12 8 17 -8
25 -23 13 -26 13 -34 4z"/>
<path d="M3752 4628 c-25 -25 -9 -54 23 -42 9 4 15 15 13 27 -4 25 -19 32 -36
15z"/>
<path d="M1206 4621 c-7 -11 3 -41 14 -41 19 0 40 13 40 25 0 21 -44 33 -54
16z"/>
<path d="M2450 4570 c-26 -50 -5 -56 34 -9 31 37 33 49 6 49 -13 0 -27 -14
-40 -40z"/>
<path d="M3305 4595 c-20 -9 -24 -14 -12 -14 21 -1 22 7 -8 -135 -14 -66 -23
-126 -21 -133 6 -14 34 -17 60 -7 24 9 19 26 -5 19 -17 -6 -20 -4 -16 12 3 10
15 68 27 128 12 61 24 118 26 128 6 20 -9 21 -51 2z"/>
<path d="M3443 4603 c-25 -5 -32 -23 -8 -23 16 0 17 8 -20 -168 -22 -103 -22
-103 -1 -100 13 2 23 14 28 34 4 17 14 37 22 44 12 9 19 3 41 -39 26 -52 39
-58 80 -41 19 7 19 8 -6 18 -15 6 -33 27 -44 52 l-19 42 44 38 c25 21 42 42
38 45 -4 4 -24 4 -45 0 -30 -6 -34 -9 -19 -14 16 -6 13 -11 -23 -40 -23 -19
-44 -31 -47 -29 -2 3 4 46 15 96 20 100 22 96 -36 85z"/>
<path d="M1600 4590 c0 -5 6 -10 14 -10 8 0 17 -3 19 -7 4 -7 -18 -127 -38
-211 -3 -12 -17 -27 -31 -32 -47 -18 -14 -28 86 -24 113 4 145 16 186 70 20
25 29 51 32 88 8 102 -36 136 -175 136 -56 0 -93 -4 -93 -10z m190 -30 c22
-16 25 -26 24 -73 -2 -66 -28 -123 -65 -142 -36 -19 -109 -20 -109 -2 0 13 37
189 46 220 7 24 71 22 104 -3z"/>
<path d="M2784 4564 c-18 -42 -14 -65 7 -40 49 59 60 65 88 47 11 -7 11 -21
-4 -87 -28 -132 -35 -154 -50 -154 -8 0 -17 -4 -20 -10 -4 -6 18 -10 59 -10
64 0 87 12 45 23 -16 4 -19 11 -14 27 4 11 15 61 25 111 21 105 29 117 67 103
22 -8 28 -16 26 -37 -3 -51 24 -30 37 29 l8 34 -130 0 -129 0 -15 -36z"/>
<path d="M2602 4555 c-7 -14 -25 -33 -42 -44 -28 -16 -29 -19 -11 -24 18 -4
19 -7 4 -82 -8 -43 -12 -84 -9 -91 7 -19 51 -18 67 2 12 15 11 16 -9 10 -23
-8 -23 -7 -16 41 12 82 27 118 52 121 28 4 29 22 1 22 -18 0 -21 5 -17 30 6
39 -6 47 -20 15z"/>
<path d="M1095 4550 c-8 -12 3 -50 14 -50 5 0 14 7 21 15 10 12 10 18 0 30
-14 17 -26 19 -35 5z"/>
<path d="M3861 4546 c-14 -17 9 -39 33 -30 20 8 21 30 0 38 -21 8 -20 8 -33
-8z"/>
<path d="M1955 4485 c-41 -43 -53 -100 -31 -143 23 -45 71 -55 126 -27 38 20
60 63 60 117 0 49 -6 60 -37 77 -42 22 -83 14 -118 -24z m109 -11 c16 -24 16
-28 0 -77 -21 -64 -30 -77 -59 -77 -35 0 -48 24 -43 79 9 92 65 133 102 75z"/>
<path d="M2262 4483 l-35 -38 6 33 c6 31 5 32 -27 32 -40 0 -51 -9 -29 -25 15
-11 15 -17 -1 -85 -20 -90 -20 -90 2 -89 11 0 30 27 57 82 60 123 99 111 61
-17 -8 -27 -12 -54 -9 -63 7 -18 65 -14 71 6 3 10 0 12 -12 8 -20 -8 -20 -5 0
87 9 41 14 82 11 90 -11 29 -57 19 -95 -21z"/>
<path d="M3085 4510 c-70 -28 -108 -139 -66 -191 18 -23 19 -23 62 -6 39 15
44 16 60 1 19 -17 69 -12 69 7 0 6 -9 8 -20 4 -25 -8 -25 -11 1 88 20 77 20
82 3 94 -20 14 -78 16 -109 3z m75 -42 c-1 -48 -35 -116 -66 -130 -23 -11 -28
-10 -40 7 -19 26 -18 38 11 94 25 51 35 59 73 60 18 1 22 -4 22 -31z"/>
<path d="M984 4465 c-13 -32 23 -48 47 -19 10 13 10 17 -2 25 -21 13 -39 11
-45 -6z"/>
<path d="M3964 4465 c-13 -32 23 -48 47 -19 10 13 10 17 -2 25 -21 13 -39 11
-45 -6z"/>
<path d="M880 4390 c-18 -33 6 -52 38 -31 12 7 12 12 1 30 -17 26 -25 26 -39
1z"/>
<path d="M4071 4386 c-14 -17 11 -41 34 -32 20 7 19 32 -1 40 -21 8 -20 8 -33
-8z"/>
<path d="M787 4303 c-24 -23 12 -55 38 -33 12 10 13 16 4 26 -12 15 -31 18
-42 7z"/>
<path d="M4166 4294 c-4 -10 0 -24 9 -33 14 -14 17 -14 25 -1 6 8 9 22 7 30
-3 21 -33 24 -41 4z"/>
<path d="M690 4210 c-13 -25 3 -52 26 -43 18 7 18 37 0 52 -12 10 -17 8 -26
-9z"/>
<path d="M4272 4208 c-27 -27 -3 -54 31 -36 22 11 22 25 -1 37 -13 7 -23 6
-30 -1z"/>
<path d="M600 4104 c-11 -12 -10 -18 3 -32 16 -15 18 -15 34 0 13 14 14 20 3
32 -7 9 -16 16 -20 16 -4 0 -13 -7 -20 -16z"/>
<path d="M4362 4108 c-16 -16 -15 -33 1 -46 20 -17 44 25 25 44 -11 11 -16 12
-26 2z"/>
<path d="M2413 4093 c-18 -7 -16 -23 2 -23 20 0 19 -11 -10 -146 -14 -64 -25
-117 -25 -120 0 -2 9 -4 19 -4 14 0 23 14 37 56 20 64 78 134 96 116 8 -8 6
-30 -7 -81 -9 -39 -15 -78 -11 -86 7 -20 50 -19 67 2 13 15 12 16 -8 11 -28
-7 -28 -9 -3 88 21 87 17 104 -31 104 -20 0 -35 -10 -55 -35 -15 -20 -28 -34
-30 -33 -1 2 4 32 11 68 8 36 14 71 15 78 0 12 -42 16 -67 5z"/>
<path d="M3615 4090 c-19 -9 -19 -9 3 -16 15 -4 21 -12 18 -23 -3 -9 -14 -61
-26 -116 -11 -55 -23 -108 -26 -117 -4 -13 0 -18 15 -18 15 0 23 12 34 49 17
59 62 121 88 121 23 0 24 -16 3 -91 -9 -32 -14 -65 -11 -74 8 -19 51 -20 67 0
10 13 9 15 -9 15 -17 0 -21 5 -17 18 35 124 38 142 26 157 -21 26 -56 17 -94
-22 l-34 -37 19 80 c10 43 18 80 19 82 0 6 -57 0 -75 -8z"/>
<path d="M1420 4081 c0 -5 9 -11 19 -13 18 -3 17 -9 -14 -111 -19 -63 -42
-119 -56 -133 l-22 -24 51 0 c29 0 52 5 52 10 0 6 -7 10 -15 10 -8 0 -15 8
-15 18 0 18 47 182 54 189 2 2 10 -43 17 -101 7 -58 16 -112 21 -118 14 -23
38 4 90 102 59 111 70 126 64 85 -3 -17 -8 -61 -12 -99 -5 -56 -9 -69 -25 -73
-10 -3 -19 -9 -19 -14 0 -12 117 -11 125 1 3 6 -4 10 -16 10 -21 0 -22 2 -15
81 12 147 17 167 40 175 17 6 14 8 -18 11 -21 3 -43 2 -50 0 -7 -3 -37 -53
-66 -111 -30 -58 -58 -106 -61 -106 -3 0 -11 50 -19 110 l-13 110 -48 0 c-27
0 -49 -4 -49 -9z"/>
<path d="M2116 4068 c-17 -24 -21 -58 -8 -58 5 0 18 14 30 30 22 29 64 41 76
22 3 -5 -6 -57 -19 -116 -18 -81 -30 -112 -47 -126 l-23 -19 62 -1 c34 0 65 5
68 10 3 6 -3 10 -14 10 -12 0 -21 4 -21 9 0 27 44 218 53 229 6 7 22 12 36 10
20 -2 27 -9 29 -30 6 -53 41 -24 42 35 0 15 -13 17 -124 17 -118 0 -126 -1
-140 -22z"/>
<path d="M3426 4009 c-78 -21 -124 -134 -80 -197 19 -27 44 -28 77 -2 35 27
36 26 25 -21 -6 -23 -21 -47 -34 -56 -22 -14 -26 -14 -49 1 -32 21 -45 20 -45
-3 0 -15 10 -21 41 -26 50 -9 90 7 111 43 24 40 61 232 48 247 -14 17 -59 23
-94 14z m52 -44 c5 -44 -15 -101 -44 -124 -50 -39 -75 1 -49 79 26 78 86 107
93 45z"/>
<path d="M514 3995 c-13 -32 23 -48 47 -19 10 13 10 17 -2 25 -21 13 -39 11
-45 -6z"/>
<path d="M1844 3991 c-33 -20 -64 -82 -64 -127 0 -32 42 -74 75 -74 30 0 101
28 93 36 -3 3 -25 0 -48 -6 -50 -13 -73 0 -68 38 2 20 14 28 63 46 56 20 60
23 63 55 2 20 -2 37 -10 42 -22 15 -72 10 -104 -10z m81 -11 c11 -17 -16 -51
-50 -66 -19 -8 -37 -14 -40 -14 -12 0 -3 26 21 57 24 32 57 43 69 23z"/>
<path d="M2738 3978 l-30 -33 4 28 c5 26 3 27 -33 27 -22 0 -39 -4 -39 -10 0
-5 7 -10 15 -10 18 0 18 2 0 -80 -19 -88 -19 -100 5 -100 14 0 20 7 20 23 0
30 44 119 71 143 17 16 22 16 30 4 8 -13 12 -12 24 4 21 28 19 36 -11 36 -15
0 -37 -12 -56 -32z"/>
<path d="M2881 3984 c-59 -50 -62 -157 -5 -183 42 -19 72 -13 110 22 57 52 64
150 14 177 -34 18 -87 11 -119 -16z m90 -5 c40 -40 8 -161 -43 -167 -20 -2
-31 4 -44 23 -16 25 -16 29 0 80 16 53 38 85 57 85 5 0 19 -10 30 -21z"/>
<path d="M4437 4003 c-24 -23 12 -55 38 -33 12 10 13 16 4 26 -12 15 -31 18
-42 7z"/>
<path d="M3090 3990 c0 -5 7 -10 15 -10 16 0 15 -7 -6 -90 -16 -62 -12 -89 15
-96 31 -7 49 3 82 46 l25 35 -6 -37 c-7 -34 -5 -38 20 -44 18 -5 32 -2 43 10
15 15 15 16 -7 16 -17 0 -21 4 -17 18 6 20 36 151 36 158 0 2 -7 4 -14 4 -8 0
-34 -36 -57 -81 -23 -44 -49 -83 -57 -86 -15 -6 -32 14 -26 31 2 6 10 39 18
74 l14 62 -39 0 c-21 0 -39 -4 -39 -10z"/>
<path d="M440 3895 c-11 -13 -11 -19 3 -33 20 -19 41 -5 35 24 -4 24 -22 28
-38 9z"/>
<path d="M4517 3903 c-12 -12 -7 -41 7 -46 19 -8 38 16 30 37 -6 16 -25 21
-37 9z"/>
<path d="M364 3775 c-13 -32 23 -48 47 -19 10 13 10 17 -2 25 -21 13 -39 11
-45 -6z"/>
<path d="M4584 3775 c-13 -32 23 -48 47 -19 10 13 10 17 -2 25 -21 13 -39 11
-45 -6z"/>
<path d="M300 3665 c-20 -24 4 -47 36 -33 23 11 23 12 8 30 -21 22 -28 22 -44
3z"/>
<path d="M4663 3673 c-16 -6 -17 -39 -2 -49 6 -3 18 1 27 10 14 14 14 18 2 30
-8 7 -21 12 -27 9z"/>
<path d="M3800 3596 c-10 -13 -10 -19 0 -32 12 -14 15 -14 29 0 14 15 14 17 0
32 -14 14 -17 14 -29 0z"/>
<path d="M1747 3582 c-20 -22 -39 -72 -28 -72 11 0 71 68 71 80 0 16 -26 11
-43 -8z"/>
<path d="M627 3583 c-12 -11 -8 -21 12 -26 17 -4 20 -19 26 -132 6 -95 11
-128 22 -132 22 -9 48 22 84 102 19 41 37 74 42 75 4 0 7 -19 8 -42 1 -81 13
-133 31 -136 13 -3 33 28 82 127 38 75 75 135 87 141 29 16 72 4 65 -18 -3 -9
-16 -68 -30 -130 -19 -92 -21 -114 -10 -119 21 -8 31 4 38 45 9 60 82 150 103
128 3 -3 -2 -42 -12 -87 -16 -69 -17 -82 -4 -90 20 -12 32 -11 55 6 18 14 18
14 -4 15 -18 0 -22 4 -18 18 10 32 36 136 36 143 0 13 -31 39 -47 39 -8 0 -32
-19 -53 -41 l-38 -42 14 59 c25 109 28 105 -78 102 -62 -2 -93 -7 -96 -15 -2
-8 5 -13 17 -13 19 0 16 -9 -32 -106 l-52 -105 -7 38 c-4 21 -7 67 -7 102 -1
49 3 67 16 76 15 11 12 14 -30 20 -26 4 -55 4 -64 0 -16 -6 -16 -8 5 -18 12
-5 22 -17 22 -26 0 -28 -83 -193 -91 -179 -3 7 -9 58 -13 112 -3 63 -10 103
-18 108 -16 9 -52 10 -61 1z"/>
<path d="M2157 3583 c-13 -12 -7 -23 13 -23 24 0 25 7 -5 -120 -16 -72 -30
-110 -44 -121 -11 -9 -17 -19 -14 -23 10 -10 111 -7 118 4 3 6 -1 10 -9 10
-24 0 -27 15 -15 69 l11 51 70 0 c68 0 70 -1 64 -22 -3 -13 -6 -28 -6 -35 0
-7 -14 -28 -31 -48 l-31 -35 43 1 c24 1 55 4 69 8 24 7 24 7 4 13 l-22 5 27
118 c21 96 30 119 49 129 12 7 19 15 16 19 -9 9 -86 9 -108 1 -20 -8 -21 -24
-1 -24 16 0 19 -19 9 -69 l-6 -31 -69 0 c-75 0 -76 0 -59 62 6 22 19 39 30 43
11 4 20 11 20 16 0 10 -113 13 -123 2z"/>
<path d="M244 3545 c-18 -13 -18 -15 -3 -30 14 -14 20 -15 38 -3 26 16 26 20
2 35 -15 9 -23 9 -37 -2z"/>
<path d="M1583 3513 c-33 -33 -38 -43 -24 -43 17 0 18 -3 5 -62 -19 -89 -18
-115 6 -123 10 -3 30 0 42 7 l23 13 -22 3 c-26 4 -27 13 -10 96 10 50 17 60
42 71 26 12 27 13 8 14 -17 1 -22 8 -25 34 l-3 32 -42 -42z"/>
<path d="M4714 3545 c-7 -17 2 -45 13 -45 4 0 17 7 27 15 20 15 20 15 0 30
-24 18 -33 19 -40 0z"/>
<path d="M1390 3504 c-66 -23 -101 -70 -103 -137 -3 -70 34 -95 94 -63 22 11
28 11 48 -5 19 -15 27 -17 44 -7 l22 12 -21 5 -21 6 19 83 c11 46 16 88 12 92
-12 11 -75 20 -94 14z m54 -33 c3 -5 -1 -30 -9 -56 -25 -83 -83 -122 -106 -71
-9 18 -7 32 11 67 12 24 27 50 32 57 12 14 64 16 72 3z"/>
<path d="M1853 3495 c-54 -38 -48 -77 16 -116 17 -10 31 -27 31 -38 0 -32 -57
-43 -80 -16 -16 19 -36 4 -27 -19 5 -12 20 -16 54 -16 53 0 88 18 96 50 6 23
-24 66 -53 75 -11 4 -25 16 -31 27 -9 18 -8 24 7 35 26 19 55 16 61 -7 6 -24
19 -26 27 -3 9 22 -4 33 -45 39 -22 3 -42 0 -56 -11z"/>
<path d="M2554 3491 c-31 -14 -47 -30 -63 -63 -23 -49 -26 -74 -11 -112 11
-31 45 -34 90 -11 17 9 30 12 30 7 0 -5 11 -14 24 -20 18 -8 28 -7 43 3 17 14
17 14 -5 15 -25 0 -25 3 4 107 19 69 19 69 -17 82 -42 14 -47 14 -95 -8z m76
-34 c0 -94 -82 -178 -111 -113 -9 18 -7 32 11 67 31 62 39 69 71 69 23 0 29
-4 29 -23z"/>
<path d="M3134 3500 c-12 -5 -29 -19 -38 -32 l-16 -22 0 27 c0 25 -3 27 -27
21 -52 -11 -60 -16 -37 -23 l21 -6 -22 -108 c-13 -63 -30 -116 -40 -127 -18
-20 -17 -20 33 -20 29 0 52 5 52 10 0 6 -7 10 -16 10 -12 0 -15 6 -10 23 3 12
6 25 6 30 0 4 17 7 37 7 46 0 98 34 119 79 20 41 13 110 -12 128 -20 15 -21
15 -50 3z m29 -51 c8 -12 6 -30 -7 -63 -22 -59 -40 -76 -77 -76 -36 0 -38 22
-8 83 39 76 68 94 92 56z"/>
<path d="M3334 3496 c-129 -57 -111 -250 20 -206 19 6 40 18 46 26 15 18 11
18 -32 -1 -31 -12 -38 -12 -57 1 -38 27 -24 55 38 75 29 10 60 24 67 30 31 25
5 90 -34 89 -9 -1 -31 -7 -48 -14z m56 -30 c0 -25 -34 -56 -69 -62 -33 -7 -33
-6 -21 17 7 13 19 32 28 42 18 20 62 23 62 3z"/>
<path d="M3578 3470 l-40 -40 7 36 c6 35 5 36 -17 30 -13 -3 -31 -6 -40 -6
-10 0 -18 -4 -18 -10 0 -5 7 -10 15 -10 18 0 18 0 0 -97 -8 -43 -15 -79 -15
-80 0 -2 8 -3 19 -3 14 0 22 12 31 48 14 56 66 131 91 132 16 0 16 -32 -1 -94
-16 -60 -16 -69 -3 -82 9 -8 22 -13 30 -10 8 3 19 6 24 6 5 0 9 5 9 10 0 6 -7
10 -16 10 -12 0 -15 6 -12 23 3 12 11 50 18 84 11 51 11 64 1 77 -21 25 -40
19 -83 -24z"/>
<path d="M3978 3470 c-22 -22 -42 -40 -43 -40 -2 0 0 13 5 30 10 35 6 39 -37
33 -33 -5 -47 -23 -18 -23 18 0 18 -9 0 -85 -8 -33 -14 -68 -15 -77 0 -20 29
-25 34 -5 25 85 76 167 105 167 15 0 13 -45 -3 -108 -12 -46 -12 -54 1 -67 18
-19 24 -19 49 0 17 13 17 14 2 15 -22 0 -22 8 -1 97 13 59 14 75 3 87 -20 25
-39 19 -82 -24z"/>
<path d="M4210 3503 c-75 -27 -118 -155 -70 -203 25 -25 41 -25 74 1 22 17 26
18 26 4 0 -8 -7 -31 -14 -50 -12 -28 -21 -35 -42 -35 -15 0 -35 7 -45 16 -16
14 -18 14 -28 -4 -13 -25 2 -32 64 -32 72 0 90 25 120 157 14 61 25 116 25
121 0 20 -76 37 -110 25z m60 -58 c0 -86 -74 -159 -107 -105 -10 16 -9 28 8
67 27 63 36 73 70 73 27 0 29 -3 29 -35z"/>
<path d="M2780 3493 c-31 -6 -51 -23 -27 -23 11 0 17 -8 17 -22 -1 -47 -40
-202 -56 -220 -16 -17 -15 -18 34 -18 29 0 52 5 52 10 0 6 -7 10 -15 10 -16 0
-19 17 -9 44 4 10 18 16 41 16 70 0 133 67 133 140 0 71 -39 89 -102 46 l-35
-23 5 23 c2 13 0 23 -4 23 -5 -1 -20 -4 -34 -6z m125 -44 c9 -27 -32 -127 -57
-140 -26 -14 -58 -2 -58 22 0 22 35 95 58 122 21 23 49 22 57 -4z"/>
<path d="M3775 3493 c-38 -6 -58 -23 -26 -23 17 0 21 -4 17 -17 -3 -10 -12
-47 -21 -83 -16 -61 -16 -65 1 -77 10 -8 25 -11 32 -8 8 3 18 5 23 5 5 0 9 5
9 10 0 6 -7 10 -15 10 -19 0 -19 -1 5 90 21 82 24 101 13 99 -5 -1 -21 -4 -38
-6z"/>
<path d="M4772 3438 c-16 -16 -15 -33 2 -47 10 -9 16 -8 26 3 16 21 -10 62
-28 44z"/>
<path d="M184 3419 c-3 -6 1 -18 10 -27 15 -15 17 -15 34 1 15 16 15 19 2 27
-20 13 -37 12 -46 -1z"/>
<path d="M142 3297 c-9 -10 -7 -19 4 -36 l16 -22 15 21 c12 16 12 24 3 35 -15
18 -24 19 -38 2z"/>
<path d="M4814 3296 c-8 -22 3 -49 19 -43 6 2 12 14 12 27 0 27 -22 39 -31 16z"/>
<path d="M102 3168 c-13 -13 2 -38 23 -38 21 0 36 25 23 38 -7 7 -17 12 -23
12 -6 0 -16 -5 -23 -12z"/>
<path d="M4853 3169 c-16 -16 -5 -39 17 -39 25 0 35 18 20 35 -15 18 -22 19
-37 4z"/>
<path d="M2274 3124 c-257 -43 -483 -160 -670 -348 -156 -156 -261 -331 -318
-529 -39 -136 -49 -229 -43 -410 3 -130 9 -181 30 -258 88 -336 283 -598 572
-770 435 -259 988 -231 1394 71 317 236 502 610 502 1010 0 615 -442 1137
-1044 1235 -112 18 -313 18 -423 -1z m316 -169 c136 -20 260 -58 375 -115 100
-49 255 -156 254 -175 0 -5 -75 -75 -166 -155 -221 -193 -392 -344 -739 -651
-711 -628 -684 -605 -695 -588 -165 246 -240 543 -195 767 48 239 187 501 337
636 173 157 483 287 699 295 19 0 78 -6 130 -14z m798 -492 c78 -121 135 -281
166 -462 26 -155 18 -238 -44 -422 -105 -315 -282 -520 -565 -654 -280 -133
-497 -148 -785 -53 -117 38 -281 130 -370 207 l-35 31 26 22 c15 13 98 86 185
163 88 78 274 242 414 365 140 123 327 288 415 366 360 319 549 484 556 484 4
0 21 -21 37 -47z"/>
<path d="M2652 2644 c-103 -27 -327 -116 -344 -136 -10 -11 -18 -36 -18 -57 0
-20 -9 -60 -20 -89 -23 -61 -36 -157 -26 -197 4 -14 31 -50 61 -79 39 -37 55
-61 55 -79 0 -14 3 -33 6 -42 5 -13 10 -10 26 16 18 29 18 32 2 50 -9 10 -14
25 -10 34 4 12 -3 19 -27 27 l-32 12 33 8 c32 9 34 11 30 49 -4 42 4 50 21 22
6 -10 11 -13 11 -7 0 12 -33 44 -65 63 -19 11 -18 12 5 7 14 -3 57 -14 95 -24
105 -29 177 -35 201 -17 17 13 14 14 -37 15 -49 0 -241 48 -257 64 -8 9 65 72
128 111 30 18 91 48 135 65 93 37 121 36 214 -5 55 -25 65 -26 86 -15 31 16
31 28 3 77 -41 70 -69 102 -112 122 -49 24 -90 25 -164 5z m133 -35 c49 -12
97 -55 126 -111 24 -47 16 -49 -76 -12 -48 20 -76 25 -112 21 -71 -6 -245 -81
-360 -153 -38 -24 -69 -39 -71 -35 -5 15 38 155 50 163 41 28 192 99 239 112
93 26 144 30 204 15z m-475 -461 c0 -15 -28 -8 -34 8 -10 25 4 37 20 17 7 -10
14 -21 14 -25z m54 23 c20 -23 13 -49 -9 -31 -15 12 -27 50 -16 50 5 0 16 -9
25 -19z"/>
<path d="M1751 2540 c-61 -13 -117 -52 -141 -100 l-21 -41 55 44 c69 57 113
72 204 71 62 -1 83 -6 145 -37 86 -43 118 -81 125 -148 4 -39 -1 -57 -22 -93
-14 -24 -26 -48 -26 -53 0 -5 22 -22 49 -38 27 -17 47 -34 44 -38 -8 -13 -74
2 -110 25 l-33 20 -55 -21 c-110 -41 -256 -21 -335 47 -67 57 -82 106 -54 176
5 13 4 17 -4 13 -6 -4 -18 -27 -27 -51 -33 -85 19 -178 122 -216 103 -39 194
-37 294 6 35 15 38 15 87 -10 28 -14 67 -26 87 -26 43 0 95 25 95 46 0 15 -6
18 -51 28 -15 3 -37 14 -50 25 l-24 19 18 48 c22 64 22 108 -3 158 -47 97
-238 173 -369 146z"/>
<path d="M2650 2410 c-11 -7 -6 -10 22 -10 20 0 45 -3 55 -6 16 -5 16 -4 -1
10 -22 18 -54 20 -76 6z"/>
<path d="M2592 2354 c-32 -22 -27 -33 18 -40 36 -6 39 -9 34 -30 -5 -21 -3
-24 19 -24 33 0 43 16 20 29 -16 9 -14 10 10 11 46 0 30 17 -23 24 -64 9 -55
26 13 26 37 0 48 3 37 10 -23 15 -103 12 -128 -6z"/>
<path d="M2421 2148 c0 -9 -4 -25 -7 -35 -5 -17 -5 -17 6 0 6 10 9 25 7 35 -4
15 -5 15 -6 0z"/>
<path d="M2922 2097 c-18 -19 -21 -31 -16 -68 7 -55 -24 -119 -78 -163 -34
-26 -47 -30 -120 -33 -106 -6 -123 -11 -78 -26 27 -9 41 -24 62 -62 l27 -50
-140 -11 c-77 -6 -146 -17 -152 -23 -8 -8 41 -11 189 -11 335 0 391 -33 498
-297 24 -59 51 -132 61 -160 17 -55 35 -70 35 -30 0 29 -122 318 -155 369 -32
49 -97 92 -194 129 -84 32 -156 93 -149 126 2 10 32 26 79 42 110 37 116 43
138 136 39 161 38 180 -7 132z"/>
<path d="M2890 1386 c0 -20 135 -367 138 -356 7 20 -18 128 -55 245 -19 61
-37 112 -40 115 -2 2 -8 -2 -14 -10 -8 -13 -10 -13 -19 0 -5 8 -10 11 -10 6z"/>
<path d="M2110 1374 c0 -4 39 -119 88 -255 54 -154 91 -247 98 -245 7 3 22 -2
33 -11 33 -22 35 -10 7 32 -32 46 -102 228 -122 315 -9 36 -14 84 -12 108 4
48 -6 55 -19 15 l-10 -28 -24 37 c-22 34 -39 48 -39 32z"/>
<path d="M1847 1153 c-12 -11 -8 -68 6 -88 20 -26 30 -4 21 50 -6 43 -13 53
-27 38z"/>
<path d="M77 3043 c-24 -23 12 -55 38 -33 12 10 13 16 4 26 -12 15 -31 18 -42
7z"/>
<path d="M4887 3043 c-11 -10 -8 -41 5 -49 17 -11 40 26 27 43 -13 14 -22 16
-32 6z"/>
<path d="M51 2916 c-16 -19 -7 -46 14 -46 22 0 30 29 13 46 -13 13 -16 13 -27
0z"/>
<path d="M4904 2905 c-12 -29 15 -45 45 -26 12 8 12 12 2 25 -17 20 -40 21
-47 1z"/>
<path d="M30 2775 c-9 -11 -9 -19 3 -36 l15 -21 12 22 c20 38 -4 67 -30 35z"/>
<path d="M4925 2769 c-10 -29 14 -43 37 -22 14 12 15 19 7 30 -17 19 -37 16
-44 -8z"/>
<path d="M20 2644 c-11 -12 -10 -18 3 -32 16 -15 18 -15 34 0 13 14 14 20 3
32 -7 9 -16 16 -20 16 -4 0 -13 -7 -20 -16z"/>
<path d="M4940 2645 c-9 -11 -11 -22 -4 -32 13 -21 25 -21 38 -1 8 14 7 21 -5
33 -14 15 -17 15 -29 0z"/>
<path d="M4940 2515 c-15 -18 -6 -45 14 -45 20 0 29 16 21 40 -8 24 -18 25
-35 5z"/>
<path d="M13 2513 c-21 -8 -15 -30 9 -37 27 -6 43 7 35 28 -6 16 -21 19 -44 9z"/>
<path d="M4941 2386 c-16 -19 -7 -46 14 -46 22 0 30 29 13 46 -13 13 -16 13
-27 0z"/>
<path d="M20 2375 c-17 -21 6 -61 26 -44 18 15 18 45 0 52 -8 3 -20 0 -26 -8z"/>
<path d="M24 2239 c-3 -6 0 -17 8 -25 12 -12 17 -12 32 -1 11 8 16 19 12 25
-9 15 -43 15 -52 1z"/>
<path d="M4924 2239 c-3 -6 1 -18 9 -27 13 -13 19 -13 32 -2 12 10 13 16 4 26
-14 17 -35 18 -45 3z"/>
<path d="M53 2113 c-17 -6 -16 -28 1 -42 17 -14 41 11 32 34 -6 15 -12 17 -33
8z"/>
<path d="M4903 2104 c-3 -8 1 -22 9 -30 13 -13 16 -13 27 0 7 9 11 23 7 31 -7
20 -35 19 -43 -1z"/>
<path d="M72 1978 c-8 -8 -9 -15 -1 -25 15 -17 34 -17 48 1 10 12 8 17 -8 25
-24 14 -24 14 -39 -1z"/>
<path d="M4878 1976 c-13 -10 -15 -15 -6 -24 24 -24 68 -1 47 25 -14 16 -19
16 -41 -1z"/>
<path d="M101 1851 c-16 -28 14 -51 36 -28 13 13 14 19 3 31 -17 21 -27 20
-39 -3z"/>
<path d="M4846 1844 c-3 -9 -4 -20 0 -25 8 -14 40 -11 53 5 10 12 8 17 -8 25
-27 15 -38 14 -45 -5z"/>
<path d="M146 1724 c-13 -12 -14 -19 -5 -30 14 -17 20 -17 43 -1 16 12 16 14
-2 30 -18 17 -21 17 -36 1z"/>
<path d="M4811 1716 c-18 -21 11 -41 39 -26 17 9 19 14 9 26 -15 18 -33 18
-48 0z"/>
<path d="M190 1595 c-11 -13 -11 -19 2 -32 17 -16 38 -10 38 11 0 8 -6 19 -14
25 -10 9 -16 8 -26 -4z"/>
<path d="M4766 1594 c-11 -30 13 -44 43 -25 12 8 12 12 2 25 -17 20 -37 20
-45 0z"/>
<path d="M240 1474 c-11 -12 -11 -18 2 -30 13 -13 19 -14 36 -3 20 12 20 15 5
31 -20 22 -27 22 -43 2z"/>
<path d="M4711 1471 c-15 -27 12 -49 37 -30 9 7 19 15 21 16 5 4 -31 32 -41
33 -4 0 -12 -9 -17 -19z"/>
<path d="M300 1355 c-19 -22 1 -39 35 -31 26 7 27 8 10 26 -22 24 -29 25 -45
5z"/>
<path d="M4657 1363 c-12 -11 -8 -41 6 -46 7 -3 21 1 32 9 18 14 18 14 -1 29
-22 16 -28 18 -37 8z"/>
<path d="M365 1240 c-9 -15 4 -50 20 -50 16 0 29 35 20 50 -3 5 -12 10 -20 10
-8 0 -17 -5 -20 -10z"/>
<path d="M4584 1235 c-4 -9 0 -24 10 -33 15 -15 18 -15 26 -2 6 8 9 22 7 30
-3 21 -36 25 -43 5z"/>
<path d="M440 1125 c-19 -22 5 -48 31 -34 10 5 19 14 19 19 0 5 -9 14 -19 19
-14 8 -22 7 -31 -4z"/>
<path d="M4513 1124 c-3 -8 1 -22 8 -29 12 -12 17 -12 33 0 16 12 17 17 6 30
-16 20 -39 19 -47 -1z"/>
<path d="M4440 1025 c-15 -18 -6 -45 14 -45 20 0 29 16 21 40 -8 24 -18 25
-35 5z"/>
<path d="M514 1015 c-12 -29 15 -45 45 -26 12 8 12 12 2 25 -17 20 -40 21 -47
1z"/>
<path d="M595 910 c-6 -10 15 -50 26 -50 8 0 19 26 19 46 0 16 -36 19 -45 4z"/>
<path d="M4350 906 c0 -20 24 -36 39 -26 8 4 11 15 8 24 -8 20 -47 21 -47 2z"/>
<path d="M4271 826 c-17 -20 -6 -49 16 -44 22 4 26 20 10 42 -12 16 -14 16
-26 2z"/>
<path d="M690 815 c-16 -19 8 -59 27 -43 17 14 17 45 -1 51 -8 3 -20 0 -26 -8z"/>
<path d="M785 719 c-10 -30 11 -48 32 -27 13 14 14 20 3 32 -17 22 -27 20 -35
-5z"/>
<path d="M4170 725 c-11 -13 -11 -19 3 -33 20 -19 41 -5 35 24 -4 24 -22 28
-38 9z"/>
<path d="M892 648 c-15 -15 -15 -45 -1 -54 6 -3 18 0 26 9 14 13 14 18 1 36
-11 16 -17 18 -26 9z"/>
<path d="M4077 633 c-10 -9 -8 -25 3 -43 8 -13 11 -12 23 5 22 29 -2 63 -26
38z"/>
<path d="M991 551 c-16 -10 -8 -41 11 -41 7 0 19 4 27 9 12 8 12 12 2 25 -15
18 -21 19 -40 7z"/>
<path d="M3964 547 c-3 -9 0 -26 7 -38 11 -22 12 -22 26 -3 7 10 12 25 11 34
-4 20 -37 25 -44 7z"/>
<path d="M3862 478 c-17 -17 -15 -35 5 -42 22 -9 36 7 28 33 -7 24 -16 26 -33
9z"/>
<path d="M1095 470 c-8 -12 3 -50 14 -50 15 0 33 30 27 45 -6 17 -32 20 -41 5z"/>
<path d="M3751 406 c-16 -19 -7 -46 14 -46 22 0 30 29 13 46 -13 13 -16 13
-27 0z"/>
<path d="M1204 395 c-8 -20 4 -35 26 -35 25 0 35 17 20 35 -16 19 -39 19 -46
0z"/>
<path d="M1320 320 c0 -28 28 -37 48 -16 15 15 15 18 2 26 -26 17 -50 12 -50
-10z"/>
<path d="M3633 324 c-9 -24 11 -38 37 -24 17 9 19 14 9 26 -15 19 -38 18 -46
-2z"/>
<path d="M1446 274 c-13 -12 -14 -19 -5 -30 14 -17 20 -17 43 -1 16 12 16 14
-2 30 -18 17 -21 17 -36 1z"/>
<path d="M3509 274 c-10 -12 -9 -18 3 -30 13 -13 20 -14 37 -4 23 12 21 24 -9
40 -13 7 -21 6 -31 -6z"/>
<path d="M1567 223 c-24 -23 12 -55 38 -33 12 10 13 16 4 26 -12 15 -31 18
-42 7z"/>
<path d="M3390 215 c-10 -12 -10 -18 0 -31 12 -13 15 -13 28 0 15 15 10 46 -6
46 -5 0 -15 -7 -22 -15z"/>
<path d="M1690 175 c-8 -10 -8 -19 2 -34 15 -25 24 -26 32 -5 15 38 -10 67
-34 39z"/>
<path d="M3266 183 c-9 -9 -7 -36 4 -53 9 -13 12 -12 25 4 8 11 15 23 15 28 0
11 -36 28 -44 21z"/>
<path d="M3142 148 c-16 -16 -15 -33 2 -47 21 -18 41 11 26 38 -13 25 -12 25
-28 9z"/>
<path d="M1820 134 c-11 -12 -11 -18 1 -30 13 -12 18 -12 34 0 16 12 17 16 6
30 -17 20 -25 20 -41 0z"/>
<path d="M3012 108 c-16 -16 -15 -33 2 -47 22 -18 44 25 24 45 -11 11 -16 12
-26 2z"/>
<path d="M1944 99 c-3 -6 1 -18 10 -27 15 -15 17 -15 34 1 15 16 15 19 2 27
-20 13 -37 12 -46 -1z"/>
<path d="M2081 86 c-16 -19 -7 -46 14 -46 22 0 30 29 13 46 -13 13 -16 13 -27
0z"/>
<path d="M2880 75 c-22 -26 7 -46 39 -26 12 8 12 12 2 25 -17 20 -25 20 -41 1z"/>
<path d="M2211 61 c-8 -14 -7 -22 5 -32 20 -16 38 2 29 30 -8 26 -21 27 -34 2z"/>
<path d="M2742 58 c-13 -13 2 -38 23 -38 21 0 36 25 23 38 -15 15 -31 15 -46
0z"/>
<path d="M2347 53 c-24 -23 12 -55 38 -33 12 10 13 16 4 26 -12 15 -31 18 -42
7z"/>
<path d="M2611 46 c-18 -21 11 -41 39 -26 21 11 21 12 3 25 -23 18 -28 18 -42
1z"/>
<path d="M2470 41 c0 -21 13 -41 26 -41 8 0 14 4 14 9 0 5 3 16 6 25 5 12 0
16 -20 16 -14 0 -26 -4 -26 -9z"/>
</g>
</svg>
