<?xml version="1.0" standalone="no"?>
<!DOCTYPE svg PUBLIC "-//W3C//DTD SVG 20010904//EN"
 "http://www.w3.org/TR/2001/REC-SVG-20010904/DTD/svg10.dtd">
<svg version="1.0" xmlns="http://www.w3.org/2000/svg"
 width="498.000000pt" height="500.000000pt" viewBox="0 0 498.000000 500.000000"
 preserveAspectRatio="xMidYMid meet">
<metadata>
Created by potrace 1.15, written by Peter Selinger 2001-2017
</metadata>
<g transform="translate(0.000000,500.000000) scale(0.100000,-0.100000)"
fill="#000000" stroke="none">
<path d="M2470 4974 c-11 -12 -10 -18 3 -32 21 -21 42 -3 32 27 -8 25 -18 27
-35 5z"/>
<path d="M2336 4964 c-8 -21 1 -34 24 -34 25 0 35 17 20 35 -16 20 -36 19 -44
-1z"/>
<path d="M2607 4973 c-4 -3 -7 -15 -7 -25 0 -19 25 -24 49 -9 12 8 12 12 2 25
-14 17 -33 21 -44 9z"/>
<path d="M2741 4966 c-16 -19 -7 -46 14 -46 22 0 30 29 13 46 -13 13 -16 13
-27 0z"/>
<path d="M2204 4955 c-7 -18 3 -35 21 -35 18 0 26 15 19 34 -8 20 -33 21 -40
1z"/>
<path d="M2077 4943 c-4 -3 -7 -15 -7 -25 0 -21 32 -25 49 -5 17 22 -22 50
-42 30z"/>
<path d="M2869 4934 c-10 -12 -9 -18 5 -32 15 -15 18 -15 26 -2 5 8 10 20 10
26 0 19 -28 24 -41 8z"/>
<path d="M1935 4910 c-3 -5 -1 -19 5 -31 11 -19 13 -20 30 -4 10 9 16 23 13
31 -6 16 -39 19 -48 4z"/>
<path d="M2994 4909 c-3 -6 1 -18 10 -27 15 -15 17 -15 32 0 19 19 11 38 -16
38 -10 0 -22 -5 -26 -11z"/>
<path d="M3125 4879 c-7 -19 7 -38 26 -39 11 0 19 29 13 45 -9 22 -32 18 -39
-6z"/>
<path d="M1813 4874 c-9 -24 11 -38 36 -25 25 14 27 27 5 35 -25 9 -34 7 -41
-10z"/>
<path d="M1687 4843 c-25 -24 11 -49 40 -28 16 13 16 16 3 25 -17 11 -34 13
-43 3z"/>
<path d="M3253 4834 c-8 -21 16 -35 40 -23 14 8 16 13 6 25 -15 19 -38 18 -46
-2z"/>
<path d="M1561 4797 c-8 -10 -7 -19 4 -33 15 -19 15 -19 30 0 11 14 12 23 4
33 -6 7 -15 13 -19 13 -4 0 -13 -6 -19 -13z"/>
<path d="M3380 4795 c-23 -28 21 -50 48 -23 9 9 7 14 -6 24 -22 17 -27 17 -42
-1z"/>
<path d="M3501 4748 c-11 -17 -10 -23 2 -35 18 -18 37 -9 37 16 0 31 -24 43
-39 19z"/>
<path d="M1439 4744 c-10 -12 -9 -18 4 -31 13 -13 19 -14 31 -3 21 17 20 27
-3 39 -14 8 -22 7 -32 -5z"/>
<path d="M1314 4679 c-3 -6 1 -18 10 -27 15 -15 17 -15 32 0 19 19 11 38 -16
38 -10 0 -22 -5 -26 -11z"/>
<path d="M3617 4683 c-10 -9 -8 -15 8 -37 15 -19 15 -19 29 -1 8 11 12 25 9
32 -5 14 -35 18 -46 6z"/>
<path d="M3735 4620 c-8 -24 1 -40 21 -40 20 0 29 27 14 45 -17 20 -27 19 -35
-5z"/>
<path d="M1207 4623 c-11 -10 -8 -41 4 -49 6 -3 18 1 27 9 13 13 13 19 2 31
-14 17 -23 20 -33 9z"/>
<path d="M2288 4593 c-22 -6 -24 -23 -2 -23 10 0 14 -6 10 -17 -19 -68 -48
-234 -43 -247 8 -20 51 -21 67 -1 10 13 9 15 -10 15 -19 0 -22 4 -17 28 4 15
17 78 30 140 l23 112 -20 -1 c-12 -1 -29 -3 -38 -6z"/>
<path d="M2418 4593 c-32 -5 -38 -23 -8 -23 16 0 19 -5 15 -22 -3 -13 -16 -74
-29 -135 -22 -106 -23 -113 -6 -113 11 0 23 15 34 45 10 25 21 45 24 45 4 0
18 -20 31 -45 24 -46 46 -60 76 -49 16 7 16 8 -3 23 -26 21 -62 85 -54 97 4 5
24 22 45 37 46 34 47 49 5 45 -23 -2 -33 -8 -33 -20 0 -20 -68 -74 -73 -58 -2
5 3 41 12 79 19 84 20 101 4 100 -7 -1 -25 -4 -40 -6z"/>
<path d="M1777 4583 c-3 -5 -8 -23 -12 -40 -8 -40 7 -44 31 -8 12 19 25 25 50
25 19 0 34 -2 34 -3 0 -2 -11 -55 -25 -117 -14 -62 -25 -115 -25 -117 0 -1 -6
-3 -14 -3 -8 0 -18 -4 -21 -10 -4 -6 18 -10 59 -10 37 0 66 4 66 10 0 6 -9 10
-20 10 -25 0 -25 -7 2 124 19 93 26 109 45 117 32 12 53 1 53 -27 0 -31 26
-32 34 -1 15 58 17 57 -123 57 -72 0 -132 -3 -134 -7z"/>
<path d="M2785 4581 c-3 -7 3 -11 14 -11 27 0 27 -1 -11 -132 -26 -90 -36
-111 -55 -119 -36 -14 -27 -19 32 -19 30 0 55 5 55 10 0 6 -9 10 -21 10 -12 0
-19 5 -16 13 3 6 15 51 28 100 13 48 26 87 30 87 3 0 12 -48 19 -106 19 -156
34 -154 120 11 l51 100 -6 -95 c-7 -104 -9 -110 -31 -110 -8 0 -14 -4 -14 -10
0 -6 27 -10 60 -10 33 0 60 4 60 10 0 6 -9 10 -20 10 -11 0 -20 1 -20 3 0 1 7
54 14 117 10 79 19 118 30 126 26 19 18 25 -26 22 l-43 -3 -60 -115 c-32 -63
-60 -108 -62 -100 -2 8 -9 60 -16 115 l-12 100 -47 3 c-25 2 -49 -2 -53 -7z"/>
<path d="M1092 4550 c-15 -25 -8 -40 19 -40 19 0 24 15 13 44 -8 21 -17 20
-32 -4z"/>
<path d="M3851 4556 c-16 -19 -7 -46 14 -46 22 0 30 29 13 46 -13 13 -16 13
-27 0z"/>
<path d="M2054 4491 c-56 -34 -86 -148 -48 -185 19 -20 23 -20 69 0 34 14 39
14 54 0 23 -21 45 -20 62 1 13 15 11 16 -10 10 -26 -6 -26 -8 0 111 11 55 11
64 -1 72 -25 16 -93 11 -126 -9z m91 -11 c14 -23 -17 -110 -47 -135 -34 -29
-45 -28 -64 1 -11 17 -10 27 10 71 13 28 32 56 43 62 23 13 50 14 58 1z"/>
<path d="M3223 4490 c-41 -25 -63 -68 -63 -124 0 -51 24 -76 73 -76 32 0 98
31 80 37 -7 2 -21 0 -32 -6 -33 -18 -61 -13 -73 14 -14 32 -9 37 67 67 51 20
60 28 63 52 2 15 -2 34 -9 42 -16 20 -68 17 -106 -6z m73 -14 c9 -24 -14 -54
-52 -66 -19 -7 -38 -10 -41 -7 -7 8 34 74 50 81 23 9 38 6 43 -8z"/>
<path d="M984 4475 c-9 -21 3 -45 21 -45 21 0 30 27 15 45 -16 19 -29 19 -36
0z"/>
<path d="M3957 4473 c-24 -23 12 -55 38 -33 12 10 13 16 4 26 -12 15 -31 18
-42 7z"/>
<path d="M875 4380 c-3 -5 0 -18 7 -29 14 -23 38 -11 38 20 0 20 -34 27 -45 9z"/>
<path d="M4055 4380 c-4 -7 -3 -16 3 -22 14 -14 47 -6 47 12 0 18 -40 26 -50
10z"/>
<path d="M784 4303 c-14 -24 -7 -43 17 -43 19 0 24 16 13 44 -8 21 -17 20 -30
-1z"/>
<path d="M4161 4306 c-16 -19 -7 -46 14 -46 22 0 30 29 13 46 -13 13 -16 13
-27 0z"/>
<path d="M683 4194 c-3 -8 1 -22 9 -30 13 -13 16 -13 27 0 7 9 11 23 7 31 -7
20 -35 19 -43 -1z"/>
<path d="M4247 4196 c-9 -23 18 -39 43 -26 17 9 19 14 9 26 -15 18 -45 18 -52
0z"/>
<path d="M600 4105 c-9 -11 -11 -22 -4 -32 13 -21 25 -21 38 -1 8 14 7 21 -5
33 -14 15 -17 15 -29 0z"/>
<path d="M4343 4109 c-27 -27 13 -51 47 -29 13 8 12 11 -5 24 -24 19 -28 19
-42 5z"/>
<path d="M1285 4086 c-35 -11 -37 -13 -19 -19 l22 -8 -24 -112 c-13 -62 -26
-122 -29 -134 -4 -18 -1 -23 15 -23 13 0 21 9 25 28 14 65 72 152 101 152 18
0 18 -21 -1 -90 -8 -30 -15 -63 -15 -72 0 -23 34 -32 62 -16 l23 13 -22 3
c-13 2 -23 4 -23 5 0 1 9 36 20 77 24 91 23 85 5 104 -21 21 -68 3 -96 -36
-12 -16 -23 -28 -24 -26 -2 2 5 38 14 81 10 42 16 79 12 81 -3 2 -24 -2 -46
-8z"/>
<path d="M3932 4093 c-17 -7 -55 -83 -41 -83 16 0 69 56 69 74 0 16 -6 18 -28
9z"/>
<path d="M2471 4081 c-11 -7 -11 -10 3 -18 15 -8 14 -20 -9 -132 -30 -148 -30
-141 -5 -141 13 0 20 7 20 20 0 43 58 139 92 152 25 10 27 -11 7 -87 -21 -80
-12 -103 35 -91 29 7 36 26 10 26 -12 0 -15 6 -12 23 3 12 11 51 19 86 13 59
12 64 -6 77 -28 20 -34 18 -77 -26 -43 -46 -43 -46 -23 35 8 33 14 66 15 73 0
14 -48 16 -69 3z"/>
<path d="M2953 4083 c-20 -8 -15 -23 7 -23 11 0 23 -7 26 -15 7 -18 -75 -197
-87 -189 -5 3 -9 31 -9 62 0 31 -3 81 -6 110 l-7 52 -38 0 c-22 0 -39 -4 -39
-10 0 -5 6 -10 14 -10 20 0 24 -18 32 -148 10 -160 34 -164 104 -18 23 48 40
75 43 66 3 -8 8 -48 11 -89 4 -41 8 -77 10 -79 3 -2 13 -1 23 2 11 4 42 53 78
127 62 126 85 152 123 142 27 -7 27 -8 -3 -149 -14 -64 -25 -117 -25 -120 0
-2 9 -4 19 -4 14 0 21 10 26 33 17 75 83 163 107 139 8 -8 7 -26 -6 -72 -25
-88 -10 -115 49 -90 19 8 19 9 -2 9 -28 1 -27 -2 -3 91 l20 75 -21 18 c-30 24
-36 22 -81 -25 -26 -28 -38 -36 -34 -23 12 43 26 111 26 128 0 15 -11 17 -83
17 -58 0 -89 -5 -103 -15 -19 -14 -18 -14 4 -15 12 0 22 -6 21 -12 0 -24 -98
-203 -99 -183 -1 11 -5 56 -10 100 -8 75 -7 81 13 97 22 17 22 18 -20 18 -23
0 -47 2 -55 4 -7 3 -19 2 -25 -1z"/>
<path d="M972 4067 c-15 -18 -26 -67 -15 -67 5 0 19 14 31 30 16 22 31 30 52
30 17 0 30 -3 30 -7 0 -5 -10 -55 -22 -113 -17 -85 -26 -109 -47 -127 l-26
-22 62 -1 c34 0 65 5 68 10 3 6 -3 10 -14 10 -12 0 -21 2 -21 4 0 18 44 215
52 229 14 27 61 19 68 -12 7 -33 26 -37 34 -9 15 59 17 58 -118 58 -87 0 -127
-4 -134 -13z"/>
<path d="M3792 4035 c-7 -14 -23 -30 -37 -37 -28 -13 -33 -28 -9 -28 12 0 15
-6 10 -22 -3 -13 -11 -51 -18 -86 -10 -54 -9 -65 3 -73 20 -13 33 -11 55 7 19
15 18 15 -3 11 -28 -6 -28 -1 -7 92 13 56 20 71 34 71 11 0 22 5 25 10 3 6 -4
10 -16 10 -19 0 -21 4 -16 35 7 41 -5 46 -21 10z"/>
<path d="M4424 4005 c-8 -21 2 -45 20 -45 19 0 29 29 15 46 -15 18 -28 18 -35
-1z"/>
<path d="M517 4003 c-24 -23 12 -55 38 -33 12 10 13 16 4 26 -12 15 -31 18
-42 7z"/>
<path d="M1783 4002 c-33 -5 -81 -58 -89 -97 -13 -71 23 -125 83 -125 29 0 81
37 98 69 18 37 19 100 1 124 -16 20 -61 34 -93 29z m47 -32 c24 -24 25 -40 5
-108 -16 -53 -37 -69 -75 -57 -29 9 -35 50 -16 111 23 72 51 89 86 54z"/>
<path d="M2285 4003 c-30 -7 -83 -62 -96 -100 -13 -41 -4 -85 22 -109 20 -18
22 -18 61 3 l39 22 -6 -32 c-4 -18 -11 -40 -17 -49 -11 -22 -51 -23 -82 -3
-22 15 -24 14 -29 -7 -4 -12 -5 -24 -3 -26 3 -2 30 -4 61 -5 51 -1 60 2 80 25
23 27 51 126 62 220 4 36 2 49 -8 52 -30 9 -65 13 -84 9z m50 -33 c12 -20 -7
-91 -32 -120 -29 -35 -58 -39 -73 -9 -14 25 13 103 44 125 24 16 52 18 61 4z"/>
<path d="M4030 3992 c-38 -18 -52 -61 -28 -81 7 -6 28 -22 46 -37 40 -32 41
-48 3 -64 -34 -13 -49 -8 -61 24 -8 21 -8 21 -18 -4 -13 -32 -4 -40 45 -47 32
-4 44 0 71 22 18 15 32 35 32 45 0 11 -20 36 -45 57 -49 40 -57 68 -24 78 14
5 28 0 43 -14 28 -26 32 -26 39 -1 5 19 2 21 -53 36 -8 2 -31 -4 -50 -14z"/>
<path d="M1528 3993 c-29 -5 -39 -23 -13 -23 11 0 14 -7 10 -22 -3 -13 -11
-53 -19 -90 -13 -64 -12 -68 5 -68 13 0 22 14 33 53 16 56 83 142 92 120 9
-20 20 -15 32 12 11 24 10 25 -18 25 -21 0 -36 -8 -52 -30 -12 -16 -25 -30
-29 -30 -4 0 -4 14 1 30 6 21 5 30 -3 29 -7 -1 -24 -4 -39 -6z"/>
<path d="M1973 3993 c-33 -4 -47 -23 -17 -23 12 0 15 -6 10 -22 -22 -85 -28
-138 -16 -153 20 -24 39 -18 80 23 l39 38 -1 -28 c-1 -38 6 -43 44 -31 27 9
29 11 10 12 -25 1 -25 -4 4 112 18 71 18 69 -6 69 -13 0 -21 -9 -26 -27 -13
-63 -64 -143 -90 -143 -21 0 -15 73 12 163 3 9 2 16 -3 15 -4 0 -23 -3 -40 -5z"/>
<path d="M3523 3979 c-43 -27 -70 -96 -57 -147 10 -42 36 -52 84 -32 23 10 33
9 53 -5 20 -13 30 -14 46 -5 27 14 27 24 1 17 -24 -6 -24 -11 0 92 23 97 22
101 -50 101 -28 0 -57 -8 -77 -21z m97 -21 c0 -95 -77 -174 -114 -116 -8 13
-6 26 8 55 32 70 45 83 76 83 24 0 30 -4 30 -22z"/>
<path d="M434 3885 c-13 -32 23 -48 47 -19 10 13 10 17 -2 25 -21 13 -39 11
-45 -6z"/>
<path d="M4501 3887 c-8 -10 -7 -19 4 -33 14 -19 14 -19 28 1 25 34 -5 64 -32
32z"/>
<path d="M367 3783 c-11 -10 -8 -41 4 -49 6 -3 18 1 27 9 13 13 13 19 2 31
-14 17 -23 20 -33 9z"/>
<path d="M4571 3777 c-8 -10 -7 -19 4 -33 15 -19 15 -19 30 0 11 14 12 23 4
33 -6 7 -15 13 -19 13 -4 0 -13 -6 -19 -13z"/>
<path d="M4640 3670 c-13 -25 -6 -40 21 -40 23 0 26 32 5 49 -12 10 -17 8 -26
-9z"/>
<path d="M301 3662 c-14 -26 5 -45 31 -31 23 13 23 26 -2 39 -15 8 -21 6 -29
-8z"/>
<path d="M2935 3580 c-8 -13 3 -30 20 -30 20 0 30 21 14 31 -18 11 -26 11 -34
-1z"/>
<path d="M1295 3571 c-3 -5 4 -12 15 -16 11 -3 20 -10 20 -15 0 -8 -11 -59
-45 -207 -3 -12 -14 -25 -25 -28 -39 -12 -19 -25 38 -25 68 0 81 8 51 30 -20
16 -20 19 -7 66 l14 49 67 3 c37 2 67 1 67 -2 0 -36 -25 -108 -41 -116 -33
-18 -21 -25 41 -22 33 2 60 8 60 13 0 5 -7 9 -15 9 -20 0 -19 12 6 128 17 78
26 101 47 119 l27 22 -60 0 c-33 1 -67 -4 -75 -9 -12 -8 -11 -10 8 -10 18 0
22 -6 22 -29 0 -16 -4 -41 -10 -55 -9 -24 -14 -26 -76 -26 l-66 0 7 37 c9 49
22 73 40 73 8 0 15 5 15 10 0 13 -117 13 -125 1z"/>
<path d="M241 3546 c-9 -11 -9 -19 1 -35 7 -12 15 -21 18 -21 3 0 11 9 18 21
10 16 10 24 1 35 -6 8 -15 14 -19 14 -4 0 -13 -6 -19 -14z"/>
<path d="M4696 3544 c-8 -21 11 -45 30 -37 20 7 14 47 -7 51 -9 2 -19 -5 -23
-14z"/>
<path d="M1690 3483 c-65 -33 -99 -141 -59 -189 16 -19 58 -18 81 3 17 15 19
15 37 -1 21 -19 62 -18 68 1 3 7 -3 9 -17 6 -23 -6 -23 -5 7 110 11 40 13 61
6 68 -20 20 -86 21 -123 2z m84 -11 c11 -18 -24 -118 -49 -139 -34 -30 -53
-29 -67 2 -9 20 -6 33 16 79 15 30 35 57 44 59 29 8 51 7 56 -1z"/>
<path d="M1990 3468 l-33 -33 7 28 c6 24 4 27 -18 27 -31 0 -56 -9 -56 -21 0
-5 7 -9 15 -9 8 0 15 -5 15 -10 0 -32 -44 -207 -57 -227 l-15 -23 51 0 c28 0
51 5 51 10 0 6 -7 10 -15 10 -10 0 -15 10 -15 30 0 28 3 30 36 30 46 0 100 33
121 73 32 63 11 147 -37 147 -10 0 -32 -15 -50 -32z m60 -28 c13 -24 -28 -123
-58 -139 -23 -12 -48 -6 -55 14 -5 12 34 107 55 132 16 19 46 16 58 -7z"/>
<path d="M2453 3480 c-51 -31 -81 -107 -62 -157 5 -15 16 -31 22 -35 28 -18
137 1 137 24 0 6 -8 7 -17 3 -64 -24 -103 -13 -103 29 0 18 10 26 55 40 60 19
85 38 85 66 0 48 -61 64 -117 30z m70 -14 c9 -24 -17 -60 -51 -70 -45 -13 -49
-3 -18 44 26 40 59 53 69 26z"/>
<path d="M2712 3463 l-35 -38 5 33 c4 28 2 32 -18 32 -29 0 -54 -10 -54 -21 0
-5 7 -9 15 -9 18 0 18 2 0 -80 -8 -36 -14 -73 -15 -82 0 -40 27 -12 66 64 61
123 98 135 74 25 -21 -99 -20 -102 19 -102 19 0 36 6 39 13 2 7 -2 10 -12 6
-21 -8 -21 18 0 101 13 52 14 68 4 80 -21 25 -51 17 -88 -22z"/>
<path d="M3109 3460 l-38 -39 6 34 c6 38 -4 42 -57 25 -24 -8 -24 -8 -4 -15
21 -7 21 -7 4 -90 -10 -47 -15 -87 -12 -90 16 -16 32 1 46 48 16 55 68 127 92
127 18 0 18 -18 -2 -92 -8 -33 -13 -67 -10 -75 7 -17 67 -14 73 4 3 7 -3 9
-16 6 -25 -6 -25 -13 -2 82 22 86 16 115 -21 115 -12 0 -38 -18 -59 -40z"/>
<path d="M3334 3491 c-12 -5 -35 -26 -50 -47 -22 -29 -29 -48 -29 -84 0 -26 6
-54 14 -63 17 -21 64 -22 81 -2 20 24 31 18 24 -12 -16 -68 -57 -92 -96 -56
-17 15 -20 15 -28 3 -14 -22 -12 -27 13 -34 56 -15 113 -1 135 34 21 34 58
238 46 250 -16 16 -84 22 -110 11z m74 -34 c6 -28 -19 -99 -43 -123 -31 -31
-52 -30 -66 0 -16 34 29 132 63 139 33 6 43 3 46 -16z"/>
<path d="M2155 3480 c-20 -9 -20 -9 1 -15 l21 -7 -24 -111 c-18 -87 -28 -116
-46 -129 -22 -17 -21 -18 36 -18 31 0 57 4 57 10 0 6 -7 10 -15 10 -16 0 -19
17 -9 44 4 10 18 16 38 16 86 0 158 103 127 183 -13 34 -56 37 -95 6 l-26 -20
0 20 c0 23 -28 27 -65 11z m148 -42 c8 -12 6 -28 -8 -60 -26 -60 -44 -78 -77
-78 -41 0 -38 30 15 128 20 36 51 41 70 10z"/>
<path d="M2890 3481 c-23 -7 -24 -8 -6 -18 18 -10 18 -13 1 -88 -11 -50 -13
-81 -7 -87 14 -14 65 -6 70 11 3 10 0 12 -12 8 -21 -8 -21 9 4 103 11 41 20
76 20 78 0 4 -45 0 -70 -7z"/>
<path d="M184 3419 c-3 -6 1 -18 10 -27 15 -15 17 -15 34 1 15 16 15 19 2 27
-20 13 -37 12 -46 -1z"/>
<path d="M4741 3416 c-10 -12 -8 -17 9 -26 28 -15 57 5 39 26 -15 18 -33 18
-48 0z"/>
<path d="M143 3299 c-6 -6 -9 -18 -6 -25 7 -18 37 -18 52 0 10 12 8 17 -8 25
-24 14 -24 14 -38 0z"/>
<path d="M4794 3295 c-4 -9 -2 -21 4 -27 15 -15 44 -1 40 19 -4 23 -36 29 -44
8z"/>
<path d="M4841 3176 c-16 -19 -7 -46 14 -46 22 0 30 29 13 46 -13 13 -16 13
-27 0z"/>
<path d="M102 3168 c-8 -8 -9 -15 -1 -25 15 -17 34 -17 48 1 10 12 8 17 -8 25
-24 14 -24 14 -39 -1z"/>
<path d="M3355 3074 c-243 -53 -489 -175 -578 -287 -25 -30 -31 -49 -35 -100
-2 -34 -14 -89 -28 -123 -30 -77 -54 -215 -54 -310 0 -81 -2 -78 118 -188 60
-54 85 -104 108 -211 24 -109 22 -212 -3 -261 -49 -94 -150 -159 -457 -295
-65 -29 -141 -70 -168 -92 -100 -78 -213 -268 -264 -442 -24 -79 -28 -112 -31
-270 -3 -119 -1 -188 6 -205 9 -20 10 -5 6 67 -21 390 139 760 378 871 146 69
164 74 208 70 24 -3 100 -1 169 4 69 5 256 14 415 22 401 17 508 6 666 -73
136 -69 225 -148 305 -275 44 -70 49 -55 8 27 -63 125 -211 248 -369 307 -176
66 -241 107 -281 176 -41 71 -34 82 76 118 151 49 221 100 269 195 11 21 39
110 62 197 34 133 42 180 46 286 4 86 2 142 -7 172 -21 77 -113 146 -194 146
-51 0 -52 -16 -2 -29 58 -14 125 -66 155 -120 13 -23 21 -44 18 -47 -3 -3 -26
11 -52 30 -46 35 -90 54 -102 43 -3 -4 19 -17 49 -30 69 -31 100 -72 106 -143
5 -55 -14 -211 -27 -233 -6 -9 -33 19 -87 90 -116 151 -92 141 -350 143 l-219
2 -135 42 c-148 46 -209 69 -227 83 -13 11 90 113 167 165 102 70 377 201 459
219 30 6 161 -34 241 -75 60 -30 150 -92 177 -122 30 -32 53 -90 53 -132 0
-46 15 -53 30 -16 15 36 7 95 -24 188 -32 94 -56 138 -126 231 -66 87 -119
136 -190 172 -58 29 -184 35 -285 13z m209 -9 c94 -25 166 -84 243 -200 54
-82 115 -188 106 -183 -5 2 -63 31 -129 65 -151 77 -241 107 -299 101 -41 -5
-102 -30 -290 -118 -180 -85 -377 -228 -446 -323 l-29 -40 0 64 c0 47 7 78 25
117 17 37 25 71 25 108 0 110 40 147 280 259 347 163 402 179 514 150z m-593
-721 c119 -46 182 -54 422 -54 152 0 216 -4 240 -14 44 -18 108 -96 163 -201
43 -80 46 -91 41 -137 -13 -108 -95 -231 -185 -277 -55 -28 -151 -51 -215 -51
-70 0 -123 28 -265 140 -121 96 -292 262 -292 284 0 8 9 17 20 21 27 9 58 51
70 96 14 53 -3 109 -47 153 -32 31 -50 42 -108 61 -16 5 -17 8 -5 16 20 12 57
4 161 -37z m-31 -87 c25 -41 25 -103 1 -144 -18 -29 -23 -31 -63 -26 -24 3
-52 14 -63 24 -19 19 -19 19 28 19 58 0 87 14 87 40 0 11 -11 45 -25 76 -14
31 -25 58 -25 61 0 13 44 -23 60 -50z m-66 -21 c9 -14 16 -35 16 -46 0 -17 -5
-21 -26 -18 -23 3 -29 11 -44 60 l-18 57 28 -14 c15 -8 34 -25 44 -39z m-107
-41 c-2 -5 -13 -11 -25 -13 -27 -4 -45 29 -36 65 l7 27 29 -34 c15 -19 27 -39
25 -45z m293 -408 c145 -142 194 -178 282 -210 l63 -22 42 -85 c23 -47 43 -87
43 -90 0 -9 -504 -42 -715 -48 -220 -6 -220 -6 -74 73 60 32 118 74 161 115
l68 65 0 163 c0 89 1 162 3 162 1 0 58 -56 127 -123z"/>
<path d="M62 3038 c-8 -8 -9 -15 -1 -25 14 -17 45 -17 51 0 12 32 -24 51 -50
25z"/>
<path d="M4870 3035 c-13 -16 -6 -35 14 -35 8 0 19 7 27 16 10 13 10 17 -2 25
-19 12 -25 11 -39 -6z"/>
<path d="M45 2910 c-8 -24 1 -40 21 -40 20 0 29 27 14 45 -17 20 -27 19 -35
-5z"/>
<path d="M4893 2909 c-15 -15 -5 -39 17 -39 26 0 43 23 28 38 -15 15 -31 15
-45 1z"/>
<path d="M1762 2860 c-142 -38 -250 -113 -311 -215 -29 -48 -35 -68 -39 -135
-3 -60 0 -91 14 -131 38 -106 171 -215 319 -262 112 -35 257 -31 407 12 l118
33 46 -30 c64 -43 139 -59 207 -43 58 13 96 36 81 50 -5 5 -39 18 -76 30 -62
21 -148 72 -148 89 0 4 14 27 30 51 36 53 60 128 60 187 0 142 -133 289 -320
354 -94 33 -286 38 -388 10z m333 -26 c133 -32 256 -117 310 -216 26 -46 30
-63 30 -128 0 -79 -17 -125 -71 -197 l-24 -32 25 -30 c25 -29 135 -91 162 -91
21 0 15 -17 -9 -24 -62 -16 -161 10 -214 56 -34 30 -38 31 -67 19 -149 -59
-170 -64 -292 -65 -76 -1 -138 4 -170 13 -151 43 -284 148 -325 258 -54 142
25 295 198 386 140 73 284 90 447 51z"/>
<path d="M4912 2783 c-18 -35 12 -59 36 -30 7 8 7 17 -2 30 -16 21 -23 21 -34
0z"/>
<path d="M30 2775 c-9 -11 -9 -19 3 -36 l15 -21 12 22 c20 38 -4 67 -30 35z"/>
<path d="M3343 2654 c-21 -20 -23 -24 -8 -18 44 16 140 16 179 0 47 -20 44 0
-4 26 -21 11 -55 18 -87 18 -42 0 -57 -5 -80 -26z"/>
<path d="M20 2644 c-11 -12 -11 -18 1 -30 13 -12 18 -12 34 0 16 12 17 16 6
30 -17 20 -25 20 -41 0z"/>
<path d="M4921 2641 c-16 -28 14 -51 36 -28 13 13 14 19 3 31 -17 21 -27 20
-39 -3z"/>
<path d="M3294 2562 c-40 -19 -61 -46 -44 -57 4 -3 32 -10 61 -15 29 -6 54
-11 55 -13 1 -1 0 -15 -3 -30 -5 -26 -9 -28 -37 -24 l-31 6 30 -14 c39 -18
106 -19 130 -1 19 13 18 15 -18 32 -52 25 -46 35 18 28 37 -5 55 -3 55 4 0 19
-32 29 -117 37 -117 10 -110 35 10 35 76 0 66 19 -14 26 -40 4 -65 0 -95 -14z"/>
<path d="M13 2513 c-21 -8 -15 -30 9 -36 22 -6 41 9 35 28 -4 12 -26 16 -44 8z"/>
<path d="M4927 2513 c-24 -23 12 -55 38 -33 12 10 13 16 4 26 -12 15 -31 18
-42 7z"/>
<path d="M3712 2395 c4 -4 17 -13 30 -19 31 -16 33 -33 3 -43 l-26 -8 40 -39
c21 -21 44 -35 50 -32 15 9 14 49 -1 64 -17 17 4 15 28 -3 10 -8 23 -15 28
-15 16 0 -28 42 -69 65 -42 24 -95 43 -83 30z"/>
<path d="M20 2375 c-23 -28 21 -50 48 -23 9 9 7 14 -6 24 -22 17 -27 17 -42
-1z"/>
<path d="M4924 2375 c-12 -31 23 -48 45 -21 10 12 8 17 -8 25 -26 14 -31 14
-37 -4z"/>
<path d="M31 2247 c-14 -17 -4 -47 15 -47 22 0 29 29 12 46 -13 13 -16 13 -27
1z"/>
<path d="M4909 2244 c-17 -21 3 -38 36 -30 27 7 26 19 -5 36 -13 7 -21 6 -31
-6z"/>
<path d="M44 2109 c-3 -6 1 -18 10 -27 15 -15 17 -15 34 1 15 16 15 19 2 27
-20 13 -37 12 -46 -1z"/>
<path d="M4891 2106 c-9 -10 -8 -16 3 -25 20 -17 60 7 44 26 -14 17 -33 17
-47 -1z"/>
<path d="M64 1979 c-3 -6 0 -18 9 -26 12 -12 18 -13 35 -2 16 10 18 16 10 26
-13 16 -44 17 -54 2z"/>
<path d="M4861 1976 c-9 -10 -8 -16 4 -26 13 -11 19 -11 32 2 16 17 10 38 -11
38 -8 0 -19 -6 -25 -14z"/>
<path d="M100 1843 c0 -10 5 -25 10 -33 8 -13 11 -12 24 5 19 25 15 39 -12 43
-16 2 -22 -2 -22 -15z"/>
<path d="M4834 1845 c-13 -32 23 -48 47 -19 10 13 10 17 -2 25 -21 13 -39 11
-45 -6z"/>
<path d="M142 1728 c-16 -16 -15 -26 6 -37 12 -6 23 -5 37 6 20 14 20 14 1 29
-24 17 -29 17 -44 2z"/>
<path d="M4794 1719 c-3 -6 0 -17 8 -25 12 -12 17 -12 32 -1 11 8 16 19 12 25
-9 15 -43 15 -52 1z"/>
<path d="M4750 1604 c-11 -12 -10 -18 3 -31 22 -23 52 0 36 28 -12 23 -22 24
-39 3z"/>
<path d="M184 1599 c-3 -6 1 -18 10 -27 15 -15 17 -15 34 1 15 16 15 19 2 27
-20 13 -37 12 -46 -1z"/>
<path d="M240 1475 c-15 -18 -5 -35 20 -35 10 0 22 5 25 10 7 11 -12 40 -25
40 -4 0 -13 -7 -20 -15z"/>
<path d="M4694 1475 c-8 -20 4 -35 27 -35 24 0 37 29 18 41 -21 13 -39 11 -45
-6z"/>
<path d="M4640 1365 c-15 -18 -6 -45 14 -45 20 0 29 16 21 40 -8 24 -18 25
-35 5z"/>
<path d="M296 1354 c-9 -23 19 -53 35 -37 15 15 7 47 -12 51 -9 2 -19 -5 -23
-14z"/>
<path d="M4582 1258 c-15 -15 -15 -45 -1 -54 6 -3 18 0 26 9 14 13 14 18 1 36
-11 16 -17 18 -26 9z"/>
<path d="M363 1234 c-3 -8 1 -22 9 -30 13 -13 16 -13 27 0 7 9 11 23 7 31 -7
20 -35 19 -43 -1z"/>
<path d="M440 1135 c-15 -18 -6 -45 14 -45 20 0 29 16 21 40 -8 24 -18 25 -35
5z"/>
<path d="M4500 1134 c-11 -12 -10 -18 3 -31 22 -23 52 0 36 28 -12 23 -22 24
-39 3z"/>
<path d="M4432 1038 c-16 -16 -15 -45 2 -51 8 -3 20 0 26 8 16 20 -11 60 -28
43z"/>
<path d="M520 1025 c-15 -18 -7 -45 13 -45 14 0 44 28 36 33 -2 1 -11 8 -20
15 -13 10 -19 9 -29 -3z"/>
<path d="M600 925 c-15 -18 -6 -45 14 -45 20 0 29 16 21 40 -8 24 -18 25 -35
5z"/>
<path d="M4340 915 c-15 -18 -5 -35 21 -35 24 0 37 29 18 41 -19 12 -25 11
-39 -6z"/>
<path d="M2415 828 c4 -13 36 -81 72 -153 37 -71 81 -164 100 -205 35 -77 36
-75 3 49 -12 44 -20 107 -20 153 0 45 -4 78 -10 78 -5 0 -10 -25 -10 -55 0
-62 -14 -73 -25 -19 -3 20 -17 47 -30 60 -13 13 -36 44 -51 69 -28 49 -39 57
-29 23z"/>
<path d="M690 825 c-15 -18 -6 -45 14 -45 20 0 29 16 21 40 -8 24 -18 25 -35
5z"/>
<path d="M4251 821 c-8 -14 -7 -22 4 -31 22 -19 48 5 34 31 -5 10 -14 19 -19
19 -5 0 -14 -9 -19 -19z"/>
<path d="M3855 758 c-9 -35 10 -115 35 -148 31 -41 32 -18 1 81 -25 81 -30 90
-36 67z"/>
<path d="M4160 730 c-14 -26 0 -46 24 -37 20 8 21 31 2 46 -12 10 -17 8 -26
-9z"/>
<path d="M787 733 c-4 -3 -7 -15 -7 -25 0 -20 25 -24 50 -8 13 8 12 11 -5 24
-23 17 -29 19 -38 9z"/>
<path d="M882 643 c-11 -22 -5 -43 13 -43 19 0 27 17 20 40 -8 25 -21 26 -33
3z"/>
<path d="M4060 640 c-14 -26 0 -46 24 -37 20 8 21 31 2 46 -12 10 -17 8 -26
-9z"/>
<path d="M983 544 c-9 -24 11 -38 36 -25 25 14 27 27 5 35 -25 9 -34 7 -41
-10z"/>
<path d="M3957 553 c-12 -12 -7 -31 10 -37 19 -8 48 17 39 33 -8 12 -39 15
-49 4z"/>
<path d="M1089 474 c-11 -14 -10 -18 5 -29 14 -11 22 -11 37 -2 17 10 17 13 2
29 -20 22 -27 22 -44 2z"/>
<path d="M3851 477 c-15 -15 -14 -32 2 -46 16 -13 37 4 37 30 0 21 -24 31 -39
16z"/>
<path d="M1200 391 c0 -27 15 -34 40 -21 17 9 19 14 9 26 -17 21 -49 18 -49
-5z"/>
<path d="M3733 394 c-9 -24 11 -38 36 -25 25 14 27 27 5 35 -25 9 -34 7 -41
-10z"/>
<path d="M1320 335 c-15 -18 -5 -35 20 -35 10 0 22 5 25 10 7 11 -12 40 -25
40 -4 0 -13 -7 -20 -15z"/>
<path d="M3620 335 c-23 -28 21 -50 48 -23 9 9 7 14 -6 24 -22 17 -27 17 -42
-1z"/>
<path d="M1441 286 c-16 -19 -7 -46 14 -46 22 0 30 29 13 46 -13 13 -16 13
-27 0z"/>
<path d="M3502 288 c-17 -17 -15 -35 5 -42 22 -9 36 7 28 33 -7 24 -16 26 -33
9z"/>
<path d="M2678 239 c9 -23 18 -37 20 -31 3 10 -24 72 -32 72 -3 0 3 -19 12
-41z"/>
<path d="M1566 227 c-17 -13 -18 -16 -4 -36 14 -20 15 -20 31 -3 14 15 15 21
4 36 -11 14 -15 15 -31 3z"/>
<path d="M3376 224 c-4 -10 -2 -22 3 -27 14 -14 43 0 39 20 -4 24 -34 28 -42
7z"/>
<path d="M3255 179 c-10 -30 11 -48 32 -27 13 14 14 20 3 32 -17 22 -27 20
-35 -5z"/>
<path d="M1687 183 c-24 -23 12 -55 38 -33 12 10 13 16 4 26 -12 15 -31 18
-42 7z"/>
<path d="M1811 136 c-18 -21 11 -41 39 -26 17 9 19 14 9 26 -15 18 -33 18 -48
0z"/>
<path d="M3127 143 c-24 -23 12 -55 38 -33 12 10 13 16 4 26 -12 15 -31 18
-42 7z"/>
<path d="M1940 105 c-6 -8 -9 -19 -5 -25 9 -15 41 -12 54 4 10 12 8 17 -8 25
-25 14 -26 14 -41 -4z"/>
<path d="M2994 105 c-4 -9 0 -24 10 -33 15 -15 18 -15 26 -2 6 8 9 22 7 30 -3
21 -36 25 -43 5z"/>
<path d="M2872 98 c-26 -26 -10 -64 22 -52 19 7 20 24 3 47 -10 14 -15 15 -25
5z"/>
<path d="M2069 84 c-10 -12 -9 -18 3 -31 19 -18 38 -10 38 17 0 24 -25 33 -41
14z"/>
<path d="M2213 73 c-21 -8 -15 -43 6 -43 11 0 23 5 27 11 8 14 -17 38 -33 32z"/>
<path d="M2340 65 c-9 -11 -11 -22 -4 -32 13 -21 25 -21 38 -1 8 14 7 21 -5
33 -14 15 -17 15 -29 0z"/>
<path d="M2739 64 c-16 -20 2 -38 30 -29 26 8 27 21 2 34 -14 8 -22 7 -32 -5z"/>
<path d="M2600 54 c-11 -13 -10 -19 7 -36 l21 -20 12 21 c9 17 9 26 -1 37 -15
18 -23 18 -39 -2z"/>
<path d="M2467 53 c-11 -10 -8 -20 9 -38 14 -13 19 -14 25 -3 15 23 10 48 -9
48 -10 0 -22 -3 -25 -7z"/>
</g>
</svg>
