<?xml version="1.0" standalone="no"?>
<!DOCTYPE svg PUBLIC "-//W3C//DTD SVG 20010904//EN"
 "http://www.w3.org/TR/2001/REC-SVG-20010904/DTD/svg10.dtd">
<svg version="1.0" xmlns="http://www.w3.org/2000/svg"
 width="500.000000pt" height="499.000000pt" viewBox="0 0 500.000000 499.000000"
 preserveAspectRatio="xMidYMid meet">
<metadata>
Created by potrace 1.15, written by Peter Selinger 2001-2017
</metadata>
<g transform="translate(0.000000,499.000000) scale(0.100000,-0.100000)"
fill="#000000" stroke="none">
<path d="M2347 4983 c-24 -23 12 -55 38 -33 12 10 13 16 4 26 -12 15 -31 18
-42 7z"/>
<path d="M2475 4980 c-4 -6 -1 -17 5 -26 14 -16 40 -2 40 22 0 16 -36 19 -45
4z"/>
<path d="M2615 4980 c-8 -12 3 -50 14 -50 15 0 33 30 27 45 -6 17 -32 20 -41
5z"/>
<path d="M2217 4973 c-24 -23 12 -55 38 -33 12 10 13 16 4 26 -12 15 -31 18
-42 7z"/>
<path d="M2744 4969 c-3 -6 1 -18 10 -27 15 -15 17 -15 34 1 15 16 15 19 2 27
-20 13 -37 12 -46 -1z"/>
<path d="M2081 4951 c-15 -28 10 -47 38 -29 19 11 19 14 4 30 -21 23 -30 23
-42 -1z"/>
<path d="M2881 4951 c-16 -29 11 -48 39 -28 16 11 18 16 8 24 -29 22 -37 23
-47 4z"/>
<path d="M1950 4925 c-11 -13 -11 -19 4 -33 15 -15 18 -15 26 -2 22 33 -6 64
-30 35z"/>
<path d="M3010 4925 c-21 -26 3 -42 37 -26 27 12 27 13 8 27 -24 18 -30 18
-45 -1z"/>
<path d="M1820 4895 c-17 -21 6 -61 26 -44 18 15 18 45 0 52 -8 3 -20 0 -26
-8z"/>
<path d="M3140 4895 c-15 -18 -5 -35 20 -35 10 0 22 5 25 10 7 11 -12 40 -25
40 -4 0 -13 -7 -20 -15z"/>
<path d="M1690 4860 c-13 -25 -5 -40 20 -40 26 0 33 15 18 40 -16 25 -24 25
-38 0z"/>
<path d="M3270 4865 c-15 -18 -6 -45 14 -45 20 0 29 16 21 40 -8 24 -18 25
-35 5z"/>
<path d="M3397 4823 c-11 -10 -8 -41 4 -49 6 -3 18 1 27 9 13 13 13 19 2 31
-14 17 -23 20 -33 9z"/>
<path d="M1566 4811 c-9 -14 4 -41 19 -41 7 0 18 7 26 16 10 13 10 17 -2 25
-18 11 -36 11 -43 0z"/>
<path d="M1442 4763 c-13 -25 -4 -43 19 -43 25 0 35 25 19 45 -16 20 -27 19
-38 -2z"/>
<path d="M3517 4763 c-24 -23 12 -55 38 -33 12 10 13 16 4 26 -12 15 -31 18
-42 7z"/>
<path d="M3635 4700 c-8 -24 1 -40 21 -40 20 0 29 27 14 45 -17 20 -27 19 -35
-5z"/>
<path d="M1327 4703 c-11 -10 -8 -41 4 -49 6 -3 18 1 27 9 13 13 13 19 2 31
-14 17 -23 20 -33 9z"/>
<path d="M1209 4637 c-14 -31 -2 -52 24 -41 21 8 22 24 3 49 -14 19 -15 19
-27 -8z"/>
<path d="M3757 4633 c-11 -10 -8 -41 4 -48 13 -9 38 25 32 42 -5 14 -25 17
-36 6z"/>
<path d="M1091 4557 c-9 -11 -8 -17 4 -27 19 -16 47 -5 43 17 -4 23 -31 28
-47 10z"/>
<path d="M3867 4563 c-24 -23 12 -55 38 -33 12 10 13 16 4 26 -12 15 -31 18
-42 7z"/>
<path d="M3971 4489 c-11 -18 -10 -24 3 -37 15 -15 17 -15 33 1 16 16 16 18
-2 37 -20 20 -20 20 -34 -1z"/>
<path d="M987 4483 c-12 -12 -7 -31 10 -37 19 -8 48 17 39 33 -8 12 -39 15
-49 4z"/>
<path d="M881 4401 c-14 -26 12 -50 34 -31 11 9 12 17 4 31 -5 10 -14 19 -19
19 -5 0 -14 -9 -19 -19z"/>
<path d="M4077 4403 c-24 -23 12 -55 38 -33 12 10 13 16 4 26 -12 15 -31 18
-42 7z"/>
<path d="M2067 4361 c-3 -16 -9 -40 -13 -55 -5 -22 -3 -26 15 -26 13 0 21 6
21 18 0 39 29 62 77 62 42 0 45 -2 40 -22 -4 -13 -18 -79 -33 -148 -28 -133
-35 -150 -65 -150 -11 0 -19 -7 -19 -15 0 -12 16 -15 85 -15 69 0 85 3 85 15
0 8 -9 15 -20 15 -11 0 -23 6 -26 14 -4 12 35 223 52 279 8 25 50 40 75 27 13
-8 19 -21 19 -45 0 -28 4 -35 20 -35 14 0 21 9 25 38 4 20 9 45 12 55 4 16 -9
17 -170 17 l-174 0 -6 -29z"/>
<path d="M787 4313 c-24 -23 12 -55 38 -33 12 10 13 16 4 26 -12 15 -31 18
-42 7z"/>
<path d="M4173 4304 c-3 -8 1 -22 9 -30 13 -13 16 -13 27 0 7 9 11 23 7 31 -7
20 -35 19 -43 -1z"/>
<path d="M2497 4276 c-21 -8 -48 -22 -59 -33 -52 -47 -75 -154 -43 -200 34
-49 130 -50 187 -3 28 23 18 24 -46 5 -44 -13 -52 -13 -73 0 -15 10 -23 25
-23 44 0 27 4 30 73 51 39 12 80 29 90 37 20 19 23 76 4 92 -23 19 -70 22
-110 7z m67 -32 c10 -27 -21 -71 -59 -84 -59 -19 -67 -12 -45 38 25 54 90 83
104 46z"/>
<path d="M2865 4280 c-11 -4 -37 -26 -58 -49 -20 -22 -39 -41 -42 -41 -5 0 0
29 12 73 3 14 -2 17 -31 17 -44 0 -66 -9 -66 -26 0 -7 6 -11 14 -8 25 10 25
-10 2 -120 -19 -88 -20 -109 -9 -113 25 -10 40 6 47 49 4 23 18 62 31 84 24
40 78 94 95 94 17 0 17 -43 -1 -112 -24 -95 -24 -106 6 -120 19 -9 29 -8 50 6
32 21 32 35 1 29 -20 -4 -24 -2 -21 13 3 11 14 56 25 101 21 86 19 107 -11
123 -20 11 -18 11 -44 0z"/>
<path d="M3085 4277 c-42 -20 -57 -41 -53 -78 3 -28 11 -38 56 -63 83 -48 82
-110 -2 -104 -34 2 -42 7 -44 26 -2 14 -10 22 -23 22 -14 0 -19 -7 -19 -30 0
-24 5 -31 28 -36 15 -3 33 -8 40 -10 7 -2 34 1 58 7 53 14 77 43 72 91 -3 28
-11 37 -58 63 -43 24 -56 37 -58 57 -3 22 2 29 21 33 43 11 72 2 75 -22 4 -28
42 -32 42 -5 0 48 -76 75 -135 49z"/>
<path d="M690 4214 c-11 -12 -10 -18 3 -32 16 -15 18 -15 34 0 13 14 14 20 3
32 -7 9 -16 16 -20 16 -4 0 -13 -7 -20 -16z"/>
<path d="M4270 4215 c-23 -28 21 -50 48 -23 9 9 7 14 -6 24 -22 17 -27 17 -42
-1z"/>
<path d="M600 4114 c-11 -12 -10 -18 3 -32 16 -15 18 -15 34 0 13 14 14 20 3
32 -7 9 -16 16 -20 16 -4 0 -13 -7 -20 -16z"/>
<path d="M4360 4115 c-9 -11 -9 -18 3 -35 12 -18 16 -18 26 -6 13 15 6 56 -8
56 -5 0 -14 -7 -21 -15z"/>
<path d="M514 4015 c-8 -21 2 -45 20 -45 7 0 16 7 20 15 8 21 -3 45 -20 45 -8
0 -17 -7 -20 -15z"/>
<path d="M4441 4007 c-9 -11 -8 -17 4 -27 19 -16 47 -5 43 17 -4 23 -31 28
-47 10z"/>
<path d="M434 3899 c-3 -6 1 -18 10 -27 15 -15 17 -15 32 0 19 19 11 38 -16
38 -10 0 -22 -5 -26 -11z"/>
<path d="M4514 3899 c-3 -6 0 -18 9 -26 12 -12 18 -13 35 -2 16 10 18 16 10
26 -13 16 -44 17 -54 2z"/>
<path d="M4591 3791 c-14 -26 12 -50 34 -31 11 9 12 17 4 31 -5 10 -14 19 -19
19 -5 0 -14 -9 -19 -19z"/>
<path d="M364 3785 c-13 -32 23 -48 47 -19 10 13 10 17 -2 25 -21 13 -39 11
-45 -6z"/>
<path d="M3071 3746 c-15 -28 -8 -46 19 -46 10 0 22 5 26 11 7 11 -14 59 -26
59 -4 0 -12 -11 -19 -24z"/>
<path d="M2703 3740 c-13 -5 -23 -14 -23 -19 0 -6 7 -8 15 -5 8 3 17 0 20 -8
5 -11 -28 -185 -60 -326 -5 -21 -2 -23 21 -20 24 3 29 9 39 56 16 70 79 162
111 162 30 0 30 -9 3 -112 -11 -44 -18 -87 -15 -95 4 -10 18 -13 48 -11 42 3
68 28 29 28 -26 0 -26 8 -1 114 24 101 18 126 -32 126 -26 0 -42 -11 -81 -52
-29 -31 -47 -45 -44 -33 3 11 13 52 22 90 8 39 17 80 20 93 5 19 1 22 -22 21
-16 0 -38 -4 -50 -9z"/>
<path d="M1577 3734 c-14 -14 -7 -23 22 -26 l29 -3 -42 -145 c-47 -164 -50
-170 -77 -170 -10 0 -19 -7 -19 -15 0 -12 14 -15 70 -15 56 0 70 3 70 15 0 9
-9 15 -25 15 -16 0 -25 6 -25 15 0 22 61 239 69 248 5 4 11 -20 15 -55 3 -35
11 -103 17 -151 12 -87 12 -88 38 -85 23 3 36 23 103 153 42 83 77 142 78 132
0 -24 -19 -207 -25 -234 -4 -16 -13 -23 -30 -23 -16 0 -25 -6 -25 -15 0 -12
16 -15 85 -15 69 0 85 3 85 15 0 9 -9 15 -25 15 -22 0 -25 4 -25 38 1 55 26
258 34 271 4 6 16 11 27 11 10 0 19 7 19 15 0 12 -13 15 -60 15 l-60 0 -72
-145 c-40 -80 -76 -145 -80 -145 -3 0 -10 26 -14 58 -4 31 -12 95 -18 142
l-11 85 -60 3 c-34 2 -64 0 -68 -4z"/>
<path d="M300 3674 c-11 -12 -11 -18 1 -30 13 -12 18 -12 34 0 16 12 17 16 6
30 -17 20 -25 20 -41 0z"/>
<path d="M4660 3674 c-11 -12 -11 -18 1 -30 13 -12 18 -12 34 0 16 12 17 16 6
30 -17 20 -25 20 -41 0z"/>
<path d="M2144 3611 c-42 -26 -72 -66 -85 -114 -29 -110 44 -185 119 -122 36
30 42 31 42 6 0 -35 46 -41 81 -10 l24 20 -27 -4 c-34 -5 -34 -6 -3 113 14 52
25 98 25 101 0 3 -11 11 -25 17 -40 18 -116 15 -151 -7z m105 -10 c24 -16 -5
-125 -44 -167 -41 -43 -81 -47 -91 -7 -11 44 13 114 51 151 35 32 59 39 84 23z"/>
<path d="M2475 3616 c-56 -24 -105 -103 -105 -169 0 -35 29 -75 64 -87 39 -13
110 0 134 24 24 23 10 28 -31 11 -50 -21 -73 -19 -91 7 -21 30 -20 84 3 133
23 51 42 67 83 68 27 2 34 -2 36 -20 2 -15 10 -23 23 -23 29 0 27 56 -3 64
-36 9 -81 6 -113 -8z"/>
<path d="M3031 3621 c-31 -8 -38 -28 -13 -33 19 -3 19 -6 -5 -106 -20 -82 -22
-106 -13 -117 15 -17 43 -19 71 -5 25 14 25 34 -1 27 -26 -7 -26 5 5 123 14
52 25 101 25 108 0 13 -29 14 -69 3z"/>
<path d="M3211 3621 c-38 -7 -55 -31 -22 -31 26 0 26 -3 1 -114 -25 -113 -25
-116 3 -116 19 0 24 8 35 52 16 67 74 156 107 164 14 4 29 4 32 0 4 -3 -2 -41
-11 -84 -10 -42 -19 -88 -20 -101 -1 -32 25 -48 60 -36 35 13 47 41 14 32 -20
-5 -22 -3 -17 26 2 18 12 67 22 109 15 63 16 80 5 93 -29 34 -92 10 -137 -54
l-25 -36 6 53 c7 56 9 55 -53 43z"/>
<path d="M3585 3611 c-64 -40 -95 -92 -95 -160 0 -49 30 -88 74 -96 42 -8 108
9 131 35 22 24 14 25 -42 4 -53 -20 -91 -12 -99 21 -10 40 1 53 66 71 34 9 72
26 86 36 28 23 32 68 8 92 -21 22 -92 20 -129 -3z m92 -17 c14 -36 -10 -67
-66 -86 -30 -10 -56 -16 -58 -14 -2 2 2 19 10 38 26 61 99 101 114 62z"/>
<path d="M245 3556 c-19 -14 -19 -16 -2 -33 16 -16 18 -16 34 0 15 15 16 19 2
32 -13 13 -17 13 -34 1z"/>
<path d="M4716 3554 c-8 -21 11 -45 30 -37 20 7 14 47 -7 51 -9 2 -19 -5 -23
-14z"/>
<path d="M186 3433 c-4 -9 -1 -23 7 -30 12 -12 16 -12 26 0 13 17 5 47 -14 47
-7 0 -16 -8 -19 -17z"/>
<path d="M4770 3416 c0 -33 18 -43 35 -20 16 23 9 44 -16 44 -13 0 -19 -7 -19
-24z"/>
<path d="M140 3304 c-11 -12 -10 -18 3 -32 16 -15 18 -15 34 0 13 14 14 20 3
32 -7 9 -16 16 -20 16 -4 0 -13 -7 -20 -16z"/>
<path d="M4820 3305 c-15 -18 -5 -35 20 -35 10 0 22 5 25 10 7 11 -12 40 -25
40 -4 0 -13 -7 -20 -15z"/>
<path d="M102 3178 c-8 -8 -9 -15 -1 -25 15 -17 34 -17 48 1 10 12 8 17 -8 25
-24 14 -24 14 -39 -1z"/>
<path d="M4860 3175 c-22 -26 7 -46 39 -26 12 8 12 12 2 25 -17 20 -25 20 -41
1z"/>
<path d="M68 3048 c-8 -21 2 -38 22 -38 26 0 43 23 28 38 -16 16 -45 15 -50 0z"/>
<path d="M4893 3049 c-6 -6 -9 -18 -6 -25 7 -18 37 -18 52 0 10 12 8 17 -8 25
-24 14 -24 14 -38 0z"/>
<path d="M45 2920 c-8 -12 3 -50 14 -50 16 0 31 28 25 44 -7 18 -29 21 -39 6z"/>
<path d="M4914 2915 c-12 -29 15 -45 45 -26 12 8 12 12 2 25 -17 20 -40 21
-47 1z"/>
<path d="M4934 2784 c-8 -32 14 -50 34 -30 12 11 12 17 0 35 -17 28 -26 27
-34 -5z"/>
<path d="M31 2786 c-10 -12 -10 -20 0 -37 11 -22 12 -22 25 -4 17 24 17 30 0
44 -10 9 -16 8 -25 -3z"/>
<path d="M22 2668 c-16 -16 -15 -45 2 -51 15 -6 36 11 36 29 0 21 -25 35 -38
22z"/>
<path d="M4951 2661 c-15 -9 -12 -42 4 -48 6 -2 19 3 29 10 17 12 17 13 -1 29
-11 11 -24 14 -32 9z"/>
<path d="M2906 2614 c-190 -30 -202 -40 -198 -153 6 -162 31 -373 47 -398 21
-32 54 -43 124 -43 40 0 63 -5 71 -15 8 -10 13 -50 14 -108 0 -82 -3 -99 -27
-150 -49 -100 -159 -167 -251 -153 -55 9 -111 44 -204 129 -88 82 -109 86
-169 39 -60 -48 -84 -113 -93 -259 -9 -138 -31 -218 -86 -304 -130 -206 -411
-337 -614 -285 -221 57 -350 268 -266 434 44 88 91 131 194 180 51 24 95 42
96 40 2 -1 6 -16 10 -32 6 -24 2 -32 -30 -60 -117 -98 -147 -150 -148 -251 0
-49 5 -80 18 -105 31 -59 96 -119 154 -140 56 -21 166 -27 177 -10 4 6 -14 10
-48 10 -102 0 -194 52 -246 140 -66 114 -3 307 111 335 25 6 26 4 32 -49 4
-31 15 -65 25 -78 l18 -22 144 18 c285 34 373 64 400 133 7 20 -45 734 -56
770 -2 7 -22 21 -45 33 -22 11 -45 32 -50 45 -9 23 -11 24 -52 12 -37 -11 -43
-17 -46 -44 -3 -30 -4 -31 -80 -42 -42 -7 -89 -14 -104 -17 -23 -5 -27 -1 -33
25 -6 29 -9 31 -55 31 -51 0 -70 -15 -70 -56 0 -10 -12 -28 -27 -40 -36 -29
-39 -87 -15 -339 10 -110 17 -207 15 -216 -3 -9 -39 -31 -80 -49 -213 -94
-318 -309 -245 -501 17 -44 62 -88 127 -124 99 -56 155 -69 285 -69 l115 0
128 63 c103 52 140 76 192 128 131 130 176 223 195 408 25 241 73 310 176 250
24 -14 44 -30 44 -34 0 -16 83 -102 114 -118 49 -26 190 -24 241 4 57 30 100
79 131 148 24 52 29 76 32 177 l4 117 57 6 c150 17 157 39 120 415 -13 134
-15 146 -39 170 -24 24 -97 25 -234 4z m213 -37 c14 -18 31 -211 31 -364 0
-106 -2 -124 -17 -132 -25 -13 -262 -33 -300 -25 -18 4 -38 13 -44 20 -10 12
-59 353 -59 412 0 50 59 72 241 92 114 11 136 11 148 -3z m-1063 -355 c18 -11
22 -47 45 -402 24 -377 23 -383 -38 -399 -54 -14 -412 -65 -417 -60 -13 13
-48 253 -56 389 -5 85 -14 189 -20 230 -5 41 -10 94 -10 117 l0 42 67 21 c37
11 112 25 166 31 54 5 126 16 160 23 75 17 89 18 103 8z"/>
<path d="M1902 2165 c-30 -7 -96 -16 -148 -20 -130 -10 -130 -9 -109 -126 24
-141 23 -139 97 -139 116 1 232 17 281 41 41 20 47 27 47 53 -1 57 -29 189
-42 197 -18 12 -63 9 -126 -6z m88 -46 c17 -30 25 -155 11 -163 -6 -4 -69 -14
-141 -24 -95 -12 -133 -13 -141 -5 -6 6 -13 49 -16 95 l-6 85 134 15 c74 8
137 16 141 17 4 0 12 -8 18 -20z"/>
<path d="M18 2523 c-25 -6 -22 -30 3 -38 24 -8 41 9 32 32 -5 13 -6 14 -35 6z"/>
<path d="M4953 2523 c-18 -7 -16 -32 2 -39 23 -9 48 15 34 32 -12 15 -16 16
-36 7z"/>
<path d="M4952 2398 c-13 -13 -16 -41 -6 -51 8 -7 44 10 44 21 0 5 -6 16 -13
25 -10 14 -15 15 -25 5z"/>
<path d="M15 2379 c-4 -13 -2 -27 7 -36 13 -12 16 -12 28 2 10 12 11 21 4 33
-16 25 -32 25 -39 1z"/>
<path d="M25 2249 c-9 -27 14 -44 33 -25 15 15 6 46 -13 46 -8 0 -17 -10 -20
-21z"/>
<path d="M4937 2263 c-11 -10 -8 -41 3 -48 19 -12 41 15 29 36 -10 20 -21 24
-32 12z"/>
<path d="M3825 2171 c-116 -47 -417 -190 -437 -207 -24 -23 -23 -46 7 -134 14
-40 25 -79 25 -86 0 -7 -24 -26 -53 -42 -68 -39 -150 -128 -210 -230 -101
-171 -175 -188 -373 -87 -130 67 -162 74 -229 50 -79 -28 -128 -68 -206 -167
-90 -115 -155 -178 -247 -243 -107 -75 -91 -88 18 -15 84 57 153 123 230 221
74 94 117 128 189 154 72 25 115 20 195 -24 115 -64 221 -80 301 -47 54 23 75
44 174 175 107 142 97 131 155 171 60 40 74 35 99 -41 24 -69 42 -89 83 -89
30 0 363 109 459 150 91 39 95 71 30 268 -43 133 -104 252 -128 252 -7 -1 -43
-13 -82 -29z m115 -83 c32 -71 88 -266 92 -318 3 -33 2 -35 -64 -61 -156 -64
-334 -119 -393 -121 l-59 -3 -7 35 c-3 19 -23 93 -43 164 -43 149 -41 163 26
210 47 34 350 154 391 155 25 1 31 -6 57 -61z"/>
<path d="M4915 2120 c-8 -24 1 -40 21 -40 20 0 29 27 14 45 -17 20 -27 19 -35
-5z"/>
<path d="M43 2114 c-3 -8 1 -22 9 -30 13 -13 16 -13 28 0 10 13 10 19 0 31
-16 19 -29 19 -37 -1z"/>
<path d="M70 1995 c-15 -18 -7 -45 13 -45 8 0 20 6 26 13 8 11 6 18 -8 31 -16
15 -20 15 -31 1z"/>
<path d="M4879 1984 c-10 -13 -10 -17 2 -25 32 -20 61 0 39 26 -16 19 -24 19
-41 -1z"/>
<path d="M100 1864 c-11 -12 -11 -18 2 -30 16 -16 48 -9 48 10 0 13 -20 36
-31 36 -4 0 -12 -7 -19 -16z"/>
<path d="M4863 1863 c-17 -6 -16 -25 1 -48 13 -18 14 -18 26 4 10 19 9 26 -2
36 -7 7 -19 11 -25 8z"/>
<path d="M140 1734 c-11 -12 -10 -18 3 -31 22 -23 52 0 36 28 -12 23 -22 24
-39 3z"/>
<path d="M4820 1725 c-13 -16 -6 -35 14 -35 8 0 19 7 27 16 10 13 10 17 -2 25
-19 12 -25 11 -39 -6z"/>
<path d="M190 1605 c-15 -18 -5 -35 20 -35 10 0 22 5 25 10 7 11 -12 40 -25
40 -4 0 -13 -7 -20 -15z"/>
<path d="M4771 1606 c-9 -11 -9 -19 1 -35 11 -19 14 -19 30 -4 13 12 15 20 7
34 -12 23 -22 24 -38 5z"/>
<path d="M241 1486 c-13 -16 -4 -46 13 -46 13 0 36 20 36 32 0 4 -9 12 -19 17
-14 8 -22 7 -30 -3z"/>
<path d="M4719 1484 c-10 -12 -9 -18 4 -31 13 -13 19 -14 31 -3 21 17 20 27
-3 39 -14 8 -22 7 -32 -5z"/>
<path d="M295 1365 c-20 -15 -20 -15 -1 -30 11 -8 24 -15 28 -15 16 0 21 32 6
46 -12 12 -16 12 -33 -1z"/>
<path d="M4655 1360 c-7 -11 12 -50 24 -50 10 0 21 24 21 46 0 16 -36 19 -45
4z"/>
<path d="M371 1256 c-16 -19 -7 -46 14 -46 22 0 30 29 13 46 -13 13 -16 13
-27 0z"/>
<path d="M4593 1251 c-9 -14 -9 -21 0 -30 26 -26 53 -2 35 32 -11 22 -20 22
-35 -2z"/>
<path d="M439 1137 c-14 -31 -2 -52 24 -41 21 8 22 24 3 49 -14 19 -15 19 -27
-8z"/>
<path d="M4521 1137 c-8 -10 -7 -19 4 -33 13 -18 15 -18 31 -2 14 14 15 20 4
32 -15 19 -24 20 -39 3z"/>
<path d="M522 1038 c-19 -19 -15 -48 8 -48 26 0 37 27 18 46 -11 11 -16 12
-26 2z"/>
<path d="M4447 1033 c-15 -14 -7 -43 12 -43 26 0 36 17 21 35 -14 16 -23 19
-33 8z"/>
<path d="M4360 925 c-11 -13 -11 -19 3 -33 20 -19 41 -5 35 24 -4 24 -22 28
-38 9z"/>
<path d="M594 919 c-3 -6 0 -18 9 -26 12 -12 19 -13 36 -3 18 9 20 14 10 26
-14 17 -45 19 -55 3z"/>
<path d="M685 820 c-7 -11 12 -50 25 -50 12 0 23 37 15 50 -8 13 -32 13 -40 0z"/>
<path d="M4264 819 c-3 -6 0 -17 8 -25 12 -12 17 -12 32 -1 11 8 16 19 12 25
-9 15 -43 15 -52 1z"/>
<path d="M4180 735 c-15 -18 -6 -45 14 -45 20 0 29 16 21 40 -8 24 -18 25 -35
5z"/>
<path d="M787 733 c-24 -23 12 -55 38 -33 12 10 13 16 4 26 -12 15 -31 18 -42
7z"/>
<path d="M884 635 c-12 -31 23 -48 45 -21 10 12 8 17 -8 25 -26 14 -31 14 -37
-4z"/>
<path d="M4074 635 c-12 -29 15 -45 45 -26 12 8 12 12 2 25 -17 20 -40 21 -47
1z"/>
<path d="M990 560 c-15 -28 5 -57 26 -39 18 15 18 33 0 48 -12 10 -17 8 -26
-9z"/>
<path d="M3974 555 c-7 -17 2 -45 13 -45 4 0 17 8 28 16 20 15 20 15 1 30 -25
18 -35 18 -42 -1z"/>
<path d="M1094 475 c-12 -30 16 -45 46 -25 13 9 12 12 -4 25 -25 19 -35 19
-42 0z"/>
<path d="M3864 475 c-12 -31 23 -48 45 -21 10 12 8 17 -8 25 -26 14 -31 14
-37 -4z"/>
<path d="M1206 403 c-4 -9 -1 -23 7 -30 12 -12 16 -12 26 1 16 19 8 46 -13 46
-7 0 -17 -8 -20 -17z"/>
<path d="M3757 413 c-12 -11 -8 -41 6 -46 7 -3 21 1 32 9 18 14 18 14 -1 29
-22 16 -28 18 -37 8z"/>
<path d="M1321 342 c-11 -20 2 -42 25 -42 18 0 26 30 13 46 -16 19 -26 18 -38
-4z"/>
<path d="M3634 335 c-12 -29 15 -45 45 -26 12 8 12 12 2 25 -17 20 -40 21 -47
1z"/>
<path d="M1442 278 c-13 -13 2 -38 23 -38 21 0 36 25 23 38 -7 7 -17 12 -23
12 -6 0 -16 -5 -23 -12z"/>
<path d="M3515 280 c-9 -15 5 -52 18 -47 6 2 15 11 21 20 8 13 7 20 -4 27 -19
12 -27 12 -35 0z"/>
<path d="M1571 236 c-16 -19 -7 -46 14 -46 22 0 30 29 13 46 -13 13 -16 13
-27 0z"/>
<path d="M3391 221 c-16 -28 14 -51 36 -28 13 13 14 19 3 31 -17 21 -27 20
-39 -3z"/>
<path d="M1690 185 c-11 -13 -11 -19 3 -33 20 -19 41 -5 35 24 -4 24 -22 28
-38 9z"/>
<path d="M3264 175 c-13 -32 23 -48 47 -19 10 13 10 17 -2 25 -21 13 -39 11
-45 -6z"/>
<path d="M1819 144 c-10 -12 -9 -18 4 -31 13 -13 19 -14 31 -3 21 17 20 27 -3
39 -14 8 -22 7 -32 -5z"/>
<path d="M3137 137 c-3 -8 -1 -20 3 -27 7 -11 14 -12 35 -2 22 10 25 15 15 27
-15 19 -46 19 -53 2z"/>
<path d="M1950 105 c-10 -12 -10 -18 0 -31 12 -13 15 -13 28 0 15 15 10 46 -6
46 -5 0 -15 -7 -22 -15z"/>
<path d="M3004 105 c-4 -9 0 -24 10 -33 15 -15 18 -15 26 -2 6 8 9 22 7 30 -3
21 -36 25 -43 5z"/>
<path d="M2875 84 c-20 -15 -20 -15 0 -30 17 -12 21 -12 34 1 13 13 13 17 1
29 -13 13 -18 13 -35 0z"/>
<path d="M2075 80 c-7 -11 12 -50 24 -50 10 0 21 24 21 46 0 16 -36 19 -45 4z"/>
<path d="M2217 73 c-15 -14 -7 -43 12 -43 26 0 36 17 21 35 -14 16 -23 19 -33
8z"/>
<path d="M2351 66 c-16 -19 -7 -46 14 -46 22 0 30 29 13 46 -13 13 -16 13 -27
0z"/>
<path d="M2747 73 c-12 -11 -8 -40 7 -52 12 -10 17 -8 26 9 16 29 -12 65 -33
43z"/>
<path d="M2611 51 c-8 -14 -6 -22 9 -36 17 -16 19 -16 30 5 9 16 9 25 -1 36
-16 19 -26 18 -38 -5z"/>
<path d="M2476 51 c-9 -14 4 -41 19 -41 12 0 25 21 25 41 0 12 -37 12 -44 0z"/>
</g>
</svg>
