<?xml version="1.0" standalone="no"?>
<!DOCTYPE svg PUBLIC "-//W3C//DTD SVG 20010904//EN"
 "http://www.w3.org/TR/2001/REC-SVG-20010904/DTD/svg10.dtd">
<svg version="1.0" xmlns="http://www.w3.org/2000/svg"
 width="500.000000pt" height="500.000000pt" viewBox="0 0 500.000000 500.000000"
 preserveAspectRatio="xMidYMid meet">
<metadata>
Created by potrace 1.15, written by Peter Selinger 2001-2017
</metadata>
<g transform="translate(0.000000,500.000000) scale(0.100000,-0.100000)"
fill="#000000" stroke="none">
<path d="M2222 4979 c-12 -18 -11 -24 1 -36 29 -29 49 6 25 40 -12 16 -14 16
-26 -4z"/>
<path d="M2493 4993 c-16 -6 -17 -25 -1 -41 12 -12 48 1 48 18 0 13 -32 28
-47 23z"/>
<path d="M2347 4976 c-9 -23 18 -39 43 -26 17 9 19 14 9 26 -15 18 -45 18 -52
0z"/>
<path d="M2615 4980 c-7 -11 12 -50 25 -50 12 0 23 37 15 50 -8 13 -32 13 -40
0z"/>
<path d="M2092 4968 c-16 -16 -15 -45 2 -51 23 -9 39 18 26 42 -13 25 -12 25
-28 9z"/>
<path d="M2753 4964 c-9 -24 11 -38 37 -24 17 9 19 14 9 26 -15 19 -38 18 -46
-2z"/>
<path d="M2892 4958 c-27 -27 -6 -56 28 -38 25 13 26 26 2 39 -13 7 -23 6 -30
-1z"/>
<path d="M1951 4927 c-8 -10 -7 -19 4 -33 13 -18 15 -18 31 -2 14 14 15 20 4
32 -15 19 -24 20 -39 3z"/>
<path d="M3021 4931 c-16 -10 -8 -41 11 -41 7 0 19 4 27 9 12 8 12 12 2 25
-15 18 -21 19 -40 7z"/>
<path d="M1827 4903 c-15 -14 -7 -43 12 -43 24 0 33 13 25 34 -6 16 -25 21
-37 9z"/>
<path d="M3151 4897 c-13 -17 -5 -47 14 -47 19 0 28 32 12 47 -12 12 -16 12
-26 0z"/>
<path d="M1701 4866 c-16 -19 -7 -46 14 -46 22 0 30 29 13 46 -13 13 -16 13
-27 0z"/>
<path d="M3280 4855 c-13 -16 -6 -35 14 -35 8 0 19 6 25 14 10 12 8 17 -7 25
-15 8 -23 7 -32 -4z"/>
<path d="M3400 4815 c-11 -13 -11 -19 3 -33 20 -19 41 -5 35 24 -4 24 -22 28
-38 9z"/>
<path d="M1567 4806 c-3 -8 0 -20 8 -26 19 -16 59 8 43 27 -14 17 -45 17 -51
-1z"/>
<path d="M1445 4760 c-11 -17 5 -51 23 -48 23 4 23 52 0 56 -9 2 -19 -2 -23
-8z"/>
<path d="M3520 4755 c-15 -18 -5 -35 21 -35 24 0 37 29 18 41 -19 12 -25 11
-39 -6z"/>
<path d="M3646 4704 c-11 -29 -6 -44 13 -44 26 0 34 15 21 40 -13 24 -26 26
-34 4z"/>
<path d="M1324 4695 c-12 -29 15 -45 45 -26 12 8 12 12 2 25 -17 20 -40 21
-47 1z"/>
<path d="M1210 4634 c-11 -12 -10 -18 3 -31 22 -23 52 0 36 28 -12 23 -22 24
-39 3z"/>
<path d="M3760 4635 c-11 -13 -11 -19 3 -33 20 -19 41 -5 35 24 -4 24 -22 28
-38 9z"/>
<path d="M1099 4554 c-10 -13 -10 -17 2 -25 8 -5 16 -9 19 -9 3 0 11 4 19 9
12 8 12 12 2 25 -8 9 -17 16 -21 16 -4 0 -13 -7 -21 -16z"/>
<path d="M3871 4556 c-14 -17 9 -39 33 -30 20 8 21 30 0 38 -21 8 -20 8 -33
-8z"/>
<path d="M987 4476 c-9 -23 18 -39 43 -26 17 9 19 14 9 26 -15 18 -45 18 -52
0z"/>
<path d="M3974 4475 c-4 -9 0 -24 10 -33 15 -15 18 -15 26 -2 6 8 9 22 7 30
-3 21 -36 25 -43 5z"/>
<path d="M4086 4401 c-15 -16 -15 -20 -1 -31 18 -15 45 -7 45 13 0 8 -6 20
-13 26 -11 8 -18 6 -31 -8z"/>
<path d="M884 4395 c-12 -31 23 -48 45 -21 10 12 8 17 -8 25 -26 14 -31 14
-37 -4z"/>
<path d="M784 4305 c-3 -8 1 -24 10 -36 l15 -22 12 27 c11 23 10 29 -2 37 -20
12 -29 11 -35 -6z"/>
<path d="M4181 4307 c-8 -10 -7 -19 4 -33 13 -18 15 -18 31 -2 14 14 15 20 4
32 -15 19 -24 20 -39 3z"/>
<path d="M694 4219 c-3 -6 -3 -22 1 -36 6 -24 7 -24 25 -8 10 9 16 23 14 30
-7 18 -32 27 -40 14z"/>
<path d="M4281 4216 c-18 -22 4 -62 25 -45 18 15 18 33 0 48 -10 9 -16 8 -25
-3z"/>
<path d="M2389 4136 c-214 -46 -153 -213 141 -386 132 -78 310 -137 497 -165
157 -23 279 2 327 67 29 41 10 92 -65 173 -137 146 -394 267 -664 310 -106 17
-160 18 -236 1z m291 -112 c222 -45 460 -162 573 -283 56 -60 59 -91 14 -125
-25 -18 -41 -21 -135 -20 -167 2 -326 44 -507 134 -232 116 -342 227 -282 287
34 34 186 37 337 7z"/>
<path d="M1537 4125 c-174 -24 -435 -102 -567 -170 -106 -54 -203 -140 -216
-189 -8 -33 15 -76 52 -98 55 -32 212 -49 344 -38 152 14 226 26 337 55 216
57 412 147 498 229 57 54 74 92 59 135 -28 78 -247 111 -507 76z m425 -102
c45 -26 47 -53 4 -100 -113 -126 -583 -272 -886 -275 -171 -2 -259 41 -216
107 27 41 157 120 269 163 243 95 441 133 664 128 108 -3 138 -7 165 -23z"/>
<path d="M604 4116 c-18 -14 -18 -16 -2 -32 14 -15 18 -15 37 -2 20 14 20 15
3 31 -16 15 -21 15 -38 3z"/>
<path d="M4371 4116 c-18 -22 4 -62 25 -45 18 15 18 33 0 48 -10 9 -16 8 -25
-3z"/>
<path d="M4450 4015 c-11 -13 -11 -19 3 -33 20 -19 41 -5 35 24 -4 24 -22 28
-38 9z"/>
<path d="M517 4013 c-24 -23 12 -55 38 -33 12 10 13 16 4 26 -12 15 -31 18
-42 7z"/>
<path d="M4530 3905 c-11 -13 -11 -19 3 -33 20 -19 41 -5 35 24 -4 24 -22 28
-38 9z"/>
<path d="M437 3897 c-3 -8 -1 -20 3 -27 7 -11 14 -12 35 -2 22 10 25 15 15 27
-15 19 -46 19 -53 2z"/>
<path d="M371 3796 c-16 -19 -7 -46 14 -46 22 0 30 29 13 46 -13 13 -16 13
-27 0z"/>
<path d="M4601 3786 c-18 -21 11 -41 39 -26 17 9 19 14 9 26 -15 18 -33 18
-48 0z"/>
<path d="M1936 3689 c-93 -12 -213 -43 -268 -68 -110 -52 -151 -138 -95 -200
51 -55 168 -108 301 -137 102 -22 333 -29 452 -14 218 27 384 114 384 201 0
39 -61 99 -140 139 -140 71 -423 106 -634 79z m469 -119 c160 -35 249 -88 243
-144 -11 -106 -392 -178 -700 -131 -161 24 -293 80 -318 134 -31 67 97 135
301 160 122 16 359 6 474 -19z"/>
<path d="M300 3674 c-11 -12 -11 -18 1 -30 13 -12 18 -12 34 0 16 12 17 16 6
30 -17 20 -25 20 -41 0z"/>
<path d="M4670 3675 c-9 -11 -11 -22 -4 -32 13 -21 25 -21 38 -1 8 14 7 21 -5
33 -14 15 -17 15 -29 0z"/>
<path d="M3655 3571 c-53 -27 -95 -92 -95 -146 0 -23 4 -45 10 -51 12 -12 13
-39 4 -125 -6 -59 -4 -73 19 -120 15 -30 32 -62 39 -73 16 -22 4 -32 -149
-126 l-105 -65 -54 -95 -54 -95 21 -16 c21 -16 22 -18 9 -130 -16 -141 -5
-213 47 -332 36 -79 37 -87 42 -232 l6 -150 42 -23 c155 -85 493 -59 647 51
l29 20 -7 196 -7 196 38 80 c37 78 38 84 42 208 1 70 6 127 10 127 3 0 12 4
20 9 11 7 9 15 -12 42 -14 19 -34 54 -45 79 -27 61 -64 94 -152 132 -109 48
-157 77 -169 105 -15 34 -14 51 8 82 11 15 26 53 35 85 15 60 27 76 57 76 32
0 41 27 37 103 -4 90 -35 145 -101 178 -62 32 -160 36 -212 10z m156 -32 c33
-7 64 -22 86 -43 29 -26 35 -41 43 -96 9 -66 2 -90 -27 -90 -8 0 -22 13 -31
30 -9 16 -24 33 -32 36 -28 12 -165 34 -213 34 -55 0 -66 14 -43 58 23 44 84
79 143 81 12 1 45 -4 74 -10z m-17 -179 c44 -10 56 -23 56 -63 0 -20 -7 -30
-26 -37 -39 -15 -129 -12 -174 6 -32 13 -40 21 -40 42 0 44 26 62 89 62 31 0
74 -5 95 -10z m-49 -135 l100 -3 -3 -29 c-9 -68 -83 -132 -154 -133 -38 0 -79
63 -86 132 -5 50 -4 51 19 43 13 -4 69 -9 124 -10z m68 -190 c9 -20 17 -41 17
-48 0 -7 -25 -37 -55 -67 l-54 -54 -60 55 c-32 30 -59 57 -60 60 0 4 13 12 29
19 17 7 30 16 30 21 0 5 10 9 23 10 12 0 40 9 62 19 53 24 49 25 68 -15z m341
-421 c11 -30 6 -131 -10 -185 -34 -114 -107 -224 -185 -280 l-28 -20 -35 23
c-20 13 -36 26 -36 29 0 3 25 39 56 80 81 108 97 143 100 219 2 36 3 68 3 71
1 10 104 79 117 79 7 0 15 -7 18 -16z m-724 -39 c26 -19 50 -41 53 -48 3 -7
-6 -38 -19 -67 -33 -77 -31 -124 10 -217 37 -83 36 -101 -8 -127 -36 -22 -104
90 -133 217 -14 60 -14 85 -5 147 12 87 27 130 43 130 6 0 33 -16 59 -35z
m435 -437 c19 -13 35 -31 35 -40 0 -16 -180 -182 -188 -173 -2 2 10 23 29 47
l33 43 -42 -40 c-27 -25 -42 -34 -42 -24 0 9 11 26 25 39 14 13 25 28 25 34 0
5 -13 -3 -30 -19 -42 -40 -51 -22 -10 20 42 43 33 46 -15 4 -23 -20 -35 -26
-35 -17 0 8 9 23 20 33 27 25 25 33 -6 27 -44 -8 -20 15 54 53 80 40 101 42
147 13z m-245 -30 c0 -4 -9 -8 -20 -8 -11 0 -20 -3 -20 -8 0 -4 21 -41 46 -81
51 -82 53 -106 3 -37 -48 68 -56 56 -9 -14 22 -33 37 -60 32 -60 -5 0 -25 22
-43 50 -19 27 -38 50 -42 50 -9 0 -5 -8 36 -68 41 -62 27 -63 -18 -2 -21 28
-39 49 -42 46 -2 -2 9 -23 26 -47 33 -45 41 -70 16 -49 -17 14 -115 176 -115
190 0 4 15 21 34 38 32 28 37 29 75 19 23 -6 41 -15 41 -19z"/>
<path d="M3650 3356 c0 -2 14 -6 30 -8 17 -3 30 -1 30 4 0 4 -13 8 -30 8 -16
0 -30 -2 -30 -4z"/>
<path d="M3775 3340 c11 -5 29 -8 40 -8 16 0 15 2 -5 8 -34 11 -60 11 -35 0z"/>
<path d="M3643 3325 c-23 -17 -14 -26 29 -28 22 -1 33 3 33 12 0 21 -40 32
-62 16z"/>
<path d="M3765 3300 c-15 -24 21 -39 59 -24 13 5 14 9 5 20 -13 16 -55 19 -64
4z"/>
<path d="M235 3550 c-7 -12 12 -50 25 -50 13 0 32 38 25 50 -3 6 -15 10 -25
10 -10 0 -22 -4 -25 -10z"/>
<path d="M4724 3549 c-3 -6 1 -18 10 -27 15 -15 17 -15 32 0 19 19 11 38 -16
38 -10 0 -22 -5 -26 -11z"/>
<path d="M190 3425 c-10 -12 -10 -18 0 -31 12 -13 15 -13 28 0 15 15 10 46 -6
46 -5 0 -15 -7 -22 -15z"/>
<path d="M4777 3427 c-3 -8 -1 -20 3 -27 7 -11 13 -12 37 -1 27 12 27 13 8 27
-24 18 -41 18 -48 1z"/>
<path d="M153 3313 c-17 -6 -17 -39 0 -46 13 -5 47 14 47 26 0 10 -34 25 -47
20z"/>
<path d="M4830 3305 c-19 -22 5 -48 31 -34 10 5 19 14 19 19 0 5 -9 14 -19 19
-14 8 -22 7 -31 -4z"/>
<path d="M103 3181 c-9 -14 -9 -21 0 -30 27 -27 61 4 37 34 -16 20 -23 19 -37
-4z"/>
<path d="M4873 3183 c-17 -6 -17 -38 0 -51 20 -17 44 25 25 43 -7 7 -19 11
-25 8z"/>
<path d="M77 3053 c-12 -11 -7 -41 7 -46 21 -8 49 26 34 41 -13 13 -31 16 -41
5z"/>
<path d="M1382 3043 c-5 -10 -12 -30 -16 -45 -9 -39 18 -37 34 2 13 31 37 44
64 34 20 -8 20 -6 -6 -131 -19 -90 -25 -106 -45 -114 -38 -14 -27 -19 42 -19
63 0 86 12 44 23 -12 3 -19 11 -17 19 3 7 16 61 28 121 12 59 26 107 31 107 4
0 19 -4 33 -10 19 -7 26 -17 26 -36 0 -37 23 -25 31 17 4 18 5 37 3 41 -3 5
-59 8 -124 8 -104 0 -120 -2 -128 -17z"/>
<path d="M1667 3053 c-4 -3 0 -11 8 -17 14 -10 13 -25 -10 -128 -14 -65 -25
-122 -25 -128 0 -14 30 -12 34 3 25 87 68 157 97 157 11 0 11 -19 -7 -126 -5
-33 -3 -42 11 -47 9 -4 26 -2 38 5 19 11 20 13 5 16 -22 4 -22 14 -2 92 19 74
14 90 -25 90 -21 0 -38 -10 -60 -35 -35 -41 -35 -42 -16 45 8 36 14 68 15 73
0 9 -54 10 -63 0z"/>
<path d="M4900 3044 c-11 -12 -10 -18 3 -32 16 -15 18 -15 34 0 13 14 14 20 3
32 -7 9 -16 16 -20 16 -4 0 -13 -7 -20 -16z"/>
<path d="M2407 3001 c-10 -17 -26 -33 -37 -36 -23 -7 -27 -25 -5 -25 19 0 19
-3 -1 -86 -18 -77 -9 -97 39 -87 31 6 37 23 7 23 -25 0 -25 -6 5 126 3 13 16
24 31 28 25 7 25 21 1 21 -7 0 -11 14 -11 33 2 40 -7 41 -29 3z"/>
<path d="M1976 2969 c-55 -15 -96 -72 -96 -132 0 -35 19 -60 56 -71 25 -8 96
16 102 33 3 10 0 10 -16 2 -47 -25 -113 -3 -99 33 3 8 30 22 59 31 65 22 78
31 78 60 0 37 -37 57 -84 44z m44 -33 c0 -8 -8 -23 -17 -34 -21 -25 -73 -40
-73 -22 0 16 20 53 34 62 19 13 56 9 56 -6z"/>
<path d="M2763 2968 c-90 -24 -125 -169 -46 -199 31 -12 104 7 111 29 3 11 0
12 -16 3 -34 -18 -80 -14 -92 9 -15 28 -8 36 53 55 63 20 89 47 78 78 -10 26
-45 36 -88 25z m47 -37 c0 -23 -27 -48 -62 -56 -21 -5 -28 -3 -28 7 0 21 30
58 54 68 26 9 36 4 36 -19z"/>
<path d="M2148 2947 c-29 -23 -58 -82 -58 -117 0 -21 41 -70 59 -70 5 0 23 12
40 26 30 25 31 25 31 5 0 -28 22 -36 52 -19 23 12 23 13 2 16 l-21 3 20 81
c23 92 20 98 -53 98 -32 0 -53 -7 -72 -23z m98 -1 c9 -24 -16 -96 -46 -129
l-29 -32 -22 22 c-21 21 -22 25 -9 63 23 71 90 118 106 76z"/>
<path d="M2506 2961 c-4 -5 -1 -11 6 -13 9 -3 8 -24 -6 -87 -9 -46 -15 -85
-12 -88 13 -13 32 8 43 48 14 55 78 131 92 110 11 -18 31 -5 31 20 0 34 -44
24 -78 -18 l-31 -38 9 38 c8 36 7 37 -20 37 -16 0 -31 -4 -34 -9z"/>
<path d="M51 2926 c-16 -19 -7 -46 14 -46 22 0 30 29 13 46 -13 13 -16 13 -27
0z"/>
<path d="M4924 2915 c-7 -17 2 -45 13 -45 4 0 17 7 27 15 20 15 20 15 0 30
-24 18 -33 19 -40 0z"/>
<path d="M24 2779 c-3 -6 1 -18 10 -27 15 -15 17 -15 32 0 19 19 11 38 -16 38
-10 0 -22 -5 -26 -11z"/>
<path d="M4940 2771 c0 -27 15 -34 40 -21 17 9 19 14 9 26 -17 21 -49 18 -49
-5z"/>
<path d="M4957 2663 c-11 -10 -8 -41 3 -48 19 -12 41 15 29 36 -10 20 -21 24
-32 12z"/>
<path d="M13 2644 c-10 -26 13 -39 44 -25 27 12 27 13 8 27 -25 18 -44 18 -52
-2z"/>
<path d="M1665 2560 l-40 -6 27 -12 c15 -6 26 -17 23 -24 -2 -7 -13 -56 -25
-108 -18 -82 -25 -98 -48 -113 -27 -16 -25 -16 64 -17 129 0 176 18 189 72 6
21 1 33 -21 54 -17 18 -23 29 -15 32 7 2 21 13 32 25 64 69 -38 122 -186 97z
m140 -36 c34 -34 -5 -84 -65 -84 l-37 0 10 50 c9 48 11 50 43 50 18 0 40 -7
49 -16z m-24 -114 c25 -14 25 -64 -1 -90 -14 -14 -33 -20 -64 -20 -49 0 -47
-7 -25 83 9 33 13 37 40 37 17 0 39 -5 50 -10z"/>
<path d="M1965 2560 c-4 -7 -3 -16 3 -22 14 -14 45 -2 40 15 -6 16 -34 21 -43
7z"/>
<path d="M2410 2564 c0 -4 7 -12 15 -18 12 -10 11 -26 -10 -121 -30 -133 -30
-148 -8 -143 11 2 20 17 25 42 11 53 63 126 90 126 12 0 10 -52 -6 -102 -15
-50 -7 -78 23 -78 10 0 25 8 32 17 12 15 12 16 -3 10 -22 -8 -23 14 -3 98 10
42 11 63 3 72 -19 23 -55 14 -87 -22 -34 -39 -39 -31 -22 35 24 94 25 90 -14
90 -19 0 -35 -3 -35 -6z"/>
<path d="M2302 2515 c-7 -14 -23 -30 -37 -37 -28 -12 -33 -28 -10 -28 19 0 19
-9 0 -89 -14 -56 -14 -67 -1 -79 9 -9 23 -12 40 -8 31 8 35 26 6 26 -24 0 -24
-5 -4 81 14 62 18 69 40 69 13 0 24 5 24 10 0 6 -10 10 -21 10 -19 0 -21 4
-16 35 7 41 -5 46 -21 10z"/>
<path d="M4963 2523 c-17 -6 -16 -38 1 -52 21 -18 44 25 24 44 -7 7 -19 11
-25 8z"/>
<path d="M4 2509 c-8 -13 15 -30 36 -26 8 1 16 10 18 20 3 12 -3 17 -22 17
-14 0 -28 -5 -32 -11z"/>
<path d="M1920 2465 c-10 -12 -10 -15 4 -15 20 0 20 -5 0 -85 -9 -36 -14 -71
-10 -80 7 -19 36 -19 62 0 19 14 18 14 -3 15 -28 0 -27 -3 -3 90 11 41 20 78
20 83 0 13 -57 7 -70 -8z"/>
<path d="M2054 2469 c-3 -6 -1 -15 6 -19 10 -6 11 -21 1 -72 -7 -34 -14 -71
-17 -80 -4 -13 0 -18 14 -18 15 0 22 11 30 43 17 64 92 160 92 117 0 -5 7 -10
15 -10 9 0 15 9 15 25 0 41 -43 34 -76 -12 l-26 -38 5 38 c6 35 5 37 -23 37
-16 0 -32 -5 -36 -11z"/>
<path d="M4951 2381 c-16 -28 14 -51 36 -28 13 13 14 19 3 31 -17 21 -27 20
-39 -3z"/>
<path d="M13 2374 c-3 -8 1 -22 9 -30 13 -13 16 -13 27 0 7 9 11 23 7 31 -7
20 -35 19 -43 -1z"/>
<path d="M4941 2252 c-7 -13 -6 -23 1 -30 28 -28 56 0 33 31 -16 22 -22 21
-34 -1z"/>
<path d="M30 2245 c-10 -12 -10 -18 0 -31 12 -13 15 -13 28 0 15 15 10 46 -6
46 -5 0 -15 -7 -22 -15z"/>
<path d="M49 2114 c-15 -18 0 -38 27 -32 25 5 28 25 6 37 -15 8 -23 7 -33 -5z"/>
<path d="M4920 2101 c0 -31 24 -43 38 -20 15 24 8 39 -19 39 -12 0 -19 -7 -19
-19z"/>
<path d="M70 1985 c-10 -12 -10 -19 1 -32 7 -10 15 -20 16 -22 4 -5 32 31 33
41 0 4 -9 12 -19 17 -14 8 -22 7 -31 -4z"/>
<path d="M4896 1983 c-4 -9 -1 -23 7 -30 12 -12 16 -12 26 0 13 17 5 47 -14
47 -7 0 -16 -8 -19 -17z"/>
<path d="M856 1944 c-11 -11 -16 -34 -16 -75 0 -107 -33 -99 388 -99 279 0
372 -3 384 -12 11 -9 17 -34 20 -75 6 -93 6 -93 179 -93 141 0 149 -1 163 -22
22 -32 24 -454 2 -484 -13 -17 -31 -19 -198 -24 -180 -5 -183 -5 -186 -27 -6
-41 -38 -53 -142 -53 -102 0 -120 -7 -120 -46 0 -35 -11 -54 -30 -54 -23 0
-50 -31 -50 -58 0 -31 27 -52 66 -52 29 0 37 5 51 35 l17 35 673 0 c647 0 673
-1 673 -18 0 -53 86 -73 116 -27 20 31 11 61 -26 80 -19 10 -31 26 -35 47 -11
49 -23 58 -75 58 -79 0 -110 9 -110 34 0 42 -15 46 -188 46 -93 0 -172 4 -183
10 -18 10 -19 24 -19 250 0 204 2 241 16 254 12 13 39 16 128 16 79 0 117 4
124 13 5 6 12 40 14 75 2 34 10 68 17 75 9 9 107 13 381 17 202 3 372 8 375
12 14 13 10 145 -4 162 -12 15 -125 16 -1202 16 -1066 0 -1189 -2 -1203 -16z"/>
<path d="M112 1868 c-21 -21 -15 -50 10 -46 27 4 32 18 16 41 -11 14 -16 15
-26 5z"/>
<path d="M4870 1855 c-9 -11 -11 -22 -4 -32 13 -21 25 -21 38 -1 8 14 7 21 -5
33 -14 15 -17 15 -29 0z"/>
<path d="M3946 1753 c-38 -13 -97 -27 -131 -30 -35 -3 -69 -9 -75 -13 -9 -5
-6 -97 11 -378 22 -345 25 -371 42 -376 32 -8 66 12 82 46 31 69 165 690 165
766 0 16 -11 14 -94 -15z"/>
<path d="M3440 1726 c0 -45 83 -403 120 -517 55 -170 85 -232 122 -253 27 -17
31 -17 46 -3 14 14 14 39 3 229 -14 266 -32 512 -37 517 -2 2 -60 13 -129 25
l-125 22 0 -20z"/>
<path d="M143 1729 c-26 -26 12 -51 46 -30 12 8 12 12 2 25 -16 19 -33 20 -48
5z"/>
<path d="M4825 1720 c-4 -7 -3 -16 3 -22 14 -14 47 -6 47 12 0 18 -40 26 -50
10z"/>
<path d="M190 1605 c-11 -13 -11 -19 3 -33 20 -19 41 -5 35 24 -4 24 -22 28
-38 9z"/>
<path d="M4781 1596 c-18 -21 11 -41 39 -26 17 9 19 14 9 26 -15 18 -33 18
-48 0z"/>
<path d="M4731 1486 c-16 -19 -7 -46 14 -46 22 0 30 29 13 46 -13 13 -16 13
-27 0z"/>
<path d="M239 1474 c-11 -14 -10 -18 6 -30 16 -12 21 -12 37 3 14 12 15 19 7
30 -15 18 -34 17 -50 -3z"/>
<path d="M301 1357 c-8 -10 -7 -19 4 -33 15 -19 15 -19 30 0 11 14 12 23 4 33
-6 7 -15 13 -19 13 -4 0 -13 -6 -19 -13z"/>
<path d="M4670 1355 c-10 -12 -10 -18 0 -30 7 -8 16 -15 20 -15 12 0 20 28 14
45 -4 8 -10 15 -14 15 -4 0 -13 -7 -20 -15z"/>
<path d="M363 1234 c-3 -8 1 -22 9 -30 13 -13 16 -13 27 0 7 9 11 23 7 31 -7
20 -35 19 -43 -1z"/>
<path d="M4601 1241 c-10 -7 -11 -13 -1 -30 15 -28 34 -22 38 12 3 28 -10 35
-37 18z"/>
<path d="M443 1129 c-6 -6 -9 -18 -6 -25 7 -18 37 -18 52 0 10 12 8 17 -8 25
-24 14 -24 14 -38 0z"/>
<path d="M4530 1125 c-11 -13 -11 -19 4 -33 15 -15 18 -15 26 -2 22 33 -6 64
-30 35z"/>
<path d="M514 1015 c-10 -24 12 -42 34 -29 24 16 21 38 -6 42 -13 2 -25 -3
-28 -13z"/>
<path d="M4447 1016 c-3 -8 0 -19 7 -25 18 -15 48 -3 44 18 -4 21 -44 27 -51
7z"/>
<path d="M600 915 c-10 -13 -10 -19 5 -35 18 -20 18 -20 32 0 12 17 12 24 3
35 -16 19 -24 19 -40 0z"/>
<path d="M4372 918 c-28 -28 1 -57 34 -33 15 11 16 15 5 29 -16 19 -23 20 -39
4z"/>
<path d="M697 823 c-4 -3 -7 -15 -7 -25 0 -20 26 -24 50 -8 13 9 12 12 -4 25
-22 17 -29 18 -39 8z"/>
<path d="M4280 815 c-22 -26 7 -46 39 -26 12 8 12 12 2 25 -17 20 -25 20 -41
1z"/>
<path d="M789 727 c-11 -24 -11 -30 1 -37 9 -5 19 -5 27 2 16 13 16 20 -1 43
-14 19 -15 19 -27 -8z"/>
<path d="M4180 713 c0 -10 5 -25 10 -33 9 -13 12 -12 25 5 19 24 15 39 -13 43
-16 2 -22 -2 -22 -15z"/>
<path d="M4093 643 c-15 -5 -17 -39 -3 -48 11 -7 50 11 50 23 0 12 -34 29 -47
25z"/>
<path d="M885 630 c-8 -12 3 -50 14 -50 15 0 33 30 27 45 -6 17 -32 20 -41 5z"/>
<path d="M3980 554 c-11 -12 -10 -18 3 -32 21 -21 42 -3 32 27 -8 25 -18 27
-35 5z"/>
<path d="M992 548 c-8 -8 -9 -15 -1 -25 15 -17 34 -17 48 1 10 12 8 17 -8 25
-24 14 -24 14 -39 -1z"/>
<path d="M1093 464 c-8 -22 11 -37 36 -29 25 8 28 30 5 39 -25 9 -34 7 -41
-10z"/>
<path d="M3866 463 c-4 -9 0 -23 9 -32 15 -15 17 -14 30 2 7 11 11 25 8 33 -7
19 -39 18 -47 -3z"/>
<path d="M1210 401 c-18 -35 13 -58 39 -28 8 11 6 18 -8 31 -19 17 -20 17 -31
-3z"/>
<path d="M3760 395 c-6 -8 -9 -19 -5 -25 9 -15 41 -12 54 4 10 12 8 17 -8 25
-25 14 -26 14 -41 -4z"/>
<path d="M1324 329 c-3 -6 1 -18 10 -27 15 -15 17 -15 32 0 19 19 11 38 -16
38 -10 0 -22 -5 -26 -11z"/>
<path d="M3645 330 c-8 -13 3 -50 15 -50 13 0 32 39 25 50 -8 13 -32 13 -40 0z"/>
<path d="M1452 278 c-16 -16 -15 -33 1 -47 11 -8 18 -6 31 8 16 17 16 20 1 35
-20 19 -18 19 -33 4z"/>
<path d="M3520 274 c-11 -12 -11 -18 2 -30 13 -13 20 -14 38 -4 21 11 21 12 4
31 -21 23 -28 24 -44 3z"/>
<path d="M1571 217 c-8 -10 -7 -18 2 -31 12 -16 14 -16 26 -2 14 16 9 46 -7
46 -5 0 -15 -6 -21 -13z"/>
<path d="M3394 219 c-3 -6 1 -18 10 -27 15 -15 17 -15 34 1 15 16 15 19 2 27
-20 13 -37 12 -46 -1z"/>
<path d="M1702 188 c-16 -16 -15 -33 2 -47 21 -18 41 11 26 38 -13 25 -12 25
-28 9z"/>
<path d="M3276 183 c-11 -11 -6 -40 8 -52 12 -10 17 -8 25 8 6 11 11 22 11 25
0 9 -37 26 -44 19z"/>
<path d="M1821 131 c-8 -14 -6 -22 7 -34 16 -15 19 -15 30 4 10 16 10 24 1 35
-16 19 -26 18 -38 -5z"/>
<path d="M3152 138 c-16 -16 -15 -33 2 -47 22 -18 44 25 24 45 -11 11 -16 12
-26 2z"/>
<path d="M1955 110 c-18 -19 -18 -22 -2 -37 16 -16 18 -16 33 -1 15 14 15 19
2 37 l-15 21 -18 -20z"/>
<path d="M3020 105 c-15 -18 -7 -45 13 -45 14 0 44 28 36 33 -2 1 -11 8 -20
15 -13 10 -19 9 -29 -3z"/>
<path d="M2087 83 c-11 -10 -8 -41 4 -49 6 -3 18 1 27 9 13 13 13 19 2 31 -14
17 -23 20 -33 9z"/>
<path d="M2884 75 c-12 -31 23 -48 45 -21 10 12 8 17 -8 25 -26 14 -31 14 -37
-4z"/>
<path d="M2751 61 c-8 -14 -7 -22 4 -31 22 -19 48 5 34 31 -12 24 -26 24 -38
0z"/>
<path d="M2217 63 c-24 -23 12 -55 38 -33 12 10 13 16 4 26 -12 15 -31 18 -42
7z"/>
<path d="M2353 49 c-6 -6 -9 -18 -6 -25 7 -18 37 -18 52 0 10 12 8 17 -8 25
-24 14 -24 14 -38 0z"/>
<path d="M2482 48 c-14 -14 2 -48 22 -48 18 0 29 42 13 52 -16 10 -21 10 -35
-4z"/>
<path d="M2617 47 c-3 -8 -1 -20 3 -27 7 -11 14 -12 36 -2 26 12 26 13 8 27
-24 18 -40 19 -47 2z"/>
</g>
</svg>
