<?xml version="1.0" standalone="no"?>
<!DOCTYPE svg PUBLIC "-//W3C//DTD SVG 20010904//EN"
 "http://www.w3.org/TR/2001/REC-SVG-20010904/DTD/svg10.dtd">
<svg version="1.0" xmlns="http://www.w3.org/2000/svg"
 width="500.000000pt" height="500.000000pt" viewBox="0 0 500.000000 500.000000"
 preserveAspectRatio="xMidYMid meet">
<metadata>
Created by potrace 1.15, written by Peter Selinger 2001-2017
</metadata>
<g transform="translate(0.000000,500.000000) scale(0.100000,-0.100000)"
fill="#000000" stroke="none">
<path d="M2480 4975 c-12 -23 -12 -28 0 -35 32 -20 51 11 27 43 -12 17 -14 17
-27 -8z"/>
<path d="M2351 4976 c-16 -19 -7 -46 14 -46 22 0 30 29 13 46 -13 13 -16 13
-27 0z"/>
<path d="M2617 4973 c-11 -11 -8 -40 6 -51 19 -16 43 24 26 44 -13 15 -22 18
-32 7z"/>
<path d="M2214 4955 c-12 -29 15 -45 46 -25 13 8 12 11 -5 24 -25 19 -34 20
-41 1z"/>
<path d="M2750 4955 c-15 -18 -5 -35 20 -35 10 0 22 5 25 10 7 11 -12 40 -25
40 -4 0 -13 -7 -20 -15z"/>
<path d="M2083 4939 c-6 -6 -9 -18 -6 -25 7 -18 37 -18 52 0 10 12 8 17 -8 25
-24 14 -24 14 -38 0z"/>
<path d="M2876 4933 c-9 -22 7 -36 33 -28 25 8 28 30 5 39 -24 9 -31 7 -38
-11z"/>
<path d="M1945 4910 c-3 -5 -1 -19 6 -31 10 -19 12 -20 26 -6 9 9 13 23 10 31
-7 18 -32 21 -42 6z"/>
<path d="M3004 4909 c-3 -6 0 -18 9 -26 12 -12 18 -13 35 -2 16 10 18 16 10
26 -13 16 -44 17 -54 2z"/>
<path d="M1821 4888 c-11 -17 -10 -23 2 -35 18 -18 37 -9 37 16 0 31 -24 43
-39 19z"/>
<path d="M3137 4876 c-3 -8 0 -20 8 -26 19 -16 59 8 43 27 -14 17 -45 17 -51
-1z"/>
<path d="M1690 4844 c-11 -12 -10 -18 3 -32 16 -15 18 -15 34 0 13 14 14 20 3
32 -7 9 -16 16 -20 16 -4 0 -13 -7 -20 -16z"/>
<path d="M3263 4834 c-3 -8 1 -22 9 -30 13 -13 16 -13 27 0 7 9 11 23 7 31 -7
20 -35 19 -43 -1z"/>
<path d="M1564 4795 c-8 -20 4 -35 26 -35 25 0 35 17 20 35 -16 19 -39 19 -46
0z"/>
<path d="M3391 4791 c-16 -29 15 -43 49 -21 13 8 12 11 -5 24 -26 20 -32 20
-44 -3z"/>
<path d="M1447 4745 c-14 -13 -14 -20 -4 -36 13 -22 26 -21 41 4 8 12 7 21 -5
33 -15 14 -18 14 -32 -1z"/>
<path d="M3522 4748 c-24 -24 -9 -54 22 -42 19 7 21 28 3 43 -10 8 -17 7 -25
-1z"/>
<path d="M1320 4671 c0 -25 24 -33 47 -16 16 13 16 16 3 25 -25 16 -50 12 -50
-9z"/>
<path d="M3630 4671 c0 -25 24 -33 47 -16 16 13 16 16 3 25 -25 16 -50 12 -50
-9z"/>
<path d="M3751 4621 c-8 -14 -7 -22 5 -32 20 -16 38 2 29 30 -8 26 -21 27 -34
2z"/>
<path d="M1204 4616 c-3 -8 0 -25 7 -37 11 -22 12 -22 25 -4 18 25 18 41 -2
49 -22 8 -24 8 -30 -8z"/>
<path d="M1099 4544 c-16 -20 2 -38 30 -29 26 8 27 21 2 34 -14 8 -22 7 -32
-5z"/>
<path d="M3861 4546 c-14 -17 11 -41 34 -32 20 7 19 32 -1 40 -21 8 -20 8 -33
-8z"/>
<path d="M985 4470 c-8 -24 1 -40 21 -40 20 0 29 27 14 45 -17 20 -27 19 -35
-5z"/>
<path d="M3966 4471 c-10 -15 5 -41 23 -41 29 0 43 21 23 36 -20 16 -39 18
-46 5z"/>
<path d="M880 4370 c0 -16 5 -21 23 -18 12 2 22 10 22 18 0 8 -10 16 -22 18
-18 3 -23 -2 -23 -18z"/>
<path d="M4070 4375 c0 -21 27 -30 45 -15 19 16 10 30 -21 30 -15 0 -24 -6
-24 -15z"/>
<path d="M1613 4343 c-20 -8 -15 -23 7 -23 11 0 20 -4 20 -9 0 -5 -16 -84 -35
-175 -19 -92 -35 -169 -35 -171 0 -3 11 -5 25 -5 19 0 26 7 31 28 19 85 65
171 104 192 39 21 42 -6 14 -124 -18 -77 -18 -79 1 -92 19 -14 49 -11 73 8 19
16 14 26 -12 21 l-24 -5 19 88 c11 49 22 95 24 102 7 19 -12 50 -35 57 -26 8
-84 -27 -107 -66 -19 -32 -37 -39 -29 -11 3 9 14 56 25 105 l19 87 -37 -1
c-20 0 -42 -3 -48 -6z"/>
<path d="M2983 4343 c-20 -8 -15 -23 7 -23 11 0 20 -6 20 -12 0 -7 -16 -85
-35 -173 -19 -88 -35 -163 -35 -167 0 -12 35 -9 48 4 7 7 12 21 12 33 0 49 85
185 115 185 24 0 25 -31 5 -110 -26 -101 -25 -108 6 -121 21 -7 32 -6 53 8 26
18 26 18 4 21 -29 4 -29 20 -3 123 22 86 18 112 -21 124 -25 8 -89 -34 -109
-70 -26 -48 -27 -24 -5 80 l23 105 -37 -1 c-20 0 -42 -3 -48 -6z"/>
<path d="M3784 4335 c-19 -14 -18 -14 4 -15 23 0 28 -21 16 -67 -5 -19 -13
-22 -54 -21 -90 2 -158 -67 -168 -172 -8 -90 69 -132 137 -74 30 25 31 25 31
5 0 -28 32 -44 64 -31 31 11 34 30 6 30 -11 0 -20 1 -20 3 0 1 17 82 38 180
l39 177 -37 0 c-20 0 -45 -7 -56 -15z m-5 -143 c22 -41 -22 -152 -69 -177 -39
-20 -47 -19 -66 10 -16 24 -15 29 11 91 15 35 37 71 48 79 29 20 64 19 76 -3z"/>
<path d="M1220 4325 c0 -9 9 -15 24 -15 14 0 27 -3 29 -7 7 -11 -54 -285 -66
-300 -5 -7 -18 -13 -28 -13 -11 0 -19 -6 -19 -13 0 -11 21 -14 85 -13 63 0 85
3 85 13 0 7 -11 13 -25 13 -31 0 -31 1 0 152 31 149 38 166 66 170 12 2 24 9
27 16 3 9 -19 12 -87 12 -74 0 -91 -3 -91 -15z"/>
<path d="M786 4304 c-11 -29 -6 -44 13 -44 26 0 34 15 21 40 -13 24 -26 26
-34 4z"/>
<path d="M4171 4291 c-16 -29 15 -43 49 -21 13 8 12 11 -5 24 -26 20 -32 20
-44 -3z"/>
<path d="M1994 4221 c-94 -43 -140 -179 -83 -247 19 -24 80 -17 110 12 l26 25
7 -24 c8 -32 31 -41 64 -25 36 18 40 37 6 30 -22 -4 -25 -2 -21 14 14 44 47
183 47 194 0 14 -61 40 -92 40 -13 0 -42 -9 -64 -19z m93 -27 c11 -30 -18
-124 -49 -160 -53 -60 -106 -35 -92 44 8 47 20 70 52 105 29 31 79 37 89 11z"/>
<path d="M2605 4221 c-47 -21 -92 -70 -101 -109 -3 -15 -8 -33 -10 -41 -7 -24
16 -90 36 -101 26 -14 68 -12 128 5 31 9 52 22 52 30 0 12 -5 12 -35 -1 -19
-7 -50 -14 -70 -14 -29 0 -37 5 -46 27 -5 14 -8 32 -5 39 2 6 40 24 84 38 67
23 82 32 92 56 13 32 2 63 -30 80 -27 14 -49 12 -95 -9z m73 -38 c5 -36 -15
-59 -63 -73 -25 -7 -48 -10 -52 -7 -3 4 0 20 7 37 26 62 101 92 108 43z"/>
<path d="M3375 4221 c-51 -23 -91 -70 -106 -123 -30 -114 48 -181 130 -112 30
25 31 25 31 5 0 -30 34 -45 67 -29 37 18 43 41 9 32 -14 -3 -26 -3 -26 1 0 3
11 51 25 106 14 55 23 104 20 109 -6 10 -70 30 -95 30 -8 0 -33 -9 -55 -19z
m89 -46 c-3 -59 -26 -119 -59 -152 -29 -29 -37 -32 -54 -23 -28 15 -36 53 -21
106 18 64 60 106 102 102 30 -3 33 -6 32 -33z"/>
<path d="M2223 4220 c-29 -12 -30 -30 -3 -30 25 0 33 -20 50 -133 7 -48 17
-90 21 -93 19 -12 51 22 105 108 31 51 63 107 71 125 13 32 12 33 -9 33 -38 0
-68 -12 -68 -25 0 -8 9 -15 19 -17 17 -3 14 -11 -26 -81 -25 -43 -49 -75 -53
-70 -4 4 -13 50 -20 101 -13 89 -14 92 -39 91 -14 0 -36 -4 -48 -9z"/>
<path d="M685 4200 c-3 -5 -1 -19 6 -31 10 -19 12 -20 26 -6 9 9 13 23 10 31
-7 18 -32 21 -42 6z"/>
<path d="M4267 4203 c-12 -12 -7 -31 10 -37 9 -4 23 0 32 9 14 14 14 17 1 25
-18 11 -34 13 -43 3z"/>
<path d="M4356 4103 c-4 -9 -1 -23 7 -30 12 -12 16 -12 26 0 13 17 5 47 -14
47 -7 0 -16 -8 -19 -17z"/>
<path d="M594 4099 c-3 -6 1 -18 10 -27 15 -15 17 -15 32 0 19 19 11 38 -16
38 -10 0 -22 -5 -26 -11z"/>
<path d="M521 4006 c-16 -19 -7 -46 14 -46 22 0 30 29 13 46 -13 13 -16 13
-27 0z"/>
<path d="M4440 3995 c-15 -18 -5 -35 21 -35 24 0 37 29 18 41 -19 12 -25 11
-39 -6z"/>
<path d="M433 3884 c-10 -26 13 -39 43 -25 26 11 26 12 8 26 -25 19 -43 19
-51 -1z"/>
<path d="M4514 3885 c-4 -9 0 -24 10 -33 15 -15 18 -15 26 -2 6 8 9 22 7 30
-3 21 -36 25 -43 5z"/>
<path d="M3466 3769 c-14 -71 -8 -98 33 -142 24 -26 45 -62 54 -95 15 -49 15
-54 -3 -85 -10 -17 -24 -66 -31 -107 -10 -65 -10 -80 4 -113 9 -21 14 -44 11
-52 -4 -8 14 -42 39 -77 43 -61 44 -65 49 -156 5 -89 4 -95 -20 -123 -13 -17
-30 -47 -37 -67 -13 -38 -32 -43 -27 -7 13 88 -16 225 -65 299 l-25 39 22 75
c19 62 22 91 18 166 -3 56 -11 103 -21 122 -9 18 -52 62 -96 100 -78 67 -99
100 -115 174 -7 35 -39 51 -110 57 -47 3 -57 2 -43 -7 32 -20 21 -39 -21 -33
-27 4 -42 1 -51 -11 -17 -21 -7 -33 14 -16 23 19 45 5 45 -31 0 -47 -33 -92
-104 -143 -107 -76 -151 -173 -127 -279 15 -70 50 -121 117 -175 l54 -43 -20
-37 c-39 -73 -23 -177 41 -261 44 -58 45 -64 23 -117 -21 -49 -21 -155 0 -213
21 -57 60 -108 102 -133 28 -16 33 -24 28 -44 -10 -41 18 -71 81 -84 61 -13
101 -7 157 21 21 11 55 19 76 19 67 0 117 61 81 97 -9 9 0 25 36 65 56 62 75
102 75 159 0 33 -6 47 -32 73 -18 18 -39 35 -47 37 -10 4 -2 22 29 68 60 87
94 217 81 303 -7 40 -19 71 -40 96 -39 50 -81 146 -81 187 0 30 14 57 69 132
20 27 20 30 5 83 -9 30 -26 66 -39 80 -23 26 -74 162 -76 203 -1 16 -4 12 -11
-13 -8 -28 -6 -44 10 -85 11 -27 24 -61 28 -75 4 -14 15 -31 25 -38 23 -16 50
-102 42 -134 -4 -13 -14 -28 -23 -35 -50 -35 -70 -182 -30 -218 11 -10 20 -29
20 -41 0 -14 10 -30 26 -40 34 -23 51 -58 59 -125 6 -45 4 -59 -10 -72 -9 -9
-14 -20 -11 -25 2 -4 -2 -34 -9 -66 -12 -51 -35 -85 -57 -86 -5 0 -8 -11 -8
-25 0 -16 -7 -28 -17 -31 -27 -8 -36 -15 -97 -68 l-56 -48 -30 32 c-24 26 -28
35 -20 51 12 22 32 24 63 8 18 -10 24 -8 42 15 11 14 28 26 38 26 10 0 19 10
22 25 3 14 7 36 10 50 3 15 14 27 28 30 27 7 45 70 42 145 -1 25 -2 62 -3 82
-2 30 -11 46 -53 87 -44 43 -51 55 -46 78 3 16 -1 47 -10 70 -14 39 -14 46 7
115 12 40 29 81 38 91 14 15 14 22 2 55 -28 79 -42 104 -76 142 -34 38 -36 43
-32 95 5 59 -6 75 -16 24z m-173 -205 c18 -9 51 -35 75 -58 l43 -41 -53 -11
-53 -12 53 -1 c63 -1 92 -14 92 -41 0 -22 -29 -43 -75 -56 l-30 -8 28 -4 c16
-2 39 4 52 12 44 29 48 22 42 -56 -4 -40 -11 -89 -17 -108 -15 -54 -65 -128
-102 -150 -57 -35 -176 -22 -278 30 -57 28 -55 27 -40 45 11 13 9 15 -13 15
-30 0 -53 25 -49 54 2 17 1 18 -8 6 -8 -12 -10 -9 -8 15 2 22 9 31 26 33 12 2
22 8 22 13 0 18 -27 8 -55 -21 -16 -16 -32 -30 -36 -30 -13 0 -29 62 -29 109
0 70 16 114 60 164 81 91 266 144 353 101z m170 -570 c16 -31 26 -59 23 -62
-3 -2 -19 1 -36 8 -20 8 -49 10 -86 5 -48 -6 -57 -10 -67 -34 -13 -29 -85
-117 -90 -110 -38 48 -57 80 -57 97 l0 22 -21 -21 -20 -20 25 -20 c13 -10 35
-41 49 -69 23 -45 26 -48 40 -32 8 9 22 31 31 49 23 46 51 59 82 38 29 -19 28
-25 -19 -104 -39 -65 -64 -76 -130 -60 -60 14 -122 66 -148 124 -32 70 -21
166 25 204 12 10 36 9 123 -5 120 -19 148 -16 190 21 42 36 56 31 86 -31z
m-12 -85 c24 -13 69 -103 69 -139 0 -33 -26 -70 -49 -70 -27 0 -41 21 -41 61
0 53 -7 66 -51 91 -38 21 -50 38 -28 38 6 0 9 7 5 15 -4 12 3 15 35 15 22 0
49 -5 60 -11z m-51 -138 c0 -16 5 -42 10 -57 9 -23 7 -31 -11 -50 -13 -14 -22
-37 -22 -61 l-2 -38 -54 -7 c-104 -12 -171 -53 -171 -105 0 -12 9 -6 32 21 37
45 81 66 137 66 81 0 131 -39 131 -103 0 -47 -12 -71 -58 -119 -26 -27 -31
-39 -21 -42 8 -2 31 -10 52 -16 20 -6 37 -18 37 -26 0 -22 -60 -54 -101 -54
-111 0 -131 24 -105 126 22 86 41 122 72 136 l25 12 -23 13 c-13 7 -26 12 -29
13 -8 0 -29 -46 -49 -110 -22 -70 -50 -77 -104 -30 -65 57 -83 186 -41 286
l14 35 73 -7 c87 -7 106 3 159 91 18 30 37 55 41 55 4 0 8 -13 8 -29z m255
-207 c39 -25 43 -61 13 -114 -22 -40 -55 -69 -148 -131 -22 -15 -22 -15 21
-43 40 -27 41 -30 24 -42 -10 -8 -24 -14 -31 -14 -9 0 -100 56 -124 77 -2 2
15 23 38 46 23 23 62 69 87 102 40 54 43 61 28 73 -25 18 -28 16 -53 -38 -26
-55 -35 -54 -45 1 -6 33 -4 39 27 62 65 50 110 56 163 21z"/>
<path d="M3145 3406 c-42 -19 -71 -43 -63 -51 6 -7 118 51 118 61 0 8 -25 3
-55 -10z"/>
<path d="M3190 3300 c-21 -12 -56 -19 -88 -20 -57 0 -63 -15 -10 -22 42 -7
103 10 124 33 24 27 15 30 -26 9z"/>
<path d="M3163 3238 c-18 -6 -33 -14 -33 -19 0 -4 20 -1 45 8 67 23 56 33 -12
11z"/>
<path d="M3328 3233 c-16 -2 -28 -9 -28 -14 0 -15 56 -10 70 6 13 16 13 16
-42 8z"/>
<path d="M3365 3145 c-16 -8 -42 -14 -57 -15 -15 0 -30 -4 -33 -10 -11 -18 69
-11 103 10 50 31 42 40 -13 15z"/>
<path d="M364 3775 c-12 -29 15 -45 45 -26 12 8 12 12 2 25 -17 20 -40 21 -47
1z"/>
<path d="M4590 3775 c-11 -13 -11 -19 3 -33 20 -19 41 -5 35 24 -4 24 -22 28
-38 9z"/>
<path d="M2512 3735 c-7 -14 -15 -51 -18 -82 -6 -48 -4 -62 17 -99 13 -24 31
-47 40 -49 19 -6 21 -10 55 -109 l24 -70 -25 -48 c-14 -26 -25 -65 -25 -85 -1
-21 -7 -49 -15 -63 -20 -35 -18 -90 5 -125 14 -21 18 -40 14 -65 -6 -36 8 -62
88 -162 25 -31 27 -40 29 -157 3 -118 2 -124 -20 -142 -12 -10 -32 -44 -45
-76 -13 -33 -28 -58 -37 -58 -15 0 -15 5 3 82 10 44 9 57 -5 90 -9 21 -26 74
-37 119 -19 73 -32 101 -72 155 -9 14 -7 33 13 95 20 67 24 100 24 209 0 112
-3 136 -22 175 -24 50 -91 123 -171 183 -60 45 -76 72 -86 137 -8 55 -20 71
-66 89 -19 7 -53 20 -75 29 -60 23 -128 2 -73 -23 12 -6 24 -16 26 -23 3 -11
-6 -12 -42 -7 -50 8 -96 -12 -96 -40 0 -14 4 -14 31 0 29 15 32 15 50 -1 54
-49 2 -134 -151 -247 -194 -143 -187 -406 16 -555 35 -26 63 -52 64 -59 0 -6
-9 -28 -21 -47 -29 -50 -35 -130 -15 -200 17 -58 37 -93 96 -171 l30 -40 -21
-55 c-29 -73 -31 -219 -4 -303 21 -66 77 -136 130 -161 32 -15 35 -21 35 -59
0 -81 50 -111 177 -110 55 1 84 7 125 26 32 15 79 28 115 31 34 2 70 9 82 15
32 18 38 59 13 101 l-20 35 78 80 c89 92 107 133 89 200 -11 38 -51 85 -98
116 -23 14 -23 16 -8 44 8 17 30 46 49 65 27 28 39 54 57 125 13 50 28 103 33
118 12 30 3 161 -12 202 -5 13 -24 41 -43 62 -19 21 -38 49 -42 63 -4 14 -18
41 -30 60 -13 19 -25 57 -29 83 -7 57 13 104 71 168 l37 41 -11 74 c-8 59 -17
80 -40 108 -17 18 -34 51 -37 72 -4 22 -21 63 -37 91 -20 37 -29 66 -29 98 0
28 -4 44 -10 40 -20 -12 -11 -113 15 -175 14 -33 25 -66 25 -74 0 -9 14 -31
30 -50 18 -20 39 -63 52 -106 l22 -72 -36 -31 c-19 -18 -48 -54 -63 -81 -25
-44 -26 -52 -16 -86 7 -24 8 -47 2 -61 -7 -20 -2 -31 26 -62 22 -25 32 -45 28
-55 -4 -11 10 -30 45 -62 52 -45 52 -45 62 -128 9 -72 9 -85 -6 -101 -9 -9
-16 -33 -16 -51 0 -19 -4 -47 -10 -64 -5 -17 -12 -44 -15 -59 -4 -18 -18 -35
-40 -49 -29 -16 -35 -26 -35 -53 0 -33 -13 -45 -48 -45 -10 0 -22 -8 -29 -19
-13 -21 -128 -111 -142 -111 -5 0 -19 14 -31 30 -12 17 -26 28 -31 25 -16 -10
-10 43 7 59 21 22 44 20 71 -6 l24 -23 32 37 c18 20 41 38 52 40 11 2 21 10
22 18 10 81 15 92 48 111 46 28 62 86 60 214 -2 55 -3 106 -4 113 0 8 -25 39
-55 71 -58 60 -80 102 -70 133 3 10 -4 42 -16 71 -21 50 -21 55 -6 91 9 21 16
51 16 66 0 15 14 53 31 85 30 56 30 59 16 94 -8 20 -22 57 -31 82 -9 26 -35
66 -57 90 -56 60 -57 64 -49 149 4 41 7 76 6 78 -2 1 -8 -9 -14 -23z m-228
-307 c22 -11 65 -46 95 -77 l56 -56 -62 -5 c-86 -7 -91 -20 -7 -20 75 0 114
-17 114 -49 0 -26 -39 -57 -90 -72 l-45 -13 33 -4 c21 -2 48 5 77 22 l45 25 0
-74 c0 -130 -34 -237 -101 -318 -45 -55 -80 -70 -166 -69 -82 1 -145 17 -244
63 -69 32 -82 45 -54 55 22 9 10 21 -28 28 -47 9 -77 40 -77 79 0 39 15 57 47
57 26 0 31 15 7 24 -25 10 -54 -12 -73 -55 l-18 -40 -19 28 c-23 36 -32 184
-14 249 28 97 157 194 305 228 128 29 151 28 219 -6z m208 -713 c26 -47 37
-105 21 -105 -5 1 -19 7 -33 15 -30 17 -115 19 -158 4 -21 -7 -33 -19 -37 -38
-6 -26 -98 -141 -113 -141 -4 0 -24 25 -45 55 -29 41 -36 60 -31 80 3 14 3 25
0 25 -10 0 -76 -54 -76 -61 0 -4 14 -12 31 -19 39 -16 85 -78 93 -126 9 -48
33 -42 63 16 13 25 39 60 59 78 32 31 37 32 57 19 43 -28 44 -43 9 -112 -19
-35 -45 -75 -59 -89 -77 -78 -242 -13 -318 125 -26 47 -30 64 -30 131 0 83 16
118 67 147 22 13 36 12 121 -9 133 -32 201 -25 265 25 60 46 80 43 114 -20z
m-7 -135 c33 -20 55 -57 55 -90 0 -10 5 -20 11 -22 6 -2 13 -25 16 -50 5 -42
2 -50 -24 -77 -21 -21 -37 -28 -51 -24 -26 6 -33 23 -41 98 l-6 60 -60 40
c-51 33 -56 40 -38 43 19 3 21 7 13 22 -7 13 -6 20 3 24 21 9 90 -4 122 -24z
m-70 -177 c4 -27 11 -61 18 -77 9 -25 8 -31 -11 -46 -30 -24 -42 -62 -35 -104
l6 -36 -74 0 c-124 0 -211 -57 -234 -152 -10 -39 -1 -35 31 15 46 73 112 107
207 107 169 0 213 -176 74 -295 -22 -19 -39 -36 -36 -38 2 -2 31 -12 64 -23
72 -23 83 -48 38 -84 -25 -20 -37 -22 -120 -18 -142 6 -152 23 -108 183 31
113 49 139 110 161 17 6 16 8 -13 16 -18 5 -35 15 -39 23 -8 22 -18 18 -19 -8
-1 -12 -13 -40 -28 -61 -14 -21 -28 -54 -31 -75 -12 -72 -15 -81 -33 -81 -41
0 -107 45 -137 94 -29 47 -30 55 -30 160 0 86 4 122 19 159 19 48 20 49 55 43
100 -16 122 -18 146 -12 34 9 75 54 122 133 20 35 40 63 44 63 4 0 11 -21 14
-47z m305 -249 c48 -19 60 -38 60 -92 0 -62 -49 -126 -145 -190 -44 -29 -80
-58 -80 -64 0 -6 18 -21 40 -34 62 -34 58 -73 -7 -74 -18 0 -42 13 -67 35 -21
19 -55 41 -76 48 l-37 13 64 60 c35 32 84 88 109 124 24 36 50 70 57 75 11 9
8 13 -12 23 -14 6 -26 18 -26 27 0 8 -4 15 -10 15 -5 0 -10 -14 -10 -31 0 -19
-13 -48 -32 -75 l-32 -45 -13 43 c-21 69 -18 75 50 118 69 44 104 49 167 24z"/>
<path d="M2119 3244 c-43 -13 -140 -86 -129 -97 7 -6 174 91 178 103 2 6 2 10
0 9 -1 0 -24 -7 -49 -15z"/>
<path d="M2140 3089 c-42 -28 -49 -30 -113 -25 -50 4 -67 2 -64 -7 6 -18 69
-31 120 -23 51 8 110 43 115 69 5 24 -6 21 -58 -14z"/>
<path d="M2118 3012 c-54 -18 -65 -34 -15 -23 34 8 77 28 77 36 0 7 -9 5 -62
-13z"/>
<path d="M2333 3003 c-47 -5 -57 -19 -19 -29 31 -7 62 2 70 21 3 8 2 14 -2 13
-4 -1 -26 -3 -49 -5z"/>
<path d="M1864 2945 c-11 -27 1 -30 23 -7 22 21 22 22 2 22 -11 0 -22 -7 -25
-15z"/>
<path d="M2375 2895 c-22 -14 -56 -25 -75 -25 -19 0 -42 -4 -49 -9 -21 -14 30
-25 72 -17 36 7 107 51 107 66 0 15 -11 12 -55 -15z"/>
<path d="M2358 2818 c-16 -5 -28 -14 -28 -19 0 -15 16 -10 41 11 27 22 26 23
-13 8z"/>
<path d="M4659 3667 c-16 -34 0 -58 26 -37 19 15 19 21 1 45 -14 19 -15 19
-27 -8z"/>
<path d="M297 3656 c-3 -8 0 -20 8 -26 19 -16 59 8 43 27 -14 17 -45 17 -51
-1z"/>
<path d="M235 3540 c-7 -12 12 -50 25 -50 13 0 32 38 25 50 -3 6 -15 10 -25
10 -10 0 -22 -4 -25 -10z"/>
<path d="M4714 3535 c-13 -32 23 -48 47 -19 10 13 10 17 -2 25 -21 13 -39 11
-45 -6z"/>
<path d="M1366 3435 c-9 -35 -16 -78 -16 -96 0 -35 54 -137 77 -146 17 -7 55
-87 73 -152 9 -36 8 -47 -11 -89 -22 -47 -56 -174 -66 -245 -4 -26 1 -53 16
-87 12 -27 21 -66 21 -87 0 -43 50 -136 103 -191 l32 -33 3 -148 3 -149 -29
-21 c-21 -15 -37 -41 -54 -87 -21 -62 -40 -85 -55 -70 -4 3 2 39 12 80 18 71
18 76 1 118 -9 24 -28 84 -41 134 -25 100 -52 159 -84 188 -27 25 -27 28 10
136 36 109 46 223 30 330 -18 119 -45 163 -158 257 -147 123 -162 140 -169
198 -8 69 -33 125 -55 125 -10 0 -34 11 -54 24 -44 30 -109 41 -149 26 l-30
-11 32 -19 c49 -30 41 -43 -22 -36 -60 8 -89 -2 -107 -35 -15 -30 -7 -32 41
-13 41 17 43 17 56 -1 46 -62 -23 -183 -156 -275 -130 -90 -183 -175 -189
-307 -6 -151 53 -269 183 -367 42 -31 76 -61 76 -66 0 -4 -14 -34 -31 -66 -29
-56 -31 -64 -26 -141 6 -98 39 -177 110 -265 26 -31 47 -63 47 -71 0 -8 -9
-34 -19 -58 -26 -59 -37 -222 -21 -309 6 -36 24 -87 38 -114 31 -57 103 -123
146 -134 30 -8 31 -10 28 -54 -2 -27 2 -58 11 -75 25 -48 57 -58 181 -58 104
0 116 2 166 29 42 21 75 30 139 35 71 6 86 10 102 30 25 31 24 76 -2 112 l-21
30 87 90 c93 96 115 135 115 200 0 61 -27 106 -91 156 l-57 45 22 35 c11 20
35 50 52 67 30 31 70 140 109 296 15 59 15 73 1 153 -19 104 -22 111 -75 159
-23 20 -41 45 -41 55 0 11 -14 41 -32 69 -27 41 -33 61 -36 121 -4 64 -1 78
21 116 14 24 44 62 66 84 26 25 41 50 41 64 -1 58 -30 143 -64 186 -20 25 -38
62 -41 82 -8 47 -32 103 -62 143 -18 25 -23 45 -24 92 l0 61 -14 -50 c-21 -74
-18 -92 19 -159 19 -34 37 -79 41 -101 4 -22 20 -53 35 -70 29 -31 70 -136 70
-179 0 -16 -14 -39 -38 -63 -21 -21 -51 -64 -66 -96 -26 -53 -28 -61 -17 -100
9 -30 9 -50 2 -69 -8 -20 -7 -31 2 -40 34 -35 68 -88 62 -98 -12 -19 5 -48 36
-60 45 -19 79 -69 79 -117 0 -22 6 -58 14 -79 14 -43 12 -59 -14 -89 -11 -12
-20 -42 -23 -75 -2 -30 -10 -79 -18 -109 -12 -45 -20 -57 -51 -75 -27 -15 -38
-28 -38 -44 0 -36 -18 -62 -43 -62 -13 0 -36 -14 -53 -31 -16 -17 -60 -56 -97
-86 l-69 -55 -28 33 c-16 19 -29 37 -30 42 0 4 -5 7 -11 7 -6 0 -9 -9 -6 -20
3 -11 1 -20 -3 -20 -5 0 -10 15 -12 33 -2 24 4 39 24 60 36 35 62 34 89 -2
l22 -30 28 35 c15 19 29 40 31 45 2 6 19 14 38 18 33 6 35 9 41 56 8 67 15 81
54 104 44 25 69 98 59 170 -4 34 -3 56 6 65 6 9 8 21 4 27 -4 7 -8 39 -9 71
-2 57 -2 58 -73 129 -73 74 -89 106 -77 158 4 20 0 42 -14 70 -25 47 -26 81
-7 136 8 22 18 61 21 87 4 30 17 60 36 84 34 43 37 76 10 121 -11 17 -25 51
-31 74 -8 29 -30 62 -69 103 -32 34 -60 68 -63 76 -3 9 0 49 8 90 16 91 16
100 5 100 -5 0 -16 -29 -25 -65z m-264 -316 c41 -21 168 -138 168 -155 0 -5
-27 -10 -59 -10 -101 -3 -105 -20 -7 -26 89 -6 136 -24 136 -54 0 -27 -56 -73
-105 -85 -36 -9 -44 -14 -31 -21 21 -12 86 6 119 32 14 11 28 20 32 20 16 0
-3 -234 -23 -290 -43 -123 -95 -196 -166 -233 -51 -26 -160 -27 -254 -3 -68
18 -225 87 -235 103 -4 6 5 15 18 21 32 15 32 31 0 24 -56 -10 -125 44 -125
100 0 48 16 68 56 68 42 0 43 23 1 28 -35 4 -87 -45 -87 -82 0 -39 -16 -31
-42 22 -19 40 -23 62 -22 142 1 132 21 189 93 260 124 123 416 199 533 139z
m233 -816 c25 -37 61 -140 52 -149 -2 -2 -24 5 -48 16 -50 22 -135 25 -188 6
-26 -9 -37 -22 -50 -54 -16 -44 -108 -161 -126 -161 -18 -1 -96 129 -95 157 3
45 0 48 -15 15 -8 -18 -25 -38 -39 -44 l-25 -12 43 -27 c48 -31 79 -75 95
-137 18 -66 49 -53 88 37 21 49 74 100 102 100 22 0 71 -44 71 -62 0 -22 -86
-161 -119 -192 -26 -25 -40 -30 -79 -30 -112 1 -215 66 -276 177 -44 80 -59
152 -46 213 15 65 37 103 66 114 37 15 114 12 170 -5 27 -8 86 -15 131 -16 93
0 151 19 192 65 35 37 65 34 96 -11z m4 -186 c37 -23 71 -71 71 -104 0 -12 5
-23 11 -25 13 -4 23 -79 15 -113 -9 -37 -42 -65 -75 -65 -41 0 -53 20 -60 107
l-6 78 -67 40 c-70 42 -82 55 -48 55 22 0 25 7 10 30 -22 35 90 33 149 -3z
m-79 -210 c0 -29 8 -67 18 -87 l17 -35 -32 -29 c-31 -26 -33 -33 -33 -91 l0
-63 -92 -4 c-75 -4 -103 -9 -144 -31 -61 -31 -111 -88 -120 -135 -9 -47 0 -49
26 -5 58 96 124 133 239 133 131 0 194 -50 194 -154 0 -72 -25 -123 -90 -183
l-55 -52 77 -22 c42 -13 79 -29 82 -37 8 -20 -18 -62 -49 -78 -30 -15 -124
-18 -202 -5 -86 14 -93 46 -45 219 35 124 55 158 102 170 41 11 41 26 0 30
-25 3 -34 9 -39 28 -8 31 -16 24 -19 -16 -2 -16 -16 -45 -33 -64 -21 -24 -33
-50 -37 -83 -13 -98 -15 -103 -41 -103 -59 0 -133 59 -175 140 -21 39 -24 59
-24 155 0 90 4 123 23 177 13 37 27 70 31 72 4 3 41 -4 82 -15 44 -12 87 -17
107 -14 44 8 104 64 144 134 71 126 88 135 88 48z m372 -298 c44 -22 58 -45
58 -94 0 -84 -55 -155 -187 -241 -46 -30 -83 -61 -83 -69 0 -8 19 -24 43 -35
23 -11 48 -29 54 -40 11 -16 9 -21 -9 -35 -39 -27 -75 -19 -126 29 -26 25 -61
48 -77 52 -39 9 -49 15 -38 23 5 3 23 25 42 49 18 23 43 45 56 48 16 4 28 17
35 38 6 18 31 56 55 85 25 29 45 57 45 62 0 4 15 12 33 17 33 10 28 15 -25 26
-18 4 -30 15 -34 31 -8 33 -27 20 -20 -14 3 -19 -4 -40 -31 -78 -19 -29 -39
-53 -44 -53 -14 0 -34 110 -22 128 5 9 47 36 91 59 89 46 112 48 184 12z"/>
<path d="M886 2885 c-54 -22 -126 -78 -126 -97 0 -13 203 95 208 110 5 18 -16
15 -82 -13z"/>
<path d="M936 2719 c-50 -37 -97 -50 -139 -38 -17 5 -43 9 -57 9 -22 0 -23 -1
-8 -16 20 -21 121 -29 174 -15 45 12 88 42 104 72 17 30 -27 23 -74 -12z"/>
<path d="M1268 2728 c-47 -17 -31 -28 17 -11 25 8 45 17 45 19 0 7 -34 3 -62
-8z"/>
<path d="M955 2641 c-6 -5 -32 -16 -60 -24 l-50 -16 38 0 c40 -1 97 22 97 39
0 13 -13 13 -25 1z"/>
<path d="M1211 2626 c-9 -11 -30 -16 -65 -16 -47 -1 -49 -2 -32 -15 28 -21 79
-19 100 4 10 11 16 25 14 32 -2 7 -8 6 -17 -5z"/>
<path d="M608 2545 c-15 -33 -2 -45 18 -17 8 12 22 22 30 22 8 0 14 5 14 10 0
6 -11 10 -25 10 -17 0 -29 -8 -37 -25z"/>
<path d="M1213 2488 c-33 -24 -52 -31 -86 -31 -44 1 -77 -10 -65 -22 3 -4 31
-7 61 -8 48 -1 63 4 106 33 47 32 59 50 35 56 -5 1 -28 -12 -51 -28z"/>
<path d="M1185 2393 c-23 -13 -26 -18 -13 -21 20 -4 58 14 58 28 0 14 -10 12
-45 -7z"/>
<path d="M190 3415 c-10 -12 -10 -18 0 -31 12 -13 15 -13 28 0 15 15 10 46 -6
46 -5 0 -15 -7 -22 -15z"/>
<path d="M4764 3419 c-3 -6 0 -18 9 -26 14 -14 17 -14 37 0 22 15 22 15 2 26
-26 14 -39 14 -48 0z"/>
<path d="M141 3291 c-8 -14 -6 -22 9 -36 17 -16 19 -16 29 4 15 26 14 29 -9
41 -15 8 -21 6 -29 -9z"/>
<path d="M4823 3303 c-7 -3 -13 -13 -13 -23 0 -10 6 -20 13 -23 14 -5 47 10
47 21 0 12 -34 29 -47 25z"/>
<path d="M101 3167 c-8 -10 -7 -19 4 -33 13 -18 15 -18 31 -2 14 14 15 20 4
32 -15 19 -24 20 -39 3z"/>
<path d="M4856 3164 c-8 -20 1 -34 20 -34 20 0 30 30 13 41 -20 12 -26 11 -33
-7z"/>
<path d="M77 3043 c-4 -3 -7 -15 -7 -25 0 -21 32 -25 49 -5 17 22 -22 50 -42
30z"/>
<path d="M4891 3036 c-10 -12 -10 -20 0 -37 11 -22 12 -22 25 -4 17 24 17 30
0 44 -10 9 -16 8 -25 -3z"/>
<path d="M45 2910 c-9 -15 4 -50 20 -50 18 0 28 30 14 46 -14 17 -25 18 -34 4z"/>
<path d="M4910 2904 c-11 -12 -10 -18 3 -32 16 -15 18 -15 34 0 13 14 14 20 3
32 -7 9 -16 16 -20 16 -4 0 -13 -7 -20 -16z"/>
<path d="M4930 2780 c-15 -28 5 -57 26 -39 18 15 18 33 0 48 -12 10 -17 8 -26
-9z"/>
<path d="M31 2776 c-18 -22 4 -62 25 -45 18 15 18 33 0 48 -10 9 -16 8 -25 -3z"/>
<path d="M4085 2699 c-44 -12 -84 -25 -89 -29 -4 -4 -17 -46 -27 -92 -10 -45
-21 -93 -24 -105 -5 -22 -2 -23 50 -23 l55 0 0 38 c0 20 9 55 19 78 15 32 28
45 62 58 67 27 128 30 168 9 55 -29 76 -66 74 -128 -4 -115 -89 -205 -209
-222 -52 -7 -74 -24 -74 -59 0 -22 4 -24 50 -24 57 0 118 -26 138 -60 38 -63
19 -193 -41 -272 -77 -100 -203 -126 -366 -73 -46 15 -87 23 -91 18 -5 -4 -10
-21 -12 -38 -3 -28 1 -31 57 -54 300 -120 637 48 638 318 1 44 -5 77 -17 99
-18 35 -86 89 -123 98 -13 4 -23 9 -23 13 0 4 25 19 56 35 126 61 177 127 178
231 1 83 -30 132 -111 171 -79 39 -219 44 -338 13z"/>
<path d="M4940 2644 c-11 -12 -10 -18 3 -31 22 -23 52 0 36 28 -12 23 -22 24
-39 3z"/>
<path d="M13 2634 c-3 -8 1 -22 9 -30 13 -13 16 -13 27 0 7 9 11 23 7 31 -7
20 -35 19 -43 -1z"/>
<path d="M18 2513 c-25 -6 -22 -30 3 -38 25 -8 44 7 36 29 -7 16 -9 17 -39 9z"/>
<path d="M4940 2504 c-11 -12 -10 -18 3 -32 16 -15 18 -15 34 0 13 14 14 20 3
32 -7 9 -16 16 -20 16 -4 0 -13 -7 -20 -16z"/>
<path d="M20 2374 c-11 -12 -11 -18 1 -30 13 -12 18 -12 34 0 16 12 17 16 6
30 -17 20 -25 20 -41 0z"/>
<path d="M4940 2375 c-20 -24 4 -47 36 -33 23 11 23 12 8 30 -21 22 -28 22
-44 3z"/>
<path d="M30 2244 c-11 -12 -10 -18 3 -32 21 -21 42 -3 32 27 -8 25 -18 27
-35 5z"/>
<path d="M4930 2244 c-11 -12 -10 -18 3 -32 21 -21 42 -3 32 27 -8 25 -18 27
-35 5z"/>
<path d="M46 2103 c-4 -9 -1 -20 6 -25 18 -11 24 -10 39 8 10 13 10 17 -2 25
-21 13 -36 11 -43 -8z"/>
<path d="M4912 2108 c-8 -8 -9 -15 -1 -25 15 -17 34 -17 48 1 10 12 8 17 -8
25 -24 14 -24 14 -39 -1z"/>
<path d="M71 1981 c-14 -26 12 -50 34 -31 11 9 12 16 2 31 -15 24 -24 24 -36
0z"/>
<path d="M4881 1976 c-14 -17 11 -41 34 -32 20 7 19 32 -1 40 -21 8 -20 8 -33
-8z"/>
<path d="M4855 1850 c-7 -23 1 -40 20 -40 18 0 24 21 13 43 -12 23 -25 22 -33
-3z"/>
<path d="M102 1848 c-13 -13 2 -38 23 -38 21 0 36 25 23 38 -7 7 -17 12 -23
12 -6 0 -16 -5 -23 -12z"/>
<path d="M4815 1719 c-10 -30 11 -48 32 -27 13 14 14 20 3 32 -17 22 -27 20
-35 -5z"/>
<path d="M137 1716 c-9 -23 18 -39 43 -26 17 9 19 14 9 26 -15 18 -45 18 -52
0z"/>
<path d="M191 1596 c-17 -20 7 -60 26 -44 17 14 17 33 -1 47 -10 9 -16 8 -25
-3z"/>
<path d="M4770 1595 c-11 -13 -11 -19 2 -32 17 -16 38 -10 38 11 0 8 -6 19
-14 25 -10 9 -16 8 -26 -4z"/>
<path d="M3352 1518 c-17 -17 -15 -26 9 -38 17 -9 25 -8 40 6 19 17 19 19 3
31 -22 16 -37 16 -52 1z"/>
<path d="M4720 1485 c-12 -14 -5 -55 9 -55 20 0 32 29 21 49 -13 25 -14 25
-30 6z"/>
<path d="M240 1475 c-8 -10 -9 -19 0 -34 13 -26 26 -27 40 -2 14 26 13 29 -9
40 -14 8 -22 7 -31 -4z"/>
<path d="M2283 1395 c-18 -7 -38 -23 -45 -34 -19 -30 -28 -26 -21 10 l6 30
-48 -3 c-47 -3 -79 -28 -36 -28 27 0 27 -6 -8 -168 -23 -104 -34 -137 -50
-148 -35 -25 -24 -34 43 -34 69 0 90 12 56 30 -16 9 -20 19 -18 43 3 30 6 32
54 38 62 8 83 18 122 63 56 64 65 169 19 201 -26 18 -33 18 -74 0z m44 -57
c14 -32 -20 -124 -59 -161 -61 -58 -107 -9 -73 80 34 89 108 134 132 81z"/>
<path d="M2607 1399 c-10 -6 -32 -29 -48 -52 l-31 -42 7 48 7 47 -46 0 c-34 0
-46 -4 -46 -15 0 -8 7 -15 15 -15 8 0 15 -9 15 -19 0 -17 -19 -119 -35 -188
-5 -19 -1 -23 20 -23 19 0 26 6 31 28 12 60 36 111 70 150 36 43 64 54 64 27
0 -20 26 -19 34 1 3 9 6 27 6 40 0 18 -5 24 -22 24 -13 0 -31 -5 -41 -11z"/>
<path d="M2791 1392 c-57 -28 -94 -83 -99 -146 -4 -51 -2 -57 26 -86 23 -22
40 -30 66 -30 43 0 112 26 120 46 7 17 9 17 -47 -2 -58 -20 -95 -12 -103 21
-10 39 1 51 52 64 53 13 105 38 116 55 13 19 9 64 -8 80 -21 21 -81 20 -123
-2z m84 -23 c4 -5 2 -23 -5 -39 -11 -28 -36 -43 -93 -56 l-28 -6 16 38 c8 22
25 47 36 57 24 19 64 23 74 6z"/>
<path d="M3014 1400 c-49 -11 -63 -23 -34 -30 23 -5 27 -14 43 -100 29 -154
24 -141 53 -128 16 7 48 51 88 117 86 144 85 143 34 139 -43 -3 -68 -28 -28
-28 26 0 27 4 -29 -94 -28 -47 -47 -72 -51 -64 -4 7 -13 52 -20 101 -6 48 -15
89 -19 90 -3 2 -20 1 -37 -3z"/>
<path d="M3540 1399 c-62 -25 -100 -85 -100 -159 0 -57 26 -94 74 -106 110
-27 225 106 182 210 -25 60 -88 82 -156 55z m86 -23 c38 -29 12 -172 -40 -210
-25 -19 -29 -19 -54 -5 -41 23 -49 58 -28 125 28 89 75 124 122 90z"/>
<path d="M4153 1391 c-63 -39 -55 -87 22 -133 30 -18 57 -38 59 -45 14 -35
-23 -58 -80 -51 -21 2 -30 9 -32 26 -5 30 -28 28 -36 -3 -9 -36 -2 -43 50 -51
87 -13 154 25 154 87 0 30 -13 43 -79 79 -57 31 -67 64 -25 81 36 13 75 3 81
-21 8 -29 33 -25 33 5 0 46 -89 61 -147 26z"/>
<path d="M3287 1393 c-13 -12 -7 -23 14 -23 15 0 19 -5 16 -17 -42 -151 -49
-193 -37 -208 15 -18 61 -20 78 -3 18 18 14 31 -8 25 -25 -6 -25 -3 5 113 14
52 25 101 25 108 0 13 -81 18 -93 5z"/>
<path d="M3766 1385 c-4 -10 1 -15 14 -15 25 0 25 -12 2 -115 -20 -90 -19
-111 8 -120 34 -11 70 7 109 53 l39 45 -5 -47 -6 -46 40 0 c26 0 46 6 54 17
13 15 11 16 -13 11 -19 -4 -28 -1 -28 8 0 13 36 172 46 207 5 15 1 18 -22 15
-23 -2 -30 -11 -43 -53 -36 -111 -121 -205 -133 -147 -2 9 6 58 19 107 12 50
23 91 23 93 0 1 -22 2 -49 2 -34 0 -51 -4 -55 -15z"/>
<path d="M301 1356 c-9 -11 -9 -19 1 -35 16 -26 20 -26 35 -1 10 15 10 22 -3
35 -19 18 -19 18 -33 1z"/>
<path d="M4660 1355 c-9 -11 -11 -22 -4 -32 13 -21 25 -21 38 -1 8 14 7 21 -5
33 -14 15 -17 15 -29 0z"/>
<path d="M364 1235 c-12 -29 15 -45 45 -26 12 8 12 12 2 25 -17 20 -40 21 -47
1z"/>
<path d="M4590 1235 c-11 -13 -11 -19 3 -33 20 -19 41 -5 35 24 -4 24 -22 28
-38 9z"/>
<path d="M4521 1126 c-10 -12 -10 -19 2 -36 12 -18 16 -18 26 -6 14 17 11 48
-5 53 -6 2 -17 -3 -23 -11z"/>
<path d="M435 1120 c-3 -5 -1 -19 5 -30 9 -17 14 -19 26 -9 21 17 18 49 -5 49
-11 0 -23 -4 -26 -10z"/>
<path d="M521 1026 c-16 -19 -7 -46 14 -46 22 0 30 29 13 46 -13 13 -16 13
-27 0z"/>
<path d="M4440 1014 c-11 -12 -10 -18 4 -32 16 -16 18 -16 31 2 11 14 12 23 4
33 -15 17 -24 16 -39 -3z"/>
<path d="M594 909 c-3 -6 1 -18 10 -27 15 -15 17 -15 32 0 9 9 13 21 10 27 -9
14 -43 14 -52 0z"/>
<path d="M4356 911 c-10 -16 5 -42 23 -39 21 4 21 42 -1 46 -9 2 -19 -1 -22
-7z"/>
<path d="M1841 871 c-38 -7 -55 -31 -22 -31 26 0 27 1 -9 -160 -37 -167 -37
-178 -4 -190 121 -46 254 73 230 205 -8 42 -45 70 -80 61 -14 -3 -39 -21 -56
-39 -26 -28 -30 -29 -30 -12 0 11 7 45 15 75 8 30 15 65 15 78 0 23 -3 23 -59
13z m137 -186 c10 -21 7 -36 -14 -91 -26 -64 -57 -94 -98 -94 -49 0 -36 108
22 172 41 45 73 50 90 13z"/>
<path d="M2186 861 c-15 -16 -15 -19 4 -36 20 -18 21 -18 34 0 26 35 -9 68
-38 36z"/>
<path d="M2767 863 c-13 -12 -7 -23 13 -23 11 0 20 -5 20 -11 0 -6 -16 -83
-35 -171 -25 -113 -32 -165 -25 -172 19 -19 43 8 55 60 18 81 97 185 122 160
10 -10 6 -55 -12 -125 -10 -37 -15 -76 -12 -85 7 -18 48 -21 78 -6 28 15 24
32 -6 24 -23 -6 -25 -4 -20 17 43 178 44 183 29 207 -8 12 -21 22 -30 22 -27
0 -71 -28 -103 -67 -21 -25 -30 -31 -27 -18 3 11 14 60 25 108 l19 87 -42 0
c-24 0 -46 -3 -49 -7z"/>
<path d="M2622 795 c-17 -25 -38 -45 -46 -45 -7 0 -19 -7 -26 -15 -10 -12 -9
-15 7 -15 11 0 22 -2 25 -5 3 -3 -4 -50 -15 -105 -11 -54 -17 -106 -14 -114 8
-19 77 -22 95 -4 21 21 13 30 -18 23 -16 -4 -30 -5 -30 -3 0 7 41 192 43 194
1 1 14 5 30 10 15 5 27 14 27 19 0 10 -3 11 -34 14 -10 1 -12 12 -8 46 2 25 3
45 0 45 -2 0 -18 -20 -36 -45z"/>
<path d="M690 814 c-11 -12 -11 -18 2 -30 13 -13 19 -14 36 -3 20 12 20 15 5
31 -20 22 -27 22 -43 2z"/>
<path d="M4270 815 c-19 -22 5 -48 31 -34 10 5 19 14 19 19 0 5 -9 14 -19 19
-14 8 -22 7 -31 -4z"/>
<path d="M2453 750 c-12 -5 -34 -27 -49 -50 -15 -22 -29 -40 -31 -40 -2 0 -1
20 3 45 6 44 6 45 -22 45 -39 0 -74 -10 -74 -21 0 -5 9 -9 20 -9 25 0 25 -17
0 -135 -10 -49 -15 -94 -10 -98 15 -16 50 12 50 40 0 34 31 97 70 146 33 38
60 48 60 21 0 -9 7 -14 18 -12 12 2 17 13 17 38 0 38 -14 46 -52 30z"/>
<path d="M3133 745 c-42 -18 -61 -56 -45 -89 6 -13 33 -36 61 -51 60 -33 73
-61 41 -87 -38 -31 -94 -18 -102 24 -4 24 -25 9 -33 -24 -6 -25 -5 -27 40 -33
100 -16 170 22 163 88 -2 25 -13 37 -63 67 -65 40 -76 66 -37 86 33 16 76 3
80 -24 5 -34 32 -27 32 8 0 24 -6 33 -26 40 -35 14 -73 12 -111 -5z"/>
<path d="M2120 735 c-10 -13 -9 -15 9 -15 26 0 26 -4 -3 -116 -15 -61 -20 -97
-14 -108 12 -21 62 -21 82 0 22 22 20 27 -9 20 -14 -4 -25 -3 -25 1 0 5 13 59
29 121 l29 112 -43 0 c-26 0 -47 -6 -55 -15z"/>
<path d="M787 723 c-24 -23 12 -55 38 -33 12 10 13 16 4 26 -12 15 -31 18 -42
7z"/>
<path d="M4173 714 c-9 -24 11 -38 37 -24 17 9 19 14 9 26 -15 19 -38 18 -46
-2z"/>
<path d="M4081 646 c-13 -15 -6 -56 8 -56 5 0 14 7 21 15 9 11 9 18 -3 35 -12
18 -16 18 -26 6z"/>
<path d="M887 643 c-11 -10 -8 -41 4 -49 6 -3 18 1 27 9 13 13 13 19 2 31 -14
17 -23 20 -33 9z"/>
<path d="M990 545 c-16 -19 8 -59 27 -43 17 14 17 45 -1 51 -8 3 -20 0 -26 -8z"/>
<path d="M3972 548 c-8 -8 -9 -15 -1 -25 15 -17 34 -17 48 1 10 12 8 17 -8 25
-24 14 -24 14 -39 -1z"/>
<path d="M1095 470 c-8 -24 1 -40 21 -40 20 0 29 27 14 45 -17 20 -27 19 -35
-5z"/>
<path d="M3861 471 c-14 -26 12 -50 34 -31 11 9 12 17 4 31 -5 10 -14 19 -19
19 -5 0 -14 -9 -19 -19z"/>
<path d="M1204 399 c-3 -6 -1 -22 6 -35 10 -18 16 -21 27 -13 18 15 16 46 -3
53 -21 8 -22 8 -30 -5z"/>
<path d="M3746 394 c-12 -31 21 -47 43 -21 8 10 7 17 -1 25 -17 17 -35 15 -42
-4z"/>
<path d="M1320 323 c0 -10 5 -25 10 -33 8 -13 11 -13 26 2 9 9 14 24 11 32 -9
22 -47 21 -47 -1z"/>
<path d="M3637 333 c-24 -23 12 -55 38 -33 12 10 13 16 4 26 -12 15 -31 18
-42 7z"/>
<path d="M3517 283 c-11 -10 -8 -41 4 -49 6 -3 18 1 27 9 13 13 13 19 2 31
-14 17 -23 20 -33 9z"/>
<path d="M1437 266 c-3 -8 2 -21 12 -30 16 -15 20 -15 31 -1 7 8 10 22 6 30
-7 19 -42 20 -49 1z"/>
<path d="M1571 227 c-14 -17 -4 -47 15 -47 22 0 29 29 12 46 -13 13 -16 13
-27 1z"/>
<path d="M3391 216 c-14 -17 9 -39 33 -30 20 8 21 30 0 38 -21 8 -20 8 -33 -8z"/>
<path d="M3270 181 c-10 -20 -4 -51 10 -51 19 0 31 29 20 49 -13 26 -17 26
-30 2z"/>
<path d="M1690 174 c-11 -12 -10 -18 3 -32 16 -15 18 -15 34 0 13 14 14 20 3
32 -7 9 -16 16 -20 16 -4 0 -13 -7 -20 -16z"/>
<path d="M3142 139 c-17 -27 2 -56 24 -38 18 14 18 33 1 47 -10 8 -16 6 -25
-9z"/>
<path d="M1820 134 c-11 -12 -10 -18 3 -32 16 -15 18 -15 34 0 13 14 14 20 3
32 -16 20 -24 20 -40 0z"/>
<path d="M1943 94 c-3 -8 1 -22 9 -30 13 -13 16 -13 27 0 7 9 11 23 7 31 -7
20 -35 19 -43 -1z"/>
<path d="M3004 99 c-3 -6 1 -18 10 -27 15 -15 17 -15 32 0 19 19 11 38 -16 38
-10 0 -22 -5 -26 -11z"/>
<path d="M2079 74 c-10 -12 -9 -18 3 -31 19 -18 38 -10 38 17 0 24 -25 33 -41
14z"/>
<path d="M2874 76 c-3 -8 0 -24 6 -36 9 -17 14 -19 26 -9 19 15 18 45 -2 53
-22 8 -24 8 -30 -8z"/>
<path d="M2211 56 c-14 -17 9 -39 33 -30 20 8 21 30 0 38 -21 8 -20 8 -33 -8z"/>
<path d="M2345 50 c-8 -24 1 -40 21 -40 20 0 29 27 14 45 -17 20 -27 19 -35
-5z"/>
<path d="M2747 63 c-24 -23 12 -55 38 -33 12 10 13 16 4 26 -12 15 -31 18 -42
7z"/>
<path d="M2612 48 c-8 -8 -9 -15 -1 -25 15 -17 34 -17 48 1 10 12 8 17 -8 25
-24 14 -24 14 -39 -1z"/>
<path d="M2470 41 c0 -37 32 -55 44 -25 10 27 7 34 -19 34 -14 0 -25 -4 -25
-9z"/>
</g>
</svg>
