<?xml version="1.0" standalone="no"?>
<!DOCTYPE svg PUBLIC "-//W3C//DTD SVG 20010904//EN"
 "http://www.w3.org/TR/2001/REC-SVG-20010904/DTD/svg10.dtd">
<svg version="1.0" xmlns="http://www.w3.org/2000/svg"
 width="500.000000pt" height="500.000000pt" viewBox="0 0 500.000000 500.000000"
 preserveAspectRatio="xMidYMid meet">
<metadata>
Created by potrace 1.15, written by Peter Selinger 2001-2017
</metadata>
<g transform="translate(0.000000,500.000000) scale(0.100000,-0.100000)"
fill="#000000" stroke="none">
<path d="M2351 4976 c-14 -17 -5 -59 12 -53 23 7 32 36 16 52 -14 14 -17 14
-28 1z"/>
<path d="M2479 4974 c-10 -12 -9 -18 4 -31 13 -13 19 -14 31 -3 21 17 20 27
-3 39 -14 8 -22 7 -32 -5z"/>
<path d="M2617 4983 c-11 -10 -8 -41 4 -49 6 -3 18 1 27 9 13 13 13 19 2 31
-14 17 -23 20 -33 9z"/>
<path d="M2213 4954 c-3 -8 1 -22 9 -30 13 -13 16 -13 28 0 10 13 10 19 0 31
-16 19 -29 19 -37 -1z"/>
<path d="M2744 4959 c-3 -6 1 -18 10 -27 15 -15 17 -15 34 1 15 16 15 19 2 27
-20 13 -37 12 -46 -1z"/>
<path d="M2082 4943 c-13 -24 9 -58 26 -41 16 16 15 33 -2 47 -12 10 -17 9
-24 -6z"/>
<path d="M2879 4944 c-10 -12 -9 -18 3 -31 14 -14 19 -14 37 -1 17 12 19 17 9
25 -27 21 -36 22 -49 7z"/>
<path d="M1950 4915 c-11 -13 -11 -19 4 -33 15 -15 18 -15 26 -2 22 33 -6 64
-30 35z"/>
<path d="M3013 4923 c-18 -7 -16 -28 3 -44 14 -11 18 -10 30 6 10 13 11 22 3
32 -12 14 -16 15 -36 6z"/>
<path d="M1823 4889 c-27 -27 13 -51 47 -29 13 8 12 11 -5 24 -24 19 -28 19
-42 5z"/>
<path d="M3141 4887 c-15 -19 -3 -49 18 -45 9 2 16 13 16 27 0 29 -17 37 -34
18z"/>
<path d="M1693 4849 c-6 -6 -9 -18 -6 -25 7 -18 37 -18 52 0 10 12 8 17 -8 25
-24 14 -24 14 -38 0z"/>
<path d="M3270 4845 c-9 -11 -8 -19 3 -36 15 -21 15 -21 26 -1 6 12 11 25 11
30 0 17 -28 21 -40 7z"/>
<path d="M1570 4811 c-10 -19 -9 -26 3 -38 29 -30 49 6 23 42 -13 18 -14 18
-26 -4z"/>
<path d="M3397 4803 c-11 -10 -8 -41 5 -49 17 -11 40 26 27 43 -13 14 -22 16
-32 6z"/>
<path d="M1441 4747 c-8 -10 -7 -19 3 -32 12 -16 16 -17 30 -6 20 17 21 37 0
45 -21 8 -20 8 -33 -7z"/>
<path d="M3517 4753 c-24 -23 12 -55 38 -33 12 10 13 16 4 26 -12 15 -31 18
-42 7z"/>
<path d="M1324 4685 c-12 -29 15 -45 45 -26 12 8 12 12 2 25 -17 20 -40 21
-47 1z"/>
<path d="M3635 4679 c-10 -30 11 -48 32 -27 13 14 14 20 3 32 -17 22 -27 20
-35 -5z"/>
<path d="M1203 4614 c-3 -8 1 -22 9 -30 13 -13 16 -13 27 0 7 9 11 23 7 31 -7
20 -35 19 -43 -1z"/>
<path d="M3752 4608 c4 -27 18 -31 43 -12 17 13 18 16 5 24 -28 18 -52 12 -48
-12z"/>
<path d="M1101 4556 c-16 -19 -7 -46 14 -46 22 0 30 29 13 46 -13 13 -16 13
-27 0z"/>
<path d="M3864 4545 c-4 -9 -2 -21 3 -26 14 -14 45 1 41 20 -4 22 -37 26 -44
6z"/>
<path d="M987 4473 c-12 -12 -7 -31 10 -37 19 -8 48 17 39 33 -8 12 -39 15
-49 4z"/>
<path d="M3964 4469 c-3 -6 0 -18 9 -26 12 -12 19 -13 36 -3 18 9 20 14 10 26
-14 17 -45 19 -55 3z"/>
<path d="M884 4385 c-7 -18 3 -35 22 -35 20 0 30 30 13 41 -20 12 -29 11 -35
-6z"/>
<path d="M4074 4385 c-9 -23 15 -48 32 -34 19 15 18 35 -2 43 -22 8 -24 8 -30
-9z"/>
<path d="M4175 4299 c-10 -30 11 -48 32 -27 13 14 14 20 3 32 -17 22 -27 20
-35 -5z"/>
<path d="M787 4303 c-24 -23 12 -55 38 -33 12 10 13 16 4 26 -12 15 -31 18
-42 7z"/>
<path d="M690 4204 c-11 -12 -10 -18 3 -31 15 -15 18 -15 37 2 19 17 19 19 2
31 -22 17 -27 17 -42 -2z"/>
<path d="M4270 4205 c-17 -21 6 -61 26 -44 18 15 18 45 0 52 -8 3 -20 0 -26
-8z"/>
<path d="M1593 4160 c-28 -12 -30 -30 -3 -30 11 0 20 -5 20 -10 0 -9 -51 -260
-65 -318 -5 -21 -2 -23 21 -20 24 3 29 9 39 53 13 57 71 152 98 161 36 11 39
-10 18 -100 -12 -48 -21 -94 -21 -102 0 -19 46 -29 76 -15 29 13 33 35 4 26
-26 -8 -26 12 1 118 25 98 18 127 -31 127 -24 0 -42 -11 -79 -49 l-49 -50 20
87 c27 124 27 127 -2 129 -14 1 -35 -2 -47 -7z"/>
<path d="M2963 4160 c-28 -12 -30 -30 -3 -30 11 0 20 -5 20 -10 0 -9 -51 -260
-65 -318 -5 -21 -2 -23 21 -20 24 3 29 9 39 53 13 57 71 152 99 161 35 11 38
-10 17 -100 -12 -48 -21 -94 -21 -102 0 -19 46 -29 76 -15 29 13 33 35 4 26
-26 -8 -26 15 0 115 24 91 24 95 4 114 -29 30 -62 19 -115 -36 -27 -29 -48
-46 -45 -38 6 19 46 195 46 204 0 9 -51 6 -77 -4z"/>
<path d="M3768 4163 c-24 -6 -23 -33 1 -33 13 0 18 -6 16 -17 -15 -72 -12 -69
-54 -65 -108 11 -206 -117 -171 -223 19 -59 63 -70 120 -31 l35 23 10 -21 c14
-27 57 -32 81 -9 17 17 17 18 -7 21 l-26 3 33 154 c17 85 35 166 38 180 6 23
4 25 -26 24 -18 -1 -41 -3 -50 -6z m-20 -145 c40 -40 -39 -208 -99 -208 -10 0
-25 13 -34 30 -15 28 -14 33 15 96 16 37 38 73 48 80 21 17 54 18 70 2z"/>
<path d="M1197 4153 c-14 -13 -6 -23 17 -23 14 0 27 -4 30 -8 2 -4 -10 -75
-27 -157 -31 -147 -33 -150 -60 -153 -15 -2 -27 -9 -27 -18 0 -11 16 -14 74
-14 41 0 81 3 90 6 26 10 18 24 -14 24 -17 0 -30 5 -30 13 0 17 60 289 66 299
3 4 16 8 30 8 15 0 24 6 24 15 0 12 -16 15 -83 15 -46 0 -87 -3 -90 -7z"/>
<path d="M600 4104 c-11 -12 -10 -18 3 -31 15 -15 18 -15 37 2 19 17 19 19 2
31 -22 17 -27 17 -42 -2z"/>
<path d="M4361 4106 c-18 -22 4 -62 25 -45 18 15 18 33 0 48 -10 9 -16 8 -25
-3z"/>
<path d="M1965 4038 c-32 -17 -76 -61 -91 -90 -21 -41 -18 -120 7 -152 26 -33
62 -34 106 0 l33 25 10 -25 c10 -28 37 -34 71 -16 25 14 25 34 -1 27 -26 -7
-26 14 0 113 11 41 20 82 20 92 0 32 -111 51 -155 26z m92 -25 c11 -27 -15
-123 -42 -159 -34 -45 -64 -53 -87 -24 -21 25 -17 70 10 129 26 56 105 92 119
54z"/>
<path d="M2223 4043 c-39 -5 -68 -33 -34 -33 27 0 35 -20 51 -133 8 -48 17
-90 22 -93 22 -14 52 15 107 104 33 53 64 109 70 125 10 27 10 27 -34 27 -33
0 -45 -4 -45 -15 0 -9 9 -15 21 -15 24 0 26 6 -30 -94 -51 -91 -51 -91 -71 47
-7 48 -15 86 -19 85 -3 0 -20 -3 -38 -5z"/>
<path d="M2565 4031 c-57 -26 -88 -73 -93 -142 -8 -102 31 -132 136 -104 57
16 81 30 70 41 -3 2 -22 -3 -42 -11 -53 -22 -88 -16 -104 18 -18 38 -5 52 70
73 99 28 130 68 92 122 -19 28 -72 29 -129 3z m85 -36 c0 -33 -29 -61 -76 -74
-21 -6 -40 -9 -42 -7 -6 7 25 71 42 89 10 9 31 17 47 17 24 0 29 -4 29 -25z"/>
<path d="M3328 4030 c-81 -43 -120 -179 -68 -235 13 -14 32 -25 42 -25 28 0
74 27 83 47 7 16 9 15 14 -6 4 -13 14 -29 22 -34 21 -13 65 -1 73 19 5 13 1
15 -19 12 -14 -3 -25 -2 -25 1 0 3 11 49 25 101 14 52 25 100 25 107 0 15 -54
33 -99 33 -20 -1 -53 -10 -73 -20z m110 -28 c6 -41 -28 -134 -60 -164 -39 -36
-62 -36 -77 1 -32 75 43 198 114 189 12 -2 21 -12 23 -26z"/>
<path d="M521 4011 c-16 -29 3 -58 25 -40 17 14 17 20 0 44 -13 18 -14 18 -25
-4z"/>
<path d="M4437 3997 c-3 -7 1 -21 9 -32 14 -18 14 -18 28 0 17 23 10 45 -14
45 -10 0 -20 -6 -23 -13z"/>
<path d="M434 3889 c-3 -6 1 -18 10 -27 14 -14 17 -14 36 3 16 14 17 20 8 27
-18 11 -46 10 -54 -3z"/>
<path d="M4514 3889 c-3 -6 1 -18 10 -27 15 -15 17 -15 32 0 19 19 11 38 -16
38 -10 0 -22 -5 -26 -11z"/>
<path d="M365 3780 c-6 -20 0 -40 13 -40 20 1 34 19 27 39 -8 27 -32 27 -40 1z"/>
<path d="M4590 3785 c-11 -13 -11 -19 3 -33 20 -19 41 -5 35 24 -4 24 -22 28
-38 9z"/>
<path d="M2636 3673 c-9 -26 -16 -65 -16 -87 0 -43 29 -103 55 -113 20 -7 48
-62 69 -132 15 -52 15 -54 -9 -106 -14 -28 -25 -64 -25 -79 0 -16 -7 -53 -16
-84 -16 -53 -16 -57 6 -109 12 -29 19 -61 16 -69 -7 -18 38 -95 89 -153 29
-33 30 -37 33 -157 l4 -122 -35 -35 c-20 -19 -41 -54 -48 -78 -7 -24 -18 -47
-23 -51 -19 -13 -24 15 -10 55 19 53 18 79 -6 151 -10 34 -26 86 -34 116 -14
49 -29 78 -67 131 -10 13 -6 37 16 114 24 87 27 109 23 209 -7 164 -31 206
-210 350 -41 33 -58 55 -63 78 -21 112 -24 117 -91 148 -64 30 -90 35 -131 24
-30 -8 -29 -20 2 -28 14 -4 25 -13 25 -22 0 -12 -9 -13 -50 -8 -41 5 -54 3
-70 -11 -34 -31 -26 -46 15 -29 33 14 35 13 51 -11 34 -52 -4 -128 -95 -191
-177 -124 -233 -249 -183 -412 26 -81 70 -142 142 -194 32 -23 60 -48 60 -55
0 -7 -10 -31 -22 -54 -48 -92 -29 -197 57 -323 53 -78 58 -94 40 -129 -22 -43
-36 -140 -29 -199 16 -141 55 -214 143 -270 42 -26 45 -31 42 -67 -4 -57 28
-88 103 -102 75 -13 148 -4 208 27 32 16 64 24 98 24 55 0 104 20 114 45 11
30 6 59 -14 80 l-21 22 69 69 c72 72 95 107 106 161 11 49 -22 113 -78 153
-26 19 -45 36 -43 39 1 3 11 23 22 43 10 21 26 40 35 43 25 8 47 66 91 237 12
51 6 169 -12 217 -6 14 -25 42 -44 61 -18 19 -36 46 -40 60 -4 14 -17 38 -28
54 -51 72 -37 171 35 252 19 22 37 46 40 54 11 30 -20 142 -50 179 -16 20 -37
61 -47 91 -10 30 -29 75 -42 99 -17 33 -22 53 -17 78 10 52 -3 39 -16 -18 -12
-47 -11 -54 13 -97 14 -26 31 -67 37 -92 7 -24 25 -59 40 -77 32 -36 50 -88
50 -145 0 -29 -6 -41 -25 -54 -13 -9 -38 -42 -54 -75 -24 -49 -28 -64 -21 -95
5 -20 5 -46 0 -58 -6 -16 0 -29 26 -59 19 -20 34 -48 34 -61 0 -16 15 -36 45
-60 34 -28 46 -45 50 -74 3 -20 9 -55 14 -77 8 -32 6 -47 -9 -75 -10 -19 -21
-52 -24 -72 -15 -98 -20 -115 -39 -135 -11 -13 -26 -23 -33 -23 -7 0 -17 -19
-21 -42 -7 -35 -13 -44 -33 -46 -14 -2 -41 -18 -60 -36 -50 -47 -116 -96 -128
-96 -6 0 -21 14 -33 31 -16 23 -24 28 -30 17 -6 -9 -9 -3 -9 18 0 40 30 69 64
60 14 -3 28 -15 31 -26 9 -28 16 -25 48 20 15 21 37 40 50 42 12 2 23 10 24
18 10 81 15 92 48 111 49 29 64 85 61 226 l-2 112 -68 71 c-68 70 -68 71 -62
115 5 33 3 50 -9 69 -12 18 -15 38 -12 68 12 97 28 153 53 190 l27 39 -22 67
c-30 89 -46 118 -96 172 l-41 45 6 65 c4 36 10 73 14 83 5 10 4 17 -2 17 -6 0
-17 -21 -26 -47z m-213 -291 c27 -15 69 -49 94 -77 l46 -50 -61 -5 c-83 -7
-90 -20 -9 -20 36 0 77 -4 91 -10 53 -20 17 -92 -52 -106 -18 -4 -35 -11 -39
-17 -11 -18 74 0 107 23 l30 21 0 -83 c0 -46 -7 -110 -15 -143 -28 -105 -95
-200 -158 -224 -39 -15 -152 -13 -214 3 -60 16 -193 75 -193 86 0 4 10 14 23
23 22 15 21 15 -15 14 -46 -1 -85 32 -94 80 -7 40 8 63 42 63 13 0 24 5 24 10
0 6 -13 10 -29 10 -21 0 -36 -8 -50 -29 -12 -16 -21 -34 -21 -40 0 -22 -18
-10 -31 22 -9 20 -14 70 -14 132 0 83 4 107 22 141 47 89 140 146 305 189 106
27 140 25 211 -13z m190 -689 c30 -44 52 -123 33 -123 -6 1 -22 7 -36 15 -29
17 -117 19 -155 5 -16 -6 -32 -25 -44 -52 -22 -50 -108 -138 -119 -122 -4 5
-22 31 -40 57 -25 36 -31 52 -26 73 5 19 4 25 -5 20 -6 -4 -11 -14 -11 -21 0
-8 -15 -18 -32 -23 l-33 -9 31 -16 c40 -21 92 -90 100 -134 9 -47 33 -40 64
19 50 92 92 118 132 81 25 -23 23 -35 -19 -115 -47 -90 -78 -111 -151 -104
-168 15 -301 228 -232 371 15 31 33 52 56 62 31 15 38 15 106 -5 129 -39 247
-24 303 38 27 30 49 24 78 -17z m3 -153 c16 -11 35 -30 42 -42 50 -100 55
-166 17 -203 -51 -52 -95 -11 -95 90 0 46 -11 60 -79 97 -33 18 -41 38 -16 38
12 0 13 4 5 19 -8 16 -6 21 8 24 28 8 85 -3 118 -23z m-67 -197 c1 -18 6 -44
13 -58 10 -22 8 -29 -15 -53 -22 -23 -27 -37 -27 -79 l0 -50 -84 -5 c-107 -6
-167 -38 -204 -110 -36 -69 -23 -75 26 -12 48 62 90 85 170 92 109 10 182 -45
182 -136 0 -54 -20 -95 -76 -153 l-44 -45 59 -18 c82 -24 91 -38 53 -76 -29
-29 -33 -30 -122 -30 -84 0 -93 2 -116 26 -29 28 -29 39 8 179 23 86 59 135
98 135 12 0 18 5 15 10 -3 6 -15 10 -25 10 -10 0 -26 10 -34 22 l-16 22 0 -23
c0 -12 -13 -41 -30 -64 -19 -28 -32 -61 -37 -97 -7 -47 -12 -55 -31 -58 -37
-6 -108 43 -139 96 -26 44 -28 55 -28 157 0 91 4 118 22 158 23 50 38 56 90
36 15 -6 47 -11 71 -11 56 0 96 31 141 108 19 33 42 67 50 77 15 18 16 18 22
0 4 -10 8 -32 8 -50z m284 -224 c55 -15 77 -41 77 -89 0 -79 -51 -144 -173
-220 l-68 -42 48 -32 c61 -40 65 -70 11 -74 -30 -3 -43 3 -75 32 -21 19 -52
38 -68 42 -50 12 -49 15 12 73 33 31 79 84 102 119 24 35 57 72 74 83 l32 19
-26 0 c-29 0 -44 13 -52 45 -3 13 -5 8 -6 -13 -1 -31 -54 -122 -71 -122 -4 0
-13 20 -20 45 -11 41 -11 47 6 66 26 29 114 79 139 79 11 0 37 -5 58 -11z"/>
<path d="M2220 3189 c-45 -20 -100 -65 -100 -81 0 -8 79 32 165 84 30 18 30
18 5 18 -14 0 -45 -10 -70 -21z"/>
<path d="M2295 3064 c-11 -9 -40 -25 -64 -36 -38 -18 -48 -19 -87 -8 -46 13
-66 8 -47 -11 17 -17 93 -22 140 -10 60 16 133 82 91 81 -7 0 -22 -8 -33 -16z"/>
<path d="M2247 2971 c-26 -10 -45 -20 -42 -23 10 -9 77 10 94 26 19 20 9 19
-52 -3z"/>
<path d="M2507 2977 c-5 -13 -19 -17 -54 -17 -44 -1 -47 -2 -29 -15 11 -8 30
-15 41 -15 25 0 59 33 53 51 -3 9 -6 7 -11 -4z"/>
<path d="M2002 2918 c-7 -7 -12 -23 -11 -37 0 -26 0 -26 11 -4 6 13 19 25 30
28 10 4 16 11 13 16 -8 13 -29 11 -43 -3z"/>
<path d="M2511 2855 c-23 -14 -58 -25 -76 -25 -41 0 -67 -9 -59 -21 8 -14 70
-11 107 5 26 11 90 66 76 66 -2 0 -24 -11 -48 -25z"/>
<path d="M2488 2777 c-16 -6 -28 -14 -28 -19 0 -14 17 -9 41 12 27 22 26 22
-13 7z"/>
<path d="M300 3665 c-23 -28 15 -47 50 -25 13 8 12 11 -5 24 -25 19 -30 19
-45 1z"/>
<path d="M4660 3665 c-22 -26 7 -46 39 -26 12 8 12 12 2 25 -17 20 -25 20 -41
1z"/>
<path d="M242 3549 c-12 -18 -11 -24 0 -35 12 -12 17 -12 32 -1 15 11 17 17 7
35 -15 27 -23 28 -39 1z"/>
<path d="M4720 3545 c-19 -22 5 -48 31 -34 10 5 19 14 19 19 0 5 -9 14 -19 19
-14 8 -22 7 -31 -4z"/>
<path d="M1517 3463 c-13 -21 -37 -121 -37 -153 0 -43 38 -119 86 -172 21 -24
41 -62 55 -109 l22 -72 -32 -64 c-19 -40 -31 -79 -31 -106 0 -23 -7 -51 -15
-61 -21 -28 -19 -100 5 -146 11 -22 20 -59 20 -83 0 -48 47 -136 103 -195 35
-36 35 -37 38 -226 2 -99 2 -99 -28 -125 -19 -16 -41 -53 -58 -98 -29 -75 -33
-81 -52 -62 -8 8 -6 26 8 65 24 67 24 98 -1 151 -10 24 -23 67 -29 95 -15 80
-38 137 -77 195 l-35 51 32 114 c52 184 50 326 -6 443 -23 48 -74 100 -214
215 -56 46 -81 89 -81 140 0 51 -25 98 -57 106 -15 4 -43 17 -62 28 -23 13
-52 20 -88 20 -62 0 -90 -18 -51 -33 58 -22 46 -52 -14 -39 -54 12 -95 -2
-108 -38 -14 -35 -8 -38 23 -14 49 39 87 18 87 -50 0 -62 -70 -152 -170 -220
-122 -83 -180 -174 -188 -298 -10 -151 50 -276 181 -376 42 -32 77 -64 77 -70
0 -6 -14 -38 -30 -70 -60 -117 -29 -259 88 -405 l50 -61 -26 -63 c-50 -120
-38 -328 23 -433 31 -53 107 -121 145 -129 28 -6 29 -8 23 -55 -11 -96 46
-133 207 -134 90 -1 98 1 153 32 46 27 72 35 133 39 94 7 124 27 124 82 0 24
-8 49 -21 66 l-22 27 86 86 c47 48 92 101 101 119 21 42 20 119 -2 163 -15 31
-72 82 -120 109 -15 9 -15 12 6 33 12 14 22 29 22 36 0 6 15 26 34 44 26 26
40 56 64 133 67 220 66 212 49 315 -16 94 -43 147 -87 170 -10 5 -24 27 -30
47 -7 21 -22 54 -35 73 -15 24 -25 57 -29 103 -6 79 6 111 80 210 32 43 44 68
44 93 0 48 -33 128 -69 169 -16 19 -33 51 -36 72 -9 55 -25 93 -58 140 -26 37
-29 48 -25 93 7 71 -6 70 -22 -2 l-13 -61 38 -76 c21 -42 40 -91 42 -110 2
-19 17 -49 32 -67 52 -58 87 -184 62 -222 -4 -8 -19 -19 -31 -25 -37 -19 -83
-111 -81 -160 1 -23 2 -64 2 -91 0 -38 5 -53 20 -64 25 -17 49 -64 49 -96 0
-19 10 -32 39 -50 53 -34 71 -62 71 -112 0 -23 7 -60 15 -84 15 -43 9 -71 -21
-95 -7 -5 -15 -35 -17 -65 -3 -30 -8 -68 -12 -85 -3 -16 -8 -39 -10 -51 -3
-12 -23 -33 -45 -48 -34 -22 -40 -31 -40 -61 0 -28 -5 -38 -22 -44 -13 -5 -28
-6 -34 -4 -7 2 -21 -9 -32 -24 -11 -16 -55 -56 -97 -88 l-77 -59 -29 35 c-16
18 -29 37 -29 42 0 4 -5 7 -11 7 -7 0 -9 -10 -4 -27 4 -19 3 -25 -4 -18 -22
23 -17 69 12 98 36 35 60 34 89 -3 l24 -30 36 49 c27 35 45 51 65 53 26 3 29
7 34 53 8 68 14 79 57 101 45 24 52 49 58 194 6 176 3 186 -79 276 l-72 77 0
61 c0 38 -7 73 -18 93 -21 39 -22 71 -3 120 8 21 18 61 21 88 4 31 18 65 36
89 33 46 36 79 11 121 -10 17 -24 50 -31 74 -8 28 -33 65 -72 107 -58 62 -59
64 -59 121 0 32 5 78 11 102 9 41 7 63 -4 44z m-284 -384 c23 -12 71 -52 107
-88 l65 -66 -64 -8 c-91 -11 -111 -26 -36 -27 80 -1 134 -14 159 -40 l21 -21
-39 -35 c-22 -19 -60 -40 -85 -48 -60 -17 -35 -31 29 -16 26 6 56 20 66 31 33
36 37 23 31 -93 -12 -212 -69 -338 -185 -410 -52 -32 -177 -32 -282 1 -75 23
-204 83 -214 99 -3 5 6 14 19 20 37 17 30 28 -15 24 -33 -3 -44 1 -69 26 -35
35 -47 74 -35 111 7 21 18 27 48 31 35 4 37 7 23 19 -10 8 -27 11 -42 7 -27
-7 -65 -59 -65 -88 0 -27 -14 -22 -33 12 -44 75 -41 254 7 348 34 66 83 107
193 159 155 74 312 94 396 52z m243 -837 c29 -48 51 -118 41 -128 -2 -2 -24 5
-48 16 -50 22 -126 25 -179 7 -27 -9 -41 -24 -65 -69 -16 -31 -51 -80 -76
-108 l-46 -53 -47 73 c-41 62 -47 77 -41 106 3 21 2 34 -5 34 -5 0 -10 -8 -10
-17 0 -25 -30 -53 -57 -53 -31 0 -30 -16 2 -24 44 -11 103 -79 120 -141 23
-79 49 -74 89 17 25 56 77 108 108 108 19 0 68 -45 68 -61 0 -16 -64 -133 -96
-175 -36 -46 -82 -60 -153 -44 -78 17 -120 41 -170 95 -65 71 -101 155 -101
239 0 78 26 148 63 167 22 12 78 9 252 -15 126 -17 180 -6 234 48 51 51 77 46
117 -22z m-9 -168 c43 -25 73 -67 73 -103 0 -10 5 -21 12 -23 6 -2 13 -31 16
-64 4 -53 1 -64 -19 -86 -33 -36 -61 -42 -90 -20 -20 17 -23 29 -25 93 -2 82
1 76 -94 135 -49 30 -53 35 -32 40 24 7 29 28 10 41 -18 11 38 22 77 16 17 -3
49 -16 72 -29z m-77 -204 c0 -52 14 -100 32 -111 7 -5 -2 -20 -25 -41 -42 -40
-52 -72 -39 -122 l10 -36 -78 0 c-148 0 -259 -67 -284 -172 -10 -42 8 -33 41
21 20 31 48 59 79 77 44 26 58 29 139 29 113 0 159 -19 186 -79 23 -50 23 -68
3 -137 -12 -42 -28 -66 -74 -111 -32 -32 -56 -59 -52 -61 4 -2 40 -14 80 -26
63 -19 72 -24 72 -45 0 -15 -12 -35 -31 -50 -28 -24 -38 -26 -122 -25 -178 1
-196 23 -155 184 36 141 60 193 95 205 15 6 35 13 43 16 13 4 13 6 0 14 -8 6
-25 10 -37 10 -13 0 -24 8 -28 20 -8 26 -25 26 -18 0 4 -13 -8 -39 -32 -74
-24 -35 -38 -69 -41 -97 -12 -101 -23 -108 -108 -68 -54 25 -66 38 -103 109
-26 50 -28 64 -28 165 0 89 4 123 23 177 13 37 28 68 35 71 6 2 40 -5 76 -15
72 -21 127 -18 166 8 23 15 57 62 125 171 17 29 36 50 41 47 5 -3 9 -27 9 -54z
m367 -299 c49 -23 63 -45 63 -103 0 -86 -69 -167 -217 -258 -29 -17 -53 -38
-53 -46 0 -7 18 -23 39 -34 22 -11 47 -30 56 -42 14 -21 14 -24 -2 -35 -35
-26 -79 -16 -132 32 -30 26 -65 47 -86 51 -19 3 -35 9 -35 13 0 14 100 111
115 111 8 0 21 16 30 36 18 43 112 164 128 165 7 0 -3 7 -20 15 -21 9 -35 24
-39 40 -6 22 -8 24 -16 10 -5 -9 -6 -25 -3 -36 4 -14 -6 -37 -34 -76 l-41 -57
-11 29 c-6 16 -12 49 -12 72 l-2 44 75 43 c86 50 130 56 197 26z"/>
<path d="M1023 2849 c-54 -21 -143 -92 -131 -104 4 -4 47 14 95 40 96 52 113
63 113 76 0 13 -19 10 -77 -12z"/>
<path d="M1074 2681 c-61 -44 -100 -54 -156 -39 -49 12 -70 6 -50 -14 17 -17
133 -22 175 -9 41 14 83 44 97 72 16 30 -18 25 -66 -10z"/>
<path d="M1405 2685 c-23 -10 -25 -13 -10 -14 11 0 31 6 45 14 32 18 5 19 -35
0z"/>
<path d="M1080 2595 c-14 -7 -42 -17 -64 -20 -24 -5 -34 -10 -26 -15 23 -14
120 19 120 40 0 12 0 12 -30 -5z"/>
<path d="M1336 2585 c-11 -8 -38 -15 -59 -15 -34 0 -38 -2 -27 -15 27 -33 110
-9 110 31 0 17 0 17 -24 -1z"/>
<path d="M740 2509 c-7 -11 -9 -28 -5 -37 5 -14 9 -12 21 11 8 15 21 27 29 27
8 0 15 5 15 10 0 19 -49 10 -60 -11z"/>
<path d="M1367 2460 c-42 -33 -91 -50 -129 -43 -38 6 -62 -12 -37 -28 36 -23
123 0 176 46 41 35 31 57 -10 25z"/>
<path d="M1320 2352 c-33 -15 -33 -16 -11 -20 13 -2 31 3 39 12 23 23 12 25
-28 8z"/>
<path d="M190 3425 c-10 -12 -10 -18 0 -29 16 -20 42 -8 38 17 -4 26 -21 32
-38 12z"/>
<path d="M4764 3419 c-3 -6 0 -18 9 -26 12 -12 18 -13 35 -2 16 10 18 16 10
26 -13 16 -44 17 -54 2z"/>
<path d="M144 3303 c-14 -23 -7 -43 16 -43 22 0 34 28 19 46 -15 18 -22 18
-35 -3z"/>
<path d="M4821 3306 c-16 -19 -7 -46 14 -46 22 0 30 29 13 46 -13 13 -16 13
-27 0z"/>
<path d="M102 3167 c-7 -8 -6 -18 4 -32 13 -18 15 -18 30 -3 19 18 12 48 -9
48 -8 0 -19 -6 -25 -13z"/>
<path d="M4855 3170 c-8 -12 3 -50 14 -50 5 0 14 7 21 15 10 12 10 18 0 30
-14 17 -26 19 -35 5z"/>
<path d="M3605 3155 c-89 -16 -153 -35 -164 -49 -11 -14 -50 -199 -44 -208 2
-5 26 -8 52 -8 l49 0 4 55 c6 72 31 105 94 127 58 20 149 23 184 5 13 -7 35
-28 48 -47 20 -29 23 -45 20 -90 -8 -114 -33 -148 -328 -444 -237 -240 -290
-301 -290 -337 0 -5 132 -9 330 -9 182 0 330 3 330 6 0 3 11 55 25 116 14 60
22 114 19 119 -3 5 -25 9 -49 9 -43 0 -44 -1 -50 -37 -12 -73 -15 -83 -35 -93
-12 -6 -89 -9 -204 -8 l-184 3 180 160 c328 291 408 384 424 492 18 123 -66
218 -217 243 -79 12 -105 12 -194 -5z"/>
<path d="M77 3043 c-11 -10 -8 -41 5 -49 17 -11 40 26 27 43 -13 14 -22 16
-32 6z"/>
<path d="M4891 3041 c-17 -11 -7 -41 12 -41 8 0 20 7 28 16 10 13 10 17 -2 25
-17 11 -21 11 -38 0z"/>
<path d="M51 2916 c-16 -19 -7 -46 14 -46 22 0 30 29 13 46 -13 13 -16 13 -27
0z"/>
<path d="M4912 2908 c-13 -13 2 -38 23 -38 21 0 36 25 23 38 -7 7 -17 12 -23
12 -6 0 -16 -5 -23 -12z"/>
<path d="M30 2775 c-22 -26 7 -46 39 -26 12 8 12 12 2 25 -17 20 -25 20 -41 1z"/>
<path d="M4933 2779 c-15 -15 -5 -39 16 -39 29 0 43 21 23 36 -21 17 -25 17
-39 3z"/>
<path d="M20 2650 c-13 -25 3 -52 26 -43 18 7 18 37 0 52 -12 10 -17 8 -26 -9z"/>
<path d="M4945 2644 c-14 -15 -15 -19 -2 -32 13 -13 18 -13 36 0 21 15 21 15
2 32 -17 16 -20 16 -36 0z"/>
<path d="M13 2513 c-21 -8 -15 -30 9 -36 22 -6 41 9 35 28 -4 12 -26 16 -44 8z"/>
<path d="M4935 2506 c-19 -14 -19 -15 8 -27 31 -14 52 -2 41 24 -8 21 -24 22
-49 3z"/>
<path d="M20 2375 c-23 -28 21 -50 48 -23 9 9 7 14 -6 24 -22 17 -27 17 -42
-1z"/>
<path d="M4940 2375 c-10 -13 -10 -19 5 -35 18 -20 18 -20 32 0 12 17 12 24 3
35 -16 19 -24 19 -40 0z"/>
<path d="M26 2243 c-9 -21 14 -45 33 -34 8 5 11 16 6 30 -8 25 -30 28 -39 4z"/>
<path d="M4930 2231 c0 -24 21 -32 43 -17 12 10 14 15 5 24 -19 19 -48 14 -48
-7z"/>
<path d="M4911 2111 c-16 -28 14 -51 36 -28 13 13 14 19 3 31 -17 21 -27 20
-39 -3z"/>
<path d="M43 2104 c-3 -8 1 -22 9 -30 13 -13 16 -13 27 0 7 9 11 23 7 31 -7
20 -35 19 -43 -1z"/>
<path d="M70 1984 c-11 -12 -10 -18 3 -31 22 -23 52 0 36 28 -12 23 -22 24
-39 3z"/>
<path d="M4881 1977 c-9 -11 -8 -17 4 -27 19 -16 47 -5 43 17 -4 23 -31 28
-47 10z"/>
<path d="M101 1846 c-18 -21 11 -41 39 -26 17 9 19 14 9 26 -15 18 -33 18 -48
0z"/>
<path d="M4857 1853 c-24 -23 12 -55 38 -33 12 10 13 16 4 26 -12 15 -31 18
-42 7z"/>
<path d="M141 1717 c-8 -11 -6 -18 8 -31 19 -17 20 -17 31 3 18 35 -13 58 -39
28z"/>
<path d="M4814 1715 c-13 -32 23 -48 47 -19 10 13 10 17 -2 25 -21 13 -39 11
-45 -6z"/>
<path d="M4770 1600 c-13 -25 -6 -40 21 -40 23 0 26 32 5 49 -12 10 -17 8 -26
-9z"/>
<path d="M192 1598 c-13 -13 2 -38 24 -38 20 0 27 19 14 35 -15 18 -22 19 -38
3z"/>
<path d="M3321 1541 c-8 -14 -6 -22 8 -35 16 -15 19 -15 36 4 14 16 15 22 5
35 -17 20 -37 19 -49 -4z"/>
<path d="M4720 1485 c-9 -11 -11 -22 -4 -32 13 -21 25 -21 38 -1 8 14 7 21 -5
33 -14 15 -17 15 -29 0z"/>
<path d="M240 1474 c-11 -12 -10 -18 3 -32 16 -15 18 -15 34 0 13 14 14 20 3
32 -7 9 -16 16 -20 16 -4 0 -13 -7 -20 -16z"/>
<path d="M2141 1431 c-45 -6 -71 -31 -32 -31 28 0 27 -16 -8 -175 -22 -101
-33 -132 -50 -143 -36 -25 -23 -33 46 -30 65 3 95 20 53 31 -12 3 -20 13 -20
25 0 41 11 52 49 52 96 0 188 103 178 198 -9 87 -74 110 -133 47 -18 -19 -34
-35 -36 -35 -2 0 -2 16 0 35 2 19 3 34 1 33 -2 0 -24 -4 -48 -7z m153 -60 c14
-26 13 -33 -5 -82 -20 -54 -67 -109 -93 -109 -28 0 -48 31 -42 64 12 58 50
120 86 138 19 10 36 18 37 18 1 0 9 -13 17 -29z"/>
<path d="M2573 1425 c-12 -8 -31 -31 -43 -51 -27 -43 -34 -39 -21 15 l9 42
-46 -3 c-25 -2 -47 -9 -50 -15 -2 -7 3 -13 12 -13 9 0 16 -8 16 -19 0 -17 -19
-120 -35 -189 -5 -21 -2 -23 21 -20 23 3 29 10 40 57 14 52 36 93 77 139 24
26 47 29 47 6 0 -29 34 -10 41 23 3 18 4 35 1 38 -10 10 -48 5 -69 -10z"/>
<path d="M2765 1424 c-45 -23 -66 -45 -86 -89 -57 -124 30 -212 155 -157 25
12 46 26 46 33 0 7 -7 8 -17 4 -10 -4 -37 -12 -60 -18 -37 -9 -46 -8 -63 8
-13 12 -20 29 -18 44 3 21 13 28 76 47 40 12 79 27 87 34 23 19 20 87 -4 100
-28 15 -82 12 -116 -6z m80 -25 c12 -18 -16 -67 -43 -77 -59 -23 -72 -24 -72
-7 0 24 27 73 47 84 24 14 60 14 68 0z"/>
<path d="M2982 1430 c-43 -10 -65 -30 -35 -30 12 0 24 -4 28 -9 3 -5 14 -58
25 -116 10 -59 20 -109 22 -111 2 -1 14 2 27 9 22 11 161 226 161 249 0 14
-83 5 -88 -9 -2 -8 5 -13 17 -13 12 0 21 -2 21 -5 0 -3 -21 -43 -47 -88 l-47
-82 -8 35 c-4 19 -12 68 -18 108 -7 39 -15 72 -18 71 -4 -1 -22 -5 -40 -9z"/>
<path d="M3505 1426 c-114 -51 -131 -225 -25 -257 110 -33 224 82 191 193 -21
70 -92 97 -166 64z m96 -27 c18 -18 20 -28 15 -71 -11 -77 -33 -124 -67 -138
-24 -10 -33 -10 -53 3 -33 22 -40 60 -21 124 27 92 81 127 126 82z"/>
<path d="M4127 1424 c-58 -32 -53 -95 11 -128 15 -8 38 -26 51 -40 20 -21 22
-28 11 -41 -22 -26 -45 -35 -76 -26 -19 5 -29 14 -29 27 0 10 -7 20 -16 22
-12 2 -18 -6 -21 -28 -6 -39 6 -45 84 -45 71 0 111 26 116 74 4 40 -9 56 -70
87 -57 29 -67 47 -43 74 25 27 61 25 87 -5 11 -13 25 -22 30 -19 14 9 9 52 -8
58 -28 11 -98 5 -127 -10z"/>
<path d="M3257 1423 c-13 -12 -7 -23 13 -23 24 0 24 9 0 -92 -11 -46 -20 -95
-20 -110 0 -26 3 -28 44 -28 31 0 46 5 50 16 5 13 1 15 -19 12 -14 -3 -25 -1
-25 3 0 5 11 52 25 106 14 54 25 104 25 111 0 13 -81 18 -93 5z"/>
<path d="M3747 1423 c-13 -12 -7 -23 14 -23 15 0 19 -5 15 -17 -17 -61 -38
-183 -33 -197 4 -11 19 -16 47 -16 40 0 59 14 104 75 11 16 13 13 12 -26 l-1
-44 41 -3 c31 -2 43 1 48 14 5 13 1 15 -19 12 -14 -3 -25 -1 -25 3 0 5 11 57
25 115 14 58 25 108 25 110 0 2 -11 4 -24 4 -21 0 -27 -8 -42 -52 -38 -118
-134 -219 -134 -144 0 22 22 132 36 179 5 14 -1 17 -39 17 -24 0 -47 -3 -50
-7z"/>
<path d="M301 1356 c-18 -22 15 -51 38 -34 9 7 18 14 20 15 5 4 -31 32 -40 33
-4 0 -12 -6 -18 -14z"/>
<path d="M4660 1355 c-15 -18 -5 -35 20 -35 10 0 22 5 25 10 7 11 -12 40 -25
40 -4 0 -13 -7 -20 -15z"/>
<path d="M365 1240 c-8 -24 1 -40 21 -40 20 0 29 27 14 45 -17 20 -27 19 -35
-5z"/>
<path d="M4591 1236 c-18 -22 11 -41 40 -25 22 11 22 12 4 25 -24 17 -30 17
-44 0z"/>
<path d="M440 1125 c-19 -22 5 -48 31 -34 10 5 19 14 19 19 0 5 -9 14 -19 19
-14 8 -22 7 -31 -4z"/>
<path d="M4516 1123 c-4 -9 -1 -23 7 -30 11 -11 16 -11 32 1 16 12 17 16 6 30
-17 21 -37 20 -45 -1z"/>
<path d="M521 1021 c-14 -9 -7 -51 8 -51 15 0 33 30 27 45 -6 17 -15 19 -35 6z"/>
<path d="M4441 1017 c-9 -11 -8 -17 4 -27 19 -16 47 -5 43 17 -4 23 -31 28
-47 10z"/>
<path d="M595 910 c-7 -11 11 -40 24 -40 3 0 15 7 26 16 17 13 18 16 5 24 -20
13 -47 12 -55 0z"/>
<path d="M4354 905 c-10 -25 10 -39 36 -25 26 14 22 34 -8 38 -13 2 -25 -3
-28 -13z"/>
<path d="M2160 894 c-11 -12 -11 -18 2 -30 12 -13 20 -14 37 -5 26 14 27 27 2
41 -25 13 -26 13 -41 -6z"/>
<path d="M1777 893 c-13 -12 -7 -23 13 -23 11 0 20 -5 20 -12 0 -7 -14 -78
-32 -160 -25 -119 -29 -150 -19 -162 18 -21 93 -30 134 -17 96 32 153 185 92
246 -33 34 -58 31 -105 -11 -45 -41 -45 -41 -25 41 24 99 22 105 -28 105 -24
0 -47 -3 -50 -7z m173 -178 c7 -19 4 -39 -12 -82 -25 -67 -61 -105 -96 -101
-36 4 -43 36 -22 97 32 94 108 145 130 86z"/>
<path d="M2737 893 c-13 -12 -7 -23 13 -23 11 0 20 -6 20 -12 0 -7 -15 -85
-34 -173 -24 -115 -30 -162 -22 -167 24 -16 37 0 55 69 12 45 66 130 93 147
13 8 21 7 29 -1 10 -10 7 -33 -10 -104 -12 -50 -20 -97 -17 -105 7 -17 67 -19
84 -2 18 18 15 27 -8 21 -26 -7 -26 13 1 123 21 81 21 85 4 104 -10 11 -25 20
-34 20 -24 0 -68 -33 -96 -70 -16 -22 -25 -28 -25 -18 0 17 26 150 36 181 5
14 -1 17 -39 17 -24 0 -47 -3 -50 -7z"/>
<path d="M2596 826 c-10 -18 -34 -41 -54 -51 -37 -17 -37 -17 -12 -27 13 -5
26 -10 27 -12 2 -2 -6 -47 -18 -100 -11 -53 -18 -103 -15 -111 7 -18 77 -20
94 -3 21 21 13 30 -19 23 -27 -6 -30 -5 -26 11 3 11 13 56 23 102 13 63 21 82
34 82 9 0 25 7 36 15 19 14 19 14 -1 15 -37 1 -45 13 -36 53 11 48 -7 50 -33
3z"/>
<path d="M690 820 c-14 -26 0 -46 24 -37 20 8 21 31 2 46 -12 10 -17 8 -26 -9z"/>
<path d="M4270 815 c-15 -18 -5 -35 20 -35 10 0 22 5 25 10 7 11 -12 40 -25
40 -4 0 -13 -7 -20 -15z"/>
<path d="M2418 774 c-16 -8 -28 -18 -28 -22 -1 -4 -12 -20 -26 -37 l-26 -30 6
30 c4 17 9 38 12 48 4 14 -1 17 -30 17 -40 0 -66 -8 -66 -21 0 -5 7 -9 15 -9
20 0 19 -33 -4 -142 -10 -48 -17 -89 -14 -91 2 -2 15 -2 28 1 19 3 25 11 25
31 0 36 41 119 78 159 35 38 48 40 55 10 9 -34 39 -3 35 36 -3 36 -21 42 -60
20z"/>
<path d="M3098 773 c-31 -20 -48 -59 -38 -87 3 -10 31 -33 61 -50 46 -28 54
-37 54 -61 0 -23 -6 -32 -26 -39 -37 -13 -79 0 -79 24 0 31 -37 26 -43 -6 -5
-30 21 -44 83 -44 75 0 120 31 120 84 0 37 -15 54 -76 84 -72 37 -66 86 10 80
34 -2 42 -7 44 -25 2 -15 10 -23 23 -23 22 0 25 27 6 54 -20 27 -104 32 -139
9z"/>
<path d="M2093 773 c-20 -8 -15 -23 7 -23 25 0 25 -1 -1 -115 -12 -51 -19
-100 -16 -109 12 -30 97 -16 97 16 0 5 -12 5 -26 2 -22 -6 -25 -4 -21 12 3 11
15 57 27 104 11 47 23 93 26 103 5 14 -1 17 -38 16 -24 0 -49 -3 -55 -6z"/>
<path d="M787 723 c-24 -23 12 -55 38 -33 12 10 13 16 4 26 -12 15 -31 18 -42
7z"/>
<path d="M4174 715 c-13 -32 23 -48 47 -19 10 13 10 17 -2 25 -21 13 -39 11
-45 -6z"/>
<path d="M885 630 c-8 -13 3 -50 15 -50 5 0 14 8 19 18 15 27 -18 58 -34 32z"/>
<path d="M4076 631 c-9 -14 4 -41 19 -41 21 0 36 25 23 38 -14 14 -35 16 -42
3z"/>
<path d="M3973 551 c-10 -16 -9 -22 3 -32 18 -15 38 0 32 27 -4 25 -21 27 -35
5z"/>
<path d="M990 545 c-15 -18 -5 -35 20 -35 10 0 22 5 25 10 7 11 -12 40 -25 40
-4 0 -13 -7 -20 -15z"/>
<path d="M1095 470 c-8 -12 3 -50 14 -50 15 0 33 30 27 45 -6 17 -32 20 -41 5z"/>
<path d="M3861 467 c-8 -10 -7 -19 4 -33 12 -17 15 -18 30 -3 17 17 11 49 -10
49 -7 0 -18 -6 -24 -13z"/>
<path d="M1211 401 c-18 -12 -7 -41 17 -41 30 0 44 21 24 36 -20 16 -23 16
-41 5z"/>
<path d="M3751 397 c-8 -10 -7 -19 4 -33 13 -18 15 -18 31 -2 14 14 15 20 4
32 -15 19 -24 20 -39 3z"/>
<path d="M1314 329 c-3 -6 1 -18 10 -27 15 -15 17 -15 32 0 19 19 11 38 -16
38 -10 0 -22 -5 -26 -11z"/>
<path d="M3637 333 c-24 -23 12 -55 38 -33 12 10 13 16 4 26 -12 15 -31 18
-42 7z"/>
<path d="M1446 271 c-14 -16 -15 -20 -2 -30 11 -9 20 -10 35 -1 26 13 26 22 2
37 -15 10 -22 9 -35 -6z"/>
<path d="M3517 283 c-11 -10 -8 -41 4 -49 6 -3 18 1 27 9 13 13 13 19 2 31
-14 17 -23 20 -33 9z"/>
<path d="M3391 221 c-8 -14 -7 -22 4 -31 22 -19 48 5 34 31 -5 10 -14 19 -19
19 -5 0 -14 -9 -19 -19z"/>
<path d="M1564 215 c-13 -32 23 -48 47 -19 10 13 10 17 -2 25 -21 13 -39 11
-45 -6z"/>
<path d="M3271 181 c-16 -29 3 -58 25 -40 17 14 17 20 0 44 -13 18 -14 18 -25
-4z"/>
<path d="M1690 175 c-8 -10 -8 -19 2 -34 15 -25 24 -26 32 -5 15 38 -10 67
-34 39z"/>
<path d="M1820 134 c-11 -12 -10 -18 3 -32 16 -15 18 -15 34 0 13 14 14 20 3
32 -16 20 -24 20 -40 0z"/>
<path d="M3140 134 c-11 -12 -10 -18 3 -32 16 -15 18 -15 34 0 13 14 14 20 3
32 -16 20 -24 20 -40 0z"/>
<path d="M1944 99 c-3 -6 1 -18 10 -27 15 -15 17 -15 32 0 19 19 11 38 -16 38
-10 0 -22 -5 -26 -11z"/>
<path d="M3004 95 c-4 -9 0 -24 10 -33 15 -15 18 -15 26 -2 6 8 9 22 7 30 -3
21 -36 25 -43 5z"/>
<path d="M2083 79 c-15 -15 -5 -39 16 -39 29 0 43 21 23 36 -21 17 -25 17 -39
3z"/>
<path d="M2874 77 c-3 -9 0 -25 6 -37 9 -17 14 -19 26 -9 8 7 14 22 12 33 -4
25 -36 34 -44 13z"/>
<path d="M2217 73 c-11 -10 -8 -41 3 -48 19 -12 41 15 29 36 -10 20 -21 24
-32 12z"/>
<path d="M2345 50 c-8 -24 1 -40 21 -40 20 0 29 27 14 45 -17 20 -27 19 -35
-5z"/>
<path d="M2611 52 c-7 -13 -6 -23 1 -30 27 -27 54 -3 36 31 -11 22 -25 22 -37
-1z"/>
<path d="M2747 63 c-24 -23 12 -55 38 -33 12 10 13 16 4 26 -12 15 -31 18 -42
7z"/>
<path d="M2470 41 c0 -37 32 -55 44 -25 10 27 7 34 -19 34 -14 0 -25 -4 -25
-9z"/>
</g>
</svg>
