<?xml version="1.0" standalone="no"?>
<!DOCTYPE svg PUBLIC "-//W3C//DTD SVG 20010904//EN"
 "http://www.w3.org/TR/2001/REC-SVG-20010904/DTD/svg10.dtd">
<svg version="1.0" xmlns="http://www.w3.org/2000/svg"
 width="500.000000pt" height="500.000000pt" viewBox="0 0 500.000000 500.000000"
 preserveAspectRatio="xMidYMid meet">
<metadata>
Created by potrace 1.15, written by Peter Selinger 2001-2017
</metadata>
<g transform="translate(0.000000,500.000000) scale(0.100000,-0.100000)"
fill="#000000" stroke="none">
<path d="M2347 4983 c-12 -11 -7 -41 7 -46 8 -3 22 0 32 8 15 11 16 15 5 29
-14 17 -33 21 -44 9z"/>
<path d="M2476 4981 c-10 -15 5 -41 23 -41 29 0 43 21 23 36 -20 16 -39 18
-46 5z"/>
<path d="M2617 4983 c-11 -11 -8 -40 6 -51 19 -16 43 24 26 44 -13 15 -22 18
-32 7z"/>
<path d="M2750 4970 c-14 -26 0 -46 24 -37 20 8 21 31 2 46 -12 10 -17 8 -26
-9z"/>
<path d="M2222 4968 c-16 -16 -15 -33 1 -46 20 -17 44 25 25 44 -11 11 -16 12
-26 2z"/>
<path d="M2081 4951 c-8 -14 -7 -22 5 -32 20 -16 38 2 29 30 -8 26 -21 27 -34
2z"/>
<path d="M2880 4945 c-15 -18 -5 -35 20 -35 10 0 22 5 25 10 7 11 -12 40 -25
40 -4 0 -13 -7 -20 -15z"/>
<path d="M3012 4928 c-7 -7 -12 -17 -12 -24 0 -19 32 -26 48 -10 13 12 13 18
2 30 -15 19 -22 20 -38 4z"/>
<path d="M1945 4920 c-3 -5 -1 -19 6 -31 10 -19 12 -20 26 -6 9 9 13 23 10 31
-7 18 -32 21 -42 6z"/>
<path d="M1817 4886 c-9 -24 18 -39 44 -25 22 11 22 12 4 25 -24 18 -41 18
-48 0z"/>
<path d="M3140 4885 c-11 -13 -11 -19 4 -33 15 -15 18 -15 26 -2 22 33 -6 64
-30 35z"/>
<path d="M1690 4854 c-11 -12 -10 -18 3 -32 16 -15 18 -15 34 0 13 14 14 20 3
32 -7 9 -16 16 -20 16 -4 0 -13 -7 -20 -16z"/>
<path d="M3273 4853 c-17 -6 -16 -28 1 -42 17 -14 41 11 32 34 -6 15 -12 17
-33 8z"/>
<path d="M1570 4805 c-19 -22 5 -48 31 -34 10 5 19 14 19 19 0 5 -9 14 -19 19
-14 8 -22 7 -31 -4z"/>
<path d="M3394 4805 c-7 -17 2 -45 13 -45 4 0 17 7 27 15 20 15 20 15 0 30
-24 18 -33 19 -40 0z"/>
<path d="M1441 4751 c-13 -23 8 -45 33 -35 19 7 21 25 4 42 -17 17 -26 15 -37
-7z"/>
<path d="M3517 4753 c-24 -23 12 -55 38 -33 12 10 13 16 4 26 -12 15 -31 18
-42 7z"/>
<path d="M1327 4693 c-24 -23 12 -55 38 -33 12 10 13 16 4 26 -12 15 -31 18
-42 7z"/>
<path d="M3633 4684 c-3 -8 1 -22 9 -30 13 -13 16 -13 27 0 7 9 11 23 7 31 -7
20 -35 19 -43 -1z"/>
<path d="M3752 4629 c-21 -33 12 -56 37 -26 8 11 7 18 -7 30 -16 15 -19 15
-30 -4z"/>
<path d="M1210 4625 c-15 -18 -5 -35 20 -35 10 0 22 5 25 10 7 11 -12 40 -25
40 -4 0 -13 -7 -20 -15z"/>
<path d="M1094 4549 c-3 -6 0 -17 8 -25 12 -12 17 -12 33 1 17 13 18 16 5 25
-20 13 -37 13 -46 -1z"/>
<path d="M3860 4546 c0 -24 26 -38 40 -22 6 9 9 20 5 26 -9 15 -45 12 -45 -4z"/>
<path d="M991 4476 c-18 -22 4 -62 25 -45 18 15 18 33 0 48 -10 9 -16 8 -25
-3z"/>
<path d="M3970 4474 c-11 -13 -10 -19 8 -36 l21 -21 6 26 c11 43 -10 62 -35
31z"/>
<path d="M885 4390 c-7 -12 3 -50 13 -50 12 0 33 40 27 50 -8 13 -32 13 -40 0z"/>
<path d="M4074 4389 c-3 -6 0 -17 8 -25 12 -12 17 -12 33 1 17 13 18 16 5 25
-20 13 -37 13 -46 -1z"/>
<path d="M4183 4313 c-15 -5 -17 -39 -3 -48 11 -7 50 11 50 23 0 12 -34 29
-47 25z"/>
<path d="M787 4303 c-25 -24 11 -49 40 -28 16 13 16 16 3 25 -17 11 -34 13
-43 3z"/>
<path d="M4270 4215 c-15 -18 -6 -45 14 -45 20 0 29 16 21 40 -8 24 -18 25
-35 5z"/>
<path d="M687 4206 c-3 -8 1 -22 9 -33 14 -17 14 -17 29 1 11 14 12 23 4 33
-15 17 -35 17 -42 -1z"/>
<path d="M602 4108 c-13 -13 2 -38 23 -38 21 0 36 25 23 38 -7 7 -17 12 -23
12 -6 0 -16 -5 -23 -12z"/>
<path d="M4360 4105 c-10 -12 -10 -18 0 -31 12 -13 15 -13 28 0 15 15 10 46
-6 46 -5 0 -15 -7 -22 -15z"/>
<path d="M2380 4063 c-39 -6 -151 -44 -191 -64 -43 -21 -106 -89 -115 -124 -3
-14 -4 -59 -2 -101 3 -75 4 -76 46 -113 41 -35 42 -38 48 -111 l6 -75 -118
-39 c-218 -70 -321 -132 -310 -185 5 -27 15 -226 41 -846 9 -203 20 -386 25
-406 9 -31 18 -40 68 -62 146 -66 365 -93 672 -83 280 8 525 44 625 92 60 28
63 48 60 349 -4 481 -22 981 -36 1006 -29 55 -108 97 -237 129 -107 26 -116
35 -127 122 l-6 58 34 16 c18 9 40 26 47 38 19 30 25 167 11 232 l-13 55 -81
41 c-124 62 -317 93 -447 71z m316 -52 c91 -23 172 -67 190 -103 15 -28 20
-103 7 -96 -140 71 -213 88 -383 88 -142 0 -208 -13 -309 -63 -36 -18 -69 -33
-73 -35 -4 -2 -10 12 -13 31 -17 87 89 165 267 197 73 13 229 3 314 -19z m-20
-156 c90 -16 164 -43 196 -72 23 -21 24 -90 1 -115 -26 -29 -35 -21 -32 28 4
58 -16 74 -126 105 -96 27 -286 32 -375 10 -76 -19 -149 -60 -166 -93 -17 -33
-34 -35 -59 -8 -24 27 -12 39 88 89 140 69 294 87 473 56z m-83 -85 c86 -9
169 -41 199 -77 11 -13 16 -198 6 -209 -3 -2 -77 0 -165 5 -89 5 -223 7 -297
4 l-136 -6 0 94 c0 113 8 128 82 158 98 40 167 47 311 31z m167 -337 c119 -19
276 -64 332 -95 28 -15 50 -37 63 -63 19 -38 20 -64 23 -647 2 -335 2 -608 0
-608 -2 0 -44 14 -94 30 -87 30 -234 71 -251 69 -4 0 40 -17 99 -38 58 -21
123 -48 143 -61 31 -19 35 -25 23 -36 -21 -22 -118 -52 -219 -70 -76 -13 -152
-15 -428 -11 -302 3 -344 6 -417 25 -81 21 -174 60 -174 73 0 11 111 56 250
99 137 43 159 62 47 40 -83 -16 -190 -48 -256 -77 -30 -13 -55 -22 -56 -21 -1
2 -11 172 -21 378 -20 386 -25 794 -11 843 8 29 33 43 195 108 208 85 476 107
752 62z"/>
<path d="M2377 3720 c-27 -5 -55 -14 -63 -20 -16 -14 -20 -135 -4 -145 6 -4
10 18 10 59 l0 65 52 16 c28 8 59 15 67 15 9 0 23 5 31 10 18 12 -21 12 -93 0z"/>
<path d="M2710 3662 c30 -40 25 -106 -8 -110 -28 -4 -19 -22 12 -22 34 0 46
19 46 76 0 57 -17 84 -51 84 -19 0 -19 -1 1 -28z"/>
<path d="M1953 3298 c-38 -12 -88 -62 -79 -77 11 -17 34 -13 41 8 3 11 30 29
60 42 30 13 55 27 55 32 0 10 -38 7 -77 -5z"/>
<path d="M2190 3171 c-30 -3 -54 -9 -52 -13 1 -5 2 -15 2 -23 0 -10 10 -15 30
-15 l29 0 3 -72 c2 -57 6 -73 18 -73 11 0 17 16 21 60 8 78 16 94 48 101 45
10 51 13 51 29 0 16 -39 18 -150 6z"/>
<path d="M2687 3153 l-27 -28 -51 18 c-62 23 -71 17 -77 -55 -5 -64 11 -111
36 -106 14 3 17 14 15 67 -3 57 -1 62 15 56 36 -14 70 -17 76 -6 14 22 26 10
26 -26 0 -58 10 -83 32 -83 18 0 19 5 13 83 -10 122 -12 125 -58 80z"/>
<path d="M2398 3153 c-20 -24 -88 -149 -88 -162 0 -21 26 -11 59 24 18 19 41
35 52 35 13 0 25 -12 35 -35 13 -32 40 -46 56 -29 10 9 -67 179 -83 182 -8 1
-22 -5 -31 -15z"/>
<path d="M2917 3153 c-4 -3 -7 -44 -7 -90 0 -83 0 -83 26 -83 26 0 26 1 19 55
-3 30 -4 55 -2 55 3 0 23 -30 46 -66 23 -36 47 -64 54 -61 8 2 13 31 15 84 2
65 -1 84 -14 98 -21 20 -33 6 -34 -40 l-1 -30 -37 43 c-36 41 -51 49 -65 35z"/>
<path d="M1960 3090 c-12 -33 -26 -58 -30 -55 -4 3 -11 25 -14 49 -7 45 -32
69 -43 41 -3 -9 0 -50 6 -93 11 -75 29 -107 56 -99 10 4 83 180 84 205 1 6 -7
12 -18 12 -14 0 -25 -16 -41 -60z"/>
<path d="M2057 3143 c-2 -5 -2 -47 1 -95 4 -77 7 -88 23 -88 28 0 31 15 24
105 -6 73 -10 85 -26 85 -10 0 -20 -3 -22 -7z"/>
<path d="M2803 3063 c2 -75 5 -88 20 -91 15 -3 17 6 17 87 0 83 -2 91 -19 91
-18 0 -19 -7 -18 -87z"/>
<path d="M2316 2785 c-3 -9 -4 -140 -3 -293 l2 -277 47 -3 47 -3 3 132 3 133
157 -142 c120 -107 165 -142 192 -148 37 -6 66 -1 66 14 0 9 -98 105 -247 243
l-82 76 92 79 c199 171 227 204 170 204 -58 0 -109 -22 -158 -69 -73 -69 -171
-151 -181 -151 -5 0 -8 49 -6 110 l3 110 -49 0 c-35 0 -52 -4 -56 -15z"/>
<path d="M3083 2354 c14 -113 17 -180 10 -189 -5 -6 -19 -16 -33 -22 -25 -11
-25 -11 12 -18 20 -4 41 -4 47 0 15 9 13 191 -3 234 -20 56 -39 53 -33 -5z"/>
<path d="M2180 2063 c-44 -7 -160 -45 -160 -53 0 -14 45 -21 160 -25 97 -3
109 -2 78 7 -21 6 -38 15 -38 20 0 37 443 30 609 -9 l24 -6 -29 -13 -29 -12
38 -1 c43 -1 111 24 103 38 -10 15 -94 31 -260 46 -144 14 -433 18 -496 8z"/>
<path d="M4442 4010 c-15 -24 -8 -40 18 -40 23 0 31 21 15 43 -16 22 -17 21
-33 -3z"/>
<path d="M520 4004 c-11 -12 -11 -18 1 -30 13 -12 18 -12 34 0 16 12 17 16 6
30 -17 20 -25 20 -41 0z"/>
<path d="M440 3905 c-16 -20 -6 -45 20 -45 23 0 28 31 6 49 -10 9 -16 8 -26
-4z"/>
<path d="M4520 3900 c-12 -23 -6 -40 15 -40 19 0 27 17 20 40 -8 26 -21 25
-35 0z"/>
<path d="M370 3790 c-14 -26 0 -46 24 -37 20 8 21 31 2 46 -12 10 -17 8 -26
-9z"/>
<path d="M4594 3793 c-14 -24 -7 -43 17 -43 19 0 24 16 13 44 -8 21 -17 20
-30 -1z"/>
<path d="M302 3673 c-18 -35 12 -59 36 -30 7 8 7 17 -2 30 -16 21 -23 21 -34
0z"/>
<path d="M4661 3676 c-16 -19 -7 -46 14 -46 22 0 30 29 13 46 -13 13 -16 13
-27 0z"/>
<path d="M4721 3556 c-16 -19 -7 -46 14 -46 22 0 30 29 13 46 -13 13 -16 13
-27 0z"/>
<path d="M242 3548 c-8 -8 -9 -15 -1 -25 15 -17 34 -17 48 1 10 12 8 17 -8 25
-24 14 -24 14 -39 -1z"/>
<path d="M4771 3432 c-8 -15 -7 -23 4 -32 16 -13 35 -6 35 14 0 8 -6 19 -14
25 -12 10 -17 8 -25 -7z"/>
<path d="M191 3426 c-15 -18 -3 -48 18 -44 21 4 27 44 7 51 -8 3 -19 0 -25 -7z"/>
<path d="M137 3297 c-5 -13 14 -47 26 -47 4 0 11 10 18 21 9 17 8 23 -2 30
-20 12 -36 11 -42 -4z"/>
<path d="M4813 3294 c-3 -8 1 -22 9 -30 13 -13 16 -13 27 0 7 9 11 23 7 31 -7
20 -35 19 -43 -1z"/>
<path d="M4862 3188 c-15 -15 -15 -45 -1 -54 6 -3 18 0 26 9 14 13 14 18 1 36
-11 16 -17 18 -26 9z"/>
<path d="M103 3164 c-9 -24 11 -38 36 -25 25 14 27 27 5 35 -25 9 -34 7 -41
-10z"/>
<path d="M74 3044 c-9 -34 10 -54 32 -32 13 13 14 19 2 37 -17 28 -26 27 -34
-5z"/>
<path d="M4890 3045 c-10 -12 -10 -18 0 -31 11 -13 15 -13 27 -1 13 13 8 47
-7 47 -4 0 -13 -7 -20 -15z"/>
<path d="M4910 2914 c-11 -12 -10 -18 3 -32 16 -15 18 -15 34 0 13 14 14 20 3
32 -7 9 -16 16 -20 16 -4 0 -13 -7 -20 -16z"/>
<path d="M47 2913 c-23 -22 14 -53 39 -32 11 9 11 15 3 25 -12 15 -31 18 -42
7z"/>
<path d="M26 2781 c-7 -11 3 -41 14 -41 19 0 40 13 40 25 0 21 -44 33 -54 16z"/>
<path d="M4933 2779 c-6 -6 -9 -18 -6 -25 7 -18 37 -18 52 0 10 12 8 17 -8 25
-24 14 -24 14 -38 0z"/>
<path d="M20 2645 c-15 -18 -5 -35 20 -35 10 0 22 5 25 10 7 11 -12 40 -25 40
-4 0 -13 -7 -20 -15z"/>
<path d="M4941 2647 c-8 -10 -7 -19 3 -33 14 -18 15 -18 35 0 20 18 20 20 3
32 -22 17 -27 17 -41 1z"/>
<path d="M4 2508 c-6 -10 20 -38 37 -38 10 0 20 30 13 41 -8 13 -41 11 -50 -3z"/>
<path d="M4947 2513 c-24 -23 12 -55 38 -33 12 10 13 16 4 26 -12 15 -31 18
-42 7z"/>
<path d="M13 2374 c-10 -26 13 -39 44 -25 27 12 27 13 8 27 -25 18 -44 18 -52
-2z"/>
<path d="M4941 2377 c-8 -10 -7 -19 4 -33 13 -18 15 -18 31 -2 14 14 15 20 4
32 -15 19 -24 20 -39 3z"/>
<path d="M31 2247 c-15 -19 -3 -49 18 -45 9 2 16 13 16 27 0 29 -17 37 -34 18z"/>
<path d="M4932 2248 c-8 -8 -9 -15 -1 -25 13 -15 28 -16 49 -3 13 8 12 11 -5
24 -24 19 -28 19 -43 4z"/>
<path d="M43 2104 c-8 -21 16 -35 40 -23 14 8 16 13 6 25 -15 19 -38 18 -46
-2z"/>
<path d="M4905 2110 c-6 -10 15 -50 27 -50 12 0 30 39 23 50 -8 13 -42 13 -50
0z"/>
<path d="M4886 1985 c-6 -17 2 -45 14 -45 15 0 30 28 24 44 -8 20 -30 21 -38
1z"/>
<path d="M65 1980 c-7 -12 12 -50 25 -50 13 0 28 32 23 48 -5 14 -39 16 -48 2z"/>
<path d="M97 1846 c-3 -8 3 -22 13 -31 17 -16 19 -15 30 4 6 12 8 26 5 31 -9
15 -42 12 -48 -4z"/>
<path d="M4855 1850 c-8 -12 3 -50 14 -50 15 0 33 30 27 45 -6 17 -32 20 -41
5z"/>
<path d="M144 1729 c-18 -20 -18 -21 1 -35 16 -12 21 -12 33 0 12 12 12 17 0
35 l-15 21 -19 -21z"/>
<path d="M4813 1715 c-8 -22 16 -36 40 -24 23 13 17 33 -11 37 -14 2 -25 -3
-29 -13z"/>
<path d="M187 1596 c-8 -19 16 -38 37 -30 20 8 21 30 0 38 -24 9 -31 7 -37 -8z"/>
<path d="M4770 1595 c-11 -13 -11 -19 3 -33 20 -19 41 -5 35 24 -4 24 -22 28
-38 9z"/>
<path d="M2841 1526 c-17 -20 -6 -49 16 -44 22 4 26 20 10 42 -12 16 -14 16
-26 2z"/>
<path d="M1795 1516 c-19 -14 -19 -16 -2 -33 15 -15 19 -16 32 -2 13 12 13 18
2 32 -11 16 -14 16 -32 3z"/>
<path d="M1390 1513 c-33 -6 -50 -23 -23 -23 11 0 25 -6 31 -12 5 -7 18 -76
29 -153 18 -138 19 -140 45 -143 24 -3 32 7 83 95 32 54 72 122 89 151 18 30
40 55 54 58 12 3 22 11 22 18 0 7 -21 10 -65 8 -36 -2 -65 -8 -65 -13 0 -5 9
-9 19 -9 11 0 22 -3 24 -7 3 -5 -26 -61 -63 -126 -76 -133 -70 -133 -95 13
l-16 95 28 22 c15 13 26 23 23 24 -35 4 -100 5 -120 2z"/>
<path d="M3375 1500 c-3 -5 3 -10 15 -10 11 0 23 -7 26 -15 3 -8 -7 -69 -22
-135 -25 -110 -30 -122 -58 -140 l-31 -20 83 0 c80 0 107 11 56 24 -18 5 -24
12 -20 24 2 9 7 31 11 48 3 18 14 39 25 49 17 16 20 13 61 -57 24 -40 48 -76
54 -80 14 -11 95 -10 95 1 0 5 -11 11 -23 15 -16 4 -41 33 -74 88 l-51 82 62
49 c33 27 75 56 91 66 l30 16 -69 3 c-39 2 -74 -2 -80 -8 -7 -7 -2 -10 17 -10
15 0 27 -4 27 -9 0 -9 -132 -121 -142 -121 -15 0 16 98 38 117 13 12 24 25 24
28 0 10 -139 5 -145 -5z"/>
<path d="M240 1480 c-10 -18 -9 -25 4 -38 15 -15 17 -15 33 1 16 16 16 18 -4
38 l-21 21 -12 -22z"/>
<path d="M1946 1451 c-14 -22 -34 -42 -46 -46 -23 -7 -27 -25 -5 -25 19 0 19
-24 -1 -111 -9 -38 -13 -76 -10 -84 6 -17 49 -20 77 -5 27 15 23 28 -7 22 -26
-5 -26 -4 -19 38 17 102 29 134 53 140 30 7 33 24 6 28 -19 3 -21 8 -17 43 3
21 3 39 -1 39 -3 0 -17 -18 -30 -39z"/>
<path d="M4713 1474 c-3 -8 1 -22 9 -30 12 -12 17 -12 33 0 16 12 17 16 6 30
-17 20 -40 21 -48 0z"/>
<path d="M2125 1406 c-63 -28 -104 -109 -91 -180 11 -58 68 -75 110 -32 l24
23 11 -23 c10 -24 34 -30 65 -18 23 9 20 24 -5 24 -15 0 -19 5 -15 18 3 9 12
46 21 82 9 36 18 72 21 81 9 33 -85 50 -141 25z m88 -18 c2 -7 -2 -38 -10 -68
-24 -94 -95 -143 -122 -84 -10 22 -8 34 16 82 27 54 59 82 94 82 9 0 19 -6 22
-12z"/>
<path d="M2470 1407 c-9 -7 -26 -25 -39 -42 l-24 -30 7 38 c6 34 5 37 -16 36
-13 -1 -34 -5 -48 -9 -24 -8 -24 -8 -4 -15 20 -6 21 -9 9 -68 -28 -137 -28
-137 -6 -137 14 0 23 9 27 28 8 34 70 146 90 163 11 9 18 9 26 1 8 -8 7 -31
-5 -87 -22 -96 -21 -105 3 -105 13 0 21 9 25 28 15 69 81 172 111 172 18 0 18
-49 -1 -120 -8 -30 -12 -63 -9 -72 7 -22 56 -24 74 -3 10 13 9 15 -9 15 -16 0
-21 5 -17 18 22 82 36 156 31 171 -7 23 -49 35 -74 21 -10 -5 -31 -23 -45 -41
l-26 -31 0 29 c0 48 -43 70 -80 40z"/>
<path d="M3032 1373 c-25 -26 -42 -40 -39 -30 22 61 21 67 -14 67 -19 0 -41
-5 -49 -10 -13 -8 -11 -11 7 -16 17 -5 22 -12 18 -28 -2 -11 -11 -53 -20 -93
-19 -90 -20 -83 10 -83 20 0 25 5 25 25 0 50 78 175 110 175 14 0 12 -56 -5
-120 -8 -30 -12 -63 -9 -72 7 -22 56 -24 74 -3 10 13 9 15 -10 15 -18 0 -21 4
-16 23 20 70 30 159 20 175 -22 34 -53 26 -102 -25z"/>
<path d="M1737 1403 c-12 -11 -7 -23 9 -23 12 0 15 -6 10 -22 -22 -78 -37
-161 -32 -173 7 -20 60 -19 76 0 10 13 9 15 -9 15 -26 0 -26 -4 4 108 14 51
25 95 25 98 0 7 -76 5 -83 -3z"/>
<path d="M2775 1401 c-19 -8 -19 -8 3 -15 27 -9 27 -5 2 -107 -14 -61 -16 -86
-8 -96 11 -14 37 -17 62 -7 23 9 20 24 -4 24 -11 0 -20 1 -20 3 0 1 13 48 29
105 l28 102 -36 -1 c-20 0 -45 -4 -56 -8z"/>
<path d="M303 1359 c-6 -6 -9 -18 -6 -25 7 -18 37 -18 52 0 10 12 8 17 -8 25
-24 14 -24 14 -38 0z"/>
<path d="M4661 1356 c-18 -22 4 -62 25 -45 18 15 18 33 0 48 -10 9 -16 8 -25
-3z"/>
<path d="M363 1234 c-10 -26 13 -39 44 -25 27 12 27 13 8 27 -25 18 -44 18
-52 -2z"/>
<path d="M4591 1237 c-8 -10 -7 -19 4 -33 15 -19 15 -19 30 0 11 14 12 23 4
33 -6 7 -15 13 -19 13 -4 0 -13 -6 -19 -13z"/>
<path d="M4520 1135 c-15 -18 -6 -45 14 -45 20 0 29 16 21 40 -8 24 -18 25
-35 5z"/>
<path d="M441 1126 c-10 -12 -10 -19 2 -36 12 -18 16 -18 26 -6 14 17 11 48
-5 53 -6 2 -17 -3 -23 -11z"/>
<path d="M517 1023 c-24 -23 12 -55 38 -33 12 10 13 16 4 26 -12 15 -31 18
-42 7z"/>
<path d="M4441 1017 c-8 -10 -7 -19 4 -33 15 -18 15 -18 29 -1 26 34 -6 66
-33 34z"/>
<path d="M2087 938 c-22 -12 -21 -25 2 -37 14 -8 22 -6 34 7 15 16 15 19 -2
29 -11 7 -23 8 -34 1z"/>
<path d="M2910 935 c-9 -11 -11 -22 -4 -32 13 -21 25 -21 38 -1 8 14 7 21 -5
33 -14 15 -17 15 -29 0z"/>
<path d="M601 917 c-16 -16 -14 -25 8 -36 14 -8 22 -6 35 8 15 17 15 18 -8 29
-17 7 -27 7 -35 -1z"/>
<path d="M1556 921 c-3 -5 5 -12 19 -15 14 -4 25 -11 25 -16 0 -18 -50 -242
-56 -252 -3 -5 -18 -14 -32 -19 -21 -8 -23 -12 -12 -19 26 -17 150 -7 150 11
0 5 -6 9 -12 9 -36 1 -37 14 -8 145 16 71 33 131 38 133 5 1 18 9 28 17 17 13
11 14 -58 15 -42 0 -79 -4 -82 -9z"/>
<path d="M4359 914 c-15 -18 0 -38 27 -32 25 5 28 25 6 37 -15 8 -23 7 -33 -5z"/>
<path d="M2730 871 c-6 -16 -25 -35 -41 -41 -33 -14 -38 -30 -9 -30 24 0 24 5
1 -96 -12 -53 -15 -87 -9 -98 14 -25 88 -19 88 8 0 7 -9 12 -20 12 -10 -1 -20
1 -21 4 -2 3 3 40 11 82 12 75 14 78 46 88 36 12 37 30 2 30 -18 0 -20 4 -15
35 7 44 -15 48 -33 6z"/>
<path d="M690 820 c-12 -23 -6 -40 15 -40 19 0 27 17 20 40 -8 26 -21 25 -35
0z"/>
<path d="M1867 828 c-9 -7 -28 -28 -42 -47 -26 -36 -34 -25 -15 23 9 25 8 26
-30 26 -43 0 -60 -14 -34 -28 15 -8 14 -17 -4 -105 -17 -85 -17 -97 -4 -102
20 -7 26 1 41 55 20 71 76 150 106 150 13 0 12 -42 -2 -105 -19 -90 -14 -107
29 -103 32 3 53 28 24 28 -20 0 -20 26 -1 105 18 76 18 80 -1 99 -19 19 -44
20 -67 4z"/>
<path d="M2241 823 c-113 -56 -114 -233 -1 -233 48 0 100 18 100 35 0 11 -6
12 -29 4 -16 -6 -44 -9 -63 -7 -29 3 -33 7 -36 34 -3 31 -1 33 63 54 74 25 95
41 95 75 0 53 -62 71 -129 38z m75 -18 c14 -35 -5 -63 -53 -79 -25 -9 -48 -14
-50 -12 -7 7 19 61 39 84 25 25 56 29 64 7z"/>
<path d="M2492 823 c-47 -23 -75 -67 -80 -129 -4 -46 -1 -56 21 -78 18 -18 37
-26 62 -26 38 0 95 24 95 40 0 13 -1 13 -45 -6 -34 -14 -39 -14 -62 1 -23 16
-25 22 -21 71 5 62 31 104 73 119 23 8 30 6 45 -13 24 -29 40 -28 40 2 0 38
-69 48 -128 19z"/>
<path d="M3050 818 c-72 -50 -92 -147 -41 -199 51 -51 138 -34 180 34 24 39
28 122 8 148 -33 43 -97 51 -147 17z m94 -11 c26 -19 25 -81 -2 -140 -23 -51
-39 -62 -76 -53 -33 8 -38 28 -25 103 16 91 55 125 103 90z"/>
<path d="M3382 794 c-26 -27 -42 -39 -39 -28 3 11 8 29 12 42 6 20 3 22 -34
22 -44 0 -65 -18 -32 -27 15 -4 20 -11 16 -23 -3 -9 -12 -52 -20 -95 -12 -62
-13 -80 -3 -86 17 -11 38 9 38 35 1 54 94 185 117 163 4 -4 1 -40 -6 -80 -22
-115 -21 -122 15 -125 19 -2 36 3 44 12 11 14 9 16 -9 16 -25 0 -25 8 -6 80
20 74 19 126 -1 134 -32 12 -48 5 -92 -40z"/>
<path d="M2027 823 c-13 -12 -7 -23 14 -23 15 0 19 -5 15 -17 -2 -10 -14 -66
-26 -125 -28 -133 -59 -172 -83 -104 -6 18 -27 -5 -27 -30 0 -21 4 -24 41 -24
51 0 73 12 87 47 11 26 62 254 62 274 0 10 -73 13 -83 2z"/>
<path d="M2850 820 c-12 -8 -11 -11 8 -16 13 -4 21 -12 19 -18 -15 -40 -39
-166 -34 -180 8 -20 47 -21 73 -1 18 14 18 14 -7 15 l-26 0 24 88 c31 116 30
122 -9 122 -18 0 -40 -5 -48 -10z"/>
<path d="M4270 815 c-15 -18 -5 -35 20 -35 10 0 22 5 25 10 7 11 -12 40 -25
40 -4 0 -13 -7 -20 -15z"/>
<path d="M783 714 c-9 -24 11 -38 36 -25 25 14 27 27 5 35 -25 9 -34 7 -41
-10z"/>
<path d="M4173 714 c-3 -8 1 -22 9 -30 13 -13 16 -13 27 0 7 9 11 23 7 31 -7
20 -35 19 -43 -1z"/>
<path d="M887 643 c-11 -10 -8 -41 4 -49 6 -3 18 1 27 9 13 13 13 19 2 31 -14
17 -23 20 -33 9z"/>
<path d="M4073 624 c-3 -8 1 -22 9 -30 13 -13 16 -13 27 0 7 9 11 23 7 31 -7
20 -35 19 -43 -1z"/>
<path d="M990 545 c-16 -19 8 -59 27 -43 17 14 17 45 -1 51 -8 3 -20 0 -26 -8z"/>
<path d="M3971 547 c-8 -10 -7 -19 4 -33 15 -19 15 -19 30 0 11 14 12 23 4 33
-6 7 -15 13 -19 13 -4 0 -13 -6 -19 -13z"/>
<path d="M1095 470 c-8 -12 3 -50 14 -50 15 0 33 30 27 45 -6 17 -32 20 -41 5z"/>
<path d="M3861 467 c-9 -11 -8 -17 4 -27 19 -16 47 -5 43 17 -4 23 -31 28 -47
10z"/>
<path d="M1203 394 c-7 -19 20 -49 36 -40 16 11 13 43 -5 50 -22 8 -24 8 -31
-10z"/>
<path d="M3751 397 c-8 -10 -7 -19 4 -33 15 -19 15 -19 30 0 11 14 12 23 4 33
-6 7 -15 13 -19 13 -4 0 -13 -6 -19 -13z"/>
<path d="M1320 320 c0 -28 28 -37 48 -16 15 15 15 18 2 26 -26 17 -50 12 -50
-10z"/>
<path d="M3635 330 c-8 -12 3 -50 14 -50 15 0 33 30 27 45 -6 17 -32 20 -41 5z"/>
<path d="M1446 271 c-14 -16 -15 -20 -2 -30 11 -9 20 -10 35 -1 26 13 26 22 2
37 -15 10 -22 9 -35 -6z"/>
<path d="M3523 283 c-18 -6 -16 -42 2 -49 16 -6 45 12 45 27 0 12 -33 27 -47
22z"/>
<path d="M1564 215 c-13 -32 23 -48 47 -19 10 13 10 17 -2 25 -21 13 -39 11
-45 -6z"/>
<path d="M3391 216 c-14 -17 9 -39 33 -30 20 8 21 30 0 38 -21 8 -20 8 -33 -8z"/>
<path d="M1690 174 c-11 -12 -11 -18 2 -30 13 -13 19 -14 36 -3 20 12 20 15 5
31 -20 22 -27 22 -43 2z"/>
<path d="M3270 175 c-9 -11 -11 -22 -4 -32 13 -21 25 -21 38 -1 8 14 7 21 -5
33 -14 15 -17 15 -29 0z"/>
<path d="M3142 139 c-17 -27 2 -56 24 -38 18 14 18 33 1 47 -10 8 -16 6 -25
-9z"/>
<path d="M1820 134 c-11 -12 -10 -18 3 -32 16 -15 18 -15 34 0 13 14 14 20 3
32 -16 20 -24 20 -40 0z"/>
<path d="M3010 105 c-11 -13 -11 -19 3 -33 20 -19 41 -5 35 24 -4 24 -22 28
-38 9z"/>
<path d="M1944 99 c-3 -6 1 -18 10 -27 15 -15 17 -15 32 0 19 19 11 38 -16 38
-10 0 -22 -5 -26 -11z"/>
<path d="M2080 80 c-12 -23 -6 -40 15 -40 19 0 27 17 20 40 -8 26 -21 25 -35
0z"/>
<path d="M2880 75 c-6 -8 -9 -19 -5 -25 8 -13 42 -13 50 0 7 11 -12 40 -25 40
-4 0 -13 -7 -20 -15z"/>
<path d="M2217 63 c-11 -10 -8 -41 5 -49 17 -11 40 26 27 43 -13 14 -22 16
-32 6z"/>
<path d="M2345 50 c-8 -24 1 -40 21 -40 20 0 29 27 14 45 -17 20 -27 19 -35
-5z"/>
<path d="M2611 52 c-7 -13 -6 -23 1 -30 27 -27 54 -3 36 31 -11 22 -25 22 -37
-1z"/>
<path d="M2744 55 c-12 -29 15 -45 45 -26 12 8 12 12 2 25 -17 20 -40 21 -47
1z"/>
<path d="M2470 41 c0 -37 32 -55 44 -25 10 27 7 34 -19 34 -14 0 -25 -4 -25
-9z"/>
</g>
</svg>
