<?xml version="1.0" standalone="no"?>
<!DOCTYPE svg PUBLIC "-//W3C//DTD SVG 20010904//EN"
 "http://www.w3.org/TR/2001/REC-SVG-20010904/DTD/svg10.dtd">
<svg version="1.0" xmlns="http://www.w3.org/2000/svg"
 width="499.000000pt" height="500.000000pt" viewBox="0 0 499.000000 500.000000"
 preserveAspectRatio="xMidYMid meet">
<metadata>
Created by potrace 1.15, written by Peter Selinger 2001-2017
</metadata>
<g transform="translate(0.000000,500.000000) scale(0.100000,-0.100000)"
fill="#000000" stroke="none">
<path d="M2347 4983 c-11 -11 -8 -40 6 -51 19 -16 43 24 26 44 -13 15 -22 18
-32 7z"/>
<path d="M2474 4975 c-12 -29 15 -45 45 -26 12 8 12 12 2 25 -17 20 -40 21
-47 1z"/>
<path d="M2611 4976 c-18 -22 15 -51 38 -34 9 7 18 14 20 15 5 4 -31 32 -40
33 -4 0 -12 -6 -18 -14z"/>
<path d="M2213 4969 c-15 -15 -5 -39 16 -39 29 0 43 21 23 36 -21 17 -25 17
-39 3z"/>
<path d="M2749 4964 c-16 -20 2 -38 30 -29 26 8 27 21 2 34 -14 8 -22 7 -32
-5z"/>
<path d="M2080 4945 c-22 -26 7 -46 39 -26 12 8 12 12 2 25 -17 20 -25 20 -41
1z"/>
<path d="M2880 4945 c-9 -10 -8 -19 1 -36 11 -22 12 -22 25 -4 8 10 14 24 14
31 0 18 -27 25 -40 9z"/>
<path d="M1943 4914 c-3 -8 1 -22 9 -30 13 -13 16 -13 27 0 7 9 11 23 7 31 -7
20 -35 19 -43 -1z"/>
<path d="M3003 4914 c-3 -8 1 -22 9 -30 13 -13 16 -13 27 0 7 9 11 23 7 31 -7
20 -35 19 -43 -1z"/>
<path d="M1820 4894 c-11 -12 -10 -18 3 -32 21 -21 42 -3 32 27 -8 25 -18 27
-35 5z"/>
<path d="M3134 4885 c-12 -29 15 -45 45 -26 12 8 12 12 2 25 -17 20 -40 21
-47 1z"/>
<path d="M1691 4846 c-9 -10 -8 -16 3 -25 20 -17 60 7 44 26 -14 17 -33 17
-47 -1z"/>
<path d="M3263 4844 c-9 -24 11 -38 37 -24 17 9 19 14 9 26 -15 19 -38 18 -46
-2z"/>
<path d="M1572 4818 c-16 -16 -15 -33 2 -47 21 -18 41 11 26 38 -13 25 -12 25
-28 9z"/>
<path d="M3390 4804 c-11 -12 -10 -18 3 -32 16 -15 18 -15 34 0 13 14 14 20 3
32 -7 9 -16 16 -20 16 -4 0 -13 -7 -20 -16z"/>
<path d="M1440 4754 c-11 -12 -10 -18 3 -32 16 -15 18 -15 34 0 13 14 14 20 3
32 -7 9 -16 16 -20 16 -4 0 -13 -7 -20 -16z"/>
<path d="M3510 4754 c-11 -12 -10 -18 3 -31 22 -23 52 0 36 28 -12 23 -22 24
-39 3z"/>
<path d="M1322 4678 c4 -27 18 -31 43 -12 17 13 18 16 5 24 -28 18 -52 12 -48
-12z"/>
<path d="M3627 4686 c-3 -8 1 -22 8 -33 13 -17 14 -17 28 2 8 10 13 25 10 32
-7 17 -39 17 -46 -1z"/>
<path d="M1213 4633 c-16 -6 -17 -29 -3 -38 13 -8 50 3 50 15 0 13 -32 28 -47
23z"/>
<path d="M3753 4633 c-16 -6 -17 -29 -3 -38 13 -8 50 3 50 15 0 13 -32 28 -47
23z"/>
<path d="M3860 4555 c-16 -19 8 -59 27 -43 17 14 17 45 -1 51 -8 3 -20 0 -26
-8z"/>
<path d="M1094 4549 c-3 -6 0 -17 8 -25 13 -13 16 -13 27 0 7 8 10 20 6 26 -8
13 -32 13 -41 -1z"/>
<path d="M991 4486 c-16 -19 -7 -46 14 -46 22 0 30 29 13 46 -13 13 -16 13
-27 0z"/>
<path d="M3964 4475 c-12 -29 15 -45 45 -26 12 8 12 12 2 25 -17 20 -40 21
-47 1z"/>
<path d="M4070 4395 c-9 -11 -9 -18 3 -35 14 -20 14 -20 31 -1 16 17 16 20 1
35 -20 19 -20 19 -35 1z"/>
<path d="M880 4381 c0 -24 13 -33 35 -25 23 9 14 38 -13 42 -16 3 -22 -2 -22
-17z"/>
<path d="M792 4318 c-21 -21 -15 -50 10 -46 27 4 32 18 16 41 -11 14 -16 15
-26 5z"/>
<path d="M4172 4310 c-15 -24 -8 -40 18 -40 23 0 31 21 15 43 -16 22 -17 21
-33 -3z"/>
<path d="M687 4207 c-3 -8 -1 -20 3 -27 7 -12 13 -12 35 0 25 13 25 15 9 27
-23 17 -41 17 -47 0z"/>
<path d="M4267 4213 c-24 -23 12 -55 38 -33 12 10 13 16 4 26 -12 15 -31 18
-42 7z"/>
<path d="M595 4110 c-10 -17 20 -44 40 -36 9 3 15 14 13 23 -4 21 -43 30 -53
13z"/>
<path d="M4357 4113 c-23 -22 14 -53 39 -32 11 9 11 15 3 25 -12 15 -31 18
-42 7z"/>
<path d="M2322 4050 c-94 -25 -187 -75 -220 -119 -23 -30 -27 -46 -31 -118 -3
-92 9 -139 40 -148 30 -10 46 -45 53 -116 l6 -66 -122 -43 c-148 -51 -232 -89
-276 -127 l-33 -28 10 -110 c6 -60 15 -254 21 -430 12 -370 34 -748 44 -764
12 -18 102 -60 164 -76 31 -8 140 -24 242 -35 169 -19 202 -20 390 -10 210 12
342 29 465 60 105 27 122 36 141 72 15 30 16 68 10 428 -3 217 -9 502 -13 634
l-6 239 -30 34 c-39 44 -80 64 -200 98 -55 16 -107 35 -117 44 -13 11 -20 37
-25 81 l-6 66 33 14 c49 22 63 60 63 165 0 139 -9 154 -113 203 -153 72 -338
91 -490 52z m368 -36 c140 -36 200 -84 208 -165 l5 -51 -39 26 c-64 42 -150
66 -276 76 -176 15 -284 -4 -404 -69 -59 -32 -74 -27 -74 25 0 75 125 153 285
178 57 9 230 -3 295 -20z m52 -172 c38 -11 86 -31 108 -46 35 -23 40 -31 40
-64 0 -37 -22 -82 -41 -82 -5 0 -9 22 -9 48 0 35 -5 54 -18 65 -30 28 -169 58
-287 64 -92 5 -124 2 -195 -16 -92 -23 -155 -58 -172 -96 -6 -14 -16 -25 -21
-25 -16 0 -47 31 -47 46 0 19 148 92 234 115 93 25 306 21 408 -9z m-45 -92
c24 -11 57 -29 73 -40 30 -21 30 -21 30 -126 l0 -105 -87 8 c-49 4 -184 7
-300 7 l-213 -1 0 97 c0 87 2 99 23 118 25 23 59 39 132 58 73 20 283 10 342
-16z m101 -321 c122 -24 273 -71 312 -99 62 -44 62 -44 68 -707 2 -332 3 -603
1 -603 -2 0 -40 14 -84 30 -86 33 -257 80 -284 79 -9 0 20 -11 64 -25 85 -26
235 -93 235 -104 0 -14 -120 -59 -202 -77 -117 -25 -714 -26 -828 -1 -83 18
-176 51 -205 72 -18 13 -15 16 40 43 33 16 87 37 120 46 33 10 89 28 125 42
l65 26 -50 -6 c-66 -8 -184 -40 -263 -72 -35 -14 -65 -23 -67 -21 -9 9 -50
851 -48 1003 2 224 5 233 110 281 171 79 258 101 453 114 160 10 308 3 438
-21z"/>
<path d="M2380 3723 c-14 -2 -37 -9 -52 -15 -27 -10 -28 -13 -28 -79 0 -90 18
-100 22 -12 l3 68 80 22 c67 18 74 21 40 21 -22 0 -51 -3 -65 -5z"/>
<path d="M2702 3673 c22 -26 30 -59 23 -93 -5 -24 -12 -30 -33 -31 l-27 -1 28
-10 c42 -15 57 5 58 76 2 61 -7 76 -45 76 -17 0 -18 -2 -4 -17z"/>
<path d="M1944 3296 c-17 -8 -41 -27 -53 -42 -20 -26 -21 -29 -6 -32 9 -2 29
8 43 22 15 14 44 32 65 41 20 8 37 17 37 20 0 10 -56 4 -86 -9z"/>
<path d="M2231 3177 c-52 -4 -96 -9 -98 -10 -1 -2 0 -13 4 -25 4 -16 13 -22
35 -22 l30 0 -7 -70 -7 -70 26 0 c24 0 26 3 26 49 0 71 13 98 50 106 30 6 46
25 38 42 -1 5 -46 5 -97 0z"/>
<path d="M2691 3158 c-26 -32 -44 -33 -109 -7 -44 18 -52 5 -52 -88 0 -77 8
-90 40 -73 18 9 19 17 14 65 -7 60 -7 60 31 43 18 -8 31 -8 50 0 26 12 28 7
37 -78 2 -14 10 -26 21 -28 15 -3 17 6 17 80 0 52 -5 90 -12 100 -12 14 -16
13 -37 -14z"/>
<path d="M2403 3162 c-13 -8 -103 -161 -103 -174 0 -18 29 -6 63 27 20 19 45
35 56 35 14 0 25 -11 35 -35 10 -24 22 -35 35 -35 27 0 26 10 -12 105 -31 77
-48 94 -74 77z"/>
<path d="M1983 3148 c-6 -7 -18 -34 -28 -60 -10 -27 -21 -48 -25 -48 -4 0 -10
17 -14 38 -8 47 -20 66 -38 59 -13 -4 -13 -17 -2 -93 14 -94 22 -109 52 -100
17 6 60 100 87 194 7 25 -15 32 -32 10z"/>
<path d="M2807 3153 c-4 -3 -7 -44 -7 -90 0 -76 2 -83 20 -83 18 0 20 7 20 79
0 53 -4 82 -13 90 -8 6 -17 8 -20 4z"/>
<path d="M2906 3138 c-3 -13 -6 -53 -6 -90 l0 -68 30 0 30 0 -6 55 c-4 30 -4
55 0 55 3 0 20 -24 36 -54 61 -107 83 -98 73 29 -5 72 -14 94 -35 95 -4 0 -8
-21 -10 -47 l-3 -48 -33 48 c-36 51 -66 61 -76 25z"/>
<path d="M2054 3098 c3 -29 6 -72 6 -95 0 -31 4 -43 15 -43 25 0 34 34 28 113
-6 74 -7 77 -31 77 -24 0 -25 -2 -18 -52z"/>
<path d="M2352 2803 l-42 -4 2 -292 3 -292 48 -3 47 -3 0 130 c0 72 3 131 8
131 4 0 28 -19 53 -43 196 -180 237 -215 256 -226 27 -14 103 -15 103 -1 0 6
-37 46 -82 88 -46 42 -120 113 -165 157 l-83 80 93 77 c127 106 197 173 197
186 0 17 -85 15 -120 -3 -16 -8 -77 -57 -137 -110 -59 -52 -111 -95 -115 -95
-5 0 -8 52 -8 115 0 63 -3 114 -7 113 -5 -1 -27 -3 -51 -5z"/>
<path d="M3087 2287 l6 -124 -27 -7 c-14 -3 -26 -10 -26 -15 0 -16 60 -24 75
-11 30 25 13 243 -20 270 -12 10 -13 -8 -8 -113z"/>
<path d="M2170 2065 c-91 -17 -156 -43 -143 -56 10 -10 135 -28 201 -29 43 0
59 16 20 22 -12 2 -23 8 -25 14 -9 28 315 34 498 8 62 -8 116 -17 118 -19 2
-3 -9 -10 -25 -16 -44 -18 -9 -21 64 -6 35 7 63 17 63 22 3 45 -603 92 -771
60z"/>
<path d="M522 4011 c-18 -11 -11 -45 9 -49 19 -3 31 21 23 43 -7 17 -13 18
-32 6z"/>
<path d="M4440 4005 c-22 -26 7 -46 39 -26 12 8 12 12 2 25 -17 20 -25 20 -41
1z"/>
<path d="M4515 3900 c-7 -23 1 -40 20 -40 18 0 28 30 14 46 -16 19 -27 17 -34
-6z"/>
<path d="M433 3894 c-10 -26 13 -39 43 -25 26 11 26 12 8 26 -25 19 -43 19
-51 -1z"/>
<path d="M371 3796 c-16 -19 -7 -46 14 -46 22 0 30 29 13 46 -13 13 -16 13
-27 0z"/>
<path d="M4586 3784 c-12 -31 21 -47 43 -21 8 10 7 17 -1 25 -17 17 -35 15
-42 -4z"/>
<path d="M297 3666 c-9 -23 18 -39 43 -26 17 9 19 14 9 26 -15 18 -45 18 -52
0z"/>
<path d="M4651 3666 c-18 -21 11 -41 39 -26 17 9 19 14 9 26 -15 18 -33 18
-48 0z"/>
<path d="M241 3546 c-18 -21 11 -41 39 -26 17 9 19 14 9 26 -15 18 -33 18 -48
0z"/>
<path d="M4717 3553 c-24 -23 12 -55 38 -33 12 10 13 16 4 26 -12 15 -31 18
-42 7z"/>
<path d="M4771 3436 c-16 -19 -7 -46 14 -46 22 0 30 29 13 46 -13 13 -16 13
-27 0z"/>
<path d="M193 3429 c-13 -13 -6 -39 11 -39 6 0 17 4 25 9 12 8 12 12 2 25 -16
19 -23 20 -38 5z"/>
<path d="M137 3298 c-2 -8 1 -22 9 -33 14 -18 14 -18 29 1 8 10 13 24 11 29
-4 16 -43 18 -49 3z"/>
<path d="M4807 3296 c-3 -8 0 -20 8 -26 19 -16 59 8 43 27 -14 17 -45 17 -51
-1z"/>
<path d="M113 3183 c-16 -6 -17 -29 -3 -38 13 -8 50 3 50 15 0 13 -32 28 -47
23z"/>
<path d="M4849 3174 c-9 -11 -8 -18 6 -34 14 -16 20 -17 27 -8 21 34 -8 72
-33 42z"/>
<path d="M75 3050 c-4 -12 -1 -28 6 -36 12 -14 14 -14 25 1 10 13 10 21 1 36
-15 24 -24 24 -32 -1z"/>
<path d="M4893 3053 c-16 -6 -17 -39 -2 -49 6 -3 20 2 30 12 18 18 18 20 1 30
-9 6 -23 9 -29 7z"/>
<path d="M50 2915 c-22 -26 7 -46 39 -26 12 8 12 12 2 25 -17 20 -25 20 -41 1z"/>
<path d="M4910 2914 c-11 -12 -10 -18 3 -32 16 -15 18 -15 34 0 13 14 14 20 3
32 -7 9 -16 16 -20 16 -4 0 -13 -7 -20 -16z"/>
<path d="M31 2781 c-10 -7 -11 -13 -1 -31 11 -20 13 -21 27 -7 9 9 13 23 10
31 -7 18 -16 20 -36 7z"/>
<path d="M4926 2781 c-9 -14 4 -41 19 -41 7 0 18 7 26 16 10 13 10 17 -2 25
-18 11 -36 11 -43 0z"/>
<path d="M20 2645 c-10 -12 -10 -18 0 -31 12 -13 15 -13 28 0 15 15 10 46 -6
46 -5 0 -15 -7 -22 -15z"/>
<path d="M4935 2650 c-8 -12 3 -50 14 -50 15 0 33 30 27 45 -6 17 -32 20 -41
5z"/>
<path d="M4942 2528 c-16 -16 -15 -33 1 -46 21 -17 41 2 33 32 -7 29 -16 32
-34 14z"/>
<path d="M18 2523 c-25 -6 -22 -30 3 -38 25 -8 44 7 36 29 -7 16 -9 17 -39 9z"/>
<path d="M4939 2387 c-16 -34 0 -58 26 -37 19 15 19 21 1 45 -14 19 -15 19
-27 -8z"/>
<path d="M14 2379 c-3 -6 0 -18 9 -26 12 -12 18 -13 35 -2 16 10 18 16 10 26
-13 16 -44 17 -54 2z"/>
<path d="M24 2249 c-3 -6 1 -18 10 -27 15 -15 17 -15 34 1 15 16 15 19 2 27
-20 13 -37 12 -46 -1z"/>
<path d="M4924 2245 c-12 -29 15 -45 45 -26 12 8 12 12 2 25 -17 20 -40 21
-47 1z"/>
<path d="M44 2115 c-4 -9 -2 -21 4 -27 15 -15 44 -1 40 19 -4 23 -36 29 -44 8z"/>
<path d="M4905 2120 c-11 -18 6 -51 23 -48 21 4 28 38 10 49 -17 11 -26 11
-33 -1z"/>
<path d="M73 1989 c-6 -6 -9 -18 -6 -25 7 -18 37 -18 52 0 10 12 8 17 -8 25
-24 14 -24 14 -38 0z"/>
<path d="M4880 1985 c-22 -27 12 -49 38 -23 8 8 9 15 1 25 -15 17 -24 16 -39
-2z"/>
<path d="M103 1861 c-9 -14 -9 -21 0 -30 27 -27 61 4 37 34 -16 20 -23 19 -37
-4z"/>
<path d="M4850 1854 c-11 -12 -11 -18 1 -29 13 -13 18 -13 37 1 22 15 22 17 5
30 -23 17 -28 17 -43 -2z"/>
<path d="M137 1726 c-6 -15 11 -36 29 -36 21 0 35 25 22 38 -16 16 -45 15 -51
-2z"/>
<path d="M4813 1729 c-6 -6 -9 -18 -6 -25 7 -18 37 -18 52 0 10 12 8 17 -8 25
-24 14 -24 14 -38 0z"/>
<path d="M192 1603 c-13 -24 9 -58 26 -41 16 16 15 33 -2 47 -12 10 -17 9 -24
-6z"/>
<path d="M4770 1605 c-19 -22 5 -48 31 -34 10 5 19 14 19 19 0 5 -9 14 -19 19
-14 8 -22 7 -31 -4z"/>
<path d="M2830 1525 c-10 -12 -10 -18 0 -30 16 -20 36 -19 44 1 6 16 -9 44
-24 44 -4 0 -13 -7 -20 -15z"/>
<path d="M1790 1515 c-11 -13 -11 -19 3 -33 20 -19 41 -5 35 24 -4 24 -22 28
-38 9z"/>
<path d="M1360 1505 c0 -8 9 -15 19 -15 25 0 26 -5 47 -164 l19 -136 27 0 c25
0 36 14 114 146 55 93 94 149 110 156 41 19 27 28 -41 28 -50 0 -65 -3 -65
-14 0 -8 11 -16 24 -18 24 -3 24 -5 -42 -120 -37 -65 -70 -118 -73 -118 -4 0
-14 50 -24 111 l-17 112 29 23 28 23 -77 1 c-63 0 -78 -3 -78 -15z"/>
<path d="M3377 1513 c-14 -13 -6 -23 19 -23 22 0 25 -4 21 -22 -3 -13 -15 -70
-28 -128 -17 -82 -27 -110 -46 -126 l-25 -21 32 -7 c62 -12 120 -5 120 15 0 5
-12 9 -26 9 -26 0 -26 2 -20 43 7 43 30 87 45 87 5 0 30 -34 56 -75 46 -74 69
-91 111 -83 26 5 28 25 2 32 -15 4 -40 34 -72 86 -26 45 -47 82 -45 84 2 1 27
21 55 44 29 23 68 49 88 57 20 8 36 20 36 25 0 11 -108 14 -134 4 -24 -9 -19
-22 11 -26 24 -3 21 -7 -50 -66 -43 -35 -77 -59 -77 -53 0 5 5 32 12 59 8 35
18 54 35 63 17 9 20 15 11 21 -16 9 -122 11 -131 1z"/>
<path d="M234 1479 c-3 -6 0 -18 9 -26 12 -12 19 -13 36 -3 18 9 20 14 10 26
-14 17 -45 19 -55 3z"/>
<path d="M1950 1466 c-5 -14 -26 -36 -47 -50 -23 -16 -31 -26 -21 -26 28 0 30
-16 12 -106 -17 -84 -17 -87 1 -100 21 -16 52 -10 75 13 13 14 12 15 -12 11
-34 -6 -35 1 -12 100 14 64 19 72 47 83 l32 13 -28 3 c-27 4 -28 6 -22 44 8
44 -10 55 -25 15z"/>
<path d="M4707 1476 c-6 -15 11 -36 29 -36 21 0 35 25 22 38 -16 16 -45 15
-51 -2z"/>
<path d="M2443 1384 c-47 -51 -46 -52 -29 16 2 8 -10 10 -49 10 -19 0 -35 -4
-35 -10 0 -5 7 -10 15 -10 18 0 18 -17 0 -100 -20 -90 -19 -110 4 -110 13 0
20 10 25 31 8 42 74 157 96 169 28 15 32 -11 15 -91 -20 -93 -19 -109 4 -109
14 0 21 10 26 37 13 71 73 163 106 163 24 0 25 -28 2 -117 -15 -63 -15 -67 2
-79 25 -18 29 -18 56 7 l24 21 -22 -5 c-27 -6 -28 -2 -7 75 8 33 14 76 12 97
-3 34 -5 36 -39 39 -31 3 -41 -2 -67 -32 -37 -42 -41 -44 -35 -13 4 28 -5 42
-35 52 -20 6 -31 -1 -69 -41z"/>
<path d="M3074 1420 c-12 -4 -36 -26 -54 -47 -33 -40 -33 -41 -14 30 6 19 -5
21 -55 11 -35 -7 -42 -24 -11 -24 16 0 19 -5 15 -22 -43 -190 -43 -191 -13
-186 17 2 24 12 29 38 11 70 70 160 104 160 19 0 19 -18 -2 -109 -17 -71 -17
-74 2 -87 25 -18 28 -18 56 7 l24 21 -22 -5 c-28 -6 -29 6 -8 83 30 113 13
156 -51 130z"/>
<path d="M1760 1413 c-35 -6 -50 -23 -21 -23 19 0 22 -4 17 -22 -3 -13 -13
-56 -23 -97 -17 -71 -17 -74 2 -87 25 -18 28 -18 56 7 l24 21 -22 -5 c-13 -3
-23 -1 -23 5 0 9 34 150 46 191 6 18 -3 19 -56 10z"/>
<path d="M2103 1400 c-62 -37 -93 -146 -57 -198 20 -29 70 -29 100 -1 l22 21
7 -22 c5 -17 13 -21 43 -18 19 2 38 9 40 17 3 10 -1 12 -18 8 -19 -5 -21 -2
-17 16 2 12 13 57 23 100 21 92 18 97 -61 97 -32 0 -61 -7 -82 -20z m104 -45
c-9 -61 -35 -109 -70 -130 -29 -17 -31 -17 -44 0 -17 25 -17 34 8 100 23 62
48 84 85 77 25 -4 26 -8 21 -47z"/>
<path d="M2805 1413 c-37 -6 -58 -23 -27 -23 27 0 27 -2 1 -102 -11 -44 -18
-86 -15 -93 6 -17 37 -24 64 -14 28 10 30 33 2 24 -25 -8 -25 -10 5 105 14 52
25 98 25 103 0 7 -3 7 -55 0z"/>
<path d="M294 1359 c-3 -6 0 -18 9 -26 12 -12 18 -13 35 -2 16 10 18 16 10 26
-13 16 -44 17 -54 2z"/>
<path d="M4650 1351 c0 -27 15 -34 40 -21 17 9 19 14 9 26 -17 21 -49 18 -49
-5z"/>
<path d="M371 1256 c-16 -19 -7 -46 14 -46 22 0 30 29 13 46 -13 13 -16 13
-27 0z"/>
<path d="M4590 1245 c-22 -26 7 -46 39 -26 12 8 12 12 2 25 -17 20 -25 20 -41
1z"/>
<path d="M4522 1138 c-16 -16 -15 -33 2 -47 22 -18 44 25 24 45 -11 11 -16 12
-26 2z"/>
<path d="M434 1129 c-3 -6 1 -18 10 -27 15 -15 17 -15 32 0 9 9 13 21 10 27
-9 14 -43 14 -52 0z"/>
<path d="M521 1031 c-19 -12 -6 -41 18 -41 26 0 36 17 21 35 -14 17 -20 18
-39 6z"/>
<path d="M4434 1027 c-3 -9 0 -26 7 -38 11 -22 12 -22 26 -3 7 10 12 25 11 34
-4 20 -37 25 -44 7z"/>
<path d="M1960 948 c-85 -23 -150 -115 -150 -213 0 -98 59 -150 161 -143 70 5
120 39 158 108 30 53 33 138 7 188 -26 50 -109 78 -176 60z m109 -43 c28 -37
34 -76 21 -139 -14 -70 -45 -116 -93 -139 -68 -34 -133 14 -131 96 2 66 43
157 83 184 46 31 94 30 120 -2z"/>
<path d="M2748 943 c-22 -6 -24 -23 -2 -23 18 0 16 -19 -20 -185 -12 -55 -20
-107 -18 -116 4 -21 39 -31 64 -18 24 13 23 32 -2 24 -11 -3 -20 -5 -20 -2 0
2 14 68 30 145 17 78 30 151 30 162 0 20 -20 24 -62 13z"/>
<path d="M2915 943 c-28 -7 -43 -23 -22 -23 22 0 22 -4 -8 -150 -14 -68 -25
-133 -25 -146 0 -27 30 -40 60 -24 26 14 26 33 0 25 -18 -6 -20 -3 -15 17 2
13 16 77 30 143 14 66 27 130 30 143 6 23 -4 26 -50 15z"/>
<path d="M594 919 c-3 -6 0 -18 9 -26 12 -12 19 -13 36 -3 18 9 20 14 10 26
-14 17 -45 19 -55 3z"/>
<path d="M4357 923 c-12 -11 -8 -43 6 -43 22 0 40 18 34 34 -6 16 -28 21 -40
9z"/>
<path d="M2505 830 c-93 -46 -126 -188 -54 -226 31 -15 54 -10 78 20 12 14 16
13 33 -9 21 -27 48 -27 78 1 12 12 11 14 -12 14 l-26 0 24 93 c13 50 24 95 24
98 0 6 -78 29 -97 29 -4 0 -26 -9 -48 -20z m83 -13 c7 -9 8 -26 1 -56 -14 -62
-35 -99 -69 -116 -26 -13 -30 -13 -44 1 -23 22 -20 52 10 111 17 34 34 55 52
62 36 13 38 13 50 -2z"/>
<path d="M2218 833 c-25 -6 -23 -23 2 -23 16 0 19 -5 15 -22 -42 -185 -43
-188 -16 -188 15 0 23 13 35 53 18 61 72 147 92 147 8 0 17 -7 20 -15 9 -23
34 1 34 31 0 20 -5 24 -29 24 -21 0 -38 -10 -61 -37 l-31 -38 6 38 c6 36 5 37
-22 36 -15 -1 -36 -3 -45 -6z"/>
<path d="M3035 833 c-44 -9 -51 -16 -25 -22 22 -6 27 -16 42 -91 24 -119 23
-142 -8 -171 -23 -22 -26 -23 -35 -6 -15 25 -39 21 -39 -7 0 -41 54 -49 87
-13 28 30 183 288 183 304 0 14 -37 17 -64 7 -23 -9 -20 -24 4 -24 20 0 18 -5
-16 -67 -20 -38 -40 -72 -44 -76 -4 -5 -15 33 -25 82 -10 53 -22 91 -29 90 -6
-1 -20 -3 -31 -6z"/>
<path d="M687 816 c-3 -8 0 -20 8 -26 19 -16 59 8 43 27 -14 17 -45 17 -51 -1z"/>
<path d="M4262 808 c4 -27 33 -36 42 -13 8 22 -1 35 -25 35 -15 0 -20 -6 -17
-22z"/>
<path d="M784 725 c-12 -29 15 -45 45 -26 12 8 12 12 2 25 -17 20 -40 21 -47
1z"/>
<path d="M4173 729 c-6 -6 -9 -18 -6 -25 7 -18 37 -18 52 0 10 12 8 17 -8 25
-24 14 -24 14 -38 0z"/>
<path d="M887 643 c-11 -10 -8 -41 5 -49 17 -11 40 26 27 43 -13 14 -22 16
-32 6z"/>
<path d="M4077 643 c-24 -23 12 -55 38 -33 12 10 13 16 4 26 -12 15 -31 18
-42 7z"/>
<path d="M3966 555 c-3 -9 -1 -26 5 -37 10 -19 12 -19 27 -4 13 12 14 21 6 33
-15 24 -30 27 -38 8z"/>
<path d="M984 549 c-3 -6 0 -17 8 -25 12 -12 17 -12 32 -1 11 8 16 19 12 25
-9 15 -43 15 -52 1z"/>
<path d="M1094 475 c-12 -29 15 -45 45 -26 12 8 12 12 2 25 -17 20 -40 21 -47
1z"/>
<path d="M3860 475 c-15 -18 -5 -35 21 -35 24 0 37 29 18 41 -19 12 -25 11
-39 -6z"/>
<path d="M1210 405 c-19 -22 5 -48 31 -34 10 5 19 14 19 19 0 5 -9 14 -19 19
-14 8 -22 7 -31 -4z"/>
<path d="M3750 405 c-19 -22 5 -48 31 -34 10 5 19 14 19 19 0 5 -9 14 -19 19
-14 8 -22 7 -31 -4z"/>
<path d="M1321 341 c-16 -28 14 -51 36 -28 13 13 14 19 3 31 -17 21 -27 20
-39 -3z"/>
<path d="M3631 337 c-8 -10 -7 -19 4 -33 15 -19 15 -19 30 0 11 14 12 23 4 33
-6 7 -15 13 -19 13 -4 0 -13 -6 -19 -13z"/>
<path d="M1441 286 c-15 -18 -3 -46 20 -46 25 0 35 26 19 45 -15 19 -24 19
-39 1z"/>
<path d="M3510 285 c-11 -13 -11 -19 3 -33 20 -19 41 -5 35 24 -4 24 -22 28
-38 9z"/>
<path d="M1567 233 c-24 -23 12 -55 38 -33 12 10 13 16 4 26 -12 15 -31 18
-42 7z"/>
<path d="M3391 231 c-16 -10 -8 -41 11 -41 7 0 19 4 27 9 12 8 12 12 2 25 -15
18 -21 19 -40 7z"/>
<path d="M1683 174 c-10 -26 13 -40 42 -24 19 10 22 16 14 27 -15 18 -48 17
-56 -3z"/>
<path d="M3260 170 c0 -28 28 -37 48 -16 15 15 15 18 2 26 -26 17 -50 12 -50
-10z"/>
<path d="M1819 144 c-10 -12 -9 -18 4 -31 13 -13 19 -14 31 -3 21 17 20 27 -3
39 -14 8 -22 7 -32 -5z"/>
<path d="M3134 135 c-10 -24 12 -42 34 -29 24 16 21 38 -6 42 -13 2 -25 -3
-28 -13z"/>
<path d="M1947 113 c-24 -23 12 -55 38 -33 12 10 13 16 4 26 -12 15 -31 18
-42 7z"/>
<path d="M3004 105 c-12 -29 15 -45 45 -26 12 8 12 12 2 25 -17 20 -40 21 -47
1z"/>
<path d="M2080 95 c-9 -11 -11 -22 -4 -32 13 -21 25 -21 38 -1 8 14 7 21 -5
33 -14 15 -17 15 -29 0z"/>
<path d="M2880 85 c-19 -22 5 -48 31 -34 10 5 19 14 19 19 0 5 -9 14 -19 19
-14 8 -22 7 -31 -4z"/>
<path d="M2742 73 c-12 -24 -4 -43 18 -43 10 0 20 6 23 13 5 15 -10 47 -23 47
-5 0 -13 -8 -18 -17z"/>
<path d="M2210 65 c-11 -13 -11 -19 3 -33 20 -19 41 -5 35 24 -4 24 -22 28
-38 9z"/>
<path d="M2610 65 c-15 -18 -6 -45 13 -45 25 0 37 23 23 43 -16 21 -20 21 -36
2z"/>
<path d="M2347 63 c-11 -11 -8 -40 6 -51 19 -16 43 24 26 44 -13 15 -22 18
-32 7z"/>
<path d="M2470 51 c0 -21 13 -41 26 -41 8 0 14 4 14 9 0 5 3 16 6 25 5 12 0
16 -20 16 -14 0 -26 -4 -26 -9z"/>
</g>
</svg>
