<?xml version="1.0" standalone="no"?>
<!DOCTYPE svg PUBLIC "-//W3C//DTD SVG 20010904//EN"
 "http://www.w3.org/TR/2001/REC-SVG-20010904/DTD/svg10.dtd">
<svg version="1.0" xmlns="http://www.w3.org/2000/svg"
 width="500.000000pt" height="500.000000pt" viewBox="0 0 500.000000 500.000000"
 preserveAspectRatio="xMidYMid meet">
<metadata>
Created by potrace 1.15, written by Peter Selinger 2001-2017
</metadata>
<g transform="translate(0.000000,500.000000) scale(0.100000,-0.100000)"
fill="#000000" stroke="none">
<path d="M2347 4983 c-12 -11 -7 -41 7 -46 8 -3 22 0 32 8 15 11 16 15 5 29
-14 17 -33 21 -44 9z"/>
<path d="M2476 4981 c-8 -12 4 -41 16 -41 5 0 18 5 29 11 20 10 20 11 2 24
-21 17 -39 19 -47 6z"/>
<path d="M2615 4979 c-8 -12 2 -59 13 -59 4 0 13 9 20 21 10 16 10 24 1 35
-14 17 -25 18 -34 3z"/>
<path d="M2751 4976 c-16 -19 -7 -46 14 -46 22 0 30 29 13 46 -13 13 -16 13
-27 0z"/>
<path d="M2214 4965 c-12 -30 16 -45 46 -25 13 9 12 12 -4 25 -25 19 -35 19
-42 0z"/>
<path d="M2880 4950 c-12 -23 -6 -40 15 -40 19 0 27 17 20 40 -8 26 -21 25
-35 0z"/>
<path d="M2080 4945 c-15 -18 -5 -35 20 -35 10 0 22 5 25 10 7 11 -12 40 -25
40 -4 0 -13 -7 -20 -15z"/>
<path d="M1943 4914 c-3 -8 1 -22 9 -30 13 -13 16 -13 27 0 7 9 11 23 7 31 -7
20 -35 19 -43 -1z"/>
<path d="M3004 4919 c-3 -6 0 -18 9 -26 12 -12 18 -13 35 -2 16 10 18 16 10
26 -13 16 -44 17 -54 2z"/>
<path d="M1820 4885 c-11 -13 -11 -19 4 -33 15 -15 18 -15 26 -2 22 33 -6 64
-30 35z"/>
<path d="M3140 4885 c-10 -12 -10 -18 0 -31 12 -13 15 -13 28 0 15 15 10 46
-6 46 -5 0 -15 -7 -22 -15z"/>
<path d="M3265 4849 c-7 -20 7 -38 28 -39 14 0 19 30 7 45 -17 21 -27 19 -35
-6z"/>
<path d="M1691 4846 c-18 -21 11 -41 39 -26 17 9 19 14 9 26 -15 18 -33 18
-48 0z"/>
<path d="M3393 4811 c-9 -15 -9 -23 3 -37 14 -19 14 -19 28 0 12 14 12 22 3
37 -6 10 -14 19 -17 19 -3 0 -11 -9 -17 -19z"/>
<path d="M1570 4805 c-19 -22 5 -48 31 -34 10 5 19 14 19 19 0 5 -9 14 -19 19
-14 8 -22 7 -31 -4z"/>
<path d="M3522 4768 c-15 -15 -15 -45 -1 -54 6 -3 18 0 26 9 14 13 14 18 1 36
-11 16 -17 18 -26 9z"/>
<path d="M1437 4746 c-3 -8 1 -22 8 -33 13 -17 15 -17 31 -1 9 9 14 24 11 32
-8 20 -43 21 -50 2z"/>
<path d="M1327 4703 c-11 -10 -8 -41 4 -49 6 -3 18 1 27 9 13 13 13 19 2 31
-14 17 -23 20 -33 9z"/>
<path d="M3635 4690 c-8 -13 3 -50 15 -50 13 0 32 39 25 50 -8 13 -32 13 -40
0z"/>
<path d="M1211 4636 c-16 -19 -7 -46 14 -46 22 0 30 29 13 46 -13 13 -16 13
-27 0z"/>
<path d="M3750 4625 c-23 -28 21 -50 48 -23 9 9 7 14 -6 24 -22 17 -27 17 -42
-1z"/>
<path d="M1081 4547 c-8 -11 -5 -16 13 -25 19 -8 27 -8 36 3 6 8 9 19 5 25 -9
14 -40 13 -54 -3z"/>
<path d="M3855 4550 c-6 -9 15 -50 25 -50 10 0 31 41 25 50 -4 6 -15 10 -25
10 -10 0 -21 -4 -25 -10z"/>
<path d="M991 4486 c-16 -19 -7 -46 14 -46 22 0 30 29 13 46 -13 13 -16 13
-27 0z"/>
<path d="M3970 4475 c-23 -28 21 -50 48 -23 9 9 7 14 -6 24 -22 17 -27 17 -42
-1z"/>
<path d="M880 4381 c0 -24 13 -33 35 -25 23 9 14 38 -13 42 -16 3 -22 -2 -22
-17z"/>
<path d="M4076 4391 c-6 -9 2 -41 11 -41 2 0 13 5 24 11 16 8 18 13 8 25 -13
16 -35 18 -43 5z"/>
<path d="M4176 4309 c-14 -21 -14 -25 -1 -38 13 -14 17 -13 31 1 15 15 15 18
1 38 l-15 21 -16 -22z"/>
<path d="M787 4303 c-25 -24 11 -49 40 -28 16 13 16 16 3 25 -17 11 -34 13
-43 3z"/>
<path d="M2420 4275 c-8 -2 -49 -9 -90 -15 -112 -18 -273 -74 -383 -133 -337
-180 -576 -509 -641 -882 -20 -114 -21 -322 -1 -441 72 -444 402 -829 833
-974 250 -84 536 -85 796 -3 105 33 272 119 361 185 407 305 589 834 460 1333
-120 462 -486 805 -970 911 -64 14 -330 28 -365 19z m295 -195 c125 -28 206
-56 305 -105 81 -41 261 -161 259 -174 0 -3 -98 -91 -217 -195 l-217 -190 -8
57 c-8 56 -8 57 27 87 19 17 40 47 47 67 15 46 5 157 -17 190 -19 30 -120 78
-207 98 -174 41 -392 -5 -475 -100 -31 -34 -32 -40 -32 -120 0 -55 4 -88 13
-95 6 -5 23 -19 37 -29 22 -17 25 -27 25 -86 l0 -67 -105 -37 c-140 -50 -229
-91 -240 -110 -7 -15 2 -380 14 -576 l6 -80 -63 -60 c-35 -33 -91 -84 -125
-113 l-61 -53 -37 57 c-120 188 -196 455 -181 639 13 154 107 408 208 556 123
183 298 309 559 403 164 60 323 71 485 36z m-106 -180 c173 -20 281 -79 281
-153 l0 -36 -45 20 c-175 78 -383 78 -559 0 -57 -25 -76 -22 -76 13 0 73 133
145 305 165 6 0 48 -4 94 -9z m109 -156 c42 -8 96 -27 120 -40 39 -23 42 -28
42 -67 0 -41 -13 -67 -33 -67 -5 0 -7 19 -5 41 5 51 -10 63 -119 91 -101 26
-224 28 -322 3 -63 -15 -81 -25 -119 -62 -35 -36 -46 -42 -58 -32 -28 23 -15
44 54 82 38 20 96 43 128 51 80 19 218 19 312 0z m7 -93 c82 -36 85 -42 85
-143 l0 -89 -72 8 c-40 4 -157 8 -260 7 l-188 -1 0 82 c0 73 2 84 24 104 13
12 50 31 82 42 82 27 257 22 329 -10z m770 -156 c90 -182 131 -358 122 -525
-13 -248 -161 -560 -343 -729 -43 -39 -81 -71 -86 -71 -4 0 -8 66 -8 148 0
254 -22 925 -31 949 -4 12 -26 36 -49 52 l-40 29 172 152 171 152 19 -24 c10
-12 43 -72 73 -133z m-703 -113 c4 -4 -56 -63 -133 -131 -104 -91 -144 -120
-152 -112 -22 22 -43 9 -75 -48 -40 -69 -102 -131 -312 -315 -145 -126 -156
-133 -164 -113 -16 37 -13 548 2 575 16 27 147 94 242 122 39 12 119 24 200
29 139 10 380 5 392 -7z m276 -88 c12 -8 30 -30 40 -47 15 -29 17 -80 20 -560
2 -431 1 -528 -10 -524 -50 21 -231 77 -245 76 -10 0 5 -8 32 -18 72 -26 165
-71 165 -80 0 -10 -76 -43 -135 -61 -50 -14 -474 -32 -575 -24 -132 10 -360
64 -360 85 0 14 67 44 190 84 173 56 178 66 15 30 -51 -12 -146 -43 -206 -69
-14 -6 -18 5 -24 77 -9 112 6 141 117 233 46 37 128 109 183 158 l100 91 5
-210 5 -210 40 0 40 0 3 100 c1 55 4 106 7 113 3 9 48 -26 123 -96 129 -119
139 -126 195 -136 28 -5 37 -4 37 7 0 7 -62 72 -137 143 -76 71 -138 132 -138
136 0 3 55 54 123 113 67 59 122 111 122 116 0 5 -22 9 -50 9 -48 0 -52 -3
-159 -95 -60 -52 -112 -95 -115 -95 -3 0 -6 35 -6 78 0 96 17 131 90 191 30
24 77 64 104 88 47 43 50 44 58 24 4 -12 15 -21 24 -21 13 0 15 7 10 35 -5 27
-2 39 14 55 31 31 40 24 40 -34 0 -35 5 -58 15 -66 13 -11 15 -1 15 76 l1 89
87 77 c48 42 94 77 102 78 9 0 26 -7 38 -16z m-1124 -1046 c3 -55 4 -103 2
-106 -5 -5 -136 88 -136 97 0 7 113 110 121 111 3 0 9 -46 13 -102z m546 -231
c162 0 352 12 445 29 53 11 14 -13 -75 -44 -237 -83 -427 -80 -660 10 -82 32
-79 35 17 20 49 -7 170 -14 273 -15z"/>
<path d="M2440 3629 c-53 -10 -73 -33 -66 -73 3 -16 6 -39 6 -53 0 -13 4 -22
9 -19 4 3 6 28 3 55 -5 56 -5 56 93 84 56 17 27 20 -45 6z"/>
<path d="M2720 3602 c0 -6 5 -14 10 -17 6 -3 10 -28 10 -55 0 -45 -2 -49 -27
-53 -23 -3 -22 -4 9 -6 35 -1 37 1 42 37 3 20 4 46 3 56 -4 21 -47 56 -47 38z"/>
<path d="M2053 3250 c-17 -10 -37 -29 -43 -40 -11 -20 -10 -21 12 -15 12 4 29
14 35 23 7 8 29 23 50 33 l38 17 -30 1 c-16 1 -44 -8 -62 -19z"/>
<path d="M2345 3163 c-86 -7 -105 -13 -105 -33 0 -15 7 -20 26 -20 25 0 25 -2
23 -57 -3 -52 -1 -58 17 -58 16 0 20 9 24 58 5 59 18 77 53 77 10 0 17 8 17
20 0 11 -3 19 -7 18 -5 -1 -26 -3 -48 -5z"/>
<path d="M2087 3090 c-12 -27 -25 -50 -28 -50 -3 0 -10 17 -15 38 -14 57 -40
50 -36 -10 5 -74 16 -103 38 -103 21 0 69 85 80 143 10 50 -14 40 -39 -18z"/>
<path d="M2166 3131 c-10 -16 6 -162 17 -158 23 7 29 36 23 100 -5 46 -12 67
-21 67 -8 0 -16 -4 -19 -9z"/>
<path d="M2906 3143 c-3 -3 -6 -39 -6 -80 0 -66 2 -73 19 -73 17 0 20 8 23 48
l3 47 29 -52 c31 -55 53 -72 63 -47 8 22 -5 136 -17 148 -15 15 -32 -13 -25
-41 8 -32 -7 -28 -28 7 -19 31 -50 54 -61 43z"/>
<path d="M3053 2383 c2 -94 1 -97 -23 -110 -20 -10 -22 -13 -8 -18 9 -4 27 -5
40 -3 22 3 23 6 20 78 -4 96 -12 150 -22 150 -5 0 -8 -44 -7 -97z"/>
<path d="M2275 2194 c-54 -9 -135 -34 -135 -43 0 -8 26 -12 195 -26 l50 -4
-37 12 c-50 17 -55 25 -22 34 47 13 322 9 423 -6 l93 -14 -23 -19 c-21 -17
-22 -19 -4 -14 11 3 41 8 68 12 26 3 47 10 47 14 0 9 -41 26 -100 41 -45 11
-497 21 -555 13z"/>
<path d="M4270 4215 c-15 -18 -6 -45 14 -45 20 0 29 16 21 40 -8 24 -18 25
-35 5z"/>
<path d="M688 4208 c-12 -33 24 -52 50 -26 9 9 7 14 -6 24 -22 17 -39 17 -44
2z"/>
<path d="M593 4104 c-3 -8 2 -23 11 -32 16 -16 18 -16 31 2 11 14 12 23 4 33
-15 18 -38 16 -46 -3z"/>
<path d="M4356 4104 c-4 -10 0 -24 9 -33 14 -14 17 -14 25 -1 6 8 9 22 7 30
-3 21 -33 24 -41 4z"/>
<path d="M520 4004 c-11 -12 -11 -18 1 -29 12 -12 17 -12 33 0 16 12 17 17 6
30 -16 19 -24 19 -40 -1z"/>
<path d="M4440 4004 c-11 -12 -11 -18 1 -30 13 -12 18 -12 34 0 16 12 17 16 6
30 -17 20 -25 20 -41 0z"/>
<path d="M440 3905 c-16 -20 -6 -45 20 -45 23 0 28 31 6 49 -10 9 -16 8 -26
-4z"/>
<path d="M4521 3901 c-19 -12 -6 -41 18 -41 26 0 36 17 21 35 -14 17 -20 18
-39 6z"/>
<path d="M370 3790 c-14 -26 0 -46 24 -37 20 8 21 31 2 46 -12 10 -17 8 -26
-9z"/>
<path d="M4590 3785 c-23 -28 21 -50 48 -23 9 9 7 14 -6 24 -22 17 -27 17 -42
-1z"/>
<path d="M303 3669 c-6 -6 -9 -18 -6 -25 7 -18 37 -18 52 0 10 12 8 17 -8 25
-24 14 -24 14 -38 0z"/>
<path d="M4654 3665 c-12 -29 15 -45 45 -26 12 8 12 12 2 25 -17 20 -40 21
-47 1z"/>
<path d="M242 3553 c-12 -24 -4 -43 18 -43 22 0 34 28 19 46 -15 19 -26 18
-37 -3z"/>
<path d="M4714 3546 c-3 -8 0 -24 6 -36 l12 -22 15 21 c12 17 12 25 3 36 -16
19 -29 19 -36 1z"/>
<path d="M190 3425 c-15 -18 -5 -35 20 -35 10 0 22 5 25 10 7 11 -12 40 -25
40 -4 0 -13 -7 -20 -15z"/>
<path d="M4771 3426 c-19 -22 4 -62 25 -45 17 14 15 50 -2 56 -6 2 -16 -3 -23
-11z"/>
<path d="M4815 3299 c-9 -28 14 -44 34 -24 12 11 12 17 1 29 -17 22 -27 20
-35 -5z"/>
<path d="M137 3296 c-6 -15 11 -36 29 -36 6 0 17 7 25 16 10 13 10 17 -2 25
-21 13 -46 11 -52 -5z"/>
<path d="M103 3164 c-9 -24 11 -38 36 -25 25 14 27 27 5 35 -25 9 -34 7 -41
-10z"/>
<path d="M4850 3161 c0 -10 6 -24 14 -30 12 -10 17 -9 24 6 13 24 4 43 -19 43
-12 0 -19 -7 -19 -19z"/>
<path d="M74 3044 c-9 -34 10 -54 32 -32 13 13 14 19 2 37 -17 28 -26 27 -34
-5z"/>
<path d="M4884 3035 c-10 -24 12 -42 34 -29 24 16 21 38 -6 42 -13 2 -25 -3
-28 -13z"/>
<path d="M43 2904 c-3 -8 1 -22 9 -30 13 -13 16 -13 27 0 7 9 11 23 7 31 -7
20 -35 19 -43 -1z"/>
<path d="M4904 2909 c-3 -6 0 -18 9 -26 12 -12 19 -13 36 -3 18 9 20 14 10 26
-14 17 -45 19 -55 3z"/>
<path d="M4932 2783 c-11 -22 -5 -43 13 -43 19 0 27 17 20 40 -8 25 -21 26
-33 3z"/>
<path d="M27 2777 c-9 -23 8 -40 32 -32 25 8 28 30 5 39 -23 9 -31 7 -37 -7z"/>
<path d="M20 2645 c-23 -28 21 -50 48 -23 9 9 7 14 -6 24 -22 17 -27 17 -42
-1z"/>
<path d="M4940 2644 c-11 -12 -10 -18 3 -31 22 -23 52 0 36 28 -12 23 -22 24
-39 3z"/>
<path d="M4940 2514 c-11 -12 -10 -18 3 -32 16 -15 18 -15 34 0 13 14 14 20 3
32 -7 9 -16 16 -20 16 -4 0 -13 -7 -20 -16z"/>
<path d="M4 2508 c-6 -10 20 -38 37 -38 10 0 20 30 13 41 -8 13 -41 11 -50 -3z"/>
<path d="M13 2374 c-10 -26 13 -39 44 -25 27 12 27 13 8 27 -25 18 -44 18 -52
-2z"/>
<path d="M4940 2375 c-23 -28 21 -50 48 -23 9 9 7 14 -6 24 -22 17 -27 17 -42
-1z"/>
<path d="M4930 2250 c-13 -25 -6 -40 21 -40 23 0 26 32 5 49 -12 10 -17 8 -26
-9z"/>
<path d="M29 2244 c-15 -18 0 -38 27 -32 25 5 28 25 6 37 -15 8 -23 7 -33 -5z"/>
<path d="M4910 2114 c-11 -12 -10 -18 3 -32 16 -15 18 -15 34 0 13 14 14 20 3
32 -7 9 -16 16 -20 16 -4 0 -13 -7 -20 -16z"/>
<path d="M44 2109 c-3 -6 1 -18 10 -27 15 -15 17 -15 32 0 19 19 11 38 -16 38
-10 0 -22 -5 -26 -11z"/>
<path d="M67 1976 c-9 -23 18 -39 43 -26 17 9 19 14 9 26 -15 18 -45 18 -52 0z"/>
<path d="M4881 1976 c-9 -10 -8 -16 4 -26 13 -11 19 -11 32 2 16 17 10 38 -11
38 -8 0 -19 -6 -25 -14z"/>
<path d="M100 1843 c0 -10 5 -25 10 -33 8 -13 11 -12 24 5 19 25 15 39 -12 43
-16 2 -22 -2 -22 -15z"/>
<path d="M4855 1850 c-8 -13 3 -50 15 -50 5 0 14 8 19 18 15 27 -18 58 -34 32z"/>
<path d="M147 1733 c-12 -11 -7 -41 7 -46 8 -3 22 3 31 13 16 17 15 19 -4 29
-23 13 -26 13 -34 4z"/>
<path d="M4813 1724 c-3 -8 1 -22 9 -30 13 -13 16 -13 28 0 10 13 10 19 0 31
-16 19 -29 19 -37 -1z"/>
<path d="M4771 1606 c-16 -19 -7 -46 14 -46 22 0 30 29 13 46 -13 13 -16 13
-27 0z"/>
<path d="M190 1595 c-11 -13 -11 -19 4 -33 15 -15 18 -15 26 -2 22 33 -6 64
-30 35z"/>
<path d="M2170 1525 c-16 -20 -6 -45 20 -45 23 0 28 31 6 49 -10 9 -16 8 -26
-4z"/>
<path d="M3210 1515 c-15 -18 -5 -35 20 -35 10 0 22 5 25 10 7 11 -12 40 -25
40 -4 0 -13 -7 -20 -15z"/>
<path d="M1010 1500 c0 -5 9 -10 19 -10 27 0 32 -11 22 -51 -5 -19 -19 -78
-31 -131 -17 -76 -25 -98 -41 -103 -10 -4 -19 -11 -19 -16 0 -12 107 -12 115
1 3 6 0 10 -7 10 -36 1 -37 14 -13 129 13 63 26 115 28 117 2 2 31 -56 64
-129 52 -112 64 -132 84 -132 20 0 24 10 50 130 32 148 42 175 64 175 8 0 15
5 15 10 0 6 -27 10 -60 10 -33 0 -60 -4 -60 -10 0 -5 8 -10 18 -10 10 0 21 -2
24 -5 5 -5 -38 -224 -45 -231 -2 -2 -29 55 -61 126 l-58 130 -54 0 c-30 0 -54
-4 -54 -10z"/>
<path d="M1730 1500 c0 -5 9 -10 20 -10 28 0 36 -25 56 -177 16 -125 18 -133
39 -133 29 0 40 15 115 145 35 61 82 127 104 148 l39 37 -66 0 c-36 0 -69 -4
-72 -10 -4 -6 5 -10 19 -10 32 0 32 -12 2 -64 -101 -177 -109 -188 -116 -175
-4 8 -13 59 -20 113 l-13 99 27 24 27 23 -80 0 c-47 0 -81 -4 -81 -10z"/>
<path d="M3750 1500 c0 -5 9 -10 19 -10 11 0 22 -4 25 -8 7 -12 -51 -266 -62
-270 -5 -1 -18 -9 -28 -17 -17 -13 -11 -14 58 -15 42 0 80 5 83 10 4 6 -5 10
-21 10 -26 0 -26 1 -19 46 9 60 12 67 34 81 16 10 23 3 60 -62 45 -78 54 -85
107 -85 40 0 44 12 10 28 -13 6 -45 45 -71 88 l-47 78 39 33 c21 18 60 47 88
65 l50 33 -64 3 c-36 2 -69 -2 -74 -7 -8 -8 -3 -11 17 -11 15 0 26 -4 24 -9
-6 -15 -139 -123 -145 -117 -13 12 21 102 46 123 l26 23 -77 0 c-46 0 -78 -4
-78 -10z"/>
<path d="M240 1474 c-11 -12 -10 -18 3 -31 15 -15 18 -15 37 2 19 17 19 19 2
31 -22 17 -27 17 -42 -2z"/>
<path d="M2325 1450 c-14 -22 -31 -40 -39 -40 -7 0 -19 -7 -26 -15 -10 -13 -9
-15 9 -15 25 0 25 -4 6 -90 -24 -108 -23 -112 30 -108 25 2 44 7 43 13 -2 5
-11 8 -20 7 -21 -4 -23 17 -9 81 6 23 12 54 15 68 4 20 14 28 37 33 33 6 31
26 -2 26 -19 0 -20 4 -14 40 4 22 4 40 1 40 -3 0 -17 -18 -31 -40z"/>
<path d="M4713 1474 c-3 -8 1 -22 9 -30 12 -12 17 -12 33 0 16 12 17 16 6 30
-17 20 -40 21 -48 0z"/>
<path d="M1470 1413 c-23 -9 -60 -45 -76 -75 -30 -57 -8 -149 38 -162 96 -25
178 44 178 149 0 68 -72 113 -140 88z m67 -21 c29 -18 33 -59 12 -121 -24 -69
-37 -84 -75 -79 -38 4 -48 26 -40 89 12 93 56 141 103 111z"/>
<path d="M2494 1404 c-100 -52 -115 -234 -19 -234 14 0 34 9 46 21 l21 21 14
-21 c15 -21 39 -26 68 -15 23 9 20 24 -5 24 -17 0 -20 5 -16 23 38 155 40 168
29 179 -18 18 -104 20 -138 2z m92 -19 c11 -28 -18 -119 -47 -147 -36 -36 -63
-36 -78 1 -11 24 -9 35 15 84 27 54 50 75 87 76 10 1 20 -6 23 -14z"/>
<path d="M2819 1378 c-22 -24 -39 -41 -39 -38 0 3 4 20 9 38 9 29 8 32 -12 31
-12 -1 -35 -4 -52 -8 -29 -7 -29 -7 -7 -15 26 -9 26 -7 3 -118 l-18 -88 22 0
c17 0 24 7 29 33 11 58 56 136 87 152 l29 16 0 -38 c0 -34 -12 -99 -26 -145
-4 -14 0 -18 19 -18 21 0 26 6 32 37 13 69 76 163 110 163 20 0 19 -35 -1
-115 -9 -36 -14 -71 -10 -80 7 -20 60 -20 76 0 10 13 9 15 -9 15 -25 0 -25 8
-6 80 20 74 19 126 -1 134 -29 11 -44 6 -83 -29 -44 -40 -51 -43 -44 -15 7 27
-14 50 -44 50 -17 0 -38 -14 -64 -42z"/>
<path d="M3414 1377 c-48 -48 -49 -48 -35 1 9 31 9 32 -22 32 -18 0 -39 -5
-47 -10 -13 -8 -12 -11 6 -16 l21 -6 -18 -86 c-23 -110 -23 -112 0 -112 15 0
23 13 35 53 17 57 62 133 85 142 30 12 35 -13 16 -94 -10 -43 -15 -86 -12 -95
8 -20 60 -21 77 -1 10 13 9 15 -9 15 -25 0 -25 -5 -4 98 19 91 14 114 -26 120
-15 3 -36 -10 -67 -41z"/>
<path d="M2113 1403 c-19 -7 -16 -21 5 -25 18 -3 18 -6 -1 -90 -11 -47 -17
-93 -14 -102 8 -20 47 -21 73 -1 19 14 18 14 -3 15 -28 0 -28 5 -3 100 27 104
27 110 -12 109 -18 0 -39 -3 -45 -6z"/>
<path d="M3150 1400 c-13 -8 -11 -11 8 -16 12 -4 22 -8 22 -11 0 -2 -10 -42
-21 -88 -12 -47 -19 -91 -15 -100 7 -20 60 -20 76 0 10 13 9 15 -9 15 -11 0
-21 3 -21 6 0 6 37 156 46 187 4 14 -1 17 -33 17 -21 0 -45 -5 -53 -10z"/>
<path d="M4661 1366 c-16 -19 -7 -46 14 -46 22 0 30 29 13 46 -13 13 -16 13
-27 0z"/>
<path d="M300 1355 c-23 -28 15 -47 50 -25 13 8 12 11 -5 24 -25 19 -30 19
-45 1z"/>
<path d="M363 1234 c-3 -8 1 -22 9 -30 13 -13 16 -13 27 0 7 9 11 23 7 31 -7
20 -35 19 -43 -1z"/>
<path d="M4584 1239 c-9 -16 20 -41 39 -33 21 8 22 30 1 38 -23 9 -32 7 -40
-5z"/>
<path d="M440 1125 c-23 -28 21 -50 48 -23 9 9 7 14 -6 24 -22 17 -27 17 -42
-1z"/>
<path d="M4521 1126 c-10 -12 -10 -19 2 -36 12 -18 16 -18 26 -6 14 17 11 48
-5 53 -6 2 -17 -3 -23 -11z"/>
<path d="M514 1015 c-12 -29 15 -45 45 -26 12 8 12 12 2 25 -17 20 -40 21 -47
1z"/>
<path d="M4441 1017 c-8 -10 -7 -19 4 -33 15 -18 15 -18 29 -1 26 34 -6 66
-33 34z"/>
<path d="M602 919 c-15 -24 0 -51 23 -43 22 9 25 31 6 48 -15 14 -18 13 -29
-5z"/>
<path d="M4356 911 c-10 -16 5 -42 23 -39 21 4 21 42 -1 46 -9 2 -19 -1 -22
-7z"/>
<path d="M690 815 c-20 -24 5 -48 34 -33 31 16 31 17 10 33 -24 18 -29 18 -44
0z"/>
<path d="M4270 815 c-22 -26 7 -46 39 -26 12 8 12 12 2 25 -17 20 -25 20 -41
1z"/>
<path d="M783 714 c-9 -24 11 -38 37 -24 17 9 19 14 9 26 -15 19 -38 18 -46
-2z"/>
<path d="M4173 714 c-9 -24 11 -38 36 -25 25 14 27 27 5 35 -25 9 -34 7 -41
-10z"/>
<path d="M4081 646 c-13 -15 -6 -56 8 -56 5 0 14 7 21 15 9 11 9 18 -3 35 -12
18 -16 18 -26 6z"/>
<path d="M887 633 c-24 -23 12 -55 38 -33 12 10 13 16 4 26 -12 15 -31 18 -42
7z"/>
<path d="M990 545 c-22 -26 7 -46 39 -26 12 8 12 12 2 25 -17 20 -25 20 -41 1z"/>
<path d="M3966 551 c-19 -31 30 -55 53 -27 10 12 8 17 -8 25 -24 13 -38 14
-45 2z"/>
<path d="M1102 478 c-24 -24 -9 -54 22 -42 19 7 21 28 3 43 -10 8 -17 7 -25
-1z"/>
<path d="M3861 467 c-9 -11 -8 -17 3 -26 18 -15 48 -3 44 18 -4 21 -32 26 -47
8z"/>
<path d="M1210 395 c-6 -8 -9 -19 -5 -25 9 -15 41 -12 54 4 10 12 8 17 -8 25
-25 14 -26 14 -41 -4z"/>
<path d="M3751 396 c-10 -12 -10 -19 2 -36 12 -18 16 -18 26 -6 14 17 11 48
-5 53 -6 2 -17 -3 -23 -11z"/>
<path d="M3637 343 c-11 -10 -8 -41 4 -49 6 -3 18 1 27 9 13 13 13 19 2 31
-14 17 -23 20 -33 9z"/>
<path d="M1320 320 c0 -28 28 -37 48 -16 15 15 15 18 2 26 -26 17 -50 12 -50
-10z"/>
<path d="M1440 274 c-11 -12 -10 -18 3 -32 16 -15 18 -15 34 0 13 14 14 20 3
32 -7 9 -16 16 -20 16 -4 0 -13 -7 -20 -16z"/>
<path d="M3523 283 c-18 -6 -16 -42 2 -49 14 -6 45 11 45 25 0 11 -34 28 -47
24z"/>
<path d="M1564 215 c-13 -32 23 -48 47 -19 10 13 10 17 -2 25 -21 13 -39 11
-45 -6z"/>
<path d="M3392 217 c-16 -19 11 -58 28 -41 14 14 10 46 -6 51 -6 2 -16 -2 -22
-10z"/>
<path d="M1691 176 c-9 -11 -9 -19 1 -35 17 -27 26 -26 34 3 10 41 -12 60 -35
32z"/>
<path d="M3273 183 c-7 -3 -13 -13 -13 -23 0 -10 6 -20 13 -23 15 -5 47 10 47
23 0 13 -32 28 -47 23z"/>
<path d="M1820 135 c-9 -11 -11 -22 -4 -32 13 -21 25 -21 38 -1 8 14 7 21 -5
33 -14 15 -17 15 -29 0z"/>
<path d="M3140 134 c-11 -12 -10 -18 3 -32 16 -15 18 -15 34 0 13 14 14 20 3
32 -16 20 -24 20 -40 0z"/>
<path d="M1947 103 c-12 -12 -7 -31 10 -37 19 -8 48 17 39 33 -8 12 -39 15
-49 4z"/>
<path d="M3004 99 c-3 -6 1 -18 10 -27 15 -15 17 -15 32 0 19 19 11 38 -16 38
-10 0 -22 -5 -26 -11z"/>
<path d="M2081 86 c-16 -19 -7 -46 14 -46 22 0 30 29 13 46 -13 13 -16 13 -27
0z"/>
<path d="M2874 76 c-3 -8 0 -24 6 -36 9 -17 14 -19 26 -9 19 15 18 45 -2 53
-22 8 -24 8 -30 -8z"/>
<path d="M2211 56 c-14 -17 9 -39 33 -30 20 8 21 30 0 38 -21 8 -20 8 -33 -8z"/>
<path d="M2744 55 c-12 -29 15 -45 45 -26 12 8 12 12 2 25 -17 20 -40 21 -47
1z"/>
<path d="M2344 45 c-12 -29 15 -45 45 -26 12 8 12 12 2 25 -17 20 -40 21 -47
1z"/>
<path d="M2612 48 c-8 -8 -9 -15 -1 -25 15 -17 34 -17 48 1 10 12 8 17 -8 25
-24 14 -24 14 -39 -1z"/>
<path d="M2470 41 c0 -37 32 -55 44 -25 10 27 7 34 -19 34 -14 0 -25 -4 -25
-9z"/>
</g>
</svg>
