<?xml version="1.0" standalone="no"?>
<!DOCTYPE svg PUBLIC "-//W3C//DTD SVG 20010904//EN"
 "http://www.w3.org/TR/2001/REC-SVG-20010904/DTD/svg10.dtd">
<svg version="1.0" xmlns="http://www.w3.org/2000/svg"
 width="500.000000pt" height="500.000000pt" viewBox="0 0 500.000000 500.000000"
 preserveAspectRatio="xMidYMid meet">
<metadata>
Created by potrace 1.15, written by Peter Selinger 2001-2017
</metadata>
<g transform="translate(0.000000,500.000000) scale(0.100000,-0.100000)"
fill="#000000" stroke="none">
<path d="M2351 4971 c-8 -14 -7 -22 4 -31 22 -19 48 5 34 31 -5 10 -14 19 -19
19 -5 0 -14 -9 -19 -19z"/>
<path d="M2491 4977 c-26 -26 -4 -55 29 -37 25 13 25 22 1 37 -14 9 -21 9 -30
0z"/>
<path d="M2616 4971 c-8 -12 4 -41 16 -41 5 0 18 5 29 11 16 8 18 13 8 25 -13
16 -45 19 -53 5z"/>
<path d="M2214 4959 c-3 -6 0 -18 9 -26 12 -12 19 -13 38 -3 22 12 22 13 4 26
-23 17 -41 18 -51 3z"/>
<path d="M2757 4963 c-24 -23 12 -55 38 -33 12 10 13 16 4 26 -12 15 -31 18
-42 7z"/>
<path d="M2083 4934 c-3 -8 1 -22 10 -31 14 -14 16 -13 26 6 7 12 9 26 6 31
-10 15 -35 12 -42 -6z"/>
<path d="M2884 4935 c-13 -32 23 -48 47 -19 10 13 10 17 -2 25 -21 13 -39 11
-45 -6z"/>
<path d="M1957 4923 c-11 -10 -8 -41 4 -49 6 -3 18 1 27 9 13 13 13 19 2 31
-14 17 -23 20 -33 9z"/>
<path d="M3020 4915 c-22 -26 7 -46 39 -26 12 8 12 12 2 25 -17 20 -25 20 -41
1z"/>
<path d="M1832 4898 c-16 -16 -15 -33 2 -47 21 -18 41 11 26 38 -13 25 -12 25
-28 9z"/>
<path d="M3150 4885 c-19 -22 5 -48 31 -34 10 5 19 14 19 19 0 5 -9 14 -19 19
-14 8 -22 7 -31 -4z"/>
<path d="M3281 4856 c-17 -20 -6 -49 16 -44 22 4 26 20 10 42 -12 16 -14 16
-26 2z"/>
<path d="M1699 4844 c-16 -20 2 -38 30 -29 26 8 27 21 2 34 -14 8 -22 7 -32
-5z"/>
<path d="M3402 4806 c-8 -19 -8 -27 3 -36 8 -6 19 -9 25 -5 14 9 13 40 -3 54
-11 8 -16 5 -25 -13z"/>
<path d="M1567 4796 c-6 -15 11 -36 29 -36 21 0 35 25 22 38 -16 16 -45 15
-51 -2z"/>
<path d="M1451 4756 c-16 -19 -7 -46 14 -46 22 0 30 29 13 46 -13 13 -16 13
-27 0z"/>
<path d="M3527 4753 c-4 -3 -7 -15 -7 -25 0 -23 38 -25 47 -2 8 21 -24 43 -40
27z"/>
<path d="M1331 4696 c-16 -19 -7 -46 14 -46 22 0 30 29 13 46 -13 13 -16 13
-27 0z"/>
<path d="M3647 4693 c-4 -3 -7 -15 -7 -25 0 -20 26 -24 50 -8 13 9 12 12 -4
25 -22 17 -29 18 -39 8z"/>
<path d="M1211 4621 c-14 -26 12 -50 34 -31 11 9 12 17 4 31 -5 10 -14 19 -19
19 -5 0 -14 -9 -19 -19z"/>
<path d="M3755 4620 c-3 -5 -1 -19 5 -31 11 -20 12 -20 31 -3 14 13 16 20 8
31 -13 15 -35 17 -44 3z"/>
<path d="M1100 4555 c-15 -18 -6 -45 14 -45 20 0 29 16 21 40 -8 24 -18 25
-35 5z"/>
<path d="M3871 4547 c-9 -11 -8 -17 4 -27 19 -16 47 -5 43 17 -4 23 -31 28
-47 10z"/>
<path d="M3981 4478 c-11 -17 -10 -23 2 -35 18 -18 37 -9 37 16 0 31 -24 43
-39 19z"/>
<path d="M987 4466 c-3 -8 0 -20 8 -26 19 -16 59 8 43 27 -14 17 -45 17 -51
-1z"/>
<path d="M884 4385 c-12 -30 16 -45 46 -25 13 9 12 12 -4 25 -25 19 -35 19
-42 0z"/>
<path d="M4084 4385 c-12 -31 23 -48 45 -21 10 12 8 17 -8 25 -26 14 -31 14
-37 -4z"/>
<path d="M787 4303 c-24 -23 12 -55 38 -33 12 10 13 16 4 26 -12 15 -31 18
-42 7z"/>
<path d="M4184 4295 c-8 -20 3 -48 18 -43 6 2 16 12 22 21 8 13 7 20 -4 27
-21 14 -30 12 -36 -5z"/>
<path d="M696 4207 c-14 -11 -15 -15 -3 -31 13 -17 16 -18 36 -4 20 14 20 15
3 31 -15 14 -21 15 -36 4z"/>
<path d="M4280 4205 c-19 -22 5 -48 31 -34 10 5 19 14 19 19 0 5 -9 14 -19 19
-14 8 -22 7 -31 -4z"/>
<path d="M601 4106 c-9 -11 -9 -19 1 -35 7 -12 15 -21 18 -21 3 0 11 9 18 21
10 16 10 24 1 35 -6 8 -15 14 -19 14 -4 0 -13 -6 -19 -14z"/>
<path d="M4370 4105 c-15 -18 -5 -35 20 -35 10 0 22 5 25 10 7 11 -12 40 -25
40 -4 0 -13 -7 -20 -15z"/>
<path d="M513 3994 c-3 -8 1 -22 9 -30 13 -13 16 -13 27 0 7 9 11 23 7 31 -7
20 -35 19 -43 -1z"/>
<path d="M4451 3997 c-8 -10 -7 -19 4 -33 15 -18 15 -18 29 -1 26 34 -6 66
-33 34z"/>
<path d="M435 3890 c-3 -5 -1 -19 5 -30 9 -17 14 -19 26 -9 21 17 18 49 -5 49
-11 0 -23 -4 -26 -10z"/>
<path d="M4525 3890 c-7 -11 12 -50 24 -50 10 0 21 24 21 46 0 16 -36 19 -45
4z"/>
<path d="M370 3785 c-15 -18 -6 -45 14 -45 20 0 29 16 21 40 -8 24 -18 25 -35
5z"/>
<path d="M4600 3784 c-11 -12 -10 -18 3 -31 22 -23 52 0 36 28 -12 23 -22 24
-39 3z"/>
<path d="M1615 3762 c-12 -12 -3 -22 20 -22 17 0 26 -7 30 -22 5 -25 25 -264
25 -304 0 -20 5 -24 30 -24 29 0 33 6 87 118 l56 117 8 -60 c5 -33 11 -86 14
-118 6 -56 8 -58 33 -55 24 3 36 21 107 159 89 173 99 189 126 189 11 0 19 7
19 15 0 12 -14 15 -64 15 -44 0 -67 -5 -76 -15 -11 -13 -8 -15 13 -15 14 0 28
-3 30 -7 6 -10 -120 -265 -126 -256 -9 15 -29 232 -24 248 4 8 16 15 27 15 11
0 20 7 20 15 0 13 -14 15 -82 13 -84 -3 -115 -20 -58 -31 23 -5 30 -12 30 -29
0 -26 -99 -238 -112 -238 -4 0 -9 35 -9 78 -1 42 -4 108 -8 147 l-6 70 -52 1
c-29 0 -55 -1 -58 -4z"/>
<path d="M2526 3691 c-14 -22 -36 -41 -50 -45 -31 -8 -35 -26 -6 -26 25 0 25
-8 0 -121 -23 -103 -19 -119 35 -119 20 0 39 8 51 22 l19 21 -32 -6 c-39 -8
-39 -8 -17 99 18 90 27 104 60 104 15 0 24 6 24 15 0 10 -10 15 -26 15 -25 0
-26 2 -20 40 8 51 -6 52 -38 1z"/>
<path d="M300 3665 c-10 -12 -10 -19 1 -32 7 -10 15 -20 16 -22 4 -5 32 31 33
41 0 4 -9 12 -19 17 -14 8 -22 7 -31 -4z"/>
<path d="M4670 3665 c-15 -18 -5 -35 20 -35 10 0 22 5 25 10 7 11 -12 40 -25
40 -4 0 -13 -7 -20 -15z"/>
<path d="M2208 3640 c-59 -31 -91 -82 -96 -150 -4 -53 -2 -61 21 -84 33 -33
67 -33 105 -1 37 31 40 31 44 3 4 -27 50 -37 74 -17 23 19 17 32 -12 25 -22
-6 -25 -4 -20 9 12 33 46 174 46 193 0 41 -100 55 -162 22z m86 -6 c35 -13 8
-135 -41 -186 -33 -34 -58 -36 -78 -5 -13 20 -13 30 -1 76 16 64 47 99 103
120 1 1 8 -2 17 -5z"/>
<path d="M2724 3640 c-49 -24 -78 -62 -94 -119 -22 -83 16 -141 92 -141 42 0
101 21 113 40 12 19 0 21 -38 5 -54 -22 -84 -19 -104 11 -24 37 -9 53 72 79
98 32 130 80 85 125 -26 26 -73 26 -126 0z m84 -23 c9 -43 -7 -65 -59 -82 -27
-9 -53 -14 -56 -11 -11 10 20 66 50 92 33 28 60 28 65 1z"/>
<path d="M3087 3649 c-10 -6 -32 -29 -48 -52 l-31 -42 7 48 7 47 -35 0 c-41 0
-67 -8 -67 -21 0 -5 9 -9 20 -9 11 0 20 -6 20 -14 0 -8 -9 -58 -20 -111 -11
-53 -20 -99 -20 -101 0 -2 11 -4 25 -4 19 0 26 6 31 28 13 63 38 113 74 154
37 40 41 42 54 26 7 -10 18 -18 24 -18 12 0 26 55 17 70 -8 13 -35 12 -58 -1z"/>
<path d="M242 3549 c-12 -18 -11 -24 2 -37 15 -15 17 -15 32 0 13 13 14 19 2
37 -7 11 -15 21 -18 21 -3 0 -11 -10 -18 -21z"/>
<path d="M4730 3545 c-19 -22 5 -48 31 -34 10 5 19 14 19 19 0 5 -9 14 -19 19
-14 8 -22 7 -31 -4z"/>
<path d="M4781 3427 c-8 -10 -7 -19 3 -32 12 -16 16 -17 30 -6 12 10 13 18 5
32 -12 22 -22 24 -38 6z"/>
<path d="M184 3419 c-3 -6 1 -18 10 -27 15 -15 17 -15 32 0 19 19 11 38 -16
38 -10 0 -22 -5 -26 -11z"/>
<path d="M4831 3306 c-16 -19 -7 -46 14 -46 22 0 30 29 13 46 -13 13 -16 13
-27 0z"/>
<path d="M144 3295 c-12 -31 23 -48 45 -21 10 12 8 17 -8 25 -26 14 -31 14
-37 -4z"/>
<path d="M102 3168 c-13 -13 2 -38 23 -38 21 0 36 25 23 38 -7 7 -17 12 -23
12 -6 0 -16 -5 -23 -12z"/>
<path d="M4865 3170 c-8 -12 3 -50 14 -50 15 0 33 30 27 45 -6 17 -32 20 -41
5z"/>
<path d="M2801 3116 c-16 -28 -8 -46 20 -46 24 0 36 27 22 48 -15 25 -28 24
-42 -2z"/>
<path d="M2360 3101 c0 -16 6 -21 25 -21 15 0 25 -6 25 -15 0 -21 -58 -284
-65 -295 -4 -6 -17 -10 -31 -10 -15 0 -24 -6 -24 -15 0 -12 16 -15 87 -15 197
0 277 36 271 122 -2 35 -9 46 -35 64 l-32 21 33 16 c41 19 64 67 48 102 -22
48 -57 60 -184 64 -114 3 -118 2 -118 -18z m217 -29 c23 -15 26 -66 5 -91 -14
-19 -31 -25 -75 -29 -32 -2 -57 -1 -57 4 1 11 19 95 25 112 5 13 82 17 102 4z
m-19 -168 c27 -19 30 -72 5 -103 -18 -22 -75 -40 -127 -41 -24 0 -27 3 -23 23
3 12 11 48 17 80 l11 57 47 0 c27 0 57 -7 70 -16z"/>
<path d="M3387 3113 c-12 -11 -8 -21 12 -26 13 -3 18 -11 16 -23 -23 -101 -65
-312 -65 -322 0 -6 9 -12 20 -12 21 0 40 27 40 57 0 27 45 113 75 146 55 58
68 26 39 -99 -21 -90 -16 -106 33 -102 39 3 60 28 24 28 -25 0 -25 -3 -1 90
27 103 26 138 -4 151 -31 14 -75 -8 -112 -56 -15 -20 -28 -34 -30 -32 -2 2 5
44 16 93 11 49 20 95 20 102 0 13 -71 18 -83 5z"/>
<path d="M3245 3049 c-9 -17 -32 -40 -51 -51 -40 -23 -44 -38 -10 -38 l24 0
-19 -82 c-21 -96 -24 -134 -8 -144 18 -11 69 -7 85 7 24 19 16 31 -16 24 -35
-8 -35 -9 -15 87 22 104 24 108 49 108 13 0 29 6 35 14 10 12 7 15 -16 18 -26
3 -28 6 -25 46 3 49 -11 54 -33 11z"/>
<path d="M80 3045 c-15 -18 -7 -45 13 -45 8 0 20 6 26 13 8 11 6 18 -8 31 -16
15 -20 15 -31 1z"/>
<path d="M4902 3037 c-16 -19 2 -40 27 -32 25 8 28 30 5 39 -21 8 -20 8 -32
-7z"/>
<path d="M2743 2993 c-22 -8 -15 -32 8 -26 23 6 23 9 -13 -129 -11 -43 -18
-85 -14 -93 7 -18 67 -20 84 -3 18 18 15 27 -8 21 -26 -7 -25 0 5 120 14 54
25 102 25 107 0 10 -65 13 -87 3z"/>
<path d="M2923 2993 c-28 -5 -30 -23 -3 -23 11 0 20 -6 20 -13 0 -7 -9 -56
-20 -107 -25 -118 -25 -120 5 -120 18 0 25 5 25 20 0 41 43 133 82 173 39 41
40 42 51 20 16 -28 35 -17 43 25 6 30 5 32 -23 32 -35 0 -53 -13 -89 -60 l-26
-35 7 48 c6 47 6 47 -22 46 -15 -1 -38 -4 -50 -6z"/>
<path d="M47 2913 c-24 -23 12 -55 38 -33 12 10 13 16 4 26 -12 15 -31 18 -42
7z"/>
<path d="M4923 2909 c-15 -15 -5 -39 17 -39 26 0 43 23 28 38 -15 15 -31 15
-45 1z"/>
<path d="M600 2828 c-116 -16 -168 -52 -235 -163 -76 -126 -102 -307 -61 -424
18 -52 79 -126 134 -163 21 -14 22 -24 26 -149 9 -252 34 -386 83 -441 9 -10
12 -25 8 -37 -10 -32 19 -75 64 -96 53 -24 186 -17 254 13 26 11 101 70 172
134 138 124 203 169 277 194 44 14 55 14 125 0 45 -9 108 -32 157 -57 130 -68
201 -57 380 58 53 34 67 38 135 41 68 3 88 -1 189 -37 63 -23 131 -41 152 -41
25 0 68 15 122 41 75 37 88 40 143 36 33 -2 89 -17 125 -32 36 -14 91 -29 123
-32 54 -6 64 -3 153 42 91 45 99 47 157 42 41 -3 91 -17 146 -42 106 -47 141
-45 271 15 127 59 189 60 306 7 110 -50 159 -50 240 -1 133 81 203 84 415 19
13 -4 21 -4 18 -1 -15 15 -214 76 -250 76 -52 0 -113 -22 -195 -70 -83 -49
-117 -50 -200 -11 -80 38 -162 54 -225 46 -27 -4 -90 -27 -140 -51 -112 -54
-142 -56 -240 -9 -140 66 -221 66 -331 -2 -55 -34 -61 -35 -125 -30 -40 3 -94
17 -133 33 -84 36 -176 39 -235 8 -22 -12 -55 -29 -74 -39 -61 -32 -112 -31
-187 4 -87 41 -168 61 -243 61 -68 0 -64 -3 -151 104 -130 160 -326 270 -562
316 -109 21 -200 136 -231 293 -18 88 -37 124 -118 217 -106 123 -227 158
-439 128z m263 -232 c18 -7 59 -34 92 -60 44 -34 65 -45 80 -41 49 16 57 12
75 -41 10 -28 29 -69 43 -90 24 -36 47 -126 47 -181 0 -28 -195 -233 -222
-233 -44 0 -240 73 -295 109 -67 46 -96 75 -148 151 -35 52 -37 58 -33 120 9
125 85 223 207 266 48 17 114 17 154 0z m527 -516 c68 -48 86 -156 40 -240
-22 -39 -37 -51 -116 -90 -103 -51 -115 -60 -314 -226 l-146 -121 -83 -12
c-114 -15 -156 -14 -171 4 -11 13 -11 20 0 40 9 16 10 43 6 87 -13 121 26 214
111 269 46 28 123 41 123 20 0 -5 -24 -34 -53 -63 -47 -47 -77 -98 -58 -98 4
0 29 23 56 51 28 28 93 86 145 129 53 43 124 110 159 149 108 122 219 159 301
101z m-717 -91 c60 -12 107 -27 107 -33 0 -25 -18 -33 -78 -40 -82 -9 -110
-20 -149 -58 -18 -18 -36 -28 -40 -25 -11 11 -7 129 5 159 7 18 17 25 29 23
10 -2 66 -14 126 -26z m223 -60 c32 -7 63 -15 68 -20 4 -4 -10 -19 -32 -34
-34 -23 -43 -24 -65 -14 -30 14 -61 55 -52 69 8 12 9 12 81 -1z m-117 -58 c10
-6 2 -11 -25 -15 -74 -13 -116 -45 -151 -116 -31 -61 -33 -63 -33 -32 0 23 -4
32 -12 29 -10 -3 -13 -32 -11 -103 1 -95 1 -97 -12 -59 -17 50 -17 149 -2 193
14 37 61 90 91 102 28 12 137 12 155 1z"/>
<path d="M847 2486 c-59 -22 -90 -56 -49 -56 22 0 117 45 126 59 10 15 -30 13
-77 -3z"/>
<path d="M982 2447 c-7 -16 -12 -32 -12 -37 0 -11 -68 -70 -80 -70 -6 0 -10
-7 -10 -15 0 -29 39 -15 75 27 38 45 50 74 42 105 -3 15 -6 13 -15 -10z"/>
<path d="M694 2362 c-15 -9 -74 -127 -74 -147 0 -33 21 -11 59 62 37 71 43
103 15 85z"/>
<path d="M777 2219 c-15 -20 -48 -47 -72 -60 -25 -13 -45 -27 -45 -31 0 -18
50 -6 86 20 53 39 66 57 62 84 -3 22 -5 21 -31 -13z"/>
<path d="M947 2188 c-13 -30 -21 -38 -42 -38 -17 0 -25 -5 -22 -12 2 -7 16
-13 32 -13 39 0 73 45 58 77 -10 22 -11 22 -26 -14z"/>
<path d="M1016 2099 c-33 -39 -31 -73 5 -77 33 -4 51 19 53 65 1 49 -23 54
-58 12z"/>
<path d="M4946 2784 c-15 -39 0 -56 32 -35 12 7 12 12 1 30 -16 25 -25 27 -33
5z"/>
<path d="M22 2778 c-13 -13 2 -38 24 -38 20 0 27 19 14 35 -15 18 -22 19 -38
3z"/>
<path d="M20 2644 c-11 -12 -11 -18 2 -30 13 -13 19 -14 36 -3 20 12 20 15 5
31 -20 22 -27 22 -43 2z"/>
<path d="M4957 2653 c-11 -10 -8 -41 4 -49 6 -3 18 1 27 9 13 13 13 19 2 31
-14 17 -23 20 -33 9z"/>
<path d="M4955 2510 c-8 -24 1 -40 21 -40 20 0 29 27 14 45 -17 20 -27 19 -35
-5z"/>
<path d="M13 2513 c-21 -8 -15 -30 9 -37 27 -6 43 7 35 28 -6 16 -21 19 -44 9z"/>
<path d="M4956 2384 c-11 -29 -6 -44 13 -44 26 0 34 15 21 40 -13 24 -26 26
-34 4z"/>
<path d="M20 2375 c-15 -18 -5 -35 20 -35 10 0 22 5 25 10 7 11 -12 40 -25 40
-4 0 -13 -7 -20 -15z"/>
<path d="M24 2239 c-3 -6 0 -17 8 -25 12 -12 17 -12 32 -1 11 8 16 19 12 25
-9 15 -43 15 -52 1z"/>
<path d="M4940 2231 c0 -27 15 -34 40 -21 17 9 19 14 9 26 -17 21 -49 18 -49
-5z"/>
<path d="M50 2114 c-11 -12 -10 -18 3 -32 21 -21 42 -3 32 27 -8 25 -18 27
-35 5z"/>
<path d="M4921 2111 c-16 -28 14 -51 36 -28 13 13 14 19 3 31 -17 21 -27 20
-39 -3z"/>
<path d="M71 1981 c-8 -14 -7 -22 4 -31 22 -19 48 5 34 31 -5 10 -14 19 -19
19 -5 0 -14 -9 -19 -19z"/>
<path d="M4891 1977 c-9 -11 -8 -17 4 -27 19 -16 47 -5 43 17 -4 23 -31 28
-47 10z"/>
<path d="M103 1844 c-9 -24 11 -38 37 -24 17 9 19 14 9 26 -15 19 -38 18 -46
-2z"/>
<path d="M4867 1853 c-24 -23 12 -55 38 -33 12 10 13 16 4 26 -12 15 -31 18
-42 7z"/>
<path d="M142 1718 c-7 -10 -6 -19 4 -33 15 -20 15 -20 30 0 8 10 13 24 11 30
-5 15 -33 17 -45 3z"/>
<path d="M4824 1715 c-13 -32 23 -48 47 -19 10 13 10 17 -2 25 -21 13 -39 11
-45 -6z"/>
<path d="M192 1598 c-8 -8 -9 -15 -1 -25 14 -16 31 -17 47 -1 9 9 7 14 -6 24
-21 17 -25 17 -40 2z"/>
<path d="M4782 1598 c-8 -8 -9 -15 -1 -25 14 -16 31 -17 47 -1 9 9 7 14 -6 24
-21 17 -25 17 -40 2z"/>
<path d="M240 1474 c-11 -12 -11 -18 2 -30 13 -13 20 -14 38 -4 21 11 21 12 4
31 -21 23 -28 24 -44 3z"/>
<path d="M4731 1476 c-18 -22 4 -62 25 -45 18 15 18 33 0 48 -10 9 -16 8 -25
-3z"/>
<path d="M3355 1395 c-5 -2 -36 -11 -68 -20 -54 -15 -97 -43 -97 -64 0 -5 25
5 56 21 61 33 114 35 157 4 12 -9 44 -32 71 -51 68 -50 117 -48 225 6 44 22
81 44 81 50 0 12 -4 12 -99 -16 -116 -34 -133 -33 -184 14 -62 56 -99 71 -142
56z"/>
<path d="M302 1360 c-15 -24 -8 -40 18 -40 23 0 31 21 15 43 -16 22 -17 21
-33 -3z"/>
<path d="M4671 1356 c-17 -20 7 -60 26 -44 17 14 17 33 -1 47 -10 9 -16 8 -25
-3z"/>
<path d="M2090 1316 c-127 -51 -156 -58 -210 -53 -30 3 -64 9 -75 13 l-20 7
20 -23 c51 -58 136 -65 228 -18 87 45 161 45 274 1 83 -33 136 -40 216 -27 65
11 40 23 -45 21 -79 -2 -88 0 -177 42 -104 49 -159 58 -211 37z"/>
<path d="M365 1240 c-9 -15 4 -50 20 -50 16 0 29 35 20 50 -3 5 -12 10 -20 10
-8 0 -17 -5 -20 -10z"/>
<path d="M4602 1238 c-13 -13 2 -38 23 -38 21 0 36 25 23 38 -7 7 -17 12 -23
12 -6 0 -16 -5 -23 -12z"/>
<path d="M440 1130 c-13 -25 3 -52 26 -43 18 7 18 37 0 52 -12 10 -17 8 -26
-9z"/>
<path d="M4526 1123 c-4 -9 0 -23 9 -32 13 -14 17 -14 32 1 13 14 14 20 3 32
-16 21 -36 20 -44 -1z"/>
<path d="M514 1015 c-8 -20 4 -35 26 -35 25 0 35 17 20 35 -16 19 -39 19 -46
0z"/>
<path d="M4454 1015 c-4 -9 -2 -21 4 -27 15 -15 44 -1 40 19 -4 23 -36 29 -44
8z"/>
<path d="M2909 956 c-53 -14 -111 -46 -117 -64 -2 -8 17 -3 49 14 73 37 125
36 209 -5 88 -42 160 -43 245 -2 105 51 130 84 29 39 -65 -29 -168 -29 -244
-1 -76 29 -117 34 -171 19z"/>
<path d="M4366 913 c-4 -9 -1 -23 7 -30 12 -12 16 -12 26 1 16 19 8 46 -13 46
-7 0 -17 -8 -20 -17z"/>
<path d="M600 901 c0 -27 15 -34 39 -19 15 9 17 15 9 25 -16 20 -48 16 -48 -6z"/>
<path d="M694 814 c-8 -33 6 -48 30 -31 16 12 17 16 5 35 -18 29 -27 28 -35
-4z"/>
<path d="M4280 814 c-11 -12 -11 -18 1 -30 13 -12 18 -12 34 0 16 12 17 16 6
30 -17 20 -25 20 -41 0z"/>
<path d="M784 715 c-13 -32 23 -48 47 -19 10 13 10 17 -2 25 -21 13 -39 11
-45 -6z"/>
<path d="M4187 723 c-24 -23 12 -55 38 -33 12 10 13 16 4 26 -12 15 -31 18
-42 7z"/>
<path d="M887 633 c-24 -23 12 -55 38 -33 12 10 13 16 4 26 -12 15 -31 18 -42
7z"/>
<path d="M4084 625 c-13 -32 23 -48 47 -19 10 13 10 17 -2 25 -21 13 -39 11
-45 -6z"/>
<path d="M3981 551 c-8 -14 -7 -22 5 -32 20 -16 38 2 29 30 -8 26 -21 27 -34
2z"/>
<path d="M993 549 c-15 -15 -5 -39 16 -39 29 0 43 21 23 36 -21 17 -25 17 -39
3z"/>
<path d="M3871 471 c-14 -26 12 -50 34 -31 11 9 12 17 4 31 -5 10 -14 19 -19
19 -5 0 -14 -9 -19 -19z"/>
<path d="M1094 465 c-4 -9 0 -24 10 -33 15 -15 18 -15 26 -2 6 8 9 22 7 30 -3
21 -36 25 -43 5z"/>
<path d="M1213 399 c-27 -27 13 -51 47 -29 13 9 12 12 -4 25 -24 18 -29 18
-43 4z"/>
<path d="M3760 395 c-6 -8 -9 -19 -5 -25 9 -15 41 -12 54 4 10 12 8 17 -8 25
-25 14 -26 14 -41 -4z"/>
<path d="M1332 339 c-12 -18 -11 -24 1 -36 29 -29 49 6 25 40 -12 16 -14 16
-26 -4z"/>
<path d="M3647 343 c-11 -10 -8 -41 4 -49 6 -3 18 1 27 9 13 13 13 19 2 31
-14 17 -23 20 -33 9z"/>
<path d="M1450 275 c-16 -19 -5 -47 17 -43 11 2 18 12 18 27 0 29 -17 37 -35
16z"/>
<path d="M3527 283 c-11 -10 -8 -41 4 -49 6 -3 18 1 27 9 13 13 13 19 2 31
-14 17 -23 20 -33 9z"/>
<path d="M1567 216 c-8 -19 16 -38 37 -30 20 8 21 30 0 38 -24 9 -31 7 -37 -8z"/>
<path d="M3397 216 c-9 -23 18 -39 43 -26 17 9 19 14 9 26 -15 18 -45 18 -52
0z"/>
<path d="M1703 183 c-15 -5 -17 -39 -3 -48 11 -7 50 11 50 23 0 12 -34 29 -47
25z"/>
<path d="M3270 163 c0 -10 5 -25 10 -33 9 -13 12 -12 25 5 19 24 15 39 -13 43
-16 2 -22 -2 -22 -15z"/>
<path d="M1821 131 c-8 -14 -6 -22 9 -36 17 -16 19 -16 30 5 9 16 9 25 -1 36
-16 19 -26 18 -38 -5z"/>
<path d="M3150 135 c-9 -11 -11 -22 -4 -32 13 -21 25 -21 38 -1 8 14 7 21 -5
33 -14 15 -17 15 -29 0z"/>
<path d="M1951 101 c-16 -28 14 -51 36 -28 13 13 14 19 3 31 -17 21 -27 20
-39 -3z"/>
<path d="M3014 95 c-13 -32 23 -48 47 -19 10 13 10 17 -2 25 -21 13 -39 11
-45 -6z"/>
<path d="M2084 75 c-12 -30 16 -45 46 -25 13 9 12 12 -4 25 -25 19 -35 19 -42
0z"/>
<path d="M2887 83 c-12 -11 -8 -40 7 -52 12 -10 17 -8 26 9 16 29 -12 65 -33
43z"/>
<path d="M2751 61 c-8 -14 -7 -22 4 -31 22 -19 48 5 34 31 -12 24 -26 24 -38
0z"/>
<path d="M2221 56 c-11 -14 -5 -46 9 -46 15 0 32 30 26 45 -7 19 -20 19 -35 1z"/>
<path d="M2352 48 c-13 -13 2 -38 23 -38 21 0 36 25 23 38 -15 15 -31 15 -46
0z"/>
<path d="M2484 45 c-8 -21 2 -45 20 -45 18 0 29 42 13 52 -18 12 -27 10 -33
-7z"/>
<path d="M2623 49 c-13 -13 -6 -39 11 -39 6 0 17 4 25 9 12 8 12 12 2 25 -16
19 -23 20 -38 5z"/>
</g>
</svg>
