<?xml version="1.0" standalone="no"?>
<!DOCTYPE svg PUBLIC "-//W3C//DTD SVG 20010904//EN"
 "http://www.w3.org/TR/2001/REC-SVG-20010904/DTD/svg10.dtd">
<svg version="1.0" xmlns="http://www.w3.org/2000/svg"
 width="500.000000pt" height="500.000000pt" viewBox="0 0 500.000000 500.000000"
 preserveAspectRatio="xMidYMid meet">
<metadata>
Created by potrace 1.15, written by Peter Selinger 2001-2017
</metadata>
<g transform="translate(0.000000,500.000000) scale(0.100000,-0.100000)"
fill="#000000" stroke="none">
<path d="M2347 4983 c-12 -11 -7 -41 7 -46 8 -3 22 0 32 8 15 11 16 15 5 29
-14 17 -33 21 -44 9z"/>
<path d="M2480 4980 c-12 -7 -12 -13 -4 -27 16 -26 39 -22 39 6 0 27 -13 35
-35 21z"/>
<path d="M2617 4983 c-12 -11 -8 -41 6 -46 7 -3 22 2 32 10 20 14 20 14 1 29
-22 16 -30 17 -39 7z"/>
<path d="M2217 4973 c-15 -14 -7 -43 12 -43 26 0 36 17 21 35 -14 16 -23 19
-33 8z"/>
<path d="M2749 4964 c-15 -18 0 -38 27 -32 25 5 28 25 6 37 -15 8 -23 7 -33
-5z"/>
<path d="M2080 4945 c-23 -28 21 -50 48 -23 9 9 7 14 -6 24 -22 17 -27 17 -42
-1z"/>
<path d="M2880 4945 c-22 -26 7 -46 39 -26 12 8 12 12 2 25 -17 20 -25 20 -41
1z"/>
<path d="M1943 4914 c-3 -8 1 -22 9 -30 13 -13 16 -13 27 0 7 9 11 23 7 31 -7
20 -35 19 -43 -1z"/>
<path d="M3003 4914 c-3 -8 1 -22 9 -30 13 -13 16 -13 27 0 7 9 11 23 7 31 -7
20 -35 19 -43 -1z"/>
<path d="M1817 4887 c-3 -8 -1 -20 3 -27 7 -11 13 -12 37 -1 27 12 27 13 8 27
-24 18 -41 18 -48 1z"/>
<path d="M3136 4884 c-11 -30 13 -44 43 -25 12 8 12 12 2 25 -17 20 -37 20
-45 0z"/>
<path d="M1691 4846 c-18 -21 11 -41 39 -26 17 9 19 14 9 26 -15 18 -33 18
-48 0z"/>
<path d="M3266 4843 c-4 -9 -1 -20 6 -25 18 -11 24 -10 39 8 10 13 10 17 -2
25 -21 13 -36 11 -43 -8z"/>
<path d="M3392 4809 c-12 -18 -11 -24 3 -38 15 -15 17 -15 30 3 11 14 11 22 2
37 -15 24 -19 24 -35 -2z"/>
<path d="M1571 4806 c-18 -22 4 -62 25 -45 18 15 18 33 0 48 -10 9 -16 8 -25
-3z"/>
<path d="M1441 4746 c-18 -21 11 -41 38 -26 25 13 27 26 5 34 -23 9 -30 8 -43
-8z"/>
<path d="M3514 4745 c-4 -9 -2 -21 3 -26 14 -14 45 1 41 20 -4 22 -37 26 -44
6z"/>
<path d="M3637 4703 c-11 -10 -8 -41 4 -49 6 -3 18 1 27 9 13 13 13 19 2 31
-14 17 -23 20 -33 9z"/>
<path d="M1323 4684 c-9 -24 11 -38 37 -24 17 9 19 14 9 26 -15 19 -38 18 -46
-2z"/>
<path d="M1210 4630 c-11 -7 -12 -13 -1 -37 12 -27 13 -27 27 -8 8 10 14 24
14 31 0 16 -24 24 -40 14z"/>
<path d="M3750 4625 c-6 -8 -9 -19 -5 -25 9 -15 41 -12 54 4 10 12 8 17 -8 25
-25 14 -26 14 -41 -4z"/>
<path d="M3860 4554 c-11 -12 -10 -18 3 -32 16 -15 18 -15 34 0 13 14 14 20 3
32 -7 9 -16 16 -20 16 -4 0 -13 -7 -20 -16z"/>
<path d="M1095 4550 c-4 -6 -1 -17 5 -25 9 -11 16 -12 30 -2 14 8 16 15 8 24
-13 16 -34 17 -43 3z"/>
<path d="M2260 4521 c-450 -83 -809 -387 -957 -811 -57 -162 -68 -228 -68
-425 0 -197 11 -264 67 -425 150 -424 511 -729 963 -812 106 -19 362 -17 465
5 390 83 702 322 875 672 183 369 177 796 -16 1153 -177 330 -479 557 -849
637 -121 26 -354 29 -480 6z m420 -185 c132 -30 242 -72 345 -132 85 -50 195
-131 194 -142 0 -4 -106 -99 -235 -212 -290 -253 -297 -259 -513 -450 -97 -86
-291 -257 -431 -380 -140 -123 -290 -255 -333 -293 -93 -84 -89 -85 -164 61
-121 233 -166 480 -120 668 90 378 278 630 582 781 242 121 447 151 675 99z
m845 -799 c30 -108 43 -232 34 -330 -16 -165 -113 -415 -215 -557 -132 -182
-349 -327 -609 -406 -81 -25 -105 -28 -240 -28 -166 0 -243 15 -400 78 -132
53 -354 194 -340 216 3 5 146 132 318 283 171 151 530 467 797 702 l485 428
72 -149 c40 -82 84 -189 98 -237z"/>
<path d="M2136 4133 c-35 -183 -57 -250 -107 -334 -64 -107 -75 -178 -39 -250
82 -160 321 -130 361 46 14 65 6 93 -78 252 -53 100 -54 104 -74 255 -10 84
-19 159 -19 166 0 6 -4 12 -8 12 -4 0 -21 -66 -36 -147z m43 -57 c10 -104 14
-115 77 -247 68 -144 80 -196 56 -259 -25 -65 -107 -107 -180 -94 -48 9 -106
66 -123 122 -15 52 -1 127 36 187 68 110 114 258 115 364 0 71 7 44 19 -73z"/>
<path d="M2200 3722 c0 -5 7 -29 15 -52 18 -51 19 -102 3 -118 -9 -9 -9 -12 1
-12 38 0 54 86 27 139 -16 31 -46 59 -46 43z"/>
<path d="M2794 3284 c-23 -23 -56 -46 -75 -52 -19 -6 -60 -18 -91 -27 -32 -10
-75 -33 -98 -52 -47 -40 -112 -159 -104 -190 3 -12 -4 -31 -19 -49 -59 -70
-69 -124 -41 -208 l16 -47 -81 -83 c-44 -46 -88 -100 -96 -119 -17 -40 -20
-144 -5 -167 15 -24 20 -7 9 36 -19 75 1 118 99 212 109 104 124 114 166 114
49 0 75 -18 97 -65 26 -59 24 -78 -6 -42 -28 34 -31 29 -11 -20 18 -43 7 -46
-18 -4 -24 41 -30 32 -11 -16 9 -20 14 -43 11 -51 -8 -21 -52 -45 -70 -38 -24
9 -20 23 9 30 24 6 32 23 19 37 -3 3 -22 -2 -40 -11 -29 -13 -40 -14 -66 -4
-41 15 -47 8 -11 -14 15 -10 40 -29 55 -42 l28 -25 40 18 c25 11 55 37 76 67
l36 48 71 0 c40 0 89 4 110 9 20 5 37 8 37 7 0 0 -4 -17 -10 -36 -15 -51 2
-92 49 -118 21 -12 46 -22 54 -22 26 0 62 20 75 41 17 27 0 59 -28 52 -22 -6
-26 -18 -10 -28 13 -8 13 -35 1 -35 -5 0 -17 7 -26 17 -16 15 -16 34 0 78 6
17 3 16 -15 -5 -15 -16 -20 -33 -18 -52 5 -30 -6 -38 -16 -12 -11 30 -6 61 15
88 16 20 17 26 6 26 -21 0 -37 -23 -44 -64 -7 -46 -23 -37 -23 13 0 43 35 87
77 97 44 11 116 -6 176 -41 32 -19 64 -35 70 -35 23 1 -59 60 -113 81 -30 12
-56 23 -58 25 -2 1 3 15 11 31 17 33 37 161 37 234 0 74 -29 201 -51 225 -10
11 -19 27 -19 35 0 8 -16 23 -35 34 l-36 19 28 23 28 24 -45 -6 -45 -6 33 30
c40 38 28 39 -39 5 -28 -14 -53 -23 -56 -21 -2 3 5 24 17 47 12 23 20 43 18
44 -2 1 -21 -17 -44 -40z m42 -106 c98 -45 171 -142 181 -241 7 -69 -13 -250
-32 -287 -24 -47 -139 -99 -235 -107 -108 -8 -124 -2 -165 61 -38 59 -49 66
-106 66 -42 0 -73 22 -89 66 -17 44 -11 79 25 138 19 32 35 70 35 83 0 14 8
37 19 51 10 15 28 46 40 69 22 44 89 97 151 119 43 16 120 8 176 -18z"/>
<path d="M2605 3010 c-4 -6 12 -10 42 -9 36 0 43 3 28 9 -28 12 -63 12 -70 0z"/>
<path d="M2893 2935 c21 -15 40 -25 43 -22 7 7 -29 34 -56 42 -20 5 -17 1 13
-20z"/>
<path d="M2560 2915 c0 -11 61 -35 90 -35 47 0 36 15 -21 28 -55 13 -69 14
-69 7z"/>
<path d="M2810 2859 c0 -15 62 -49 89 -49 31 0 24 7 -38 36 -28 13 -51 19 -51
13z"/>
<path d="M2666 2805 c-3 -8 2 -21 10 -30 13 -13 19 -13 32 -3 14 12 13 13 -6
16 -13 2 -19 8 -15 18 3 8 1 14 -5 14 -5 0 -12 -7 -16 -15z"/>
<path d="M2785 2781 c6 -20 4 -23 -9 -18 -45 19 -52 19 -32 3 11 -9 26 -16 33
-16 19 0 28 29 13 43 -10 10 -11 7 -5 -12z"/>
<path d="M2655 2705 c22 -17 78 -35 114 -35 35 0 21 9 -35 24 -27 7 -60 16
-74 20 -24 7 -24 6 -5 -9z"/>
<path d="M2367 2316 c-51 -59 -54 -66 -33 -66 12 0 59 56 90 108 19 32 -15 7
-57 -42z"/>
<path d="M2791 2341 c-12 -8 -12 -12 -2 -25 8 -9 19 -16 25 -16 6 0 2 8 -9 17
-19 15 -18 15 15 9 33 -5 34 -5 16 9 -23 17 -26 18 -45 6z"/>
<path d="M2514 2320 c-25 -10 -39 -28 -29 -38 3 -4 11 1 17 11 7 14 17 17 35
12 17 -4 24 -2 21 6 -6 17 -19 19 -44 9z"/>
<path d="M991 4476 c-10 -12 -10 -20 0 -37 11 -22 12 -22 25 -4 17 24 17 30 0
44 -10 9 -16 8 -25 -3z"/>
<path d="M3973 4479 c-27 -27 13 -51 47 -29 13 8 12 11 -5 24 -24 19 -28 19
-42 5z"/>
<path d="M884 4389 c-3 -6 0 -17 8 -25 12 -12 17 -12 33 1 17 13 18 16 5 25
-20 13 -37 13 -46 -1z"/>
<path d="M4074 4389 c-3 -6 0 -17 7 -24 12 -12 17 -11 34 1 17 13 18 16 5 24
-20 13 -37 12 -46 -1z"/>
<path d="M791 4307 c-26 -26 -2 -53 32 -35 22 11 22 20 -2 35 -14 9 -21 9 -30
0z"/>
<path d="M4183 4313 c-17 -6 -17 -39 0 -46 12 -4 55 19 46 26 -2 1 -11 8 -19
13 -8 6 -21 9 -27 7z"/>
<path d="M687 4207 c-3 -8 -1 -20 3 -27 7 -11 14 -12 36 -2 26 12 26 13 8 27
-24 18 -40 19 -47 2z"/>
<path d="M4264 4205 c-13 -32 23 -48 47 -19 10 13 10 17 -2 25 -21 13 -39 11
-45 -6z"/>
<path d="M596 4111 c-10 -16 5 -41 24 -41 19 0 34 25 24 41 -3 5 -14 9 -24 9
-10 0 -21 -4 -24 -9z"/>
<path d="M4354 4109 c-3 -6 1 -18 10 -27 15 -15 17 -15 34 1 15 16 15 19 2 27
-20 13 -37 12 -46 -1z"/>
<path d="M4440 4010 c-13 -25 -5 -40 21 -40 19 0 24 15 13 44 -8 22 -21 20
-34 -4z"/>
<path d="M520 4005 c-22 -26 7 -46 39 -26 12 8 12 12 2 25 -17 20 -25 20 -41
1z"/>
<path d="M434 3895 c-12 -31 28 -49 54 -23 9 9 7 14 -6 24 -23 18 -41 17 -48
-1z"/>
<path d="M4514 3895 c-8 -20 4 -35 26 -35 25 0 35 17 20 35 -16 19 -39 19 -46
0z"/>
<path d="M371 3796 c-16 -19 -7 -46 14 -46 22 0 30 29 13 46 -13 13 -16 13
-27 0z"/>
<path d="M4590 3785 c-15 -18 -5 -35 20 -35 10 0 22 5 25 10 7 11 -12 40 -25
40 -4 0 -13 -7 -20 -15z"/>
<path d="M301 3666 c-18 -21 11 -41 39 -26 17 9 19 14 9 26 -15 18 -33 18 -48
0z"/>
<path d="M4655 3670 c-8 -12 3 -50 14 -50 15 0 33 30 27 45 -6 17 -32 20 -41
5z"/>
<path d="M241 3546 c-18 -21 11 -41 39 -26 17 9 19 14 9 26 -15 18 -33 18 -48
0z"/>
<path d="M4715 3550 c-8 -12 3 -50 14 -50 15 0 33 30 27 45 -6 17 -32 20 -41
5z"/>
<path d="M190 3425 c-22 -26 7 -46 39 -26 12 8 12 12 2 25 -17 20 -25 20 -41
1z"/>
<path d="M4773 3433 c-18 -7 -16 -28 3 -44 13 -10 17 -10 25 2 18 28 1 54 -28
42z"/>
<path d="M142 3288 c4 -28 19 -32 43 -13 17 13 18 16 5 25 -27 18 -52 12 -48
-12z"/>
<path d="M4813 3294 c-9 -24 11 -38 37 -24 17 9 19 14 9 26 -15 19 -38 18 -46
-2z"/>
<path d="M4854 3174 c-8 -32 14 -50 34 -30 11 11 11 18 3 35 -16 28 -29 26
-37 -5z"/>
<path d="M113 3183 c-16 -6 -17 -39 -2 -49 6 -3 18 1 27 10 14 14 14 18 2 30
-8 7 -21 12 -27 9z"/>
<path d="M77 3053 c-11 -10 -8 -41 4 -48 5 -4 19 1 30 10 18 17 18 19 1 31
-20 15 -26 17 -35 7z"/>
<path d="M4892 3048 c-16 -16 -15 -33 2 -47 22 -18 44 25 24 45 -11 11 -16 12
-26 2z"/>
<path d="M4910 2920 c-10 -18 -9 -25 4 -38 15 -15 17 -15 33 1 16 16 16 18 -4
38 l-21 21 -12 -22z"/>
<path d="M50 2915 c-22 -26 7 -46 39 -26 12 8 12 12 2 25 -17 20 -25 20 -41 1z"/>
<path d="M4931 2788 c-11 -17 -10 -23 2 -35 18 -18 37 -9 37 16 0 31 -24 43
-39 19z"/>
<path d="M24 2779 c-3 -6 1 -18 10 -27 15 -15 17 -15 32 0 19 19 11 38 -16 38
-10 0 -22 -5 -26 -11z"/>
<path d="M23 2661 c-16 -25 -6 -53 16 -49 21 4 25 29 9 51 -12 16 -14 16 -25
-2z"/>
<path d="M4938 2648 c-13 -35 27 -53 51 -24 10 12 8 17 -8 25 -26 14 -38 14
-43 -1z"/>
<path d="M18 2523 c-25 -6 -22 -30 3 -38 25 -8 44 7 36 29 -7 16 -9 17 -39 9z"/>
<path d="M4946 2517 c-17 -13 -17 -14 -1 -31 16 -16 19 -16 34 -2 14 14 14 18
0 31 -13 13 -18 13 -33 2z"/>
<path d="M20 2390 c-13 -25 3 -52 26 -43 18 7 18 37 0 52 -12 10 -17 8 -26 -9z"/>
<path d="M4937 2376 c-9 -23 18 -39 43 -26 17 9 19 14 9 26 -15 18 -45 18 -52
0z"/>
<path d="M4930 2254 c-11 -12 -10 -18 3 -32 21 -21 42 -3 32 27 -8 25 -18 27
-35 5z"/>
<path d="M30 2245 c-10 -12 -10 -18 0 -31 12 -13 15 -13 28 0 15 15 10 46 -6
46 -5 0 -15 -7 -22 -15z"/>
<path d="M44 2115 c-4 -9 -2 -21 4 -27 15 -15 44 -1 40 19 -4 23 -36 29 -44 8z"/>
<path d="M4910 2114 c-11 -12 -10 -18 3 -32 16 -15 18 -15 34 0 13 14 14 20 3
32 -7 9 -16 16 -20 16 -4 0 -13 -7 -20 -16z"/>
<path d="M72 1990 c-15 -25 -15 -27 4 -34 26 -10 46 12 31 35 -15 24 -19 24
-35 -1z"/>
<path d="M4886 1987 c-22 -16 -14 -37 14 -37 26 0 35 19 18 36 -12 12 -17 12
-32 1z"/>
<path d="M4854 1854 c-8 -32 14 -50 34 -30 11 11 11 18 3 35 -16 28 -29 26
-37 -5z"/>
<path d="M102 1858 c-8 -8 -9 -15 -1 -25 15 -17 34 -17 48 1 10 12 8 17 -8 25
-24 14 -24 14 -39 -1z"/>
<path d="M990 1835 c-19 -7 -27 -14 -17 -14 22 -1 21 -11 -7 -148 -13 -61 -20
-117 -16 -123 9 -15 62 -9 68 8 2 7 -2 10 -12 6 -22 -8 -21 9 9 150 14 65 25
122 25 127 0 11 -7 11 -50 -6z"/>
<path d="M2996 1828 c-26 -25 -44 -68 -27 -68 10 0 71 70 71 82 0 15 -19 8
-44 -14z"/>
<path d="M4215 1835 c-20 -9 -24 -14 -12 -14 21 -1 22 11 -8 -127 -14 -64 -25
-125 -25 -136 0 -31 33 -18 40 17 12 56 70 145 96 145 19 0 18 -38 -2 -107
-11 -37 -13 -58 -6 -65 11 -11 72 -1 72 12 0 4 -8 6 -19 3 -18 -5 -18 -2 2 80
17 71 19 88 8 101 -21 26 -50 19 -86 -21 -39 -42 -41 -36 -20 52 8 33 15 63
15 68 0 11 -21 8 -55 -8z"/>
<path d="M688 1834 c-14 -13 -8 -24 12 -24 11 0 20 -2 20 -3 0 -2 -11 -55 -25
-117 -23 -103 -35 -129 -57 -130 -5 0 -8 -4 -8 -10 0 -11 52 -13 100 -3 l33 6
-22 17 c-21 15 -21 19 -10 63 l11 47 45 0 c82 0 133 35 133 93 0 46 -33 62
-134 65 -50 2 -94 0 -98 -4z m163 -35 c38 -38 -4 -99 -68 -99 l-34 0 7 48 c3
26 11 53 16 60 16 19 56 14 79 -9z"/>
<path d="M2127 1833 c-12 -12 -7 -22 8 -17 25 10 27 -19 5 -117 -28 -128 -28
-127 -53 -131 -12 -2 -20 -7 -17 -13 3 -6 49 -10 106 -10 92 0 104 2 141 27
98 65 103 214 8 254 -35 14 -186 20 -198 7z m168 -27 c26 -11 36 -24 46 -56
11 -36 10 -47 -7 -88 -25 -60 -71 -92 -132 -92 -41 0 -44 2 -39 23 3 12 13 63
23 112 10 50 22 96 27 103 12 16 40 15 82 -2z"/>
<path d="M3312 1833 c-10 -4 -7 -9 10 -17 22 -11 24 -20 32 -139 l9 -128 26 3
c22 2 32 17 66 86 22 45 43 82 47 82 5 0 8 -15 8 -32 0 -18 3 -57 6 -85 6 -46
10 -53 28 -53 18 0 33 23 81 121 42 84 68 126 88 137 38 23 34 32 -17 32 -51
0 -78 -8 -70 -21 3 -5 10 -7 15 -4 31 20 23 -17 -23 -108 l-52 -102 -7 40 c-4
22 -8 68 -8 103 -1 48 3 64 15 69 27 10 -5 23 -58 23 -49 0 -64 -14 -28 -25
11 -3 20 -15 20 -25 0 -24 -79 -180 -91 -180 -5 0 -9 24 -9 54 0 29 -3 81 -6
115 -7 60 -7 61 -38 60 -17 0 -37 -3 -44 -6z"/>
<path d="M3105 1770 c-30 -31 -37 -43 -26 -49 11 -7 10 -22 -4 -86 -12 -51
-14 -80 -7 -87 13 -13 64 -6 69 9 3 7 -4 9 -18 6 -17 -5 -20 -2 -16 13 3 10
11 46 17 80 10 51 16 62 38 71 27 11 27 11 5 18 -18 6 -21 12 -16 36 3 16 4
29 1 29 -2 0 -22 -18 -43 -40z"/>
<path d="M1150 1742 c-48 -24 -82 -85 -76 -137 3 -21 13 -45 22 -52 22 -16 85
-17 119 -1 28 13 35 34 8 23 -42 -16 -79 -17 -92 -1 -23 28 -8 50 49 71 73 26
80 32 80 60 0 52 -48 68 -110 37z m62 -33 c-3 -26 -25 -47 -60 -56 -34 -8 -37
2 -13 41 31 50 78 60 73 15z"/>
<path d="M1361 1742 c-59 -32 -90 -127 -61 -183 13 -23 57 -25 86 -5 16 13 21
12 36 -1 19 -17 59 -14 66 5 2 7 -2 10 -12 6 -20 -8 -20 4 1 94 19 83 15 91
-43 98 -27 4 -50 -1 -73 -14z m81 -47 c-8 -94 -80 -160 -111 -101 -11 20 -9
30 13 75 26 50 54 73 86 68 11 -2 14 -13 12 -42z"/>
<path d="M1597 1744 c-23 -13 -28 -21 -25 -47 2 -24 13 -38 46 -60 48 -32 54
-58 16 -75 -27 -13 -58 -3 -67 20 -4 10 -8 9 -16 -2 -16 -23 9 -41 58 -42 42
0 65 11 82 44 15 29 1 56 -42 84 -56 35 -50 74 12 74 13 0 19 -7 19 -21 0 -26
24 -20 28 8 5 34 -61 44 -111 17z"/>
<path d="M1834 1746 c-57 -25 -94 -108 -73 -162 13 -37 25 -44 75 -44 28 0 49
7 65 21 21 18 22 20 4 14 -48 -16 -81 -17 -94 -1 -23 28 -8 50 49 71 74 27 80
32 80 65 0 47 -45 62 -106 36z m64 -29 c4 -20 -30 -55 -63 -63 -36 -9 -39 -1
-16 37 29 48 72 62 79 26z"/>
<path d="M2515 1750 c-42 -17 -68 -58 -73 -114 -5 -68 17 -96 77 -96 73 0 131
78 117 156 -10 50 -68 77 -121 54z m63 -22 c30 -30 2 -167 -35 -169 -30 -2
-48 2 -55 14 -14 21 -8 81 12 125 14 32 25 42 43 42 12 0 28 -5 35 -12z"/>
<path d="M2788 1719 l-39 -41 6 36 c8 39 1 43 -55 27 -23 -7 -24 -8 -6 -18 18
-10 18 -14 3 -92 -13 -71 -13 -83 0 -88 7 -3 15 -4 16 -2 1 2 22 43 45 92 41
81 62 102 77 77 3 -5 -1 -37 -9 -71 -24 -91 -22 -99 19 -99 19 0 35 5 35 10 0
6 -7 10 -15 10 -18 0 -18 2 0 70 19 73 19 116 -1 124 -28 11 -36 7 -76 -35z"/>
<path d="M3781 1743 c-46 -24 -71 -60 -78 -111 -4 -29 -1 -49 11 -67 19 -28
39 -31 78 -11 23 12 29 12 39 0 16 -19 65 -18 73 2 4 12 1 14 -14 9 -25 -8
-25 0 -1 91 10 40 15 77 11 84 -13 21 -82 23 -119 3z m72 -50 c-3 -81 -63
-147 -100 -110 -15 14 -14 21 7 77 24 63 41 81 75 77 17 -2 20 -9 18 -44z"/>
<path d="M4008 1740 c-41 -32 -37 -64 12 -98 57 -39 52 -82 -10 -82 -11 0 -23
8 -29 18 -12 22 -35 3 -25 -21 4 -12 18 -17 44 -17 54 0 88 15 102 46 12 25
10 29 -42 75 -46 41 -52 50 -41 63 19 23 62 21 68 -4 7 -26 20 -26 28 1 9 26
5 30 -42 36 -29 4 -44 0 -65 -17z"/>
<path d="M142 1728 c-13 -13 2 -38 23 -38 21 0 36 25 23 38 -7 7 -17 12 -23
12 -6 0 -16 -5 -23 -12z"/>
<path d="M4823 1733 c-18 -7 -16 -32 2 -39 23 -9 48 15 34 32 -12 15 -16 16
-36 7z"/>
<path d="M189 1604 c-10 -12 -9 -18 4 -31 13 -13 19 -14 31 -3 21 17 20 27 -3
39 -14 8 -22 7 -32 -5z"/>
<path d="M4765 1600 c-3 -5 -1 -19 6 -31 10 -19 12 -20 26 -6 9 9 13 23 10 31
-7 18 -32 21 -42 6z"/>
<path d="M240 1484 c-11 -12 -10 -18 3 -32 16 -15 18 -15 34 0 13 14 14 20 3
32 -7 9 -16 16 -20 16 -4 0 -13 -7 -20 -16z"/>
<path d="M4715 1480 c-8 -12 3 -50 14 -50 15 0 33 30 27 45 -6 17 -32 20 -41
5z"/>
<path d="M302 1369 c-12 -18 -11 -24 2 -37 14 -15 18 -15 31 -1 14 14 14 18
-2 38 l-18 22 -13 -22z"/>
<path d="M4659 1367 c-11 -24 -11 -30 2 -38 32 -20 50 12 25 46 -14 19 -15 19
-27 -8z"/>
<path d="M1905 1329 c-8 -12 14 -31 30 -26 6 2 10 10 10 18 0 17 -31 24 -40 8z"/>
<path d="M3893 1333 c-26 -5 -31 -23 -8 -23 19 0 19 -4 -10 -134 -13 -60 -21
-114 -18 -121 2 -8 22 -16 43 -20 49 -8 105 17 131 59 25 41 25 117 1 139 -24
22 -33 21 -74 -7 l-35 -23 13 61 c7 33 13 64 14 69 0 7 -19 7 -57 0z m114
-135 c8 -18 6 -35 -9 -73 -26 -65 -36 -77 -67 -73 -47 5 -41 74 10 133 36 41
52 44 66 13z"/>
<path d="M1426 1321 c-3 -5 3 -11 13 -14 20 -5 24 -26 37 -185 6 -78 8 -83 28
-80 15 2 33 26 65 88 48 92 59 92 60 0 2 -65 10 -90 32 -90 14 0 35 33 82 128
49 96 71 131 93 142 l29 15 -54 3 c-30 2 -59 -2 -64 -7 -8 -8 -4 -11 11 -11
12 0 22 -6 21 -12 -1 -26 -97 -203 -102 -188 -3 8 -8 54 -12 103 -5 73 -4 88
9 93 33 13 14 24 -39 24 -30 0 -55 -3 -55 -6 0 -3 9 -13 21 -22 20 -17 20 -18
2 -57 -10 -22 -32 -65 -48 -95 l-29 -55 -7 55 c-4 30 -7 83 -8 118 l-1 62 -39
0 c-22 0 -42 -4 -45 -9z"/>
<path d="M3330 1320 c0 -5 7 -10 15 -10 20 0 19 -16 -7 -138 -19 -92 -25 -105
-47 -115 -22 -10 -10 -12 77 -15 114 -3 147 7 171 49 18 32 8 75 -19 84 -22 7
-27 25 -7 25 14 0 47 50 47 72 0 8 -10 24 -23 36 -20 19 -35 22 -115 22 -55 0
-92 -4 -92 -10z m161 -20 c12 -7 19 -21 19 -41 0 -25 -6 -33 -35 -45 -49 -20
-88 -19 -81 4 3 9 8 31 12 47 4 17 9 33 11 38 6 10 51 9 74 -3z m-10 -141 c41
-41 -4 -99 -78 -99 -37 0 -44 3 -39 18 2 9 8 33 11 52 10 48 12 50 51 50 21 0
42 -8 55 -21z"/>
<path d="M373 1253 c-17 -6 -16 -28 0 -42 10 -8 19 -7 32 3 16 12 17 16 6 30
-14 17 -18 18 -38 9z"/>
<path d="M4590 1245 c-23 -28 21 -50 48 -23 9 9 7 14 -6 24 -22 17 -27 17 -42
-1z"/>
<path d="M926 1229 c-85 -67 -68 -199 25 -199 67 0 119 59 119 134 0 75 -84
112 -144 65z m94 -29 c10 -23 10 -40 0 -77 -15 -60 -25 -73 -61 -73 -54 0 -64
75 -19 148 26 43 63 44 80 2z"/>
<path d="M1223 1215 c-19 -19 -36 -35 -38 -35 -2 0 0 14 5 30 8 29 7 30 -24
30 -39 0 -51 -9 -31 -24 12 -10 12 -21 0 -86 -19 -94 -19 -90 5 -90 14 0 20 7
20 23 0 27 32 94 60 126 18 21 25 23 39 14 15 -10 20 -8 29 12 22 47 -17 48
-65 0z"/>
<path d="M2094 1225 c-30 -30 -34 -31 -27 -5 5 17 0 20 -30 20 -20 0 -39 -4
-42 -10 -3 -5 1 -10 9 -10 9 0 16 -8 16 -17 0 -42 -43 -219 -56 -229 -8 -6
-14 -14 -14 -18 0 -10 88 -7 95 4 3 6 -1 10 -10 10 -12 0 -15 7 -13 27 3 24 9
29 46 35 56 9 94 38 116 87 42 93 -24 172 -90 106z m55 -29 c12 -21 10 -31
-12 -80 -19 -40 -32 -57 -51 -62 -51 -12 -60 20 -25 89 40 79 66 95 88 53z"/>
<path d="M2314 1241 c-75 -32 -108 -165 -50 -203 19 -13 76 -9 107 8 41 21 30
28 -20 13 -47 -14 -71 -2 -71 36 0 20 10 27 65 45 53 18 66 26 71 47 4 15 2
33 -3 42 -11 18 -67 25 -99 12z m60 -20 c13 -21 -14 -59 -49 -71 -43 -14 -51
-10 -35 22 27 51 68 75 84 49z"/>
<path d="M2671 1213 l-31 -38 6 33 c6 30 5 32 -22 32 -16 0 -36 -5 -44 -10
-13 -8 -12 -10 3 -10 24 0 23 -20 -8 -157 -4 -18 -1 -23 14 -23 15 0 23 13 35
54 17 59 58 116 83 116 16 0 15 -38 -3 -137 -5 -29 -4 -33 15 -33 16 0 21 6
21 25 0 30 33 98 60 125 42 42 53 18 34 -75 -9 -41 -11 -72 -5 -78 12 -12 64
-4 69 11 2 8 -2 12 -11 10 -21 -4 -22 3 -7 83 15 77 8 102 -27 107 -13 2 -32
-9 -52 -30 l-31 -33 0 26 c0 27 -16 39 -50 39 -10 0 -32 -17 -49 -37z"/>
<path d="M3675 1240 c-70 -28 -108 -139 -66 -191 18 -23 19 -23 62 -6 39 15
44 16 60 1 19 -17 69 -12 69 7 0 6 -9 8 -20 4 -25 -8 -25 -6 0 91 19 74 19 80
3 91 -19 14 -77 16 -108 3z m77 -35 c-14 -85 -55 -150 -91 -143 -31 6 -26 79
9 136 17 28 25 33 53 30 26 -2 31 -7 29 -23z"/>
<path d="M1855 1230 c-19 -8 -19 -9 3 -9 26 -1 26 2 3 -90 -11 -40 -17 -79
-14 -87 7 -19 57 -18 73 1 10 13 9 15 -9 15 -25 0 -25 -3 -1 90 11 41 20 78
20 83 0 9 -50 8 -75 -3z"/>
<path d="M2957 1234 c-3 -4 0 -16 8 -28 20 -31 47 -174 36 -195 -5 -9 -19 -25
-31 -36 -21 -19 -21 -19 -27 3 -4 18 -8 20 -19 11 -34 -28 11 -63 53 -41 10 6
50 66 90 134 89 152 91 158 65 158 -11 0 -28 -3 -36 -6 -15 -6 -15 -7 -1 -18
15 -11 13 -18 -16 -68 -32 -56 -49 -65 -49 -28 0 11 -5 42 -11 70 -9 42 -14
50 -33 50 -13 0 -25 -3 -29 -6z"/>
<path d="M4095 1231 c-20 -8 -19 -8 2 -15 16 -5 24 -20 33 -59 22 -105 24
-135 6 -162 -18 -27 -46 -34 -46 -10 0 22 -18 18 -25 -6 -12 -38 39 -53 69
-21 18 20 148 237 159 265 5 13 1 17 -16 16 -12 0 -31 -4 -42 -8 -19 -8 -19
-8 2 -15 l22 -7 -30 -52 c-17 -29 -35 -56 -39 -61 -5 -4 -14 26 -20 68 -14 81
-21 88 -75 67z"/>
<path d="M4521 1138 c-11 -17 -10 -23 2 -35 18 -18 37 -9 37 16 0 31 -24 43
-39 19z"/>
<path d="M434 1125 c-4 -9 0 -24 10 -33 15 -15 18 -15 26 -2 6 8 9 22 7 30 -3
21 -36 25 -43 5z"/>
<path d="M523 1033 c-17 -6 -16 -28 0 -42 10 -8 19 -7 32 3 16 12 17 16 6 30
-14 17 -18 18 -38 9z"/>
<path d="M4440 1025 c-15 -18 -5 -35 20 -35 10 0 22 5 25 10 7 11 -12 40 -25
40 -4 0 -13 -7 -20 -15z"/>
<path d="M4355 919 c-7 -19 7 -38 26 -39 14 0 19 33 8 46 -16 20 -27 17 -34
-7z"/>
<path d="M597 916 c-3 -8 1 -22 9 -33 14 -17 14 -17 29 1 11 14 12 23 4 33
-15 17 -35 17 -42 -1z"/>
<path d="M4266 824 c-9 -23 19 -53 35 -37 15 15 7 47 -12 51 -9 2 -19 -5 -23
-14z"/>
<path d="M687 816 c-9 -23 18 -39 43 -26 17 9 19 14 9 26 -15 18 -45 18 -52 0z"/>
<path d="M4175 730 c-7 -23 1 -40 20 -40 21 0 27 17 15 40 -14 25 -27 26 -35
0z"/>
<path d="M784 725 c-12 -29 15 -45 45 -26 12 8 12 12 2 25 -17 20 -40 21 -47
1z"/>
<path d="M885 640 c-7 -23 1 -40 20 -40 21 0 27 17 15 40 -14 25 -27 26 -35 0z"/>
<path d="M4075 640 c-8 -12 3 -50 14 -50 16 0 31 28 25 44 -7 18 -29 21 -39 6z"/>
<path d="M3970 554 c-11 -12 -11 -18 2 -30 13 -13 19 -14 36 -3 20 12 20 15 5
31 -20 22 -27 22 -43 2z"/>
<path d="M984 549 c-3 -6 1 -18 10 -27 15 -15 17 -15 32 0 19 19 11 38 -16 38
-10 0 -22 -5 -26 -11z"/>
<path d="M1097 483 c-11 -10 -8 -38 4 -50 9 -9 15 -8 25 2 19 18 18 41 -2 49
-19 7 -19 7 -27 -1z"/>
<path d="M3860 475 c-6 -8 -9 -19 -5 -25 8 -13 42 -13 50 0 7 11 -12 40 -25
40 -4 0 -13 -7 -20 -15z"/>
<path d="M1210 410 c-15 -28 5 -57 26 -39 18 15 18 33 0 48 -12 10 -17 8 -26
-9z"/>
<path d="M3749 404 c-10 -12 -9 -18 3 -30 13 -13 19 -14 37 -2 27 17 26 22 -3
36 -19 9 -27 8 -37 -4z"/>
<path d="M1327 343 c-24 -23 12 -55 38 -33 12 10 13 16 4 26 -12 15 -31 18
-42 7z"/>
<path d="M3634 335 c-12 -29 15 -45 45 -26 12 8 12 12 2 25 -17 20 -40 21 -47
1z"/>
<path d="M3515 279 c-10 -30 11 -48 32 -27 13 14 14 20 3 32 -17 22 -27 20
-35 -5z"/>
<path d="M1442 278 c-13 -13 2 -38 23 -38 21 0 36 25 23 38 -7 7 -17 12 -23
12 -6 0 -16 -5 -23 -12z"/>
<path d="M1570 225 c-9 -10 -9 -19 0 -35 11 -21 12 -21 25 -3 8 10 15 23 15
29 0 18 -27 24 -40 9z"/>
<path d="M3390 225 c-15 -18 -5 -35 20 -35 10 0 22 5 25 10 7 11 -12 40 -25
40 -4 0 -13 -7 -20 -15z"/>
<path d="M1686 173 c-10 -26 9 -38 40 -24 21 9 24 14 14 26 -17 20 -46 19 -54
-2z"/>
<path d="M3264 175 c-13 -32 23 -48 47 -19 10 13 10 17 -2 25 -21 13 -39 11
-45 -6z"/>
<path d="M1820 145 c-14 -17 -5 -45 17 -52 18 -6 27 37 11 54 -13 12 -16 12
-28 -2z"/>
<path d="M3133 134 c-3 -8 1 -22 9 -30 13 -13 16 -13 27 0 7 9 11 23 7 31 -7
20 -35 19 -43 -1z"/>
<path d="M3010 115 c-15 -18 -6 -45 14 -45 20 0 29 16 21 40 -8 24 -18 25 -35
5z"/>
<path d="M1943 104 c-8 -22 11 -37 36 -29 25 8 28 30 5 39 -25 9 -34 7 -41
-10z"/>
<path d="M2081 87 c-14 -17 -4 -47 15 -47 22 0 29 29 12 46 -13 13 -16 13 -27
1z"/>
<path d="M2880 85 c-9 -11 -11 -22 -4 -32 13 -21 25 -21 38 -1 8 14 7 21 -5
33 -14 15 -17 15 -29 0z"/>
<path d="M2752 78 c-19 -19 -15 -48 8 -48 26 0 37 27 18 46 -11 11 -16 12 -26
2z"/>
<path d="M2217 73 c-4 -3 -7 -15 -7 -25 0 -23 38 -25 47 -2 8 21 -24 43 -40
27z"/>
<path d="M2353 63 c-17 -6 -17 -28 0 -41 12 -10 47 6 47 21 0 10 -34 25 -47
20z"/>
<path d="M2610 55 c-10 -13 -10 -19 5 -35 18 -20 18 -20 32 0 12 17 12 24 3
35 -16 19 -24 19 -40 0z"/>
<path d="M2476 51 c-9 -14 4 -41 19 -41 12 0 25 21 25 41 0 12 -37 12 -44 0z"/>
</g>
</svg>
