<?xml version="1.0" standalone="no"?>
<!DOCTYPE svg PUBLIC "-//W3C//DTD SVG 20010904//EN"
 "http://www.w3.org/TR/2001/REC-SVG-20010904/DTD/svg10.dtd">
<svg version="1.0" xmlns="http://www.w3.org/2000/svg"
 width="500.000000pt" height="500.000000pt" viewBox="0 0 500.000000 500.000000"
 preserveAspectRatio="xMidYMid meet">
<metadata>
Created by potrace 1.15, written by Peter Selinger 2001-2017
</metadata>
<g transform="translate(0.000000,500.000000) scale(0.100000,-0.100000)"
fill="#000000" stroke="none">
<path d="M2347 4983 c-11 -11 -8 -40 6 -51 19 -16 43 24 26 44 -13 15 -22 18
-32 7z"/>
<path d="M2476 4981 c-8 -12 4 -41 16 -41 5 0 18 5 29 11 20 10 20 11 2 24
-21 17 -39 19 -47 6z"/>
<path d="M2617 4983 c-12 -11 -8 -41 6 -46 7 -3 22 2 32 10 20 14 20 14 1 29
-22 16 -30 17 -39 7z"/>
<path d="M2221 4966 c-14 -16 -9 -46 7 -46 21 0 32 26 19 44 -12 16 -14 16
-26 2z"/>
<path d="M2749 4964 c-15 -18 0 -38 27 -32 25 5 28 25 6 37 -15 8 -23 7 -33
-5z"/>
<path d="M2080 4945 c-23 -28 21 -50 48 -23 9 9 7 14 -6 24 -22 17 -27 17 -42
-1z"/>
<path d="M2880 4945 c-11 -13 -11 -19 3 -33 20 -19 41 -5 35 24 -4 24 -22 28
-38 9z"/>
<path d="M1943 4914 c-3 -8 1 -22 9 -30 13 -13 16 -13 27 0 7 9 11 23 7 31 -7
20 -35 19 -43 -1z"/>
<path d="M3003 4914 c-3 -8 1 -22 9 -30 13 -13 16 -13 27 0 7 9 11 23 7 31 -7
20 -35 19 -43 -1z"/>
<path d="M1821 4897 c-15 -19 -3 -49 18 -45 9 2 16 13 16 27 0 29 -17 37 -34
18z"/>
<path d="M3136 4883 c-11 -26 10 -38 41 -24 27 12 27 13 8 27 -25 19 -41 18
-49 -3z"/>
<path d="M1691 4846 c-18 -21 11 -41 39 -26 17 9 19 14 9 26 -15 18 -33 18
-48 0z"/>
<path d="M3268 4848 c-12 -31 12 -47 41 -29 12 8 12 12 2 25 -16 19 -37 21
-43 4z"/>
<path d="M3393 4811 c-9 -15 -9 -23 1 -36 11 -16 13 -16 29 -1 14 14 14 20 4
36 -15 25 -19 25 -34 1z"/>
<path d="M1571 4806 c-18 -22 4 -62 25 -45 18 15 18 33 0 48 -10 9 -16 8 -25
-3z"/>
<path d="M3517 4763 c-11 -10 -8 -41 4 -49 6 -3 18 1 27 9 13 13 13 19 2 31
-14 17 -23 20 -33 9z"/>
<path d="M1441 4746 c-18 -21 11 -41 39 -26 17 9 19 14 9 26 -15 18 -33 18
-48 0z"/>
<path d="M1320 4683 c0 -10 5 -25 10 -33 9 -13 12 -12 25 5 19 24 15 39 -13
43 -16 2 -22 -2 -22 -15z"/>
<path d="M3635 4690 c-8 -13 3 -50 15 -50 13 0 32 39 25 50 -8 13 -32 13 -40
0z"/>
<path d="M1211 4631 c-19 -12 -6 -41 18 -41 26 0 36 17 21 35 -14 17 -20 18
-39 6z"/>
<path d="M3753 4629 c-6 -6 -9 -18 -6 -25 7 -18 37 -18 52 0 10 12 8 17 -8 25
-24 14 -24 14 -38 0z"/>
<path d="M3859 4554 c-11 -14 -10 -18 6 -30 16 -12 21 -12 34 0 12 12 12 18 1
30 -16 20 -24 20 -41 0z"/>
<path d="M1094 4549 c-3 -6 0 -17 8 -25 13 -13 16 -13 27 0 7 8 10 20 6 26 -8
13 -32 13 -41 -1z"/>
<path d="M990 4475 c-22 -26 7 -46 39 -26 12 8 12 12 2 25 -17 20 -25 20 -41
1z"/>
<path d="M3966 4474 c-9 -23 19 -53 35 -37 15 15 7 47 -12 51 -9 2 -19 -5 -23
-14z"/>
<path d="M3226 4434 c-7 -19 1 -34 19 -34 21 0 28 19 15 35 -16 19 -26 19 -34
-1z"/>
<path d="M1653 4433 c-26 -5 -31 -23 -8 -23 19 0 19 6 -10 -134 -20 -90 -23
-122 -14 -132 15 -18 43 -18 59 1 10 13 9 15 -9 15 -17 0 -20 5 -16 23 3 12
14 65 25 117 11 52 22 105 25 118 6 23 -1 25 -52 15z"/>
<path d="M1345 4420 c-3 -5 3 -10 14 -10 24 0 28 -30 12 -90 -5 -19 -15 -61
-21 -93 -10 -48 -16 -60 -38 -70 -25 -11 -22 -12 37 -15 70 -3 83 2 56 22 -16
11 -17 19 -9 57 l9 44 69 11 c55 9 75 17 93 38 30 35 29 61 -2 91 -22 23 -32
25 -119 25 -52 0 -98 -4 -101 -10z m173 -22 c17 -17 15 -64 -4 -82 -9 -10 -33
-16 -59 -16 l-43 0 9 43 c5 23 12 48 14 55 6 15 67 16 83 0z"/>
<path d="M2740 4421 c0 -5 9 -11 19 -14 20 -5 23 -19 37 -189 5 -72 7 -78 28
-78 18 0 30 17 66 91 49 99 57 98 59 -8 1 -64 8 -83 30 -83 13 0 37 37 80 123
43 84 72 129 94 145 l32 22 -63 0 c-35 0 -62 -4 -62 -10 0 -5 9 -10 21 -10 11
0 19 -4 17 -8 -21 -53 -94 -202 -99 -202 -3 0 -9 44 -12 98 -7 92 -6 98 16
114 21 17 20 18 -45 18 -37 0 -70 -4 -73 -10 -3 -5 3 -10 13 -10 11 0 25 -6
31 -14 10 -11 2 -34 -36 -108 l-47 -93 -7 50 c-4 28 -8 80 -8 118 l-1 67 -45
0 c-25 0 -45 -4 -45 -9z"/>
<path d="M884 4385 c-4 -8 -1 -22 6 -30 11 -13 14 -13 25 2 10 13 10 22 3 30
-14 17 -27 16 -34 -2z"/>
<path d="M4070 4381 c0 -31 24 -43 38 -20 15 24 8 39 -19 39 -12 0 -19 -7 -19
-19z"/>
<path d="M1789 4323 c-60 -51 -76 -127 -34 -168 28 -29 60 -31 112 -10 47 20
36 30 -16 14 -49 -14 -74 0 -69 39 2 21 13 28 56 42 61 20 71 28 77 58 10 55
-71 71 -126 25z m86 -3 c11 -17 -16 -51 -52 -66 -42 -18 -49 -14 -33 18 27 52
68 75 85 48z"/>
<path d="M2020 4337 c-60 -31 -95 -151 -54 -191 19 -19 17 -19 60 -1 32 13 38
13 59 -1 25 -16 65 -11 65 7 0 6 -8 8 -19 4 -17 -5 -17 -2 2 86 18 78 19 92 6
100 -20 13 -90 11 -119 -4z m85 -17 c12 -20 -24 -118 -51 -139 -34 -27 -40
-26 -60 3 -15 24 -14 28 11 78 15 29 32 56 38 60 17 11 55 10 62 -2z"/>
<path d="M2252 4334 c-14 -10 -22 -25 -22 -44 0 -24 8 -35 40 -55 47 -29 58
-49 40 -70 -18 -21 -56 -19 -73 5 -15 22 -27 17 -27 -11 0 -34 84 -39 124 -8
21 16 26 28 24 53 -2 25 -11 35 -45 54 -48 26 -57 57 -20 71 27 10 47 4 47
-15 0 -8 7 -14 15 -14 20 0 19 36 -1 44 -29 11 -79 6 -102 -10z"/>
<path d="M2466 4320 c-89 -78 -61 -203 41 -187 20 4 44 14 52 23 15 15 14 16
-2 10 -67 -23 -97 -14 -97 29 0 19 9 26 48 39 64 22 92 43 92 70 0 55 -78 65
-134 16z m89 1 c12 -20 -18 -58 -53 -69 -43 -14 -47 -11 -32 20 27 51 68 75
85 49z"/>
<path d="M3406 4323 c-26 -26 -28 -27 -21 -5 6 20 3 22 -29 22 -19 0 -38 -4
-41 -10 -3 -5 1 -10 9 -10 20 0 20 -7 -5 -131 -12 -59 -27 -107 -35 -112 -25
-14 -15 -22 29 -21 60 1 63 2 43 17 -30 22 -16 50 28 59 59 12 94 38 117 86
22 44 21 91 -2 119 -19 22 -62 15 -93 -14z m65 -27 c9 -19 6 -34 -18 -82 -25
-53 -31 -59 -58 -59 -39 0 -44 31 -15 88 41 79 71 97 91 53z"/>
<path d="M3609 4323 c-60 -51 -76 -127 -34 -168 28 -29 60 -31 112 -10 47 20
36 30 -16 14 -49 -14 -74 0 -69 39 2 20 12 28 46 37 60 18 92 42 92 68 0 33
-19 47 -61 47 -26 0 -47 -8 -70 -27z m76 -19 c0 -24 -7 -32 -38 -48 -21 -10
-40 -16 -43 -13 -14 13 52 100 70 94 6 -2 11 -17 11 -33z"/>
<path d="M3170 4330 c-12 -8 -11 -10 8 -10 25 0 25 4 -4 -110 -16 -65 -4 -87
40 -76 28 7 36 26 11 26 -19 0 -19 10 5 95 11 39 20 73 20 78 0 10 -62 8 -80
-3z"/>
<path d="M792 4308 c-16 -16 -15 -33 2 -47 22 -18 44 25 24 45 -11 11 -17 12
-26 2z"/>
<path d="M4183 4313 c-18 -6 -16 -43 1 -43 20 0 46 11 46 19 0 11 -34 28 -47
24z"/>
<path d="M4269 4217 c-14 -31 -1 -54 25 -44 20 8 20 27 2 52 -14 19 -15 19
-27 -8z"/>
<path d="M687 4206 c-8 -21 19 -54 33 -40 7 7 10 20 8 30 -4 23 -33 30 -41 10z"/>
<path d="M593 4104 c-3 -8 2 -23 11 -32 16 -16 18 -16 31 2 11 14 12 23 4 33
-15 18 -38 16 -46 -3z"/>
<path d="M4354 4109 c-3 -6 1 -18 10 -27 15 -15 17 -15 34 1 15 16 15 19 2 27
-20 13 -37 12 -46 -1z"/>
<path d="M521 4016 c-16 -19 -7 -46 14 -46 22 0 30 29 13 46 -13 13 -16 13
-27 0z"/>
<path d="M4440 4005 c-15 -18 -5 -35 20 -35 10 0 22 5 25 10 7 11 -12 40 -25
40 -4 0 -13 -7 -20 -15z"/>
<path d="M2370 3927 c-24 -7 -29 -12 -17 -14 22 -6 22 -6 -7 -139 -13 -62 -20
-117 -17 -123 4 -6 22 -16 40 -21 40 -11 84 5 121 44 21 23 25 37 25 88 0 45
-4 63 -16 71 -22 14 -64 2 -89 -26 l-21 -22 5 25 c16 69 26 116 26 123 0 9 -6
8 -50 -6z m110 -137 c9 -16 5 -33 -16 -80 -27 -61 -43 -75 -75 -65 -52 17 10
165 68 165 7 0 17 -9 23 -20z"/>
<path d="M1068 3922 c-32 -4 -38 -22 -8 -22 11 0 20 -2 20 -4 0 -28 -72 -231
-86 -240 -16 -12 -14 -14 25 -21 27 -4 47 -3 54 4 8 8 5 11 -11 11 -12 0 -22
3 -22 7 0 24 54 202 60 196 4 -4 12 -53 19 -108 6 -55 15 -103 20 -108 16 -16
39 5 66 63 16 33 41 81 57 107 l29 48 -6 -90 c-6 -81 -9 -92 -33 -112 l-27
-23 62 0 c34 0 65 5 68 10 3 6 -1 10 -9 10 -25 0 -27 14 -15 122 8 76 16 108
30 124 28 30 24 35 -23 32 l-43 -3 -59 -115 c-66 -127 -68 -127 -80 -5 -13
119 -17 125 -88 117z"/>
<path d="M1790 3915 c-10 -12 -9 -15 7 -15 11 0 22 -2 25 -6 6 -5 -38 -219
-48 -235 -3 -5 -12 -9 -20 -9 -8 0 -14 -4 -14 -10 0 -13 154 -13 202 0 68 19
91 90 43 128 -24 19 -24 21 -6 27 24 7 45 57 36 84 -11 34 -56 51 -138 51 -54
0 -78 -4 -87 -15z m177 -25 c2 0 3 -13 3 -29 0 -41 -24 -61 -72 -61 l-40 0 7
43 c9 54 26 68 68 56 18 -5 33 -9 34 -9z m-19 -133 c17 -14 15 -51 -5 -76 -12
-14 -35 -23 -67 -28 l-49 -6 7 48 c10 63 14 73 34 77 23 5 64 -3 80 -15z"/>
<path d="M2948 3924 c-14 -13 -8 -24 12 -24 24 0 24 5 0 -110 -28 -130 -28
-130 -58 -143 -47 -21 152 -22 206 -2 66 26 105 88 104 166 -1 81 -43 109
-172 116 -47 3 -88 2 -92 -3z m185 -38 c26 -20 38 -72 28 -118 -14 -60 -55
-97 -126 -112 -55 -11 -58 -1 -34 115 11 57 23 110 25 117 5 16 84 15 107 -2z"/>
<path d="M434 3895 c-12 -31 28 -49 54 -23 9 9 7 14 -6 24 -23 18 -41 17 -48
-1z"/>
<path d="M4514 3895 c-12 -29 15 -45 45 -26 12 8 12 12 2 25 -17 20 -40 21
-47 1z"/>
<path d="M2145 3836 c-71 -31 -115 -130 -81 -181 19 -28 44 -31 85 -10 26 13
30 13 46 -5 22 -24 38 -25 55 -5 10 12 9 15 -8 15 -20 0 -20 1 -6 63 29 121
29 113 -7 126 -40 14 -47 13 -84 -3z m64 -15 c11 -7 10 -18 -3 -65 -25 -86
-83 -125 -107 -72 -19 41 43 141 91 145 3 0 11 -3 19 -8z"/>
<path d="M3323 3835 c-88 -38 -100 -189 -17 -209 62 -16 129 36 141 108 9 56
-4 86 -42 102 -41 17 -42 17 -82 -1z m72 -21 c12 -13 14 -27 9 -63 -13 -87
-35 -118 -79 -107 -32 8 -40 42 -25 106 17 70 60 99 95 64z"/>
<path d="M3939 3811 l-39 -39 0 34 c0 32 -2 34 -27 28 -35 -9 -40 -13 -25 -23
10 -6 9 -23 -3 -80 -8 -40 -15 -79 -15 -87 0 -17 29 -19 34 -1 25 85 76 167
105 167 15 0 13 -45 -4 -110 -13 -50 -13 -56 2 -67 21 -16 25 -16 49 2 17 13
17 14 2 15 -22 0 -22 8 -1 99 17 71 17 74 -2 87 -27 20 -33 18 -76 -25z"/>
<path d="M1448 3833 c-32 -5 -33 -6 -13 -36 12 -19 45 -148 45 -178 0 -13 -46
-59 -60 -59 -5 0 -10 7 -10 15 0 8 -4 15 -9 15 -10 0 -21 -36 -13 -44 12 -13
60 -5 75 12 23 25 157 253 157 267 0 7 -12 10 -30 7 -32 -5 -52 -22 -26 -22
22 0 20 -7 -18 -75 -38 -67 -34 -71 -56 48 -6 31 -12 56 -13 56 -1 -1 -14 -4
-29 -6z"/>
<path d="M2728 3833 c-29 -5 -39 -23 -13 -23 12 0 11 -9 -9 -47 -48 -95 -51
-95 -66 -9 l-13 76 -38 0 c-22 0 -39 -4 -39 -10 0 -5 7 -10 15 -10 21 0 31
-25 45 -117 13 -82 13 -83 -10 -108 -27 -28 -40 -32 -40 -10 0 8 -7 15 -15 15
-9 0 -15 -9 -15 -25 0 -22 4 -25 34 -25 40 0 42 2 139 171 67 115 74 130 60
128 -5 -1 -20 -4 -35 -6z"/>
<path d="M3508 3833 c-31 -5 -38 -23 -9 -23 16 0 20 -11 26 -67 13 -134 26
-143 77 -58 18 30 36 55 40 55 5 0 8 -13 8 -29 0 -16 4 -41 10 -56 8 -21 13
-24 28 -16 17 9 112 168 112 188 0 11 -58 5 -66 -8 -3 -5 2 -9 10 -9 9 0 16
-2 16 -5 0 -12 -55 -115 -61 -115 -4 0 -10 24 -14 53 -9 76 -14 87 -36 87 -14
0 -19 -7 -19 -26 0 -27 -38 -104 -51 -104 -4 0 -10 26 -14 58 -8 68 -12 83
-22 81 -4 -1 -20 -4 -35 -6z"/>
<path d="M372 3788 c-16 -16 -15 -33 2 -47 22 -18 44 25 24 45 -11 11 -16 12
-26 2z"/>
<path d="M4590 3785 c-23 -28 21 -50 48 -23 9 9 7 14 -6 24 -22 17 -27 17 -42
-1z"/>
<path d="M297 3666 c-9 -23 18 -39 43 -26 17 9 19 14 9 26 -15 18 -45 18 -52
0z"/>
<path d="M4657 3673 c-24 -23 12 -55 38 -33 12 10 13 16 4 26 -12 15 -31 18
-42 7z"/>
<path d="M240 3554 c-11 -12 -10 -18 3 -32 16 -15 18 -15 34 0 13 14 14 20 3
32 -7 9 -16 16 -20 16 -4 0 -13 -7 -20 -16z"/>
<path d="M4715 3550 c-8 -24 1 -40 21 -40 20 0 29 27 14 45 -17 20 -27 19 -35
-5z"/>
<path d="M190 3425 c-22 -26 7 -46 39 -26 12 8 12 12 2 25 -17 20 -25 20 -41
1z"/>
<path d="M4768 3428 c-12 -33 24 -52 50 -26 9 9 7 14 -6 24 -22 17 -39 17 -44
2z"/>
<path d="M142 3306 c-9 -20 -8 -27 4 -37 12 -10 18 -9 32 4 15 16 15 18 -4 37
l-20 21 -12 -25z"/>
<path d="M4813 3294 c-9 -24 11 -38 36 -25 25 14 27 27 5 35 -25 9 -34 7 -41
-10z"/>
<path d="M113 3183 c-17 -6 -17 -38 0 -51 20 -17 44 25 25 43 -7 7 -19 11 -25
8z"/>
<path d="M4860 3175 c-15 -19 3 -47 26 -38 18 7 18 27 0 42 -10 9 -16 8 -26
-4z"/>
<path d="M2102 3057 c-34 -26 -172 -176 -172 -189 0 -10 -155 -138 -225 -185
-80 -53 -136 -81 -280 -138 -187 -73 -203 -84 -339 -234 -192 -210 -218 -234
-247 -223 -13 5 -62 12 -109 16 -116 10 -141 19 -193 76 -26 28 -53 50 -61 50
-8 0 -26 -12 -40 -27 l-25 -27 -88 36 c-48 20 -105 44 -127 53 l-38 16 21 -27
c27 -35 70 -66 150 -111 l64 -36 -7 -111 c-3 -61 -6 -178 -6 -259 l0 -149 -33
7 c-17 4 -40 9 -49 11 -41 12 -14 -14 43 -41 33 -16 70 -42 81 -57 27 -39 52
-42 148 -17 100 25 139 22 220 -20 96 -50 162 -63 250 -50 146 21 265 62 299
103 17 20 31 21 31 1 0 -8 -24 -63 -54 -122 -76 -152 -76 -147 -27 -192 l41
-38 -6 -119 c-6 -103 -5 -122 9 -136 19 -18 90 -33 108 -23 6 4 42 54 80 112
53 80 70 101 75 86 37 -112 98 -185 180 -215 18 -6 36 -18 38 -25 3 -7 0 -50
-6 -96 -9 -68 -8 -99 5 -177 20 -115 49 -213 77 -259 31 -50 34 -32 7 40 -41
108 -57 200 -57 321 0 160 24 250 105 401 36 66 63 123 60 126 -10 9 -85 -73
-118 -129 -18 -30 -44 -81 -57 -112 -15 -38 -29 -58 -40 -58 -10 0 -38 16 -63
35 -66 51 -110 142 -110 233 -1 104 23 162 103 246 37 39 75 87 85 106 10 19
45 62 79 95 67 67 109 85 193 85 46 0 54 -3 90 -42 48 -53 85 -128 81 -164
l-3 -27 -25 38 c-27 41 -55 63 -66 53 -3 -4 5 -21 20 -38 27 -33 41 -70 34
-92 -3 -8 -11 -1 -20 17 -19 36 -65 81 -74 72 -4 -4 12 -36 35 -71 l43 -65
-33 -40 c-38 -48 -87 -68 -120 -50 l-23 12 23 18 c13 11 31 19 40 19 37 1 43
15 21 53 -12 21 -25 37 -28 37 -4 -1 -16 -15 -27 -33 -24 -38 -67 -61 -100
-53 -13 3 -44 22 -69 41 -40 30 -46 32 -46 16 0 -22 38 -52 98 -79 22 -10 54
-32 70 -50 36 -38 62 -40 122 -9 39 19 54 37 107 127 l63 105 102 6 c87 6 173
25 253 56 11 3 13 -14 12 -80 -2 -100 12 -128 82 -164 66 -33 125 -39 187 -18
44 15 58 16 82 6 24 -10 28 -16 24 -42 -2 -16 -8 -32 -13 -35 -18 -11 -8 -57
23 -102 17 -26 64 -90 104 -142 84 -111 108 -157 131 -243 21 -83 21 -277 -1
-377 -23 -105 -20 -125 9 -69 29 55 42 129 51 274 l6 110 -61 140 c-34 77 -68
153 -77 168 -9 16 -14 30 -12 32 2 2 39 -7 81 -20 50 -16 101 -25 143 -25 59
0 69 3 94 28 53 53 50 153 -7 266 -69 136 -176 260 -296 340 -76 49 -130 73
-211 90 -37 7 -69 16 -72 18 -2 3 5 27 17 53 18 41 21 62 17 134 -3 50 0 108
8 140 10 44 9 72 -3 155 -8 55 -24 126 -35 156 -11 30 -29 80 -40 110 -13 37
-36 72 -70 106 -43 44 -47 52 -31 58 13 6 4 13 -41 31 -90 36 -95 46 -46 80
38 26 51 45 31 45 -5 0 -38 -9 -72 -20 -35 -10 -65 -17 -68 -14 -3 2 19 29 49
59 30 30 51 57 47 61 -3 4 -47 -21 -97 -55 -77 -51 -120 -72 -120 -58 0 2 16
42 35 90 43 107 44 129 4 59 -52 -89 -126 -152 -206 -177 l-23 -6 -1 133 0
133 -50 43 c-57 48 -82 52 -127 19z m83 -57 c26 -27 29 -39 38 -137 11 -138 6
-152 -73 -194 -122 -65 -174 -129 -220 -272 -12 -36 -31 -78 -42 -93 -19 -24
-20 -30 -9 -61 13 -34 11 -40 -35 -130 -42 -82 -49 -104 -52 -166 -3 -50 1
-85 13 -117 9 -25 19 -57 22 -72 7 -36 -69 -193 -135 -281 -70 -92 -82 -117
-98 -209 -11 -65 -25 -99 -84 -202 -56 -98 -76 -126 -101 -136 -53 -22 -64 -6
-63 86 0 44 8 107 16 141 l16 63 -39 10 c-35 10 -39 14 -39 42 0 19 18 61 44
107 54 91 86 165 86 195 0 12 -13 35 -30 51 -35 34 -37 52 -10 130 11 32 20
83 20 114 1 74 38 139 105 186 76 54 142 122 167 173 23 48 35 134 24 177 -10
38 -58 34 -132 -11 -66 -41 -138 -68 -205 -79 -100 -15 -204 -55 -263 -100
-33 -25 -61 -43 -63 -41 -13 12 46 92 120 163 85 81 155 125 279 174 92 36
221 105 314 167 103 69 243 196 275 250 33 56 80 102 104 102 12 0 34 -13 50
-30z m328 -306 c82 -21 205 -85 243 -126 56 -60 122 -157 146 -216 22 -54 23
-70 23 -299 l0 -241 -31 -39 c-17 -21 -54 -54 -81 -73 -28 -19 -66 -47 -84
-62 -42 -33 -244 -88 -324 -88 -87 0 -126 21 -185 101 -28 38 -60 74 -70 79
-10 6 -60 9 -110 8 -107 -2 -130 10 -170 88 -36 69 -35 159 2 234 60 124 68
147 55 179 -9 26 -8 34 16 68 15 21 34 61 42 89 40 134 182 272 312 303 60 14
150 12 216 -5z m-838 -346 c-15 -91 -65 -161 -168 -237 -33 -24 -71 -64 -89
-92 -19 -32 -44 -57 -69 -70 -44 -22 -48 -35 -19 -72 26 -33 25 -63 -5 -143
-31 -82 -31 -108 -3 -128 22 -16 22 -16 3 -31 -87 -68 -190 -91 -376 -83 -84
3 -104 8 -160 36 -35 17 -100 39 -144 48 -44 9 -82 18 -85 20 -2 3 -8 80 -12
172 -13 258 -28 247 -25 -18 l2 -225 -28 -3 c-15 -2 -27 0 -27 5 0 4 -5 40
-11 78 -7 45 -8 158 -4 314 l7 244 24 -30 c41 -52 69 -58 289 -58 l200 0 65
31 c36 17 91 52 122 78 73 59 103 72 208 86 85 12 129 29 225 88 28 17 58 31
68 31 17 1 18 -4 12 -41z m235 -645 c-1 -12 -49 -45 -60 -41 -17 5 20 48 41
48 10 0 19 -3 19 -7z m1150 -57 c172 -59 328 -210 417 -402 45 -98 52 -160 24
-195 -29 -37 -68 -42 -155 -19 -96 24 -162 58 -213 110 -49 49 -66 93 -61 161
l3 50 -38 -6 c-24 -5 -43 -2 -52 5 -19 16 -19 31 -1 24 7 -3 20 6 29 20 16 24
16 25 -14 35 -19 7 -33 21 -40 40 l-10 30 -29 -32 c-30 -34 -30 -53 2 -62 14
-5 18 -14 16 -33 -2 -22 -8 -26 -28 -24 -13 1 -35 12 -47 24 -28 26 -31 86 -7
124 23 35 10 41 -20 11 -28 -28 -33 -67 -16 -126 5 -19 8 -37 5 -39 -10 -11
-46 33 -56 69 -16 51 -4 103 33 144 26 31 28 35 11 35 -45 0 -87 -83 -81 -158
5 -55 5 -55 -13 -33 -51 63 -42 152 22 213 75 72 179 83 319 34z"/>
<path d="M2610 2373 c0 -5 30 -21 67 -37 101 -43 100 -42 85 -24 -23 28 -152
80 -152 61z"/>
<path d="M2183 2359 c-53 -15 -38 -26 25 -18 31 4 71 8 87 8 23 1 27 4 15 11
-19 12 -84 11 -127 -1z"/>
<path d="M2062 2218 c35 -55 205 -105 271 -79 47 18 30 28 -56 33 -66 3 -96
11 -151 36 -38 18 -71 32 -73 32 -3 0 1 -10 9 -22z"/>
<path d="M2552 2138 c2 -7 33 -28 68 -46 62 -32 69 -33 142 -28 81 7 108 13
108 26 0 13 -42 20 -61 9 -36 -19 -112 -10 -177 21 -70 33 -86 36 -80 18z"/>
<path d="M2340 2022 c-18 -14 -20 -21 -11 -44 14 -38 42 -51 69 -32 32 22 29
46 -5 42 -25 -3 -28 0 -25 25 3 32 1 33 -28 9z"/>
<path d="M2533 1993 c35 -40 5 -60 -42 -27 -29 21 -49 5 -24 -18 31 -28 67
-32 87 -9 25 27 18 65 -14 70 -24 3 -24 2 -7 -16z"/>
<path d="M2300 1842 c0 -16 65 -42 103 -42 20 0 58 -5 86 -12 38 -8 57 -9 76
0 37 17 31 32 -10 25 -22 -4 -41 -1 -51 8 -9 7 -46 14 -83 16 -36 2 -78 6 -93
9 -16 4 -28 2 -28 -4z"/>
<path d="M2406 1731 c-11 -18 23 -33 56 -25 l33 7 -30 13 c-36 16 -52 17 -59
5z"/>
<path d="M77 3053 c-11 -10 -8 -41 4 -48 5 -4 19 1 29 10 16 15 17 19 5 31
-15 15 -28 18 -38 7z"/>
<path d="M4883 3044 c-3 -8 1 -22 9 -30 13 -13 16 -13 27 0 7 9 11 23 7 31 -7
20 -35 19 -43 -1z"/>
<path d="M50 2915 c-15 -18 -5 -35 20 -35 10 0 22 5 25 10 7 11 -12 40 -25 40
-4 0 -13 -7 -20 -15z"/>
<path d="M4916 2917 c-16 -11 -17 -17 -6 -36 11 -22 13 -22 30 -6 15 14 17 22
9 36 -12 23 -11 22 -33 6z"/>
<path d="M4932 2789 c-15 -24 0 -51 24 -42 18 6 18 37 1 51 -10 8 -16 6 -25
-9z"/>
<path d="M27 2776 c-3 -8 0 -22 7 -31 11 -15 13 -15 25 -1 15 18 8 46 -13 46
-7 0 -16 -6 -19 -14z"/>
<path d="M20 2645 c-11 -13 -11 -19 4 -33 15 -15 18 -15 26 -2 22 33 -6 64
-30 35z"/>
<path d="M4938 2648 c-13 -35 27 -53 51 -24 10 12 8 17 -8 25 -26 14 -38 14
-43 -1z"/>
<path d="M23 2522 c-28 -4 -30 -28 -3 -37 23 -7 40 1 40 20 0 18 -9 22 -37 17z"/>
<path d="M4946 2517 c-17 -13 -17 -14 -1 -31 16 -16 19 -16 34 -2 14 14 14 18
0 31 -13 13 -18 13 -33 2z"/>
<path d="M17 2383 c-24 -24 12 -50 43 -31 14 9 16 16 8 25 -11 14 -40 17 -51
6z"/>
<path d="M4937 2376 c-9 -23 18 -39 43 -26 17 9 19 14 9 26 -15 18 -45 18 -52
0z"/>
<path d="M30 2245 c-10 -12 -10 -18 0 -31 12 -13 15 -13 28 0 15 15 10 46 -6
46 -5 0 -15 -7 -22 -15z"/>
<path d="M4927 2246 c-9 -24 18 -39 44 -25 22 11 22 12 4 25 -24 18 -41 18
-48 0z"/>
<path d="M51 2116 c-10 -11 -10 -20 0 -37 11 -22 12 -22 26 -3 25 34 0 72 -26
40z"/>
<path d="M4910 2115 c-23 -28 21 -50 48 -23 9 9 7 14 -6 24 -22 17 -27 17 -42
-1z"/>
<path d="M72 1988 c-8 -8 -8 -17 -1 -30 8 -15 13 -16 32 -7 32 17 32 18 11 34
-23 18 -27 18 -42 3z"/>
<path d="M4886 1987 c-22 -16 -14 -37 14 -37 26 0 35 19 18 36 -12 12 -17 12
-32 1z"/>
<path d="M111 1866 c-16 -19 -7 -46 14 -46 22 0 30 29 13 46 -13 13 -16 13
-27 0z"/>
<path d="M4857 1863 c-12 -11 -8 -41 6 -46 7 -3 22 2 32 10 20 14 20 14 1 29
-22 16 -30 17 -39 7z"/>
<path d="M141 1731 c-16 -28 14 -51 36 -28 13 13 14 19 3 31 -17 21 -27 20
-39 -3z"/>
<path d="M4815 1730 c-8 -12 3 -50 14 -50 5 0 14 7 21 15 10 12 10 18 0 30
-14 17 -26 19 -35 5z"/>
<path d="M192 1603 c-15 -26 4 -59 24 -42 18 15 18 33 0 48 -12 10 -17 9 -24
-6z"/>
<path d="M4764 1598 c-4 -6 1 -17 12 -25 15 -11 20 -11 32 1 8 8 11 19 8 25
-9 14 -43 14 -52 -1z"/>
<path d="M235 1480 c-8 -13 13 -40 30 -40 21 0 36 25 23 38 -15 15 -45 16 -53
2z"/>
<path d="M4713 1474 c-3 -8 1 -22 9 -30 13 -13 16 -13 27 0 7 9 11 23 7 31 -7
20 -35 19 -43 -1z"/>
<path d="M290 1360 c-13 -9 -12 -12 5 -25 24 -19 40 -14 40 11 0 22 -23 29
-45 14z"/>
<path d="M4654 1359 c-3 -6 1 -18 10 -27 15 -15 17 -15 34 1 15 16 15 19 2 27
-20 13 -37 12 -46 -1z"/>
<path d="M370 1244 c-11 -12 -11 -18 1 -30 13 -12 18 -12 34 0 16 12 17 16 6
30 -17 20 -25 20 -41 0z"/>
<path d="M4591 1246 c-9 -11 -9 -19 1 -35 17 -27 26 -26 34 3 10 41 -12 60
-35 32z"/>
<path d="M2622 1234 c-31 -21 -28 -41 9 -60 27 -13 38 -14 75 -4 56 16 60 44
9 66 -44 18 -65 18 -93 -2z m84 -29 c18 -13 16 -14 -23 -15 -41 0 -65 13 -41
23 24 10 44 7 64 -8z"/>
<path d="M2132 1126 c-31 -29 -35 -38 -26 -53 17 -27 39 -27 83 2 45 30 57 51
40 71 -20 24 -58 16 -97 -20z m78 0 c0 -18 -49 -58 -64 -53 -20 7 -11 41 14
54 33 17 50 16 50 -1z"/>
<path d="M4520 1134 c-11 -12 -10 -18 3 -32 16 -15 18 -15 34 0 13 14 14 20 3
32 -7 9 -16 16 -20 16 -4 0 -13 -7 -20 -16z"/>
<path d="M434 1129 c-3 -6 1 -18 10 -27 15 -15 17 -15 32 0 9 9 13 21 10 27
-9 14 -43 14 -52 0z"/>
<path d="M4442 1030 c-15 -24 -8 -40 18 -40 23 0 31 21 15 43 -16 22 -17 21
-33 -3z"/>
<path d="M523 1033 c-17 -6 -16 -38 1 -52 10 -9 16 -8 25 3 23 28 4 62 -26 49z"/>
<path d="M595 920 c-8 -13 13 -40 30 -40 21 0 36 25 23 38 -15 15 -45 16 -53
2z"/>
<path d="M4357 923 c-4 -3 -7 -15 -7 -25 0 -21 32 -25 49 -5 17 22 -22 50 -42
30z"/>
<path d="M690 825 c-11 -13 -11 -19 3 -33 20 -19 41 -5 35 24 -4 24 -22 28
-38 9z"/>
<path d="M4264 819 c-3 -6 1 -18 10 -27 15 -15 17 -15 32 0 19 19 11 38 -16
38 -10 0 -22 -5 -26 -11z"/>
<path d="M784 725 c-12 -29 15 -45 45 -26 12 8 12 12 2 25 -17 20 -40 21 -47
1z"/>
<path d="M4177 733 c-11 -10 -8 -41 4 -49 6 -3 18 1 27 9 13 13 13 19 2 31
-14 17 -23 20 -33 9z"/>
<path d="M887 643 c-11 -10 -8 -41 4 -49 6 -3 18 1 27 9 13 13 13 19 2 31 -14
17 -23 20 -33 9z"/>
<path d="M4077 643 c-24 -23 12 -55 38 -33 12 10 13 16 4 26 -12 15 -31 18
-42 7z"/>
<path d="M3970 555 c-8 -10 -8 -19 2 -34 15 -25 24 -26 32 -5 15 38 -10 67
-34 39z"/>
<path d="M984 549 c-3 -6 1 -18 10 -27 15 -15 17 -15 32 0 19 19 11 38 -16 38
-10 0 -22 -5 -26 -11z"/>
<path d="M1101 486 c-16 -19 -7 -46 14 -46 22 0 30 29 13 46 -13 13 -16 13
-27 0z"/>
<path d="M2690 464 c-27 -23 -36 -26 -73 -19 -68 11 -90 8 -110 -16 -13 -17
-17 -32 -12 -56 6 -32 5 -33 -70 -70 -83 -41 -92 -59 -54 -107 24 -31 49 -32
108 -6 l43 20 30 -25 c16 -14 36 -25 44 -25 25 0 151 68 158 85 8 21 -10 55
-29 55 -8 0 -15 5 -15 10 0 6 22 10 49 10 66 0 101 27 101 79 0 24 -8 49 -21
65 -29 37 -104 37 -149 0z m125 -9 c51 -51 16 -126 -53 -111 -27 6 -102 -17
-102 -31 0 -16 35 -43 57 -43 40 0 22 -23 -41 -53 -45 -22 -66 -27 -93 -22
-28 5 -33 10 -27 23 4 9 7 29 7 43 0 23 10 31 87 69 48 23 98 43 111 44 18 1
24 7 24 25 0 36 -21 37 -52 3 -26 -28 -316 -182 -342 -182 -32 0 -2 33 72 77
45 27 131 80 191 116 60 37 116 67 123 67 8 0 25 -11 38 -25z m-225 -33 c0 -4
-13 -16 -30 -25 -29 -18 -30 -18 -30 1 0 10 3 22 7 25 9 10 53 9 53 -1z m-83
-187 c-25 -22 -96 -50 -105 -40 -5 4 109 64 123 64 6 0 -2 -11 -18 -24z"/>
<path d="M3860 475 c-6 -8 -9 -19 -5 -25 8 -13 42 -13 50 0 7 11 -12 40 -25
40 -4 0 -13 -7 -20 -15z"/>
<path d="M3752 409 c-15 -24 0 -51 23 -43 22 9 25 31 6 48 -15 14 -18 13 -29
-5z"/>
<path d="M1209 404 c-10 -12 -9 -18 4 -31 13 -13 19 -14 31 -3 21 17 20 27 -3
39 -14 8 -22 7 -32 -5z"/>
<path d="M1325 340 c-8 -24 1 -40 21 -40 20 0 29 27 14 45 -17 20 -27 19 -35
-5z"/>
<path d="M3637 343 c-24 -23 12 -55 38 -33 12 10 13 16 4 26 -12 15 -31 18
-42 7z"/>
<path d="M1442 283 c-13 -25 -4 -43 19 -43 25 0 35 25 19 45 -16 20 -27 19
-38 -2z"/>
<path d="M3515 280 c-8 -12 3 -50 14 -50 5 0 14 7 21 15 10 12 10 18 0 30 -14
17 -26 19 -35 5z"/>
<path d="M1573 233 c-16 -6 -17 -29 -3 -38 13 -8 50 3 50 15 0 13 -32 28 -47
23z"/>
<path d="M3389 224 c-18 -22 13 -53 35 -35 16 14 12 37 -9 45 -7 2 -19 -2 -26
-10z"/>
<path d="M1690 185 c-11 -13 -11 -19 3 -33 20 -19 41 -5 35 24 -4 24 -22 28
-38 9z"/>
<path d="M3267 183 c-24 -23 12 -55 38 -33 12 10 13 16 4 26 -12 15 -31 18
-42 7z"/>
<path d="M3141 146 c-11 -13 -6 -46 8 -46 19 1 33 20 26 39 -7 24 -18 27 -34
7z"/>
<path d="M1814 139 c-3 -6 1 -18 10 -27 15 -15 17 -15 32 0 19 19 11 38 -16
38 -10 0 -22 -5 -26 -11z"/>
<path d="M1953 109 c-16 -16 -5 -39 17 -39 25 0 35 18 20 35 -15 18 -22 19
-37 4z"/>
<path d="M3003 104 c-8 -22 11 -37 36 -29 25 8 28 30 5 39 -25 9 -34 7 -41
-10z"/>
<path d="M2080 90 c-15 -28 5 -57 26 -39 18 15 18 33 0 48 -12 10 -17 8 -26
-9z"/>
<path d="M2880 85 c-19 -22 5 -48 31 -34 10 5 19 14 19 19 0 5 -9 14 -19 19
-14 8 -22 7 -31 -4z"/>
<path d="M2211 61 c-8 -14 -7 -22 5 -32 14 -11 18 -10 30 6 10 13 11 22 3 32
-16 18 -26 16 -38 -6z"/>
<path d="M2351 66 c-16 -19 -7 -46 14 -46 22 0 30 29 13 46 -13 13 -16 13 -27
0z"/>
<path d="M2749 64 c-16 -20 2 -38 30 -29 26 8 27 21 2 34 -14 8 -22 7 -32 -5z"/>
<path d="M2610 55 c-10 -13 -10 -19 5 -35 18 -20 18 -20 32 0 12 17 12 24 3
35 -16 19 -24 19 -40 0z"/>
<path d="M2476 51 c-9 -14 4 -41 19 -41 12 0 25 21 25 41 0 12 -37 12 -44 0z"/>
</g>
</svg>
